<svg xmlns="http://www.w3.org/2000/svg" width="41" height="42" viewBox="0 0 41 42" fill="none">
<path d="M22.9683 22.4246C23.2188 22.4246 23.4219 22.2213 23.4219 21.9704C23.4219 21.7195 23.2188 21.5161 22.9683 21.5161C22.7177 21.5161 22.5146 21.7195 22.5146 21.9704C22.5146 22.2213 22.7177 22.4246 22.9683 22.4246Z" stroke="#FF33FF" stroke-width="1.5" stroke-miterlimit="10"/>
<path d="M20.4203 6.09863C21.0041 6.64507 21.3687 7.41799 21.3687 8.2736C21.3687 9.92909 20.0072 11.2718 18.3277 11.2718C17.4997 11.2718 16.7507 10.9465 16.2028 10.4162C16.9105 11.3239 17.3327 12.46 17.3327 13.693C17.3327 16.6643 14.8898 19.0729 11.8776 19.0729C10.7281 19.0729 9.66292 18.7224 8.78458 18.1239C8.8672 18.3432 8.9139 18.5804 8.9139 18.8285C8.9139 19.9537 7.98886 20.8668 6.84649 20.8668C6.0382 20.8668 5.34128 20.4085 5 19.7434V20.9459C5 29.0832 11.689 35.68 19.9407 35.68H20.0593C28.311 35.68 35 29.0832 35 20.9459V20.8291C35 12.8105 28.5032 6.28737 20.4185 6.09863H20.4203Z" fill="url(#paint0_linear_2001_22606)"/>
<path d="M12.1347 17.4355C14.0424 17.4355 15.5888 15.9105 15.5888 14.0293C15.5888 12.1481 14.0424 10.623 12.1347 10.623C10.2271 10.623 8.68066 12.1481 8.68066 14.0293C8.68066 15.9105 10.2271 17.4355 12.1347 17.4355Z" fill="url(#paint1_linear_2001_22606)"/>
<path d="M6.49459 12.7587C7.31895 12.7587 7.98723 12.0996 7.98723 11.2866C7.98723 10.4736 7.31895 9.81445 6.49459 9.81445C5.67023 9.81445 5.00195 10.4736 5.00195 11.2866C5.00195 12.0996 5.67023 12.7587 6.49459 12.7587Z" fill="url(#paint2_linear_2001_22606)"/>
<path d="M11.646 9.83595C12.6925 9.83595 13.5409 8.999 13.5409 7.96656C13.5409 6.93412 12.6925 6.09717 11.646 6.09717C10.5994 6.09717 9.75098 6.93412 9.75098 7.96656C9.75098 8.999 10.5994 9.83595 11.646 9.83595Z" fill="url(#paint3_linear_2001_22606)"/>
<path d="M6.00286 7.94129C6.54649 7.94129 6.98718 7.50672 6.98718 6.97065C6.98718 6.43457 6.54649 6 6.00286 6C5.45924 6 5.01855 6.43457 5.01855 6.97065C5.01855 7.50672 5.45924 7.94129 6.00286 7.94129Z" fill="url(#paint4_linear_2001_22606)"/>
<path d="M18.2279 10.0765C19.3429 10.0765 20.2468 9.18482 20.2468 8.08488C20.2468 6.98494 19.3429 6.09326 18.2279 6.09326C17.1129 6.09326 16.209 6.98494 16.209 8.08488C16.209 9.18482 17.1129 10.0765 18.2279 10.0765Z" fill="url(#paint5_linear_2001_22606)"/>
<path d="M6.68845 19.9615C7.46024 19.9615 8.08589 19.3442 8.08589 18.5828C8.08589 17.8214 7.46024 17.2041 6.68845 17.2041C5.91667 17.2041 5.29102 17.8214 5.29102 18.5828C5.29102 19.3442 5.91667 19.9615 6.68845 19.9615Z" fill="url(#paint6_linear_2001_22606)"/>
<path d="M33.0266 28.2656L24.369 21.8252C24.6132 21.4118 24.7551 20.9318 24.7569 20.4195C24.7605 18.8701 23.4852 17.6065 21.9154 17.6011C20.3437 17.5975 19.063 18.8539 19.0576 20.4034C19.054 21.9528 20.3293 23.2164 21.8992 23.2218C22.4668 23.2218 22.9949 23.0601 23.4403 22.7779L32.3297 29.3908C32.5524 29.0727 32.8183 28.6233 33.0248 28.2638L33.0266 28.2656ZM21.9028 22.1667C20.9221 22.1649 20.1281 21.3758 20.1299 20.4088C20.1317 19.4417 20.9328 18.658 21.9118 18.6598C22.8925 18.6616 23.6864 19.4507 23.6846 20.4178C23.6828 21.3848 22.8817 22.1685 21.9028 22.1667Z" fill="white"/>
<path d="M20.7271 27.4171C20.1703 27.4243 19.6619 27.6256 19.2632 27.951C17.3862 26.5687 11.227 22.0318 8.51657 20.042C8.23816 20.4267 7.88431 20.6262 7.62207 20.7268L18.6094 28.8048C18.4765 29.1014 18.4028 29.4303 18.4064 29.7754C18.4244 31.057 19.4967 32.0834 20.7971 32.0654C22.0958 32.0474 23.1376 30.9887 23.1196 29.7089C23.1017 28.4273 22.0293 27.4009 20.7289 27.4189L20.7271 27.4171ZM20.7828 31.19C19.9727 31.2008 19.3045 30.5609 19.2919 29.761C19.2794 28.9611 19.9296 28.3015 20.7397 28.2907C21.5497 28.2799 22.2179 28.9198 22.2305 29.7197C22.2431 30.5196 21.5928 31.1793 20.7828 31.19Z" fill="white"/>
<path d="M29.1072 14.3275C28.6204 14.3347 28.1749 14.5091 27.8247 14.7913L20.9992 9.71875C20.8626 9.95961 20.6722 10.2167 20.4082 10.4575L27.2481 15.539C27.1296 15.8015 27.0631 16.0927 27.0667 16.4C27.0829 17.5271 28.0259 18.4294 29.1682 18.4132C30.3106 18.397 31.2267 17.4677 31.2105 16.3407C31.1943 15.2137 30.2513 14.3113 29.109 14.3275H29.1072ZM29.1557 17.6457C28.4426 17.6565 27.8552 17.0921 27.8444 16.3892C27.8337 15.6864 28.4049 15.1058 29.1179 15.0968C29.831 15.0861 30.4184 15.6505 30.4292 16.3533C30.4399 17.0561 29.8687 17.6367 29.1557 17.6457Z" fill="white"/>
<defs>
<linearGradient id="paint0_linear_2001_22606" x1="5.00359" y1="20.8884" x2="35.0036" y2="20.8884" gradientUnits="userSpaceOnUse">
<stop offset="0.14" stop-color="#EDAB62"/>
<stop offset="0.54" stop-color="#FF406C"/>
<stop offset="1" stop-color="#CA1152"/>
</linearGradient>
<linearGradient id="paint1_linear_2001_22606" x1="8.68066" y1="14.0293" x2="15.5906" y2="14.0293" gradientUnits="userSpaceOnUse">
<stop offset="0.14" stop-color="#EDAB62"/>
<stop offset="0.54" stop-color="#FF406C"/>
<stop offset="1" stop-color="#CA1152"/>
</linearGradient>
<linearGradient id="paint2_linear_2001_22606" x1="5.00195" y1="11.2866" x2="7.98723" y2="11.2866" gradientUnits="userSpaceOnUse">
<stop offset="0.14" stop-color="#EDAB62"/>
<stop offset="0.54" stop-color="#FF406C"/>
<stop offset="1" stop-color="#CA1152"/>
</linearGradient>
<linearGradient id="paint3_linear_2001_22606" x1="9.75098" y1="7.96656" x2="13.5409" y2="7.96656" gradientUnits="userSpaceOnUse">
<stop offset="0.14" stop-color="#EDAB62"/>
<stop offset="0.54" stop-color="#FF406C"/>
<stop offset="1" stop-color="#CA1152"/>
</linearGradient>
<linearGradient id="paint4_linear_2001_22606" x1="5.01855" y1="6.97065" x2="6.98718" y2="6.97065" gradientUnits="userSpaceOnUse">
<stop offset="0.14" stop-color="#EDAB62"/>
<stop offset="0.54" stop-color="#FF406C"/>
<stop offset="1" stop-color="#CA1152"/>
</linearGradient>
<linearGradient id="paint5_linear_2001_22606" x1="16.209" y1="8.08488" x2="20.2468" y2="8.08488" gradientUnits="userSpaceOnUse">
<stop offset="0.14" stop-color="#EDAB62"/>
<stop offset="0.54" stop-color="#FF406C"/>
<stop offset="1" stop-color="#CA1152"/>
</linearGradient>
<linearGradient id="paint6_linear_2001_22606" x1="5.28922" y1="18.5828" x2="8.08589" y2="18.5828" gradientUnits="userSpaceOnUse">
<stop offset="0.14" stop-color="#EDAB62"/>
<stop offset="0.54" stop-color="#FF406C"/>
<stop offset="1" stop-color="#CA1152"/>
</linearGradient>
</defs>
</svg>