<svg xmlns="http://www.w3.org/2000/svg" width="37" height="32" viewBox="0 0 37 32" fill="none">
<path d="M15.4203 0.0986328C16.0041 0.64507 16.3687 1.41799 16.3687 2.2736C16.3687 3.92909 15.0072 5.27182 13.3277 5.27182C12.4997 5.27182 11.7507 4.94647 11.2028 4.41621C11.9105 5.32394 12.3327 6.45996 12.3327 7.69304C12.3327 10.6643 9.88983 13.0729 6.87761 13.0729C5.72805 13.0729 4.66292 12.7224 3.78458 12.1239C3.8672 12.3432 3.9139 12.5804 3.9139 12.8285C3.9139 13.9537 2.98886 14.8668 1.84649 14.8668C1.0382 14.8668 0.341276 14.4085 0 13.7434V14.9459C0 23.0832 6.68902 29.68 14.9407 29.68H15.0593C23.311 29.68 30 23.0832 30 14.9459V14.8291C30 6.81047 23.5032 0.287369 15.4185 0.0986328H15.4203Z" fill="url(#paint0_linear_2296_1236)"/>
<path d="M7.13474 11.4355C9.04238 11.4355 10.5888 9.91051 10.5888 8.02929C10.5888 6.14807 9.04238 4.62305 7.13474 4.62305C5.22711 4.62305 3.68066 6.14807 3.68066 8.02929C3.68066 9.91051 5.22711 11.4355 7.13474 11.4355Z" fill="url(#paint1_linear_2296_1236)"/>
<path d="M1.49435 6.75874C2.31871 6.75874 2.98698 6.09964 2.98698 5.2866C2.98698 4.47356 2.31871 3.81445 1.49435 3.81445C0.66999 3.81445 0.00170898 4.47356 0.00170898 5.2866C0.00170898 6.09964 0.66999 6.75874 1.49435 6.75874Z" fill="url(#paint2_linear_2296_1236)"/>
<path d="M6.64596 3.83595C7.69253 3.83595 8.54094 2.999 8.54094 1.96656C8.54094 0.934123 7.69253 0.097168 6.64596 0.097168C5.59939 0.097168 4.75098 0.934123 4.75098 1.96656C4.75098 2.999 5.59939 3.83595 6.64596 3.83595Z" fill="url(#paint3_linear_2296_1236)"/>
<path d="M1.00262 1.94129C1.54624 1.94129 1.98694 1.50672 1.98694 0.970646C1.98694 0.434573 1.54624 0 1.00262 0C0.458999 0 0.0183105 0.434573 0.0183105 0.970646C0.0183105 1.50672 0.458999 1.94129 1.00262 1.94129Z" fill="url(#paint4_linear_2296_1236)"/>
<path d="M13.2277 4.0765C14.3427 4.0765 15.2466 3.18482 15.2466 2.08488C15.2466 0.98494 14.3427 0.0932617 13.2277 0.0932617C12.1126 0.0932617 11.2087 0.98494 11.2087 2.08488C11.2087 3.18482 12.1126 4.0765 13.2277 4.0765Z" fill="url(#paint5_linear_2296_1236)"/>
<path d="M1.6887 13.9615C2.46048 13.9615 3.08613 13.3442 3.08613 12.5828C3.08613 11.8214 2.46048 11.2041 1.6887 11.2041C0.916914 11.2041 0.29126 11.8214 0.29126 12.5828C0.29126 13.3442 0.916914 13.9615 1.6887 13.9615Z" fill="url(#paint6_linear_2296_1236)"/>
<path d="M28.0261 22.2656L19.3685 15.8252C19.6128 15.4118 19.7547 14.9318 19.7564 14.4195C19.76 12.8701 18.4847 11.6065 16.9149 11.6011C15.3432 11.5975 14.0625 12.8539 14.0571 14.4034C14.0535 15.9528 15.3288 17.2164 16.8987 17.2218C17.4663 17.2218 17.9944 17.0601 18.4398 16.7779L27.3292 23.3908C27.5519 23.0727 27.8178 22.6233 28.0243 22.2638L28.0261 22.2656ZM16.9023 16.1667C15.9216 16.1649 15.1277 15.3758 15.1295 14.4088C15.1313 13.4417 15.9324 12.658 16.9113 12.6598C17.892 12.6616 18.6859 13.4507 18.6841 14.4178C18.6823 15.3848 17.8812 16.1685 16.9023 16.1667Z" fill="white"/>
<path d="M15.7276 21.4171C15.1708 21.4243 14.6624 21.6256 14.2637 21.951C12.3867 20.5687 6.22751 16.0318 3.51706 14.042C3.23865 14.4267 2.8848 14.6262 2.62256 14.7268L13.6099 22.8048C13.4769 23.1014 13.4033 23.4303 13.4069 23.7754C13.4249 25.057 14.4972 26.0834 15.7976 26.0654C17.0963 26.0474 18.1381 24.9887 18.1201 23.7089C18.1021 22.4273 17.0298 21.4009 15.7294 21.4189L15.7276 21.4171ZM15.7833 25.19C14.9732 25.2008 14.305 24.5609 14.2924 23.761C14.2798 22.9611 14.9301 22.3015 15.7401 22.2907C16.5502 22.2799 17.2184 22.9198 17.231 23.7197C17.2436 24.5196 16.5933 25.1793 15.7833 25.19Z" fill="white"/>
<path d="M24.1072 8.32752C23.6204 8.33471 23.1749 8.50907 22.8247 8.79127L15.9992 3.71875C15.8626 3.95961 15.6722 4.21666 15.4082 4.45752L22.2481 9.53903C22.1296 9.80146 22.0631 10.0927 22.0667 10.4C22.0829 11.5271 23.0259 12.4294 24.1682 12.4132C25.3106 12.397 26.2267 11.4677 26.2105 10.3407C26.1943 9.21368 25.2513 8.31134 24.109 8.32752H24.1072ZM24.1557 11.6457C23.4426 11.6565 22.8552 11.0921 22.8444 10.3892C22.8337 9.68642 23.4049 9.10583 24.1179 9.09685C24.831 9.08606 25.4184 9.65047 25.4292 10.3533C25.4399 11.0561 24.8687 11.6367 24.1557 11.6457Z" fill="white"/>
<g filter="url(#filter0_d_2296_1236)">
<path d="M25.969 20.6888V23.651H30.1333C29.4832 25.8053 27.4713 27.3776 25.0816 27.3776H17.5349C16.138 27.3776 14.9959 26.257 14.9959 24.8672C14.9959 23.486 16.1292 22.3567 17.5349 22.3567C18.9318 22.3567 20.0739 23.4773 20.0739 24.8672H23.061C23.061 22.8258 21.9276 21.045 20.2408 20.1068C21.0491 18.2565 22.9116 16.9622 25.0816 16.9622C26.417 16.9622 27.6821 17.4573 28.6573 18.3521C28.7364 18.4216 28.8067 18.4911 28.877 18.5606L31.0382 16.5105C30.9328 16.3975 30.8186 16.2933 30.7043 16.1804C29.1669 14.7731 27.1726 14 25.0816 14C21.5059 14 18.4574 16.2586 17.3064 19.4032C14.3633 19.5248 12 21.9223 12 24.8672C12 27.8815 14.4775 30.3311 17.5261 30.3311H25.0816C29.6325 30.3311 33.34 26.6653 33.34 22.1656V20.6888H25.969Z" fill="white"/>
</g>
<defs>
<filter id="filter0_d_2296_1236" x="8" y="7" width="29.3401" height="24.3311" filterUnits="userSpaceOnUse" color-interpolation-filters="sRGB">
<feFlood flood-opacity="0" result="BackgroundImageFix"/>
<feColorMatrix in="SourceAlpha" type="matrix" values="0 0 0 0 0 0 0 0 0 0 0 0 0 0 0 0 0 0 127 0" result="hardAlpha"/>
<feOffset dy="-3"/>
<feGaussianBlur stdDeviation="2"/>
<feComposite in2="hardAlpha" operator="out"/>
<feColorMatrix type="matrix" values="0 0 0 0 0 0 0 0 0 0 0 0 0 0 0 0 0 0 0.39 0"/>
<feBlend mode="normal" in2="BackgroundImageFix" result="effect1_dropShadow_2296_1236"/>
<feBlend mode="normal" in="SourceGraphic" in2="effect1_dropShadow_2296_1236" result="shape"/>
</filter>
<linearGradient id="paint0_linear_2296_1236" x1="0.00359238" y1="14.8884" x2="30.0036" y2="14.8884" gradientUnits="userSpaceOnUse">
<stop offset="0.14" stop-color="#EDAB62"/>
<stop offset="0.54" stop-color="#FF406C"/>
<stop offset="1" stop-color="#CA1152"/>
</linearGradient>
<linearGradient id="paint1_linear_2296_1236" x1="3.68066" y1="8.02929" x2="10.5906" y2="8.02929" gradientUnits="userSpaceOnUse">
<stop offset="0.14" stop-color="#EDAB62"/>
<stop offset="0.54" stop-color="#FF406C"/>
<stop offset="1" stop-color="#CA1152"/>
</linearGradient>
<linearGradient id="paint2_linear_2296_1236" x1="0.00170898" y1="5.2866" x2="2.98698" y2="5.2866" gradientUnits="userSpaceOnUse">
<stop offset="0.14" stop-color="#EDAB62"/>
<stop offset="0.54" stop-color="#FF406C"/>
<stop offset="1" stop-color="#CA1152"/>
</linearGradient>
<linearGradient id="paint3_linear_2296_1236" x1="4.75098" y1="1.96656" x2="8.54094" y2="1.96656" gradientUnits="userSpaceOnUse">
<stop offset="0.14" stop-color="#EDAB62"/>
<stop offset="0.54" stop-color="#FF406C"/>
<stop offset="1" stop-color="#CA1152"/>
</linearGradient>
<linearGradient id="paint4_linear_2296_1236" x1="0.0183105" y1="0.970646" x2="1.98694" y2="0.970646" gradientUnits="userSpaceOnUse">
<stop offset="0.14" stop-color="#EDAB62"/>
<stop offset="0.54" stop-color="#FF406C"/>
<stop offset="1" stop-color="#CA1152"/>
</linearGradient>
<linearGradient id="paint5_linear_2296_1236" x1="11.2087" y1="2.08488" x2="15.2466" y2="2.08488" gradientUnits="userSpaceOnUse">
<stop offset="0.14" stop-color="#EDAB62"/>
<stop offset="0.54" stop-color="#FF406C"/>
<stop offset="1" stop-color="#CA1152"/>
</linearGradient>
<linearGradient id="paint6_linear_2296_1236" x1="0.289464" y1="12.5828" x2="3.08613" y2="12.5828" gradientUnits="userSpaceOnUse">
<stop offset="0.14" stop-color="#EDAB62"/>
<stop offset="0.54" stop-color="#FF406C"/>
<stop offset="1" stop-color="#CA1152"/>
</linearGradient>
</defs>
</svg>