<svg width="23" height="24" viewBox="0 0 23 24" fill="none" xmlns="http://www.w3.org/2000/svg">
<path d="M7.1875 3.63672H4.3125C3.91555 3.63672 3.59375 3.95851 3.59375 4.35547V18.7305C3.59375 19.1274 3.91555 19.4492 4.3125 19.4492H7.1875C7.58445 19.4492 7.90625 19.1274 7.90625 18.7305V4.35547C7.90625 3.95851 7.58445 3.63672 7.1875 3.63672Z" stroke="white" stroke-width="0.8" stroke-linecap="round" stroke-linejoin="round"/>
<path d="M3.59375 7.23047H7.90625" stroke="white" stroke-width="0.8" stroke-linecap="round" stroke-linejoin="round"/>
<path d="M11.5 3.63672H8.625C8.22805 3.63672 7.90625 3.95851 7.90625 4.35547V18.7305C7.90625 19.1274 8.22805 19.4492 8.625 19.4492H11.5C11.897 19.4492 12.2188 19.1274 12.2188 18.7305V4.35547C12.2188 3.95851 11.897 3.63672 11.5 3.63672Z" stroke="white" stroke-width="0.8" stroke-linecap="round" stroke-linejoin="round"/>
<path d="M7.90625 15.8555H12.2188" stroke="white" stroke-width="0.8" stroke-linecap="round" stroke-linejoin="round"/>
<path d="M15.7711 3.40156L12.9823 4.14906C12.5973 4.25227 12.3688 4.64808 12.472 5.03313L16.2095 18.9769C16.3127 19.3619 16.7085 19.5904 17.0936 19.4872L19.8823 18.7397C20.2674 18.6365 20.4959 18.2407 20.3927 17.8556L16.6552 3.91187C16.5519 3.52683 16.1561 3.29835 15.7711 3.40156Z" stroke="white" stroke-width="0.8" stroke-linecap="round" stroke-linejoin="round"/>
<path d="M15.3809 16.1431L19.5496 15.02" stroke="white" stroke-width="0.8" stroke-linecap="round" stroke-linejoin="round"/>
<path d="M13.1533 7.80547L17.3221 6.69141" stroke="white" stroke-width="0.8" stroke-linecap="round" stroke-linejoin="round"/>
</svg>
