<svg width="32" height="33" viewBox="0 0 32 33" fill="none" xmlns="http://www.w3.org/2000/svg"><path d="M24.7658 19.3385H23.7764V13.5504C23.7764 11.5259 22.1407 9.87975 20.129 9.87975H13.7179V8.88409H20.129C22.6881 8.88409 24.7658 10.975 24.7658 13.5504V19.3385Z" fill="white"></path><path d="M20.7819 11.818H15.4327V12.8136H20.7819V11.818Z" fill="white"></path><path d="M22.101 14.8182H15.4327V15.8139H22.101V14.8182Z" fill="white"></path><path d="M18.3349 17.9712L15.3602 20.9648L11.1191 16.6834L13.7574 14.0283L9.07444 9.31555L7.19465 11.5193C5.66444 13.3115 5.76997 16.0263 7.4321 17.699L13.8168 24.1243C14.1795 24.4894 14.5951 24.7815 15.037 24.9939V23.8522C14.8523 23.7261 14.6808 23.5867 14.5159 23.4207L8.13125 16.9954C6.83188 15.6878 6.75274 13.5703 7.94657 12.1698L9.1272 10.7825L12.3591 14.035L9.72082 16.6901L15.3536 22.3852L18.3283 19.3916L20.927 22.0069L19.5089 23.434C19.1659 23.7792 18.7636 24.038 18.3283 24.2173V25.2727C19.0142 25.0602 19.6606 24.6885 20.2081 24.1376L22.3253 22.0069L18.3283 17.9844L18.3349 17.9712Z" fill="white"></path></svg>