<svg width="30" height="32" viewBox="0 0 30 32" fill="none" xmlns="http://www.w3.org/2000/svg"><path d="M16.5127 23.0879C16.1617 23.9387 15.3319 24.5381 14.3617 24.5381H9.75952C8.47655 24.5381 7.42974 23.481 7.42974 22.1855V11.0996C7.42974 9.80409 8.47655 8.74706 9.75952 8.74706H14.3617C15.6446 8.74706 16.6914 9.80409 16.6914 11.0996V15.998H17.6489V11.0996C17.6489 9.26913 16.1744 7.78026 14.3617 7.78026H9.75952C7.94676 7.78026 6.47229 9.26913 6.47229 11.0996V22.192C6.47229 24.0224 7.94676 25.5113 9.75952 25.5113H14.3617C15.8617 25.5113 17.1191 24.4865 17.5085 23.0943H16.5127V23.0879Z" fill="white"></path><path d="M13.3404 9.71385H10.7872V10.6806H13.3404V9.71385Z" fill="white"></path><path d="M22.4936 13.5359L19.1745 13.5488L19.1872 14.5156L22.5064 14.5027C22.7872 14.5027 23.017 14.7283 23.0234 15.0055L23.1064 18.8146C23.1064 19.0982 22.883 19.3303 22.6085 19.3367L16.4425 19.4269L17.534 18.3054L16.8511 17.6287L14.6042 19.9361L16.9085 22.1855L17.5723 21.4894L16.4489 20.4002L22.6149 20.3099C23.4255 20.2971 24.0702 19.6267 24.0574 18.8146L23.9745 15.0055C23.9617 14.1869 23.2979 13.5359 22.4936 13.5488V13.5359Z" fill="white"></path><path d="M12.1914 20.2133H13.1234V19.2465H12.1914C11.9106 19.2465 11.6872 19.0144 11.6872 18.7373V14.9281C11.6872 14.6445 11.917 14.4189 12.1914 14.4189H13.8893L12.7851 15.5275L13.4553 16.2172L15.734 13.942L13.4553 11.6668L12.7851 12.3564L13.8893 13.465H12.1914C11.3808 13.465 10.7297 14.1289 10.7297 14.941V18.7502C10.7297 19.5687 11.3872 20.2262 12.1914 20.2262V20.2133Z" fill="white"></path><path d="M12.0638 23.7324C12.4164 23.7324 12.7021 23.4438 12.7021 23.0879C12.7021 22.7319 12.4164 22.4433 12.0638 22.4433C11.7113 22.4433 11.4255 22.7319 11.4255 23.0879C11.4255 23.4438 11.7113 23.7324 12.0638 23.7324Z" fill="white"></path></svg>