<svg width="19" height="18" viewBox="0 0 19 18" fill="none" xmlns="http://www.w3.org/2000/svg">
<path d="M9.99594 17.6194C9.86178 17.6194 9.73372 17.5821 9.61786 17.5137C9.44101 17.408 9.31905 17.24 9.27026 17.041C9.22148 16.842 9.24587 16.6367 9.34954 16.4563C9.45321 16.276 9.61786 16.1516 9.81299 16.1018C10.0081 16.052 10.2094 16.0769 10.3862 16.1827C10.5631 16.2884 10.685 16.4563 10.7338 16.6554C10.7826 16.8544 10.7582 17.0597 10.6545 17.24C10.5509 17.4204 10.3862 17.5448 10.1911 17.5946C10.1301 17.6132 10.063 17.6194 10.002 17.6194H9.99594ZM9.99594 16.5496C9.99594 16.5496 9.94715 16.5496 9.92276 16.5621C9.84958 16.5807 9.7825 16.6305 9.74591 16.6989C9.70933 16.7673 9.69713 16.8482 9.71542 16.9228C9.73372 16.9975 9.7825 17.0659 9.84958 17.1032C9.91666 17.1405 9.99594 17.153 10.0691 17.1343C10.1423 17.1156 10.2094 17.0659 10.246 16.9975C10.2825 16.929 10.2947 16.8482 10.2764 16.7735C10.2582 16.6989 10.2094 16.6305 10.1423 16.5932C10.0996 16.5683 10.0447 16.5496 9.99594 16.5496Z" fill="#950019"/>
<path d="M17.4887 7.15758C17.7387 7.15758 17.9278 6.92123 17.8729 6.67244C17.0191 2.87212 13.6713 0.0234375 9.68926 0.0234375C5.70721 0.0234375 2.35936 2.8659 1.50563 6.67244C1.45075 6.92123 1.63979 7.15758 1.88981 7.15758C2.07276 7.15758 2.2313 7.02697 2.27399 6.84659C3.04845 3.40081 6.07919 0.825796 9.69535 0.825796C13.3115 0.825796 16.3362 3.40081 17.1167 6.84659C17.1594 7.02697 17.318 7.15758 17.5009 7.15758H17.4887Z" fill="#FF8B00"/>
<path d="M16.5334 11.9905C15.6004 13.9373 13.8929 15.4239 11.8196 16.0396C11.661 16.0894 11.5146 16.2635 11.5146 16.4377C11.5146 16.6989 11.7647 16.8917 12.0086 16.8171C14.3076 16.1391 16.2041 14.4847 17.2407 12.3264C17.3627 12.0652 17.1798 11.7666 16.8993 11.7666H16.881C16.7346 11.7666 16.6004 11.8537 16.5334 11.9905Z" fill="#FF0033"/>
<path d="M2.57311 7.86674C2.57311 7.67094 2.41749 7.51221 2.22552 7.51221C2.03355 7.51221 1.87793 7.67094 1.87793 7.86674V10.8212C1.87793 11.017 2.03355 11.1757 2.22552 11.1757C2.41749 11.1757 2.57311 11.017 2.57311 10.8212V7.86674Z" fill="#FFC251"/>
<path d="M1.63463 8.81205C1.63463 8.61625 1.47901 8.45752 1.28704 8.45752C1.09507 8.45752 0.939453 8.61625 0.939453 8.81205V9.99382C0.939453 10.1896 1.09507 10.3483 1.28704 10.3483C1.47901 10.3483 1.63463 10.1896 1.63463 9.99382V8.81205Z" fill="#FFC251"/>
<path d="M17.3915 7.86674C17.3915 7.67094 17.2358 7.51221 17.0439 7.51221C16.8519 7.51221 16.6963 7.67094 16.6963 7.86674V10.8212C16.6963 11.017 16.8519 11.1757 17.0439 11.1757C17.2358 11.1757 17.3915 11.017 17.3915 10.8212V7.86674Z" fill="#FF4C2A"/>
<path d="M18.3309 8.81205C18.3309 8.61625 18.1753 8.45752 17.9833 8.45752C17.7914 8.45752 17.6357 8.61625 17.6357 8.81205V9.99382C17.6357 10.1896 17.7914 10.3483 17.9833 10.3483C18.1753 10.3483 18.3309 10.1896 18.3309 9.99382V8.81205Z" fill="#FF4C2A"/>
<path d="M9.67682 4.78174C7.74983 4.78174 6.18262 6.38024 6.18262 8.3457C6.18262 10.3112 7.74983 11.9097 9.67682 11.9097C10.3415 11.9097 10.9635 11.7169 11.494 11.3872L13.1588 12.1211H13.171V8.35192C13.171 6.38646 11.6038 4.78796 9.67682 4.78796V4.78174ZM11.4209 10.4853L11.3965 10.5413L11.3477 10.5164C10.8842 10.8896 10.3049 11.1073 9.67682 11.1073C8.18279 11.1073 6.96927 9.86956 6.96927 8.3457C6.96927 6.82184 8.18279 5.5841 9.67682 5.5841C11.0916 5.5841 12.2563 6.69745 12.3783 8.11557V8.57584C12.3783 8.61315 12.3722 8.65047 12.3661 8.68779L12.3783 8.67535V10.9021L11.4209 10.4853Z" fill="#CC0033"/>
</svg>
