<svg width="21" height="20" viewBox="0 0 21 20" fill="none" xmlns="http://www.w3.org/2000/svg">
<path d="M11.5528 12.1824H5.61703C4.06624 12.1824 2.80957 10.8872 2.80957 9.28879V0.751145C2.80957 0.751145 2.83631 0.718075 2.85235 0.73461L4.86302 3.46291C5.19457 3.91487 5.71328 4.17392 6.25873 4.17392H11.5528C13.1036 4.17392 14.3602 5.46917 14.3602 7.06757V9.28328C14.3602 10.8817 13.1036 12.1769 11.5528 12.1769V12.1824Z" stroke="#FF33FF" stroke-miterlimit="10"/>
<path d="M15.087 7.81738H9.15121C7.60042 7.81738 6.34375 9.11264 6.34375 10.711V19.2487C6.34375 19.2487 6.37049 19.2817 6.38653 19.2652L8.3972 16.5369C8.72875 16.085 9.24746 15.8259 9.79291 15.8259H15.087C16.6378 15.8259 17.8944 14.5307 17.8944 12.9323V10.7165C17.8944 9.11815 16.6378 7.82289 15.087 7.82289V7.81738Z" stroke="#C000C0" stroke-miterlimit="10"/>
<path d="M9.03881 10.2866C9.19239 10.2866 9.31689 10.1583 9.31689 9.99999C9.31689 9.8417 9.19239 9.71338 9.03881 9.71338C8.88524 9.71338 8.76074 9.8417 8.76074 9.99999C8.76074 10.1583 8.88524 10.2866 9.03881 10.2866Z" stroke="#FF33FF" stroke-width="1.5" stroke-miterlimit="10"/>
<path d="M11.6648 10.2866C11.8184 10.2866 11.9429 10.1583 11.9429 9.99999C11.9429 9.8417 11.8184 9.71338 11.6648 9.71338C11.5112 9.71338 11.3867 9.8417 11.3867 9.99999C11.3867 10.1583 11.5112 10.2866 11.6648 10.2866Z" stroke="#FF33FF" stroke-width="1.5" stroke-miterlimit="10"/>
</svg>
