<svg width="21" height="20" viewBox="0 0 21 20" fill="none" xmlns="http://www.w3.org/2000/svg">
<path d="M11.8063 3.56836H11.8014C11.5956 3.56836 11.4287 3.73523 11.4287 3.94107V11.5816C11.4287 11.7874 11.5956 11.9543 11.8014 11.9543H11.8063C12.0122 11.9543 12.179 11.7874 12.179 11.5816V3.94107C12.179 3.73523 12.0122 3.56836 11.8063 3.56836Z" fill="#6EE8DC"/>
<path d="M14.2009 5.21631H14.1959C13.9901 5.21631 13.8232 5.38318 13.8232 5.58902V10.699C13.8232 10.9049 13.9901 11.0717 14.1959 11.0717H14.2009C14.4067 11.0717 14.5736 10.9049 14.5736 10.699V5.58902C14.5736 5.38318 14.4067 5.21631 14.2009 5.21631Z" fill="#93F7E6"/>
<path d="M7.01433 5.24609H7.00943C6.80359 5.24609 6.63672 5.41296 6.63672 5.6188V11.5772C6.63672 11.783 6.80359 11.9499 7.00943 11.9499H7.01433C7.22017 11.9499 7.38704 11.783 7.38704 11.5772V5.6188C7.38704 5.41296 7.22017 5.24609 7.01433 5.24609Z" fill="#00C7B1"/>
<path d="M4.62175 7.60938H4.61685C4.41101 7.60938 4.24414 7.77624 4.24414 7.98208V8.13411C4.24414 8.33995 4.41101 8.50681 4.61685 8.50681H4.62175C4.82759 8.50681 4.99446 8.33995 4.99446 8.13411V7.98208C4.99446 7.77624 4.82759 7.60938 4.62175 7.60938Z" fill="#009F8F"/>
<path d="M16.5983 7.60938H16.5934C16.3876 7.60938 16.2207 7.77624 16.2207 7.98208V8.13411C16.2207 8.33995 16.3876 8.50681 16.5934 8.50681H16.5983C16.8042 8.50681 16.971 8.33995 16.971 8.13411V7.98208C16.971 7.77624 16.8042 7.60938 16.5983 7.60938Z" fill="#009F8F"/>
<path d="M9.40788 1.02344H9.40298C9.19714 1.02344 9.03027 1.1903 9.03027 1.39614V14.1221C9.03027 14.328 9.19714 14.4948 9.40298 14.4948H9.40788C9.61373 14.4948 9.78059 14.328 9.78059 14.1221V1.39614C9.78059 1.1903 9.61373 1.02344 9.40788 1.02344Z" fill="#00C7B1"/>
<path d="M12.989 19.3156C12.9155 19.3156 12.837 19.2911 12.7733 19.2469L10.336 17.5747C10.2918 17.5452 10.2379 17.5305 10.1839 17.5305H5.79972C4.94151 17.5305 4.24023 16.8342 4.24023 15.971V13.2199C4.24023 13.0139 4.40697 12.8472 4.61294 12.8472C4.81891 12.8472 4.98565 13.0139 4.98565 13.2199V15.971C4.98565 16.4173 5.34855 16.7802 5.79482 16.7802H10.179C10.385 16.7802 10.5812 16.844 10.7528 16.9568L12.6114 18.2318L12.5918 16.8832L12.8125 16.6576H12.9743H15.4509C15.8971 16.6576 16.26 16.2947 16.26 15.8484V13.9751C16.26 13.7691 16.4268 13.6024 16.6327 13.6024C16.8387 13.6024 17.0055 13.7691 17.0055 13.9751V15.8484C17.0055 16.7066 16.3091 17.4079 15.446 17.4079H13.3421L13.3667 19.1538L13.1607 19.2715C13.1018 19.3009 13.0381 19.3156 12.9792 19.3156H12.989Z" fill="#007E70"/>
</svg>
