<svg width="31" height="33" viewBox="0 0 31 33" fill="none" xmlns="http://www.w3.org/2000/svg">
<path d="M16.0108 19.0146H10.1895C8.18528 19.0146 6.55762 20.6674 6.55762 22.7026C6.55762 24.0637 7.64911 25.1721 8.98953 25.1721H9.58953V24.1998H8.98953C8.17889 24.1998 7.51506 23.5258 7.51506 22.7026C7.51506 21.2054 8.71506 19.9869 10.1895 19.9869H16.0108C17.4853 19.9869 18.6853 21.2054 18.6853 22.7026C18.6853 23.5258 18.0214 24.1998 17.2108 24.1998H12.781V25.1721H17.2108C18.5512 25.1721 19.6427 24.0637 19.6427 22.7026C19.6427 20.6674 18.0151 19.0146 16.0108 19.0146Z" fill="white"/>
<path d="M16.0108 19.0146H10.1895C8.18528 19.0146 6.55762 20.6674 6.55762 22.7026C6.55762 24.0637 7.64911 25.1721 8.98953 25.1721H9.58953V24.1998H8.98953C8.17889 24.1998 7.51506 23.5258 7.51506 22.7026C7.51506 21.2054 8.71506 19.9869 10.1895 19.9869H16.0108C17.4853 19.9869 18.6853 21.2054 18.6853 22.7026C18.6853 23.5258 18.0214 24.1998 17.2108 24.1998H12.781V25.1721H17.2108C18.5512 25.1721 19.6427 24.0637 19.6427 22.7026C19.6427 20.6674 18.0151 19.0146 16.0108 19.0146Z" fill="white"/>
<path d="M13.1005 8.32031C10.726 8.32031 8.79199 10.2842 8.79199 12.6953C8.79199 13.0842 8.84944 13.4666 8.94518 13.8296H9.95369C9.82604 13.4731 9.74944 13.0972 9.74944 12.6953C9.74944 10.8222 11.2558 9.29253 13.1005 9.29253C14.9452 9.29253 16.4516 10.8222 16.4516 12.6953C16.4516 14.5685 14.9452 16.0981 13.1005 16.0981C12.992 16.0981 12.8899 16.0786 12.7814 16.0657V17.0573C12.8899 17.0638 12.992 17.0768 13.1005 17.0768C15.475 17.0768 17.409 15.1129 17.409 12.7018C17.409 10.2907 15.475 8.32679 13.1005 8.32679V8.32031Z" fill="white"/>
<path d="M21.6787 23.8762H21.0723V22.9039H21.6787C22.4511 22.9039 23.083 22.2623 23.083 21.478V21.3354C23.083 19.8771 21.9277 18.691 20.5106 18.691H17.8809V17.7188H20.5106C22.4575 17.7188 24.0404 19.3391 24.0404 21.3354V21.478C24.0404 22.8002 22.9809 23.8762 21.6787 23.8762Z" fill="white"/>
<path d="M19.9749 9.57122C19.56 9.25363 19.0685 9.03974 18.5195 8.93604V9.94715C18.8451 10.0314 19.1451 10.161 19.394 10.349C20.0834 10.8805 20.4089 11.7879 20.2429 12.7083C20.0706 13.6416 19.4323 14.361 18.5195 14.6527V15.6638L18.6983 15.612C18.7302 15.612 18.7621 15.5925 18.794 15.586L18.9089 15.5536C20.1089 15.1194 20.9578 14.1471 21.1876 12.8833C21.4238 11.5934 20.9642 10.3231 19.9749 9.56474V9.57122Z" fill="white"/>
</svg>
