<svg width="30" height="32" viewBox="0 0 30 32" fill="none" xmlns="http://www.w3.org/2000/svg"><path d="M12.466 15.7717H9.59363C8.47023 15.7717 7.56384 14.8482 7.56384 13.718V10.8763C7.56384 9.73962 8.47661 8.82254 9.59363 8.82254H12.466C13.5894 8.82254 14.4958 9.74608 14.4958 10.8763V13.718C14.4958 14.8546 13.583 15.7717 12.466 15.7717ZM9.59363 9.78483C9.00001 9.78483 8.52129 10.2692 8.52129 10.8698V13.7115C8.52129 14.3121 9.00001 14.7965 9.59363 14.7965H12.466C13.0596 14.7965 13.5383 14.3121 13.5383 13.7115V10.8698C13.5383 10.2692 13.0596 9.78483 12.466 9.78483H9.59363Z" fill="white"></path><path d="M21.9191 24.4453H19.0468C17.9234 24.4453 17.017 23.5217 17.017 22.3915V19.5498C17.017 18.4132 17.9297 17.4961 19.0468 17.4961H21.9191C23.0425 17.4961 23.9489 18.4196 23.9489 19.5498V22.3915C23.9489 23.5282 23.0361 24.4453 21.9191 24.4453ZM19.0468 18.4584C18.4531 18.4584 17.9744 18.9428 17.9744 19.5434V22.3851C17.9744 22.9857 18.4531 23.4701 19.0468 23.4701H21.9191C22.5127 23.4701 22.9914 22.9857 22.9914 22.3851V19.5434C22.9914 18.9428 22.5127 18.4584 21.9191 18.4584H19.0468Z" fill="white"></path><path d="M21.9191 8.8161H19.0468C17.9234 8.8161 17.017 9.73964 17.017 10.8699V13.7115C17.017 13.7115 17.017 13.7438 17.017 13.7567H17.9744C17.9744 13.7567 17.9744 13.7244 17.9744 13.7115V10.8699C17.9744 10.2692 18.4531 9.78485 19.0468 9.78485H21.9191C22.5127 9.78485 22.9914 10.2692 22.9914 10.8699V13.7115C22.9914 14.3121 22.5127 14.7965 21.9191 14.7965H20.2148V15.7653H21.9191C23.0425 15.7653 23.9489 14.8417 23.9489 13.7115V10.8699C23.9489 9.73318 23.0361 8.8161 21.9191 8.8161Z" fill="white"></path><path d="M9.59363 24.4453H12.466C13.5894 24.4453 14.4958 23.5217 14.4958 22.3915V19.5498C14.4958 19.5498 14.4958 19.5176 14.4958 19.5046H13.5383C13.5383 19.5046 13.5383 19.5369 13.5383 19.5498V22.3915C13.5383 22.9921 13.0596 23.4765 12.466 23.4765H9.59363C9.00001 23.4765 8.52129 22.9921 8.52129 22.3915V19.5498C8.52129 18.9492 9.00001 18.4648 9.59363 18.4648H11.2979V17.4961H9.59363C8.47023 17.4961 7.56384 18.4196 7.56384 19.5498V22.3915C7.56384 23.5282 8.47661 24.4453 9.59363 24.4453Z" fill="white"></path></svg>