<svg xmlns="http://www.w3.org/2000/svg" width="41" height="42" viewBox="0 0 41 42" fill="none">
<path d="M22.7855 25.4299H13.1026C10.5728 25.4299 8.52277 23.377 8.52277 20.8436V7.31187C8.52277 7.31187 8.56638 7.25945 8.59255 7.28566L11.8726 11.6099C12.4134 12.3262 13.2596 12.7368 14.1494 12.7368H22.7855C25.3153 12.7368 27.3653 14.7897 27.3653 17.3231V20.8349C27.3653 23.3683 25.3153 25.4212 22.7855 25.4212V25.4299Z" stroke="#FF33FF" stroke-width="1.5" stroke-miterlimit="10"/>
<path d="M28.5517 18.5111H18.8687C16.3389 18.5111 14.2889 20.5641 14.2889 23.0974V36.6292C14.2889 36.6292 14.3326 36.6816 14.3587 36.6554L17.6387 32.3312C18.1796 31.6148 19.0258 31.2042 19.9155 31.2042H28.5517C31.0815 31.2042 33.1315 29.1513 33.1315 26.618V23.1062C33.1315 20.5728 31.0815 18.5199 28.5517 18.5199V18.5111Z" stroke="#C000C0" stroke-width="1.5" stroke-miterlimit="10"/>
<path d="M18.6856 22.4248C18.9361 22.4248 19.1392 22.2214 19.1392 21.9705C19.1392 21.7196 18.9361 21.5163 18.6856 21.5163C18.435 21.5163 18.2319 21.7196 18.2319 21.9705C18.2319 22.2214 18.435 22.4248 18.6856 22.4248Z" stroke="#FF33FF" stroke-width="1.5" stroke-miterlimit="10"/>
<path d="M22.9688 22.4248C23.2193 22.4248 23.4224 22.2214 23.4224 21.9705C23.4224 21.7196 23.2193 21.5163 22.9688 21.5163C22.7182 21.5163 22.5151 21.7196 22.5151 21.9705C22.5151 22.2214 22.7182 22.4248 22.9688 22.4248Z" stroke="#FF33FF" stroke-width="1.5" stroke-miterlimit="10"/>
</svg>