<svg width="20" height="20" viewBox="0 0 20 20" fill="none" xmlns="http://www.w3.org/2000/svg">
<g clip-path="url(#clip0_2296_1187)">
<path d="M10.0335 16.2668H2.50016C1.56683 16.2668 0.833496 15.5334 0.833496 14.6001V3.76676C0.833496 2.83343 1.56683 2.1001 2.50016 2.1001H17.5002C18.4335 2.1001 19.1668 2.83343 19.1668 3.76676V11.0001H18.3335V3.76676C18.3335 3.3001 17.9668 2.93343 17.5002 2.93343H2.50016C2.0335 2.93343 1.66683 3.3001 1.66683 3.76676V14.6001C1.66683 15.0668 2.0335 15.4334 2.50016 15.4334H10.0335V16.2668Z" fill="white"/>
<path d="M1.2666 5.8335H18.7666V6.66683H1.2666V5.8335Z" fill="white"/>
<path d="M3.3335 12.8999H7.10016V13.7332H3.3335V12.8999Z" fill="white"/>
<path d="M14.5998 19.1668C11.5998 19.1668 9.1665 16.7335 9.1665 13.7335C9.1665 10.7335 11.5998 8.3335 14.5998 8.3335C17.5998 8.3335 19.9998 10.7668 19.9998 13.7668C19.9998 16.7668 17.5665 19.1668 14.5998 19.1668ZM14.5998 9.16683C12.0665 9.16683 10.0332 11.2335 10.0332 13.7335C10.0332 16.2335 12.0665 18.3335 14.5998 18.3335C17.1332 18.3335 19.1665 16.2668 19.1665 13.7668C19.1665 11.2668 17.0998 9.16683 14.5998 9.16683Z" fill="white"/>
<path d="M3.3335 10.4331H5.00016V11.2664H3.3335V10.4331Z" fill="white"/>
<path d="M6.6665 10.4331H8.33317V11.2664H6.6665V10.4331Z" fill="white"/>
<path d="M14.1666 16.4335L11.1333 13.4001L11.7333 12.8001L14.1666 15.2335L17.4333 11.9668L18.0333 12.5668L14.1666 16.4335Z" fill="white"/>
</g>
<defs>
<clipPath id="clip0_2296_1187">
<rect width="20" height="20" fill="white"/>
</clipPath>
</defs>
</svg>
