<svg xmlns="http://www.w3.org/2000/svg" width="30" height="31" viewBox="0 0 30 31" fill="none"><path d="M22.7362 15.6472C22.5447 15.5847 22.3405 15.566 22.1426 15.5347C21.9766 15.5097 21.8043 15.491 21.6383 15.4597C21.6 15.4535 21.5554 15.416 21.5426 15.3785C21.4724 15.2347 21.4149 15.0785 21.3447 14.9347C21.3128 14.866 21.3192 14.8222 21.3639 14.766C21.5298 14.5597 21.6958 14.3472 21.8554 14.1347C22.1681 13.7347 22.1362 13.316 21.7724 12.9597C21.5426 12.7347 21.3128 12.5035 21.0766 12.2785C20.7511 11.9597 20.3171 11.9285 19.9469 12.1972C19.7171 12.366 19.4873 12.5285 19.2575 12.7035C19.1937 12.7535 19.1426 12.7535 19.0724 12.7222C18.9383 12.6597 18.8043 12.5972 18.6575 12.5535C18.5617 12.5222 18.5362 12.4722 18.5235 12.3847C18.4915 12.1097 18.4532 11.8347 18.4086 11.5597C18.3511 11.1972 18.1277 10.966 17.7639 10.8722C17.7511 10.8722 17.732 10.8597 17.7192 10.8535H16.3596C16.1873 10.9035 16.0213 10.9722 15.8873 11.1097C15.7022 11.2972 15.6703 11.541 15.632 11.7847C15.6 12.0035 15.5681 12.2222 15.5298 12.441C15.5234 12.4785 15.4852 12.5222 15.4532 12.541C15.3 12.6097 15.1405 12.666 14.9873 12.7347C14.9234 12.766 14.8788 12.7535 14.8277 12.7097C14.6171 12.5472 14.4 12.3847 14.183 12.2285C13.7745 11.9222 13.3532 11.9535 12.9894 12.3097C12.7596 12.5347 12.5298 12.7597 12.3064 12.9847C11.9681 13.316 11.9362 13.7347 12.2171 14.1097C12.3894 14.3347 12.5554 14.5597 12.7341 14.7847C12.7788 14.841 12.7788 14.8847 12.7532 14.9472C12.6894 15.0847 12.6192 15.2285 12.5745 15.3722C12.549 15.4535 12.4979 15.4785 12.4213 15.491C12.1277 15.5285 11.8277 15.5597 11.5341 15.6097C11.1256 15.6785 10.8511 16.0035 10.8447 16.4097C10.8447 16.7472 10.8447 17.091 10.8447 17.4285C10.8447 17.9035 11.132 18.2285 11.6171 18.291C11.8979 18.3285 12.1788 18.366 12.4532 18.416C12.4915 18.4222 12.5426 18.4597 12.5617 18.4972C12.632 18.6472 12.7022 18.8035 12.7596 18.9535C12.7724 18.9972 12.7724 19.066 12.7405 19.0972C12.5745 19.3222 12.3958 19.5472 12.2234 19.7722C11.9426 20.141 11.9745 20.566 12.3 20.891C12.5362 21.1222 12.7724 21.3597 13.0086 21.591C13.3469 21.9222 13.7681 21.9535 14.1575 21.6722C14.3873 21.5097 14.6107 21.3472 14.8341 21.1722C14.8979 21.1222 14.949 21.1222 15.0192 21.1597C15.1532 21.2222 15.2937 21.2785 15.4341 21.3285C15.5235 21.3535 15.5554 21.4035 15.5617 21.4847C15.5937 21.766 15.632 22.041 15.6766 22.3222C15.7341 22.6847 15.9575 22.916 16.3213 23.0097C16.3341 23.0097 16.3532 23.0222 16.366 23.0285H17.7256C17.8405 22.9785 17.9681 22.941 18.0766 22.8722C18.3 22.7285 18.3958 22.5035 18.4277 22.2535C18.466 21.9847 18.5043 21.7097 18.549 21.441C18.549 21.4035 18.5937 21.3597 18.632 21.3472C18.7915 21.2785 18.9511 21.2097 19.1107 21.1535C19.149 21.141 19.2192 21.1535 19.2575 21.1785C19.4809 21.341 19.7043 21.5097 19.9213 21.6722C20.3043 21.9597 20.7383 21.9285 21.0766 21.5972C21.3128 21.366 21.549 21.141 21.7788 20.9097C22.1171 20.5785 22.149 20.1597 21.8617 19.7847C21.6894 19.5597 21.5234 19.3285 21.3511 19.1097C21.3064 19.0535 21.3064 19.0097 21.3383 18.9472C21.4022 18.8097 21.466 18.6722 21.5171 18.5285C21.549 18.4347 21.6 18.4097 21.6894 18.3972C21.9575 18.366 22.2256 18.3347 22.4937 18.2972C22.883 18.241 23.132 18.0347 23.2341 17.6597C23.2341 17.6472 23.2469 17.6285 23.2532 17.616V16.2847C23.1766 15.9972 23.0234 15.7597 22.7298 15.666L22.7362 15.6472ZM22.4235 17.4722C22.1681 17.5035 21.9064 17.541 21.6511 17.5722C21.5681 17.5847 21.4915 17.591 21.4086 17.6035C21.1022 17.666 20.9043 17.8472 20.7894 18.1285C20.7192 18.3097 20.6426 18.4847 20.5596 18.666C20.4256 18.966 20.4511 19.2535 20.6554 19.516C20.8469 19.766 21.0383 20.016 21.2298 20.2535C20.9745 20.5035 20.7192 20.7472 20.4511 21.0035C20.4511 21.0035 20.4192 20.9847 20.3937 20.966C20.1639 20.791 19.9341 20.6222 19.6979 20.4472C19.4235 20.2472 19.1298 20.2222 18.8171 20.3535C18.683 20.416 18.549 20.4847 18.4086 20.5222C17.9554 20.6535 17.7383 20.9535 17.7064 21.4097C17.6873 21.666 17.6362 21.916 17.6043 22.1785H16.5064C16.4809 21.9847 16.449 21.791 16.4234 21.5972C16.4043 21.466 16.3915 21.3347 16.3724 21.2097C16.3149 20.9035 16.1362 20.6972 15.8426 20.5785C15.6511 20.5035 15.4596 20.4285 15.2745 20.3472C14.9681 20.216 14.6745 20.2472 14.4064 20.4472C14.1511 20.6347 13.9022 20.8222 13.6532 21.0097C13.3915 20.7535 13.1426 20.5035 12.8809 20.2472C13.0469 20.0347 13.2064 19.8097 13.3852 19.5972C13.6596 19.2722 13.7043 18.9285 13.5 18.5535C13.4426 18.4472 13.3979 18.341 13.3596 18.2222C13.2256 17.7972 12.932 17.591 12.4915 17.5535C12.2234 17.5285 11.9554 17.4847 11.6809 17.4535V16.3785C12 16.3347 12.3064 16.2972 12.6192 16.2535C12.9703 16.2035 13.2 16.016 13.3213 15.6972C13.3852 15.5285 13.4617 15.3597 13.5383 15.191C13.6788 14.8785 13.6532 14.5847 13.4426 14.3097C13.2511 14.066 13.0596 13.816 12.8809 13.5785C13.1426 13.3222 13.3979 13.0785 13.6596 12.8222C13.8703 12.9785 14.1 13.141 14.3171 13.316C14.6554 13.591 15.0064 13.6285 15.3958 13.4222C15.4915 13.3722 15.6 13.3285 15.7086 13.2972C16.1554 13.166 16.3724 12.866 16.4043 12.416C16.4235 12.1597 16.4745 11.9097 16.5064 11.6472H17.6043C17.649 11.9535 17.6937 12.2597 17.732 12.566C17.7766 12.8972 17.9617 13.1222 18.2745 13.2535C18.4596 13.3285 18.6447 13.4035 18.8298 13.4785C19.1362 13.6097 19.4298 13.5785 19.6979 13.3847C19.9532 13.1972 20.2022 13.0097 20.4575 12.8222C20.7128 13.0785 20.9617 13.3285 21.2234 13.591C21.0703 13.791 20.9107 14.016 20.732 14.2222C20.4447 14.5597 20.4064 14.9097 20.6171 15.2972C20.6873 15.4285 20.732 15.566 20.783 15.7035C20.9107 16.0222 21.1405 16.2097 21.4915 16.2535C21.7979 16.291 22.1043 16.3347 22.4235 16.3785V17.4535V17.4722Z" fill="white"></path><path d="M19.2192 16.5347C18.683 16.5347 18.1469 16.5347 17.6107 16.5347C17.566 16.5347 17.5277 16.5347 17.4766 16.5347V16.391C17.4766 15.8785 17.4766 15.366 17.4766 14.8597C17.4766 14.5972 17.3107 14.416 17.0617 14.416C16.8128 14.416 16.6532 14.591 16.6532 14.8597C16.6532 15.3722 16.6532 15.891 16.6532 16.4035V16.5347C16.0788 16.5347 15.5234 16.5347 14.9617 16.5347C14.9107 16.5347 14.8532 16.5347 14.8086 16.5472C14.5979 16.5972 14.4703 16.7785 14.4958 16.991C14.5149 17.191 14.6873 17.341 14.8979 17.341C15.4405 17.341 15.983 17.341 16.5192 17.341H16.6469V17.491C16.6469 18.0097 16.6469 18.5285 16.6469 19.0472C16.6469 19.2785 16.8064 19.4472 17.0298 19.4597C17.2788 19.4722 17.4703 19.2972 17.4703 19.0472C17.4703 18.4847 17.4703 17.9222 17.4703 17.341H17.6171C18.1341 17.341 18.6511 17.341 19.1681 17.341C19.2192 17.341 19.2766 17.341 19.3213 17.3285C19.532 17.2785 19.6532 17.091 19.6277 16.8785C19.6022 16.6785 19.4362 16.5347 19.2192 16.5347Z" fill="white"></path><path d="M19.4808 7.66598H11.7893C9.15954 7.66598 7.02124 9.75973 7.02124 12.3347V19.866C7.02124 22.441 9.15954 24.5347 11.7893 24.5347H16.4808V23.7035H11.7893C9.62549 23.7035 7.86379 21.9785 7.86379 19.8597V12.3285C7.86379 10.2097 9.62549 8.48473 11.7893 8.48473H19.4808C21.6446 8.48473 23.4063 10.2097 23.4063 12.3285V15.266H24.2553V12.3285C24.2553 9.75348 22.117 7.65973 19.4872 7.65973L19.4808 7.66598Z" fill="white"></path></svg>