<svg
              width="30"
              height="31"
              viewBox="0 0 30 31"
              fill="none"
              xmlns="http://www.w3.org/2000/svg"
            >
              <path
                d="M22.7362 14.9905C22.5447 14.928 22.3404 14.9093 22.1425 14.878C21.9766 14.853 21.8042 14.8343 21.6383 14.803C21.6 14.7968 21.5553 14.7593 21.5425 14.7218C21.4723 14.578 21.4149 14.4218 21.3447 14.278C21.3127 14.2093 21.3191 14.1655 21.3638 14.1093C21.5298 13.903 21.6957 13.6905 21.8553 13.478C22.1681 13.078 22.1362 12.6593 21.7723 12.303C21.5425 12.078 21.3128 11.8468 21.0766 11.6218C20.751 11.303 20.317 11.2718 19.9468 11.5405C19.717 11.7093 19.4872 11.8718 19.2574 12.0468C19.1936 12.0968 19.1425 12.0968 19.0723 12.0655C18.9383 12.003 18.8042 11.9405 18.6574 11.8968C18.5617 11.8655 18.5362 11.8155 18.5234 11.728C18.4915 11.453 18.4532 11.178 18.4085 10.903C18.351 10.5405 18.1276 10.3093 17.7638 10.2155C17.751 10.2155 17.7319 10.203 17.7191 10.1968H16.3596C16.1872 10.2468 16.0213 10.3155 15.8872 10.453C15.7021 10.6405 15.6702 10.8843 15.6319 11.128C15.6 11.3468 15.5681 11.5655 15.5298 11.7843C15.5234 11.8218 15.4851 11.8655 15.4532 11.8843C15.3 11.953 15.1404 12.0093 14.9872 12.078C14.9234 12.1093 14.8787 12.0968 14.8276 12.053C14.617 11.8905 14.4 11.728 14.183 11.5718C13.7745 11.2655 13.3532 11.2968 12.9893 11.653C12.7596 11.878 12.5298 12.103 12.3064 12.328C11.9681 12.6593 11.9362 13.078 12.217 13.453C12.3893 13.678 12.5553 13.903 12.734 14.128C12.7787 14.1843 12.7787 14.228 12.7532 14.2905C12.6893 14.428 12.6191 14.5718 12.5745 14.7155C12.5489 14.7968 12.4979 14.8218 12.4213 14.8343C12.1276 14.8718 11.8276 14.903 11.534 14.953C11.1255 15.0218 10.851 15.3468 10.8447 15.753C10.8447 16.0905 10.8447 16.4343 10.8447 16.7718C10.8447 17.2468 11.1319 17.5718 11.617 17.6343C11.8979 17.6718 12.1787 17.7093 12.4532 17.7593C12.4915 17.7655 12.5425 17.803 12.5617 17.8405C12.6319 17.9905 12.7021 18.1468 12.7596 18.2968C12.7723 18.3405 12.7723 18.4093 12.7404 18.4405C12.5745 18.6655 12.3957 18.8905 12.2234 19.1155C11.9425 19.4843 11.9745 19.9093 12.3 20.2343C12.5362 20.4655 12.7723 20.703 13.0085 20.9343C13.3468 21.2655 13.7681 21.2968 14.1574 21.0155C14.3872 20.853 14.6106 20.6905 14.834 20.5155C14.8979 20.4655 14.9489 20.4655 15.0191 20.503C15.1532 20.5655 15.2936 20.6218 15.434 20.6718C15.5234 20.6968 15.5553 20.7468 15.5617 20.828C15.5936 21.1093 15.6319 21.3843 15.6766 21.6655C15.734 22.028 15.9574 22.2593 16.3213 22.353C16.334 22.353 16.3532 22.3655 16.3659 22.3718H17.7255C17.8404 22.3218 17.9681 22.2843 18.0766 22.2155C18.3 22.0718 18.3957 21.8468 18.4276 21.5968C18.4659 21.328 18.5042 21.053 18.5489 20.7843C18.5489 20.7468 18.5936 20.703 18.6319 20.6905C18.7915 20.6218 18.951 20.553 19.1106 20.4968C19.1489 20.4843 19.2191 20.4968 19.2574 20.5218C19.4808 20.6843 19.7042 20.853 19.9213 21.0155C20.3042 21.303 20.7383 21.2718 21.0766 20.9405C21.3128 20.7093 21.5489 20.4843 21.7787 20.253C22.117 19.9218 22.1489 19.503 21.8617 19.128C21.6893 18.903 21.5234 18.6718 21.351 18.453C21.3064 18.3968 21.3064 18.353 21.3383 18.2905C21.4021 18.153 21.4659 18.0155 21.517 17.8718C21.5489 17.778 21.6 17.753 21.6893 17.7405C21.9574 17.7093 22.2255 17.678 22.4936 17.6405C22.883 17.5843 23.1319 17.378 23.234 17.003C23.234 16.9905 23.2468 16.9718 23.2532 16.9593V15.628C23.1766 15.3405 23.0234 15.103 22.7298 15.0093L22.7362 14.9905ZM22.4234 16.8155C22.1681 16.8468 21.9064 16.8843 21.651 16.9155C21.5681 16.928 21.4915 16.9343 21.4085 16.9468C21.1021 17.0093 20.9042 17.1905 20.7893 17.4718C20.7191 17.653 20.6425 17.828 20.5596 18.0093C20.4255 18.3093 20.451 18.5968 20.6553 18.8593C20.8468 19.1093 21.0383 19.3593 21.2298 19.5968C20.9745 19.8468 20.7191 20.0905 20.451 20.3468C20.451 20.3468 20.4191 20.328 20.3936 20.3093C20.1638 20.1343 19.934 19.9655 19.6979 19.7905C19.4234 19.5905 19.1298 19.5655 18.817 19.6968C18.683 19.7593 18.5489 19.828 18.4085 19.8655C17.9553 19.9968 17.7383 20.2968 17.7064 20.753C17.6872 21.0093 17.6362 21.2593 17.6042 21.5218H16.5064C16.4808 21.328 16.4489 21.1343 16.4234 20.9405C16.4042 20.8093 16.3915 20.678 16.3723 20.553C16.3149 20.2468 16.1362 20.0405 15.8425 19.9218C15.651 19.8468 15.4596 19.7718 15.2745 19.6905C14.9681 19.5593 14.6745 19.5905 14.4064 19.7905C14.151 19.978 13.9021 20.1655 13.6532 20.353C13.3915 20.0968 13.1425 19.8468 12.8808 19.5905C13.0468 19.378 13.2064 19.153 13.3851 18.9405C13.6596 18.6155 13.7042 18.2718 13.5 17.8968C13.4425 17.7905 13.3979 17.6843 13.3596 17.5655C13.2255 17.1405 12.9319 16.9343 12.4915 16.8968C12.2234 16.8718 11.9553 16.828 11.6808 16.7968V15.7218C12 15.678 12.3064 15.6405 12.6191 15.5968C12.9702 15.5468 13.2 15.3593 13.3213 15.0405C13.3851 14.8718 13.4617 14.703 13.5383 14.5343C13.6787 14.2218 13.6532 13.928 13.4425 13.653C13.251 13.4093 13.0596 13.1593 12.8808 12.9218C13.1425 12.6655 13.3979 12.4218 13.6596 12.1655C13.8702 12.3218 14.1 12.4843 14.317 12.6593C14.6553 12.9343 15.0064 12.9718 15.3957 12.7655C15.4915 12.7155 15.6 12.6718 15.7085 12.6405C16.1553 12.5093 16.3723 12.2093 16.4042 11.7593C16.4234 11.503 16.4745 11.253 16.5064 10.9905H17.6042C17.6489 11.2968 17.6936 11.603 17.7319 11.9093C17.7766 12.2405 17.9617 12.4655 18.2745 12.5968C18.4596 12.6718 18.6447 12.7468 18.8298 12.8218C19.1362 12.953 19.4298 12.9218 19.6979 12.728C19.9532 12.5405 20.2021 12.353 20.4574 12.1655C20.7128 12.4218 20.9617 12.6718 21.2234 12.9343C21.0702 13.1343 20.9106 13.3593 20.7319 13.5655C20.4447 13.903 20.4064 14.253 20.617 14.6405C20.6872 14.7718 20.7319 14.9093 20.783 15.0468C20.9106 15.3655 21.1404 15.553 21.4915 15.5968C21.7979 15.6343 22.1042 15.678 22.4234 15.7218V16.7968V16.8155Z"
                fill="white"
              />
              <path
                d="M19.2191 15.878C18.683 15.878 18.1468 15.878 17.6106 15.878C17.5659 15.878 17.5276 15.878 17.4766 15.878V15.7343C17.4766 15.2218 17.4766 14.7093 17.4766 14.203C17.4766 13.9405 17.3106 13.7593 17.0617 13.7593C16.8127 13.7593 16.6532 13.9343 16.6532 14.203C16.6532 14.7155 16.6532 15.2343 16.6532 15.7468V15.878C16.0787 15.878 15.5234 15.878 14.9617 15.878C14.9106 15.878 14.8532 15.878 14.8085 15.8905C14.5979 15.9405 14.4702 16.1218 14.4957 16.3343C14.5149 16.5343 14.6872 16.6843 14.8979 16.6843C15.4404 16.6843 15.983 16.6843 16.5191 16.6843H16.6468V16.8343C16.6468 17.353 16.6468 17.8718 16.6468 18.3905C16.6468 18.6218 16.8064 18.7905 17.0298 18.803C17.2787 18.8155 17.4702 18.6405 17.4702 18.3905C17.4702 17.828 17.4702 17.2655 17.4702 16.6843H17.617C18.134 16.6843 18.651 16.6843 19.1681 16.6843C19.2191 16.6843 19.2766 16.6843 19.3213 16.6718C19.5319 16.6218 19.6532 16.4343 19.6276 16.2218C19.6021 16.0218 19.4362 15.878 19.2191 15.878Z"
                fill="white"
              />
              <path
                d="M19.4809 7.00927H11.7894C9.1596 7.00927 7.0213 9.10302 7.0213 11.678V19.2093C7.0213 21.7843 9.1596 23.878 11.7894 23.878H16.4809V23.0468H11.7894C9.62556 23.0468 7.86385 21.3218 7.86385 19.203V11.6718C7.86385 9.55302 9.62556 7.82802 11.7894 7.82802H19.4809C21.6447 7.82802 23.4064 9.55302 23.4064 11.6718V14.6093H24.2553V11.6718C24.2553 9.09677 22.117 7.00302 19.4873 7.00302L19.4809 7.00927Z"
                fill="white"
              />
            </svg>