<svg width="30" height="32" viewBox="0 0 30 32" fill="none" xmlns="http://www.w3.org/2000/svg"><path d="M17.2596 14.748H10.2383V15.7901H17.2596V14.748Z" fill="white"></path><path d="M20.451 18.6319H10.2383V19.6741H20.451V18.6319Z" fill="white"></path><path d="M20.3234 14.7868H18.5936V15.7578H20.3234V14.7868Z" fill="white"></path><path d="M20.4511 23.8105H11.266C8.85321 23.8105 6.88726 21.8167 6.88726 19.3698V13.6864C6.88726 11.2395 8.85321 9.24573 11.266 9.24573H18.7851C21.1979 9.24573 23.1639 11.2395 23.1639 13.6864V23.0013H24.1213V13.6864C24.1213 10.7022 21.7277 8.27475 18.7851 8.27475H11.266C8.32343 8.27475 5.92981 10.7022 5.92981 13.6864V19.3698C5.92981 22.354 8.32343 24.7814 11.266 24.7814H20.4511V23.8105Z" fill="white"></path></svg>