<svg width="23" height="23" viewBox="0 0 23 23" fill="none" xmlns="http://www.w3.org/2000/svg">
<g clip-path="url(#clip0_2005_23909)">
<path d="M11.5501 3.3588H14.1135L13.1427 4.33131C12.8912 4.58325 12.8916 4.99128 13.1435 5.24288C13.395 5.49381 13.8032 5.49432 14.0549 5.24204L16.1225 3.17098C16.3774 2.91569 16.3741 2.49624 16.1077 2.24548L14.0549 0.189185C13.8035 -0.0627535 13.3955 -0.0630892 13.1435 0.188345C12.8916 0.439948 12.8912 0.847983 13.1427 1.09992L14.1108 2.06974C11.1901 2.06974 11.5543 2.06957 11.5225 2.06957C4.70871 2.06957 0.383639 9.48521 3.80033 15.4458C3.97724 15.7545 4.37084 15.8615 4.68001 15.6845C4.98885 15.5074 5.0956 15.1136 4.91869 14.8048C1.97818 9.67505 5.74215 3.3296 11.5501 3.3588Z" fill="white"/>
<path d="M19.2623 6.55403C19.0853 6.24536 18.6914 6.13844 18.3826 6.31535C18.0737 6.49243 17.967 6.88637 18.1441 7.1952C21.0622 12.286 17.3792 18.6412 11.5314 18.6412H8.94908L9.91991 17.6687C10.1715 17.4167 10.1712 17.0087 9.91924 16.7571C9.6673 16.5057 9.2591 16.506 9.00766 16.7579L6.94012 18.829C6.68735 19.0821 6.686 19.5022 6.95573 19.7553L9.00766 21.8108C9.2591 22.0626 9.66713 22.0632 9.91924 21.8116C10.1712 21.56 10.1715 21.152 9.92008 20.9001L8.95194 19.9302H11.5395C18.3567 19.9301 22.6783 12.5134 19.2623 6.55403Z" fill="white"/>
<path d="M10.8867 9.06641H13.4648C13.8207 9.06641 14.1094 8.77771 14.1094 8.42188C14.1094 8.06587 13.8207 7.77734 13.4648 7.77734H12.1758V7.13281C12.1758 6.77681 11.8871 6.48828 11.5313 6.48828C11.1752 6.48828 10.8867 6.77681 10.8867 7.13281V7.77734C9.82039 7.77734 8.95313 8.64478 8.95313 9.71094C8.95313 10.7771 9.82039 11.6445 10.8867 11.6445H12.1756C12.5311 11.6445 12.8203 11.9336 12.8203 12.2891C12.8203 12.6446 12.5328 12.9338 12.1756 12.9338C11.5096 12.9338 11.5313 12.9336 11.5313 12.9336C11.5302 12.9336 11.5292 12.9338 11.5282 12.9338C11.5032 12.9338 9.58322 12.9336 9.59766 12.9336C9.24165 12.9336 8.95313 13.2221 8.95313 13.578C8.95296 13.934 9.24149 14.2225 9.59749 14.2227H10.8867V14.8672C10.8867 15.223 11.1752 15.5117 11.5313 15.5117C11.8871 15.5117 12.1758 15.223 12.1758 14.8672V14.2228C13.2443 14.2228 14.1094 13.3582 14.1094 12.2891C14.1094 11.2229 13.2418 10.3555 12.1756 10.3555H10.8867C10.5312 10.3555 10.2422 10.0663 10.2422 9.71094C10.2422 9.35544 10.5312 9.06641 10.8867 9.06641Z" fill="white"/>
</g>
<defs>
<clipPath id="clip0_2005_23909">
<rect width="22" height="22" fill="white" transform="translate(0.5 0.0429688)"/>
</clipPath>
</defs>
</svg>
