<svg width="22" height="22" viewBox="0 0 22 22" fill="none" xmlns="http://www.w3.org/2000/svg">
<g clip-path="url(#clip0_2255_16045)">
<path d="M19.467 13.9762V8.02377C20.2074 7.83247 20.756 7.15882 20.756 6.35945C20.7591 4.82502 18.8674 4.06655 17.8117 5.1557L12.6558 2.17893C12.9687 1.10984 12.1173 -0.0170341 10.9996 0.000196068C9.88217 -0.017077 9.03029 1.10997 9.34348 2.17897L8.45413 2.69244C8.24861 2.81107 8.17819 3.07386 8.29687 3.27938C8.41619 3.48678 8.68194 3.5542 8.88381 3.43664L9.77402 2.92266C10.413 3.60353 11.5864 3.60331 12.2252 2.92266L17.3811 5.89943C17.1115 6.81104 17.71 7.81047 18.6076 8.02381V13.9762C17.71 14.1895 17.1114 15.1891 17.3811 16.1007L12.2252 19.0774C11.5862 18.3966 10.4128 18.3967 9.77397 19.0774L4.61804 16.1006C4.88771 15.189 4.28921 14.1895 3.39156 13.9762V8.02377C4.28921 7.81056 4.88775 6.81091 4.61804 5.89939L5.53429 5.37041C5.7398 5.25178 5.81023 4.98899 5.69155 4.78347C5.57292 4.57791 5.31008 4.50753 5.10461 4.62621L4.1875 5.1557C3.13118 4.06634 1.2402 4.82532 1.24321 6.35945C1.24321 7.15882 1.79178 7.83247 2.53221 8.02377V13.9762C1.79174 14.1675 1.24317 14.8411 1.24317 15.6405C1.24012 17.1749 3.13174 17.9335 4.18746 16.8443L9.34344 19.8211C9.03054 20.8902 9.88195 22.017 10.9996 21.9998C12.1171 22.0171 12.9689 20.89 12.6557 19.821L17.8117 16.8443C18.868 17.9336 20.759 17.1746 20.756 15.6405C20.756 14.8411 20.2074 14.1675 19.467 13.9762ZM10.9996 2.57823C10.5257 2.57823 10.1402 2.19272 10.1402 1.71887C10.1835 0.580349 11.8159 0.580693 11.8589 1.71887C11.8589 2.19272 11.4734 2.57823 10.9996 2.57823ZM2.10253 6.35945C2.10253 5.8856 2.48803 5.50009 2.96188 5.50009C4.10036 5.54331 4.10006 7.17575 2.96188 7.21881C2.48803 7.21881 2.10253 6.83325 2.10253 6.35945ZM2.96188 16.4999C2.48803 16.4999 2.10253 16.1144 2.10253 15.6406C2.14575 14.5021 3.77819 14.5024 3.82124 15.6406C3.82124 16.1144 3.43573 16.4999 2.96188 16.4999ZM10.9996 21.1405C10.5257 21.1405 10.1402 20.7549 10.1402 20.2811C10.1835 19.1426 11.8159 19.1429 11.8589 20.2811C11.8589 20.7549 11.4734 21.1405 10.9996 21.1405ZM18.1779 6.35945C18.1779 5.8856 18.5634 5.50009 19.0373 5.50009C20.1758 5.54327 20.1755 7.17575 19.0373 7.21881C18.5634 7.21881 18.1779 6.83325 18.1779 6.35945ZM19.0373 16.4999C18.5634 16.4999 18.1779 16.1144 18.1779 15.6406C18.2211 14.5021 19.8536 14.5024 19.8967 15.6406C19.8967 16.1144 19.5111 16.4999 19.0373 16.4999Z" fill="white"/>
<path d="M5.41406 8.02322V13.977C5.41406 14.1305 5.49596 14.2723 5.6289 14.3491L10.7851 17.326C10.918 17.4028 11.0817 17.4027 11.2148 17.326L16.3709 14.3491C16.5039 14.2723 16.5858 14.1305 16.5858 13.977V8.02322C16.5858 7.86969 16.5039 7.72786 16.3709 7.65111L11.2147 4.67425C11.0818 4.59747 10.918 4.59756 10.7851 4.67425L5.6289 7.65111C5.49596 7.72786 5.41406 7.86974 5.41406 8.02322ZM6.27342 8.76746L10.5702 11.2482V16.2097L6.27342 13.729V8.76746ZM15.2967 8.02326L10.9999 10.504L9.28117 9.51171L13.578 7.03096L15.2967 8.02326ZM11.4296 16.2097V11.2482L15.7264 8.76746V13.7289L11.4296 16.2097ZM10.9999 5.54251L12.7186 6.53481L8.42182 9.01556L6.7031 8.02326L10.9999 5.54251Z" fill="white"/>
<path d="M14.2433 12.436L12.711 13.3207C12.5055 13.4393 12.4351 13.7021 12.5537 13.9076C12.673 14.1151 12.9388 14.1825 13.1407 14.0649L14.673 13.1802C14.8785 13.0616 14.949 12.7988 14.8303 12.5933C14.7117 12.3878 14.449 12.3174 14.2433 12.436Z" fill="white"/>
<path d="M6.99449 4.46094C7.56399 4.4398 7.56356 3.62249 6.99449 3.60156H6.99419C6.42468 3.62275 6.42545 4.4401 6.99449 4.46094Z" fill="white"/>
</g>
<defs>
<clipPath id="clip0_2255_16045">
<rect width="22" height="22" fill="white"/>
</clipPath>
</defs>
</svg>
