<svg width="21" height="21" viewBox="0 0 21 21" fill="none" xmlns="http://www.w3.org/2000/svg">
<path d="M15.0938 17.5761H14.9284L11.8689 7.6262C12.1508 7.36538 12.3448 7.02999 12.426 6.66303C12.5073 6.29607 12.4721 5.91426 12.325 5.56654C12.178 5.21882 11.9257 4.92103 11.6005 4.71135C11.2754 4.50167 10.8922 4.38965 10.5 4.38965C10.1078 4.38965 9.72463 4.50167 9.39947 4.71135C9.07431 4.92103 8.82203 5.21882 8.67495 5.56654C8.52788 5.91426 8.49272 6.29607 8.57398 6.66303C8.65525 7.02999 8.84923 7.36538 9.13106 7.6262L6.07162 17.5761H5.90625C5.7322 17.5761 5.56528 17.6423 5.44221 17.76C5.31914 17.8777 5.25 18.0374 5.25 18.2039C5.25 18.3703 5.31914 18.53 5.44221 18.6477C5.56528 18.7654 5.7322 18.8316 5.90625 18.8316H7.21875C7.3928 18.8316 7.55972 18.7654 7.68279 18.6477C7.80586 18.53 7.875 18.3703 7.875 18.2039C7.87428 18.0733 7.8306 17.9463 7.75014 17.8408C7.66968 17.7354 7.55655 17.6568 7.42678 17.6163L8.21166 15.0653H12.7883L13.5758 17.6163C13.4456 17.6564 13.3319 17.7347 13.2509 17.8402C13.17 17.9457 13.1259 18.073 13.125 18.2039C13.125 18.3703 13.1941 18.53 13.3172 18.6477C13.4403 18.7654 13.6072 18.8316 13.7812 18.8316H15.0938C15.2678 18.8316 15.4347 18.7654 15.5578 18.6477C15.6809 18.53 15.75 18.3703 15.75 18.2039C15.75 18.0374 15.6809 17.8777 15.5578 17.76C15.4347 17.6423 15.2678 17.5761 15.0938 17.5761ZM10.5 8.16039C10.5551 8.16039 10.607 8.14909 10.6608 8.14469L11.4378 10.6713H9.56222L10.3392 8.14469C10.393 8.14909 10.4449 8.16039 10.5 8.16039ZM8.59688 13.8098L9.17634 11.9267H9.1875H11.8125H11.823L12.4025 13.8098H8.59688Z" fill="white"/>
<path d="M7.26409 4.13873C6.80741 4.76635 6.56261 5.51268 6.5626 6.27736C6.56261 7.04203 6.80741 7.78837 7.26409 8.41599C7.3166 8.48336 7.35443 8.56012 7.37535 8.64173C7.39627 8.72334 7.39984 8.80814 7.38586 8.89109C7.37188 8.97405 7.34063 9.05348 7.29396 9.12467C7.24729 9.19585 7.18616 9.25736 7.11418 9.30553C7.0422 9.35369 6.96084 9.38755 6.87493 9.40509C6.78902 9.42262 6.7003 9.42348 6.61403 9.40761C6.52777 9.39174 6.44571 9.35947 6.37273 9.3127C6.29975 9.26593 6.23732 9.20563 6.18916 9.13536C5.57787 8.297 5.25012 7.29948 5.25012 6.27736C5.25012 5.25524 5.57787 4.25772 6.18916 3.41936C6.29114 3.28852 6.44239 3.20082 6.61083 3.17484C6.77928 3.14887 6.95168 3.18667 7.09148 3.28023C7.23128 3.37378 7.32749 3.51574 7.35972 3.67601C7.39194 3.83627 7.35764 4.00224 7.26409 4.13873ZM4.39694 1.47469C4.25402 1.37989 4.07759 1.34323 3.90643 1.37277C3.73526 1.40231 3.58336 1.49564 3.48409 1.63225C2.49733 2.9974 1.96875 4.61769 1.96875 6.27736C1.96875 7.93703 2.49733 9.55732 3.48409 10.9225C3.53189 10.9931 3.59405 11.0539 3.66688 11.1011C3.7397 11.1483 3.82171 11.181 3.90803 11.1973C3.99434 11.2136 4.0832 11.2131 4.16931 11.1959C4.25543 11.1787 4.33705 11.1451 4.40932 11.0971C4.48158 11.0491 4.54303 10.9877 4.58999 10.9165C4.63695 10.8454 4.66847 10.7659 4.68269 10.6829C4.6969 10.5998 4.69351 10.5149 4.67272 10.4331C4.65192 10.3513 4.61416 10.2744 4.56166 10.2069C3.72783 9.05168 3.28125 7.68114 3.28125 6.27736C3.28125 4.87358 3.72783 3.50304 4.56166 2.34785C4.66077 2.21114 4.6991 2.04239 4.66821 1.87867C4.63733 1.71494 4.53976 1.56965 4.39694 1.47469ZM17.516 1.63225C17.4144 1.5015 17.2636 1.41368 17.0954 1.38736C16.9273 1.36104 16.7551 1.39827 16.6152 1.4912C16.4752 1.58413 16.3786 1.72546 16.3456 1.88532C16.3126 2.04519 16.3459 2.21105 16.4385 2.34785C17.2723 3.50304 17.7189 4.87358 17.7189 6.27736C17.7189 7.68114 17.2723 9.05168 16.4385 10.2069C16.386 10.2744 16.3482 10.3513 16.3274 10.4331C16.3066 10.5149 16.3032 10.5998 16.3174 10.6829C16.3317 10.7659 16.3632 10.8454 16.4101 10.9165C16.4571 10.9877 16.5185 11.0491 16.5908 11.0971C16.6631 11.1451 16.7447 11.1787 16.8308 11.1959C16.9169 11.2131 17.0058 11.2136 17.0921 11.1973C17.1784 11.181 17.2604 11.1483 17.3333 11.1011C17.4061 11.0539 17.4682 10.9931 17.516 10.9225C18.5028 9.55732 19.0314 7.93703 19.0314 6.27736C19.0314 4.61769 18.5028 2.9974 17.516 1.63225ZM13.8975 3.26432C13.755 3.35976 13.658 3.5054 13.6277 3.66925C13.5974 3.83309 13.6364 4.00173 13.736 4.1381C14.1927 4.76572 14.4375 5.51206 14.4375 6.27673C14.4375 7.04141 14.1927 7.78774 13.736 8.41537C13.6835 8.48273 13.6457 8.55949 13.6248 8.6411C13.6039 8.72271 13.6003 8.80751 13.6143 8.89047C13.6282 8.97342 13.6595 9.05285 13.7062 9.12404C13.7528 9.19523 13.814 9.25673 13.886 9.3049C13.9579 9.35307 14.0393 9.38692 14.1252 9.40446C14.2111 9.422 14.2998 9.42285 14.3861 9.40698C14.4724 9.39111 14.5544 9.35884 14.6274 9.31207C14.7004 9.26531 14.7628 9.205 14.811 9.13473C15.4223 8.29637 15.75 7.29885 15.75 6.27673C15.75 5.25461 15.4223 4.25709 14.811 3.41874C14.7112 3.28245 14.5589 3.18963 14.3876 3.16068C14.2163 3.13172 14.04 3.169 13.8975 3.26432Z" fill="white"/>
</svg>
