<svg width="22" height="21" viewBox="0 0 22 21" fill="none" xmlns="http://www.w3.org/2000/svg">
<g id="4781840_+_add_circle_create_expand_icon (2) 1" clip-path="url(#clip0_690_168113)">
<g id="Layer 2">
<path id="Vector" d="M11.25 17C9.96442 17 8.70772 16.6188 7.6388 15.9046C6.56988 15.1903 5.73676 14.1752 5.24479 12.9874C4.75282 11.7997 4.62409 10.4928 4.8749 9.23191C5.1257 7.97104 5.74477 6.81285 6.65381 5.90381C7.56285 4.99477 8.72104 4.3757 9.98191 4.1249C11.2428 3.87409 12.5497 4.00282 13.7374 4.49479C14.9252 4.98676 15.9403 5.81988 16.6546 6.8888C17.3688 7.95772 17.75 9.21442 17.75 10.5C17.75 12.2239 17.0652 13.8772 15.8462 15.0962C14.6272 16.3152 12.9739 17 11.25 17ZM11.25 5C10.1622 5 9.09884 5.32257 8.19437 5.92692C7.2899 6.53127 6.58495 7.39025 6.16867 8.39524C5.75238 9.40024 5.64346 10.5061 5.85568 11.573C6.0679 12.6399 6.59173 13.6199 7.36091 14.3891C8.1301 15.1583 9.11011 15.6821 10.177 15.8943C11.2439 16.1065 12.3498 15.9976 13.3548 15.5813C14.3598 15.1651 15.2187 14.4601 15.8231 13.5556C16.4274 12.6512 16.75 11.5878 16.75 10.5C16.75 9.04131 16.1705 7.64236 15.1391 6.61091C14.1076 5.57947 12.7087 5 11.25 5Z" fill="#645DF6"/>
<path id="Vector_2" d="M11.25 14C11.1174 14 10.9902 13.9473 10.8964 13.8536C10.8027 13.7598 10.75 13.6326 10.75 13.5V7.5C10.75 7.36739 10.8027 7.24021 10.8964 7.14645C10.9902 7.05268 11.1174 7 11.25 7C11.3826 7 11.5098 7.05268 11.6036 7.14645C11.6973 7.24021 11.75 7.36739 11.75 7.5V13.5C11.75 13.6326 11.6973 13.7598 11.6036 13.8536C11.5098 13.9473 11.3826 14 11.25 14Z" fill="#645DF6"/>
<path id="Vector_3" d="M14.25 11H8.25C8.11739 11 7.99021 10.9473 7.89645 10.8536C7.80268 10.7598 7.75 10.6326 7.75 10.5C7.75 10.3674 7.80268 10.2402 7.89645 10.1464C7.99021 10.0527 8.11739 10 8.25 10H14.25C14.3826 10 14.5098 10.0527 14.6036 10.1464C14.6973 10.2402 14.75 10.3674 14.75 10.5C14.75 10.6326 14.6973 10.7598 14.6036 10.8536C14.5098 10.9473 14.3826 11 14.25 11Z" fill="#645DF6"/>
</g>
</g>
<defs>
<clipPath id="clip0_690_168113">
<rect width="21" height="21" fill="white" transform="translate(0.25)"/>
</clipPath>
</defs>
</svg>
