<svg width="32" height="28" viewBox="0 0 32 28" fill="none" xmlns="http://www.w3.org/2000/svg">
<g id="api-svgrepo-com 1">
<path id="Vector" d="M7.9414 14.7941L8.8591 11.6157H8.9376L9.84323 14.7941H7.9414ZM10.7307 17.9181H12.5843L9.97002 10.0781H7.9414L5.32715 17.9181H7.0418L7.59725 16.0002H10.1874L10.7307 17.9181Z" fill="#333333"/>
<path id="Vector_2" d="M13.6768 10.0781V17.9181H15.3914V15.4297H16.78C18.6578 15.4297 19.8532 14.392 19.8532 12.7621C19.8532 11.1159 18.694 10.0781 16.8647 10.0781H13.6768ZM15.3914 11.3441H16.4299C17.5529 11.3441 18.1144 11.8113 18.1144 12.7512C18.1144 13.6966 17.5529 14.1584 16.4299 14.1584H15.3914V11.3441Z" fill="#333333"/>
<path id="Vector_3" d="M26.9062 17.9181V16.5925H25.1009V11.4038H26.9062V10.0781H21.5811V11.4038H23.3862V16.5925H21.5811V17.9181H26.9062Z" fill="#333333"/>
</g>
</svg>
