<svg width="20" height="17" viewBox="0 0 20 17" fill="none" xmlns="http://www.w3.org/2000/svg">
<g id="9081101_math_function_icon 1">
<path id="Vector" d="M11.2461 7.08203H12.0332C12.8204 7.08203 12.8204 7.79036 13.6201 9.58032C14.3946 11.332 14.3946 12.0404 15.1818 12.0404H15.9689" stroke="#333333" stroke-linecap="round" stroke-linejoin="round"/>
<path id="Vector_2" d="M10.46 12.0404C11.6407 12.0404 12.8214 10.6237 13.6085 9.5612C14.3956 8.4987 15.5763 7.08203 16.757 7.08203" stroke="#333333" stroke-linecap="round" stroke-linejoin="round"/>
<path id="Vector_3" d="M2.58789 13.4583C2.58789 14.5208 2.98146 14.875 4.16216 14.875C5.34286 14.875 5.73642 12.0417 6.52356 8.5C7.31069 4.95833 7.70426 2.125 8.88496 2.125C10.0657 2.125 10.4592 2.47917 10.4592 3.54167" stroke="#333333" stroke-linecap="round" stroke-linejoin="round"/>
<path id="Vector_4" d="M4.16113 8.5H8.88393" stroke="#333333" stroke-linecap="round" stroke-linejoin="round"/>
</g>
</svg>
