<svg width="20" height="18" viewBox="0 0 20 18" fill="none" xmlns="http://www.w3.org/2000/svg">
<path fill-rule="evenodd" clip-rule="evenodd" d="M15.685 3C16.7315 3 17.5798 3.76751 17.5798 4.71429V13.2857C17.5798 14.2325 16.7315 15 15.685 15L12.8439 14.9991L10.6707 16.9653C10.3292 17.2743 9.79182 17.2981 9.42018 17.0366L9.33093 16.9653L7.15777 14.9991L4.31661 15C3.27018 15 2.42188 14.2325 2.42188 13.2857V4.71429C2.42188 3.76751 3.27018 3 4.31661 3H15.685Z" stroke="#645DF6" stroke-linecap="round" stroke-linejoin="round"/>
<path d="M14.7379 7.28516H9.05371" stroke="#333333" stroke-linecap="round" stroke-linejoin="round"/>
<path fill-rule="evenodd" clip-rule="evenodd" d="M6.21092 8.14397C6.6846 8.14397 7.15829 7.7154 7.15829 7.28683C7.15829 6.85826 6.6846 6.42969 6.21092 6.42969C5.73723 6.42969 5.26465 6.85826 5.26465 7.28683C5.26465 7.7154 5.73723 8.14397 6.21092 8.14397ZM6.21092 11.5725C6.6846 11.5725 7.15829 11.144 7.15829 10.7154C7.15829 10.2868 6.6846 9.85826 6.21092 9.85826C5.73723 9.85826 5.26465 10.2868 5.26465 10.7154C5.26465 11.144 5.73723 11.5725 6.21092 11.5725Z" fill="#333333"/>
<path d="M14.7379 10.7148H9.05371" stroke="#333333" stroke-linecap="round" stroke-linejoin="round"/>
</svg>
