<svg width="16" height="16" viewBox="0 0 16 16" fill="none" xmlns="http://www.w3.org/2000/svg">
<g clip-path="url(#clip0_636_518455)">
<path d="M3 15H4V13.5H6C6.66282 13.4993 7.29828 13.2356 7.76696 12.767C8.23565 12.2983 8.49927 11.6628 8.5 11V10.3603L9.6581 9.97435C9.72912 9.95067 9.79392 9.91134 9.84771 9.85927C9.9015 9.80719 9.94291 9.7437 9.96888 9.67349C9.99486 9.60327 10.0047 9.52812 9.99778 9.45357C9.99082 9.37903 9.96721 9.307 9.9287 9.2428L8.5 6.86145V5.5C8.49868 4.30693 8.02415 3.16311 7.18052 2.31948C6.33689 1.47585 5.19307 1.00132 4 1H1.5V2H4C4.92794 2.00103 5.81758 2.37011 6.47373 3.02627C7.12989 3.68242 7.49897 4.57206 7.5 5.5V7C7.5 7.09061 7.52465 7.17952 7.5713 7.2572L8.7506 9.2228L7.8419 9.52565C7.74234 9.55883 7.65574 9.6225 7.59438 9.70764C7.53302 9.79277 7.5 9.89506 7.5 10V11C7.49956 11.3977 7.34139 11.779 7.06018 12.0602C6.77897 12.3414 6.39769 12.4996 6 12.5H3.5C3.36739 12.5 3.24021 12.5527 3.14645 12.6464C3.05268 12.7402 3 12.8674 3 13V15Z" fill="#645DF6"/>
<path d="M4.5 6H6.5V7H4.5V6Z" fill="#645DF6"/>
<path d="M11.3338 12.6087C11.7007 12.2803 11.9942 11.8783 12.1952 11.4288C12.3961 10.9793 12.5 10.4925 12.5 10.0001C12.5 9.50776 12.3961 9.02093 12.1952 8.57144C11.9942 8.12196 11.7007 7.71992 11.3338 7.3916L10.6668 8.1366C10.9289 8.3711 11.1387 8.65828 11.2823 8.97938C11.4259 9.30048 11.5001 9.64828 11.5001 10C11.5001 10.3518 11.4259 10.6996 11.2823 11.0207C11.1387 11.3418 10.9289 11.629 10.6668 11.8635L11.3338 12.6087Z" fill="#645DF6"/>
<path d="M12.8003 14.4009C13.4833 13.8885 14.0376 13.2241 14.4194 12.4604C14.8011 11.6967 14.9999 10.8546 14.9999 10.0007C14.9999 9.14691 14.8011 8.30481 14.4194 7.54109C14.0376 6.77737 13.4833 6.11301 12.8003 5.60059L12.2 6.40049C12.7589 6.81969 13.2126 7.36327 13.5251 7.98818C13.8375 8.61309 14.0002 9.30217 14.0002 10.0008C14.0002 10.6995 13.8375 11.3886 13.5251 12.0135C13.2126 12.6384 12.7589 13.182 12.2 13.6012L12.8003 14.4009Z" fill="#645DF6"/>
</g>
<defs>
<clipPath id="clip0_636_518455">
<rect width="16" height="16" fill="white" transform="matrix(-1 0 0 1 16 0)"/>
</clipPath>
</defs>
</svg>
