<svg width="30" height="30" viewBox="0 0 30 30" fill="none" xmlns="http://www.w3.org/2000/svg">
<path d="M25.7812 15C25.7812 16.0031 24.968 16.8164 23.9648 16.8164H17.6953L15 11.3666L17.9092 6.3278C18.4108 5.45907 19.5216 5.1614 20.3904 5.66292L20.3907 5.66312C21.2595 6.16467 21.5573 7.27558 21.0557 8.14438L18.1465 13.1836H23.9648C24.968 13.1836 25.7812 13.9968 25.7812 15Z" fill="#1A73E8"/>
<path d="M20.3907 24.3369L20.3904 24.3371C19.5216 24.8386 18.4108 24.5409 17.9092 23.6722L15 18.6334L12.0908 23.6722C11.5892 24.5409 10.4784 24.8386 9.60962 24.3371L9.60927 24.3369C8.74046 23.8353 8.44274 22.7244 8.94431 21.8556L11.8535 16.8164L15 16.6992L18.1465 16.8164L21.0557 21.8556C21.5573 22.7244 21.2595 23.8353 20.3907 24.3369Z" fill="#EA4335"/>
<path d="M15 11.3666L14.1797 13.5937L11.8535 13.1836L8.94432 8.14438C8.44274 7.27558 8.74046 6.16467 9.60927 5.66312L9.60962 5.66292C10.4784 5.1614 11.5892 5.45907 12.0908 6.3278L15 11.3666Z" fill="#FBBC04"/>
<path d="M14.5312 13.1836L12.4219 16.8164H6.03515C5.03198 16.8164 4.21875 16.0032 4.21875 15C4.21875 13.9968 5.03198 13.1836 6.03515 13.1836H14.5312Z" fill="#34A853"/>
<path d="M18.1465 16.8164H11.8535L15 11.3666L18.1465 16.8164Z" fill="#185DB7"/>
</svg>
