<svg width="23" height="23" viewBox="0 0 23 23" fill="none" xmlns="http://www.w3.org/2000/svg">
<g clip-path="url(#clip0_3368_4025)">
<path d="M23 11.4998C23 17.8516 17.8514 23 11.4997 23C5.14841 23 0 17.8516 0 11.4998C0 5.1485 5.14841 0 11.4997 0C17.8514 0 23 5.1485 23 11.4998Z" fill="#EC1C24"/>
<path d="M10.5139 9.0643L13.2713 11.8207C13.6694 12.2192 14.3156 12.2192 14.7146 11.8207C15.1127 11.4222 15.1136 10.7765 14.7146 10.378L11.957 7.62051C9.98396 5.647 6.79505 5.61519 4.78012 7.52024C4.76131 7.53587 4.74317 7.5523 4.72576 7.56948C4.71696 7.57828 4.70977 7.58762 4.70106 7.59553C4.69207 7.60416 4.68291 7.61188 4.67437 7.62051C4.65694 7.63785 4.64104 7.65608 4.62586 7.67414C2.71982 9.68997 2.75262 12.879 4.72585 14.8524L7.48334 17.6093C7.88225 18.0076 8.52759 18.0076 8.92641 17.6093C9.3255 17.2107 9.3255 16.5642 8.9274 16.1664L6.16982 13.409C4.9661 12.2058 4.95801 10.2529 6.14485 9.03932C7.35828 7.85248 9.31004 7.86102 10.5139 9.0643ZM14.0728 5.39211C13.6744 5.79075 13.6744 6.43637 14.0739 6.83491L16.8304 9.59249C18.0334 10.7957 18.0412 12.7482 16.8545 13.9621C15.6407 15.1481 13.6896 15.1402 12.486 13.9368L9.72853 11.1796C9.32981 10.7809 8.68338 10.7809 8.28511 11.1796C7.88593 11.5779 7.88593 12.2255 8.28511 12.6229L11.0417 15.3806C13.0154 17.354 16.2039 17.3861 18.2192 15.4808C18.2379 15.4643 18.2555 15.449 18.274 15.4315C18.2825 15.423 18.2904 15.4143 18.2986 15.4055C18.3075 15.3969 18.3163 15.389 18.3246 15.3795C18.3423 15.3631 18.3574 15.345 18.3731 15.3261C20.2792 13.3111 20.2473 10.1232 18.2741 8.14861L15.5166 5.39202C15.1181 4.99285 14.471 4.99285 14.0728 5.39211Z" fill="white"/>
</g>
<defs>
<clipPath id="clip0_3368_4025">
<rect width="23" height="23" fill="white"/>
</clipPath>
</defs>
</svg>
