<svg width="33" height="33" viewBox="0 0 33 33" fill="none" xmlns="http://www.w3.org/2000/svg">
<rect width="32.8125" height="32.8125" rx="16.4062" fill="#EBEFFF"/>
<path d="M20.5089 17.4824C21.4576 17.4824 22.2266 18.2514 22.2266 19.2001V19.8547H22.2216C22.1893 20.5947 21.9864 21.5227 21.1556 22.2808C20.248 23.109 18.6812 23.6504 16.0557 23.6504C13.4302 23.6504 11.8635 23.109 10.9559 22.2808C10.1249 21.5227 9.92209 20.5947 9.88983 19.8547H9.88477V19.2001C9.88477 18.2514 10.6538 17.4824 11.6025 17.4824H20.5089Z" fill="#2D50C8"/>
<path d="M12.7327 9.41227C11.9462 9.41227 11.3086 10.0498 11.3086 10.8363V14.6338C11.3086 15.4203 11.9462 16.0579 12.7327 16.0579H19.3783C20.1647 16.0579 20.8023 15.4203 20.8023 14.6338V10.8363C20.8023 10.0498 20.1647 9.41227 19.3783 9.41227H16.5302C16.5302 9.41227 16.5302 9.23055 16.5302 8.93758C16.5302 8.64461 16.3176 8.46289 16.0555 8.46289C15.7933 8.46289 15.5808 8.68169 15.5808 8.93758C15.5808 9.19346 15.5808 9.41227 15.5808 9.41227H12.7327ZM13.2073 12.7351C13.2073 12.2107 13.6324 11.7857 14.1567 11.7857C14.681 11.7857 15.1061 12.2107 15.1061 12.7351C15.1061 13.2594 14.681 13.6845 14.1567 13.6845C13.6324 13.6845 13.2073 13.2594 13.2073 12.7351ZM17.0048 12.7351C17.0048 12.2107 17.4299 11.7857 17.9542 11.7857C18.4786 11.7857 18.9036 12.2107 18.9036 12.7351C18.9036 13.2594 18.4786 13.6845 17.9542 13.6845C17.4299 13.6845 17.0048 13.2594 17.0048 12.7351Z" fill="#2D50C8"/>
</svg>
