<svg width="34" height="33" viewBox="0 0 34 33" fill="none" xmlns="http://www.w3.org/2000/svg">
<rect x="0.623047" width="32.8125" height="32.8125" rx="16.4062" fill="#D6EBFF"/>
<g clip-path="url(#clip0_134_222703)">
<path d="M17.028 13.3672C16.2628 13.3672 15.6426 13.9875 15.6426 14.7526C15.6426 15.5178 16.2628 16.138 17.028 16.138C17.7931 16.138 18.4134 15.5178 18.4134 14.7526C18.4134 13.9875 17.7931 13.3672 17.028 13.3672Z" fill="#0C71CE"/>
<path fill-rule="evenodd" clip-rule="evenodd" d="M18.4141 10.5971L17.4905 10.5971V8.75H16.5668V10.5971H15.6431C12.5826 10.5972 10.1016 13.0782 10.1016 16.1388C10.1016 19.1993 12.5826 21.6804 15.6432 21.6804H18.4141C18.5347 21.6804 18.6544 21.6766 18.7732 21.6689L22.4584 22.5902C22.6158 22.6296 22.7822 22.5835 22.8969 22.4688C23.0116 22.3541 23.0577 22.1876 23.0184 22.0302L22.4854 19.8984C23.3977 18.9108 23.9557 17.5896 23.9557 16.1388C23.9557 13.0782 21.4746 10.5971 18.4141 10.5971ZM14.7196 14.7535C14.7196 13.4782 15.7534 12.4444 17.0286 12.4444C18.3039 12.4444 19.3377 13.4782 19.3377 14.7535C19.3377 16.0287 18.3039 17.0625 17.0286 17.0625C15.7534 17.0625 14.7196 16.0287 14.7196 14.7535ZM17.0286 19.8333C16.0462 19.8333 15.1422 19.4919 14.4308 18.9215L15.0084 18.2009C15.562 18.6446 16.2637 18.9097 17.0286 18.9097C17.7935 18.9097 18.4953 18.6446 19.0488 18.2009L19.6265 18.9215C18.915 19.4919 18.0111 19.8333 17.0286 19.8333Z" fill="#0C71CE"/>
</g>
<defs>
<clipPath id="clip0_134_222703">
<rect width="13.8542" height="13.8542" fill="white" transform="translate(10.1016 8.75)"/>
</clipPath>
</defs>
</svg>
