<svg width="19" height="20" viewBox="0 0 19 20" fill="none" xmlns="http://www.w3.org/2000/svg">
<g clip-path="url(#clip0_3368_4029)">
<path fill-rule="evenodd" clip-rule="evenodd" d="M9.5 0.5C4.26016 0.5 0 4.76016 0 10C0 15.2398 4.26016 19.5 9.5 19.5C14.7398 19.5 19 15.2398 19 10C19 4.76016 14.7398 0.5 9.5 0.5Z" fill="#4BAE4F"/>
<path fill-rule="evenodd" clip-rule="evenodd" d="M14.0942 6.79741C14.3243 7.02749 14.3243 7.40601 14.0942 7.63608L8.52783 13.2025C8.41279 13.3175 8.26064 13.3769 8.1085 13.3769C7.95635 13.3769 7.8042 13.3175 7.68916 13.2025L4.90596 10.4193C4.67588 10.1892 4.67588 9.81069 4.90596 9.58061C5.13604 9.35054 5.51455 9.35054 5.74463 9.58061L8.1085 11.9445L13.2556 6.79741C13.4856 6.56362 13.8642 6.56362 14.0942 6.79741Z" fill="white"/>
</g>
<defs>
<clipPath id="clip0_3368_4029">
<rect width="19" height="19" fill="white" transform="translate(0 0.5)"/>
</clipPath>
</defs>
</svg>
