<svg width="18" height="19" viewBox="0 0 18 19" fill="none" xmlns="http://www.w3.org/2000/svg">
<g clip-path="url(#clip0_822_126818)">
<path d="M10.0933 7.58846C9.2102 7.58846 8.49171 8.30691 8.49171 9.19003C8.49171 10.0732 9.2102 10.7916 10.0933 10.7916C10.9764 10.7916 11.6949 10.0732 11.6949 9.19003C11.6949 8.30691 10.9764 7.58846 10.0933 7.58846ZM10.0933 9.94968C9.6744 9.94968 9.33358 9.60886 9.33358 9.18998C9.33358 8.7711 9.6744 8.43029 10.0933 8.43029C10.5122 8.43029 10.853 8.7711 10.853 9.18998C10.853 9.60891 10.5122 9.94968 10.0933 9.94968ZM14.2235 10.0311L13.6796 9.63706C13.6979 9.48908 13.7071 9.33965 13.7071 9.19036C13.7071 9.04322 13.6982 8.89612 13.6805 8.75057L14.2246 8.35639C14.3636 8.26579 14.5533 8.05233 14.4624 7.58163C14.4189 7.35634 14.3147 7.09325 14.1691 6.84102C13.7655 6.14175 13.2764 5.83578 12.8858 6.03446L12.2735 6.30807C12.035 6.12711 11.7771 5.97773 11.5024 5.8616L11.4336 5.19876C11.4128 4.75945 10.9033 4.4879 10.0934 4.4879C9.28578 4.4879 8.77612 4.7587 8.7532 5.19657L8.68417 5.86164C8.40944 5.97782 8.15145 6.12725 7.91311 6.30816L7.30214 6.03521C7.15416 5.96014 6.87443 5.90266 6.51233 6.21663C6.33895 6.36695 6.16323 6.58874 6.01763 6.84102C5.614 7.54001 5.59338 8.1165 5.96053 8.35555L6.50615 8.75081C6.48843 8.89654 6.47954 9.04359 6.47954 9.1904C6.47954 9.33965 6.48871 9.48903 6.507 9.63697L5.96114 10.0325C5.59343 10.2712 5.61377 10.848 6.01759 11.5473C6.16323 11.7996 6.33895 12.0214 6.51233 12.1717C6.87452 12.4857 7.15425 12.4282 7.30214 12.3531L7.91933 12.0774C8.15585 12.256 8.4114 12.4037 8.68342 12.5188L8.75316 13.1917C8.77593 13.6297 9.28569 13.9005 10.0933 13.9005C10.9032 13.9005 11.4128 13.6289 11.4336 13.1896L11.5032 12.5188C11.7751 12.4037 12.0307 12.256 12.2672 12.0774L12.8858 12.3538C13.2764 12.5526 13.7654 12.2465 14.169 11.5474C14.574 10.8459 14.5937 10.2688 14.2235 10.0311ZM12.8114 8.64403C12.8471 8.82241 12.8652 9.00622 12.8652 9.19036C12.8652 9.37608 12.8467 9.56195 12.8102 9.74272C12.7776 9.90436 12.8424 10.0701 12.9759 10.1668L13.6363 10.6453C13.6171 10.7438 13.5609 10.9168 13.4399 11.1264C13.3189 11.336 13.1972 11.4711 13.1214 11.537L12.374 11.203C12.2236 11.1357 12.0477 11.1625 11.9241 11.2714C11.6454 11.5169 11.3268 11.701 10.9771 11.8185C10.8208 11.8711 10.7096 12.01 10.6925 12.174L10.608 12.9882C10.513 13.0207 10.3352 13.0586 10.0933 13.0586C9.85119 13.0586 9.67332 13.0207 9.57838 12.9881L9.49395 12.1741C9.47693 12.0101 9.36571 11.8711 9.2094 11.8185C8.85975 11.701 8.54114 11.5169 8.2623 11.2714C8.13868 11.1625 7.96301 11.1357 7.81246 11.2029L7.06492 11.5369C6.98925 11.4709 6.86755 11.3358 6.7466 11.1263C6.62556 10.9167 6.56939 10.7437 6.55017 10.6452L7.21057 10.1666C7.34405 10.0699 7.40878 9.90422 7.37623 9.74262C7.33984 9.56181 7.32132 9.37599 7.32132 9.19031C7.32132 9.00678 7.33947 8.82293 7.37515 8.64384C7.40733 8.48248 7.34255 8.31715 7.2093 8.22061L6.55012 7.74313C6.56934 7.64459 6.62551 7.47158 6.7466 7.26191C6.8675 7.05242 6.9892 6.9173 7.06488 6.85136L7.80675 7.18282C7.95763 7.25017 8.13377 7.22314 8.25739 7.11374C8.5374 6.86595 8.85792 6.68032 9.21001 6.56208C9.36636 6.50956 9.47763 6.37055 9.49466 6.20648L9.57833 5.4002C9.67327 5.36761 9.85114 5.32977 10.0932 5.32977C10.3352 5.32977 10.513 5.36756 10.608 5.40016L10.6917 6.20648C10.7087 6.37055 10.82 6.50956 10.9764 6.56208C11.3283 6.68022 11.6489 6.86581 11.9291 7.11369C12.0527 7.22309 12.2289 7.25012 12.3797 7.18273L13.1214 6.85126C13.1971 6.91721 13.3189 7.05233 13.4399 7.26196C13.5608 7.47144 13.617 7.64435 13.6363 7.74294L12.9771 8.22057C12.8439 8.31719 12.7791 8.48262 12.8114 8.64403ZM15.0538 2.65145H5.13283C3.53229 2.65145 2.24123 3.94952 2.24123 5.5501V13.7542L0.884887 14.9609V5.44885C0.88484 3.17505 2.75777 1.34187 5.03162 1.34187H12.8895C13.3313 1.34187 13.7532 1.47302 14.1097 1.7369C14.2966 1.8752 14.5602 1.83165 14.6985 1.6448C14.8368 1.45796 14.7975 1.20062 14.6106 1.06232C14.108 0.690356 13.5129 0.5 12.8895 0.5H5.03162C2.29362 0.5 0.0429688 2.71085 0.0429688 5.44885V15.915C0.0429688 16.0817 0.152926 16.2328 0.305539 16.3001C0.458105 16.3674 0.647339 16.3383 0.770533 16.2259L2.24123 14.8939V18.0791C2.24123 18.2458 2.33412 18.3969 2.48673 18.4642C2.54132 18.4883 2.59636 18.5 2.6538 18.5C2.75683 18.5 2.85716 18.4622 2.93629 18.39L5.38226 16.1571C5.45835 16.0876 5.52299 16.027 5.57972 15.9741C5.69679 15.8648 5.80721 15.7616 5.84384 15.7473C5.87821 15.7338 6.02334 15.7393 6.17694 15.7413C6.26005 15.7424 6.35644 15.7472 6.47 15.7472H15.0539C16.6544 15.7472 17.9562 14.438 17.9562 12.8374V5.5501C17.9561 3.94952 16.6543 2.65145 15.0538 2.65145ZM17.1142 12.8374C17.1142 13.9738 16.1901 14.9054 15.0538 14.9054H6.46995C6.36079 14.9054 6.26805 14.9005 6.18811 14.8995C5.56766 14.8912 5.46803 14.9284 5.005 15.3603C4.95024 15.4114 4.89294 15.4691 4.81947 15.5362L3.08311 17.125V13.9403C3.08311 13.94 3.08311 13.9396 3.08311 13.9393V5.5501C3.08306 4.41372 3.99649 3.49332 5.13283 3.49332H15.0538C16.1902 3.49332 17.1143 4.41372 17.1143 5.5501V12.8374H17.1142Z" fill="#555555"/>
</g>
<defs>
<clipPath id="clip0_822_126818">
<rect width="18" height="18" fill="white" transform="translate(0 0.5)"/>
</clipPath>
</defs>
</svg>
