<svg width="16" height="17" viewBox="0 0 16 17" fill="none" xmlns="http://www.w3.org/2000/svg">
<g clip-path="url(#clip0_2196_912)">
<path d="M12.2593 3.15241C12.2663 3.15292 12.2732 3.15342 12.2803 3.15342C12.2924 3.15342 12.3044 3.15241 12.3161 3.15076C12.6312 3.15722 12.8833 3.41417 12.8837 3.72921C12.8837 3.87237 12.9998 3.98843 13.1429 3.98843C13.2861 3.98843 13.4022 3.87237 13.4022 3.72921C13.4015 3.21392 13.0428 2.76813 12.5396 2.65725V2.40815C12.5396 2.26499 12.4235 2.14893 12.2803 2.14893C12.1372 2.14893 12.0211 2.26499 12.0211 2.40815V2.66902C11.489 2.81129 11.1447 3.32607 11.2165 3.87224C11.2882 4.41841 11.7538 4.82674 12.3046 4.82674C12.6245 4.82674 12.8837 5.08609 12.8837 5.40594C12.8837 5.72567 12.6245 5.98502 12.3046 5.98502C11.9848 5.98502 11.7256 5.72567 11.7256 5.40594C11.7256 5.26279 11.6095 5.14672 11.4663 5.14672C11.3232 5.14672 11.2071 5.26279 11.2071 5.40594C11.2077 5.90262 11.5414 6.33715 12.0211 6.46613V6.75017C12.0211 6.89332 12.1372 7.00939 12.2803 7.00939C12.4235 7.00939 12.5396 6.89332 12.5396 6.75017V6.47803C13.087 6.35816 13.4562 5.84503 13.3958 5.28785C13.3356 4.73067 12.8651 4.30841 12.3046 4.30854C11.9936 4.30867 11.7381 4.06311 11.7258 3.75237C11.7137 3.44163 11.9492 3.17671 12.2593 3.15254V3.15241Z" fill="#645DF6"/>
<path d="M12.3199 0.881836C10.7252 0.881836 9.36424 1.92241 8.8544 3.31574H2.42049C2.27796 3.31574 2.16227 3.44421 2.16126 3.58661L2.1 12.6802H0.26606C0.122904 12.6802 0 12.7839 0 12.9273V14.0813C0.00329092 15.1677 0.858935 16.0602 1.94419 16.1093V16.115H9.94775V16.1074C10.0126 16.1098 10.0393 16.115 10.0803 16.115H10.0858C11.2091 16.1132 12.1188 15.2021 12.1188 14.0789V8.2443C12.1836 8.24784 12.2522 8.24974 12.3193 8.24974C14.3486 8.24974 16 6.59516 16 4.56566C16 2.53629 14.3494 0.881836 12.3199 0.881836ZM2.04279 15.5965H2.04114C1.20259 15.5954 0.522247 14.9173 0.51845 14.0786V13.1987H8.03597V14.075C8.03635 14.6159 8.25241 15.1345 8.63618 15.5159C8.6634 15.5431 8.69719 15.5641 8.72567 15.5965H2.04279ZM11.6003 14.0786C11.6004 14.9158 10.9226 15.5949 10.0856 15.5965H10.0807C9.2402 15.595 8.55859 14.9155 8.55442 14.0752V12.9273C8.55657 12.861 8.53125 12.7968 8.48429 12.75C8.43734 12.7031 8.37316 12.678 8.30696 12.6802H2.61845L2.67794 3.83419H8.71048C8.66454 4.07152 8.64074 4.31251 8.63948 4.55414C8.63897 5.06513 8.74555 5.57041 8.95237 6.0376H6.50391C6.36063 6.0376 6.24468 6.15367 6.24468 6.29682C6.24468 6.43998 6.36063 6.55605 6.50391 6.55605H9.23362C9.76839 7.39701 10.6233 7.9833 11.6003 8.17949V14.0786ZM12.3199 7.73142C10.5737 7.73142 9.15793 6.31581 9.15805 4.56946C9.15805 2.82311 10.5737 1.4075 12.32 1.4075C14.0662 1.4075 15.4818 2.82324 15.4818 4.56946C15.4799 6.31492 14.0655 7.72952 12.3199 7.73142Z" fill="#645DF6"/>
<path d="M4.84044 7.7627C4.38287 7.7627 4.01074 8.12305 4.01074 8.56606C4.01074 9.00908 4.38287 9.36943 4.84044 9.36943C5.29801 9.36943 5.67026 9.00908 5.67026 8.56606C5.67026 8.12305 5.29801 7.7627 4.84044 7.7627ZM4.84044 8.85098C4.66868 8.85098 4.52919 8.72314 4.52919 8.56606C4.52919 8.40886 4.6688 8.28114 4.84044 8.28114C5.01207 8.28114 5.15181 8.40899 5.15181 8.56606C5.15181 8.72314 5.01207 8.85098 4.84044 8.85098Z" fill="#645DF6"/>
<path d="M6.24512 8.56489C6.24512 8.70804 6.36106 8.82411 6.50434 8.82411H9.96033C10.1035 8.82411 10.2196 8.70804 10.2196 8.56489C10.2196 8.42173 10.1035 8.30566 9.96033 8.30566H6.50434C6.36106 8.30566 6.24512 8.42173 6.24512 8.56489Z" fill="#645DF6"/>
<path d="M4.84044 5.50928C4.38287 5.50928 4.01074 5.86976 4.01074 6.31277C4.01074 6.75578 4.38287 7.11614 4.84044 7.11614C5.29801 7.11614 5.67026 6.75578 5.67026 6.31277C5.67026 5.86976 5.29801 5.50928 4.84044 5.50928ZM4.84044 6.59769C4.66868 6.59769 4.52919 6.46985 4.52919 6.31277C4.52919 6.15569 4.6688 6.02773 4.84044 6.02773C5.01207 6.02773 5.15181 6.15557 5.15181 6.31277C5.15181 6.46985 5.01207 6.59782 4.84044 6.59782V6.59769Z" fill="#645DF6"/>
<path d="M4.84044 10.0156C4.38287 10.0156 4.01074 10.376 4.01074 10.819C4.01074 11.262 4.38287 11.6224 4.84044 11.6224C5.29801 11.6224 5.67026 11.262 5.67026 10.819C5.67026 10.376 5.29801 10.0156 4.84044 10.0156ZM4.84044 11.1039C4.66868 11.1039 4.52919 10.9762 4.52919 10.819C4.52919 10.6619 4.6688 10.5341 4.84044 10.5341C5.01207 10.5341 5.15181 10.6619 5.15181 10.819C5.15181 10.9761 5.01207 11.1039 4.84044 11.1039Z" fill="#645DF6"/>
<path d="M9.96033 10.5737H6.50434C6.36106 10.5737 6.24512 10.6898 6.24512 10.833C6.24512 10.9761 6.36106 11.0922 6.50434 11.0922H9.96033C10.1035 11.0922 10.2196 10.9761 10.2196 10.833C10.2196 10.6898 10.1035 10.5737 9.96033 10.5737Z" fill="#645DF6"/>
</g>
<defs>
<clipPath id="clip0_2196_912">
<rect width="16" height="16" fill="white" transform="translate(0 0.5)"/>
</clipPath>
</defs>
</svg>
