<svg width="35" height="35" viewBox="0 0 35 35" fill="none" xmlns="http://www.w3.org/2000/svg">
<path d="M35 17.4996C35 22.2176 33.1324 26.5003 30.0969 29.6469C26.9137 32.9467 22.4471 34.9991 17.5004 34.9991C12.5538 34.9991 8.08518 32.9467 4.904 29.646C1.86673 26.4994 0 22.2168 0 17.4996C0 7.83457 7.83567 0 17.5004 0C27.1654 0 35 7.83457 35 17.4996Z" fill="#DCE0F7"/>
<path d="M23.6998 13.8116H14.8271V6.78144L19.8533 6.39222C21.9279 6.2316 23.6998 7.87169 23.6998 9.9525V13.8116Z" fill="#555A5E"/>
<path d="M14.8285 6.78076H14.1191C12.5597 6.78076 11.2959 8.04483 11.2959 9.60396V13.8107L13.7613 12.1105L14.8285 6.78076Z" fill="#555A5E"/>
<path d="M23.7011 13.1633C23.7011 17.0688 20.9244 20.235 17.4985 20.235C14.6183 20.235 12.198 17.9973 11.5005 14.9653C11.3663 14.391 11.2959 13.786 11.2959 13.1633C11.2959 9.25997 14.0727 6.09375 17.4985 6.09375C20.9244 6.09375 23.7011 9.25997 23.7011 13.1633Z" fill="#555A5E"/>
<path d="M30.0996 29.6472C29.0016 30.7847 27.7496 31.7749 26.3811 32.5802C26.3437 32.6022 26.3041 32.6264 26.2645 32.6484C23.6879 34.1424 20.6955 34.9983 17.5029 34.9983C14.4071 34.9983 11.4983 34.1952 8.97678 32.7848C8.86017 32.7188 8.74575 32.6528 8.63134 32.5868C7.25836 31.7749 6.00199 30.7847 4.90625 29.645L5.20769 28.459C5.66095 26.6724 7.06913 25.2862 8.86017 24.8571L9.41244 24.7251L9.78429 24.6371L11.5599 24.2125L11.802 24.1553L11.857 24.142C12.1122 24.0826 12.3564 23.9946 12.5875 23.8824C12.9857 23.6932 13.3422 23.4314 13.6414 23.1145C14.0639 22.6745 14.3741 22.1266 14.5303 21.5149L14.7635 20.6062L14.8274 20.362L14.8318 20.3443L15.1288 19.1892L15.219 18.8438H19.7846L20.1234 20.1639L20.1543 20.2805L20.1719 20.3487L20.1763 20.3642L20.2401 20.6106L20.4711 21.5149C20.7439 22.5732 21.4744 23.438 22.4404 23.8956H22.4426C22.667 24.0012 22.9024 24.0826 23.1466 24.142L23.4415 24.2125L23.4569 24.2169L25.4768 24.6987L25.6044 24.7295L26.1434 24.8571C27.9345 25.2862 29.3427 26.6724 29.7959 28.459L30.0996 29.6472Z" fill="#EBEFF9"/>
<path d="M20.1684 20.3473C19.7812 22.0481 18.7328 23.2679 17.4993 23.2679C16.2649 23.2679 15.2145 22.0455 14.8281 20.3427L15.126 19.1875L15.2154 18.8423H19.7805L20.1203 20.1625L20.1513 20.2808L20.1684 20.3473Z" fill="#D5DCEF"/>
<path d="M12.3946 13.8743C10.1215 11.3237 11.6382 17.5589 12.8956 16.8302C15.106 15.5492 12.3946 13.8743 12.3946 13.8743Z" fill="#EBEFF9"/>
<path d="M22.6058 13.8743C24.8789 11.3237 23.3622 17.5589 22.1048 16.8302C19.8943 15.5492 22.6058 13.8743 22.6058 13.8743Z" fill="#EBEFF9"/>
<path d="M22.7885 12.0353C22.7885 12.229 22.7775 12.4204 22.7576 12.6074C22.7444 12.7438 22.6938 13.2191 22.608 13.866L22.6058 13.8748C22.3682 15.6416 21.8555 18.6736 21.0458 19.4811C20.4649 20.0642 19.9963 20.5901 19.466 20.9729C18.9335 21.3558 18.3373 21.5912 17.5012 21.5912H17.499C15.8289 21.5912 15.1182 20.6429 13.9565 19.4811C13.3756 18.9003 12.9466 17.173 12.6605 15.591C12.6473 15.5162 12.6341 15.4392 12.6231 15.3666C12.5835 15.1312 12.5461 14.8979 12.5109 14.6757C12.3283 13.4941 12.2403 12.57 12.2403 12.57C12.2227 12.394 12.2139 12.2158 12.2139 12.0353C12.2139 11.9891 12.2139 11.9429 12.2161 11.8967C12.2271 11.4809 12.2843 11.076 12.3855 10.6888C12.3899 10.6712 12.3965 10.6536 12.4009 10.636C12.9884 8.48848 14.896 6.88667 17.1975 6.75685C17.2987 6.75025 17.3977 6.74805 17.499 6.74805H17.5012C20.4209 6.74805 22.7885 9.11556 22.7885 12.0353Z" fill="#EBEFF9"/>
<path d="M18.3526 17.2318C18.3526 17.5968 17.9808 17.8925 17.5209 17.8925C17.0633 17.8925 16.6914 17.5968 16.6914 17.2318C16.6914 17.188 16.6958 17.1444 16.709 17.1035C16.7816 17.4067 17.1183 17.636 17.5209 17.636C17.9258 17.636 18.2624 17.4067 18.335 17.1035C18.3482 17.1442 18.3526 17.188 18.3526 17.2318Z" fill="#DCE0F7"/>
<path d="M22.927 12.0702C22.927 12.2689 22.9158 12.4654 22.8953 12.6573C22.8819 12.7972 22.6056 13.8745 22.6056 13.8745C17.2226 13.6373 14.9382 11.0768 14.9382 11.0768C13.9899 13.8608 12.5109 14.676 12.5109 14.676C12.3234 13.4634 12.1023 12.619 12.1023 12.619C12.0842 12.4383 12.0752 12.2555 12.0752 12.0702C12.0752 12.0227 12.0752 11.9754 12.0774 11.9281C12.0886 11.5012 12.1474 11.0858 12.2512 10.6884C12.2558 10.6704 12.2624 10.6524 12.2671 10.6343C12.8699 8.4305 14.8275 6.78667 17.1893 6.65355C17.2932 6.64673 17.3948 6.64453 17.4987 6.64453H17.5009C20.4972 6.64453 22.927 9.07409 22.927 12.0702Z" fill="#555A5E"/>
<path d="M15.0028 17.4387C13.9421 17.4387 13.0791 16.5758 13.0791 15.515C13.0791 14.4543 13.9421 13.5913 15.0028 13.5913C16.0636 13.5913 16.9265 14.4543 16.9265 15.515C16.9265 16.5758 16.0636 17.4387 15.0028 17.4387ZM15.0028 13.8116C14.0633 13.8116 13.2991 14.5757 13.2991 15.5152C13.2991 16.4548 14.0635 17.2189 15.0028 17.2189C15.9423 17.2189 16.7065 16.4548 16.7065 15.5152C16.7063 14.5757 15.9421 13.8116 15.0028 13.8116Z" fill="#D5DCEF"/>
<path d="M20.0409 17.4387C18.9801 17.4387 18.1172 16.5758 18.1172 15.515C18.1172 14.4543 18.9801 13.5913 20.0409 13.5913C21.1017 13.5913 21.9646 14.4543 21.9646 15.515C21.9646 16.5758 21.1014 17.4387 20.0409 17.4387ZM20.0409 13.8116C19.1016 13.8116 18.3372 14.5757 18.3372 15.5152C18.3372 16.4548 19.1016 17.2189 20.0409 17.2189C20.9804 17.2189 21.7446 16.4548 21.7446 15.5152C21.7444 14.5757 20.9802 13.8116 20.0409 13.8116Z" fill="#D5DCEF"/>
<path d="M18.3343 15.5153H18.1142C18.1142 15.1877 17.8478 14.9212 17.5202 14.9212C17.1925 14.9212 16.9261 15.1877 16.9261 15.5153H16.7061C16.7061 15.0662 17.0713 14.7012 17.5202 14.7012C17.969 14.7012 18.3343 15.0664 18.3343 15.5153Z" fill="#D5DCEF"/>
<path d="M30.0996 29.6466C29.0016 30.7841 27.7496 31.7743 26.3811 32.5796C26.3437 32.6016 26.3041 32.6258 26.2645 32.6478C24.9223 33.4267 23.4657 34.0318 21.9277 34.4322C20.5151 34.8019 19.0321 34.9977 17.5029 34.9977C15.9869 34.9977 14.5171 34.8063 13.1155 34.441C11.6523 34.067 10.264 33.5037 8.97678 32.7842C8.86017 32.7182 8.74575 32.6522 8.63134 32.5862C7.25836 31.7743 6.00199 30.7841 4.90625 29.6444L5.20769 28.4584C5.66095 26.6718 7.06913 25.2856 8.86017 24.8566L9.41244 24.7245L9.78429 24.6365L11.5599 24.2119L11.802 24.1547L11.857 24.1415C12.1122 24.0821 12.3564 23.9941 12.5875 23.8818L12.5941 23.884L14.4753 25.7653C14.8802 26.1679 15.3554 26.4848 15.8725 26.7004C16.3896 26.9138 16.9506 27.0282 17.5227 27.0282C18.6647 27.0282 19.7604 26.5728 20.5701 25.7653L22.4404 23.895H22.4426C22.667 24.0007 22.9024 24.0821 23.1466 24.1415L23.4415 24.2119L23.4569 24.2163L25.4768 24.6981L25.6044 24.7289L26.1434 24.8566C27.9345 25.2856 29.3427 26.6718 29.7959 28.4584L30.0996 29.6466Z" fill="#555A5E"/>
<path d="M21.9626 33.8818C21.9626 34.0689 21.9516 34.2515 21.9274 34.4319C20.5149 34.8016 19.0319 34.9974 17.5027 34.9974C15.9867 34.9974 14.5169 34.806 13.1153 34.4407C13.0911 34.2581 13.0801 34.0711 13.0801 33.8818C13.0801 31.4285 15.0691 29.4395 17.5225 29.4395C19.9758 29.4395 21.9626 31.4285 21.9626 33.8818Z" fill="#6E7174"/>
</svg>
