<svg width="16" height="17" viewBox="0 0 16 17" fill="none" xmlns="http://www.w3.org/2000/svg">
<path d="M7.72927 15.5832H3.5561C2.42197 15.5832 1.50177 14.6596 1.50177 13.5289V3.47114C1.50177 2.33701 2.42537 1.41681 3.5561 1.41681H7.79719C8.05185 1.41681 8.25559 1.21307 8.25559 0.958404C8.25559 0.703735 8.05185 0.5 7.79719 0.5H3.5561C1.91603 0.5 0.584961 1.83447 0.584961 3.47114V13.5289C0.584961 15.1689 1.91943 16.5 3.5561 16.5H7.72927C7.98394 16.5 8.18768 16.2963 8.18768 16.0416C8.18768 15.7869 7.98055 15.5832 7.72927 15.5832Z" fill="#D21E1E"/>
<path d="M15.2812 8.17729L12.3678 5.26388C12.1878 5.08391 11.8992 5.08391 11.7193 5.26388C11.5393 5.44385 11.5393 5.73247 11.7193 5.91244L13.8517 8.04487H4.55118C4.29651 8.04487 4.09277 8.2486 4.09277 8.50327C4.09277 8.75794 4.29651 8.96167 4.55118 8.96167H13.8517L11.7193 11.0941C11.5393 11.2741 11.5393 11.5627 11.7193 11.7427C11.8075 11.8309 11.9264 11.8785 12.0418 11.8785C12.1573 11.8785 12.2761 11.8343 12.3644 11.7427L15.2778 8.82925C15.4612 8.64588 15.4612 8.35386 15.2812 8.17729Z" fill="#D21E1E"/>
</svg>
