<svg width="16" height="15" viewBox="0 0 16 15" fill="none" xmlns="http://www.w3.org/2000/svg">
<path d="M12.666 5.3335C11.286 5.3335 10.166 4.2135 10.166 2.8335C10.166 1.4535 11.286 0.333496 12.666 0.333496C14.046 0.333496 15.166 1.4535 15.166 2.8335C15.166 4.2135 14.046 5.3335 12.666 5.3335ZM12.666 1.3335C11.8393 1.3335 11.166 2.00683 11.166 2.8335C11.166 3.66016 11.8393 4.3335 12.666 4.3335C13.4927 4.3335 14.166 3.66016 14.166 2.8335C14.166 2.00683 13.4927 1.3335 12.666 1.3335Z" fill="#333333"/>
<path d="M9.99967 14.6668H5.99967C2.37967 14.6668 0.833008 13.1202 0.833008 9.50016V5.50016C0.833008 1.88016 2.37967 0.333496 5.99967 0.333496H9.33301C9.60634 0.333496 9.83301 0.560163 9.83301 0.833496C9.83301 1.10683 9.60634 1.3335 9.33301 1.3335H5.99967C2.92634 1.3335 1.83301 2.42683 1.83301 5.50016V9.50016C1.83301 12.5735 2.92634 13.6668 5.99967 13.6668H9.99967C13.073 13.6668 14.1663 12.5735 14.1663 9.50016V6.16683C14.1663 5.8935 14.393 5.66683 14.6663 5.66683C14.9397 5.66683 15.1663 5.8935 15.1663 6.16683V9.50016C15.1663 13.1202 13.6197 14.6668 9.99967 14.6668Z" fill="#333333"/>
</svg>
