<svg width="20" height="20" viewBox="0 0 20 20" fill="none" xmlns="http://www.w3.org/2000/svg">
<g clip-path="url(#clip0_73_96768)">
<path d="M12.5 5.00006C12.2528 5.00006 12.0111 5.07337 11.8055 5.21072C11.6 5.34807 11.4398 5.5433 11.3452 5.77171C11.2505 6.00011 11.2258 6.25145 11.274 6.49392C11.3223 6.7364 11.4413 6.95913 11.6161 7.13394C11.7909 7.30876 12.0137 7.42781 12.2561 7.47604C12.4986 7.52427 12.7499 7.49952 12.9784 7.40491C13.2068 7.3103 13.402 7.15008 13.5393 6.94452C13.6767 6.73896 13.75 6.49729 13.75 6.25006C13.7516 6.08546 13.7204 5.92218 13.6582 5.7698C13.5959 5.61741 13.5039 5.47896 13.3875 5.36257C13.2711 5.24617 13.1327 5.15415 12.9803 5.09191C12.8279 5.02967 12.6646 4.99844 12.5 5.00006Z" fill="url(#paint0_linear_73_96768)"/>
<path d="M7.5 5.00006C7.25277 5.00006 7.0111 5.07337 6.80554 5.21072C6.59998 5.34807 6.43976 5.5433 6.34515 5.77171C6.25054 6.00011 6.22579 6.25145 6.27402 6.49392C6.32225 6.7364 6.4413 6.95913 6.61612 7.13394C6.79093 7.30876 7.01366 7.42781 7.25614 7.47604C7.49861 7.52427 7.74995 7.49952 7.97835 7.40491C8.20676 7.3103 8.40199 7.15008 8.53934 6.94452C8.67669 6.73896 8.75 6.49729 8.75 6.25006C8.75162 6.08546 8.7204 5.92218 8.65815 5.7698C8.59591 5.61741 8.50389 5.47896 8.3875 5.36257C8.2711 5.24617 8.13265 5.15415 7.98027 5.09191C7.82788 5.02967 7.6646 4.99844 7.5 5.00006Z" fill="url(#paint1_linear_73_96768)"/>
<path d="M11.0849 18.75L10 18.125L12.5 13.75H16.25C16.4142 13.7503 16.5769 13.7181 16.7287 13.6554C16.8805 13.5927 17.0184 13.5006 17.1345 13.3845C17.2506 13.2684 17.3427 13.1305 17.4054 12.9787C17.4681 12.8269 17.5003 12.6642 17.5 12.5V3.75C17.5003 3.58577 17.4681 3.4231 17.4054 3.27131C17.3427 3.11953 17.2506 2.98162 17.1345 2.86549C17.0184 2.74936 16.8805 2.6573 16.7287 2.59458C16.5769 2.53186 16.4142 2.49972 16.25 2.5H3.75C3.58577 2.49972 3.4231 2.53186 3.27131 2.59458C3.11953 2.6573 2.98162 2.74936 2.86549 2.86549C2.74936 2.98162 2.6573 3.11953 2.59458 3.27131C2.53186 3.4231 2.49972 3.58577 2.5 3.75V12.5C2.49972 12.6642 2.53186 12.8269 2.59458 12.9787C2.6573 13.1305 2.74936 13.2684 2.86549 13.3845C2.98162 13.5006 3.11953 13.5927 3.27131 13.6554C3.4231 13.7181 3.58577 13.7503 3.75 13.75H9.375V15H3.75C3.42168 15.0001 3.09656 14.9354 2.79322 14.8098C2.48988 14.6842 2.21426 14.5001 1.98211 14.2679C1.74995 14.0357 1.5658 13.7601 1.44018 13.4568C1.31457 13.1534 1.24994 12.8283 1.25 12.5V3.75C1.2499 3.42167 1.3145 3.09653 1.4401 2.79318C1.5657 2.48982 1.74985 2.21418 1.98201 1.98201C2.21418 1.74985 2.48982 1.5657 2.79318 1.4401C3.09653 1.3145 3.42167 1.2499 3.75 1.25H16.25C16.5783 1.2499 16.9035 1.3145 17.2068 1.4401C17.5102 1.5657 17.7858 1.74985 18.018 1.98201C18.2502 2.21418 18.4343 2.48982 18.5599 2.79318C18.6855 3.09653 18.7501 3.42167 18.75 3.75V12.5C18.7501 12.8283 18.6854 13.1534 18.5598 13.4568C18.4342 13.7601 18.2501 14.0357 18.0179 14.2679C17.7857 14.5001 17.5101 14.6842 17.2068 14.8098C16.9034 14.9354 16.5783 15.0001 16.25 15H13.2279L11.0849 18.75Z" fill="url(#paint2_linear_73_96768)"/>
</g>
<defs>
<linearGradient id="paint0_linear_73_96768" x1="12.5" y1="5" x2="12.5" y2="7.50006" gradientUnits="userSpaceOnUse">
<stop stop-color="#000AFF"/>
<stop offset="1" stop-color="#D274FF"/>
</linearGradient>
<linearGradient id="paint1_linear_73_96768" x1="7.50003" y1="5" x2="7.50003" y2="7.50006" gradientUnits="userSpaceOnUse">
<stop stop-color="#000AFF"/>
<stop offset="1" stop-color="#D274FF"/>
</linearGradient>
<linearGradient id="paint2_linear_73_96768" x1="10" y1="1.25" x2="10" y2="18.75" gradientUnits="userSpaceOnUse">
<stop stop-color="#000AFF"/>
<stop offset="1" stop-color="#D274FF"/>
</linearGradient>
<clipPath id="clip0_73_96768">
<rect width="20" height="20" fill="white"/>
</clipPath>
</defs>
</svg>
