<svg width="3" height="15" viewBox="0 0 3 15" fill="none" xmlns="http://www.w3.org/2000/svg">
<path d="M1.50334 11.1569C2.3088 11.1569 2.96175 11.8099 2.96175 12.6153C2.96175 13.4208 2.3088 14.0737 1.50334 14.0737C0.697876 14.0737 0.0449219 13.4208 0.0449219 12.6153C0.0449219 11.8099 0.697876 11.1569 1.50334 11.1569Z" fill="#333333"/>
<path d="M1.50334 5.61247C2.3088 5.61247 2.96175 6.2654 2.96175 7.07088C2.96175 7.87636 2.3088 8.5293 1.50334 8.5293C0.697876 8.5293 0.0449219 7.87636 0.0449219 7.07088C0.0449219 6.2654 0.697876 5.61247 1.50334 5.61247Z" fill="#333333"/>
<path d="M2.96175 1.5328C2.96175 0.727313 2.3088 0.0743806 1.50334 0.0743806C0.697876 0.0743806 0.0449219 0.727313 0.0449219 1.5328C0.0449219 2.33828 0.697876 2.99121 1.50334 2.99121C2.3088 2.99121 2.96175 2.33828 2.96175 1.5328Z" fill="#333333"/>
</svg>
