<svg width="14" height="4" viewBox="0 0 14 4" fill="none" xmlns="http://www.w3.org/2000/svg">
<path d="M2.91683 2.18693C2.91683 2.99239 2.26388 3.64535 1.45842 3.64535C0.652954 3.64535 0 2.99239 0 2.18693C0 1.38147 0.652954 0.728516 1.45842 0.728516C2.26388 0.728516 2.91683 1.38147 2.91683 2.18693Z" fill="#333333"/>
<path d="M8.46175 2.18693C8.46175 2.99239 7.80882 3.64535 7.00334 3.64535C6.19785 3.64535 5.54492 2.99239 5.54492 2.18693C5.54492 1.38147 6.19785 0.728516 7.00334 0.728516C7.80882 0.728516 8.46175 1.38147 8.46175 2.18693Z" fill="#333333"/>
<path d="M12.5404 3.64535C13.3459 3.64535 13.9989 2.99239 13.9989 2.18693C13.9989 1.38147 13.3459 0.728516 12.5404 0.728516C11.735 0.728516 11.082 1.38147 11.082 2.18693C11.082 2.99239 11.735 3.64535 12.5404 3.64535Z" fill="#333333"/>
</svg>
