<svg width="4" height="15" viewBox="0 0 4 15" fill="none" xmlns="http://www.w3.org/2000/svg">
<path d="M0.720703 7.35449C0.720703 8.18149 1.3937 8.85449 2.2207 8.85449C3.0477 8.85449 3.7207 8.18149 3.7207 7.35449C3.7207 6.52749 3.0477 5.85449 2.2207 5.85449C1.3937 5.85449 0.720703 6.52749 0.720703 7.35449Z" fill="#555555"/>
<path d="M0.720703 12.9795C0.720703 13.8065 1.3937 14.4795 2.2207 14.4795C3.0477 14.4795 3.7207 13.8065 3.7207 12.9795C3.7207 12.1525 3.0477 11.4795 2.2207 11.4795C1.3937 11.4795 0.720703 12.1525 0.720703 12.9795Z" fill="#555555"/>
<path d="M0.720703 1.72949C0.720703 2.55649 1.3937 3.22949 2.2207 3.22949C3.0477 3.22949 3.7207 2.55649 3.7207 1.72949C3.7207 0.902492 3.0477 0.229492 2.2207 0.229492C1.3937 0.229492 0.720703 0.902492 0.720703 1.72949Z" fill="#555555"/>
</svg>
