<svg width="19" height="20" viewBox="0 0 19 20" fill="none" xmlns="http://www.w3.org/2000/svg">
<path fill-rule="evenodd" clip-rule="evenodd" d="M1.58638 5.96811C1.58416 5.94838 1.58301 5.92833 1.58301 5.908C1.58301 5.48669 1.75037 5.08264 2.04828 4.78474L4.05405 2.77897C4.49945 2.33357 5.10354 2.08334 5.73343 2.08334H13.266C13.8958 2.08334 14.4999 2.33357 14.9453 2.77897L16.9511 4.78474C17.249 5.08265 17.4163 5.48669 17.4163 5.908C17.4163 5.92833 17.4152 5.94838 17.4129 5.96811C17.4152 5.99232 17.4163 6.01687 17.4163 6.04168V15.5417C17.4163 16.8534 16.3531 17.9167 15.0413 17.9167H3.95801C2.64633 17.9167 1.58301 16.8534 1.58301 15.5417V6.04168C1.58301 6.01687 1.58415 5.99232 1.58638 5.96811ZM5.73343 3.27084H13.266C13.5809 3.27084 13.8829 3.39596 14.1056 3.61865L15.737 5.25001H3.26239L4.89374 3.61865C5.11645 3.39595 5.41849 3.27084 5.73343 3.27084ZM2.77051 6.43751V15.5417C2.77051 16.1975 3.30217 16.7292 3.95801 16.7292H15.0413C15.6972 16.7292 16.2288 16.1975 16.2288 15.5417V6.43751H2.77051Z" fill="#645DF6"/>
<path d="M10.095 9.20804C10.095 8.88013 9.82916 8.61429 9.50126 8.61429C9.17327 8.61429 8.90751 8.88013 8.90751 9.20804V12.9208L7.94033 11.9537C7.70848 11.7218 7.33253 11.7218 7.10066 11.9537C6.86879 12.1856 6.86879 12.5615 7.10066 12.7934L8.52157 14.2143C9.06259 14.7553 9.93976 14.7553 10.4808 14.2143L11.8987 12.7964C12.1305 12.5645 12.1305 12.1886 11.8987 11.9567C11.6668 11.7248 11.2909 11.7248 11.059 11.9567L10.095 12.9207V9.20804Z" fill="#645DF6"/>
</svg>
