<svg width="18" height="19" viewBox="0 0 18 19" fill="none" xmlns="http://www.w3.org/2000/svg">
<path d="M15.375 5.32422V9.82422C15.375 12.6526 15.375 14.0669 14.4963 14.9455C13.6177 15.8242 12.2034 15.8242 9.375 15.8242H8.625C5.79657 15.8242 4.38236 15.8242 3.50368 14.9455C2.625 14.0669 2.625 12.6526 2.625 9.82422V5.32422" stroke="#645DF6" stroke-linecap="round"/>
<path d="M1.5 3.82422C1.5 3.11711 1.5 2.76356 1.71967 2.54389C1.93934 2.32422 2.29289 2.32422 3 2.32422H15C15.7071 2.32422 16.0606 2.32422 16.2803 2.54389C16.5 2.76356 16.5 3.11711 16.5 3.82422C16.5 4.53133 16.5 4.88488 16.2803 5.10455C16.0606 5.32422 15.7071 5.32422 15 5.32422H3C2.29289 5.32422 1.93934 5.32422 1.71967 5.10455C1.5 4.88488 1.5 4.53133 1.5 3.82422Z" stroke="#645DF6"/>
<path d="M7.125 10.1242L8.19645 11.3242L10.875 8.32422" stroke="#645DF6" stroke-linecap="round" stroke-linejoin="round"/>
</svg>
