<svg width="19" height="19" viewBox="0 0 19 19" fill="none" xmlns="http://www.w3.org/2000/svg">
<path fill-rule="evenodd" clip-rule="evenodd" d="M13.25 2.35059C11.4896 2.35059 10.0625 3.77768 10.0625 5.53809C10.0625 6.049 10.1823 6.53032 10.3948 6.95698C10.5141 7.19641 10.5635 7.48977 10.4848 7.78371L10.295 8.49309L11.0044 8.30326C11.2983 8.22466 11.5917 8.27401 11.8311 8.39326C12.2578 8.60581 12.7391 8.72559 13.25 8.72559C15.0104 8.72559 16.4375 7.29849 16.4375 5.53809C16.4375 3.77768 15.0104 2.35059 13.25 2.35059ZM8.9375 5.53809C8.9375 3.15636 10.8683 1.22559 13.25 1.22559C15.6318 1.22559 17.5625 3.15636 17.5625 5.53809C17.5625 7.91979 15.6318 9.85059 13.25 9.85059C12.5612 9.85059 11.9085 9.68866 11.3295 9.40029C11.3166 9.39384 11.3061 9.39129 11.2998 9.39054C11.2969 9.39016 11.2952 9.39024 11.2944 9.39024L10.4604 9.61344C9.67992 9.82224 8.96585 9.10816 9.17472 8.32771L9.39785 7.49367C9.39792 7.49295 9.39792 7.4912 9.39755 7.48824C9.3968 7.48194 9.39425 7.47151 9.3878 7.45854C9.09942 6.87958 8.9375 6.22694 8.9375 5.53809ZM3.28827 3.35718C4.20791 2.38898 5.72907 2.57037 6.48926 3.64556L7.43501 4.98318C8.04305 5.84317 7.99169 7.0388 7.26601 7.80279L7.08237 7.99614C7.08186 7.99749 7.08132 7.99891 7.08077 8.00049C7.07106 8.02779 7.04652 8.11464 7.07067 8.27941C7.12073 8.62104 7.38447 9.31531 8.45525 10.4426C9.52932 11.5735 10.1808 11.84 10.4827 11.889C10.613 11.9102 10.6811 11.8918 10.7028 11.8841L11.0093 11.5615C11.6646 10.8716 12.6864 10.7356 13.5102 11.2098L14.9431 12.0346C16.1678 12.7395 16.4529 14.4638 15.4741 15.4943L14.4087 16.616C14.0762 16.9661 13.6227 17.2649 13.0625 17.3202C11.6946 17.4552 8.52575 17.2793 5.2037 13.7819C2.10383 10.5183 1.51494 7.67961 1.4405 6.29268C1.40372 5.60743 1.70918 5.01966 2.11106 4.59655L3.28827 3.35718ZM5.57067 4.29504C5.18641 3.75155 4.49609 3.71912 4.10396 4.13196L2.92676 5.37132C2.67821 5.63299 2.54781 5.93292 2.56388 6.23239C2.62466 7.36475 3.1123 9.94644 6.01939 13.0071C9.06755 16.2162 11.8757 16.3069 12.9519 16.2006C13.1648 16.1796 13.3837 16.0616 13.593 15.8412L14.6584 14.7195C15.118 14.2357 14.9976 13.364 14.3819 13.0096L12.949 12.1848C12.5645 11.9635 12.114 12.0319 11.825 12.3362L11.4834 12.6959L11.0756 12.3085C11.4834 12.6959 11.4829 12.6964 11.4824 12.697L11.4813 12.6981L11.4791 12.7004L11.4743 12.7052L11.4636 12.7158C11.4558 12.7233 11.4469 12.7316 11.4369 12.7404C11.4167 12.758 11.3917 12.7782 11.3618 12.7995C11.3016 12.8421 11.2216 12.889 11.1204 12.9289C10.9134 13.0105 10.6401 13.0543 10.3024 12.9995C9.64422 12.8926 8.78165 12.4199 7.63952 11.2174C6.49401 10.0114 6.05559 9.11161 5.95756 8.44254C5.90766 8.10196 5.94759 7.82926 6.02087 7.62333C6.0569 7.52207 6.09945 7.44132 6.13869 7.38C6.15826 7.34943 6.17691 7.32382 6.1934 7.30299C6.20164 7.29257 6.20934 7.28334 6.21636 7.27527L6.22635 7.26404L6.23093 7.25906L6.23311 7.25673L6.23417 7.2556C6.23469 7.25505 6.23521 7.25451 6.64305 7.64189L6.23521 7.25451L6.45032 7.02804C6.78447 6.67623 6.83302 6.08045 6.51641 5.63265L5.57067 4.29504Z" fill="#157EFB"/>
</svg>
