<svg width="17" height="17" viewBox="0 0 17 17" fill="none" xmlns="http://www.w3.org/2000/svg">
<g clip-path="url(#clip0_832_146369)">
<path d="M10.9544 5.7885V0.302781C10.9544 0.176531 10.852 0.0742188 10.7258 0.0742188H7.06865C6.9424 0.0742188 6.84009 0.176563 6.84009 0.302781V10.3599V15.8457C6.84009 15.9719 6.94243 16.0742 7.06865 16.0742H10.7258C10.8521 16.0742 10.9544 15.9719 10.9544 15.8457V5.7885Z" fill="#FF5C00"/>
<path d="M5.46804 10.3594C5.46804 10.2332 5.3657 10.1309 5.23948 10.1309H1.58232C1.45607 10.1309 1.35376 10.2332 1.35376 10.3594V15.8451C1.35376 15.9714 1.4561 16.0737 1.58232 16.0737H5.23948C5.36573 16.0737 5.46804 15.9714 5.46804 15.8451V10.3594Z" fill="#FF5C00"/>
<path d="M16.2102 5.56055H12.553C12.4268 5.56055 12.3245 5.66289 12.3245 5.78911V15.8463C12.3245 15.9725 12.4268 16.0748 12.553 16.0748H16.2102C16.3364 16.0748 16.4387 15.9725 16.4387 15.8463V5.78911C16.4387 5.66289 16.3364 5.56055 16.2102 5.56055Z" fill="#FF5C00"/>
</g>
<defs>
<clipPath id="clip0_832_146369">
<rect width="16" height="16" fill="white" transform="translate(0.896484 0.0742188)"/>
</clipPath>
</defs>
</svg>
