<svg width="18" height="19" viewBox="0 0 18 19" fill="none" xmlns="http://www.w3.org/2000/svg">
<path d="M7.75781 9.07422C7.75781 10.0046 8.46813 10.7617 9.34099 10.7617C10.2139 10.7617 10.9242 10.0046 10.9242 9.07422C10.9242 8.14384 10.2139 7.38672 9.34099 7.38672C8.46813 7.38672 7.75781 8.14384 7.75781 9.07422Z" fill="#333333"/>
<path d="M7.75781 14.6992C7.75781 15.6296 8.46813 16.3867 9.34099 16.3867C10.2139 16.3867 10.9242 15.6296 10.9242 14.6992C10.9242 13.7688 10.2139 13.0117 9.34099 13.0117C8.46813 13.0117 7.75781 13.7688 7.75781 14.6992Z" fill="#333333"/>
<path d="M7.75781 3.44922C7.75781 4.37959 8.46813 5.13672 9.34099 5.13672C10.2139 5.13672 10.9242 4.37959 10.9242 3.44922C10.9242 2.51884 10.2139 1.76172 9.34099 1.76172C8.46813 1.76172 7.75781 2.51884 7.75781 3.44922Z" fill="#333333"/>
</svg>
