<svg width="19" height="20" viewBox="0 0 19 20" fill="none" xmlns="http://www.w3.org/2000/svg">
<path d="M17.4154 8.70443V11.0794C17.4154 14.2461 15.832 15.8294 12.6654 15.8294H12.2695C12.0241 15.8294 11.7866 15.9482 11.6362 16.1461L10.4487 17.7294C9.9262 18.4261 9.0712 18.4261 8.5487 17.7294L7.3612 16.1461C7.23453 15.9719 6.94161 15.8294 6.72786 15.8294H6.33203C3.16536 15.8294 1.58203 15.0378 1.58203 11.0794V7.12109C1.58203 3.95443 3.16536 2.37109 6.33203 2.37109H11.082" stroke="#FF5C00" stroke-miterlimit="10" stroke-linecap="round" stroke-linejoin="round"/>
<path d="M15.4362 6.32943C16.5293 6.32943 17.4154 5.44332 17.4154 4.35026C17.4154 3.2572 16.5293 2.37109 15.4362 2.37109C14.3431 2.37109 13.457 3.2572 13.457 4.35026C13.457 5.44332 14.3431 6.32943 15.4362 6.32943Z" stroke="#FF5C00" stroke-linecap="round" stroke-linejoin="round"/>
<path d="M12.6641 9.49609H12.6689" stroke="#FF5C00" stroke-linecap="round" stroke-linejoin="round"/>
<path d="M9.49609 9.49609H9.50097" stroke="#FF5C00" stroke-linecap="round" stroke-linejoin="round"/>
<path d="M6.32812 9.49609H6.33299" stroke="#FF5C00" stroke-linecap="round" stroke-linejoin="round"/>
</svg>
