<svg width="180" height="181" viewBox="0 0 180 181" fill="none" xmlns="http://www.w3.org/2000/svg">
<path d="M90 0.728516C78.181 0.728516 66.4778 3.05643 55.5585 7.57936C44.6392 12.1023 34.7177 18.7316 26.3604 27.0889C18.0031 35.4462 11.3738 45.3677 6.85085 56.287C2.32791 67.2063 0 78.9096 0 90.7285C0 102.547 2.32793 114.251 6.85085 125.17C11.3738 136.089 18.0031 146.011 26.3604 154.368C34.7177 162.725 44.6392 169.355 55.5585 173.878C66.4778 178.401 78.181 180.729 90 180.729L90 90.7285L90 0.728516Z" fill="#9BDFC4"/>
<path d="M90 180.729C101.819 180.729 113.522 178.401 124.442 173.878C135.361 169.355 145.282 162.725 153.64 154.368C161.997 146.011 168.626 136.089 173.149 125.17C177.672 114.251 180 102.547 180 90.7285L90 90.7285L90 180.729Z" fill="#62B2FD"/>
<path d="M180 90.7285C180 76.5256 176.639 62.5243 170.191 49.8694C163.743 37.2145 154.391 26.2653 142.901 17.917L90 90.7285L180 90.7285Z" fill="#F99BAB"/>
<path d="M106.864 2.32266C119.878 4.80511 132.183 10.1299 142.901 17.917L90 90.7285L106.864 2.32266Z" fill="#FFB44F"/>
<path d="M90 0.728516C95.6591 0.728516 101.305 1.26227 106.864 2.32266L90 90.7285L90 0.728516Z" fill="#9F97F7"/>
</svg>
