<svg width="17" height="17" viewBox="0 0 17 17" fill="none" xmlns="http://www.w3.org/2000/svg">
<g clip-path="url(#clip0_1951_47749)">
<path d="M16.8266 1.92459C16.7056 1.79446 16.5225 1.74185 16.3509 1.78787L1.31092 5.81778C1.13001 5.86624 0.993777 6.01553 0.962039 6.20011C0.9303 6.38455 1.00879 6.57071 1.16297 6.67691L6.14906 10.1078V15.386C6.14906 15.5802 6.266 15.7553 6.44532 15.8295C6.50477 15.8542 6.56715 15.866 6.62892 15.866C6.75392 15.866 6.87672 15.8173 6.96852 15.7254L9.9623 12.7316L12.1731 14.2529C12.254 14.3086 12.3491 14.3374 12.4452 14.3374C12.4954 14.3374 12.5459 14.3296 12.5947 14.3135C12.7371 14.2669 12.8495 14.1564 12.8986 14.0149L16.9285 2.40896C16.9868 2.24112 16.9475 2.05471 16.8266 1.92459ZM14.2873 3.33474L6.61268 9.26163L2.56434 6.47586L14.2873 3.33474ZM7.10902 14.2272V10.7683L9.15797 12.1783L7.10902 14.2272ZM12.1983 13.105L7.44325 9.83305L15.4931 3.61648L12.1983 13.105Z" fill="#333333"/>
</g>
<defs>
<clipPath id="clip0_1951_47749">
<rect width="16" height="16" fill="white" transform="translate(0.955078 0.802734)"/>
</clipPath>
</defs>
</svg>
