<svg width="15" height="15" viewBox="0 0 15 15" fill="none" xmlns="http://www.w3.org/2000/svg">
<g clip-path="url(#clip0_1951_47710)">
<path d="M12.3893 6.3924L2.94665 1.01824C1.94502 0.446417 0.923828 1.07179 0.923828 2.19636V13.4155C0.923828 14.3682 1.54408 14.8026 2.12057 14.8026C2.39205 14.8026 2.66865 14.717 2.94339 14.5498L12.4284 8.74397C12.9052 8.45107 13.173 8.01755 13.1646 7.55422C13.1567 7.09042 12.8745 6.66667 12.3893 6.3924ZM11.7927 7.70695L2.30823 13.5114C2.24443 13.5505 2.19414 13.57 2.15968 13.5798C2.15037 13.5454 2.14106 13.4923 2.14106 13.4155V2.19682C2.14106 2.08134 2.16201 2.02313 2.16201 2.0087C2.19926 2.01103 2.26446 2.03012 2.34641 2.07668L11.7876 7.45084C11.904 7.51743 11.9385 7.57517 11.9497 7.5626C11.9436 7.57843 11.904 7.63757 11.7927 7.70695Z" fill="white"/>
</g>
<defs>
<clipPath id="clip0_1951_47710">
<rect width="14" height="14" fill="white" transform="translate(0.0449219 0.802734)"/>
</clipPath>
</defs>
</svg>
