<svg width="30" height="31" viewBox="0 0 30 31" fill="none" xmlns="http://www.w3.org/2000/svg">
<rect y="0.882812" width="30" height="30" rx="6" fill="#E6F1FF"/>
<g clip-path="url(#clip0_2892_38170)">
<path fill-rule="evenodd" clip-rule="evenodd" d="M18.332 9.83301C16.7672 9.83301 15.4987 11.1015 15.4987 12.6663C15.4987 13.1205 15.6052 13.5483 15.7941 13.9276C15.9001 14.1404 15.944 14.4012 15.8741 14.6624L15.7054 15.293L16.336 15.1243C16.5972 15.0544 16.858 15.0983 17.0708 15.2043C17.4501 15.3932 17.8779 15.4997 18.332 15.4997C19.8968 15.4997 21.1654 14.2311 21.1654 12.6663C21.1654 11.1015 19.8968 9.83301 18.332 9.83301ZM14.4987 12.6663C14.4987 10.5492 16.215 8.83301 18.332 8.83301C20.4492 8.83301 22.1654 10.5492 22.1654 12.6663C22.1654 14.7834 20.4492 16.4997 18.332 16.4997C17.7198 16.4997 17.1396 16.3557 16.625 16.0994C16.6134 16.0937 16.6042 16.0914 16.5986 16.0907C16.596 16.0904 16.5944 16.0905 16.5938 16.0905L15.8524 16.2889C15.1586 16.4745 14.5239 15.8397 14.7096 15.146L14.9079 14.4046C14.908 14.404 14.908 14.4024 14.9076 14.3998C14.907 14.3942 14.9047 14.3849 14.899 14.3734C14.6426 13.8588 14.4987 13.2787 14.4987 12.6663ZM9.47716 10.7278C10.2946 9.86713 11.6468 10.0284 12.3225 10.9841L13.1631 12.1731C13.7036 12.9375 13.658 14.0003 13.0129 14.6794L12.8497 14.8513C12.8492 14.8525 12.8488 14.8537 12.8483 14.8551C12.8396 14.8794 12.8178 14.9566 12.8393 15.1031C12.8838 15.4067 13.1182 16.0239 14.07 17.0259C15.0248 18.0311 15.6039 18.268 15.8722 18.3116C15.988 18.3304 16.0486 18.3141 16.0679 18.3073L16.3403 18.0205C16.9228 17.4072 17.831 17.2863 18.5634 17.7079L19.837 18.441C20.9256 19.0676 21.179 20.6003 20.309 21.5163L19.362 22.5133C19.0664 22.8245 18.6634 23.0901 18.1654 23.1393C16.9494 23.2593 14.1327 23.103 11.1798 19.9941C8.42432 17.0932 7.90087 14.5699 7.8347 13.3371C7.80201 12.728 8.07352 12.2055 8.43075 11.8294L9.47716 10.7278ZM11.506 11.5614C11.1644 11.0783 10.5508 11.0495 10.2022 11.4164L9.15581 12.5181C8.93489 12.7507 8.81897 13.0173 8.83326 13.2835C8.88729 14.29 9.32074 16.5849 11.9048 19.3055C14.6143 22.158 17.1104 22.2386 18.0671 22.1441C18.2563 22.1255 18.4509 22.0205 18.637 21.8247L19.584 20.8276C19.9925 20.3975 19.8854 19.6227 19.3382 19.3077L18.0645 18.5745C17.7227 18.3778 17.3223 18.4386 17.0654 18.7091L16.7617 19.0288L16.3992 18.6845C16.7617 19.0288 16.7613 19.0293 16.7608 19.0298L16.7598 19.0308L16.7579 19.0328L16.7536 19.0371L16.7441 19.0465C16.7372 19.0532 16.7293 19.0605 16.7204 19.0684C16.7024 19.0841 16.6802 19.102 16.6536 19.1209C16.6002 19.1588 16.529 19.2005 16.4391 19.2359C16.2551 19.3085 16.0121 19.3474 15.712 19.2987C15.1269 19.2037 14.3602 18.7835 13.3449 17.7146C12.3267 16.6426 11.937 15.8428 11.8499 15.2481C11.8055 14.9453 11.841 14.7029 11.9061 14.5199C11.9382 14.4299 11.976 14.3581 12.0109 14.3036C12.0283 14.2764 12.0448 14.2537 12.0595 14.2351C12.0668 14.2259 12.0737 14.2177 12.0799 14.2105L12.0888 14.2005L12.0929 14.1961L12.0948 14.194L12.0957 14.193C12.0962 14.1925 12.0967 14.192 12.4592 14.5364L12.0967 14.192L12.2879 13.9907C12.5849 13.678 12.628 13.1484 12.3466 12.7504L11.506 11.5614Z" fill="#157EFB"/>
</g>
<defs>
<clipPath id="clip0_2892_38170">
<rect width="16" height="16" fill="white" transform="translate(7 8)"/>
</clipPath>
</defs>
</svg>
