<svg width="18" height="19" viewBox="0 0 18 19" fill="none" xmlns="http://www.w3.org/2000/svg">
<path d="M9.05918 2.41602C5.46405 2.41602 2.50859 5.16327 2.22041 8.66599H1.50002C1.27211 8.66599 1.06672 8.80354 0.979913 9.01429C0.893108 9.22504 0.942045 9.46729 1.10384 9.62779L2.36369 10.8778C2.583 11.0954 2.93675 11.0954 3.15606 10.8778L4.41592 9.62779C4.57771 9.46729 4.62665 9.22504 4.53984 9.01429C4.45304 8.80354 4.24765 8.66599 4.01974 8.66599H3.3501C3.63489 5.79227 6.07859 3.54102 9.05918 3.54102C11.1363 3.54102 12.9545 4.63485 13.9617 6.27311C14.1244 6.53775 14.4708 6.6204 14.7355 6.45771C15.0002 6.29501 15.0828 5.94857 14.9201 5.68392C13.7153 3.72422 11.5405 2.41602 9.05918 2.41602Z" fill="white"/>
<path d="M15.6309 8.57847C15.4118 8.36187 15.0592 8.36187 14.8401 8.57847L13.5754 9.82849C13.4132 9.98884 13.3639 10.2312 13.4505 10.4423C13.5372 10.6533 13.7427 10.791 13.9709 10.791H14.6452C14.3592 13.6632 11.907 15.916 8.9121 15.916C6.82526 15.916 4.99946 14.8212 3.98853 13.1831C3.82538 12.9187 3.47881 12.8367 3.21443 12.9999C2.95007 13.163 2.86801 13.5096 3.03116 13.7739C4.24062 15.7338 6.42311 17.041 8.9121 17.041C12.518 17.041 15.4857 14.2954 15.7749 10.791H16.5002C16.7283 10.791 16.9338 10.6533 17.0205 10.4423C17.1072 10.2312 17.0579 9.98884 16.8956 9.82849L15.6309 8.57847Z" fill="white"/>
</svg>
