<svg width="16" height="16" viewBox="0 0 16 16" fill="none" xmlns="http://www.w3.org/2000/svg">
<g clip-path="url(#clip0_1951_47731)">
<path d="M14.386 8.99497L13.7619 8.48128C13.3345 8.1294 13.3353 7.47537 13.762 7.12419L14.386 6.6105C14.83 6.2449 14.9436 5.61801 14.656 5.11981L13.4239 2.98565C13.1362 2.48749 12.5364 2.27245 11.9979 2.47419L11.241 2.75775C10.7225 2.95193 10.1565 2.62442 10.0657 2.07921L9.93281 1.28192C9.83824 0.714561 9.35212 0.302734 8.7769 0.302734H6.3126C5.73735 0.302734 5.2512 0.714561 5.15666 1.28195L5.02377 2.07921C4.93274 2.62539 4.36597 2.95161 3.8485 2.75778L3.09161 2.47419C2.55305 2.27245 1.95328 2.48752 1.66561 2.98565L0.433476 5.11979C0.145869 5.61792 0.259423 6.24484 0.703535 6.61047L1.32753 7.12416C1.75503 7.47607 1.75418 8.13004 1.32753 8.48125L0.703505 8.99494C0.259423 9.36057 0.145839 9.98749 0.433447 10.4856L1.66561 12.6198C1.95325 13.1179 2.5529 13.333 3.09161 13.1313L3.84847 12.8477C4.36699 12.6534 4.93289 12.9812 5.02374 13.5262L5.15663 14.3235C5.2512 14.8909 5.73735 15.3027 6.31257 15.3027H8.77687C9.35209 15.3027 9.83824 14.8909 9.93278 14.3235L10.0656 13.5263C10.1566 12.9803 10.7234 12.6538 11.2409 12.8477L11.9979 13.1313C12.5365 13.333 13.1362 13.118 13.4239 12.6198L14.6561 10.4856C14.9436 9.98749 14.83 9.36057 14.386 8.99497ZM12.409 12.0339L11.6521 11.7503C10.4422 11.2971 9.12173 12.0617 8.90976 13.3336L8.7769 14.1309H6.3126L6.17971 13.3336C5.96733 12.0593 4.64496 11.2979 3.43737 11.7503L2.68049 12.0339L1.44835 9.89972L2.07234 9.38603C3.06987 8.56483 3.06779 7.03894 2.07234 6.21944L1.44835 5.70575L2.68052 3.57159L3.43737 3.85516C4.64733 4.30838 5.96774 3.54373 6.17971 2.27187L6.31257 1.47461H8.77687L8.90973 2.27187C9.12214 3.54634 10.4446 4.30744 11.6521 3.85516L12.409 3.57159L13.6414 5.70546C13.6414 5.70546 13.6413 5.70555 13.6411 5.70572L13.0171 6.21941C12.0196 7.04055 12.0216 8.56647 13.0171 9.386L13.6411 9.89969L12.409 12.0339ZM7.54473 4.9121C5.95084 4.9121 4.6541 6.20884 4.6541 7.80273C4.6541 9.39663 5.95084 10.6934 7.54473 10.6934C9.13863 10.6934 10.4354 9.39663 10.4354 7.80273C10.4354 6.20884 9.13863 4.9121 7.54473 4.9121ZM7.54473 9.52149C6.59701 9.52149 5.82597 8.75046 5.82597 7.80273C5.82597 6.85501 6.59701 6.08397 7.54473 6.08397C8.49246 6.08397 9.26349 6.85501 9.26349 7.80273C9.26349 8.75046 8.49246 9.52149 7.54473 9.52149Z" fill="#333333"/>
</g>
<defs>
<clipPath id="clip0_1951_47731">
<rect width="15" height="15" fill="white" transform="translate(0.0449219 0.302734)"/>
</clipPath>
</defs>
</svg>
