<svg width="19" height="20" viewBox="0 0 19 20" fill="none" xmlns="http://www.w3.org/2000/svg">
<path d="M17.4173 9.10026V13.0586C17.4173 15.8294 15.834 17.0169 13.459 17.0169H5.54232C3.16732 17.0169 1.58398 15.8294 1.58398 13.0586V7.51693C1.58398 4.74609 3.16732 3.55859 5.54232 3.55859H11.084" stroke="#DD1CFC" stroke-miterlimit="10" stroke-linecap="round" stroke-linejoin="round"/>
<path d="M5.54102 7.91309L8.01893 9.89225C8.83435 10.5414 10.1723 10.5414 10.9877 9.89225L11.9218 9.14809" stroke="#DD1CFC" stroke-miterlimit="10" stroke-linecap="round" stroke-linejoin="round"/>
<path d="M15.4382 7.12142C16.5312 7.12142 17.4173 6.23531 17.4173 5.14225C17.4173 4.04919 16.5312 3.16309 15.4382 3.16309C14.3451 3.16309 13.459 4.04919 13.459 5.14225C13.459 6.23531 14.3451 7.12142 15.4382 7.12142Z" stroke="#DD1CFC" stroke-miterlimit="10" stroke-linecap="round" stroke-linejoin="round"/>
</svg>
