<svg width="30" height="31" viewBox="0 0 30 31" fill="none" xmlns="http://www.w3.org/2000/svg">
<rect y="0.28125" width="30" height="30" rx="6" fill="#FFEFE6"/>
<path d="M21.6673 14.0658V16.0658C21.6673 18.7324 20.334 20.0658 17.6673 20.0658H17.334C17.1273 20.0658 16.9273 20.1658 16.8007 20.3324L15.8007 21.6658C15.3607 22.2524 14.6407 22.2524 14.2007 21.6658L13.2007 20.3324C13.094 20.1858 12.8473 20.0658 12.6673 20.0658H12.334C9.66732 20.0658 8.33398 19.3991 8.33398 16.0658V12.7324C8.33398 10.0658 9.66732 8.73242 12.334 8.73242H16.334" stroke="#FF5C00" stroke-miterlimit="10" stroke-linecap="round" stroke-linejoin="round"/>
<path d="M20.0007 12.0658C20.9211 12.0658 21.6673 11.3196 21.6673 10.3991C21.6673 9.47862 20.9211 8.73242 20.0007 8.73242C19.0802 8.73242 18.334 9.47862 18.334 10.3991C18.334 11.3196 19.0802 12.0658 20.0007 12.0658Z" stroke="#FF5C00" stroke-linecap="round" stroke-linejoin="round"/>
<path d="M17.6641 14.7324H17.6689" stroke="#FF5C00" stroke-linecap="round" stroke-linejoin="round"/>
<path d="M14.9961 14.7324H15.001" stroke="#FF5C00" stroke-linecap="round" stroke-linejoin="round"/>
<path d="M12.3301 14.7324H12.3349" stroke="#FF5C00" stroke-linecap="round" stroke-linejoin="round"/>
</svg>
