<svg width="18" height="18" viewBox="0 0 18 18" fill="none" xmlns="http://www.w3.org/2000/svg">
<g clip-path="url(#clip0_912_483290)">
<path d="M13.3828 2.94434L12.7246 3.60229C14.4578 4.80504 15.5952 6.80891 15.5952 9.07363C15.5952 11.3344 14.4618 13.3348 12.7342 14.5381L13.3924 15.1963C15.2823 13.8177 16.5135 11.5867 16.5135 9.07363C16.5135 6.55657 15.2783 4.32213 13.3828 2.94434Z" fill="#333333"/>
<path d="M14.5624 9.07374C14.5624 7.09324 13.5329 5.34862 11.9803 4.34668L11.3125 5.01446C12.7062 5.83205 13.6439 7.34505 13.6439 9.07374C13.6439 10.7984 12.711 12.3088 11.3237 13.1272L11.9904 13.7947C13.5374 12.7917 14.5624 11.0503 14.5624 9.07374Z" fill="#333333"/>
<path d="M12.6512 9.07389C12.6512 7.61667 11.8065 6.35256 10.5809 5.74561L9.88281 6.44473C10.9607 6.83228 11.7334 7.8645 11.7334 9.07389C11.7334 10.279 10.9668 11.3083 9.89556 11.6999L10.5926 12.3969C11.8118 11.7875 12.6512 10.5274 12.6512 9.07389Z" fill="#333333"/>
<path d="M10.5371 9.07422C10.5371 8.17348 9.7567 7.44381 8.79434 7.44381V1.47416C8.79434 1.27042 8.6177 1.10547 8.39989 1.10547C8.18261 1.10547 8.00597 1.27042 8.00597 1.47416V1.6593C7.7183 1.89278 3.34691 5.83705 3.34691 5.83705H1.51781C0.997719 5.83705 0.576172 6.23097 0.576172 6.71759V11.43C0.576172 11.9169 0.997719 12.3109 1.51781 12.3109H3.34717V12.3114C3.34717 12.3114 5.90541 14.2675 8.00623 16.483V16.6737C8.00623 16.8775 8.18288 17.043 8.40016 17.043C8.61797 17.043 8.79461 16.8775 8.79461 16.6737V10.7041C9.75697 10.7041 10.5371 9.97416 10.5371 9.07422Z" fill="#333333"/>
</g>
<defs>
<clipPath id="clip0_912_483290">
<rect width="17" height="17" fill="white" transform="translate(0.0449219 0.574219)"/>
</clipPath>
</defs>
</svg>
