<svg width="19" height="19" viewBox="0 0 19 19" fill="none" xmlns="http://www.w3.org/2000/svg">
<g clip-path="url(#clip0_1137_92227)">
<path d="M15.0147 9.90194V3.29165C15.0147 2.37621 14.2684 1.62988 13.3529 1.62988H2.16176C1.24632 1.62988 0.5 2.37621 0.5 3.29165V9.90194C0.5 10.8174 1.24632 11.5637 2.16176 11.5637H2.63603V13.5564C2.63603 13.924 2.93382 14.2218 3.30515 14.2218C3.49632 14.2218 3.68015 14.1372 3.80882 13.9902L5.90809 11.56H13.3566C14.2684 11.5637 15.0147 10.8174 15.0147 9.90194ZM5.69853 10.663C5.56618 10.663 5.44485 10.7181 5.35662 10.8174L3.53309 12.924V11.1115C3.53309 10.8615 3.33088 10.6593 3.08088 10.6593H2.16176C1.74265 10.6593 1.40074 10.3174 1.40074 9.89826V3.29165C1.40074 2.87253 1.74265 2.53062 2.16176 2.53062H13.3529C13.7721 2.53062 14.114 2.87253 14.114 3.29165V9.90194C14.114 10.3211 13.7721 10.663 13.3529 10.663H5.69853Z" fill="#D21E1E"/>
<path d="M15.194 16.7146C15.3227 16.8653 15.5065 16.9462 15.694 16.9462C15.7713 16.9462 15.8521 16.9315 15.9293 16.9021C16.194 16.8028 16.3632 16.5601 16.3632 16.2771V14.2844H16.8374C17.7529 14.2844 18.4992 13.5381 18.4992 12.6226V6.01235C18.4992 5.09691 17.7529 4.35059 16.8374 4.35059C16.5874 4.35059 16.3852 4.55279 16.3852 4.79912C16.3852 5.04912 16.5874 5.25132 16.8374 5.25132C17.2565 5.25132 17.5985 5.59323 17.5985 6.01235V12.6226C17.5985 13.0418 17.2565 13.3837 16.8374 13.3837H15.9146C15.6646 13.3837 15.4624 13.5859 15.4624 13.8359V15.6484L13.6389 13.5418C13.5543 13.4425 13.4293 13.3874 13.297 13.3874H6.53228C6.28228 13.3874 6.08008 13.5896 6.08008 13.8396C6.08008 14.0896 6.28228 14.2918 6.53228 14.2918H13.0911L15.194 16.7146Z" fill="#D21E1E"/>
<path d="M7.75747 7.2913C8.05391 7.2913 8.29423 7.05098 8.29423 6.75454C8.29423 6.45809 8.05391 6.21777 7.75747 6.21777C7.46102 6.21777 7.2207 6.45809 7.2207 6.75454C7.2207 7.05098 7.46102 7.2913 7.75747 7.2913Z" fill="#D21E1E"/>
<path d="M9.55434 7.2913C9.85079 7.2913 10.0911 7.05098 10.0911 6.75454C10.0911 6.45809 9.85079 6.21777 9.55434 6.21777C9.2579 6.21777 9.01758 6.45809 9.01758 6.75454C9.01758 7.05098 9.2579 7.2913 9.55434 7.2913Z" fill="#D21E1E"/>
<path d="M5.95864 7.2913C6.25509 7.2913 6.4954 7.05098 6.4954 6.75454C6.4954 6.45809 6.25509 6.21777 5.95864 6.21777C5.66219 6.21777 5.42188 6.45809 5.42188 6.75454C5.42188 7.05098 5.66219 7.2913 5.95864 7.2913Z" fill="#D21E1E"/>
</g>
<defs>
<clipPath id="clip0_1137_92227">
<rect width="18" height="18" fill="white" transform="translate(0.5 0.288086)"/>
</clipPath>
</defs>
</svg>
