<svg width="17" height="16" viewBox="0 0 17 16" fill="none" xmlns="http://www.w3.org/2000/svg">
<g clip-path="url(#clip0_1951_47740)">
<path d="M6.10031 6.89598C4.24783 6.89598 2.74031 5.47252 2.74031 3.72265C2.74031 1.97278 4.24783 0.549316 6.10031 0.549316C7.95279 0.549316 9.46031 1.97278 9.46031 3.72265C9.46031 5.47252 7.95279 6.89598 6.10031 6.89598ZM6.10031 1.45598C4.77695 1.45598 3.70031 2.47281 3.70031 3.72265C3.70031 4.97249 4.77695 5.98932 6.10031 5.98932C7.42367 5.98932 8.50031 4.97249 8.50031 3.72265C8.50031 2.47281 7.42367 1.45598 6.10031 1.45598ZM12.8203 7.80265C11.497 7.80265 10.4203 6.78582 10.4203 5.53598C10.4203 4.28614 11.497 3.26932 12.8203 3.26932C14.1437 3.26932 15.2203 4.28614 15.2203 5.53598C15.2203 6.78582 14.1437 7.80265 12.8203 7.80265ZM12.8203 4.17598C12.0262 4.17598 11.3803 4.78602 11.3803 5.53598C11.3803 6.28595 12.0262 6.89598 12.8203 6.89598C13.6144 6.89598 14.2603 6.28595 14.2603 5.53598C14.2603 4.78602 13.6144 4.17598 12.8203 4.17598ZM12.8203 9.16265C12.3522 9.16265 11.8742 9.25241 11.4301 9.41742C11.6357 9.66872 11.8168 9.92863 11.9664 10.1931C12.2432 10.1121 12.5346 10.0693 12.8203 10.0693C13.9744 10.0693 15.2203 10.7626 15.2203 11.8826C15.2203 13.1101 13.5418 13.2427 12.8203 13.2427C12.7147 13.2427 12.5874 13.239 12.4491 13.2304C12.3549 13.5432 12.2064 13.8332 12.0134 14.1019C12.2666 14.1324 12.5349 14.1493 12.8203 14.1493C14.924 14.1493 16.1803 13.302 16.1803 11.8826C16.1803 10.2026 14.4362 9.16265 12.8203 9.16265ZM6.10031 15.056C3.54799 15.056 0.820312 14.3414 0.820312 12.336C0.820312 10.6907 2.49839 8.25598 6.10031 8.25598C9.70223 8.25598 11.3803 10.6907 11.3803 12.336C11.3803 14.3414 8.65263 15.056 6.10031 15.056ZM6.10031 9.16265C2.86831 9.16265 1.78031 11.3418 1.78031 12.336C1.78031 14.0984 5.65823 14.1493 6.10031 14.1493C6.54239 14.1493 10.4203 14.0984 10.4203 12.336C10.4203 11.3418 9.33231 9.16265 6.10031 9.16265Z" fill="#333333"/>
</g>
<defs>
<clipPath id="clip0_1951_47740">
<rect width="16" height="15.1111" fill="white" transform="translate(0.5 0.24707)"/>
</clipPath>
</defs>
</svg>
