<svg width="30" height="31" viewBox="0 0 30 31" fill="none" xmlns="http://www.w3.org/2000/svg">
<rect y="0.611328" width="30" height="30" rx="6" fill="#E6F1FF"/>
<path fill-rule="evenodd" clip-rule="evenodd" d="M18.332 9.56152C16.7672 9.56152 15.4987 10.8301 15.4987 12.3949C15.4987 12.849 15.6052 13.2768 15.7941 13.6561C15.9001 13.8689 15.944 14.1297 15.8741 14.391L15.7054 15.0215L16.336 14.8528C16.5972 14.7829 16.858 14.8268 17.0708 14.9328C17.4501 15.1217 17.8779 15.2282 18.332 15.2282C19.8968 15.2282 21.1654 13.9597 21.1654 12.3949C21.1654 10.8301 19.8968 9.56152 18.332 9.56152ZM14.4987 12.3949C14.4987 10.2778 16.215 8.56152 18.332 8.56152C20.4492 8.56152 22.1654 10.2778 22.1654 12.3949C22.1654 14.5119 20.4492 16.2282 18.332 16.2282C17.7198 16.2282 17.1396 16.0843 16.625 15.8279C16.6134 15.8222 16.6042 15.8199 16.5986 15.8193C16.596 15.8189 16.5944 15.819 16.5938 15.819L15.8524 16.0174C15.1586 16.203 14.5239 15.5683 14.7096 14.8745L14.9079 14.1332C14.908 14.1325 14.908 14.131 14.9076 14.1283C14.907 14.1227 14.9047 14.1135 14.899 14.1019C14.6426 13.5873 14.4987 13.0072 14.4987 12.3949ZM9.47716 10.4563C10.2946 9.59565 11.6468 9.75689 12.3225 10.7126L13.1631 11.9016C13.7036 12.666 13.658 13.7288 13.0129 14.4079L12.8497 14.5798C12.8492 14.581 12.8488 14.5823 12.8483 14.5837C12.8396 14.6079 12.8178 14.6851 12.8393 14.8316C12.8838 15.1353 13.1182 15.7524 14.07 16.7545C15.0248 17.7597 15.6039 17.9965 15.8722 18.0401C15.988 18.0589 16.0486 18.0426 16.0679 18.0358L16.3403 17.749C16.9228 17.1357 17.831 17.0149 18.5634 17.4364L19.837 18.1695C20.9256 18.7961 21.179 20.3289 20.309 21.2448L19.362 22.2419C19.0664 22.5531 18.6634 22.8187 18.1654 22.8679C16.9494 22.9879 14.1327 22.8315 11.1798 19.7227C8.42432 16.8217 7.90087 14.2984 7.8347 13.0656C7.80201 12.4565 8.07352 11.934 8.43075 11.5579L9.47716 10.4563ZM11.506 11.2899C11.1644 10.8068 10.5508 10.778 10.2022 11.145L9.15581 12.2466C8.93489 12.4792 8.81897 12.7458 8.83326 13.012C8.88729 14.0186 9.32074 16.3134 11.9048 19.034C14.6143 21.8865 17.1104 21.9671 18.0671 21.8727C18.2563 21.854 18.4509 21.7491 18.637 21.5532L19.584 20.5561C19.9925 20.1261 19.8854 19.3512 19.3382 19.0362L18.0645 18.3031C17.7227 18.1063 17.3223 18.1671 17.0654 18.4377L16.7617 18.7573L16.3992 18.413C16.7617 18.7573 16.7613 18.7578 16.7608 18.7583L16.7598 18.7593L16.7579 18.7613L16.7536 18.7657L16.7441 18.7751C16.7372 18.7817 16.7293 18.7891 16.7204 18.7969C16.7024 18.8126 16.6802 18.8305 16.6536 18.8495C16.6002 18.8873 16.529 18.929 16.4391 18.9645C16.2551 19.037 16.0121 19.0759 15.712 19.0272C15.1269 18.9322 14.3602 18.512 13.3449 17.4431C12.3267 16.3711 11.937 15.5713 11.8499 14.9766C11.8055 14.6739 11.841 14.4315 11.9061 14.2484C11.9382 14.1584 11.976 14.0866 12.0109 14.0321C12.0283 14.0049 12.0448 13.9822 12.0595 13.9637C12.0668 13.9544 12.0737 13.9462 12.0799 13.939L12.0888 13.929L12.0929 13.9246L12.0948 13.9225L12.0957 13.9215C12.0962 13.9211 12.0967 13.9206 12.4592 14.2649L12.0967 13.9206L12.2879 13.7193C12.5849 13.4065 12.628 12.877 12.3466 12.4789L11.506 11.2899Z" fill="#157EFB"/>
</svg>
