<svg width="19" height="19" viewBox="0 0 19 19" fill="none" xmlns="http://www.w3.org/2000/svg">
<g clip-path="url(#clip0_1137_92244)">
<path d="M11.9035 14.4286C11.5717 14.4286 11.2155 14.3887 10.8386 14.3079C9.57205 14.0365 8.18942 13.3273 6.94522 12.311C5.70115 11.2944 4.73161 10.0821 4.21553 8.89709C3.64932 7.59741 3.68365 6.46019 4.31193 5.69499C4.33019 5.67302 4.33019 5.67302 5.40425 4.58167L5.83367 4.14551L8.20507 7.29048L7.36791 8.31001C7.77578 8.87389 8.25781 9.47525 8.8659 9.97211C9.47399 10.469 10.1602 10.8218 10.7948 11.1096L11.6382 10.0827L15.1423 11.8543L14.8072 12.3484C13.985 13.5612 13.985 13.5612 13.9664 13.5836C13.509 14.1406 12.7947 14.4286 11.9035 14.4286ZM5.11503 6.37766C4.76841 6.81779 4.79244 7.58176 5.18273 8.47797C5.63345 9.51247 6.4967 10.5847 7.6136 11.4971C8.73049 12.4096 9.95451 13.0425 11.0601 13.2794C12.0173 13.4846 12.7726 13.3578 13.1379 12.9321C13.1901 12.8553 13.3875 12.5645 13.5985 12.2533L11.9172 11.4031L11.103 12.3945L10.737 12.2352C9.94393 11.8898 9.02836 11.4645 8.19766 10.7859C7.36695 10.1072 6.76861 9.29562 6.27299 8.58824L6.04434 8.26167L6.8646 7.26274L5.72766 5.75487C5.44641 6.04065 5.18205 6.30927 5.11503 6.37766Z" fill="#1FAE50"/>
<path d="M0.51181 18.2881L2.18077 14.4889C1.08008 12.9599 0.5 11.1604 0.5 9.26474C0.5 6.86697 1.43617 4.61272 3.13603 2.91725C4.83589 1.22179 7.09605 0.288086 9.5 0.288086C11.9039 0.288086 14.1641 1.22179 15.864 2.91725C17.5638 4.61272 18.5 6.86697 18.5 9.26474C18.5 11.6625 17.5638 13.9168 15.864 15.6122C14.1641 17.3077 11.9039 18.2414 9.5 18.2414C7.7838 18.2414 6.125 17.7613 4.68552 16.8503L0.51181 18.2881ZM4.83521 15.6858L5.05356 15.8333C6.36835 16.7205 7.90588 17.1896 9.5 17.1896C11.6223 17.1896 13.6175 16.3652 15.1183 14.8685C16.6189 13.3716 17.4453 11.3815 17.4453 9.26474C17.4453 7.14809 16.6189 5.15791 15.1181 3.66116C13.6175 2.16441 11.6223 1.34003 9.5 1.34003C7.37772 1.34003 5.38246 2.16441 3.88187 3.66116C2.38113 5.15791 1.55469 7.14795 1.55469 9.26474C1.55469 11.0312 2.12515 12.7029 3.20442 14.0989L3.39517 14.3456L2.44472 16.5093L4.83521 15.6858Z" fill="#1FAE50"/>
</g>
<defs>
<clipPath id="clip0_1137_92244">
<rect width="18" height="18" fill="white" transform="translate(0.5 0.288086)"/>
</clipPath>
</defs>
</svg>
