<svg width="16" height="16" viewBox="0 0 16 16" fill="none" xmlns="http://www.w3.org/2000/svg">
<g clip-path="url(#clip0_1951_47720)">
<path d="M2.74538 12.9326C2.89538 12.9326 2.92538 12.9176 3.06038 12.8876L5.76038 12.3476C6.04538 12.2726 6.33038 12.1376 6.55538 11.9126L13.0954 5.37258C14.1004 4.36758 14.1004 2.64258 13.0954 1.63758L12.5404 1.05258C11.5354 0.0475781 9.79538 0.0475781 8.79038 1.05258L2.25038 7.60758C2.04038 7.81758 1.89038 8.11758 1.81538 8.40258L1.24538 11.1326C1.17038 11.6426 1.32038 12.1376 1.68038 12.4976C1.96538 12.7826 2.38538 12.9326 2.74538 12.9326ZM3.25538 8.68758L9.79538 2.13258C10.2304 1.69758 11.0254 1.69758 11.4454 2.13258L12.0154 2.70258C12.5254 3.21258 12.5254 3.93258 12.0154 4.42758L5.49038 10.9826L2.71538 11.4476L3.25538 8.68758Z" fill="#333333"/>
<path d="M13.0361 13.8628H1.96609C1.53109 13.8628 1.24609 14.1478 1.24609 14.5828C1.24609 15.0178 1.60609 15.3028 1.96609 15.3028H12.9761C13.4111 15.3028 13.7711 15.0178 13.7711 14.5828C13.7561 14.1478 13.3961 13.8628 13.0361 13.8628Z" fill="#333333"/>
</g>
<defs>
<clipPath id="clip0_1951_47720">
<rect width="15" height="15" fill="white" transform="translate(0.0449219 0.302734)"/>
</clipPath>
</defs>
</svg>
