<svg width="19" height="19" viewBox="0 0 19 19" fill="none" xmlns="http://www.w3.org/2000/svg">
<path d="M13.5 5.75V13.25C13.5 13.715 13.485 14.1275 13.4325 14.495C13.215 16.4675 12.285 17 9.75 17H8.25C5.715 17 4.785 16.4675 4.5675 14.495C4.515 14.1275 4.5 13.715 4.5 13.25V5.75C4.5 5.285 4.515 4.8725 4.5675 4.505C4.785 2.5325 5.715 2 8.25 2H9.75C12.285 2 13.215 2.5325 13.4325 4.505C13.485 4.8725 13.5 5.285 13.5 5.75Z" stroke="#000000" stroke-linecap="round" stroke-linejoin="round"/>
<path opacity="0.4" d="M4.5 13.2506C4.5 13.7156 4.515 14.1281 4.5675 14.4956C4.4625 14.5031 4.365 14.5031 4.2525 14.5031H3.9975C2.0025 14.5031 1.5 14.0006 1.5 11.9981V7.00305C1.5 5.00055 2.0025 4.49805 3.9975 4.49805H4.2525C4.365 4.49805 4.4625 4.49805 4.5675 4.50555C4.515 4.87305 4.5 5.28555 4.5 5.75055V13.2506Z" stroke="#000000" stroke-linecap="round" stroke-linejoin="round"/>
<path opacity="0.4" d="M16.5011 7.00305V11.9981C16.5011 14.0006 15.9986 14.5031 14.0036 14.5031H13.7486C13.6361 14.5031 13.5386 14.5031 13.4336 14.4956C13.4861 14.1281 13.5011 13.7156 13.5011 13.2506V5.75055C13.5011 5.28555 13.4861 4.87305 13.4336 4.50555C13.5386 4.49805 13.6361 4.49805 13.7486 4.49805H14.0036C15.9986 4.49805 16.5011 5.00055 16.5011 7.00305Z" stroke="#000000" stroke-linecap="round" stroke-linejoin="round"/>
</svg>
