<svg width="48" height="47" viewBox="0 0 48 47" fill="none" xmlns="http://www.w3.org/2000/svg">
<path d="M13.4513 30.2103C13.5463 30.2652 13.654 30.294 13.7638 30.294C13.8735 30.294 13.9812 30.2652 14.0763 30.2103L26.5487 23.0094C26.6437 22.9545 26.7225 22.8756 26.7774 22.7806C26.8322 22.6856 26.8611 22.5779 26.8611 22.4682C26.8611 22.3585 26.8322 22.2507 26.7774 22.1557C26.7225 22.0607 26.6437 21.9818 26.5487 21.927L14.0763 14.726C13.9812 14.6712 13.8735 14.6423 13.7638 14.6423C13.6541 14.6423 13.5463 14.6711 13.4513 14.726C13.3563 14.7808 13.2774 14.8597 13.2225 14.9547C13.1677 15.0497 13.1388 15.1575 13.1388 15.2672V29.6691C13.1388 29.7788 13.1676 29.8865 13.2225 29.9816C13.2773 30.0766 13.3562 30.1555 13.4513 30.2103ZM14.3888 16.3498L24.9862 22.4681L14.3888 28.5866V16.3498ZM3.35938 37.7214H36.6406C37.5313 37.7204 38.3852 37.3661 39.0149 36.7363C39.6447 36.1066 39.999 35.2527 40 34.362V10.5742C39.999 9.68357 39.6447 8.82969 39.0149 8.1999C38.3852 7.57012 37.5313 7.21586 36.6406 7.21484H3.35938C2.46872 7.21586 1.61484 7.57012 0.985057 8.1999C0.355272 8.82969 0.0010132 9.68357 0 10.5742L0 34.362C0.0010132 35.2527 0.355272 36.1066 0.985057 36.7363C1.61484 37.3661 2.46872 37.7204 3.35938 37.7214ZM0.625 44.7773H8.93695C9.07659 45.3504 9.40463 45.86 9.86847 46.2244C10.3323 46.5888 10.9051 46.7869 11.4949 46.7869C12.0848 46.7869 12.6575 46.5888 13.1214 46.2244C13.5852 45.86 13.9132 45.3504 14.0529 44.7773H39.375C39.5408 44.7773 39.6997 44.7115 39.8169 44.5943C39.9342 44.4771 40 44.3181 40 44.1523C40 43.9866 39.9342 43.8276 39.8169 43.7104C39.6997 43.5932 39.5408 43.5273 39.375 43.5273H14.053C13.9134 42.9542 13.5853 42.4446 13.1215 42.0802C12.6576 41.7158 12.0848 41.5177 11.495 41.5177C10.9051 41.5177 10.3323 41.7158 9.86845 42.0802C9.4046 42.4446 9.07656 42.9542 8.93695 43.5273H0.625C0.45924 43.5273 0.300269 43.5932 0.183058 43.7104C0.065848 43.8276 0 43.9866 0 44.1523C0 44.3181 0.065848 44.4771 0.183058 44.5943C0.300269 44.7115 0.45924 44.7773 0.625 44.7773ZM11.4949 42.7687C11.7686 42.7687 12.0361 42.8499 12.2636 43.0019C12.4912 43.1539 12.6685 43.37 12.7733 43.6228C12.878 43.8757 12.9054 44.1539 12.852 44.4222C12.7986 44.6906 12.6669 44.9372 12.4733 45.1307C12.2798 45.3242 12.0333 45.456 11.7649 45.5094C11.4965 45.5627 11.2183 45.5353 10.9655 45.4306C10.7127 45.3259 10.4966 45.1485 10.3446 44.921C10.1925 44.6934 10.1114 44.4259 10.1114 44.1523C10.1118 43.7854 10.2577 43.4337 10.517 43.1743C10.7764 42.9149 11.1281 42.7692 11.4949 42.7687Z" fill="white"/>
<circle cx="36" cy="11" r="11" fill="white"/>
<circle cx="38" cy="10" r="10" fill="#F9D5FF"/>
<path d="M13.4513 30.2103C13.5463 30.2652 13.654 30.294 13.7638 30.294C13.8735 30.294 13.9812 30.2652 14.0763 30.2103L26.5487 23.0094C26.6437 22.9545 26.7225 22.8756 26.7774 22.7806C26.8322 22.6856 26.8611 22.5779 26.8611 22.4682C26.8611 22.3585 26.8322 22.2507 26.7774 22.1557C26.7225 22.0607 26.6437 21.9818 26.5487 21.927L14.0763 14.726C13.9812 14.6712 13.8735 14.6423 13.7638 14.6423C13.6541 14.6423 13.5463 14.6711 13.4513 14.726C13.3563 14.7808 13.2774 14.8597 13.2225 14.9547C13.1677 15.0497 13.1388 15.1575 13.1388 15.2672V29.6691C13.1388 29.7788 13.1676 29.8865 13.2225 29.9816C13.2773 30.0766 13.3562 30.1555 13.4513 30.2103ZM14.3888 16.3498L24.9862 22.4681L14.3888 28.5866V16.3498ZM3.35938 37.7214H36.6406C37.5313 37.7204 38.3852 37.3661 39.0149 36.7363C39.6447 36.1066 39.999 35.2527 40 34.362V10.5742C39.999 9.68357 39.6447 8.82969 39.0149 8.1999C38.3852 7.57012 37.5313 7.21586 36.6406 7.21484H3.35938C2.46872 7.21586 1.61484 7.57012 0.985057 8.1999C0.355272 8.82969 0.0010132 9.68357 0 10.5742L0 34.362C0.0010132 35.2527 0.355272 36.1066 0.985057 36.7363C1.61484 37.3661 2.46872 37.7204 3.35938 37.7214ZM1.25 10.5742C1.25062 10.015 1.47306 9.4788 1.86851 9.08335C2.26396 8.6879 2.80012 8.46546 3.35938 8.46484H36.6406C37.1999 8.46546 37.736 8.6879 38.1315 9.08335C38.5269 9.4788 38.7494 10.015 38.75 10.5742V34.362C38.7494 34.9213 38.5269 35.4574 38.1315 35.8529C37.736 36.2484 37.1999 36.4708 36.6406 36.4714H3.35938C2.80012 36.4708 2.26396 36.2484 1.86851 35.8529C1.47306 35.4574 1.25062 34.9213 1.25 34.362V10.5742ZM0.625 44.7773H8.93695C9.07659 45.3504 9.40463 45.86 9.86847 46.2244C10.3323 46.5888 10.9051 46.7869 11.4949 46.7869C12.0848 46.7869 12.6575 46.5888 13.1214 46.2244C13.5852 45.86 13.9132 45.3504 14.0529 44.7773H39.375C39.5408 44.7773 39.6997 44.7115 39.8169 44.5943C39.9342 44.4771 40 44.3181 40 44.1523C40 43.9866 39.9342 43.8276 39.8169 43.7104C39.6997 43.5932 39.5408 43.5273 39.375 43.5273H14.053C13.9134 42.9542 13.5853 42.4446 13.1215 42.0802C12.6576 41.7158 12.0848 41.5177 11.495 41.5177C10.9051 41.5177 10.3323 41.7158 9.86845 42.0802C9.4046 42.4446 9.07656 42.9542 8.93695 43.5273H0.625C0.45924 43.5273 0.300269 43.5932 0.183058 43.7104C0.065848 43.8276 0 43.9866 0 44.1523C0 44.3181 0.065848 44.4771 0.183058 44.5943C0.300269 44.7115 0.45924 44.7773 0.625 44.7773ZM11.4949 42.7687C11.7686 42.7687 12.0361 42.8499 12.2636 43.0019C12.4912 43.1539 12.6685 43.37 12.7733 43.6228C12.878 43.8757 12.9054 44.1539 12.852 44.4222C12.7986 44.6906 12.6669 44.9372 12.4733 45.1307C12.2798 45.3242 12.0333 45.456 11.7649 45.5094C11.4965 45.5627 11.2183 45.5353 10.9655 45.4306C10.7127 45.3259 10.4966 45.1485 10.3446 44.921C10.1925 44.6934 10.1114 44.4259 10.1114 44.1523C10.1118 43.7854 10.2577 43.4337 10.517 43.1743C10.7764 42.9149 11.1281 42.7692 11.4949 42.7687Z" fill="url(#paint0_linear_143_97313)"/>
<defs>
<linearGradient id="paint0_linear_143_97313" x1="20" y1="7.21484" x2="20" y2="46.7869" gradientUnits="userSpaceOnUse">
<stop stop-color="#0033EA"/>
<stop offset="1" stop-color="#8A0074"/>
</linearGradient>
</defs>
</svg>
