<svg width="45" height="45" viewBox="0 0 45 45" fill="none" xmlns="http://www.w3.org/2000/svg">
<g clip-path="url(#clip0_139_84040)">
<circle opacity="0.2" cx="34.5" cy="10" r="8" fill="url(#paint0_linear_139_84040)"/>
<path d="M30.1141 13.2786H22.8305V10.992C24.5168 10.653 25.7916 9.16166 25.7916 7.37695C25.7916 5.34318 24.1365 3.68848 22.1032 3.68848C20.0694 3.68848 18.4147 5.34318 18.4147 7.37695C18.4147 9.15448 19.6789 10.642 21.3552 10.989V13.2786H14.1517C8.39994 13.2786 3.72034 17.9586 3.72034 23.7104V44.2625C3.72034 44.6702 4.05001 44.9999 4.45778 44.9999H39.8081C40.2158 44.9999 40.5455 44.6702 40.5455 44.2625V23.7104C40.5455 17.9586 35.8659 13.2786 30.1141 13.2786ZM19.89 7.37695C19.89 6.1566 20.8828 5.16378 22.1032 5.16378C23.3235 5.16378 24.3163 6.1566 24.3163 7.37695C24.3163 8.59729 23.3235 9.59011 22.1032 9.59011C20.8828 9.59011 19.89 8.59729 19.89 7.37695ZM39.0702 43.5246H5.19564V23.7104C5.19564 18.772 9.21336 14.7543 14.1517 14.7543H21.9001C21.963 14.7716 22.0246 14.7931 22.093 14.7931C22.1614 14.7931 22.223 14.7716 22.2859 14.7543H30.1141C35.0525 14.7543 39.0702 18.772 39.0702 23.7104V43.5246Z" fill="url(#paint1_linear_139_84040)"/>
<path d="M25.8613 39.7762H17.9757C17.568 39.7762 17.2383 40.1063 17.2383 40.5141C17.2383 40.9219 17.568 41.252 17.9757 41.252H25.8613C26.2691 41.252 26.5992 40.9219 26.5992 40.5141C26.5992 40.1063 26.2691 39.7762 25.8613 39.7762Z" fill="url(#paint2_linear_139_84040)"/>
<path d="M15.3819 26.2705C15.0936 25.9826 14.6267 25.9826 14.3388 26.2705L12.5132 28.0961L10.6879 26.2705C10.3996 25.9826 9.93276 25.9826 9.64445 26.2705C9.35657 26.5588 9.35657 27.0256 9.64445 27.3135L11.4697 29.1392L9.64445 30.9649C9.35615 31.2527 9.35615 31.7196 9.64445 32.0079C9.78839 32.1519 9.9775 32.224 10.1662 32.224C10.3545 32.224 10.5436 32.1519 10.6875 32.0079L12.5132 30.1822L14.3384 32.0079C14.4823 32.1519 14.6715 32.224 14.8601 32.224C15.0488 32.224 15.2375 32.1519 15.3815 32.0079C15.6698 31.7196 15.6698 31.2527 15.3815 30.9649L13.5562 29.1392L15.3815 27.314C15.6698 27.0256 15.6698 26.5588 15.3819 26.2705Z" fill="url(#paint3_linear_139_84040)"/>
<path d="M33.8241 26.2705C33.5363 25.9826 33.0694 25.9826 32.7811 26.2705L30.9558 28.0961L29.1302 26.2705C28.8423 25.9826 28.375 25.9826 28.0871 26.2705C27.7992 26.5588 27.7992 27.0256 28.0871 27.3135L29.9128 29.1392L28.0871 30.9644C27.7992 31.2527 27.7992 31.7196 28.0871 32.0075C28.2311 32.1519 28.4202 32.224 28.6089 32.224C28.7976 32.224 28.9862 32.1519 29.1302 32.0075L30.9558 30.1822L32.7811 32.0075C32.925 32.1519 33.1141 32.224 33.3028 32.224C33.4915 32.224 33.6802 32.1519 33.8241 32.0075C34.1124 31.7196 34.1124 31.2527 33.8241 30.9644L31.9985 29.1392L33.8241 27.314C34.1124 27.0256 34.1124 26.5588 33.8241 26.2705Z" fill="url(#paint4_linear_139_84040)"/>
<path d="M32.4307 7.37691H33.8465L31.8545 9.86699C31.6772 10.0886 31.6434 10.3921 31.7659 10.6475C31.8891 10.9029 32.147 11.0654 32.4307 11.0654H35.3817C35.7895 11.0654 36.1196 10.7357 36.1196 10.3279C36.1196 9.92018 35.7895 9.59008 35.3817 9.59008H33.9659L35.9579 7.10043C36.1352 6.87839 36.1694 6.57531 36.0466 6.31951C35.9233 6.06455 35.6654 5.90161 35.3817 5.90161H32.4307C32.0229 5.90161 31.6933 6.23171 31.6933 6.63947C31.6933 7.04724 32.0229 7.37691 32.4307 7.37691Z" fill="url(#paint5_linear_139_84040)"/>
<path d="M40.5455 3.68847H39.1302L41.1221 1.19882C41.2994 0.976781 41.3332 0.673701 41.2104 0.417897C41.0875 0.162938 40.8296 0 40.5455 0H37.5949C37.1872 0 36.8571 0.330096 36.8571 0.737863C36.8571 1.14563 37.1872 1.4753 37.5949 1.4753H39.0107L37.0187 3.96496C36.8414 4.18699 36.8072 4.49049 36.9301 4.74587C37.0529 5.00126 37.3108 5.16377 37.5949 5.16377H40.5455C40.9533 5.16377 41.2834 4.8341 41.2834 4.42633C41.2834 4.01856 40.9533 3.68847 40.5455 3.68847Z" fill="url(#paint6_linear_139_84040)"/>
</g>
<defs>
<linearGradient id="paint0_linear_139_84040" x1="34.5" y1="2" x2="34.5" y2="18" gradientUnits="userSpaceOnUse">
<stop stop-color="#EC78FF"/>
<stop offset="1" stop-color="#B032FE"/>
</linearGradient>
<linearGradient id="paint1_linear_139_84040" x1="22.1329" y1="3.68848" x2="22.1329" y2="44.9999" gradientUnits="userSpaceOnUse">
<stop stop-color="#000AFF"/>
<stop offset="1" stop-color="#D274FF"/>
</linearGradient>
<linearGradient id="paint2_linear_139_84040" x1="21.9187" y1="39.7762" x2="21.9187" y2="41.252" gradientUnits="userSpaceOnUse">
<stop stop-color="#000AFF"/>
<stop offset="1" stop-color="#D274FF"/>
</linearGradient>
<linearGradient id="paint3_linear_139_84040" x1="12.513" y1="26.0546" x2="12.513" y2="32.224" gradientUnits="userSpaceOnUse">
<stop stop-color="#000AFF"/>
<stop offset="1" stop-color="#D274FF"/>
</linearGradient>
<linearGradient id="paint4_linear_139_84040" x1="30.9558" y1="26.0546" x2="30.9558" y2="32.224" gradientUnits="userSpaceOnUse">
<stop stop-color="#000AFF"/>
<stop offset="1" stop-color="#D274FF"/>
</linearGradient>
<linearGradient id="paint5_linear_139_84040" x1="33.9063" y1="5.90161" x2="33.9063" y2="11.0654" gradientUnits="userSpaceOnUse">
<stop stop-color="#000AFF"/>
<stop offset="1" stop-color="#D274FF"/>
</linearGradient>
<linearGradient id="paint6_linear_139_84040" x1="39.0702" y1="0" x2="39.0702" y2="5.16377" gradientUnits="userSpaceOnUse">
<stop stop-color="#000AFF"/>
<stop offset="1" stop-color="#D274FF"/>
</linearGradient>
<clipPath id="clip0_139_84040">
<rect width="45" height="45" fill="white"/>
</clipPath>
</defs>
</svg>
