<svg width="20" height="20" viewBox="0 0 20 20" fill="none" xmlns="http://www.w3.org/2000/svg">
<path d="M11.4428 18.1413L11.8945 17.3781L10.8188 16.7413L10.367 17.5046L11.4428 18.1413ZM8.10417 17.3781L8.55593 18.1413L9.6316 17.5046L9.17985 16.7413L8.10417 17.3781ZM10.367 17.5046C10.2064 17.7759 9.79226 17.7759 9.6316 17.5046L8.55593 18.1413C9.2006 19.2304 10.7981 19.2304 11.4428 18.1413L10.367 17.5046ZM8.74935 2.2915H11.2493V1.0415H8.74935V2.2915ZM17.7077 8.74984V9.58317H18.9577V8.74984H17.7077ZM2.29102 9.58317V8.74984H1.04102V9.58317H2.29102ZM1.04102 9.58317C1.04102 10.5453 1.04067 11.2983 1.08211 11.9055C1.12393 12.5184 1.21037 13.0285 1.40576 13.5002L2.56061 13.0218C2.43882 12.7278 2.36669 12.3697 2.32922 11.8204C2.29136 11.2656 2.29102 10.5624 2.29102 9.58317H1.04102ZM6.50143 15.2012C5.45523 15.1831 4.90704 15.1166 4.47734 14.9386L3.99899 16.0934C4.6698 16.3713 5.43383 16.4329 6.4799 16.4509L6.50143 15.2012ZM1.40576 13.5002C1.89208 14.6743 2.8249 15.6071 3.99899 16.0934L4.47734 14.9386C3.60953 14.5791 2.92007 13.8897 2.56061 13.0218L1.40576 13.5002ZM17.7077 9.58317C17.7077 10.5624 17.7073 11.2656 17.6695 11.8204C17.632 12.3697 17.5598 12.7278 17.4381 13.0218L18.5929 13.5002C18.7883 13.0285 18.8748 12.5184 18.9166 11.9055C18.958 11.2983 18.9577 10.5453 18.9577 9.58317H17.7077ZM13.5188 16.4509C14.5648 16.4329 15.3289 16.3713 15.9997 16.0934L15.5213 14.9386C15.0917 15.1166 14.5434 15.1831 13.4973 15.2012L13.5188 16.4509ZM17.4381 13.0218C17.0786 13.8897 16.3892 14.5791 15.5213 14.9386L15.9997 16.0934C17.1738 15.6071 18.1066 14.6743 18.5929 13.5002L17.4381 13.0218ZM11.2493 2.2915C12.6253 2.2915 13.6135 2.29216 14.3843 2.36545C15.1458 2.43785 15.6303 2.5767 16.0165 2.8134L16.6697 1.7476C16.0539 1.37031 15.3555 1.20216 14.5026 1.12106C13.6589 1.04085 12.6012 1.0415 11.2493 1.0415V2.2915ZM18.9577 8.74984C18.9577 7.39801 18.9583 6.34025 18.8781 5.49659C18.797 4.64364 18.6288 3.94521 18.2516 3.32953L17.1858 3.98265C17.4225 4.36893 17.5613 4.85345 17.6338 5.61491C17.707 6.38567 17.7077 7.3738 17.7077 8.74984H18.9577ZM16.0165 2.8134C16.4931 3.10544 16.8938 3.5061 17.1858 3.98265L18.2516 3.32953C17.8565 2.68479 17.3144 2.1427 16.6697 1.7476L16.0165 2.8134ZM8.74935 1.0415C7.39752 1.0415 6.33976 1.04085 5.49611 1.12106C4.64315 1.20216 3.94472 1.37031 3.32904 1.7476L3.98217 2.8134C4.36844 2.5767 4.85297 2.43785 5.61442 2.36545C6.38518 2.29216 7.37331 2.2915 8.74935 2.2915V1.0415ZM2.29102 8.74984C2.29102 7.3738 2.29167 6.38567 2.36496 5.61491C2.43736 4.85345 2.57621 4.36893 2.81292 3.98265L1.74712 3.32953C1.36982 3.94521 1.20167 4.64364 1.12057 5.49659C1.04036 6.34025 1.04102 7.39801 1.04102 8.74984H2.29102ZM3.32904 1.7476C2.6843 2.1427 2.14222 2.68479 1.74712 3.32953L2.81292 3.98265C3.10495 3.5061 3.50562 3.10544 3.98217 2.8134L3.32904 1.7476ZM9.17985 16.7413C9.01068 16.4555 8.86218 16.2033 8.71776 16.0051C8.5656 15.7964 8.39118 15.6085 8.14923 15.4678L7.52078 16.5483C7.56029 16.5713 7.61411 16.6132 7.70756 16.7413C7.8087 16.8802 7.92297 17.0719 8.10417 17.3781L9.17985 16.7413ZM6.4799 16.4509C6.84581 16.4573 7.07757 16.4619 7.25425 16.4814C7.41934 16.4998 7.48333 16.5265 7.52078 16.5483L8.14923 15.4678C7.90526 15.3258 7.6514 15.2678 7.39182 15.239C7.14384 15.2116 6.84414 15.2071 6.50143 15.2012L6.4799 16.4509ZM11.8945 17.3781C12.0757 17.0719 12.1899 16.8802 12.2911 16.7413C12.3845 16.6132 12.4383 16.5713 12.4778 16.5483L11.8494 15.4678C11.6075 15.6085 11.433 15.7964 11.2809 16.0051C11.1365 16.2033 10.988 16.4555 10.8188 16.7413L11.8945 17.3781ZM13.4973 15.2012C13.1545 15.2071 12.8548 15.2116 12.6068 15.239C12.3473 15.2678 12.0934 15.3258 11.8494 15.4678L12.4778 16.5483C12.5153 16.5265 12.5793 16.4998 12.7444 16.4814C12.9211 16.4619 13.1528 16.4573 13.5188 16.4509L13.4973 15.2012Z" fill="#6174A4"/>
<path opacity="0.5" d="M6.66602 9.1665H6.67352M9.99185 9.1665H9.99935M13.3252 9.1665H13.3327" stroke="#6174A4" stroke-width="2" stroke-linecap="round" stroke-linejoin="round"/>
</svg>
