<svg width="23" height="23" viewBox="0 0 23 23" fill="none" xmlns="http://www.w3.org/2000/svg">
<rect width="23" height="23" rx="11.5" fill="#8190B7"/>
<path d="M14.6806 12.4989C15.3664 12.4989 15.9224 13.0548 15.9224 13.7407V14.2139H15.9187C15.8954 14.7489 15.7487 15.4197 15.1481 15.9679C14.4919 16.5665 13.3593 16.958 11.4612 16.958C9.5631 16.958 8.43048 16.5665 7.77433 15.9679C7.17362 15.4197 7.02698 14.7489 7.00366 14.2139H7V13.7407C7 13.0548 7.55597 12.4989 8.24179 12.4989H14.6806Z" fill="white"/>
<path d="M9.0588 6.6629C8.49022 6.6629 8.0293 7.12382 8.0293 7.6924V10.4378C8.0293 11.0063 8.49022 11.4673 9.0588 11.4673H13.8632C14.4317 11.4673 14.8927 11.0063 14.8927 10.4378V7.6924C14.8927 7.12382 14.4317 6.6629 13.8632 6.6629H11.8041C11.8041 6.6629 11.8041 6.53153 11.8041 6.31973C11.8041 6.10793 11.6505 5.97656 11.461 5.97656C11.2715 5.97656 11.1178 6.13474 11.1178 6.31973C11.1178 6.50472 11.1178 6.6629 11.1178 6.6629H9.0588ZM9.40197 9.06508C9.40197 8.68602 9.70926 8.37874 10.0883 8.37874C10.4674 8.37874 10.7746 8.68602 10.7746 9.06508C10.7746 9.44413 10.4674 9.75141 10.0883 9.75141C9.70926 9.75141 9.40197 9.44413 9.40197 9.06508ZM12.1473 9.06508C12.1473 8.68602 12.4546 8.37874 12.8337 8.37874C13.2127 8.37874 13.52 8.68602 13.52 9.06508C13.52 9.44413 13.2127 9.75141 12.8337 9.75141C12.4546 9.75141 12.1473 9.44413 12.1473 9.06508Z" fill="white"/>
</svg>
