<svg width="19" height="19" viewBox="0 0 19 19" fill="none" xmlns="http://www.w3.org/2000/svg">
<path d="M2.1875 4.71863H11.1875C11.7842 4.71863 12.3565 4.95568 12.7785 5.37764C13.2004 5.79959 13.4375 6.37189 13.4375 6.96863V13.7186C13.4375 13.8678 13.3782 14.0109 13.2727 14.1164C13.1673 14.2219 13.0242 14.2811 12.875 14.2811H3.875C3.27826 14.2811 2.70597 14.0441 2.28401 13.6221C1.86205 13.2002 1.625 12.6279 1.625 12.0311V5.28113C1.625 5.13194 1.68426 4.98887 1.78975 4.88338C1.89524 4.77789 2.03832 4.71863 2.1875 4.71863V4.71863Z" stroke="black" stroke-linecap="round" stroke-linejoin="round"/>
<path d="M13.4375 8.37488L17.375 6.12488V12.8749L13.4375 10.6249" stroke="black" stroke-linecap="round" stroke-linejoin="round"/>
</svg>
