<svg width="17" height="18" viewBox="0 0 17 18" fill="none" xmlns="http://www.w3.org/2000/svg">
<path d="M6.86133 9C6.86133 9.93038 7.57165 10.6875 8.44451 10.6875C9.31737 10.6875 10.0277 9.93038 10.0277 9C10.0277 8.06962 9.31737 7.3125 8.44451 7.3125C7.57165 7.3125 6.86133 8.06962 6.86133 9Z" fill="#333333"/>
<path d="M6.86133 14.625C6.86133 15.5554 7.57165 16.3125 8.44451 16.3125C9.31737 16.3125 10.0277 15.5554 10.0277 14.625C10.0277 13.6946 9.31737 12.9375 8.44451 12.9375C7.57165 12.9375 6.86133 13.6946 6.86133 14.625Z" fill="#333333"/>
<path d="M6.86133 3.375C6.86133 4.30538 7.57165 5.0625 8.44451 5.0625C9.31737 5.0625 10.0277 4.30538 10.0277 3.375C10.0277 2.44462 9.31737 1.6875 8.44451 1.6875C7.57165 1.6875 6.86133 2.44462 6.86133 3.375Z" fill="#333333"/>
</svg>
