<svg width="15" height="15" viewBox="0 0 15 15" fill="none" xmlns="http://www.w3.org/2000/svg">
<path d="M5.41992 7.31286C5.90228 8.30896 6.70774 9.11235 7.70508 9.59215C7.77865 9.62699 7.86002 9.64206 7.94118 9.6359C8.02235 9.62973 8.10051 9.60254 8.16797 9.557L9.63281 8.57848C9.69753 8.53458 9.77232 8.5078 9.85019 8.50063C9.92806 8.49346 10.0065 8.50613 10.0781 8.53746L12.8203 9.7152C12.914 9.75421 12.9923 9.82294 13.0432 9.91082C13.094 9.99869 13.1145 10.1008 13.1016 10.2015C13.0146 10.8799 12.6835 11.5033 12.1702 11.9552C11.6568 12.4071 10.9964 12.6565 10.3125 12.6566C8.19906 12.6566 6.17217 11.817 4.67774 10.3226C3.18331 8.82818 2.34375 6.8013 2.34375 4.68785C2.3439 4.00395 2.59325 3.34353 3.04513 2.83017C3.49701 2.31682 4.12047 1.98571 4.79883 1.89879C4.89951 1.88586 5.00166 1.90638 5.08954 1.9572C5.17741 2.00802 5.24615 2.08632 5.28516 2.18004L6.46289 4.92809C6.49352 4.99861 6.50633 5.07557 6.5002 5.15221C6.49407 5.22884 6.46918 5.30279 6.42773 5.36754L5.44922 6.85582C5.40565 6.92314 5.38009 7.0005 5.37496 7.08052C5.36983 7.16053 5.38531 7.24053 5.41992 7.31286V7.31286Z" stroke="#333333" stroke-linecap="round" stroke-linejoin="round"/>
<path d="M11.1 4.5001H8.69995V2.1001" stroke="#333333" stroke-linecap="round" stroke-linejoin="round"/>
</svg>
