<svg width="15" height="15" viewBox="0 0 15 15" fill="none" xmlns="http://www.w3.org/2000/svg">
<path fill-rule="evenodd" clip-rule="evenodd" d="M1.88273 3.75H2.6482C2.85959 3.75 3.03094 3.92135 3.03094 4.13273C3.03094 4.34412 2.85959 4.51547 2.6482 4.51547H1.88273C1.67136 4.51547 1.5 4.34412 1.5 4.13273C1.5 3.92135 1.67136 3.75 1.88273 3.75ZM4.94461 3.75H13.3648C13.5762 3.75 13.7475 3.92135 13.7475 4.13273C13.7475 4.34412 13.5762 4.51547 13.3648 4.51547H4.94461C4.73323 4.51547 4.56188 4.34412 4.56188 4.13273C4.56188 3.92135 4.73323 3.75 4.94461 3.75ZM2.6482 8.34281H1.88273C1.67136 8.34281 1.5 8.51416 1.5 8.72555C1.5 8.93693 1.67136 9.10828 1.88273 9.10828H2.6482C2.85959 9.10828 3.03094 8.93693 3.03094 8.72555C3.03094 8.51416 2.85959 8.34281 2.6482 8.34281ZM4.94461 8.34281H13.3648C13.5762 8.34281 13.7475 8.51416 13.7475 8.72555C13.7475 8.93693 13.5762 9.10828 13.3648 9.10828H4.94461C4.73323 9.10828 4.56188 8.93693 4.56188 8.72555C4.56188 8.51416 4.73323 8.34281 4.94461 8.34281ZM2.6482 6.04641H1.88273C1.67136 6.04641 1.5 6.21776 1.5 6.42914C1.5 6.64053 1.67136 6.81188 1.88273 6.81188H2.6482C2.85959 6.81188 3.03094 6.64053 3.03094 6.42914C3.03094 6.21776 2.85959 6.04641 2.6482 6.04641ZM4.94461 6.04641H10.3029C10.5143 6.04641 10.6856 6.21776 10.6856 6.42914C10.6856 6.64053 10.5143 6.81188 10.3029 6.81188H4.94461C4.73323 6.81188 4.56188 6.64053 4.56188 6.42914C4.56188 6.21776 4.73323 6.04641 4.94461 6.04641ZM2.6482 10.6392H1.88273C1.67136 10.6392 1.5 10.8106 1.5 11.022C1.5 11.2333 1.67136 11.4047 1.88273 11.4047H2.6482C2.85959 11.4047 3.03094 11.2333 3.03094 11.022C3.03094 10.8106 2.85959 10.6392 2.6482 10.6392ZM4.94461 10.6392H10.3029C10.5143 10.6392 10.6856 10.8106 10.6856 11.022C10.6856 11.2333 10.5143 11.4047 10.3029 11.4047H4.94461C4.73323 11.4047 4.56188 11.2333 4.56188 11.022C4.56188 10.8106 4.73323 10.6392 4.94461 10.6392Z" fill="#333333"/>
</svg>
