<svg xmlns="http://www.w3.org/2000/svg" width="15" height="16" viewBox="0 0 15 16" fill="none">
<path d="M5.41992 8.28917C5.90228 9.28528 6.70774 10.0887 7.70508 10.5685C7.77865 10.6033 7.86002 10.6184 7.94118 10.6122C8.02235 10.6061 8.10051 10.5789 8.16797 10.5333L9.63281 9.5548C9.69753 9.5109 9.77232 9.48412 9.85019 9.47695C9.92806 9.46978 10.0065 9.48245 10.0781 9.51378L12.8203 10.6915C12.914 10.7305 12.9923 10.7993 13.0432 10.8871C13.094 10.975 13.1145 11.0772 13.1016 11.1778C13.0147 11.8562 12.6835 12.4797 12.1702 12.9315C11.6568 13.3834 10.9964 13.6328 10.3125 13.6329C8.19906 13.6329 6.17217 12.7934 4.67774 11.2989C3.18331 9.8045 2.34375 7.77762 2.34375 5.66417C2.3439 4.98027 2.59325 4.31985 3.04513 3.80649C3.49701 3.29314 4.12047 2.96202 4.79883 2.87511C4.89951 2.86218 5.00166 2.8827 5.08954 2.93352C5.17742 2.98434 5.24615 3.06264 5.28516 3.15636L6.46289 5.90441C6.49352 5.97492 6.50633 6.05189 6.5002 6.12853C6.49407 6.20516 6.46918 6.27911 6.42773 6.34386L5.44922 7.83214C5.40566 7.89946 5.38009 7.97682 5.37496 8.05684C5.36983 8.13685 5.38531 8.21685 5.41992 8.28917V8.28917Z" stroke="#333333" stroke-linecap="round" stroke-linejoin="round"/>
<path d="M8.55066 5.47632H11.8507" stroke="#333333" stroke-linecap="round" stroke-linejoin="round"/>
<path d="M10.2007 3.82642V7.12642" stroke="#333333" stroke-linecap="round" stroke-linejoin="round"/>
</svg>