<svg xmlns="http://www.w3.org/2000/svg" width="15" height="15" viewBox="0 0 15 15" fill="none">
<path d="M11.875 6.26584V3.12501C11.875 2.43563 11.3144 1.875 10.625 1.875H1.24998C0.560596 1.875 0 2.4356 0 3.12501V9.375C0 10.0644 0.560596 10.625 1.25001 10.625H8.25826C8.66771 12.0656 9.99237 13.125 11.5625 13.125C12.1668 13.125 12.7609 12.966 13.2816 12.6648C13.4308 12.5784 13.4821 12.3874 13.3954 12.2379C13.309 12.0883 13.1177 12.0367 12.9684 12.124C12.543 12.37 12.0569 12.5 11.5625 12.5C10.0116 12.5 8.74998 11.2384 8.74998 9.68751C8.74998 8.13662 10.0116 6.87501 11.5625 6.87501C13.1134 6.87501 14.375 8.13662 14.375 9.68751V10C14.375 10.3446 14.0945 10.625 13.75 10.625C13.4055 10.625 13.125 10.3446 13.125 10V8.75001C13.125 8.57728 12.9852 8.4375 12.8125 8.4375C12.7284 8.4375 12.6529 8.47151 12.5968 8.52539C12.3206 8.27927 11.9607 8.12499 11.5625 8.12499C10.701 8.12499 9.99999 8.82598 9.99999 9.68748C9.99999 10.549 10.701 11.25 11.5625 11.25C12.0282 11.25 12.4423 11.0411 12.7288 10.7167C12.9552 11.0383 13.3276 11.25 13.75 11.25C14.4394 11.25 15 10.6894 15 9.99999V9.68748C15 7.89753 13.6243 6.42445 11.875 6.26584ZM1.25001 2.49999H10.625C10.638 2.49999 10.6489 2.50664 10.6617 2.50743L6.19447 6.17432C6.03548 6.27442 5.80506 6.25365 5.70161 6.1902L1.21365 2.50737C1.22634 2.50661 1.23712 2.49999 1.25001 2.49999ZM11.25 6.26584C9.50065 6.42445 8.12499 7.89753 8.12499 9.68751C8.12499 9.79298 8.13146 9.89692 8.14081 10H1.25001C0.905478 10 0.62502 9.71956 0.62502 9.37503V3.12501C0.62502 3.0365 0.644561 2.95292 0.6779 2.87657L5.33268 6.69375C5.51455 6.81246 5.72361 6.87504 5.93754 6.87504C6.14323 6.87504 6.34433 6.81706 6.52134 6.7072C6.53903 6.69773 6.55582 6.68646 6.5717 6.67333L11.1971 2.87651C11.2305 2.95292 11.25 3.0365 11.25 3.12504V6.26584H11.25ZM11.5625 10.625C11.0455 10.625 10.625 10.2045 10.625 9.68751C10.625 9.17054 11.0455 8.75001 11.5625 8.75001C12.0795 8.75001 12.5 9.17054 12.5 9.68751C12.5 10.2045 12.0795 10.625 11.5625 10.625Z" fill="#333333"/>
</svg>