<svg width="15" height="15" viewBox="0 0 15 15" fill="none" xmlns="http://www.w3.org/2000/svg">
<g clip-path="url(#clip0_4000_746726)">
<path d="M5.32529 2.45827C4.483 4.55418 6.47434 6.54538 8.57027 5.70308L8.55163 5.65668L8.57027 5.70308C9.14288 5.47292 9.60122 5.01454 9.83133 4.44186C10.6736 2.34595 8.68243 0.354768 6.5865 1.19707C6.01386 1.42722 5.55537 1.88563 5.32529 2.45827ZM5.32529 2.45827L5.37168 2.47692L5.32529 2.45828C5.32529 2.45828 5.32529 2.45828 5.32529 2.45827ZM9.03181 12.2659L9.07821 12.2845L9.03181 12.2659C8.87283 12.6615 8.5548 12.9796 8.15924 13.1386C6.63535 13.751 5.21243 12.3281 5.82482 10.8043L5.77843 10.7856L5.82482 10.8043C5.98377 10.4087 6.3019 10.0906 6.69753 9.93158C8.22141 9.31919 9.64422 10.742 9.03181 12.2659ZM5.97482 2.71929L5.92843 2.70064L5.97482 2.71929C6.13377 2.3237 6.4519 2.00559 6.84753 1.84658C8.37141 1.23419 9.79422 2.657 9.18181 4.18087L9.22821 4.19952L9.18181 4.18087C9.02283 4.57654 8.7048 4.8946 8.30924 5.05358C6.78535 5.66599 5.36243 4.24314 5.97482 2.71929ZM9.68133 12.5269C10.5236 10.431 8.53243 8.43977 6.4365 9.28207C5.86386 9.51222 5.40537 9.97063 5.17529 10.5433C4.333 12.6392 6.32434 14.6304 8.42027 13.7881C8.99288 13.5579 9.45122 13.0995 9.68133 12.5269ZM2.15229 2.82717H3.51174C3.70505 2.82717 3.86174 2.67047 3.86174 2.47717C3.86174 2.28386 3.70505 2.12717 3.51174 2.12717H2.15229C1.95899 2.12717 1.80229 2.28386 1.80229 2.47717C1.80229 2.67047 1.95899 2.82717 2.15229 2.82717Z" fill="#333333" stroke="#333333" stroke-width="0.1"/>
<path d="M3.86167 3.83669V2.47725C3.86167 2.28394 3.70497 2.12725 3.51167 2.12725C3.31837 2.12725 3.16167 2.28394 3.16167 2.47725V3.83669C3.16167 4.03 3.31837 4.18669 3.51167 4.18669C3.70497 4.18669 3.86167 4.03 3.86167 3.83669Z" fill="#333333" stroke="#333333" stroke-width="0.1"/>
<path d="M3.69769 12.4101C2.42669 11.1391 1.70005 9.42114 1.70005 7.5874C1.70005 5.84933 2.35232 4.21417 3.50744 2.96269C3.63856 2.82064 3.62969 2.59922 3.48764 2.46811C3.34559 2.33699 3.12417 2.34586 2.99306 2.48791C1.71974 3.86745 1.00005 5.67163 1.00005 7.5874C1.00005 9.6087 1.80177 11.5041 3.20272 12.905C3.3394 13.0417 3.561 13.0417 3.69769 12.905C3.83437 12.7684 3.83437 12.5468 3.69769 12.4101ZM12.8386 12.3075H11.4792C11.2859 12.3075 11.1292 12.4642 11.1292 12.6575C11.1292 12.8509 11.2859 13.0075 11.4792 13.0075H12.8386C13.0319 13.0075 13.1886 12.8509 13.1886 12.6575C13.1886 12.4642 13.0319 12.3075 12.8386 12.3075Z" fill="#333333" stroke="#333333" stroke-width="0.1"/>
<path d="M11.1292 11.2985V12.658C11.1292 12.8513 11.2859 13.008 11.4792 13.008C11.6725 13.008 11.8292 12.8513 11.8292 12.658V11.2985C11.8292 11.1052 11.6725 10.9485 11.4792 10.9485C11.2859 10.9485 11.1292 11.1052 11.1292 11.2985Z" fill="#333333" stroke="#333333" stroke-width="0.1"/>
<path d="M11.2932 2.72473C12.5642 3.99573 13.2909 5.71366 13.2909 7.5474C13.2909 9.28548 12.6386 10.9206 11.4835 12.1721C11.3524 12.3142 11.3612 12.5356 11.5033 12.6667C11.6453 12.7978 11.8668 12.7889 11.9979 12.6469C13.2712 11.2674 13.9909 9.46317 13.9909 7.5474C13.9909 5.52611 13.1892 3.63071 11.7882 2.22976C11.6515 2.09307 11.4299 2.09307 11.2932 2.22976C11.1566 2.36644 11.1566 2.58805 11.2932 2.72473Z" fill="#333333" stroke="#333333" stroke-width="0.1"/>
</g>
<defs>
<clipPath id="clip0_4000_746726">
<rect width="15" height="15" fill="white"/>
</clipPath>
</defs>
</svg>
