<svg width="15" height="15" viewBox="0 0 15 15" fill="none" xmlns="http://www.w3.org/2000/svg">
<path d="M9.10538 5.93558C8.05924 5.57402 6.92169 5.57608 5.87687 5.94144C5.80061 5.96795 5.73249 6.0137 5.67911 6.07426C5.62573 6.13483 5.58889 6.20816 5.57218 6.28714L5.23233 8.01566C5.21628 8.09232 5.18173 8.16389 5.13169 8.22414C5.08165 8.2844 5.01763 8.3315 4.94522 8.36136L2.17374 9.46878C2.07947 9.50785 1.97493 9.51466 1.87638 9.48817C1.77783 9.46168 1.6908 9.40337 1.62882 9.3223C1.21014 8.78131 1.00299 8.10629 1.04613 7.42358C1.08927 6.74087 1.37975 6.09729 1.86319 5.61331C3.35854 4.11912 5.38598 3.27979 7.49991 3.27979C9.61384 3.27979 11.6413 4.11912 13.1366 5.61331C13.6201 6.09729 13.9106 6.74087 13.9537 7.42358C13.9968 8.10629 13.7897 8.78131 13.371 9.3223C13.309 9.40337 13.222 9.46168 13.1234 9.48817C13.0249 9.51466 12.9204 9.50785 12.8261 9.46878L10.0546 8.36136C9.98289 8.33205 9.91933 8.28585 9.86934 8.22667C9.81935 8.1675 9.78441 8.09711 9.76749 8.02152L9.40421 6.28128C9.38856 6.20273 9.35281 6.12958 9.30043 6.06899C9.24805 6.00839 9.18084 5.96242 9.10538 5.93558V5.93558Z" stroke="#333333" stroke-linecap="round" stroke-linejoin="round"/>
<path d="M2.34375 11.7188H12.6562" stroke="#333333" stroke-linecap="round" stroke-linejoin="round"/>
</svg>
