<svg width="14" height="14" viewBox="0 0 14 14" fill="none" xmlns="http://www.w3.org/2000/svg">
<path d="M13 10.798C13 11.014 12.9519 11.236 12.8498 11.452C12.7476 11.668 12.6154 11.872 12.4412 12.064C12.1467 12.388 11.8222 12.622 11.4557 12.772C11.0951 12.922 10.7046 13 10.2839 13C9.67101 13 9.01602 12.856 8.32499 12.562C7.63395 12.268 6.94291 11.872 6.25789 11.374C5.56685 10.87 4.91187 10.312 4.28693 9.694C3.668 9.07 3.10916 8.416 2.61042 7.732C2.11768 7.048 1.72108 6.364 1.43265 5.686C1.14422 5.002 1 4.348 1 3.724C1 3.316 1.07211 2.926 1.21632 2.566C1.36054 2.2 1.58888 1.864 1.90736 1.564C2.29194 1.186 2.71257 1 3.15724 1C3.32549 1 3.49374 1.036 3.64397 1.108C3.8002 1.18 3.93841 1.288 4.04657 1.444L5.44066 3.406C5.54882 3.556 5.62694 3.694 5.68102 3.826C5.7351 3.952 5.76515 4.078 5.76515 4.192C5.76515 4.336 5.72308 4.48 5.63896 4.618C5.56084 4.756 5.44667 4.9 5.30245 5.044L4.84577 5.518C4.77967 5.584 4.74962 5.662 4.74962 5.758C4.74962 5.806 4.75563 5.848 4.76765 5.896C4.78568 5.944 4.80371 5.98 4.81572 6.016C4.92389 6.214 5.11017 6.472 5.37456 6.784C5.64497 7.096 5.9334 7.414 6.24587 7.732C6.57036 8.05 6.88282 8.344 7.2013 8.614C7.51377 8.878 7.77216 9.058 7.97646 9.166C8.00651 9.178 8.04256 9.196 8.08463 9.214C8.1327 9.232 8.18077 9.238 8.23485 9.238C8.33701 9.238 8.41512 9.202 8.48122 9.136L8.93791 8.686C9.08813 8.536 9.23235 8.422 9.37056 8.35C9.50876 8.266 9.64697 8.224 9.7972 8.224C9.91137 8.224 10.0315 8.248 10.1637 8.302C10.2959 8.356 10.4342 8.434 10.5844 8.536L12.5734 9.946C12.7296 10.054 12.8378 10.18 12.9039 10.33C12.9639 10.48 13 10.63 13 10.798Z" stroke="#333333" stroke-miterlimit="10"/>
</svg>
