<svg width="13" height="11" viewBox="0 0 13 11" fill="none" xmlns="http://www.w3.org/2000/svg">
<path d="M2.75037 4.56226C3.18301 4.56226 3.60594 4.43396 3.96568 4.1936C4.32541 3.95323 4.60579 3.61159 4.77135 3.21188C4.93692 2.81216 4.98024 2.37233 4.89583 1.948C4.81143 1.52366 4.60309 1.13389 4.29716 0.827961C3.99123 0.522034 3.60146 0.313694 3.17713 0.229289C2.75279 0.144884 2.31296 0.188204 1.91325 0.35377C1.51353 0.519337 1.17189 0.799715 0.931526 1.15945C0.691161 1.51918 0.562866 1.94211 0.562866 2.37476C0.563568 2.9547 0.794261 3.51069 1.20434 3.92078C1.61443 4.33086 2.17042 4.56156 2.75037 4.56226ZM2.75037 0.812257C3.0594 0.812257 3.36149 0.903896 3.61844 1.07559C3.8754 1.24728 4.07567 1.4913 4.19393 1.77681C4.31219 2.06232 4.34313 2.37649 4.28284 2.67959C4.22255 2.98268 4.07374 3.26109 3.85522 3.47961C3.6367 3.69813 3.35829 3.84694 3.05519 3.90723C2.7521 3.96752 2.43793 3.93658 2.15242 3.81832C1.86691 3.70006 1.62288 3.49979 1.45119 3.24284C1.27951 2.98588 1.18787 2.68379 1.18787 2.37476C1.1883 1.96049 1.35306 1.56331 1.64599 1.27038C1.93892 0.977452 2.3361 0.812692 2.75037 0.812257ZM2.12537 2.37476C2.12537 2.25114 2.16202 2.13031 2.2307 2.02753C2.29937 1.92474 2.39699 1.84464 2.51119 1.79733C2.62539 1.75003 2.75106 1.73765 2.8723 1.76177C2.99354 1.78588 3.1049 1.84541 3.19231 1.93282C3.27972 2.02022 3.33924 2.13159 3.36336 2.25283C3.38747 2.37406 3.3751 2.49973 3.32779 2.61393C3.28049 2.72814 3.20038 2.82575 3.0976 2.89443C2.99482 2.9631 2.87398 2.99976 2.75037 2.99976C2.58461 2.99976 2.42563 2.93391 2.30842 2.8167C2.19121 2.69949 2.12537 2.54052 2.12537 2.37476ZM6.81287 2.37476C6.81284 2.33371 6.82091 2.29307 6.83661 2.25514C6.8523 2.21722 6.87532 2.18276 6.90434 2.15373C6.93337 2.12471 6.96782 2.10169 7.00575 2.086C7.04367 2.0703 7.08432 2.06223 7.12537 2.06226H12.1254C12.2082 2.06226 12.2877 2.09518 12.3463 2.15379C12.4049 2.21239 12.4379 2.29188 12.4379 2.37476C12.4379 2.45764 12.4049 2.53712 12.3463 2.59573C12.2877 2.65433 12.2082 2.68726 12.1254 2.68726H7.12537C7.08432 2.68728 7.04367 2.67921 7.00575 2.66352C6.96782 2.64782 6.93337 2.6248 6.90434 2.59578C6.87532 2.56676 6.8523 2.5323 6.83661 2.49437C6.82091 2.45645 6.81284 2.4158 6.81287 2.37476ZM2.75037 10.8123C3.18301 10.8123 3.60594 10.684 3.96568 10.4436C4.32541 10.2032 4.60579 9.86159 4.77135 9.46188C4.93692 9.06216 4.98024 8.62233 4.89583 8.198C4.81143 7.77366 4.60309 7.38389 4.29716 7.07796C3.99123 6.77203 3.60146 6.56369 3.17713 6.47929C2.75279 6.39488 2.31296 6.4382 1.91325 6.60377C1.51353 6.76934 1.17189 7.04972 0.931526 7.40945C0.691161 7.76918 0.562866 8.19211 0.562866 8.62476C0.563568 9.2047 0.794261 9.7607 1.20434 10.1708C1.61443 10.5809 2.17042 10.8116 2.75037 10.8123ZM2.75037 7.06226C3.0594 7.06226 3.36149 7.1539 3.61844 7.32559C3.8754 7.49728 4.07567 7.74131 4.19393 8.02681C4.31219 8.31232 4.34313 8.62649 4.28284 8.92959C4.22255 9.23268 4.07374 9.51109 3.85522 9.72961C3.6367 9.94813 3.35829 10.0969 3.05519 10.1572C2.7521 10.2175 2.43793 10.1866 2.15242 10.0683C1.86691 9.95006 1.62288 9.74979 1.45119 9.49284C1.27951 9.23588 1.18787 8.93379 1.18787 8.62476C1.1883 8.21049 1.35306 7.81332 1.64599 7.52038C1.93892 7.22745 2.3361 7.06269 2.75037 7.06226ZM6.81287 8.62476C6.81284 8.58371 6.82091 8.54307 6.83661 8.50514C6.8523 8.46722 6.87532 8.43276 6.90434 8.40373C6.93337 8.37471 6.96782 8.35169 7.00575 8.336C7.04367 8.3203 7.08432 8.31223 7.12537 8.31226H12.1254C12.2082 8.31226 12.2877 8.34518 12.3463 8.40379C12.4049 8.46239 12.4379 8.54188 12.4379 8.62476C12.4379 8.70764 12.4049 8.78712 12.3463 8.84573C12.2877 8.90433 12.2082 8.93726 12.1254 8.93726H7.12537C7.08432 8.93728 7.04367 8.92921 7.00575 8.91352C6.96782 8.89782 6.93337 8.8748 6.90434 8.84578C6.87532 8.81676 6.8523 8.7823 6.83661 8.74438C6.82091 8.70645 6.81284 8.6658 6.81287 8.62476Z" fill="#333333"/>
</svg>
