<svg width="15" height="15" viewBox="0 0 15 15" fill="none" xmlns="http://www.w3.org/2000/svg">
<path d="M9.79345 14.0361L11.2872 12.5236C11.4034 12.4075 11.4956 12.2696 11.5585 12.1179C11.6214 11.9661 11.6538 11.8035 11.6538 11.6392C11.6538 11.4749 11.6214 11.3123 11.5585 11.1605C11.4956 11.0088 11.4034 10.8709 11.2872 10.7548L10.4372 9.92359C10.3211 9.80737 10.1832 9.71517 10.0315 9.65226C9.87975 9.58936 9.71709 9.55698 9.55282 9.55698C9.38855 9.55698 9.22589 9.58936 9.07415 9.65226C8.9224 9.71517 8.78454 9.80737 8.66845 9.92359L8.10595 10.4861C6.65791 9.61805 5.4453 8.40758 4.5747 6.96109L5.1372 6.39859C5.25342 6.2825 5.34562 6.14464 5.40852 5.99289C5.47143 5.84114 5.5038 5.67848 5.5038 5.51421C5.5038 5.34994 5.47143 5.18729 5.40852 5.03554C5.34562 4.88379 5.25342 4.74593 5.1372 4.62984L4.29345 3.77359C4.17693 3.65357 4.03752 3.55816 3.88346 3.49301C3.72941 3.42786 3.56384 3.39429 3.39657 3.39429C3.2293 3.39429 3.06374 3.42786 2.90968 3.49301C2.75562 3.55816 2.61621 3.65357 2.4997 3.77359L1.03095 5.27359C0.928573 5.37529 0.864547 5.50929 0.849737 5.65283C0.834927 5.79638 0.870245 5.94062 0.949697 6.06109C3.07419 9.25427 5.81277 11.9928 9.00595 14.1173C9.12641 14.1968 9.27066 14.2321 9.4142 14.2173C9.55774 14.2025 9.69174 14.1385 9.79345 14.0361Z" stroke="#333333" stroke-linecap="round" stroke-linejoin="round"/>
<path d="M5.03735 1.96131C6.15305 1.36335 7.43066 1.13761 8.68371 1.31703C9.93677 1.49645 11.0997 2.07164 12.0028 2.95866C12.9058 3.84568 13.5018 4.9981 13.7036 6.24774C13.9055 7.49737 13.7027 8.77882 13.1249 9.90506" stroke="#333333" stroke-linecap="round" stroke-linejoin="round"/>
<path d="M8.12451 3.57373V7.07373H10.6245" stroke="#333333" stroke-linecap="round" stroke-linejoin="round"/>
</svg>
