<svg width="15" height="15" viewBox="0 0 15 15" fill="none" xmlns="http://www.w3.org/2000/svg">
<path d="M9.1055 5.93558C8.05936 5.57402 6.92181 5.57608 5.87699 5.94144C5.80073 5.96795 5.73261 6.0137 5.67923 6.07426C5.62585 6.13483 5.58902 6.20816 5.5723 6.28714L5.23246 8.01566C5.2164 8.09232 5.18185 8.16389 5.13181 8.22414C5.08177 8.2844 5.01776 8.3315 4.94535 8.36136L2.17386 9.46878C2.07959 9.50785 1.97505 9.51466 1.8765 9.48817C1.77795 9.46168 1.69092 9.40337 1.62894 9.3223C1.21027 8.78131 1.00311 8.10629 1.04625 7.42358C1.08939 6.74087 1.37987 6.09729 1.86332 5.61331C3.35867 4.11912 5.38611 3.27979 7.50003 3.27979C9.61396 3.27979 11.6414 4.11912 13.1368 5.61331C13.6202 6.09729 13.9107 6.74087 13.9538 7.42358C13.997 8.10629 13.7898 8.78131 13.3711 9.3223C13.3091 9.40337 13.2221 9.46168 13.1236 9.48817C13.025 9.51466 12.9205 9.50785 12.8262 9.46878L10.0547 8.36136C9.98301 8.33205 9.91945 8.28585 9.86946 8.22667C9.81947 8.1675 9.78453 8.09711 9.76761 8.02152L9.40433 6.28128C9.38869 6.20273 9.35293 6.12958 9.30055 6.06899C9.24817 6.00839 9.18096 5.96242 9.1055 5.93558V5.93558Z" stroke="#333333" stroke-linecap="round" stroke-linejoin="round"/>
<path d="M2.34375 11.7188H12.6562" stroke="#333333" stroke-linecap="round" stroke-linejoin="round"/>
</svg>
