<svg width="15" height="15" viewBox="0 0 15 15" fill="none" xmlns="http://www.w3.org/2000/svg">
<g clip-path="url(#clip0_4000_746704)">
<path d="M13.125 13.125H1.875C1.62644 13.1247 1.38813 13.0259 1.21238 12.8501C1.03662 12.6744 0.937761 12.4361 0.9375 12.1875V9.84375H1.875V12.1875H13.125V9.84375H14.0625V12.1875C14.0622 12.4361 13.9634 12.6744 13.7876 12.8501C13.6119 13.0259 13.3736 13.1247 13.125 13.125Z" fill="#333333"/>
<path d="M11.7188 9.84375H3.28125V10.7812H11.7188V9.84375Z" fill="#333333"/>
<path d="M11.7188 7.5H3.28125V8.4375H11.7188V7.5Z" fill="#333333"/>
<path d="M11.7188 5.15625H3.28125V6.09375H11.7188V5.15625Z" fill="#333333"/>
<path d="M11.7188 2.8125H3.28125V3.75H11.7188V2.8125Z" fill="#333333"/>
</g>
<defs>
<clipPath id="clip0_4000_746704">
<rect width="15" height="15" fill="white"/>
</clipPath>
</defs>
</svg>
