<svg width="20" height="20" viewBox="0 0 20 20" fill="none" xmlns="http://www.w3.org/2000/svg">
<path d="M10 1.66675C7.83968 1.66675 5.76732 2.50815 4.21552 4.00562L2.9232 2.7133C2.704 2.49409 2.37198 2.44975 2.12079 2.55379C1.8696 2.65784 1.66669 2.92413 1.66669 3.23413V6.31356C1.66669 6.96401 2.20276 7.50008 2.85321 7.50008H5.93264C6.24264 7.50008 6.50893 7.29717 6.61298 7.04598C6.71702 6.79479 6.67267 6.46277 6.45347 6.24357L4.80471 4.59481C6.20036 3.25318 8.06024 2.50008 10 2.50008C14.1471 2.50008 17.5 5.85302 17.5 10.0001C17.5 14.1471 14.1471 17.5001 10 17.5001C6.00719 17.5001 2.72004 14.3829 2.50979 10.3956C2.50708 10.3408 2.49359 10.2872 2.47011 10.2377C2.44663 10.1881 2.41361 10.1437 2.37293 10.107C2.33226 10.0703 2.28474 10.0419 2.2331 10.0236C2.18145 10.0052 2.12669 9.99723 2.07196 10.0001C2.01722 10.003 1.96358 10.0167 1.91414 10.0404C1.86469 10.064 1.8204 10.0972 1.78381 10.1381C1.74722 10.1789 1.71905 10.2265 1.70091 10.2783C1.68276 10.33 1.675 10.3848 1.67808 10.4395C1.91123 14.8611 5.57236 18.3334 10 18.3334C14.5974 18.3334 18.3334 14.5975 18.3334 10.0001C18.3334 5.40265 14.5974 1.66675 10 1.66675ZM2.50002 3.46851L5.69664 6.66675H2.85321C2.65313 6.66675 2.50002 6.51365 2.50002 6.31356V3.46851Z" fill="url(#paint0_linear_3920_898495)"/>
<defs>
<linearGradient id="paint0_linear_3920_898495" x1="1.66669" y1="10.0001" x2="18.3334" y2="10.0001" gradientUnits="userSpaceOnUse">
<stop stop-color="#2196F3"/>
<stop offset="1" stop-color="#673AB7"/>
</linearGradient>
</defs>
</svg>
