<svg width="16" height="8" viewBox="0 0 16 8" fill="none" xmlns="http://www.w3.org/2000/svg">
<path d="M12.0763 0.625C11.3789 0.626304 10.6991 0.843617 10.1302 1.24706C9.56136 1.65049 9.13145 2.22025 8.8996 2.87797C8.66775 3.5357 8.64535 4.2491 8.83547 4.92008C9.02559 5.59106 9.4189 6.18666 9.96132 6.625H6.03882C6.65709 6.12488 7.07862 5.42226 7.22888 4.64136C7.37913 3.86047 7.24845 3.05159 6.85992 2.35774C6.47139 1.6639 5.85004 1.12977 5.10573 0.849801C4.36143 0.569829 3.5421 0.562044 2.79261 0.827821C2.04311 1.0936 1.41173 1.61582 1.01009 2.30216C0.608445 2.9885 0.462409 3.79474 0.597801 4.57835C0.733193 5.36196 1.14129 6.07247 1.74994 6.58425C2.3586 7.09602 3.1286 7.37612 3.92382 7.375H12.0763C12.9714 7.375 13.8299 7.01942 14.4628 6.38648C15.0957 5.75355 15.4513 4.89511 15.4513 4C15.4513 3.10489 15.0957 2.24645 14.4628 1.61351C13.8299 0.98058 12.9714 0.625 12.0763 0.625ZM1.29882 4C1.2989 3.48276 1.45178 2.97706 1.73828 2.54641C2.02478 2.11576 2.43212 1.77935 2.90916 1.57942C3.3862 1.37948 3.91168 1.32494 4.41961 1.42263C4.92754 1.52032 5.3953 1.7659 5.76414 2.12852C6.13298 2.49115 6.38647 2.95466 6.49278 3.46086C6.59909 3.96706 6.55348 4.49339 6.36169 4.97375C6.16989 5.45412 5.84045 5.86712 5.41473 6.1609C4.98901 6.45467 4.48599 6.61613 3.96882 6.625H3.92382C3.22763 6.625 2.55995 6.34844 2.06767 5.85615C1.57539 5.36387 1.29882 4.69619 1.29882 4ZM12.0763 6.625H12.0313C11.3311 6.61905 10.6618 6.33596 10.1699 5.83769C9.6779 5.33942 9.40337 4.66655 9.40635 3.96635C9.40932 3.26614 9.68956 2.59563 10.1857 2.10156C10.6819 1.60749 11.3536 1.3301 12.0538 1.3301C12.754 1.3301 13.4257 1.60749 13.9219 2.10156C14.4181 2.59563 14.6983 3.26614 14.7013 3.96635C14.7043 4.66655 14.4297 5.33942 13.9378 5.83769C13.4458 6.33596 12.7765 6.61905 12.0763 6.625Z" fill="#333333"/>
</svg>
