<svg width="16" height="15" viewBox="0 0 16 15" fill="none" xmlns="http://www.w3.org/2000/svg">
<g clip-path="url(#clip0_1057_249553)">
<path d="M7.93518 8.94922C8.75552 8.94922 9.4231 8.32291 9.4231 7.55328C9.4231 6.78365 8.75552 6.15734 7.93518 6.15734C7.11484 6.15734 6.44727 6.78365 6.44727 7.55328C6.44727 8.32291 7.11484 8.94922 7.93518 8.94922Z" fill="#333333"/>
<path d="M12.8951 8.94922C13.7155 8.94922 14.3831 8.32291 14.3831 7.55328C14.3831 6.78365 13.7155 6.15734 12.8951 6.15734C12.0748 6.15734 11.4072 6.78365 11.4072 7.55328C11.4072 8.32291 12.0748 8.94922 12.8951 8.94922Z" fill="#333333"/>
<path d="M2.9762 8.94922C3.79654 8.94922 4.46412 8.32291 4.46412 7.55328C4.46412 6.78365 3.79654 6.15734 2.9762 6.15734C2.15586 6.15734 1.48828 6.78365 1.48828 7.55328C1.48828 8.32291 2.15586 8.94922 2.9762 8.94922Z" fill="#333333"/>
</g>
<defs>
<clipPath id="clip0_1057_249553">
<rect width="14.89" height="15.8711" fill="white" transform="matrix(0 -1 1 0 0 15)"/>
</clipPath>
</defs>
</svg>
