<svg width="16" height="4" viewBox="0 0 16 4" fill="none" xmlns="http://www.w3.org/2000/svg">
<path d="M1.75 3.5C2.7165 3.5 3.5 2.7165 3.5 1.75C3.5 0.783502 2.7165 0 1.75 0C0.783502 0 0 0.783502 0 1.75C0 2.7165 0.783502 3.5 1.75 3.5Z" fill="black"/>
<path d="M7.75 3.5C8.7165 3.5 9.5 2.7165 9.5 1.75C9.5 0.783502 8.7165 0 7.75 0C6.7835 0 6 0.783502 6 1.75C6 2.7165 6.7835 3.5 7.75 3.5Z" fill="black"/>
<path d="M13.75 3.5C14.7165 3.5 15.5 2.7165 15.5 1.75C15.5 0.783502 14.7165 0 13.75 0C12.7835 0 12 0.783502 12 1.75C12 2.7165 12.7835 3.5 13.75 3.5Z" fill="black"/>
</svg>
