<svg width="23" height="23" viewBox="0 0 23 23" fill="none" xmlns="http://www.w3.org/2000/svg">
<g clip-path="url(#clip0_1125_32959)">
<path d="M11.5 2.875C11.9915 2.875 12.3965 3.24496 12.4519 3.72157L12.4583 3.83333V19.1667C12.4583 19.696 12.0293 20.125 11.5 20.125C11.0085 20.125 10.6035 19.7551 10.5481 19.2784L10.5417 19.1667V3.83333C10.5417 3.30406 10.9707 2.875 11.5 2.875ZM7.66667 5.75C8.19593 5.75 8.625 6.17906 8.625 6.70833V16.2917C8.625 16.821 8.19593 17.25 7.66667 17.25C7.1374 17.25 6.70833 16.821 6.70833 16.2917V6.70833C6.70833 6.17906 7.1374 5.75 7.66667 5.75ZM15.3333 5.75C15.8626 5.75 16.2917 6.17906 16.2917 6.70833V16.2917C16.2917 16.821 15.8626 17.25 15.3333 17.25C14.804 17.25 14.375 16.821 14.375 16.2917V6.70833C14.375 6.17906 14.804 5.75 15.3333 5.75ZM3.83333 8.625C4.3626 8.625 4.79167 9.05406 4.79167 9.58333V13.4167C4.79167 13.946 4.3626 14.375 3.83333 14.375C3.30406 14.375 2.875 13.946 2.875 13.4167V9.58333C2.875 9.05406 3.30406 8.625 3.83333 8.625ZM19.1667 8.625C19.6581 8.625 20.0632 8.99496 20.1186 9.47157L20.125 9.58333V13.4167C20.125 13.946 19.696 14.375 19.1667 14.375C18.6752 14.375 18.2701 14.0051 18.2148 13.5284L18.2083 13.4167V9.58333C18.2083 9.05406 18.6374 8.625 19.1667 8.625Z" fill="url(#paint0_linear_1125_32959)"/>
</g>
<defs>
<linearGradient id="paint0_linear_1125_32959" x1="11.5" y1="2.875" x2="11.5" y2="20.125" gradientUnits="userSpaceOnUse">
<stop stop-color="#000AFF"/>
<stop offset="1" stop-color="#D274FF"/>
</linearGradient>
<clipPath id="clip0_1125_32959">
<rect width="23" height="23" fill="white"/>
</clipPath>
</defs>
</svg>
