<svg width="29" height="27" viewBox="0 0 29 27" fill="none" xmlns="http://www.w3.org/2000/svg">
<rect x="15.8823" y="2.38232" width="12.7059" height="12.7059" rx="6.35294" fill="#F6DDEF"/>
<path fill-rule="evenodd" clip-rule="evenodd" d="M4.21875 2.625C3.79606 2.625 3.39068 2.79291 3.0918 3.0918C2.79291 3.39068 2.625 3.79606 2.625 4.21875V22.0312H1.6875C1.27329 22.0312 0.9375 22.367 0.9375 22.7812C0.9375 23.1955 1.27329 23.5312 1.6875 23.5312L3.375 23.5312H15.1875H23.625L25.3125 23.5312C25.7267 23.5312 26.0625 23.1955 26.0625 22.7812C26.0625 22.367 25.7267 22.0312 25.3125 22.0312H24.375V10.9687C24.375 10.5461 24.2071 10.1407 23.9082 9.8418C23.6093 9.54291 23.2039 9.375 22.7812 9.375H15.9375V4.21875C15.9375 3.79606 15.7696 3.39069 15.4707 3.0918C15.1718 2.79291 14.7664 2.625 14.3438 2.625H4.21875ZM22.875 10.9687V22.0312H15.9375V10.875H22.7812C22.8061 10.875 22.83 10.8849 22.8475 10.9025C22.8651 10.92 22.875 10.9439 22.875 10.9687ZM14.4375 4.21875V10.125V22.0312H4.125V4.21875C4.125 4.19389 4.13488 4.17004 4.15246 4.15246C4.17004 4.13488 4.19389 4.125 4.21875 4.125H14.3438C14.3686 4.125 14.3925 4.13488 14.41 4.15246C14.4276 4.17004 14.4375 4.19388 14.4375 4.21875ZM6.75 6.84375C6.33579 6.84375 6 7.17954 6 7.59375C6 8.00796 6.33579 8.34375 6.75 8.34375H10.125C10.5392 8.34375 10.875 8.00796 10.875 7.59375C10.875 7.17954 10.5392 6.84375 10.125 6.84375H6.75ZM7.6875 14.3438C7.6875 13.9295 8.02329 13.5938 8.4375 13.5938H11.8125C12.2267 13.5938 12.5625 13.9295 12.5625 14.3438C12.5625 14.758 12.2267 15.0938 11.8125 15.0938H8.4375C8.02329 15.0938 7.6875 14.758 7.6875 14.3438ZM6.75 17.8125C6.33579 17.8125 6 18.1483 6 18.5625C6 18.9767 6.33579 19.3125 6.75 19.3125H10.125C10.5392 19.3125 10.875 18.9767 10.875 18.5625C10.875 18.1483 10.5392 17.8125 10.125 17.8125H6.75ZM17.8125 18.5625C17.8125 18.1483 18.1483 17.8125 18.5625 17.8125H20.25C20.6642 17.8125 21 18.1483 21 18.5625C21 18.9767 20.6642 19.3125 20.25 19.3125H18.5625C18.1483 19.3125 17.8125 18.9767 17.8125 18.5625ZM18.5625 13.5938C18.1483 13.5938 17.8125 13.9295 17.8125 14.3438C17.8125 14.758 18.1483 15.0938 18.5625 15.0938H20.25C20.6642 15.0938 21 14.758 21 14.3438C21 13.9295 20.6642 13.5938 20.25 13.5938H18.5625Z" fill="url(#paint0_linear_198_30201)"/>
<defs>
<linearGradient id="paint0_linear_198_30201" x1="13.5" y1="2.625" x2="13.5" y2="23.5312" gradientUnits="userSpaceOnUse">
<stop stop-color="#000AFF"/>
<stop offset="1" stop-color="#D274FF"/>
</linearGradient>
</defs>
</svg>
