<svg width="15" height="16" viewBox="0 0 15 16" fill="none" xmlns="http://www.w3.org/2000/svg">
<path d="M7.5 14.0469C10.6066 14.0469 13.125 11.5285 13.125 8.42188C13.125 5.31527 10.6066 2.79688 7.5 2.79688C4.3934 2.79688 1.875 5.31527 1.875 8.42188C1.875 11.5285 4.3934 14.0469 7.5 14.0469Z" stroke="#6174A4" stroke-linecap="round" stroke-linejoin="round"/>
<path d="M7.03125 7.95312H7.5V11.2344H7.96875" fill="#6174A4"/>
<path d="M7.03125 7.95312H7.5V11.2344H7.96875" stroke="#6174A4" stroke-linecap="round" stroke-linejoin="round"/>
<path d="M7.38281 6.42969C7.70642 6.42969 7.96875 6.16735 7.96875 5.84375C7.96875 5.52015 7.70642 5.25781 7.38281 5.25781C7.05921 5.25781 6.79688 5.52015 6.79688 5.84375C6.79688 6.16735 7.05921 6.42969 7.38281 6.42969Z" fill="#6174A4"/>
</svg>
