<svg width="32" height="32" viewBox="0 0 32 32" fill="none" xmlns="http://www.w3.org/2000/svg">
<path d="M7.34766 25.8856C8.17058 24.2647 9.4263 22.9033 10.9755 21.9523C12.5248 21.0014 14.3072 20.498 16.125 20.498C17.9428 20.498 19.7252 21.0014 21.2745 21.9523C22.8237 22.9033 24.0794 24.2647 24.9023 25.8856M16.125 29.25C23.3737 29.25 29.25 23.3737 29.25 16.125C29.25 8.8763 23.3737 3 16.125 3C8.8763 3 3 8.8763 3 16.125C3 23.3737 8.8763 29.25 16.125 29.25ZM16.125 20.5C19.1453 20.5 21.5938 18.0516 21.5938 15.0312C21.5938 12.0109 19.1453 9.5625 16.125 9.5625C13.1047 9.5625 10.6562 12.0109 10.6562 15.0312C10.6562 18.0516 13.1047 20.5 16.125 20.5Z" stroke="url(#paint0_linear_942_450012)" stroke-width="1.5" stroke-linecap="round" stroke-linejoin="round"/>
<defs>
<linearGradient id="paint0_linear_942_450012" x1="16.125" y1="20.498" x2="16.125" y2="25.8856" gradientUnits="userSpaceOnUse">
<stop stop-color="#000AFF"/>
<stop offset="1" stop-color="#D274FF"/>
</linearGradient>
</defs>
</svg>
