<svg width="50" height="49" viewBox="0 0 50 49" fill="none" xmlns="http://www.w3.org/2000/svg">
<path d="M45.2656 38.7016L39.0625 36.9125V35.3398C39.8883 34.6766 40.5414 33.8086 40.9461 32.8125H41.4062C43.1297 32.8125 44.5312 31.4109 44.5312 29.6875V22.7523C44.5312 20.5719 43.1031 18.6703 41.032 18.0516L40.318 17.3375C38.7094 15.7297 36.5711 14.8438 34.2961 14.8438C33.5109 14.8438 32.7531 14.9594 32.0312 15.1594V7.8125C32.893 7.8125 33.5938 7.11172 33.5938 6.25V4.6875C33.5938 3.82578 32.893 3.125 32.0312 3.125H23.1187C21.9602 1.18594 19.8875 0 17.6008 0H16.775C14.4875 0 12.4156 1.18594 11.257 3.125H2.34375C1.48203 3.125 0.78125 3.82578 0.78125 4.6875V6.25C0.78125 7.11172 1.48203 7.8125 2.34375 7.8125V28.125H16.4062V36.8297C15.0617 37.1789 14.0625 38.3914 14.0625 39.8438C14.0625 41.5672 15.4641 42.9688 17.1875 42.9688C18.9109 42.9688 20.3125 41.5672 20.3125 39.8438C20.3125 38.3914 19.3133 37.1789 17.9688 36.8297V28.125H25.7812V29.6875C25.7812 31.4109 27.1828 32.8125 28.9062 32.8125H29.3664C29.7711 33.8086 30.4242 34.6766 31.25 35.3398V36.9125L25.0469 38.7016C22.7195 39.3734 21.0938 41.5336 21.0938 43.9562V48.4375H49.2188V43.9562C49.2188 41.5336 47.593 39.3734 45.2656 38.7016ZM18.75 39.8438C18.75 40.7055 18.0492 41.4062 17.1875 41.4062C16.3258 41.4062 15.625 40.7055 15.625 39.8438C15.625 38.982 16.3258 38.2812 17.1875 38.2812C18.0492 38.2812 18.75 38.982 18.75 39.8438ZM40.2938 38.8937L38.7484 42.4992L36.325 40.5609L38.507 38.3789L40.2938 38.8937ZM41.4062 31.25H41.3523C41.3844 30.9937 41.4062 30.7336 41.4062 30.4688V28.125C42.268 28.125 42.9688 28.8258 42.9688 29.6875C42.9688 30.5492 42.268 31.25 41.4062 31.25ZM2.34375 4.6875H12.2016L12.4172 4.25547C13.2477 2.59453 14.918 1.5625 16.775 1.5625H17.6008C19.4578 1.5625 21.1281 2.59453 21.9578 4.25547L22.1734 4.6875H32.0312V6.25H2.34375V4.6875ZM3.90625 26.5625V7.8125H30.4688V15.7633C27.693 17.168 25.7812 20.0414 25.7812 23.3594V26.5625H3.90625ZM28.9062 31.25C28.0445 31.25 27.3438 30.5492 27.3438 29.6875C27.3438 28.8258 28.0445 28.125 28.9062 28.125V30.4688C28.9062 30.7336 28.9281 30.9937 28.9602 31.25H28.9062ZM29.1102 26.5625H28.9062C28.3344 26.5625 27.8055 26.7281 27.3438 26.9969V23.3586C27.3438 19.525 30.4625 16.4062 34.2961 16.4062C36.1531 16.4062 37.8992 17.1297 39.2125 18.4422L40.225 19.4547L40.4359 19.507C41.9273 19.8812 42.9688 21.2148 42.9688 22.7523V26.9969C42.507 26.7281 41.9781 26.5625 41.4062 26.5625H41.2023C40.732 25.2031 39.4531 24.2188 37.9359 24.2188C37.5617 24.2188 37.193 24.2789 36.8383 24.3969L35.1562 24.9578L33.4742 24.3969C33.1195 24.2789 32.75 24.2188 32.3758 24.2188C30.8586 24.2188 29.5805 25.2031 29.1102 26.5625ZM30.4688 30.4688V27.6883C30.4688 26.6367 31.3242 25.7812 32.3758 25.7812C32.5813 25.7812 32.7836 25.8141 32.9789 25.8789L35.1562 26.6047L37.3328 25.8789C37.5281 25.8141 37.7312 25.7812 37.9359 25.7812C38.9883 25.7812 39.8438 26.6367 39.8438 27.6883V30.4688C39.8438 33.0539 37.7414 35.1562 35.1562 35.1562C32.5711 35.1562 30.4688 33.0539 30.4688 30.4688ZM35.1562 36.7188C35.9852 36.7188 36.7758 36.5531 37.5 36.2586V37.1766L35.1562 39.5203L32.8125 37.1766V36.2586C33.5367 36.5531 34.3273 36.7188 35.1562 36.7188ZM31.8047 38.3781L33.9867 40.5602L31.5633 42.4984L30.018 38.893L31.8047 38.3781ZM22.6562 43.9562C22.6562 42.2266 23.8172 40.6836 25.4797 40.2031L28.5055 39.3297L30.9359 45.0008L34.375 42.2508V46.875H27.3438V42.1875H25.7812V46.875H22.6562V43.9562ZM47.6562 46.875H44.5312V42.1875H42.9688V46.875H35.9375V42.2508L39.3758 45.0016L41.8063 39.3305L44.832 40.2039C46.4953 40.6828 47.6562 42.2266 47.6562 43.9562V46.875Z" fill="url(#paint0_linear_584_123706)"/>
<path d="M19.5312 3.125H14.8438V4.6875H19.5312V3.125Z" fill="url(#paint1_linear_584_123706)"/>
<path d="M17.1875 9.375C12.8797 9.375 9.375 12.8797 9.375 17.1875C9.375 21.4953 12.8797 25 17.1875 25C21.4953 25 25 21.4953 25 17.1875C25 12.8797 21.4953 9.375 17.1875 9.375ZM21.0141 12.2562L19.8992 13.3703C19.1328 12.825 18.1984 12.5 17.1875 12.5C16.1766 12.5 15.2422 12.825 14.4758 13.3711L13.3609 12.257C14.4195 11.4328 15.7453 10.9375 17.1875 10.9375C18.6297 10.9375 19.9555 11.4328 21.0141 12.2562ZM14.0625 17.1875C14.0625 15.4641 15.4641 14.0625 17.1875 14.0625C18.9109 14.0625 20.3125 15.4641 20.3125 17.1875C20.3125 18.9109 18.9109 20.3125 17.1875 20.3125C15.4641 20.3125 14.0625 18.9109 14.0625 17.1875ZM12.2562 13.3617L13.3711 14.4758C12.825 15.2422 12.5 16.1766 12.5 17.1875C12.5 18.1984 12.825 19.1328 13.3711 19.8992L12.2562 21.0133C11.4328 19.9547 10.9375 18.6297 10.9375 17.1875C10.9375 15.7453 11.4328 14.4203 12.2562 13.3617ZM13.3609 22.1187L14.4758 21.0047C15.2422 21.55 16.1766 21.875 17.1875 21.875C18.1984 21.875 19.1328 21.55 19.8992 21.0039L21.0141 22.118C19.9555 22.9422 18.6297 23.4375 17.1875 23.4375C15.7453 23.4375 14.4195 22.9422 13.3609 22.1187ZM22.1187 21.0133L21.0039 19.8992C21.55 19.1328 21.875 18.1984 21.875 17.1875C21.875 16.1766 21.55 15.2422 21.0039 14.4758L22.1187 13.3617C22.9422 14.4203 23.4375 15.7453 23.4375 17.1875C23.4375 18.6297 22.9422 19.9547 22.1187 21.0133Z" fill="url(#paint2_linear_584_123706)"/>
<path d="M10.1562 9.375H5.46875V10.9375H10.1562V9.375Z" fill="url(#paint3_linear_584_123706)"/>
<path d="M10.1562 23.4375H5.46875V25H10.1562V23.4375Z" fill="url(#paint4_linear_584_123706)"/>
<defs>
<linearGradient id="paint0_linear_584_123706" x1="29.2553" y1="8.14448e-07" x2="16.4894" y2="54.7872" gradientUnits="userSpaceOnUse">
<stop stop-color="#6D23CA"/>
<stop offset="1" stop-color="#2D82E7"/>
</linearGradient>
<linearGradient id="paint1_linear_584_123706" x1="29.2553" y1="8.14448e-07" x2="16.4894" y2="54.7872" gradientUnits="userSpaceOnUse">
<stop stop-color="#6D23CA"/>
<stop offset="1" stop-color="#2D82E7"/>
</linearGradient>
<linearGradient id="paint2_linear_584_123706" x1="29.2553" y1="8.14448e-07" x2="16.4894" y2="54.7872" gradientUnits="userSpaceOnUse">
<stop stop-color="#6D23CA"/>
<stop offset="1" stop-color="#2D82E7"/>
</linearGradient>
<linearGradient id="paint3_linear_584_123706" x1="29.2553" y1="8.14448e-07" x2="16.4894" y2="54.7872" gradientUnits="userSpaceOnUse">
<stop stop-color="#6D23CA"/>
<stop offset="1" stop-color="#2D82E7"/>
</linearGradient>
<linearGradient id="paint4_linear_584_123706" x1="29.2553" y1="8.14448e-07" x2="16.4894" y2="54.7872" gradientUnits="userSpaceOnUse">
<stop stop-color="#6D23CA"/>
<stop offset="1" stop-color="#2D82E7"/>
</linearGradient>
</defs>
</svg>
