<svg width="20" height="20" viewBox="0 0 20 20" fill="none" xmlns="http://www.w3.org/2000/svg">
<path d="M7.05209 5.67421L9.78844 17.0216C9.93647 17.6355 10.7976 17.6676 10.991 17.0665L13.7048 8.63126L14.1933 10.3777C14.2688 10.6477 14.5148 10.8344 14.7952 10.8344H17.7065C18.0517 10.8344 18.3315 10.5545 18.3315 10.2094C18.3315 9.86418 18.0517 9.58435 17.7065 9.58435H15.2693L14.3486 6.29211C14.1817 5.69533 13.3415 5.67913 13.1517 6.26904L10.4822 14.5665L7.68787 2.97849C7.53577 2.34773 6.64211 2.33785 6.47609 2.96509L4.72413 9.58435H2.29178C1.9466 9.58435 1.66678 9.86418 1.66678 10.2094C1.66678 10.5545 1.9466 10.8344 2.29178 10.8344H5.20523C5.48882 10.8344 5.73687 10.6434 5.80943 10.3693L7.05209 5.67421Z" fill="#333333"/>
</svg>
