<svg width="20" height="20" viewBox="0 0 20 20" fill="none" xmlns="http://www.w3.org/2000/svg">
<path d="M10 19.75C8.07164 19.75 6.18657 19.1782 4.58319 18.1068C2.97982 17.0355 1.73013 15.5127 0.992179 13.7312C0.254225 11.9496 0.061142 9.98919 0.437348 8.09787C0.813554 6.20656 1.74215 4.46928 3.10571 3.10571C4.46928 1.74215 6.20656 0.813554 8.09787 0.437348C9.98919 0.061142 11.9496 0.254225 13.7312 0.992179C15.5127 1.73013 17.0355 2.97982 18.1068 4.58319C19.1782 6.18657 19.75 8.07164 19.75 10C19.75 12.5859 18.7228 15.0658 16.8943 16.8943C15.0658 18.7228 12.5859 19.75 10 19.75ZM10 1.75C8.36831 1.75 6.77326 2.23386 5.41655 3.14038C4.05984 4.0469 3.00242 5.33538 2.378 6.84287C1.75358 8.35036 1.5902 10.0092 1.90853 11.6095C2.22685 13.2098 3.01259 14.6799 4.16637 15.8336C5.32016 16.9874 6.79017 17.7732 8.39051 18.0915C9.99085 18.4098 11.6497 18.2464 13.1571 17.622C14.6646 16.9976 15.9531 15.9402 16.8596 14.5835C17.7661 13.2268 18.25 11.6317 18.25 10C18.25 7.81197 17.3808 5.71355 15.8336 4.16637C14.2865 2.6192 12.188 1.75 10 1.75Z" fill="#4A6ADA"/>
<path d="M10 15.25C9.80109 15.25 9.61032 15.171 9.46967 15.0303C9.32902 14.8897 9.25 14.6989 9.25 14.5V5.5C9.25 5.30109 9.32902 5.11032 9.46967 4.96967C9.61032 4.82902 9.80109 4.75 10 4.75C10.1989 4.75 10.3897 4.82902 10.5303 4.96967C10.671 5.11032 10.75 5.30109 10.75 5.5V14.5C10.75 14.6989 10.671 14.8897 10.5303 15.0303C10.3897 15.171 10.1989 15.25 10 15.25Z" fill="#4A6ADA"/>
<path d="M14.5 10.75H5.5C5.30109 10.75 5.11032 10.671 4.96967 10.5303C4.82902 10.3897 4.75 10.1989 4.75 10C4.75 9.80109 4.82902 9.61032 4.96967 9.46967C5.11032 9.32902 5.30109 9.25 5.5 9.25H14.5C14.6989 9.25 14.8897 9.32902 15.0303 9.46967C15.171 9.61032 15.25 9.80109 15.25 10C15.25 10.1989 15.171 10.3897 15.0303 10.5303C14.8897 10.671 14.6989 10.75 14.5 10.75Z" fill="#4A6ADA"/>
</svg>
