<svg width="22" height="21" viewBox="0 0 22 21" fill="none" xmlns="http://www.w3.org/2000/svg">
<g clip-path="url(#clip0_1135_83955)">
<path d="M11.75 17C10.4644 17 9.20772 16.6188 8.1388 15.9046C7.06988 15.1903 6.23676 14.1752 5.74479 12.9874C5.25282 11.7997 5.12409 10.4928 5.3749 9.23191C5.6257 7.97104 6.24477 6.81285 7.15381 5.90381C8.06285 4.99477 9.22104 4.3757 10.4819 4.1249C11.7428 3.87409 13.0497 4.00282 14.2374 4.49479C15.4252 4.98676 16.4403 5.81988 17.1546 6.8888C17.8688 7.95772 18.25 9.21442 18.25 10.5C18.25 12.2239 17.5652 13.8772 16.3462 15.0962C15.1272 16.3152 13.4739 17 11.75 17ZM11.75 5C10.6622 5 9.59884 5.32257 8.69437 5.92692C7.7899 6.53127 7.08495 7.39025 6.66867 8.39524C6.25238 9.40024 6.14346 10.5061 6.35568 11.573C6.5679 12.6399 7.09173 13.6199 7.86091 14.3891C8.6301 15.1583 9.61011 15.6821 10.677 15.8943C11.7439 16.1065 12.8498 15.9976 13.8548 15.5813C14.8598 15.1651 15.7187 14.4601 16.3231 13.5556C16.9274 12.6512 17.25 11.5878 17.25 10.5C17.25 9.04131 16.6705 7.64236 15.6391 6.61091C14.6076 5.57947 13.2087 5 11.75 5Z" fill="#645DF6"/>
<path d="M11.75 14C11.6174 14 11.4902 13.9473 11.3964 13.8536C11.3027 13.7598 11.25 13.6326 11.25 13.5V7.5C11.25 7.36739 11.3027 7.24021 11.3964 7.14645C11.4902 7.05268 11.6174 7 11.75 7C11.8826 7 12.0098 7.05268 12.1036 7.14645C12.1973 7.24021 12.25 7.36739 12.25 7.5V13.5C12.25 13.6326 12.1973 13.7598 12.1036 13.8536C12.0098 13.9473 11.8826 14 11.75 14Z" fill="#645DF6"/>
<path d="M14.75 11H8.75C8.61739 11 8.49021 10.9473 8.39645 10.8536C8.30268 10.7598 8.25 10.6326 8.25 10.5C8.25 10.3674 8.30268 10.2402 8.39645 10.1464C8.49021 10.0527 8.61739 10 8.75 10H14.75C14.8826 10 15.0098 10.0527 15.1036 10.1464C15.1973 10.2402 15.25 10.3674 15.25 10.5C15.25 10.6326 15.1973 10.7598 15.1036 10.8536C15.0098 10.9473 14.8826 11 14.75 11Z" fill="#645DF6"/>
</g>
<defs>
<clipPath id="clip0_1135_83955">
<rect width="21" height="21" fill="white" transform="translate(0.75)"/>
</clipPath>
</defs>
</svg>
