<svg width="14" height="14" viewBox="0 0 14 14" fill="none" xmlns="http://www.w3.org/2000/svg">
<path d="M7 13.5C5.71442 13.5 4.45772 13.1188 3.3888 12.4046C2.31988 11.6903 1.48676 10.6752 0.994786 9.48744C0.502816 8.29972 0.374095 6.99279 0.624899 5.73191C0.875702 4.47104 1.49477 3.31285 2.40381 2.40381C3.31285 1.49477 4.47104 0.875702 5.73191 0.624899C6.99279 0.374095 8.29972 0.502816 9.48744 0.994786C10.6752 1.48676 11.6903 2.31988 12.4046 3.3888C13.1188 4.45772 13.5 5.71442 13.5 7C13.5 8.72391 12.8152 10.3772 11.5962 11.5962C10.3772 12.8152 8.72391 13.5 7 13.5ZM7 1.5C5.9122 1.5 4.84884 1.82257 3.94437 2.42692C3.0399 3.03127 2.33495 3.89025 1.91867 4.89524C1.50238 5.90024 1.39346 7.0061 1.60568 8.073C1.8179 9.13989 2.34173 10.1199 3.11091 10.8891C3.8801 11.6583 4.86011 12.1821 5.927 12.3943C6.9939 12.6065 8.09977 12.4976 9.10476 12.0813C10.1098 11.6651 10.9687 10.9601 11.5731 10.0556C12.1774 9.15117 12.5 8.0878 12.5 7C12.5 5.54131 11.9205 4.14236 10.8891 3.11091C9.85764 2.07947 8.45869 1.5 7 1.5Z" fill="#645DF6"/>
<path d="M7 10.5C6.86739 10.5 6.74021 10.4473 6.64645 10.3536C6.55268 10.2598 6.5 10.1326 6.5 10V4C6.5 3.86739 6.55268 3.74021 6.64645 3.64645C6.74021 3.55268 6.86739 3.5 7 3.5C7.13261 3.5 7.25979 3.55268 7.35355 3.64645C7.44732 3.74021 7.5 3.86739 7.5 4V10C7.5 10.1326 7.44732 10.2598 7.35355 10.3536C7.25979 10.4473 7.13261 10.5 7 10.5Z" fill="#645DF6"/>
<path d="M10 7.5H4C3.86739 7.5 3.74021 7.44732 3.64645 7.35355C3.55268 7.25979 3.5 7.13261 3.5 7C3.5 6.86739 3.55268 6.74021 3.64645 6.64645C3.74021 6.55268 3.86739 6.5 4 6.5H10C10.1326 6.5 10.2598 6.55268 10.3536 6.64645C10.4473 6.74021 10.5 6.86739 10.5 7C10.5 7.13261 10.4473 7.25979 10.3536 7.35355C10.2598 7.44732 10.1326 7.5 10 7.5Z" fill="#645DF6"/>
</svg>
