<svg width="19" height="19" viewBox="0 0 19 19" fill="none" xmlns="http://www.w3.org/2000/svg">
<path d="M9.5 18.0313C7.81268 18.0313 6.16325 17.5309 4.7603 16.5935C3.35734 15.6561 2.26387 14.3237 1.61816 12.7648C0.972446 11.2059 0.803499 9.49054 1.13268 7.83564C1.46186 6.18074 2.27438 4.66062 3.4675 3.4675C4.66062 2.27438 6.18074 1.46186 7.83564 1.13268C9.49054 0.803499 11.2059 0.972446 12.7648 1.61816C14.3237 2.26387 15.6561 3.35734 16.5935 4.7603C17.5309 6.16325 18.0313 7.81268 18.0313 9.5C18.0313 11.7626 17.1324 13.9326 15.5325 15.5325C13.9326 17.1324 11.7626 18.0313 9.5 18.0313ZM9.5 2.28125C8.07227 2.28125 6.6766 2.70463 5.48948 3.49783C4.30236 4.29104 3.37712 5.41845 2.83075 6.73751C2.28438 8.05656 2.14142 9.50801 2.41996 10.9083C2.6985 12.3086 3.38602 13.5949 4.39558 14.6044C5.40514 15.614 6.6914 16.3015 8.0917 16.58C9.492 16.8586 10.9434 16.7156 12.2625 16.1693C13.5816 15.6229 14.709 14.6976 15.5022 13.5105C16.2954 12.3234 16.7188 10.9277 16.7188 9.5C16.7188 7.58547 15.9582 5.74935 14.6044 4.39558C13.2507 3.0418 11.4145 2.28125 9.5 2.28125Z" fill="#645DF6"/>
<path d="M9.5 14.0938C9.32595 14.0938 9.15903 14.0246 9.03596 13.9015C8.91289 13.7785 8.84375 13.6115 8.84375 13.4375V5.5625C8.84375 5.38845 8.91289 5.22153 9.03596 5.09846C9.15903 4.97539 9.32595 4.90625 9.5 4.90625C9.67405 4.90625 9.84097 4.97539 9.96404 5.09846C10.0871 5.22153 10.1562 5.38845 10.1562 5.5625V13.4375C10.1562 13.6115 10.0871 13.7785 9.96404 13.9015C9.84097 14.0246 9.67405 14.0938 9.5 14.0938Z" fill="#645DF6"/>
<path d="M13.4375 10.1562H5.5625C5.38845 10.1562 5.22153 10.0871 5.09846 9.96404C4.97539 9.84097 4.90625 9.67405 4.90625 9.5C4.90625 9.32595 4.97539 9.15903 5.09846 9.03596C5.22153 8.91289 5.38845 8.84375 5.5625 8.84375H13.4375C13.6115 8.84375 13.7785 8.91289 13.9015 9.03596C14.0246 9.15903 14.0938 9.32595 14.0938 9.5C14.0938 9.67405 14.0246 9.84097 13.9015 9.96404C13.7785 10.0871 13.6115 10.1562 13.4375 10.1562Z" fill="#645DF6"/>
</svg>
