<svg width="14" height="13" viewBox="0 0 14 13" fill="none" xmlns="http://www.w3.org/2000/svg">
<path d="M7 13C5.71442 13 4.45772 12.6188 3.3888 11.9046C2.31988 11.1903 1.48676 10.1752 0.994786 8.98744C0.502816 7.79972 0.374095 6.49279 0.624899 5.23191C0.875702 3.97104 1.49477 2.81285 2.40381 1.90381C3.31285 0.994767 4.47104 0.375702 5.73191 0.124899C6.99279 -0.125905 8.29972 0.00281635 9.48744 0.494786C10.6752 0.986755 11.6903 1.81988 12.4046 2.8888C13.1188 3.95772 13.5 5.21442 13.5 6.5C13.5 8.22391 12.8152 9.87721 11.5962 11.0962C10.3772 12.3152 8.72391 13 7 13ZM7 1C5.9122 1 4.84884 1.32257 3.94437 1.92692C3.0399 2.53127 2.33495 3.39025 1.91867 4.39524C1.50238 5.40024 1.39346 6.5061 1.60568 7.573C1.8179 8.63989 2.34173 9.6199 3.11091 10.3891C3.8801 11.1583 4.86011 11.6821 5.927 11.8943C6.9939 12.1065 8.09977 11.9976 9.10476 11.5813C10.1098 11.1651 10.9687 10.4601 11.5731 9.55564C12.1774 8.65117 12.5 7.5878 12.5 6.5C12.5 5.04131 11.9205 3.64236 10.8891 2.61091C9.85764 1.57947 8.45869 1 7 1Z" fill="#645DF6"/>
<path d="M7 10C6.86739 10 6.74021 9.94732 6.64645 9.85355C6.55268 9.75979 6.5 9.63261 6.5 9.5V3.5C6.5 3.36739 6.55268 3.24021 6.64645 3.14645C6.74021 3.05268 6.86739 3 7 3C7.13261 3 7.25979 3.05268 7.35355 3.14645C7.44732 3.24021 7.5 3.36739 7.5 3.5V9.5C7.5 9.63261 7.44732 9.75979 7.35355 9.85355C7.25979 9.94732 7.13261 10 7 10Z" fill="#645DF6"/>
<path d="M10 7H4C3.86739 7 3.74021 6.94732 3.64645 6.85355C3.55268 6.75979 3.5 6.63261 3.5 6.5C3.5 6.36739 3.55268 6.24021 3.64645 6.14645C3.74021 6.05268 3.86739 6 4 6H10C10.1326 6 10.2598 6.05268 10.3536 6.14645C10.4473 6.24021 10.5 6.36739 10.5 6.5C10.5 6.63261 10.4473 6.75979 10.3536 6.85355C10.2598 6.94732 10.1326 7 10 7Z" fill="#645DF6"/>
</svg>
