<svg width="14" height="15" viewBox="0 0 14 15" fill="none" xmlns="http://www.w3.org/2000/svg">
<path d="M12.663 8.84148H9.68105C9.41752 8.84182 9.16488 8.95837 8.97854 9.16556C8.7922 9.37275 8.68738 9.65366 8.68707 9.94667V11.0519H5.91096L3.71721 8.61265V5.52593H4.71118C4.97471 5.52559 5.22735 5.40904 5.41369 5.20185C5.60003 4.99466 5.70485 4.71375 5.70515 4.42074V1.10519C5.70485 0.812175 5.60003 0.531262 5.41369 0.324073C5.22735 0.116883 4.97471 0.000336382 4.71118 0H1.72926C1.46573 0.000336382 1.21309 0.116883 1.02675 0.324073C0.840407 0.531262 0.735588 0.812175 0.735285 1.10519V4.42074C0.735588 4.71375 0.840407 4.99466 1.02675 5.20185C1.21309 5.40904 1.46573 5.52559 1.72926 5.52593H2.72323V8.61265L0.383916 11.2138C0.337747 11.2651 0.301121 11.326 0.276132 11.393C0.251143 11.46 0.238281 11.5319 0.238281 11.6044C0.238281 11.677 0.251143 11.7489 0.276132 11.8159C0.301121 11.8829 0.337747 11.9438 0.383916 11.9951L2.86885 14.7581C2.91498 14.8094 2.96976 14.8501 3.03005 14.8779C3.09034 14.9057 3.15496 14.92 3.22022 14.92C3.28548 14.92 3.3501 14.9057 3.41039 14.8779C3.47068 14.8501 3.52546 14.8094 3.57159 14.7581L5.91096 12.157H8.68707V13.2622C8.68738 13.5552 8.7922 13.8361 8.97854 14.0433C9.16488 14.2505 9.41752 14.3671 9.68105 14.3674H12.663C12.9265 14.3671 13.1791 14.2505 13.3655 14.0433C13.5518 13.8361 13.6566 13.5552 13.6569 13.2622V9.94667C13.6566 9.65366 13.5518 9.37275 13.3655 9.16556C13.1791 8.95837 12.9265 8.84182 12.663 8.84148ZM1.72926 1.10519H4.71118V4.42074H1.72926V1.10519ZM3.22022 13.586L1.43807 11.6044L3.22022 9.6229L5.00236 11.6044L3.22022 13.586ZM9.68105 13.2622V9.94667H12.663V13.2622H9.68105Z" fill="#333333"/>
</svg>
