<svg width="21" height="21" viewBox="0 0 21 21" fill="none" xmlns="http://www.w3.org/2000/svg">
<path d="M10.5 6.75H17.375C17.5408 6.75 17.6997 6.81585 17.8169 6.93306C17.9342 7.05027 18 7.20924 18 7.375V16.125C18 16.2908 17.9342 16.4497 17.8169 16.5669C17.6997 16.6842 17.5408 16.75 17.375 16.75H3.625C3.45924 16.75 3.30027 16.6842 3.18306 16.5669C3.06585 16.4497 3 16.2908 3 16.125V8.625" stroke="#333333" stroke-width="1.2" stroke-linecap="round" stroke-linejoin="round"/>
<path d="M7.78906 8.625H3V5.5C3 5.33424 3.06585 5.17527 3.18306 5.05806C3.30027 4.94085 3.45924 4.875 3.625 4.875H7.78906C7.9242 4.87556 8.05562 4.91936 8.16406 5L10.5 6.75L8.16406 8.5C8.05562 8.58064 7.9242 8.62444 7.78906 8.625V8.625Z" stroke="#333333" stroke-width="1.2" stroke-linecap="round" stroke-linejoin="round"/>
<path d="M8.625 12.0625H12.375" stroke="#333333" stroke-width="1.2" stroke-linecap="round" stroke-linejoin="round"/>
<path d="M10.5 10.1875V13.9375" stroke="#333333" stroke-width="1.2" stroke-linecap="round" stroke-linejoin="round"/>
</svg>
