<svg width="17" height="18" viewBox="0 0 17 18" fill="none" xmlns="http://www.w3.org/2000/svg">
<g id="add (1) 1" clip-path="url(#clip0_1271_10266)">
<g id="Group">
<g id="Group_2">
<path id="Vector" d="M8.5 0.880859C3.81281 0.880859 0 4.69367 0 9.38086C0 14.068 3.81281 17.8809 8.5 17.8809C13.1872 17.8809 17 14.0674 17 9.38086C17 4.69434 13.1872 0.880859 8.5 0.880859ZM8.5 16.5641C4.5397 16.5641 1.3168 13.3418 1.3168 9.38086C1.3168 5.41989 4.5397 2.19766 8.5 2.19766C12.4603 2.19766 15.6832 5.41989 15.6832 9.38086C15.6832 13.3418 12.461 16.5641 8.5 16.5641Z" fill="#645DF6"/>
</g>
</g>
<g id="Group_3">
<g id="Group_4">
<path id="Vector_2" d="M11.7913 8.66312H9.15769V6.02951C9.15769 5.66607 8.86337 5.37109 8.49927 5.37109C8.13516 5.37109 7.84085 5.66607 7.84085 6.02951V8.66312H5.20725C4.84314 8.66312 4.54883 8.95809 4.54883 9.32154C4.54883 9.68498 4.84314 9.97995 5.20725 9.97995H7.84085V12.6136C7.84085 12.977 8.13516 13.272 8.49927 13.272C8.86337 13.272 9.15769 12.977 9.15769 12.6136V9.97995H11.7913C12.1554 9.97995 12.4497 9.68498 12.4497 9.32154C12.4497 8.95809 12.1554 8.66312 11.7913 8.66312Z" fill="#645DF6"/>
</g>
</g>
</g>
<defs>
<clipPath id="clip0_1271_10266">
<rect width="17" height="17" fill="white" transform="translate(0 0.880859)"/>
</clipPath>
</defs>
</svg>
