<svg width="35" height="29" viewBox="0 0 35 29" fill="none" xmlns="http://www.w3.org/2000/svg">
<rect x="17.0588" y="2.6875" width="17.0588" height="13.4771" rx="6.73855" fill="#F6DDEF"/>
<path fill-rule="evenodd" clip-rule="evenodd" d="M4.53125 2.875C4.09198 2.875 3.67071 3.0495 3.3601 3.3601C3.0495 3.67071 2.875 4.09198 2.875 4.53125V23.7188H1.8125C1.39829 23.7188 1.0625 24.0545 1.0625 24.4688C1.0625 24.883 1.39829 25.2188 1.8125 25.2188L3.625 25.2187H16.3125H25.375L27.1875 25.2188C27.6017 25.2188 27.9375 24.883 27.9375 24.4688C27.9375 24.0545 27.6017 23.7188 27.1875 23.7188H26.125V11.7812C26.125 11.342 25.9505 10.9207 25.6399 10.6101C25.3293 10.2995 24.908 10.125 24.4688 10.125H17.0625V4.53125C17.0625 4.09199 16.888 3.67071 16.5774 3.3601C16.2668 3.0495 15.8455 2.875 15.4062 2.875H4.53125ZM24.625 11.7812V23.7188H17.0625V11.625H24.4688C24.5102 11.625 24.5499 11.6415 24.5792 11.6708C24.6085 11.7001 24.625 11.7398 24.625 11.7812ZM15.5625 4.53125V10.875V23.7188H4.375V4.53125C4.375 4.48981 4.39146 4.45007 4.42076 4.42076C4.45007 4.39146 4.48981 4.375 4.53125 4.375H15.4062C15.4477 4.375 15.4874 4.39146 15.5167 4.42076C15.546 4.45007 15.5625 4.48981 15.5625 4.53125ZM7.25 7.40625C6.83579 7.40625 6.5 7.74204 6.5 8.15625C6.5 8.57046 6.83579 8.90625 7.25 8.90625H10.875C11.2892 8.90625 11.625 8.57046 11.625 8.15625C11.625 7.74204 11.2892 7.40625 10.875 7.40625H7.25ZM8.3125 15.4062C8.3125 14.992 8.64829 14.6562 9.0625 14.6562H12.6875C13.1017 14.6562 13.4375 14.992 13.4375 15.4062C13.4375 15.8205 13.1017 16.1562 12.6875 16.1562H9.0625C8.64829 16.1562 8.3125 15.8205 8.3125 15.4062ZM7.25 19.1875C6.83579 19.1875 6.5 19.5233 6.5 19.9375C6.5 20.3517 6.83579 20.6875 7.25 20.6875H10.875C11.2892 20.6875 11.625 20.3517 11.625 19.9375C11.625 19.5233 11.2892 19.1875 10.875 19.1875H7.25ZM19.1875 19.9375C19.1875 19.5233 19.5233 19.1875 19.9375 19.1875H21.75C22.1642 19.1875 22.5 19.5233 22.5 19.9375C22.5 20.3517 22.1642 20.6875 21.75 20.6875H19.9375C19.5233 20.6875 19.1875 20.3517 19.1875 19.9375ZM19.9375 14.6562C19.5233 14.6562 19.1875 14.992 19.1875 15.4062C19.1875 15.8205 19.5233 16.1562 19.9375 16.1562H21.75C22.1642 16.1562 22.5 15.8205 22.5 15.4062C22.5 14.992 22.1642 14.6562 21.75 14.6562H19.9375Z" fill="url(#paint0_linear_71_45746)"/>
<defs>
<linearGradient id="paint0_linear_71_45746" x1="14.5" y1="2.875" x2="14.5" y2="25.2188" gradientUnits="userSpaceOnUse">
<stop stop-color="#000AFF"/>
<stop offset="1" stop-color="#D274FF"/>
</linearGradient>
</defs>
</svg>
