<svg width="36" height="37" viewBox="0 0 36 37" fill="none" xmlns="http://www.w3.org/2000/svg">
<path d="M18.8067 33.5632C18.5762 33.5632 18.3563 33.4998 18.1572 33.3836C17.8534 33.2041 17.6439 32.9189 17.5601 32.581C17.4763 32.243 17.5182 31.8945 17.6963 31.5882C17.8744 31.2819 18.1572 31.0707 18.4924 30.9862C18.8277 30.9017 19.1734 30.944 19.4772 31.1235C19.781 31.303 19.9905 31.5882 20.0743 31.9262C20.1581 32.2641 20.1162 32.6127 19.9381 32.9189C19.76 33.2252 19.4772 33.4364 19.142 33.5209C19.0372 33.5526 18.922 33.5632 18.8172 33.5632H18.8067ZM18.8067 31.7466C18.8067 31.7466 18.7229 31.7466 18.681 31.7677C18.5553 31.7994 18.4401 31.8839 18.3772 32.0001C18.3143 32.1163 18.2934 32.2536 18.3248 32.3803C18.3563 32.507 18.4401 32.6232 18.5553 32.6866C18.6705 32.75 18.8067 32.7711 18.9324 32.7394C19.0581 32.7077 19.1734 32.6232 19.2362 32.507C19.2991 32.3909 19.32 32.2536 19.2886 32.1268C19.2572 32.0001 19.1734 31.8839 19.0581 31.8205C18.9848 31.7783 18.8905 31.7466 18.8067 31.7466Z" fill="#950019"/>
<path d="M31.682 15.799C32.1115 15.799 32.4362 15.3976 32.3419 14.9752C30.8753 8.52217 25.124 3.68506 18.2832 3.68506C11.4424 3.68506 5.69104 8.51161 4.2244 14.9752C4.13011 15.3976 4.45487 15.799 4.88438 15.799C5.19866 15.799 5.47104 15.5772 5.54437 15.2709C6.87482 9.41989 12.0814 5.04748 18.2936 5.04748C24.5059 5.04748 29.702 9.41989 31.0429 15.2709C31.1163 15.5772 31.3886 15.799 31.7029 15.799H31.682Z" fill="#FF8B00"/>
<path d="M30.0368 24.0057C28.4339 27.3114 25.5007 29.8356 21.9388 30.8812C21.6665 30.9657 21.415 31.2614 21.415 31.5571C21.415 32.0007 21.8446 32.3281 22.2636 32.2013C26.213 31.0501 29.4711 28.2408 31.252 24.576C31.4615 24.1324 31.1472 23.6255 30.6653 23.6255H30.6339C30.3825 23.6255 30.152 23.7733 30.0368 24.0057Z" fill="#FF0033"/>
<path d="M6.05852 17.0034C6.05852 16.6709 5.79118 16.4014 5.46139 16.4014C5.1316 16.4014 4.86426 16.6709 4.86426 17.0034V22.02C4.86426 22.3525 5.1316 22.622 5.46139 22.622C5.79118 22.622 6.05852 22.3525 6.05852 22.02V17.0034Z" fill="#FFC251"/>
<path d="M4.44426 18.6088C4.44426 18.2764 4.17692 18.0068 3.84713 18.0068C3.51734 18.0068 3.25 18.2764 3.25 18.6088V20.6155C3.25 20.948 3.51734 21.2175 3.84713 21.2175C4.17692 21.2175 4.44426 20.948 4.44426 20.6155V18.6088Z" fill="#FFC251"/>
<path d="M31.5146 17.0034C31.5146 16.6709 31.2472 16.4014 30.9174 16.4014C30.5877 16.4014 30.3203 16.6709 30.3203 17.0034V22.02C30.3203 22.3525 30.5877 22.622 30.9174 22.622C31.2472 22.622 31.5146 22.3525 31.5146 22.02V17.0034Z" fill="#FF4C2A"/>
<path d="M33.1288 18.6088C33.1288 18.2764 32.8615 18.0068 32.5317 18.0068C32.2019 18.0068 31.9346 18.2764 31.9346 18.6088V20.6155C31.9346 20.948 32.2019 21.2175 32.5317 21.2175C32.8615 21.2175 33.1288 20.948 33.1288 20.6155V18.6088Z" fill="#FF4C2A"/>
<path d="M18.2635 11.7646C14.9531 11.7646 12.2607 14.4789 12.2607 17.8163C12.2607 21.1537 14.9531 23.868 18.2635 23.868C19.4054 23.868 20.4739 23.5406 21.3853 22.9808L24.2453 24.2271H24.2662V17.8269C24.2662 14.4895 21.5739 11.7752 18.2635 11.7752V11.7646ZM21.2596 21.4494L21.2177 21.5445L21.1339 21.5022C20.3377 22.1359 19.3425 22.5056 18.2635 22.5056C15.6969 22.5056 13.6121 20.4039 13.6121 17.8163C13.6121 15.2288 15.6969 13.1271 18.2635 13.1271C20.6939 13.1271 22.6948 15.0176 22.9043 17.4256V18.2071C22.9043 18.2705 22.8939 18.3338 22.8834 18.3972L22.9043 18.3761V22.1571L21.2596 21.4494Z" fill="#CC0033"/>
</svg>
