<svg width="36" height="37" viewBox="0 0 36 37" fill="none" xmlns="http://www.w3.org/2000/svg">
<path d="M20.4884 7.83789H20.4803C20.1395 7.83789 19.8633 8.11412 19.8633 8.45486V21.1028C19.8633 21.4435 20.1395 21.7197 20.4803 21.7197H20.4884C20.8291 21.7197 21.1053 21.4435 21.1053 21.1028V8.45486C21.1053 8.11412 20.8291 7.83789 20.4884 7.83789Z" fill="#6EE8DC"/>
<path d="M24.4503 10.5654H24.4422C24.1014 10.5654 23.8252 10.8417 23.8252 11.1824V19.6414C23.8252 19.9821 24.1014 20.2584 24.4422 20.2584H24.4503C24.791 20.2584 25.0673 19.9821 25.0673 19.6414V11.1824C25.0673 10.8417 24.791 10.5654 24.4503 10.5654Z" fill="#93F7E6"/>
<path d="M12.5567 10.6138H12.5486C12.2079 10.6138 11.9316 10.89 11.9316 11.2307V21.0942C11.9316 21.4349 12.2079 21.7111 12.5486 21.7111H12.5567C12.8975 21.7111 13.1737 21.4349 13.1737 21.0942V11.2307C13.1737 10.89 12.8975 10.6138 12.5567 10.6138Z" fill="#00C7B1"/>
<path d="M8.59579 14.5269H8.58767C8.24693 14.5269 7.9707 14.8031 7.9707 15.1438V15.3955C7.9707 15.7362 8.24693 16.0125 8.58767 16.0125H8.59579C8.93653 16.0125 9.21276 15.7362 9.21276 15.3955V15.1438C9.21276 14.8031 8.93653 14.5269 8.59579 14.5269Z" fill="#009F8F"/>
<path d="M28.421 14.5269H28.4129C28.0721 14.5269 27.7959 14.8031 27.7959 15.1438V15.3955C27.7959 15.7362 28.0721 16.0125 28.4129 16.0125H28.421C28.7617 16.0125 29.038 15.7362 29.038 15.3955V15.1438C29.038 14.8031 28.7617 14.5269 28.421 14.5269Z" fill="#009F8F"/>
<path d="M16.5196 3.62451H16.5115C16.1708 3.62451 15.8945 3.90074 15.8945 4.24148V25.3078C15.8945 25.6485 16.1708 25.9247 16.5115 25.9247H16.5196C16.8604 25.9247 17.1366 25.6485 17.1366 25.3078V4.24148C17.1366 3.90074 16.8604 3.62451 16.5196 3.62451Z" fill="#00C7B1"/>
<path d="M22.4435 33.905C22.3217 33.905 22.1919 33.8644 22.0863 33.7913L18.0517 31.023C17.9786 30.9743 17.8893 30.95 17.8 30.95H10.5425C9.12182 30.95 7.96094 29.7972 7.96094 28.3685V23.8142C7.96094 23.4733 8.23695 23.1973 8.57791 23.1973C8.91887 23.1973 9.19488 23.4733 9.19488 23.8142V28.3685C9.19488 29.1072 9.79561 29.7079 10.5344 29.7079H17.7919C18.1328 29.7079 18.4576 29.8135 18.7417 30.0002L21.8184 32.1109L21.786 29.8784L22.1513 29.505H22.4192H26.5188C27.2575 29.505 27.8582 28.9042 27.8582 28.1655V25.0644C27.8582 24.7235 28.1343 24.4474 28.4752 24.4474C28.8162 24.4474 29.0922 24.7235 29.0922 25.0644V28.1655C29.0922 29.5862 27.9394 30.747 26.5107 30.747H23.028L23.0686 33.6371L22.7276 33.8319C22.6302 33.8806 22.5247 33.905 22.4273 33.905H22.4435Z" fill="#007E70"/>
</svg>
