<svg width="36" height="36" viewBox="0 0 36 36" fill="none" xmlns="http://www.w3.org/2000/svg">
<path d="M20.2762 20.7867H11.3214C8.98179 20.7867 7.08594 18.8882 7.08594 16.5453V4.03102C7.08594 4.03102 7.12627 3.98255 7.15048 4.00679L10.1838 8.00586C10.684 8.66833 11.4666 9.04804 12.2895 9.04804H20.2762C22.6158 9.04804 24.5117 10.9466 24.5117 13.2895V16.5372C24.5117 18.8801 22.6158 20.7786 20.2762 20.7786V20.7867Z" stroke="#FF33FF" stroke-width="1.5" stroke-miterlimit="10"/>
<path d="M25.6093 14.3882H16.6544C14.3148 14.3882 12.4189 16.2867 12.4189 18.6296V31.1439C12.4189 31.1439 12.4593 31.1924 12.4835 31.1681L15.5169 27.169C16.017 26.5066 16.7996 26.1269 17.6225 26.1269H25.6093C27.9488 26.1269 29.8447 24.2283 29.8447 21.8854V18.6377C29.8447 16.2948 27.9488 14.3963 25.6093 14.3963V14.3882Z" stroke="#C000C0" stroke-width="1.5" stroke-miterlimit="10"/>
<path d="M16.4849 18.0077C16.7166 18.0077 16.9044 17.8196 16.9044 17.5876C16.9044 17.3556 16.7166 17.1675 16.4849 17.1675C16.2533 17.1675 16.0654 17.3556 16.0654 17.5876C16.0654 17.8196 16.2533 18.0077 16.4849 18.0077Z" stroke="#FF33FF" stroke-width="1.5" stroke-miterlimit="10"/>
<path d="M20.4459 18.0077C20.6776 18.0077 20.8654 17.8196 20.8654 17.5876C20.8654 17.3556 20.6776 17.1675 20.4459 17.1675C20.2142 17.1675 20.0264 17.3556 20.0264 17.5876C20.0264 17.8196 20.2142 18.0077 20.4459 18.0077Z" stroke="#FF33FF" stroke-width="1.5" stroke-miterlimit="10"/>
</svg>
