<svg width="36" height="36" viewBox="0 0 36 36" fill="none" xmlns="http://www.w3.org/2000/svg">
<rect width="36" height="36" rx="6" fill="#FFEDE2"/>
<path fill-rule="evenodd" clip-rule="evenodd" d="M19.0031 10.2348C18.3646 9.95026 17.6358 9.95026 16.9974 10.2348C16.7163 10.3601 16.3911 10.6427 15.9198 11.3098C15.4508 11.9734 14.9116 12.9053 14.1555 14.2144L11.2216 19.2942C10.4628 20.6079 9.923 21.5441 9.58116 22.2848C9.23749 23.0295 9.1549 23.4539 9.18686 23.7611C9.25943 24.4589 9.62414 25.093 10.1902 25.5055C10.4394 25.6872 10.8473 25.8282 11.6624 25.9031C12.4731 25.9777 13.5519 25.9786 15.0663 25.9786H20.9342C22.4486 25.9786 23.5274 25.9777 24.3381 25.9031C25.1532 25.8282 25.5611 25.6872 25.8102 25.5055C26.3764 25.093 26.7411 24.4589 26.8136 23.7611C26.8456 23.4539 26.763 23.0295 26.4194 22.2848C26.0774 21.5441 25.5378 20.6079 24.7789 19.2942L21.845 14.2144C21.0889 12.9053 20.5497 11.9734 20.0808 11.3097C19.6095 10.6427 19.2842 10.3601 19.0031 10.2348ZM16.3289 8.72775C17.3929 8.25351 18.6076 8.25351 19.6715 8.72775C20.3662 9.03736 20.903 9.61977 21.4235 10.3564C21.9413 11.0892 22.5177 12.0872 23.2472 13.3503L23.269 13.388L26.2029 18.4677L26.2247 18.5055C26.9569 19.7731 27.5354 20.7747 27.9126 21.5922C28.292 22.4139 28.5292 23.1726 28.4502 23.9321C28.3292 25.0951 27.7213 26.1518 26.7778 26.8395C26.1618 27.2886 25.3879 27.4628 24.4884 27.5456C23.5935 27.6279 22.439 27.6279 20.9777 27.6279H20.9342H15.0663H15.0229C13.5615 27.6279 12.407 27.6279 11.5121 27.5456C10.6126 27.4628 9.83875 27.2886 9.2226 26.8395C8.27913 26.1518 7.67127 25.0951 7.55031 23.9321C7.47132 23.1726 7.70859 22.4139 8.08782 21.5922C8.46516 20.7747 9.04361 19.7732 9.77582 18.5055L9.79758 18.4677L12.7315 13.388L12.7533 13.3504C13.4828 12.0873 14.0592 11.0892 14.577 10.3564C15.0976 9.61977 15.6343 9.03736 16.3289 8.72775ZM18.0002 14.4333C18.4546 14.4333 18.8229 14.8025 18.8229 15.2579V19.1064C18.8229 19.5618 18.4546 19.931 18.0002 19.931C17.5459 19.931 17.1775 19.5618 17.1775 19.1064V15.2579C17.1775 14.8025 17.5459 14.4333 18.0002 14.4333ZM18.0002 21.3055C17.3944 21.3055 16.9033 21.7977 16.9033 22.405C16.9033 23.0123 17.3944 23.5046 18.0002 23.5046H18.0112C18.6171 23.5046 19.1082 23.0123 19.1082 22.405C19.1082 21.7977 18.6171 21.3055 18.0112 21.3055H18.0002Z" fill="#FF7E36"/>
</svg>
