<svg width="51" height="51" viewBox="0 0 51 51" fill="none" xmlns="http://www.w3.org/2000/svg">
<g filter="url(#filter0_d_44_12172)">
<rect x="4" y="2" width="43" height="43" rx="6" fill="white"/>
<path fill-rule="evenodd" clip-rule="evenodd" d="M26.6978 14.2249C25.9352 13.8851 25.0647 13.8851 24.3021 14.2249C23.9663 14.3746 23.578 14.7121 23.015 15.5089C22.4548 16.3016 21.8107 17.4147 20.9076 18.9783L17.4032 25.0458C16.4969 26.615 15.8522 27.7332 15.4438 28.618C15.0333 29.5074 14.9347 30.0144 14.9729 30.3813C15.0596 31.2148 15.4952 31.9722 16.1713 32.465C16.469 32.6819 16.9562 32.8504 17.9298 32.9399C18.8982 33.0289 20.1867 33.03 21.9955 33.03H29.0044C30.8132 33.03 32.1018 33.0289 33.0702 32.9399C34.0437 32.8504 34.531 32.6819 34.8286 32.465C35.5048 31.9722 35.9404 31.2148 36.027 30.3813C36.0653 30.0144 35.9666 29.5074 35.5561 28.618C35.1477 27.7332 34.5031 26.615 33.5967 25.0458L30.0923 18.9783C29.1892 17.4147 28.5452 16.3016 27.9851 15.5089C27.4221 14.7121 27.0336 14.3746 26.6978 14.2249ZM23.5037 12.4248C24.7745 11.8584 26.2254 11.8584 27.4962 12.4248C28.326 12.7947 28.9671 13.4903 29.5888 14.3702C30.2074 15.2455 30.8958 16.4376 31.7672 17.9462L31.7931 17.9913L35.2976 24.0587L35.3236 24.1038C36.1982 25.6179 36.8892 26.8143 37.3398 27.7907C37.7928 28.7722 38.0762 29.6784 37.9819 30.5856C37.8374 31.9747 37.1113 33.237 35.9843 34.0583C35.2485 34.5947 34.3241 34.8029 33.2497 34.9018C32.1808 35 30.8018 35 29.0563 35H29.0044H21.9955H21.9437C20.1981 35 18.8191 35 17.7502 34.9018C16.6759 34.8029 15.7515 34.5947 15.0156 34.0583C13.8886 33.237 13.1626 31.9747 13.0181 30.5856C12.9238 29.6784 13.2072 28.7722 13.6601 27.7907C14.1108 26.8143 14.8018 25.6181 15.6763 24.1038L15.7023 24.0587L19.2068 17.9913L19.2327 17.9463C20.1041 16.4376 20.7926 15.2455 21.4111 14.3702C22.0329 13.4903 22.674 12.7947 23.5037 12.4248ZM25.5 19.2397C26.0427 19.2397 26.4826 19.6808 26.4826 20.2248V24.8215C26.4826 25.3655 26.0427 25.8065 25.5 25.8065C24.9573 25.8065 24.5173 25.3655 24.5173 24.8215V20.2248C24.5173 19.6808 24.9573 19.2397 25.5 19.2397ZM25.5 27.4482C24.7763 27.4482 24.1897 28.0362 24.1897 28.7616C24.1897 29.4869 24.7763 30.0749 25.5 30.0749H25.5131C26.2367 30.0749 26.8233 29.4869 26.8233 28.7616C26.8233 28.0362 26.2367 27.4482 25.5131 27.4482H25.5Z" fill="#FF7E36"/>
</g>
<defs>
<filter id="filter0_d_44_12172" x="0" y="0" width="51" height="51" filterUnits="userSpaceOnUse" color-interpolation-filters="sRGB">
<feFlood flood-opacity="0" result="BackgroundImageFix"/>
<feColorMatrix in="SourceAlpha" type="matrix" values="0 0 0 0 0 0 0 0 0 0 0 0 0 0 0 0 0 0 127 0" result="hardAlpha"/>
<feOffset dy="2"/>
<feGaussianBlur stdDeviation="2"/>
<feComposite in2="hardAlpha" operator="out"/>
<feColorMatrix type="matrix" values="0 0 0 0 0 0 0 0 0 0 0 0 0 0 0 0 0 0 0.12 0"/>
<feBlend mode="normal" in2="BackgroundImageFix" result="effect1_dropShadow_44_12172"/>
<feBlend mode="normal" in="SourceGraphic" in2="effect1_dropShadow_44_12172" result="shape"/>
</filter>
</defs>
</svg>
