<svg width="280" height="134" viewBox="0 0 280 134" fill="none" xmlns="http://www.w3.org/2000/svg">
<g filter="url(#filter0_d_2681_56031)">
<rect x="14" y="9" width="252" height="106" rx="6" fill="white"/>
<rect x="14.5" y="9.5" width="251" height="105" rx="5.5" stroke="#B9C3E7"/>
</g>
<path d="M26 38C26 31.3726 31.3726 26 38 26H59C65.6274 26 71 31.3726 71 38V41C71 47.6274 65.6274 53 59 53H26V38Z" fill="#E6E6E6"/>
<rect x="37.7" y="36.7998" width="4.5" height="4.5" rx="2.25" fill="#686868"/>
<rect x="45.8" y="36.7998" width="4.5" height="4.5" rx="2.25" fill="#686868"/>
<rect x="53.9001" y="36.7998" width="4.5" height="4.5" rx="2.25" fill="#686868"/>
<rect x="26.5" y="63.5" width="227" height="38" rx="4.5" fill="white"/>
<path d="M44.072 78.136V79.024H41.792V86.5H40.7V79.024H38.408V78.136H44.072ZM51.0802 79.924L47.1202 89.596H45.9922L47.2882 86.428L44.6362 79.924H45.8482L47.9122 85.252L49.9522 79.924H51.0802ZM53.2699 81.136C53.4859 80.76 53.8059 80.448 54.2299 80.2C54.6619 79.944 55.1619 79.816 55.7299 79.816C56.3139 79.816 56.8419 79.956 57.3139 80.236C57.7939 80.516 58.1699 80.912 58.4419 81.424C58.7139 81.928 58.8499 82.516 58.8499 83.188C58.8499 83.852 58.7139 84.444 58.4419 84.964C58.1699 85.484 57.7939 85.888 57.3139 86.176C56.8419 86.464 56.3139 86.608 55.7299 86.608C55.1699 86.608 54.6739 86.484 54.2419 86.236C53.8179 85.98 53.4939 85.664 53.2699 85.288V89.62H52.1779V79.924H53.2699V81.136ZM57.7339 83.188C57.7339 82.692 57.6339 82.26 57.4339 81.892C57.2339 81.524 56.9619 81.244 56.6179 81.052C56.2819 80.86 55.9099 80.764 55.5019 80.764C55.1019 80.764 54.7299 80.864 54.3859 81.064C54.0499 81.256 53.7779 81.54 53.5699 81.916C53.3699 82.284 53.2699 82.712 53.2699 83.2C53.2699 83.696 53.3699 84.132 53.5699 84.508C53.7779 84.876 54.0499 85.16 54.3859 85.36C54.7299 85.552 55.1019 85.648 55.5019 85.648C55.9099 85.648 56.2819 85.552 56.6179 85.36C56.9619 85.16 57.2339 84.876 57.4339 84.508C57.6339 84.132 57.7339 83.692 57.7339 83.188ZM66.2873 82.96C66.2873 83.168 66.2753 83.388 66.2513 83.62H60.9953C61.0353 84.268 61.2553 84.776 61.6553 85.144C62.0633 85.504 62.5553 85.684 63.1313 85.684C63.6033 85.684 63.9953 85.576 64.3073 85.36C64.6273 85.136 64.8513 84.84 64.9793 84.472H66.1553C65.9793 85.104 65.6273 85.62 65.0993 86.02C64.5713 86.412 63.9153 86.608 63.1313 86.608C62.5073 86.608 61.9473 86.468 61.4513 86.188C60.9633 85.908 60.5793 85.512 60.2993 85C60.0193 84.48 59.8793 83.88 59.8793 83.2C59.8793 82.52 60.0153 81.924 60.2873 81.412C60.5593 80.9 60.9393 80.508 61.4273 80.236C61.9233 79.956 62.4913 79.816 63.1313 79.816C63.7553 79.816 64.3073 79.952 64.7873 80.224C65.2673 80.496 65.6353 80.872 65.8913 81.352C66.1553 81.824 66.2873 82.36 66.2873 82.96ZM65.1593 82.732C65.1593 82.316 65.0673 81.96 64.8833 81.664C64.6993 81.36 64.4473 81.132 64.1273 80.98C63.8153 80.82 63.4673 80.74 63.0833 80.74C62.5313 80.74 62.0593 80.916 61.6673 81.268C61.2833 81.62 61.0633 82.108 61.0073 82.732H65.1593Z" fill="#7A7A7A"/>
<path d="M208 82.0632L201.381 88.3056C200.57 89.0704 199.47 89.5 198.324 89.5C197.177 89.5 196.077 89.0704 195.266 88.3056C194.456 87.5409 194 86.5037 194 85.4221C194 84.3407 194.456 83.3034 195.266 82.5387L201.885 76.2962C202.426 75.7864 203.159 75.5 203.924 75.5C204.688 75.5 205.421 75.7864 205.962 76.2962C206.502 76.8061 206.806 77.4976 206.806 78.2186C206.806 78.9396 206.502 79.6311 205.962 80.1409L199.336 86.3833C199.065 86.6382 198.699 86.7814 198.317 86.7814C197.934 86.7814 197.568 86.6382 197.297 86.3833C197.027 86.1284 196.875 85.7827 196.875 85.4221C196.875 85.0617 197.027 84.7159 197.297 84.461L203.412 78.7008" stroke="#555555" stroke-width="1.5" stroke-linecap="round" stroke-linejoin="round"/>
<path d="M236.719 82.0627L226.162 76.1502C226.074 76.1011 225.972 76.0802 225.871 76.0904C225.77 76.1006 225.674 76.1413 225.597 76.2071C225.519 76.2729 225.464 76.3608 225.438 76.4589C225.411 76.557 225.416 76.6608 225.45 76.7565L227.437 82.3315C227.481 82.4397 227.481 82.5607 227.437 82.669L225.45 88.244C225.416 88.3396 225.411 88.4434 225.438 88.5416C225.464 88.6397 225.519 88.7276 225.597 88.7934C225.674 88.8592 225.77 88.8999 225.871 88.9101C225.972 88.9202 226.074 88.8994 226.162 88.8502L236.719 82.9377C236.797 82.8945 236.862 82.8311 236.907 82.7542C236.953 82.6772 236.977 82.5896 236.977 82.5002C236.977 82.4109 236.953 82.3232 236.907 82.2463C236.862 82.1694 236.797 82.106 236.719 82.0627V82.0627Z" stroke="#555555" stroke-width="1.5" stroke-linecap="round" stroke-linejoin="round"/>
<path d="M227.5 82.5H231.5" stroke="#555555" stroke-width="1.5" stroke-linecap="round" stroke-linejoin="round"/>
<rect x="26.5" y="63.5" width="227" height="38" rx="4.5" stroke="#AFB5BF"/>
<defs>
<filter id="filter0_d_2681_56031" x="0" y="0" width="280" height="134" filterUnits="userSpaceOnUse" color-interpolation-filters="sRGB">
<feFlood flood-opacity="0" result="BackgroundImageFix"/>
<feColorMatrix in="SourceAlpha" type="matrix" values="0 0 0 0 0 0 0 0 0 0 0 0 0 0 0 0 0 0 127 0" result="hardAlpha"/>
<feOffset dy="5"/>
<feGaussianBlur stdDeviation="7"/>
<feComposite in2="hardAlpha" operator="out"/>
<feColorMatrix type="matrix" values="0 0 0 0 0.252083 0 0 0 0 0.304792 0 0 0 0 0.366667 0 0 0 0.28 0"/>
<feBlend mode="normal" in2="BackgroundImageFix" result="effect1_dropShadow_2681_56031"/>
<feBlend mode="normal" in="SourceGraphic" in2="effect1_dropShadow_2681_56031" result="shape"/>
</filter>
</defs>
</svg>
