<svg width="34" height="34" viewBox="0 0 34 34" fill="none" xmlns="http://www.w3.org/2000/svg">
<g clip-path="url(#clip0_538_20675)">
<path d="M17.2818 18.2055V14.7929C17.8032 14.6086 18.2427 14.2459 18.5225 13.7689C18.8024 13.2919 18.9046 12.7313 18.8111 12.1862C18.7176 11.6412 18.4344 11.1467 18.0116 10.7903C17.5888 10.4338 17.0536 10.2383 16.5006 10.2383C15.9475 10.2383 15.4123 10.4338 14.9895 10.7903C14.5667 11.1467 14.2835 11.6412 14.19 12.1862C14.0965 12.7313 14.1987 13.2919 14.4786 13.7689C14.7584 14.2459 15.1979 14.6086 15.7193 14.7929V18.2059C15.198 18.3902 14.7587 18.7528 14.479 19.2297C14.1992 19.7066 14.0971 20.267 14.1906 20.812C14.284 21.3569 14.5672 21.8512 14.9899 22.2076C15.4126 22.5639 15.9477 22.7594 16.5006 22.7594C17.0534 22.7594 17.5885 22.5639 18.0112 22.2076C18.4339 21.8512 18.7171 21.3569 18.8105 20.812C18.904 20.267 18.8019 19.7066 18.5221 19.2297C18.2424 18.7528 17.8031 18.3902 17.2818 18.2059V18.2055ZM16.5006 11.8117C16.6551 11.8117 16.8061 11.8575 16.9346 11.9434C17.0631 12.0292 17.1632 12.1512 17.2223 12.294C17.2815 12.4367 17.2969 12.5938 17.2668 12.7454C17.2366 12.8969 17.1622 13.0361 17.053 13.1454C16.9437 13.2546 16.8045 13.329 16.653 13.3592C16.5014 13.3893 16.3443 13.3739 16.2016 13.3147C16.0588 13.2556 15.9368 13.1555 15.851 13.027C15.7651 12.8985 15.7193 12.7475 15.7193 12.5929C15.7195 12.3858 15.8019 12.1872 15.9483 12.0407C16.0948 11.8943 16.2934 11.8119 16.5006 11.8117V11.8117ZM16.5006 21.1867C16.346 21.1867 16.195 21.1409 16.0665 21.055C15.938 20.9692 15.8379 20.8472 15.7788 20.7044C15.7196 20.5617 15.7042 20.4046 15.7343 20.253C15.7645 20.1015 15.8389 19.9623 15.9481 19.853C16.0574 19.7438 16.1966 19.6694 16.3481 19.6392C16.4997 19.6091 16.6568 19.6245 16.7995 19.6837C16.9423 19.7428 17.0643 19.8429 17.1501 19.9714C17.236 20.0999 17.2818 20.2509 17.2818 20.4054C17.2816 20.6126 17.1992 20.8112 17.0528 20.9577C16.9063 21.1041 16.7077 21.1865 16.5006 21.1867V21.1867Z" fill="url(#paint0_linear_538_20675)"/>
<path d="M27.761 17.6048C27.9061 17.4597 28.0212 17.2875 28.0998 17.0979C28.1783 16.9083 28.2187 16.7052 28.2187 16.5C28.2187 16.2948 28.1783 16.0916 28.0998 15.9021C28.0212 15.7125 27.9061 15.5403 27.761 15.3952L23.24 10.8744L25.5061 8.63787C25.8403 8.72069 26.1925 8.6909 26.508 8.55313C26.8236 8.41535 27.0848 8.17729 27.2513 7.87588C27.4177 7.57447 27.48 7.22655 27.4286 6.88611C27.3771 6.54566 27.2147 6.23171 26.9666 5.99297C26.7185 5.75423 26.3986 5.60404 26.0564 5.5657C25.7142 5.52736 25.369 5.60301 25.0742 5.78092C24.7794 5.95883 24.5515 6.22905 24.426 6.54966C24.3004 6.87027 24.2842 7.22335 24.3798 7.55412L22.1351 9.76936L17.6048 5.23897C17.4597 5.09386 17.2875 4.97875 17.0979 4.90021C16.9083 4.82167 16.7052 4.78125 16.5 4.78125C16.2948 4.78125 16.0916 4.82167 15.9021 4.90021C15.7125 4.97875 15.5403 5.09386 15.3952 5.23897L10.8744 9.75983L8.63811 7.4935C8.72088 7.15924 8.69102 6.807 8.55317 6.49144C8.41531 6.17588 8.17717 5.91463 7.87568 5.74823C7.5742 5.58183 7.22622 5.51958 6.88575 5.57113C6.54527 5.62268 6.23132 5.78516 5.99261 6.03335C5.7539 6.28155 5.60377 6.60159 5.56552 6.94381C5.52726 7.28604 5.60302 7.63133 5.78103 7.9261C5.95905 8.22088 6.22937 8.44867 6.55006 8.57413C6.87075 8.69959 7.22388 8.71571 7.55467 8.61998L9.76952 10.8649L5.23897 15.3952C5.09386 15.5403 4.97875 15.7125 4.90021 15.9021C4.82167 16.0916 4.78125 16.2948 4.78125 16.5C4.78125 16.7052 4.82167 16.9083 4.90021 17.0979C4.97875 17.2875 5.09386 17.4597 5.23897 17.6048L9.76936 22.1351L7.55467 24.38C7.22463 24.285 6.87246 24.3015 6.55275 24.4269C6.23304 24.5524 5.96363 24.7798 5.7863 25.0739C5.60896 25.368 5.5336 25.7124 5.57189 26.0537C5.61018 26.3951 5.75998 26.7142 5.99807 26.9617C6.23617 27.2092 6.54926 27.3713 6.88883 27.4228C7.22839 27.4743 7.57546 27.4124 7.87625 27.2466C8.17703 27.0808 8.41473 26.8204 8.5525 26.5058C8.69026 26.1912 8.72041 25.8399 8.63827 25.5065L10.8746 23.2401L15.3954 27.761C15.5404 27.9061 15.7127 28.0212 15.9022 28.0998C16.0918 28.1783 16.295 28.2187 16.5001 28.2187C16.7053 28.2187 16.9085 28.1783 17.0981 28.0998C17.2876 28.0212 17.4598 27.9061 17.6049 27.761L22.1352 23.2306L24.38 25.4458C24.285 25.776 24.3015 26.1282 24.427 26.448C24.5525 26.7677 24.78 27.0371 25.0742 27.2145C25.3684 27.3918 25.7129 27.4671 26.0543 27.4288C26.3956 27.3905 26.7148 27.2406 26.9623 27.0024C27.2099 26.7642 27.3719 26.451 27.4234 26.1114C27.4748 25.7717 27.4128 25.4246 27.2469 25.1238C27.081 24.823 26.8205 24.5853 26.5058 24.4476C26.1911 24.3099 25.8398 24.2798 25.5062 24.3621L23.2401 22.1255L27.761 17.6048ZM16.5 26.6562L6.34373 16.5L16.5 6.34373L26.6562 16.5L16.5 26.6562Z" fill="url(#paint1_linear_538_20675)"/>
</g>
<defs>
<linearGradient id="paint0_linear_538_20675" x1="16.5006" y1="10.2383" x2="16.5006" y2="22.7594" gradientUnits="userSpaceOnUse">
<stop stop-color="#000AFF"/>
<stop offset="1" stop-color="#D274FF"/>
</linearGradient>
<linearGradient id="paint1_linear_538_20675" x1="16.5" y1="4.78125" x2="16.5" y2="28.2187" gradientUnits="userSpaceOnUse">
<stop stop-color="#000AFF"/>
<stop offset="1" stop-color="#D274FF"/>
</linearGradient>
<clipPath id="clip0_538_20675">
<rect width="25" height="25" fill="white" transform="translate(4 4)"/>
</clipPath>
</defs>
</svg>
