<svg width="181" height="173" viewBox="0 0 181 173" fill="none" xmlns="http://www.w3.org/2000/svg">
<g id="OBJECTS">
<path id="Vector" d="M167.64 97.4612C180.797 84.4867 184.812 61.9442 172.11 47.3638C160.951 34.554 140.763 30.1501 125.413 37.5718C119.216 40.5681 114.116 45.4091 110.576 51.2928C106.264 58.4601 104.55 66.8761 99.5094 73.6375C88.0565 88.9987 66.8022 78.9023 52.0794 86.7934C35.5888 95.6321 28.1839 116.904 33.2044 134.481C37.9564 151.116 53.2607 162.505 70.1099 164.637C90.0109 167.155 107.639 156.33 116.591 138.714C121.147 129.75 125.092 120.169 133.978 114.676C142.675 109.299 153.174 107.757 161.78 102.181C163.89 100.815 165.85 99.2262 167.64 97.4612Z" fill="#D5F0FE"/>
<path id="Vector_2" d="M93.5415 162.255L93.3117 159.479C93.2824 159.124 92.8847 158.888 92.53 158.917L90.9335 159.049L90.9265 159.05C90.6568 158.262 90.2412 157.374 89.7 156.63L90.7345 155.398C90.9647 155.126 90.9316 154.719 90.6596 154.489L88.5347 152.689C88.2631 152.458 87.8576 152.492 87.6278 152.764L86.5952 153.985L86.5959 153.99C85.7995 153.583 85.0607 153.286 84.0367 153.153L83.9044 151.557C83.8752 151.202 83.538 150.91 83.1833 150.94L80.4071 151.169C80.0523 151.199 79.9317 151.528 79.961 151.883L80.0933 153.48L80.0941 153.487C79.1048 153.773 78.3575 154.178 77.6141 154.719L76.3216 153.69C76.05 153.46 75.6433 153.494 75.4131 153.766L73.6125 155.893C73.3822 156.164 73.4162 156.573 73.6878 156.803L74.9104 157.843L74.9167 157.857C74.5089 158.653 74.2146 159.421 74.0812 160.445L72.4851 160.577C72.1303 160.606 71.9543 160.875 71.9836 161.23L72.2135 164.006C72.2427 164.361 72.4566 164.55 72.8113 164.52L74.4078 164.388L74.4152 164.388C74.7013 165.377 75.1044 166.095 75.6457 166.839L74.615 168.102C74.3848 168.373 74.4211 168.78 74.6927 169.01L76.823 170.81C77.0947 171.041 77.5114 171.006 77.7413 170.734L78.7961 169.511L78.8398 169.502C79.6363 169.909 80.4644 170.199 81.4884 170.332L81.6207 171.928C81.65 172.283 81.8034 172.527 82.1581 172.497L84.9343 172.268C85.289 172.238 85.5934 171.957 85.5641 171.601L85.4318 170.005L85.4311 169.998C86.4203 169.711 87.0783 169.314 87.8217 168.773L89.0248 169.809C89.2968 170.039 89.7031 170.003 89.9333 169.732L91.7335 167.603C91.9638 167.332 91.9294 166.919 91.6578 166.689L90.4344 165.641L90.427 165.612C90.8348 164.815 91.1267 164.017 91.2602 162.993L92.8563 162.86C93.2114 162.831 93.5712 162.61 93.5415 162.255ZM80.8804 158.145C81.3261 157.921 81.8209 157.777 82.3485 157.733C83.0041 157.679 83.6355 157.786 84.2045 158.02C84.2642 158.045 84.3236 158.071 84.3821 158.098C84.4114 158.112 84.4402 158.126 84.4691 158.14C84.5269 158.169 84.5838 158.199 84.64 158.231C84.6962 158.262 84.7516 158.295 84.8059 158.329C84.8332 158.346 84.8601 158.364 84.8871 158.382C84.9944 158.452 85.0982 158.528 85.1977 158.609C85.2227 158.629 85.2473 158.649 85.2718 158.67C85.3206 158.711 85.3686 158.754 85.4158 158.798C85.4393 158.82 85.4627 158.842 85.4853 158.864C85.5314 158.909 85.5758 158.955 85.6199 159.002C85.6418 159.026 85.6633 159.05 85.6847 159.074C85.7148 159.108 85.744 159.142 85.7729 159.177C85.8057 159.217 85.8377 159.256 85.8689 159.297C85.9079 159.349 85.9462 159.401 85.9829 159.454C86.0317 159.525 86.0785 159.598 86.123 159.672C86.1452 159.709 86.1671 159.746 86.1881 159.784C86.2198 159.841 86.2498 159.898 86.2787 159.957C86.322 160.045 86.3622 160.134 86.3993 160.226C86.4239 160.287 86.4473 160.348 86.4687 160.411C86.5772 160.724 86.6486 161.055 86.6771 161.4C86.7286 162.021 86.6358 162.62 86.4262 163.166C86.3915 163.256 86.3532 163.346 86.3122 163.434C86.2849 163.492 86.256 163.55 86.2256 163.607C86.1956 163.664 86.164 163.72 86.1312 163.775C86.0492 163.914 85.9591 164.047 85.8611 164.174C85.8221 164.225 85.7815 164.275 85.7401 164.324C85.6781 164.397 85.6129 164.469 85.5458 164.537C85.5009 164.583 85.4549 164.628 85.4077 164.672C85.3842 164.694 85.3604 164.715 85.3362 164.737C85.2882 164.779 85.2391 164.821 85.1887 164.861C85.1134 164.922 85.0358 164.979 84.9561 165.034C84.9031 165.071 84.8488 165.107 84.7938 165.141C84.2709 165.466 83.6656 165.675 83.01 165.729C82.4582 165.775 81.9228 165.706 81.4279 165.544C81.3659 165.523 81.3046 165.502 81.2441 165.478C81.0623 165.408 80.8867 165.326 80.7185 165.231C80.6623 165.199 80.6069 165.167 80.5526 165.133C80.5253 165.116 80.4984 165.098 80.4714 165.08C80.3911 165.027 80.3126 164.972 80.2361 164.913C79.371 164.248 78.7786 163.235 78.6814 162.062C78.6349 161.503 78.7056 160.962 78.8726 160.462C78.944 160.248 79.0334 160.042 79.1388 159.844C79.1739 159.779 79.2109 159.714 79.2492 159.65C79.3456 159.491 79.4529 159.34 79.5704 159.196C79.6874 159.052 79.8147 158.917 79.9509 158.79C79.9743 158.768 79.9981 158.747 80.0223 158.725C80.0703 158.683 80.1194 158.641 80.1698 158.601C80.2201 158.561 80.2712 158.521 80.3231 158.483C80.4277 158.408 80.5358 158.337 80.6478 158.271C80.6841 158.249 80.7212 158.229 80.7587 158.208C80.7989 158.187 80.8394 158.165 80.8804 158.145Z" stroke="#9DBFF3" stroke-miterlimit="10" stroke-linecap="round" stroke-linejoin="round"/>
<path id="Vector_3" d="M135.279 43.7898L135.049 41.0136C135.02 40.6585 134.622 40.4224 134.267 40.4516L132.671 40.5839L132.664 40.5847C132.394 39.7968 131.978 38.9086 131.437 38.1648L132.472 36.9324C132.702 36.6608 132.668 36.2538 132.397 36.0239L130.272 34.2233C130 33.9931 129.595 34.0266 129.364 34.2983L128.332 35.5201L128.333 35.5252C127.536 35.1174 126.797 34.8204 125.773 34.6873L125.641 33.0912C125.612 32.7365 125.275 32.4446 124.92 32.4742L122.144 32.7041C121.789 32.7334 121.668 33.0631 121.698 33.4179L121.83 35.0144L121.83 35.0218C120.841 35.3078 120.094 35.7125 119.35 36.2538L118.058 35.2247C117.786 34.9945 117.38 35.0288 117.149 35.3004L115.349 37.4268C115.119 37.6985 115.153 38.1074 115.424 38.3377L116.647 39.3773L116.653 39.391C116.245 40.1874 115.951 40.9551 115.818 41.9791L114.221 42.1113C113.867 42.1406 113.691 42.4095 113.72 42.7646L113.95 45.5408C113.979 45.8959 114.193 46.0844 114.548 46.0548L116.144 45.9225L116.152 45.9217C116.438 46.911 116.841 47.629 117.382 48.3724L116.351 49.6357C116.121 49.9073 116.157 50.3139 116.429 50.5442L118.559 52.3444C118.831 52.5746 119.247 52.5399 119.478 52.2683L120.532 51.0445L120.576 51.0355C121.373 51.4433 122.201 51.7328 123.225 51.8659L123.357 53.462C123.386 53.8168 123.54 54.061 123.894 54.0314L126.671 53.8015C127.025 53.7723 127.33 53.4901 127.3 53.1354L127.168 51.5389L127.167 51.5315C128.157 51.2454 128.815 50.8478 129.558 50.3065L130.761 51.3426C131.033 51.5728 131.439 51.5377 131.67 51.2657L133.47 49.1373C133.7 48.8657 133.666 48.4524 133.394 48.2226L132.171 47.1752L132.163 47.1459C132.571 46.3494 132.863 45.5506 132.996 44.5266L134.593 44.3943C134.948 44.3658 135.308 44.1445 135.279 43.7898ZM122.617 39.6793C123.063 39.4557 123.558 39.3113 124.085 39.2676C124.741 39.2134 125.372 39.3199 125.941 39.5545C126.001 39.5791 126.06 39.6052 126.119 39.6325C126.148 39.6462 126.177 39.6602 126.206 39.6747C126.264 39.7035 126.321 39.7336 126.377 39.7652C126.433 39.7968 126.488 39.8296 126.543 39.8635C126.57 39.8807 126.597 39.8979 126.624 39.9158C126.731 39.9865 126.835 40.0626 126.934 40.143C126.959 40.1632 126.984 40.1835 127.009 40.2042C127.058 40.2456 127.105 40.2881 127.153 40.3322C127.176 40.3541 127.199 40.3763 127.222 40.3986C127.268 40.4434 127.313 40.4895 127.356 40.5367C127.378 40.5601 127.4 40.5839 127.421 40.6081C127.451 40.6421 127.48 40.6768 127.509 40.7115C127.542 40.751 127.574 40.7908 127.605 40.8317C127.644 40.8829 127.683 40.9352 127.719 40.9882C127.768 41.0592 127.815 41.1318 127.859 41.206C127.882 41.2431 127.903 41.2805 127.924 41.3184C127.956 41.3753 127.987 41.4327 128.015 41.4913C128.058 41.5791 128.099 41.6688 128.136 41.7601C128.16 41.821 128.184 41.8827 128.205 41.9455C128.314 42.2581 128.385 42.589 128.413 42.934C128.465 43.5549 128.372 44.1547 128.163 44.6998C128.128 44.7908 128.09 44.8801 128.048 44.9679C128.021 45.0265 127.992 45.0842 127.962 45.1412C127.931 45.1982 127.9 45.2544 127.867 45.3098C127.785 45.4479 127.695 45.5814 127.597 45.7082C127.558 45.759 127.518 45.8089 127.476 45.8581C127.414 45.9315 127.349 46.0029 127.282 46.0716C127.237 46.1176 127.191 46.1621 127.144 46.2062C127.121 46.228 127.097 46.2495 127.073 46.271C127.025 46.3135 126.975 46.3553 126.925 46.3955C126.85 46.456 126.772 46.5137 126.692 46.5687C126.639 46.6054 126.585 46.6409 126.53 46.6753C126.007 47 125.402 47.2091 124.746 47.2634C124.194 47.309 123.659 47.2407 123.164 47.078C123.102 47.0577 123.041 47.0359 122.98 47.0124C122.799 46.9426 122.623 46.8599 122.454 46.7654C122.398 46.7338 122.343 46.701 122.289 46.6671C122.261 46.6499 122.234 46.6327 122.207 46.6152C122.127 46.5621 122.049 46.5063 121.972 46.4474C121.107 45.7828 120.514 44.7697 120.417 43.5966C120.371 43.0382 120.442 42.4969 120.609 41.997C120.68 41.7828 120.769 41.5763 120.875 41.3789C120.91 41.3133 120.946 41.2485 120.985 41.1849C121.082 41.0261 121.189 40.8743 121.306 40.7303C121.423 40.5867 121.551 40.4509 121.687 40.3244C121.71 40.3026 121.734 40.2811 121.758 40.2596C121.806 40.2171 121.855 40.1757 121.906 40.1352C121.956 40.095 122.007 40.0555 122.059 40.0177C122.164 39.9416 122.272 39.871 122.384 39.805C122.42 39.7835 122.457 39.7629 122.495 39.7426C122.536 39.7211 122.576 39.7 122.617 39.6793Z" stroke="#9DBFF3" stroke-miterlimit="10" stroke-linecap="round" stroke-linejoin="round"/>
<g id="Group">
<g id="Group_2">
<g id="Group_3">
<path id="Vector_4" d="M129.095 62.8539C121.683 57.9532 112.799 55.1001 103.247 55.1001C87.5426 55.1001 73.6394 62.8145 65.1211 74.6611" stroke="#3F8ACE" stroke-width="2" stroke-linecap="round" stroke-linejoin="round"/>
<g id="Group_4">
<path id="Vector_5" d="M127.816 59.8648C127.718 59.9109 127.678 60.028 127.724 60.1251L129.011 62.8186L126.026 62.8459C125.918 62.8467 125.831 62.9349 125.832 63.0426C125.833 63.1503 125.922 63.2369 126.029 63.2362L129.32 63.2061C129.387 63.2053 129.449 63.171 129.484 63.1144C129.519 63.0578 129.523 62.9868 129.495 62.9271L128.076 59.9569C128.059 59.9222 128.033 59.8945 128.003 59.8758C127.949 59.8414 127.878 59.8348 127.816 59.8648Z" fill="#3F8ACE"/>
</g>
<g id="Group_5">
<path id="Vector_6" d="M65.2282 71.4102C65.3356 71.418 65.416 71.5125 65.4078 71.6198L65.1822 74.5966L67.9752 73.5425C68.0763 73.5043 68.189 73.555 68.2269 73.6557C68.2647 73.7564 68.2128 73.8695 68.1129 73.9074L65.0335 75.0695C64.9711 75.093 64.9008 75.0832 64.8478 75.043C64.7943 75.0028 64.765 74.9384 64.7701 74.8721L65.0187 71.5897C65.0218 71.5511 65.0355 71.5164 65.0569 71.4875C65.096 71.4364 65.1592 71.4051 65.2282 71.4102Z" fill="#3F8ACE"/>
</g>
</g>
</g>
<g id="Group_6">
<g id="Group_7">
<path id="Vector_7" d="M81.0508 140.879C84.9856 142.99 89.2908 144.571 93.8914 145.508C113.106 149.422 131.968 140.99 142.253 125.655" stroke="#3F8ACE" stroke-width="2" stroke-linecap="round" stroke-linejoin="round"/>
<g id="Group_8">
<path id="Vector_8" d="M82.6005 143.736C82.693 143.681 82.723 143.56 82.6676 143.468L81.1367 140.905L84.1065 140.601C84.2138 140.59 84.2922 140.495 84.2813 140.387C84.2704 140.28 84.1732 140.202 84.067 140.213L80.7925 140.548C80.7262 140.555 80.668 140.595 80.638 140.655C80.6079 140.714 80.6106 140.785 80.645 140.842L82.3332 143.668C82.3531 143.701 82.3812 143.726 82.4132 143.742C82.4702 143.771 82.5408 143.771 82.6005 143.736Z" fill="#3F8ACE"/>
</g>
<g id="Group_9">
<path id="Vector_9" d="M142.222 128.905C142.114 128.9 142.031 128.807 142.037 128.7L142.189 125.718L139.423 126.841C139.323 126.882 139.209 126.834 139.168 126.734C139.128 126.635 139.177 126.521 139.276 126.48L142.326 125.242C142.388 125.217 142.458 125.225 142.512 125.264C142.567 125.302 142.597 125.366 142.594 125.433L142.427 128.72C142.425 128.759 142.412 128.794 142.391 128.823C142.354 128.875 142.291 128.908 142.222 128.905Z" fill="#3F8ACE"/>
</g>
</g>
</g>
</g>
<g id="Group_10">
<path id="Vector_10" d="M101.396 72.9316H88.1432C85.1809 72.9316 82.7793 70.53 82.7793 67.5676C82.7793 64.6053 85.1809 62.2041 88.1432 62.2041H101.396C104.359 62.2041 106.76 64.6057 106.76 67.5676C106.76 70.53 104.359 72.9316 101.396 72.9316Z" fill="#2E3A70"/>
<g id="Group_11">
<path id="Vector_11" d="M92.7335 66.7696L90.1032 67.7339L92.7335 68.69V69.6773L88.9727 68.2474V67.2199L92.7335 65.79V66.7696Z" fill="white"/>
<path id="Vector_12" d="M95.5643 63.8467H96.6624L94.0552 71.2887H92.957L95.5643 63.8467Z" fill="white"/>
<path id="Vector_13" d="M100.567 67.2199V68.2474L96.8066 69.6773V68.69L99.4377 67.7339L96.8066 66.7696V65.79L100.567 67.2199Z" fill="white"/>
</g>
</g>
<g id="Group_12">
<g id="Group_13">
<g id="Group_14">
<g id="Group_15">
<path id="Vector_14" d="M154.401 107.599H139.404C138.496 107.599 137.76 106.863 137.76 105.954V57.4653H156.045V105.955C156.045 106.863 155.309 107.599 154.401 107.599Z" fill="#3F8ACE"/>
<path id="Vector_15" d="M152.983 96.4282H140.824C140.083 96.4282 139.482 95.8276 139.482 95.0865V57.4653H154.324V95.0865C154.324 95.8276 153.723 96.4282 152.983 96.4282Z" fill="#215191"/>
<g id="Group_16">
<path id="Vector_16" d="M140.273 105.253H140.204C139.805 105.253 139.482 104.93 139.482 104.532V99.7602C139.482 99.3618 139.805 99.0391 140.204 99.0391H140.273C140.672 99.0391 140.995 99.3618 140.995 99.7602V104.532C140.995 104.931 140.672 105.253 140.273 105.253Z" fill="#1B2351"/>
<path id="Vector_17" d="M143.605 105.253H143.536C143.137 105.253 142.814 104.93 142.814 104.532V99.7602C142.814 99.3618 143.138 99.0391 143.536 99.0391H143.605C144.004 99.0391 144.327 99.3618 144.327 99.7602V104.532C144.327 104.931 144.004 105.253 143.605 105.253Z" fill="#1B2351"/>
<path id="Vector_18" d="M146.938 105.253H146.868C146.469 105.253 146.146 104.93 146.146 104.532V99.7602C146.146 99.3618 146.47 99.0391 146.868 99.0391H146.938C147.336 99.0391 147.659 99.3618 147.659 99.7602V104.532C147.659 104.931 147.336 105.253 146.938 105.253Z" fill="#1B2351"/>
<path id="Vector_19" d="M150.27 105.253H150.2C149.801 105.253 149.479 104.93 149.479 104.532V99.7602C149.479 99.3618 149.802 99.0391 150.2 99.0391H150.27C150.668 99.0391 150.991 99.3618 150.991 99.7602V104.532C150.991 104.931 150.668 105.253 150.27 105.253Z" fill="#1B2351"/>
<path id="Vector_20" d="M153.604 105.253H153.534C153.135 105.253 152.812 104.93 152.812 104.532V99.7602C152.812 99.3618 153.136 99.0391 153.534 99.0391H153.604C154.002 99.0391 154.325 99.3618 154.325 99.7602V104.532C154.325 104.931 154.002 105.253 153.604 105.253Z" fill="#1B2351"/>
</g>
<g id="Group_17">
<path id="Vector_21" d="M142.76 61.4922H141.182V63.774H142.76V61.4922Z" fill="#1B2351"/>
<path id="Vector_22" d="M146.047 61.4922H144.469V63.774H146.047V61.4922Z" fill="#32EA9F"/>
<path id="Vector_23" d="M149.334 61.4922H147.756V63.774H149.334V61.4922Z" fill="#F6C543"/>
<path id="Vector_24" d="M152.622 61.4922H151.043V63.774H152.622V61.4922Z" fill="#ED7630"/>
</g>
<g id="Group_18">
<path id="Vector_25" d="M142.76 65.2861H141.182V67.5679H142.76V65.2861Z" fill="#ED7630"/>
<path id="Vector_26" d="M146.047 65.2861H144.469V67.5679H146.047V65.2861Z" fill="#1B2351"/>
<path id="Vector_27" d="M149.334 65.2861H147.756V67.5679H149.334V65.2861Z" fill="#32EA9F"/>
<path id="Vector_28" d="M152.622 65.2861H151.043V67.5679H152.622V65.2861Z" fill="#F6C543"/>
</g>
<g id="Group_19">
<path id="Vector_29" d="M142.76 69.0796H141.182V71.3614H142.76V69.0796Z" fill="#1B2351"/>
<path id="Vector_30" d="M146.047 69.0796H144.469V71.3614H146.047V69.0796Z" fill="#F6C543"/>
<path id="Vector_31" d="M149.334 69.0796H147.756V71.3614H149.334V69.0796Z" fill="#32EA9F"/>
<path id="Vector_32" d="M152.622 69.0796H151.043V71.3614H152.622V69.0796Z" fill="#1B2351"/>
</g>
<g id="Group_20">
<path id="Vector_33" d="M142.76 72.873H141.182V75.1548H142.76V72.873Z" fill="#32EA9F"/>
<path id="Vector_34" d="M146.047 72.873H144.469V75.1548H146.047V72.873Z" fill="#ED7630"/>
<path id="Vector_35" d="M149.334 72.873H147.756V75.1548H149.334V72.873Z" fill="#1B2351"/>
<path id="Vector_36" d="M152.622 72.873H151.043V75.1548H152.622V72.873Z" fill="#32EA9F"/>
</g>
<g id="Group_21">
<path id="Vector_37" d="M142.76 76.6665H141.182V78.9483H142.76V76.6665Z" fill="#1B2351"/>
<path id="Vector_38" d="M146.047 76.6665H144.469V78.9483H146.047V76.6665Z" fill="#32EA9F"/>
<path id="Vector_39" d="M149.334 76.6665H147.756V78.9483H149.334V76.6665Z" fill="#F6C543"/>
<path id="Vector_40" d="M152.622 76.6665H151.043V78.9483H152.622V76.6665Z" fill="#ED7630"/>
</g>
<g id="Group_22">
<path id="Vector_41" d="M142.76 80.4604H141.182V82.7422H142.76V80.4604Z" fill="#ED7630"/>
<path id="Vector_42" d="M146.047 80.4604H144.469V82.7422H146.047V80.4604Z" fill="#F6C543"/>
<path id="Vector_43" d="M149.334 80.4604H147.756V82.7422H149.334V80.4604Z" fill="#32EA9F"/>
<path id="Vector_44" d="M152.622 80.4604H151.043V82.7422H152.622V80.4604Z" fill="#1B2351"/>
</g>
</g>
<path id="Vector_45" d="M151.833 84.9082H141.971V87.8503H151.833V84.9082Z" fill="#3F8ACE"/>
</g>
<g id="Group_23">
<g id="Group_24">
<path id="Vector_46" d="M164.248 107.599H179.245C180.153 107.599 180.89 106.863 180.89 105.955V57.4658H162.604V105.955C162.604 106.863 163.34 107.599 164.248 107.599Z" fill="#3F8ACE"/>
<path id="Vector_47" d="M165.667 96.4287H177.826C178.567 96.4287 179.168 95.8281 179.168 95.087V57.4658H164.326V95.087C164.326 95.8281 164.926 96.4287 165.667 96.4287Z" fill="#215191"/>
<g id="Group_25">
<path id="Vector_48" d="M178.377 105.253H178.447C178.846 105.253 179.168 104.93 179.168 104.532V99.7602C179.168 99.3618 178.846 99.0391 178.447 99.0391H178.377C177.979 99.0391 177.656 99.3618 177.656 99.7602V104.532C177.656 104.931 177.979 105.253 178.377 105.253Z" fill="#1B2351"/>
<path id="Vector_49" d="M175.043 105.253H175.113C175.512 105.253 175.834 104.93 175.834 104.532V99.7602C175.834 99.3618 175.511 99.0391 175.113 99.0391H175.043C174.645 99.0391 174.322 99.3618 174.322 99.7602V104.532C174.322 104.931 174.645 105.253 175.043 105.253Z" fill="#1B2351"/>
<path id="Vector_50" d="M171.711 105.253H171.781C172.18 105.253 172.502 104.93 172.502 104.532V99.7602C172.502 99.3618 172.18 99.0391 171.781 99.0391H171.711C171.313 99.0391 170.99 99.3618 170.99 99.7602V104.532C170.99 104.931 171.313 105.253 171.711 105.253Z" fill="#1B2351"/>
<path id="Vector_51" d="M168.379 105.253H168.449C168.848 105.253 169.17 104.93 169.17 104.532V99.7602C169.17 99.3618 168.848 99.0391 168.449 99.0391H168.379C167.981 99.0391 167.658 99.3618 167.658 99.7602V104.532C167.658 104.931 167.981 105.253 168.379 105.253Z" fill="#1B2351"/>
<path id="Vector_52" d="M165.047 105.253H165.117C165.516 105.253 165.838 104.93 165.838 104.532V99.7602C165.838 99.3618 165.516 99.0391 165.117 99.0391H165.047C164.649 99.0391 164.326 99.3618 164.326 99.7602V104.532C164.326 104.931 164.649 105.253 165.047 105.253Z" fill="#1B2351"/>
</g>
<g id="Group_26">
<path id="Vector_53" d="M175.888 63.7744H177.467V61.4927H175.888V63.7744Z" fill="#1B2351"/>
<path id="Vector_54" d="M172.599 63.7744H174.178V61.4927H172.599V63.7744Z" fill="#32EA9F"/>
<path id="Vector_55" d="M169.312 63.7744H170.891V61.4927H169.312V63.7744Z" fill="#F6C543"/>
<path id="Vector_56" d="M166.025 63.7744H167.604V61.4927H166.025V63.7744Z" fill="#ED7630"/>
</g>
<g id="Group_27">
<path id="Vector_57" d="M175.888 67.5684H177.467V65.2866H175.888V67.5684Z" fill="#ED7630"/>
<path id="Vector_58" d="M172.599 67.5684H174.178V65.2866H172.599V67.5684Z" fill="#1B2351"/>
<path id="Vector_59" d="M169.312 67.5684H170.891V65.2866H169.312V67.5684Z" fill="#32EA9F"/>
<path id="Vector_60" d="M166.025 67.5684H167.604V65.2866H166.025V67.5684Z" fill="#F6C543"/>
</g>
<g id="Group_28">
<path id="Vector_61" d="M175.888 71.3618H177.467V69.0801H175.888V71.3618Z" fill="#1B2351"/>
<path id="Vector_62" d="M172.599 71.3618H174.178V69.0801H172.599V71.3618Z" fill="#F6C543"/>
<path id="Vector_63" d="M169.312 71.3618H170.891V69.0801H169.312V71.3618Z" fill="#32EA9F"/>
<path id="Vector_64" d="M166.025 71.3618H167.604V69.0801H166.025V71.3618Z" fill="#1B2351"/>
</g>
<g id="Group_29">
<path id="Vector_65" d="M175.888 75.1548H177.467V72.873H175.888V75.1548Z" fill="#32EA9F"/>
<path id="Vector_66" d="M172.599 75.1548H174.178V72.873H172.599V75.1548Z" fill="#ED7630"/>
<path id="Vector_67" d="M169.312 75.1548H170.891V72.873H169.312V75.1548Z" fill="#1B2351"/>
<path id="Vector_68" d="M166.025 75.1548H167.604V72.873H166.025V75.1548Z" fill="#32EA9F"/>
</g>
<g id="Group_30">
<path id="Vector_69" d="M175.888 78.9487H177.467V76.667H175.888V78.9487Z" fill="#1B2351"/>
<path id="Vector_70" d="M172.599 78.9487H174.178V76.667H172.599V78.9487Z" fill="#32EA9F"/>
<path id="Vector_71" d="M169.312 78.9487H170.891V76.667H169.312V78.9487Z" fill="#F6C543"/>
<path id="Vector_72" d="M166.025 78.9487H167.604V76.667H166.025V78.9487Z" fill="#ED7630"/>
</g>
<g id="Group_31">
<path id="Vector_73" d="M175.888 82.7422H177.467V80.4604H175.888V82.7422Z" fill="#ED7630"/>
<path id="Vector_74" d="M172.599 82.7422H174.178V80.4604H172.599V82.7422Z" fill="#F6C543"/>
<path id="Vector_75" d="M169.312 82.7422H170.891V80.4604H169.312V82.7422Z" fill="#32EA9F"/>
<path id="Vector_76" d="M166.025 82.7422H167.604V80.4604H166.025V82.7422Z" fill="#1B2351"/>
</g>
</g>
<path id="Vector_77" d="M166.816 87.8506H176.678V84.9085H166.816V87.8506Z" fill="#3F8ACE"/>
</g>
</g>
<g id="Group_32">
<path id="Vector_78" d="M177.849 139.446H177.807C177.432 139.446 177.161 139.107 177.222 138.737C177.329 138.096 177.338 137.422 177.23 136.728C176.793 133.92 174.444 131.722 171.613 131.471C170.867 131.405 170.148 131.469 169.476 131.644C168.795 126.187 164.135 121.96 158.49 121.96C153.393 121.96 149.101 125.405 147.814 130.09C144.127 130.674 141.314 133.866 141.314 137.715C141.314 138.071 141.339 138.422 141.386 138.766C141.436 139.125 141.163 139.446 140.8 139.446C140.14 139.446 139.548 139.94 139.513 140.599C139.477 141.302 140.036 141.884 140.731 141.884H177.917C178.612 141.884 179.171 141.302 179.134 140.599C179.1 139.941 178.509 139.446 177.849 139.446Z" fill="#D5F0FE"/>
<g id="Group_33">
<path id="Vector_79" d="M164.432 132.212H151.316C150.986 132.212 150.719 131.944 150.719 131.614V131.556C150.719 131.227 150.986 130.959 151.316 130.959H164.432C164.761 130.959 165.029 131.226 165.029 131.556V131.614C165.029 131.944 164.761 132.212 164.432 132.212Z" fill="#9DBFF3"/>
<path id="Vector_80" d="M164.432 134.972H151.316C150.986 134.972 150.719 134.705 150.719 134.375V134.317C150.719 133.987 150.986 133.72 151.316 133.72H164.432C164.761 133.72 165.029 133.987 165.029 134.317V134.375C165.029 134.705 164.761 134.972 164.432 134.972Z" fill="#9DBFF3"/>
<path id="Vector_81" d="M164.432 137.733H151.316C150.986 137.733 150.719 137.466 150.719 137.136V137.078C150.719 136.748 150.986 136.48 151.316 136.48H164.432C164.761 136.48 165.029 136.748 165.029 137.078V137.136C165.029 137.465 164.761 137.733 164.432 137.733Z" fill="#9DBFF3"/>
</g>
</g>
<g id="Group_34">
<path id="Vector_82" d="M159.355 115.581V123.695" stroke="#9DBFF3" stroke-width="2" stroke-miterlimit="10" stroke-linecap="round" stroke-linejoin="round"/>
<g id="Group_35">
<g id="Group_36">
<path id="Vector_83" d="M146.902 111.364V114.878" stroke="#9DBFF3" stroke-width="2" stroke-linecap="round" stroke-linejoin="round"/>
<path id="Vector_84" d="M148.455 115.581H170.97" stroke="#9DBFF3" stroke-width="2" stroke-linecap="round" stroke-linejoin="round"/>
<path id="Vector_85" d="M171.746 114.175V110.661" stroke="#9DBFF3" stroke-width="2" stroke-linecap="round" stroke-linejoin="round"/>
</g>
</g>
</g>
</g>
<g id="Group_37">
<g id="Group_38">
<path id="Vector_86" d="M67.4029 140.086H19.7911C16.7222 140.086 14.2344 137.598 14.2344 134.529V99.3789H72.9593V134.529C72.9596 137.598 70.4718 140.086 67.4029 140.086Z" fill="#9DBFF3"/>
<path id="Vector_87" d="M72.9592 94.2769H14.2344V99.3789H72.9592V94.2769Z" fill="#1B2351"/>
<g id="Group_39">
<path id="Vector_88" d="M18.7976 96.828C18.7976 96.2446 18.3246 95.772 17.7416 95.772C17.1585 95.772 16.6855 96.2449 16.6855 96.828C16.6855 97.4114 17.1585 97.884 17.7416 97.884C18.3246 97.884 18.7976 97.4114 18.7976 96.828Z" fill="#ED7630"/>
<path id="Vector_89" d="M22.9519 96.828C22.9519 96.2446 22.4789 95.772 21.8958 95.772C21.3124 95.772 20.8398 96.2449 20.8398 96.828C20.8398 97.4114 21.3128 97.884 21.8958 97.884C22.4793 97.884 22.9519 97.4114 22.9519 96.828Z" fill="#F6C543"/>
<path id="Vector_90" d="M27.1042 96.828C27.1042 96.2446 26.6312 95.772 26.0482 95.772C25.4648 95.772 24.9922 96.2449 24.9922 96.828C24.9922 97.4114 25.4652 97.884 26.0482 97.884C26.6316 97.884 27.1042 97.4114 27.1042 96.828Z" fill="#32EA9F"/>
</g>
<g id="Group_40">
<path id="Vector_91" d="M68.6372 103.475H18.5547V117.946H68.6372V103.475Z" fill="white"/>
<g id="Group_41">
<path id="Vector_92" d="M18.5547 114.579V113.757C25.6696 112.934 32.2082 109.007 35.5709 103.476H36.6215C33.1698 109.473 26.1532 113.728 18.5547 114.579Z" fill="#3F8ACE"/>
<path id="Vector_93" d="M40.5381 107.853C39.7174 108.254 38.8495 108.585 38.0054 108.904C36.5466 109.461 35.1726 109.984 34.0327 110.839C32.4569 112.026 31.4953 113.818 31.4625 115.63C31.4485 116.42 31.6081 117.205 31.9269 117.946H30.9326C30.6559 117.197 30.5103 116.407 30.5244 115.618C30.5618 113.572 31.6405 111.556 33.4184 110.222C34.666 109.285 36.1716 108.712 37.6303 108.156C38.451 107.841 39.3002 107.517 40.0787 107.137C41.875 106.257 43.4466 104.981 44.5908 103.475H45.6975C44.4546 105.279 42.6395 106.822 40.5381 107.853Z" fill="#3F8ACE"/>
<path id="Vector_94" d="M58.0832 105.631C57.755 107.468 56.5074 109.187 54.7392 110.222C53.074 111.204 51.0947 111.564 49.1813 111.912L49.0076 111.944C47.047 112.305 45.1618 112.705 43.7218 113.692C42.3805 114.604 41.3861 116.294 42.08 117.758C42.1128 117.824 42.1456 117.885 42.183 117.946H41.1606C40.3914 116.138 41.5594 114.125 43.1446 113.045C44.7438 111.953 46.7419 111.523 48.8152 111.143L48.9889 111.114C50.8133 110.779 52.7036 110.435 54.2139 109.548C55.771 108.631 56.8687 107.121 57.1595 105.505C57.2769 104.835 57.2582 104.147 57.1079 103.476H58.0648C58.2006 104.187 58.21 104.92 58.0832 105.631Z" fill="#3F8ACE"/>
<path id="Vector_95" d="M68.6368 106.94V107.849C68.3835 107.951 68.1256 108.033 67.8583 108.094C66.7422 108.356 65.5695 108.323 64.4389 108.295C62.9615 108.258 61.564 108.221 60.4053 108.814C59.4063 109.321 58.6372 110.275 58.0604 111.735C57.6288 112.819 57.6147 113.605 58.0229 114.14C58.5669 114.852 59.6268 114.942 60.8557 115.049C62.005 115.151 63.196 115.253 64.0967 115.92C64.7066 116.37 65.0629 117.008 65.1332 117.765C65.1379 117.826 65.1425 117.884 65.1425 117.945H64.1997C64.1997 117.908 64.1997 117.871 64.195 117.83C64.1482 117.286 63.909 116.852 63.4867 116.542C62.8112 116.043 61.8169 115.957 60.7616 115.863C59.42 115.748 58.0319 115.629 57.2393 114.59C56.6625 113.829 56.6391 112.807 57.1737 111.465C57.8305 109.816 58.7308 108.716 59.9316 108.106C61.3248 107.398 62.9193 107.439 64.467 107.476C65.5316 107.504 66.6341 107.533 67.6186 107.304C67.9706 107.223 68.3129 107.1 68.6368 106.94Z" fill="#3F8ACE"/>
</g>
</g>
<g id="Group_42">
<path id="Vector_96" d="M39.2926 121.585H18.7988V135.731H39.2926V121.585Z" fill="#3F8ACE"/>
<g id="Group_43">
<path id="Vector_97" d="M35.7256 126.266H22.3667C21.8707 126.266 21.4688 125.864 21.4688 125.368V125.281C21.4688 124.785 21.8707 124.383 22.3667 124.383H35.7256C36.2216 124.383 36.6235 124.785 36.6235 125.281V125.368C36.6235 125.864 36.2212 126.266 35.7256 126.266Z" fill="white"/>
<path id="Vector_98" d="M35.7256 129.511H22.3667C21.8707 129.511 21.4688 129.109 21.4688 128.613V128.526C21.4688 128.03 21.8707 127.628 22.3667 127.628H35.7256C36.2216 127.628 36.6235 128.03 36.6235 128.526V128.613C36.6235 129.109 36.2212 129.511 35.7256 129.511Z" fill="white"/>
<path id="Vector_99" d="M30.4202 132.756H22.3667C21.8707 132.756 21.4688 132.354 21.4688 131.858V131.771C21.4688 131.275 21.8707 130.873 22.3667 130.873H30.4202C30.9162 130.873 31.3181 131.275 31.3181 131.771V131.858C31.3178 132.354 30.9158 132.756 30.4202 132.756Z" fill="white"/>
</g>
</g>
<g id="Group_44">
<path id="Vector_100" d="M42.3767 135.731H68.6387V121.585H42.3767V135.731Z" fill="#1B2351"/>
<path id="Vector_101" d="M46.7578 132.756H64.2584L60.1982 126.014L56.8382 130.494L52.288 123.354L46.7578 132.756Z" fill="#F5C544"/>
</g>
</g>
<g id="Group_45">
<path id="Vector_102" d="M44.4121 61.1325L43.1376 59.2632H32.4269L31.1523 61.1325V74.5428C31.1523 75.735 32.1186 76.7013 33.3108 76.7013H53.8853C55.0775 76.7013 56.0437 75.735 56.0437 74.5428V63.2905C56.0437 62.0983 55.0775 61.1321 53.8853 61.1321L44.4121 61.1325Z" fill="#D5F0FE"/>
<g id="Group_46">
<path id="Vector_103" d="M50.1542 67.0071H37.0389C36.7091 67.0071 36.4414 66.7398 36.4414 66.4096V66.3519C36.4414 66.0217 36.7087 65.7544 37.0389 65.7544H50.1542C50.4844 65.7544 50.7517 66.0217 50.7517 66.3519V66.4096C50.7517 66.7398 50.4844 67.0071 50.1542 67.0071Z" fill="#9DBFF3"/>
<path id="Vector_104" d="M50.1542 69.7678H37.0389C36.7091 69.7678 36.4414 69.5005 36.4414 69.1704V69.1126C36.4414 68.7825 36.7087 68.5151 37.0389 68.5151H50.1542C50.4844 68.5151 50.7517 68.7825 50.7517 69.1126V69.1704C50.7517 69.5001 50.4844 69.7678 50.1542 69.7678Z" fill="#9DBFF3"/>
<path id="Vector_105" d="M50.1542 72.5286H37.0389C36.7091 72.5286 36.4414 72.2612 36.4414 71.9311V71.8733C36.4414 71.5432 36.7087 71.2759 37.0389 71.2759H50.1542C50.4844 71.2759 50.7517 71.5432 50.7517 71.8733V71.9311C50.7517 72.2609 50.4844 72.5286 50.1542 72.5286Z" fill="#9DBFF3"/>
</g>
</g>
<path id="Vector_106" d="M43.5977 77.2959V94.0534" stroke="#9DBFF3" stroke-width="2" stroke-miterlimit="10" stroke-linecap="round" stroke-linejoin="round"/>
</g>
<g id="Group_47">
<path id="Vector_107" d="M123.207 137.576H109.954C106.991 137.576 104.59 135.174 104.59 132.212C104.59 129.25 106.991 126.848 109.954 126.848H123.207C126.169 126.848 128.57 129.25 128.57 132.212C128.57 135.174 126.169 137.576 123.207 137.576Z" fill="#215191"/>
<g id="Group_48">
<path id="Vector_108" d="M112.12 130.254V134.17H111.012V132.643H109.502V134.17H108.395V130.254H109.502V131.726H111.012V130.254H112.12Z" fill="#FEFEFE"/>
<path id="Vector_109" d="M113.736 131.132H112.533V130.254H116.041V131.132H114.843V134.17H113.736V131.132Z" fill="#FEFEFE"/>
<path id="Vector_110" d="M119.99 134.17L119.979 132.094L118.972 133.784H118.48L117.479 132.151V134.17H116.455V130.254H117.367L118.743 132.514L120.086 130.254H120.997L121.008 134.17H119.99V134.17Z" fill="#FEFEFE"/>
<path id="Vector_111" d="M121.789 130.254H122.897V133.292H124.765V134.17H121.789V130.254Z" fill="#FEFEFE"/>
</g>
</g>
<g id="Group_49">
<g id="Group_50">
<path id="Vector_112" d="M58.0352 146.782C58.0352 145.914 57.332 145.211 56.4649 145.211C55.5978 145.211 54.8945 145.915 54.8945 146.782C54.8945 147.649 55.5978 148.352 56.4649 148.352C57.332 148.353 58.0352 147.649 58.0352 146.782Z" fill="#3F8ACE"/>
<path id="Vector_113" d="M67.2559 146.782C67.2559 145.914 66.5527 145.211 65.6856 145.211C64.8185 145.211 64.1152 145.915 64.1152 146.782C64.1152 147.649 64.8185 148.352 65.6856 148.352C66.5531 148.353 67.2559 147.649 67.2559 146.782Z" fill="#3F8ACE"/>
<path id="Vector_114" d="M76.4766 146.782C76.4766 145.914 75.7734 145.211 74.9063 145.211C74.0392 145.211 73.3359 145.915 73.3359 146.782C73.3359 147.649 74.0392 148.352 74.9063 148.352C75.7734 148.353 76.4766 147.649 76.4766 146.782Z" fill="#3F8ACE"/>
</g>
<g id="Group_51">
<path id="Vector_115" d="M142.582 50.8472C142.582 49.9801 141.879 49.2769 141.012 49.2769C140.145 49.2769 139.441 49.9801 139.441 50.8472C139.441 51.7143 140.145 52.4175 141.012 52.4175C141.879 52.4175 142.582 51.7143 142.582 50.8472Z" fill="#9DBFF3"/>
<path id="Vector_116" d="M151.803 50.8472C151.803 49.9801 151.1 49.2769 150.232 49.2769C149.365 49.2769 148.662 49.9801 148.662 50.8472C148.662 51.7143 149.365 52.4175 150.232 52.4175C151.1 52.4175 151.803 51.7143 151.803 50.8472Z" fill="#9DBFF3"/>
<path id="Vector_117" d="M161.024 50.8472C161.024 49.9801 160.32 49.2769 159.453 49.2769C158.586 49.2769 157.883 49.9801 157.883 50.8472C157.883 51.7143 158.586 52.4175 159.453 52.4175C160.321 52.4175 161.024 51.7143 161.024 50.8472Z" fill="#9DBFF3"/>
</g>
</g>
<g id="Group_52">
<g id="Group_53">
<path id="Vector_118" d="M130.547 73.9619V76.9122" stroke="#3F8ACE" stroke-width="2" stroke-miterlimit="10" stroke-linecap="round" stroke-linejoin="round"/>
<path id="Vector_119" d="M132.023 75.437H129.072" stroke="#3F8ACE" stroke-width="2" stroke-miterlimit="10" stroke-linecap="round" stroke-linejoin="round"/>
</g>
<g id="Group_54">
<path id="Vector_120" d="M82.7637 122.682V125.632" stroke="#3F8ACE" stroke-width="2" stroke-miterlimit="10" stroke-linecap="round" stroke-linejoin="round"/>
<path id="Vector_121" d="M84.2393 124.157H81.2891" stroke="#3F8ACE" stroke-width="2" stroke-miterlimit="10" stroke-linecap="round" stroke-linejoin="round"/>
</g>
<g id="Group_55">
<path id="Vector_122" d="M134.25 121.879V124.83" stroke="#9DBFF3" stroke-width="2" stroke-miterlimit="10" stroke-linecap="round" stroke-linejoin="round"/>
<path id="Vector_123" d="M135.726 123.354H132.775" stroke="#9DBFF3" stroke-width="2" stroke-miterlimit="10" stroke-linecap="round" stroke-linejoin="round"/>
</g>
<g id="Group_56">
<path id="Vector_124" d="M67.1621 86.3755V89.3257" stroke="#9DBFF3" stroke-width="2" stroke-miterlimit="10" stroke-linecap="round" stroke-linejoin="round"/>
<path id="Vector_125" d="M68.6381 87.8506H65.6875" stroke="#9DBFF3" stroke-width="2" stroke-miterlimit="10" stroke-linecap="round" stroke-linejoin="round"/>
</g>
</g>
<g id="Group_57">
<g id="Group_58">
<path id="Vector_126" d="M121.875 117.917H88.8405C86.7808 117.917 85.1113 116.248 85.1113 114.188V85.1613C85.1113 83.1016 86.7808 81.4321 88.8405 81.4321H121.875C123.935 81.4321 125.604 83.1016 125.604 85.1613V114.188C125.604 116.247 123.935 117.917 121.875 117.917Z" fill="#1B2351"/>
<path id="Vector_127" d="M120.189 115.487H90.5274C89.0258 115.487 87.8086 114.27 87.8086 112.769V86.5811C87.8086 85.0795 89.0258 83.8623 90.5274 83.8623H120.762C121.947 83.8623 122.907 84.8227 122.907 86.0071V112.768C122.908 114.27 121.69 115.487 120.189 115.487Z" stroke="#9DBFF3" stroke-miterlimit="10" stroke-linecap="round" stroke-linejoin="round"/>
<g id="Group_59">
<g id="Group_60">
<path id="Vector_128" d="M110.702 81.4316H112.623V75.6252H110.702V81.4316Z" fill="#3F8ACE"/>
<path id="Vector_129" d="M106.501 81.4316H108.422V75.6252H106.501V81.4316Z" fill="#3F8ACE"/>
<path id="Vector_130" d="M102.297 81.4316H104.219V75.6252H102.297V81.4316Z" fill="#3F8ACE"/>
<path id="Vector_131" d="M98.0945 81.4316H100.016V75.6252H98.0945V81.4316Z" fill="#3F8ACE"/>
</g>
<g id="Group_61">
<path id="Vector_132" d="M100.015 117.917H98.0938V123.723H100.015V117.917Z" fill="#3F8ACE"/>
<path id="Vector_133" d="M104.218 117.917H102.297V123.723H104.218V117.917Z" fill="#3F8ACE"/>
<path id="Vector_134" d="M108.421 117.917H106.5V123.723H108.421V117.917Z" fill="#3F8ACE"/>
<path id="Vector_135" d="M112.624 117.917H110.703V123.723H112.624V117.917Z" fill="#3F8ACE"/>
</g>
</g>
<g id="Group_62">
<g id="Group_63">
<path id="Vector_136" d="M85.1113 94.3308V92.4097H79.3049V94.3308H85.1113Z" fill="#1B2351"/>
<path id="Vector_137" d="M85.1113 98.534V96.6128H79.3049V98.534H85.1113Z" fill="#1B2351"/>
<path id="Vector_138" d="M85.1113 102.737V100.815H79.3049V102.737H85.1113Z" fill="#1B2351"/>
<path id="Vector_139" d="M85.1113 106.94V105.019H79.3049V106.94H85.1113Z" fill="#1B2351"/>
</g>
<g id="Group_64">
<path id="Vector_140" d="M125.605 105.018V106.939H131.412V105.018H125.605Z" fill="#1B2351"/>
<path id="Vector_141" d="M125.605 100.815V102.737H131.412V100.815H125.605Z" fill="#1B2351"/>
<path id="Vector_142" d="M125.605 96.6125V98.5337H131.412V96.6125H125.605Z" fill="#1B2351"/>
<path id="Vector_143" d="M125.605 92.4099V94.3311H131.412V92.4099H125.605Z" fill="#1B2351"/>
</g>
</g>
</g>
<g id="Group_65">
<path id="Vector_144" d="M99.7835 103.138H94.992L94.1019 105.34H90.832L95.8338 94.0088H98.9901L104.008 105.34H100.674L99.7835 103.138ZM98.8445 100.775L97.3878 97.1495L95.931 100.775H98.8445Z" fill="white"/>
<path id="Vector_145" d="M115.128 98.2017C115.128 100.775 113.185 102.378 110.094 102.378H108.119V105.34H104.914V94.0093H110.094C113.185 94.0093 115.128 95.6116 115.128 98.2017ZM111.89 98.2017C111.89 97.1496 111.227 96.5346 109.899 96.5346H108.119V99.8528H109.899C111.227 99.8524 111.89 99.2374 111.89 98.2017Z" fill="white"/>
<path id="Vector_146" d="M116.68 94.0093H119.884V105.34H116.68V94.0093Z" fill="white"/>
</g>
</g>
<g id="Group_66">
<g id="Group_67">
<path id="Vector_147" d="M94.1348 119.547V130.144" stroke="#9DBFF3" stroke-width="2" stroke-linecap="round" stroke-linejoin="round"/>
<path id="Vector_148" d="M92.6222 130.959H73.7148" stroke="#9DBFF3" stroke-width="2" stroke-linecap="round" stroke-linejoin="round"/>
</g>
</g>
<g id="Group_68">
<g id="Group_69">
<path id="Vector_149" d="M116.58 79.807V69.2466" stroke="#9DBFF3" stroke-width="2" stroke-linecap="round" stroke-linejoin="round"/>
<path id="Vector_150" d="M118.092 68.4341H136.999" stroke="#9DBFF3" stroke-width="2" stroke-linecap="round" stroke-linejoin="round"/>
</g>
</g>
</g>
</svg>
