<svg xmlns="http://www.w3.org/2000/svg" width="40" height="46" viewBox="0 0 40 46" fill="none">
<circle cx="29" cy="11" r="11" fill="#F7DDEF"/>
<g clip-path="url(#clip0_3478_755551)">
<path d="M18.0625 31.3198V26.6786C18.7716 26.428 19.3693 25.9347 19.7499 25.286C20.1305 24.6373 20.2695 23.8749 20.1424 23.1336C20.0152 22.3923 19.6301 21.7199 19.0551 21.2351C18.48 20.7503 17.7521 20.4844 17 20.4844C16.2479 20.4844 15.52 20.7503 14.945 21.2351C14.3699 21.7199 13.9848 22.3923 13.8577 23.1336C13.7305 23.8749 13.8695 24.6373 14.2501 25.286C14.6307 25.9347 15.2284 26.428 15.9375 26.6786V31.3204C15.2286 31.571 14.6311 32.0642 14.2507 32.7127C13.8702 33.3613 13.7313 34.1235 13.8584 34.8646C13.9856 35.6057 14.3706 36.2779 14.9455 36.7626C15.5204 37.2472 16.2481 37.5131 17 37.5131C17.7519 37.5131 18.4796 37.2472 19.0545 36.7626C19.6294 36.2779 20.0145 35.6057 20.1416 34.8646C20.2688 34.1235 20.1298 33.3613 19.7494 32.7127C19.3689 32.0642 18.7714 31.571 18.0625 31.3204V31.3198ZM17 22.6242C17.2102 22.6242 17.4156 22.6865 17.5903 22.8033C17.765 22.92 17.9012 23.086 17.9816 23.2801C18.0621 23.4743 18.0831 23.6879 18.0421 23.894C18.0011 24.1001 17.8999 24.2894 17.7513 24.438C17.6027 24.5866 17.4134 24.6878 17.2073 24.7288C17.0012 24.7698 16.7876 24.7488 16.5934 24.6683C16.3993 24.5879 16.2333 24.4517 16.1166 24.277C15.9998 24.1023 15.9375 23.8969 15.9375 23.6867C15.9378 23.405 16.0498 23.1349 16.249 22.9357C16.4482 22.7365 16.7183 22.6245 17 22.6242ZM17 35.3742C16.7899 35.3742 16.5845 35.3119 16.4097 35.1952C16.235 35.0784 16.0988 34.9125 16.0184 34.7183C15.938 34.5242 15.9169 34.3105 15.9579 34.1044C15.9989 33.8983 16.1001 33.709 16.2487 33.5604C16.3973 33.4118 16.5866 33.3106 16.7927 33.2696C16.9988 33.2286 17.2125 33.2497 17.4066 33.3301C17.6008 33.4105 17.7667 33.5467 17.8835 33.7214C18.0002 33.8962 18.0625 34.1016 18.0625 34.3117C18.0623 34.5934 17.9502 34.8635 17.751 35.0627C17.5518 35.2619 17.2817 35.374 17 35.3742Z" fill="url(#paint0_linear_3478_755551)"/>
<path d="M32.315 30.5025C32.5123 30.3052 32.6689 30.0709 32.7757 29.8131C32.8825 29.5553 32.9375 29.279 32.9375 29C32.9375 28.7209 32.8825 28.4446 32.7757 28.1868C32.6689 27.929 32.5123 27.6948 32.315 27.4975L26.1664 21.3492L29.2483 18.3075C29.7028 18.4201 30.1818 18.3796 30.6109 18.1923C31.0401 18.0049 31.3954 17.6811 31.6217 17.2712C31.8481 16.8613 31.9329 16.3881 31.8629 15.9251C31.7929 15.4621 31.572 15.0351 31.2346 14.7104C30.8972 14.3858 30.462 14.1815 29.9967 14.1294C29.5313 14.0772 29.0618 14.1801 28.6609 14.4221C28.2599 14.664 27.9501 15.0315 27.7794 15.4675C27.6086 15.9036 27.5865 16.3838 27.7166 16.8336L24.6637 19.8463L18.5025 13.685C18.3052 13.4876 18.0709 13.3311 17.8131 13.2243C17.5553 13.1175 17.279 13.0625 17 13.0625C16.7209 13.0625 16.4446 13.1175 16.1868 13.2243C15.929 13.3311 15.6948 13.4876 15.4975 13.685L9.34924 19.8334L6.30783 16.7512C6.42039 16.2966 6.37979 15.8175 6.19231 15.3884C6.00483 14.9592 5.68095 14.6039 5.27093 14.3776C4.86091 14.1513 4.38766 14.0666 3.92461 14.1367C3.46156 14.2068 3.0346 14.4278 2.70995 14.7654C2.3853 15.1029 2.18113 15.5382 2.1291 16.0036C2.07708 16.469 2.18011 16.9386 2.42221 17.3395C2.66431 17.7404 3.03195 18.0502 3.46809 18.2208C3.90422 18.3914 4.38448 18.4134 4.83435 18.2832L7.84654 21.3363L1.685 27.4975C1.48765 27.6948 1.33109 27.929 1.22428 28.1868C1.11747 28.4446 1.0625 28.7209 1.0625 29C1.0625 29.279 1.11747 29.5553 1.22428 29.8131C1.33109 30.0709 1.48765 30.3052 1.685 30.5025L7.84633 36.6637L4.83435 39.7168C4.3855 39.5875 3.90655 39.61 3.47174 39.7806C3.03693 39.9512 2.67054 40.2605 2.42937 40.6605C2.18819 41.0605 2.0857 41.5289 2.13777 41.9931C2.18984 42.4573 2.39357 42.8913 2.71738 43.2279C3.04119 43.5646 3.467 43.785 3.92881 43.855C4.39062 43.9251 4.86263 43.8408 5.2717 43.6154C5.68076 43.3899 6.00403 43.0358 6.19139 42.6079C6.37876 42.18 6.41976 41.7023 6.30804 41.2488L9.34945 38.1666L15.4977 44.315C15.695 44.5123 15.9292 44.6689 16.187 44.7757C16.4448 44.8825 16.7211 44.9375 17.0002 44.9375C17.2792 44.9375 17.5556 44.8825 17.8134 44.7757C18.0712 44.6689 18.3054 44.5123 18.5027 44.315L24.6639 38.1536L27.7168 41.1663C27.5876 41.6153 27.61 42.0943 27.7807 42.5292C27.9514 42.9641 28.2608 43.3305 28.6609 43.5717C29.061 43.8129 29.5295 43.9153 29.9938 43.8632C30.4581 43.811 30.8921 43.6072 31.2288 43.2832C31.5654 42.9593 31.7858 42.5334 31.8558 42.0715C31.9257 41.6096 31.8414 41.1375 31.6157 40.7284C31.3901 40.3193 31.0359 39.996 30.6079 39.8087C30.1799 39.6215 29.7021 39.5806 29.2485 39.6924L26.1666 36.6507L32.315 30.5025ZM17 42.8125L3.18748 29L17 15.1875L30.8125 29L17 42.8125Z" fill="url(#paint1_linear_3478_755551)"/>
</g>
<defs>
<linearGradient id="paint0_linear_3478_755551" x1="17" y1="20.4844" x2="17" y2="37.5131" gradientUnits="userSpaceOnUse">
<stop stop-color="#000AFF"/>
<stop offset="1" stop-color="#D274FF"/>
</linearGradient>
<linearGradient id="paint1_linear_3478_755551" x1="17" y1="13.0625" x2="17" y2="44.9375" gradientUnits="userSpaceOnUse">
<stop stop-color="#000AFF"/>
<stop offset="1" stop-color="#D274FF"/>
</linearGradient>
<clipPath id="clip0_3478_755551">
<rect width="34" height="34" fill="white" transform="translate(0 12)"/>
</clipPath>
</defs>
</svg>