<svg width="40" height="46" viewBox="0 0 40 46" fill="none" xmlns="http://www.w3.org/2000/svg">
<circle cx="29" cy="11" r="11" fill="#F7DDEF"/>
<g clip-path="url(#clip0_283_54220)">
<path d="M18.0623 31.3206V26.6793C18.7714 26.4287 19.3691 25.9354 19.7497 25.2867C20.1303 24.638 20.2693 23.8756 20.1421 23.1343C20.015 22.3931 19.6298 21.7206 19.0548 21.2358C18.4798 20.751 17.7519 20.4851 16.9998 20.4851C16.2477 20.4851 15.5198 20.751 14.9447 21.2358C14.3697 21.7206 13.9846 22.3931 13.8574 23.1343C13.7303 23.8756 13.8693 24.638 14.2499 25.2867C14.6305 25.9354 15.2282 26.4287 15.9373 26.6793V31.3211C15.2284 31.5717 14.6309 32.0649 14.2504 32.7135C13.87 33.362 13.731 34.1242 13.8582 34.8653C13.9853 35.6064 14.3704 36.2787 14.9453 36.7633C15.5201 37.248 16.2479 37.5138 16.9998 37.5138C17.7517 37.5138 18.4794 37.248 19.0543 36.7633C19.6292 36.2787 20.0142 35.6064 20.1414 34.8653C20.2685 34.1242 20.1296 33.362 19.7491 32.7135C19.3687 32.0649 18.7712 31.5717 18.0623 31.3211V31.3206ZM16.9998 22.6249C17.2099 22.6249 17.4153 22.6873 17.5901 22.804C17.7648 22.9208 17.901 23.0867 17.9814 23.2808C18.0618 23.475 18.0829 23.6886 18.0419 23.8947C18.0009 24.1008 17.8997 24.2902 17.7511 24.4388C17.6025 24.5873 17.4132 24.6885 17.2071 24.7295C17.001 24.7705 16.7873 24.7495 16.5932 24.6691C16.399 24.5887 16.2331 24.4525 16.1163 24.2777C15.9996 24.103 15.9373 23.8976 15.9373 23.6874C15.9375 23.4057 16.0495 23.1356 16.2488 22.9364C16.448 22.7372 16.7181 22.6252 16.9998 22.6249ZM16.9998 35.375C16.7896 35.375 16.5842 35.3126 16.4095 35.1959C16.2348 35.0791 16.0986 34.9132 16.0182 34.7191C15.9377 34.5249 15.9167 34.3113 15.9577 34.1052C15.9987 33.8991 16.0999 33.7097 16.2485 33.5611C16.3971 33.4126 16.5864 33.3114 16.7925 33.2704C16.9986 33.2294 17.2122 33.2504 17.4064 33.3308C17.6005 33.4112 17.7665 33.5474 17.8832 33.7222C18 33.8969 18.0623 34.1023 18.0623 34.3125C18.062 34.5942 17.95 34.8643 17.7508 35.0635C17.5516 35.2627 17.2815 35.3747 16.9998 35.375Z" fill="url(#paint0_linear_283_54220)"/>
<path d="M32.315 30.5025C32.5123 30.3052 32.6689 30.0709 32.7757 29.8131C32.8825 29.5553 32.9375 29.279 32.9375 29C32.9375 28.7209 32.8825 28.4446 32.7757 28.1868C32.6689 27.929 32.5123 27.6948 32.315 27.4975L26.1664 21.3492L29.2483 18.3075C29.7028 18.4201 30.1818 18.3796 30.6109 18.1923C31.0401 18.0049 31.3954 17.6811 31.6217 17.2712C31.8481 16.8613 31.9329 16.3881 31.8629 15.9251C31.7929 15.4621 31.572 15.0351 31.2346 14.7104C30.8972 14.3858 30.462 14.1815 29.9967 14.1294C29.5313 14.0772 29.0618 14.1801 28.6609 14.4221C28.2599 14.664 27.9501 15.0315 27.7794 15.4675C27.6086 15.9036 27.5865 16.3838 27.7166 16.8336L24.6637 19.8463L18.5025 13.685C18.3052 13.4876 18.0709 13.3311 17.8131 13.2243C17.5553 13.1175 17.279 13.0625 17 13.0625C16.7209 13.0625 16.4446 13.1175 16.1868 13.2243C15.929 13.3311 15.6948 13.4876 15.4975 13.685L9.34924 19.8334L6.30783 16.7512C6.42039 16.2966 6.37979 15.8175 6.19231 15.3884C6.00483 14.9592 5.68095 14.6039 5.27093 14.3776C4.86091 14.1513 4.38766 14.0666 3.92461 14.1367C3.46156 14.2068 3.0346 14.4278 2.70995 14.7654C2.3853 15.1029 2.18113 15.5382 2.1291 16.0036C2.07708 16.469 2.18011 16.9386 2.42221 17.3395C2.66431 17.7404 3.03195 18.0502 3.46809 18.2208C3.90422 18.3914 4.38448 18.4134 4.83435 18.2832L7.84654 21.3363L1.685 27.4975C1.48765 27.6948 1.33109 27.929 1.22428 28.1868C1.11747 28.4446 1.0625 28.7209 1.0625 29C1.0625 29.279 1.11747 29.5553 1.22428 29.8131C1.33109 30.0709 1.48765 30.3052 1.685 30.5025L7.84633 36.6637L4.83435 39.7168C4.3855 39.5875 3.90655 39.61 3.47174 39.7806C3.03693 39.9512 2.67054 40.2605 2.42937 40.6605C2.18819 41.0605 2.0857 41.5289 2.13777 41.9931C2.18984 42.4573 2.39357 42.8913 2.71738 43.2279C3.04119 43.5646 3.467 43.785 3.92881 43.855C4.39062 43.9251 4.86263 43.8408 5.2717 43.6154C5.68076 43.3899 6.00403 43.0358 6.19139 42.6079C6.37876 42.18 6.41976 41.7023 6.30804 41.2488L9.34945 38.1666L15.4977 44.315C15.695 44.5123 15.9292 44.6689 16.187 44.7757C16.4448 44.8825 16.7211 44.9375 17.0002 44.9375C17.2792 44.9375 17.5556 44.8825 17.8134 44.7757C18.0712 44.6689 18.3054 44.5123 18.5027 44.315L24.6639 38.1536L27.7168 41.1663C27.5876 41.6153 27.61 42.0943 27.7807 42.5292C27.9514 42.9641 28.2608 43.3305 28.6609 43.5717C29.061 43.8129 29.5295 43.9153 29.9938 43.8632C30.4581 43.811 30.8921 43.6072 31.2288 43.2832C31.5654 42.9593 31.7858 42.5334 31.8558 42.0715C31.9257 41.6096 31.8414 41.1375 31.6157 40.7284C31.3901 40.3193 31.0359 39.996 30.6079 39.8087C30.1799 39.6215 29.7021 39.5806 29.2485 39.6924L26.1666 36.6507L32.315 30.5025ZM17 42.8125L3.18748 29L17 15.1875L30.8125 29L17 42.8125Z" fill="url(#paint1_linear_283_54220)"/>
</g>
<defs>
<linearGradient id="paint0_linear_283_54220" x1="16.9998" y1="20.4851" x2="16.9998" y2="37.5138" gradientUnits="userSpaceOnUse">
<stop stop-color="#000AFF"/>
<stop offset="1" stop-color="#D274FF"/>
</linearGradient>
<linearGradient id="paint1_linear_283_54220" x1="17" y1="13.0625" x2="17" y2="44.9375" gradientUnits="userSpaceOnUse">
<stop stop-color="#000AFF"/>
<stop offset="1" stop-color="#D274FF"/>
</linearGradient>
<clipPath id="clip0_283_54220">
<rect width="34" height="34" fill="white" transform="translate(0 12)"/>
</clipPath>
</defs>
</svg>
