<svg width="18" height="18" viewBox="0 0 18 18" fill="none" xmlns="http://www.w3.org/2000/svg">
<path d="M9.43688 10.2286V7.77149C9.78053 7.63879 10.0702 7.37765 10.2546 7.03422C10.439 6.69078 10.5064 6.28717 10.4448 5.89472C10.3832 5.50228 10.1965 5.14626 9.91787 4.88961C9.63921 4.63296 9.28647 4.49219 8.92199 4.49219C8.55751 4.49219 8.20477 4.63296 7.92611 4.88961C7.64745 5.14626 7.46082 5.50228 7.3992 5.89472C7.33758 6.28717 7.40494 6.69078 7.58938 7.03422C7.77382 7.37765 8.06346 7.63879 8.4071 7.77149V10.2289C8.06356 10.3616 7.77401 10.6227 7.58964 10.966C7.40527 11.3094 7.33794 11.7129 7.39956 12.1052C7.46118 12.4976 7.64777 12.8535 7.92637 13.1101C8.20496 13.3666 8.55761 13.5074 8.92199 13.5074C9.28637 13.5074 9.63902 13.3666 9.91762 13.1101C10.1962 12.8535 10.3828 12.4976 10.4444 12.1052C10.506 11.7129 10.4387 11.3094 10.2543 10.966C10.07 10.6227 9.78043 10.3616 9.43688 10.2289V10.2286ZM8.92199 5.62505C9.02383 5.62505 9.12338 5.65804 9.20805 5.71984C9.29272 5.78165 9.35872 5.8695 9.39769 5.97229C9.43666 6.07507 9.44686 6.18817 9.42699 6.29728C9.40712 6.4064 9.35808 6.50663 9.28607 6.58529C9.21407 6.66396 9.12232 6.71753 9.02244 6.73924C8.92256 6.76094 8.81903 6.7498 8.72495 6.70723C8.63087 6.66465 8.55045 6.59256 8.49387 6.50005C8.4373 6.40755 8.4071 6.2988 8.4071 6.18755C8.40722 6.0384 8.46151 5.89541 8.55804 5.78995C8.65458 5.68449 8.78547 5.62518 8.92199 5.62505ZM8.92199 12.375C8.82016 12.375 8.72061 12.3421 8.63593 12.2802C8.55126 12.2184 8.48526 12.1306 8.44629 12.0278C8.40732 11.925 8.39713 11.8119 8.41699 11.7028C8.43686 11.5937 8.4859 11.4935 8.55791 11.4148C8.62992 11.3361 8.72166 11.2826 8.82154 11.2609C8.92142 11.2392 9.02495 11.2503 9.11903 11.2929C9.21312 11.3354 9.29353 11.4075 9.35011 11.5C9.40669 11.5925 9.43688 11.7013 9.43688 11.8125C9.43676 11.9617 9.38247 12.1047 9.28594 12.2101C9.18941 12.3156 9.05851 12.3749 8.92199 12.375Z" fill="#333333"/>
<path d="M16.3443 9.79542C16.4399 9.69098 16.5158 9.56697 16.5675 9.43049C16.6193 9.29401 16.6459 9.14772 16.6459 8.99999C16.6459 8.85226 16.6193 8.70597 16.5675 8.56949C16.5158 8.43301 16.4399 8.309 16.3443 8.20456L13.3647 4.94959L14.8582 3.33927C15.0784 3.3989 15.3105 3.37745 15.5185 3.27825C15.7265 3.17905 15.8986 3.00765 16.0083 2.79063C16.118 2.57362 16.1591 2.32312 16.1252 2.078C16.0913 1.83287 15.9843 1.60683 15.8207 1.43494C15.6572 1.26305 15.4464 1.15491 15.2208 1.1273C14.9953 1.0997 14.7678 1.15417 14.5735 1.28226C14.3792 1.41036 14.229 1.60491 14.1463 1.83575C14.0636 2.06659 14.0529 2.32081 14.1159 2.55897L12.6364 4.15394L9.65069 0.892057C9.55509 0.787577 9.44158 0.704697 9.31665 0.648151C9.19172 0.591604 9.05781 0.5625 8.92258 0.5625C8.78735 0.5625 8.65345 0.591604 8.52852 0.648151C8.40359 0.704697 8.29008 0.787577 8.19448 0.892057L5.215 4.14708L3.74113 2.51532C3.79568 2.27465 3.776 2.02104 3.68514 1.79384C3.59429 1.56663 3.43734 1.37853 3.23864 1.25873C3.03994 1.13892 2.81061 1.09409 2.58621 1.13121C2.36181 1.16833 2.1549 1.28532 1.99758 1.46402C1.84025 1.64272 1.74131 1.87314 1.7161 2.11954C1.69089 2.36595 1.74081 2.61455 1.85814 2.82679C1.97546 3.03903 2.15362 3.20304 2.36497 3.29337C2.57633 3.3837 2.80907 3.39531 3.02707 3.32639L4.48679 4.94273L1.50088 8.20456C1.40525 8.309 1.32938 8.43301 1.27762 8.56949C1.22586 8.70597 1.19922 8.85226 1.19922 8.99999C1.19922 9.14772 1.22586 9.29401 1.27762 9.43049C1.32938 9.56697 1.40525 9.69098 1.50088 9.79542L4.48669 13.0572L3.02707 14.6736C2.80956 14.6052 2.57746 14.6171 2.36675 14.7074C2.15603 14.7977 1.97848 14.9614 1.86161 15.1732C1.74473 15.385 1.69506 15.633 1.7203 15.8787C1.74553 16.1244 1.84426 16.3542 2.00118 16.5324C2.1581 16.7107 2.36445 16.8273 2.58824 16.8644C2.81204 16.9015 3.04078 16.8569 3.23901 16.7375C3.43725 16.6182 3.5939 16.4307 3.6847 16.2042C3.7755 15.9777 3.79537 15.7248 3.74123 15.4847L5.21511 13.8529L8.19458 17.1079C8.29018 17.2124 8.40369 17.2953 8.52862 17.3518C8.65355 17.4084 8.78746 17.4375 8.92269 17.4375C9.05792 17.4375 9.19182 17.4084 9.31675 17.3518C9.44168 17.2953 9.55519 17.2124 9.65079 17.1079L12.6365 13.846L14.116 15.441C14.0534 15.6787 14.0643 15.9323 14.147 16.1625C14.2297 16.3928 14.3796 16.5867 14.5735 16.7144C14.7674 16.8421 14.9945 16.8963 15.2194 16.8687C15.4444 16.8411 15.6548 16.7332 15.8179 16.5617C15.9811 16.3902 16.0879 16.1647 16.1218 15.9202C16.1557 15.6756 16.1148 15.4257 16.0054 15.2091C15.8961 14.9926 15.7244 14.8214 15.517 14.7223C15.3096 14.6231 15.0781 14.6015 14.8583 14.6607L13.3648 13.0504L16.3443 9.79542ZM8.92258 16.3125L2.22899 8.99999L8.92258 1.68749L15.6162 8.99999L8.92258 16.3125Z" fill="#333333"/>
</svg>
