<svg width="21" height="18" viewBox="0 0 21 18" fill="none" xmlns="http://www.w3.org/2000/svg">
<path d="M0.650391 8.66693C0.704575 8.53298 8.39606 8.9063 8.34187 8.77235L5.88234 1.87329C5.83995 1.75494 5.83462 1.62648 5.86705 1.50502C5.89948 1.38357 5.96814 1.27487 6.06388 1.1934C6.15963 1.11194 6.27792 1.06157 6.403 1.049C6.52808 1.03643 6.65402 1.06226 6.76406 1.12305L19.8274 8.43977C19.9241 8.49328 20.0047 8.57172 20.0609 8.66693C20.117 8.76214 20.1466 8.87065 20.1466 8.98118C20.1466 9.0917 20.117 9.20021 20.0609 9.29543C20.0047 9.39064 19.9241 9.46907 19.8274 9.52258L6.76406 16.8393C6.65402 16.9001 6.52808 16.9259 6.403 16.9134C6.27792 16.9008 6.15963 16.8504 6.06388 16.769C5.96814 16.6875 5.89948 16.5788 5.86705 16.4573C5.83462 16.3359 5.83995 16.2074 5.88234 16.0891" stroke="url(#paint0_linear_987_227547)" stroke-width="1.2" stroke-linecap="round" stroke-linejoin="round"/>
<defs>
<linearGradient id="paint0_linear_987_227547" x1="10.3985" y1="1.0459" x2="10.3985" y2="16.9165" gradientUnits="userSpaceOnUse">
<stop stop-color="#000AFF"/>
<stop offset="1" stop-color="#D274FF"/>
</linearGradient>
</defs>
</svg>
