<svg width="159" height="150" viewBox="0 0 159 150" fill="none" xmlns="http://www.w3.org/2000/svg">
<path d="M50.5649 147.169H87.1163V118.873H50.5649V147.169Z" fill="#EEEEEE"/>
<path d="M77.9588 146.97C77.9082 146.97 77.8672 140.662 77.8672 132.883C77.8672 125.102 77.9082 118.796 77.9588 118.796C78.009 118.796 78.05 125.102 78.05 132.883C78.05 140.662 78.009 146.97 77.9588 146.97Z" fill="#E3E3E2"/>
<path d="M81.2148 143.908H84.0167V140.729H81.2148V143.908Z" fill="#FCFDFD"/>
<path d="M61.7153 118.946V124.983H65.8673V118.946H61.7153Z" fill="#E3E3E2"/>
<path d="M61.7153 141.047V147.085H65.8673V141.047H61.7153Z" fill="#E3E3E2"/>
<path d="M107.35 147.457H153.437V111.779H107.35V147.457Z" fill="#EEEEEE"/>
<path d="M141.89 147.205C141.84 147.205 141.799 139.252 141.799 129.445C141.799 119.633 141.84 111.682 141.89 111.682C141.941 111.682 141.981 119.633 141.981 129.445C141.981 139.252 141.941 147.205 141.89 147.205Z" fill="#E3E3E2"/>
<path d="M149.529 143.345H145.996V139.336H149.529V143.345Z" fill="#FCFDFD"/>
<path d="M121.41 119.483H126.645V111.871H121.41V119.483Z" fill="#E3E3E2"/>
<path d="M121.41 147.351H126.645V139.737H121.41V147.351Z" fill="#E3E3E2"/>
<path d="M20.542 112.828C22.4073 111.862 24.6037 111.736 26.6746 112.08C27.7871 112.264 28.947 112.598 29.704 113.437C30.4609 114.276 30.6045 115.752 29.7352 116.473C29.2177 116.902 28.4961 116.967 27.8251 116.959C26.2039 116.94 24.4052 116.654 23.1102 117.633C22.3711 118.191 21.8794 119.12 20.9959 119.394C20.1317 119.664 19.1562 119.151 18.6979 118.368C18.2398 117.586 18.2243 116.607 18.438 115.724C18.438 115.724 18.663 113.801 20.542 112.828Z" fill="#EEEEEE"/>
<path d="M16.2685 104.548C17.409 106.183 19.6258 105.641 20.6538 104.643C21.6816 103.645 22.116 102.199 22.5115 100.82C23.415 97.6678 24.3262 94.3617 23.6542 91.1525C23.4533 90.1926 23.096 89.2356 22.424 88.5241C21.7523 87.8118 20.7194 87.3885 19.7748 87.6389C18.6572 87.9355 17.9624 89.0341 17.4604 90.0795C15.9844 93.1518 15.2032 96.5579 15.1915 99.9689C15.1859 101.562 15.373 103.233 16.2685 104.548Z" fill="#EEEEEE"/>
<path d="M13.1361 106.894C14.3745 105.419 14.6096 103.267 14.0585 101.419C13.5074 99.5707 12.2626 97.9986 10.8277 96.7151C9.14537 95.21 7.16804 94.0391 5.04212 93.2889C4.20562 92.9937 3.32306 92.7609 2.4405 92.8451C1.55767 92.9299 0.668671 93.3829 0.256865 94.1712C-0.351931 95.3368 0.231778 96.7503 0.863059 97.9039C1.97551 99.9356 3.24739 101.88 4.66293 103.712C5.80197 105.186 7.10677 106.639 8.84255 107.305C10.5782 107.972 12.3814 107.893 13.3014 106.685" fill="#EEEEEE"/>
<path d="M16.1912 129.213C16.2126 129.214 16.2473 128.949 16.2943 128.47C16.3469 127.929 16.4127 127.25 16.491 126.442C16.5852 125.589 16.7094 124.574 16.9454 123.468C17.1808 122.365 17.5493 121.17 18.0225 119.958C18.5125 118.753 19.11 117.658 19.8084 116.782C20.5017 115.902 21.3081 115.265 22.0662 114.898C22.8218 114.523 23.4992 114.371 23.9675 114.304C24.4398 114.255 24.7043 114.218 24.7045 114.197C24.7048 114.175 24.4398 114.172 23.9545 114.185C23.4739 114.217 22.7681 114.34 21.972 114.703C21.173 115.058 20.3176 115.705 19.5902 116.603C18.857 117.497 18.2378 118.617 17.739 119.843C17.2577 121.077 16.8946 122.284 16.6698 123.411C16.4455 124.536 16.3428 125.562 16.2758 126.423C16.2116 127.284 16.1875 127.981 16.1759 128.463C16.165 128.945 16.1705 129.212 16.1912 129.213Z" fill="#E3E3E2"/>
<path d="M16.3302 127.653C16.3407 127.653 16.3471 127.534 16.35 127.308C16.3494 127.049 16.3485 126.723 16.3474 126.322C16.3451 125.467 16.3454 124.229 16.3911 122.7C16.4666 119.642 16.7289 116.351 17.2355 111.712C17.7153 107.349 18.3591 102.272 19.0388 98.971C19.1846 98.2201 19.3314 97.5445 19.4694 96.9531C19.6013 96.3603 19.7136 95.8492 19.8223 95.4353C19.9155 95.0457 19.9914 94.7287 20.0519 94.4772C20.1011 94.2571 20.1219 94.1398 20.1119 94.1369C20.1018 94.1341 20.061 94.2454 19.9924 94.4603C19.9176 94.7083 19.8232 95.0207 19.7073 95.405C19.5809 95.8146 19.4513 96.3222 19.3033 96.9129C19.149 97.5022 18.9871 98.176 18.8276 98.9256C18.1552 101.917 17.4433 106.097 16.9318 110.748C16.4241 115.397 16.1953 119.63 16.1751 122.696C16.1569 124.229 16.1895 125.469 16.2285 126.325C16.253 126.726 16.2727 127.052 16.2884 127.311C16.3055 127.536 16.3196 127.654 16.3302 127.653Z" fill="#E3E3E2"/>
<path d="M16.3506 119.488C16.3717 119.487 16.368 119.122 16.3435 118.458C16.3055 117.796 16.2149 116.84 16.0291 115.668C15.8323 114.499 15.5572 113.111 15.1251 111.603C14.9378 110.913 14.4978 109.261 13.4315 106.793C12.0265 103.448 10.118 100.713 8.45777 99.0198C8.06816 98.57 7.63457 98.2456 7.28774 97.9279C7.10817 97.7754 6.9494 97.6239 6.78793 97.5034C6.62548 97.3911 6.47412 97.2864 6.33389 97.1892C5.78748 96.8141 5.48135 96.6161 5.47012 96.6341C5.42106 96.7014 6.69416 97.4531 8.3015 99.1695C9.90252 100.882 11.7577 103.598 13.151 106.915C13.928 108.714 14.4698 110.319 14.8543 111.681C15.2985 113.174 15.5933 114.548 15.8163 115.706C16.0281 116.865 16.1507 117.812 16.2248 118.468C16.2857 119.125 16.3295 119.489 16.3506 119.488Z" fill="#E3E3E2"/>
<path d="M7.94385 132.65L8.75897 143.858H23.1051L23.9202 132.65H7.94385Z" fill="#EEEEEE"/>
<path d="M6.55811 128.233V132.65H25.6321V128.233H6.55811Z" fill="#EEEEEE"/>
<path d="M6.55811 143.43V144.654H25.3169V143.43H6.55811Z" fill="#E3E3E2"/>
<path d="M8.33257 146.674L7.4541 144.519H24.6333L23.6083 146.674H8.33257Z" fill="#E3E3E2"/>
<path d="M23.6536 136.313C23.6569 136.316 23.6342 136.351 23.5869 136.416C23.53 136.492 23.4594 136.586 23.3725 136.701C23.1688 136.963 22.889 137.323 22.5368 137.775L22.4997 137.823L22.4636 137.773C21.9384 137.044 21.2366 136.069 20.4105 134.922H20.5286C19.9178 135.79 19.2374 136.757 18.5072 137.796L18.4438 137.885L18.3728 137.8C17.6267 136.91 16.8165 135.942 15.9753 134.938L16.1136 134.936C16.072 134.989 16.027 135.045 15.9817 135.102C15.2382 136.038 14.5187 136.944 13.8381 137.8L13.7666 137.89L13.7007 137.796C12.9729 136.762 12.2929 135.797 11.6783 134.924L11.7957 134.929C10.7991 136.069 9.95386 137.036 9.30515 137.778L9.26089 137.828L9.22717 137.771C8.89883 137.218 8.63699 136.776 8.44714 136.456C8.36572 136.313 8.29978 136.198 8.24714 136.106C8.20285 136.026 8.18214 135.984 8.186 135.981C8.18969 135.979 8.21822 136.017 8.26963 136.093C8.32775 136.181 8.40067 136.292 8.491 136.429C8.69006 136.744 8.96491 137.177 9.30953 137.721L9.23184 137.714C9.87009 136.963 10.7018 135.985 11.6825 134.831L11.7443 134.758L11.8003 134.836C12.4206 135.706 13.1067 136.667 13.8408 137.696L13.7035 137.693C14.3824 136.835 15.1002 135.928 15.8421 134.991C15.8873 134.934 15.9323 134.877 15.974 134.825L16.0422 134.739L16.1123 134.823C16.9511 135.829 17.759 136.798 18.5029 137.691L18.3687 137.696C19.1064 136.664 19.7936 135.702 20.4103 134.838L20.4702 134.754L20.5286 134.838C21.3373 135.997 22.0242 136.982 22.5384 137.72L22.4654 137.717C22.8317 137.276 23.1228 136.926 23.3348 136.671C23.4292 136.561 23.5059 136.472 23.5677 136.4C23.6213 136.34 23.6505 136.311 23.6536 136.313Z" fill="#F8F8F9"/>
<path d="M24.1197 132.576C24.1197 132.626 20.5249 132.666 16.0917 132.666C11.6568 132.666 8.06299 132.626 8.06299 132.576C8.06299 132.527 11.6568 132.487 16.0917 132.487C20.5249 132.487 24.1197 132.527 24.1197 132.576Z" fill="#F8F8F9"/>
<path d="M124.835 20.1658L121.894 20.1816L121.815 5.49337L124.756 5.47787L124.835 20.1658Z" fill="#E3E3E2"/>
<path d="M103.996 13.6252L96.3804 13.666L96.3369 5.55753L103.953 5.51666L103.996 13.6252Z" fill="#EEEEEE"/>
<path d="M111.576 13.5838L103.96 13.625L103.917 5.51615L111.533 5.4753L111.576 13.5838Z" fill="#F8F8F9"/>
<path d="M96.3491 7.79628C101.41 7.83855 106.484 7.80896 111.545 7.72618C111.649 7.72442 111.649 7.5645 111.544 7.5638C106.483 7.53597 101.409 7.56062 96.3484 7.65714C96.2592 7.6589 96.2596 7.79557 96.3491 7.79628Z" fill="#E3E3E2"/>
<path d="M105.461 20.0976L91.624 20.1719L91.5889 13.5639L105.425 13.4896L105.461 20.0976Z" fill="#EEEEEE"/>
<path d="M119.232 20.024L105.395 20.0986L105.36 13.4903L119.197 13.416L119.232 20.024Z" fill="#F8F8F9"/>
<path d="M91.5987 15.4019C100.791 15.5062 110.015 15.4129 119.207 15.2649C119.311 15.2632 119.311 15.1032 119.206 15.1029C110.013 15.0539 100.788 15.0596 91.598 15.2625C91.5085 15.2646 91.5092 15.4009 91.5987 15.4019Z" fill="#E3E3E2"/>
<path d="M140.032 22.54H86.4238V20.1723H140.032V22.54Z" fill="#E3E3E2"/>
<path d="M97.3772 29.3887H95.2007V21.3105H97.3772V29.3887Z" fill="#E3E3E2"/>
<path d="M129.864 29.3887H127.688V21.3105H129.864V29.3887Z" fill="#E3E3E2"/>
<path d="M127.734 20.2019L124.793 20.2178L124.685 0.016655L127.626 0.000797272L127.734 20.2019Z" fill="#EEEEEE"/>
<path d="M132.309 20.1316L127.739 20.1562L127.652 3.78569L132.222 3.76103L132.309 20.1316Z" fill="#F8F8F9"/>
<path d="M132.191 6.91489C132.191 6.95856 131.168 6.99414 129.906 6.99414C128.643 6.99414 127.621 6.95856 127.621 6.91489C127.621 6.87086 128.643 6.83528 129.906 6.83528C131.168 6.83528 132.191 6.87086 132.191 6.91489Z" fill="#E3E3E2"/>
<path d="M132.191 6.22703C132.191 6.27106 131.168 6.30664 129.906 6.30664C128.643 6.30664 127.621 6.27106 127.621 6.22703C127.621 6.18336 128.643 6.14778 129.906 6.14778C131.168 6.14778 132.191 6.18336 132.191 6.22703Z" fill="#E3E3E2"/>
<path d="M132.191 17.6688C132.191 17.7128 131.168 17.748 129.906 17.748C128.643 17.748 127.621 17.7128 127.621 17.6688C127.621 17.6248 128.643 17.5892 129.906 17.5892C131.168 17.5892 132.191 17.6248 132.191 17.6688Z" fill="#E3E3E2"/>
<path d="M132.191 16.9809C132.191 17.025 131.168 17.0605 129.906 17.0605C128.643 17.0605 127.621 17.025 127.621 16.9809C127.621 16.9373 128.643 16.9017 129.906 16.9017C131.168 16.9017 132.191 16.9373 132.191 16.9809Z" fill="#E3E3E2"/>
<path d="M129.979 15.4805C129.935 15.4805 129.9 13.8288 129.9 11.7918C129.9 9.75451 129.935 8.10287 129.979 8.10287C130.023 8.10287 130.059 9.75451 130.059 11.7918C130.059 13.8288 130.023 15.4805 129.979 15.4805Z" fill="#E3E3E2"/>
<path d="M137.214 20.1377H132.24V7.78123H137.214V20.1377Z" fill="#EEEEEE"/>
<path d="M126.958 3.44932C126.958 3.91815 126.58 4.29785 126.113 4.29785C125.645 4.29785 125.267 3.91815 125.267 3.44932C125.267 2.98084 125.645 2.60113 126.113 2.60113C126.58 2.60113 126.958 2.98084 126.958 3.44932Z" fill="#E3E3E2"/>
<path d="M126.374 17.8008H125.851V5.78316H126.374V17.8008Z" fill="#E3E3E2"/>
<path d="M155.02 147.264C155.02 147.315 121.29 147.355 79.6921 147.355C38.0795 147.355 4.35693 147.315 4.35693 147.264C4.35693 147.213 38.0795 147.172 79.6921 147.172C121.29 147.172 155.02 147.213 155.02 147.264Z" fill="#1D2A30"/>
<path d="M44.3169 17.9922C45.9642 19.9985 46.8781 22.5983 46.85 25.1982C46.8339 26.6836 46.5612 28.3222 47.4224 29.5307C48.0758 30.4479 49.2676 30.9069 49.7986 31.9009C50.437 33.0961 49.8926 34.6054 50.2857 35.903C50.8426 37.7428 52.989 38.5117 54.2618 39.9485C55.3655 41.1943 55.774 43.0175 55.3294 44.6241C54.8851 46.2303 53.6087 47.5747 52.039 48.1197C51.196 48.4124 50.2327 48.4754 49.4343 48.076C48.5735 47.6455 48.0418 46.7618 47.6105 45.8988C46.763 44.2028 39.3329 35.0246 38.9121 33.1746" fill="#1D2A30"/>
<path d="M38.9123 15.8291C35.8742 15.3384 32.9541 17.3631 31.6741 20.1715C30.394 22.9805 30.3589 26.1746 30.2645 29.2623C30.17 32.3493 29.9541 35.5723 28.3838 38.2289C27.3873 39.9147 25.8441 41.3937 25.602 43.3388C25.3854 45.0806 26.2836 46.8347 25.9854 48.5642C25.7258 50.07 24.5825 51.38 24.6278 52.9076C24.6823 54.7453 26.5655 56.1299 28.3965 56.1789C30.2274 56.2282 31.9381 55.2652 33.3736 54.1236C35.7026 52.2708 37.5907 49.8629 38.8372 47.1553" fill="#1D2A30"/>
<path d="M33.9138 23.1012C33.5126 19.8853 35.8302 16.9462 39.0838 16.6352C42.1503 16.3418 44.8757 18.6334 45.3354 21.6908C45.7383 24.3707 46.0843 27.0762 46.0721 28.0586C46.0345 31.0216 44.3072 32.1752 43.6071 32.5214C43.4474 32.6003 43.0066 32.6901 42.8304 32.7155L42.8139 32.7384L43.4695 36.1396C43.7664 38.3682 42.5272 40.3555 40.3107 40.6799C38.0864 41.0054 36.3479 39.2939 36.0085 37.0639L33.9138 23.1012Z" fill="#F9AD95"/>
<path d="M44.7314 22.9885C44.6826 23.0579 44.2927 22.8483 43.7933 22.9226C43.2933 22.9899 42.9641 23.3013 42.9009 23.2477C42.8704 23.2245 42.9132 23.1062 43.056 22.9663C43.196 22.8272 43.448 22.675 43.7593 22.6306C44.0709 22.587 44.3496 22.6634 44.517 22.7592C44.6879 22.855 44.756 22.9575 44.7314 22.9885Z" fill="#1D2A30"/>
<path d="M40.2876 24.0725C40.2388 24.1415 39.8486 23.932 39.3496 24.0063C38.8495 24.0736 38.5203 24.3853 38.4571 24.3317C38.4266 24.3085 38.4687 24.1901 38.6119 24.05C38.7523 23.9108 39.0039 23.7586 39.3152 23.7143C39.6268 23.6706 39.9055 23.7474 40.0732 23.8428C40.2434 23.939 40.3118 24.0411 40.2876 24.0725Z" fill="#1D2A30"/>
<path d="M42.1093 26.7606C42.103 26.7324 42.4058 26.6331 42.8996 26.495C43.0253 26.4629 43.1425 26.42 43.1512 26.3294C43.1677 26.2326 43.0944 26.1023 43.0109 25.9621C42.8459 25.6697 42.6733 25.3633 42.4918 25.0424C41.7661 23.7303 41.2211 22.644 41.2741 22.6151C41.3267 22.5862 41.958 23.6264 42.6838 24.9381C42.8593 25.2622 43.0274 25.5707 43.1877 25.8663C43.2569 26.0047 43.3639 26.1576 43.3267 26.359C43.3064 26.4601 43.2228 26.5429 43.1442 26.5774C43.066 26.6144 42.9944 26.626 42.9319 26.6391C42.4294 26.7409 42.1153 26.7888 42.1093 26.7606Z" fill="#1D2A30"/>
<path d="M42.8098 32.7186C42.8098 32.7186 40.9035 33.1596 38.2788 32.0571C38.2788 32.0571 39.412 34.5055 42.9863 33.6351L42.8098 32.7186Z" fill="#F6865E"/>
<path d="M40.0365 22.7586C40.007 22.902 39.4985 22.9104 38.9226 23.0672C38.3436 23.2123 37.8958 23.4536 37.8003 23.343C37.7568 23.2894 37.8207 23.1489 37.9926 22.9886C38.1632 22.8294 38.4471 22.6596 38.7935 22.5691C39.1399 22.4789 39.4701 22.4877 39.6965 22.5437C39.9242 22.5994 40.0481 22.6906 40.0365 22.7586Z" fill="#1D2A30"/>
<path d="M44.3217 21.8769C44.2501 22.0037 43.8887 21.9361 43.4738 21.991C43.0573 22.0312 42.7204 22.1794 42.6225 22.072C42.5789 22.0195 42.6176 21.897 42.7551 21.767C42.8902 21.6374 43.1299 21.5127 43.4156 21.4796C43.7012 21.4472 43.9631 21.5144 44.1238 21.6099C44.287 21.7057 44.3522 21.8159 44.3217 21.8769Z" fill="#1D2A30"/>
<path d="M39.2048 24.7199C39.2392 24.9375 39.4512 25.0883 39.6783 25.0563C39.9053 25.0249 40.0618 24.8231 40.0274 24.605C39.9934 24.3874 39.7814 24.2366 39.5544 24.2683C39.3273 24.3 39.1708 24.5022 39.2048 24.7199Z" fill="#1D2A30"/>
<path d="M43.6293 23.759C43.6633 23.9767 43.8753 24.1271 44.1023 24.0954C44.329 24.0637 44.4859 23.8619 44.4515 23.6442C44.4175 23.4265 44.2051 23.2757 43.9784 23.3074C43.7514 23.3391 43.5949 23.5413 43.6293 23.759Z" fill="#1D2A30"/>
<path d="M42.8957 27.7377C42.5742 27.6443 42.2973 27.8078 42.1668 28.0417C42.0362 28.2759 42.0674 28.5957 42.2552 28.7863C42.443 28.9775 42.7774 29.0075 42.9844 28.8384C43.1252 28.7236 43.1957 28.5401 43.2136 28.3594C43.2305 28.1921 43.2031 28.0131 43.1003 27.8803C42.9974 27.7479 42.8072 27.6764 42.6542 27.7447" fill="#F6865E"/>
<path d="M44.9456 19.2929C44.7168 18.1785 43.9525 17.2278 43.0218 16.5783C42.2311 16.0263 41.2959 15.6614 40.3336 15.6318C39.371 15.6022 38.3845 15.927 37.6889 16.5959C37.1748 17.0901 36.9116 17.79 36.8874 18.5039L36.9435 18.0112C36.7989 18.4159 36.7993 18.8548 36.9495 19.2524L36.9502 19.2549L36.9498 19.2531C37.0312 19.4687 37.1288 19.6846 37.2151 19.9009C37.4608 20.5166 37.9367 21.0362 38.5273 21.3338C38.7993 21.4708 39.1007 21.5628 39.4046 21.5483C39.7086 21.5339 40.0153 21.4025 40.1999 21.1594C40.4634 20.8125 40.4329 20.3313 40.3901 19.897C40.6512 20.3063 40.9284 20.7308 41.3478 20.9735C41.7675 21.2154 42.3739 21.207 42.6691 20.822C42.9551 20.449 42.8421 19.9132 42.6765 19.4733C42.9446 19.8836 43.3289 20.2169 43.7724 20.4236C44.0177 20.5381 44.3069 20.6135 44.5557 20.5057C44.7663 20.4141 44.9081 20.2024 44.9621 19.9784C45.0158 19.7544 44.992 19.5184 44.9456 19.2929Z" fill="#1D2A30"/>
<path d="M42.4101 20.2139C42.3785 20.2149 42.3838 19.7961 42.2487 19.1466C42.1132 18.508 41.7911 17.6056 41.0369 16.9384C40.6652 16.6091 40.2378 16.3812 39.8226 16.2804C39.4068 16.1772 39.0109 16.1896 38.6926 16.2519C38.0472 16.3836 37.7346 16.6911 37.7152 16.6587C37.7089 16.6517 37.7763 16.5693 37.9307 16.4573C38.0841 16.3452 38.3315 16.2107 38.6642 16.1255C38.9962 16.043 39.4152 16.0152 39.8612 16.1159C40.3076 16.2146 40.7656 16.453 41.158 16.801C41.9553 17.5069 42.2704 18.464 42.3757 19.1223C42.4294 19.458 42.4413 19.7324 42.4389 19.9212C42.4364 20.11 42.4217 20.2139 42.4101 20.2139Z" fill="#365462"/>
<path d="M74.7313 61.2807L61.2373 55.9116C61.2373 55.9116 54.3245 46.813 54.4688 46.6365L49.6167 51.97L56.6692 61.5526L73.011 65.3924L80.751 65.4551C80.1523 62.4671 74.7313 61.2807 74.7313 61.2807Z" fill="#F9AD95"/>
<path d="M45.3201 35.3258L43.4825 34.6108L35.5443 35.6213V37.0289L35.3169 37.057C35.3169 37.057 32.8511 37.5069 30.4539 38.9514C27.5511 40.7006 26.0425 44.0743 26.5801 47.4297C26.903 49.4445 27.5288 51.8936 28.7343 53.3089C31.0398 56.0158 33.1454 52.6703 33.1454 52.6703C33.1454 52.6703 34.5925 55.9834 34.5095 57.5502C34.4397 58.8623 33.8614 61.5963 33.6756 62.4501C33.6441 62.5942 33.7383 62.733 33.8827 62.7598L50.6291 65.8672L50.7108 61.7591L50.1781 44.8616L49.4394 38.299C49.4394 38.299 49.4626 35.1638 45.3201 35.3258Z" fill="url(#paint0_linear_1_25437)"/>
<path d="M49.1826 37.207L55.5676 46.4666L50.4271 52.752L49.1826 37.207Z" fill="url(#paint1_linear_1_25437)"/>
<path d="M50.5515 56.6924C50.5389 56.692 50.5304 56.4793 50.5266 56.0946C50.5213 55.6794 50.5146 55.1309 50.5062 54.4677C50.4732 53.0953 50.396 51.1978 50.1237 49.1218C49.8591 47.0446 49.4569 45.1887 49.1491 43.8505C48.9979 43.2049 48.8726 42.6705 48.7782 42.2665C48.6905 41.8921 48.648 41.6832 48.6603 41.6801C48.6722 41.6769 48.7382 41.8791 48.847 42.2482C48.9561 42.617 49.1042 43.1535 49.2748 43.8199C49.6152 45.1521 50.0391 47.0112 50.3048 49.0985C50.5785 51.1837 50.6354 53.0908 50.6354 54.4662C50.6287 55.1549 50.6189 55.7114 50.5975 56.096C50.5799 56.4803 50.5641 56.6927 50.5515 56.6924Z" fill="#1D2A30"/>
<path d="M34.84 42.6139C34.839 42.6435 34.3554 42.6375 33.578 42.6791C32.8007 42.7203 31.7291 42.827 30.5669 43.0676C29.4048 43.3103 28.3788 43.6393 27.6494 43.9119C26.9194 44.1835 26.4781 44.3818 26.4655 44.355C26.4599 44.3434 26.5646 44.2821 26.7592 44.1803C26.9528 44.0771 27.2405 43.9429 27.6023 43.7911C28.3247 43.4857 29.3556 43.1331 30.5298 42.8879C31.704 42.6449 32.7897 42.5575 33.5736 42.5494C33.9656 42.5449 34.2829 42.5533 34.5014 42.5709C34.7202 42.5864 34.8404 42.6012 34.84 42.6139Z" fill="#FCFDFD"/>
<path d="M49.6301 46.853C49.6336 46.8762 49.3311 46.9498 48.8338 47.0263C48.3372 47.1031 47.6452 47.1767 46.878 47.2034C46.1105 47.2295 45.415 47.2034 44.9142 47.1612C44.413 47.1189 44.1063 47.0664 44.1084 47.0425C44.1105 47.0157 44.4207 47.0227 44.9208 47.0315C45.4206 47.0407 46.1105 47.046 46.8717 47.0203C47.6329 46.9935 48.3207 46.941 48.8187 46.8977C49.3167 46.8544 49.6259 46.8262 49.6301 46.853Z" fill="#FCFDFD"/>
<path d="M52.5615 42.6624C52.5938 42.6962 52.0284 43.2633 51.1914 43.7744C50.3565 44.2897 49.5964 44.5366 49.581 44.4919C49.561 44.4419 50.2772 44.1238 51.096 43.618C51.9172 43.1168 52.5257 42.6212 52.5615 42.6624Z" fill="#FCFDFD"/>
<path d="M49.9806 38.3684C50.0118 38.3994 49.259 39.0792 48.121 39.5582C46.986 40.0454 45.976 40.1151 45.9757 40.0707C45.9658 40.0144 46.9425 39.8654 48.0497 39.3892C49.1608 38.9221 49.9469 38.3219 49.9806 38.3684Z" fill="#FCFDFD"/>
<path d="M50.3293 54.0216C50.3342 54.0332 50.2159 54.0949 49.9977 54.1963C49.7801 54.2999 49.4572 54.4327 49.0526 54.5817C48.2447 54.88 47.0947 55.2129 45.7927 55.4151C44.49 55.6144 43.2933 55.6433 42.4332 55.6018C42.0029 55.582 41.6555 55.5524 41.4168 55.5193C41.1782 55.4883 41.0469 55.4651 41.0484 55.4524C41.0512 55.4225 41.5807 55.4655 42.4363 55.4725C43.2919 55.4802 44.4753 55.4313 45.765 55.2337C47.0543 55.0336 48.1973 54.724 49.0108 54.4588C49.8253 54.1942 50.3174 53.9938 50.3293 54.0216Z" fill="#FCFDFD"/>
<path d="M50.4591 58.7974C50.4619 58.803 50.4104 58.8323 50.3096 58.8823C50.1886 58.9401 50.0422 59.0098 49.865 59.0943C49.479 59.2782 48.9073 59.5167 48.1914 59.7851C47.4765 60.0566 46.609 60.3374 45.6337 60.6065C44.6564 60.8657 43.5692 61.1077 42.4163 61.2909C41.2614 61.467 40.1524 61.567 39.1424 61.6174C38.1317 61.6576 37.2203 61.6537 36.4567 61.6121C35.6934 61.5741 35.0767 61.5205 34.6532 61.4628C34.4593 61.436 34.2983 61.4142 34.1659 61.3962C34.0547 61.3789 33.9967 61.367 33.9976 61.3606C33.9984 61.3543 34.0576 61.3543 34.17 61.3596C34.3033 61.3684 34.4649 61.3789 34.6601 61.3916C35.0845 61.4276 35.7007 61.461 36.4616 61.4829C37.2224 61.5075 38.1292 61.4976 39.134 61.4483C40.1384 61.3895 41.24 61.2849 42.3882 61.1098C43.5348 60.9277 44.616 60.6921 45.5909 60.4431C46.563 60.1845 47.4302 59.9179 48.1479 59.6632C48.8662 59.411 49.4435 59.1916 49.8373 59.0285C50.0194 58.957 50.1703 58.8974 50.2945 58.8488C50.3998 58.8094 50.4567 58.7918 50.4591 58.7974Z" fill="#FCFDFD"/>
<path d="M19.6668 133.677L17.7699 142.283L14.3143 148.656C14.0652 149.115 14.2559 149.69 14.7292 149.908C14.9944 150.03 15.2994 150.018 15.5521 149.871C17.1598 148.938 23.0572 145.479 23.161 144.842C23.2811 144.103 25.762 135.897 25.762 135.897L19.6668 133.677Z" fill="url(#paint2_linear_1_25437)"/>
<path d="M15.1246 150C14.9893 150 14.8538 149.969 14.729 149.908C14.8492 149.963 14.9778 149.991 15.1058 149.991C15.2601 149.991 15.4138 149.951 15.5519 149.871C16.337 149.415 18.1453 148.357 19.8023 147.319C19.8038 147.319 19.8069 147.319 19.8084 147.319C18.7457 147.988 17.3619 148.832 15.5776 149.877C15.4383 149.959 15.2816 150 15.1246 150ZM19.9801 147.208C20.2663 147.027 20.547 146.849 20.8155 146.674H20.8201C20.5685 146.837 20.2911 147.015 19.9855 147.208C19.984 147.208 19.9816 147.208 19.9801 147.208Z" fill="white"/>
<path d="M20.8201 146.674H20.8154C21.8656 145.991 22.7311 145.379 23.0402 145.034C22.9493 145.178 22.8318 145.304 22.6921 145.405C22.3724 145.637 21.7883 146.047 20.8201 146.674Z" fill="#F6F7F7"/>
<path d="M23.2397 144.519H23.2349C23.2542 144.444 23.2766 144.358 23.3019 144.263H23.3022L23.2397 144.519Z" fill="#F6F7F7"/>
<path d="M23.1831 144.732C23.196 144.675 23.2135 144.603 23.235 144.519H23.2399L23.2135 144.626C23.2048 144.662 23.1946 144.697 23.1831 144.732Z" fill="#F6F7F7"/>
<path d="M19.8084 147.319C19.8069 147.319 19.8038 147.319 19.8022 147.319C19.8617 147.282 19.9211 147.245 19.98 147.208C19.9815 147.208 19.984 147.208 19.9855 147.208C19.9275 147.244 19.8683 147.282 19.8084 147.319Z" fill="#A5ADAD"/>
<path d="M15.1058 149.991C14.9778 149.991 14.8492 149.964 14.729 149.908L23.3021 144.264C23.2764 144.359 23.2541 144.444 23.2348 144.519C23.2132 144.604 23.1957 144.676 23.1828 144.733C23.1474 144.839 23.0996 144.941 23.0402 145.035C22.7311 145.38 21.8657 145.992 20.8155 146.675C20.547 146.849 20.2663 147.028 19.9801 147.208C19.9211 147.245 19.8618 147.283 19.8023 147.32C18.1453 148.358 16.337 149.416 15.5519 149.871C15.4138 149.951 15.2601 149.991 15.1058 149.991Z" fill="#F9A8BF"/>
<path d="M22.4061 142.073C22.1943 142.073 21.9809 141.933 21.9126 141.729C21.8332 141.491 21.9587 141.206 22.1797 141.092L22.1791 141.093C22.2382 141.053 22.308 141.036 22.3806 141.036C22.5817 141.036 22.8055 141.17 22.8882 141.349C23.0009 141.592 22.8108 141.956 22.5592 142.047C22.5096 142.065 22.458 142.073 22.4061 142.073Z" fill="#F9A8BF"/>
<path d="M17.5928 146.647C17.5388 146.659 17.4559 146.163 17.0076 145.797C16.5702 145.418 16.0697 145.423 16.0718 145.367C16.0696 145.344 16.1938 145.304 16.4003 145.325C16.6052 145.344 16.8868 145.443 17.1316 145.649C17.3756 145.855 17.522 146.116 17.5766 146.315C17.6332 146.516 17.6155 146.646 17.5928 146.647Z" fill="#1D2A30"/>
<path d="M16.7049 147.645C16.6551 147.672 16.4495 147.326 16.0393 147.091C15.6344 146.846 15.2334 146.835 15.2327 146.778C15.2189 146.728 15.6739 146.647 16.1369 146.924C16.603 147.195 16.7549 147.633 16.7049 147.645Z" fill="#1D2A30"/>
<path d="M19.083 145.458C19.0331 145.488 18.7192 144.955 18.1134 144.533C17.514 144.101 16.9084 143.982 16.9206 143.925C16.918 143.876 17.5806 143.913 18.2245 144.374C18.8732 144.829 19.1299 145.444 19.083 145.458Z" fill="#1D2A30"/>
<path d="M19.8769 142.889C19.8416 142.934 19.4186 142.621 18.8111 142.448C18.2056 142.266 17.6814 142.303 17.676 142.245C17.6626 142.198 18.2138 142.068 18.865 142.262C19.5175 142.45 19.9135 142.856 19.8769 142.889Z" fill="#1D2A30"/>
<path d="M20.4977 140.377C20.4592 140.42 20.0552 140.018 19.4004 139.888C18.7483 139.744 18.218 139.949 18.1998 139.895C18.1901 139.873 18.3094 139.789 18.5341 139.723C18.7569 139.657 19.0878 139.625 19.4397 139.699C19.7913 139.773 20.0819 139.935 20.2599 140.085C20.4393 140.235 20.515 140.361 20.4977 140.377Z" fill="#1D2A30"/>
<path d="M19.5319 139.414C19.5213 139.412 19.5299 139.291 19.5995 139.087C19.669 138.884 19.8037 138.594 20.0634 138.302C20.1943 138.166 20.3404 137.985 20.6059 137.931C20.7382 137.903 20.9093 137.969 20.9826 138.107C21.0559 138.242 21.0533 138.39 21.023 138.527C20.8813 139.068 20.288 139.479 19.66 139.407C19.0321 139.324 18.564 138.837 18.4365 138.308C18.4132 138.174 18.4131 138.016 18.5146 137.887C18.6152 137.757 18.8029 137.742 18.92 137.793C19.1639 137.894 19.2878 138.079 19.4101 138.224C19.646 138.534 19.7669 138.828 19.8296 139.033C19.8922 139.239 19.8992 139.359 19.8882 139.361C19.853 139.376 19.7756 138.888 19.3037 138.311C19.1826 138.175 19.0456 138.006 18.8674 137.945C18.7806 137.914 18.6954 137.931 18.6462 137.995C18.5968 138.056 18.5884 138.168 18.6111 138.274C18.7218 138.709 19.151 139.153 19.6827 139.215C20.2114 139.281 20.7324 138.918 20.8504 138.484C20.8773 138.379 20.8753 138.266 20.8346 138.19C20.7944 138.115 20.7146 138.077 20.6281 138.09C20.4456 138.116 20.2905 138.269 20.1628 138.396C19.6499 138.936 19.5679 139.432 19.5319 139.414Z" fill="#1D2A30"/>
<path d="M25.2441 137.618C25.5486 136.602 25.7619 135.897 25.7619 135.897L25.2441 137.618Z" fill="#B2B1B0"/>
<path d="M19.1909 135.834L19.4453 134.61L19.6666 133.676L19.1909 135.834Z" fill="#A2A1A0"/>
<path d="M25.2442 137.618L19.0352 136.584L19.191 135.834L19.6667 133.676L25.762 135.897C25.762 135.897 25.5487 136.602 25.244 137.618" fill="black"/>
<path d="M47.4103 136.861L46.8976 143.738C46.8976 143.738 53.6896 146.571 53.7184 147.851L40.3975 147.332L40.7582 136.584L47.4103 136.861Z" fill="url(#paint3_linear_1_25437)"/>
<path d="M42.9067 144.021C42.6736 144.021 42.4448 143.841 42.401 143.608C42.3546 143.361 42.5175 143.097 42.7519 143.013C42.7986 142.991 42.8491 142.981 42.901 142.981C43.1172 142.981 43.3555 143.158 43.419 143.364C43.4976 143.621 43.2601 143.955 42.9986 144.011C42.9681 144.018 42.9372 144.021 42.9067 144.021Z" fill="#F9A8BF"/>
<path d="M53.7184 147.851L40.6494 147.342L53.7184 147.851C53.7149 147.702 53.6208 147.533 53.4566 147.349C53.472 147.349 53.4885 147.349 53.5043 147.349C53.6377 147.472 53.7594 147.645 53.7184 147.851Z" fill="white"/>
<path d="M53.5046 147.35C53.4888 147.35 53.4723 147.35 53.4569 147.35C53.4165 147.305 53.3723 147.259 53.3242 147.213C53.3765 147.246 53.4418 147.292 53.5046 147.35Z" fill="#A5ADAD"/>
<path d="M53.7184 147.851L40.6494 147.342L40.3975 147.332L40.4761 146.25L53.2187 147.152C53.2187 147.152 53.2622 147.173 53.324 147.212C53.372 147.259 53.4163 147.305 53.4566 147.349C53.6208 147.533 53.7149 147.702 53.7184 147.851Z" fill="#F9A8BF"/>
<path d="M47.1161 143.679C47.1115 143.744 46.7852 143.761 46.457 143.958C46.1236 144.147 45.9478 144.424 45.8889 144.395C45.8296 144.38 45.9415 143.994 46.3433 143.762C46.7423 143.526 47.1326 143.619 47.1161 143.679Z" fill="#1D2A30"/>
<path d="M48.4909 144.314C48.5035 144.377 48.2175 144.477 47.9855 144.745C47.7462 145.005 47.6788 145.302 47.6142 145.297C47.5528 145.305 47.5227 144.92 47.8167 144.593C48.1084 144.264 48.4919 144.251 48.4909 144.314Z" fill="#1D2A30"/>
<path d="M49.2194 146.022C49.1597 146.034 49.0818 145.704 49.2629 145.353C49.4412 145.001 49.7535 144.871 49.7788 144.927C49.8135 144.982 49.6086 145.166 49.4643 145.457C49.3138 145.744 49.2843 146.018 49.2194 146.022Z" fill="#1D2A30"/>
<path d="M47.0597 142.098C47.0302 142.156 46.7351 142.055 46.3666 142.066C45.9977 142.069 45.7068 142.182 45.6749 142.124C45.6391 142.076 45.9279 141.845 46.3624 141.838C46.7965 141.829 47.0934 142.048 47.0597 142.098Z" fill="#1D2A30"/>
<path d="M40.6729 139.134L40.7171 137.717L40.7206 137.717L40.6729 139.134Z" fill="#B2B1B0"/>
<path d="M47.2175 139.449L40.6729 139.134L40.7206 137.718L47.307 138.223L47.2175 139.449Z" fill="black"/>
<path d="M47.1379 140.709C47.1375 140.736 46.8789 140.767 46.4707 140.68C46.2675 140.636 46.0296 140.56 45.7811 140.438C45.6573 140.376 45.5306 140.304 45.406 140.219C45.346 140.176 45.2747 140.134 45.2105 140.053C45.141 139.983 45.107 139.808 45.194 139.705C45.2663 139.605 45.3888 139.565 45.485 139.566C45.5832 139.567 45.6618 139.59 45.7338 139.611C45.8808 139.653 46.018 139.708 46.143 139.77C46.3932 139.896 46.5943 140.051 46.7424 140.199C47.0407 140.498 47.1365 140.746 47.114 140.758C47.0835 140.779 46.941 140.569 46.6357 140.319C46.4834 140.195 46.2879 140.065 46.0538 139.959C45.9366 139.907 45.8096 139.861 45.6752 139.826C45.5355 139.783 45.4158 139.778 45.3769 139.839C45.3628 139.863 45.3607 139.872 45.3888 139.914C45.4179 139.954 45.4734 139.994 45.5323 140.035C45.6471 140.117 45.7632 140.189 45.877 140.251C46.1051 140.376 46.324 140.464 46.5125 140.525C46.8898 140.646 47.1403 140.674 47.1379 140.709Z" fill="#1D2A30"/>
<path d="M47.0496 140.8C47.0264 140.808 46.906 140.57 46.8987 140.146C46.8955 139.936 46.9271 139.682 47.018 139.416C47.0639 139.284 47.125 139.148 47.2036 139.016C47.2868 138.887 47.3889 138.714 47.6423 138.695C47.7742 138.695 47.8799 138.803 47.9136 138.893C47.9543 138.985 47.9599 139.062 47.9725 139.14C47.9911 139.298 47.9824 139.451 47.9557 139.591C47.9027 139.875 47.7774 140.107 47.644 140.272C47.3703 140.609 47.0959 140.676 47.0913 140.654C47.071 140.62 47.3026 140.503 47.5146 140.178C47.6191 140.017 47.7146 139.805 47.75 139.557C47.7676 139.433 47.7707 139.302 47.7525 139.169C47.737 139.026 47.6886 138.91 47.6349 138.922C47.5686 138.919 47.4521 139.021 47.3931 139.132C47.3201 139.25 47.2608 139.37 47.2138 139.489C47.1211 139.727 47.0759 139.957 47.0587 140.152C47.0253 140.543 47.0854 140.791 47.0496 140.8Z" fill="#1D2A30"/>
<path d="M33.6181 62.7108C33.6181 62.7108 31.5032 62.8038 30.1094 70.032C28.7159 77.2606 18.0039 135.827 18.0039 135.827L25.7619 135.897L40.3974 80.2166L39.425 137.618L47.3067 138.224C47.3067 138.224 53.2215 74.7203 53.2773 71.0253C53.3467 66.4188 50.7108 61.759 50.7108 61.759L33.6181 62.7108Z" fill="#1E1E38"/>
<path d="M44.2816 62.092C44.3311 62.1022 43.526 66.2318 42.4837 71.3146C41.4411 76.3992 40.556 80.5115 40.5066 80.501C40.4571 80.4907 41.2621 76.3618 42.3048 71.2776C43.3471 66.1949 44.2325 62.0818 44.2816 62.092Z" fill="#365462"/>
<path d="M45.4916 63.1229C45.4782 63.105 45.7018 63.0384 45.9422 63.2543C46.0531 63.3582 46.1619 63.5312 46.1538 63.7524C46.1496 63.9764 45.9808 64.1944 45.7565 64.2867C45.5344 64.3832 45.261 64.3522 45.0982 64.199C44.9346 64.0504 44.8876 63.851 44.8908 63.6992C44.9048 63.3755 45.1084 63.2614 45.1115 63.2835C45.1361 63.3015 44.9975 63.4343 45.0199 63.6957C45.0315 63.8204 45.0859 63.9722 45.207 64.0701C45.3242 64.1701 45.5147 64.1895 45.6857 64.1176C45.8562 64.0451 45.9755 63.8947 45.9857 63.7408C46.0008 63.5854 45.9303 63.4399 45.8495 63.3445C45.6786 63.1462 45.4874 63.1529 45.4916 63.1229Z" fill="#365462"/>
<path d="M45.1552 65.985C45.1503 65.9632 45.3734 65.9924 45.4952 66.2784C45.5489 66.4134 45.5735 66.6088 45.4735 66.7969C45.3756 66.9893 45.1352 67.103 44.9039 67.0826C44.6719 67.0671 44.4515 66.9171 44.3849 66.7117C44.315 66.5102 44.3694 66.3211 44.4435 66.196C44.6077 65.9329 44.8327 65.9382 44.8246 65.9593C44.8358 65.9872 44.6593 66.0305 44.5575 66.257C44.5101 66.3651 44.4852 66.5159 44.5417 66.6508C44.5933 66.7857 44.7439 66.8857 44.9179 66.8998C45.092 66.9128 45.2559 66.8374 45.3278 66.7124C45.4043 66.5877 45.4033 66.4348 45.3731 66.3207C45.3075 66.0812 45.1397 66.0108 45.1552 65.985Z" fill="#365462"/>
<path d="M37.7205 63.196C37.731 63.1991 37.7033 63.3295 37.6278 63.5577C37.5534 63.7863 37.4222 64.1104 37.219 64.4904C36.8189 65.2488 36.0728 66.2266 34.9677 66.9572C33.8625 67.6884 32.6728 67.991 31.8208 68.0611C31.3925 68.0988 31.0443 68.0917 30.8057 68.0706C30.567 68.0498 30.4369 68.0241 30.438 68.0128C30.4396 67.9786 30.968 68.0385 31.8067 67.9322C32.6403 67.8304 33.7919 67.5155 34.8672 66.8043C35.9423 66.0931 36.6849 65.1555 37.1063 64.4267C37.5348 63.6951 37.6882 63.184 37.7205 63.196Z" fill="#365462"/>
<path d="M52.816 68.3327C52.8086 68.3429 52.7265 68.2925 52.5833 68.1918C52.4377 68.0942 52.2432 67.9297 52.0204 67.7085C51.5737 67.2689 51.0469 66.5539 50.6984 65.6525C50.3538 64.7497 50.2664 63.8646 50.304 63.2376C50.3212 62.9237 50.3552 62.6705 50.3977 62.5003C50.4366 62.3292 50.464 62.2365 50.4763 62.239C50.5093 62.245 50.4345 62.6247 50.4331 63.2407C50.4296 63.8554 50.5345 64.7096 50.869 65.5867C51.2076 66.462 51.7007 67.1661 52.1145 67.6191C52.5272 68.0748 52.8363 68.3059 52.816 68.3327Z" fill="#365462"/>
<path d="M30.5334 48.7805L33.9803 48.9717C34.1981 50.0933 34.9548 51.808 34.9548 51.808C37.7292 46.9742 39.8804 40.498 40.4145 37.8953C40.3366 37.6354 40.2443 37.3476 40.1296 37.0263C39.9969 36.6551 40.1106 35.9527 40.1731 35.5624C40.2665 34.983 40.4279 34.2032 40.4763 33.8425C40.6241 32.7424 40.8006 32.5698 41.1828 32.6942C41.7028 32.8632 40.9697 35.7829 41.3958 35.8463C41.6249 35.8802 41.9046 34.8802 41.9861 34.0594C42.0671 33.2387 42.437 30.7143 42.7072 30.5459C43.1034 30.2993 43.4488 30.6896 43.3487 31.5068C43.2473 32.3338 43.1196 34.8006 43.5519 34.834C43.9776 34.8668 44.3349 30.6815 44.3349 30.6815C44.3349 30.6815 44.2679 29.7706 44.768 29.7925C45.6706 29.8319 44.9652 34.2444 44.888 34.6625C44.8339 34.9531 45.3028 35.0063 45.3442 34.691C45.3867 34.3659 45.6042 30.5054 46.523 30.5364C47.2284 30.5603 45.9769 34.1725 46.3728 35.0101C46.7687 35.847 47.0438 32.1658 47.7172 32.2165C47.9678 32.2356 48.1531 32.2849 47.6923 34.368C47.4449 35.4878 46.7178 37.5462 46.0822 39.2507C45.0154 45.0274 40.3324 63.5068 32.9905 60.1239C28.8823 58.2313 26.9653 48.8597 26.9653 48.8597L30.5334 48.7805Z" fill="#F9AD95"/>
<path d="M46.0826 39.2539C46.0788 39.2525 46.0907 39.2095 46.1174 39.1274C46.149 39.0341 46.1897 38.9143 46.2402 38.7639C46.355 38.4307 46.5157 37.964 46.7206 37.3694C46.9252 36.7629 47.1765 36.0204 47.4264 35.1479C47.5545 34.7122 47.658 34.2401 47.7549 33.734C47.8015 33.4814 47.8493 33.2211 47.8787 32.9538C47.891 32.821 47.9051 32.6843 47.897 32.5533C47.8875 32.4159 47.8665 32.3036 47.7584 32.3018C47.6468 32.2715 47.5717 32.3641 47.4952 32.4807C47.4246 32.598 47.3699 32.7333 47.3208 32.8714C47.2225 33.1486 47.1456 33.4441 47.0695 33.7463C46.993 34.0485 46.9224 34.3592 46.8305 34.6759C46.7754 34.8358 46.7508 34.9901 46.6203 35.162C46.5957 35.1827 46.5736 35.2102 46.5241 35.2201C46.4701 35.2338 46.4297 35.213 46.3922 35.1901C46.3416 35.145 46.3174 35.0996 46.2953 35.0573C46.2557 34.9682 46.2314 34.877 46.2213 34.7886C46.1584 34.0816 46.3188 33.3983 46.4287 32.6889C46.489 32.3353 46.5529 31.9774 46.5992 31.6149C46.6217 31.4342 46.6406 31.2514 46.6427 31.0714C46.6494 30.9045 46.6203 30.679 46.5473 30.647C46.4574 30.6132 46.295 30.7153 46.209 30.8647C46.1125 31.0115 46.0405 31.1859 45.9795 31.3638C45.8577 31.7224 45.778 32.1042 45.7096 32.4909C45.6426 32.8788 45.5903 33.274 45.5471 33.6745C45.5278 33.8749 45.5081 34.0767 45.4885 34.2792L45.4618 34.585C45.4545 34.6678 45.4545 34.8407 45.3225 34.94C45.2004 35.032 45.0375 35.0415 44.9073 34.9566C44.8421 34.9143 44.7912 34.8358 44.7814 34.7562C44.7729 34.7157 44.7803 34.6787 44.7831 34.6435L44.7964 34.5677C44.8273 34.3634 44.8589 34.1584 44.8901 33.952C44.9481 33.5385 44.9982 33.1204 45.0382 32.6988C45.0775 32.2771 45.1067 31.8513 45.1133 31.424C45.114 31.0013 45.1109 30.5582 44.9895 30.1711C44.9498 30.0535 44.8849 29.9467 44.8126 29.9161C44.7382 29.889 44.6308 29.9164 44.5757 29.9918C44.4539 30.1634 44.4339 30.4462 44.4434 30.6762L44.4441 30.6875L44.4434 30.6938C44.3683 31.5216 44.2785 32.3349 44.1598 33.1345C44.0988 33.5343 44.0335 33.9302 43.9335 34.3212C43.9086 34.4191 43.8787 34.517 43.8443 34.6146C43.7977 34.7121 43.7847 34.8115 43.6454 34.9189C43.525 34.9767 43.4355 34.9108 43.3878 34.8618C43.3365 34.808 43.3158 34.7548 43.292 34.7026C43.2516 34.5991 43.2313 34.499 43.2134 34.399C43.1018 33.6051 43.1477 32.8411 43.1923 32.0919C43.207 31.7153 43.2986 31.3426 43.2492 31.0123C43.2256 30.8485 43.1618 30.684 43.0533 30.6111C43 30.5758 42.9393 30.5677 42.8737 30.5832C42.8407 30.5934 42.808 30.6051 42.7757 30.6248C42.7438 30.6509 42.7505 30.641 42.7263 30.6854C42.5897 30.9732 42.5234 31.337 42.4497 31.6664C42.3806 32.0031 42.3216 32.3384 42.2679 32.6695C42.2146 33.0003 42.1672 33.3272 42.1251 33.6491C42.0816 33.9686 42.0598 34.2923 41.997 34.6068C41.9377 34.9203 41.8654 35.2254 41.7517 35.5177C41.7229 35.591 41.6899 35.6632 41.6503 35.7343C41.6011 35.8006 41.5734 35.8869 41.439 35.9281C41.3622 35.9492 41.2955 35.8967 41.2611 35.8527C41.2316 35.8073 41.2172 35.7639 41.2056 35.7224C41.1877 35.6413 41.1804 35.5635 41.1776 35.4878C41.1698 34.8876 41.2586 34.337 41.2881 33.8055C41.305 33.542 41.3169 33.2814 41.2863 33.0404C41.2706 32.9274 41.2344 32.7949 41.1702 32.7685C41.0761 32.7308 40.9547 32.7111 40.8842 32.7622C40.7291 32.8745 40.675 33.132 40.6245 33.3384C40.5746 33.5565 40.5522 33.7724 40.5125 33.9806C40.3665 34.8139 40.2118 35.5293 40.1367 36.1141C40.1026 36.4064 40.0886 36.6702 40.1254 36.89C40.1742 37.1031 40.2455 37.2919 40.2865 37.4399C40.3279 37.5804 40.3609 37.6924 40.3872 37.7805C40.4087 37.8573 40.4178 37.8971 40.4146 37.8981C40.4111 37.8992 40.395 37.8615 40.3665 37.7868C40.3357 37.7005 40.296 37.591 40.2465 37.4533C40.1977 37.3032 40.1244 37.1317 40.0644 36.9016C40.0188 36.6709 40.0272 36.4022 40.0556 36.1052C40.1191 35.51 40.2609 34.7995 40.3957 33.9647C40.4329 33.7572 40.4529 33.5364 40.5009 33.3124C40.5262 33.2 40.5508 33.0859 40.5932 32.971C40.6378 32.8601 40.6855 32.7319 40.8133 32.6477C40.9491 32.5628 41.1 32.5938 41.2274 32.6424C41.392 32.7368 41.3979 32.8953 41.4267 33.0196C41.4625 33.2831 41.4513 33.5462 41.4373 33.815C41.4116 34.3497 41.3285 34.9115 41.3404 35.4804C41.3436 35.5505 41.3516 35.6192 41.3657 35.6819C41.3808 35.7505 41.4155 35.7766 41.4085 35.7636C41.4208 35.766 41.4745 35.7051 41.5046 35.6495C41.5376 35.5892 41.5675 35.5237 41.5938 35.4554C41.6984 35.1806 41.7682 34.8802 41.824 34.5751C41.8829 34.2704 41.9022 33.9531 41.9451 33.6262C41.9854 33.3018 42.0314 32.9732 42.0833 32.6399C42.1356 32.3067 42.1932 31.9689 42.2616 31.6276C42.3395 31.2842 42.389 30.945 42.5553 30.5878C42.5655 30.5519 42.6378 30.4716 42.6785 30.4522C42.7227 30.4254 42.7729 30.4057 42.8259 30.3902C42.933 30.3617 43.0642 30.3775 43.1614 30.4434C43.3544 30.5797 43.4155 30.7928 43.4478 30.9813C43.4769 31.1746 43.4671 31.3705 43.4453 31.5568C43.4246 31.7375 43.4095 31.9217 43.3965 32.1063C43.3537 32.8435 43.3134 33.6153 43.4211 34.3627C43.4373 34.4536 43.4573 34.5455 43.4885 34.6234C43.5043 34.66 43.5229 34.6988 43.5408 34.715L43.558 34.7287L43.5594 34.7291L43.5601 34.7301C43.5538 34.8129 43.559 34.7477 43.5576 34.7639L43.5432 34.7336C43.5615 34.7188 43.6176 34.622 43.6447 34.5403C43.6755 34.4522 43.7036 34.361 43.7271 34.2673C43.8229 33.8914 43.8872 33.498 43.9472 33.1024C44.0637 32.3099 44.1528 31.4973 44.2269 30.6752V30.6924C44.2227 30.4216 44.2181 30.1376 44.4044 29.8569C44.5132 29.7185 44.7094 29.6435 44.894 29.7132C45.0765 29.7988 45.1439 29.9626 45.1951 30.0986C45.3344 30.5494 45.3299 30.9911 45.3309 31.4272C45.3239 31.8633 45.2941 32.2933 45.2541 32.7192C45.2134 33.145 45.1625 33.566 45.1035 33.9827C45.0716 34.1905 45.0396 34.398 45.0077 34.6044C44.9817 34.7354 44.9881 34.7396 45.027 34.7784C45.0691 34.8104 45.1505 34.8055 45.1902 34.772C45.2351 34.7417 45.2404 34.6804 45.2499 34.566L45.2769 34.2602C45.2972 34.0563 45.3172 33.8534 45.3376 33.6516C45.3818 33.2476 45.4355 32.8481 45.5043 32.4547C45.5755 32.0616 45.6569 31.6731 45.7857 31.2969C45.8514 31.1095 45.9268 30.9235 46.0412 30.7505C46.0995 30.6649 46.1672 30.5797 46.2665 30.517C46.368 30.4585 46.4792 30.4054 46.6315 30.4638C46.7754 30.5431 46.8003 30.6769 46.8228 30.7745C46.8379 30.877 46.8445 30.977 46.8414 31.0735C46.8382 31.2676 46.8175 31.455 46.794 31.6403C46.7452 32.0098 46.6796 32.3684 46.6175 32.722C46.5031 33.4237 46.3451 34.1221 46.3999 34.7636C46.4087 34.8421 46.4294 34.9143 46.456 34.9781C46.4722 35.0101 46.4901 35.0369 46.5013 35.0485L46.4929 35.064L46.489 35.0623L46.4915 35.039C46.5652 34.9478 46.6175 34.7713 46.6634 34.6259C46.7543 34.3183 46.8277 34.0073 46.9063 33.7044C46.9853 33.4011 47.0649 33.1031 47.1691 32.8161C47.2218 32.6727 47.2793 32.5315 47.3608 32.398C47.405 32.3324 47.4485 32.2652 47.5204 32.2113C47.5524 32.1824 47.5997 32.162 47.6457 32.1489C47.7005 32.1405 47.7447 32.1419 47.7805 32.1486C47.8633 32.1521 47.9749 32.2247 48.0023 32.3117C48.0363 32.3941 48.0437 32.4712 48.0472 32.5452C48.0546 32.6935 48.0381 32.8326 48.0244 32.9707C47.9914 33.2451 47.9405 33.5068 47.8907 33.7608C47.7886 34.2673 47.6777 34.7456 47.5436 35.1817C47.2811 36.0556 47.0179 36.7946 46.8007 37.3976C46.582 38.0003 46.4048 38.4649 46.2816 38.7791C46.2223 38.9263 46.1749 39.044 46.1384 39.1352C46.1047 39.2148 46.0858 39.2549 46.0826 39.2539Z" fill="#F6865E"/>
<path d="M26.9263 49.18C27.5931 51.5414 28.8955 55.1899 30.296 59.0359C30.4986 59.5921 31.269 59.6284 31.5211 59.0934L34.9547 51.8073C34.9547 51.8073 34.1279 45.8218 34.198 46.0331C34.268 46.2445 27.1141 46.8077 27.1141 46.8077L26.9263 49.18Z" fill="url(#paint4_linear_1_25437)"/>
<path d="M34.659 48.0056C34.6668 48.0348 34.2324 48.1609 33.5529 48.4212C32.8732 48.6805 31.954 49.0926 31.0057 49.6682C30.0584 50.2465 29.2692 50.8742 28.7262 51.3593C28.1821 51.8439 27.8696 52.1719 27.8475 52.1514C27.8383 52.143 27.9071 52.0525 28.04 51.8954C28.1714 51.7376 28.3753 51.5206 28.6385 51.2641C29.1639 50.7502 29.9511 50.0972 30.9108 49.5114C31.8716 48.9281 32.8124 48.5294 33.5091 48.2994C33.8577 48.1835 34.1436 48.1021 34.344 48.0584C34.544 48.0127 34.6559 47.9933 34.659 48.0056Z" fill="#FCFDFD"/>
<path d="M36.0202 49.8228C36.002 49.8358 35.7683 49.5593 35.4475 49.0704C35.1264 48.5822 34.7289 47.8739 34.3868 47.0475C34.046 46.2201 33.8279 45.4375 33.7106 44.8644C33.5926 44.2909 33.5629 43.9295 33.5848 43.9264C33.6126 43.9214 33.6873 44.274 33.8362 44.8344C33.9845 45.3945 34.2194 46.1606 34.5558 46.9774C34.8934 47.7932 35.2675 48.5009 35.5577 49.0024C35.8476 49.504 36.043 49.8062 36.0202 49.8228Z" fill="#1D2A30"/>
<path d="M38.3101 17.5537C37.1092 19.5023 36.8541 22.0225 37.6395 24.1789C37.9922 25.1461 38.5509 26.1025 38.4487 27.1292C38.3438 28.181 37.5489 29.1747 37.8297 30.1923C37.996 30.7939 38.5105 31.2402 38.7077 31.8323C38.9394 32.5266 38.6979 33.2786 38.5877 34.0031C38.307 35.8478 38.8944 37.7027 39.0401 39.5635C39.1857 41.4244 38.6853 43.6023 37.032 44.4138C36.5291 44.6604 35.8725 44.7316 35.4545 44.3554C34.9239 43.8777 35.0717 43.02 35.2169 42.3149C36.6698 35.2638 32.1815 28.3952 33.2065 21.2666C33.3707 20.124 34.0067 18.1852 34.8263 17.3857C35.6458 16.5864 37.9125 16.6837 38.6881 17.5269" fill="#1D2A30"/>
<path d="M31.3976 37.9881C31.383 37.9761 31.6084 37.7345 31.9245 37.2346C32.2391 36.7383 32.6346 35.9634 32.8413 34.9282C32.9415 34.4111 32.9859 33.8352 32.9493 33.2149C32.9224 32.595 32.8354 31.9275 32.8771 31.2138C32.8916 30.8567 32.9677 30.4932 33.0784 30.1342C33.2028 29.7802 33.3644 29.4329 33.5603 29.0997C33.953 28.4333 34.4505 27.8127 34.9055 27.1497C35.3606 26.4889 35.7382 25.7891 35.8607 25.0497C35.9835 24.3104 35.8509 23.5781 35.7382 22.8884C35.6164 22.198 35.5329 21.5182 35.5831 20.8866C35.6231 20.2554 35.7491 19.676 35.9196 19.1677C36.2643 18.148 36.7738 17.4255 37.1602 16.9757C37.3546 16.7496 37.5192 16.5858 37.6378 16.4837C37.7551 16.3794 37.8182 16.3273 37.8224 16.3322C37.8361 16.3463 37.5859 16.5619 37.215 17.0215C36.8493 17.4801 36.365 18.2029 36.0425 19.2082C35.8828 19.7095 35.7673 20.2783 35.7343 20.8951C35.6919 21.5136 35.7782 22.1688 35.9042 22.8599C36.0204 23.5481 36.1635 24.298 36.0372 25.0786C35.9105 25.8588 35.5168 26.5848 35.0563 27.2533C34.595 27.9247 34.1 28.5411 33.7145 29.1913C33.5222 29.5161 33.3652 29.8511 33.2438 30.1903C33.1368 30.5333 33.0615 30.8782 33.045 31.2248C32.9996 31.9159 33.0796 32.5812 33.1009 33.2086C33.1312 33.837 33.0784 34.4298 32.968 34.9543C32.7407 36.0067 32.3202 36.7841 31.984 37.2741C31.8153 37.5206 31.6686 37.6999 31.5652 37.8176C31.4597 37.9338 31.4022 37.9923 31.3976 37.9881Z" fill="#365462"/>
<path d="M28.0689 38.5155C28.0634 38.5124 28.1011 38.431 28.1779 38.2792C28.2641 38.1122 28.3773 37.8924 28.5189 37.6181C28.8126 37.0436 29.2525 36.2172 29.6849 35.1499C30.1086 34.0865 30.5289 32.7544 30.5418 31.2355C30.5441 30.8576 30.5167 30.4705 30.4561 30.0798C30.3956 29.6888 30.3052 29.2894 30.2464 28.8724C30.19 28.4571 30.163 28.0143 30.273 27.5772C30.3817 27.1383 30.6563 26.7484 30.9872 26.4462C31.6487 25.8428 32.4467 25.4493 32.8591 24.7427C33.2814 24.0481 33.3747 23.2334 33.4813 22.4839C33.5726 21.7262 33.7174 20.9967 33.9644 20.3556C34.2032 19.7114 34.5221 19.1517 34.8548 18.6751C35.5248 17.7177 36.2698 17.1151 36.8057 16.7565C37.0756 16.5775 37.2942 16.4529 37.4479 16.3792C37.6002 16.3039 37.6813 16.2665 37.6841 16.2725C37.6936 16.2901 37.3697 16.444 36.8461 16.8153C36.3277 17.1883 35.6062 17.798 34.9612 18.7491C34.6405 19.2225 34.3341 19.7755 34.1065 20.4088C33.8704 21.0411 33.7356 21.7466 33.6481 22.5064C33.5446 23.2559 33.4588 24.0925 33.0118 24.8368C32.5648 25.5973 31.7387 26.002 31.1115 26.5807C30.7954 26.8706 30.5499 27.2225 30.4488 27.6226C30.3477 28.0224 30.3697 28.4426 30.4238 28.8477C30.4797 29.2549 30.5685 29.6536 30.6287 30.0534C30.689 30.4536 30.7148 30.8505 30.7103 31.2366C30.6872 32.7885 30.2465 34.1334 29.8044 35.1992C29.3531 36.2686 28.8947 37.0872 28.5815 37.6522C28.4274 37.9196 28.304 38.1341 28.2101 38.2972C28.1229 38.4433 28.0745 38.5184 28.0689 38.5155Z" fill="#365462"/>
<path d="M144.182 138.046C144.179 138.044 144.2 137.994 144.244 137.897C144.292 137.792 144.358 137.651 144.442 137.472C144.611 137.095 144.831 136.526 145.026 135.768C145.413 134.254 145.548 131.939 144.977 129.19C144.711 127.813 144.284 126.337 143.761 124.771C143.247 123.203 142.649 121.539 142.161 119.741C141.678 117.946 141.297 115.999 141.371 113.957C141.445 111.911 142.048 109.869 142.712 107.836C143.374 105.8 144.059 103.81 144.264 101.808C144.497 99.8099 144.07 97.8483 143.163 96.241C142.285 94.6168 141.179 93.2273 140.353 91.788C139.513 90.3541 138.987 88.8793 138.663 87.5076C138.035 84.7422 138.255 82.4115 138.556 80.8761C138.882 79.3319 139.245 78.5337 139.245 78.5337C139.249 78.5351 139.235 78.588 139.205 78.6894C139.17 78.8004 139.124 78.949 139.065 79.1385C138.944 79.5327 138.786 80.1219 138.637 80.8916C138.362 82.4238 138.168 84.7384 138.808 87.4735C139.138 88.8299 139.666 90.2854 140.503 91.6996C141.328 93.1219 142.438 94.5052 143.334 96.1487C144.26 97.7739 144.705 99.7997 144.47 101.829C144.263 103.865 143.573 105.868 142.912 107.901C142.248 109.932 141.652 111.953 141.577 113.964C141.502 115.975 141.873 117.904 142.348 119.69C142.828 121.48 143.419 123.144 143.927 124.717C144.443 126.287 144.865 127.775 145.123 129.161C145.679 131.931 145.52 134.269 145.106 135.788C144.896 136.55 144.663 137.118 144.48 137.49C144.389 137.666 144.317 137.804 144.262 137.907C144.212 138.001 144.185 138.048 144.182 138.046Z" fill="#1D2A30"/>
<path d="M141.476 93.208C141.476 93.208 139.796 87.8174 142.809 84.661C142.915 84.5504 143.101 84.6025 143.129 84.7536C143.289 85.6437 143.49 88.3552 141.476 93.208Z" fill="url(#paint5_linear_1_25437)"/>
<path d="M142.482 86.4571C142.51 86.4623 142.462 86.8417 142.369 87.4514C142.258 88.1362 142.129 88.9403 141.986 89.829C141.845 90.7174 141.718 91.5215 141.61 92.2063C141.518 92.8149 141.463 93.1929 141.432 93.1904C141.405 93.1883 141.408 92.8047 141.462 92.1883C141.518 91.5722 141.626 90.7251 141.778 89.7949C141.93 88.8649 142.091 88.0277 142.223 87.4239C142.354 86.8206 142.453 86.4511 142.482 86.4571Z" fill="#1D2A30"/>
<path d="M143.449 105.921C143.449 105.921 144.476 100.368 148.609 98.9924C148.754 98.9441 148.895 99.078 148.848 99.2242C148.576 100.086 147.49 102.577 143.449 105.921Z" fill="url(#paint6_linear_1_25437)"/>
<path d="M147.484 100.426C147.506 100.445 147.287 100.757 146.92 101.252C146.503 101.806 146.014 102.456 145.473 103.174C144.935 103.894 144.448 104.544 144.034 105.099C143.669 105.594 143.444 105.902 143.418 105.885C143.395 105.871 143.576 105.533 143.911 105.014C144.247 104.496 144.738 103.797 145.306 103.046C145.873 102.295 146.406 101.631 146.804 101.16C147.2 100.688 147.461 100.408 147.484 100.426Z" fill="#1D2A30"/>
<path d="M142.332 119.853C142.332 119.853 141.708 114.24 145.265 111.718C145.39 111.63 145.563 111.717 145.561 111.87C145.549 112.775 145.231 115.475 142.332 119.853Z" fill="url(#paint7_linear_1_25437)"/>
<path d="M144.602 113.418C144.629 113.429 144.51 113.792 144.303 114.373C144.064 115.024 143.784 115.789 143.474 116.634C143.167 117.479 142.89 118.244 142.653 118.895C142.447 119.475 142.322 119.835 142.292 119.827C142.265 119.82 142.341 119.444 142.512 118.849C142.683 118.255 142.951 117.444 143.277 116.56C143.602 115.676 143.92 114.885 144.164 114.318C144.407 113.751 144.576 113.407 144.602 113.418Z" fill="#1D2A30"/>
<path d="M145.445 133.864C145.445 133.864 145.022 128.233 148.667 125.841C148.795 125.757 148.964 125.85 148.957 126.003C148.914 126.907 148.499 129.594 145.445 133.864Z" fill="url(#paint8_linear_1_25437)"/>
<path d="M147.944 127.516C147.971 127.528 147.839 127.887 147.61 128.459C147.349 129.102 147.041 129.856 146.702 130.689C146.365 131.522 146.06 132.277 145.801 132.92C145.575 133.492 145.436 133.847 145.406 133.838C145.381 133.83 145.469 133.457 145.661 132.868C145.854 132.281 146.15 131.48 146.507 130.608C146.864 129.737 147.21 128.958 147.474 128.4C147.737 127.842 147.917 127.504 147.944 127.516Z" fill="#1D2A30"/>
<path d="M139.062 88.4717C139.062 88.4717 134.074 85.8577 133.977 81.4875C133.973 81.3343 134.141 81.2389 134.267 81.3262C135.008 81.8405 137.063 83.6129 139.062 88.4717Z" fill="url(#paint9_linear_1_25437)"/>
<path d="M135.012 82.9881C135.036 82.9719 135.27 83.2741 135.633 83.7711C136.039 84.3333 136.514 84.9934 137.04 85.7229C137.567 86.4502 138.044 87.1086 138.451 87.6693C138.815 88.1646 139.043 88.4703 139.019 88.4904C138.998 88.5083 138.73 88.2354 138.334 87.7616C137.939 87.2868 137.417 86.6115 136.869 85.8461C136.32 85.0818 135.844 84.3752 135.511 83.856C135.178 83.3361 134.988 83.0046 135.012 82.9881Z" fill="#1D2A30"/>
<path d="M144.418 100.048C144.418 100.048 139.281 97.7421 138.919 93.386C138.907 93.2335 139.069 93.1278 139.2 93.2074C139.971 93.6759 142.128 95.3198 144.418 100.048Z" fill="url(#paint10_linear_1_25437)"/>
<path d="M140.044 94.8217C140.067 94.8037 140.318 95.0908 140.711 95.5649C141.15 96.1014 141.664 96.7315 142.233 97.4272C142.803 98.1215 143.319 98.7491 143.759 99.2842C144.153 99.7562 144.398 100.048 144.376 100.069C144.356 100.088 144.072 99.8323 143.648 99.3835C143.225 98.9337 142.664 98.2912 142.07 97.561C141.476 96.8316 140.957 96.1553 140.594 95.6569C140.23 95.1588 140.02 94.839 140.044 94.8217Z" fill="#1D2A30"/>
<path d="M141.463 112.961C141.463 112.961 137.936 108.56 139.59 104.517C139.648 104.375 139.841 104.355 139.921 104.486C140.395 105.255 141.569 107.705 141.463 112.961Z" fill="url(#paint11_linear_1_25437)"/>
<path d="M139.94 106.309C139.968 106.304 140.062 106.674 140.196 107.276C140.343 107.954 140.516 108.75 140.706 109.63C140.899 110.508 141.073 111.303 141.222 111.981C141.358 112.581 141.445 112.953 141.415 112.962C141.389 112.97 141.252 112.612 141.078 112.018C140.905 111.424 140.697 110.596 140.5 109.674C140.302 108.753 140.148 107.914 140.05 107.305C139.953 106.695 139.911 106.314 139.94 106.309Z" fill="#1D2A30"/>
<path d="M144.956 128.157C144.956 128.157 139.858 125.765 139.569 121.404C139.559 121.251 139.724 121.148 139.853 121.23C140.616 121.711 142.746 123.391 144.956 128.157Z" fill="url(#paint12_linear_1_25437)"/>
<path d="M140.67 122.857C140.693 122.84 140.94 123.132 141.325 123.612C141.755 124.156 142.258 124.794 142.815 125.5C143.374 126.203 143.879 126.84 144.31 127.382C144.696 127.861 144.936 128.156 144.914 128.178C144.894 128.197 144.614 127.935 144.197 127.479C143.782 127.023 143.232 126.371 142.65 125.631C142.068 124.891 141.561 124.206 141.206 123.702C140.851 123.198 140.647 122.875 140.67 122.857Z" fill="#1D2A30"/>
<path d="M155.11 105.951C155.115 105.952 155.117 105.994 155.116 106.076C155.114 106.174 155.111 106.293 155.108 106.437C155.092 106.776 155.072 107.235 155.047 107.806C154.981 109.011 154.89 110.689 154.78 112.697L154.78 112.702L154.778 112.709C154.415 114.752 153.378 117.018 151.985 119.217C150.963 120.837 149.892 122.31 148.968 123.68C148.038 125.046 147.254 126.311 146.706 127.432C146.156 128.552 145.836 129.514 145.648 130.186C145.559 130.523 145.491 130.786 145.453 130.967C145.411 131.146 145.385 131.24 145.378 131.238C145.371 131.237 145.383 131.141 145.411 130.959C145.436 130.775 145.491 130.508 145.569 130.166C145.733 129.483 146.034 128.505 146.572 127.367C147.107 126.228 147.885 124.946 148.807 123.571C149.725 122.192 150.79 120.716 151.807 119.104C153.192 116.916 154.224 114.685 154.601 112.674L154.6 112.686C154.74 110.68 154.858 109.003 154.942 107.8C154.988 107.229 155.025 106.772 155.052 106.434C155.066 106.29 155.078 106.172 155.088 106.074C155.098 105.993 155.105 105.951 155.11 105.951Z" fill="#1D2A30"/>
<path d="M152.074 118.796C152.074 118.796 154.233 113.58 151.517 110.163C151.422 110.044 151.232 110.079 151.191 110.226C150.951 111.099 150.506 113.78 152.074 118.796Z" fill="#F03658"/>
<path d="M151.681 111.982C151.71 111.979 151.776 112.356 151.852 112.969C151.929 113.581 152.014 114.431 152.081 115.371C152.149 116.31 152.18 117.164 152.18 117.782C152.179 118.401 152.147 118.783 152.119 118.783C152.089 118.783 152.068 118.402 152.031 117.787C151.985 117.095 151.931 116.283 151.871 115.385C151.809 114.488 151.752 113.675 151.704 112.982C151.666 112.367 151.652 111.985 151.681 111.982Z" fill="#1D2A30"/>
<path d="M152.075 118.796C151.188 115.96 150.945 113.87 150.944 112.432C150.944 111.326 151.087 110.605 151.191 110.226C151.216 110.139 151.292 110.091 151.37 110.091C151.424 110.091 151.479 110.114 151.518 110.163C152.565 111.481 152.887 113.067 152.888 114.518C152.889 116.381 152.359 118.022 152.154 118.587C152.169 118.415 152.18 118.138 152.18 117.782C152.181 117.164 152.149 116.31 152.082 115.37C152.014 114.43 151.929 113.581 151.853 112.969C151.776 112.358 151.711 111.982 151.682 111.982H151.681C151.653 111.985 151.666 112.367 151.704 112.982C151.753 113.675 151.809 114.487 151.872 115.385C151.931 116.283 151.985 117.095 152.032 117.787C152.06 118.268 152.079 118.606 152.101 118.73C152.084 118.773 152.075 118.796 152.075 118.796Z" fill="url(#paint13_linear_1_25437)"/>
<path d="M152.1 118.73C152.079 118.606 152.06 118.268 152.031 117.787C151.985 117.095 151.931 116.283 151.871 115.386C151.809 114.488 151.752 113.675 151.704 112.983C151.666 112.367 151.652 111.985 151.681 111.982H151.681C151.71 111.982 151.776 112.358 151.852 112.969C151.929 113.581 152.014 114.431 152.081 115.371C152.149 116.31 152.18 117.164 152.18 117.783C152.179 118.138 152.168 118.415 152.154 118.587C152.132 118.648 152.114 118.696 152.1 118.73Z" fill="#161C1E"/>
<path d="M145.387 131.365C145.387 131.365 147.118 125.991 144.135 122.806C144.03 122.694 143.844 122.745 143.815 122.896C143.646 123.784 143.419 126.494 145.387 131.365Z" fill="#F03658"/>
<path d="M144.446 124.606C144.474 124.6 144.57 124.971 144.696 125.575C144.822 126.18 144.975 127.019 145.118 127.95C145.261 128.882 145.362 129.73 145.412 130.347C145.46 130.963 145.459 131.347 145.432 131.349C145.401 131.351 145.35 130.973 145.263 130.363C145.162 129.677 145.042 128.872 144.91 127.982C144.775 127.093 144.653 126.287 144.549 125.601C144.462 124.99 144.417 124.611 144.446 124.606Z" fill="#1D2A30"/>
<path d="M145.387 131.365C144.011 127.959 143.708 125.61 143.708 124.201C143.708 123.595 143.764 123.163 143.815 122.896C143.833 122.801 143.914 122.746 143.997 122.746C144.046 122.746 144.096 122.765 144.135 122.806C145.516 124.28 145.887 126.224 145.887 127.886C145.887 129.387 145.584 130.659 145.45 131.149C145.45 130.977 145.439 130.7 145.411 130.346C145.361 129.73 145.261 128.881 145.118 127.95C144.975 127.018 144.821 126.179 144.696 125.575C144.571 124.975 144.475 124.605 144.446 124.605C144.446 124.605 144.445 124.605 144.445 124.605C144.417 124.611 144.461 124.99 144.549 125.601C144.653 126.287 144.775 127.092 144.91 127.982C145.042 128.872 145.161 129.677 145.263 130.363C145.33 130.839 145.377 131.174 145.408 131.297C145.395 131.342 145.387 131.365 145.387 131.365Z" fill="url(#paint14_linear_1_25437)"/>
<path d="M145.409 131.297C145.377 131.174 145.331 130.839 145.263 130.363C145.162 129.677 145.042 128.872 144.91 127.982C144.775 127.093 144.653 126.287 144.549 125.601C144.462 124.99 144.417 124.611 144.446 124.605C144.446 124.605 144.446 124.605 144.446 124.605C144.476 124.605 144.571 124.975 144.696 125.575C144.822 126.18 144.975 127.019 145.118 127.95C145.261 128.882 145.362 129.73 145.412 130.347C145.439 130.7 145.451 130.977 145.45 131.149C145.434 131.212 145.419 131.261 145.409 131.297Z" fill="#161C1E"/>
<path d="M154.824 112.422C154.824 112.422 159.434 109.183 158.969 104.837C158.952 104.684 158.773 104.612 158.659 104.715C157.99 105.321 156.181 107.344 154.824 112.422Z" fill="#F03658"/>
<path d="M154.824 112.422C156.181 107.344 157.99 105.321 158.659 104.715C158.696 104.681 158.739 104.666 158.782 104.666C158.871 104.666 158.957 104.733 158.969 104.837C158.991 105.045 159.001 105.25 159.001 105.453C159.003 109.485 154.824 112.422 154.824 112.422Z" fill="url(#paint15_linear_1_25437)"/>
<path d="M158.135 106.46C158.161 106.473 158.015 106.827 157.752 107.385C157.488 107.944 157.107 108.706 156.661 109.535C156.216 110.365 155.785 111.102 155.455 111.624C155.123 112.145 154.892 112.451 154.869 112.436C154.843 112.419 155.029 112.086 155.327 111.548C155.658 110.939 156.046 110.224 156.476 109.435C156.903 108.643 157.289 107.927 157.619 107.317C157.916 106.777 158.108 106.448 158.135 106.46Z" fill="#1D2A30"/>
<path d="M147.246 126.038C147.246 126.038 152.806 125.168 154.295 121.06C154.348 120.916 154.219 120.772 154.072 120.814C153.205 121.062 150.693 122.08 147.246 126.038Z" fill="#F03658"/>
<path d="M147.246 126.038C150.693 122.08 153.205 121.062 154.072 120.814C154.089 120.809 154.107 120.806 154.124 120.806C154.226 120.806 154.307 120.893 154.307 120.994C154.307 121.016 154.303 121.038 154.295 121.06C152.992 124.655 148.571 125.77 147.487 125.993C147.377 126.015 147.302 126.029 147.267 126.034C147.253 126.037 147.246 126.038 147.246 126.038Z" fill="url(#paint16_linear_1_25437)"/>
<path d="M152.835 122.148C152.853 122.171 152.566 122.424 152.085 122.809C151.604 123.194 150.927 123.71 150.163 124.257C149.399 124.805 148.689 125.277 148.163 125.599C147.637 125.921 147.295 126.093 147.281 126.069C147.266 126.042 147.579 125.826 148.082 125.474C148.646 125.074 149.308 124.604 150.04 124.085C150.771 123.563 151.433 123.092 151.996 122.689C152.5 122.336 152.817 122.125 152.835 122.148Z" fill="#1D2A30"/>
<path d="M141.942 136.307L140.32 147.264H150.428L149.117 136.307H141.942Z" fill="#365462"/>
<path d="M149.522 139.702C149.522 139.76 147.696 139.808 145.446 139.808C143.195 139.808 141.37 139.76 141.37 139.702C141.37 139.644 143.195 139.596 145.446 139.596C147.696 139.596 149.522 139.644 149.522 139.702Z" fill="#1D2A30"/>
<path d="M149.722 140.574C149.722 140.632 147.838 140.68 145.513 140.68C143.188 140.68 141.304 140.632 141.304 140.574C141.304 140.516 143.188 140.469 145.513 140.469C147.838 140.469 149.722 140.516 149.722 140.574Z" fill="#1D2A30"/>
<path d="M110.419 30.0356C110.419 30.0356 110.326 30.0373 110.145 30.032C109.963 30.0243 109.694 30.0116 109.342 30.0363C108.641 30.0757 107.589 30.2082 106.351 30.7284C105.127 31.2476 103.693 32.1652 102.553 33.6992C101.987 34.4625 101.515 35.3808 101.227 36.4216C100.95 37.4639 100.856 38.6199 100.988 39.8101C101.138 40.9961 101.5 42.2237 102.162 43.3508C102.491 43.9126 102.88 44.459 103.356 44.9405C103.816 45.4361 104.359 45.8746 104.971 46.2082C105.582 46.54 106.281 46.7492 106.997 46.7203C107.706 46.6971 108.439 46.4459 108.958 45.926C109.482 45.41 109.74 44.652 109.74 43.8957C109.744 43.1335 109.481 42.3758 109.029 41.7376C108.117 40.4523 106.644 39.5875 105.077 39.1215C103.494 38.6587 101.756 38.6467 100.092 39.0525C99.263 39.2691 98.453 39.5868 97.6912 40.0102C96.93 40.4361 96.2376 40.9915 95.6304 41.633C95.4866 41.8006 95.3227 41.9524 95.1946 42.1342L94.7984 42.671C94.5671 43.0521 94.3299 43.4325 94.1523 43.8464C93.7803 44.6633 93.5192 45.5393 93.389 46.442C93.1535 48.2462 93.3714 50.1046 94.0979 51.7263C94.7994 53.3505 95.9958 54.7446 97.4862 55.5847C98.2299 56.0021 99.0521 56.2712 99.8859 56.3167C100.718 56.3684 101.548 56.1532 102.254 55.746C102.959 55.3399 103.548 54.7295 103.856 53.994C104.163 53.2592 104.158 52.4206 103.893 51.6911C103.632 50.9535 103.143 50.3237 102.573 49.8182C102 49.3131 101.33 48.9348 100.632 48.6861C99.2163 48.2222 97.7084 48.2473 96.3597 48.6118C95.0075 48.9813 93.802 49.6802 92.8556 50.5731C91.9105 51.4713 91.2472 52.5731 90.8464 53.6981C90.0368 55.9658 90.2428 58.2677 90.9384 60.0264C91.6543 61.8003 92.7913 63.0634 93.8298 63.8982C94.8777 64.739 95.8315 65.1927 96.4864 65.4512C96.8163 65.5773 97.0707 65.6668 97.2451 65.7161C97.4181 65.7703 97.5055 65.8027 97.5055 65.8027C97.5055 65.8027 97.4146 65.7823 97.2399 65.734C97.063 65.6907 96.8064 65.6065 96.4727 65.4857C95.8119 65.2374 94.8475 64.7918 93.7852 63.9538C92.7327 63.1215 91.5771 61.8556 90.8433 60.0648C90.1302 58.2878 89.9112 55.9588 90.7247 53.6544C91.1275 52.5114 91.7978 51.3882 92.7587 50.4702C93.7199 49.559 94.9436 48.8447 96.3204 48.4649C97.6936 48.0909 99.2293 48.0595 100.684 48.5336C101.403 48.7883 102.09 49.1751 102.682 49.6939C103.269 50.2131 103.776 50.8626 104.051 51.634C104.33 52.3977 104.339 53.2839 104.015 54.0606C103.69 54.8373 103.074 55.4748 102.341 55.8978C101.608 56.3219 100.743 56.5474 99.8765 56.4942C99.0117 56.4477 98.1628 56.1694 97.3992 55.7418C95.8698 54.8809 94.6482 53.4568 93.9312 51.7996C93.19 50.1455 92.9679 48.2543 93.2083 46.416C93.3406 45.4966 93.6066 44.6034 93.9866 43.7696C94.1681 43.3473 94.4102 42.9584 94.6468 42.5692L95.0521 42.0204C95.1833 41.8348 95.3504 41.6795 95.4978 41.5083C96.1182 40.8524 96.8261 40.2864 97.6024 39.8524C98.3793 39.4209 99.2044 39.0979 100.048 38.8781C101.743 38.466 103.511 38.4797 105.125 38.9535C106.724 39.4322 108.223 40.3089 109.167 41.6411C109.634 42.3015 109.911 43.0986 109.905 43.8961C109.904 44.6876 109.632 45.4896 109.071 46.0409C108.515 46.5942 107.743 46.8542 107.002 46.8771C106.253 46.9052 105.526 46.6851 104.899 46.342C104.27 45.9972 103.718 45.5477 103.251 45.0423C102.767 44.5505 102.372 43.994 102.04 43.4216C101.37 42.2747 101.008 41.0282 100.859 39.8253C100.73 38.6178 100.83 37.4463 101.115 36.3906C101.411 35.3367 101.895 34.4075 102.471 33.6375C103.633 32.0916 105.085 31.1758 106.324 30.6625C107.576 30.1483 108.636 30.0271 109.34 29.9996C109.694 29.9806 109.965 29.9996 110.146 30.0134C110.327 30.025 110.419 30.0356 110.419 30.0356Z" fill="black"/>
<path d="M72.9341 103.373H122.14V65.2815H72.9341V103.373Z" fill="#645DF6"/>
<path d="M72.9341 65.2808L82.0227 73.7891H130.394L122.14 65.2808H72.9341Z" fill="#645DF6"/>
<path d="M72.9341 65.281C73.822 65.2792 94.1452 65.2423 122.14 65.1908H122.178L122.204 65.2183C124.84 67.9348 127.575 70.7537 130.374 73.6378L130.459 73.7252L130.611 73.8809H130.394C110.559 73.8657 92.9552 73.8527 82.0227 73.8446H82.0009L81.9852 73.8294C76.2982 68.4582 73.2327 65.5628 72.9341 65.281C73.2348 65.5596 76.3259 68.4282 82.0603 73.7488L82.0227 73.734C92.9552 73.7259 110.559 73.7125 130.394 73.6973L130.328 73.853L130.243 73.7657C127.445 70.8809 124.711 68.0612 122.075 65.3437L122.14 65.3708C94.1452 65.3197 73.8213 65.2824 72.9341 65.281Z" fill="#1D2A30"/>
<path d="M87.7132 82.8456C87.1924 82.8466 86.7173 83.3158 86.7081 83.8385C86.6994 84.3609 87.158 84.8466 87.6785 84.8657C88.1986 84.8843 88.6913 84.4335 88.7197 83.9114C88.7485 83.3898 88.3084 82.8868 87.7887 82.8484" fill="white"/>
<path d="M99.3315 82.8456C98.8111 82.8466 98.3356 83.3158 98.3268 83.8385C98.3177 84.3609 98.7763 84.8466 99.2968 84.8657C99.8172 84.8843 100.31 84.4335 100.338 83.9114C100.367 83.3898 99.9267 82.8868 99.4073 82.8484" fill="white"/>
<path d="M99.4065 91.9635C99.3535 91.9853 99.2763 91.0104 98.4323 89.774C98.0178 89.1608 97.3974 88.5109 96.5737 87.9839C95.755 87.457 94.7152 87.0773 93.5918 87.0364C92.467 87.0156 91.4083 87.3372 90.5618 87.8184C89.7104 88.2992 89.0552 88.9142 88.6078 89.5038C87.6981 90.6916 87.5672 91.6609 87.516 91.6363C87.5097 91.6349 87.5199 91.5778 87.5444 91.4697C87.5742 91.3633 87.5971 91.1988 87.6732 91.0019C87.8002 90.6 88.0582 90.0368 88.5046 89.4253C88.9485 88.8135 89.6097 88.1731 90.4786 87.6715C91.3426 87.1692 92.4333 86.8311 93.5967 86.8533C94.7594 86.8955 95.8294 87.2928 96.6643 87.8416C97.5051 88.3904 98.1298 89.066 98.5393 89.7014C98.952 90.3362 99.1788 90.9131 99.2837 91.3214C99.3493 91.5225 99.363 91.6877 99.3869 91.7955C99.4058 91.9047 99.4125 91.9628 99.4065 91.9635Z" fill="white"/>
<path d="M122.139 76.7734H112.492C112.481 75.2838 112.466 74.2588 112.451 73.8671C115.579 73.8692 118.815 73.8717 122.139 73.8742V76.7734Z" fill="#0E0A58"/>
<path d="M122.14 73.875C118.815 73.8725 115.579 73.8701 112.451 73.868C112.45 73.838 112.448 73.8119 112.447 73.7898H122.14V73.875Z" fill="#151717"/>
<path d="M112.38 76.7734H81.7473L73.0454 65.6995L80.2783 72.2173C80.8184 72.7273 81.3869 73.2645 81.9849 73.8291L82.0007 73.8442H82.0224C89.5052 73.8499 100.113 73.8576 112.422 73.8671C112.407 74.2588 112.392 75.2838 112.38 76.7734Z" fill="#0E0A58"/>
<path d="M112.422 73.8672C100.113 73.8577 89.5052 73.8499 82.0225 73.8443H82.0007L81.9849 73.8291C81.3869 73.2645 80.8184 72.7273 80.2783 72.2173L82.0225 73.789H112.426C112.425 73.8112 112.423 73.8372 112.422 73.8672Z" fill="#151717"/>
<path d="M112.437 103.285C112.386 103.285 112.345 96.6596 112.345 88.4884C112.345 80.3144 112.386 73.6902 112.437 73.6902C112.487 73.6902 112.528 80.3144 112.528 88.4884C112.528 96.6596 112.487 103.285 112.437 103.285Z" fill="#1D2A30"/>
<path d="M120.162 99.5713H115.825V94.6502H120.162V99.5713Z" fill="#F8F8F9"/>
<path d="M72.9338 65.2808L62.832 73.7891H72.9338V65.2808Z" fill="#F03658"/>
<path d="M72.9338 73.7891H62.832L72.9338 65.2808V73.7891Z" fill="#4842C1"/>
<path d="M67.0171 147.169H123.592V103.373H67.0171V147.169Z" fill="#F03658"/>
<path d="M123.592 147.169H67.0171V103.373H123.592V111.871V119.484V147.169Z" fill="#4842C1"/>
<path d="M109.417 146.86C109.367 146.86 109.326 137.098 109.326 125.059C109.326 113.015 109.367 103.255 109.417 103.255C109.468 103.255 109.509 113.015 109.509 125.059C109.509 137.098 109.468 146.86 109.417 146.86Z" fill="#1D2A30"/>
<path d="M118.794 142.121H114.458V137.2H118.794V142.121Z" fill="#F8F8F9"/>
<path d="M84.2769 103.486V112.831H90.7026V103.486H84.2769Z" fill="#0E0A58"/>
<path d="M84.2769 137.694V147.039H90.7026V137.694H84.2769Z" fill="#0E0A58"/>
<path d="M123.099 103.373C123.099 103.376 123.049 103.379 122.954 103.382C122.849 103.384 122.708 103.387 122.529 103.391C122.145 103.396 121.597 103.401 120.894 103.409C119.466 103.415 117.415 103.425 114.885 103.437C109.803 103.444 102.797 103.454 95.0589 103.464C87.3186 103.454 80.3121 103.444 75.2294 103.437C72.6995 103.425 70.649 103.415 69.2206 103.409C68.5188 103.401 67.9699 103.396 67.5867 103.391C67.407 103.387 67.2663 103.384 67.162 103.382C67.0662 103.379 67.0171 103.376 67.0171 103.373C67.0171 103.369 67.0662 103.367 67.162 103.363C67.2663 103.361 67.407 103.358 67.5867 103.354C67.9699 103.35 68.5188 103.344 69.2206 103.337C70.649 103.33 72.6995 103.32 75.2294 103.308C80.3121 103.301 87.3186 103.291 95.0589 103.28C102.797 103.291 109.803 103.301 114.885 103.308C117.415 103.32 119.466 103.33 120.894 103.337C121.597 103.344 122.145 103.35 122.529 103.354C122.708 103.358 122.849 103.361 122.954 103.363C123.049 103.367 123.099 103.369 123.099 103.373Z" fill="#1D2A30"/>
<path d="M26.1417 27.5445C25.7347 27.4442 23.7741 26.9605 19.9812 26.025L20.0267 26.0179C18.6719 26.8852 16.8367 27.5851 14.709 27.6182C13.6506 27.6143 12.531 27.4868 11.4137 27.1352C10.2976 26.7862 9.19983 26.2075 8.20239 25.4265C6.20656 23.8771 4.65268 21.3938 4.31711 18.5357C4.14588 17.1159 4.26047 15.6231 4.70065 14.1937C5.14908 12.7686 5.92251 11.4177 6.9641 10.2807C7.49198 9.67981 8.11395 9.18104 8.74824 8.72031C9.08139 8.5139 9.40969 8.29939 9.75294 8.11798L10.277 7.86508L10.5379 7.73898L10.8093 7.63929C12.2448 7.08064 13.7724 6.86437 15.2386 6.96229C16.7065 7.05704 18.1123 7.46916 19.342 8.11869C20.5738 8.76681 21.6295 9.64669 22.4587 10.6456C23.2898 11.6453 23.894 12.7622 24.2784 13.8901C24.6624 15.0194 24.8373 16.1553 24.8474 17.2286C24.8601 19.3846 24.1888 21.2342 23.3717 22.5847L23.3723 22.5287C25.0853 25.6308 25.9507 27.1983 26.1417 27.5445C25.9441 27.2022 25.0487 25.652 23.276 22.5833L23.2601 22.5558L23.2767 22.5273C24.0733 21.1839 24.7224 19.3543 24.6983 17.2293C24.6825 16.1715 24.5047 15.0542 24.1223 13.9447C23.7397 12.8365 23.1416 11.7404 22.3217 10.7612C21.5038 9.7816 20.4643 8.92073 19.2537 8.28741C18.0453 7.65303 16.6656 7.25113 15.2256 7.16061C13.7868 7.06656 12.2897 7.28072 10.8831 7.82915L10.6171 7.92672L10.3612 8.05071L9.8478 8.29904C9.51153 8.47692 9.18979 8.68755 8.86328 8.88973C8.24187 9.342 7.63211 9.83056 7.11472 10.4199C6.09346 11.5343 5.33497 12.858 4.89451 14.2547C4.46215 15.6548 4.34795 17.119 4.51409 18.5118C4.83899 21.3149 6.35733 23.7552 8.31371 25.2842C9.29153 26.0542 10.3683 26.6273 11.4648 26.975C12.5624 27.3251 13.6637 27.4554 14.7067 27.4649C16.8031 27.4431 18.6177 26.7654 19.9646 25.9193L19.9863 25.9056L20.01 25.9119C23.7852 26.9172 25.737 27.4368 26.1417 27.5445Z" fill="black"/>
<path d="M13.6981 12.6919L14.0241 17.8567C14.0507 18.279 14.3868 18.6151 14.8077 18.6401C15.2517 18.6668 15.6384 18.3393 15.6872 17.8958L16.2586 12.7049C16.3018 12.3118 15.9921 11.9694 15.5981 11.975L14.343 11.9927C13.9683 11.9979 13.6745 12.3167 13.6981 12.6919Z" fill="url(#paint17_linear_1_25437)"/>
<path d="M16.1719 21.5445C15.9533 22.2053 15.2425 22.5628 14.5843 22.3438C13.9259 22.1243 13.5693 21.411 13.788 20.7502C14.0065 20.0894 14.7174 19.7316 15.3756 19.951C16.034 20.1701 16.3904 20.8837 16.1719 21.5445Z" fill="url(#paint18_linear_1_25437)"/>
<defs>
<linearGradient id="paint0_linear_1_25437" x1="38.5918" y1="65.8672" x2="38.5918" y2="34.6108" gradientUnits="userSpaceOnUse">
<stop stop-color="#000AFF"/>
<stop offset="1" stop-color="#D274FF"/>
</linearGradient>
<linearGradient id="paint1_linear_1_25437" x1="52.3751" y1="52.752" x2="52.3751" y2="37.207" gradientUnits="userSpaceOnUse">
<stop stop-color="#000AFF"/>
<stop offset="1" stop-color="#D274FF"/>
</linearGradient>
<linearGradient id="paint2_linear_1_25437" x1="19.9833" y1="149.991" x2="19.9833" y2="133.677" gradientUnits="userSpaceOnUse">
<stop stop-color="#000AFF"/>
<stop offset="1" stop-color="#D274FF"/>
</linearGradient>
<linearGradient id="paint3_linear_1_25437" x1="47.0579" y1="147.851" x2="47.0579" y2="136.584" gradientUnits="userSpaceOnUse">
<stop stop-color="#000AFF"/>
<stop offset="1" stop-color="#D274FF"/>
</linearGradient>
<linearGradient id="paint4_linear_1_25437" x1="30.9405" y1="59.4746" x2="30.9405" y2="46.0276" gradientUnits="userSpaceOnUse">
<stop stop-color="#000AFF"/>
<stop offset="1" stop-color="#D274FF"/>
</linearGradient>
<linearGradient id="paint5_linear_1_25437" x1="143.25" y1="83.6361" x2="139.392" y2="84.6388" gradientUnits="userSpaceOnUse">
<stop stop-color="#14A2DF"/>
<stop offset="1" stop-color="#ADFF00"/>
</linearGradient>
<linearGradient id="paint6_linear_1_25437" x1="148.921" y1="98.2038" x2="142.711" y2="103.093" gradientUnits="userSpaceOnUse">
<stop stop-color="#14A2DF"/>
<stop offset="1" stop-color="#ADFF00"/>
</linearGradient>
<linearGradient id="paint7_linear_1_25437" x1="145.6" y1="110.766" x2="140.37" y2="112.881" gradientUnits="userSpaceOnUse">
<stop stop-color="#14A2DF"/>
<stop offset="1" stop-color="#ADFF00"/>
</linearGradient>
<linearGradient id="paint8_linear_1_25437" x1="148.999" y1="124.905" x2="143.512" y2="127.332" gradientUnits="userSpaceOnUse">
<stop stop-color="#14A2DF"/>
<stop offset="1" stop-color="#ADFF00"/>
</linearGradient>
<linearGradient id="paint9_linear_1_25437" x1="139.122" y1="80.4874" x2="132.866" y2="84.9637" gradientUnits="userSpaceOnUse">
<stop stop-color="#14A2DF"/>
<stop offset="1" stop-color="#ADFF00"/>
</linearGradient>
<linearGradient id="paint10_linear_1_25437" x1="144.483" y1="92.4096" x2="138.3" y2="97.411" gradientUnits="userSpaceOnUse">
<stop stop-color="#14A2DF"/>
<stop offset="1" stop-color="#ADFF00"/>
</linearGradient>
<linearGradient id="paint11_linear_1_25437" x1="141.497" y1="103.437" x2="137.481" y2="104.537" gradientUnits="userSpaceOnUse">
<stop stop-color="#14A2DF"/>
<stop offset="1" stop-color="#ADFF00"/>
</linearGradient>
<linearGradient id="paint12_linear_1_25437" x1="145.02" y1="120.421" x2="138.804" y2="125.283" gradientUnits="userSpaceOnUse">
<stop stop-color="#14A2DF"/>
<stop offset="1" stop-color="#ADFF00"/>
</linearGradient>
<linearGradient id="paint13_linear_1_25437" x1="152.911" y1="109.114" x2="149.471" y2="109.89" gradientUnits="userSpaceOnUse">
<stop stop-color="#14A2DF"/>
<stop offset="1" stop-color="#ADFF00"/>
</linearGradient>
<linearGradient id="paint14_linear_1_25437" x1="145.912" y1="121.779" x2="142.108" y2="122.75" gradientUnits="userSpaceOnUse">
<stop stop-color="#14A2DF"/>
<stop offset="1" stop-color="#ADFF00"/>
</linearGradient>
<linearGradient id="paint15_linear_1_25437" x1="159.051" y1="103.796" x2="153.055" y2="107.058" gradientUnits="userSpaceOnUse">
<stop stop-color="#14A2DF"/>
<stop offset="1" stop-color="#ADFF00"/>
</linearGradient>
<linearGradient id="paint16_linear_1_25437" x1="154.391" y1="120.219" x2="149.796" y2="126.483" gradientUnits="userSpaceOnUse">
<stop stop-color="#14A2DF"/>
<stop offset="1" stop-color="#ADFF00"/>
</linearGradient>
<linearGradient id="paint17_linear_1_25437" x1="14.9797" y1="18.6416" x2="14.9797" y2="11.975" gradientUnits="userSpaceOnUse">
<stop stop-color="#000AFF"/>
<stop offset="1" stop-color="#D274FF"/>
</linearGradient>
<linearGradient id="paint18_linear_1_25437" x1="14.9799" y1="22.4082" x2="14.9799" y2="19.8864" gradientUnits="userSpaceOnUse">
<stop stop-color="#000AFF"/>
<stop offset="1" stop-color="#D274FF"/>
</linearGradient>
</defs>
</svg>
