<svg width="16" height="16" viewBox="0 0 16 16" fill="none" xmlns="http://www.w3.org/2000/svg">
<path d="M15.6875 8.75419C15.7866 8.65516 15.8652 8.53758 15.9188 8.40818C15.9724 8.27877 16 8.14007 16 8C16 7.85993 15.9724 7.72123 15.9188 7.59182C15.8652 7.46242 15.7866 7.34484 15.6875 7.24581L12.6012 4.15962L14.1482 2.63279C14.3763 2.68933 14.6168 2.66899 14.8322 2.57494C15.0476 2.48088 15.2259 2.31837 15.3396 2.1126C15.4532 1.90684 15.4957 1.66933 15.4606 1.43692C15.4255 1.20451 15.3146 0.990185 15.1452 0.827205C14.9759 0.664224 14.7574 0.561694 14.5238 0.535519C14.2903 0.509345 14.0546 0.56099 13.8533 0.682442C13.6521 0.803894 13.4965 0.988364 13.4108 1.20723C13.3251 1.42611 13.314 1.66714 13.3793 1.89295L11.8469 3.40522L8.75419 0.31247C8.65516 0.213407 8.53758 0.134824 8.40818 0.0812096C8.27877 0.0275953 8.14007 0 8 0C7.85993 0 7.72123 0.0275953 7.59182 0.0812096C7.46242 0.134824 7.34484 0.213407 7.24581 0.31247L4.15962 3.39871L2.63295 1.85157C2.68946 1.62337 2.66907 1.38291 2.57496 1.16749C2.48086 0.952066 2.31828 0.773722 2.11247 0.660125C1.90665 0.546529 1.6691 0.504031 1.43667 0.539225C1.20424 0.574419 0.989916 0.685337 0.826956 0.854771C0.663997 1.02421 0.561509 1.24268 0.535394 1.47631C0.509278 1.70994 0.560995 1.94565 0.68252 2.14689C0.804045 2.34812 0.988586 2.50363 1.20751 2.58928C1.42644 2.67492 1.66751 2.68593 1.89333 2.62058L3.40533 4.15311L0.31247 7.24581C0.213407 7.34484 0.134824 7.46242 0.0812096 7.59182C0.0275953 7.72123 0 7.85993 0 8C0 8.14007 0.0275953 8.27877 0.0812096 8.40818C0.134824 8.53758 0.213407 8.65516 0.31247 8.75419L3.40522 11.8469L1.89333 13.3794C1.66802 13.3146 1.4276 13.3258 1.20934 13.4115C0.991087 13.4971 0.807175 13.6524 0.686114 13.8531C0.565054 14.0539 0.513605 14.289 0.539743 14.522C0.565881 14.755 0.668145 14.9729 0.830686 15.1419C0.993227 15.3109 1.20697 15.4215 1.43878 15.4567C1.67059 15.4918 1.90752 15.4495 2.11285 15.3364C2.31819 15.2232 2.48046 15.0454 2.57451 14.8307C2.66856 14.6159 2.68914 14.3761 2.63306 14.1484L4.15973 12.6013L7.24592 15.6875C7.34495 15.7866 7.46252 15.8652 7.59193 15.9188C7.72133 15.9724 7.86003 16 8.00011 16C8.14018 16 8.27888 15.9724 8.40828 15.9188C8.53769 15.8652 8.65526 15.7866 8.75429 15.6875L11.847 12.5948L13.3794 14.107C13.3146 14.3324 13.3258 14.5729 13.4115 14.7912C13.4972 15.0094 13.6525 15.1934 13.8533 15.3144C14.0542 15.4355 14.2894 15.4869 14.5224 15.4607C14.7554 15.4346 14.9733 15.3323 15.1423 15.1696C15.3113 15.007 15.4219 14.7932 15.457 14.5614C15.4921 14.3295 15.4498 14.0926 15.3366 13.8872C15.2233 13.6819 15.0455 13.5196 14.8306 13.4256C14.6158 13.3316 14.376 13.3111 14.1483 13.3672L12.6013 11.8404L15.6875 8.75419ZM8 14.9333L1.06666 8L8 1.06666L14.9333 8L8 14.9333Z" fill="#4C4893"/>
<path d="M8.77043 9.23195V6.90224C9.12638 6.77642 9.4264 6.52882 9.61744 6.20319C9.80849 5.87756 9.87826 5.49488 9.81444 5.12278C9.75061 4.75068 9.55729 4.41313 9.26865 4.16978C8.98001 3.92644 8.61463 3.79297 8.2371 3.79297C7.85956 3.79297 7.49419 3.92644 7.20554 4.16978C6.9169 4.41313 6.72358 4.75068 6.65976 5.12278C6.59593 5.49488 6.66571 5.87756 6.85675 6.20319C7.0478 6.52882 7.34781 6.77642 7.70376 6.90224V9.23221C7.34792 9.35802 7.048 9.60558 6.85703 9.93114C6.66605 10.2567 6.59631 10.6393 6.66014 11.0113C6.72396 11.3833 6.91724 11.7207 7.20581 11.964C7.49438 12.2073 7.85966 12.3407 8.2371 12.3407C8.61453 12.3407 8.97981 12.2073 9.26838 11.964C9.55695 11.7207 9.75023 11.3833 9.81406 11.0113C9.87788 10.6393 9.80814 10.2567 9.61717 9.93114C9.42619 9.60558 9.12628 9.35802 8.77043 9.23221V9.23195ZM8.2371 4.86709C8.34258 4.86709 8.4457 4.89837 8.5334 4.95697C8.62111 5.01557 8.68947 5.09887 8.72983 5.19632C8.7702 5.29378 8.78076 5.40101 8.76018 5.50447C8.7396 5.60793 8.68881 5.70296 8.61422 5.77755C8.53963 5.85213 8.4446 5.90293 8.34115 5.92351C8.23769 5.94409 8.13045 5.93352 8.033 5.89316C7.93554 5.85279 7.85225 5.78443 7.79365 5.69673C7.73504 5.60902 7.70376 5.5059 7.70376 5.40042C7.70389 5.25901 7.76012 5.12343 7.86011 5.02344C7.96011 4.92345 8.09569 4.86721 8.2371 4.86709V4.86709ZM8.2371 11.2671C8.13161 11.2671 8.0285 11.2358 7.94079 11.1772C7.85309 11.1186 7.78473 11.0353 7.74436 10.9379C7.70399 10.8404 7.69343 10.7332 7.71401 10.6297C7.73459 10.5263 7.78539 10.4312 7.85997 10.3566C7.93456 10.282 8.02959 10.2313 8.13305 10.2107C8.23651 10.1901 8.34374 10.2007 8.4412 10.241C8.53865 10.2814 8.62195 10.3498 8.68055 10.4375C8.73915 10.5252 8.77043 10.6283 8.77043 10.7338C8.7703 10.8752 8.71407 11.0108 8.61408 11.1107C8.51409 11.2107 8.37851 11.267 8.2371 11.2671V11.2671Z" fill="#4C4893"/>
</svg>
