<svg width="20" height="21" viewBox="0 0 20 21" fill="none" xmlns="http://www.w3.org/2000/svg">
<g id="approve 1">
<g id="Layer 2">
<path id="Vector" d="M16.0714 9.70913L14.0785 11.7013L13.2142 10.8313C13.1472 10.7643 13.0562 10.7267 12.9615 10.7268C12.8667 10.7269 12.7758 10.7646 12.7089 10.8316C12.6419 10.8987 12.6043 10.9896 12.6044 11.0844C12.6044 11.1792 12.6421 11.27 12.7092 11.337L13.8314 12.4591C13.8983 12.5261 13.9892 12.5637 14.0839 12.5637C14.1786 12.5637 14.2694 12.5261 14.3364 12.4591L16.5821 10.2141C16.6162 10.1812 16.6434 10.1418 16.6621 10.0982C16.6808 10.0546 16.6907 10.0078 16.6911 9.96034C16.6915 9.91292 16.6825 9.86589 16.6645 9.822C16.6465 9.77811 16.62 9.73824 16.5865 9.7047C16.553 9.67117 16.5131 9.64465 16.4692 9.62669C16.4253 9.60874 16.3783 9.5997 16.3309 9.60011C16.2834 9.60052 16.2366 9.61038 16.193 9.62909C16.1494 9.64781 16.11 9.67502 16.0771 9.70913H16.0714Z" fill="url(#paint0_linear_301_2416)"/>
<path id="Vector_2" d="M18.9286 11.0842C18.9267 10.0724 18.5672 9.09376 17.9137 8.3213C17.2602 7.54884 16.3547 7.03223 15.3571 6.86275V5.01275C15.3572 4.96582 15.348 4.91933 15.3301 4.87594C15.3123 4.83255 15.286 4.79312 15.2528 4.75989L12.3957 1.90275C12.3625 1.8696 12.323 1.84333 12.2796 1.82544C12.2363 1.80755 12.1898 1.79838 12.1428 1.79846H3.57141C3.47669 1.79846 3.38585 1.83609 3.31887 1.90307C3.2519 1.97004 3.21427 2.06089 3.21427 2.15561V3.94132H1.42855C1.33383 3.94132 1.24299 3.97895 1.17602 4.04592C1.10904 4.1129 1.07141 4.20374 1.07141 4.29846V19.2985C1.07141 19.3932 1.10904 19.484 1.17602 19.551C1.24299 19.618 1.33383 19.6556 1.42855 19.6556H13.5714C13.6661 19.6556 13.757 19.618 13.8239 19.551C13.8909 19.484 13.9286 19.3932 13.9286 19.2985V17.5127H15C15.0947 17.5127 15.1855 17.4751 15.2525 17.4081C15.3195 17.3412 15.3571 17.2503 15.3571 17.1556V15.3056C16.3547 15.1361 17.2602 14.6195 17.9137 13.8471C18.5672 13.0746 18.9267 12.096 18.9286 11.0842ZM12.5 3.01775L14.1378 4.65561H12.5V3.01775ZM13.2143 18.9413H1.7857V4.65561H3.21427V17.1556C3.21427 17.2503 3.2519 17.3412 3.31887 17.4081C3.38585 17.4751 3.47669 17.5127 3.57141 17.5127H13.2143V18.9413ZM14.6428 16.7985H3.92855V2.51275H11.7857V5.01275C11.7857 5.10747 11.8233 5.19831 11.8903 5.26529C11.9573 5.33226 12.0481 5.36989 12.1428 5.36989H14.6428V6.79846C13.5062 6.79846 12.4161 7.24999 11.6124 8.05372C10.8087 8.85745 10.3571 9.94753 10.3571 11.0842C10.3571 12.2208 10.8087 13.3109 11.6124 14.1146C12.4161 14.9184 13.5062 15.3699 14.6428 15.3699V16.7985ZM14.6428 14.6556C13.9365 14.6556 13.246 14.4461 12.6587 14.0537C12.0713 13.6613 11.6136 13.1035 11.3433 12.4509C11.073 11.7983 11.0022 11.0802 11.14 10.3874C11.2778 9.69464 11.618 9.05827 12.1175 8.5588C12.6169 8.05932 13.2533 7.71918 13.9461 7.58137C14.6389 7.44357 15.357 7.51429 16.0096 7.78461C16.6622 8.05492 17.2199 8.51268 17.6124 9.1C18.0048 9.68732 18.2143 10.3778 18.2143 11.0842C18.2131 12.031 17.8365 12.9388 17.167 13.6083C16.4974 14.2778 15.5897 14.6545 14.6428 14.6556Z" fill="url(#paint1_linear_301_2416)"/>
<path id="Vector_3" d="M7.49995 10.4742L6.39424 11.5842L5.96567 11.1556C5.8987 11.0886 5.80784 11.0509 5.71306 11.0508C5.61829 11.0507 5.52737 11.0883 5.46031 11.1553C5.39325 11.2222 5.35554 11.3131 5.35547 11.4079C5.3554 11.5027 5.39299 11.5936 5.45995 11.6606L6.14067 12.3406C6.20764 12.4076 6.29847 12.4452 6.39317 12.4452C6.48787 12.4452 6.57869 12.4076 6.64567 12.3406L8.00638 10.9835C8.07344 10.9165 8.11116 10.8257 8.11122 10.7309C8.11129 10.6361 8.07371 10.5452 8.00674 10.4781C7.93977 10.4111 7.84891 10.3734 7.75413 10.3733C7.65936 10.3732 7.56844 10.4108 7.50138 10.4778L7.49995 10.4742Z" fill="url(#paint2_linear_301_2416)"/>
<path id="Vector_4" d="M7.49995 13.3314L6.39424 14.4414L5.96567 14.0128C5.93251 13.9796 5.89313 13.9533 5.84979 13.9353C5.80645 13.9173 5.75999 13.908 5.71306 13.908C5.66614 13.9079 5.61966 13.9171 5.57629 13.9351C5.53293 13.953 5.49352 13.9793 5.46031 14.0125C5.4271 14.0456 5.40076 14.085 5.38277 14.1283C5.36478 14.1717 5.3555 14.2181 5.35547 14.2651C5.35544 14.312 5.36465 14.3585 5.38257 14.4018C5.4005 14.4452 5.42679 14.4846 5.45995 14.5178L6.14067 15.1978C6.20764 15.2648 6.29847 15.3024 6.39317 15.3024C6.48787 15.3024 6.57869 15.2648 6.64567 15.1978L8.00638 13.8407C8.07344 13.7737 8.11116 13.6828 8.11122 13.5881C8.11129 13.4933 8.07371 13.4024 8.00674 13.3353C7.93977 13.2682 7.84891 13.2305 7.75413 13.2305C7.65936 13.2304 7.56844 13.268 7.50138 13.335L7.49995 13.3314Z" fill="url(#paint3_linear_301_2416)"/>
<path id="Vector_5" d="M5.71432 4.65557H10C10.0948 4.65557 10.1856 4.61794 10.2526 4.55097C10.3196 4.48399 10.3572 4.39315 10.3572 4.29843C10.3572 4.20371 10.3196 4.11287 10.2526 4.04589C10.1856 3.97891 10.0948 3.94128 10 3.94128H5.71432C5.6196 3.94128 5.52876 3.97891 5.46178 4.04589C5.39481 4.11287 5.35718 4.20371 5.35718 4.29843C5.35718 4.39315 5.39481 4.48399 5.46178 4.55097C5.52876 4.61794 5.6196 4.65557 5.71432 4.65557Z" fill="url(#paint4_linear_301_2416)"/>
<path id="Vector_6" d="M10 6.08423H5.71432C5.6196 6.08423 5.52876 6.12186 5.46178 6.18883C5.39481 6.25581 5.35718 6.34665 5.35718 6.44137C5.35718 6.53609 5.39481 6.62693 5.46178 6.69391C5.52876 6.76089 5.6196 6.79851 5.71432 6.79851H10C10.0948 6.79851 10.1856 6.76089 10.2526 6.69391C10.3196 6.62693 10.3572 6.53609 10.3572 6.44137C10.3572 6.34665 10.3196 6.25581 10.2526 6.18883C10.1856 6.12186 10.0948 6.08423 10 6.08423Z" fill="url(#paint5_linear_301_2416)"/>
<path id="Vector_7" d="M7.85718 8.22705H5.71432C5.6196 8.22705 5.52876 8.26468 5.46178 8.33166C5.39481 8.39863 5.35718 8.48947 5.35718 8.58419C5.35718 8.67891 5.39481 8.76975 5.46178 8.83673C5.52876 8.90371 5.6196 8.94134 5.71432 8.94134H7.85718C7.9519 8.94134 8.04274 8.90371 8.10972 8.83673C8.17669 8.76975 8.21432 8.67891 8.21432 8.58419C8.21432 8.48947 8.17669 8.39863 8.10972 8.33166C8.04274 8.26468 7.9519 8.22705 7.85718 8.22705Z" fill="url(#paint6_linear_301_2416)"/>
</g>
</g>
<defs>
<linearGradient id="paint0_linear_301_2416" x1="14.6477" y1="9.6001" x2="14.6477" y2="12.5637" gradientUnits="userSpaceOnUse">
<stop stop-color="#000AFF"/>
<stop offset="1" stop-color="#D274FF"/>
</linearGradient>
<linearGradient id="paint1_linear_301_2416" x1="9.99998" y1="1.79846" x2="9.99998" y2="19.6556" gradientUnits="userSpaceOnUse">
<stop stop-color="#000AFF"/>
<stop offset="1" stop-color="#D274FF"/>
</linearGradient>
<linearGradient id="paint2_linear_301_2416" x1="6.73335" y1="10.3733" x2="6.73335" y2="12.4452" gradientUnits="userSpaceOnUse">
<stop stop-color="#000AFF"/>
<stop offset="1" stop-color="#D274FF"/>
</linearGradient>
<linearGradient id="paint3_linear_301_2416" x1="6.73335" y1="13.2305" x2="6.73335" y2="15.3024" gradientUnits="userSpaceOnUse">
<stop stop-color="#000AFF"/>
<stop offset="1" stop-color="#D274FF"/>
</linearGradient>
<linearGradient id="paint4_linear_301_2416" x1="7.85718" y1="3.94128" x2="7.85718" y2="4.65557" gradientUnits="userSpaceOnUse">
<stop stop-color="#000AFF"/>
<stop offset="1" stop-color="#D274FF"/>
</linearGradient>
<linearGradient id="paint5_linear_301_2416" x1="7.85718" y1="6.08423" x2="7.85718" y2="6.79851" gradientUnits="userSpaceOnUse">
<stop stop-color="#000AFF"/>
<stop offset="1" stop-color="#D274FF"/>
</linearGradient>
<linearGradient id="paint6_linear_301_2416" x1="6.78575" y1="8.22705" x2="6.78575" y2="8.94134" gradientUnits="userSpaceOnUse">
<stop stop-color="#000AFF"/>
<stop offset="1" stop-color="#D274FF"/>
</linearGradient>
</defs>
</svg>
