<svg width="18" height="18" viewBox="0 0 18 18" fill="none" xmlns="http://www.w3.org/2000/svg">
<path d="M14.625 2.8125H3.375C3.06434 2.8125 2.8125 3.06434 2.8125 3.375V14.625C2.8125 14.9357 3.06434 15.1875 3.375 15.1875H14.625C14.9357 15.1875 15.1875 14.9357 15.1875 14.625V3.375C15.1875 3.06434 14.9357 2.8125 14.625 2.8125Z" stroke="#333333" stroke-width="1.2" stroke-linecap="round" stroke-linejoin="round"/>
<path d="M6.61639 8.30371L8.99999 10.6873L11.3836 8.30371" stroke="#333333" stroke-width="1.2" stroke-linecap="round" stroke-linejoin="round"/>
<path d="M9 5.0625V10.6875" stroke="#333333" stroke-width="1.2" stroke-linecap="round" stroke-linejoin="round"/>
<path d="M2.8125 11.25H5.39297C5.46601 11.2497 5.53838 11.2639 5.60595 11.2916C5.67351 11.3194 5.73494 11.3602 5.78672 11.4117L7.15078 12.7758C7.20256 12.8273 7.26399 12.8681 7.33155 12.8959C7.39912 12.9236 7.47149 12.9378 7.54453 12.9375H10.4555C10.5285 12.9378 10.6009 12.9236 10.6684 12.8959C10.736 12.8681 10.7974 12.8273 10.8492 12.7758L12.2133 11.4117C12.2651 11.3602 12.3265 11.3194 12.3941 11.2916C12.4616 11.2639 12.534 11.2497 12.607 11.25H15.1875" stroke="#333333" stroke-width="1.2" stroke-linecap="round" stroke-linejoin="round"/>
</svg>
