<svg width="19" height="20" viewBox="0 0 19 20" fill="none" xmlns="http://www.w3.org/2000/svg">
<path d="M16.625 4.65625H2.375C2.04708 4.65625 1.78125 4.92208 1.78125 5.25V7.03125C1.78125 7.35917 2.04708 7.625 2.375 7.625H16.625C16.9529 7.625 17.2188 7.35917 17.2188 7.03125V5.25C17.2188 4.92208 16.9529 4.65625 16.625 4.65625Z" stroke="#645DF6" stroke-width="1.2" stroke-linecap="round" stroke-linejoin="round"/>
<path d="M16.0312 7.625V14.75C16.0312 14.9075 15.9687 15.0585 15.8573 15.1698C15.746 15.2812 15.595 15.3438 15.4375 15.3438H3.5625C3.40503 15.3438 3.25401 15.2812 3.14266 15.1698C3.03131 15.0585 2.96875 14.9075 2.96875 14.75V7.625" stroke="#645DF6" stroke-width="1.2" stroke-linecap="round" stroke-linejoin="round"/>
<path d="M7.71875 10.5938H11.2812" stroke="#645DF6" stroke-width="1.2" stroke-linecap="round" stroke-linejoin="round"/>
</svg>
