<svg width="18" height="24" viewBox="0 0 18 24" fill="none" xmlns="http://www.w3.org/2000/svg">
<path d="M9 1L9 21" stroke="#6174A4" stroke-linecap="round" stroke-linejoin="round" stroke-dasharray="3 3"/>
<path d="M3.07104 11.1933L8.24448 21.0897C8.32056 21.2349 8.43132 21.3557 8.5654 21.4397C8.69947 21.5238 8.85202 21.5681 9.00737 21.5681C9.16272 21.5681 9.31526 21.5238 9.44934 21.4397C9.58341 21.3557 9.69418 21.2349 9.77026 21.0897L14.9437 11.1933C15.0321 11.0274 15.0701 10.8362 15.0524 10.6461C15.0348 10.4561 14.9624 10.2767 14.8453 10.1327C14.7312 9.98565 14.5776 9.87978 14.4054 9.82947C14.2332 9.77915 14.0507 9.78683 13.8828 9.85145L9.58979 11.4979C9.54699 11.5146 9.50993 11.5448 9.48355 11.5846C9.45718 11.6244 9.44273 11.6718 9.44213 11.7206V15.9511C9.44404 16.0718 9.40347 16.1888 9.32848 16.279C9.25349 16.3691 9.14959 16.4256 9.03745 16.4374C8.97729 16.4422 8.91686 16.4337 8.85993 16.4123C8.803 16.391 8.75082 16.3572 8.70665 16.3132C8.66248 16.2692 8.62729 16.2158 8.60328 16.1565C8.57927 16.0972 8.56696 16.0333 8.56713 15.9686V11.7206C8.56773 11.6723 8.55439 11.625 8.52894 11.5851C8.50349 11.5453 8.46717 11.5148 8.42495 11.4979L4.12651 9.85145C4.03137 9.8169 3.93165 9.79909 3.83119 9.79872C3.67899 9.79943 3.52959 9.84267 3.39776 9.92416C3.26592 10.0057 3.1562 10.1226 3.07944 10.2634C3.00268 10.4042 2.96153 10.5641 2.96006 10.7271C2.95858 10.8902 2.99684 11.0509 3.07104 11.1933Z" fill="#6174A4"/>
</svg>
