<svg width="15" height="15" viewBox="0 0 15 15" fill="none" xmlns="http://www.w3.org/2000/svg">
<path d="M8.0776 7.19151L1.59385 0.714319C1.46831 0.606807 1.30683 0.550628 1.14166 0.557008C0.976501 0.563387 0.819828 0.631856 0.702954 0.74873C0.586079 0.865605 0.517611 1.02228 0.511232 1.18744C0.504852 1.3526 0.561031 1.51409 0.668542 1.63963L6.61417 7.58526L0.839167 13.3603C0.71694 13.4832 0.648334 13.6495 0.648334 13.8229C0.648334 13.9963 0.71694 14.1626 0.839167 14.2856C0.900174 14.3471 0.972756 14.3959 1.05273 14.4292C1.1327 14.4625 1.21847 14.4797 1.3051 14.4797C1.39174 14.4797 1.47751 14.4625 1.55748 14.4292C1.63745 14.3959 1.71004 14.3471 1.77104 14.2856L8.0776 7.97901C8.1818 7.87445 8.2403 7.73286 8.2403 7.58526C8.2403 7.43765 8.1818 7.29606 8.0776 7.19151Z" fill="#555555"/>
<path d="M14.3645 7.19151L7.88072 0.714319C7.75518 0.606807 7.59369 0.550628 7.42853 0.557008C7.26337 0.563387 7.10669 0.631856 6.98982 0.74873C6.87294 0.865605 6.80448 1.02228 6.7981 1.18744C6.79172 1.3526 6.8479 1.51409 6.95541 1.63963L12.901 7.58526L7.12603 13.3603C7.00381 13.4832 6.9352 13.6495 6.9352 13.8229C6.9352 13.9963 7.00381 14.1626 7.12603 14.2856C7.24899 14.4078 7.41532 14.4764 7.58869 14.4764C7.76206 14.4764 7.92839 14.4078 8.05135 14.2856L14.3645 7.97901C14.4687 7.87445 14.5272 7.73286 14.5272 7.58526C14.5272 7.43765 14.4687 7.29606 14.3645 7.19151Z" fill="#555555"/>
</svg>
