<svg width="24" height="25" viewBox="0 0 24 25" fill="none" xmlns="http://www.w3.org/2000/svg">
<path d="M4.38184 21.1633H19.2568C19.6049 21.1633 19.9388 21.025 20.1849 20.7789C20.4311 20.5328 20.5693 20.1989 20.5693 19.8508V4.97583C20.5693 4.62773 20.4311 4.29389 20.1849 4.04775C19.9388 3.80161 19.6049 3.66333 19.2568 3.66333H4.38184C4.03374 3.66333 3.6999 3.80161 3.45376 4.04775C3.20762 4.29389 3.06934 4.62773 3.06934 4.97583V19.8508C3.06934 20.1989 3.20762 20.5328 3.45376 20.7789C3.6999 21.025 4.03374 21.1633 4.38184 21.1633ZM19.6943 19.8508C19.6943 19.9669 19.6482 20.0781 19.5662 20.1602C19.4841 20.2422 19.3729 20.2883 19.2568 20.2883H4.38184C4.2658 20.2883 4.15452 20.2422 4.07248 20.1602C3.99043 20.0781 3.94434 19.9669 3.94434 19.8508V7.60083H19.6943V19.8508ZM3.94434 4.97583C3.94434 4.8598 3.99043 4.74852 4.07248 4.66647C4.15452 4.58442 4.2658 4.53833 4.38184 4.53833H19.2568C19.3729 4.53833 19.4841 4.58442 19.5662 4.66647C19.6482 4.74852 19.6943 4.8598 19.6943 4.97583V6.72583H3.94434V4.97583Z" fill="url(#paint0_linear_987_197090)"/>
<path d="M6.13184 13.2883H10.0693C10.1854 13.2883 10.2966 13.2422 10.3787 13.1602C10.4607 13.0781 10.5068 12.9669 10.5068 12.8508V9.78833C10.5068 9.6723 10.4607 9.56102 10.3787 9.47897C10.2966 9.39692 10.1854 9.35083 10.0693 9.35083H6.13184C6.0158 9.35083 5.90452 9.39692 5.82248 9.47897C5.74043 9.56102 5.69434 9.6723 5.69434 9.78833V12.8508C5.69434 12.9669 5.74043 13.0781 5.82248 13.1602C5.90452 13.2422 6.0158 13.2883 6.13184 13.2883ZM6.56934 10.2258H9.63183V12.4133H6.56934V10.2258Z" fill="url(#paint1_linear_987_197090)"/>
<path d="M12.2568 10.2258H17.5068C17.6229 10.2258 17.7341 10.1797 17.8162 10.0977C17.8982 10.0156 17.9443 9.90436 17.9443 9.78833C17.9443 9.6723 17.8982 9.56102 17.8162 9.47897C17.7341 9.39692 17.6229 9.35083 17.5068 9.35083H12.2568C12.1408 9.35083 12.0295 9.39692 11.9475 9.47897C11.8654 9.56102 11.8193 9.6723 11.8193 9.78833C11.8193 9.90436 11.8654 10.0156 11.9475 10.0977C12.0295 10.1797 12.1408 10.2258 12.2568 10.2258Z" fill="url(#paint2_linear_987_197090)"/>
<path d="M12.2568 13.2883H17.5068C17.6229 13.2883 17.7341 13.2422 17.8162 13.1602C17.8982 13.0781 17.9443 12.9669 17.9443 12.8508C17.9443 12.7348 17.8982 12.6235 17.8162 12.5415C17.7341 12.4594 17.6229 12.4133 17.5068 12.4133H12.2568C12.1408 12.4133 12.0295 12.4594 11.9475 12.5415C11.8654 12.6235 11.8193 12.7348 11.8193 12.8508C11.8193 12.9669 11.8654 13.0781 11.9475 13.1602C12.0295 13.2422 12.1408 13.2883 12.2568 13.2883Z" fill="url(#paint3_linear_987_197090)"/>
<path d="M6.13184 15.9133H17.5068C17.6229 15.9133 17.7341 15.8672 17.8162 15.7852C17.8982 15.7031 17.9443 15.5919 17.9443 15.4758C17.9443 15.3598 17.8982 15.2485 17.8162 15.1665C17.7341 15.0844 17.6229 15.0383 17.5068 15.0383H6.13184C6.0158 15.0383 5.90452 15.0844 5.82248 15.1665C5.74043 15.2485 5.69434 15.3598 5.69434 15.4758C5.69434 15.5919 5.74043 15.7031 5.82248 15.7852C5.90452 15.8672 6.0158 15.9133 6.13184 15.9133Z" fill="url(#paint4_linear_987_197090)"/>
<path d="M6.13184 18.5383H11.8193C11.9354 18.5383 12.0466 18.4922 12.1287 18.4102C12.2107 18.3281 12.2568 18.2169 12.2568 18.1008C12.2568 17.9848 12.2107 17.8735 12.1287 17.7915C12.0466 17.7094 11.9354 17.6633 11.8193 17.6633H6.13184C6.0158 17.6633 5.90452 17.7094 5.82248 17.7915C5.74043 17.8735 5.69434 17.9848 5.69434 18.1008C5.69434 18.2169 5.74043 18.3281 5.82248 18.4102C5.90452 18.4922 6.0158 18.5383 6.13184 18.5383Z" fill="url(#paint5_linear_987_197090)"/>
<defs>
<linearGradient id="paint0_linear_987_197090" x1="11.8193" y1="3.66333" x2="11.8193" y2="21.1633" gradientUnits="userSpaceOnUse">
<stop stop-color="#0033EA"/>
<stop offset="1" stop-color="#8A0074"/>
</linearGradient>
<linearGradient id="paint1_linear_987_197090" x1="11.8193" y1="3.66333" x2="11.8193" y2="21.1633" gradientUnits="userSpaceOnUse">
<stop stop-color="#0033EA"/>
<stop offset="1" stop-color="#8A0074"/>
</linearGradient>
<linearGradient id="paint2_linear_987_197090" x1="11.8193" y1="3.66333" x2="11.8193" y2="21.1633" gradientUnits="userSpaceOnUse">
<stop stop-color="#0033EA"/>
<stop offset="1" stop-color="#8A0074"/>
</linearGradient>
<linearGradient id="paint3_linear_987_197090" x1="11.8193" y1="3.66333" x2="11.8193" y2="21.1633" gradientUnits="userSpaceOnUse">
<stop stop-color="#0033EA"/>
<stop offset="1" stop-color="#8A0074"/>
</linearGradient>
<linearGradient id="paint4_linear_987_197090" x1="11.8193" y1="3.66333" x2="11.8193" y2="21.1633" gradientUnits="userSpaceOnUse">
<stop stop-color="#0033EA"/>
<stop offset="1" stop-color="#8A0074"/>
</linearGradient>
<linearGradient id="paint5_linear_987_197090" x1="11.8193" y1="3.66333" x2="11.8193" y2="21.1633" gradientUnits="userSpaceOnUse">
<stop stop-color="#0033EA"/>
<stop offset="1" stop-color="#8A0074"/>
</linearGradient>
</defs>
</svg>
