<svg width="26" height="26" viewBox="0 0 26 26" fill="none" xmlns="http://www.w3.org/2000/svg">
<path d="M21.7871 2.5268C21.7871 2.20336 21.5246 1.94086 21.2012 1.94086H5.73242C5.71055 1.94008 5.68477 1.9393 5.65898 1.9393C4.45508 1.9393 3.47383 2.89243 3.42773 4.08461V4.08852V23.1424C3.51602 24.1823 4.38164 24.9916 5.43711 24.9916C5.48633 24.9916 5.53477 24.9901 5.5832 24.9862H5.57695H21.202C21.5254 24.9862 21.7879 24.7237 21.7879 24.4002C21.7879 24.0768 21.5254 23.8143 21.202 23.8143H5.7332C5.71523 23.8151 5.69414 23.8159 5.67305 23.8159C5.11289 23.8159 4.65273 23.3885 4.60039 22.8416V22.837V21.8815C4.60039 21.5229 5.05664 21.2088 5.57539 21.2088L21.202 21.2534H21.2027C21.3645 21.2534 21.5105 21.1877 21.616 21.0815C21.6293 21.0682 21.6355 21.0495 21.6473 21.0346C21.684 20.9948 21.7152 20.9487 21.7395 20.8995L21.741 20.8963C21.7535 20.8581 21.7637 20.8143 21.7676 20.7682V20.7659C21.7762 20.7385 21.7832 20.7057 21.7871 20.6713V20.669V20.6674V2.5268ZM20.6152 20.0823L8.50586 20.0479V3.11274H20.6152V20.0823ZM4.59961 20.2502V4.0893C4.65195 3.53852 5.11289 3.11118 5.67305 3.11118C5.69414 3.11118 5.71523 3.11196 5.73555 3.11274H5.73242H7.33398V20.044L5.57617 20.0393C5.22227 20.0409 4.88633 20.1182 4.58477 20.2565L4.59961 20.2502ZM11.0449 7.01899H18.0762C18.3996 7.01899 18.6621 6.75649 18.6621 6.43305C18.6621 6.10961 18.3996 5.84711 18.0762 5.84711H11.0449C10.7215 5.84711 10.459 6.10961 10.459 6.43305C10.459 6.75649 10.7215 7.01899 11.0449 7.01899ZM18.0762 8.97211H11.0449C10.7215 8.97211 10.459 9.23461 10.459 9.55805C10.459 9.88149 10.7215 10.144 11.0449 10.144H18.0762C18.3996 10.144 18.6621 9.88149 18.6621 9.55805C18.6621 9.23461 18.3996 8.97211 18.0762 8.97211Z" fill="url(#paint0_linear_658_21337)"/>
<defs>
<linearGradient id="paint0_linear_658_21337" x1="12.6078" y1="1.9393" x2="12.6078" y2="24.9916" gradientUnits="userSpaceOnUse">
<stop stop-color="#000AFF"/>
<stop offset="1" stop-color="#D274FF"/>
</linearGradient>
</defs>
</svg>
