<svg width="12" height="12" viewBox="0 0 12 12" fill="none" xmlns="http://www.w3.org/2000/svg">
<path d="M0.999878 0.5H1.99488C2.52179 0.5 2.95394 0.908198 2.99213 1.4254L2.99488 1.5V10.5C2.99488 11.0269 2.58668 11.4591 2.06947 11.4973L1.99488 11.5H0.999878C0.472969 11.5 0.0408201 11.0918 0.00262254 10.5746L-0.00012207 10.5V1.5C-0.00012207 0.973091 0.408076 0.540942 0.925282 0.502745L0.999878 0.5H1.99488H0.999878ZM4.49738 0.5H5.49488C6.02179 0.5 6.45394 0.908198 6.49213 1.4254L6.49488 1.5V10.5C6.49488 11.0269 6.08668 11.4591 5.56947 11.4973L5.49488 11.5H4.49738C3.96999 11.5 3.53828 11.0918 3.50012 10.5746L3.49738 10.5V1.5C3.49738 0.973091 3.90512 0.540942 4.42272 0.502745L4.49738 0.5H5.49488H4.49738ZM9.06518 1.5132C9.48682 1.5132 9.87304 1.78204 10.0116 2.19301L10.0347 2.2717L11.9647 10.0132C12.0926 10.5244 11.8014 11.0424 11.3084 11.2049L11.2367 11.2257L10.2552 11.4702C10.1742 11.4902 10.0927 11.5002 10.0127 11.5002C9.59056 11.5002 9.20476 11.2309 9.06621 10.8203L9.04318 10.7417L7.11268 3.0002C6.98525 2.48809 7.27649 1.97051 7.76941 1.8084L7.84118 1.7877L8.82268 1.5432C8.90368 1.5232 8.98518 1.5132 9.06518 1.5132ZM1.99488 1.25H0.999878C0.877656 1.25 0.775187 1.33889 0.753925 1.45521L0.749878 1.5V10.5C0.749878 10.6222 0.838767 10.7247 0.955091 10.746L0.999878 10.75H1.99488C2.11754 10.75 2.21967 10.6611 2.24085 10.5448L2.24488 10.5V1.5C2.24488 1.37778 2.15638 1.27531 2.0398 1.25405L1.99488 1.25ZM5.49488 1.25H4.49738C4.37471 1.25 4.27259 1.33889 4.25141 1.45521L4.24738 1.5V10.5C4.24738 10.6222 4.33587 10.7247 4.45246 10.746L4.49738 10.75H5.49488C5.61755 10.75 5.71967 10.6611 5.74085 10.5448L5.74488 10.5V1.5C5.74488 1.37778 5.65638 1.27531 5.5398 1.25405L5.49488 1.25ZM9.06518 2.2632L9.03443 2.26507L9.00368 2.2707L8.02268 2.5152C7.90357 2.54498 7.82594 2.65574 7.83369 2.77375L7.84068 2.8182L9.77068 10.5602C9.80318 10.6902 9.91918 10.7502 10.0127 10.7502L10.0434 10.7483L10.0737 10.7422L11.0552 10.4977C11.1743 10.4679 11.2519 10.3576 11.2442 10.2393L11.2372 10.1947L9.30668 2.4527C9.27418 2.3222 9.15868 2.2632 9.06518 2.2632Z" fill="#333333"/>
</svg>
