<svg width="20" height="18" viewBox="0 0 20 18" fill="none" xmlns="http://www.w3.org/2000/svg">
<path d="M2.42018 0.722656H3.92284C4.71858 0.722656 5.37121 1.33912 5.4289 2.12021L5.43304 2.23286V15.8247C5.43304 16.6204 4.81658 17.2731 4.03549 17.3308L3.92284 17.3349H2.42018C1.62444 17.3349 0.971812 16.7184 0.914126 15.9374L0.909981 15.8247V2.23286C0.909981 1.43712 1.52644 0.784487 2.30753 0.726801L2.42018 0.722656H3.92284H2.42018ZM7.70212 0.722656H9.20855C10.0043 0.722656 10.6569 1.33912 10.7146 2.12021L10.7188 2.23286V15.8247C10.7188 16.6204 10.1023 17.2731 9.32121 17.3308L9.20855 17.3349H7.70212C6.90566 17.3349 6.25369 16.7184 6.19606 15.9374L6.19192 15.8247V2.23286C6.19192 1.43712 6.8077 0.784487 7.58938 0.726801L7.70212 0.722656H9.20855H7.70212ZM14.6004 2.2528C15.2372 2.2528 15.8205 2.6588 16.0298 3.27945L16.0646 3.39828L18.9793 15.0895C19.1724 15.8615 18.7326 16.6438 17.9882 16.8893L17.8798 16.9207L16.3976 17.2899C16.2753 17.3201 16.1522 17.3352 16.0314 17.3352C15.3939 17.3352 14.8112 16.9285 14.602 16.3084L14.5672 16.1897L11.6518 4.49847C11.4593 3.72507 11.8992 2.94342 12.6436 2.69861L12.7519 2.66735L14.2342 2.2981C14.3565 2.2679 14.4796 2.2528 14.6004 2.2528ZM3.92284 1.85531H2.42018C2.2356 1.85531 2.08086 1.98955 2.04875 2.16522L2.04263 2.23286V15.8247C2.04263 16.0093 2.17687 16.164 2.35255 16.1961L2.42018 16.2022H3.92284C4.10809 16.2022 4.26232 16.068 4.2943 15.8923L4.30039 15.8247V2.23286C4.30039 2.04828 4.16675 1.89353 3.99068 1.86142L3.92284 1.85531ZM9.20855 1.85531H7.70212C7.51687 1.85531 7.36265 1.98955 7.33066 2.16522L7.32457 2.23286V15.8247C7.32457 16.0093 7.45822 16.164 7.63429 16.1961L7.70212 16.2022H9.20855C9.39381 16.2022 9.54803 16.068 9.58002 15.8923L9.5861 15.8247V2.23286C9.5861 2.04828 9.45246 1.89353 9.27639 1.86142L9.20855 1.85531ZM14.6004 3.38545L14.554 3.38828L14.5076 3.39677L13.026 3.76602C12.8462 3.81099 12.7289 3.97827 12.7406 4.15649L12.7512 4.22361L15.6659 15.9156C15.715 16.1119 15.8901 16.2026 16.0314 16.2026L16.0777 16.1996L16.1235 16.1905L17.6057 15.8212C17.7856 15.7763 17.9029 15.6096 17.8912 15.431L17.8806 15.3636L14.9651 3.67163C14.9161 3.47455 14.7416 3.38545 14.6004 3.38545Z" fill="white"/>
</svg>
