<svg width="25" height="25" viewBox="0 0 25 25" fill="none" xmlns="http://www.w3.org/2000/svg">
<path d="M12.375 0.90625C5.86458 0.90625 0.65625 6.11458 0.65625 12.625C0.65625 14.9688 1.4375 17.3125 2.73958 19.2656L0.916667 22.3906C0.65625 22.7812 0.65625 23.3021 0.916667 23.6927C1.17708 24.0833 1.4375 24.3438 1.95833 24.3438H12.375C18.8854 24.3438 24.0938 19.1354 24.0938 12.625C24.0938 6.11458 18.8854 0.90625 12.375 0.90625ZM12.375 21.7396H4.30208L5.47396 19.7865C5.73438 19.2656 5.73438 18.7448 5.34375 18.3542C4.04167 16.7917 3.26042 14.7083 3.26042 12.625C3.26042 7.54688 7.29688 3.51042 12.375 3.51042C17.4531 3.51042 21.4896 7.54688 21.4896 12.625C21.4896 17.7031 17.4531 21.7396 12.375 21.7396Z" fill="white"/>
<path d="M12.5053 6.50537H12.3751C11.073 6.50537 9.90113 7.15641 9.25009 8.19808C8.72926 8.84912 8.85946 9.63037 9.51051 10.021C10.1615 10.4116 10.9428 10.2814 11.3334 9.63037C11.5938 9.23975 11.9845 9.10954 12.3751 9.10954H12.5053C13.1563 9.10954 13.6772 9.63037 13.6772 10.2814C13.6772 10.8022 13.2865 11.3231 12.8959 11.4533L11.9845 11.7137C11.4636 11.8439 11.073 12.3647 11.073 12.8856V13.9272C11.073 14.7085 11.5938 15.2293 12.3751 15.2293C13.0261 15.2293 13.6772 14.7085 13.6772 14.0575C15.2397 13.5366 16.2813 12.1043 16.2813 10.4116C16.2813 8.32829 14.5886 6.50537 12.5053 6.50537Z" fill="white"/>
<path d="M12.3748 19.1354C13.094 19.1354 13.6769 18.5525 13.6769 17.8333C13.6769 17.1142 13.094 16.5312 12.3748 16.5312C11.6557 16.5312 11.0728 17.1142 11.0728 17.8333C11.0728 18.5525 11.6557 19.1354 12.3748 19.1354Z" fill="white"/>
</svg>
