<svg width="25" height="25" viewBox="0 0 25 25" fill="none" xmlns="http://www.w3.org/2000/svg">
<path d="M12.5 3.125C7.29167 3.125 3.125 7.29167 3.125 12.5C3.125 14.375 3.75 16.25 4.79167 17.8125L3.33333 20.3125C3.125 20.625 3.125 21.0417 3.33333 21.3542C3.54167 21.6667 3.75 21.875 4.16667 21.875H12.5C17.7083 21.875 21.875 17.7083 21.875 12.5C21.875 7.29167 17.7083 3.125 12.5 3.125ZM12.5 19.7917H6.04167L6.97917 18.2292C7.1875 17.8125 7.1875 17.3958 6.875 17.0833C5.83333 15.8333 5.20833 14.1667 5.20833 12.5C5.20833 8.4375 8.4375 5.20833 12.5 5.20833C16.5625 5.20833 19.7917 8.4375 19.7917 12.5C19.7917 16.5625 16.5625 19.7917 12.5 19.7917Z" fill="white"/>
<path d="M12.6044 7.60449H12.5003C11.4586 7.60449 10.5211 8.12533 10.0003 8.95866C9.5836 9.47949 9.68777 10.1045 10.2086 10.417C10.7294 10.7295 11.3544 10.6253 11.6669 10.1045C11.8753 9.79199 12.1878 9.68783 12.5003 9.68783H12.6044C13.1253 9.68783 13.5419 10.1045 13.5419 10.6253C13.5419 11.042 13.2294 11.4587 12.9169 11.5628L12.1878 11.7712C11.7711 11.8753 11.4586 12.292 11.4586 12.7087V13.542C11.4586 14.167 11.8753 14.5837 12.5003 14.5837C13.0211 14.5837 13.5419 14.167 13.5419 13.6462C14.7919 13.2295 15.6253 12.0837 15.6253 10.7295C15.6253 9.06283 14.2711 7.60449 12.6044 7.60449Z" fill="white"/>
<path d="M12.4997 17.7083C13.075 17.7083 13.5413 17.242 13.5413 16.6667C13.5413 16.0914 13.075 15.625 12.4997 15.625C11.9244 15.625 11.458 16.0914 11.458 16.6667C11.458 17.242 11.9244 17.7083 12.4997 17.7083Z" fill="white"/>
</svg>
