<svg width="38" height="38" viewBox="0 0 38 38" fill="none" xmlns="http://www.w3.org/2000/svg">
<rect x="0.5" y="0.5" width="37" height="37" rx="4.5" fill="#D9FCE7" stroke="#83E6B6"/>
<path fill-rule="evenodd" clip-rule="evenodd" d="M26.8861 21.3114L28.4053 22.48L22.9912 29.5183L18.3896 25.4919L19.6517 24.0495L22.716 26.7314L26.8861 21.3114ZM18.3019 18.5415C21.0111 18.5415 23.2202 20.744 23.329 23.5032L23.3332 23.7165L23.3331 24.3569L22.579 25.337L19.5617 22.6971L17.0373 25.582L18.8481 27.1665L9.9165 27.1665V23.7165C9.9165 20.9299 12.0579 18.6577 14.7404 18.5458L14.9478 18.5415H18.3019ZM16.6248 9.9165C18.4773 9.9165 19.979 11.4182 19.979 13.2707C19.979 15.0614 18.5757 16.5243 16.8089 16.6199L16.6248 16.6248C14.7724 16.6248 13.2707 15.1231 13.2707 13.2707C13.2707 11.48 14.6739 10.017 16.4408 9.92147L16.6248 9.9165Z" fill="#32A66E"/>
</svg>
