<svg width="17" height="17" viewBox="0 0 17 17" fill="none" xmlns="http://www.w3.org/2000/svg">
<path d="M9.48057 16.5781H7.12236C6.97763 16.5782 6.838 16.5246 6.73039 16.4278C6.62278 16.331 6.5548 16.1978 6.53955 16.0539L6.36494 14.4098C6.12119 14.3268 5.88306 14.2282 5.65205 14.1145L4.36729 15.1535C4.25484 15.2441 4.11292 15.2899 3.96874 15.2823C3.82456 15.2747 3.68828 15.2141 3.58604 15.1121L1.91846 13.4445C1.81651 13.3423 1.75591 13.206 1.74827 13.0618C1.74063 12.9177 1.78649 12.7757 1.87705 12.6633L2.9165 11.377C2.8026 11.146 2.70382 10.9079 2.6208 10.6641L0.973926 10.4883C0.83006 10.473 0.696918 10.4051 0.600135 10.2976C0.503352 10.1901 0.44977 10.0505 0.449707 9.90586V7.54727C0.44977 7.4026 0.503352 7.26306 0.600135 7.15554C0.696918 7.04801 0.83006 6.98008 0.973926 6.96485L2.61807 6.79024C2.70109 6.54645 2.79986 6.30832 2.91377 6.07735L1.87432 4.79102C1.78375 4.67857 1.73789 4.53665 1.74553 4.39247C1.75317 4.24829 1.81378 4.11201 1.91572 4.00977L3.5833 2.34219C3.68554 2.24025 3.82182 2.17964 3.966 2.172C4.11018 2.16436 4.25211 2.21022 4.36455 2.30078L5.65088 3.33985C5.88189 3.22613 6.12002 3.12749 6.36377 3.04453L6.53838 1.40039C6.55337 1.25605 6.6214 1.1224 6.72929 1.02534C6.83718 0.92828 6.97724 0.874708 7.12236 0.875001H9.48057C9.62531 0.874968 9.76493 0.928506 9.87254 1.0253C9.98016 1.12209 10.0481 1.25529 10.0634 1.39922L10.2376 3.04336C10.4815 3.12631 10.7197 3.22496 10.9509 3.33867L12.2368 2.29961C12.3493 2.20905 12.4912 2.16319 12.6354 2.17083C12.7795 2.17847 12.9158 2.23907 13.0181 2.34102L14.6856 4.0086C14.7876 4.11084 14.8482 4.24712 14.8558 4.3913C14.8635 4.53548 14.8176 4.6774 14.7271 4.78985L13.6876 6.07617C13.8013 6.30722 13.9001 6.54534 13.9833 6.78906L15.6274 6.96367C15.7712 6.979 15.9043 7.04696 16.001 7.15448C16.0977 7.262 16.1512 7.40149 16.1513 7.5461V9.90469C16.1515 10.0493 16.0984 10.1888 16.002 10.2966C15.9056 10.4043 15.7727 10.4726 15.629 10.4883L13.9849 10.6629C13.9017 10.9066 13.8029 11.1447 13.6892 11.3758L14.7286 12.6621C14.8192 12.7746 14.865 12.9165 14.8574 13.0607C14.8498 13.2048 14.7892 13.3411 14.6872 13.4434L13.0196 15.1121C12.9174 15.2141 12.7811 15.2747 12.6369 15.2823C12.4927 15.2899 12.3508 15.2441 12.2384 15.1535L10.9524 14.1145C10.7213 14.2282 10.483 14.3268 10.2392 14.4098L10.0649 16.0539C10.0497 16.1981 9.98147 16.3315 9.87353 16.4284C9.76559 16.5252 9.62557 16.5785 9.48057 16.5781ZM7.64854 15.4063H8.95283L9.1126 13.9C9.12513 13.7821 9.17314 13.6708 9.25028 13.5807C9.32741 13.4907 9.43005 13.4262 9.54463 13.3957C9.95735 13.2856 10.3535 13.121 10.7228 12.9063C10.8256 12.8464 10.9441 12.8192 11.0628 12.8283C11.1814 12.8375 11.2944 12.8825 11.3868 12.9574L12.5649 13.9094L13.4872 12.9871L12.5337 11.8125C12.4588 11.7201 12.4137 11.6071 12.4046 11.4884C12.3954 11.3698 12.4226 11.2512 12.4825 11.1484C12.6969 10.7795 12.8609 10.3835 12.9704 9.9711C13.0009 9.85646 13.0655 9.75378 13.1556 9.67664C13.2457 9.5995 13.3571 9.55152 13.4751 9.53906L14.981 9.37891V8.07461L13.4751 7.91446C13.3571 7.90199 13.2457 7.85402 13.1556 7.77688C13.0655 7.69974 13.0009 7.59706 12.9704 7.48242C12.861 7.06986 12.6969 6.67378 12.4825 6.30469C12.4226 6.20189 12.3954 6.0833 12.4046 5.96468C12.4137 5.84606 12.4588 5.73303 12.5337 5.64063L13.4856 4.4625L12.5634 3.54024L11.3853 4.49219C11.2929 4.56713 11.1798 4.61216 11.0612 4.6213C10.9426 4.63044 10.824 4.60326 10.7212 4.54336C10.3521 4.32917 9.95622 4.1651 9.54385 4.05547C9.42927 4.02499 9.32663 3.96047 9.2495 3.87043C9.17236 3.78039 9.12435 3.66907 9.11182 3.55117L8.95361 2.04688H7.64854L7.48877 3.55313C7.47621 3.67107 7.42814 3.78243 7.35093 3.87248C7.27372 3.96252 7.171 4.02701 7.05635 4.05742C6.64427 4.16755 6.24873 4.33215 5.88018 4.54688C5.77738 4.60677 5.65879 4.63396 5.54017 4.62482C5.42155 4.61568 5.30852 4.57064 5.21611 4.4957L4.03916 3.54219L3.11729 4.46445L4.06963 5.64258C4.14451 5.73503 4.18947 5.84807 4.19854 5.96669C4.20761 6.08531 4.18036 6.20389 4.12041 6.30664C3.90639 6.67577 3.74233 7.07168 3.63252 7.48399C3.60204 7.59856 3.53752 7.7012 3.44748 7.77834C3.35744 7.85548 3.24612 7.90348 3.12822 7.91602L1.62197 8.07617V9.38008L3.12822 9.54024C3.24612 9.55277 3.35744 9.60078 3.44748 9.67792C3.53752 9.75505 3.60204 9.85769 3.63252 9.97227C3.7423 10.3842 3.90623 10.7797 4.12002 11.1484C4.17997 11.2512 4.20722 11.3698 4.19815 11.4884C4.18908 11.607 4.14412 11.7201 4.06924 11.8125L3.11729 12.9887L4.03955 13.9109L5.21807 12.959C5.31047 12.884 5.4235 12.839 5.54212 12.8299C5.66074 12.8207 5.77933 12.8479 5.88213 12.9078C6.25101 13.1221 6.64682 13.2861 7.05908 13.3957C7.17373 13.4261 7.27645 13.4906 7.35367 13.5807C7.43088 13.6707 7.47894 13.7821 7.4915 13.9L7.64854 15.4063Z" fill="#555555"/>
<path d="M8.30127 12.2957C7.59546 12.2956 6.90551 12.0863 6.31869 11.6941C5.73186 11.3019 5.27451 10.7445 5.00445 10.0924C4.7344 9.44027 4.66379 8.72273 4.80153 8.03049C4.93928 7.33824 5.2792 6.70239 5.77831 6.20333C6.27743 5.70427 6.91332 5.36442 7.60558 5.22675C8.29784 5.08908 9.01537 5.15978 9.66745 5.4299C10.3195 5.70002 10.8769 6.15743 11.269 6.7443C11.6611 7.33117 11.8704 8.02114 11.8704 8.72695C11.8694 9.6732 11.493 10.5804 10.8239 11.2494C10.1547 11.9185 9.24751 12.2948 8.30127 12.2957ZM8.30127 6.33008C7.82723 6.33016 7.36386 6.4708 6.96975 6.73422C6.57563 6.99763 6.26848 7.372 6.08713 7.80998C5.90577 8.24796 5.85836 8.72988 5.95089 9.1948C6.04342 9.65972 6.27173 10.0868 6.60695 10.4219C6.94218 10.7571 7.36926 10.9853 7.8342 11.0778C8.29914 11.1703 8.78105 11.1228 9.219 10.9413C9.65694 10.7599 10.0313 10.4527 10.2946 10.0585C10.558 9.66439 10.6985 9.20099 10.6985 8.72695C10.6978 8.09142 10.445 7.48212 9.99557 7.03277C9.54614 6.58341 8.93681 6.3307 8.30127 6.33008Z" fill="#555555"/>
</svg>
