<svg width="19" height="15" viewBox="0 0 19 15" fill="none" xmlns="http://www.w3.org/2000/svg">
<path d="M17.3673 2.01363C17.0363 1.68151 16.643 1.41799 16.21 1.23818C15.777 1.05838 15.3127 0.96582 14.8438 0.96582C14.375 0.96582 13.9107 1.05838 13.4777 1.23818C13.0446 1.41799 12.6514 1.68151 12.3204 2.01363L13.1635 2.85675C13.3846 2.6357 13.647 2.46036 13.9358 2.34072C14.2246 2.22109 14.5342 2.15952 14.8468 2.15952C15.1594 2.15952 15.469 2.22109 15.7578 2.34072C16.0466 2.46036 16.309 2.6357 16.5301 2.85675C16.7511 3.07781 16.9265 3.34023 17.0461 3.62905C17.1658 3.91787 17.2273 4.22742 17.2273 4.54004C17.2273 4.85265 17.1658 5.1622 17.0461 5.45102C16.9265 5.73984 16.7511 6.00227 16.5301 6.22332L11.7801 10.9733C11.3344 11.4198 10.7297 11.6709 10.0989 11.6714C9.46811 11.672 8.86293 11.4219 8.41649 10.9763C7.97006 10.5306 7.71894 9.9259 7.71839 9.2951C7.71783 8.66431 7.96788 8.05913 8.41353 7.61269L9.25071 6.76957L8.41353 5.92644L7.5704 6.76957C7.23828 7.10054 6.97476 7.49381 6.79496 7.92684C6.61515 8.35987 6.52259 8.82413 6.52259 9.293C6.52259 9.76188 6.61515 10.2261 6.79496 10.6592C6.97476 11.0922 7.23828 11.4855 7.5704 11.8164C8.24222 12.4797 9.14982 12.8491 10.0938 12.8436C10.5645 12.8456 11.0309 12.7542 11.4661 12.5748C11.9012 12.3955 12.2965 12.1317 12.6292 11.7986L17.3792 7.04863C18.0447 6.37909 18.4173 5.47274 18.4151 4.52867C18.4129 3.58461 18.036 2.68003 17.3673 2.01363Z" fill="#4E4E4E"/>
<path d="M2.4879 12.7368C2.26619 12.5161 2.09026 12.2538 1.97021 11.9649C1.85017 11.676 1.78837 11.3663 1.78837 11.0535C1.78837 10.7407 1.85017 10.4309 1.97021 10.142C2.09026 9.85318 2.26619 9.59087 2.4879 9.37019L7.2379 4.62019C7.45858 4.39848 7.72089 4.22255 8.00976 4.1025C8.29862 3.98246 8.60836 3.92066 8.92118 3.92066C9.234 3.92066 9.54374 3.98246 9.83261 4.1025C10.1215 4.22255 10.3838 4.39848 10.6045 4.62019C10.8248 4.84261 10.9982 5.10699 11.1145 5.39766C11.2307 5.68833 11.2875 5.99938 11.2813 6.31238C11.2832 6.62636 11.2227 6.93758 11.1034 7.22804C10.9842 7.5185 10.8086 7.78243 10.5867 8.00457L9.3279 9.28113L10.171 10.1243L11.4298 8.8655C12.0998 8.19546 12.4762 7.28668 12.4762 6.3391C12.4762 5.39151 12.0998 4.48274 11.4298 3.81269C10.7597 3.14265 9.85096 2.76622 8.90337 2.76622C7.95578 2.76622 7.04701 3.14265 6.37696 3.81269L1.62696 8.56269C1.29395 8.89377 1.02968 9.28741 0.849343 9.72099C0.669009 10.1546 0.576172 10.6195 0.576172 11.0891C0.576172 11.5587 0.669009 12.0236 0.849343 12.4572C1.02968 12.8908 1.29395 13.2844 1.62696 13.6155C2.30314 14.2737 3.21281 14.6367 4.15634 14.6249C5.10818 14.6258 6.02173 14.2501 6.69759 13.5799L5.85446 12.7368C5.63378 12.9585 5.37148 13.1344 5.08261 13.2544C4.79374 13.3745 4.484 13.4363 4.17118 13.4363C3.85836 13.4363 3.54863 13.3745 3.25976 13.2544C2.97089 13.1344 2.70858 12.9585 2.4879 12.7368Z" fill="#4E4E4E"/>
</svg>
