<svg width="20" height="21" viewBox="0 0 20 21" fill="none" xmlns="http://www.w3.org/2000/svg">
<path d="M14.0625 16.125C15.2706 16.125 16.25 15.1456 16.25 13.9375C16.25 12.7294 15.2706 11.75 14.0625 11.75C12.8544 11.75 11.875 12.7294 11.875 13.9375C11.875 15.1456 12.8544 16.125 14.0625 16.125Z" stroke="black" stroke-width="1.5" stroke-linecap="round" stroke-linejoin="round"/>
<path d="M4.0625 18.625C5.27062 18.625 6.25 17.6456 6.25 16.4375C6.25 15.2294 5.27062 14.25 4.0625 14.25C2.85438 14.25 1.875 15.2294 1.875 16.4375C1.875 17.6456 2.85438 18.625 4.0625 18.625Z" stroke="black" stroke-width="1.5" stroke-linecap="round" stroke-linejoin="round"/>
<path d="M16.25 6.75L6.25 9.25" stroke="black" stroke-width="1.5" stroke-linecap="round" stroke-linejoin="round"/>
<path d="M6.25 16.4375V5.5L16.25 3V13.9375" stroke="black" stroke-width="1.5" stroke-linecap="round" stroke-linejoin="round"/>
</svg>
