<svg width="25" height="26" viewBox="0 0 25 26" fill="none" xmlns="http://www.w3.org/2000/svg">
<path d="M2.08333 17.6875H6.125L16.4323 22.8386C16.5052 22.875 16.5885 22.8959 16.6667 22.8959C16.7604 22.8959 16.8594 22.8698 16.9427 22.8177C17.0937 22.724 17.1875 22.5573 17.1875 22.375V3.62503C17.1875 3.44274 17.0937 3.27607 16.9427 3.18232C16.7917 3.08857 16.599 3.07815 16.4375 3.16149L6.125 8.31253H2.08333C1.79687 8.31253 1.5625 8.5469 1.5625 8.83336V17.1667C1.5625 17.4532 1.79687 17.6875 2.08333 17.6875ZM6.77083 9.15628L16.1458 4.46878V21.5313L6.77083 16.8438V9.15628ZM2.60417 9.35419H5.72917V16.6459H2.60417V9.35419Z" fill="url(#paint0_linear_987_197327)"/>
<path d="M22.9163 10.396C22.6299 10.396 22.3955 10.6304 22.3955 10.9168V15.0835C22.3955 15.37 22.6299 15.6043 22.9163 15.6043C23.2028 15.6043 23.4372 15.37 23.4372 15.0835V10.9168C23.4372 10.6304 23.2028 10.396 22.9163 10.396Z" fill="url(#paint1_linear_987_197327)"/>
<path d="M20.8333 17.6875C21.1198 17.6875 21.3542 17.4531 21.3542 17.1667V8.83333C21.3542 8.54687 21.1198 8.3125 20.8333 8.3125C20.5469 8.3125 20.3125 8.54687 20.3125 8.83333V17.1667C20.3125 17.4531 20.5469 17.6875 20.8333 17.6875Z" fill="url(#paint2_linear_987_197327)"/>
<path d="M18.2295 6.75008V19.2501C18.2295 19.5365 18.4639 19.7709 18.7503 19.7709C19.0368 19.7709 19.2712 19.5365 19.2712 19.2501V6.75008C19.2712 6.46362 19.0368 6.22925 18.7503 6.22925C18.4639 6.22925 18.2295 6.46362 18.2295 6.75008Z" fill="url(#paint3_linear_987_197327)"/>
<defs>
<linearGradient id="paint0_linear_987_197327" x1="9.375" y1="3.10498" x2="9.375" y2="22.8959" gradientUnits="userSpaceOnUse">
<stop stop-color="#0033EA"/>
<stop offset="1" stop-color="#8A0074"/>
</linearGradient>
<linearGradient id="paint1_linear_987_197327" x1="22.9163" y1="10.396" x2="22.9163" y2="15.6043" gradientUnits="userSpaceOnUse">
<stop stop-color="#0033EA"/>
<stop offset="1" stop-color="#8A0074"/>
</linearGradient>
<linearGradient id="paint2_linear_987_197327" x1="20.8333" y1="8.3125" x2="20.8333" y2="17.6875" gradientUnits="userSpaceOnUse">
<stop stop-color="#0033EA"/>
<stop offset="1" stop-color="#8A0074"/>
</linearGradient>
<linearGradient id="paint3_linear_987_197327" x1="18.7503" y1="6.22925" x2="18.7503" y2="19.7709" gradientUnits="userSpaceOnUse">
<stop stop-color="#0033EA"/>
<stop offset="1" stop-color="#8A0074"/>
</linearGradient>
</defs>
</svg>
