<svg width="27" height="27" viewBox="0 0 27 27" fill="none" xmlns="http://www.w3.org/2000/svg">
<path d="M13.5 0C6.05566 0 0 6.05621 0 13.5C0 20.9438 6.05566 27 13.5 27C20.9443 27 27 20.9438 27 13.5C27 6.05621 20.9443 0 13.5 0Z" fill="#828282"/>
<path d="M17.8402 12.375C17.3372 10.4397 15.591 9 13.5 9C11.0182 9 9 11.0187 9 13.5C9 15.9813 11.0182 18 13.5 18C15.591 18 17.3372 16.5603 17.8402 14.625H20.1484C19.6103 17.8123 16.8381 20.25 13.5 20.25C9.77783 20.25 6.75 17.2222 6.75 13.5C6.75 9.77783 9.77783 6.75 13.5 6.75C16.8381 6.75 19.6103 9.18773 20.1484 12.375H17.8402Z" fill="#808080"/>
<path d="M13.5 14.625H16.6677C16.2018 15.9317 14.9647 16.875 13.5 16.875C11.6389 16.875 10.125 15.3611 10.125 13.5C10.125 11.6389 11.6389 10.125 13.5 10.125C14.9647 10.125 16.2018 11.0683 16.6677 12.375H13.5C12.8782 12.375 12.375 12.8787 12.375 13.5C12.375 14.1213 12.8782 14.625 13.5 14.625Z" fill="#666666"/>
<path d="M21.2852 12.3763H24.75C25.3663 12.3763 25.8631 12.8722 25.8719 13.4858H25.8743C25.8703 10.2824 24.6331 7.36962 22.6253 5.17188L19.4446 8.35214C20.4103 9.46547 21.0653 10.8501 21.2852 12.3763Z" fill="#808080"/>
<path d="M24.75 14.625H21.2852C20.7364 18.4349 17.4589 21.375 13.5 21.375C9.1582 21.375 5.625 17.8423 5.625 13.5C5.625 9.15765 9.1582 5.625 13.5 5.625C15.4689 5.625 17.2669 6.35655 18.6492 7.5555L21.83 4.3751C19.6286 2.36371 16.7099 1.125 13.5 1.125C6.67639 1.125 1.125 6.67639 1.125 13.5C1.125 20.3236 6.67639 25.875 13.5 25.875C20.3236 25.875 25.875 20.3236 25.875 13.5C25.875 14.1213 25.3718 14.625 24.75 14.625Z" fill="#E6E6E6"/>
<path d="M25.8745 13.4961L25.875 13.4985L25.8748 13.4961H25.8745Z" fill="#E6E6E6"/>
<path d="M13.5 4.5C14.1207 4.5 14.625 3.99518 14.625 3.375C14.625 2.75482 14.1207 2.25 13.5 2.25C12.8793 2.25 12.375 2.75482 12.375 3.375C12.375 3.99518 12.8793 4.5 13.5 4.5ZM13.5 3.3739L14.0625 3.375H13.5C13.5 3.375 13.5 3.37445 13.5 3.3739Z" fill="#828282"/>
<path d="M13.5 22.5C12.8793 22.5 12.375 23.0048 12.375 23.625C12.375 24.2452 12.8793 24.75 13.5 24.75C14.1207 24.75 14.625 24.2452 14.625 23.625C14.625 23.0048 14.1207 22.5 13.5 22.5ZM13.5 23.625C13.5 23.625 13.5 23.6245 13.5 23.6239L14.0625 23.625H13.5Z" fill="#828282"/>
<path d="M16.6677 14.625H13.5C13.1686 14.625 12.8784 14.4761 12.6727 14.2484L12.6562 14.25L14.9462 16.5399C15.7429 16.1551 16.3671 15.4681 16.6677 14.625ZM20.1484 14.625H17.8402C17.5376 15.7893 16.7799 16.7668 15.7731 17.3668L17.3878 18.9815C18.8145 17.9636 19.8447 16.4236 20.1484 14.625ZM24.75 14.625H21.2852C20.9812 16.7354 19.8378 18.5762 18.2072 19.8009L21.4115 23.0052C24.1363 20.7334 25.875 17.3167 25.875 13.5C25.875 14.1213 25.3718 14.625 24.75 14.625Z" fill="url(#paint0_linear_561_156750)"/>
<path d="M6.34033 7.46402C6.62817 7.46402 6.91602 7.35416 7.13574 7.13498C7.34888 6.92239 7.46533 6.6395 7.46533 6.33847C7.46533 6.03854 7.34778 5.7562 7.13574 5.54416V5.54361C6.69629 5.10526 5.98438 5.10526 5.54492 5.54361C5.33289 5.75565 5.21533 6.03799 5.21533 6.33847C5.21533 6.6395 5.33179 6.92239 5.54492 7.13498C5.76465 7.35416 6.05249 7.46402 6.34033 7.46402ZM6.73804 5.94186L6.34033 6.33957C6.34033 6.33957 6.34033 6.33902 6.33923 6.33902L6.73804 5.94186Z" fill="#828282"/>
<path d="M19.8643 19.8639C19.6511 20.0765 19.5347 20.3594 19.5347 20.6604C19.5347 20.9609 19.6522 21.2433 19.8643 21.4547C20.084 21.6739 20.3718 21.7838 20.6597 21.7838C20.9475 21.7838 21.2354 21.6745 21.4551 21.4553C21.6671 21.2433 21.7847 20.9609 21.7847 20.6604C21.7847 20.3594 21.6682 20.0765 21.4551 19.8639C21.0156 19.4256 20.3037 19.4256 19.8643 19.8639ZM20.6597 20.6593C20.6597 20.6593 20.6597 20.6588 20.6586 20.6588L21.0574 20.2616L20.6597 20.6593Z" fill="#828282"/>
<path d="M3.375 12.375C2.75427 12.375 2.25 12.8798 2.25 13.5C2.25 14.1202 2.75427 14.625 3.375 14.625C3.99573 14.625 4.5 14.1202 4.5 13.5C4.5 12.8798 3.99573 12.375 3.375 12.375ZM3.375 13.4995L3.3739 13.5L3.375 12.9375V13.4995Z" fill="#828282"/>
<path d="M5.54492 19.8639C5.33179 20.0765 5.21533 20.3594 5.21533 20.6604C5.21533 20.9609 5.33289 21.2433 5.54492 21.4547C5.76465 21.6739 6.05249 21.7838 6.34033 21.7838C6.62817 21.7838 6.91602 21.6745 7.13574 21.4553C7.34778 21.2433 7.46533 20.9609 7.46533 20.6604C7.46533 20.3594 7.34888 20.0765 7.13574 19.8639C6.69629 19.4256 5.98438 19.4256 5.54492 19.8639ZM5.94263 20.2616L6.33923 20.6582C6.34033 20.6588 6.34033 20.6599 6.34033 20.6599L5.94263 20.2616Z" fill="#828282"/>
<path d="M13.5 14.625H24.75C25.3713 14.625 25.875 14.1213 25.875 13.5V13.5C25.875 12.8787 25.3713 12.375 24.75 12.375H13.5C12.8787 12.375 12.375 12.8787 12.375 13.5V13.5C12.375 14.1213 12.8787 14.625 13.5 14.625Z" fill="#E6E6E6"/>
<path d="M13.5 0C6.05566 0 0 6.05621 0 13.5C0 20.9438 6.05566 27 13.5 27C20.9443 27 27 20.9438 27 13.5C27 6.05621 20.9443 0 13.5 0Z" fill="url(#paint1_linear_561_156750)"/>
<defs>
<linearGradient id="paint0_linear_561_156750" x1="16.1484" y1="10.7578" x2="24.9398" y2="19.5492" gradientUnits="userSpaceOnUse">
<stop stop-opacity="0.23"/>
<stop offset="1" stop-opacity="0.08"/>
</linearGradient>
<linearGradient id="paint1_linear_561_156750" x1="1.26546" y1="7.79494" x2="25.7345" y2="19.2051" gradientUnits="userSpaceOnUse">
<stop stop-color="white" stop-opacity="0.2"/>
<stop offset="1" stop-color="white" stop-opacity="0"/>
</linearGradient>
</defs>
</svg>
