<svg width="39" height="37" viewBox="0 0 39 37" fill="none" xmlns="http://www.w3.org/2000/svg">
<rect x="16" width="22.7687" height="22.796" rx="11.3844" fill="#F6DDEF"/>
<path d="M34.5 18.2188L27.5 24.7812L24 21.5" stroke="url(#paint0_linear_11_11430)" stroke-width="1.5" stroke-linecap="round" stroke-linejoin="round"/>
<path fill-rule="evenodd" clip-rule="evenodd" d="M4.68907 9.59532C4.73009 9.5543 4.78573 9.53125 4.84375 9.53125H30.1562C30.2143 9.53125 30.2699 9.5543 30.3109 9.59532C30.352 9.63634 30.375 9.69198 30.375 9.75V11.8636C30.375 12.2779 30.7108 12.6136 31.125 12.6136C31.5392 12.6136 31.875 12.2779 31.875 11.8636V9.75C31.875 9.29416 31.6939 8.85699 31.3716 8.53466C31.0493 8.21233 30.6121 8.03125 30.1562 8.03125H4.84375C4.38791 8.03125 3.95074 8.21233 3.62841 8.53466C3.30608 8.85699 3.125 9.29416 3.125 9.75V34.9797L3.12502 34.9856C3.1276 35.3106 3.22227 35.6282 3.39806 35.9016C3.57385 36.175 3.82355 36.3929 4.11819 36.5301C4.41282 36.6673 4.74032 36.7182 5.06269 36.6768C5.38507 36.6353 5.68908 36.5034 5.93948 36.2962C5.96589 36.2743 5.99078 36.2507 6.01396 36.2254L9.87103 32.0215L10.0213 31.9688H30.1562C30.6121 31.9688 31.0493 31.7877 31.3716 31.4653C31.6939 31.143 31.875 30.7058 31.875 30.25V29.1932C31.875 28.779 31.5392 28.4432 31.125 28.4432C30.7108 28.4432 30.375 28.779 30.375 29.1932V30.25C30.375 30.308 30.352 30.3637 30.3109 30.4047C30.2699 30.4457 30.2143 30.4688 30.1562 30.4688H9.89336C9.80869 30.4688 9.72463 30.4831 9.64474 30.5112L9.1967 30.6686C9.08042 30.7094 8.976 30.7783 8.89268 30.8691L4.95601 35.1597C4.93028 35.1751 4.90156 35.1851 4.87159 35.189C4.83057 35.1942 4.78888 35.1878 4.75138 35.1703C4.71388 35.1529 4.6821 35.1251 4.65973 35.0903C4.6377 35.0561 4.62568 35.0164 4.625 34.9757V9.75C4.625 9.69198 4.64805 9.63634 4.68907 9.59532ZM11.625 14.8125C11.2108 14.8125 10.875 15.1483 10.875 15.5625C10.875 15.9767 11.2108 16.3125 11.625 16.3125H26.375C26.7892 16.3125 27.125 15.9767 27.125 15.5625C27.125 15.1483 26.7892 14.8125 26.375 14.8125H11.625ZM10.875 19.4375C10.875 19.0233 11.2108 18.6875 11.625 18.6875H19.375C19.7892 18.6875 20.125 19.0233 20.125 19.4375C20.125 19.8517 19.7892 20.1875 19.375 20.1875H11.625C11.2108 20.1875 10.875 19.8517 10.875 19.4375ZM11.625 22.6875C11.2108 22.6875 10.875 23.0233 10.875 23.4375C10.875 23.8517 11.2108 24.1875 11.625 24.1875H19.375C19.7892 24.1875 20.125 23.8517 20.125 23.4375C20.125 23.0233 19.7892 22.6875 19.375 22.6875H11.625Z" fill="url(#paint1_linear_11_11430)"/>
<defs>
<linearGradient id="paint0_linear_11_11430" x1="29.25" y1="18.2188" x2="29.25" y2="24.7812" gradientUnits="userSpaceOnUse">
<stop stop-color="#000AFF"/>
<stop offset="1" stop-color="#D274FF"/>
</linearGradient>
<linearGradient id="paint1_linear_11_11430" x1="17.5" y1="8.03125" x2="17.5" y2="36.6908" gradientUnits="userSpaceOnUse">
<stop stop-color="#000AFF"/>
<stop offset="1" stop-color="#D274FF"/>
</linearGradient>
</defs>
</svg>
