<svg width="32" height="32" viewBox="0 0 32 32" fill="none" xmlns="http://www.w3.org/2000/svg">
<g id="Group">
<path id="Vector" d="M31.1 15.9999C31.1 20.1788 29.4458 23.972 26.7572 26.759C23.9378 29.6817 19.9817 31.4995 15.6004 31.4995C11.219 31.4995 7.26114 29.6817 4.44352 26.7582C1.75336 23.9712 0.0999756 20.178 0.0999756 15.9999C0.0999756 7.4395 7.04014 0.500305 15.6004 0.500305C24.1608 0.500305 31.1 7.4395 31.1 15.9999Z" fill="#DCE0F7"/>
<g id="Group_2">
<g id="Group_3">
<path id="Vector_2" d="M21.0938 12.7339H13.2352V6.50717L17.6869 6.16243C19.5244 6.02016 21.0938 7.47282 21.0938 9.31583V12.7339Z" fill="#555A5E"/>
<path id="Vector_3" d="M13.2351 6.50717H12.6068C11.2257 6.50717 10.1063 7.62678 10.1063 9.00772V12.7337L12.2899 11.2278L13.2351 6.50717Z" fill="#555A5E"/>
</g>
<path id="Vector_4" d="M21.0938 12.1601C21.0938 15.6193 18.6343 18.4237 15.6 18.4237C13.049 18.4237 10.9053 16.4417 10.2875 13.7562C10.1686 13.2476 10.1063 12.7117 10.1063 12.1601C10.1063 8.70292 12.5657 5.89856 15.6 5.89856C18.6343 5.89856 21.0938 8.70292 21.0938 12.1601Z" fill="#555A5E"/>
<g id="Group_4">
<path id="Vector_5" d="M26.7598 26.7602C25.7873 27.7678 24.6784 28.6448 23.4662 29.358C23.4331 29.3775 23.398 29.399 23.3629 29.4184C21.0809 30.7417 18.4305 31.4998 15.6027 31.4998C12.8607 31.4998 10.2844 30.7885 8.05101 29.5393C7.94772 29.4808 7.84638 29.4223 7.74504 29.3639C6.52898 28.6448 5.41619 27.7678 4.44568 26.7583L4.71267 25.7079C5.11413 24.1254 6.36137 22.8977 7.94772 22.5176L8.43688 22.4007L8.76623 22.3228L10.3389 21.9466L10.5533 21.896L10.602 21.8843C10.8281 21.8317 11.0444 21.7537 11.249 21.6543C11.6018 21.4867 11.9175 21.2548 12.1825 20.9742C12.5567 20.5844 12.8315 20.0992 12.9698 19.5574L13.1764 18.7525L13.2329 18.5362L13.2368 18.5206L13.4999 17.4975L13.5798 17.1915H17.6236L17.9238 18.3608L17.9511 18.4641L17.9666 18.5245L17.9705 18.5381L18.0271 18.7564L18.2317 19.5574C18.4733 20.4948 19.1203 21.2607 19.9759 21.666H19.9778C20.1766 21.7596 20.3851 21.8317 20.6015 21.8843L20.8626 21.9466L20.8762 21.9505L22.6653 22.3773L22.7783 22.4046L23.2558 22.5176C24.8421 22.8977 26.0894 24.1254 26.4908 25.7079L26.7598 26.7602Z" fill="#EBEFF9"/>
<path id="Vector_6" d="M17.9651 18.523C17.6221 20.0295 16.6935 21.1099 15.601 21.1099C14.5077 21.1099 13.5773 20.0271 13.2351 18.5189L13.499 17.4958L13.5781 17.19H17.6215L17.9224 18.3593L17.9499 18.4642L17.9651 18.523Z" fill="#D5DCEF"/>
<path id="Vector_7" d="M11.0778 12.7906C9.06443 10.5315 10.4078 16.0541 11.5215 15.4086C13.4793 14.274 11.0778 12.7906 11.0778 12.7906Z" fill="#EBEFF9"/>
<path id="Vector_8" d="M20.1219 12.7906C22.1352 10.5315 20.7919 16.0541 19.6781 15.4086C17.7203 14.274 20.1219 12.7906 20.1219 12.7906Z" fill="#EBEFF9"/>
<path id="Vector_9" d="M20.2838 11.1618C20.2838 11.3333 20.274 11.5028 20.2565 11.6685C20.2448 11.7893 20.2 12.2102 20.124 12.7832L20.122 12.791C19.9116 14.3559 19.4575 17.0414 18.7403 17.7566C18.2258 18.273 17.8107 18.7388 17.3411 19.0779C16.8694 19.417 16.3413 19.6255 15.6008 19.6255H15.5988C14.1196 19.6255 13.4902 18.7856 12.4612 17.7566C11.9467 17.2421 11.5667 15.7123 11.3133 14.3111C11.3016 14.2448 11.29 14.1766 11.2802 14.1123C11.2451 13.9038 11.212 13.6972 11.1808 13.5004C11.0191 12.4538 10.9411 11.6353 10.9411 11.6353C10.9255 11.4794 10.9177 11.3216 10.9177 11.1618C10.9177 11.1208 10.9177 11.0799 10.9197 11.039C10.9294 10.6707 10.9801 10.3121 11.0697 9.96908C11.0736 9.95349 11.0795 9.9379 11.0834 9.92231C11.6037 8.02025 13.2933 6.60151 15.3318 6.48653C15.4215 6.48068 15.5092 6.47873 15.5988 6.47873H15.6008C18.1869 6.47873 20.2838 8.57567 20.2838 11.1618Z" fill="#EBEFF9"/>
</g>
<path id="Vector_10" d="M16.3554 15.7642C16.3554 16.0875 16.026 16.3494 15.6187 16.3494C15.2134 16.3494 14.884 16.0875 14.884 15.7642C14.884 15.7254 14.8879 15.6868 14.8996 15.6505C14.9639 15.9191 15.2621 16.1222 15.6187 16.1222C15.9773 16.1222 16.2755 15.9191 16.3398 15.6505C16.3515 15.6866 16.3554 15.7254 16.3554 15.7642Z" fill="#DCE0F7"/>
<path id="Vector_11" d="M20.4066 11.1923C20.4066 11.3683 20.3967 11.5423 20.3785 11.7122C20.3667 11.8362 20.1219 12.7903 20.1219 12.7903C15.3541 12.5803 13.3308 10.3124 13.3308 10.3124C12.4909 12.7783 11.1809 13.5003 11.1809 13.5003C11.0148 12.4263 10.819 11.6783 10.819 11.6783C10.803 11.5183 10.795 11.3564 10.795 11.1923C10.795 11.1502 10.795 11.1083 10.7969 11.0664C10.8069 10.6883 10.8589 10.3204 10.9509 9.96844C10.955 9.95246 10.9608 9.93648 10.9649 9.9205C11.4989 7.96855 13.2328 6.51258 15.3246 6.39468C15.4166 6.38863 15.5067 6.38669 15.5986 6.38669H15.6006C18.2545 6.38669 20.4066 8.53858 20.4066 11.1923Z" fill="#555A5E"/>
<g id="Group_5">
<g id="Group_6">
<path id="Vector_12" d="M13.3898 15.9465C12.4503 15.9465 11.686 15.1822 11.686 14.2427C11.686 13.3032 12.4503 12.5388 13.3898 12.5388C14.3294 12.5388 15.0937 13.3032 15.0937 14.2427C15.0937 15.1822 14.3294 15.9465 13.3898 15.9465ZM13.3898 12.7339C12.5577 12.7339 11.8809 13.4107 11.8809 14.2429C11.8809 15.075 12.5579 15.7518 13.3898 15.7518C14.222 15.7518 14.8988 15.075 14.8988 14.2429C14.8986 13.4107 14.2218 12.7339 13.3898 12.7339Z" fill="#D5DCEF"/>
</g>
<g id="Group_7">
<path id="Vector_13" d="M17.8499 15.9465C16.9104 15.9465 16.1461 15.1822 16.1461 14.2426C16.1461 13.3031 16.9104 12.5388 17.8499 12.5388C18.7894 12.5388 19.5538 13.3031 19.5538 14.2426C19.5538 15.1822 18.7893 15.9465 17.8499 15.9465ZM17.8499 12.7339C17.018 12.7339 16.3409 13.4107 16.3409 14.2428C16.3409 15.075 17.018 15.7518 17.8499 15.7518C18.6821 15.7518 19.3589 15.075 19.3589 14.2428C19.3587 13.4107 18.6819 12.7339 17.8499 12.7339Z" fill="#D5DCEF"/>
</g>
<g id="Group_8">
<path id="Vector_14" d="M16.3409 14.2426H16.1461C16.1461 13.9525 15.91 13.7165 15.6199 13.7165C15.3297 13.7165 15.0937 13.9525 15.0937 14.2426H14.8988C14.8988 13.8449 15.2223 13.5216 15.6199 13.5216C16.0174 13.5216 16.3409 13.8451 16.3409 14.2426Z" fill="#D5DCEF"/>
</g>
</g>
<g id="Group_9">
<path id="Vector_15" d="M26.7598 26.7601C25.7873 27.7677 24.6784 28.6446 23.4662 29.3579C23.4331 29.3774 23.398 29.3988 23.3629 29.4183C22.1742 30.1082 20.884 30.6441 19.5218 30.9988C18.2707 31.3262 16.9571 31.4997 15.6027 31.4997C14.26 31.4997 12.9582 31.3301 11.7168 31.0066C10.4208 30.6753 9.19107 30.1764 8.05101 29.5392C7.94772 29.4807 7.84638 29.4222 7.74504 29.3638C6.52898 28.6446 5.41619 27.7677 4.44568 26.7582L4.71267 25.7078C5.11413 24.1253 6.36137 22.8976 7.94772 22.5175L8.43688 22.4006L8.76623 22.3227L10.3389 21.9465L10.5533 21.8959L10.602 21.8842C10.8281 21.8315 11.0444 21.7536 11.249 21.6542L11.2549 21.6562L12.9211 23.3224C13.2797 23.679 13.7007 23.9597 14.1586 24.1507C14.6166 24.3397 15.1136 24.441 15.6203 24.441C16.6317 24.441 17.6022 24.0376 18.3194 23.3224L19.9759 21.6659H19.9778C20.1766 21.7594 20.3851 21.8315 20.6015 21.8842L20.8626 21.9465L20.8762 21.9504L22.6653 22.3772L22.7783 22.4045L23.2558 22.5175C24.8421 22.8976 26.0894 24.1253 26.4908 25.7078L26.7598 26.7601Z" fill="#555A5E"/>
<path id="Vector_16" d="M19.553 30.5116C19.553 30.6773 19.5433 30.839 19.5218 30.9988C18.2707 31.3262 16.9572 31.4997 15.6028 31.4997C14.26 31.4997 12.9582 31.3301 11.7168 31.0066C11.6954 30.8449 11.6856 30.6792 11.6856 30.5116C11.6856 28.3387 13.4473 26.5769 15.6203 26.5769C17.7932 26.5769 19.553 28.3387 19.553 30.5116Z" fill="#6E7174"/>
</g>
</g>
</g>
</svg>
