<svg width="16" height="16" viewBox="0 0 16 16" fill="none" xmlns="http://www.w3.org/2000/svg">
<path d="M3.2998 1.30005C1.64295 1.30005 0.299805 2.6432 0.299805 4.30005V12.3C0.299805 13.9569 1.64295 15.3 3.2998 15.3H11.2998C12.9567 15.3 14.2998 13.9569 14.2998 12.3V4.30005C14.2998 2.6432 12.9567 1.30005 11.2998 1.30005H3.2998ZM13.2998 8.30005H9.7998C9.5237 8.30005 9.2998 8.52305 9.2998 8.79915L9.2995 8.81145C9.2991 8.82385 9.2981 8.84435 9.2962 8.87185C9.2923 8.92695 9.2841 9.00885 9.2675 9.10845C9.2339 9.31015 9.1677 9.57135 9.0401 9.82645C8.9135 10.0796 8.7315 10.3176 8.4678 10.4933C8.2072 10.6671 7.8373 10.8 7.2998 10.8C6.76229 10.8 6.3924 10.6671 6.13184 10.4933C5.86814 10.3176 5.68611 10.0796 5.55951 9.82645C5.43194 9.57135 5.36566 9.31015 5.33206 9.10845C5.31545 9.00885 5.30735 8.92695 5.30341 8.87185C5.30145 8.84435 5.30055 8.82385 5.30013 8.81145L5.2998 8.79945C5.29946 8.52355 5.07574 8.30005 4.7998 8.30005H1.2998V4.30005C1.2998 3.19548 2.19523 2.30005 3.2998 2.30005H11.2998C12.4044 2.30005 13.2998 3.19548 13.2998 4.30005V8.30005ZM1.2998 9.30005H4.3503C4.39632 9.56435 4.48635 9.91615 4.66509 10.2736C4.85099 10.6454 5.13771 11.0324 5.57714 11.3254C6.0197 11.6204 6.58731 11.8 7.2998 11.8C8.0123 11.8 8.5799 11.6204 9.0225 11.3254C9.4619 11.0324 9.7486 10.6454 9.9345 10.2736C10.1132 9.91615 10.2033 9.56435 10.2493 9.30005H13.2998V12.3C13.2998 13.4046 12.4044 14.3 11.2998 14.3H3.2998C2.19523 14.3 1.2998 13.4046 1.2998 12.3V9.30005Z" fill="#222222"/>
<circle cx="13.0498" cy="2.94995" r="2.25" fill="#D9D9D9" stroke="#222222"/>
</svg>
