<svg width="18" height="18" viewBox="0 0 18 18" fill="none" xmlns="http://www.w3.org/2000/svg">
<g clip-path="url(#clip0_160_16719)">
<path fill-rule="evenodd" clip-rule="evenodd" d="M7.52995 1.91669C6.35635 1.91669 5.40495 2.86808 5.40495 4.04169V4.75002H4.67396C4.36326 4.75001 4.09515 4.75001 3.87326 4.76514C3.63963 4.78108 3.40595 4.81615 3.17508 4.91177C2.6544 5.12745 2.24072 5.54114 2.02504 6.06182C1.92941 6.29268 1.89435 6.52637 1.87841 6.76C1.86327 6.98188 1.86328 7.24998 1.86328 7.56069V12.5883C1.86325 13.2162 1.86322 13.7573 1.92147 14.1905C1.9839 14.6549 2.12467 15.1 2.48568 15.4609C2.8467 15.822 3.29178 15.9627 3.7561 16.0252C4.18936 16.0834 4.7304 16.0834 5.35832 16.0833H12.5349C13.1628 16.0834 13.7039 16.0834 14.1371 16.0252C14.6014 15.9627 15.0466 15.822 15.4075 15.4609C15.7686 15.1 15.9093 14.6549 15.9718 14.1905C16.03 13.7573 16.03 13.2162 16.0299 12.5883V7.56069C16.0299 7.24998 16.0299 6.98188 16.0149 6.76C15.9989 6.52637 15.9638 6.29268 15.8682 6.06182C15.6525 5.54114 15.2388 5.12745 14.7182 4.91177C14.4873 4.81615 14.2536 4.78108 14.02 4.76514C13.7981 4.75001 13.53 4.75001 13.2193 4.75002H12.4883V4.04169C12.4883 2.86808 11.5369 1.91669 10.3633 1.91669H7.52995ZM11.0716 4.75002V4.04169C11.0716 3.65049 10.7545 3.33335 10.3633 3.33335H7.52995C7.13875 3.33335 6.82161 3.65049 6.82161 4.04169V4.75002H11.0716ZM7.88411 9.70835C7.88411 9.31714 8.20124 9.00002 8.59245 9.00002H9.30078C9.69199 9.00002 10.0091 9.31714 10.0091 9.70835C10.0091 10.0996 9.69199 10.4167 9.30078 10.4167H8.59245C8.20124 10.4167 7.88411 10.0996 7.88411 9.70835ZM3.50436 9.96137C3.79008 9.69418 4.23832 9.70913 4.50554 9.99487C5.54479 11.106 7.13862 11.8334 8.94661 11.8334C10.7546 11.8334 12.3485 11.106 13.3877 9.99487C13.6549 9.70913 14.1031 9.69418 14.3889 9.96137C14.6746 10.2286 14.6896 10.6769 14.4223 10.9626C13.1048 12.3712 11.1313 13.25 8.94661 13.25C6.76193 13.25 4.78841 12.3712 3.4709 10.9626C3.20368 10.6769 3.21866 10.2286 3.50436 9.96137Z" fill="#323232"/>
</g>
<defs>
<clipPath id="clip0_160_16719">
<rect width="17" height="17" fill="white" transform="translate(0.446777 0.5)"/>
</clipPath>
</defs>
</svg>
