<svg width="14" height="14" viewBox="0 0 14 14" fill="none" xmlns="http://www.w3.org/2000/svg">
<path d="M3 0C1.34315 0 0 1.34315 0 3V11C0 12.6569 1.34315 14 3 14H11C12.6569 14 14 12.6569 14 11V3C14 1.34315 12.6569 0 11 0H3ZM13 7H9.5C9.2239 7 9 7.223 9 7.4991L8.9997 7.5114C8.9993 7.5238 8.9983 7.5443 8.9964 7.5718C8.9925 7.6269 8.9843 7.7088 8.9677 7.8084C8.9341 8.0101 8.8679 8.2713 8.7403 8.5264C8.6137 8.7796 8.4317 9.0176 8.168 9.1933C7.9074 9.3671 7.5375 9.5 7 9.5C6.46249 9.5 6.0926 9.3671 5.83204 9.1933C5.56834 9.0176 5.38631 8.7796 5.25971 8.5264C5.13214 8.2713 5.06586 8.0101 5.03226 7.8084C5.01565 7.7088 5.00755 7.6269 5.00361 7.5718C5.00165 7.5443 5.00075 7.5238 5.00033 7.5114L5 7.4994C4.99966 7.2235 4.77594 7 4.5 7H1V3C1 1.89543 1.89543 1 3 1H11C12.1046 1 13 1.89543 13 3V7ZM1 8H4.0505C4.09652 8.2643 4.18655 8.6161 4.36529 8.9736C4.55119 9.3454 4.83791 9.7324 5.27734 10.0254C5.7199 10.3204 6.28751 10.5 7 10.5C7.7125 10.5 8.2801 10.3204 8.7227 10.0254C9.1621 9.7324 9.4488 9.3454 9.6347 8.9736C9.8134 8.6161 9.9035 8.2643 9.9495 8H13V11C13 12.1046 12.1046 13 11 13H3C1.89543 13 1 12.1046 1 11V8Z" fill="#222222"/>
</svg>
