<svg width="21" height="21" viewBox="0 0 21 21" fill="none" xmlns="http://www.w3.org/2000/svg">
<path d="M15.75 14.4375C15.5967 14.4378 15.4481 14.3844 15.33 14.2866L12.3637 11.8125H11.1562C9.76386 11.8125 8.42851 11.2594 7.44394 10.2748C6.45937 9.29025 5.90625 7.95489 5.90625 6.5625C5.90625 5.17011 6.45937 3.83476 7.44394 2.85019C8.42851 1.86562 9.76386 1.3125 11.1562 1.3125H15.0938C16.3689 1.31614 17.5992 1.78378 18.5548 2.6281C19.5105 3.47242 20.1261 4.63569 20.2869 5.90071C20.4476 7.16573 20.1424 8.44601 19.4283 9.50249C18.7142 10.559 17.64 11.3194 16.4062 11.6419V13.7813C16.4066 13.9068 16.3709 14.0297 16.3034 14.1356C16.2359 14.2414 16.1395 14.3257 16.0256 14.3784C15.9391 14.4179 15.8451 14.438 15.75 14.4375ZM11.1562 2.625C10.112 2.625 9.11044 3.03984 8.37202 3.77827C7.63359 4.51669 7.21875 5.51821 7.21875 6.5625C7.21875 7.60679 7.63359 8.60831 8.37202 9.34673C9.11044 10.0852 10.112 10.5 11.1562 10.5H12.6C12.7533 10.4997 12.9019 10.5531 13.02 10.6509L15.0938 12.3769V11.1038C15.0922 10.9445 15.1486 10.7901 15.2524 10.6694C15.3562 10.5487 15.5004 10.4698 15.6581 10.4475C16.6279 10.2886 17.5032 9.77272 18.1121 9.00131C18.721 8.2299 19.0193 7.25869 18.9486 6.27849C18.8779 5.2983 18.4432 4.37998 17.7299 3.70395C17.0166 3.02793 16.0763 2.64307 15.0938 2.625H11.1562Z" fill="#FF8A00"/>
<path d="M13.7812 5.90625H12.4688V7.21875H13.7812V5.90625Z" fill="#FF8A00"/>
<path d="M10.5 5.90625H9.1875V7.21875H10.5V5.90625Z" fill="#FF8A00"/>
<path d="M17.0625 5.90625H15.75V7.21875H17.0625V5.90625Z" fill="#FF8A00"/>
<path d="M5.25002 19.6875C5.15495 19.688 5.0609 19.6678 4.97439 19.6284C4.86048 19.5757 4.76407 19.4914 4.69661 19.3856C4.62915 19.2797 4.59345 19.1567 4.59377 19.0312V16.8918C3.54959 16.6137 2.61669 16.02 1.92239 15.192C1.22808 14.364 0.806205 13.3419 0.714327 12.2652C0.62245 11.1885 0.86505 10.1097 1.40902 9.17598C1.95299 8.24228 2.77182 7.49918 3.75377 7.04809C3.83302 7.00633 3.91999 6.98123 4.00931 6.97435C4.09863 6.96747 4.18842 6.97895 4.27314 7.00809C4.35786 7.03722 4.43571 7.0834 4.50191 7.14376C4.5681 7.20413 4.62124 7.27741 4.65804 7.35909C4.69484 7.44077 4.71452 7.52912 4.71589 7.61869C4.71725 7.70827 4.70025 7.79718 4.66595 7.87994C4.63165 7.9627 4.58076 8.03756 4.51643 8.09991C4.4521 8.16225 4.37568 8.21077 4.29189 8.24247C3.51747 8.5936 2.87752 9.18598 2.46774 9.93104C2.05797 10.6761 1.90039 11.5338 2.01858 12.3758C2.13676 13.2179 2.52435 13.9991 3.12339 14.6025C3.72243 15.206 4.50073 15.5993 5.34189 15.7237C5.49957 15.746 5.64377 15.8249 5.74761 15.9456C5.85144 16.0663 5.90783 16.2207 5.90627 16.38V17.6531L7.98002 15.9272C8.09435 15.8198 8.24334 15.7569 8.40002 15.75H9.84377C10.3693 15.7509 10.8896 15.6456 11.3734 15.4404C11.8572 15.2351 12.2946 14.9342 12.6591 14.5556C12.7809 14.4303 12.9475 14.3585 13.1223 14.356C13.2088 14.3548 13.2948 14.3707 13.3752 14.4026C13.4556 14.4346 13.5289 14.4821 13.591 14.5425C13.653 14.6028 13.7026 14.6748 13.7368 14.7542C13.771 14.8337 13.7893 14.9192 13.7905 15.0057C13.7917 15.0922 13.7759 15.1781 13.7439 15.2586C13.7119 15.339 13.6644 15.4123 13.6041 15.4743C13.1151 15.9767 12.5304 16.3761 11.8846 16.6488C11.2388 16.9216 10.5448 17.0622 9.84377 17.0625H8.63627L5.67002 19.5365C5.55195 19.6344 5.40335 19.6878 5.25002 19.6875Z" fill="#FF8A00"/>
</svg>
