<svg width="24" height="27" viewBox="0 0 24 27" fill="none" xmlns="http://www.w3.org/2000/svg">
<path d="M12.151 7.54176C11.9058 7.36575 11.6383 7.36631 11.356 7.54335L0.941406 13.6787L22.5679 13.6786L12.1528 7.54307L12.151 7.54176Z" fill="url(#paint0_linear_64_40050)"/>
<path d="M0.718961 13.3652L11.2293 7.09104C11.5401 6.8934 11.85 6.89406 12.1242 7.09265L22.6329 13.3652H22.7061C22.939 13.1323 22.939 12.7196 22.7061 12.4736L12.0983 6.14184C11.8293 5.94608 11.5409 5.95871 11.2535 6.14156L0.645626 12.4738C0.412396 12.7198 0.412396 13.1323 0.645626 13.3652H0.718961Z" fill="url(#paint1_linear_64_40050)"/>
<path d="M21.9407 14.2714C21.9407 14.1806 21.9068 14.149 21.8156 14.149H1.72565C1.63407 14.149 1.56787 14.1806 1.56787 14.2714V14.7465C1.56787 14.8373 1.63407 14.9326 1.72565 14.9326H21.8156C21.9068 14.9326 21.9407 14.8373 21.9407 14.7465V14.2714Z" fill="url(#paint2_linear_64_40050)"/>
<path d="M21.9407 23.874C21.9407 23.7795 21.9068 23.7086 21.8156 23.7086H1.72565C1.63407 23.7086 1.56787 23.7795 1.56787 23.874V24.3689C1.56787 24.4635 1.63407 24.4922 1.72565 24.4922H21.8156C21.9068 24.4922 21.9407 24.4635 21.9407 24.3689V23.874Z" fill="url(#paint3_linear_64_40050)"/>
<path d="M22.5654 25.1193C22.5654 25.032 22.5008 24.9625 22.4025 24.9625H0.944082C0.846197 24.9625 0.782227 25.032 0.782227 25.1193V25.5761C0.782227 25.6634 0.846197 25.7461 0.944082 25.7461H22.4025C22.5008 25.7461 22.5654 25.6634 22.5654 25.5761V25.1193Z" fill="url(#paint4_linear_64_40050)"/>
<path d="M23.5071 26.3838C23.5071 26.293 23.4209 26.2164 23.315 26.2164H0.190469C0.0849761 26.2164 0 26.293 0 26.3838V26.8589C0 26.9496 0.0849761 27 0.190469 27H23.315C23.4209 27 23.5071 26.9496 23.5071 26.8589V26.3838Z" fill="url(#paint5_linear_64_40050)"/>
<path d="M6.2696 15.8822C6.2696 15.9623 6.19634 16.0303 6.09742 16.0303H3.79594C3.69693 16.0303 3.60547 15.9623 3.60547 15.8822V15.678C3.60547 15.5979 3.69693 15.5601 3.79594 15.5601H6.09742C6.19634 15.5601 6.2696 15.5979 6.2696 15.678V15.8822Z" fill="url(#paint6_linear_64_40050)"/>
<path d="M6.582 22.9471C6.582 23.0324 6.5058 23.082 6.41175 23.082H3.46128C3.36732 23.082 3.29102 23.0324 3.29102 22.9471L3.66932 22.4345C3.76042 22.3179 3.80226 22.2992 3.8963 22.2992H5.97673C6.07077 22.2992 6.11379 22.28 6.2037 22.4345L6.582 22.9471Z" fill="url(#paint7_linear_64_40050)"/>
<path d="M5.95476 21.8082C5.95476 21.8987 5.90522 21.9863 5.80996 21.9863H4.07979C3.98463 21.9863 3.91748 21.8987 3.91748 21.8082V16.635C3.91748 16.5445 3.98463 16.5013 4.07979 16.5013H5.80996C5.90522 16.5013 5.95476 16.5445 5.95476 16.635V21.8082Z" fill="url(#paint8_linear_64_40050)"/>
<path d="M10.814 15.8822C10.814 15.9623 10.7333 16.0303 10.6331 16.0303H8.30159C8.20138 16.0303 8.1499 15.9623 8.1499 15.8822V15.678C8.1499 15.5979 8.20138 15.5601 8.30159 15.5601H10.6331C10.7333 15.5601 10.814 15.5979 10.814 15.678V15.8822Z" fill="url(#paint9_linear_64_40050)"/>
<path d="M11.126 22.9471C11.126 23.0324 11.0497 23.082 10.9557 23.082H8.00514C7.91118 23.082 7.83496 23.0324 7.83496 22.9471L8.21328 22.4345C8.30429 22.3179 8.34621 22.2992 8.44017 22.2992H10.5207C10.6147 22.2992 10.6578 22.28 10.7476 22.4345L11.126 22.9471Z" fill="url(#paint10_linear_64_40050)"/>
<path d="M10.4992 21.8082C10.4992 21.8987 10.4133 21.9863 10.321 21.9863H8.64512C8.55285 21.9863 8.46191 21.8987 8.46191 21.8082V16.635C8.46191 16.5445 8.55285 16.5013 8.64512 16.5013H10.321C10.4133 16.5013 10.4992 16.5445 10.4992 16.635V21.8082Z" fill="url(#paint11_linear_64_40050)"/>
<path d="M15.2013 15.8822C15.2013 15.9623 15.1184 16.0303 15.0255 16.0303H12.8592C12.7661 16.0303 12.6938 15.9623 12.6938 15.8822V15.678C12.6938 15.5979 12.7661 15.5601 12.8592 15.5601H15.0255C15.1184 15.5601 15.2013 15.5979 15.2013 15.678V15.8822Z" fill="url(#paint12_linear_64_40050)"/>
<path d="M15.6704 22.9471C15.6704 23.0324 15.595 23.082 15.5003 23.082H12.5498C12.4557 23.082 12.3794 23.0324 12.3794 22.9471L12.7578 22.4345C12.8488 22.3179 12.8908 22.2992 12.9848 22.2992H15.0654C15.1592 22.2992 15.2024 22.28 15.2925 22.4345L15.6704 22.9471Z" fill="url(#paint13_linear_64_40050)"/>
<path d="M15.0456 21.8082C15.0456 21.8987 14.9823 21.9863 14.8873 21.9863H13.1567C13.0615 21.9863 13.0083 21.8987 13.0083 21.8082V16.635C13.0083 16.5445 13.0615 16.5013 13.1567 16.5013H14.8873C14.9823 16.5013 15.0456 16.5445 15.0456 16.635V21.8082Z" fill="url(#paint14_linear_64_40050)"/>
<path d="M19.9024 15.8822C19.9024 15.9623 19.8116 16.0303 19.7141 16.0303H17.4409C17.3434 16.0303 17.2383 15.9623 17.2383 15.8822V15.678C17.2383 15.5979 17.3434 15.5601 17.4409 15.5601H19.7141C19.8116 15.5601 19.9024 15.5979 19.9024 15.678V15.8822Z" fill="url(#paint15_linear_64_40050)"/>
<path d="M20.2153 22.9471C20.2153 23.0324 20.1354 23.082 20.0362 23.082H16.9457C16.8475 23.082 16.7676 23.0324 16.7676 22.9471L17.1634 22.4345C17.2587 22.3179 17.303 22.2992 17.4013 22.2992H19.5806C19.6798 22.2992 19.7241 22.28 19.8185 22.4345L20.2153 22.9471Z" fill="url(#paint16_linear_64_40050)"/>
<path d="M19.588 21.8082C19.588 21.8987 19.514 21.9863 19.4134 21.9863H17.5796C17.4779 21.9863 17.394 21.8987 17.394 21.8082V16.635C17.394 16.5445 17.4779 16.5013 17.5796 16.5013H19.4134C19.514 16.5013 19.588 16.5445 19.588 16.635V21.8082Z" fill="url(#paint17_linear_64_40050)"/>
<path d="M11.7529 11.0157V11.3291C11.8969 11.303 11.9096 11.2426 11.9096 11.1833C11.9096 11.0999 11.8609 11.0513 11.7529 11.0157Z" fill="white"/>
<path d="M11.4409 10.3821C11.4409 10.4622 11.5249 10.5092 11.5976 10.5449V10.2315C11.5249 10.2551 11.4409 10.3117 11.4409 10.3821Z" fill="white"/>
<path d="M11.8222 11.718V11.894H11.6177V11.7211C11.3451 11.6896 11.0821 11.5171 11.0821 11.1944C11.0821 11.1741 11.0832 11.1457 11.0832 11.1457H11.4358C11.4358 11.1457 11.4348 11.1666 11.4348 11.1793C11.4348 11.3076 11.4474 11.3964 11.6177 11.4323V10.9401C11.3792 10.8653 11.1208 10.7735 11.1208 10.4154C11.1208 10.1248 11.3451 9.96868 11.6177 9.93613V9.77941H11.8222V9.93835C12.129 9.97522 12.2993 10.1321 12.2993 10.4408V10.4625H11.9585V10.4484C11.9585 10.3497 11.9244 10.2751 11.8222 10.2368V10.6587C12.0949 10.7314 12.3206 10.8284 12.3206 11.1749C12.3206 11.5195 12.129 11.6811 11.8222 11.718ZM11.7532 9.13577C10.8012 9.13577 10.0293 9.87244 10.0293 10.7813C10.0293 11.6901 10.8012 12.4268 11.7532 12.4268C12.7052 12.4268 13.477 11.6901 13.477 10.7813C13.477 9.87244 12.7052 9.13577 11.7532 9.13577Z" fill="white"/>
<path d="M16.9917 7.13677C17.3974 6.74758 17.9377 6.53027 18.4999 6.53027C19.0621 6.53027 19.6025 6.74758 20.0081 7.13677" stroke="url(#paint18_linear_64_40050)" stroke-width="1.2" stroke-linecap="round" stroke-linejoin="round"/>
<path d="M15.5352 5.67656C16.3281 4.90283 17.3921 4.46973 18.5 4.46973C19.6079 4.46973 20.6719 4.90283 21.4648 5.67656" stroke="url(#paint19_linear_64_40050)" stroke-width="1.2" stroke-linecap="round" stroke-linejoin="round"/>
<path d="M14.0786 4.21973C15.2572 3.05829 16.8454 2.40723 18.5001 2.40723C20.1548 2.40723 21.743 3.05829 22.9216 4.21973" stroke="url(#paint20_linear_64_40050)" stroke-width="1.2" stroke-linecap="round" stroke-linejoin="round"/>
<path d="M18.5 9.02344C18.7373 9.02344 18.9297 8.83106 18.9297 8.59375C18.9297 8.35644 18.7373 8.16406 18.5 8.16406C18.2627 8.16406 18.0703 8.35644 18.0703 8.59375C18.0703 8.83106 18.2627 9.02344 18.5 9.02344Z" fill="url(#paint21_linear_64_40050)"/>
<defs>
<linearGradient id="paint0_linear_64_40050" x1="22.8229" y1="6.70679" x2="19.7626" y2="17.3713" gradientUnits="userSpaceOnUse">
<stop stop-color="#707DF1"/>
<stop offset="1" stop-color="#4356FD"/>
</linearGradient>
<linearGradient id="paint1_linear_64_40050" x1="23.1451" y1="5.17323" x2="19.1543" y2="17.4374" gradientUnits="userSpaceOnUse">
<stop stop-color="#707DF1"/>
<stop offset="1" stop-color="#4356FD"/>
</linearGradient>
<linearGradient id="paint2_linear_64_40050" x1="22.1809" y1="14.0611" x2="22.1261" y2="15.5019" gradientUnits="userSpaceOnUse">
<stop stop-color="#707DF1"/>
<stop offset="1" stop-color="#4356FD"/>
</linearGradient>
<linearGradient id="paint3_linear_64_40050" x1="22.1809" y1="23.6207" x2="22.1261" y2="25.0615" gradientUnits="userSpaceOnUse">
<stop stop-color="#707DF1"/>
<stop offset="1" stop-color="#4356FD"/>
</linearGradient>
<linearGradient id="paint4_linear_64_40050" x1="22.8223" y1="24.8746" x2="22.771" y2="26.3156" gradientUnits="userSpaceOnUse">
<stop stop-color="#707DF1"/>
<stop offset="1" stop-color="#4356FD"/>
</linearGradient>
<linearGradient id="paint5_linear_64_40050" x1="23.7843" y1="26.1285" x2="23.7367" y2="27.5698" gradientUnits="userSpaceOnUse">
<stop stop-color="#707DF1"/>
<stop offset="1" stop-color="#4356FD"/>
</linearGradient>
<linearGradient id="paint6_linear_64_40050" x1="6.30102" y1="15.5074" x2="6.15425" y2="16.3474" gradientUnits="userSpaceOnUse">
<stop stop-color="#707DF1"/>
<stop offset="1" stop-color="#4356FD"/>
</linearGradient>
<linearGradient id="paint7_linear_64_40050" x1="6.62082" y1="22.2105" x2="6.29861" y2="23.5774" gradientUnits="userSpaceOnUse">
<stop stop-color="#707DF1"/>
<stop offset="1" stop-color="#4356FD"/>
</linearGradient>
<linearGradient id="paint8_linear_64_40050" x1="5.97879" y1="15.8859" x2="2.65715" y2="17.1321" gradientUnits="userSpaceOnUse">
<stop stop-color="#707DF1"/>
<stop offset="1" stop-color="#4356FD"/>
</linearGradient>
<linearGradient id="paint9_linear_64_40050" x1="10.8455" y1="15.5074" x2="10.6987" y2="16.3474" gradientUnits="userSpaceOnUse">
<stop stop-color="#707DF1"/>
<stop offset="1" stop-color="#4356FD"/>
</linearGradient>
<linearGradient id="paint10_linear_64_40050" x1="11.1648" y1="22.2105" x2="10.8426" y2="23.5774" gradientUnits="userSpaceOnUse">
<stop stop-color="#707DF1"/>
<stop offset="1" stop-color="#4356FD"/>
</linearGradient>
<linearGradient id="paint11_linear_64_40050" x1="10.5232" y1="15.8859" x2="7.20158" y2="17.1321" gradientUnits="userSpaceOnUse">
<stop stop-color="#707DF1"/>
<stop offset="1" stop-color="#4356FD"/>
</linearGradient>
<linearGradient id="paint12_linear_64_40050" x1="15.2308" y1="15.5074" x2="15.0755" y2="16.3442" gradientUnits="userSpaceOnUse">
<stop stop-color="#707DF1"/>
<stop offset="1" stop-color="#4356FD"/>
</linearGradient>
<linearGradient id="paint13_linear_64_40050" x1="15.7092" y1="22.2105" x2="15.387" y2="23.5774" gradientUnits="userSpaceOnUse">
<stop stop-color="#707DF1"/>
<stop offset="1" stop-color="#4356FD"/>
</linearGradient>
<linearGradient id="paint14_linear_64_40050" x1="15.0696" y1="15.8859" x2="11.748" y2="17.1321" gradientUnits="userSpaceOnUse">
<stop stop-color="#707DF1"/>
<stop offset="1" stop-color="#4356FD"/>
</linearGradient>
<linearGradient id="paint15_linear_64_40050" x1="19.9338" y1="15.5074" x2="19.7871" y2="16.3474" gradientUnits="userSpaceOnUse">
<stop stop-color="#707DF1"/>
<stop offset="1" stop-color="#4356FD"/>
</linearGradient>
<linearGradient id="paint16_linear_64_40050" x1="20.2559" y1="22.2105" x2="19.9469" y2="23.5839" gradientUnits="userSpaceOnUse">
<stop stop-color="#707DF1"/>
<stop offset="1" stop-color="#4356FD"/>
</linearGradient>
<linearGradient id="paint17_linear_64_40050" x1="19.6139" y1="15.8859" x2="16.1059" y2="17.3032" gradientUnits="userSpaceOnUse">
<stop stop-color="#707DF1"/>
<stop offset="1" stop-color="#4356FD"/>
</linearGradient>
<linearGradient id="paint18_linear_64_40050" x1="20.0437" y1="7.20482" x2="19.8298" y2="6.1306" gradientUnits="userSpaceOnUse">
<stop stop-color="#707DF1"/>
<stop offset="1" stop-color="#4356FD"/>
</linearGradient>
<linearGradient id="paint19_linear_64_40050" x1="21.5348" y1="5.81197" x2="21.1045" y2="3.67644" gradientUnits="userSpaceOnUse">
<stop stop-color="#707DF1"/>
<stop offset="1" stop-color="#4356FD"/>
</linearGradient>
<linearGradient id="paint20_linear_64_40050" x1="23.0259" y1="4.4231" x2="22.3754" y2="1.2176" gradientUnits="userSpaceOnUse">
<stop stop-color="#707DF1"/>
<stop offset="1" stop-color="#4356FD"/>
</linearGradient>
<linearGradient id="paint21_linear_64_40050" x1="18.9398" y1="9.11986" x2="18.1486" y2="8.32072" gradientUnits="userSpaceOnUse">
<stop stop-color="#707DF1"/>
<stop offset="1" stop-color="#4356FD"/>
</linearGradient>
</defs>
</svg>
