<svg width="21" height="20" viewBox="0 0 21 20" fill="none" xmlns="http://www.w3.org/2000/svg">
<g id="notification 1">
<g id="Layer_2">
<path id="Vector" d="M17.5647 13.7938L17.1891 13.1688C16.7022 12.3575 16.4447 11.4288 16.4447 10.4825V7.0325C16.4447 3.53375 13.5991 0.6875 10.1003 0.6875C6.60156 0.6875 3.75593 3.53375 3.75593 7.03188V10.4819C3.75593 11.4281 3.49843 12.3569 3.01156 13.1681L2.63593 13.7938C2.33281 14.2994 2.32468 14.9069 2.61531 15.4206C2.90593 15.9338 3.43093 16.24 4.02093 16.24H16.1803C16.7697 16.24 17.2953 15.9338 17.5859 15.4206C17.8759 14.9075 17.8678 14.2994 17.5647 13.7938ZM16.6066 14.8663C16.5641 14.9413 16.4378 15.115 16.1803 15.115H4.02031C3.76218 15.115 3.63656 14.9413 3.59406 14.8663C3.55156 14.7919 3.46781 14.5938 3.60031 14.3731L3.97593 13.7481C4.56781 12.7619 4.88093 11.6331 4.88093 10.4825V7.0325C4.88031 4.15375 7.22218 1.8125 10.1003 1.8125C12.9784 1.8125 15.3203 4.15438 15.3203 7.0325V10.4825C15.3203 11.6325 15.6328 12.7619 16.2253 13.7481L16.6009 14.3731C16.7328 14.5938 16.6491 14.7919 16.6066 14.8663Z" fill="#5A5779"/>
<path id="Vector_2" d="M12.0294 17.3487C11.6188 17.8737 10.8976 18.1875 10.1001 18.1875C9.30256 18.1875 8.58131 17.8737 8.17069 17.3487C7.97881 17.1044 7.62506 17.0612 7.38069 17.2525C7.13631 17.4437 7.09319 17.7975 7.28444 18.0425C7.90631 18.8375 8.95944 19.3125 10.1001 19.3125C11.2407 19.3125 12.2938 18.8375 12.9157 18.0419C13.1069 17.7969 13.0638 17.4431 12.8194 17.2519C12.5751 17.0612 12.2213 17.105 12.0294 17.3487Z" fill="#5A5779"/>
</g>
</g>
</svg>
