<svg width="16" height="16" viewBox="0 0 16 16" fill="none" xmlns="http://www.w3.org/2000/svg">
<path d="M8 0C3.5888 0 0 3.58865 0 7.99956C0 12.4106 3.5888 15.9992 8 15.9992C12.4112 15.9992 16 12.4106 16 7.99956C16 3.58865 12.4112 0 8 0ZM8 14.5447C4.39084 14.5447 1.45455 11.6086 1.45455 7.99961C1.45455 4.39064 4.39084 1.45455 8 1.45455C11.6092 1.45455 14.5455 4.39064 14.5455 7.99956C14.5455 11.6086 11.6092 14.5447 8 14.5447Z" fill="#333333"/>
<path d="M7.99973 6.30273C7.59809 6.30273 7.27246 6.62836 7.27246 7.03001V11.8777C7.27246 12.2793 7.59809 12.6049 7.99973 12.6049C8.40138 12.6049 8.72701 12.2793 8.72701 11.8777V7.03001C8.72701 6.62841 8.40138 6.30273 7.99973 6.30273Z" fill="#333333"/>
<path d="M7.99973 3.39453C7.80822 3.39453 7.62102 3.47211 7.48531 3.60738C7.35004 3.74265 7.27246 3.93029 7.27246 4.1218C7.27246 4.31332 7.35004 4.50047 7.48531 4.63623C7.62058 4.7715 7.80822 4.84908 7.99973 4.84908C8.19125 4.84908 8.3784 4.7715 8.51411 4.63623C8.64938 4.50047 8.72701 4.31332 8.72701 4.1218C8.72701 3.93029 8.64938 3.74265 8.51411 3.60738C8.3784 3.47206 8.19125 3.39453 7.99973 3.39453Z" fill="#333333"/>
</svg>
