<svg width="20" height="20" viewBox="0 0 20 20" fill="none" xmlns="http://www.w3.org/2000/svg">
<path d="M14.1322 16.8481C14.0528 16.8481 13.9743 16.8312 13.9019 16.7984C13.8296 16.7656 13.7651 16.7177 13.7128 16.6579L10.77 13.2942H5.01665C4.3813 13.2934 3.77219 13.0406 3.32296 12.5913C2.87372 12.142 2.62105 11.5329 2.62036 10.8975V4.30975C2.62105 3.67439 2.87372 3.06525 3.32296 2.61594C3.77219 2.16664 4.3813 1.91387 5.01665 1.91309H15.1591C15.7945 1.91387 16.4036 2.16664 16.8528 2.61594C17.302 3.06525 17.5547 3.67439 17.5554 4.30975V10.8975C17.5547 11.5329 17.302 12.142 16.8528 12.5913C16.4036 13.0406 15.7945 13.2934 15.1591 13.2942H14.6895V16.2908C14.6895 16.4386 14.6308 16.5804 14.5263 16.6849C14.4218 16.7894 14.28 16.8481 14.1322 16.8481ZM5.01665 3.02764C4.6768 3.02813 4.35102 3.16338 4.11074 3.40373C3.87046 3.64407 3.73531 3.9699 3.73492 4.30975V10.8975C3.73531 11.2374 3.87046 11.5632 4.11074 11.8035C4.35102 12.0439 4.6768 12.1791 5.01665 12.1796H11.0226C11.1021 12.1796 11.1806 12.1966 11.2529 12.2294C11.3253 12.2622 11.3897 12.3101 11.4421 12.3698L13.575 14.8081V12.7369C13.575 12.5891 13.6337 12.4474 13.7382 12.3428C13.8427 12.2383 13.9844 12.1796 14.1322 12.1796H15.1572C15.4971 12.1791 15.8229 12.0439 16.0632 11.8035C16.3034 11.5632 16.4386 11.2374 16.439 10.8975V4.30975C16.4386 3.97016 16.3036 3.64456 16.0637 3.40425C15.8237 3.16395 15.4983 3.02853 15.1587 3.02764H5.01665Z" fill="#645DF6"/>
<path d="M8.02568 9.93767C7.8777 9.93741 7.7358 9.8788 7.63076 9.77457C7.61813 9.76157 7.60587 9.74782 7.5936 9.73371C7.58209 9.71965 7.5713 9.70502 7.56128 9.68987C7.55113 9.67476 7.54184 9.65915 7.53342 9.64305C7.52487 9.62708 7.51707 9.61036 7.51001 9.59364C7.50295 9.57692 7.49701 9.55946 7.49144 9.54237C7.48586 9.52528 7.48178 9.50522 7.47806 9.48925C7.47435 9.47327 7.47175 9.45209 7.46989 9.43538C7.4681 9.4171 7.46723 9.39875 7.46729 9.38039C7.46722 9.36215 7.46809 9.34393 7.46989 9.32578C7.47175 9.30757 7.47472 9.28863 7.47806 9.27154C7.48141 9.25445 7.48624 9.23438 7.49144 9.21878C7.49664 9.20318 7.50295 9.18386 7.51001 9.16714C7.51707 9.15042 7.52487 9.13407 7.53342 9.1181C7.54191 9.10191 7.55121 9.08616 7.56128 9.07092C7.57131 9.05606 7.58209 9.04119 7.5936 9.02708C7.60512 9.01296 7.61775 8.99921 7.63076 8.98621C7.68927 8.92825 7.75978 8.88384 7.83733 8.85611C7.91487 8.82838 7.99756 8.818 8.07955 8.82571C8.09776 8.82757 8.1167 8.83054 8.13379 8.83389C8.15088 8.83723 8.17094 8.84206 8.18655 8.84726C8.20215 8.85246 8.22147 8.85878 8.23819 8.86584C8.25491 8.8729 8.27125 8.8807 8.28723 8.88924C8.30321 8.89779 8.31918 8.90708 8.33441 8.91711C8.34964 8.92714 8.36413 8.93791 8.37825 8.94943C8.39237 8.96095 8.40612 8.97358 8.41875 8.98658C8.43138 8.99958 8.44401 9.01333 8.4559 9.02745C8.46779 9.04157 8.47819 9.05643 8.48822 9.07129C8.4983 9.08654 8.5076 9.10228 8.51609 9.11847C8.52475 9.13457 8.53256 9.15092 8.53949 9.16751C8.54655 9.18423 8.55249 9.20169 8.55807 9.21915C8.56364 9.23661 8.56773 9.25407 8.57144 9.27191C8.57516 9.28974 8.57776 9.30906 8.57961 9.32615C8.58147 9.34324 8.58222 9.3633 8.58222 9.38076C8.58222 9.39822 8.58222 9.41791 8.57961 9.43575C8.57701 9.45358 8.57479 9.4729 8.57144 9.48962C8.5681 9.50634 8.56327 9.52677 8.55807 9.54274C8.55287 9.55872 8.54655 9.5773 8.53949 9.59401C8.53243 9.61073 8.52463 9.62745 8.51609 9.64343C8.50754 9.6594 8.49825 9.675 8.48822 9.69024C8.47819 9.70547 8.46704 9.71996 8.4559 9.73408C8.44475 9.74819 8.43175 9.76194 8.41875 9.77494C8.40574 9.78795 8.39237 9.80021 8.37825 9.8121C8.36413 9.82398 8.34927 9.83439 8.33441 9.84442C8.31955 9.85445 8.30321 9.86374 8.28723 9.87228C8.27125 9.88083 8.25491 9.88863 8.23819 9.89569C8.22147 9.90275 8.20401 9.90869 8.18655 9.91426C8.16909 9.91984 8.15163 9.92392 8.13379 9.92764C8.11596 9.93135 8.09664 9.93395 8.07955 9.93581C8.06246 9.93767 8.04389 9.93767 8.02568 9.93767Z" fill="#645DF6"/>
<path d="M12.1497 9.93747C12.1315 9.93747 12.1125 9.93747 12.0951 9.93487C12.0776 9.93227 12.0579 9.93004 12.0408 9.9267C12.0237 9.92335 12.0037 9.91852 11.9877 9.91332C11.9717 9.90812 11.9532 9.90181 11.9364 9.89475C11.9197 9.88769 11.9034 9.87989 11.8874 9.87134C11.8712 9.86285 11.8555 9.85355 11.8402 9.84348C11.8254 9.83345 11.8105 9.82267 11.7964 9.81115C11.7823 9.79964 11.7685 9.78701 11.7555 9.774C11.7425 9.761 11.7302 9.74725 11.7184 9.73314C11.7065 9.71902 11.6961 9.70416 11.686 9.6893C11.676 9.67405 11.6667 9.6583 11.6582 9.64211C11.6495 9.62601 11.6417 9.60967 11.6348 9.59307C11.6277 9.57635 11.6218 9.55889 11.6162 9.5418C11.6106 9.52471 11.6065 9.50465 11.6028 9.48868C11.5991 9.4727 11.5965 9.45152 11.5946 9.43481C11.5928 9.41809 11.592 9.39765 11.592 9.37982C11.592 9.36199 11.592 9.34267 11.5946 9.32484C11.5972 9.307 11.5995 9.28768 11.6028 9.27097C11.6062 9.25425 11.611 9.23382 11.6162 9.21784C11.6214 9.20186 11.6277 9.18329 11.6348 9.16657C11.6418 9.14985 11.6496 9.13313 11.6582 9.11716C11.6667 9.10118 11.676 9.08558 11.686 9.07035C11.6961 9.05519 11.7068 9.04056 11.7184 9.02651C11.7299 9.01239 11.7425 8.99864 11.7555 8.98564C11.7685 8.97264 11.7823 8.96038 11.7964 8.94849C11.8105 8.9366 11.8254 8.9262 11.8402 8.91617C11.8555 8.90609 11.8712 8.89679 11.8874 8.8883C11.9035 8.87988 11.9198 8.87208 11.9364 8.8649C11.9532 8.85784 11.9706 8.85189 11.9877 8.84632C12.0048 8.84075 12.0249 8.83666 12.0408 8.83295C12.0568 8.82923 12.078 8.82663 12.0951 8.82477C12.1315 8.82143 12.1682 8.82143 12.2047 8.82477C12.2225 8.82663 12.2418 8.8296 12.2585 8.83295C12.2753 8.83629 12.2957 8.84112 12.3117 8.84632C12.3276 8.85152 12.3462 8.85784 12.3629 8.8649C12.3797 8.87196 12.396 8.87976 12.412 8.8883C12.4282 8.89679 12.4439 8.90609 12.4592 8.91617C12.474 8.9262 12.4889 8.93697 12.503 8.94849C12.5171 8.96001 12.5309 8.97264 12.5439 8.98564C12.5569 8.99864 12.5691 9.01239 12.581 9.02651C12.5925 9.04056 12.6033 9.05519 12.6133 9.07035C12.6233 9.0857 12.6325 9.10131 12.6412 9.11716C12.6498 9.13313 12.6576 9.14985 12.6646 9.16657C12.6717 9.18329 12.6776 9.20075 12.6832 9.21784C12.6888 9.23493 12.6928 9.25499 12.6966 9.27097C12.7003 9.28694 12.7029 9.30812 12.7047 9.32484C12.7083 9.3619 12.7083 9.39923 12.7047 9.43629C12.7029 9.45413 12.6999 9.47344 12.6966 9.49016C12.6932 9.50688 12.6884 9.52731 12.6832 9.54329C12.678 9.55926 12.6717 9.57784 12.6646 9.59456C12.6576 9.61128 12.6498 9.62762 12.6412 9.6436C12.6327 9.65979 12.6234 9.67553 12.6133 9.69078C12.6033 9.70564 12.5925 9.7205 12.581 9.73462C12.5695 9.74874 12.5569 9.76249 12.5439 9.77549C12.5309 9.78849 12.5171 9.80075 12.503 9.81264C12.4889 9.82453 12.474 9.83493 12.4592 9.84496C12.4439 9.85504 12.4282 9.86434 12.412 9.87283C12.3959 9.88125 12.3795 9.88905 12.3629 9.89623C12.3462 9.90329 12.3288 9.90924 12.3117 9.91481C12.2946 9.92038 12.2764 9.92447 12.2585 9.92818C12.2407 9.9319 12.2214 9.9345 12.2047 9.93636C12.188 9.93821 12.1679 9.93747 12.1497 9.93747Z" fill="#645DF6"/>
<path d="M10.0876 9.93756C10.0693 9.93761 10.0511 9.93674 10.0329 9.93496C10.0147 9.9331 9.99579 9.93013 9.9787 9.92678C9.96161 9.92344 9.9434 9.91861 9.92594 9.91341C9.90848 9.90821 9.89139 9.90189 9.87467 9.89483C9.85796 9.88777 9.84124 9.87997 9.82526 9.87143C9.79309 9.85428 9.76262 9.83412 9.73424 9.81124C9.72012 9.79972 9.70638 9.78709 9.69374 9.77409C9.68068 9.7611 9.66828 9.74746 9.65659 9.73322C9.64508 9.7191 9.63393 9.70424 9.6239 9.68938C9.61382 9.67413 9.60452 9.65839 9.59603 9.6422C9.58761 9.6261 9.57981 9.60975 9.57263 9.59316C9.56594 9.57644 9.55963 9.55898 9.55442 9.54152C9.54901 9.52419 9.54454 9.50658 9.54105 9.48876C9.53376 9.45294 9.53015 9.41646 9.53028 9.37991C9.53022 9.36155 9.53108 9.3432 9.53288 9.32492C9.53469 9.30684 9.53742 9.28886 9.54105 9.27105C9.54459 9.25312 9.54905 9.23539 9.55442 9.21793C9.55963 9.20084 9.56594 9.18337 9.57263 9.16666C9.57932 9.14994 9.58749 9.13359 9.59603 9.11762C9.60452 9.10143 9.61382 9.08568 9.6239 9.07043C9.63393 9.05557 9.64508 9.04071 9.65659 9.02659C9.66828 9.01235 9.68068 8.99871 9.69374 8.98573C9.70638 8.9731 9.72012 8.96046 9.73424 8.94857C9.76262 8.92569 9.79309 8.90554 9.82526 8.88839C9.84124 8.87984 9.85796 8.87204 9.87467 8.86498C9.89139 8.85792 9.90848 8.85198 9.92594 8.84641C9.9434 8.84083 9.96124 8.83675 9.9787 8.83303C9.99616 8.82932 10.0159 8.82672 10.0329 8.82486C10.07 8.8214 10.1073 8.8214 10.1444 8.82486C10.1626 8.82672 10.1815 8.82969 10.1983 8.83303C10.215 8.83638 10.2354 8.84121 10.2514 8.84641C10.2674 8.85161 10.2859 8.85792 10.3027 8.86498C10.3194 8.87204 10.3361 8.87984 10.3521 8.88839C10.3681 8.89693 10.3837 8.90622 10.3989 8.91625C10.4142 8.92627 10.4289 8.93706 10.4431 8.94857C10.4572 8.96009 10.471 8.97272 10.4836 8.98573C10.4967 8.99871 10.5091 9.01235 10.5207 9.02659C10.5323 9.04071 10.543 9.05557 10.5534 9.07043C10.5635 9.08568 10.5728 9.10143 10.5813 9.11762C10.5899 9.13353 10.5976 9.1499 10.6043 9.16666C10.6114 9.18342 10.6176 9.20053 10.6229 9.21793C10.6281 9.23539 10.6326 9.25508 10.6363 9.27105C10.6399 9.28886 10.6426 9.30684 10.6445 9.32492C10.6463 9.3432 10.6471 9.36155 10.6471 9.37991C10.6472 9.41646 10.6436 9.45294 10.6363 9.48876C10.6326 9.5066 10.6281 9.52591 10.6229 9.54152C10.6177 9.55906 10.6115 9.5763 10.6043 9.59316C10.5976 9.60992 10.5899 9.62629 10.5813 9.6422C10.5728 9.65817 10.5635 9.67415 10.5534 9.68938C10.5434 9.70461 10.5323 9.7191 10.5207 9.73322C10.5091 9.74746 10.4967 9.7611 10.4836 9.77409C10.471 9.78672 10.4572 9.79935 10.4431 9.81124C10.4289 9.82276 10.4142 9.83355 10.3989 9.84356C10.3838 9.85347 10.3682 9.86276 10.3521 9.87143C10.3361 9.87997 10.3194 9.88777 10.3027 9.89483C10.2859 9.90189 10.2689 9.90784 10.2514 9.91341C10.2339 9.91898 10.2161 9.92307 10.1983 9.92678C10.1804 9.9305 10.1611 9.9331 10.1444 9.93496C10.1255 9.93681 10.1065 9.93768 10.0876 9.93756Z" fill="#645DF6"/>
</svg>
