<svg width="29" height="29" viewBox="0 0 29 29" fill="none" xmlns="http://www.w3.org/2000/svg">
<rect width="29" height="29" rx="5" fill="#627CDB"/>
<path d="M10.875 18.7949L8.81875 20.4121C8.74591 20.4686 8.65746 20.5046 8.56369 20.5159C8.46991 20.5272 8.37463 20.5133 8.28892 20.4759C8.20321 20.4385 8.13057 20.3791 8.07943 20.3045C8.02829 20.2299 8.00075 20.1433 8 20.0547V10.75C8 10.6257 8.05268 10.5065 8.14645 10.4185C8.24021 10.3306 8.36739 10.2812 8.5 10.2812H19.5C19.6326 10.2812 19.7598 10.3306 19.8536 10.4185C19.9473 10.5065 20 10.6257 20 10.75V18.25C20 18.3743 19.9473 18.4935 19.8536 18.5815C19.7598 18.6694 19.6326 18.7188 19.5 18.7188H11.1062L10.875 18.7949Z" stroke="white" stroke-width="0.8" stroke-linecap="round" stroke-linejoin="round"/>
<path d="M12 13.5625H16" stroke="white" stroke-width="0.8" stroke-linecap="round" stroke-linejoin="round"/>
<path d="M12 15.4375H16" stroke="white" stroke-width="0.8" stroke-linecap="round" stroke-linejoin="round"/>
</svg>
