<svg width="9" height="8" viewBox="0 0 9 8" fill="none" xmlns="http://www.w3.org/2000/svg">
<path d="M8.0332 4L7.99579 3.45533L7.88425 2.92081L7.70067 2.4064L7.44845 1.92166L7.13231 1.47565L6.75812 1.07666L6.33287 0.73212L5.86446 0.448459L5.36164 0.230956L4.83375 0.0836638L4.29064 0.00932486L3.74243 0.00932484L3.19932 0.0836637L2.67143 0.230956L2.16861 0.448459L1.7002 0.73212L1.27495 1.07666L0.90076 1.47565L0.584616 1.92166L0.332402 2.4064L0.148815 2.92081L0.0372784 3.45533L-0.000133339 4L0.0372783 4.54467L0.148815 5.07919L0.332401 5.5936L0.584616 6.07834L0.90076 6.52435L1.27495 6.92334L1.7002 7.26788L2.16861 7.55154L2.67143 7.76904L3.19932 7.91634L3.74243 7.99067L4.29064 7.99067L4.83375 7.91634L5.36164 7.76904L5.86446 7.55154L6.33287 7.26788L6.75812 6.92334L7.13231 6.52435L7.44845 6.07834L7.70067 5.5936L7.88425 5.07919L7.99579 4.54467L8.0332 4Z" fill="#645DF6"/>
</svg>
