<svg width="16" height="16" viewBox="0 0 16 16" fill="none" xmlns="http://www.w3.org/2000/svg">
<path d="M8 0C3.5888 0 0 3.58865 0 7.99956C0 12.4106 3.5888 15.9992 8 15.9992C12.4112 15.9992 16 12.4106 16 7.99956C16 3.58865 12.4112 0 8 0ZM8 14.5447C4.39084 14.5447 1.45455 11.6086 1.45455 7.99961C1.45455 4.39064 4.39084 1.45455 8 1.45455C11.6092 1.45455 14.5455 4.39064 14.5455 7.99956C14.5455 11.6086 11.6092 14.5447 8 14.5447Z" fill="#645DF6"/>
<path d="M8.00071 6.30469C7.59906 6.30469 7.27344 6.63031 7.27344 7.03196V11.8796C7.27344 12.2813 7.59906 12.6069 8.00071 12.6069C8.40236 12.6069 8.72798 12.2813 8.72798 11.8796V7.03196C8.72798 6.63036 8.40236 6.30469 8.00071 6.30469Z" fill="#645DF6"/>
<path d="M8.00071 3.39453C7.8092 3.39453 7.622 3.47211 7.48629 3.60738C7.35101 3.74265 7.27344 3.93029 7.27344 4.1218C7.27344 4.31332 7.35101 4.50047 7.48629 4.63623C7.62156 4.7715 7.8092 4.84908 8.00071 4.84908C8.19223 4.84908 8.37938 4.7715 8.51509 4.63623C8.65036 4.50047 8.72798 4.31332 8.72798 4.1218C8.72798 3.93029 8.65036 3.74265 8.51509 3.60738C8.37938 3.47206 8.19223 3.39453 8.00071 3.39453Z" fill="#645DF6"/>
</svg>
