<svg width="10" height="13" viewBox="0 0 10 13" fill="none" xmlns="http://www.w3.org/2000/svg">
<path d="M6.40625 12.2227H0.625V0.972656H5.9375C6.56385 0.972694 7.1771 1.152 7.70482 1.4894C8.23253 1.82679 8.65264 2.30818 8.91554 2.87669C9.17843 3.4452 9.27312 4.07707 9.18841 4.69767C9.1037 5.31826 8.84314 5.90165 8.4375 6.37891C8.96733 6.80263 9.35279 7.38016 9.54082 8.03201C9.72886 8.68385 9.71022 9.37796 9.48748 10.0188C9.26474 10.6596 8.84884 11.2156 8.29704 11.6103C7.74524 12.005 7.08466 12.2189 6.40625 12.2227ZM2.5 10.3477H6.39375C6.57842 10.3477 6.76128 10.3113 6.9319 10.2406C7.10251 10.1699 7.25754 10.0664 7.38812 9.93577C7.5187 9.80519 7.62228 9.65017 7.69296 9.47956C7.76363 9.30894 7.8 9.12608 7.8 8.94141C7.8 8.75673 7.76363 8.57387 7.69296 8.40326C7.62228 8.23264 7.5187 8.07762 7.38812 7.94704C7.25754 7.81645 7.10251 7.71287 6.9319 7.6422C6.76128 7.57153 6.57842 7.53516 6.39375 7.53516H2.5V10.3477ZM2.5 5.66016H5.9375C6.12217 5.66016 6.30503 5.62378 6.47565 5.55311C6.64626 5.48244 6.80129 5.37886 6.93187 5.24827C7.06245 5.11769 7.16604 4.96267 7.23671 4.79206C7.30738 4.62144 7.34375 4.43858 7.34375 4.25391C7.34375 4.06923 7.30738 3.88637 7.23671 3.71576C7.16604 3.54514 7.06245 3.39012 6.93187 3.25954C6.80129 3.12896 6.64626 3.02537 6.47565 2.9547C6.30503 2.88403 6.12217 2.84766 5.9375 2.84766H2.5V5.66016Z" fill="#212529"/>
</svg>
