<svg width="19" height="18" viewBox="0 0 19 18" fill="none" xmlns="http://www.w3.org/2000/svg">
<path d="M6.125 2.8125H3.875C3.56434 2.8125 3.3125 3.06434 3.3125 3.375V14.625C3.3125 14.9357 3.56434 15.1875 3.875 15.1875H6.125C6.43566 15.1875 6.6875 14.9357 6.6875 14.625V3.375C6.6875 3.06434 6.43566 2.8125 6.125 2.8125Z" stroke="white" stroke-width="1.2" stroke-linecap="round" stroke-linejoin="round"/>
<path d="M3.3125 5.625H6.6875" stroke="white" stroke-width="1.2" stroke-linecap="round" stroke-linejoin="round"/>
<path d="M9.5 2.8125H7.25C6.93934 2.8125 6.6875 3.06434 6.6875 3.375V14.625C6.6875 14.9357 6.93934 15.1875 7.25 15.1875H9.5C9.81066 15.1875 10.0625 14.9357 10.0625 14.625V3.375C10.0625 3.06434 9.81066 2.8125 9.5 2.8125Z" stroke="white" stroke-width="1.2" stroke-linecap="round" stroke-linejoin="round"/>
<path d="M6.6875 12.375H10.0625" stroke="white" stroke-width="1.2" stroke-linecap="round" stroke-linejoin="round"/>
<path d="M12.8424 2.62843L10.6599 3.21343C10.3585 3.2942 10.1797 3.60396 10.2605 3.90531L13.1855 14.8178C13.2663 15.1191 13.576 15.298 13.8774 15.2172L16.0599 14.6322C16.3612 14.5514 16.54 14.2416 16.4593 13.9403L13.5343 3.02781C13.4535 2.72646 13.1437 2.54766 12.8424 2.62843Z" stroke="white" stroke-width="1.2" stroke-linecap="round" stroke-linejoin="round"/>
<path d="M12.5376 12.6002L15.8001 11.7213" stroke="white" stroke-width="1.2" stroke-linecap="round" stroke-linejoin="round"/>
<path d="M10.7939 6.075L14.0564 5.20312" stroke="white" stroke-width="1.2" stroke-linecap="round" stroke-linejoin="round"/>
</svg>
