<svg width="20" height="20" viewBox="0 0 20 20" fill="none" xmlns="http://www.w3.org/2000/svg">
<path d="M18.25 9.06037V6.33329C18.25 5.84705 18.0568 5.38074 17.713 5.03692C17.3692 4.69311 16.9029 4.49995 16.4166 4.49995H10.9166V3.29729C11.1962 3.04612 11.375 2.68495 11.375 2.27979C11.375 1.91511 11.2301 1.56538 10.9723 1.30751C10.7144 1.04965 10.3647 0.904785 9.99998 0.904785C9.63531 0.904785 9.28557 1.04965 9.02771 1.30751C8.76985 1.56538 8.62498 1.91511 8.62498 2.27979C8.62498 2.68495 8.80373 3.04612 9.08331 3.29729V4.49995H3.58331C3.09708 4.49995 2.63077 4.69311 2.28695 5.03692C1.94313 5.38074 1.74998 5.84705 1.74998 6.33329V9.08145L1.68398 9.08604C1.45288 9.1025 1.23661 9.20596 1.07875 9.37555C0.920895 9.54514 0.833191 9.76826 0.833313 9.99995V11.8333C0.833313 12.0764 0.92989 12.3096 1.1018 12.4815C1.27371 12.6534 1.50686 12.75 1.74998 12.75V17.3333C1.74998 17.8195 1.94313 18.2858 2.28695 18.6296C2.63077 18.9735 3.09708 19.1666 3.58331 19.1666H16.4166C16.9029 19.1666 17.3692 18.9735 17.713 18.6296C18.0568 18.2858 18.25 17.8195 18.25 17.3333V12.75C18.4931 12.75 18.7263 12.6534 18.8982 12.4815C19.0701 12.3096 19.1666 12.0764 19.1666 11.8333V10.0568C19.1773 9.91452 19.1547 9.77174 19.1006 9.6397C18.9155 9.19237 18.5186 9.08512 18.25 9.06037ZM5.41665 9.99995C5.41665 8.98795 6.03265 8.16662 6.79165 8.16662C7.55065 8.16662 8.16665 8.98795 8.16665 9.99995C8.16665 11.012 7.55065 11.8333 6.79165 11.8333C6.03265 11.8333 5.41665 11.012 5.41665 9.99995ZM13.6648 15.5C12.7472 15.4972 6.33423 15.5 6.33331 15.5V13.6666C6.33331 13.6666 12.7509 13.6648 13.6685 13.6666L13.6648 15.5ZM13.2083 11.8333C12.4493 11.8333 11.8333 11.012 11.8333 9.99995C11.8333 8.98795 12.4493 8.16662 13.2083 8.16662C13.9673 8.16662 14.5833 8.98795 14.5833 9.99995C14.5833 11.012 13.9673 11.8333 13.2083 11.8333Z" fill="#645DF6"/>
</svg>
