<svg width="26" height="26" viewBox="0 0 26 26" fill="none" xmlns="http://www.w3.org/2000/svg">
<path d="M9.53331 17.3334V14.7334M15.6 9.53337H19.0666C21.4599 9.53337 23.4 7.59326 23.4 5.20003C23.4 2.8068 21.4599 0.866699 19.0666 0.866699H6.93331C4.54008 0.866699 2.59998 2.8068 2.59998 5.20003C2.59998 7.59326 4.54008 9.53337 6.93331 9.53337M9.53331 14.7334V6.0667C9.53331 5.10941 10.3094 4.33337 11.2666 4.33337C12.2239 4.33337 13 5.10941 13 6.0667V13H18.8117C20.3885 13 21.6666 14.2782 21.6666 15.8549V17.3334C21.6666 21.6412 18.1745 25.1334 13.8666 25.1334H13C9.1708 25.1334 6.06664 22.0291 6.06664 18.2C6.06664 16.2854 7.61872 14.7334 9.53331 14.7334Z" stroke="url(#paint0_linear_109_17780)"/>
<defs>
<linearGradient id="paint0_linear_109_17780" x1="13" y1="0.866699" x2="13" y2="25.1334" gradientUnits="userSpaceOnUse">
<stop stop-color="#000AFF"/>
<stop offset="1" stop-color="#D274FF"/>
</linearGradient>
</defs>
</svg>
