<svg width="21" height="21" viewBox="0 0 21 21" fill="none" xmlns="http://www.w3.org/2000/svg">
<path d="M18.375 9.60128V6.99816C18.375 6.53403 18.1906 6.08891 17.8624 5.76072C17.5342 5.43253 17.0891 5.24816 16.625 5.24816H11.375V4.10016C11.6419 3.86041 11.8125 3.51566 11.8125 3.12891C11.8125 2.78081 11.6742 2.44697 11.4281 2.20083C11.1819 1.95469 10.8481 1.81641 10.5 1.81641C10.1519 1.81641 9.81806 1.95469 9.57192 2.20083C9.32578 2.44697 9.1875 2.78081 9.1875 3.12891C9.1875 3.51566 9.35813 3.86041 9.625 4.10016V5.24816H4.375C3.91087 5.24816 3.46575 5.43253 3.13756 5.76072C2.80937 6.08891 2.625 6.53403 2.625 6.99816V9.62141L2.562 9.62578C2.3414 9.6415 2.13496 9.74025 1.98428 9.90213C1.8336 10.064 1.74988 10.277 1.75 10.4982V12.2482C1.75 12.4802 1.84219 12.7028 2.00628 12.8669C2.17038 13.031 2.39294 13.1232 2.625 13.1232V17.4982C2.625 17.9623 2.80937 18.4074 3.13756 18.7356C3.46575 19.0638 3.91087 19.2482 4.375 19.2482H16.625C17.0891 19.2482 17.5342 19.0638 17.8624 18.7356C18.1906 18.4074 18.375 17.9623 18.375 17.4982V13.1232C18.6071 13.1232 18.8296 13.031 18.9937 12.8669C19.1578 12.7028 19.25 12.4802 19.25 12.2482V10.5524C19.2601 10.4166 19.2386 10.2803 19.187 10.1543C19.0103 9.72728 18.6314 9.62491 18.375 9.60128ZM6.125 10.4982C6.125 9.53216 6.713 8.74816 7.4375 8.74816C8.162 8.74816 8.75 9.53216 8.75 10.4982C8.75 11.4642 8.162 12.2482 7.4375 12.2482C6.713 12.2482 6.125 11.4642 6.125 10.4982ZM13.9983 15.7482C13.1224 15.7455 7 15.7482 7 15.7482V13.9982C7 13.9982 13.1259 13.9964 14.0018 13.9982L13.9983 15.7482ZM13.5625 12.2482C12.838 12.2482 12.25 11.4642 12.25 10.4982C12.25 9.53216 12.838 8.74816 13.5625 8.74816C14.287 8.74816 14.875 9.53216 14.875 10.4982C14.875 11.4642 14.287 12.2482 13.5625 12.2482Z" fill="#16A69D"/>
</svg>
