<svg width="24" height="24" viewBox="0 0 24 24" fill="none" xmlns="http://www.w3.org/2000/svg">
<path d="M17.1752 13.4609C18.2777 13.4609 19.1713 14.3719 19.1713 15.4957V16.2711H19.1654C19.1279 17.1476 18.8922 18.2469 17.9266 19.145C16.8719 20.1259 15.0513 20.7673 12.0003 20.7673C8.9493 20.7673 7.12872 20.1259 6.074 19.145C5.10843 18.2469 4.87271 17.1476 4.83523 16.2711H4.82935V15.4957C4.82935 14.3719 5.72301 13.4609 6.82541 13.4609H17.1752Z" fill="white"/>
<path d="M8.13897 3.89803C7.22502 3.89803 6.48413 4.65327 6.48413 5.58492V10.0833C6.48413 11.0149 7.22502 11.7702 8.13897 11.7702H15.8615C16.7755 11.7702 17.5164 11.0149 17.5164 10.0833V5.58492C17.5164 4.65327 16.7755 3.89803 15.8615 3.89803H12.5519C12.5519 3.89803 12.5519 3.68277 12.5519 3.33573C12.5519 2.9887 12.3049 2.77344 12.0003 2.77344C11.6956 2.77344 11.4486 3.03262 11.4486 3.33573C11.4486 3.63885 11.4486 3.89803 11.4486 3.89803H8.13897ZM8.69058 7.83411C8.69058 7.21301 9.18452 6.70951 9.79381 6.70951C10.4031 6.70951 10.897 7.21301 10.897 7.83411C10.897 8.4552 10.4031 8.9587 9.79381 8.9587C9.18452 8.9587 8.69058 8.4552 8.69058 7.83411ZM13.1035 7.83411C13.1035 7.21301 13.5974 6.70951 14.2067 6.70951C14.816 6.70951 15.3099 7.21301 15.3099 7.83411C15.3099 8.4552 14.816 8.9587 14.2067 8.9587C13.5974 8.9587 13.1035 8.4552 13.1035 7.83411Z" fill="white"/>
</svg>
