<svg width="29" height="32" viewBox="0 0 29 32" fill="none" xmlns="http://www.w3.org/2000/svg">
<rect x="12" width="17" height="17" rx="8.5" fill="#F6DDEF"/>
<g clip-path="url(#clip0_415_477995)">
<path fill-rule="evenodd" clip-rule="evenodd" d="M14 29.375L15.5188 30.25L18.519 25H22.75C23.2097 25.0001 23.6648 24.9096 24.0895 24.7337C24.5142 24.5579 24.9 24.3001 25.2251 23.9751C25.5501 23.65 25.8079 23.2642 25.9837 22.8395C26.1596 22.4148 26.2501 21.9597 26.25 21.5V9.25C26.2501 8.79033 26.1597 8.33515 25.9839 7.91045C25.808 7.48574 25.5502 7.09985 25.2252 6.77482C24.9002 6.44979 24.5143 6.19198 24.0896 6.01614C23.6649 5.8403 23.2097 5.74986 22.75 5.75H5.25C4.79033 5.74986 4.33515 5.8403 3.91045 6.01614C3.48574 6.19198 3.09985 6.44979 2.77482 6.77482C2.44979 7.09985 2.19198 7.48574 2.01614 7.91045C1.8403 8.33515 1.74986 8.79033 1.75 9.25V21.5C1.74992 21.9597 1.8404 22.4148 2.01626 22.8395C2.19212 23.2642 2.44993 23.65 2.77495 23.9751C3.09997 24.3001 3.48584 24.5579 3.91051 24.7337C4.33519 24.9096 4.79035 25.0001 5.25 25H13.125V23.25H5.25C5.02008 23.2504 4.79234 23.2054 4.57984 23.1176C4.36734 23.0298 4.17427 22.9009 4.01169 22.7383C3.84911 22.5757 3.72022 22.3827 3.63241 22.1702C3.54461 21.9577 3.49961 21.7299 3.5 21.5V9.25C3.49961 9.02008 3.54461 8.79234 3.63241 8.57984C3.72022 8.36734 3.84911 8.17427 4.01169 8.01169C4.17427 7.84911 4.36734 7.72022 4.57984 7.63241C4.79234 7.54461 5.02008 7.49961 5.25 7.5H22.75C22.9799 7.49961 23.2077 7.54461 23.4202 7.63241C23.6327 7.72022 23.8257 7.84911 23.9883 8.01169C24.1509 8.17427 24.2798 8.36734 24.3676 8.57984C24.4554 8.79234 24.5004 9.02008 24.5 9.25V21.5C24.5004 21.7299 24.4554 21.9577 24.3676 22.1702C24.2798 22.3827 24.1509 22.5757 23.9883 22.7383C23.8257 22.9009 23.6327 23.0298 23.4202 23.1176C23.2077 23.2054 22.9799 23.2504 22.75 23.25H17.5L14 29.375ZM10.5 11.0001C10.1539 11.0001 9.81554 11.1027 9.52775 11.295C9.23997 11.4873 9.01567 11.7606 8.88321 12.0804C8.75076 12.4002 8.7161 12.752 8.78363 13.0915C8.85115 13.431 9.01782 13.7428 9.26256 13.9875C9.50731 14.2323 9.81913 14.3989 10.1586 14.4665C10.4981 14.534 10.8499 14.4993 11.1697 14.3669C11.4895 14.2344 11.7628 14.0101 11.9551 13.7223C12.1474 13.4345 12.25 13.0962 12.25 12.7501C12.2523 12.5196 12.2086 12.2911 12.1214 12.0777C12.0343 11.8644 11.9054 11.6705 11.7425 11.5076C11.5795 11.3446 11.3857 11.2158 11.1724 11.1287C10.959 11.0415 10.7304 10.9978 10.5 11.0001ZM16.5278 11.295C16.8155 11.1027 17.1539 11.0001 17.5 11.0001C17.7304 10.9978 17.959 11.0415 18.1724 11.1287C18.3857 11.2158 18.5795 11.3446 18.7425 11.5076C18.9055 11.6705 19.0343 11.8644 19.1214 12.0777C19.2086 12.2911 19.2523 12.5196 19.25 12.7501C19.25 13.0962 19.1474 13.4345 18.9551 13.7223C18.7628 14.0101 18.4895 14.2344 18.1697 14.3669C17.8499 14.4993 17.4981 14.534 17.1586 14.4665C16.8191 14.3989 16.5073 14.2323 16.2626 13.9875C16.0178 13.7428 15.8512 13.431 15.7836 13.0915C15.7161 12.752 15.7508 12.4002 15.8832 12.0804C16.0157 11.7606 16.24 11.4873 16.5278 11.295ZM11.1035 19.8986C11.9942 20.3763 12.9893 20.6259 14 20.625C15.0107 20.6259 16.0058 20.3763 16.8965 19.8986C17.7871 19.4208 18.5455 18.7299 19.1039 17.8874L17.6461 16.9185C17.247 17.5201 16.7051 18.0136 16.069 18.355C15.4328 18.6964 14.722 18.875 14 18.875C13.278 18.875 12.5672 18.6964 11.931 18.355C11.2948 18.0136 10.753 17.5201 10.3539 16.9185L8.89612 17.8874C9.45447 18.7299 10.2129 19.4208 11.1035 19.8986Z" fill="url(#paint0_linear_415_477995)"/>
</g>
<defs>
<linearGradient id="paint0_linear_415_477995" x1="14" y1="5.75" x2="14" y2="30.25" gradientUnits="userSpaceOnUse">
<stop stop-color="#000AFF"/>
<stop offset="1" stop-color="#D274FF"/>
</linearGradient>
<clipPath id="clip0_415_477995">
<rect width="28" height="28" fill="white" transform="translate(0 4)"/>
</clipPath>
</defs>
</svg>
