<svg width="18" height="18" viewBox="0 0 18 18" fill="none" xmlns="http://www.w3.org/2000/svg">
<path d="M13.2215 10.3528C14.1209 10.3528 14.8499 11.0818 14.8499 11.9812V12.6017H14.8451C14.8145 13.3032 14.6222 14.1829 13.8345 14.9017C12.9741 15.6867 11.4889 16.2 8.9999 16.2C6.51092 16.2 5.02571 15.6867 4.16528 14.9017C3.37758 14.1829 3.18528 13.3032 3.1547 12.6017H3.1499V11.9812C3.1499 11.0818 3.87895 10.3528 4.77827 10.3528H13.2215Z" fill="white"/>
<path d="M5.85 2.7C5.10441 2.7 4.5 3.30442 4.5 4.05V7.65C4.5 8.39559 5.10441 9 5.85 9H12.15C12.8956 9 13.5 8.39559 13.5 7.65V4.05C13.5 3.30442 12.8956 2.7 12.15 2.7H9.45C9.45 2.7 9.45 2.52773 9.45 2.25C9.45 1.97227 9.24849 1.8 9 1.8C8.75147 1.8 8.55 2.00743 8.55 2.25C8.55 2.49258 8.55 2.7 8.55 2.7H5.85ZM6.3 5.85C6.3 5.35294 6.70295 4.95 7.2 4.95C7.69705 4.95 8.1 5.35294 8.1 5.85C8.1 6.34705 7.69705 6.75 7.2 6.75C6.70295 6.75 6.3 6.34705 6.3 5.85ZM9.9 5.85C9.9 5.35294 10.3029 4.95 10.8 4.95C11.2971 4.95 11.7 5.35294 11.7 5.85C11.7 6.34705 11.2971 6.75 10.8 6.75C10.3029 6.75 9.9 6.34705 9.9 5.85Z" fill="white"/>
</svg>
