<svg width="28" height="28" viewBox="0 0 28 28" fill="none" xmlns="http://www.w3.org/2000/svg">
<path fill-rule="evenodd" clip-rule="evenodd" d="M24.0903 7.08044C23.9598 5.3118 22.4845 3.91797 20.6829 3.91797H7.34961C5.46404 3.91797 3.93493 5.44547 3.93295 7.33104L3.93029 9.85546C3.92101 9.90261 3.91614 9.95135 3.91614 10.0012C3.91614 10.0505 3.9209 10.0988 3.92999 10.1454L3.91893 20.6644C3.91892 20.6737 3.91909 20.683 3.91942 20.6923L3.92674 20.8941L3.92747 20.9097L3.92828 20.9222C4.05876 22.6908 5.53406 24.0846 7.3356 24.0846H20.6689C22.5545 24.0846 24.0836 22.5571 24.0856 20.6716L24.0996 7.33823C24.0996 7.32891 24.0995 7.31959 24.0991 7.31028L24.0918 7.10846C24.0915 7.09911 24.091 7.08977 24.0903 7.08044ZM5.43093 9.25122L5.43295 7.33262C5.43406 6.27486 6.29186 5.41797 7.34961 5.41797H20.6829C21.6887 5.41797 22.514 6.19307 22.5933 7.17795L22.5996 7.35063L22.5976 9.25122H17.9995H5.43093ZM17.2495 10.7512H5.42935L5.41895 20.652L5.4252 20.8247C5.50449 21.8095 6.32987 22.5846 7.3356 22.5846H17.2495V10.7512ZM18.7495 10.7512H22.596L22.5856 20.67C22.5845 21.7277 21.7267 22.5846 20.6689 22.5846H18.7495V10.7512Z" fill="url(#paint0_linear_1233_22207)"/>
<defs>
<linearGradient id="paint0_linear_1233_22207" x1="14.0079" y1="3.91797" x2="14.0079" y2="24.0846" gradientUnits="userSpaceOnUse">
<stop stop-color="#000AFF"/>
<stop offset="1" stop-color="#D274FF"/>
</linearGradient>
</defs>
</svg>
