<svg width="20" height="20" viewBox="0 0 20 20" fill="none" xmlns="http://www.w3.org/2000/svg">
<path d="M18.25 9.06041V6.33333C18.25 5.8471 18.0569 5.38078 17.7131 5.03697C17.3693 4.69315 16.9029 4.5 16.4167 4.5H10.9167V3.29733C11.1963 3.04616 11.375 2.685 11.375 2.27983C11.375 1.91516 11.2302 1.56542 10.9723 1.30756C10.7145 1.0497 10.3647 0.904831 10 0.904831C9.63537 0.904831 9.28563 1.0497 9.02777 1.30756C8.76991 1.56542 8.62504 1.91516 8.62504 2.27983C8.62504 2.685 8.80379 3.04616 9.08337 3.29733V4.5H3.58337C3.09714 4.5 2.63083 4.69315 2.28701 5.03697C1.94319 5.38078 1.75004 5.8471 1.75004 6.33333V9.0815L1.68404 9.08608C1.45294 9.10255 1.23667 9.206 1.07881 9.37559C0.920956 9.54519 0.833252 9.76831 0.833374 10V11.8333C0.833374 12.0764 0.929951 12.3096 1.10186 12.4815C1.27377 12.6534 1.50693 12.75 1.75004 12.75V17.3333C1.75004 17.8196 1.94319 18.2859 2.28701 18.6297C2.63083 18.9735 3.09714 19.1667 3.58337 19.1667H16.4167C16.9029 19.1667 17.3693 18.9735 17.7131 18.6297C18.0569 18.2859 18.25 17.8196 18.25 17.3333V12.75C18.4932 12.75 18.7263 12.6534 18.8982 12.4815C19.0701 12.3096 19.1667 12.0764 19.1667 11.8333V10.0568C19.1773 9.91457 19.1547 9.77178 19.1007 9.63975C18.9155 9.19241 18.5186 9.08517 18.25 9.06041ZM5.41671 10C5.41671 8.988 6.03271 8.16666 6.79171 8.16666C7.55071 8.16666 8.16671 8.988 8.16671 10C8.16671 11.012 7.55071 11.8333 6.79171 11.8333C6.03271 11.8333 5.41671 11.012 5.41671 10ZM13.6649 15.5C12.7473 15.4972 6.33429 15.5 6.33337 15.5V13.6667C6.33337 13.6667 12.751 13.6648 13.6685 13.6667L13.6649 15.5ZM13.2084 11.8333C12.4494 11.8333 11.8334 11.012 11.8334 10C11.8334 8.988 12.4494 8.16666 13.2084 8.16666C13.9674 8.16666 14.5834 8.988 14.5834 10C14.5834 11.012 13.9674 11.8333 13.2084 11.8333Z" fill="#645DF6"/>
</svg>
