<svg width="24" height="23" viewBox="0 0 24 23" fill="none" xmlns="http://www.w3.org/2000/svg">
<g clip-path="url(#clip0_109_17795)">
<path d="M11.822 8.38292C11.822 8.48619 11.9076 8.56937 12.013 8.56937C12.1183 8.56937 12.2039 8.48567 12.2039 8.38292C12.2041 8.1645 12.2835 7.95219 12.4276 7.78514C12.7482 7.41365 12.9885 7.01087 13.1407 6.58801C13.1612 6.53087 13.1523 6.46761 13.1165 6.41816C13.0806 6.36871 13.0227 6.33936 12.9606 6.33936H11.0651C11.0031 6.33936 10.945 6.36871 10.909 6.41816C10.8733 6.46761 10.8643 6.53087 10.8849 6.58801C11.0374 7.01087 11.2774 7.41365 11.598 7.78514C11.7423 7.95219 11.8218 8.16467 11.822 8.38292Z" fill="url(#paint0_linear_109_17795)"/>
<path d="M12.204 9.13078C12.204 9.02769 12.1184 8.94434 12.0131 8.94434C11.9077 8.94434 11.8221 9.02804 11.8221 9.13078C11.8219 9.40023 11.6572 9.6667 11.3585 9.88286C10.7194 10.344 10.2411 10.845 9.93679 11.3716C9.90335 11.4296 9.90389 11.5002 9.9384 11.5572C9.97237 11.6147 10.0353 11.6498 10.1033 11.6498H13.9232C13.991 11.6498 14.0538 11.6147 14.0881 11.5572C14.1222 11.5002 14.1228 11.4296 14.0895 11.3716C13.7854 10.845 13.3069 10.344 12.668 9.88286C12.3689 9.6667 12.2042 9.40023 12.204 9.13078Z" fill="url(#paint1_linear_109_17795)"/>
<path d="M15.3552 11.93H15.241C15.1097 10.4774 14.2393 9.36224 13.5627 8.57015C14.2395 7.77823 15.1095 6.66288 15.2413 5.21028H15.3556C15.5666 5.21028 15.7375 5.04306 15.7375 4.83686C15.7375 4.63067 15.5666 4.46362 15.3556 4.46362H8.67062C8.45963 4.46362 8.2887 4.63085 8.2887 4.83686C8.2887 5.04306 8.45963 5.21028 8.67062 5.21028H8.78488C8.9163 6.66305 9.78636 7.77841 10.4631 8.57015C9.78654 9.36206 8.9163 10.4772 8.7847 11.93H8.67062C8.45963 11.93 8.2887 12.0969 8.2887 12.3031C8.2887 12.5094 8.45963 12.6767 8.67062 12.6767H9.14821H14.8778H15.3556C15.5666 12.6767 15.7375 12.5094 15.7375 12.3031C15.7375 12.0969 15.5664 11.93 15.3552 11.93ZM9.55052 11.93C9.6941 10.6176 10.5672 9.60687 11.2197 8.85165L11.2545 8.81129C11.3747 8.67237 11.3747 8.46898 11.2545 8.32988L11.2198 8.28969C10.5676 7.5343 9.6941 6.52361 9.55052 5.21098H14.4755C14.3319 6.52361 13.4585 7.5343 12.8062 8.28969L12.7717 8.32988C12.6515 8.4688 12.6515 8.6722 12.7717 8.81129L12.8065 8.85165C13.4588 9.60687 14.3319 10.6176 14.4755 11.93H9.55052Z" fill="url(#paint2_linear_109_17795)"/>
</g>
<path fill-rule="evenodd" clip-rule="evenodd" d="M19.4335 1.3H4C2.50883 1.3 1.3 2.50883 1.3 4V13.8541C1.3 15.3452 2.50883 16.5541 4 16.5541H19.4335C20.9246 16.5541 22.1335 15.3452 22.1335 13.8541V4C22.1335 2.50883 20.9246 1.3 19.4335 1.3ZM4 0C1.79086 0 0 1.79086 0 4V13.8541C0 16.0632 1.79086 17.8541 4 17.8541H11.1588V21.2017H7.4206C7.02002 21.2017 6.69528 21.5264 6.69528 21.927C6.69528 22.3276 7.02002 22.6523 7.4206 22.6523H16.0129C16.4135 22.6523 16.7382 22.3276 16.7382 21.927C16.7382 21.5264 16.4135 21.2017 16.0129 21.2017H12.6094V17.8541H19.4335C21.6426 17.8541 23.4335 16.0632 23.4335 13.8541V4C23.4335 1.79086 21.6426 0 19.4335 0H4Z" fill="url(#paint3_linear_109_17795)"/>
<defs>
<linearGradient id="paint0_linear_109_17795" x1="12.0128" y1="6.33936" x2="12.0128" y2="8.56937" gradientUnits="userSpaceOnUse">
<stop stop-color="#000AFF"/>
<stop offset="1" stop-color="#D274FF"/>
</linearGradient>
<linearGradient id="paint1_linear_109_17795" x1="12.0131" y1="8.94434" x2="12.0131" y2="11.6498" gradientUnits="userSpaceOnUse">
<stop stop-color="#000AFF"/>
<stop offset="1" stop-color="#D274FF"/>
</linearGradient>
<linearGradient id="paint2_linear_109_17795" x1="12.0131" y1="4.46362" x2="12.0131" y2="12.6767" gradientUnits="userSpaceOnUse">
<stop stop-color="#000AFF"/>
<stop offset="1" stop-color="#D274FF"/>
</linearGradient>
<linearGradient id="paint3_linear_109_17795" x1="11.7167" y1="0" x2="11.7167" y2="22.6524" gradientUnits="userSpaceOnUse">
<stop stop-color="#000AFF"/>
<stop offset="1" stop-color="#D274FF"/>
</linearGradient>
<clipPath id="clip0_109_17795">
<rect width="8.40397" height="8.21288" fill="white" transform="translate(7.81116 4.46362)"/>
</clipPath>
</defs>
</svg>
