<svg width="28" height="28" viewBox="0 0 28 28" fill="none" xmlns="http://www.w3.org/2000/svg">
<g clip-path="url(#clip0_498_444812)">
<path fill-rule="evenodd" clip-rule="evenodd" d="M14 25.375L15.5188 26.25L18.519 21H22.75C23.2097 21.0001 23.6648 20.9096 24.0895 20.7337C24.5142 20.5579 24.9 20.3001 25.2251 19.9751C25.5501 19.65 25.8079 19.2642 25.9837 18.8395C26.1596 18.4148 26.2501 17.9597 26.25 17.5V5.25C26.2501 4.79033 26.1597 4.33515 25.9839 3.91045C25.808 3.48574 25.5502 3.09985 25.2252 2.77482C24.9002 2.44979 24.5143 2.19198 24.0896 2.01614C23.6649 1.8403 23.2097 1.74986 22.75 1.75H5.25C4.79033 1.74986 4.33515 1.8403 3.91045 2.01614C3.48574 2.19198 3.09985 2.44979 2.77482 2.77482C2.44979 3.09985 2.19198 3.48574 2.01614 3.91045C1.8403 4.33515 1.74986 4.79033 1.75 5.25V17.5C1.74992 17.9597 1.8404 18.4148 2.01626 18.8395C2.19212 19.2642 2.44993 19.65 2.77495 19.9751C3.09997 20.3001 3.48584 20.5579 3.91051 20.7337C4.33519 20.9096 4.79035 21.0001 5.25 21H13.125V19.25H5.25C5.02008 19.2504 4.79234 19.2054 4.57984 19.1176C4.36734 19.0298 4.17427 18.9009 4.01169 18.7383C3.84911 18.5757 3.72022 18.3827 3.63241 18.1702C3.54461 17.9577 3.49961 17.7299 3.5 17.5V5.25C3.49961 5.02008 3.54461 4.79234 3.63241 4.57984C3.72022 4.36734 3.84911 4.17427 4.01169 4.01169C4.17427 3.84911 4.36734 3.72022 4.57984 3.63241C4.79234 3.54461 5.02008 3.49961 5.25 3.5H22.75C22.9799 3.49961 23.2077 3.54461 23.4202 3.63241C23.6327 3.72022 23.8257 3.84911 23.9883 4.01169C24.1509 4.17427 24.2798 4.36734 24.3676 4.57984C24.4554 4.79234 24.5004 5.02008 24.5 5.25V17.5C24.5004 17.7299 24.4554 17.9577 24.3676 18.1702C24.2798 18.3827 24.1509 18.5757 23.9883 18.7383C23.8257 18.9009 23.6327 19.0298 23.4202 19.1176C23.2077 19.2054 22.9799 19.2504 22.75 19.25H17.5L14 25.375ZM10.5 7.00008C10.1539 7.00008 9.81554 7.10272 9.52775 7.29501C9.23997 7.4873 9.01567 7.76062 8.88321 8.08039C8.75076 8.40016 8.7161 8.75203 8.78363 9.09149C8.85115 9.43096 9.01782 9.74278 9.26256 9.98752C9.50731 10.2323 9.81913 10.3989 10.1586 10.4665C10.4981 10.534 10.8499 10.4993 11.1697 10.3669C11.4895 10.2344 11.7628 10.0101 11.9551 9.72233C12.1474 9.43455 12.25 9.0962 12.25 8.75008C12.2523 8.51964 12.2086 8.29106 12.1214 8.07771C12.0343 7.86437 11.9054 7.67055 11.7425 7.50759C11.5795 7.34464 11.3857 7.21582 11.1724 7.12867C10.959 7.04153 10.7304 6.99782 10.5 7.00008ZM16.5278 7.29501C16.8155 7.10272 17.1539 7.00008 17.5 7.00008C17.7304 6.99782 17.959 7.04153 18.1724 7.12867C18.3857 7.21582 18.5795 7.34464 18.7425 7.50759C18.9055 7.67055 19.0343 7.86437 19.1214 8.07771C19.2086 8.29106 19.2523 8.51964 19.25 8.75008C19.25 9.0962 19.1474 9.43455 18.9551 9.72233C18.7628 10.0101 18.4895 10.2344 18.1697 10.3669C17.8499 10.4993 17.4981 10.534 17.1586 10.4665C16.8191 10.3989 16.5073 10.2323 16.2626 9.98752C16.0178 9.74278 15.8512 9.43096 15.7836 9.09149C15.7161 8.75203 15.7508 8.40016 15.8832 8.08039C16.0157 7.76062 16.24 7.4873 16.5278 7.29501ZM11.1035 15.8986C11.9942 16.3763 12.9893 16.6259 14 16.625C15.0107 16.6259 16.0058 16.3763 16.8965 15.8986C17.7871 15.4208 18.5455 14.7299 19.1039 13.8874L17.6461 12.9185C17.247 13.5201 16.7051 14.0136 16.069 14.355C15.4328 14.6964 14.722 14.875 14 14.875C13.278 14.875 12.5672 14.6964 11.931 14.355C11.2948 14.0136 10.753 13.5201 10.3539 12.9185L8.89612 13.8874C9.45447 14.7299 10.2129 15.4208 11.1035 15.8986Z" fill="url(#paint0_linear_498_444812)"/>
</g>
<defs>
<linearGradient id="paint0_linear_498_444812" x1="14" y1="1.75" x2="14" y2="26.25" gradientUnits="userSpaceOnUse">
<stop stop-color="#000AFF"/>
<stop offset="1" stop-color="#D274FF"/>
</linearGradient>
<clipPath id="clip0_498_444812">
<rect width="28" height="28" fill="white"/>
</clipPath>
</defs>
</svg>
