<svg width="72" height="12" viewBox="0 0 72 12" fill="none" xmlns="http://www.w3.org/2000/svg">
<path d="M71.5303 5.46967C71.8232 5.76256 71.8232 6.23744 71.5303 6.53033L66.7574 11.3033C66.4645 11.5962 65.9896 11.5962 65.6967 11.3033C65.4038 11.0104 65.4038 10.5355 65.6967 10.2426L69.9393 6L65.6967 1.75736C65.4038 1.46447 65.4038 0.989592 65.6967 0.696699C65.9896 0.403805 66.4645 0.403805 66.7574 0.696699L71.5303 5.46967ZM0.669868 5.99999L5 1.66987L9.33012 5.99999L5 10.3301L0.669868 5.99999ZM71 6.75L5 6.74999L5 5.24999L71 5.25L71 6.75Z" fill="#989DAE"/>
</svg>
