<svg width="12" height="31" viewBox="0 0 12 31" fill="none" xmlns="http://www.w3.org/2000/svg">
<path d="M5.46967 30.5303C5.76256 30.8232 6.23744 30.8232 6.53033 30.5303L11.3033 25.7574C11.5962 25.4645 11.5962 24.9896 11.3033 24.6967C11.0104 24.4038 10.5355 24.4038 10.2426 24.6967L6 28.9393L1.75736 24.6967C1.46447 24.4038 0.989593 24.4038 0.696699 24.6967C0.403806 24.9896 0.403806 25.4645 0.696699 25.7574L5.46967 30.5303ZM6 0.669872L1.66987 5L6 9.33013L10.3301 5L6 0.669872ZM6.75 30L6.75 5H5.25L5.25 30H6.75Z" fill="#989DAE"/>
</svg>
