<svg width="26" height="26" viewBox="0 0 26 26" fill="none" xmlns="http://www.w3.org/2000/svg">
<g clip-path="url(#clip0_256_64268)">
<path fill-rule="evenodd" clip-rule="evenodd" d="M5.60308 12.9992C5.60308 12.1548 5.74323 11.3452 5.99369 10.5859L1.61228 7.24023C0.758344 8.97391 0.277344 10.9276 0.277344 12.9992C0.277344 15.0693 0.757937 17.0215 1.61045 18.7542L5.98942 15.402C5.74141 14.6462 5.60308 13.8396 5.60308 12.9992Z" fill="#FBBC05"/>
<path fill-rule="evenodd" clip-rule="evenodd" d="M13.2959 5.31822C15.1303 5.31822 16.7872 5.96822 18.089 7.03178L21.8761 3.25C19.5683 1.24089 16.6096 0 13.2959 0C8.1511 0 3.72948 2.94206 1.6123 7.241L5.99351 10.5867C7.00304 7.52233 9.88071 5.31822 13.2959 5.31822Z" fill="#EA4335"/>
<path fill-rule="evenodd" clip-rule="evenodd" d="M13.2959 20.6825C9.88091 20.6825 7.00324 18.4784 5.99371 15.4141L1.6123 18.7591C3.72948 23.0587 8.1511 26.0007 13.2959 26.0007C16.4711 26.0007 19.5027 24.8732 21.7779 22.7607L17.6192 19.5456C16.4457 20.2848 14.968 20.6825 13.2959 20.6825Z" fill="#34A853"/>
<path fill-rule="evenodd" clip-rule="evenodd" d="M25.7225 13.0003C25.7225 12.2321 25.6041 11.4047 25.4265 10.6367H13.2959V15.6594H20.2785C19.9294 17.3719 18.9791 18.6884 17.6192 19.5452L21.778 22.7602C24.168 20.5421 25.7225 17.2377 25.7225 13.0003Z" fill="#4285F4"/>
</g>
<defs>
<clipPath id="clip0_256_64268">
<rect width="26" height="26" fill="white"/>
</clipPath>
</defs>
</svg>
