<svg width="16" height="17" viewBox="0 0 16 17" fill="none" xmlns="http://www.w3.org/2000/svg">
<path d="M13.5 5H2.5C2.22386 5 2 5.22386 2 5.5V13.5C2 13.7761 2.22386 14 2.5 14H13.5C13.7761 14 14 13.7761 14 13.5V5.5C14 5.22386 13.7761 5 13.5 5Z" stroke="#333333" stroke-width="1.2" stroke-linecap="round" stroke-linejoin="round"/>
<path d="M10.5 5V4C10.5 3.73478 10.3946 3.48043 10.2071 3.29289C10.0196 3.10536 9.76522 3 9.5 3H6.5C6.23478 3 5.98043 3.10536 5.79289 3.29289C5.60536 3.48043 5.5 3.73478 5.5 4V5" stroke="#333333" stroke-width="1.2" stroke-linecap="round" stroke-linejoin="round"/>
<path d="M14 8.39453C12.1764 9.44917 10.1066 10.0033 8 10.0008C5.89303 10.0063 3.82242 9.45195 2 8.39453" stroke="#333333" stroke-width="1.2" stroke-linecap="round" stroke-linejoin="round"/>
<path d="M7.25 8H8.75" stroke="#333333" stroke-width="1.5" stroke-linecap="round" stroke-linejoin="round"/>
</svg>
