<svg width="30" height="30" viewBox="0 0 30 30" fill="none" xmlns="http://www.w3.org/2000/svg">
<g opacity="0.5">
<rect width="30" height="30" rx="6" fill="#EBEFFF"/>
<path d="M20.5 11H9.5C9.22386 11 9 11.2239 9 11.5V19.5C9 19.7761 9.22386 20 9.5 20H20.5C20.7761 20 21 19.7761 21 19.5V11.5C21 11.2239 20.7761 11 20.5 11Z" stroke="#6174A4" stroke-width="1.2" stroke-linecap="round" stroke-linejoin="round"/>
<path d="M17.5 11V10C17.5 9.73478 17.3946 9.48043 17.2071 9.29289C17.0196 9.10536 16.7652 9 16.5 9H13.5C13.2348 9 12.9804 9.10536 12.7929 9.29289C12.6054 9.48043 12.5 9.73478 12.5 10V11" stroke="#6174A4" stroke-width="1.2" stroke-linecap="round" stroke-linejoin="round"/>
<path d="M21 14.3945C19.1764 15.4492 17.1066 16.0033 15 16.0008C12.893 16.0063 10.8224 15.4519 9 14.3945" stroke="#6174A4" stroke-width="1.2" stroke-linecap="round" stroke-linejoin="round"/>
<path d="M14.25 14H15.75" stroke="#6174A4" stroke-width="1.5" stroke-linecap="round" stroke-linejoin="round"/>
</g>
</svg>
