<svg width="17" height="17" viewBox="0 0 17 17" fill="none" xmlns="http://www.w3.org/2000/svg">
<path d="M13.9141 5.05469H3.08594C2.81411 5.05469 2.59375 5.27505 2.59375 5.54688V13.4219C2.59375 13.6937 2.81411 13.9141 3.08594 13.9141H13.9141C14.1859 13.9141 14.4062 13.6937 14.4062 13.4219V5.54688C14.4062 5.27505 14.1859 5.05469 13.9141 5.05469Z" stroke="#6174A4" stroke-width="1.2" stroke-linecap="round" stroke-linejoin="round"/>
<path d="M10.9609 5.05469V4.07031C10.9609 3.80924 10.8572 3.55886 10.6726 3.37425C10.488 3.18965 10.2376 3.08594 9.97656 3.08594H7.02344C6.76237 3.08594 6.51199 3.18965 6.32738 3.37425C6.14277 3.55886 6.03906 3.80924 6.03906 4.07031V5.05469" stroke="#6174A4" stroke-width="1.2" stroke-linecap="round" stroke-linejoin="round"/>
<path d="M14.4062 8.39453C12.6112 9.43269 10.5737 9.97815 8.5 9.97568C6.42595 9.98108 4.3877 9.43542 2.59375 8.39453" stroke="#6174A4" stroke-width="1.2" stroke-linecap="round" stroke-linejoin="round"/>
<path d="M7.76172 8.00781H9.23828" stroke="#6174A4" stroke-width="1.5" stroke-linecap="round" stroke-linejoin="round"/>
</svg>
