<svg width="16" height="16" viewBox="0 0 16 16" fill="none" xmlns="http://www.w3.org/2000/svg">
<g clip-path="url(#clip0_845_97168)">
<path d="M8 11C7.40666 11 6.82664 10.8241 6.33329 10.4944C5.83994 10.1648 5.45543 9.69623 5.22836 9.14805C5.0013 8.59987 4.94189 7.99667 5.05765 7.41473C5.1734 6.83279 5.45912 6.29824 5.87868 5.87868C6.29824 5.45912 6.83279 5.1734 7.41473 5.05765C7.99667 4.94189 8.59987 5.0013 9.14805 5.22836C9.69623 5.45543 10.1648 5.83994 10.4944 6.33329C10.8241 6.82664 11 7.40666 11 8C11 8.79565 10.6839 9.55871 10.1213 10.1213C9.55871 10.6839 8.79565 11 8 11ZM8 6C7.60444 6 7.21776 6.1173 6.88886 6.33706C6.55996 6.55682 6.30362 6.86918 6.15224 7.23463C6.00087 7.60009 5.96126 8.00222 6.03843 8.39018C6.1156 8.77814 6.30608 9.13451 6.58579 9.41421C6.86549 9.69392 7.22186 9.8844 7.60982 9.96157C7.99778 10.0387 8.39992 9.99914 8.76537 9.84776C9.13082 9.69638 9.44318 9.44004 9.66294 9.11114C9.8827 8.78224 10 8.39556 10 8C10 7.46957 9.78929 6.96086 9.41421 6.58579C9.03914 6.21071 8.53043 6 8 6Z" fill="#293C6A"/>
<path d="M10.5 15.5001H5.5C4.96957 15.5001 4.46086 15.2894 4.08579 14.9143C3.71071 14.5392 3.5 14.0305 3.5 13.5001V12.2251C3.5009 12.1258 3.53134 12.029 3.58744 11.9471C3.64354 11.8652 3.72276 11.8018 3.815 11.7651L5.635 11.0351C5.69669 11.0077 5.76328 10.9932 5.83076 10.9922C5.89824 10.9913 5.9652 11.004 6.02763 11.0297C6.09005 11.0553 6.14664 11.0933 6.19398 11.1414C6.24132 11.1895 6.27844 11.2467 6.30309 11.3095C6.32774 11.3723 6.33943 11.4395 6.33744 11.5069C6.33544 11.5744 6.31982 11.6408 6.2915 11.702C6.26318 11.7633 6.22275 11.8182 6.17266 11.8634C6.12256 11.9086 6.06383 11.9432 6 11.9651L4.5 12.5651V13.5001C4.5 13.7653 4.60536 14.0197 4.79289 14.2072C4.98043 14.3947 5.23478 14.5001 5.5 14.5001H10.5C10.7652 14.5001 11.0196 14.3947 11.2071 14.2072C11.3946 14.0197 11.5 13.7653 11.5 13.5001V12.5651L10 11.9651C9.87667 11.916 9.77789 11.82 9.72538 11.6981C9.67287 11.5762 9.67093 11.4384 9.72 11.3151C9.76906 11.1918 9.86511 11.093 9.98701 11.0405C10.1089 10.988 10.2467 10.986 10.37 11.0351L12.19 11.7651C12.2822 11.8018 12.3615 11.8652 12.4176 11.9471C12.4737 12.029 12.5041 12.1258 12.505 12.2251V13.5001C12.505 13.7632 12.4531 14.0236 12.3523 14.2666C12.2515 14.5096 12.1037 14.7303 11.9174 14.9161C11.7312 15.1019 11.5101 15.2491 11.2669 15.3493C11.0237 15.4495 10.7631 15.5008 10.5 15.5001Z" fill="#293C6A"/>
<path d="M4.5 5.5C4.00555 5.5 3.5222 5.35338 3.11108 5.07867C2.69995 4.80397 2.37952 4.41353 2.1903 3.95671C2.00108 3.49989 1.95157 2.99723 2.04804 2.51228C2.1445 2.02732 2.3826 1.58187 2.73223 1.23223C3.08187 0.882603 3.52732 0.644501 4.01228 0.548038C4.49723 0.451575 4.99989 0.501083 5.45671 0.690302C5.91352 0.879521 6.30397 1.19995 6.57867 1.61108C6.85338 2.0222 7 2.50555 7 3C7 3.32831 6.93534 3.6534 6.8097 3.95671C6.68406 4.26002 6.49991 4.53562 6.26777 4.76777C6.03562 4.99991 5.76002 5.18406 5.45671 5.3097C5.1534 5.43534 4.82831 5.5 4.5 5.5ZM4.5 1.5C4.20333 1.5 3.91332 1.58797 3.66665 1.7528C3.41997 1.91762 3.22771 2.15189 3.11418 2.42598C3.00065 2.70007 2.97095 3.00167 3.02882 3.29264C3.0867 3.58361 3.22956 3.85088 3.43934 4.06066C3.64912 4.27044 3.91639 4.4133 4.20737 4.47118C4.49834 4.52906 4.79994 4.49935 5.07403 4.38582C5.34812 4.27229 5.58238 4.08003 5.74721 3.83336C5.91203 3.58668 6 3.29667 6 3C6 2.60218 5.84197 2.22065 5.56066 1.93934C5.27936 1.65804 4.89783 1.5 4.5 1.5Z" fill="#293C6A"/>
<path d="M4 9.69559H2.5C1.96957 9.69559 1.46086 9.48487 1.08579 9.1098C0.710714 8.73473 0.5 8.22602 0.5 7.69559V6.82059C0.499903 6.72045 0.529878 6.62259 0.586041 6.53968C0.642204 6.45677 0.721968 6.39264 0.815 6.35559L2.41 5.73059C2.53147 5.68237 2.66699 5.68363 2.78755 5.73409C2.9081 5.78456 3.0041 5.88022 3.055 6.00059C3.07936 6.06165 3.09143 6.12691 3.09054 6.19264C3.08964 6.25837 3.0758 6.32328 3.04979 6.38365C3.02378 6.44403 2.98613 6.49868 2.93898 6.54448C2.89182 6.59029 2.8361 6.62634 2.775 6.65059L1.5 7.16059V7.69559C1.5 7.9608 1.60536 8.21516 1.79289 8.4027C1.98043 8.59023 2.23478 8.69559 2.5 8.69559H4C4.13261 8.69559 4.25979 8.74827 4.35355 8.84204C4.44732 8.9358 4.5 9.06298 4.5 9.19559C4.5 9.3282 4.44732 9.45537 4.35355 9.54914C4.25979 9.64291 4.13261 9.69559 4 9.69559Z" fill="#293C6A"/>
<path d="M11.5 5.5C11.0055 5.5 10.5222 5.35338 10.1111 5.07867C9.69995 4.80397 9.37952 4.41353 9.1903 3.95671C9.00108 3.49989 8.95157 2.99723 9.04804 2.51228C9.1445 2.02732 9.3826 1.58187 9.73223 1.23223C10.0819 0.882603 10.5273 0.644501 11.0123 0.548038C11.4972 0.451575 11.9999 0.501083 12.4567 0.690302C12.9135 0.879521 13.304 1.19995 13.5787 1.61108C13.8534 2.0222 14 2.50555 14 3C14 3.66304 13.7366 4.29893 13.2678 4.76777C12.7989 5.23661 12.163 5.5 11.5 5.5ZM11.5 1.5C11.2033 1.5 10.9133 1.58797 10.6666 1.7528C10.42 1.91762 10.2277 2.15189 10.1142 2.42598C10.0007 2.70007 9.97095 3.00167 10.0288 3.29264C10.0867 3.58361 10.2296 3.85088 10.4393 4.06066C10.6491 4.27044 10.9164 4.4133 11.2074 4.47118C11.4983 4.52906 11.7999 4.49935 12.074 4.38582C12.3481 4.27229 12.5824 4.08003 12.7472 3.83336C12.912 3.58668 13 3.29667 13 3C13 2.60218 12.842 2.22065 12.5607 1.93934C12.2794 1.65804 11.8978 1.5 11.5 1.5Z" fill="#293C6A"/>
<path d="M13.5 9.69463H12C11.8674 9.69463 11.7402 9.64195 11.6464 9.54818C11.5527 9.45441 11.5 9.32724 11.5 9.19463C11.5 9.06202 11.5527 8.93484 11.6464 8.84107C11.7402 8.74731 11.8674 8.69463 12 8.69463H13.5C13.7652 8.69463 14.0196 8.58927 14.2071 8.40174C14.3946 8.2142 14.5 7.95984 14.5 7.69463V7.15963L13.225 6.65963C13.1639 6.63538 13.1082 6.59933 13.061 6.55352C13.0139 6.50772 12.9762 6.45306 12.9502 6.39269C12.9242 6.33232 12.9104 6.26741 12.9095 6.20168C12.9086 6.13595 12.9206 6.07069 12.945 6.00963C12.993 5.88654 13.0878 5.78747 13.2087 5.73406C13.3296 5.68066 13.4666 5.67727 13.59 5.72463L15.185 6.34963C15.278 6.38668 15.3578 6.45081 15.414 6.53372C15.4701 6.61663 15.5001 6.71449 15.5 6.81463V7.68963C15.5007 7.95269 15.4494 8.2133 15.3492 8.45653C15.249 8.69976 15.1018 8.92083 14.916 9.10707C14.7302 9.29332 14.5095 9.44109 14.2665 9.54191C14.0235 9.64273 13.7631 9.69463 13.5 9.69463Z" fill="#293C6A"/>
</g>
<defs>
<clipPath id="clip0_845_97168">
<rect width="16" height="16" fill="white"/>
</clipPath>
</defs>
</svg>
