<svg width="22" height="22" viewBox="0 0 22 22" fill="none" xmlns="http://www.w3.org/2000/svg">
<g clip-path="url(#clip0_444_5521)">
<path d="M19.25 2.75H6.875C6.51066 2.75107 6.16154 2.89628 5.90391 3.15391C5.64628 3.41154 5.50107 3.76066 5.5 4.125V13.75C5.50107 14.1143 5.64628 14.4635 5.90391 14.7211C6.16154 14.9787 6.51066 15.1239 6.875 15.125H19.25C19.6143 15.1239 19.9635 14.9787 20.2211 14.7211C20.4787 14.4635 20.6239 14.1143 20.625 13.75V4.125C20.6239 3.76066 20.4787 3.41154 20.2211 3.15391C19.9635 2.89628 19.6143 2.75107 19.25 2.75ZM19.25 13.75H6.875V4.125H19.25V13.75Z" fill="#333333"/>
<path d="M12.375 17.875H2.75V11H4.125V9.625H2.75C2.38566 9.62607 2.03654 9.77128 1.77891 10.0289C1.52128 10.2865 1.37607 10.6357 1.375 11V17.875C1.37607 18.2393 1.52128 18.5885 1.77891 18.8461C2.03654 19.1037 2.38566 19.2489 2.75 19.25H12.375C12.7393 19.2489 13.0885 19.1037 13.3461 18.8461C13.6037 18.5885 13.7489 18.2393 13.75 17.875V16.5H12.375V17.875Z" fill="#333333"/>
</g>
<defs>
<clipPath id="clip0_444_5521">
<rect width="22" height="22" fill="white"/>
</clipPath>
</defs>
</svg>
