<svg width="22" height="23" viewBox="0 0 22 23" fill="none" xmlns="http://www.w3.org/2000/svg">
<g clip-path="url(#clip0_1135_237002)">
<path d="M18.7729 16.0733H3.22409C2.61779 16.0728 2.03647 15.8317 1.60776 15.403C1.17905 14.9743 0.937984 14.393 0.9375 13.7867V10.1281C0.937984 9.52185 1.17905 8.94053 1.60776 8.51181C2.03647 8.0831 2.61779 7.84204 3.22409 7.84155H18.7729C19.3792 7.84204 19.9605 8.0831 20.3892 8.51181C20.8179 8.94053 21.059 9.52185 21.0595 10.1281V13.7867C21.059 14.393 20.8179 14.9743 20.3892 15.403C19.9605 15.8317 19.3792 16.0728 18.7729 16.0733ZM3.22409 8.75619C2.86037 8.75667 2.51169 8.90137 2.2545 9.15856C1.99732 9.41574 1.85262 9.76442 1.85213 10.1281V13.7867C1.85262 14.1504 1.99732 14.4991 2.2545 14.7563C2.51169 15.0134 2.86037 15.1581 3.22409 15.1586H18.7729C19.1366 15.1581 19.4853 15.0134 19.7424 14.7563C19.9996 14.4991 20.1443 14.1504 20.1448 13.7867V10.1281C20.1443 9.76442 19.9996 9.41574 19.7424 9.15856C19.4853 8.90137 19.1366 8.75667 18.7729 8.75619H3.22409ZM15.5716 11.5001H6.4253V12.4147H15.5716V11.5001Z" fill="#333333"/>
</g>
<defs>
<clipPath id="clip0_1135_237002">
<rect width="21.9512" height="21.9512" fill="white" transform="translate(0.0234375 0.524414)"/>
</clipPath>
</defs>
</svg>
