<svg width="18" height="18" viewBox="0 0 18 18" fill="none" xmlns="http://www.w3.org/2000/svg">
<path d="M5.94922 8.72497C6.65667 10.1859 7.83802 11.3642 9.30078 12.0679C9.40868 12.119 9.52802 12.1411 9.64707 12.1321C9.76611 12.1231 9.88074 12.0832 9.97969 12.0164L12.1281 10.5812C12.223 10.5168 12.3327 10.4776 12.4469 10.467C12.5612 10.4565 12.6762 10.4751 12.7812 10.5211L16.8031 12.2484C16.9406 12.3056 17.0554 12.4064 17.13 12.5353C17.2045 12.6642 17.2346 12.814 17.2156 12.9617C17.0882 13.9566 16.6025 14.871 15.8496 15.5338C15.0967 16.1965 14.1281 16.5622 13.125 16.5625C10.0253 16.5625 7.05252 15.3311 4.86069 13.1393C2.66886 10.9474 1.4375 7.97469 1.4375 4.87497C1.43773 3.8719 1.80343 2.90329 2.46619 2.15037C3.12895 1.39745 4.04335 0.911815 5.03828 0.784342C5.18596 0.765373 5.33577 0.795474 5.46466 0.870011C5.59354 0.944547 5.69435 1.05939 5.75156 1.19684L7.47891 5.22731C7.52383 5.33073 7.54262 5.44362 7.53363 5.55602C7.52463 5.66842 7.48813 5.77688 7.42734 5.87184L5.99219 8.05466C5.92829 8.15338 5.89079 8.26685 5.88327 8.38421C5.87575 8.50157 5.89845 8.61889 5.94922 8.72497V8.72497Z" stroke="white" stroke-width="1.5" stroke-linecap="round" stroke-linejoin="round"/>
</svg>
