<svg width="17" height="12" viewBox="0 0 17 12" fill="none" xmlns="http://www.w3.org/2000/svg">
<path d="M0.813865 7.56131C0.81508 8.69194 1.26663 9.77592 2.06944 10.5754C2.87225 11.3749 3.96074 11.8246 5.09609 11.8258H8.85618V10.7858H5.09609C4.23732 10.7858 3.41373 10.4461 2.8065 9.8414C2.19926 9.23668 1.85812 8.41651 1.85812 7.56131C1.85812 6.70611 2.19926 5.88594 2.8065 5.28122C3.41373 4.6765 4.23732 4.33678 5.09609 4.33678H14.4887L12.2481 6.56955L12.9866 7.30502L16.4883 3.81682L12.9855 0.328613L12.2481 1.06408L14.4898 3.29686H5.09609C3.96074 3.29807 2.87225 3.74774 2.06944 4.54722C1.26663 5.3467 0.81508 6.43068 0.813865 7.56131Z" fill="black"/>
</svg>
