<svg width="19" height="18" viewBox="0 0 19 18" fill="none" xmlns="http://www.w3.org/2000/svg">
<path d="M1.81386 10.5613C1.81508 11.6919 2.26663 12.7759 3.06944 13.5754C3.87225 14.3749 4.96074 14.8246 6.09609 14.8258H9.85618V13.7858H6.09609C5.23732 13.7858 4.41373 13.4461 3.8065 12.8414C3.19926 12.2367 2.85812 11.4165 2.85812 10.5613C2.85812 9.70611 3.19926 8.88594 3.8065 8.28122C4.41373 7.6765 5.23732 7.33678 6.09609 7.33678H15.4887L13.2481 9.56955L13.9866 10.305L17.4883 6.81682L13.9855 3.32861L13.2481 4.06408L15.4898 6.29686H6.09609C4.96074 6.29807 3.87225 6.74774 3.06944 7.54722C2.26663 8.3467 1.81508 9.43068 1.81386 10.5613Z" fill="#645DF6"/>
</svg>
