<svg width="20" height="20" viewBox="0 0 20 20" fill="none" xmlns="http://www.w3.org/2000/svg">
<g id="building 1" clip-path="url(#clip0_1700_30136)">
<g id="Group">
<g id="Group_2">
<g id="Group_3">
<path id="Vector" d="M19.6667 19.3333H18.3334V8.33332C18.3334 8.14922 18.1841 8 18 8H12.3333V0.33332C12.3333 0.149219 12.1841 0 12 0H2C1.8159 0 1.66668 0.149258 1.66668 0.33332V19.3333H0.33332C0.149219 19.3333 0 19.4826 0 19.6666C0 19.8507 0.149258 20 0.33332 20H2H12H18H19.6667C19.8508 20 20 19.8507 20 19.6667C20 19.4826 19.8507 19.3333 19.6667 19.3333ZM11.6667 8.33332V19.3333H2.33332V0.66668H11.6666V8.33332H11.6667ZM17.6667 19.3333H12.3333V8.66668H17.6666V19.3333H17.6667Z" fill="black"/>
<path id="Vector_2" d="M4.00031 4.66667H6.00031C6.18441 4.66667 6.33363 4.51741 6.33363 4.33335V2.33335C6.33363 2.14925 6.18438 2.00003 6.00031 2.00003H4.00031C3.81621 2.00003 3.66699 2.14929 3.66699 2.33335V4.33335C3.66699 4.51741 3.81625 4.66667 4.00031 4.66667ZM4.33363 2.66667H5.66695V3.99999H4.33363V2.66667Z" fill="black"/>
<path id="Vector_3" d="M8.00031 4.66667H10.0003C10.1844 4.66667 10.3336 4.51741 10.3336 4.33335V2.33335C10.3336 2.14925 10.1844 2.00003 10.0003 2.00003H8.00031C7.81621 2.00003 7.66699 2.14929 7.66699 2.33335V4.33335C7.66699 4.51741 7.81621 4.66667 8.00031 4.66667ZM8.33363 2.66667H9.66695V3.99999H8.33363V2.66667Z" fill="black"/>
<path id="Vector_4" d="M4.00031 8.66667H6.00031C6.18441 8.66667 6.33363 8.51741 6.33363 8.33335V6.33335C6.33363 6.14925 6.18438 6.00003 6.00031 6.00003H4.00031C3.81621 6.00003 3.66699 6.14929 3.66699 6.33335V8.33335C3.66699 8.51741 3.81625 8.66667 4.00031 8.66667ZM4.33363 6.66667H5.66695V7.99999H4.33363V6.66667Z" fill="black"/>
<path id="Vector_5" d="M8.00031 8.66667H10.0003C10.1844 8.66667 10.3336 8.51741 10.3336 8.33335V6.33335C10.3336 6.14925 10.1844 6.00003 10.0003 6.00003H8.00031C7.81621 6.00003 7.66699 6.14929 7.66699 6.33335V8.33335C7.66699 8.51741 7.81621 8.66667 8.00031 8.66667ZM8.33363 6.66667H9.66695V7.99999H8.33363V6.66667Z" fill="black"/>
<path id="Vector_6" d="M4.00031 12.6667H6.00031C6.18441 12.6667 6.33363 12.5174 6.33363 12.3334V10.3334C6.33363 10.1492 6.18438 10 6.00031 10H4.00031C3.81621 10 3.66699 10.1493 3.66699 10.3334V12.3334C3.66699 12.5174 3.81625 12.6667 4.00031 12.6667ZM4.33363 10.6667H5.66695V12H4.33363V10.6667Z" fill="black"/>
<path id="Vector_7" d="M8.00031 12.6667H10.0003C10.1844 12.6667 10.3336 12.5174 10.3336 12.3334V10.3334C10.3336 10.1492 10.1844 10 10.0003 10H8.00031C7.81621 10 7.66699 10.1493 7.66699 10.3334V12.3334C7.66699 12.5174 7.81621 12.6667 8.00031 12.6667ZM8.33363 10.6667H9.66695V12H8.33363V10.6667Z" fill="black"/>
<path id="Vector_8" d="M4.00031 16.6667H6.00031C6.18441 16.6667 6.33363 16.5174 6.33363 16.3334V14.3334C6.33363 14.1492 6.18438 14 6.00031 14H4.00031C3.81621 14 3.66699 14.1493 3.66699 14.3334V16.3334C3.66699 16.5174 3.81625 16.6667 4.00031 16.6667ZM4.33363 14.6667H5.66695V16H4.33363V14.6667Z" fill="black"/>
<path id="Vector_9" d="M8.00031 16.6667H10.0003C10.1844 16.6667 10.3336 16.5174 10.3336 16.3334V14.3334C10.3336 14.1492 10.1844 14 10.0003 14H8.00031C7.81621 14 7.66699 14.1493 7.66699 14.3334V16.3334C7.66699 16.5174 7.81621 16.6667 8.00031 16.6667ZM8.33363 14.6667H9.66695V16H8.33363V14.6667Z" fill="black"/>
<path id="Vector_10" d="M14.0003 12.6667H16.0003C16.1844 12.6667 16.3336 12.5174 16.3336 12.3334V10.3334C16.3336 10.1492 16.1844 10 16.0003 10H14.0003C13.8162 10 13.667 10.1493 13.667 10.3334V12.3334C13.667 12.5174 13.8162 12.6667 14.0003 12.6667ZM14.3336 10.6667H15.667V12H14.3336V10.6667Z" fill="black"/>
<path id="Vector_11" d="M14.0003 16.6667H16.0003C16.1844 16.6667 16.3336 16.5174 16.3336 16.3334V14.3334C16.3336 14.1492 16.1844 14 16.0003 14H14.0003C13.8162 14 13.667 14.1493 13.667 14.3334V16.3334C13.667 16.5174 13.8162 16.6667 14.0003 16.6667ZM14.3336 14.6667H15.667V16H14.3336V14.6667Z" fill="black"/>
</g>
</g>
</g>
</g>
<defs>
<clipPath id="clip0_1700_30136">
<rect width="20" height="20" fill="white"/>
</clipPath>
</defs>
</svg>
