<svg width="33" height="37" viewBox="0 0 33 37" fill="none" xmlns="http://www.w3.org/2000/svg">
<rect x="16.2841" y="3.69238" width="16.284" height="16.5994" rx="8.14202" fill="#F6DDEF"/>
<path fill-rule="evenodd" clip-rule="evenodd" d="M4.32549 4.09717C3.82649 4.09717 3.40048 4.35403 3.12098 4.71466C2.84487 5.07092 2.7104 5.52167 2.7104 5.96338V29.77H1.73022C1.31601 29.77 0.980225 30.1057 0.980225 30.52C0.980225 30.9342 1.31601 31.27 1.73022 31.27L3.4604 31.2699H15.5717H24.2226L25.9527 31.27C26.3669 31.27 26.7027 30.9342 26.7027 30.52C26.7027 30.1057 26.3669 29.77 25.9527 29.77H24.9726V14.893C24.9726 14.4513 24.8381 14.0006 24.562 13.6443C24.2825 13.2837 23.8565 13.0268 23.3575 13.0268H16.3217V5.96338C16.3217 5.52167 16.1872 5.07092 15.9111 4.71466C15.6316 4.35403 15.2056 4.09717 14.7066 4.09717H4.32549ZM23.4726 14.893V29.77H16.3217V14.5268H23.3406C23.3476 14.5319 23.3605 14.5427 23.3764 14.5632C23.4247 14.6256 23.4726 14.7427 23.4726 14.893ZM14.8217 5.96338L14.8217 13.7768L14.8217 29.77H4.2104V5.96338C4.2104 5.81301 4.25823 5.69594 4.30659 5.63354C4.3225 5.613 4.33533 5.60221 4.34238 5.59717H14.6897C14.6967 5.60221 14.7096 5.613 14.7255 5.63354C14.7738 5.69593 14.8217 5.81301 14.8217 5.96338ZM6.92076 9.67821C6.50655 9.67821 6.17076 10.014 6.17076 10.4282C6.17076 10.8424 6.50655 11.1782 6.92076 11.1782H10.3811C10.7953 11.1782 11.1311 10.8424 11.1311 10.4282C11.1311 10.014 10.7953 9.67821 10.3811 9.67821H6.92076ZM7.90094 19.3579C7.90094 18.9437 8.23673 18.6079 8.65094 18.6079H12.1113C12.5255 18.6079 12.8613 18.9437 12.8613 19.3579C12.8613 19.7721 12.5255 20.1079 12.1113 20.1079H8.65094C8.23673 20.1079 7.90094 19.7721 7.90094 19.3579ZM6.92076 24.1889C6.50655 24.1889 6.17076 24.5247 6.17076 24.9389C6.17076 25.3531 6.50655 25.6889 6.92076 25.6889H10.3811C10.7953 25.6889 11.1311 25.3531 11.1311 24.9389C11.1311 24.5247 10.7953 24.1889 10.3811 24.1889H6.92076ZM18.282 24.9389C18.282 24.5247 18.6178 24.1889 19.032 24.1889H20.7622C21.1764 24.1889 21.5122 24.5247 21.5122 24.9389C21.5122 25.3531 21.1764 25.6889 20.7622 25.6889H19.032C18.6178 25.6889 18.282 25.3531 18.282 24.9389ZM19.032 18.6079C18.6178 18.6079 18.282 18.9437 18.282 19.3579C18.282 19.7721 18.6178 20.1079 19.032 20.1079H20.7622C21.1764 20.1079 21.5122 19.7721 21.5122 19.3579C21.5122 18.9437 21.1764 18.6079 20.7622 18.6079H19.032Z" fill="url(#paint0_linear_925_28728)"/>
<defs>
<linearGradient id="paint0_linear_925_28728" x1="13.8415" y1="4.09717" x2="13.8415" y2="31.27" gradientUnits="userSpaceOnUse">
<stop stop-color="#000AFF"/>
<stop offset="1" stop-color="#D274FF"/>
</linearGradient>
</defs>
</svg>
