<svg width="17" height="18" viewBox="0 0 17 18" fill="none" xmlns="http://www.w3.org/2000/svg">
<path d="M1.0625 15.1875H15.9375" stroke="#333333" stroke-width="1.2" stroke-linecap="round" stroke-linejoin="round"/>
<path d="M9.5625 15.1875V2.8125C9.5625 2.66332 9.50653 2.52024 9.4069 2.41475C9.30727 2.30926 9.17215 2.25 9.03125 2.25H2.65625C2.51535 2.25 2.38023 2.30926 2.2806 2.41475C2.18097 2.52024 2.125 2.66332 2.125 2.8125V15.1875" stroke="#333333" stroke-width="1.2" stroke-linecap="round" stroke-linejoin="round"/>
<path d="M14.875 15.1875V7.3125C14.875 7.16332 14.819 7.02024 14.7194 6.91475C14.6198 6.80926 14.4846 6.75 14.3438 6.75H9.5625" stroke="#333333" stroke-width="1.2" stroke-linecap="round" stroke-linejoin="round"/>
<path d="M4.25 5.0625H6.375" stroke="#333333" stroke-width="1.2" stroke-linecap="round" stroke-linejoin="round"/>
<path d="M5.3125 9.5625H7.4375" stroke="#333333" stroke-width="1.2" stroke-linecap="round" stroke-linejoin="round"/>
<path d="M4.25 12.375H6.375" stroke="#333333" stroke-width="1.2" stroke-linecap="round" stroke-linejoin="round"/>
<path d="M11.6875 12.375H12.75" stroke="#333333" stroke-width="1.2" stroke-linecap="round" stroke-linejoin="round"/>
<path d="M11.6875 9.5625H12.75" stroke="#333333" stroke-width="1.2" stroke-linecap="round" stroke-linejoin="round"/>
</svg>
