<svg width="22" height="28" viewBox="0 0 22 28" fill="none" xmlns="http://www.w3.org/2000/svg">
<path fill-rule="evenodd" clip-rule="evenodd" d="M3.4375 2.6875C2.99536 2.6875 2.61573 2.90816 2.36571 3.22068C2.11917 3.52886 2 3.91753 2 4.29688V22.4531H1.375C0.960786 22.4531 0.625 22.7889 0.625 23.2031C0.625 23.6173 0.960786 23.9531 1.375 23.9531L2.75 23.9531H12.375H19.25L20.625 23.9531C21.0392 23.9531 21.375 23.6173 21.375 23.2031C21.375 22.7889 21.0392 22.4531 20.625 22.4531H20V11.1719C20 10.7925 19.8808 10.4039 19.6343 10.0957C19.3843 9.78316 19.0046 9.5625 18.5625 9.5625H13.125V4.29688C13.125 3.91753 13.0058 3.52886 12.7593 3.22068C12.5093 2.90816 12.1296 2.6875 11.6875 2.6875H3.4375ZM18.5 11.1719V22.4531H13.125V11.0625H18.4795C18.4899 11.0869 18.5 11.1239 18.5 11.1719ZM11.625 4.29688V10.3125V22.4531H3.5V4.29688C3.5 4.24887 3.51012 4.21188 3.52046 4.1875H11.6045C11.6149 4.21188 11.625 4.24887 11.625 4.29688ZM5.5 6.98438C5.08579 6.98438 4.75 7.32016 4.75 7.73438C4.75 8.14859 5.08579 8.48438 5.5 8.48438H8.25C8.66421 8.48438 9 8.14859 9 7.73438C9 7.32016 8.66421 6.98438 8.25 6.98438H5.5ZM6.125 14.6094C6.125 14.1952 6.46079 13.8594 6.875 13.8594H9.625C10.0392 13.8594 10.375 14.1952 10.375 14.6094C10.375 15.0236 10.0392 15.3594 9.625 15.3594H6.875C6.46079 15.3594 6.125 15.0236 6.125 14.6094ZM5.5 18.1562C5.08579 18.1562 4.75 18.492 4.75 18.9062C4.75 19.3205 5.08579 19.6562 5.5 19.6562H8.25C8.66421 19.6562 9 19.3205 9 18.9062C9 18.492 8.66421 18.1562 8.25 18.1562H5.5ZM14.375 18.9062C14.375 18.492 14.7108 18.1562 15.125 18.1562H16.5C16.9142 18.1562 17.25 18.492 17.25 18.9062C17.25 19.3205 16.9142 19.6562 16.5 19.6562H15.125C14.7108 19.6562 14.375 19.3205 14.375 18.9062ZM15.125 13.8594C14.7108 13.8594 14.375 14.1952 14.375 14.6094C14.375 15.0236 14.7108 15.3594 15.125 15.3594H16.5C16.9142 15.3594 17.25 15.0236 17.25 14.6094C17.25 14.1952 16.9142 13.8594 16.5 13.8594H15.125Z" fill="url(#paint0_linear_52_6033)"/>
<defs>
<linearGradient id="paint0_linear_52_6033" x1="11" y1="2.6875" x2="11" y2="23.9531" gradientUnits="userSpaceOnUse">
<stop stop-color="#000AFF"/>
<stop offset="1" stop-color="#D274FF"/>
</linearGradient>
</defs>
</svg>
