<svg width="20" height="21" viewBox="0 0 20 21" fill="none" xmlns="http://www.w3.org/2000/svg">
<path d="M4.375 8.09766C5.41053 8.09766 6.25 7.25819 6.25 6.22266C6.25 5.18712 5.41053 4.34766 4.375 4.34766C3.33947 4.34766 2.5 5.18712 2.5 6.22266C2.5 7.25819 3.33947 8.09766 4.375 8.09766Z" fill="#212529"/>
<path d="M4.375 16.8477C5.41053 16.8477 6.25 16.0082 6.25 14.9727C6.25 13.9371 5.41053 13.0977 4.375 13.0977C3.33947 13.0977 2.5 13.9371 2.5 14.9727C2.5 16.0082 3.33947 16.8477 4.375 16.8477Z" fill="#212529"/>
<path d="M10 14.3477H18.75V15.5977H10V14.3477ZM10 5.59766H18.75V6.84766H10V5.59766Z" fill="#212529"/>
</svg>
