<svg width="23" height="23" viewBox="0 0 23 23" fill="none" xmlns="http://www.w3.org/2000/svg">
<g id="business-and-trade 1" clip-path="url(#clip0_137_941)">
<path id="Vector" d="M12.1669 2.23204L2.1355 0.707705C1.66999 0.634683 1.19534 0.762472 0.83936 1.06369C0.483376 1.37403 0.273438 1.82129 0.273438 2.28681V21.519C0.273438 22.0211 0.684188 22.4318 1.18622 22.4318H4.15274V17.6397C4.15274 16.7543 4.86471 16.0424 5.7501 16.0424H8.03205C8.91744 16.0424 9.62941 16.7543 9.62941 17.6397V22.4318H13.5087V3.81115C13.5087 3.02616 12.9428 2.35983 12.1669 2.23204ZM5.29372 13.9886H3.92455C3.54666 13.9886 3.23997 13.6819 3.23997 13.304C3.23997 12.9261 3.54666 12.6195 3.92455 12.6195H5.29372C5.67161 12.6195 5.9783 12.9261 5.9783 13.304C5.9783 13.6819 5.67161 13.9886 5.29372 13.9886ZM5.29372 11.2503H3.92455C3.54666 11.2503 3.23997 10.9436 3.23997 10.5657C3.23997 10.1878 3.54666 9.88112 3.92455 9.88112H5.29372C5.67161 9.88112 5.9783 10.1878 5.9783 10.5657C5.9783 10.9436 5.67161 11.2503 5.29372 11.2503ZM5.29372 8.51196H3.92455C3.54666 8.51196 3.23997 8.20526 3.23997 7.82737C3.23997 7.44948 3.54666 7.14279 3.92455 7.14279H5.29372C5.67161 7.14279 5.9783 7.44948 5.9783 7.82737C5.9783 8.20526 5.67161 8.51196 5.29372 8.51196ZM5.29372 5.77362H3.92455C3.54666 5.77362 3.23997 5.46693 3.23997 5.08904C3.23997 4.71115 3.54666 4.40446 3.92455 4.40446H5.29372C5.67161 4.40446 5.9783 4.71115 5.9783 5.08904C5.9783 5.46693 5.67161 5.77362 5.29372 5.77362ZM9.8576 13.9886H8.48844C8.11055 13.9886 7.80385 13.6819 7.80385 13.304C7.80385 12.9261 8.11055 12.6195 8.48844 12.6195H9.8576C10.2355 12.6195 10.5422 12.9261 10.5422 13.304C10.5422 13.6819 10.2355 13.9886 9.8576 13.9886ZM9.8576 11.2503H8.48844C8.11055 11.2503 7.80385 10.9436 7.80385 10.5657C7.80385 10.1878 8.11055 9.88112 8.48844 9.88112H9.8576C10.2355 9.88112 10.5422 10.1878 10.5422 10.5657C10.5422 10.9436 10.2355 11.2503 9.8576 11.2503ZM9.8576 8.51196H8.48844C8.11055 8.51196 7.80385 8.20526 7.80385 7.82737C7.80385 7.44948 8.11055 7.14279 8.48844 7.14279H9.8576C10.2355 7.14279 10.5422 7.44948 10.5422 7.82737C10.5422 8.20526 10.2355 8.51196 9.8576 8.51196ZM9.8576 5.77362H8.48844C8.11055 5.77362 7.80385 5.46693 7.80385 5.08904C7.80385 4.71115 8.11055 4.40446 8.48844 4.40446H9.8576C10.2355 4.40446 10.5422 4.71115 10.5422 5.08904C10.5422 5.46693 10.2355 5.77362 9.8576 5.77362Z" fill="#8190B7"/>
<path id="Vector_2" d="M20.9209 10.4215L14.4219 9.06055V22.4318H20.5831C21.464 22.4318 22.1805 21.7153 22.1805 20.8345V11.9823C22.1805 11.2284 21.6666 10.5867 20.9209 10.4215ZM18.7576 19.6935H17.3884C17.0105 19.6935 16.7038 19.3868 16.7038 19.0089C16.7038 18.631 17.0105 18.3243 17.3884 18.3243H18.7576C19.1355 18.3243 19.4422 18.631 19.4422 19.0089C19.4422 19.3868 19.1355 19.6935 18.7576 19.6935ZM18.7576 16.9552H17.3884C17.0105 16.9552 16.7038 16.6485 16.7038 16.2706C16.7038 15.8927 17.0105 15.586 17.3884 15.586H18.7576C19.1355 15.586 19.4422 15.8927 19.4422 16.2706C19.4422 16.6485 19.1355 16.9552 18.7576 16.9552ZM18.7576 14.2168H17.3884C17.0105 14.2168 16.7038 13.9101 16.7038 13.5322C16.7038 13.1544 17.0105 12.8477 17.3884 12.8477H18.7576C19.1355 12.8477 19.4422 13.1544 19.4422 13.5322C19.4422 13.9101 19.1355 14.2168 18.7576 14.2168Z" fill="#8190B7"/>
</g>
<defs>
<clipPath id="clip0_137_941">
<rect width="21.9067" height="21.9067" fill="white" transform="translate(0.273438 0.525146)"/>
</clipPath>
</defs>
</svg>
