<svg width="22" height="23" viewBox="0 0 22 23" fill="none" xmlns="http://www.w3.org/2000/svg">
<g clip-path="url(#clip0_987_197201)">
<path d="M18.7504 16.0488H3.20162C2.59533 16.0484 2.01401 15.8073 1.5853 15.3786C1.15659 14.9499 0.915524 14.3686 0.915039 13.7623V10.1037C0.915524 9.49743 1.15659 8.91611 1.5853 8.4874C2.01401 8.05869 2.59533 7.81762 3.20162 7.81714H18.7504C19.3567 7.81762 19.938 8.05869 20.3667 8.4874C20.7954 8.91611 21.0365 9.49743 21.037 10.1037V13.7623C21.0365 14.3686 20.7954 14.9499 20.3667 15.3786C19.938 15.8073 19.3567 16.0484 18.7504 16.0488ZM3.20162 8.73177C2.83791 8.73226 2.48923 8.87696 2.23204 9.13414C1.97486 9.39133 1.83016 9.74001 1.82967 10.1037V13.7623C1.83016 14.126 1.97486 14.4747 2.23204 14.7318C2.48923 14.989 2.83791 15.1337 3.20162 15.1342H18.7504C19.1141 15.1337 19.4628 14.989 19.72 14.7318C19.9772 14.4747 20.1219 14.126 20.1224 13.7623V10.1037C20.1219 9.74001 19.9772 9.39133 19.72 9.13414C19.4628 8.87696 19.1141 8.73226 18.7504 8.73177H3.20162ZM15.5492 11.4757H6.40284V12.3903H15.5492V11.4757Z" fill="url(#paint0_linear_987_197201)"/>
</g>
<defs>
<linearGradient id="paint0_linear_987_197201" x1="10.976" y1="7.81714" x2="10.976" y2="16.0488" gradientUnits="userSpaceOnUse">
<stop stop-color="#0033EA"/>
<stop offset="1" stop-color="#8A0074"/>
</linearGradient>
<clipPath id="clip0_987_197201">
<rect width="21.9512" height="21.9512" fill="white" transform="translate(0 0.5)"/>
</clipPath>
</defs>
</svg>
