<svg width="41" height="46" viewBox="0 0 41 46" fill="none" xmlns="http://www.w3.org/2000/svg">
<circle cx="30" cy="11" r="11" fill="#F7DDEF"/>
<path d="M36.0679 44.7119H35.4238V43.1919C35.4238 40.9157 34.2355 38.8457 32.3149 37.6271C34.2355 36.4085 35.4238 34.3392 35.4238 32.0624V30.5424H36.0679C36.424 30.5424 36.7119 30.2545 36.7119 29.8983C36.7119 29.5421 36.424 29.2542 36.0679 29.2542H35.4238H34.7797H25.7628H25.1187H24.4746C24.1185 29.2542 23.8306 29.5421 23.8306 29.8983C23.8306 30.2545 24.1185 30.5424 24.4746 30.5424H25.1187V32.0624C25.1187 34.3385 26.307 36.4085 28.2276 37.6271C26.307 38.8457 25.1187 40.9151 25.1187 43.1919V44.7119H24.4746C24.1185 44.7119 23.8306 44.9998 23.8306 45.3559C23.8306 45.7121 24.1185 46 24.4746 46H25.1187H25.7628H34.7797H35.4238H36.0679C36.424 46 36.7119 45.7121 36.7119 45.3559C36.7119 44.9998 36.424 44.7119 36.0679 44.7119ZM26.4068 32.0624V30.5424H34.1357V32.0624C34.1357 34.2 32.8263 36.1187 30.7884 36.9831H29.7547C27.7162 36.1187 26.4068 34.2007 26.4068 32.0624ZM26.4068 43.1919C26.4068 41.0542 27.7162 39.1355 29.7541 38.2712H30.7878C32.8263 39.1355 34.1357 41.0536 34.1357 43.1919V44.7119H26.4068V43.1919Z" fill="url(#paint0_linear_106_1992)"/>
<path d="M30.2712 28.6102V21.5254H24.4746H23.1865H18.678H17.3899H12.8814H11.5932H5.79663V27.322V28.6102V33.1186V34.4068V40.2034H11.5932H12.8814H18.678V34.4068V33.1186V28.6102H23.1865H24.4746H30.2712ZM12.8814 22.8136H17.3899V27.322H12.8814V22.8136ZM7.08477 22.8136H11.5932V27.322H7.08477V22.8136ZM7.08477 28.6102H11.5932V33.1186H7.08477V28.6102ZM11.5932 38.9153H7.08477V34.4068H11.5932V38.9153ZM17.3899 38.9153H12.8814V34.4068H17.3899V38.9153ZM17.3899 33.1186H12.8814V28.6102H17.3899V33.1186ZM23.1865 27.322H18.678V22.8136H23.1865V27.322ZM24.4746 22.8136H28.9831V27.322H24.4746V22.8136Z" fill="url(#paint1_linear_106_1992)"/>
<path d="M21.2542 43.4237H2.57622V18.3051H33.4915V26.0339C33.4915 26.3901 33.7794 26.678 34.1355 26.678C34.4917 26.678 34.7796 26.3901 34.7796 26.0339V17.661V11.2203C34.7796 10.8642 34.4917 10.5763 34.1355 10.5763H30.9152V8.64407C30.9152 8.2879 30.6273 8 30.2711 8H25.7627C25.4065 8 25.1186 8.2879 25.1186 8.64407V10.5763H10.9491V8.64407C10.9491 8.2879 10.6612 8 10.305 8H5.79656C5.44039 8 5.15249 8.2879 5.15249 8.64407V10.5763H1.93215C1.57598 10.5763 1.28809 10.8642 1.28809 11.2203V17.661V44.0678C1.28809 44.424 1.57598 44.7119 1.93215 44.7119H21.2542C21.6104 44.7119 21.8983 44.424 21.8983 44.0678C21.8983 43.7116 21.6104 43.4237 21.2542 43.4237ZM26.4067 9.28814H29.6271V11.2203V13.1525H26.4067V11.2203V9.28814ZM6.44063 9.28814H9.66097V11.2203V13.1525H6.44063V11.2203V9.28814ZM2.57622 11.8644H5.15249V13.7966C5.15249 14.1528 5.44039 14.4407 5.79656 14.4407H10.305C10.6612 14.4407 10.9491 14.1528 10.9491 13.7966V11.8644H25.1186V13.7966C25.1186 14.1528 25.4065 14.4407 25.7627 14.4407H30.2711C30.6273 14.4407 30.9152 14.1528 30.9152 13.7966V11.8644H33.4915V17.0169H2.57622V11.8644Z" fill="url(#paint2_linear_106_1992)"/>
<defs>
<linearGradient id="paint0_linear_106_1992" x1="30.2712" y1="29.2542" x2="30.2712" y2="46" gradientUnits="userSpaceOnUse">
<stop stop-color="#346DFF"/>
<stop offset="1" stop-color="#FD89FF"/>
</linearGradient>
<linearGradient id="paint1_linear_106_1992" x1="18.0339" y1="21.5254" x2="18.0339" y2="40.2034" gradientUnits="userSpaceOnUse">
<stop stop-color="#346DFF"/>
<stop offset="1" stop-color="#FD89FF"/>
</linearGradient>
<linearGradient id="paint2_linear_106_1992" x1="18.0338" y1="8" x2="18.0338" y2="44.7119" gradientUnits="userSpaceOnUse">
<stop stop-color="#346DFF"/>
<stop offset="1" stop-color="#FD89FF"/>
</linearGradient>
</defs>
</svg>
