<svg width="18" height="19" viewBox="0 0 18 19" fill="none" xmlns="http://www.w3.org/2000/svg">
<path d="M11 16.5391H7.5C4.67157 16.5391 3.25736 16.5391 2.37868 15.6604C1.5 14.7817 1.5 13.3675 1.5 10.5391V9.03906C1.5 6.21063 1.5 4.79642 2.37868 3.91774C3.25736 3.03906 4.67157 3.03906 7.5 3.03906H10.5C13.3284 3.03906 14.7427 3.03906 15.6213 3.91774C16.5 4.79642 16.5 6.21063 16.5 9.03906V10.5391C16.5 13.3675 16.5 14.7817 15.6213 15.6604C15.1314 16.1503 14.4751 16.367 13.5 16.4629" stroke="url(#paint0_linear_787_618788)" stroke-linecap="round"/>
<path d="M5.25 3.03906V1.91406" stroke="url(#paint1_linear_787_618788)" stroke-linecap="round"/>
<path d="M12.75 3.03906V1.91406" stroke="url(#paint2_linear_787_618788)" stroke-linecap="round"/>
<path d="M16.125 6.78906H12.4688H8.0625M1.5 6.78906H4.40625" stroke="url(#paint3_linear_787_618788)" stroke-linecap="round"/>
<path d="M13.5 12.7891C13.5 13.2033 13.1642 13.5391 12.75 13.5391C12.3358 13.5391 12 13.2033 12 12.7891C12 12.3748 12.3358 12.0391 12.75 12.0391C13.1642 12.0391 13.5 12.3748 13.5 12.7891Z" fill="url(#paint4_linear_787_618788)"/>
<path d="M13.5 9.78906C13.5 10.2033 13.1642 10.5391 12.75 10.5391C12.3358 10.5391 12 10.2033 12 9.78906C12 9.37484 12.3358 9.03906 12.75 9.03906C13.1642 9.03906 13.5 9.37484 13.5 9.78906Z" fill="url(#paint5_linear_787_618788)"/>
<path d="M9.75 12.7891C9.75 13.2033 9.41422 13.5391 9 13.5391C8.58578 13.5391 8.25 13.2033 8.25 12.7891C8.25 12.3748 8.58578 12.0391 9 12.0391C9.41422 12.0391 9.75 12.3748 9.75 12.7891Z" fill="url(#paint6_linear_787_618788)"/>
<path d="M9.75 9.78906C9.75 10.2033 9.41422 10.5391 9 10.5391C8.58578 10.5391 8.25 10.2033 8.25 9.78906C8.25 9.37484 8.58578 9.03906 9 9.03906C9.41422 9.03906 9.75 9.37484 9.75 9.78906Z" fill="url(#paint7_linear_787_618788)"/>
<path d="M6 12.7891C6 13.2033 5.66421 13.5391 5.25 13.5391C4.83579 13.5391 4.5 13.2033 4.5 12.7891C4.5 12.3748 4.83579 12.0391 5.25 12.0391C5.66421 12.0391 6 12.3748 6 12.7891Z" fill="url(#paint8_linear_787_618788)"/>
<path d="M6 9.78906C6 10.2033 5.66421 10.5391 5.25 10.5391C4.83579 10.5391 4.5 10.2033 4.5 9.78906C4.5 9.37484 4.83579 9.03906 5.25 9.03906C5.66421 9.03906 6 9.37484 6 9.78906Z" fill="url(#paint9_linear_787_618788)"/>
<defs>
<linearGradient id="paint0_linear_787_618788" x1="9" y1="3.03906" x2="9" y2="16.5391" gradientUnits="userSpaceOnUse">
<stop stop-color="#000AFF"/>
<stop offset="1" stop-color="#D274FF"/>
</linearGradient>
<linearGradient id="paint1_linear_787_618788" x1="5.75" y1="1.91406" x2="5.75" y2="3.03906" gradientUnits="userSpaceOnUse">
<stop stop-color="#000AFF"/>
<stop offset="1" stop-color="#D274FF"/>
</linearGradient>
<linearGradient id="paint2_linear_787_618788" x1="13.25" y1="1.91406" x2="13.25" y2="3.03906" gradientUnits="userSpaceOnUse">
<stop stop-color="#000AFF"/>
<stop offset="1" stop-color="#D274FF"/>
</linearGradient>
<linearGradient id="paint3_linear_787_618788" x1="8.8125" y1="6.78906" x2="8.8125" y2="7.78906" gradientUnits="userSpaceOnUse">
<stop stop-color="#000AFF"/>
<stop offset="1" stop-color="#D274FF"/>
</linearGradient>
<linearGradient id="paint4_linear_787_618788" x1="12.75" y1="12.0391" x2="12.75" y2="13.5391" gradientUnits="userSpaceOnUse">
<stop stop-color="#000AFF"/>
<stop offset="1" stop-color="#D274FF"/>
</linearGradient>
<linearGradient id="paint5_linear_787_618788" x1="12.75" y1="9.03906" x2="12.75" y2="10.5391" gradientUnits="userSpaceOnUse">
<stop stop-color="#000AFF"/>
<stop offset="1" stop-color="#D274FF"/>
</linearGradient>
<linearGradient id="paint6_linear_787_618788" x1="9" y1="12.0391" x2="9" y2="13.5391" gradientUnits="userSpaceOnUse">
<stop stop-color="#000AFF"/>
<stop offset="1" stop-color="#D274FF"/>
</linearGradient>
<linearGradient id="paint7_linear_787_618788" x1="9" y1="9.03906" x2="9" y2="10.5391" gradientUnits="userSpaceOnUse">
<stop stop-color="#000AFF"/>
<stop offset="1" stop-color="#D274FF"/>
</linearGradient>
<linearGradient id="paint8_linear_787_618788" x1="5.25" y1="12.0391" x2="5.25" y2="13.5391" gradientUnits="userSpaceOnUse">
<stop stop-color="#000AFF"/>
<stop offset="1" stop-color="#D274FF"/>
</linearGradient>
<linearGradient id="paint9_linear_787_618788" x1="5.25" y1="9.03906" x2="5.25" y2="10.5391" gradientUnits="userSpaceOnUse">
<stop stop-color="#000AFF"/>
<stop offset="1" stop-color="#D274FF"/>
</linearGradient>
</defs>
</svg>
