<svg width="72" height="72" viewBox="0 0 72 72" fill="none" xmlns="http://www.w3.org/2000/svg">
<g opacity="0.7">
<path d="M65.1429 70.7757H6.85718C5.50461 70.7757 4.4082 69.6793 4.4082 68.3267V25.2798H67.5919V68.3267C67.5919 69.6793 66.4955 70.7757 65.1429 70.7757Z" fill="white"/>
<path d="M25.1016 1.22461H17.5098V13.9593H25.1016V1.22461Z" fill="#1E1E38"/>
<path d="M58.1633 7.5918V17.6326H43.2245V7.5918H28.7756V17.6326H13.8368V7.5918H6.85718C5.50461 7.5918 4.4082 8.68821 4.4082 10.0408V25.2796H67.5919V10.0408C67.5919 8.68821 66.4955 7.5918 65.1429 7.5918H58.1633Z" fill="#1E1E38"/>
<path d="M54.4903 1.22461H46.8984V13.9593H54.4903V1.22461Z" fill="#1E1E38"/>
<path d="M17.5096 15.1837H25.1015C25.7776 15.1837 26.326 14.6353 26.326 13.9592V1.22449C26.326 0.548327 25.7776 0 25.1015 0H17.5096C16.8335 0 16.2852 0.548327 16.2852 1.22449V13.9592C16.2852 14.6353 16.8335 15.1837 17.5096 15.1837ZM18.7341 2.44898H23.877V12.7347H18.7341V2.44898Z" fill="#1E1E38"/>
<path d="M65.1428 6.36719H58.1632C57.4868 6.36719 56.9387 6.91551 56.9387 7.59168V16.408H44.4489V7.59168C44.4489 6.91551 43.9008 6.36719 43.2244 6.36719H28.7754C28.0993 6.36719 27.5509 6.91551 27.5509 7.59168V16.408H15.0611V7.59168C15.0611 6.91551 14.5128 6.36719 13.8367 6.36719H6.85706C4.83151 6.36719 3.18359 8.01511 3.18359 10.0407V25.2794V68.3264C3.18359 70.3519 4.83151 71.9998 6.85706 71.9998H65.1428C67.1686 71.9998 68.8163 70.3519 68.8163 68.3264V25.2794V10.0407C68.8163 8.01511 67.1686 6.36719 65.1428 6.36719ZM5.63257 10.0407C5.63257 9.36547 6.18188 8.81617 6.85706 8.81617H12.6122V17.6325C12.6122 18.3087 13.1605 18.857 13.8367 18.857H28.7754C29.4516 18.857 29.9999 18.3087 29.9999 17.6325V8.81617H41.9999V17.6325C41.9999 18.3087 42.548 18.857 43.2244 18.857H58.1632C58.8396 18.857 59.3877 18.3087 59.3877 17.6325V8.81617H65.1428C65.818 8.81617 66.3673 9.36547 66.3673 10.0407V24.0549H5.63257V10.0407ZM66.3673 68.3264C66.3673 69.0016 65.818 69.5509 65.1428 69.5509H6.85706C6.18188 69.5509 5.63257 69.0016 5.63257 68.3264V26.5039H66.3673V68.3264Z" fill="#1E1E38"/>
<path d="M46.8983 15.1837H54.4902C55.1666 15.1837 55.7146 14.6353 55.7146 13.9592V1.22449C55.7146 0.548327 55.1666 0 54.4902 0H46.8983C46.2219 0 45.6738 0.548327 45.6738 1.22449V13.9592C45.6738 14.6353 46.2219 15.1837 46.8983 15.1837ZM48.1228 2.44898H53.2657V12.7347H48.1228V2.44898Z" fill="#1E1E38"/>
<path d="M26.9576 59.4205C24.5755 59.4205 23.0324 58.5817 21.8917 57.1055L19.3418 60.2928C21.0529 62.373 23.7032 63.5135 27.1254 63.5135C32.4262 63.5135 35.8482 60.8296 35.8482 56.6358C35.8482 53.5158 33.9696 51.1336 31.1513 50.6639C33.7011 50.1942 35.412 47.8459 35.412 45.1956C35.412 41.6394 32.2918 39.2573 27.7629 39.2573C24.2736 39.2573 21.0193 40.6329 19.6773 42.6793L22.4956 45.8328C23.5357 44.122 25.2132 43.1488 27.2596 43.1488C29.2389 43.1488 30.6145 44.0546 30.6145 45.8664C30.6145 47.7788 29.004 49.1541 26.2866 49.1541H25.2465V52.509H26.186C29.5408 52.509 31.1848 53.8175 31.1848 56.1323C31.1848 58.3469 29.6753 59.4205 26.9576 59.4205Z" fill="#1E1E38"/>
<path d="M44.0012 44.3566V54.522H39.2372V58.5815H52.8584V54.522H48.5977V39.4248H44.0012C43.6321 40.1965 40.2102 42.6119 38.5664 42.6119V46.8058C40.3106 46.8058 43.2293 45.3966 44.0012 44.3566Z" fill="#1E1E38"/>
</g>
</svg>
