<svg width="27" height="27" viewBox="0 0 27 27" fill="none" xmlns="http://www.w3.org/2000/svg">
<rect width="27" height="27" rx="13.5" fill="#8190B7"/>
<g clip-path="url(#clip0_176_38069)">
<path d="M13 10.25C12.585 10.25 12.25 10.585 12.25 11C12.25 11.415 12.585 11.75 13 11.75C13.415 11.75 13.75 11.415 13.75 11C13.75 10.585 13.415 10.25 13 10.25ZM13 7.25C12.585 7.25 12.25 7.585 12.25 8C12.25 8.415 12.585 8.75 13 8.75C13.415 8.75 13.75 8.415 13.75 8C13.75 7.585 13.415 7.25 13 7.25ZM13 13.3325C12.6325 13.3325 12.3325 13.63 12.3325 14C12.3325 14.37 12.6325 14.6675 13 14.6675C13.3675 14.6675 13.6675 14.37 13.6675 14C13.6675 13.63 13.3675 13.3325 13 13.3325ZM14.5 14.5H21.5V13.5H14.5V14.5ZM14.5 11.5H21.5V10.5H14.5V11.5ZM14.5 7.5V8.5H21.5V7.5H14.5Z" fill="white"/>
</g>
<path fill-rule="evenodd" clip-rule="evenodd" d="M10.1739 13.5181C10.5035 13.8835 10.399 14.2974 10.1076 14.6901C10.0385 14.7832 9.95884 14.875 9.86265 14.9761C9.81648 15.0246 9.78048 15.0611 9.70517 15.1365C9.53415 15.3077 9.39038 15.4515 9.27386 15.568C9.21736 15.6245 9.60314 16.3954 10.3518 17.1448C11.1001 17.8939 11.8709 18.2799 11.9277 18.2231L12.3587 17.7918C12.5961 17.5543 12.7218 17.4396 12.8945 17.3263C13.2536 17.0907 13.6452 17.0267 13.9756 17.3221C15.0541 18.0936 15.6644 18.567 15.9634 18.8777C16.5466 19.4836 16.4702 20.4164 15.9667 20.9485C15.7922 21.1331 15.5708 21.3546 15.3094 21.6066C13.7279 23.189 10.3902 22.226 7.8322 19.6655C5.27364 17.1044 4.31119 13.7664 5.88937 12.1874C6.1727 11.8996 6.26611 11.8063 6.54205 11.5344C7.0558 11.0282 8.0316 10.9489 8.62479 11.5349C8.93681 11.8431 9.43426 12.4831 10.1739 13.5181ZM13.1539 18.5873L12.7228 19.0186C11.99 19.7518 10.7421 19.1268 9.55659 17.9402C8.3703 16.7527 7.74604 15.5052 8.47906 14.7723C8.59542 14.6559 8.73905 14.5122 8.90994 14.3412C8.9789 14.2721 9.01044 14.2402 9.04829 14.2004C9.09987 14.1462 9.14226 14.0986 9.17619 14.0564C8.52067 13.1433 8.07506 12.5727 7.83484 12.3354C7.71077 12.2129 7.43298 12.2354 7.33099 12.3359C7.05899 12.6039 6.96959 12.6933 6.6874 12.9799C5.67248 13.9954 6.44944 16.6901 8.62743 18.8702C10.8047 21.0496 13.499 21.827 14.5217 20.8039C14.779 20.5556 14.9888 20.3458 15.1502 20.1752C15.2669 20.0519 15.2877 19.7974 15.1535 19.658C14.93 19.4258 14.3828 18.9992 13.438 18.3207C13.3692 18.3761 13.2845 18.4565 13.1539 18.5873Z" fill="white"/>
<defs>
<clipPath id="clip0_176_38069">
<rect width="12" height="12" fill="white" transform="translate(11 5)"/>
</clipPath>
</defs>
</svg>
