<svg width="17" height="17" viewBox="0 0 17 17" fill="none" xmlns="http://www.w3.org/2000/svg">
<g id="Phone">
<path id="Vector" d="M6.50781 8.77854C7.02233 9.84105 7.88149 10.698 8.94531 11.2098C9.02378 11.2469 9.11058 11.263 9.19716 11.2565C9.28373 11.2499 9.3671 11.2209 9.43906 11.1723L11.0016 10.1285C11.0706 10.0817 11.1504 10.0531 11.2334 10.0455C11.3165 10.0378 11.4001 10.0514 11.4766 10.0848L14.4016 11.341C14.5015 11.3826 14.585 11.456 14.6393 11.5497C14.6935 11.6434 14.7154 11.7524 14.7016 11.8598C14.6089 12.5834 14.2557 13.2484 13.7081 13.7304C13.1605 14.2124 12.4561 14.4784 11.7266 14.4785C9.47222 14.4785 7.31021 13.583 5.71616 11.9889C4.1221 10.3949 3.22656 8.23288 3.22656 5.97854C3.22673 5.24903 3.4927 4.54459 3.9747 3.99701C4.45671 3.44943 5.12173 3.09624 5.84531 3.00354C5.95271 2.98974 6.06167 3.01163 6.1554 3.06584C6.24914 3.12005 6.32245 3.20357 6.36406 3.30354L7.62031 6.23479C7.65298 6.31 7.66665 6.3921 7.66011 6.47385C7.65357 6.55559 7.62702 6.63447 7.58281 6.70354L6.53906 8.29104C6.49259 8.36284 6.46532 8.44536 6.45985 8.53071C6.45438 8.61606 6.47089 8.70139 6.50781 8.77854V8.77854Z" stroke="#333333" stroke-width="1.2" stroke-linecap="round" stroke-linejoin="round"/>
</g>
</svg>
