<svg width="20" height="20" viewBox="0 0 20 20" fill="none" xmlns="http://www.w3.org/2000/svg">
<path d="M10.7027 15.1307C12.13 15.849 13.8103 16.367 15.7813 16.5886C16.2597 16.6424 16.6667 16.2592 16.6667 15.7778V13.984C16.6667 13.6016 16.4065 13.2682 16.0355 13.1755L13.7912 12.6144C13.5072 12.5434 13.2067 12.6267 12.9997 12.8337L10.7027 15.1307ZM10.7027 15.1307C8.10631 13.824 6.34761 11.8542 5.20105 9.79899M5.20105 9.79899C4.10867 7.84104 3.57192 5.80561 3.39575 4.19236C3.3446 3.72403 3.72386 3.33333 4.19498 3.33333H5.98357C6.3808 3.33333 6.72281 3.61371 6.80072 4.00323L7.4126 7.06267C7.46725 7.33589 7.38173 7.61834 7.18471 7.81535L5.20105 9.79899Z" stroke="white"/>
</svg>
