<svg width="18" height="18" viewBox="0 0 18 18" fill="none" xmlns="http://www.w3.org/2000/svg">
<g clip-path="url(#clip0_301_3141)">
<path d="M15.75 15.75H2.25C1.95173 15.7497 1.66576 15.6311 1.45485 15.4201C1.24394 15.2092 1.12531 14.9233 1.125 14.625V11.8125H2.25V14.625H15.75V11.8125H16.875V14.625C16.8747 14.9233 16.7561 15.2092 16.5451 15.4201C16.3342 15.6311 16.0483 15.7497 15.75 15.75Z" fill="black"/>
<path d="M14.0625 11.8125H3.9375V12.9375H14.0625V11.8125Z" fill="black"/>
<path d="M14.0625 9H3.9375V10.125H14.0625V9Z" fill="black"/>
<path d="M14.0625 6.1875H3.9375V7.3125H14.0625V6.1875Z" fill="black"/>
<path d="M14.0625 3.375H3.9375V4.5H14.0625V3.375Z" fill="black"/>
</g>
<defs>
<clipPath id="clip0_301_3141">
<rect width="18" height="18" fill="white"/>
</clipPath>
</defs>
</svg>
