<svg width="16" height="16" viewBox="0 0 16 16" fill="none" xmlns="http://www.w3.org/2000/svg">
<path d="M8.70274 13.1307C10.13 13.849 11.8103 14.367 13.7813 14.5886C14.2597 14.6424 14.6667 14.2592 14.6667 13.7778V11.984C14.6667 11.6016 14.4065 11.2682 14.0355 11.1755L11.7912 10.6144C11.5072 10.5434 11.2067 10.6267 10.9997 10.8337L8.70274 13.1307ZM8.70274 13.1307C6.10631 11.824 4.34761 9.85416 3.20105 7.79899M3.20105 7.79899C2.10867 5.84104 1.57192 3.80561 1.39575 2.19236C1.3446 1.72403 1.72386 1.33333 2.19498 1.33333H3.98357C4.3808 1.33333 4.72281 1.61371 4.80072 2.00323L5.4126 5.06267C5.46725 5.33589 5.38173 5.61834 5.18471 5.81535L3.20105 7.79899Z" stroke="white"/>
</svg>
