<svg width="34" height="34" viewBox="0 0 34 34" fill="none" xmlns="http://www.w3.org/2000/svg">
<path fill-rule="evenodd" clip-rule="evenodd" d="M7.84159 8.90841C7.84159 7.448 9.01737 6.27031 10.4601 6.27031H23.3343C24.777 6.27031 25.9528 7.448 25.9528 8.90841V25.0989C25.9528 26.5593 24.777 27.737 23.3343 27.737H10.4601C9.01737 27.737 7.84159 26.5593 7.84159 25.0989V23.4798C7.84159 23.1485 7.57296 22.8798 7.24159 22.8798H5.63232C5.30095 22.8798 5.03232 23.1485 5.03232 23.4798C5.03232 23.8112 5.30095 24.0798 5.63232 24.0798H6.64159V25.0989C6.64159 27.2152 8.34779 28.937 10.4601 28.937H23.3343C25.4466 28.937 27.1528 27.2152 27.1528 25.0989V8.90841C27.1528 6.79212 25.4466 5.07031 23.3343 5.07031H10.4601C8.34779 5.07031 6.64159 6.79212 6.64159 8.90841V9.92745H5.63232C5.30095 9.92745 5.03232 10.1961 5.03232 10.5275C5.03232 10.8588 5.30095 11.1275 5.63232 11.1275H7.24159C7.57296 11.1275 7.84159 10.8588 7.84159 10.5275V8.90841ZM14.4287 13.7656C14.4287 12.3871 15.5381 11.2775 16.8972 11.2775C18.2563 11.2775 19.3657 12.3871 19.3657 13.7656C19.3657 15.144 18.2563 16.2536 16.8972 16.2536C15.5381 16.2536 14.4287 15.144 14.4287 13.7656ZM16.8972 9.77745C14.7012 9.77745 12.9287 11.5673 12.9287 13.7656C12.9287 14.8098 13.3287 15.7619 13.984 16.4738C12.4309 17.0163 11.3194 18.501 11.3194 20.2417V21.8608C11.3194 23.1649 12.3714 24.2298 13.6787 24.2298H20.1157C21.423 24.2298 22.475 23.1649 22.475 21.8608V20.2417C22.475 18.501 21.3635 17.0163 19.8104 16.4738C20.4657 15.7619 20.8657 14.8098 20.8657 13.7656C20.8657 11.5673 19.0932 9.77745 16.8972 9.77745ZM5.03232 17.0036C5.03232 16.6723 5.30095 16.4036 5.63232 16.4036H7.24159C7.57296 16.4036 7.84159 16.6723 7.84159 17.0036C7.84159 17.335 7.57296 17.6036 7.24159 17.6036H5.63232C5.30095 17.6036 5.03232 17.335 5.03232 17.0036ZM5.63232 13.1656C5.30095 13.1656 5.03232 13.4342 5.03232 13.7656C5.03232 14.0969 5.30095 14.3656 5.63232 14.3656H7.24159C7.57296 14.3656 7.84159 14.0969 7.84159 13.7656C7.84159 13.4342 7.57296 13.1656 7.24159 13.1656H5.63232ZM4.88232 20.2417C4.88232 19.8275 5.21811 19.4917 5.63232 19.4917H7.24159C7.65581 19.4917 7.99159 19.8275 7.99159 20.2417C7.99159 20.656 7.65581 20.9917 7.24159 20.9917H5.63232C5.21811 20.9917 4.88232 20.656 4.88232 20.2417ZM12.8194 20.2417C12.8194 18.8633 13.9289 17.7536 15.2879 17.7536H18.5065C19.8655 17.7536 20.975 18.8633 20.975 20.2417V21.8608C20.975 22.345 20.586 22.7298 20.1157 22.7298H13.6787C13.2084 22.7298 12.8194 22.345 12.8194 21.8608V20.2417Z" fill="url(#paint0_linear_302_1211992)"/>
<defs>
<linearGradient id="paint0_linear_302_1211992" x1="16.0176" y1="5.07031" x2="16.0176" y2="28.937" gradientUnits="userSpaceOnUse">
<stop stop-color="#000AFF"/>
<stop offset="1" stop-color="#D274FF"/>
</linearGradient>
</defs>
</svg>
