<svg width="214" height="76" viewBox="0 0 214 76" fill="none" xmlns="http://www.w3.org/2000/svg">
<g opacity="0.2" filter="url(#filter0_d_189_13494)">
<rect x="16" y="11" width="182" height="44" rx="6" fill="#645DF6"/>
</g>
<rect x="21" y="16" width="172" height="34" rx="6" fill="#645DF6"/>
<path d="M96.0029 30.161V32.813H99.1229V34.022H96.0029V36.791H99.5129V38H94.5209V28.952H99.5129V30.161H96.0029ZM104.952 30.72C105.516 30.72 106.018 30.837 106.46 31.071C106.911 31.305 107.262 31.6517 107.513 32.111C107.765 32.5703 107.89 33.125 107.89 33.775V38H106.421V33.996C106.421 33.3547 106.261 32.865 105.94 32.527C105.62 32.1803 105.182 32.007 104.627 32.007C104.073 32.007 103.631 32.1803 103.301 32.527C102.981 32.865 102.82 33.3547 102.82 33.996V38H101.338V30.837H102.82V31.656C103.063 31.3613 103.371 31.1317 103.743 30.967C104.125 30.8023 104.528 30.72 104.952 30.72ZM109.287 34.386C109.287 33.6667 109.434 33.0297 109.729 32.475C110.032 31.9203 110.439 31.4913 110.951 31.188C111.471 30.876 112.047 30.72 112.68 30.72C113.148 30.72 113.607 30.824 114.058 31.032C114.517 31.2313 114.881 31.5 115.15 31.838V28.38H116.645V38H115.15V36.921C114.907 37.2677 114.569 37.5537 114.136 37.779C113.711 38.0043 113.221 38.117 112.667 38.117C112.043 38.117 111.471 37.961 110.951 37.649C110.439 37.3283 110.032 36.8863 109.729 36.323C109.434 35.751 109.287 35.1053 109.287 34.386ZM115.15 34.412C115.15 33.918 115.046 33.489 114.838 33.125C114.638 32.761 114.374 32.4837 114.045 32.293C113.715 32.1023 113.36 32.007 112.979 32.007C112.597 32.007 112.242 32.1023 111.913 32.293C111.583 32.475 111.315 32.748 111.107 33.112C110.907 33.4673 110.808 33.892 110.808 34.386C110.808 34.88 110.907 35.3133 111.107 35.686C111.315 36.0587 111.583 36.3447 111.913 36.544C112.251 36.7347 112.606 36.83 112.979 36.83C113.36 36.83 113.715 36.7347 114.045 36.544C114.374 36.3533 114.638 36.076 114.838 35.712C115.046 35.3393 115.15 34.906 115.15 34.412ZM121.474 34.412C121.474 33.6753 121.621 33.0297 121.916 32.475C122.219 31.9117 122.635 31.4783 123.164 31.175C123.693 30.8717 124.299 30.72 124.984 30.72C125.851 30.72 126.566 30.928 127.129 31.344C127.701 31.7513 128.087 32.3363 128.286 33.099H126.687C126.557 32.7437 126.349 32.4663 126.063 32.267C125.777 32.0677 125.417 31.968 124.984 31.968C124.377 31.968 123.892 32.1847 123.528 32.618C123.173 33.0427 122.995 33.6407 122.995 34.412C122.995 35.1833 123.173 35.7857 123.528 36.219C123.892 36.6523 124.377 36.869 124.984 36.869C125.842 36.869 126.41 36.492 126.687 35.738H128.286C128.078 36.466 127.688 37.0467 127.116 37.48C126.544 37.9047 125.833 38.117 124.984 38.117C124.299 38.117 123.693 37.9653 123.164 37.662C122.635 37.35 122.219 36.9167 121.916 36.362C121.621 35.7987 121.474 35.1487 121.474 34.412ZM129.269 34.386C129.269 33.6667 129.416 33.0297 129.711 32.475C130.014 31.9203 130.422 31.4913 130.933 31.188C131.453 30.876 132.025 30.72 132.649 30.72C133.212 30.72 133.702 30.8327 134.118 31.058C134.543 31.2747 134.881 31.5477 135.132 31.877V30.837H136.627V38H135.132V36.934C134.881 37.272 134.538 37.5537 134.105 37.779C133.672 38.0043 133.178 38.117 132.623 38.117C132.008 38.117 131.444 37.961 130.933 37.649C130.422 37.3283 130.014 36.8863 129.711 36.323C129.416 35.751 129.269 35.1053 129.269 34.386ZM135.132 34.412C135.132 33.918 135.028 33.489 134.82 33.125C134.621 32.761 134.356 32.4837 134.027 32.293C133.698 32.1023 133.342 32.007 132.961 32.007C132.58 32.007 132.224 32.1023 131.895 32.293C131.566 32.475 131.297 32.748 131.089 33.112C130.89 33.4673 130.79 33.892 130.79 34.386C130.79 34.88 130.89 35.3133 131.089 35.686C131.297 36.0587 131.566 36.3447 131.895 36.544C132.233 36.7347 132.588 36.83 132.961 36.83C133.342 36.83 133.698 36.7347 134.027 36.544C134.356 36.3533 134.621 36.076 134.82 35.712C135.028 35.3393 135.132 34.906 135.132 34.412ZM140.056 28.38V38H138.574V28.38H140.056ZM143.483 28.38V38H142.001V28.38H143.483Z" fill="white"/>
<path d="M80.3249 31.751C79.3492 31.4119 78.2874 31.4133 77.3125 31.7548C77.241 31.7804 77.1773 31.8241 77.1278 31.8818C77.0783 31.9394 77.0447 32.0089 77.0302 32.0835L76.7093 33.6961C76.6955 33.7677 76.6638 33.8348 76.6172 33.8909C76.5705 33.947 76.5104 33.9904 76.4424 34.017L73.8554 35.0495C73.7678 35.0856 73.6708 35.0919 73.5793 35.0675C73.4877 35.043 73.4068 34.9892 73.3489 34.9142C72.9585 34.4091 72.7656 33.7791 72.8062 33.1421C72.8467 32.5051 73.118 31.9047 73.5693 31.4532C74.9641 30.0584 76.8558 29.2748 78.8284 29.2748C80.8009 29.2748 82.6927 30.0584 84.0875 31.4532C84.5387 31.9047 84.81 32.5051 84.8506 33.1421C84.8912 33.7791 84.6982 34.4091 84.3079 34.9142C84.25 34.9892 84.169 35.043 84.0775 35.0675C83.986 35.0919 83.8889 35.0856 83.8013 35.0495L81.2104 34.0132C81.1437 33.9868 81.0844 33.9445 81.0379 33.8899C80.9914 33.8352 80.959 33.77 80.9436 33.6999L80.6072 32.0719C80.5915 31.9988 80.5573 31.9308 80.5079 31.8746C80.4585 31.8184 80.3955 31.7759 80.3249 31.751V31.751Z" stroke="white" strokeWidth="1.2" strokeLinecap="round" strokeLinejoin="round"/>
<path d="M80.3755 37.6406L78.8287 39.1874L77.2819 37.6406" stroke="white" strokeWidth="1.2" strokeLinecap="round" strokeLinejoin="round"/>
<path d="M78.8284 35.4749V39.1872" stroke="white" strokeWidth="1.2" strokeLinecap="round" strokeLinejoin="round"/>
<defs>
<filter id="filter0_d_189_13494" x="0" y="0" width="214" height="76" filterUnits="userSpaceOnUse" color-interpolation-filters="sRGB">
<feFlood flood-opacity="0" result="BackgroundImageFix"/>
<feColorMatrix in="SourceAlpha" type="matrix" values="0 0 0 0 0 0 0 0 0 0 0 0 0 0 0 0 0 0 127 0" result="hardAlpha"/>
<feMorphology radius="3" operator="dilate" in="SourceAlpha" result="effect1_dropShadow_189_13494"/>
<feOffset dy="5"/>
<feGaussianBlur stdDeviation="6.5"/>
<feComposite in2="hardAlpha" operator="out"/>
<feColorMatrix type="matrix" values="0 0 0 0 0.0166667 0 0 0 0 0.296834 0 0 0 0 1 0 0 0 1 0"/>
<feBlend mode="normal" in2="BackgroundImageFix" result="effect1_dropShadow_189_13494"/>
<feBlend mode="normal" in="SourceGraphic" in2="effect1_dropShadow_189_13494" result="shape"/>
</filter>
</defs>
</svg>
