<svg width="26" height="25" viewBox="0 0 26 25" fill="none" xmlns="http://www.w3.org/2000/svg">
<g clip-path="url(#clip0_103_3512)">
<path d="M22.0039 21.875H3.25391C2.83964 21.8746 2.44246 21.7098 2.14953 21.4169C1.8566 21.1239 1.69184 20.7268 1.69141 20.3125V16.4062H3.25391V20.3125H22.0039V16.4062H23.5664V20.3125C23.566 20.7268 23.4012 21.1239 23.1083 21.4169C22.8153 21.7098 22.4182 21.8746 22.0039 21.875Z" fill="url(#paint0_linear_103_3512)"/>
<path d="M19.6602 16.4062H5.59766V17.9688H19.6602V16.4062Z" fill="url(#paint1_linear_103_3512)"/>
<path d="M19.6602 12.5H5.59766V14.0625H19.6602V12.5Z" fill="url(#paint2_linear_103_3512)"/>
<path d="M19.6602 8.59375H5.59766V10.1562H19.6602V8.59375Z" fill="url(#paint3_linear_103_3512)"/>
<path d="M19.6602 4.6875H5.59766V6.25H19.6602V4.6875Z" fill="url(#paint4_linear_103_3512)"/>
</g>
<defs>
<linearGradient id="paint0_linear_103_3512" x1="12.6289" y1="16.4062" x2="12.6289" y2="21.875" gradientUnits="userSpaceOnUse">
<stop stop-color="#0033EA"/>
<stop offset="1" stop-color="#8A0074"/>
</linearGradient>
<linearGradient id="paint1_linear_103_3512" x1="12.6289" y1="16.4062" x2="12.6289" y2="17.9688" gradientUnits="userSpaceOnUse">
<stop stop-color="#0033EA"/>
<stop offset="1" stop-color="#8A0074"/>
</linearGradient>
<linearGradient id="paint2_linear_103_3512" x1="12.6289" y1="12.5" x2="12.6289" y2="14.0625" gradientUnits="userSpaceOnUse">
<stop stop-color="#0033EA"/>
<stop offset="1" stop-color="#8A0074"/>
</linearGradient>
<linearGradient id="paint3_linear_103_3512" x1="12.6289" y1="8.59375" x2="12.6289" y2="10.1562" gradientUnits="userSpaceOnUse">
<stop stop-color="#0033EA"/>
<stop offset="1" stop-color="#8A0074"/>
</linearGradient>
<linearGradient id="paint4_linear_103_3512" x1="12.6289" y1="4.6875" x2="12.6289" y2="6.25" gradientUnits="userSpaceOnUse">
<stop stop-color="#0033EA"/>
<stop offset="1" stop-color="#8A0074"/>
</linearGradient>
<clipPath id="clip0_103_3512">
<rect width="25" height="25" fill="white" transform="translate(0.128906)"/>
</clipPath>
</defs>
</svg>
