<svg width="17" height="17" viewBox="0 0 17 17" fill="none" xmlns="http://www.w3.org/2000/svg">
<path d="M6.14258 8.28767C6.68925 9.41659 7.60211 10.3271 8.73242 10.8709C8.8158 10.9104 8.90802 10.9274 9.00001 10.9205C9.09199 10.9135 9.18057 10.8827 9.25703 10.831L10.9172 9.72205C10.9905 9.6723 11.0753 9.64195 11.1635 9.63382C11.2518 9.62569 11.3407 9.64005 11.4219 9.67556L14.5297 11.0103C14.6359 11.0545 14.7246 11.1324 14.7822 11.232C14.8398 11.3316 14.8631 11.4474 14.8484 11.5615C14.7499 12.3303 14.3747 13.0369 13.7929 13.549C13.2111 14.0612 12.4626 14.3437 11.6875 14.3439C9.29226 14.3439 6.99513 13.3924 5.30144 11.6987C3.60775 10.005 2.65625 7.70791 2.65625 5.31267C2.65642 4.53758 2.93902 3.7891 3.45115 3.2073C3.96328 2.6255 4.66986 2.25024 5.43867 2.15174C5.55278 2.13708 5.66855 2.16034 5.76814 2.21794C5.86774 2.27553 5.94564 2.36427 5.98984 2.47049L7.32461 5.58494C7.35932 5.66486 7.37384 5.75209 7.36689 5.83894C7.35994 5.92579 7.33174 6.0096 7.28477 6.08299L6.17578 7.76971C6.12641 7.84599 6.09743 7.93367 6.09162 8.02436C6.0858 8.11504 6.10335 8.20571 6.14258 8.28767V8.28767Z" stroke="#2D50C8" stroke-width="1.2" stroke-linecap="round" stroke-linejoin="round"/>
<path d="M11.1562 3.1875H13.8125V5.84375" stroke="#2D50C8" stroke-width="1.2" stroke-linecap="round" stroke-linejoin="round"/>
<path d="M10.625 6.375L13.8125 3.1875" stroke="#2D50C8" stroke-width="1.2" stroke-linecap="round" stroke-linejoin="round"/>
</svg>
