<svg width="16" height="17" viewBox="0 0 16 17" fill="none" xmlns="http://www.w3.org/2000/svg">
<path d="M5.78125 8.29953C6.29576 9.36204 7.15492 10.219 8.21875 10.7308C8.29722 10.7679 8.38402 10.784 8.47059 10.7774C8.55717 10.7709 8.64054 10.7419 8.7125 10.6933L10.275 9.64953C10.344 9.60271 10.4238 9.57414 10.5069 9.56649C10.5899 9.55884 10.6736 9.57236 10.75 9.60578L13.675 10.862C13.775 10.9036 13.8585 10.977 13.9127 11.0707C13.9669 11.1644 13.9888 11.2734 13.975 11.3808C13.8823 12.1044 13.5291 12.7694 12.9815 13.2514C12.4339 13.7334 11.7295 13.9994 11 13.9995C8.74566 13.9995 6.58365 13.104 4.98959 11.5099C3.39553 9.91588 2.5 7.75387 2.5 5.49953C2.50016 4.77003 2.76613 4.06558 3.24814 3.518C3.73015 2.97043 4.39516 2.61724 5.11875 2.52453C5.22615 2.51074 5.33511 2.53263 5.42884 2.58684C5.52258 2.64105 5.59589 2.72456 5.6375 2.82453L6.89375 5.75578C6.92642 5.831 6.94009 5.9131 6.93355 5.99484C6.92701 6.07659 6.90046 6.15547 6.85625 6.22453L5.8125 7.81203C5.76603 7.88383 5.73876 7.96636 5.73329 8.05171C5.72782 8.13706 5.74433 8.22239 5.78125 8.29953V8.29953Z" stroke="#333333" strokeWidth="1.2" strokeLinecap="round" strokeLinejoin="round"/>
<path d="M12 6C12.8284 6 13.5 5.32843 13.5 4.5C13.5 3.67157 12.8284 3 12 3C11.1716 3 10.5 3.67157 10.5 4.5C10.5 5.32843 11.1716 6 12 6Z" stroke="#333333" strokeWidth="0.9" strokeLinecap="round" strokeLinejoin="round"/>
<path d="M13.7407 2.53418C13.8198 2.6071 13.8948 2.6821 13.9657 2.75918L14.8188 2.88105C14.9578 3.12246 15.0649 3.38086 15.1375 3.6498L14.6188 4.34043C14.6188 4.34043 14.6282 4.55293 14.6188 4.65918L15.1375 5.3498C15.0653 5.61886 14.9581 5.8773 14.8188 6.11855L13.9657 6.24043C13.9657 6.24043 13.8188 6.39355 13.7407 6.46543L13.6188 7.31855C13.3774 7.45756 13.119 7.5647 12.85 7.6373L12.1594 7.11855C12.0534 7.12793 11.9467 7.12793 11.8407 7.11855L11.15 7.6373C10.881 7.56504 10.6225 7.45788 10.3813 7.31855L10.2594 6.46543C10.1823 6.39251 10.1073 6.31751 10.0344 6.24043L9.1813 6.11855C9.04229 5.87715 8.93515 5.61875 8.86255 5.3498L9.3813 4.65918C9.3813 4.65918 9.37192 4.44668 9.3813 4.34043L8.86255 3.6498C8.93481 3.38075 9.04197 3.12231 9.1813 2.88105L10.0344 2.75918C10.1073 2.6821 10.1823 2.6071 10.2594 2.53418L10.3813 1.68105C10.6227 1.54205 10.8811 1.43491 11.15 1.3623L11.8407 1.88105C11.9467 1.87168 12.0534 1.87168 12.1594 1.88105L12.85 1.3623C13.1191 1.43457 13.3775 1.54173 13.6188 1.68105L13.7407 2.53418Z" stroke="#333333" strokeWidth="0.9" strokeLinecap="round" strokeLinejoin="round"/>
</svg>
