<svg width="25" height="17" viewBox="0 0 25 17" fill="none" xmlns="http://www.w3.org/2000/svg">
<rect x="1.5" y="0.5" width="15.0002" height="11.0001" rx="1.5" stroke="white"/>
<path d="M1 13.9995L12.0001 13.9995" stroke="white" stroke-linecap="round"/>
<circle cx="17.5" cy="8.625" r="7.5" fill="#8196CA"/>
<path d="M18.7018 12.9671C19.7302 13.4853 20.9409 13.859 22.3611 14.0188C22.7057 14.0577 22.999 13.7812 22.999 13.434V12.14C22.999 11.8641 22.8115 11.6237 22.5442 11.5568L20.9271 11.152C20.7225 11.1008 20.506 11.1609 20.3569 11.3102L18.7018 12.9671ZM18.7018 12.9671C16.831 12.0246 15.5638 10.6036 14.7377 9.1211M14.7377 9.1211C13.9506 7.70871 13.5639 6.24043 13.4369 5.0767C13.4001 4.73887 13.6733 4.45703 14.0128 4.45703H15.3015C15.5877 4.45703 15.8342 4.65929 15.8903 4.94027L16.3312 7.14722C16.3706 7.34431 16.3089 7.54806 16.167 7.69018L14.7377 9.1211Z" stroke="white"/>
</svg>
