<svg width="49" height="49" viewBox="0 0 49 49" fill="none" xmlns="http://www.w3.org/2000/svg">
<path d="M12.7812 16.4062C13.2127 16.4062 13.5625 16.0565 13.5625 15.625C13.5625 15.1935 13.2127 14.8438 12.7812 14.8438C12.3498 14.8438 12 15.1935 12 15.625C12 16.0565 12.3498 16.4062 12.7812 16.4062Z" fill="url(#paint0_linear_584_123707)"/>
<path d="M20.5938 16.4062C21.0252 16.4062 21.375 16.0565 21.375 15.625C21.375 15.1935 21.0252 14.8438 20.5938 14.8438C20.1623 14.8438 19.8125 15.1935 19.8125 15.625C19.8125 16.0565 20.1623 16.4062 20.5938 16.4062Z" fill="url(#paint1_linear_584_123707)"/>
<path d="M19.8125 21.0938H18.25C18.25 21.9555 17.5492 22.6562 16.6875 22.6562C15.8258 22.6562 15.125 21.9555 15.125 21.0938H13.5625C13.5625 22.8172 14.9641 24.2188 16.6875 24.2188C18.4109 24.2188 19.8125 22.8172 19.8125 21.0938Z" fill="url(#paint2_linear_584_123707)"/>
<path d="M45.5938 31.25V46.0938C45.5938 46.525 45.2438 46.875 44.8125 46.875H35.4375C35.0062 46.875 34.6562 46.525 34.6562 46.0938V45.3125C35.9484 45.3125 37 44.2609 37 42.9688V42.0312C38.8016 41.6141 40.3125 40.3148 40.9398 38.518C41.9547 35.6063 42.4688 31.8469 42.4688 27.3438C42.4688 22.8406 41.9547 19.0812 40.9398 16.1695C40.1734 13.975 38.0977 12.5 35.7734 12.5H30.75C29.8672 12.5 29.0609 12.8055 28.4062 13.3016V9.45234C28.4062 6.87031 26.6359 4.61797 24.1578 3.98672C22.0961 1.45156 19.0469 0 15.775 0C9.81641 0 4.96875 4.84766 4.96875 10.8062V17.1875C4.96875 19.1117 6.37031 20.7055 8.23281 21.0258C8.65234 23.4055 10.05 25.4492 12 26.7242V28.343L4.02031 31.0039C1.78437 31.7484 0.28125 33.8336 0.28125 36.1906V42.1875H30.75V42.9688C30.75 44.2609 31.8016 45.3125 33.0938 45.3125V46.0938C33.0938 47.3859 34.1453 48.4375 35.4375 48.4375H44.8125C46.1047 48.4375 47.1562 47.3859 47.1562 46.0938V31.25C47.1562 30.8188 47.5062 30.4688 47.9375 30.4688H48.7188V28.9062H47.9375C46.6453 28.9062 45.5938 29.9578 45.5938 31.25ZM39.4641 16.6836C40.1219 18.5711 40.9062 21.9531 40.9062 27.3438C40.9062 32.7344 40.1219 36.1164 39.4641 38.0039C38.9172 39.5711 37.4344 40.625 35.7734 40.625H33.0938V32.8125H33.875C35.1672 32.8125 36.2188 31.7609 36.2188 30.4688V24.2188C36.2188 22.9266 35.1672 21.875 33.875 21.875H33.0938V14.0625H35.7734C37.4344 14.0625 38.9172 15.1164 39.4641 16.6836ZM16.6875 33.8297L17.4688 34.4805V40.625H15.9062V34.4805L16.6875 33.8297ZM25.1422 21.0289C25.807 20.918 26.4086 20.6367 26.9148 20.2336C27.2477 22.0523 28.8367 23.4375 30.75 23.4375H33.875C34.3063 23.4375 34.6562 23.7875 34.6562 24.2188V30.4688C34.6562 30.9 34.3063 31.25 33.875 31.25H30.75C30.5234 31.25 30.3055 31.2797 30.0891 31.3172C29.85 31.1961 29.6055 31.0875 29.3539 31.0039L21.375 28.343V26.7242C23.3242 25.45 24.7211 23.4078 25.1422 21.0289ZM25.2812 14.9875C26.1883 15.3109 26.8438 16.1703 26.8438 17.1875C26.8438 18.2047 26.1883 19.0641 25.2812 19.3875V14.9875ZM20.8047 29.8L22.0219 30.2055L20.8906 35.2977L17.8453 32.7594L20.8047 29.8ZM19.0312 35.7828L21.8594 38.1398L23.5125 30.7031L28.1625 32.2531C27.3594 32.9688 26.8438 33.9992 26.8438 35.1562V38.2812C26.8438 39.1641 27.1492 39.9703 27.6453 40.625H19.0312V35.7828ZM28.4062 38.2812V35.1562C28.4062 33.8641 29.4578 32.8125 30.75 32.8125H31.5312V40.625H30.75C29.4578 40.625 28.4062 39.5734 28.4062 38.2812ZM30.75 14.0625H31.5312V21.875H30.75C29.4578 21.875 28.4062 20.8234 28.4062 19.5312V16.4062C28.4062 15.1141 29.4578 14.0625 30.75 14.0625ZM6.53125 17.1875C6.53125 16.1703 7.18672 15.3109 8.09375 14.9875V19.3867C7.18672 19.0641 6.53125 18.2047 6.53125 17.1875ZM8.24375 13.3453C7.60625 13.45 7.02578 13.7078 6.53125 14.0828V10.8062C6.53125 5.70937 10.6781 1.5625 15.775 1.5625C18.5984 1.5625 21.2297 2.82734 22.9945 5.03281L23.2875 5.39766L23.5648 5.45312C25.4648 5.83359 26.8438 7.51484 26.8438 9.45234V14.0828C26.3492 13.7086 25.7687 13.45 25.1312 13.3453C24.6406 11.5125 22.9695 10.1562 20.9844 10.1562C20.0602 10.1562 19.1453 10.4617 18.4062 11.0164L16.6875 12.3047L14.9695 11.0164C14.2297 10.4617 13.3148 10.1562 12.3906 10.1562C10.4055 10.1562 8.73438 11.5125 8.24375 13.3453ZM9.65625 19.5312V14.4531C9.65625 12.9453 10.8828 11.7188 12.3906 11.7188C12.9789 11.7188 13.5609 11.9133 14.032 12.2656L16.6875 14.2578L19.3438 12.2656C19.8141 11.9133 20.3961 11.7188 20.9844 11.7188C22.4922 11.7188 23.7188 12.9453 23.7188 14.4531V19.5312C23.7188 23.4086 20.5648 26.5625 16.6875 26.5625C12.8102 26.5625 9.65625 23.4086 9.65625 19.5312ZM16.6875 28.125C17.7906 28.125 18.8422 27.9086 19.8125 27.5281V28.5828L16.6875 31.7078L13.5625 28.5828V27.5281C14.5328 27.9086 15.5844 28.125 16.6875 28.125ZM12.5703 29.8L15.5305 32.7602L12.4852 35.2984L11.3539 30.2063L12.5703 29.8ZM1.84375 36.1906C1.84375 34.507 2.91719 33.0172 4.51484 32.4852L9.8625 30.7023L11.5156 38.1391L14.3438 35.7828V40.625H8.09375V35.1562H6.53125V40.625H1.84375V36.1906ZM32.3125 42.9688V42.1875H35.4375V42.9688C35.4375 43.4 35.0875 43.75 34.6562 43.75H33.0938C32.6625 43.75 32.3125 43.4 32.3125 42.9688Z" fill="url(#paint3_linear_584_123707)"/>
<path d="M48.7188 25.7812H44.0312V27.3438H48.7188V25.7812Z" fill="url(#paint4_linear_584_123707)"/>
<path d="M48.7188 22.6562H44.0312V24.2188H48.7188V22.6562Z" fill="url(#paint5_linear_584_123707)"/>
<path d="M47.9375 8.59375C46.6453 8.59375 45.5938 9.64531 45.5938 10.9375V18.75C45.5938 19.1812 45.2438 19.5312 44.8125 19.5312H44.0312V21.0938H44.8125C46.1047 21.0938 47.1562 20.0422 47.1562 18.75V10.9375C47.1562 10.5063 47.5062 10.1562 47.9375 10.1562H48.7188V8.59375H47.9375Z" fill="url(#paint6_linear_584_123707)"/>
<defs>
<linearGradient id="paint0_linear_584_123707" x1="28.7553" y1="8.14448e-07" x2="15.9894" y2="54.7872" gradientUnits="userSpaceOnUse">
<stop stop-color="#BD00FF"/>
<stop offset="1" stop-color="#2D82E7"/>
</linearGradient>
<linearGradient id="paint1_linear_584_123707" x1="28.7553" y1="8.14448e-07" x2="15.9894" y2="54.7872" gradientUnits="userSpaceOnUse">
<stop stop-color="#BD00FF"/>
<stop offset="1" stop-color="#2D82E7"/>
</linearGradient>
<linearGradient id="paint2_linear_584_123707" x1="28.7553" y1="8.14448e-07" x2="15.9894" y2="54.7872" gradientUnits="userSpaceOnUse">
<stop stop-color="#BD00FF"/>
<stop offset="1" stop-color="#2D82E7"/>
</linearGradient>
<linearGradient id="paint3_linear_584_123707" x1="28.7553" y1="8.14448e-07" x2="15.9894" y2="54.7872" gradientUnits="userSpaceOnUse">
<stop stop-color="#BD00FF"/>
<stop offset="1" stop-color="#2D82E7"/>
</linearGradient>
<linearGradient id="paint4_linear_584_123707" x1="28.7553" y1="8.14448e-07" x2="15.9894" y2="54.7872" gradientUnits="userSpaceOnUse">
<stop stop-color="#BD00FF"/>
<stop offset="1" stop-color="#2D82E7"/>
</linearGradient>
<linearGradient id="paint5_linear_584_123707" x1="28.7553" y1="8.14448e-07" x2="15.9894" y2="54.7872" gradientUnits="userSpaceOnUse">
<stop stop-color="#BD00FF"/>
<stop offset="1" stop-color="#2D82E7"/>
</linearGradient>
<linearGradient id="paint6_linear_584_123707" x1="28.7553" y1="8.14448e-07" x2="15.9894" y2="54.7872" gradientUnits="userSpaceOnUse">
<stop stop-color="#BD00FF"/>
<stop offset="1" stop-color="#2D82E7"/>
</linearGradient>
</defs>
</svg>
