<svg width="14" height="14" viewBox="0 0 14 14" fill="none" xmlns="http://www.w3.org/2000/svg">
<path fill-rule="evenodd" clip-rule="evenodd" d="M6.08772 3.28934C6.46616 3.70883 6.34617 4.18407 6.01156 4.63499C5.93223 4.7419 5.84079 4.84724 5.73034 4.96332C5.67733 5.01903 5.636 5.06093 5.54953 5.14748C5.35317 5.34403 5.18811 5.50919 5.05433 5.64296C4.98945 5.70783 5.43238 6.59292 6.29198 7.45337C7.15111 8.31335 8.03616 8.75658 8.10134 8.69136L8.59621 8.19622C8.86872 7.92344 9.01304 7.79182 9.21136 7.66172C9.62363 7.39124 10.0733 7.31774 10.4526 7.65687C11.6909 8.54265 12.3916 9.08621 12.7349 9.44292C13.4045 10.1387 13.3168 11.2096 12.7387 11.8206C12.5383 12.0324 12.2841 12.2867 11.984 12.5761C10.1682 14.3929 6.33602 13.2873 3.39908 10.3475C0.461483 7.40698 -0.643558 3.57445 1.16842 1.76149C1.49373 1.43108 1.60098 1.32388 1.9178 1.01171C2.50766 0.430501 3.62803 0.339496 4.3091 1.01228C4.66734 1.36617 5.23848 2.10102 6.08772 3.28934ZM9.50915 9.10947L9.01418 9.60471C8.17285 10.4465 6.74004 9.72895 5.37894 8.36652C4.01691 7.00315 3.30016 5.57087 4.14177 4.72932C4.27537 4.59573 4.44028 4.43073 4.63649 4.23433C4.71566 4.15509 4.75187 4.11838 4.79534 4.0727C4.85456 4.01046 4.90322 3.95579 4.94219 3.90742C4.18955 2.85901 3.67792 2.20391 3.40211 1.93145C3.25967 1.79074 2.94072 1.81665 2.82362 1.93202C2.51133 2.23974 2.40868 2.34234 2.08469 2.67139C0.919402 3.83732 1.81147 6.9312 4.31212 9.43431C6.812 11.9366 9.90541 12.8291 11.0796 11.6545C11.3751 11.3695 11.6159 11.1285 11.8012 10.9326C11.9352 10.791 11.9591 10.4989 11.805 10.3389C11.5484 10.0722 10.9202 9.5824 9.8354 8.80339C9.75633 8.86703 9.65913 8.95934 9.50915 9.10947Z" fill="#555555"/>
</svg>
