<svg width="19" height="18" viewBox="0 0 19 18" fill="none" xmlns="http://www.w3.org/2000/svg">
<path d="M16.625 10.0236V1.87499H10.2917V0.291656H6.33333V1.87499H2.375V5.04166H3.16667V2.66666H6.33333V4.24999H10.2917V2.66666H15.8333V10.0236L14.018 8.20832L13.4583 8.76803L16.2292 11.5389L19 8.76803L18.4403 8.20832L16.625 10.0236ZM9.5 3.45832H7.125V1.08332H9.5V3.45832ZM15.8333 15.3333H13.4583V13.75H9.5V15.3333H3.16667V7.97637L4.98196 9.79166L5.54167 9.23195L2.77083 6.46112L0 9.23195L0.559708 9.79166L2.375 7.97637V16.125H9.5V17.7083H13.4583V16.125H16.625V12.9583H15.8333V15.3333ZM12.6667 16.9167H10.2917V14.5417H12.6667V16.9167Z" fill="#333333"/>
</svg>
