<svg width="25" height="25" viewBox="0 0 25 25" fill="none" xmlns="http://www.w3.org/2000/svg">
<g clip-path="url(#clip0_180_831373)">
<path d="M21.875 21.875H3.125C2.71073 21.8746 2.31356 21.7098 2.02063 21.4169C1.72769 21.1239 1.56293 20.7268 1.5625 20.3125V16.4062H3.125V20.3125H21.875V16.4062H23.4375V20.3125C23.4371 20.7268 23.2723 21.1239 22.9794 21.4169C22.6864 21.7098 22.2893 21.8746 21.875 21.875Z" fill="url(#paint0_linear_180_831373)"/>
<path d="M19.5312 16.4062H5.46875V17.9688H19.5312V16.4062Z" fill="url(#paint1_linear_180_831373)"/>
<path d="M19.5312 12.5H5.46875V14.0625H19.5312V12.5Z" fill="url(#paint2_linear_180_831373)"/>
<path d="M19.5312 8.59375H5.46875V10.1562H19.5312V8.59375Z" fill="url(#paint3_linear_180_831373)"/>
<path d="M19.5312 4.6875H5.46875V6.25H19.5312V4.6875Z" fill="url(#paint4_linear_180_831373)"/>
</g>
<defs>
<linearGradient id="paint0_linear_180_831373" x1="12.5" y1="16.4062" x2="12.5" y2="21.875" gradientUnits="userSpaceOnUse">
<stop stop-color="#0033EA"/>
<stop offset="1" stop-color="#8A0074"/>
</linearGradient>
<linearGradient id="paint1_linear_180_831373" x1="12.5" y1="16.4062" x2="12.5" y2="17.9688" gradientUnits="userSpaceOnUse">
<stop stop-color="#0033EA"/>
<stop offset="1" stop-color="#8A0074"/>
</linearGradient>
<linearGradient id="paint2_linear_180_831373" x1="12.5" y1="12.5" x2="12.5" y2="14.0625" gradientUnits="userSpaceOnUse">
<stop stop-color="#0033EA"/>
<stop offset="1" stop-color="#8A0074"/>
</linearGradient>
<linearGradient id="paint3_linear_180_831373" x1="12.5" y1="8.59375" x2="12.5" y2="10.1562" gradientUnits="userSpaceOnUse">
<stop stop-color="#0033EA"/>
<stop offset="1" stop-color="#8A0074"/>
</linearGradient>
<linearGradient id="paint4_linear_180_831373" x1="12.5" y1="4.6875" x2="12.5" y2="6.25" gradientUnits="userSpaceOnUse">
<stop stop-color="#0033EA"/>
<stop offset="1" stop-color="#8A0074"/>
</linearGradient>
<clipPath id="clip0_180_831373">
<rect width="25" height="25" fill="white"/>
</clipPath>
</defs>
</svg>
