<svg width="16" height="16" viewBox="0 0 16 16" fill="none" xmlns="http://www.w3.org/2000/svg">
<g clip-path="url(#clip0_103_3529)">
<path d="M9.99988 12H5.93113C5.88293 11.8212 5.81088 11.6496 5.71693 11.49L10.9899 6.21716C11.3507 6.43009 11.7694 6.52414 12.1866 6.48602C12.6039 6.44789 12.9985 6.27951 13.3148 6.0047C13.6311 5.7299 13.8529 5.36259 13.9489 4.95476C14.0449 4.54693 14.0102 4.11924 13.8497 3.73222C13.6892 3.34519 13.4111 3.01844 13.0547 2.7982C12.6983 2.57795 12.2816 2.47538 11.8637 2.505C11.4458 2.53461 11.0477 2.69491 10.7259 2.96321C10.4041 3.23151 10.1749 3.59422 10.0706 4.00001H6.99988V5.00001H10.0706C10.1171 5.17908 10.1885 5.35075 10.2827 5.51001L5.00988 10.7828C4.64905 10.5699 4.23039 10.4758 3.81315 10.514C3.39592 10.5521 3.00125 10.7205 2.685 10.9953C2.36874 11.2701 2.14692 11.6374 2.05093 12.0453C1.95494 12.4531 1.98963 12.8808 2.15011 13.2678C2.31058 13.6548 2.58871 13.9816 2.94513 14.2018C3.30154 14.422 3.7182 14.5246 4.13612 14.495C4.55404 14.4654 4.95207 14.3051 5.27387 14.0368C5.59566 13.7685 5.82494 13.4058 5.92923 13H9.99988V14.5H13.9999V10.5H9.99988V12ZM11.9999 3.50001C12.1977 3.50001 12.391 3.55866 12.5555 3.66854C12.7199 3.77842 12.8481 3.9346 12.9238 4.11732C12.9995 4.30005 13.0193 4.50112 12.9807 4.6951C12.9421 4.88908 12.8468 5.06726 12.707 5.20711C12.5671 5.34697 12.389 5.44221 12.195 5.48079C12.001 5.51938 11.7999 5.49957 11.6172 5.42389C11.4345 5.3482 11.2783 5.22003 11.1684 5.05558C11.0585 4.89113 10.9999 4.69779 10.9999 4.50001C11.0002 4.23488 11.1056 3.98071 11.2931 3.79324C11.4806 3.60576 11.7348 3.50031 11.9999 3.50001ZM3.99988 13.5C3.8021 13.5 3.60876 13.4414 3.44431 13.3315C3.27986 13.2216 3.15169 13.0654 3.076 12.8827C3.00032 12.7 2.98051 12.4989 3.0191 12.3049C3.05768 12.1109 3.15292 11.9328 3.29278 11.7929C3.43263 11.653 3.61081 11.5578 3.80479 11.5192C3.99877 11.4806 4.19984 11.5004 4.38257 11.5761C4.56529 11.6518 4.72147 11.78 4.83135 11.9444C4.94123 12.1089 4.99988 12.3022 4.99988 12.5C4.99958 12.7651 4.89412 13.0193 4.70665 13.2068C4.51918 13.3942 4.26501 13.4997 3.99988 13.5ZM10.9999 11.5H12.9999V13.5H10.9999V11.5Z" fill="#645DF6"/>
<path d="M4.84653 6.37524C4.5805 6.14066 4.36743 5.85215 4.22147 5.52888C4.07552 5.20561 4.00002 4.85499 4 4.5003C3.99998 4.14561 4.07543 3.79498 4.22134 3.47169C4.36725 3.1484 4.58028 2.85987 4.84628 2.62524L5.50838 3.37499C5.34867 3.51574 5.22075 3.68887 5.13312 3.88287C5.04549 4.07688 5.00015 4.28731 5.00013 4.50019C5.0001 4.71306 5.04539 4.92351 5.13298 5.11753C5.22057 5.31155 5.34845 5.48471 5.50813 5.62549L4.84653 6.37524Z" fill="#645DF6"/>
<path d="M3.52381 7.8755C3.0449 7.45321 2.66134 6.93384 2.39861 6.35189C2.13588 5.76995 2 5.13875 2 4.50025C2 3.86175 2.13588 3.23055 2.39861 2.64861C2.66134 2.06666 3.0449 1.54729 3.52381 1.125L4.18541 1.875C3.81291 2.20345 3.51456 2.60741 3.31021 3.06005C3.10585 3.51268 3.00016 4.00362 3.00016 4.50025C3.00016 4.99688 3.10585 5.48782 3.31021 5.94045C3.51456 6.39309 3.81291 6.79705 4.18541 7.1255L3.52381 7.8755Z" fill="#645DF6"/>
</g>
<defs>
<clipPath id="clip0_103_3529">
<rect width="16" height="16" fill="white"/>
</clipPath>
</defs>
</svg>
