<svg width="19" height="18" viewBox="0 0 19 18" fill="none" xmlns="http://www.w3.org/2000/svg">
<g clip-path="url(#clip0_162_16321)">
<path d="M17.3916 13.7331C17.3916 14.0023 17.3283 14.2789 17.1937 14.5481C17.0591 14.8173 16.8849 15.0715 16.6554 15.3108C16.2674 15.7145 15.8399 16.0061 15.357 16.193C14.882 16.3799 14.3674 16.4771 13.8133 16.4771C13.0058 16.4771 12.1429 16.2977 11.2324 15.9313C10.322 15.565 9.41161 15.0715 8.50911 14.4509C7.5987 13.8229 6.73578 13.1275 5.91245 12.3574C5.09703 11.5798 4.36078 10.7648 3.7037 9.91246C3.05453 9.0601 2.53203 8.20774 2.15203 7.36286C1.77203 6.5105 1.58203 5.69552 1.58203 4.91793C1.58203 4.4095 1.67703 3.92351 1.86703 3.4749C2.05703 3.01881 2.35786 2.6001 2.77745 2.22626C3.28411 1.75522 3.83828 1.52344 4.42411 1.52344C4.64578 1.52344 4.86745 1.5683 5.06536 1.65802C5.2712 1.74774 5.45328 1.88233 5.59578 2.07672L7.43245 4.52165C7.57495 4.70858 7.67786 4.88054 7.74911 5.04503C7.82036 5.20205 7.85995 5.35906 7.85995 5.50112C7.85995 5.68057 7.80453 5.86001 7.6937 6.03198C7.59078 6.20395 7.44036 6.38339 7.25036 6.56283L6.6487 7.15351C6.56161 7.23575 6.52203 7.33295 6.52203 7.45258C6.52203 7.5124 6.52995 7.56473 6.54578 7.62455C6.56953 7.68436 6.59328 7.72922 6.60912 7.77408C6.75162 8.02082 6.99703 8.34233 7.34536 8.73112C7.70161 9.11992 8.08161 9.51619 8.49328 9.91246C8.92078 10.3087 9.33245 10.6751 9.75203 11.0116C10.1637 11.3405 10.5041 11.5648 10.7733 11.6994C10.8129 11.7144 10.8604 11.7368 10.9158 11.7592C10.9791 11.7817 11.0424 11.7892 11.1137 11.7892C11.2483 11.7892 11.3512 11.7443 11.4383 11.662L12.0399 11.1013C12.2379 10.9144 12.4279 10.7723 12.6099 10.6826C12.792 10.5779 12.9741 10.5256 13.172 10.5256C13.3224 10.5256 13.4808 10.5555 13.6549 10.6228C13.8291 10.6901 14.0112 10.7873 14.2091 10.9144L16.8295 12.6714C17.0354 12.806 17.1779 12.963 17.2649 13.1499C17.3441 13.3369 17.3916 13.5238 17.3916 13.7331Z" stroke="url(#paint0_linear_162_16321)" stroke-miterlimit="10"/>
<path d="M11.6111 3.77441H17.6805" stroke="url(#paint1_linear_162_16321)" stroke-linecap="round" stroke-linejoin="round"/>
<path d="M14.6462 6.64143V0.90918" stroke="url(#paint2_linear_162_16321)" stroke-linecap="round" stroke-linejoin="round"/>
</g>
<defs>
<linearGradient id="paint0_linear_162_16321" x1="9.48682" y1="1.52344" x2="9.48682" y2="16.4771" gradientUnits="userSpaceOnUse">
<stop stop-color="#0033EA"/>
<stop offset="1" stop-color="#8A0074"/>
</linearGradient>
<linearGradient id="paint1_linear_162_16321" x1="14.6458" y1="3.77441" x2="14.6458" y2="4.77441" gradientUnits="userSpaceOnUse">
<stop stop-color="#0033EA"/>
<stop offset="1" stop-color="#8A0074"/>
</linearGradient>
<linearGradient id="paint2_linear_162_16321" x1="15.1462" y1="0.90918" x2="15.1462" y2="6.64143" gradientUnits="userSpaceOnUse">
<stop stop-color="#0033EA"/>
<stop offset="1" stop-color="#8A0074"/>
</linearGradient>
<clipPath id="clip0_162_16321">
<rect width="19" height="17.9444" fill="white" transform="translate(0 0.027832)"/>
</clipPath>
</defs>
</svg>
