<svg width="17" height="16" viewBox="0 0 17 16" fill="none" xmlns="http://www.w3.org/2000/svg">
<g clip-path="url(#clip0_162_3191)">
<path d="M15.5614 12.2035C15.5614 12.4426 15.5048 12.6883 15.3843 12.9273C15.2639 13.1664 15.1081 13.3922 14.9027 13.6047C14.5556 13.9633 14.1731 14.2223 13.741 14.3883C13.316 14.5543 12.8556 14.6406 12.3598 14.6406C11.6373 14.6406 10.8652 14.4812 10.0506 14.1559C9.23602 13.8305 8.42143 13.3922 7.61393 12.841C6.79935 12.2832 6.02727 11.6656 5.2906 10.9816C4.56102 10.291 3.90227 9.56719 3.31435 8.81016C2.73352 8.05312 2.26602 7.29609 1.92602 6.5457C1.58602 5.78867 1.41602 5.06484 1.41602 4.37422C1.41602 3.92266 1.50102 3.49102 1.67102 3.09258C1.84102 2.6875 2.11018 2.31562 2.4856 1.98359C2.93893 1.56523 3.43477 1.35938 3.95893 1.35938C4.15727 1.35938 4.3556 1.39922 4.53268 1.47891C4.71685 1.55859 4.87977 1.67812 5.00727 1.85078L6.6506 4.02227C6.7781 4.18828 6.87018 4.34102 6.93393 4.48711C6.99768 4.62656 7.0331 4.76602 7.0331 4.89219C7.0331 5.05156 6.98352 5.21094 6.88435 5.36367C6.79227 5.51641 6.65768 5.67578 6.48768 5.83516L5.94935 6.35976C5.87143 6.43281 5.83602 6.51914 5.83602 6.62539C5.83602 6.67851 5.8431 6.725 5.85727 6.77812C5.87852 6.83125 5.89977 6.87109 5.91393 6.91094C6.04143 7.13008 6.26102 7.41562 6.57268 7.76094C6.89143 8.10625 7.23143 8.4582 7.59977 8.81016C7.98227 9.16211 8.3506 9.4875 8.72602 9.78633C9.09435 10.0785 9.39893 10.2777 9.63977 10.3973C9.67518 10.4105 9.71768 10.4305 9.76727 10.4504C9.82393 10.4703 9.8806 10.477 9.94435 10.477C10.0648 10.477 10.1568 10.4371 10.2348 10.3641L10.7731 9.86601C10.9502 9.7 11.1202 9.57383 11.2831 9.49414C11.446 9.40117 11.6089 9.35469 11.786 9.35469C11.9206 9.35469 12.0623 9.38125 12.2181 9.44101C12.3739 9.50078 12.5369 9.58711 12.7139 9.7L15.0585 11.2605C15.2427 11.3801 15.3702 11.5195 15.4481 11.6855C15.5189 11.8516 15.5614 12.0176 15.5614 12.2035Z" stroke="#333333" stroke-miterlimit="10"/>
<path d="M10.3889 3.35864H15.8194" stroke="#333333" stroke-linecap="round" stroke-linejoin="round"/>
<path d="M13.1037 5.90517V0.814026" stroke="#333333" stroke-linecap="round" stroke-linejoin="round"/>
</g>
<defs>
<clipPath id="clip0_162_3191">
<rect width="17" height="15.9375" fill="white" transform="translate(0 0.03125)"/>
</clipPath>
</defs>
</svg>
