<svg width="30" height="30" viewBox="0 0 30 30" fill="none" xmlns="http://www.w3.org/2000/svg">
<path d="M14.5004 13.083C13.5872 13.1023 12.7179 13.4787 12.0789 14.1313C11.4399 14.784 11.082 15.661 11.082 16.5744C11.082 17.4878 11.4399 18.3648 12.0789 19.0175C12.7179 19.6702 13.5872 20.0465 14.5004 20.0658C15.4263 20.0656 16.3142 19.6977 16.9689 19.043C17.6236 18.3883 17.9916 17.5003 17.9918 16.5744C17.9916 15.6485 17.6236 14.7606 16.9689 14.1058C16.3142 13.4511 15.4263 13.0832 14.5004 13.083ZM14.5004 18.601C14.236 18.6011 13.9741 18.5491 13.7298 18.448C13.4855 18.3469 13.2635 18.1987 13.0765 18.0119C12.8895 17.825 12.7411 17.6031 12.6398 17.3589C12.5386 17.1146 12.4864 16.8529 12.4863 16.5885C12.4862 16.3241 12.5382 16.0623 12.6392 15.818C12.7403 15.5737 12.8885 15.3517 13.0754 15.1646C13.2623 14.9776 13.4842 14.8292 13.7284 14.728C13.9726 14.6267 14.2344 14.5745 14.4988 14.5744C15.0327 14.5742 15.5449 14.7861 15.9226 15.1635C16.3003 15.541 16.5126 16.053 16.5129 16.5869C16.5131 17.1209 16.3011 17.633 15.9237 18.0107C15.5463 18.3885 15.0343 18.6008 14.5004 18.601Z" fill="#1E1E38"/>
<path d="M22.0195 10.6655H18.2602L16.6492 8.51709H12.3523L10.7414 10.6655H6.98047C6.38906 10.6655 5.90625 11.1483 5.90625 11.7405V21.4085C5.90625 21.9991 6.38906 22.4827 6.98047 22.4827H22.0195C22.6109 22.4827 23.0938 22.0007 23.0938 21.4085V11.7405C23.0938 11.1483 22.6109 10.6655 22.0195 10.6655ZM14.5 21.3413C13.8688 21.3493 13.2422 21.2319 12.6567 20.9959C12.0713 20.7599 11.5385 20.41 11.0893 19.9664C10.6401 19.5229 10.2834 18.9945 10.04 18.4121C9.79665 17.8296 9.67134 17.2046 9.67139 16.5733C9.67144 15.9421 9.79685 15.3171 10.0403 14.7347C10.2838 14.1522 10.6406 13.624 11.0898 13.1805C11.5391 12.737 12.0719 12.3872 12.6575 12.1512C13.243 11.9153 13.8696 11.798 14.5008 11.8062C15.7547 11.8223 16.9517 12.3318 17.8326 13.2242C18.7135 14.1166 19.2074 15.3201 19.2073 16.5741C19.2072 17.8281 18.7131 19.0315 17.8321 19.9238C16.951 20.8161 15.7539 21.3254 14.5 21.3413ZM22.0195 13.2171H19.8711V12.1429H22.0195V13.2171Z" fill="#1E1E38"/>
<rect width="30" height="30" rx="6" fill="black" fill-opacity="0.13"/>
</svg>
