<svg width="20" height="17" viewBox="0 0 20 17" fill="none" xmlns="http://www.w3.org/2000/svg">
<path fill-rule="evenodd" clip-rule="evenodd" d="M5.342 1.985C5.764 1.261 5.975 0.9 6.269 0.637C6.52903 0.404202 6.83493 0.228431 7.167 0.121C7.542 5.21541e-08 7.96 0 8.797 0H11.202C12.04 0 12.458 5.21541e-08 12.833 0.121C13.1651 0.228431 13.471 0.404202 13.731 0.637C14.025 0.9 14.236 1.261 14.658 1.985L15.25 3H16C17.4 3 18.1 3 18.635 3.272C19.1053 3.51189 19.4875 3.89451 19.727 4.365C20 4.9 20 5.6 20 7V13C20 14.4 20 15.1 19.727 15.635C19.4874 16.1051 19.1051 16.4874 18.635 16.727C18.1 17 17.4 17 16 17H4C2.6 17 1.9 17 1.365 16.727C0.894506 16.4875 0.511895 16.1053 0.272 15.635C5.96047e-08 15.1 0 14.4 0 13V7C0 5.6 5.96047e-08 4.9 0.272 4.365C0.511725 3.89435 0.894354 3.51172 1.365 3.272C1.9 3 2.6 3 4 3H4.75L5.342 1.985ZM10 14.05C11.2598 14.05 12.468 13.5496 13.3588 12.6588C14.2496 11.768 14.75 10.5598 14.75 9.3C14.75 8.04022 14.2496 6.83204 13.3588 5.94124C12.468 5.05044 11.2598 4.55 10 4.55C8.74022 4.55 7.53204 5.05044 6.64124 5.94124C5.75045 6.83204 5.25 8.04022 5.25 9.3C5.25 10.5598 5.75045 11.768 6.64124 12.6588C7.53204 13.5496 8.74022 14.05 10 14.05ZM12.7 9.3C12.7 10.0161 12.4155 10.7028 11.9092 11.2092C11.4028 11.7155 10.7161 12 10 12C9.28392 12 8.59716 11.7155 8.09081 11.2092C7.58446 10.7028 7.3 10.0161 7.3 9.3C7.3 8.58391 7.58446 7.89716 8.09081 7.39081C8.59716 6.88446 9.28392 6.6 10 6.6C10.7161 6.6 11.4028 6.88446 11.9092 7.39081C12.4155 7.89716 12.7 8.58391 12.7 9.3Z" fill="#645DF6"/>
</svg>
