<svg width="46" height="46" viewBox="0 0 46 46" fill="none" xmlns="http://www.w3.org/2000/svg">
<g filter="url(#filter0_d_6_38533)">
<rect x="3" y="2" width="40" height="40" rx="6" fill="white"/>
<path fill-rule="evenodd" clip-rule="evenodd" d="M18.342 14.985C18.764 14.261 18.975 13.9 19.269 13.637C19.529 13.4042 19.8349 13.2284 20.167 13.121C20.542 13 20.96 13 21.797 13H24.202C25.04 13 25.458 13 25.833 13.121C26.1651 13.2284 26.471 13.4042 26.731 13.637C27.025 13.9 27.236 14.261 27.658 14.985L28.25 16H29C30.4 16 31.1 16 31.635 16.272C32.1053 16.5119 32.4875 16.8945 32.727 17.365C33 17.9 33 18.6 33 20V26C33 27.4 33 28.1 32.727 28.635C32.4874 29.1051 32.1051 29.4874 31.635 29.727C31.1 30 30.4 30 29 30H17C15.6 30 14.9 30 14.365 29.727C13.8945 29.4875 13.5119 29.1053 13.272 28.635C13 28.1 13 27.4 13 26V20C13 18.6 13 17.9 13.272 17.365C13.5117 16.8944 13.8944 16.5117 14.365 16.272C14.9 16 15.6 16 17 16H17.75L18.342 14.985ZM23 27.05C24.2598 27.05 25.468 26.5496 26.3588 25.6588C27.2496 24.768 27.75 23.5598 27.75 22.3C27.75 21.0402 27.2496 19.832 26.3588 18.9412C25.468 18.0504 24.2598 17.55 23 17.55C21.7402 17.55 20.532 18.0504 19.6412 18.9412C18.7504 19.832 18.25 21.0402 18.25 22.3C18.25 23.5598 18.7504 24.768 19.6412 25.6588C20.532 26.5496 21.7402 27.05 23 27.05ZM25.7 22.3C25.7 23.0161 25.4155 23.7028 24.9092 24.2092C24.4028 24.7155 23.7161 25 23 25C22.2839 25 21.5972 24.7155 21.0908 24.2092C20.5845 23.7028 20.3 23.0161 20.3 22.3C20.3 21.5839 20.5845 20.8972 21.0908 20.3908C21.5972 19.8845 22.2839 19.6 23 19.6C23.7161 19.6 24.4028 19.8845 24.9092 20.3908C25.4155 20.8972 25.7 21.5839 25.7 22.3Z" fill="#645DF6"/>
</g>
<defs>
<filter id="filter0_d_6_38533" x="0" y="0" width="46" height="46" filterUnits="userSpaceOnUse" color-interpolation-filters="sRGB">
<feFlood flood-opacity="0" result="BackgroundImageFix"/>
<feColorMatrix in="SourceAlpha" type="matrix" values="0 0 0 0 0 0 0 0 0 0 0 0 0 0 0 0 0 0 127 0" result="hardAlpha"/>
<feOffset dy="1"/>
<feGaussianBlur stdDeviation="1.5"/>
<feComposite in2="hardAlpha" operator="out"/>
<feColorMatrix type="matrix" values="0 0 0 0 0 0 0 0 0 0 0 0 0 0 0 0 0 0 0.14 0"/>
<feBlend mode="normal" in2="BackgroundImageFix" result="effect1_dropShadow_6_38533"/>
<feBlend mode="normal" in="SourceGraphic" in2="effect1_dropShadow_6_38533" result="shape"/>
</filter>
</defs>
</svg>
