<svg width="41" height="41" viewBox="0 0 41 41" fill="none" xmlns="http://www.w3.org/2000/svg">
<path d="M36.3505 11.623C37.1621 11.623 37.8299 12.2909 37.8299 13.1024C37.8299 13.914 37.1621 14.5818 36.3505 14.5818H31.7011C30.8895 14.5818 30.2217 13.914 30.2217 13.1024C30.2217 12.2909 30.8895 11.623 31.7011 11.623H36.3505Z" fill="white"/>
<path d="M20.5 29.3757C17.0002 29.3757 14.1598 26.5353 14.1598 23.0355C14.1598 19.5357 17.0002 16.6953 20.5 16.6953C23.9998 16.6953 26.8402 19.5357 26.8402 23.0355C26.8402 26.5353 23.9998 29.3757 20.5 29.3757Z" fill="#F6DDEF"/>
<path d="M20.5 29.3753C23.9998 29.3753 26.8402 26.5349 26.8402 23.0351C26.8402 19.5353 23.9998 16.6949 20.5 16.6949C17.0002 16.6949 14.1598 19.5353 14.1598 23.0351C14.1598 26.5349 17.0002 29.3753 20.5 29.3753ZM20.5 13.3135C25.868 13.3135 30.2216 17.6671 30.2216 23.0351C30.2216 28.4032 25.868 32.7568 20.5 32.7568C15.1319 32.7568 10.7783 28.4032 10.7783 23.0351C10.7783 17.6671 15.1319 13.3135 20.5 13.3135Z" fill="white"/>
<path d="M20.5 16.0615C16.6544 16.0615 13.5258 19.1901 13.5258 23.0357C13.5258 26.8814 16.6544 30.01 20.5 30.01C24.3456 30.01 27.4742 26.8814 27.4742 23.0357C27.4742 19.1901 24.3456 16.0615 20.5 16.0615ZM20.5 28.7419C17.3536 28.7419 14.7938 26.1822 14.7938 23.0357C14.7938 19.8893 17.3536 17.3296 20.5 17.3296C23.6464 17.3296 26.2062 19.8893 26.2062 23.0357C26.2062 26.1822 23.6464 28.7419 20.5 28.7419Z" fill="url(#paint0_linear_71_46124)"/>
<path d="M20.5 12.6797C14.7898 12.6797 10.1443 17.3252 10.1443 23.0354C10.1443 28.7455 14.7898 33.391 20.5 33.391C26.2101 33.391 30.8556 28.7455 30.8556 23.0354C30.8556 17.3252 26.2101 12.6797 20.5 12.6797ZM20.5 32.123C15.489 32.123 11.4123 28.0463 11.4123 23.0354C11.4123 18.0244 15.489 13.9477 20.5 13.9477C25.5109 13.9477 29.5876 18.0244 29.5876 23.0354C29.5876 28.0463 25.5109 32.123 20.5 32.123Z" fill="url(#paint1_linear_71_46124)"/>
<path d="M16.4845 23.036H17.7525C17.7525 21.5211 18.9851 20.2885 20.5 20.2885V19.0205C18.2859 19.0205 16.4845 20.8219 16.4845 23.036Z" fill="url(#paint2_linear_71_46124)"/>
<path fill-rule="evenodd" clip-rule="evenodd" d="M36.1392 8.45337H39.5206C40.3363 8.45337 41 9.11706 41 9.93275V35.2936C41 36.1093 40.3363 36.773 39.5206 36.773H1.47938C0.663693 36.773 0 36.1093 0 35.2936V9.93275C0 9.11706 0.663693 8.45337 1.47938 8.45337H13.1031V4.22656H27.8969V8.45337H31.067V7.18533H36.1392V8.45337ZM26.6289 5.4946H14.3711V8.45337H26.6289V5.4946ZM39.5206 35.5049C39.6352 35.5049 39.732 35.4081 39.732 35.2936V9.93275C39.732 9.8182 39.6352 9.72141 39.5206 9.72141H1.47938C1.36484 9.72141 1.26804 9.8182 1.26804 9.93275V35.2936C1.26804 35.4081 1.36484 35.5049 1.47938 35.5049H39.5206ZM31.7011 10.9897H36.3506C37.5159 10.9897 38.464 11.9378 38.464 13.1031C38.464 14.2684 37.5159 15.2165 36.3506 15.2165H31.7011C30.5357 15.2165 29.5877 14.2684 29.5877 13.1031C29.5877 11.9378 30.5357 10.9897 31.7011 10.9897ZM31.7011 13.9484H36.3506C36.8087 13.9484 37.1959 13.5613 37.1959 13.1031C37.1959 12.6449 36.8087 12.2577 36.3506 12.2577H31.7011C31.2429 12.2577 30.8557 12.6449 30.8557 13.1031C30.8557 13.5613 31.2429 13.9484 31.7011 13.9484ZM8.24221 12.2579H3.17005V13.5259H8.24221V12.2579ZM3.17005 14.7934H5.70613V16.0614H3.17005V14.7934Z" fill="url(#paint3_linear_71_46124)"/>
<defs>
<linearGradient id="paint0_linear_71_46124" x1="20.5" y1="16.0615" x2="20.5" y2="30.01" gradientUnits="userSpaceOnUse">
<stop stop-color="#000AFF"/>
<stop offset="1" stop-color="#D274FF"/>
</linearGradient>
<linearGradient id="paint1_linear_71_46124" x1="20.5" y1="12.6797" x2="20.5" y2="33.391" gradientUnits="userSpaceOnUse">
<stop stop-color="#000AFF"/>
<stop offset="1" stop-color="#D274FF"/>
</linearGradient>
<linearGradient id="paint2_linear_71_46124" x1="18.4922" y1="19.0205" x2="18.4922" y2="23.036" gradientUnits="userSpaceOnUse">
<stop stop-color="#000AFF"/>
<stop offset="1" stop-color="#D274FF"/>
</linearGradient>
<linearGradient id="paint3_linear_71_46124" x1="20.5" y1="4.22656" x2="20.5" y2="36.773" gradientUnits="userSpaceOnUse">
<stop stop-color="#000AFF"/>
<stop offset="1" stop-color="#D274FF"/>
</linearGradient>
</defs>
</svg>
