<svg width="44" height="44" viewBox="0 0 44 44" fill="none" xmlns="http://www.w3.org/2000/svg">
<rect width="44" height="44" rx="5" fill="#DCDEE8"/>
<path d="M28.0531 13.189H15.812C15.1164 13.189 14.4492 13.4653 13.9572 13.9572C13.4653 14.4492 13.189 15.1164 13.189 15.812V28.0531C13.189 28.7487 13.4653 29.4159 13.9572 29.9079C14.4492 30.3998 15.1164 30.6761 15.812 30.6761H28.0531C28.7487 30.6761 29.4159 30.3998 29.9079 29.9079C30.3998 29.4159 30.6761 28.7487 30.6761 28.0531V15.812C30.6761 15.1164 30.3998 14.4492 29.9079 13.9572C29.4159 13.4653 28.7487 13.189 28.0531 13.189ZM21.9326 27.1787C20.895 27.1787 19.8807 26.871 19.0179 26.2946C18.1552 25.7181 17.4828 24.8988 17.0857 23.9402C16.6887 22.9816 16.5848 21.9267 16.7872 20.9091C16.9896 19.8914 17.4893 18.9567 18.223 18.223C18.9567 17.4893 19.8914 16.9896 20.9091 16.7872C21.9267 16.5848 22.9816 16.6887 23.9402 17.0857C24.8988 17.4828 25.7181 18.1552 26.2946 19.0179C26.871 19.8807 27.1787 20.895 27.1787 21.9326C27.1787 23.3239 26.626 24.6583 25.6421 25.6421C24.6583 26.626 23.3239 27.1787 21.9326 27.1787ZM28.0531 16.6864C27.8801 16.6864 27.7111 16.6351 27.5673 16.539C27.4235 16.443 27.3114 16.3064 27.2453 16.1466C27.1791 15.9869 27.1618 15.8111 27.1955 15.6415C27.2292 15.4719 27.3125 15.3161 27.4348 15.1938C27.5571 15.0715 27.7129 14.9882 27.8825 14.9545C28.0521 14.9207 28.2279 14.9381 28.3877 15.0042C28.5474 15.0704 28.684 15.1825 28.7801 15.3263C28.8761 15.4701 28.9274 15.6391 28.9274 15.812C28.9274 16.0439 28.8353 16.2663 28.6713 16.4303C28.5074 16.5943 28.285 16.6864 28.0531 16.6864Z" fill="#333333"/>
<path d="M21.9325 18.4351C21.2408 18.4351 20.5646 18.6402 19.9894 19.0245C19.4143 19.4088 18.966 19.955 18.7013 20.5941C18.4366 21.2332 18.3673 21.9364 18.5023 22.6148C18.6372 23.2932 18.9703 23.9164 19.4594 24.4056C19.9486 24.8947 20.5717 25.2278 21.2502 25.3627C21.9286 25.4977 22.6318 25.4284 23.2709 25.1637C23.91 24.899 24.4562 24.4507 24.8405 23.8756C25.2248 23.3004 25.4299 22.6242 25.4299 21.9325C25.4299 21.0049 25.0615 20.1153 24.4056 19.4594C23.7497 18.8035 22.8601 18.4351 21.9325 18.4351ZM21.9325 23.6812C21.5866 23.6812 21.2485 23.5787 20.961 23.3865C20.6734 23.1943 20.4492 22.9212 20.3169 22.6017C20.1845 22.2822 20.1499 21.9306 20.2174 21.5913C20.2849 21.2521 20.4514 20.9405 20.696 20.696C20.9405 20.4514 21.2521 20.2849 21.5913 20.2174C21.9306 20.1499 22.2822 20.1845 22.6017 20.3169C22.9212 20.4492 23.1944 20.6734 23.3865 20.961C23.5787 21.2485 23.6812 21.5866 23.6812 21.9325C23.6812 22.3963 23.497 22.8411 23.169 23.169C22.8411 23.497 22.3963 23.6812 21.9325 23.6812Z" fill="#333333"/>
</svg>
