<svg width="29" height="28" viewBox="0 0 29 28" fill="none" xmlns="http://www.w3.org/2000/svg">
<g id="Group 1707481000">
<g id="Group 1707481001">
<g id="Group 1707481004">
<path id="Vector" d="M13.3418 15.2353C14.1319 15.2353 14.7724 14.582 14.7724 13.7761C14.7724 12.9702 14.1319 12.3169 13.3418 12.3169C12.5517 12.3169 11.9111 12.9702 11.9111 13.7761C11.9111 14.582 12.5517 15.2353 13.3418 15.2353Z" fill="#FF6E1B"/>
<path id="Vector_2" d="M11.0128 19.0079L2.72554 15.6357C2.05384 15.3599 1.56533 14.7192 1.53916 13.9807C1.51299 13.1978 1.96661 12.5037 2.68193 12.219L11.0128 8.92693C11.3181 8.80236 11.667 8.96252 11.7892 9.27393C11.9113 9.58535 11.7543 9.94125 11.4489 10.0658L3.1181 13.3579C2.76916 13.4914 2.74299 13.8206 2.74299 13.9185C2.74299 14.0163 2.76916 14.3366 3.1181 14.479L11.4664 17.8779C11.7717 18.0024 11.92 18.3583 11.7979 18.6698C11.6758 18.9812 11.3268 19.1324 11.0215 19.0079H11.0128Z" fill="#FC499C"/>
<path id="Vector_3" d="M19.614 2.26265C19.4133 2.55627 19.5006 2.95666 19.8059 3.13461C23.2952 5.23444 25.6418 9.10488 25.6418 13.527C25.6418 18.2338 22.9812 22.3267 19.108 24.3108C18.7765 24.4799 18.6718 24.907 18.8899 25.2184C19.0644 25.4586 19.3872 25.5298 19.6489 25.3963C23.9059 23.2075 26.8369 18.7143 26.8369 13.527C26.8369 8.66 24.2548 4.38917 20.4078 2.0847C20.1374 1.92454 19.7884 1.99572 19.614 2.26265Z" fill="#53C5E9"/>
<path id="Vector_4" d="M17.4325 5.43018C17.2318 5.7149 17.3191 6.11529 17.6157 6.30214C20.0146 7.82362 21.6197 10.5374 21.6197 13.6248C21.6197 16.9881 19.718 19.9065 16.9527 21.3212C16.6212 21.4903 16.5078 21.9174 16.7346 22.2199H16.7433C16.9178 22.469 17.2318 22.5491 17.4848 22.4156C20.6427 20.7963 22.8148 17.4686 22.8148 13.6248C22.8148 10.1014 20.9829 6.99615 18.2437 5.26112C17.9733 5.09207 17.6244 5.16325 17.4412 5.43018H17.4325Z" fill="#00E3B7"/>
<path id="Vector_5" d="M17.878 13.7138C17.878 15.7692 16.5608 17.5131 14.7376 18.1181C14.3538 18.2427 14.2229 18.7232 14.4585 19.0524C14.6068 19.2659 14.8772 19.3549 15.1214 19.2748C17.4157 18.5096 19.0731 16.303 19.0731 13.7138C19.0731 11.4449 17.7995 9.46968 15.9327 8.49985C15.671 8.36638 15.3482 8.45536 15.1825 8.69559C14.9731 9.00701 15.0865 9.4252 15.4093 9.59425C16.8748 10.3594 17.878 11.9165 17.878 13.7049V13.7138Z" fill="#FDBB34"/>
</g>
</g>
</g>
</svg>
