<svg width="632" height="261" viewBox="0 0 632 261" fill="none" xmlns="http://www.w3.org/2000/svg">
<rect y="0.5" width="632" height="260" rx="6" fill="#EBEFFF"/>
<path d="M209.762 235.69C223.501 226.47 226.855 209.026 226.561 193.295C226.512 190.669 226.845 187.906 225.622 185.585C224.4 183.263 221.489 181.646 219.104 182.716C217.126 183.604 216.234 185.858 215.106 187.717C213.606 190.19 211.396 192.222 208.813 193.503C207.115 194.345 205.023 194.844 203.374 193.909C201.112 192.625 200.891 189.494 200.948 186.883C201.055 182.019 201.16 177.155 201.266 172.29C201.323 169.68 201.373 167.016 200.592 164.526C199.812 162.036 198.041 159.707 195.549 158.974C193.057 158.242 189.94 159.627 189.372 162.173C189.136 163.234 189.337 164.341 189.248 165.423C189.158 166.505 188.63 167.696 187.588 167.984C186.534 168.273 185.493 167.517 184.718 166.742C182.043 164.065 180.254 160.643 178.584 157.24C176.914 153.838 175.297 150.357 172.878 147.445C170.459 144.534 167.086 142.205 163.322 141.936C159.558 141.668 155.508 143.915 154.5 147.571C153.488 151.236 155.594 155.002 157.903 158.017C161.326 162.489 165.398 166.459 169.949 169.764C170.769 170.36 171.658 171.005 171.961 171.976C172.504 173.724 170.816 175.429 169.076 175.975C167.105 176.593 164.98 176.359 162.926 176.568C160.871 176.778 158.634 177.641 157.828 179.553C156.71 182.206 158.915 185.035 161.099 186.9C165.473 190.634 170.489 193.608 175.855 195.651C177.78 196.383 179.806 197.029 181.345 198.402C182.885 199.775 183.79 202.134 182.82 203.959C181.848 205.785 179.419 206.337 177.398 205.934C175.377 205.531 173.579 204.411 171.659 203.659C168.064 202.251 163.392 202.428 161.029 205.493C159.475 207.508 159.298 210.344 160.03 212.784C160.762 215.225 162.29 217.341 163.917 219.295C169.607 226.127 176.94 231.669 185.282 234.68C193.623 237.691 201.381 238.589 209.762 235.69Z" fill="#EBEBEB"/>
<path d="M205.784 225.783C203.573 217.817 200.42 209.283 196.815 200.467C195.906 198.267 195.007 196.093 194.121 193.95C193.232 191.812 192.352 189.695 191.36 187.675C189.397 183.627 187.198 179.884 184.998 176.394C182.799 172.903 180.584 169.669 178.491 166.659C176.391 163.653 174.381 160.888 172.44 158.445C168.573 153.543 164.992 149.962 162.432 147.601C161.154 146.416 160.133 145.529 159.434 144.935C159.094 144.65 158.828 144.428 158.635 144.266C158.454 144.117 158.354 144.048 158.354 144.048C158.354 144.048 158.436 144.137 158.609 144.297C158.796 144.465 159.053 144.698 159.383 144.995C160.064 145.609 161.069 146.513 162.329 147.714C164.853 150.106 168.394 153.706 172.223 158.618C174.146 161.065 176.139 163.836 178.225 166.846C180.304 169.862 182.507 173.099 184.693 176.589C186.88 180.076 189.065 183.812 191.016 187.844C191.999 189.856 192.873 191.959 193.762 194.102C194.647 196.244 195.544 198.417 196.453 200.616C200.055 209.426 203.212 217.94 205.437 225.882" fill="#E0E0E0"/>
<path d="M191.263 187.635C191.29 187.64 191.38 187.243 191.52 186.522C191.664 185.802 191.84 184.754 192.041 183.457C192.446 180.863 192.886 177.262 193.363 173.29C193.839 169.316 194.341 165.732 194.8 163.153C195.026 161.862 195.222 160.82 195.367 160.102C195.508 159.383 195.575 158.982 195.548 158.975C195.522 158.969 195.406 159.358 195.219 160.068C195.027 160.777 194.789 161.814 194.528 163.101C193.997 165.675 193.45 169.266 192.973 173.243C192.507 177.181 192.084 180.744 191.767 183.419C191.607 184.664 191.473 185.699 191.37 186.499C191.275 187.225 191.236 187.63 191.263 187.635Z" fill="#E0E0E0"/>
<path d="M157.539 180.855C157.539 180.869 157.658 180.889 157.886 180.917C158.161 180.945 158.49 180.979 158.886 181.018C159.754 181.102 161.009 181.22 162.556 181.418C165.649 181.788 169.905 182.454 174.566 183.398C179.228 184.351 183.407 185.396 186.408 186.243C187.911 186.656 189.118 187.025 189.954 187.276C190.335 187.389 190.653 187.483 190.918 187.561C191.14 187.622 191.258 187.647 191.263 187.635C191.267 187.622 191.157 187.571 190.943 187.485C190.685 187.389 190.375 187.271 190.001 187.131C189.18 186.835 187.983 186.424 186.486 185.975C183.499 185.058 179.317 183.967 174.644 183.012C169.973 182.065 165.697 181.441 162.586 181.141C161.033 180.979 159.77 180.902 158.898 180.866C158.499 180.855 158.168 180.845 157.892 180.838C157.661 180.836 157.54 180.841 157.539 180.855Z" fill="#E0E0E0"/>
<path d="M205.418 225.148C205.43 225.154 205.508 225.013 205.647 224.739C205.801 224.424 205.996 224.024 206.238 223.53C206.746 222.479 207.446 220.94 208.286 219.028C209.97 215.205 212.133 209.854 214.446 203.919C216.76 197.982 218.88 192.62 220.496 188.773C221.298 186.888 221.953 185.346 222.429 184.225C222.643 183.718 222.816 183.308 222.951 182.987C223.067 182.701 223.122 182.549 223.11 182.543C223.097 182.538 223.018 182.679 222.88 182.953C222.727 183.267 222.531 183.668 222.29 184.162C221.781 185.213 221.083 186.752 220.243 188.664C218.559 192.486 216.395 197.837 214.082 203.775C211.768 209.711 209.648 215.071 208.031 218.919C207.23 220.804 206.575 222.347 206.099 223.468C205.885 223.974 205.712 224.384 205.577 224.707C205.46 224.99 205.405 225.143 205.418 225.148Z" fill="#E0E0E0"/>
<path d="M160.698 210.101C160.695 210.113 160.848 210.176 161.144 210.282C161.481 210.397 161.912 210.545 162.445 210.727C163.624 211.122 165.25 211.667 167.239 212.333C171.284 213.693 176.849 215.642 182.992 217.81C189.137 219.978 194.721 221.887 198.792 223.181C200.827 223.83 202.478 224.338 203.625 224.668C204.168 224.822 204.606 224.947 204.948 225.043C205.253 225.125 205.414 225.161 205.418 225.148C205.422 225.135 205.268 225.073 204.972 224.967C204.635 224.851 204.204 224.704 203.671 224.522C202.492 224.126 200.866 223.582 198.877 222.916C194.832 221.556 189.266 219.605 183.121 217.437C176.978 215.27 171.395 213.361 167.325 212.067C165.289 211.419 163.638 210.91 162.49 210.58C161.948 210.426 161.509 210.302 161.167 210.205C160.864 210.124 160.703 210.088 160.698 210.101Z" fill="#E0E0E0"/>
<path d="M421.099 134.611L405.113 175.487L465.431 199.331L481.417 158.455L421.099 134.611Z" fill="#EBEBEB"/>
<path d="M481.437 159.017C481.444 159.037 481.177 159.147 480.663 159.339C480.093 159.545 479.342 159.816 478.405 160.155C476.374 160.86 473.539 161.844 470.058 163.053C462.935 165.466 453.184 168.77 442.384 172.428L442.156 172.506L442.036 172.295C441.944 172.135 441.844 171.961 441.745 171.787C436.02 161.723 430.84 152.615 427.052 145.956C425.22 142.678 423.727 140.007 422.658 138.094C422.173 137.2 421.784 136.484 421.49 135.942C421.228 135.446 421.1 135.182 421.117 135.171C421.135 135.161 421.298 135.406 421.592 135.882C421.911 136.411 422.331 137.108 422.857 137.98C423.965 139.869 425.513 142.509 427.413 145.747C431.238 152.384 436.472 161.462 442.255 171.493C442.354 171.667 442.454 171.84 442.545 172.001L442.197 171.868C453.019 168.274 462.789 165.03 469.927 162.66C473.432 161.525 476.288 160.601 478.333 159.939C479.285 159.644 480.047 159.407 480.625 159.228C481.152 159.071 481.431 158.998 481.437 159.017Z" fill="#E0E0E0"/>
<path d="M405.13 176.049C405.052 175.905 411.78 172.095 420.154 167.539C428.531 162.982 435.383 159.406 435.46 159.55C435.537 159.693 428.811 163.503 420.434 168.059C412.06 172.615 405.207 176.192 405.13 176.049Z" fill="#E0E0E0"/>
<path d="M455.711 166.965C455.867 166.919 458.174 174.253 460.863 183.345C463.553 192.44 465.606 199.849 465.451 199.895C465.295 199.942 462.989 192.609 460.299 183.514C457.61 174.422 455.556 167.012 455.711 166.965Z" fill="#E0E0E0"/>
<path d="M465.97 81.7173L430.424 97.2825L440.859 121.371L476.405 105.806L465.97 81.7173Z" fill="#EBEBEB"/>
<path d="M466.216 81.9579C466.226 81.9634 466.16 82.1236 466.024 82.4237C465.869 82.753 465.666 83.1865 465.411 83.7291C464.849 84.8908 464.064 86.5132 463.1 88.5046C461.102 92.5545 458.368 98.0982 455.339 104.239L455.275 104.368L455.136 104.33C455.03 104.302 454.914 104.27 454.799 104.239C448.143 102.416 442.121 100.767 437.717 99.5609C435.563 98.9533 433.808 98.4583 432.551 98.1042C431.969 97.9326 431.504 97.7952 431.151 97.691C430.832 97.5928 430.666 97.5353 430.669 97.5239C430.672 97.512 430.844 97.5462 431.169 97.6226C431.526 97.7104 431.998 97.8264 432.586 97.9718C433.85 98.2996 435.615 98.7579 437.781 99.3199C442.192 100.5 448.224 102.114 454.89 103.898C455.006 103.929 455.121 103.96 455.227 103.989L455.023 104.081C458.089 97.9589 460.857 92.4319 462.878 88.394C463.884 86.4234 464.703 84.8178 465.289 83.6686C465.568 83.1389 465.791 82.7148 465.96 82.3929C466.117 82.1022 466.205 81.9525 466.216 81.9579Z" fill="#E0E0E0"/>
<path d="M441.105 121.612C441.011 121.584 442.254 117.111 443.88 111.624C445.506 106.134 446.899 101.708 446.992 101.735C447.086 101.763 445.843 106.235 444.217 111.725C442.591 117.213 441.197 121.64 441.105 121.612Z" fill="#E0E0E0"/>
<path d="M458.677 96.2606C458.724 96.1748 462.785 98.2962 467.747 100.998C472.711 103.701 476.697 105.961 476.65 106.047C476.604 106.133 472.544 104.012 467.579 101.309C462.617 98.6071 458.631 96.3464 458.677 96.2606Z" fill="#E0E0E0"/>
<path d="M475.288 235.912C475.288 235.983 403.967 236.041 316.008 236.041C228.018 236.041 156.712 235.983 156.712 235.912C156.712 235.841 228.018 235.783 316.008 235.783C403.967 235.782 475.288 235.84 475.288 235.912Z" fill="#263238"/>
<path d="M418.008 233.946H214.038C210.069 233.946 206.852 230.711 206.852 226.721V96.0031C206.852 92.0127 210.069 88.7778 214.038 88.7778H418.008C421.977 88.7778 425.194 92.0127 425.194 96.0031V226.721C425.194 230.711 421.977 233.946 418.008 233.946Z" fill="#263238"/>
<path d="M425.499 235.912H206.501C201.652 235.912 197.721 231.96 197.721 227.084V223.21H434.279V227.084C434.279 231.959 430.348 235.912 425.499 235.912Z" fill="#263238"/>
<path d="M418.723 94.5454H212.713V217.138H418.723V94.5454Z" fill="#455A64"/>
<path d="M294.499 223.21L297.434 227.904H338.741L341.466 223.21H294.499Z" fill="#455A64"/>
<path d="M413.289 216.746H218.571C217.679 216.746 216.956 216.019 216.956 215.122V100.319C216.956 99.4219 217.679 98.6953 218.571 98.6953H413.29C414.181 98.6953 414.905 99.4219 414.905 100.318V215.122C414.904 216.019 414.181 216.746 413.289 216.746Z" fill="#EBEBEB"/>
<path d="M414.904 107.345H216.956V216.746H414.904V107.345Z" fill="#EBEBEB"/>
<path d="M233.191 103.254C233.191 104.132 232.483 104.844 231.61 104.844C230.737 104.844 230.029 104.132 230.029 103.254C230.029 102.377 230.737 101.665 231.61 101.665C232.483 101.665 233.191 102.377 233.191 103.254Z" fill="#455A64"/>
<path d="M223.61 103.254C223.61 104.132 222.903 104.844 222.029 104.844C221.156 104.844 220.448 104.132 220.448 103.254C220.448 102.377 221.156 101.665 222.029 101.665C222.902 101.665 223.61 102.377 223.61 103.254Z" fill="#455A64"/>
<path d="M228.208 103.254C228.208 104.132 227.501 104.844 226.627 104.844C225.754 104.844 225.046 104.132 225.046 103.254C225.046 102.377 225.754 101.665 226.627 101.665C227.501 101.665 228.208 102.377 228.208 103.254Z" fill="#455A64"/>
<path d="M423.319 223.21C423.319 223.289 374.857 223.352 315.09 223.352C255.303 223.352 206.852 223.289 206.852 223.21C206.852 223.131 255.303 223.067 315.09 223.067C374.857 223.067 423.319 223.131 423.319 223.21Z" fill="#455A64"/>
<path d="M206.806 224.808C206.804 224.812 206.748 224.778 206.639 224.707C206.528 224.632 206.368 224.525 206.157 224.384C205.944 224.239 205.68 224.059 205.367 223.846C205.054 223.629 204.683 223.389 204.298 223.068C203.905 222.756 203.466 222.407 202.982 222.023C202.502 221.633 202.018 221.158 201.471 220.669C200.397 219.671 199.237 218.432 198.033 216.952C195.652 213.98 193.22 209.896 191.537 204.721C189.888 199.552 188.978 193.312 189.49 186.481C189.751 183.073 190.298 179.511 191.333 175.92C192.35 172.33 193.789 168.681 195.889 165.238C196.406 164.374 196.99 163.54 197.595 162.714C198.234 161.917 198.879 161.114 199.528 160.304C200.216 159.527 200.931 158.764 201.64 157.984C202.365 157.221 203.15 156.505 203.911 155.754C207.04 152.84 210.561 150.184 214.335 147.733C221.891 142.819 230.433 138.752 239.225 134.517C247.99 130.2 257.228 126.059 266.7 121.872C304.633 105.169 339.351 90.9395 364.641 81.0596C377.277 76.0976 387.593 72.3156 394.727 69.7226C398.301 68.4444 401.09 67.492 402.977 66.8348C403.92 66.5124 404.64 66.2664 405.127 66.0993C405.368 66.0199 405.551 65.9599 405.678 65.9182C405.801 65.8791 405.864 65.8612 405.866 65.8657C405.867 65.8696 405.807 65.8959 405.686 65.9435C405.562 65.9911 405.382 66.0596 405.145 66.1494C404.66 66.3274 403.946 66.5898 403.011 66.9331C401.129 67.6155 398.36 68.6195 394.795 69.9115C387.683 72.5622 377.39 76.3952 364.773 81.3999C339.522 91.3645 304.832 105.646 266.906 122.345C257.433 126.532 248.209 130.663 239.443 134.972C230.644 139.203 222.119 143.253 214.592 148.133C210.832 150.566 207.329 153.201 204.218 156.087C203.462 156.831 202.681 157.539 201.96 158.295C201.256 159.067 200.544 159.822 199.861 160.592C199.216 161.393 198.575 162.188 197.94 162.977C197.34 163.79 196.764 164.61 196.251 165.463C194.17 168.857 192.733 172.471 191.713 176.029C190.676 179.589 190.123 183.125 189.852 186.509C189.32 193.291 190.198 199.491 191.81 204.633C193.455 209.781 195.845 213.852 198.189 216.827C199.374 218.308 200.517 219.552 201.576 220.558C202.115 221.05 202.591 221.53 203.065 221.925C203.542 222.315 203.974 222.669 204.36 222.986C204.739 223.313 205.104 223.559 205.412 223.782C205.719 224.003 205.977 224.19 206.186 224.341C206.39 224.491 206.545 224.605 206.653 224.685C206.757 224.763 206.808 224.804 206.806 224.808Z" fill="#263238"/>
<path d="M397.574 49.5318L406.708 57.1459L405.865 65.8661L413.349 61.6828L421.32 67.3759L451.032 48.1921L397.574 49.5318Z" fill="#E8505B"/>
<g opacity="0.5">
<path d="M406.708 57.1459L450.226 48.2119L411.139 60.1055L405.865 65.866L406.708 57.1459Z" fill="black"/>
</g>
<g opacity="0.8">
<path d="M411.139 60.1055L413.349 61.6827L405.865 65.866L411.139 60.1055Z" fill="black"/>
</g>
<path d="M277.312 196.346C277.312 196.346 277.28 196.138 277.237 195.751C277.194 195.346 277.134 194.778 277.056 194.045C276.903 192.537 276.681 190.354 276.399 187.567C275.849 181.972 275.061 173.959 274.101 164.201L274.294 164.361C261.193 165.623 244.707 167.211 226.843 168.932C226.796 168.984 227.217 168.474 227.039 168.694L227.04 168.703L227.042 168.72L227.045 168.753L227.051 168.82L227.064 168.955L227.089 169.223L227.139 169.759L227.241 170.829C227.308 171.541 227.374 172.251 227.441 172.958C227.575 174.373 227.707 175.777 227.838 177.171C228.1 179.958 228.357 182.702 228.61 185.394C229.113 190.777 229.597 195.952 230.055 200.853L229.835 200.67C243.786 199.38 255.625 198.286 263.998 197.512C268.179 197.137 271.493 196.84 273.784 196.634C274.909 196.537 275.783 196.462 276.396 196.41C276.682 196.387 276.904 196.37 277.075 196.357C277.228 196.346 277.308 196.342 277.312 196.346C277.317 196.349 277.245 196.36 277.1 196.378C276.936 196.397 276.721 196.421 276.446 196.452C275.844 196.516 274.985 196.606 273.879 196.722C271.601 196.952 268.306 197.285 264.149 197.705C255.749 198.531 243.87 199.699 229.873 201.076L229.671 201.095L229.651 200.892C229.185 195.992 228.692 190.818 228.179 185.436C227.924 182.744 227.664 180.001 227.4 177.213C227.268 175.819 227.135 174.415 227.001 173.001C226.935 172.293 226.868 171.583 226.8 170.872L226.699 169.802L226.648 169.266L226.623 168.997L226.61 168.863L226.604 168.796L226.6 168.762L226.599 168.745L226.598 168.737C226.419 168.95 226.84 168.436 226.801 168.489C244.668 166.802 261.157 165.245 274.26 164.008L274.437 163.991L274.454 164.168C275.341 173.98 276.069 182.036 276.577 187.662C276.819 190.435 277.009 192.607 277.14 194.108C277.199 194.829 277.245 195.387 277.278 195.785C277.308 196.161 277.312 196.346 277.312 196.346Z" fill="#455A64"/>
<path d="M274.278 164.184C274.289 164.194 274.162 164.357 273.91 164.659C273.627 164.991 273.256 165.426 272.792 165.969C271.774 167.132 270.353 168.754 268.607 170.748C265.007 174.796 260.069 180.347 254.567 186.533L254.442 186.674L254.283 186.572C253.883 186.316 253.453 186.04 253.02 185.763C245.782 181.095 239.232 176.871 234.443 173.782C232.108 172.251 230.204 171.002 228.84 170.108C228.213 169.685 227.711 169.347 227.329 169.09C226.986 168.853 226.81 168.722 226.819 168.71C226.827 168.697 227.019 168.802 227.377 169.014C227.769 169.253 228.287 169.568 228.933 169.961C230.315 170.827 232.244 172.034 234.611 173.516C239.418 176.577 245.993 180.762 253.257 185.387C253.69 185.664 254.121 185.94 254.521 186.197L254.238 186.235C259.78 180.085 264.753 174.566 268.379 170.541C270.168 168.586 271.624 166.995 272.667 165.856C273.155 165.335 273.547 164.918 273.845 164.6C274.118 164.318 274.266 164.174 274.278 164.184Z" fill="#455A64"/>
<path d="M401.855 150.105C401.855 150.105 401.888 149.954 401.961 149.678C402.038 149.39 402.147 148.985 402.288 148.462C402.581 147.39 403.006 145.837 403.548 143.856C404.648 139.881 406.224 134.19 408.143 127.258L408.233 127.419C398.937 124.786 387.24 121.474 374.565 117.886C374.519 117.908 374.942 117.672 374.762 117.775L374.761 117.781L374.757 117.793L374.75 117.817L374.737 117.865L374.71 117.96L374.656 118.15L374.549 118.531L374.336 119.29C374.194 119.795 374.053 120.298 373.912 120.8C373.629 121.803 373.349 122.799 373.071 123.787C372.514 125.764 371.966 127.71 371.429 129.619C370.352 133.436 369.317 137.105 368.337 140.58L368.234 140.396C378.119 143.236 386.507 145.646 392.439 147.35C395.398 148.209 397.744 148.89 399.365 149.36C400.161 149.594 400.778 149.776 401.211 149.904C401.413 149.965 401.57 150.012 401.689 150.049C401.797 150.082 401.853 150.101 401.855 150.105C401.857 150.108 401.806 150.097 401.701 150.07C401.585 150.039 401.432 149.999 401.235 149.947C400.806 149.829 400.195 149.662 399.407 149.446C397.789 148.996 395.446 148.344 392.492 147.523C386.528 145.846 378.093 143.476 368.154 140.683L368.011 140.643L368.051 140.499C369.025 137.022 370.054 133.351 371.124 129.532C371.659 127.623 372.206 125.676 372.761 123.699C373.038 122.711 373.318 121.714 373.6 120.711C373.741 120.209 373.882 119.706 374.024 119.2L374.237 118.442L374.344 118.061L374.397 117.871L374.424 117.775L374.437 117.728L374.444 117.704L374.447 117.692L374.449 117.686C374.27 117.784 374.694 117.545 374.653 117.571C387.321 121.183 399.012 124.518 408.303 127.167L408.429 127.203L408.393 127.328C406.409 134.277 404.781 139.983 403.644 143.967C403.078 145.929 402.634 147.466 402.328 148.527C402.178 149.036 402.062 149.43 401.98 149.711C401.901 149.977 401.855 150.105 401.855 150.105Z" fill="#455A64"/>
<path d="M408.268 127.293C408.273 127.303 408.143 127.38 407.891 127.52C407.61 127.671 407.241 127.87 406.78 128.118C405.777 128.641 404.377 129.372 402.656 130.27C399.125 132.079 394.282 134.559 388.885 137.323L388.762 137.386L388.68 137.274C388.474 136.992 388.253 136.688 388.03 136.383C384.31 131.259 380.944 126.622 378.483 123.231C377.29 121.56 376.317 120.198 375.62 119.223C375.303 118.766 375.048 118.401 374.855 118.124C374.683 117.87 374.597 117.734 374.606 117.727C374.615 117.72 374.719 117.844 374.908 118.085C375.113 118.353 375.384 118.706 375.722 119.148C376.439 120.109 377.44 121.45 378.668 123.095C381.149 126.471 384.542 131.088 388.291 136.19C388.514 136.495 388.736 136.799 388.942 137.082L388.738 137.033C394.153 134.304 399.012 131.855 402.555 130.069C404.295 129.209 405.71 128.509 406.725 128.008C407.197 127.782 407.575 127.601 407.863 127.463C408.124 127.342 408.263 127.283 408.268 127.293Z" fill="#455A64"/>
<path d="M230.735 112.283C230.735 112.283 233.056 110.394 236.653 116.063C240.25 121.732 241.726 125.06 241.726 125.06C241.726 125.06 242.645 126.232 243.42 125.332C244.195 124.432 245.142 122.001 246.633 122.278C248.179 122.564 248.838 124.204 248.79 126.713C248.741 129.223 248.837 134.724 248.847 135.221C248.858 135.71 249.203 136.397 249.828 135.869C250.454 135.341 253.894 130.649 256.011 132.423C258.128 134.198 256.851 141.166 256.726 141.931C256.601 142.695 256.777 143 257.146 143.149C257.516 143.3 258.525 141.613 259.557 140.319C260.59 139.025 262.013 137.706 263.149 138.832C264.285 139.959 265.101 145.015 261.08 153.747L258.954 157.67L254.494 157.854C244.925 157.663 240.761 154.712 240.252 153.192C239.742 151.672 241.544 150.963 243.154 150.596C244.764 150.23 246.713 150.057 246.741 149.657C246.769 149.257 246.574 148.965 245.835 148.743C245.097 148.522 238.307 146.623 237.648 143.933C236.988 141.242 242.691 140.188 243.437 139.853C244.182 139.519 243.719 138.907 243.287 138.683C242.847 138.456 237.969 135.96 235.705 134.905C233.44 133.849 232.262 132.536 232.683 131.013C233.09 129.544 235.677 129.753 236.821 129.447C237.966 129.14 237.32 127.796 237.32 127.796C237.32 127.796 234.991 125.004 231.497 119.27C228.004 113.536 230.784 112.247 230.784 112.247" fill="#E8505B"/>
<path d="M233.965 117.355C233.965 117.355 233.985 117.399 234.031 117.479C234.082 117.565 234.151 117.684 234.24 117.836C234.43 118.154 234.704 118.612 235.055 119.199C235.764 120.382 236.803 122.086 238.095 124.186C240.676 128.388 244.291 134.162 248.305 140.525C252.32 146.89 255.95 152.655 258.554 156.842C259.852 158.933 260.903 160.626 261.633 161.803C261.995 162.384 262.277 162.837 262.472 163.151C262.567 163.3 262.64 163.416 262.694 163.5C262.744 163.578 262.774 163.616 262.774 163.616C262.774 163.616 262.753 163.573 262.707 163.492C262.657 163.406 262.588 163.288 262.498 163.136C262.308 162.818 262.035 162.36 261.684 161.773C260.975 160.59 259.936 158.886 258.645 156.786C256.063 152.584 252.448 146.81 248.433 140.445C244.419 134.082 240.79 128.318 238.185 124.131C236.888 122.04 235.837 120.347 235.105 119.169C234.744 118.589 234.462 118.135 234.266 117.821C234.172 117.672 234.098 117.556 234.045 117.473C233.994 117.394 233.965 117.355 233.965 117.355Z" fill="#263238"/>
<path d="M245.446 125.732C245.435 125.73 245.406 125.841 245.361 126.044C245.315 126.246 245.258 126.541 245.19 126.906C245.057 127.637 244.899 128.65 244.747 129.772C244.601 130.876 244.47 131.874 244.368 132.645C244.322 132.987 244.282 133.277 244.249 133.515C244.221 133.721 244.209 133.835 244.22 133.837C244.23 133.839 244.26 133.728 244.307 133.526C244.352 133.323 244.41 133.028 244.473 132.662C244.599 131.929 244.743 130.914 244.896 129.793C245.049 128.691 245.188 127.694 245.295 126.923C245.343 126.582 245.385 126.291 245.418 126.054C245.446 125.849 245.456 125.734 245.446 125.732Z" fill="#263238"/>
<path d="M243.822 133.956C243.829 133.914 241.766 133.495 239.213 133.019C236.659 132.542 234.583 132.19 234.575 132.23C234.568 132.272 236.631 132.691 239.185 133.167C241.738 133.644 243.814 133.997 243.822 133.956Z" fill="#263238"/>
<path d="M250.425 143.45C250.423 143.439 250.306 143.445 250.097 143.464C249.855 143.488 249.559 143.517 249.209 143.551C248.46 143.625 247.425 143.722 246.279 143.789C245.133 143.858 244.094 143.885 243.341 143.899C242.99 143.906 242.692 143.912 242.45 143.917C242.239 143.923 242.122 143.931 242.122 143.942C242.122 143.952 242.238 143.964 242.449 143.976C242.659 143.989 242.964 144.001 243.341 144.006C244.095 144.019 245.138 144.01 246.288 143.94C247.437 143.874 248.474 143.759 249.222 143.658C249.595 143.606 249.897 143.56 250.105 143.522C250.312 143.485 250.426 143.46 250.425 143.45Z" fill="#263238"/>
<path d="M253.522 136.336C253.513 136.332 253.459 136.427 253.371 136.601C253.283 136.776 253.159 137.03 253.009 137.346C252.709 137.978 252.304 138.855 251.866 139.828C251.428 140.801 251.038 141.685 250.764 142.328C250.626 142.649 250.517 142.911 250.445 143.093C250.373 143.275 250.338 143.378 250.347 143.382C250.357 143.386 250.41 143.292 250.499 143.117C250.587 142.943 250.711 142.688 250.861 142.372C251.16 141.74 251.565 140.863 252.003 139.89C252.442 138.918 252.831 138.034 253.106 137.39C253.244 137.069 253.352 136.808 253.424 136.626C253.497 136.443 253.532 136.34 253.522 136.336Z" fill="#263238"/>
<path d="M260.41 143.973C260.401 143.968 260.333 144.09 260.22 144.314C260.097 144.565 259.94 144.885 259.753 145.267C259.365 146.074 258.838 147.195 258.264 148.436C257.69 149.677 257.178 150.805 256.814 151.624C256.645 152.014 256.503 152.34 256.391 152.598C256.294 152.829 256.245 152.959 256.254 152.963C256.263 152.968 256.331 152.846 256.444 152.623C256.567 152.371 256.724 152.051 256.911 151.669C257.299 150.862 257.827 149.741 258.401 148.5C258.974 147.259 259.486 146.131 259.849 145.312C260.019 144.922 260.161 144.596 260.273 144.338C260.37 144.107 260.419 143.977 260.41 143.973Z" fill="#263238"/>
<path d="M256.294 152.72C256.293 152.71 256.145 152.713 255.878 152.728C255.583 152.746 255.204 152.77 254.749 152.798C253.795 152.857 252.479 152.935 251.022 152.98C249.566 153.027 248.246 153.036 247.291 153.036C246.835 153.036 246.456 153.037 246.16 153.037C245.892 153.039 245.744 153.045 245.744 153.055C245.744 153.065 245.891 153.079 246.158 153.096C246.425 153.112 246.812 153.129 247.29 153.142C248.246 153.169 249.568 153.178 251.027 153.131C252.486 153.086 253.805 152.991 254.757 152.905C255.233 152.86 255.618 152.82 255.884 152.786C256.149 152.754 256.295 152.731 256.294 152.72Z" fill="#263238"/>
<path d="M403.258 157.023C401.6 156.257 399.625 156.373 397.934 157.063C396.242 157.752 394.808 158.969 393.594 160.34C391.247 162.992 389.939 166.862 389.283 170.351C393.176 170.833 396.98 168.324 398.83 166.929C401.755 164.724 405.708 158.954 403.258 157.023Z" fill="#E8505B"/>
<path d="M382.243 171.721C384.102 170.877 385.317 168.882 385.459 166.837C385.6 164.792 384.753 162.748 383.386 161.227C382.754 160.523 381.916 159.884 380.974 159.932C380.094 159.977 379.33 160.643 378.962 161.448C378.594 162.253 378.564 163.175 378.651 164.057C378.946 167.081 379.784 169.953 382.243 171.721Z" fill="#E8505B"/>
<path d="M377.132 181.59C377.154 181.606 377.328 181.406 377.623 181.03C377.917 180.654 378.332 180.102 378.825 179.403C379.8 178.006 381.13 176.01 382.025 173.521C382.918 171.027 382.994 168.548 382.619 166.857C382.439 166.009 382.191 165.348 381.976 164.918C381.762 164.485 381.61 164.266 381.59 164.278C381.516 164.31 382.067 165.239 382.344 166.909C382.639 168.565 382.521 170.958 381.653 173.388C380.781 175.818 379.507 177.814 378.594 179.246C377.667 180.674 377.083 181.556 377.132 181.59Z" fill="#263238"/>
<path d="M399.748 161.077C399.73 161.056 399.38 161.317 398.762 161.807C398.144 162.296 397.261 163.019 396.179 163.924C394.016 165.733 391.068 168.281 387.883 171.175C384.697 174.072 381.878 176.764 379.87 178.745C378.866 179.736 378.062 180.546 377.516 181.116C376.968 181.685 376.675 182.008 376.694 182.028C376.713 182.048 377.043 181.762 377.623 181.227C378.25 180.642 379.072 179.874 380.064 178.949C382.119 177.02 384.966 174.364 388.148 171.471C391.331 168.579 394.246 166 396.361 164.138C397.377 163.239 398.219 162.494 398.862 161.925C399.448 161.399 399.765 161.098 399.748 161.077Z" fill="#263238"/>
<path d="M384.485 177.07C388.044 174.648 392.803 174.113 396.807 175.685C397.827 176.085 398.933 176.819 398.951 177.919C398.969 179.022 397.881 179.795 396.862 180.205C392.627 181.909 387.398 180.707 384.321 177.32" fill="#E8505B"/>
<path d="M394.161 177.686C394.172 177.661 393.946 177.549 393.524 177.368C393.315 177.274 393.055 177.169 392.742 177.08C392.43 176.986 392.08 176.858 391.676 176.783C390.879 176.586 389.904 176.46 388.817 176.422C387.731 176.407 386.532 176.495 385.301 176.748C384.073 177.017 382.941 177.423 381.953 177.879C380.974 178.355 380.133 178.866 379.483 179.371C379.144 179.603 378.874 179.863 378.627 180.075C378.377 180.284 378.181 180.486 378.027 180.657C377.714 180.993 377.552 181.187 377.572 181.206C377.627 181.261 378.319 180.519 379.645 179.6C380.304 179.134 381.141 178.659 382.105 178.213C383.078 177.786 384.185 177.401 385.382 177.139C386.583 176.892 387.75 176.796 388.812 176.79C389.873 176.807 390.829 176.902 391.618 177.06C393.201 177.361 394.133 177.758 394.161 177.686Z" fill="#263238"/>
<path d="M381.204 69.0708H256.521V206.525H381.204V69.0708Z" fill="#FAFAFA"/>
<path d="M381.203 206.526C381.202 205.548 381.158 151.214 381.09 69.0714L381.203 69.1844C344.642 69.1889 301.938 69.1944 256.533 69.2003H256.52L256.649 69.0714C256.642 119.65 256.635 166.887 256.629 206.526L256.52 206.416C331.499 206.482 380.279 206.525 381.203 206.526C380.279 206.527 331.499 206.569 256.52 206.636H256.411V206.526C256.405 166.887 256.399 119.65 256.392 69.0714V68.9419H256.52H256.532C301.938 68.9478 344.642 68.9528 381.202 68.9578H381.315V69.0714C381.249 151.214 381.204 205.549 381.203 206.526Z" fill="#263238"/>
<path d="M347.488 193.948H299.835C295.883 193.948 292.68 190.727 292.68 186.753V185.29C292.68 181.316 295.883 178.095 299.835 178.095H347.488C351.44 178.095 354.644 181.316 354.644 185.29V186.753C354.644 190.727 351.44 193.948 347.488 193.948Z" fill="#E8505B"/>
<g opacity="0.5">
<path d="M347.488 193.948H299.835C295.883 193.948 292.68 190.727 292.68 186.753V185.29C292.68 181.316 295.883 178.095 299.835 178.095H347.488C351.44 178.095 354.644 181.316 354.644 185.29V186.753C354.644 190.727 351.44 193.948 347.488 193.948Z" fill="black"/>
</g>
<path d="M342.285 193.948H294.632C290.68 193.948 287.477 190.727 287.477 186.753V185.29C287.477 181.316 290.68 178.095 294.632 178.095H342.285C346.237 178.095 349.441 181.316 349.441 185.29V186.753C349.441 190.727 346.237 193.948 342.285 193.948Z" fill="#E8505B"/>
<path d="M304.575 187.048L304.785 186.574C305.047 186.786 305.462 186.936 305.864 186.936C306.372 186.936 306.587 186.753 306.587 186.509C306.587 185.8 304.645 186.265 304.645 185.045C304.645 184.515 305.065 184.064 305.961 184.064C306.353 184.064 306.764 184.167 307.049 184.355L306.857 184.829C306.563 184.655 306.241 184.571 305.957 184.571C305.453 184.571 305.247 184.768 305.247 185.016C305.247 185.715 307.184 185.26 307.184 186.466C307.184 186.992 306.759 187.442 305.863 187.442C305.355 187.442 304.846 187.283 304.575 187.048Z" fill="#FAFAFA"/>
<path d="M307.759 185.964V184.111H308.366V185.941C308.366 186.616 308.669 186.907 309.196 186.907C309.724 186.907 310.023 186.616 310.023 185.941V184.111H310.62V185.964C310.62 186.922 310.083 187.442 309.192 187.442C308.296 187.442 307.759 186.922 307.759 185.964Z" fill="#FAFAFA"/>
<path d="M314.375 186.504C314.375 187.067 313.936 187.396 313.096 187.396H311.472V184.111H313.002C313.786 184.111 314.207 184.444 314.207 184.965C314.207 185.303 314.039 185.552 313.786 185.688C314.137 185.8 314.375 186.077 314.375 186.504ZM312.078 184.589V185.495H312.937C313.358 185.495 313.595 185.345 313.595 185.045C313.595 184.74 313.358 184.589 312.937 184.589H312.078ZM313.763 186.443C313.763 186.114 313.516 185.969 313.059 185.969H312.078V186.917H313.059C313.516 186.917 313.763 186.772 313.763 186.443Z" fill="#FAFAFA"/>
<path d="M314.751 187.048L314.961 186.574C315.223 186.786 315.638 186.936 316.04 186.936C316.548 186.936 316.763 186.753 316.763 186.509C316.763 185.8 314.822 186.265 314.822 185.045C314.822 184.515 315.241 184.064 316.138 184.064C316.53 184.064 316.94 184.167 317.225 184.355L317.033 184.829C316.739 184.655 316.417 184.57 316.133 184.57C315.629 184.57 315.423 184.768 315.423 185.016C315.423 185.715 317.36 185.26 317.36 186.466C317.36 186.992 316.935 187.442 316.04 187.442C315.53 187.442 315.022 187.283 314.751 187.048Z" fill="#FAFAFA"/>
<path d="M317.729 185.753C317.729 184.772 318.476 184.064 319.48 184.064C320.012 184.064 320.469 184.256 320.773 184.613L320.381 184.984C320.143 184.726 319.849 184.599 319.507 184.599C318.831 184.599 318.341 185.078 318.341 185.753C318.341 186.429 318.831 186.908 319.507 186.908C319.848 186.908 320.142 186.781 320.381 186.518L320.773 186.894C320.469 187.251 320.012 187.443 319.475 187.443C318.476 187.442 317.729 186.734 317.729 185.753Z" fill="#FAFAFA"/>
<path d="M323.496 187.396L322.829 186.434C322.787 186.439 322.745 186.439 322.703 186.439H321.965V187.396H321.358V184.112H322.703C323.561 184.112 324.093 184.553 324.093 185.28C324.093 185.777 323.841 186.143 323.398 186.317L324.149 187.396H323.496V187.396ZM322.674 184.627H321.965V185.936H322.674C323.206 185.936 323.482 185.692 323.482 185.28C323.482 184.866 323.206 184.627 322.674 184.627Z" fill="#FAFAFA"/>
<path d="M324.772 184.111H325.379V187.396H324.772V184.111Z" fill="#FAFAFA"/>
<path d="M329.164 186.504C329.164 187.067 328.726 187.396 327.886 187.396H326.262V184.111H327.792C328.576 184.111 328.996 184.444 328.996 184.965C328.996 185.303 328.828 185.552 328.576 185.688C328.927 185.8 329.164 186.077 329.164 186.504ZM326.869 184.589V185.495H327.727C328.147 185.495 328.385 185.345 328.385 185.045C328.385 184.74 328.147 184.589 327.727 184.589H326.869ZM328.553 186.443C328.553 186.114 328.306 185.969 327.848 185.969H326.869V186.917H327.848C328.306 186.917 328.553 186.772 328.553 186.443Z" fill="#FAFAFA"/>
<path d="M332.267 186.884V187.395H329.816V184.111H332.201V184.622H330.423V185.476H332V185.978H330.423V186.884H332.267Z" fill="#FAFAFA"/>
<path d="M355.145 167.523C355.145 167.594 339.289 167.652 319.733 167.652C300.171 167.652 284.318 167.594 284.318 167.523C284.318 167.452 300.171 167.394 319.733 167.394C339.288 167.394 355.145 167.452 355.145 167.523Z" fill="#263238"/>
<path d="M366.226 171.83C366.226 171.902 345.408 171.959 319.734 171.959C294.052 171.959 273.238 171.901 273.238 171.83C273.238 171.759 294.052 171.701 319.734 171.701C345.408 171.701 366.226 171.759 366.226 171.83Z" fill="#263238"/>
<path d="M262.381 74.4176C262.381 75.0039 261.909 75.4791 261.326 75.4791C260.743 75.4791 260.271 75.0039 260.271 74.4176C260.271 73.8314 260.743 73.3562 261.326 73.3562C261.909 73.3562 262.381 73.8314 262.381 74.4176Z" fill="#E0E0E0"/>
<path d="M264.846 75.4791C265.429 75.4791 265.902 75.0039 265.902 74.4176C265.902 73.8314 265.429 73.3562 264.846 73.3562C264.263 73.3562 263.79 73.8314 263.79 74.4176C263.79 75.0039 264.263 75.4791 264.846 75.4791Z" fill="#E0E0E0"/>
<path d="M269.421 74.4176C269.421 75.0039 268.948 75.4791 268.365 75.4791C267.782 75.4791 267.31 75.0039 267.31 74.4176C267.31 73.8314 267.782 73.3562 268.365 73.3562C268.948 73.3562 269.421 73.8314 269.421 74.4176Z" fill="#E0E0E0"/>
<path d="M371.924 96.6465L373.974 89.2129C373.974 89.2129 374.713 86.1928 374.889 85.487C375.122 84.5535 374.471 84.2599 374.087 84.8948C373.941 85.1358 372.319 88.211 372.319 88.211C372.319 88.211 373.612 83.1766 373.659 82.9936C374.077 81.3498 373.065 81.52 372.769 82.1077C372.462 82.7148 370.631 87.6694 370.631 87.6694C372.351 81.1951 371.813 80.6252 371.329 80.523C370.846 80.4213 369.329 86.3406 369.329 86.3406C369.329 86.3406 368.784 85.3288 367.775 84.6314C366.219 83.5561 363.628 84.6299 363.503 85.366C363.378 86.102 364.303 86.3084 364.303 86.3084C366.252 85.046 368.25 86.5752 368.045 88.4441C367.841 90.3136 365.486 90.0537 365.193 88.7234C364.55 85.8044 363.551 86.7528 363.551 86.7528L364.552 93.1919L363.491 96.4297" fill="#FFBE9D"/>
<path d="M298.073 126.947L342.399 126.65L343.617 156.95L297.72 156.495L298.073 126.947Z" fill="#455A64"/>
<path d="M298.073 126.948L320.587 108.653L342.399 126.65" fill="#263238"/>
<path d="M297.719 156.495C297.664 156.443 301.215 152.549 305.649 147.8C310.085 143.049 313.725 139.241 313.78 139.293C313.836 139.345 310.286 143.238 305.85 147.989C301.415 152.738 297.775 156.547 297.719 156.495Z" fill="#263238"/>
<path d="M343.617 156.95C343.56 157 340.106 153.182 335.904 148.421C331.7 143.659 328.339 139.76 328.396 139.709C328.453 139.659 331.906 143.477 336.11 148.238C340.312 152.999 343.674 156.899 343.617 156.95Z" fill="#263238"/>
<path d="M342.399 126.65L320.131 144.514L298.073 126.947" fill="#263238"/>
<path d="M268.454 92.8L268.602 92.7956L268.007 90.8016L266.109 83.1821C265.929 82.4907 266.312 81.7784 267 81.522L268.367 81.4754L273.048 79.2741C273.932 78.9453 274.91 79.5037 275.02 80.4124C275.191 81.8131 276.138 85.5753 277.147 84.2574C277.17 84.2267 277.195 84.2014 277.219 84.1711C278.636 82.2099 280.401 81.152 281.127 81.1817C281.835 81.2105 282.097 82.0735 281.623 82.5889C281.553 82.6772 281.469 82.7595 281.355 82.8215C281.308 82.8473 281.252 82.8934 281.202 82.9257C280.652 83.3696 279.998 84.1587 279.517 84.7842C279.059 85.3808 278.71 86.0574 278.486 86.7677C278.235 87.5578 278.05 88.2507 277.91 88.838L278.273 92.7271" fill="#FFBE9D"/>
<path d="M280.943 58.2867C280.943 58.2867 275.473 57.2327 267.614 50.0556C259.757 42.878 255.885 33.1594 254.95 33.2343C254.015 33.3087 249.873 31.5171 242.577 48.7447C235.281 65.9723 238.456 69.8341 240.002 69.7582C241.548 69.6818 251.971 66.439 258.555 67.0015C265.138 67.5644 273.671 70.7621 273.671 70.7621L280.943 58.2867Z" fill="#455A64"/>
<path d="M292.753 67.2272L290.998 70.8251L290.213 72.4371C289.135 74.6478 286.524 75.6234 284.272 74.6572L272.506 70.908L278.852 55.1401L290.668 61.045C292.936 62.1779 293.868 64.9401 292.753 67.2272Z" fill="#263238"/>
<path d="M286.195 73.0944L282.688 80.5165L280.817 80.0508L268.971 90.313L265.395 83.74C265.395 83.74 272.472 80.4322 273.725 77.8257C274.978 75.2193 273.43 74.6801 273.43 74.6801L276.694 70.731L286.195 73.0944Z" fill="#263238"/>
<path d="M243.214 49.0363C239.336 58.3665 237.845 66.6249 239.884 67.4815C241.923 68.3386 246.72 61.469 250.598 52.1387C254.476 42.8085 255.967 34.5506 253.928 33.6935C251.889 32.8369 247.092 39.706 243.214 49.0363Z" fill="#263238"/>
<path d="M293.896 72.3207L290.71 71.4135L292.559 67.6221L294.969 69.0347L293.896 72.3207Z" fill="#455A64"/>
<path d="M275.575 72.0845L284.215 77.284L285.215 75.1681L275.575 72.0845Z" fill="#455A64"/>
<path d="M292.559 67.6221L290.71 71.4135L291.365 71.6005L292.848 67.7912L292.559 67.6221Z" fill="#455A64"/>
<path d="M290.408 68.546C290.364 68.6501 288.771 68.0792 286.849 67.2708C284.925 66.4623 283.403 65.7228 283.446 65.6191C283.489 65.5154 285.082 66.0863 287.005 66.8943C288.927 67.7028 290.451 68.4418 290.408 68.546Z" fill="#455A64"/>
<path d="M291.316 66.2933C291.27 66.3959 289.827 65.8325 288.093 65.0344C286.358 64.2363 284.991 63.5067 285.038 63.4041C285.085 63.3019 286.528 63.8653 288.262 64.6634C289.995 65.4615 291.363 66.1911 291.316 66.2933Z" fill="#455A64"/>
<path d="M289.248 70.9143C289.233 70.9689 288.856 70.8925 288.252 70.7239C287.951 70.6396 287.593 70.5324 287.197 70.4069C286.804 70.276 286.394 70.0821 285.955 69.8971C284.205 69.1402 282.864 68.3882 282.904 68.2935C282.952 68.1814 284.38 68.7721 286.114 69.5216C286.549 69.7046 286.953 69.909 287.333 70.0558C287.715 70.1981 288.057 70.3315 288.343 70.4496C288.914 70.6862 289.263 70.8603 289.248 70.9143Z" fill="#455A64"/>
<path d="M251.593 46.7468C251.593 46.7468 246.785 43.9359 244.381 50.4276C241.977 56.9192 246.978 57.8324 246.978 57.8324C248.923 54.6029 250.473 50.9211 251.593 46.7468Z" fill="#455A64"/>
<path d="M256.402 38.9551C256.43 38.9591 256.375 39.3965 256.251 40.1867C256.124 40.9753 255.945 42.1196 255.681 43.5257C255.501 44.2196 255.304 44.9775 255.093 45.7905C254.986 46.1977 254.875 46.6183 254.761 47.0518C254.703 47.2686 254.645 47.4888 254.586 47.7115C254.522 47.9327 254.435 48.1505 254.36 48.3741C254.044 49.2669 253.713 50.2034 253.37 51.1736C253.284 51.4161 253.197 51.6606 253.109 51.9076C253.025 52.1556 252.901 52.3898 252.798 52.6343C252.58 53.1194 252.36 53.6119 252.137 54.1099C251.913 54.6079 251.692 55.0999 251.473 55.5855C251.359 55.8256 251.266 56.0736 251.138 56.3022C251.011 56.5314 250.886 56.7595 250.763 56.9852C250.266 57.8859 249.786 58.7554 249.329 59.5837C249.212 59.7891 249.107 59.9979 248.984 60.1928C248.857 60.3853 248.731 60.5748 248.607 60.7617C248.359 61.1352 248.118 61.4978 247.885 61.8485C247.418 62.5459 246.983 63.1971 246.584 63.7928C245.712 64.9192 244.979 65.809 244.475 66.4266C243.968 67.0416 243.678 67.3734 243.656 67.3556C243.633 67.3382 243.882 66.9736 244.35 66.3288C244.836 65.6716 245.518 64.7491 246.357 63.6162C246.739 63.0161 247.158 62.3608 247.606 61.6585C247.832 61.3073 248.065 60.9443 248.305 60.5708C248.425 60.3843 248.547 60.1948 248.671 60.0029C248.79 59.8079 248.892 59.5986 249.006 59.3933C249.453 58.5664 249.922 57.6994 250.409 56.8002C250.531 56.5755 250.654 56.3488 250.778 56.1207C250.905 55.8935 250.996 55.647 251.109 55.4079C251.325 54.9258 251.544 54.4368 251.766 53.9422C251.988 53.4477 252.208 52.9592 252.424 52.4776C252.528 52.235 252.651 52.0024 252.736 51.7569C252.824 51.5123 252.912 51.2698 252.998 51.0292C253.347 50.068 253.683 49.141 254.003 48.2566C254.081 48.0349 254.169 47.8196 254.236 47.6009C254.297 47.3802 254.358 47.1629 254.417 46.9481C254.537 46.5196 254.654 46.103 254.767 45.7002C254.994 44.8967 255.206 44.1467 255.4 43.4608C255.69 42.0824 255.925 40.9599 256.094 40.1604C256.267 39.3807 256.374 38.9511 256.402 38.9551Z" fill="#263238"/>
<path d="M284.81 109.851L279.918 91.1656L267.694 91.491L271.496 117.566C271.982 123.24 275.303 126.954 280.896 127.856C284.249 128.396 287.883 125.182 290.576 123.103C292.334 121.744 292.647 122.014 294.461 120.356L302.335 114.633L302.528 115.572L302.477 115.574L303.815 131.507L320.123 144.381L339.576 128.712L339.132 121.934C339.18 121.929 339.228 121.834 339.126 121.836L338.622 114.156L348.587 125.649C350.881 129.016 354.785 130.899 358.833 130.591C363.21 130.257 367.005 127.422 368.586 123.306L373.721 97.0392L362.453 94.6014L357.176 113.529L344.586 98.9826C337.327 89.4723 328.85 90.2763 328.85 90.2763L313.224 89.9975C313.212 89.997 313.201 89.9975 313.189 89.998C312.725 90.0228 303.992 90.2882 298.073 96.6474L284.81 109.851Z" fill="#E8505B"/>
<path d="M345.222 100.018C345.215 100.034 345.053 99.9383 344.719 99.8332C344.388 99.7255 343.874 99.6248 343.212 99.6764C342.552 99.7305 341.757 99.9433 340.9 100.343C340.036 100.728 339.142 101.342 338.101 101.945C337.069 102.528 335.828 103.169 334.367 103.135C333.644 103.111 332.919 102.91 332.217 102.632C331.513 102.355 330.82 102.011 330.091 101.721C328.646 101.127 326.954 100.928 325.288 101.263C323.61 101.585 322.072 102.531 320.498 103.449C319.704 103.907 318.905 104.346 318.064 104.673C317.226 105.002 316.355 105.212 315.488 105.303C313.755 105.49 312.041 105.231 310.562 104.616C309.076 104.008 307.83 103.121 306.689 102.297C305.549 101.467 304.5 100.678 303.471 100.079C302.44 99.483 301.432 99.0822 300.517 98.8546C299.599 98.6348 298.779 98.5877 298.119 98.6542C296.789 98.7995 296.155 99.2628 296.142 99.2181C296.14 99.2142 296.179 99.1898 296.258 99.1462C296.338 99.1035 296.455 99.0361 296.615 98.9597C296.941 98.8238 297.436 98.6348 298.108 98.5545C298.778 98.4716 299.614 98.5044 300.55 98.7147C301.483 98.9329 302.511 99.3272 303.561 99.921C304.61 100.518 305.67 101.303 306.813 102.124C307.957 102.939 309.196 103.809 310.651 104.396C312.098 104.991 313.77 105.238 315.461 105.053C316.306 104.962 317.155 104.756 317.972 104.435C318.791 104.115 319.58 103.682 320.37 103.227C321.937 102.314 323.503 101.346 325.239 101.016C326.955 100.674 328.7 100.886 330.178 101.501C331.645 102.103 332.977 102.878 334.374 102.922C335.764 102.965 336.981 102.358 338.011 101.787C339.049 101.201 339.958 100.592 340.841 100.213C341.715 99.8203 342.529 99.6169 343.205 99.5777C343.882 99.54 344.405 99.6596 344.736 99.785C345.069 99.9066 345.222 100.018 345.222 100.018Z" fill="#FAFAFA"/>
<path d="M354.283 109.326C354.283 109.326 354.237 109.582 354.016 110.018C353.794 110.448 353.364 111.054 352.601 111.588C351.85 112.127 350.769 112.581 349.459 112.707C348.151 112.855 346.658 112.697 345.034 112.511C343.422 112.346 341.586 112.146 339.766 112.749C338.866 113.055 338.012 113.57 337.154 114.129C336.294 114.685 335.415 115.3 334.405 115.736C332.403 116.622 330.029 116.955 327.681 116.527C326.506 116.326 325.347 115.908 324.265 115.323C323.182 114.738 322.172 114.012 321.126 113.332C320.08 112.658 319.013 112.024 317.86 111.683C316.712 111.337 315.507 111.298 314.354 111.463C312.036 111.802 309.932 112.74 307.834 113.311C306.788 113.609 305.732 113.818 304.692 113.84C303.657 113.857 302.632 113.713 301.726 113.336C299.905 112.582 298.566 111.296 297.374 110.182C296.186 109.049 295.091 108.042 293.979 107.372C292.879 106.686 291.777 106.382 290.875 106.308C289.966 106.234 289.261 106.397 288.812 106.558C288.362 106.726 288.149 106.869 288.141 106.854C288.141 106.854 288.344 106.695 288.794 106.509C289.242 106.331 289.956 106.147 290.882 106.208C291.8 106.267 292.928 106.563 294.053 107.249C295.188 107.917 296.303 108.926 297.498 110.049C298.695 111.154 300.031 112.415 301.805 113.138C302.686 113.499 303.677 113.634 304.686 113.614C305.699 113.589 306.735 113.381 307.77 113.082C308.808 112.788 309.855 112.42 310.937 112.068C312.017 111.719 313.137 111.377 314.32 111.213C315.497 111.042 316.747 111.08 317.935 111.438C319.126 111.79 320.213 112.438 321.266 113.116C322.319 113.801 323.324 114.522 324.387 115.097C325.448 115.672 326.576 116.08 327.726 116.278C330.023 116.701 332.35 116.38 334.311 115.519C336.273 114.657 337.816 113.162 339.699 112.546C340.63 112.234 341.581 112.145 342.48 112.145C343.382 112.146 344.24 112.236 345.055 112.33C346.68 112.529 348.156 112.697 349.445 112.564C350.736 112.453 351.797 112.022 352.544 111.507C353.302 110.995 353.737 110.41 353.971 109.994C354.204 109.571 354.267 109.32 354.283 109.326Z" fill="#FAFAFA"/>
<path d="M368.538 121.952C368.516 121.973 368.345 121.684 367.855 121.39C367.376 121.099 366.537 120.862 365.538 121.042C364.535 121.218 363.477 121.873 362.417 122.718C361.88 123.136 361.323 123.596 360.693 124.008C360.066 124.416 359.353 124.786 358.553 124.935C357.756 125.094 356.956 125.021 356.222 124.871C355.485 124.718 354.8 124.488 354.154 124.266C353.507 124.043 352.9 123.822 352.32 123.669C351.739 123.518 351.186 123.424 350.678 123.39C349.661 123.317 348.835 123.507 348.329 123.768C347.818 124.021 347.591 124.257 347.573 124.234C347.567 124.227 347.622 124.169 347.735 124.065C347.789 124.01 347.862 123.95 347.956 123.886C348.045 123.817 348.153 123.745 348.284 123.678C348.79 123.382 349.643 123.156 350.688 123.208C351.21 123.231 351.777 123.316 352.372 123.462C352.968 123.609 353.583 123.825 354.229 124.04C355.507 124.459 356.978 124.967 358.503 124.682C359.257 124.543 359.941 124.193 360.555 123.796C361.172 123.397 361.727 122.946 362.272 122.53C363.346 121.69 364.45 121.023 365.506 120.863C366.555 120.698 367.424 120.976 367.907 121.305C368.156 121.465 368.308 121.641 368.41 121.755C368.501 121.88 368.545 121.947 368.538 121.952Z" fill="#FAFAFA"/>
<path d="M371.016 107.698C371.022 107.708 370.885 107.825 370.591 107.965C370.3 108.106 369.846 108.251 369.266 108.302C368.688 108.352 367.992 108.298 367.249 108.119C366.504 107.943 365.723 107.642 364.911 107.337C364.099 107.032 363.319 106.762 362.589 106.639C361.858 106.515 361.183 106.527 360.635 106.632C359.522 106.841 359.008 107.399 358.98 107.35C358.972 107.342 359.082 107.197 359.344 107.004C359.604 106.811 360.03 106.586 360.598 106.453C361.164 106.32 361.867 106.288 362.626 106.404C363.386 106.519 364.185 106.788 365 107.094C365.816 107.401 366.584 107.704 367.304 107.888C368.025 108.073 368.695 108.144 369.254 108.119C370.386 108.073 370.997 107.647 371.016 107.698Z" fill="#FAFAFA"/>
<path d="M338.304 126.445C338.289 126.472 337.872 126.166 337.013 125.85C336.158 125.544 334.831 125.279 333.204 125.455C331.574 125.598 329.712 126.242 327.765 127.191C325.808 128.118 323.735 129.359 321.324 130.144C320.122 130.533 318.892 130.773 317.692 130.774C316.492 130.77 315.348 130.527 314.309 130.188C313.266 129.852 312.316 129.432 311.433 129.038C310.548 128.646 309.731 128.268 308.969 127.967C307.452 127.341 306.148 127.057 305.238 126.988C305.01 126.975 304.808 126.955 304.632 126.951C304.463 126.956 304.315 126.961 304.186 126.965C303.945 126.971 303.817 126.97 303.816 126.961C303.815 126.953 303.941 126.936 304.183 126.913C304.312 126.902 304.461 126.889 304.631 126.874C304.809 126.87 305.013 126.882 305.245 126.888C306.167 126.927 307.499 127.189 309.034 127.797C309.806 128.089 310.63 128.459 311.517 128.842C312.403 129.226 313.351 129.636 314.381 129.961C315.408 130.289 316.524 130.52 317.691 130.521C318.859 130.516 320.062 130.281 321.245 129.897C323.619 129.125 325.689 127.896 327.664 126.975C329.627 126.033 331.528 125.395 333.188 125.272C334.844 125.116 336.191 125.415 337.048 125.755C337.909 126.107 338.304 126.445 338.304 126.445Z" fill="#FAFAFA"/>
<path d="M270.928 113.77C270.928 113.77 270.997 113.707 271.163 113.657C271.326 113.608 271.594 113.586 271.908 113.687C272.221 113.787 272.579 114.002 272.881 114.364C273.18 114.726 273.409 115.206 273.663 115.715C273.911 116.227 274.26 116.739 274.754 117.175C275.244 117.614 275.879 117.949 276.579 118.19C277.996 118.666 279.673 118.695 281.383 118.421C283.099 118.169 284.742 117.818 286.274 117.83C287.809 117.805 289.177 118.269 290.142 118.908C291.127 119.539 291.681 120.363 291.905 120.969C292.133 121.581 292.111 121.949 292.111 121.949C292.079 121.955 292.063 121.59 291.813 121.007C291.566 120.43 291.011 119.654 290.044 119.063C289.093 118.462 287.771 118.032 286.274 118.068C284.776 118.069 283.15 118.422 281.419 118.677C279.695 118.953 277.961 118.921 276.503 118.416C275.78 118.16 275.122 117.804 274.613 117.337C274.101 116.874 273.74 116.32 273.5 115.797C273.254 115.276 273.043 114.806 272.768 114.455C272.497 114.108 272.165 113.89 271.876 113.783C271.275 113.562 270.928 113.806 270.928 113.77Z" fill="#FAFAFA"/>
<path d="M281.629 98.6164C281.598 98.665 281.081 98.0396 279.909 97.7182C279.33 97.5604 278.607 97.488 277.819 97.5803C277.03 97.6701 276.185 97.9359 275.335 98.3C274.484 98.667 273.701 99.0856 272.973 99.4452C272.248 99.8073 271.576 100.106 270.993 100.309C270.411 100.512 269.922 100.624 269.58 100.673C269.239 100.723 269.048 100.72 269.046 100.706C269.039 100.661 269.799 100.587 270.93 100.138C271.495 99.9159 272.149 99.604 272.866 99.2324C273.584 98.8629 274.369 98.4354 275.234 98.0619C276.099 97.6914 276.97 97.424 277.793 97.3432C278.614 97.2608 279.364 97.3551 279.958 97.5426C280.554 97.732 280.991 98.0034 281.257 98.2261C281.526 98.4498 281.637 98.609 281.629 98.6164Z" fill="#FAFAFA"/>
<g opacity="0.3">
<path d="M317.351 142.191C323.683 138.499 331.014 134.17 334.67 127.794C337.007 123.716 338.169 118.84 338.623 114.155L339.577 128.711L320.124 144.381L317.351 142.191Z" fill="black"/>
</g>
<g opacity="0.2">
<path d="M300.935 94.0344C299.441 99.6194 296.578 104.432 292.238 108.228C291.191 109.145 290.053 110 288.739 110.452C287.426 110.903 285.903 110.907 284.715 110.185L284.81 109.851L294.668 100.037L300.935 94.0344Z" fill="black"/>
</g>
<path d="M286.064 117.659C286.022 117.643 286.183 117.208 286.316 116.482C286.45 115.757 286.52 114.73 286.34 113.62C286.155 112.51 285.762 111.559 285.403 110.917C285.045 110.272 284.753 109.912 284.788 109.884C284.807 109.866 285.151 110.186 285.559 110.824C285.967 111.457 286.403 112.431 286.594 113.577C286.78 114.724 286.678 115.787 286.494 116.519C286.311 117.255 286.088 117.669 286.064 117.659Z" fill="#263238"/>
<path d="M283.24 115.158C283.174 115.108 284.032 114.204 284.416 112.768C284.822 111.338 284.548 110.119 284.63 110.111C284.659 110.103 284.769 110.395 284.826 110.893C284.885 111.389 284.866 112.095 284.663 112.837C284.458 113.578 284.113 114.193 283.809 114.589C283.504 114.986 283.261 115.179 283.24 115.158Z" fill="#263238"/>
<path d="M301.593 104.903C301.663 104.897 302.068 108.851 302.497 113.734C302.926 118.618 303.216 122.581 303.146 122.588C303.075 122.594 302.67 118.641 302.241 113.756C301.812 108.874 301.522 104.909 301.593 104.903Z" fill="#263238"/>
<path d="M327.93 89.7069C327.938 89.7039 327.974 89.7956 328.036 89.9742C328.105 90.1503 328.176 90.4196 328.251 90.7713C328.395 91.4726 328.468 92.5341 328.204 93.8008C327.928 95.0518 327.286 96.5229 326.053 97.7222C324.838 98.9339 322.992 99.7117 321.024 99.7603C319.055 99.799 317.177 99.1026 315.91 97.9449C314.626 96.8007 313.921 95.3593 313.59 94.1218C313.272 92.8679 313.299 91.8044 313.412 91.0976C313.471 90.743 313.53 90.4712 313.592 90.2921C313.646 90.1111 313.678 90.0179 313.686 90.0208C313.717 90.0288 313.59 90.4057 313.511 91.1105C313.429 91.8119 313.432 92.8545 313.765 94.0736C314.111 95.2774 314.816 96.6702 316.066 97.7664C317.297 98.8739 319.111 99.5386 321.018 99.5024C322.925 99.4547 324.708 98.7112 325.889 97.5506C327.09 96.4009 327.735 94.9788 328.027 93.7607C328.307 92.5281 328.265 91.486 328.153 90.7891C328.043 90.0878 327.899 89.7163 327.93 89.7069Z" fill="#263238"/>
<path d="M356.59 119.588C356.523 119.592 356.41 118.196 356.509 116.476C356.604 114.754 356.873 113.381 356.94 113.392C357.014 113.403 356.86 114.783 356.765 116.49C356.667 118.197 356.665 119.586 356.59 119.588Z" fill="#263238"/>
<path d="M358.571 120.49C358.539 120.501 358.368 120.119 358.15 119.478C357.931 118.837 357.672 117.937 357.463 116.924C357.255 115.91 357.137 114.98 357.086 114.305C357.034 113.629 357.04 113.21 357.074 113.208C357.151 113.202 357.298 114.864 357.715 116.872C358.123 118.88 358.644 120.465 358.571 120.49Z" fill="#263238"/>
<path d="M338.621 120.775C338.55 120.777 338.389 117.983 338.26 114.534C338.131 111.084 338.084 108.285 338.155 108.283C338.226 108.28 338.388 111.074 338.517 114.525C338.645 117.973 338.692 120.772 338.621 120.775Z" fill="#263238"/>
<path d="M320.939 98.9818C317.241 98.9123 314.237 95.9591 314.082 92.2436C313.968 89.5255 313.876 87.0296 313.876 87.0296C313.876 87.0296 308.217 86.4255 307.876 80.7835C307.534 75.1415 307.882 62.1304 307.882 62.1304C314.247 59.0051 321.795 59.5874 327.611 63.6527L328.474 64.2563L328.064 92.0551C328.006 95.9492 324.812 99.0547 320.939 98.9818Z" fill="#FFBE9D"/>
<path d="M313.862 86.9487C313.862 86.9487 317.425 87.0658 321.082 84.5005C321.082 84.5005 319.547 88.6475 313.92 88.4124L313.862 86.9487Z" fill="#EB996E"/>
<path d="M328.064 70.1375C328.158 70.0914 331.867 68.8023 331.931 72.6676C331.994 76.5329 328.121 75.7998 328.112 75.6892C328.104 75.5786 328.064 70.1375 328.064 70.1375Z" fill="#FFBE9D"/>
<path d="M329.263 74.2056C329.28 74.1927 329.331 74.2518 329.445 74.3019C329.556 74.351 329.746 74.3827 329.945 74.3038C330.349 74.1471 330.68 73.4934 330.688 72.796C330.692 72.4438 330.613 72.11 330.484 71.8348C330.363 71.554 330.177 71.3596 329.972 71.3264C329.768 71.2822 329.626 71.4077 329.58 71.5173C329.53 71.6264 329.556 71.7028 329.536 71.7098C329.525 71.7197 329.452 71.6463 329.481 71.4861C329.495 71.4092 329.539 71.3169 329.628 71.2415C329.719 71.1647 329.854 71.124 329.997 71.1369C330.294 71.1528 330.565 71.4226 330.706 71.7246C330.863 72.0282 330.961 72.4032 330.956 72.7985C330.944 73.5777 330.559 74.3133 330.006 74.4839C329.737 74.5593 329.51 74.4809 329.392 74.3916C329.272 74.2989 329.25 74.2126 329.263 74.2056Z" fill="#EB996E"/>
<path d="M310.568 70.6676C310.553 71.0937 310.899 71.4583 311.342 71.4821C311.783 71.5059 312.154 71.1805 312.17 70.7544C312.184 70.3284 311.838 69.9633 311.396 69.9395C310.954 69.9152 310.583 70.2411 310.568 70.6676Z" fill="#263238"/>
<path d="M309.591 69.8592C309.69 69.9643 310.299 69.512 311.163 69.514C312.025 69.504 312.66 69.9504 312.754 69.8443C312.799 69.7972 312.698 69.6072 312.422 69.4053C312.15 69.204 311.687 69.0085 311.149 69.011C310.611 69.014 310.158 69.2129 309.898 69.4167C309.632 69.6216 309.542 69.812 309.591 69.8592Z" fill="#263238"/>
<path d="M318.863 70.7668C318.848 71.1928 319.194 71.5569 319.637 71.5812C320.078 71.605 320.449 71.2796 320.465 70.8536C320.479 70.4275 320.133 70.0624 319.691 70.0386C319.249 70.0143 318.878 70.3402 318.863 70.7668Z" fill="#263238"/>
<path d="M318.083 70.0213C318.182 70.1264 318.792 69.6741 319.655 69.6766C320.517 69.6666 321.151 70.1135 321.245 70.0069C321.291 69.9598 321.191 69.7698 320.914 69.5679C320.642 69.3665 320.178 69.1711 319.64 69.1731C319.102 69.1761 318.65 69.3755 318.389 69.5793C318.125 69.7837 318.034 69.9742 318.083 70.0213Z" fill="#263238"/>
<path d="M314.947 76.4625C314.951 76.4129 314.414 76.3201 313.544 76.208C313.324 76.1852 313.115 76.1411 313.078 75.9898C313.026 75.8296 313.118 75.5905 313.225 75.3326C313.432 74.7959 313.649 74.2334 313.877 73.6437C314.783 71.2391 315.439 69.262 315.342 69.2263C315.246 69.1906 314.433 71.1106 313.527 73.5152C313.309 74.1084 313.1 74.6734 312.902 75.214C312.819 75.466 312.675 75.7517 312.787 76.0845C312.847 76.2502 313.009 76.3707 313.15 76.4089C313.292 76.4525 313.415 76.4545 313.524 76.4615C314.401 76.5081 314.944 76.5121 314.947 76.4625Z" fill="#263238"/>
<path d="M317.49 77.0636C317.349 77.0556 317.347 77.998 316.545 78.6671C315.744 79.3387 314.744 79.2326 314.737 79.3645C314.724 79.4235 314.959 79.5475 315.381 79.5589C315.795 79.5733 316.399 79.4394 316.891 79.0302C317.38 78.62 317.591 78.0724 317.623 77.6856C317.658 77.2917 317.554 77.0581 317.49 77.0636Z" fill="#263238"/>
<path d="M317.86 66.6173C317.945 66.8534 318.808 66.7413 319.822 66.8643C320.838 66.9665 321.655 67.265 321.789 67.0533C321.85 66.9521 321.707 66.7299 321.377 66.5012C321.049 66.273 320.527 66.0558 319.918 65.9878C319.309 65.9209 318.752 66.0181 318.383 66.1689C318.011 66.3197 317.823 66.5052 317.86 66.6173Z" fill="#263238"/>
<path d="M309.909 67.3453C310.061 67.5427 310.656 67.3379 311.372 67.3285C312.087 67.2937 312.693 67.4609 312.833 67.2545C312.894 67.1544 312.799 66.9569 312.534 66.77C312.273 66.584 311.837 66.4317 311.345 66.4466C310.853 66.4624 310.427 66.641 310.178 66.8429C309.925 67.0457 309.842 67.2491 309.909 67.3453Z" fill="#263238"/>
<path d="M305.014 58.4014C304.954 57.701 305.214 56.9491 305.781 56.5374C306.348 56.1257 307.227 56.152 307.688 56.6808C307.424 55.7369 308.191 54.6487 309.164 54.5862C310.081 54.5276 310.863 55.224 311.749 55.468C312.614 55.7066 313.542 55.5003 314.374 55.1635C315.206 54.8267 315.983 54.362 316.826 54.0525C318.583 53.4072 320.591 53.4885 322.291 54.2732C323.991 55.0579 325.362 56.5364 326.021 58.2967C327.25 57.9104 328.647 58.5378 329.405 59.5848C330.164 60.6319 330.358 62.0068 330.207 63.2929C330.105 64.1619 329.855 65.0017 329.564 65.829C329.565 65.9014 329.572 65.9728 329.57 66.0457C329.512 69.1537 329.163 72.8037 327.843 72.8241C325.545 72.8593 326.093 68.5054 326.093 68.5054C323.272 67.4097 324.322 63.16 323.617 62.5157C322.912 61.8709 321.436 60.373 315.53 63.408C313.236 64.5865 310.187 64.5498 308.522 64.1699C308.474 64.1595 308.424 64.152 308.375 64.1396C308.365 64.1371 308.352 64.1352 308.341 64.1327C308.323 64.1282 308.31 64.1178 308.293 64.1128C307.762 63.974 307.25 63.7671 306.778 63.4665C306.243 63.1263 305.756 62.6655 305.53 62.0713C305.303 61.4771 305.388 60.7351 305.852 60.3021C305.416 59.7525 305.075 59.1017 305.014 58.4014Z" fill="#263238"/>
</svg>
