<svg width="212" height="213" viewBox="0 0 212 213" fill="none" xmlns="http://www.w3.org/2000/svg">
<path d="M57.7934 53.7391C49.7709 53.7391 43.2676 47.2358 43.2676 39.2133C43.2676 31.1908 49.7709 24.6875 57.7934 24.6875C65.8159 24.6875 72.3192 31.1908 72.3192 39.2133C72.3196 47.2358 65.8159 53.7391 57.7934 53.7391Z" fill="#80B4E3"/>
<path d="M54.2132 35.9746H51.207V45.6868H54.2132V35.9746Z" fill="white"/>
<path d="M52.6958 34.7036C53.6778 34.7036 54.4736 33.9006 54.4736 32.911C54.4736 31.9213 53.6778 31.1191 52.6958 31.1191C51.7138 31.1191 50.918 31.9218 50.918 32.911C50.918 33.9006 51.7134 34.7036 52.6958 34.7036Z" fill="white"/>
<path d="M59.0188 40.59C59.0188 39.2248 59.6472 38.4111 60.8505 38.4111C61.9559 38.4111 62.4871 39.1917 62.4871 40.59C62.4871 41.9888 62.4871 45.6882 62.4871 45.6882H65.4793C65.4793 45.6882 65.4793 42.1406 65.4793 39.5389C65.4793 36.9377 64.0046 35.6797 61.9457 35.6797C59.8855 35.6797 59.0188 37.2845 59.0188 37.2845V35.9765H56.1348V45.6886H59.0188C59.0188 45.6886 59.0188 42.0863 59.0188 40.59Z" fill="white"/>
<path d="M77.2608 10.2852L79.2502 13.9222L82.8869 15.9112L79.2502 17.9002L77.2608 21.5373L75.2718 17.9002L71.6348 15.9112L75.2718 13.9222L77.2608 10.2852Z" fill="#F5F5F5"/>
<path d="M160.216 108.816L161.708 111.544L164.435 113.036L161.708 114.528L160.216 117.255L158.724 114.528L155.996 113.036L158.724 111.544L160.216 108.816Z" fill="#EBEBEB"/>
<path d="M164.437 95.3496L165.11 96.5805L166.341 97.2534L165.11 97.9267L164.437 99.1571L163.764 97.9267L162.533 97.2534L163.764 96.5805L164.437 95.3496Z" fill="#E0E0E0"/>
<path d="M63.0546 11.6523L63.7275 12.8832L64.9579 13.5561L63.7275 14.2294L63.0546 15.4599L62.3813 14.2294L61.1504 13.5561L62.3813 12.8832L63.0546 11.6523Z" fill="#E0E0E0"/>
<path d="M29.312 125.983C30.8295 125.324 31.8946 123.736 31.8793 121.882C31.8577 119.452 29.9942 117.499 27.7161 117.518C25.4392 117.536 23.61 119.521 23.6312 121.95C23.6478 123.822 24.7612 125.4 26.3122 126.022C19.9785 127.061 20.3558 133.954 20.3558 133.954L35.3633 133.829C35.3633 133.829 35.6152 126.852 29.312 125.983Z" fill="#E0E0E0"/>
<path d="M173.261 171.427C173.049 170.347 171.984 169.503 170.884 169.542C169.795 169.582 168.802 170.485 168.654 171.564C168.496 170.486 167.496 169.592 166.406 169.562C165.307 169.533 164.249 170.386 164.046 171.467C163.899 172.255 164.169 173.075 164.612 173.742C165.056 174.409 165.661 174.95 166.26 175.483C167.098 176.229 167.873 176.931 168.712 177.677C169.544 176.923 170.252 176.215 171.083 175.461C171.677 174.923 172.278 174.378 172.715 173.706C173.153 173.035 173.416 172.213 173.261 171.427Z" fill="#EBEBEB"/>
<path d="M183.037 82.0529L184.645 81.734L187.185 76.1474L186.548 72.9373C186.548 72.9373 189.004 72.2915 189.545 76.5527C190.086 80.8139 190.19 79.681 190.19 79.681C190.19 79.681 195.472 78.6545 196.001 79.0263C196.386 79.296 197.57 84.5099 198.189 87.3423C198.501 88.7682 197.887 90.2734 196.623 90.8754C196.444 90.9615 196.258 91.0272 196.07 91.0646C194.754 91.3257 187.816 91.589 187.816 91.589L185.038 92.1398L183.037 82.0529Z" fill="#E0E0E0"/>
<path d="M178.258 82.0851L181.428 92.8878L184.182 92.3417L182.045 81.5645L178.258 82.0851Z" fill="#E0E0E0"/>
<path d="M199.48 199.151C199.48 199.212 157.432 199.262 105.576 199.262C53.7009 199.262 11.6621 199.212 11.6621 199.151C11.6621 199.09 53.7009 199.041 105.576 199.041C157.432 199.041 199.48 199.09 199.48 199.151Z" fill="#263238"/>
<path d="M166.815 77.813C158.259 81.9742 147.95 78.4117 143.788 69.8558C139.626 61.2999 143.189 50.9904 151.745 46.8288C160.301 42.6677 170.611 46.2301 174.772 54.786C178.933 63.3423 175.371 73.6515 166.815 77.813Z" fill="#E8505B"/>
<path d="M155.022 66.1708C155.312 66.1526 155.483 65.952 155.423 65.6497C155.381 65.4407 155.269 64.9162 155.226 64.6962C155.168 64.396 155.096 64.3171 154.788 64.1814C154.118 63.8859 153.53 63.3678 153.082 62.4473C151.783 59.7765 152.619 56.4137 155.824 54.8547C158.662 53.4746 161.065 54.4502 162.191 56.7665C163.673 59.8138 163.576 63.0413 161.573 64.0148C160.468 64.5524 159.196 64.0407 158.915 62.7911C158.583 61.2974 158.495 59.553 158.025 58.5863C157.604 57.7214 156.789 57.2253 155.827 57.693C154.697 58.2429 154.358 59.8537 155.119 61.4199C155.604 62.4176 156.271 62.9281 156.271 62.9281C156.271 62.9281 157.498 68.3917 157.712 69.3483C158.139 71.2537 159.501 73.1825 159.634 73.3797C159.712 73.4971 159.888 73.4479 159.914 73.3186C159.953 73.1316 160.49 70.8145 160.14 68.9319C160.041 68.3985 159.471 65.6654 159.471 65.6654C160.179 66.1874 161.552 66.2815 162.692 65.7269C166.09 64.0741 166.889 59.8562 164.872 55.7103C163.348 52.5753 159.273 50.9471 155.237 52.9098C150.215 55.352 149.434 60.1835 150.894 63.1854C151.778 65.0044 153.253 66.287 155.022 66.1708Z" fill="white"/>
<path d="M184.021 126.406C177.891 124.063 174.82 117.195 177.163 111.066C179.505 104.936 186.373 101.865 192.503 104.208C198.633 106.55 201.703 113.418 199.361 119.548C197.018 125.678 190.151 128.748 184.021 126.406Z" fill="#24A803"/>
<path fill-rule="evenodd" clip-rule="evenodd" d="M194.465 117.324C195.609 114.086 193.951 110.502 190.7 109.26C187.487 108.033 183.907 109.547 182.56 112.65C182.524 112.736 182.489 112.822 182.455 112.908C182.027 114.03 181.94 115.196 182.141 116.3L179.848 119.07L183.56 119.282C184.237 120.079 185.119 120.725 186.166 121.124C189.468 122.386 193.157 120.753 194.41 117.476C194.429 117.426 194.449 117.375 194.465 117.324ZM186.527 120.179C185.506 119.789 184.673 119.124 184.078 118.297L181.912 118.175L183.246 116.562C182.959 115.509 182.99 114.364 183.407 113.272C183.469 113.11 183.539 112.951 183.617 112.798C184.828 110.368 187.733 109.21 190.338 110.206C192.977 111.214 194.37 114.072 193.59 116.717C193.552 116.85 193.509 116.981 193.458 117.112C192.407 119.863 189.298 121.238 186.527 120.179Z" fill="white"/>
<path fill-rule="evenodd" clip-rule="evenodd" d="M190.714 117.436C190.594 117.307 190.009 116.679 189.893 116.581C189.777 116.479 189.688 116.419 189.535 116.527C189.381 116.635 188.973 116.855 188.853 116.918C188.728 116.983 188.64 116.962 188.52 116.832C188.402 116.704 187.987 116.372 187.618 115.66C187.331 115.111 187.216 114.522 187.187 114.344C187.159 114.166 187.264 114.117 187.365 114.072C187.458 114.031 187.576 113.957 187.683 113.902C187.713 113.884 187.738 113.868 187.763 113.853C187.817 113.812 187.861 113.772 187.922 113.714C188.009 113.636 188.016 113.542 188.008 113.456C187.999 113.369 187.979 112.54 187.967 112.202C187.958 111.865 187.816 111.869 187.729 111.836C187.645 111.803 187.552 111.752 187.454 111.715C187.356 111.678 187.183 111.653 186.993 111.747C186.803 111.841 186.29 112.049 186.017 112.766C185.953 112.934 185.919 113.114 185.903 113.29C185.856 113.859 186.014 114.403 186.042 114.498C186.078 114.621 186.439 116.496 187.704 117.65C188.974 118.799 189.048 118.606 189.326 118.684C189.604 118.764 190.327 118.665 190.578 118.37C190.831 118.079 190.942 117.787 190.929 117.712C190.916 117.639 190.832 117.565 190.714 117.436Z" fill="white"/>
<path d="M29.5229 71.4916C24.5193 71.4916 20.4629 67.4352 20.4629 62.4311C20.4629 57.4275 24.5193 53.3711 29.5229 53.3711C34.5265 53.3711 38.583 57.4275 38.583 62.4311C38.5834 67.4352 34.527 71.4916 29.5229 71.4916Z" fill="#38B7FF"/>
<path d="M24.6953 65.464C25.5721 66.0262 26.6131 66.3539 27.7316 66.3539C31.4094 66.3539 33.487 63.2477 33.3619 60.4616C33.7486 60.1826 34.0848 59.8337 34.3502 59.4364C33.9949 59.5937 33.6129 59.7005 33.2126 59.748C33.6214 59.5034 33.9355 59.115 34.0835 58.6524C33.7006 58.8792 33.2766 59.0446 32.8259 59.1332C32.4643 58.7482 31.95 58.5078 31.3797 58.5078C30.1013 58.5078 29.1617 59.701 29.4505 60.9399C27.8041 60.8572 26.3447 60.0686 25.3678 58.8703C24.8488 59.7607 25.0985 60.9255 25.9809 61.5152C25.6561 61.5051 25.3504 61.4156 25.0833 61.2672C25.0621 62.1852 25.7193 63.0433 26.672 63.2346C26.393 63.3105 26.0877 63.3274 25.7778 63.2681C26.0292 64.0554 26.761 64.6274 27.6277 64.6439C26.7954 65.2965 25.746 65.5878 24.6953 65.464Z" fill="white"/>
<path d="M45.8047 172.986C37.421 174.983 29.0058 169.806 27.0084 161.422C25.0113 153.038 30.1884 144.623 38.5717 142.626C46.9555 140.629 55.3706 145.806 57.3676 154.189C59.3655 162.574 54.1885 170.989 45.8047 172.986Z" fill="#EA3D90"/>
<path d="M40.5626 150.981C42.7852 150.452 43.0502 150.398 43.9372 150.229C44.7576 150.073 45.2304 150.103 45.5514 150.147C45.9758 150.206 46.2959 150.32 46.6567 150.542C47.0176 150.764 47.2639 150.998 47.5073 151.351C47.6913 151.617 47.9317 152.025 48.1624 152.828C48.4113 153.696 48.4829 153.957 49.0121 156.18C49.5416 158.402 49.5955 158.668 49.7647 159.555C49.9207 160.375 49.8902 160.848 49.8461 161.168C49.7876 161.593 49.6731 161.913 49.4513 162.274C49.2296 162.635 48.9951 162.881 48.6428 163.124C48.3765 163.308 47.9682 163.549 47.1655 163.779C46.2976 164.028 46.0364 164.099 43.8138 164.629C41.5912 165.158 41.3262 165.212 40.4392 165.382C39.6188 165.538 39.146 165.507 38.8255 165.463C38.401 165.405 38.0809 165.29 37.7201 165.069C37.3597 164.847 37.1133 164.613 36.8695 164.26C36.686 163.994 36.4451 163.586 36.2149 162.783C35.966 161.915 35.8948 161.653 35.3652 159.431C34.8356 157.209 34.7813 156.944 34.6126 156.057C34.4561 155.236 34.4871 154.763 34.5312 154.442C34.5897 154.018 34.7042 153.698 34.9259 153.337C35.1481 152.977 35.3822 152.73 35.7349 152.487C36.0012 152.303 36.4095 152.063 37.2121 151.832C38.0788 151.582 38.3404 151.511 40.5626 150.981ZM40.2056 149.482C37.9452 150.021 37.6641 150.098 36.7856 150.35C35.9092 150.601 35.3381 150.886 34.8577 151.218C34.3612 151.561 33.9647 151.956 33.612 152.529C33.2592 153.102 33.0853 153.634 33.0035 154.232C32.9238 154.81 32.9272 155.449 33.0976 156.345C33.2685 157.242 33.3266 157.528 33.8651 159.788C34.4036 162.049 34.4807 162.33 34.7326 163.208C34.984 164.084 35.2689 164.655 35.6009 165.136C35.9435 165.632 36.3391 166.029 36.9119 166.381C37.4848 166.734 38.0169 166.908 38.6147 166.99C39.1931 167.07 39.8316 167.067 40.7271 166.896C41.6247 166.725 41.9105 166.667 44.1708 166.128C46.4312 165.59 46.7123 165.513 47.5904 165.261C48.4668 165.009 49.0379 164.724 49.5187 164.392C50.0157 164.049 50.4117 163.654 50.7645 163.081C51.1168 162.508 51.2911 161.976 51.3733 161.379C51.4526 160.8 51.4496 160.162 51.2788 159.266C51.1075 158.369 51.0494 158.083 50.5109 155.823C49.9724 153.563 49.8952 153.282 49.6434 152.403C49.392 151.527 49.107 150.955 48.775 150.475C48.432 149.979 48.0369 149.582 47.4636 149.229C46.8908 148.877 46.3587 148.703 45.7608 148.62C45.1825 148.541 44.5439 148.544 43.6485 148.715C42.7513 148.885 42.4659 148.944 40.2056 149.482Z" fill="white"/>
<path d="M41.1694 153.531C38.809 154.093 37.3513 156.463 37.9135 158.823C38.4758 161.184 40.8455 162.641 43.2059 162.079C45.5663 161.517 47.024 159.148 46.4618 156.787C45.8992 154.426 43.5298 152.968 41.1694 153.531ZM42.8485 160.579C41.3161 160.944 39.7783 159.998 39.4132 158.466C39.0482 156.933 39.9945 155.396 41.5269 155.031C43.0592 154.666 44.597 155.611 44.9621 157.144C45.3268 158.676 44.3808 160.214 42.8485 160.579Z" fill="white"/>
<path d="M46.5706 152.066C46.702 152.618 46.3616 153.172 45.8099 153.303C45.2579 153.435 44.7041 153.094 44.5731 152.542C44.4417 151.991 44.7822 151.437 45.3342 151.306C45.8854 151.174 46.4392 151.515 46.5706 152.066Z" fill="white"/>
<path d="M164.006 159.251C159.987 159.251 156.729 155.993 156.729 151.974C156.729 147.955 159.987 144.697 164.006 144.697C168.025 144.697 171.283 147.955 171.283 151.974C171.283 155.993 168.025 159.251 164.006 159.251Z" fill="#2F82FF"/>
<path d="M162.896 156.374H164.667V151.937H165.903L166.035 150.452H164.667C164.667 150.452 164.667 149.898 164.667 149.606C164.667 149.256 164.738 149.118 165.077 149.118C165.349 149.118 166.035 149.118 166.035 149.118V147.576C166.035 147.576 165.024 147.576 164.809 147.576C163.49 147.576 162.896 148.157 162.896 149.268C162.896 150.236 162.896 150.452 162.896 150.452H161.975V151.956H162.896V156.374Z" fill="white"/>
<path d="M139.186 199.459L80.7218 199.424C73.6902 199.42 67.9924 193.718 67.9941 186.686L68.023 40.116C68.0242 33.0805 73.73 27.379 80.7654 27.3828L139.23 27.4172C146.261 27.4214 151.958 33.1234 151.957 40.155L151.928 186.726C151.927 193.761 146.222 199.463 139.186 199.459Z" fill="#263238"/>
<path d="M139.169 32.6023L127.833 32.5959C126.313 32.5951 125.08 33.8828 125.081 35.4715L125.08 37.5275C125.08 39.1166 123.847 40.4043 122.327 40.4035L100.233 40.3903C98.7126 40.3895 97.4804 39.1005 97.4809 37.5114L97.4813 35.4554C97.4813 33.8662 96.2491 32.5773 94.7291 32.5764L90.7427 32.5739L80.8215 32.5684C75.8942 32.5658 71.8984 36.5586 71.8971 41.4859L71.8691 184.549C71.8683 189.475 75.8586 193.468 80.7829 193.471L139.13 193.505C144.057 193.508 148.053 189.515 148.055 184.588L148.083 41.5237C148.083 36.5985 144.093 32.6052 139.169 32.6023Z" fill="white"/>
<path d="M140.021 44.2233C140.021 44.2614 138.547 44.3051 136.729 44.3199C134.91 44.3348 133.436 44.3161 133.436 44.2775C133.435 44.2394 134.909 44.1961 136.728 44.1809C138.546 44.166 140.021 44.1847 140.021 44.2233Z" fill="#263238"/>
<path d="M140.034 45.9088C140.035 45.947 138.561 45.9906 136.742 46.0055C134.923 46.0203 133.449 46.0017 133.449 45.9631C133.449 45.9249 134.923 45.8817 136.742 45.8664C138.56 45.8516 140.034 45.8702 140.034 45.9088Z" fill="#263238"/>
<path d="M140.048 47.5924C140.048 47.6305 138.574 47.6742 136.756 47.689C134.937 47.7039 133.463 47.6852 133.463 47.6466C133.462 47.6085 134.936 47.5652 136.755 47.55C138.573 47.5351 140.048 47.5542 140.048 47.5924Z" fill="#263238"/>
<path d="M78.0238 49.2378C78.0272 49.2344 78.0861 49.231 78.1963 49.2263C78.3324 49.2216 78.4897 49.2166 78.6763 49.2106C79.1291 49.2 79.7215 49.1856 80.4482 49.1682L80.399 49.2182C80.3927 48.8252 80.3859 48.3961 80.3782 47.9335C80.3808 47.6948 80.3579 47.4692 80.3812 47.1936C80.4291 46.9185 80.6742 46.6755 80.9757 46.6475C81.2614 46.642 81.5129 46.6289 81.8224 46.6433C82.1417 46.6823 82.413 46.9893 82.4037 47.3276C82.4105 47.9267 82.4177 48.5526 82.4249 49.2017L82.3426 49.1207C83.0605 49.1135 83.808 49.1059 84.578 49.0978L84.4932 49.1843C84.4851 48.2842 84.477 47.3531 84.4681 46.3991C84.466 46.1612 84.4639 45.9246 84.4622 45.6897C84.4614 45.4709 84.3282 45.3247 84.148 45.1614C83.8173 44.8354 83.4912 44.514 83.1707 44.1981C82.8506 43.8822 82.536 43.5718 82.2281 43.2678C82.0742 43.116 81.922 42.9655 81.7715 42.8167C81.6146 42.6653 81.4912 42.5089 81.3093 42.4716C81.133 42.4241 80.9383 42.4618 80.7963 42.5695C80.661 42.684 80.5165 42.846 80.3804 42.9787C80.1052 43.2564 79.8376 43.5265 79.5781 43.7877C79.0736 44.3117 78.5483 44.7904 78.1662 45.2428C78.0051 45.493 78.0653 45.7987 78.0539 46.0773C78.0534 46.3541 78.0526 46.617 78.0522 46.865C78.0492 47.348 78.0467 47.7711 78.0445 48.1337C78.0407 48.458 78.0378 48.7256 78.0356 48.9452C78.0314 49.1326 78.028 49.2335 78.0238 49.2378C78.0195 49.242 78.0144 49.1496 78.0085 48.9689C78.0026 48.7531 77.9949 48.4894 77.986 48.1701C77.9775 47.8046 77.9682 47.3781 77.9572 46.8909C77.9525 46.6382 77.9474 46.3702 77.9424 46.0879C77.9402 45.945 77.9381 45.7983 77.9356 45.6482C77.9343 45.4896 77.9754 45.3255 78.059 45.1805C78.4724 44.6738 78.9659 44.2252 79.4743 43.6859C79.7316 43.4222 79.9971 43.1504 80.2701 42.8705C80.4134 42.7298 80.5309 42.5899 80.7013 42.4432C80.8803 42.3058 81.1258 42.2566 81.3496 42.3155C81.5875 42.3681 81.7422 42.5631 81.8864 42.6992C82.0378 42.8472 82.1904 42.9973 82.3452 43.1487C82.6543 43.4518 82.9697 43.7609 83.2907 44.076C83.6117 44.3914 83.9386 44.712 84.2697 45.0372C84.3481 45.1203 84.4427 45.1907 84.5194 45.3077C84.592 45.4192 84.6331 45.5506 84.6365 45.6846C84.6386 45.9208 84.6407 46.1582 84.6428 46.3974C84.65 47.3514 84.6572 48.2825 84.664 49.1826L84.6649 49.2687L84.5792 49.2691C83.8088 49.2742 83.0617 49.2789 82.3439 49.2835L82.2621 49.284L82.2616 49.2026C82.2583 48.5534 82.2549 47.9276 82.2519 47.3285C82.2612 47.0584 82.0513 46.8201 81.8003 46.7858C81.5434 46.7722 81.2398 46.7811 80.9896 46.7832C80.7492 46.8031 80.5487 46.9961 80.5076 47.2178C80.4859 47.4425 80.5025 47.7046 80.4978 47.9323C80.4978 48.3953 80.4982 48.8244 80.4982 49.2174V49.2679L80.449 49.2674C79.71 49.2623 79.1079 49.2581 78.6475 49.2547C78.4652 49.2517 78.3112 49.2488 78.1781 49.2467C78.0734 49.2437 78.0208 49.2411 78.0238 49.2378Z" fill="#263238"/>
<path d="M116.592 161.026C116.592 161.042 116.374 161.056 115.98 161.069C115.543 161.078 114.983 161.09 114.309 161.104C112.899 161.124 110.95 161.136 108.798 161.136C106.645 161.136 104.696 161.124 103.285 161.104C102.612 161.09 102.051 161.078 101.615 161.069C101.22 161.056 101.002 161.041 101.002 161.026C101.002 161.011 101.22 160.997 101.615 160.983C102.051 160.975 102.612 160.963 103.285 160.948C104.696 160.928 106.645 160.916 108.798 160.916C110.95 160.916 112.899 160.928 114.309 160.948C114.983 160.962 115.544 160.974 115.98 160.983C116.374 160.997 116.592 161.011 116.592 161.026Z" fill="#455A64"/>
<path d="M141.095 164.862C141.095 164.923 132.119 164.972 121.05 164.972C109.976 164.972 101.002 164.923 101.002 164.862C101.002 164.801 109.976 164.752 121.05 164.752C132.12 164.752 141.095 164.801 141.095 164.862Z" fill="#455A64"/>
<path d="M128.566 168.47C128.566 168.531 122.395 168.58 114.785 168.58C107.172 168.58 101.002 168.53 101.002 168.47C101.002 168.409 107.172 168.359 114.785 168.359C122.395 168.359 128.566 168.409 128.566 168.47Z" fill="#455A64"/>
<path d="M141.887 175.493L140.641 174.243L139.455 175.426L139.461 171.85L141.892 171.853L141.887 175.493ZM140.641 174.087L140.68 174.126L141.777 175.226L141.782 171.963L139.57 171.959L139.565 175.16L140.641 174.087Z" fill="#263238"/>
<path d="M108.716 175.029L108.276 174.833C108.064 174.948 107.878 175.005 107.707 175.006C107.034 175.012 106.482 174.468 106.477 173.795C106.471 173.122 107.015 172.57 107.688 172.564C108.361 172.559 108.913 173.103 108.919 173.775C108.921 174.075 108.813 174.363 108.615 174.59L108.716 175.029ZM107.689 172.648C107.062 172.653 106.555 173.167 106.561 173.795C106.566 174.422 107.08 174.928 107.707 174.923C107.868 174.922 108.047 174.865 108.255 174.75L108.273 174.74L108.597 174.885L108.524 174.566L108.539 174.55C108.732 174.337 108.838 174.062 108.835 173.777C108.83 173.149 108.316 172.643 107.689 172.648Z" fill="#263238"/>
<path d="M111.544 174.839L111.04 173.609L110.096 172.749L112.387 172.73L111.544 174.839ZM110.309 172.831L111.114 173.569L111.543 174.616L112.263 172.815L110.309 172.831Z" fill="#263238"/>
<path d="M112.339 172.742L111.09 173.555L111.135 173.625L112.385 172.812L112.339 172.742Z" fill="#263238"/>
<path d="M105.111 173.005C105.045 172.678 104.721 172.422 104.388 172.436C104.057 172.449 103.757 172.724 103.713 173.052C103.664 172.725 103.359 172.455 103.029 172.447C102.695 172.439 102.375 172.699 102.315 173.028C102.271 173.267 102.354 173.516 102.489 173.718C102.624 173.92 102.809 174.083 102.99 174.244C103.246 174.47 103.481 174.682 103.737 174.908C103.989 174.678 104.203 174.462 104.454 174.233C104.634 174.068 104.815 173.902 104.947 173.698C105.08 173.493 105.158 173.243 105.111 173.005Z" fill="#E8505B"/>
<path d="M144.441 178.657C144.441 178.657 144.436 178.52 144.433 178.258C144.431 177.993 144.429 177.606 144.426 177.098C144.421 176.075 144.415 174.571 144.408 172.622C144.398 168.725 144.385 163.056 144.368 155.944L144.44 156.017C128.127 156.026 103.775 156.04 76.636 156.055H76.6317L76.742 155.945C76.7407 163.838 76.7394 171.495 76.7386 178.658L76.6317 178.551C96.151 178.571 113.088 178.588 125.151 178.601C131.187 178.613 136.003 178.624 139.315 178.631C140.969 178.637 142.247 178.641 143.116 178.645C143.547 178.648 143.875 178.65 144.102 178.652C144.324 178.653 144.441 178.657 144.441 178.657C144.441 178.657 144.333 178.662 144.115 178.664C143.892 178.666 143.568 178.668 143.143 178.671C142.279 178.674 141.009 178.679 139.365 178.685C136.058 178.692 131.251 178.702 125.225 178.715C113.144 178.727 96.1807 178.744 76.6317 178.764H76.5249V178.657C76.5236 171.495 76.5223 163.838 76.5215 155.944V155.834H76.6317H76.636C103.775 155.849 128.127 155.862 144.44 155.872H144.513V155.945C144.496 163.075 144.483 168.759 144.473 172.666C144.466 174.608 144.459 176.107 144.456 177.126C144.452 177.628 144.45 178.011 144.448 178.274C144.445 178.53 144.441 178.657 144.441 178.657Z" fill="#263238"/>
<path d="M79.4567 159.741L79.3711 174.758L98.1543 174.865L98.2399 159.848L79.4567 159.741Z" fill="#EBEBEB"/>
<path d="M98.2355 159.846C98.2334 159.848 98.202 159.85 98.1414 159.851C98.0723 159.852 97.9853 159.854 97.8751 159.855C97.6313 159.857 97.2891 159.859 96.8494 159.861C95.9463 159.862 94.6442 159.864 92.9982 159.866C89.6949 159.859 85.0135 159.849 79.4519 159.838L79.5511 159.74C79.529 164.211 79.504 169.333 79.4773 174.754C79.5002 174.781 79.2717 174.545 79.3709 174.645H79.376H79.3862H79.4065L79.4472 174.645L79.5286 174.646L79.6914 174.647L80.0162 174.648L80.6637 174.652C81.0945 174.655 81.5231 174.657 81.9492 174.66C82.8019 174.665 83.6461 174.67 84.4797 174.675C86.1473 174.686 87.775 174.696 89.3531 174.706C92.5081 174.729 95.4651 174.75 98.1498 174.77L98.0574 174.861C98.1028 170.352 98.1405 166.611 98.1668 163.985C98.1842 162.679 98.1982 161.651 98.2079 160.936C98.2143 160.591 98.2194 160.323 98.2232 160.129C98.2283 159.946 98.2355 159.846 98.2355 159.846C98.2355 159.846 98.2419 159.933 98.244 160.11C98.2452 160.299 98.2474 160.563 98.2499 160.9C98.2516 161.609 98.2537 162.631 98.2563 163.928C98.2529 166.569 98.2478 170.329 98.2419 174.862V174.954L98.1498 174.954C95.4655 174.943 92.5081 174.93 89.3531 174.917C87.775 174.909 86.1473 174.901 84.4797 174.893C83.6457 174.889 82.8019 174.884 81.9492 174.879C81.5227 174.877 81.094 174.875 80.6637 174.872L80.0162 174.868L79.6914 174.867L79.5286 174.866L79.4472 174.865H79.4065H79.3862H79.376H79.3709C79.4676 174.964 79.2331 174.731 79.2577 174.753C79.2929 169.331 79.3259 164.209 79.3548 159.738L79.3552 159.639L79.454 159.64C85.0415 159.692 89.7449 159.735 93.064 159.766C94.7002 159.787 95.9947 159.803 96.8927 159.814C97.3239 159.822 97.6593 159.827 97.8984 159.832C98.004 159.835 98.0875 159.837 98.1537 159.839C98.2096 159.842 98.2376 159.844 98.2355 159.846Z" fill="#263238"/>
<path d="M80.0983 160.689L80.0234 173.814L97.4867 173.914L97.5615 160.788L80.0983 160.689Z" fill="#E0E0E0"/>
<path d="M80.0195 173.814L86.165 165.689L89.9144 170.816L92.4928 168.101L97.4824 173.913L80.0195 173.814Z" fill="#F5F5F5"/>
<path d="M91.5548 164.72C91.5505 165.48 90.9315 166.092 90.1721 166.088C89.4127 166.083 88.8005 165.464 88.8047 164.705C88.8089 163.946 89.428 163.333 90.1874 163.338C90.9468 163.342 91.559 163.961 91.5548 164.72Z" fill="#F5F5F5"/>
<path d="M111.124 62.4329C111.124 62.4406 111.055 62.4482 110.923 62.4554C110.766 62.4609 110.576 62.4677 110.348 62.4762C109.813 62.4851 109.099 62.497 108.233 62.5114C106.447 62.5313 103.979 62.5436 101.254 62.5436C98.5276 62.5436 96.06 62.5313 94.2736 62.5114C93.4074 62.497 92.6934 62.4851 92.1583 62.4762C91.9302 62.4681 91.7407 62.4609 91.5834 62.4554C91.4519 62.4482 91.3828 62.4406 91.3828 62.4329C91.3828 62.4253 91.4519 62.4177 91.5834 62.4105C91.7407 62.4049 91.9302 62.3982 92.1583 62.3897C92.693 62.3808 93.4074 62.3689 94.2736 62.3545C96.06 62.3346 98.5276 62.3223 101.254 62.3223C103.979 62.3223 106.447 62.3346 108.233 62.3545C109.099 62.3689 109.814 62.3808 110.348 62.3897C110.576 62.3977 110.766 62.4045 110.923 62.4105C111.055 62.4181 111.124 62.4253 111.124 62.4329Z" fill="#263238"/>
<path d="M138.874 145.445L137.022 143.588L135.26 145.346L135.268 140.031L138.882 140.037L138.874 145.445ZM137.023 143.357L137.081 143.415L138.711 145.05L138.719 140.2L135.432 140.195L135.425 144.952L137.023 143.357Z" fill="#263238"/>
<path d="M91.8693 144.886L91.004 144.5C90.5859 144.727 90.2191 144.838 89.8838 144.841C88.5583 144.852 87.4716 143.783 87.461 142.458C87.4504 141.133 88.5197 140.046 89.8452 140.035C91.1702 140.025 92.2569 141.094 92.2675 142.419C92.2721 143.009 92.0601 143.576 91.6692 144.022L91.8693 144.886ZM89.8464 140.199C88.6118 140.209 87.6158 141.222 87.6255 142.456C87.6353 143.69 88.6478 144.687 89.8825 144.676C90.1996 144.674 90.552 144.562 90.9607 144.337L90.9968 144.316L91.6344 144.601L91.4899 143.974L91.5191 143.942C91.9003 143.523 92.1081 142.982 92.1034 142.42C92.0932 141.186 91.0811 140.19 89.8464 140.199Z" fill="#263238"/>
<path d="M97.4315 144.515L96.4397 142.094L94.5801 140.4L99.0906 140.363L97.4315 144.515ZM95.0011 140.561L96.5852 142.015L97.4298 144.076L98.8468 140.53L95.0011 140.561Z" fill="#263238"/>
<path d="M98.9945 140.365L96.5352 141.965L96.6251 142.103L99.0844 140.503L98.9945 140.365Z" fill="#263238"/>
<path d="M84.771 140.904C84.6416 140.26 84.0039 139.758 83.3472 139.784C82.6963 139.81 82.1057 140.351 82.0196 140.996C81.9234 140.353 81.3238 139.821 80.673 139.805C80.0162 139.79 79.3862 140.302 79.2674 140.948C79.1809 141.419 79.3442 141.908 79.6104 142.306C79.8767 142.704 80.2397 143.026 80.5979 143.342C81.1004 143.786 81.5647 144.204 82.0671 144.648C82.5623 144.196 82.9838 143.771 83.4786 143.319C83.8322 142.997 84.1897 142.67 84.4496 142.268C84.7099 141.866 84.8651 141.374 84.771 140.904Z" fill="#E8505B"/>
<path d="M84.3604 65.4922C86.0501 65.4922 87.42 64.1224 87.42 62.4326C87.42 60.7429 86.0501 59.373 84.3604 59.373C82.6706 59.373 81.3008 60.7429 81.3008 62.4326C81.3008 64.1224 82.6706 65.4922 84.3604 65.4922Z" fill="#EBEBEB"/>
<path d="M137.718 127.891C137.718 127.953 124.887 128.002 109.064 128.002C93.2355 128.002 80.4082 127.952 80.4082 127.891C80.4082 127.831 93.2355 127.781 109.064 127.781C124.887 127.781 137.718 127.83 137.718 127.891Z" fill="#455A64"/>
<path d="M137.718 123.118C137.718 123.179 124.887 123.228 109.064 123.228C93.2355 123.228 80.4082 123.179 80.4082 123.118C80.4082 123.057 93.2355 123.008 109.064 123.008C124.887 123.008 137.718 123.057 137.718 123.118Z" fill="#455A64"/>
<path d="M111.602 132.725C111.602 132.787 104.619 132.836 96.0059 132.836C87.3902 132.836 80.4082 132.786 80.4082 132.725C80.4082 132.665 87.3902 132.615 96.0059 132.615C104.619 132.615 111.602 132.665 111.602 132.725Z" fill="#455A64"/>
<path d="M107.753 184.722C107.75 185.404 107.203 185.954 106.531 185.951C105.858 185.948 105.315 185.392 105.318 184.71C105.321 184.028 105.869 183.477 106.541 183.48C107.214 183.483 107.756 184.039 107.753 184.722Z" fill="#263238"/>
<path d="M111.527 184.739C111.524 185.421 110.976 185.971 110.304 185.969C109.632 185.966 109.089 185.41 109.092 184.728C109.094 184.046 109.642 183.495 110.315 183.498C110.987 183.501 111.53 184.056 111.527 184.739Z" fill="#263238"/>
<path d="M115.298 184.757C115.296 185.438 114.748 185.99 114.076 185.986C113.403 185.983 112.86 185.428 112.863 184.745C112.866 184.063 113.414 183.513 114.086 183.516C114.759 183.519 115.301 184.074 115.298 184.757Z" fill="#263238"/>
<path d="M144.846 68.4883H77.0371V109.957H144.846V68.4883Z" fill="#E0E0E0"/>
<path d="M83.2969 109.964L102.728 83.957L114.774 100.222L122.938 91.5225L138.952 109.948L83.2969 109.964Z" fill="#F5F5F5"/>
<path d="M119.879 80.7675C119.88 83.1877 117.919 85.1504 115.499 85.1508C113.078 85.1516 111.116 83.1902 111.115 80.77C111.114 78.3498 113.076 76.3876 115.496 76.3867C117.916 76.3859 119.878 78.3473 119.879 80.7675Z" fill="#F5F5F5"/>
<path d="M144.663 148.496C144.663 147.609 144.622 110.147 144.563 54.6903L144.663 54.7904C124.215 54.7934 101.164 54.7972 76.8624 54.8006H76.8548L76.965 54.6903C76.9574 89.7712 76.9502 122.238 76.9443 148.496L76.8544 148.406C117.975 148.461 143.924 148.495 144.663 148.496C143.924 148.497 117.975 148.531 76.8548 148.586H76.7649V148.496C76.759 122.238 76.7522 89.7717 76.7441 54.6903V54.5801H76.8544H76.862C101.164 54.5839 124.214 54.5873 144.663 54.5903H144.763V54.6903C144.743 82.4462 144.725 105.908 144.713 122.434C144.702 130.685 144.693 137.204 144.687 141.663C144.682 143.887 144.677 145.596 144.675 146.753C144.672 147.326 144.67 147.762 144.669 148.058C144.667 148.35 144.663 148.496 144.663 148.496Z" fill="#263238"/>
<path d="M112.802 160.132L114.302 155.091C114.564 153.998 114.911 152.709 115.379 151.238C115.8 149.915 116.878 148.526 117.862 147.525C119.393 145.968 120.121 145.957 121.15 145.131C121.244 145.07 121.349 144.984 121.437 144.937C121.65 144.822 121.806 144.668 121.937 144.504C122.824 143.544 121.973 142.06 120.171 142.201C118.815 142.307 116.604 142.695 113.008 146.405C112.963 146.462 112.916 146.509 112.871 146.566C110.984 149.02 109.211 142.016 108.892 139.409C108.684 137.718 106.855 136.678 105.199 137.29L96.4389 141.388C95.7155 141.133 94.8565 141.176 93.8813 141.474C92.5915 141.951 91.8754 143.277 92.2124 144.564L95.7656 158.747L85.3301 193.47H107.822L112.802 160.132Z" fill="#FFBE9D"/>
<path d="M130.081 128.242L123.128 141.867L119.652 140.901L102.176 155.116C100.689 156.325 98.5093 156.132 97.2589 154.679L90.6055 146.947C90.6055 146.947 104.022 141.168 106.503 136.384C108.984 131.6 106.117 130.515 106.117 130.515L112.431 123.34L130.081 128.242Z" fill="#E8505B"/>
<path d="M121.063 100.41C121.063 100.41 110.885 98.159 96.5636 84.3862C82.2418 70.6138 75.512 52.3242 73.7588 52.4136C72.0055 52.5027 64.3511 48.9487 49.7926 80.6181C35.2341 112.287 40.9687 119.641 43.8659 119.582C46.7631 119.522 66.4342 114.041 78.7209 115.437C91.0075 116.834 106.8 123.237 106.8 123.237L121.063 100.41Z" fill="#E8505B"/>
<path d="M142.684 117.673L139.212 124.274L137.657 127.232C135.523 131.288 130.589 132.965 126.426 131.047L104.611 123.447L117.316 94.4434L139.11 106.058C143.294 108.287 144.891 113.477 142.684 117.673Z" fill="#E8505B"/>
<g opacity="0.4">
<path d="M142.684 117.673L139.212 124.274L137.657 127.232C135.523 131.288 130.589 132.965 126.426 131.047L104.611 123.447L117.316 94.4434L139.11 106.058C143.294 108.287 144.891 113.477 142.684 117.673Z" fill="black"/>
</g>
<path d="M50.9691 81.1952C43.2209 98.3506 39.9956 113.638 43.7653 115.34C47.5347 117.043 56.8716 104.516 64.6198 87.3601C72.3675 70.2051 75.5929 54.9178 71.8235 53.2154C68.0542 51.5131 58.7177 64.0397 50.9691 81.1952Z" fill="#E8505B"/>
<g opacity="0.5">
<path d="M50.9691 81.1952C43.2209 98.3506 39.9956 113.638 43.7653 115.34C47.5347 117.043 56.8716 104.516 64.6198 87.3601C72.3675 70.2051 75.5929 54.9178 71.8235 53.2154C68.0542 51.5131 58.7177 64.0397 50.9691 81.1952Z" fill="black"/>
</g>
<path d="M144.557 127.21L138.645 125.353L142.303 118.396L146.737 121.153L144.557 127.21Z" fill="#E8505B"/>
<g opacity="0.6">
<path d="M142.303 118.396L138.645 125.353L139.859 125.736L142.834 118.726L142.303 118.396Z" fill="black"/>
</g>
<path d="M138.228 120.003C138.141 120.194 135.191 119.047 131.638 117.441C128.082 115.835 125.273 114.378 125.359 114.187C125.445 113.996 128.396 115.143 131.95 116.749C135.504 118.355 138.314 119.812 138.228 120.003Z" fill="#E8505B"/>
<path d="M140.047 115.859C139.954 116.047 137.284 114.922 134.083 113.345C130.88 111.768 128.361 110.338 128.454 110.149C128.546 109.962 131.215 111.087 134.418 112.664C137.619 114.24 140.14 115.67 140.047 115.859Z" fill="#E8505B"/>
<path d="M135.934 124.348C135.903 124.449 135.201 124.287 134.08 123.94C133.52 123.768 132.857 123.549 132.123 123.295C131.395 123.031 130.638 122.648 129.827 122.28C126.592 120.779 124.123 119.309 124.203 119.135C124.299 118.929 126.939 120.104 130.144 121.591C130.948 121.955 131.693 122.356 132.396 122.65C133.102 122.935 133.735 123.201 134.263 123.436C135.321 123.905 135.965 124.247 135.934 124.348Z" fill="#E8505B"/>
<path d="M66.7644 77.3795C66.7644 77.3795 57.9185 71.8942 53.0785 83.8455C48.239 95.7968 57.5458 97.7621 57.5458 97.7621C61.3546 91.8557 64.4485 85.0874 66.7644 77.3795Z" fill="#E8505B"/>
<g opacity="0.5">
<path d="M76.1718 63.1368C76.2236 63.1457 76.0976 63.9572 75.8254 65.42C75.5456 66.8803 75.15 69.0003 74.5827 71.6032C74.2087 72.885 73.8 74.285 73.3616 75.7856C73.1398 76.5377 72.91 77.3145 72.6743 78.115C72.5555 78.5157 72.4351 78.9215 72.313 79.3327C72.1807 79.7411 72.0086 80.1413 71.8547 80.5539C71.2174 82.1986 70.5492 83.923 69.8563 85.7105C69.6825 86.1574 69.507 86.6082 69.3297 87.0627C69.1576 87.5193 68.9146 87.9488 68.7082 88.3987C68.2757 89.29 67.8373 90.1948 67.3933 91.1098C66.9481 92.0248 66.508 92.9287 66.0743 93.82C65.8487 94.2605 65.6604 94.7176 65.4086 95.1356C65.1605 95.5558 64.9146 95.973 64.6708 96.386C63.6939 98.0358 62.751 99.6279 61.8521 101.146C61.6223 101.522 61.4145 101.905 61.1749 102.261C60.9265 102.612 60.6814 102.959 60.4393 103.3C59.9555 103.982 59.4853 104.643 59.0308 105.284C58.1209 106.557 57.272 107.745 56.4948 108.833C54.8035 110.882 53.3848 112.499 52.4104 113.621C51.4302 114.738 50.8688 115.34 50.8285 115.307C50.7882 115.274 51.2724 114.608 52.1823 113.433C53.1262 112.236 54.4516 110.556 56.0793 108.492C56.8277 107.396 57.6443 106.199 58.5203 104.915C58.9604 104.274 59.4158 103.611 59.8847 102.928C60.1196 102.587 60.3579 102.241 60.5996 101.891C60.8324 101.535 61.035 101.151 61.2589 100.775C62.1395 99.2599 63.0634 97.6712 64.0208 96.0248C64.2612 95.6131 64.5029 95.1984 64.7476 94.7799C64.9965 94.364 65.1813 93.9099 65.4043 93.471C65.8334 92.5857 66.2693 91.6873 66.7098 90.7782C67.1517 89.87 67.5884 88.9724 68.0187 88.0879C68.2252 87.6419 68.4686 87.2158 68.6407 86.7629C68.8184 86.3126 68.9948 85.8657 69.1699 85.4231C69.872 83.6533 70.55 81.9454 71.1958 80.3173C71.3531 79.909 71.529 79.5129 71.6656 79.1093C71.7919 78.7023 71.9166 78.3003 72.0399 77.9043C72.2867 77.1131 72.5267 76.344 72.7591 75.6007C73.2267 74.1175 73.6626 72.7336 74.0629 71.4667C74.6777 68.9168 75.178 66.8409 75.5346 65.3619C75.8962 63.9216 76.1205 63.1279 76.1718 63.1368Z" fill="black"/>
</g>
<g opacity="0.4">
<path d="M92.7246 145.998C93.5315 147.463 94.3549 148.951 95.5493 150.122C96.7433 151.292 98.3833 152.122 100.048 151.954C101.711 151.787 103.288 150.404 103.306 148.732C104.105 149.332 105.328 149.007 105.99 148.259C106.652 147.51 106.867 146.47 106.946 145.474C108.031 146.113 109.539 145.606 110.263 144.576C110.987 143.545 111.032 142.157 110.681 140.947C110.33 139.738 109.63 138.665 108.94 137.612C109.775 137.679 110.659 137.738 111.407 137.359C112.154 136.981 112.659 135.992 112.223 135.276C111.967 134.856 111.476 134.648 111.007 134.501C109.698 134.091 108.779 133.763 107.417 133.921C107.1 133.924 107.962 137.515 99.4098 142.426C94.3608 145.326 92.7246 145.998 92.7246 145.998Z" fill="black"/>
</g>
<path d="M111.985 151.185C111.979 151.224 111.41 151.115 110.487 151.14C109.569 151.161 108.286 151.362 107.02 151.97C105.753 152.577 104.793 153.451 104.202 154.153C103.604 154.857 103.333 155.369 103.299 155.349C103.286 155.343 103.341 155.208 103.466 154.978C103.59 154.747 103.792 154.425 104.081 154.054C104.651 153.314 105.621 152.395 106.925 151.77C108.228 151.145 109.551 150.964 110.485 150.984C110.955 150.991 111.333 151.035 111.59 151.083C111.848 151.13 111.987 151.171 111.985 151.185Z" fill="#EB996E"/>
<path d="M93.2832 143.721C94.6608 145.044 95.6029 146.505 97.0479 147.837C97.7047 148.443 98.7244 149.59 99.6046 149.743C100.485 149.895 101.049 149.778 101.397 148.956C101.679 148.29 101.173 147.379 100.822 146.83C99.9018 145.386 99.0216 144.258 98.3322 143.135C98.0095 142.609 98.4276 142.5 98.5798 142.744C99.2429 143.431 100.232 144.027 100.826 144.775C101.639 145.8 101.787 147.157 103.915 146.728C104.196 146.671 104.477 146.574 104.704 146.4C105.505 145.786 105.539 144.721 105.202 143.867C104.938 143.198 104.474 142.63 104.017 142.074C104.923 143.097 105.912 144.174 107.352 144.29C108.189 144.358 109.03 143.968 109.368 143.199C109.794 142.231 109.183 141.296 108.57 140.539C107.483 139.199 106.271 137.96 104.954 136.845C104.464 136.43 103.839 136.198 103.196 136.193C102.451 136.189 101.519 136.329 101.059 136.977C100.223 138.153 100.48 139.193 100.48 139.193C100.48 139.193 98.612 138.246 97.1111 139.237C95.6101 140.227 95.2387 141.93 95.2387 141.93L93.2832 143.721Z" fill="#FFBE9D"/>
<path d="M103.223 135.783C102.645 135.201 102.51 134.135 102.959 133.256C103.276 132.633 103.677 132.028 104.084 131.891C105.861 131.292 113.624 132.635 113.554 134.358C113.481 136.127 112.916 136.906 108.702 136.298C107.961 136.191 106.798 136.045 106.798 136.045L105.781 137.571L103.223 135.783Z" fill="#FFBE9D"/>
<path d="M104.613 142.998C104.552 143.036 103.961 141.83 102.754 140.75C101.56 139.654 100.303 139.184 100.335 139.119C100.343 139.095 100.668 139.179 101.157 139.409C101.645 139.637 102.289 140.031 102.903 140.586C103.515 141.142 103.969 141.745 104.245 142.208C104.522 142.672 104.637 142.987 104.613 142.998Z" fill="#EB996E"/>
<path d="M105.921 137.704C105.882 137.74 105.37 137.322 104.671 136.894C104.323 136.68 104 136.501 103.759 136.392C103.519 136.28 103.36 136.249 103.361 136.216C103.36 136.187 103.544 136.164 103.813 136.246C104.083 136.322 104.43 136.487 104.787 136.707C105.503 137.145 105.973 137.658 105.921 137.704Z" fill="#EB996E"/>
<path d="M107.225 136.101C107.22 136.148 106.544 136.167 105.729 135.933C105.325 135.809 104.983 135.614 104.772 135.431C104.559 135.25 104.47 135.098 104.491 135.08C104.532 135.043 105.014 135.501 105.794 135.722C106.565 135.945 107.236 136.028 107.225 136.101Z" fill="#EB996E"/>
<path d="M99.679 145.131C99.654 145.149 99.3792 144.799 98.9709 144.211C98.5541 143.638 98.0237 142.781 97.1587 142.152C96.2933 141.521 95.2745 141.371 94.5918 141.471C93.8952 141.569 93.5318 141.856 93.5102 141.815C93.503 141.806 93.5844 141.726 93.7578 141.619C93.9295 141.51 94.206 141.39 94.5664 141.318C95.2804 141.171 96.3688 141.303 97.2872 141.972C98.2013 142.64 98.7165 143.531 99.1011 144.125C99.4763 144.735 99.7036 145.114 99.679 145.131Z" fill="#EB996E"/>
<path d="M105.619 162.304C105.625 162.365 104.204 162.569 102.445 162.76C100.686 162.952 99.2544 163.058 99.2481 162.997C99.2413 162.936 100.662 162.732 102.422 162.541C104.18 162.35 105.612 162.244 105.619 162.304Z" fill="#EB996E"/>
<path d="M172.413 21.293L172.891 22.1681L173.766 22.6464L172.891 23.1255L172.413 24.0002L171.934 23.1255L171.059 22.6464L171.934 22.1681L172.413 21.293Z" fill="#E8505B"/>
<path d="M182.42 42.9883L182.899 43.8634L183.774 44.3421L182.899 44.8208L182.42 45.6959L181.942 44.8208L181.066 44.3421L181.942 43.8634L182.42 42.9883Z" fill="#E8505B"/>
<path d="M22.0077 100.873L22.4864 101.749L23.3615 102.227L22.4864 102.706L22.0077 103.581L21.5294 102.706L20.6543 102.227L21.5294 101.749L22.0077 100.873Z" fill="#E8505B"/>
<path d="M159.282 26.6855L160.388 28.7063L162.409 29.8117L160.388 30.9171L159.282 32.9383L158.177 30.9171L156.156 29.8117L158.177 28.7063L159.282 26.6855Z" fill="#E8505B"/>
<path d="M30.9787 87.1211L32.0816 89.1376L34.0981 90.2405L32.0816 91.3433L30.9787 93.3598L29.8759 91.3433L27.8594 90.2405L29.8759 89.1376L30.9787 87.1211Z" fill="#E8505B"/>
<path d="M185.145 135.23L186.248 137.247L188.264 138.35L186.248 139.453L185.145 141.47L184.042 139.453L182.025 138.35L184.042 137.247L185.145 135.23Z" fill="#E8505B"/>
</svg>
