<svg width="284" height="83" viewBox="0 0 284 83" fill="none" xmlns="http://www.w3.org/2000/svg">
<rect x="0.5" y="0.5" width="283" height="82" rx="4.5" fill="#F5F6F9" stroke="#B9C6D5"/>
<path d="M215.237 55.5273C215.101 55.5046 214.952 55.4932 214.793 55.4932C214.201 55.4932 213.799 55.7454 213.587 56.25V60H212.684V54.7168H213.562L213.577 55.3271C213.873 54.8551 214.293 54.6191 214.837 54.6191C215.013 54.6191 215.146 54.6419 215.237 54.6875V55.5273Z" fill="#555555"/>
<path d="M218.167 60.0977C217.451 60.0977 216.868 59.8633 216.419 59.3945C215.97 58.9225 215.745 58.2926 215.745 57.5049V57.3389C215.745 56.8148 215.844 56.3477 216.043 55.9375C216.245 55.5241 216.525 55.2018 216.883 54.9707C217.244 54.7363 217.635 54.6191 218.055 54.6191C218.742 54.6191 219.275 54.8454 219.656 55.2979C220.037 55.7503 220.228 56.3981 220.228 57.2412V57.6172H216.648C216.661 58.138 216.813 58.5596 217.103 58.8818C217.396 59.2008 217.767 59.3604 218.216 59.3604C218.535 59.3604 218.805 59.2952 219.026 59.165C219.248 59.0348 219.441 58.8623 219.607 58.6475L220.159 59.0771C219.716 59.7575 219.052 60.0977 218.167 60.0977ZM218.055 55.3613C217.69 55.3613 217.384 55.4948 217.137 55.7617C216.889 56.0254 216.736 56.3965 216.678 56.875H219.324V56.8066C219.298 56.3477 219.174 55.9928 218.953 55.7422C218.732 55.4883 218.432 55.3613 218.055 55.3613Z" fill="#555555"/>
<path d="M226.648 57.7441C226.561 58.4961 226.282 59.0771 225.813 59.4873C225.348 59.8942 224.728 60.0977 223.953 60.0977C223.113 60.0977 222.439 59.7965 221.932 59.1943C221.427 58.5921 221.175 57.7865 221.175 56.7773V56.0938C221.175 55.4329 221.292 54.8519 221.526 54.3506C221.764 53.8493 222.099 53.4652 222.532 53.1982C222.965 52.9281 223.466 52.793 224.036 52.793C224.791 52.793 225.397 53.0046 225.853 53.4277C226.308 53.8477 226.574 54.4303 226.648 55.1758H225.706C225.625 54.6094 225.447 54.1992 225.174 53.9453C224.904 53.6914 224.524 53.5645 224.036 53.5645C223.437 53.5645 222.967 53.7858 222.625 54.2285C222.286 54.6712 222.117 55.3011 222.117 56.1182V56.8066C222.117 57.5781 222.278 58.1917 222.601 58.6475C222.923 59.1032 223.374 59.3311 223.953 59.3311C224.474 59.3311 224.873 59.2139 225.149 58.9795C225.429 58.7419 225.615 58.3301 225.706 57.7441H226.648Z" fill="#555555"/>
<path d="M231.858 58.1445H228.88L228.211 60H227.244L229.959 52.8906H230.779L233.499 60H232.537L231.858 58.1445ZM229.163 57.373H231.58L230.369 54.0479L229.163 57.373Z" fill="#555555"/>
<path d="M235.394 57.2168V60H234.456V52.8906H237.078C237.856 52.8906 238.465 53.0892 238.904 53.4863C239.347 53.8835 239.568 54.4092 239.568 55.0635C239.568 55.7536 239.352 56.2858 238.919 56.6602C238.489 57.0312 237.872 57.2168 237.068 57.2168H235.394ZM235.394 56.4502H237.078C237.579 56.4502 237.964 56.333 238.23 56.0986C238.497 55.861 238.631 55.5192 238.631 55.0732C238.631 54.6501 238.497 54.3115 238.23 54.0576C237.964 53.8037 237.597 53.6719 237.132 53.6621H235.394V56.4502Z" fill="#555555"/>
<path d="M245.677 53.6621H243.392V60H242.459V53.6621H240.179V52.8906H245.677V53.6621Z" fill="#555555"/>
<path d="M251.824 57.7441C251.736 58.4961 251.458 59.0771 250.989 59.4873C250.524 59.8942 249.904 60.0977 249.129 60.0977C248.289 60.0977 247.615 59.7965 247.107 59.1943C246.603 58.5921 246.351 57.7865 246.351 56.7773V56.0938C246.351 55.4329 246.468 54.8519 246.702 54.3506C246.94 53.8493 247.275 53.4652 247.708 53.1982C248.141 52.9281 248.642 52.793 249.212 52.793C249.967 52.793 250.573 53.0046 251.028 53.4277C251.484 53.8477 251.749 54.4303 251.824 55.1758H250.882C250.8 54.6094 250.623 54.1992 250.35 53.9453C250.079 53.6914 249.7 53.5645 249.212 53.5645C248.613 53.5645 248.143 53.7858 247.801 54.2285C247.462 54.6712 247.293 55.3011 247.293 56.1182V56.8066C247.293 57.5781 247.454 58.1917 247.776 58.6475C248.099 59.1032 248.549 59.3311 249.129 59.3311C249.65 59.3311 250.049 59.2139 250.325 58.9795C250.605 58.7419 250.791 58.3301 250.882 57.7441H251.824Z" fill="#555555"/>
<path d="M258.572 60H257.63V56.7139H254.046V60H253.108V52.8906H254.046V55.9473H257.63V52.8906H258.572V60Z" fill="#555555"/>
<path d="M264.251 58.1445H261.272L260.604 60H259.637L262.352 52.8906H263.172L265.892 60H264.93L264.251 58.1445ZM261.556 57.373H263.973L262.762 54.0479L261.556 57.373Z" fill="#555555"/>
<path d="M211.75 68.5391V70.7656H211V65.0781H213.098C213.72 65.0781 214.207 65.237 214.559 65.5547C214.913 65.8724 215.09 66.293 215.09 66.8164C215.09 67.3685 214.917 67.7943 214.57 68.0938C214.227 68.3906 213.733 68.5391 213.09 68.5391H211.75ZM211.75 67.9258H213.098C213.499 67.9258 213.806 67.832 214.02 67.6445C214.233 67.4544 214.34 67.181 214.34 66.8242C214.34 66.4857 214.233 66.2148 214.02 66.0117C213.806 65.8086 213.513 65.7031 213.141 65.6953H211.75V67.9258Z" fill="#555555"/>
<path d="M217.977 67.1875C217.867 67.1693 217.749 67.1602 217.621 67.1602C217.147 67.1602 216.826 67.362 216.656 67.7656V70.7656H215.934V66.5391H216.637L216.648 67.0273C216.885 66.6497 217.221 66.4609 217.656 66.4609C217.797 66.4609 217.904 66.4792 217.977 66.5156V67.1875Z" fill="#555555"/>
<path d="M219.43 70.7656H218.707V66.5391H219.43V70.7656ZM218.648 65.418C218.648 65.3008 218.684 65.2018 218.754 65.1211C218.827 65.0404 218.934 65 219.074 65C219.215 65 219.322 65.0404 219.395 65.1211C219.467 65.2018 219.504 65.3008 219.504 65.418C219.504 65.5352 219.467 65.6328 219.395 65.7109C219.322 65.7891 219.215 65.8281 219.074 65.8281C218.934 65.8281 218.827 65.7891 218.754 65.7109C218.684 65.6328 218.648 65.5352 218.648 65.418Z" fill="#555555"/>
<path d="M221.984 69.7852L223.031 66.5391H223.77L222.254 70.7656H221.703L220.172 66.5391H220.91L221.984 69.7852Z" fill="#555555"/>
<path d="M227.012 70.7656C226.97 70.6823 226.936 70.5339 226.91 70.3203C226.574 70.6693 226.173 70.8438 225.707 70.8438C225.29 70.8438 224.948 70.7266 224.68 70.4922C224.414 70.2552 224.281 69.9557 224.281 69.5938C224.281 69.1536 224.448 68.8125 224.781 68.5703C225.117 68.3255 225.589 68.2031 226.195 68.2031H226.898V67.8711C226.898 67.6185 226.823 67.418 226.672 67.2695C226.521 67.1185 226.298 67.043 226.004 67.043C225.746 67.043 225.53 67.1081 225.355 67.2383C225.181 67.3685 225.094 67.526 225.094 67.7109H224.367C224.367 67.5 224.441 67.2969 224.59 67.1016C224.741 66.9036 224.944 66.7474 225.199 66.6328C225.457 66.5182 225.74 66.4609 226.047 66.4609C226.534 66.4609 226.915 66.5833 227.191 66.8281C227.467 67.0703 227.611 67.4049 227.621 67.832V69.7773C227.621 70.1654 227.671 70.474 227.77 70.7031V70.7656H227.012ZM225.812 70.2148C226.039 70.2148 226.254 70.1562 226.457 70.0391C226.66 69.9219 226.807 69.7695 226.898 69.582V68.7148H226.332C225.447 68.7148 225.004 68.974 225.004 69.4922C225.004 69.7188 225.079 69.8958 225.23 70.0234C225.382 70.151 225.576 70.2148 225.812 70.2148Z" fill="#555555"/>
<path d="M230.449 70.2539C230.707 70.2539 230.932 70.1758 231.125 70.0195C231.318 69.8633 231.424 69.668 231.445 69.4336H232.129C232.116 69.6758 232.033 69.9062 231.879 70.125C231.725 70.3438 231.52 70.5182 231.262 70.6484C231.007 70.7786 230.736 70.8438 230.449 70.8438C229.874 70.8438 229.415 70.6523 229.074 70.2695C228.736 69.8841 228.566 69.3581 228.566 68.6914V68.5703C228.566 68.1589 228.642 67.793 228.793 67.4727C228.944 67.1523 229.16 66.9036 229.441 66.7266C229.725 66.5495 230.06 66.4609 230.445 66.4609C230.919 66.4609 231.312 66.6029 231.625 66.8867C231.94 67.1706 232.108 67.5391 232.129 67.9922H231.445C231.424 67.7188 231.32 67.4948 231.133 67.3203C230.948 67.1432 230.719 67.0547 230.445 67.0547C230.078 67.0547 229.793 67.1875 229.59 67.4531C229.389 67.7161 229.289 68.0977 229.289 68.5977V68.7344C229.289 69.2214 229.389 69.5964 229.59 69.8594C229.79 70.1224 230.077 70.2539 230.449 70.2539Z" fill="#555555"/>
<path d="M234.324 69.707L235.309 66.5391H236.082L234.383 71.418C234.12 72.1211 233.702 72.4727 233.129 72.4727L232.992 72.4609L232.723 72.4102V71.8242L232.918 71.8398C233.163 71.8398 233.353 71.7904 233.488 71.6914C233.626 71.5924 233.74 71.4115 233.828 71.1484L233.988 70.7188L232.48 66.5391H233.27L234.324 69.707Z" fill="#555555"/>
<path d="M248.93 65.6953H247.102V70.7656H246.355V65.6953H244.531V65.0781H248.93V65.6953Z" fill="#555555"/>
<path d="M251.023 70.8438C250.451 70.8438 249.984 70.6562 249.625 70.2812C249.266 69.9036 249.086 69.3997 249.086 68.7695V68.6367C249.086 68.2174 249.165 67.8438 249.324 67.5156C249.486 67.1849 249.71 66.9271 249.996 66.7422C250.285 66.5547 250.598 66.4609 250.934 66.4609C251.483 66.4609 251.91 66.6419 252.215 67.0039C252.52 67.3659 252.672 67.8841 252.672 68.5586V68.8594H249.809C249.819 69.276 249.94 69.6133 250.172 69.8711C250.406 70.1263 250.703 70.2539 251.062 70.2539C251.318 70.2539 251.534 70.2018 251.711 70.0977C251.888 69.9935 252.043 69.8555 252.176 69.6836L252.617 70.0273C252.263 70.5716 251.732 70.8438 251.023 70.8438ZM250.934 67.0547C250.642 67.0547 250.397 67.1615 250.199 67.375C250.001 67.5859 249.879 67.8828 249.832 68.2656H251.949V68.2109C251.928 67.8438 251.829 67.5599 251.652 67.3594C251.475 67.1562 251.236 67.0547 250.934 67.0547Z" fill="#555555"/>
<path d="M255.555 67.1875C255.445 67.1693 255.327 67.1602 255.199 67.1602C254.725 67.1602 254.404 67.362 254.234 67.7656V70.7656H253.512V66.5391H254.215L254.227 67.0273C254.464 66.6497 254.799 66.4609 255.234 66.4609C255.375 66.4609 255.482 66.4792 255.555 66.5156V67.1875Z" fill="#555555"/>
<path d="M256.902 66.5391L256.922 67.0078C257.232 66.6432 257.65 66.4609 258.176 66.4609C258.767 66.4609 259.169 66.6875 259.383 67.1406C259.523 66.9375 259.706 66.7734 259.93 66.6484C260.156 66.5234 260.423 66.4609 260.73 66.4609C261.658 66.4609 262.129 66.9518 262.145 67.9336V70.7656H261.422V67.9766C261.422 67.6745 261.353 67.4492 261.215 67.3008C261.077 67.1497 260.845 67.0742 260.52 67.0742C260.251 67.0742 260.029 67.1549 259.852 67.3164C259.674 67.4753 259.572 67.6901 259.543 67.9609V70.7656H258.816V67.9961C258.816 67.3815 258.516 67.0742 257.914 67.0742C257.44 67.0742 257.116 67.276 256.941 67.6797V70.7656H256.219V66.5391H256.902Z" fill="#555555"/>
<path d="M265.699 69.6445C265.699 69.4492 265.625 69.2982 265.477 69.1914C265.331 69.082 265.074 68.9883 264.707 68.9102C264.342 68.832 264.052 68.7383 263.836 68.6289C263.622 68.5195 263.464 68.3893 263.359 68.2383C263.258 68.0872 263.207 67.9076 263.207 67.6992C263.207 67.3529 263.353 67.0599 263.645 66.8203C263.939 66.5807 264.314 66.4609 264.77 66.4609C265.249 66.4609 265.637 66.5846 265.934 66.832C266.233 67.0794 266.383 67.3958 266.383 67.7812H265.656C265.656 67.5833 265.572 67.4128 265.402 67.2695C265.236 67.1263 265.025 67.0547 264.77 67.0547C264.507 67.0547 264.301 67.112 264.152 67.2266C264.004 67.3411 263.93 67.4909 263.93 67.6758C263.93 67.8503 263.999 67.9818 264.137 68.0703C264.275 68.1589 264.523 68.2435 264.883 68.3242C265.245 68.4049 265.538 68.5013 265.762 68.6133C265.986 68.7253 266.151 68.8607 266.258 69.0195C266.367 69.1758 266.422 69.3672 266.422 69.5938C266.422 69.9714 266.271 70.2747 265.969 70.5039C265.667 70.7305 265.275 70.8438 264.793 70.8438C264.454 70.8438 264.155 70.7839 263.895 70.6641C263.634 70.5443 263.43 70.3776 263.281 70.1641C263.135 69.9479 263.062 69.7148 263.062 69.4648H263.785C263.798 69.707 263.895 69.8997 264.074 70.043C264.257 70.1836 264.496 70.2539 264.793 70.2539C265.066 70.2539 265.285 70.1992 265.449 70.0898C265.616 69.9779 265.699 69.8294 265.699 69.6445Z" fill="#555555"/>
<path d="M241.328 68.9648H239.277V68.1992H241.328V68.9648Z" fill="black"/>
<g filter="url(#filter0_d_302_7068)">
<path d="M250.401 22.3378C250.266 22.1691 250.126 22.0031 249.982 21.84C247.688 19.234 244.521 17.554 241.077 17.1147C237.632 16.6754 234.146 17.507 231.271 19.4537L235.387 25.5341C236.783 24.589 238.476 24.1853 240.148 24.3985C241.82 24.6118 243.357 25.4275 244.472 26.6927C244.721 26.9763 244.946 27.2781 245.144 27.5947L241.5 31.2385H253.61V19.1292L250.401 22.3378Z" fill="#1C3AA9"/>
</g>
<g filter="url(#filter1_d_302_7068)">
<path d="M239.238 17.0006H227.129L230.301 20.1724C227.931 22.0879 226.227 24.72 225.457 27.6903C224.585 31.0516 224.969 34.6152 226.536 37.7138L233.089 34.3996C232.328 32.8953 232.142 31.1651 232.565 29.5333C232.988 27.9014 233.991 26.4797 235.387 25.5346C235.442 25.4974 235.498 25.4609 235.554 25.4253L239.238 29.1099V17.0006Z" fill="#4285F4"/>
</g>
<g filter="url(#filter2_d_302_7068)">
<path d="M225 31.3716H237.109L233.451 35.0302C234.227 36.2318 235.359 37.1693 236.698 37.705C238.263 38.3311 240.003 38.3652 241.592 37.8007C243.18 37.2362 244.509 36.112 245.328 34.6385L250.624 39.9213C248.954 42.1132 246.674 43.7872 244.05 44.7197C240.778 45.8824 237.195 45.8122 233.971 44.5225C231.703 43.6152 229.722 42.1482 228.202 40.2793L225 43.4809V31.3716Z" fill="#ABABAB"/>
</g>
<path d="M58.5635 47H57.251V37.0469H58.5635V47Z" fill="black"/>
<path d="M60.8604 39.8496L60.1426 39.3574C60.5664 38.765 60.7852 38.1406 60.7988 37.4844V36.5H62.0498V37.3887C62.0452 37.8444 61.9313 38.3001 61.708 38.7559C61.4893 39.207 61.2067 39.5716 60.8604 39.8496Z" fill="black"/>
<path d="M64.627 39.6035L64.6611 40.4238C65.2035 39.7858 65.9349 39.4668 66.8555 39.4668C67.89 39.4668 68.5941 39.8633 68.9678 40.6562C69.2139 40.3008 69.5329 40.0137 69.9248 39.7949C70.3213 39.5762 70.7884 39.4668 71.3262 39.4668C72.9486 39.4668 73.7734 40.3258 73.8008 42.0439V47H72.5361V42.1191C72.5361 41.5905 72.4154 41.1963 72.1738 40.9365C71.9323 40.6722 71.5267 40.54 70.957 40.54C70.4876 40.54 70.098 40.6813 69.7881 40.9639C69.4782 41.2419 69.2982 41.6178 69.248 42.0918V47H67.9766V42.1533C67.9766 41.0778 67.4502 40.54 66.3975 40.54C65.568 40.54 65.0007 40.8932 64.6953 41.5996V47H63.4307V39.6035H64.627Z" fill="black"/>
<path d="M80.3838 39.6035L80.4248 40.5332C80.9899 39.8223 81.7282 39.4668 82.6396 39.4668C84.2028 39.4668 84.9912 40.3486 85.0049 42.1123V47H83.7402V42.1055C83.7357 41.5723 83.6126 41.1781 83.3711 40.9229C83.1341 40.6676 82.7627 40.54 82.2568 40.54C81.8467 40.54 81.4867 40.6494 81.1768 40.8682C80.8669 41.0869 80.6253 41.374 80.4521 41.7295V47H79.1875V39.6035H80.3838Z" fill="black"/>
<path d="M86.5771 43.2334C86.5771 42.5088 86.7184 41.8571 87.001 41.2783C87.2881 40.6995 87.6846 40.2529 88.1904 39.9385C88.7008 39.624 89.2819 39.4668 89.9336 39.4668C90.9408 39.4668 91.7542 39.8154 92.374 40.5127C92.9984 41.21 93.3105 42.1374 93.3105 43.2949V43.3838C93.3105 44.1038 93.1716 44.751 92.8936 45.3252C92.6201 45.8949 92.2259 46.3392 91.7109 46.6582C91.2005 46.9772 90.6126 47.1367 89.9473 47.1367C88.9447 47.1367 88.1312 46.7881 87.5068 46.0908C86.887 45.3936 86.5771 44.4707 86.5771 43.3223V43.2334ZM87.8486 43.3838C87.8486 44.2041 88.0378 44.8626 88.416 45.3594C88.7988 45.8561 89.3092 46.1045 89.9473 46.1045C90.5898 46.1045 91.1003 45.8538 91.4785 45.3525C91.8568 44.8467 92.0459 44.1403 92.0459 43.2334C92.0459 42.4222 91.8522 41.766 91.4648 41.2646C91.082 40.7588 90.5716 40.5059 89.9336 40.5059C89.3092 40.5059 88.8057 40.7542 88.4229 41.251C88.04 41.7477 87.8486 42.4587 87.8486 43.3838Z" fill="black"/>
<path d="M96.6123 37.8125V39.6035H97.9932V40.5811H96.6123V45.168C96.6123 45.4642 96.6738 45.6875 96.7969 45.8379C96.9199 45.9837 97.1296 46.0566 97.4258 46.0566C97.5716 46.0566 97.7721 46.0293 98.0273 45.9746V47C97.6947 47.0911 97.3711 47.1367 97.0566 47.1367C96.4915 47.1367 96.0654 46.9658 95.7783 46.624C95.4912 46.2822 95.3477 45.7969 95.3477 45.168V40.5811H94.001V39.6035H95.3477V37.8125H96.6123Z" fill="black"/>
<path d="M107.516 47C107.443 46.8542 107.383 46.5944 107.338 46.2207C106.75 46.8314 106.048 47.1367 105.232 47.1367C104.503 47.1367 103.904 46.9316 103.435 46.5215C102.97 46.1068 102.737 45.5827 102.737 44.9492C102.737 44.179 103.029 43.582 103.612 43.1582C104.2 42.7298 105.025 42.5156 106.087 42.5156H107.317V41.9346C107.317 41.4925 107.185 41.1416 106.921 40.8818C106.657 40.6175 106.267 40.4854 105.752 40.4854C105.301 40.4854 104.923 40.5993 104.617 40.8271C104.312 41.055 104.159 41.3307 104.159 41.6543H102.888C102.888 41.2852 103.018 40.9297 103.277 40.5879C103.542 40.2415 103.897 39.9681 104.344 39.7676C104.795 39.5671 105.289 39.4668 105.827 39.4668C106.679 39.4668 107.347 39.681 107.83 40.1094C108.313 40.5332 108.564 41.1188 108.582 41.8662V45.2705C108.582 45.9495 108.669 46.4896 108.842 46.8906V47H107.516ZM105.417 46.0361C105.813 46.0361 106.189 45.9336 106.545 45.7285C106.9 45.5234 107.158 45.2568 107.317 44.9287V43.4111H106.326C104.777 43.4111 104.002 43.8646 104.002 44.7715C104.002 45.168 104.134 45.4779 104.398 45.7012C104.663 45.9245 105.002 46.0361 105.417 46.0361Z" fill="black"/>
<path d="M117.612 40.7383C117.421 40.7064 117.214 40.6904 116.99 40.6904C116.161 40.6904 115.598 41.0436 115.302 41.75V47H114.037V39.6035H115.268L115.288 40.458C115.703 39.7972 116.291 39.4668 117.052 39.4668C117.298 39.4668 117.485 39.4987 117.612 39.5625V40.7383Z" fill="black"/>
<path d="M118.31 43.2334C118.31 42.5088 118.451 41.8571 118.733 41.2783C119.021 40.6995 119.417 40.2529 119.923 39.9385C120.433 39.624 121.014 39.4668 121.666 39.4668C122.673 39.4668 123.487 39.8154 124.106 40.5127C124.731 41.21 125.043 42.1374 125.043 43.2949V43.3838C125.043 44.1038 124.904 44.751 124.626 45.3252C124.353 45.8949 123.958 46.3392 123.443 46.6582C122.933 46.9772 122.345 47.1367 121.68 47.1367C120.677 47.1367 119.864 46.7881 119.239 46.0908C118.619 45.3936 118.31 44.4707 118.31 43.3223V43.2334ZM119.581 43.3838C119.581 44.2041 119.77 44.8626 120.148 45.3594C120.531 45.8561 121.042 46.1045 121.68 46.1045C122.322 46.1045 122.833 45.8538 123.211 45.3525C123.589 44.8467 123.778 44.1403 123.778 43.2334C123.778 42.4222 123.585 41.766 123.197 41.2646C122.814 40.7588 122.304 40.5059 121.666 40.5059C121.042 40.5059 120.538 40.7542 120.155 41.251C119.772 41.7477 119.581 42.4587 119.581 43.3838Z" fill="black"/>
<path d="M132.891 43.3838C132.891 44.514 132.631 45.4232 132.111 46.1113C131.592 46.7949 130.895 47.1367 130.02 47.1367C129.085 47.1367 128.363 46.8063 127.853 46.1455L127.791 47H126.629V36.5H127.894V40.417C128.404 39.7835 129.108 39.4668 130.006 39.4668C130.904 39.4668 131.608 39.8063 132.118 40.4854C132.633 41.1644 132.891 42.0941 132.891 43.2744V43.3838ZM131.626 43.2402C131.626 42.3789 131.46 41.7135 131.127 41.2441C130.794 40.7747 130.316 40.54 129.691 40.54C128.857 40.54 128.258 40.9274 127.894 41.7021V44.9014C128.281 45.6761 128.885 46.0635 129.705 46.0635C130.311 46.0635 130.783 45.8288 131.12 45.3594C131.457 44.89 131.626 44.1836 131.626 43.2402Z" fill="black"/>
<path d="M134.155 43.2334C134.155 42.5088 134.297 41.8571 134.579 41.2783C134.866 40.6995 135.263 40.2529 135.769 39.9385C136.279 39.624 136.86 39.4668 137.512 39.4668C138.519 39.4668 139.332 39.8154 139.952 40.5127C140.576 41.21 140.889 42.1374 140.889 43.2949V43.3838C140.889 44.1038 140.75 44.751 140.472 45.3252C140.198 45.8949 139.804 46.3392 139.289 46.6582C138.779 46.9772 138.191 47.1367 137.525 47.1367C136.523 47.1367 135.709 46.7881 135.085 46.0908C134.465 45.3936 134.155 44.4707 134.155 43.3223V43.2334ZM135.427 43.3838C135.427 44.2041 135.616 44.8626 135.994 45.3594C136.377 45.8561 136.887 46.1045 137.525 46.1045C138.168 46.1045 138.678 45.8538 139.057 45.3525C139.435 44.8467 139.624 44.1403 139.624 43.2334C139.624 42.4222 139.43 41.766 139.043 41.2646C138.66 40.7588 138.15 40.5059 137.512 40.5059C136.887 40.5059 136.384 40.7542 136.001 41.251C135.618 41.7477 135.427 42.4587 135.427 43.3838Z" fill="black"/>
<path d="M144.19 37.8125V39.6035H145.571V40.5811H144.19V45.168C144.19 45.4642 144.252 45.6875 144.375 45.8379C144.498 45.9837 144.708 46.0566 145.004 46.0566C145.15 46.0566 145.35 46.0293 145.605 45.9746V47C145.273 47.0911 144.949 47.1367 144.635 47.1367C144.07 47.1367 143.644 46.9658 143.356 46.624C143.069 46.2822 142.926 45.7969 142.926 45.168V40.5811H141.579V39.6035H142.926V37.8125H144.19Z" fill="black"/>
<path fill-rule="evenodd" clip-rule="evenodd" d="M41.9259 30H18.0741C18.0332 30 18 30.0332 18 30.0741V53.9259C18 53.9668 18.0332 54 18.0741 54H41.9259C41.9668 54 42 53.9668 42 53.9259V30.0741C42 30.0332 41.9668 30 41.9259 30ZM41.9259 28H18.0741C16.9286 28 16 28.9286 16 30.0741V53.9259C16 55.0714 16.9286 56 18.0741 56H41.9259C43.0714 56 44 55.0714 44 53.9259V30.0741C44 28.9286 43.0714 28 41.9259 28Z" fill="#B2B2B2"/>
<g filter="url(#filter3_i_302_7068)">
<rect x="18" y="30" width="24" height="24" fill="white"/>
</g>
<defs>
<filter id="filter0_d_302_7068" x="230.271" y="16" width="24.3389" height="16.2385" filterUnits="userSpaceOnUse" color-interpolation-filters="sRGB">
<feFlood flood-opacity="0" result="BackgroundImageFix"/>
<feColorMatrix in="SourceAlpha" type="matrix" values="0 0 0 0 0 0 0 0 0 0 0 0 0 0 0 0 0 0 127 0" result="hardAlpha"/>
<feOffset/>
<feGaussianBlur stdDeviation="0.5"/>
<feColorMatrix type="matrix" values="0 0 0 0 0 0 0 0 0 0 0 0 0 0 0 0 0 0 0.38 0"/>
<feBlend mode="normal" in2="BackgroundImageFix" result="effect1_dropShadow_302_7068"/>
<feBlend mode="normal" in="SourceGraphic" in2="effect1_dropShadow_302_7068" result="shape"/>
</filter>
<filter id="filter1_d_302_7068" x="224" y="16.0006" width="16.2383" height="22.7132" filterUnits="userSpaceOnUse" color-interpolation-filters="sRGB">
<feFlood flood-opacity="0" result="BackgroundImageFix"/>
<feColorMatrix in="SourceAlpha" type="matrix" values="0 0 0 0 0 0 0 0 0 0 0 0 0 0 0 0 0 0 127 0" result="hardAlpha"/>
<feOffset/>
<feGaussianBlur stdDeviation="0.5"/>
<feColorMatrix type="matrix" values="0 0 0 0 0 0 0 0 0 0 0 0 0 0 0 0 0 0 0.38 0"/>
<feBlend mode="normal" in2="BackgroundImageFix" result="effect1_dropShadow_302_7068"/>
<feBlend mode="normal" in="SourceGraphic" in2="effect1_dropShadow_302_7068" result="shape"/>
</filter>
<filter id="filter2_d_302_7068" x="224" y="30.3716" width="27.624" height="16.1719" filterUnits="userSpaceOnUse" color-interpolation-filters="sRGB">
<feFlood flood-opacity="0" result="BackgroundImageFix"/>
<feColorMatrix in="SourceAlpha" type="matrix" values="0 0 0 0 0 0 0 0 0 0 0 0 0 0 0 0 0 0 127 0" result="hardAlpha"/>
<feOffset/>
<feGaussianBlur stdDeviation="0.5"/>
<feColorMatrix type="matrix" values="0 0 0 0 0 0 0 0 0 0 0 0 0 0 0 0 0 0 0.38 0"/>
<feBlend mode="normal" in2="BackgroundImageFix" result="effect1_dropShadow_302_7068"/>
<feBlend mode="normal" in="SourceGraphic" in2="effect1_dropShadow_302_7068" result="shape"/>
</filter>
<filter id="filter3_i_302_7068" x="18" y="30" width="24" height="25" filterUnits="userSpaceOnUse" color-interpolation-filters="sRGB">
<feFlood flood-opacity="0" result="BackgroundImageFix"/>
<feBlend mode="normal" in="SourceGraphic" in2="BackgroundImageFix" result="shape"/>
<feColorMatrix in="SourceAlpha" type="matrix" values="0 0 0 0 0 0 0 0 0 0 0 0 0 0 0 0 0 0 127 0" result="hardAlpha"/>
<feOffset dy="1"/>
<feGaussianBlur stdDeviation="0.5"/>
<feComposite in2="hardAlpha" operator="arithmetic" k2="-1" k3="1"/>
<feColorMatrix type="matrix" values="0 0 0 0 0 0 0 0 0 0 0 0 0 0 0 0 0 0 0.1 0"/>
<feBlend mode="normal" in2="shape" result="effect1_innerShadow_302_7068"/>
</filter>
</defs>
</svg>
