<svg width="22" height="17" viewBox="0 0 22 17" fill="none" xmlns="http://www.w3.org/2000/svg">
<path d="M18.3333 8.46844V3.26224L16.6774 0.778072C16.5521 0.603029 16.3883 0.459096 16.1986 0.357379C16.009 0.255661 15.7984 0.198877 15.5833 0.191406H2.75C2.53501 0.198718 2.32456 0.255288 2.13488 0.356763C1.9452 0.458238 1.78136 0.601912 1.65596 0.776702L0 3.26224V14.3997C0.000727768 15.0073 0.242403 15.5898 0.672016 16.0194C1.10163 16.449 1.6841 16.6907 2.29167 16.6914H12.8333V15.7747H2.29167C1.92699 15.7747 1.57726 15.6299 1.31939 15.372C1.06153 15.1141 0.916667 14.7644 0.916667 14.3997V3.85807H5.5V6.14974C5.5 6.51441 5.64487 6.86414 5.90273 7.122C6.1606 7.37987 6.51033 7.52474 6.875 7.52474H11.4583C11.823 7.52474 12.1727 7.37987 12.4306 7.122C12.6885 6.86414 12.8333 6.51441 12.8333 6.14974V3.85807H17.4167V8.46844C16.3689 8.58559 15.4058 9.09946 14.7251 9.90454C14.0443 10.7096 13.6977 11.7448 13.7564 12.7974C13.8151 13.8501 14.2745 14.8403 15.0405 15.5648C15.8064 16.2892 16.8207 16.6929 17.875 16.6929C18.9293 16.6929 19.9436 16.2892 20.7095 15.5648C21.4755 14.8403 21.9349 13.8501 21.9936 12.7974C22.0523 11.7448 21.7057 10.7096 21.0249 9.90454C20.3442 9.09946 19.3811 8.58559 18.3333 8.46844ZM15.9147 1.28544L17.0188 2.94141H12.6583L11.7416 1.10807H15.5833C15.7121 1.1237 15.8303 1.18698 15.9147 1.28544ZM11.6334 2.94141H6.69992L7.61659 1.10807H10.7167L11.6334 2.94141ZM2.42092 1.28544C2.50476 1.18748 2.62208 1.12425 2.75 1.10807H6.59174L5.67508 2.94141H1.3145L2.42092 1.28544ZM11.9167 6.14974C11.9167 6.2713 11.8684 6.38787 11.7824 6.47382C11.6965 6.55978 11.5799 6.60807 11.4583 6.60807H6.875C6.75344 6.60807 6.63687 6.55978 6.55092 6.47382C6.46496 6.38787 6.41667 6.2713 6.41667 6.14974V3.85807H11.9167V6.14974ZM17.875 15.7747C17.2405 15.7747 16.6202 15.5866 16.0926 15.234C15.5649 14.8815 15.1537 14.3804 14.9109 13.7942C14.6681 13.2079 14.6045 12.5628 14.7283 11.9405C14.8521 11.3181 15.1577 10.7465 15.6064 10.2978C16.0551 9.84908 16.6267 9.54351 17.2491 9.41971C17.8714 9.29592 18.5165 9.35946 19.1028 9.60229C19.689 9.84512 20.1901 10.2563 20.5426 10.784C20.8952 11.3116 21.0833 11.9319 21.0833 12.5664C21.0824 13.417 20.744 14.2325 20.1426 14.834C19.5411 15.4354 18.7256 15.7738 17.875 15.7747Z" fill="url(#paint0_linear_190_20750)"/>
<path d="M5.5 9.35815H2.75V10.2748H5.5V9.35815Z" fill="url(#paint1_linear_190_20750)"/>
<path d="M6.41667 11.1914H2.75V12.1081H6.41667V11.1914Z" fill="url(#paint2_linear_190_20750)"/>
<path d="M7.33333 13.0247H2.75V13.9413H7.33333V13.0247Z" fill="url(#paint3_linear_190_20750)"/>
<defs>
<linearGradient id="paint0_linear_190_20750" x1="11" y1="0.191406" x2="11" y2="16.6929" gradientUnits="userSpaceOnUse">
<stop stop-color="#0033EA"/>
<stop offset="1" stop-color="#8A0074"/>
</linearGradient>
<linearGradient id="paint1_linear_190_20750" x1="4.125" y1="9.35815" x2="4.125" y2="10.2748" gradientUnits="userSpaceOnUse">
<stop stop-color="#0033EA"/>
<stop offset="1" stop-color="#8A0074"/>
</linearGradient>
<linearGradient id="paint2_linear_190_20750" x1="4.58333" y1="11.1914" x2="4.58333" y2="12.1081" gradientUnits="userSpaceOnUse">
<stop stop-color="#0033EA"/>
<stop offset="1" stop-color="#8A0074"/>
</linearGradient>
<linearGradient id="paint3_linear_190_20750" x1="5.04167" y1="13.0247" x2="5.04167" y2="13.9413" gradientUnits="userSpaceOnUse">
<stop stop-color="#0033EA"/>
<stop offset="1" stop-color="#8A0074"/>
</linearGradient>
</defs>
</svg>
