<svg width="29" height="29" viewBox="0 0 29 29" fill="none" xmlns="http://www.w3.org/2000/svg">
<path d="M12.4948 2.57404C10.5561 2.90198 8.72667 3.69808 7.16535 4.89325C5.60404 6.08841 4.35797 7.64653 3.53528 9.43239C2.71259 11.2183 2.33814 13.1779 2.44443 15.1413C2.55071 17.1046 3.13451 19.0124 4.14518 20.699L3.16643 24.324C3.11324 24.528 3.11432 24.7422 3.16954 24.9456C3.22476 25.149 3.33221 25.3344 3.48123 25.4834C3.63024 25.6324 3.81564 25.7399 4.01902 25.7951C4.22239 25.8503 4.43668 25.8514 4.64059 25.7982L8.26559 24.8195C9.93378 25.8303 11.8219 26.4222 13.7685 26.5447C15.7152 26.6672 17.6626 26.3166 19.4443 25.5229C21.2261 24.7292 22.7892 23.5159 24.0001 21.9868C25.211 20.4577 26.0338 18.6582 26.3981 16.742C26.7624 14.8258 26.6574 12.8499 26.0921 10.9831C25.5267 9.11627 24.5179 7.41407 23.1517 6.0219C21.7856 4.62974 20.1027 3.58899 18.2469 2.98857C16.3911 2.38816 14.4175 2.24593 12.4948 2.57404Z" fill="#FFEEB4"/>
<path d="M14.5003 27.4898C12.2752 27.4889 10.0873 26.919 8.14444 25.8344L4.83361 26.7044C4.48343 26.789 4.11738 26.7822 3.77057 26.6847C3.42377 26.5871 3.10784 26.4021 2.8531 26.1474C2.59836 25.8926 2.41335 25.5767 2.31581 25.2299C2.21828 24.8831 2.21149 24.5171 2.29611 24.1669L3.16611 20.8802C1.82503 18.4994 1.26893 15.7562 1.57693 13.0411C1.88493 10.3259 3.04134 7.77708 4.88164 5.75713C6.72193 3.73718 9.15238 2.34904 11.8272 1.79019C14.502 1.23134 17.2849 1.53026 19.78 2.64441C22.2751 3.75856 24.3553 5.6312 25.7246 7.9959C27.094 10.3606 27.6827 13.0969 27.4071 15.8155C27.1314 18.5342 26.0054 21.0966 24.1893 23.1383C22.3732 25.1801 19.9595 26.597 17.2915 27.1877C16.3751 27.3914 15.439 27.4927 14.5003 27.4898ZM8.30152 23.9494C8.4639 23.9506 8.62279 23.9966 8.76069 24.0823C10.306 25.0064 12.0517 25.5436 13.8492 25.648C15.6467 25.7524 17.4428 25.421 19.0847 24.682C20.7266 23.943 22.1657 22.8183 23.2795 21.4036C24.3932 19.9889 25.1488 18.326 25.4817 16.5565C25.8146 14.787 25.7152 12.9633 25.1918 11.2405C24.6683 9.51772 23.7365 7.94689 22.4754 6.66169C21.2144 5.37648 19.6615 4.41496 17.949 3.85893C16.2365 3.3029 14.4149 3.16883 12.6394 3.46813C10.8439 3.76869 9.14914 4.50374 7.70274 5.60925C6.25634 6.71476 5.10222 8.15719 4.34091 9.81086C3.5796 11.4645 3.23421 13.2793 3.33483 15.097C3.43544 16.9147 3.97902 18.6803 4.91819 20.2398C4.9847 20.3424 5.02784 20.4583 5.04454 20.5794C5.06125 20.7006 5.05111 20.8239 5.01486 20.9406L4.03611 24.5656C4.02471 24.6172 4.02649 24.6708 4.04127 24.7214C4.05606 24.7721 4.08338 24.8183 4.12072 24.8556C4.15805 24.8929 4.20419 24.9203 4.25487 24.935C4.30555 24.9498 4.35914 24.9516 4.41069 24.9402L8.03569 23.9615C8.12308 23.9432 8.21284 23.9391 8.30152 23.9494Z" fill="#FFA95A"/>
<path d="M8.45866 16.0106C9.29284 16.0106 9.96908 15.3343 9.96908 14.5002C9.96908 13.666 9.29284 12.9897 8.45866 12.9897C7.62448 12.9897 6.94824 13.666 6.94824 14.5002C6.94824 15.3343 7.62448 16.0106 8.45866 16.0106Z" fill="#FFA95A"/>
<path d="M14.5007 16.0106C15.3348 16.0106 16.0111 15.3343 16.0111 14.5002C16.0111 13.666 15.3348 12.9897 14.5007 12.9897C13.6665 12.9897 12.9902 13.666 12.9902 14.5002C12.9902 15.3343 13.6665 16.0106 14.5007 16.0106Z" fill="#FFA95A"/>
<path d="M20.5417 16.0106C21.3758 16.0106 22.0521 15.3343 22.0521 14.5002C22.0521 13.666 21.3758 12.9897 20.5417 12.9897C19.7075 12.9897 19.0312 13.666 19.0312 14.5002C19.0312 15.3343 19.7075 16.0106 20.5417 16.0106Z" fill="#FFA95A"/>
</svg>
