<svg width="27" height="27" viewBox="0 0 27 27" fill="none" xmlns="http://www.w3.org/2000/svg">
<path d="M10.9688 18.5625C12.8327 18.5625 14.3438 17.0515 14.3438 15.1875C14.3438 13.3235 12.8327 11.8125 10.9688 11.8125C9.10479 11.8125 7.59375 13.3235 7.59375 15.1875C7.59375 17.0515 9.10479 18.5625 10.9688 18.5625Z" stroke="url(#paint0_linear_302_33498)" stroke-width="1.2" stroke-linecap="round" stroke-linejoin="round"/>
<path d="M5.63203 21.9375C6.11095 20.9275 6.86667 20.0741 7.81136 19.4765C8.75605 18.8789 9.85092 18.5617 10.9688 18.5617C12.0866 18.5617 13.1815 18.8789 14.1261 19.4765C15.0708 20.0741 15.8266 20.9275 16.3055 21.9375H22.7812C23.005 21.9375 23.2196 21.8486 23.3779 21.6904C23.5361 21.5321 23.625 21.3175 23.625 21.0938V5.90625C23.625 5.68247 23.5361 5.46786 23.3779 5.30963C23.2196 5.15139 23.005 5.0625 22.7812 5.0625H4.21875C3.99497 5.0625 3.78036 5.15139 3.62213 5.30963C3.46389 5.46786 3.375 5.68247 3.375 5.90625V21.0938C3.375 21.3175 3.46389 21.5321 3.62213 21.6904C3.78036 21.8486 3.99497 21.9375 4.21875 21.9375H5.63203Z" stroke="url(#paint1_linear_302_33498)" stroke-width="1.2" stroke-linecap="round" stroke-linejoin="round"/>
<path d="M18.5625 18.5625H20.25V8.4375H6.75V10.125" stroke="url(#paint2_linear_302_33498)" stroke-width="1.2" stroke-linecap="round" stroke-linejoin="round"/>
<defs>
<linearGradient id="paint0_linear_302_33498" x1="10.9688" y1="11.8125" x2="10.9688" y2="18.5625" gradientUnits="userSpaceOnUse">
<stop stop-color="#000AFF"/>
<stop offset="1" stop-color="#D274FF"/>
</linearGradient>
<linearGradient id="paint1_linear_302_33498" x1="13.5" y1="5.0625" x2="13.5" y2="21.9375" gradientUnits="userSpaceOnUse">
<stop stop-color="#000AFF"/>
<stop offset="1" stop-color="#D274FF"/>
</linearGradient>
<linearGradient id="paint2_linear_302_33498" x1="13.5" y1="8.4375" x2="13.5" y2="18.5625" gradientUnits="userSpaceOnUse">
<stop stop-color="#000AFF"/>
<stop offset="1" stop-color="#D274FF"/>
</linearGradient>
</defs>
</svg>
