<svg width="40" height="46" viewBox="0 0 40 46" fill="none" xmlns="http://www.w3.org/2000/svg">
<circle cx="29" cy="11" r="11" fill="#F7DDEF"/>
<path d="M20.8202 27.5484H30.7369C32.2861 27.5484 33.5493 26.2853 33.5493 24.736V14.8124C33.5493 13.2631 32.2861 12 30.7369 12H20.8202C19.2709 12 18.0078 13.2631 18.0078 14.8124V24.7291C18.0078 26.2853 19.2709 27.5484 20.8202 27.5484ZM19.7176 14.8124C19.7176 14.2053 20.2131 13.7098 20.8202 13.7098H30.7369C31.344 13.7098 31.8395 14.2053 31.8395 14.8124V24.7291C31.8395 25.3362 31.344 25.8317 30.7369 25.8317H20.8202C20.2131 25.8317 19.7176 25.3362 19.7176 24.7291V14.8124Z" fill="url(#paint0_linear_283_54218)"/>
<path d="M7.4142 13.647C7.07923 13.312 6.54187 13.312 6.20689 13.647L0.686778 19.1671C0.351803 19.5021 0.351803 20.0394 0.686778 20.3744L6.20689 25.8945C6.37438 26.062 6.59072 26.1457 6.81404 26.1457C7.03735 26.1457 7.25369 26.062 7.42118 25.8945C7.75615 25.5595 7.75615 25.0222 7.42118 24.6872L3.35262 20.6256H15.2722C15.7467 20.6256 16.1305 20.2418 16.1305 19.7742C16.1305 19.3067 15.7467 18.9158 15.2722 18.9158H3.35262L7.4142 14.8543C7.74918 14.5263 7.74918 13.9819 7.4142 13.647Z" fill="url(#paint1_linear_283_54218)"/>
<path d="M0.435547 43.1876C0.435547 44.7369 1.69868 46 3.24794 46H13.1646C14.7139 46 15.977 44.7369 15.977 43.1876V33.2709C15.977 31.7217 14.7139 30.4585 13.1646 30.4585H3.25492C1.70566 30.4585 0.442526 31.7217 0.442526 33.2709V43.1876H0.435547ZM2.14532 33.2709C2.14532 32.6638 2.6408 32.1683 3.24794 32.1683H13.1646C13.7718 32.1683 14.2672 32.6638 14.2672 33.2709V43.1876C14.2672 43.7947 13.7718 44.2902 13.1646 44.2902H3.25492C2.64778 44.2902 2.1523 43.7947 2.1523 43.1876V33.2709H2.14532Z" fill="url(#paint2_linear_283_54218)"/>
<path d="M18.7196 39.0842H30.6392L26.5776 43.1457C26.2426 43.4807 26.2426 44.0181 26.5776 44.353C26.7451 44.5205 26.9614 44.6043 27.1847 44.6043C27.408 44.6043 27.6244 44.5205 27.7919 44.353L33.312 38.8329C33.4725 38.6724 33.5632 38.4561 33.5632 38.2258C33.5632 38.0025 33.4725 37.7791 33.312 37.6186L27.7919 32.0985C27.4569 31.7635 26.9195 31.7635 26.5846 32.0985C26.2496 32.4335 26.2496 32.9709 26.5846 33.3058L30.6461 37.3674H18.7196C18.2451 37.3674 17.8612 37.7512 17.8612 38.2258C17.8612 38.7003 18.2451 39.0842 18.7196 39.0842Z" fill="url(#paint3_linear_283_54218)"/>
<defs>
<linearGradient id="paint0_linear_283_54218" x1="16.9994" y1="12" x2="16.9994" y2="46" gradientUnits="userSpaceOnUse">
<stop stop-color="#000AFF"/>
<stop offset="1" stop-color="#D274FF"/>
</linearGradient>
<linearGradient id="paint1_linear_283_54218" x1="16.9994" y1="12" x2="16.9994" y2="46" gradientUnits="userSpaceOnUse">
<stop stop-color="#000AFF"/>
<stop offset="1" stop-color="#D274FF"/>
</linearGradient>
<linearGradient id="paint2_linear_283_54218" x1="16.9994" y1="12" x2="16.9994" y2="46" gradientUnits="userSpaceOnUse">
<stop stop-color="#000AFF"/>
<stop offset="1" stop-color="#D274FF"/>
</linearGradient>
<linearGradient id="paint3_linear_283_54218" x1="16.9994" y1="12" x2="16.9994" y2="46" gradientUnits="userSpaceOnUse">
<stop stop-color="#000AFF"/>
<stop offset="1" stop-color="#D274FF"/>
</linearGradient>
</defs>
</svg>
