<svg width="17" height="17" viewBox="0 0 17 17" fill="none" xmlns="http://www.w3.org/2000/svg">
<g clip-path="url(#clip0_1125_32933)">
<path d="M10.4105 7.77422H15.3688C16.1434 7.77422 16.775 7.14265 16.775 6.36802V1.4062C16.775 0.631568 16.1434 0 15.3688 0H10.4105C9.63584 0 9.00427 0.631568 9.00427 1.4062V6.36453C9.00427 7.14265 9.63584 7.77422 10.4105 7.77422ZM9.85916 1.4062C9.85916 1.10263 10.1069 0.854885 10.4105 0.854885H15.3688C15.6724 0.854885 15.9201 1.10263 15.9201 1.4062V6.36453C15.9201 6.6681 15.6724 6.91584 15.3688 6.91584H10.4105C10.1069 6.91584 9.85916 6.6681 9.85916 6.36453V1.4062Z" fill="url(#paint0_linear_1125_32933)"/>
<path d="M3.70747 0.822881C3.53998 0.655394 3.2713 0.655394 3.10381 0.822881L0.343755 3.58294C0.176268 3.75043 0.176268 4.0191 0.343755 4.18659L3.10381 6.94665C3.18756 7.03039 3.29573 7.07227 3.40738 7.07227C3.51904 7.07227 3.62721 7.03039 3.71096 6.94665C3.87844 6.77916 3.87844 6.51048 3.71096 6.343L1.67668 4.31221H7.63645C7.87372 4.31221 8.06564 4.1203 8.06564 3.88651C8.06564 3.65273 7.87372 3.45732 7.63645 3.45732H1.67668L3.70747 1.42653C3.87495 1.26254 3.87495 0.990369 3.70747 0.822881Z" fill="url(#paint1_linear_1125_32933)"/>
<path d="M0.21814 15.593C0.21814 16.3677 0.849708 16.9992 1.62434 16.9992H6.58267C7.3573 16.9992 7.98887 16.3677 7.98887 15.593V10.6347C7.98887 9.86008 7.3573 9.22852 6.58267 9.22852H1.62783C0.853197 9.22852 0.221629 9.86008 0.221629 10.6347V15.593H0.21814ZM1.07302 10.6347C1.07302 10.3311 1.32077 10.0834 1.62434 10.0834H6.58267C6.88624 10.0834 7.13399 10.3311 7.13399 10.6347V15.593C7.13399 15.8966 6.88624 16.1444 6.58267 16.1444H1.62783C1.32426 16.1444 1.07651 15.8966 1.07651 15.593V10.6347H1.07302Z" fill="url(#paint2_linear_1125_32933)"/>
<path d="M9.36022 13.5423H15.32L13.2892 15.573C13.1217 15.7405 13.1217 16.0092 13.2892 16.1767C13.3729 16.2604 13.4811 16.3023 13.5928 16.3023C13.7044 16.3023 13.8126 16.2604 13.8963 16.1767L16.6564 13.4166C16.7367 13.3364 16.782 13.2282 16.782 13.1131C16.782 13.0014 16.7367 12.8898 16.6564 12.8095L13.8963 10.0494C13.7289 9.88196 13.4602 9.88196 13.2927 10.0494C13.1252 10.2169 13.1252 10.4856 13.2927 10.6531L15.3235 12.6839H9.36022C9.12294 12.6839 8.93103 12.8758 8.93103 13.1131C8.93103 13.3503 9.12294 13.5423 9.36022 13.5423Z" fill="url(#paint3_linear_1125_32933)"/>
</g>
<defs>
<linearGradient id="paint0_linear_1125_32933" x1="12.8896" y1="0" x2="12.8896" y2="7.77422" gradientUnits="userSpaceOnUse">
<stop stop-color="#000AFF"/>
<stop offset="1" stop-color="#D274FF"/>
</linearGradient>
<linearGradient id="paint1_linear_1125_32933" x1="4.14189" y1="0.697266" x2="4.14189" y2="7.07227" gradientUnits="userSpaceOnUse">
<stop stop-color="#000AFF"/>
<stop offset="1" stop-color="#D274FF"/>
</linearGradient>
<linearGradient id="paint2_linear_1125_32933" x1="4.1035" y1="9.22852" x2="4.1035" y2="16.9992" gradientUnits="userSpaceOnUse">
<stop stop-color="#000AFF"/>
<stop offset="1" stop-color="#D274FF"/>
</linearGradient>
<linearGradient id="paint3_linear_1125_32933" x1="12.8565" y1="9.92383" x2="12.8565" y2="16.3023" gradientUnits="userSpaceOnUse">
<stop stop-color="#000AFF"/>
<stop offset="1" stop-color="#D274FF"/>
</linearGradient>
<clipPath id="clip0_1125_32933">
<rect width="17" height="17" fill="white"/>
</clipPath>
</defs>
</svg>
