<svg width="24" height="26" viewBox="0 0 24 26" fill="none" xmlns="http://www.w3.org/2000/svg">
<circle cx="17.0523" cy="6.94737" r="6.94737" fill="#F6DDEF"/>
<g clip-path="url(#clip0_99_3333)">
<path d="M13.1498 13.6096H19.4129C20.3914 13.6096 21.1892 12.8118 21.1892 11.8333V5.56574C21.1892 4.58726 20.3914 3.78949 19.4129 3.78949H13.1498C12.1713 3.78949 11.3735 4.58726 11.3735 5.56574V11.8289C11.3735 12.8118 12.1713 13.6096 13.1498 13.6096ZM12.4534 5.56574C12.4534 5.18228 12.7663 4.86934 13.1498 4.86934H19.4129C19.7964 4.86934 20.1093 5.18228 20.1093 5.56574V11.8289C20.1093 12.2124 19.7964 12.5253 19.4129 12.5253H13.1498C12.7663 12.5253 12.4534 12.2124 12.4534 11.8289V5.56574Z" fill="url(#paint0_linear_99_3333)"/>
<path d="M4.68296 4.82969C4.4714 4.61813 4.13201 4.61813 3.92045 4.82969L0.434063 8.31608C0.2225 8.52764 0.2225 8.86703 0.434063 9.07859L3.92045 12.565C4.02623 12.6708 4.16287 12.7237 4.30391 12.7237C4.44495 12.7237 4.58159 12.6708 4.68737 12.565C4.89893 12.3534 4.89893 12.014 4.68737 11.8025L2.11776 9.23726H9.64589C9.9456 9.23726 10.188 8.99485 10.188 8.69954C10.188 8.40423 9.9456 8.15741 9.64589 8.15741H2.11776L4.68296 5.5922C4.89453 5.38505 4.89453 5.04126 4.68296 4.82969Z" fill="url(#paint1_linear_99_3333)"/>
<path d="M0.275391 23.4869C0.275391 24.4654 1.07316 25.2632 2.05164 25.2632H8.3148C9.29328 25.2632 10.091 24.4654 10.091 23.4869V17.2238C10.091 16.2453 9.29328 15.4475 8.3148 15.4475H2.05605C1.07757 15.4475 0.279798 16.2453 0.279798 17.2238V23.4869H0.275391ZM1.35525 17.2238C1.35525 16.8403 1.66818 16.5274 2.05164 16.5274H8.3148C8.69826 16.5274 9.01119 16.8403 9.01119 17.2238V23.4869C9.01119 23.8704 8.69826 24.1833 8.3148 24.1833H2.05605C1.67259 24.1833 1.35965 23.8704 1.35965 23.4869V17.2238H1.35525Z" fill="url(#paint2_linear_99_3333)"/>
<path d="M11.8234 20.8953H19.3515L16.7863 23.4605C16.5747 23.6721 16.5747 24.0115 16.7863 24.223C16.8921 24.3288 17.0287 24.3817 17.1698 24.3817C17.3108 24.3817 17.4474 24.3288 17.5532 24.223L21.0396 20.7366C21.141 20.6353 21.1983 20.4986 21.1983 20.3532C21.1983 20.2121 21.141 20.0711 21.0396 19.9697L17.5532 16.4833C17.3417 16.2718 17.0023 16.2718 16.7907 16.4833C16.5792 16.6949 16.5792 17.0343 16.7907 17.2458L19.3559 19.811H11.8234C11.5237 19.811 11.2812 20.0535 11.2812 20.3532C11.2812 20.6529 11.5237 20.8953 11.8234 20.8953Z" fill="url(#paint3_linear_99_3333)"/>
</g>
<defs>
<linearGradient id="paint0_linear_99_3333" x1="16.2814" y1="3.78949" x2="16.2814" y2="13.6096" gradientUnits="userSpaceOnUse">
<stop stop-color="#000AFF"/>
<stop offset="1" stop-color="#D274FF"/>
</linearGradient>
<linearGradient id="paint1_linear_99_3333" x1="5.2317" y1="4.67102" x2="5.2317" y2="12.7237" gradientUnits="userSpaceOnUse">
<stop stop-color="#000AFF"/>
<stop offset="1" stop-color="#D274FF"/>
</linearGradient>
<linearGradient id="paint2_linear_99_3333" x1="5.18322" y1="15.4475" x2="5.18322" y2="25.2632" gradientUnits="userSpaceOnUse">
<stop stop-color="#000AFF"/>
<stop offset="1" stop-color="#D274FF"/>
</linearGradient>
<linearGradient id="paint3_linear_99_3333" x1="16.2398" y1="16.3246" x2="16.2398" y2="24.3817" gradientUnits="userSpaceOnUse">
<stop stop-color="#000AFF"/>
<stop offset="1" stop-color="#D274FF"/>
</linearGradient>
<clipPath id="clip0_99_3333">
<rect width="21.4737" height="21.4737" fill="white" transform="translate(0 3.78949)"/>
</clipPath>
</defs>
</svg>
