<svg width="34" height="34" viewBox="0 0 34 34" fill="none" xmlns="http://www.w3.org/2000/svg">
<path d="M20.8207 15.5484H30.7373C32.2866 15.5484 33.5497 14.2853 33.5497 12.736V2.8124C33.5497 1.26314 32.2866 0 30.7373 0H20.8207C19.2714 0 18.0083 1.26314 18.0083 2.8124V12.7291C18.0083 14.2853 19.2714 15.5484 20.8207 15.5484ZM19.7181 2.8124C19.7181 2.20525 20.2135 1.70977 20.8207 1.70977H30.7373C31.3445 1.70977 31.84 2.20525 31.84 2.8124V12.7291C31.84 13.3362 31.3445 13.8317 30.7373 13.8317H20.8207C20.2135 13.8317 19.7181 13.3362 19.7181 12.7291V2.8124Z" fill="url(#paint0_linear_266_26760)"/>
<path d="M7.41469 1.64696C7.07971 1.31199 6.54236 1.31199 6.20738 1.64696L0.687267 7.16708C0.352291 7.50205 0.352291 8.03941 0.687267 8.37438L6.20738 13.8945C6.37487 14.062 6.59121 14.1457 6.81452 14.1457C7.03784 14.1457 7.25418 14.062 7.42167 13.8945C7.75664 13.5595 7.75664 13.0222 7.42167 12.6872L3.35311 8.62562H15.2727C15.7472 8.62562 16.131 8.24179 16.131 7.77422C16.131 7.30665 15.7472 6.91585 15.2727 6.91585H3.35311L7.41469 2.85427C7.74966 2.52627 7.74966 1.98194 7.41469 1.64696Z" fill="url(#paint1_linear_266_26760)"/>
<path d="M0.436035 31.1876C0.436035 32.7369 1.69917 34 3.24843 34H13.1651C14.7144 34 15.9775 32.7369 15.9775 31.1876V21.2709C15.9775 19.7217 14.7144 18.4585 13.1651 18.4585H3.25541C1.70615 18.4585 0.443014 19.7217 0.443014 21.2709V31.1876H0.436035ZM2.14581 21.2709C2.14581 20.6638 2.64129 20.1683 3.24843 20.1683H13.1651C13.7722 20.1683 14.2677 20.6638 14.2677 21.2709V31.1876C14.2677 31.7947 13.7722 32.2902 13.1651 32.2902H3.25541C2.64827 32.2902 2.15278 31.7947 2.15278 31.1876V21.2709H2.14581Z" fill="url(#paint2_linear_266_26760)"/>
<path d="M18.7201 27.0842H30.6396L26.5781 31.1457C26.2431 31.4807 26.2431 32.0181 26.5781 32.353C26.7456 32.5205 26.9619 32.6043 27.1852 32.6043C27.4085 32.6043 27.6249 32.5205 27.7924 32.353L33.3125 26.8329C33.473 26.6724 33.5637 26.4561 33.5637 26.2258C33.5637 26.0025 33.473 25.7791 33.3125 25.6186L27.7924 20.0985C27.4574 19.7635 26.92 19.7635 26.585 20.0985C26.2501 20.4335 26.2501 20.9709 26.585 21.3058L30.6466 25.3674H18.7201C18.2456 25.3674 17.8617 25.7512 17.8617 26.2258C17.8617 26.7003 18.2456 27.0842 18.7201 27.0842Z" fill="url(#paint3_linear_266_26760)"/>
<defs>
<linearGradient id="paint0_linear_266_26760" x1="25.7128" y1="19.8473" x2="25.7128" y2="32.6043" gradientUnits="userSpaceOnUse">
<stop stop-color="#366DFF"/>
<stop offset="1" stop-color="#E372FF"/>
</linearGradient>
<linearGradient id="paint1_linear_266_26760" x1="25.7128" y1="19.8473" x2="25.7128" y2="32.6043" gradientUnits="userSpaceOnUse">
<stop stop-color="#366DFF"/>
<stop offset="1" stop-color="#E372FF"/>
</linearGradient>
<linearGradient id="paint2_linear_266_26760" x1="25.7128" y1="19.8473" x2="25.7128" y2="32.6043" gradientUnits="userSpaceOnUse">
<stop stop-color="#366DFF"/>
<stop offset="1" stop-color="#E372FF"/>
</linearGradient>
<linearGradient id="paint3_linear_266_26760" x1="25.7128" y1="19.8473" x2="25.7128" y2="32.6043" gradientUnits="userSpaceOnUse">
<stop stop-color="#366DFF"/>
<stop offset="1" stop-color="#E372FF"/>
</linearGradient>
</defs>
</svg>
