<svg width="27" height="28" viewBox="0 0 27 28" fill="none" xmlns="http://www.w3.org/2000/svg">
<g clip-path="url(#clip0_209_1137)">
<path d="M14.3438 0.600098C7.34062 0.600098 1.6875 6.25322 1.6875 13.2563C1.6875 16.1251 2.61562 18.8251 4.3875 21.0188L2.61562 26.4188C2.53125 26.7563 2.61563 27.0938 2.86875 27.347C2.95313 27.5157 3.20625 27.6001 3.375 27.6001C3.45938 27.6001 3.62813 27.6001 3.7125 27.5157L9.53438 24.9001C11.0531 25.5751 12.6562 25.9126 14.3438 25.9126C21.3469 25.9126 27 20.2595 27 13.2563C27 6.25322 21.3469 0.600098 14.3438 0.600098Z" fill="#25D366"/>
<path d="M21.6844 17.897C21.3469 18.9095 20.0812 19.7532 18.9844 19.922C18.7312 20.0063 18.4781 20.0063 18.1406 20.0063C17.4656 20.0063 16.4531 19.8376 14.6812 19.0782C12.6562 18.2345 10.6312 16.4626 9.02812 14.1845V14.1001C8.52187 13.3407 7.59375 11.9063 7.59375 10.3876C7.59375 8.53135 8.52187 7.60322 8.85937 7.18135C9.28125 6.75947 9.87187 6.50635 10.5469 6.50635C10.7156 6.50635 10.8 6.50635 10.9687 6.50635C11.5594 6.50635 11.9812 6.6751 12.4031 7.51885L12.7406 8.19385C12.9938 8.86885 13.3312 9.62822 13.4156 9.7126C13.6687 10.2188 13.6687 10.6407 13.4156 11.0626C13.3312 11.3157 13.1625 11.4845 12.9937 11.6532C12.9094 11.822 12.825 11.9063 12.7406 11.9063C12.6562 11.9907 12.6562 11.9907 12.5719 12.0751C12.825 12.497 13.3312 13.2563 14.0062 13.847C15.0187 14.7751 15.7781 15.0282 16.2 15.197C16.3687 15.0282 16.5375 14.6907 16.7906 14.4376L16.875 14.2688C17.2969 13.6782 17.9719 13.5095 18.6469 13.7626C18.9844 13.9313 20.8406 14.7751 20.8406 14.7751L21.0094 14.8595C21.2625 15.0282 21.6 15.1126 21.7687 15.4501C22.1062 16.2095 21.8531 17.3063 21.6844 17.897Z" fill="white"/>
</g>
<defs>
<clipPath id="clip0_209_1137">
<rect width="27" height="27" fill="white" transform="translate(0 0.600098)"/>
</clipPath>
</defs>
</svg>
