<svg width="19" height="19" viewBox="0 0 19 19" fill="none" xmlns="http://www.w3.org/2000/svg">
<path fill-rule="evenodd" clip-rule="evenodd" d="M7.91634 3.16667H6.33301V4.75H3.95801C2.64633 4.75 1.58301 5.81333 1.58301 7.125V11.875C1.58301 13.1867 2.64633 14.25 3.95801 14.25H6.33301V15.8333H7.91634V3.16667ZM6.33301 6.33333V12.6667H3.95801C3.52079 12.6667 3.16634 12.3122 3.16634 11.875V7.125C3.16634 6.68778 3.52079 6.33333 3.95801 6.33333H6.33301Z" fill="#333333"/>
<path d="M15.0417 12.6667H9.5V14.25H15.0417C16.3534 14.25 17.4167 13.1867 17.4167 11.875V7.125C17.4167 5.81333 16.3534 4.75 15.0417 4.75H9.5V6.33333H15.0417C15.4789 6.33333 15.8333 6.68777 15.8333 7.125V11.875C15.8333 12.3122 15.4789 12.6667 15.0417 12.6667Z" fill="#333333"/>
</svg>
