<svg width="17" height="19" viewBox="0 0 17 19" fill="none" xmlns="http://www.w3.org/2000/svg">
<path d="M16.1528 4.73198L8.53091 0.206616C8.38841 0.121885 8.21124 0.121885 8.06874 0.202764L0.342893 4.53941C0.200392 4.62029 0.107959 4.77049 0.107959 4.9361L0.000120741 13.7981C-0.00373063 13.9637 0.0848509 14.1139 0.2235 14.1986L7.88388 18.7933C7.95705 18.8357 8.03793 18.8588 8.12266 18.8588C8.19969 18.8588 8.27672 18.8395 8.34989 18.801L16.0796 14.4644C16.2259 14.3835 16.3145 14.2295 16.3145 14.0638L16.38 5.13252C16.38 4.96691 16.2953 4.81286 16.1528 4.73198ZM7.72597 17.6225L0.92445 13.5439L1.02073 5.77185L7.72597 9.73106V17.6225ZM8.19584 8.93382L1.47134 4.96691L8.28827 1.13865L15.0051 5.12482L8.19584 8.93382ZM15.3902 13.7865L8.6503 17.5686V9.73491L15.448 5.9336L15.3902 13.7865Z" fill="url(#paint0_linear_1125_32913)"/>
<path d="M5.09497 11.6595C5.17199 11.6595 5.24902 11.6403 5.3222 11.6018C5.54558 11.4747 5.6226 11.1935 5.49936 10.974C5.37612 10.7506 5.09497 10.6736 4.87159 10.7968C4.64821 10.9201 4.57118 11.2012 4.69442 11.4246C4.77915 11.5748 4.93321 11.6595 5.09497 11.6595Z" fill="url(#paint1_linear_1125_32913)"/>
<path d="M3.55151 12.5306C3.62854 12.5306 3.70556 12.5114 3.77874 12.4729C4.00212 12.3496 4.07915 12.0646 3.9559 11.8451C3.83266 11.6217 3.54766 11.5447 3.32813 11.6679C3.10475 11.7912 3.02772 12.0762 3.15097 12.2957C3.23185 12.4459 3.38975 12.5306 3.55151 12.5306Z" fill="url(#paint2_linear_1125_32913)"/>
<path d="M6.64404 10.7943C6.72107 10.7943 6.79809 10.7751 6.87127 10.7365C7.09465 10.6133 7.17168 10.3283 7.04843 10.1088C6.92519 9.88539 6.64019 9.80836 6.42066 9.93161C6.19728 10.0548 6.12025 10.3399 6.2435 10.5594C6.32437 10.7096 6.48228 10.7943 6.64404 10.7943Z" fill="url(#paint3_linear_1125_32913)"/>
<path d="M2.00622 13.3978C2.08325 13.3978 2.16028 13.3786 2.23345 13.3401C2.45683 13.213 2.53386 12.9318 2.41061 12.7123C2.28352 12.4889 2.00237 12.4119 1.78284 12.5351C1.55946 12.6584 1.48243 12.9434 1.60568 13.1629C1.68656 13.3131 1.84446 13.3978 2.00622 13.3978Z" fill="url(#paint4_linear_1125_32913)"/>
<path d="M12.5241 12.5772C12.5973 12.6195 12.6781 12.6427 12.759 12.6427C12.9169 12.6427 13.071 12.5618 13.1557 12.4154C13.2867 12.1959 13.2135 11.9109 12.994 11.7838C12.7744 11.6529 12.4894 11.726 12.3585 11.9456C12.2314 12.1651 12.3046 12.4462 12.5241 12.5772Z" fill="url(#paint5_linear_1125_32913)"/>
<path d="M10.999 11.6729C11.0722 11.7153 11.1531 11.7384 11.234 11.7384C11.3919 11.7384 11.5459 11.6575 11.6306 11.5111C11.7616 11.2916 11.6884 11.0066 11.4689 10.8795C11.2494 10.7486 10.9644 10.8217 10.8373 11.0413C10.7102 11.2608 10.7795 11.5419 10.999 11.6729Z" fill="url(#paint6_linear_1125_32913)"/>
<path d="M9.47754 10.7666C9.55072 10.809 9.6316 10.8321 9.71248 10.8321C9.87038 10.8321 10.0244 10.7512 10.1092 10.6049C10.2401 10.3854 10.1669 10.1004 9.94741 9.97326C9.72788 9.84231 9.44288 9.91548 9.31578 10.135C9.18484 10.3545 9.25801 10.6357 9.47754 10.7666Z" fill="url(#paint7_linear_1125_32913)"/>
<path d="M14.0508 13.4834C14.124 13.5257 14.2048 13.5489 14.2857 13.5489C14.4436 13.5489 14.5977 13.468 14.6824 13.3216C14.8134 13.1021 14.7402 12.8171 14.5207 12.6861C14.3011 12.5552 14.0161 12.6284 13.889 12.8479C13.7581 13.0674 13.8313 13.3524 14.0508 13.4834Z" fill="url(#paint8_linear_1125_32913)"/>
<path d="M8.23768 5.46099C7.98349 5.45714 7.77166 5.66126 7.77166 5.9193C7.76781 6.17349 7.97193 6.38532 8.22612 6.38532C8.22612 6.38532 8.22997 6.38532 8.23382 6.38532C8.48801 6.38532 8.69214 6.1812 8.69599 5.92701C8.69599 5.67282 8.49187 5.46099 8.23768 5.46099Z" fill="url(#paint9_linear_1125_32913)"/>
<path d="M8.25794 3.68365C8.00375 3.6798 7.79192 3.88392 7.79192 4.13811C7.78807 4.3923 7.9922 4.60413 8.25024 4.60798H8.25409C8.50828 4.60798 8.7124 4.40385 8.71625 4.14966C8.7201 3.89932 8.51598 3.6875 8.25794 3.68365Z" fill="url(#paint10_linear_1125_32913)"/>
<path d="M8.26848 2.83649C8.26848 2.83649 8.27233 2.83649 8.27618 2.83649C8.53037 2.83649 8.7345 2.63237 8.73835 2.37818C8.7422 2.12399 8.53808 1.91216 8.28003 1.91216C8.02584 1.90831 7.81402 2.11243 7.81402 2.36662C7.81017 2.62467 8.01429 2.83264 8.26848 2.83649Z" fill="url(#paint11_linear_1125_32913)"/>
<path d="M8.21558 7.23248C7.96139 7.22862 7.74957 7.43275 7.74957 7.68694C7.74571 7.94113 7.94984 8.15295 8.20788 8.1568H8.21173C8.46592 8.1568 8.67004 7.95268 8.67389 7.69849C8.67389 7.4443 8.46977 7.23633 8.21558 7.23248Z" fill="url(#paint12_linear_1125_32913)"/>
<defs>
<linearGradient id="paint0_linear_1125_32913" x1="8.19" y1="0.142578" x2="8.19" y2="18.8588" gradientUnits="userSpaceOnUse">
<stop stop-color="#000AFF"/>
<stop offset="1" stop-color="#D274FF"/>
</linearGradient>
<linearGradient id="paint1_linear_1125_32913" x1="5.09689" y1="10.7383" x2="5.09689" y2="11.6595" gradientUnits="userSpaceOnUse">
<stop stop-color="#000AFF"/>
<stop offset="1" stop-color="#D274FF"/>
</linearGradient>
<linearGradient id="paint2_linear_1125_32913" x1="3.55343" y1="11.6094" x2="3.55343" y2="12.5306" gradientUnits="userSpaceOnUse">
<stop stop-color="#000AFF"/>
<stop offset="1" stop-color="#D274FF"/>
</linearGradient>
<linearGradient id="paint3_linear_1125_32913" x1="6.64596" y1="9.87305" x2="6.64596" y2="10.7943" gradientUnits="userSpaceOnUse">
<stop stop-color="#000AFF"/>
<stop offset="1" stop-color="#D274FF"/>
</linearGradient>
<linearGradient id="paint4_linear_1125_32913" x1="2.00815" y1="12.4766" x2="2.00815" y2="13.3978" gradientUnits="userSpaceOnUse">
<stop stop-color="#000AFF"/>
<stop offset="1" stop-color="#D274FF"/>
</linearGradient>
<linearGradient id="paint5_linear_1125_32913" x1="12.7585" y1="11.7188" x2="12.7585" y2="12.6427" gradientUnits="userSpaceOnUse">
<stop stop-color="#000AFF"/>
<stop offset="1" stop-color="#D274FF"/>
</linearGradient>
<linearGradient id="paint6_linear_1125_32913" x1="11.2348" y1="10.8145" x2="11.2348" y2="11.7384" gradientUnits="userSpaceOnUse">
<stop stop-color="#000AFF"/>
<stop offset="1" stop-color="#D274FF"/>
</linearGradient>
<linearGradient id="paint7_linear_1125_32913" x1="9.71248" y1="9.9082" x2="9.71248" y2="10.8321" gradientUnits="userSpaceOnUse">
<stop stop-color="#000AFF"/>
<stop offset="1" stop-color="#D274FF"/>
</linearGradient>
<linearGradient id="paint8_linear_1125_32913" x1="14.2857" y1="12.6211" x2="14.2857" y2="13.5489" gradientUnits="userSpaceOnUse">
<stop stop-color="#000AFF"/>
<stop offset="1" stop-color="#D274FF"/>
</linearGradient>
<linearGradient id="paint9_linear_1125_32913" x1="8.2338" y1="5.46094" x2="8.2338" y2="6.38532" gradientUnits="userSpaceOnUse">
<stop stop-color="#000AFF"/>
<stop offset="1" stop-color="#D274FF"/>
</linearGradient>
<linearGradient id="paint10_linear_1125_32913" x1="8.25409" y1="3.68359" x2="8.25409" y2="4.60798" gradientUnits="userSpaceOnUse">
<stop stop-color="#000AFF"/>
<stop offset="1" stop-color="#D274FF"/>
</linearGradient>
<linearGradient id="paint11_linear_1125_32913" x1="8.27618" y1="1.91211" x2="8.27618" y2="2.83649" gradientUnits="userSpaceOnUse">
<stop stop-color="#000AFF"/>
<stop offset="1" stop-color="#D274FF"/>
</linearGradient>
<linearGradient id="paint12_linear_1125_32913" x1="8.2117" y1="7.23242" x2="8.2117" y2="8.1568" gradientUnits="userSpaceOnUse">
<stop stop-color="#000AFF"/>
<stop offset="1" stop-color="#D274FF"/>
</linearGradient>
</defs>
</svg>
