<svg width="22" height="22" viewBox="0 0 22 22" fill="none" xmlns="http://www.w3.org/2000/svg">
<g clip-path="url(#clip0_844_65278)">
<path d="M19.9559 6.33974C19.9034 6.24046 19.8137 6.16597 19.7065 6.13255C19.5993 6.09913 19.4832 6.10947 19.3835 6.16133C19.2839 6.21319 19.2088 6.30236 19.1747 6.40936C19.1406 6.51637 19.1502 6.63253 19.2014 6.7325C20.1142 8.47495 20.445 10.464 20.1452 12.4081C19.8455 14.3522 18.9309 16.1492 17.5355 17.5357C13.9323 21.1385 8.06885 21.1397 4.46414 17.5353C4.40465 17.4758 4.32886 17.4353 4.24635 17.419C4.16384 17.4026 4.07832 17.411 4.00061 17.4432C3.92291 17.4755 3.85651 17.53 3.80981 17.6C3.76311 17.6699 3.73822 17.7522 3.73828 17.8363V20.2812C3.73828 20.394 3.78308 20.5022 3.86283 20.5819C3.94258 20.6617 4.05074 20.7065 4.16352 20.7065C4.2763 20.7065 4.38446 20.6617 4.46421 20.5819C4.54396 20.5022 4.58876 20.394 4.58876 20.2812V18.7967C6.38606 20.2739 8.63838 21.085 10.9648 21.0928C13.2913 21.1007 15.549 20.3048 17.3563 18.8398C19.1635 17.3749 20.4093 15.3306 20.883 13.0529C21.3567 10.7752 21.0292 8.4038 19.9559 6.33974Z" fill="#645DF6"/>
<path d="M4.46327 4.4652C8.06761 0.861238 13.9311 0.861616 17.5347 4.46482C17.5941 4.52439 17.6698 4.56497 17.7524 4.58144C17.8349 4.5979 17.9204 4.58951 17.9981 4.55731C18.0759 4.52512 18.1423 4.47058 18.189 4.4006C18.2357 4.33061 18.2606 4.24834 18.2605 4.16421V1.71929C18.2605 1.6065 18.2157 1.49834 18.136 1.41859C18.0562 1.33885 17.9481 1.29404 17.8353 1.29404C17.7225 1.29404 17.6143 1.33885 17.5346 1.41859C17.4548 1.49834 17.41 1.6065 17.41 1.71929V3.20386C13.4492 -0.0575972 7.56382 0.161822 3.86204 3.86359C2.33817 5.3776 1.33935 7.33994 1.01197 9.46296C0.684597 11.586 1.04588 13.758 2.04288 15.6608C2.09539 15.7601 2.18505 15.8345 2.29228 15.868C2.39951 15.9014 2.51561 15.8911 2.61523 15.8392C2.71486 15.7873 2.78993 15.6982 2.82406 15.5912C2.85819 15.4842 2.84861 15.368 2.79741 15.268C1.88454 13.5256 1.55375 11.5367 1.85354 9.59262C2.15332 7.64856 3.06791 5.85164 4.46327 4.4652Z" fill="#645DF6"/>
<path d="M5.42969 10.9395V15.642C5.43059 15.9494 5.55312 16.2439 5.77049 16.4613C5.98787 16.6787 6.28243 16.8012 6.58984 16.8021H15.407C15.7144 16.8012 16.009 16.6787 16.2263 16.4613C16.4437 16.244 16.5662 15.9494 16.5671 15.642V10.9395C16.5662 10.632 16.4437 10.3375 16.2263 10.1201C16.009 9.90269 15.7144 9.78018 15.407 9.7793H6.58984C6.28243 9.78021 5.98787 9.90273 5.7705 10.1201C5.55312 10.3375 5.4306 10.632 5.42969 10.9395ZM14.0921 12.3821C14.2719 12.3821 14.4475 12.4354 14.597 12.5352C14.7464 12.6351 14.8628 12.777 14.9316 12.943C15.0004 13.1091 15.0184 13.2918 14.9833 13.468C14.9483 13.6443 14.8617 13.8062 14.7347 13.9333C14.6076 14.0603 14.4457 14.1469 14.2694 14.1819C14.0932 14.217 13.9105 14.199 13.7444 14.1302C13.5784 14.0614 13.4365 13.945 13.3366 13.7956C13.2368 13.6461 13.1835 13.4705 13.1835 13.2907C13.1837 13.0498 13.2795 12.8188 13.4499 12.6485C13.6203 12.4781 13.8512 12.3823 14.0921 12.3821ZM10.9984 12.3821C11.1781 12.3821 11.3538 12.4354 11.5032 12.5352C11.6526 12.6351 11.7691 12.777 11.8379 12.943C11.9066 13.1091 11.9246 13.2918 11.8896 13.468C11.8545 13.6443 11.768 13.8062 11.6409 13.9333C11.5138 14.0603 11.3519 14.1469 11.1757 14.1819C10.9994 14.217 10.8167 14.199 10.6507 14.1302C10.4846 14.0614 10.3427 13.945 10.2429 13.7956C10.143 13.6461 10.0898 13.4705 10.0898 13.2907C10.09 13.0498 10.1858 12.8188 10.3561 12.6485C10.5265 12.4781 10.7575 12.3823 10.9984 12.3821ZM7.90465 12.3821C8.08436 12.3821 8.26004 12.4354 8.40946 12.5352C8.55889 12.6351 8.67535 12.777 8.74412 12.943C8.81289 13.1091 8.83089 13.2918 8.79583 13.468C8.76077 13.6443 8.67423 13.8062 8.54715 13.9333C8.42008 14.0603 8.25817 14.1469 8.08191 14.1819C7.90565 14.217 7.72296 14.199 7.55692 14.1302C7.39089 14.0614 7.24898 13.945 7.14914 13.7956C7.0493 13.6461 6.99601 13.4705 6.99601 13.2907C6.99624 13.0498 7.09205 12.8188 7.2624 12.6485C7.43275 12.4781 7.66373 12.3823 7.90465 12.3821Z" fill="#645DF6"/>
<path d="M14.7671 8.92856V7.38159C14.7671 6.38269 14.3703 5.4247 13.6639 4.71837C12.9576 4.01205 11.9996 3.61523 11.0007 3.61523C10.0018 3.61523 9.04384 4.01205 8.33751 4.71837C7.63119 5.4247 7.23438 6.38269 7.23438 7.38159V8.92856H8.08487V7.38159C8.08487 6.60825 8.39208 5.86658 8.93891 5.31975C9.48574 4.77292 10.2274 4.46571 11.0007 4.46571C11.7741 4.46571 12.5157 4.77292 13.0626 5.31975C13.6094 5.86658 13.9166 6.60825 13.9166 7.38159V8.92856H14.7671Z" fill="#645DF6"/>
</g>
<defs>
<clipPath id="clip0_844_65278">
<rect width="22" height="22" fill="white"/>
</clipPath>
</defs>
</svg>
