<svg width="27" height="28" viewBox="0 0 27 28" fill="none" xmlns="http://www.w3.org/2000/svg">
<g clip-path="url(#clip0_209_1412)">
<path d="M27 21.5409C27 24.8896 24.2842 27.6001 20.9408 27.6001H6.05918C2.71582 27.6001 0 24.8843 0 21.5409V6.65928C0 3.31592 2.71582 0.600098 6.05918 0.600098H20.9408C24.2842 0.600098 27 3.31592 27 6.65928V21.5409Z" fill="#5EBEE1"/>
<path d="M20.2025 7.67163L6.13301 13.1507C5.67949 13.33 5.70586 13.9839 6.1752 14.121L9.75059 15.1757L11.0848 19.4103C11.2219 19.8533 11.7861 19.9851 12.1078 19.6529L13.9588 17.765L17.5869 20.4281C18.0299 20.755 18.6627 20.5125 18.7734 19.9746L21.1729 8.48901C21.2941 7.93003 20.7404 7.46069 20.2025 7.67163ZM18.4412 10.2187L11.9074 15.9984C11.8441 16.0564 11.802 16.1355 11.7914 16.2199L11.5383 18.4558C11.5277 18.5296 11.4275 18.5402 11.4064 18.4664L10.3729 15.1283C10.3254 14.9753 10.3887 14.8119 10.5258 14.7275L18.2408 9.93921C18.4148 9.83901 18.5994 10.0816 18.4412 10.2187Z" fill="white"/>
</g>
<defs>
<clipPath id="clip0_209_1412">
<rect width="27" height="27" fill="white" transform="translate(0 0.600098)"/>
</clipPath>
</defs>
</svg>
