<svg width="228" height="39" viewBox="0 0 228 39" fill="none" xmlns="http://www.w3.org/2000/svg">
<rect x="0.5" y="0.5" width="227" height="38" rx="4.5" fill="white"/>
<path d="M18.072 15.136V16.024H15.792V23.5H14.7V16.024H12.408V15.136H18.072ZM25.0802 16.924L21.1202 26.596H19.9922L21.2882 23.428L18.6362 16.924H19.8482L21.9122 22.252L23.9522 16.924H25.0802ZM27.2699 18.136C27.4859 17.76 27.8059 17.448 28.2299 17.2C28.6619 16.944 29.1619 16.816 29.7299 16.816C30.3139 16.816 30.8419 16.956 31.3139 17.236C31.7939 17.516 32.1699 17.912 32.4419 18.424C32.7139 18.928 32.8499 19.516 32.8499 20.188C32.8499 20.852 32.7139 21.444 32.4419 21.964C32.1699 22.484 31.7939 22.888 31.3139 23.176C30.8419 23.464 30.3139 23.608 29.7299 23.608C29.1699 23.608 28.6739 23.484 28.2419 23.236C27.8179 22.98 27.4939 22.664 27.2699 22.288V26.62H26.1779V16.924H27.2699V18.136ZM31.7339 20.188C31.7339 19.692 31.6339 19.26 31.4339 18.892C31.2339 18.524 30.9619 18.244 30.6179 18.052C30.2819 17.86 29.9099 17.764 29.5019 17.764C29.1019 17.764 28.7299 17.864 28.3859 18.064C28.0499 18.256 27.7779 18.54 27.5699 18.916C27.3699 19.284 27.2699 19.712 27.2699 20.2C27.2699 20.696 27.3699 21.132 27.5699 21.508C27.7779 21.876 28.0499 22.16 28.3859 22.36C28.7299 22.552 29.1019 22.648 29.5019 22.648C29.9099 22.648 30.2819 22.552 30.6179 22.36C30.9619 22.16 31.2339 21.876 31.4339 21.508C31.6339 21.132 31.7339 20.692 31.7339 20.188ZM40.2873 19.96C40.2873 20.168 40.2753 20.388 40.2513 20.62H34.9953C35.0353 21.268 35.2553 21.776 35.6553 22.144C36.0633 22.504 36.5553 22.684 37.1313 22.684C37.6033 22.684 37.9953 22.576 38.3073 22.36C38.6273 22.136 38.8513 21.84 38.9793 21.472H40.1553C39.9793 22.104 39.6273 22.62 39.0993 23.02C38.5713 23.412 37.9153 23.608 37.1313 23.608C36.5073 23.608 35.9473 23.468 35.4513 23.188C34.9633 22.908 34.5793 22.512 34.2993 22C34.0193 21.48 33.8793 20.88 33.8793 20.2C33.8793 19.52 34.0153 18.924 34.2873 18.412C34.5593 17.9 34.9393 17.508 35.4273 17.236C35.9233 16.956 36.4913 16.816 37.1313 16.816C37.7553 16.816 38.3073 16.952 38.7873 17.224C39.2673 17.496 39.6353 17.872 39.8913 18.352C40.1553 18.824 40.2873 19.36 40.2873 19.96ZM39.1593 19.732C39.1593 19.316 39.0673 18.96 38.8833 18.664C38.6993 18.36 38.4473 18.132 38.1273 17.98C37.8153 17.82 37.4673 17.74 37.0833 17.74C36.5313 17.74 36.0593 17.916 35.6673 18.268C35.2833 18.62 35.0633 19.108 35.0073 19.732H39.1593Z" fill="#7A7A7A"/>
<path d="M182 19.0632L175.381 25.3056C174.57 26.0704 173.47 26.5 172.324 26.5C171.177 26.5 170.077 26.0704 169.266 25.3056C168.456 24.5409 168 23.5037 168 22.4221C168 21.3407 168.456 20.3034 169.266 19.5387L175.885 13.2962C176.426 12.7864 177.159 12.5 177.924 12.5C178.688 12.5 179.421 12.7864 179.962 13.2962C180.502 13.8061 180.806 14.4976 180.806 15.2186C180.806 15.9396 180.502 16.6311 179.962 17.1409L173.336 23.3833C173.065 23.6382 172.699 23.7814 172.317 23.7814C171.934 23.7814 171.568 23.6382 171.297 23.3833C171.027 23.1284 170.875 22.7827 170.875 22.4221C170.875 22.0617 171.027 21.7159 171.297 21.461L177.412 15.7008" stroke="#555555" stroke-width="1.5" stroke-linecap="round" stroke-linejoin="round"/>
<path d="M210.719 19.0627L200.162 13.1502C200.074 13.1011 199.972 13.0802 199.871 13.0904C199.77 13.1006 199.674 13.1413 199.597 13.2071C199.519 13.2729 199.464 13.3608 199.438 13.4589C199.411 13.557 199.416 13.6608 199.45 13.7565L201.437 19.3315C201.481 19.4397 201.481 19.5607 201.437 19.669L199.45 25.244C199.416 25.3396 199.411 25.4434 199.438 25.5416C199.464 25.6397 199.519 25.7276 199.597 25.7934C199.674 25.8592 199.77 25.8999 199.871 25.9101C199.972 25.9202 200.074 25.8994 200.162 25.8502L210.719 19.9377C210.797 19.8945 210.862 19.8311 210.907 19.7542C210.953 19.6772 210.977 19.5896 210.977 19.5002C210.977 19.4109 210.953 19.3232 210.907 19.2463C210.862 19.1694 210.797 19.106 210.719 19.0627V19.0627Z" stroke="#555555" stroke-width="1.5" stroke-linecap="round" stroke-linejoin="round"/>
<path d="M201.5 19.5H205.5" stroke="#555555" stroke-width="1.5" stroke-linecap="round" stroke-linejoin="round"/>
<rect x="0.5" y="0.5" width="227" height="38" rx="4.5" stroke="#AFB5BF"/>
</svg>
