<svg width="30" height="26" viewBox="0 0 30 26" fill="none" xmlns="http://www.w3.org/2000/svg">
<rect x="9" width="21" height="21" rx="10.5" fill="#C8EEDC"/>
<g clip-path="url(#clip0_367_5482)">
<path d="M10.5 5.5332C4.9957 5.5332 0.533203 9.9957 0.533203 15.5C0.533203 17.5139 1.13203 19.3924 2.16152 20.9592L0.877734 25.3068L5.39355 24.0559C6.88652 24.95 8.63379 25.4627 10.5 25.4627C16.0043 25.4627 20.4668 21.0002 20.4668 15.4959C20.4668 9.9957 16.0043 5.5332 10.5 5.5332Z" fill="#10B34C"/>
<path d="M15.9755 18.2357C15.9632 18.1045 15.8853 17.9896 15.7664 17.9363C14.9625 17.5672 14.1545 17.198 13.3505 16.8289C13.2603 16.7879 13.1496 16.8084 13.0839 16.8863L11.9929 18.1168C11.9068 18.2152 11.7714 18.248 11.6525 18.1988C11.0865 17.965 10.3236 17.5713 9.5525 16.9068C8.62965 16.1152 8.08824 15.2662 7.78473 14.7125C7.93648 14.6099 8.35074 14.3023 8.53531 13.7322C8.53531 13.7281 8.53941 13.724 8.53941 13.724C8.65426 13.3713 8.62965 12.9898 8.5025 12.6412C8.28512 12.0629 7.85035 10.9431 7.68219 10.7709C7.65348 10.7422 7.62066 10.7135 7.62066 10.7135C7.49762 10.6027 7.33766 10.5412 7.16949 10.533C7.11207 10.5289 7.05055 10.5289 6.98492 10.5289C6.79625 10.5248 6.62809 10.5248 6.50504 10.5412C6.15641 10.5904 5.90211 10.8242 5.74215 11.0211C5.54938 11.2549 5.31969 11.6035 5.16793 12.0629C5.15563 12.1039 5.14332 12.1408 5.13102 12.1818C4.96285 12.7642 4.99566 13.3877 5.19664 13.9619C5.38531 14.4992 5.66012 15.139 6.07438 15.8158C6.77574 16.9683 7.53863 17.682 8.05543 18.1537C8.63785 18.691 9.35973 19.3514 10.5041 19.901C11.5623 20.4096 12.522 20.5982 13.166 20.6762C13.4285 20.7008 13.9125 20.7049 14.4662 20.4957C14.7205 20.3972 14.9338 20.2783 15.106 20.1512C15.5613 19.8271 15.8812 19.339 15.9632 18.7894C15.9632 18.7853 15.9632 18.7812 15.9632 18.7771C15.992 18.568 15.9879 18.3875 15.9755 18.2357Z" fill="white"/>
</g>
<defs>
<clipPath id="clip0_367_5482">
<rect width="21" height="21" fill="white" transform="translate(0 5)"/>
</clipPath>
</defs>
</svg>
