<svg width="21" height="21" viewBox="0 0 21 21" fill="none" xmlns="http://www.w3.org/2000/svg">
<path fill-rule="evenodd" clip-rule="evenodd" d="M10.5 3.28125C6.51321 3.28125 3.28127 6.51319 3.28127 10.5C3.28127 11.9215 3.69149 13.2452 4.39976 14.3616C4.50546 14.5282 4.5306 14.7335 4.46821 14.9207L3.66264 17.3373L6.07934 16.5318C6.26652 16.4694 6.47184 16.4945 6.63844 16.6002C7.75477 17.3086 9.07847 17.7188 10.5 17.7188C11.6537 17.7188 12.7424 17.4486 13.7079 16.9687C14.0325 16.8074 14.4264 16.9398 14.5877 17.2644C14.749 17.5889 14.6166 17.9828 14.2921 18.1441C13.149 18.7121 11.8608 19.0312 10.5 19.0312C8.93533 19.0312 7.46748 18.6095 6.20577 17.8732L2.83254 18.9976C2.59673 19.0761 2.33674 19.0148 2.16098 18.839C1.98522 18.6633 1.92384 18.4033 2.00245 18.1674L3.12686 14.7942C2.39056 13.5326 1.96877 12.0647 1.96877 10.5C1.96877 5.78832 5.78834 1.96875 10.5 1.96875C15.2117 1.96875 19.0312 5.78832 19.0312 10.5C19.0312 11.8608 18.7121 13.149 18.1441 14.2921C17.9828 14.6166 17.589 14.749 17.2644 14.5877C16.9398 14.4264 16.8074 14.0325 16.9688 13.7079C17.4486 12.7424 17.7188 11.6537 17.7188 10.5C17.7188 6.51319 14.4868 3.28125 10.5 3.28125Z" fill="#4B6182"/>
<path fill-rule="evenodd" clip-rule="evenodd" d="M5.63931 9.19816C5.86004 8.37129 6.295 7.5897 6.94235 6.94235C7.58969 6.295 8.37129 5.86005 9.19816 5.63931C9.54834 5.54583 9.90805 5.75392 10.0015 6.10409C10.0949 6.45427 9.88687 6.81392 9.5367 6.9074C8.92682 7.07021 8.35024 7.39061 7.87043 7.87043C7.39061 8.35024 7.07021 8.92682 6.9074 9.53669C6.81392 9.88687 6.45427 10.0949 6.10409 10.0015C5.75392 9.90804 5.54583 9.54833 5.63931 9.19816ZM10.9985 6.10409C11.0919 5.75392 11.4516 5.54583 11.8018 5.63931C12.6287 5.86005 13.4102 6.295 14.0576 6.94235C14.705 7.5897 15.1399 8.37129 15.3606 9.19816C15.4541 9.54833 15.2461 9.90804 14.8959 10.0015C14.5457 10.0949 14.186 9.88687 14.0926 9.53669C13.9297 8.92682 13.6094 8.35024 13.1295 7.87043C12.6497 7.39061 12.0731 7.07021 11.4633 6.9074C11.1131 6.81392 10.905 6.45427 10.9985 6.10409ZM6.10409 10.9985C6.45427 10.905 6.81392 11.1131 6.9074 11.4633C7.07021 12.0731 7.39061 12.6497 7.87043 13.1295C8.35024 13.6094 8.92682 13.9297 9.5367 14.0926C9.88687 14.186 10.0949 14.5457 10.0015 14.8959C9.90805 15.2461 9.54834 15.4541 9.19816 15.3607C8.37129 15.1399 7.58969 14.705 6.94235 14.0576C6.295 13.4102 5.86004 12.6287 5.63931 11.8018C5.54583 11.4516 5.75392 11.0919 6.10409 10.9985ZM10.9985 14.8959C10.905 14.5457 11.1131 14.186 11.4633 14.0926C12.0731 13.9297 12.6497 13.6094 13.1295 13.1295C13.6094 12.6497 13.9297 12.0731 14.0926 11.4633C14.186 11.1131 14.5457 10.905 14.8959 10.9985C15.2461 11.0919 15.4541 11.4516 15.3606 11.8018C15.1399 12.6287 14.705 13.4102 14.0576 14.0576C13.4102 14.705 12.6287 15.1399 11.8018 15.3607C11.4516 15.4541 11.0919 15.2461 10.9985 14.8959Z" fill="#4B6182"/>
</svg>
