<svg width="16" height="17" viewBox="0 0 16 17" fill="none" xmlns="http://www.w3.org/2000/svg">
<path d="M4.475 9.5L2 11.5V3.5C2 3.36739 2.05268 3.24021 2.14645 3.14645C2.24021 3.05268 2.36739 3 2.5 3H10.5C10.6326 3 10.7598 3.05268 10.8536 3.14645C10.9473 3.24021 11 3.36739 11 3.5V9C11 9.13261 10.9473 9.25979 10.8536 9.35355C10.7598 9.44732 10.6326 9.5 10.5 9.5H4.475Z" stroke="#333333" stroke-linecap="round" stroke-linejoin="round"/>
<path d="M5 9.5V12C5 12.1326 5.05268 12.2598 5.14645 12.3536C5.24021 12.4473 5.36739 12.5 5.5 12.5H11.525L14 14.5V6.5C14 6.36739 13.9473 6.24021 13.8536 6.14645C13.7598 6.05268 13.6326 6 13.5 6H11" stroke="#333333" stroke-linecap="round" stroke-linejoin="round"/>
</svg>
