<svg width="18" height="18" viewBox="0 0 18 18" fill="none" xmlns="http://www.w3.org/2000/svg">
<g clip-path="url(#clip0_314_2516)">
<path d="M14.625 7.3125C14.625 7.16332 14.5657 7.02024 14.4602 6.91475C14.3548 6.80926 14.2117 6.75 14.0625 6.75H8.4375C8.28832 6.75 8.14524 6.80926 8.03975 6.91475C7.93426 7.02024 7.875 7.16332 7.875 7.3125C7.875 7.46168 7.93426 7.60476 8.03975 7.71025C8.14524 7.81574 8.28832 7.875 8.4375 7.875H14.0625C14.2117 7.875 14.3548 7.81574 14.4602 7.71025C14.5657 7.60476 14.625 7.46168 14.625 7.3125ZM14.625 10.6875C14.625 10.5383 14.5657 10.3952 14.4602 10.2898C14.3548 10.1843 14.2117 10.125 14.0625 10.125H8.4375C8.28832 10.125 8.14524 10.1843 8.03975 10.2898C7.93426 10.3952 7.875 10.5383 7.875 10.6875C7.875 10.8367 7.93426 10.9798 8.03975 11.0852C8.14524 11.1907 8.28832 11.25 8.4375 11.25H14.0625C14.2117 11.25 14.3548 11.1907 14.4602 11.0852C14.5657 10.9798 14.625 10.8367 14.625 10.6875ZM14.0625 13.5C14.2117 13.5 14.3548 13.5593 14.4602 13.6648C14.5657 13.7702 14.625 13.9133 14.625 14.0625C14.625 14.2117 14.5657 14.3548 14.4602 14.4602C14.3548 14.5657 14.2117 14.625 14.0625 14.625H8.4375C8.28832 14.625 8.14524 14.5657 8.03975 14.4602C7.93426 14.3548 7.875 14.2117 7.875 14.0625C7.875 13.9133 7.93426 13.7702 8.03975 13.6648C8.14524 13.5593 8.28832 13.5 8.4375 13.5H14.0625Z" fill="#333333"/>
<path d="M15.75 0C16.3467 0 16.919 0.237053 17.341 0.65901C17.7629 1.08097 18 1.65326 18 2.25V15.75C18 16.3467 17.7629 16.919 17.341 17.341C16.919 17.7629 16.3467 18 15.75 18H2.25C1.65326 18 1.08097 17.7629 0.65901 17.341C0.237053 16.919 0 16.3467 0 15.75V2.25C0 1.65326 0.237053 1.08097 0.65901 0.65901C1.08097 0.237053 1.65326 0 2.25 0L15.75 0ZM2.25 1.125C1.95163 1.125 1.66548 1.24353 1.4545 1.4545C1.24353 1.66548 1.125 1.95163 1.125 2.25V3.375H16.875V2.25C16.875 1.95163 16.7565 1.66548 16.5455 1.4545C16.3345 1.24353 16.0484 1.125 15.75 1.125H2.25ZM1.125 4.5V15.75C1.125 16.0484 1.24353 16.3345 1.4545 16.5455C1.66548 16.7565 1.95163 16.875 2.25 16.875H4.5V4.5H1.125ZM5.625 4.5V16.875H15.75C16.0484 16.875 16.3345 16.7565 16.5455 16.5455C16.7565 16.3345 16.875 16.0484 16.875 15.75V4.5H5.625Z" fill="#333333"/>
</g>
<defs>
<clipPath id="clip0_314_2516">
<rect width="18" height="18" fill="white"/>
</clipPath>
</defs>
</svg>
