<svg width="39" height="36" viewBox="0 0 39 36" fill="none" xmlns="http://www.w3.org/2000/svg">
<rect x="21.1765" y="2.11768" width="16.9412" height="16.9412" rx="8.47059" fill="#F6DDEF"/>
<path d="M21.0516 27.5484L18.9703 31.0219C18.8684 31.1876 18.7257 31.3245 18.5558 31.4195C18.386 31.5145 18.1946 31.5643 18 31.5643C17.8054 31.5643 17.614 31.5145 17.4442 31.4195C17.2743 31.3245 17.1316 31.1876 17.0297 31.0219L14.9484 27.5484C14.8505 27.3817 14.7108 27.2434 14.5431 27.1472C14.3754 27.0511 14.1855 27.0003 13.9922 27H5.625C5.32663 27 5.04048 26.8815 4.82951 26.6705C4.61853 26.4595 4.5 26.1734 4.5 25.875V7.875C4.5 7.57663 4.61853 7.29048 4.82951 7.07951C5.04048 6.86853 5.32663 6.75 5.625 6.75H30.375C30.6734 6.75 30.9595 6.86853 31.1705 7.07951C31.3815 7.29048 31.5 7.57663 31.5 7.875V25.875C31.5 26.1734 31.3815 26.4595 31.1705 26.6705C30.9595 26.8815 30.6734 27 30.375 27H22.0078C21.8145 27.0003 21.6246 27.0511 21.4569 27.1472C21.2892 27.2434 21.1495 27.3817 21.0516 27.5484V27.5484Z" stroke="url(#paint0_linear_305_26922)" stroke-width="1.5" stroke-linecap="round" stroke-linejoin="round"/>
<path d="M18 18.2812C18.7767 18.2812 19.4062 17.6517 19.4062 16.875C19.4062 16.0983 18.7767 15.4688 18 15.4688C17.2233 15.4688 16.5938 16.0983 16.5938 16.875C16.5938 17.6517 17.2233 18.2812 18 18.2812Z" fill="url(#paint1_linear_305_26922)"/>
<path d="M24.75 18.2812C25.5267 18.2812 26.1562 17.6517 26.1562 16.875C26.1562 16.0983 25.5267 15.4688 24.75 15.4688C23.9733 15.4688 23.3438 16.0983 23.3438 16.875C23.3438 17.6517 23.9733 18.2812 24.75 18.2812Z" fill="url(#paint2_linear_305_26922)"/>
<path d="M11.25 18.2812C12.0267 18.2812 12.6562 17.6517 12.6562 16.875C12.6562 16.0983 12.0267 15.4688 11.25 15.4688C10.4733 15.4688 9.84375 16.0983 9.84375 16.875C9.84375 17.6517 10.4733 18.2812 11.25 18.2812Z" fill="url(#paint3_linear_305_26922)"/>
<defs>
<linearGradient id="paint0_linear_305_26922" x1="18" y1="6.75" x2="18" y2="31.5643" gradientUnits="userSpaceOnUse">
<stop stop-color="#000AFF"/>
<stop offset="1" stop-color="#D274FF"/>
</linearGradient>
<linearGradient id="paint1_linear_305_26922" x1="18" y1="15.4688" x2="18" y2="18.2812" gradientUnits="userSpaceOnUse">
<stop stop-color="#000AFF"/>
<stop offset="1" stop-color="#D274FF"/>
</linearGradient>
<linearGradient id="paint2_linear_305_26922" x1="24.75" y1="15.4688" x2="24.75" y2="18.2812" gradientUnits="userSpaceOnUse">
<stop stop-color="#000AFF"/>
<stop offset="1" stop-color="#D274FF"/>
</linearGradient>
<linearGradient id="paint3_linear_305_26922" x1="11.25" y1="15.4688" x2="11.25" y2="18.2812" gradientUnits="userSpaceOnUse">
<stop stop-color="#000AFF"/>
<stop offset="1" stop-color="#D274FF"/>
</linearGradient>
</defs>
</svg>
