<svg width="17" height="17" viewBox="0 0 17 17" fill="none" xmlns="http://www.w3.org/2000/svg">
<path d="M5.38691 13.0466L3.39971 14.7077C3.328 14.7671 3.24094 14.8048 3.14863 14.8167C3.05631 14.8286 2.96253 14.814 2.87816 14.7747C2.79378 14.7354 2.72228 14.673 2.67194 14.5947C2.6216 14.5164 2.59449 14.4255 2.59375 14.3324V4.5625C2.59375 4.43196 2.64561 4.30677 2.73791 4.21447C2.83021 4.12217 2.9554 4.07031 3.08594 4.07031H13.9141C14.0446 4.07031 14.1698 4.12217 14.2621 4.21447C14.3544 4.30677 14.4062 4.43196 14.4062 4.5625V12.4375C14.4062 12.568 14.3544 12.6932 14.2621 12.7855C14.1698 12.8778 14.0446 12.9297 13.9141 12.9297H5.70068C5.58545 12.9297 5.47408 12.9712 5.38691 13.0466V13.0466Z" stroke="#6174A4" stroke-width="1.2" stroke-linecap="round" stroke-linejoin="round"/>
<path d="M8.51523 8.5C8.51523 8.50321 8.5147 8.50476 8.51428 8.50575C8.5137 8.50713 8.51259 8.50896 8.51077 8.51077C8.50896 8.51259 8.50713 8.5137 8.50575 8.51428C8.50476 8.5147 8.50321 8.51523 8.5 8.51523C8.49679 8.51523 8.49524 8.5147 8.49425 8.51428C8.49287 8.5137 8.49104 8.51259 8.48923 8.51077C8.48741 8.50896 8.4863 8.50713 8.48572 8.50575C8.4853 8.50476 8.48477 8.50321 8.48477 8.5C8.48477 8.49679 8.4853 8.49524 8.48572 8.49425C8.4863 8.49287 8.48741 8.49104 8.48923 8.48923C8.49104 8.48741 8.49287 8.4863 8.49425 8.48572C8.49524 8.4853 8.49679 8.48477 8.5 8.48477C8.50321 8.48477 8.50476 8.4853 8.50575 8.48572C8.50713 8.4863 8.50896 8.48741 8.51077 8.48923C8.51259 8.49104 8.5137 8.49287 8.51428 8.49425C8.5147 8.49524 8.51523 8.49679 8.51523 8.5Z" fill="#6174A4" stroke="#6174A4" stroke-width="1.2"/>
<path d="M11.4531 9.11523C11.7929 9.11523 12.0684 8.83978 12.0684 8.5C12.0684 8.16022 11.7929 7.88477 11.4531 7.88477C11.1133 7.88477 10.8379 8.16022 10.8379 8.5C10.8379 8.83978 11.1133 9.11523 11.4531 9.11523Z" fill="#6174A4"/>
<path d="M5.54688 9.11523C5.88666 9.11523 6.16211 8.83978 6.16211 8.5C6.16211 8.16022 5.88666 7.88477 5.54688 7.88477C5.20709 7.88477 4.93164 8.16022 4.93164 8.5C4.93164 8.83978 5.20709 9.11523 5.54688 9.11523Z" fill="#6174A4"/>
</svg>
