<svg width="33" height="33" viewBox="0 0 33 33" fill="none" xmlns="http://www.w3.org/2000/svg">
<circle cx="22" cy="11" r="11" fill="#F6DDEF"/>
<g clip-path="url(#clip0_134_3784)">
<path d="M15.1405 16.6327C13.8158 16.6327 12.738 17.7104 12.738 19.035C12.738 20.3597 13.8158 21.4374 15.1405 21.4374C16.4652 21.4374 17.5428 20.3597 17.5428 19.035C17.5428 17.7104 16.4652 16.6327 15.1405 16.6327ZM15.1405 20.1745C14.5121 20.1745 14.0009 19.6633 14.0009 19.035C14.0009 18.4067 14.5121 17.8954 15.1405 17.8954C15.7689 17.8954 16.28 18.4067 16.28 19.035C16.28 19.6634 15.7689 20.1745 15.1405 20.1745ZM21.3358 20.2967L20.52 19.7056C20.5474 19.4836 20.5611 19.2595 20.5611 19.0355C20.5611 18.8148 20.5478 18.5942 20.5213 18.3759L21.3373 17.7846C21.5459 17.6487 21.8304 17.3285 21.6942 16.6224C21.6288 16.2845 21.4726 15.8899 21.2541 15.5115C20.6487 14.4626 19.9151 14.0037 19.3292 14.3017L18.4108 14.7121C18.0531 14.4407 17.6662 14.2166 17.2541 14.0424L17.1509 13.0481C17.1197 12.3892 16.3554 11.9818 15.1405 11.9818C13.9292 11.9818 13.1647 12.388 13.1303 13.0448L13.0267 14.0425C12.6146 14.2167 12.2277 14.4409 11.8702 14.7122L10.9537 14.3028C10.7317 14.1902 10.3121 14.104 9.76898 14.5749C9.50891 14.8004 9.24534 15.1331 9.02694 15.5115C8.42149 16.56 8.39056 17.4248 8.94128 17.7833L9.75972 18.3762C9.73313 18.5948 9.7198 18.8154 9.7198 19.0356C9.7198 19.2595 9.73355 19.4835 9.76098 19.7055L8.94219 20.2987C8.39063 20.6568 8.42114 21.522 9.02687 22.571C9.24534 22.9495 9.50891 23.2821 9.76898 23.5076C10.3123 23.9786 10.7319 23.8923 10.9537 23.7796L11.8795 23.366C12.2343 23.634 12.6176 23.8556 13.0256 24.0282L13.1302 25.0375C13.1644 25.6945 13.929 26.1007 15.1405 26.1007C16.3554 26.1007 17.1196 25.6934 17.1509 25.0344L17.2552 24.0282C17.6632 23.8556 18.0466 23.634 18.4013 23.3661L19.3291 23.7807C19.9151 24.079 20.6486 23.6197 21.254 22.571C21.8615 21.5188 21.891 20.6533 21.3358 20.2967ZM19.2176 18.216C19.2712 18.4836 19.2983 18.7593 19.2983 19.0355C19.2983 19.3141 19.2705 19.5929 19.2158 19.8641C19.1669 20.1065 19.2641 20.3552 19.4643 20.5002L20.455 21.2179C20.4261 21.3658 20.3418 21.6252 20.1603 21.9396C19.9788 22.2539 19.7963 22.4566 19.6826 22.5555L18.5616 22.0545C18.3359 21.9536 18.0721 21.9937 17.8867 22.1571C17.4686 22.5253 16.9907 22.8014 16.4661 22.9777C16.2317 23.0566 16.0648 23.265 16.0393 23.5111L15.9125 24.7323C15.77 24.7811 15.5033 24.8378 15.1404 24.8378C14.7773 24.8378 14.5105 24.7811 14.3681 24.7322L14.2414 23.5111C14.2159 23.2651 14.0491 23.0566 13.8146 22.9777C13.2901 22.8014 12.8122 22.5253 12.3939 22.1571C12.2085 21.9937 11.945 21.9536 11.7192 22.0544L10.5979 22.5553C10.4844 22.4564 10.3018 22.2537 10.1204 21.9394C9.93883 21.625 9.85457 21.3656 9.82574 21.2177L10.8163 20.5C11.0166 20.3549 11.1137 20.1063 11.0648 19.8639C11.0102 19.5927 10.9825 19.314 10.9825 19.0355C10.9825 18.7602 11.0097 18.4844 11.0632 18.2158C11.1115 17.9737 11.0143 17.7257 10.8144 17.5809L9.82567 16.8647C9.8545 16.7169 9.93876 16.4574 10.1204 16.1429C10.3017 15.8286 10.4843 15.626 10.5978 15.527L11.7106 16.0242C11.9369 16.1253 12.2011 16.0847 12.3866 15.9206C12.8066 15.5489 13.2874 15.2705 13.8155 15.0931C14.05 15.0143 14.2169 14.8058 14.2425 14.5597L14.368 13.3503C14.5104 13.3014 14.7772 13.2447 15.1403 13.2447C15.5032 13.2447 15.77 13.3013 15.9125 13.3502L16.038 14.5597C16.0635 14.8058 16.2305 15.0143 16.4651 15.0931C16.993 15.2703 17.4738 15.5487 17.8941 15.9205C18.0796 16.0846 18.3438 16.1252 18.57 16.0241L19.6826 15.5269C19.7962 15.6258 19.9788 15.8285 20.1603 16.1429C20.3418 16.4572 20.426 16.7165 20.4549 16.8644L19.4661 17.5808C19.2663 17.7258 19.1692 17.9739 19.2176 18.216ZM22.5812 9.22717H7.69973C5.29892 9.22717 3.36234 11.1743 3.36234 13.5752V25.8813L1.32782 27.6914V13.4233C1.32775 10.0126 4.13714 7.26281 7.54791 7.26281H19.3347C19.9974 7.26281 20.6303 7.45952 21.1651 7.85534C21.4454 8.06279 21.8408 7.99748 22.0483 7.71721C22.2558 7.43693 22.1967 7.05094 21.9164 6.84348C21.1625 6.28553 20.2698 6 19.3347 6H7.54791C3.44091 6 0.0649414 9.31627 0.0649414 13.4233V29.1225C0.0649414 29.3726 0.229878 29.5992 0.458797 29.7001C0.687645 29.801 0.971496 29.7575 1.15629 29.5888L3.36234 27.5909V32.3686C3.36234 32.6187 3.50167 32.8453 3.73059 32.9463C3.81246 32.9824 3.89503 33 3.98119 33C4.13574 33 4.28622 32.9432 4.40493 32.835L8.07387 29.4856C8.18802 29.3814 8.28497 29.2904 8.37007 29.2111C8.54567 29.0472 8.71131 28.8924 8.76624 28.8709C8.81781 28.8506 9.0355 28.8589 9.26589 28.8619C9.39056 28.8636 9.53515 28.8708 9.70549 28.8708H22.5813C24.9821 28.8708 26.9348 26.907 26.9348 24.5061V13.5752C26.9347 11.1743 24.9819 9.22717 22.5812 9.22717ZM25.6719 24.5061C25.6719 26.2107 24.2856 27.608 22.5811 27.608H9.70542C9.54167 27.608 9.40256 27.6008 9.28266 27.5993C8.35197 27.5868 8.20254 27.6425 7.50799 28.2904C7.42584 28.3671 7.3399 28.4537 7.22969 28.5543L4.62515 30.9375V26.1605C4.62515 26.1599 4.62515 26.1594 4.62515 26.1589V13.5752C4.62508 11.8706 5.99522 10.49 7.69973 10.49H22.5812C24.2857 10.49 25.6719 11.8706 25.6719 13.5752V24.5061H25.6719Z" fill="url(#paint0_linear_134_3784)"/>
</g>
<defs>
<linearGradient id="paint0_linear_134_3784" x1="13.4999" y1="6" x2="13.4999" y2="33" gradientUnits="userSpaceOnUse">
<stop stop-color="#0038FF"/>
<stop offset="1" stop-color="#F270D6"/>
</linearGradient>
<clipPath id="clip0_134_3784">
<rect width="27" height="27" fill="white" transform="translate(0 6)"/>
</clipPath>
</defs>
</svg>
