<svg width="19" height="19" viewBox="0 0 19 19" fill="none" xmlns="http://www.w3.org/2000/svg">
<path fill-rule="evenodd" clip-rule="evenodd" d="M6.56658 4.21478C6.70043 2.69714 7.99519 1.58301 9.50006 1.58301C11.0049 1.58301 12.2997 2.69714 12.4335 4.21478C12.5036 5.00958 12.5646 5.91217 12.5646 6.6578C12.5646 7.40342 12.5036 8.306 12.4335 9.10083C12.2997 10.6185 11.0049 11.7326 9.50006 11.7326C7.99519 11.7326 6.70043 10.6185 6.56658 9.10083C6.4965 8.306 6.43555 7.40342 6.43555 6.6578C6.43555 5.91217 6.4965 5.00958 6.56658 4.21478ZM9.50006 2.80096C8.60208 2.80096 7.86362 3.46041 7.78771 4.3211C7.71855 5.10528 7.66136 5.96594 7.66136 6.6578C7.66136 7.34964 7.71855 8.21029 7.78771 8.99451C7.86362 9.85521 8.60208 10.5147 9.50006 10.5147C10.3981 10.5147 11.1365 9.85521 11.2124 8.99451C11.2816 8.21029 11.3388 7.34964 11.3388 6.6578C11.3388 5.96594 11.2816 5.10528 11.2124 4.32111C11.1365 3.46041 10.3981 2.80096 9.50006 2.80096Z" fill="#333333"/>
<path fill-rule="evenodd" clip-rule="evenodd" d="M3.77892 6.45508C4.11742 6.45508 4.39182 6.72772 4.39182 7.06405C4.39182 7.79186 4.44675 8.63529 4.52942 9.4895C4.76792 11.9538 6.9416 13.7628 9.49935 13.7628C12.0571 13.7628 14.2307 11.9538 14.4693 9.4895C14.5519 8.63529 14.6069 7.79186 14.6069 7.06405C14.6069 6.72772 14.8813 6.45508 15.2198 6.45508C15.5583 6.45508 15.8327 6.72772 15.8327 7.06405C15.8327 7.84601 15.774 8.73195 15.6895 9.60603C15.4044 12.5512 12.9755 14.6834 10.1123 14.9521V16.8077C10.1123 17.144 9.83787 17.4166 9.49935 17.4166C9.16083 17.4166 8.88644 17.144 8.88644 16.8077V14.9521C6.02323 14.6834 3.59427 12.5512 3.30924 9.60603C3.22465 8.73195 3.16602 7.84601 3.16602 7.06405C3.16602 6.72772 3.44042 6.45508 3.77892 6.45508Z" fill="#333333"/>
</svg>
