<svg width="19" height="19" viewBox="0 0 19 19" fill="none" xmlns="http://www.w3.org/2000/svg">
<path d="M5.74453 14.9848L3.34727 16.9887C3.26076 17.0603 3.15574 17.1058 3.04438 17.1201C2.93301 17.1344 2.81988 17.1169 2.71809 17.0695C2.61631 17.0221 2.53005 16.9468 2.46932 16.8524C2.4086 16.7579 2.37589 16.6482 2.375 16.5359V4.75C2.375 4.59253 2.43756 4.44151 2.54891 4.33016C2.66026 4.21881 2.81128 4.15625 2.96875 4.15625H16.0312C16.1887 4.15625 16.3397 4.21881 16.4511 4.33016C16.5624 4.44151 16.625 4.59253 16.625 4.75V14.25C16.625 14.4075 16.5624 14.5585 16.4511 14.6698C16.3397 14.7812 16.1887 14.8438 16.0312 14.8438H6.12305C5.98404 14.8438 5.84968 14.8938 5.74453 14.9848V14.9848Z" stroke="#6174A4" stroke-width="1.5" stroke-linecap="round" stroke-linejoin="round"/>
<path d="M9.5 10.2422C9.9099 10.2422 10.2422 9.9099 10.2422 9.5C10.2422 9.0901 9.9099 8.75781 9.5 8.75781C9.0901 8.75781 8.75781 9.0901 8.75781 9.5C8.75781 9.9099 9.0901 10.2422 9.5 10.2422Z" fill="#6174A4"/>
<path d="M13.0625 10.2422C13.4724 10.2422 13.8047 9.9099 13.8047 9.5C13.8047 9.0901 13.4724 8.75781 13.0625 8.75781C12.6526 8.75781 12.3203 9.0901 12.3203 9.5C12.3203 9.9099 12.6526 10.2422 13.0625 10.2422Z" fill="#6174A4"/>
<path d="M5.9375 10.2422C6.3474 10.2422 6.67969 9.9099 6.67969 9.5C6.67969 9.0901 6.3474 8.75781 5.9375 8.75781C5.5276 8.75781 5.19531 9.0901 5.19531 9.5C5.19531 9.9099 5.5276 10.2422 5.9375 10.2422Z" fill="#6174A4"/>
</svg>
