<svg width="16" height="18" viewBox="0 0 16 18" fill="none" xmlns="http://www.w3.org/2000/svg">
<path d="M15.6898 4.39488L8.14429 0.0384961C8.05545 -0.012832 7.9459 -0.012832 7.85706 0.0384961L0.311582 4.39488C0.222742 4.44621 0.167969 4.54099 0.167969 4.64361V13.3564C0.167969 13.459 0.222742 13.5538 0.311582 13.6051L7.85706 17.9615C7.9015 17.9872 7.95107 18 8.00068 18C8.05028 18 8.09985 17.9872 8.14429 17.9615L15.6898 13.6051C15.7786 13.5538 15.8334 13.459 15.8334 13.3564V4.64361C15.8334 4.54099 15.7786 4.44618 15.6898 4.39488ZM7.71345 17.2153L1.02965 13.3564L1.31185 13.1935C1.44927 13.1142 1.49631 12.9385 1.417 12.8011C1.33772 12.6637 1.16198 12.6166 1.02466 12.6959L0.742422 12.8589V5.14111L7.42622 9L7.14395 9.16295C7.00656 9.24226 6.95952 9.41794 7.03884 9.55533C7.09206 9.64747 7.18857 9.69898 7.28785 9.69898C7.33657 9.69898 7.386 9.68657 7.43118 9.66045L7.71345 9.4975V17.2153ZM8.00068 7.88934C7.84202 7.88934 7.71345 8.01795 7.71345 8.17657V8.50247L1.02965 4.64361L7.71345 0.784723V1.11062C7.71345 1.26925 7.84202 1.39785 8.00068 1.39785C8.15934 1.39785 8.2879 1.26925 8.2879 1.11062V0.784723L14.9717 4.64361L8.2879 8.5025V8.17661C8.2879 8.01798 8.15934 7.88934 8.00068 7.88934ZM15.2589 12.8589L14.9767 12.6959C14.8392 12.6166 14.6635 12.6637 14.5843 12.8011C14.505 12.9384 14.552 13.1141 14.6894 13.1934L14.9716 13.3564L8.2879 17.2153V9.4975L8.57017 9.66045C8.61545 9.68657 8.66481 9.69898 8.71354 9.69898C8.81282 9.69898 8.90936 9.64747 8.96255 9.55533C9.04186 9.41794 8.99479 9.2423 8.85743 9.16295L8.57513 9L15.2589 5.14111V12.8589H15.2589Z" fill="#333333"/>
</svg>
