<svg width="30" height="27" viewBox="0 0 30 27" fill="none" xmlns="http://www.w3.org/2000/svg">
<rect x="9" width="21" height="21" rx="10.5" fill="#DEE1FF"/>
<g clip-path="url(#clip0_367_5454)">
<path d="M10.1668 7C4.74443 7 0.333432 11.411 0.333432 16.8333C0.333432 18.5487 0.782098 20.234 1.6321 21.7167L0.0170984 26.5613C-0.0215683 26.6777 0.00643174 26.8053 0.0900984 26.8947C0.154098 26.963 0.242765 27 0.333432 27C0.361765 27 0.390098 26.9963 0.418098 26.989L5.7071 25.5973C7.0811 26.2973 8.6201 26.6667 10.1668 26.6667C15.5891 26.6667 20.0001 22.2557 20.0001 16.8333C20.0001 11.411 15.5891 7 10.1668 7ZM5.66676 18.3333C4.93143 18.3333 4.33343 17.7353 4.33343 17C4.33343 16.2647 4.93143 15.6667 5.66676 15.6667C6.4021 15.6667 7.0001 16.2647 7.0001 17C7.0001 17.7353 6.4021 18.3333 5.66676 18.3333ZM10.0001 18.3333C9.26476 18.3333 8.66676 17.7353 8.66676 17C8.66676 16.2647 9.26476 15.6667 10.0001 15.6667C10.7354 15.6667 11.3334 16.2647 11.3334 17C11.3334 17.7353 10.7354 18.3333 10.0001 18.3333ZM14.3334 18.3333C13.5981 18.3333 13.0001 17.7353 13.0001 17C13.0001 16.2647 13.5981 15.6667 14.3334 15.6667C15.0688 15.6667 15.6668 16.2647 15.6668 17C15.6668 17.7353 15.0688 18.3333 14.3334 18.3333Z" fill="#6C4DE8"/>
</g>
<defs>
<clipPath id="clip0_367_5454">
<rect width="20" height="20" fill="white" transform="translate(0 7)"/>
</clipPath>
</defs>
</svg>
