<svg width="22" height="22" viewBox="0 0 22 22" fill="none" xmlns="http://www.w3.org/2000/svg">
<path d="M12.8648 16.8352L11.593 18.9578C11.5307 19.0591 11.4435 19.1428 11.3397 19.2008C11.2359 19.2588 11.1189 19.2893 11 19.2893C10.8811 19.2893 10.7641 19.2588 10.6603 19.2008C10.5565 19.1428 10.4693 19.0591 10.407 18.9578L9.13516 16.8352C9.07533 16.7333 8.98996 16.6488 8.88747 16.59C8.78498 16.5312 8.66893 16.5002 8.55078 16.5H3.4375C3.25516 16.5 3.0803 16.4276 2.95136 16.2986C2.82243 16.1697 2.75 15.9948 2.75 15.8125V4.8125C2.75 4.63016 2.82243 4.4553 2.95136 4.32636C3.0803 4.19743 3.25516 4.125 3.4375 4.125H18.5625C18.7448 4.125 18.9197 4.19743 19.0486 4.32636C19.1776 4.4553 19.25 4.63016 19.25 4.8125V15.8125C19.25 15.9948 19.1776 16.1697 19.0486 16.2986C18.9197 16.4276 18.7448 16.5 18.5625 16.5H13.4492C13.3311 16.5002 13.215 16.5312 13.1125 16.59C13.01 16.6488 12.9247 16.7333 12.8648 16.8352V16.8352Z" stroke="url(#paint0_linear_987_227572)" stroke-linecap="round" stroke-linejoin="round"/>
<path d="M11 11.1719C11.4746 11.1719 11.8594 10.7871 11.8594 10.3125C11.8594 9.83788 11.4746 9.45312 11 9.45312C10.5254 9.45312 10.1406 9.83788 10.1406 10.3125C10.1406 10.7871 10.5254 11.1719 11 11.1719Z" fill="url(#paint1_linear_987_227572)"/>
<path d="M15.125 11.1719C15.5996 11.1719 15.9844 10.7871 15.9844 10.3125C15.9844 9.83788 15.5996 9.45312 15.125 9.45312C14.6504 9.45312 14.2656 9.83788 14.2656 10.3125C14.2656 10.7871 14.6504 11.1719 15.125 11.1719Z" fill="url(#paint2_linear_987_227572)"/>
<path d="M6.875 11.1719C7.34962 11.1719 7.73438 10.7871 7.73438 10.3125C7.73438 9.83788 7.34962 9.45312 6.875 9.45312C6.40038 9.45312 6.01562 9.83788 6.01562 10.3125C6.01562 10.7871 6.40038 11.1719 6.875 11.1719Z" fill="url(#paint3_linear_987_227572)"/>
<circle cx="3.66667" cy="3.66667" r="3.16667" fill="white" stroke="url(#paint4_linear_987_227572)"/>
<defs>
<linearGradient id="paint0_linear_987_227572" x1="11" y1="4.125" x2="11" y2="19.2893" gradientUnits="userSpaceOnUse">
<stop stop-color="#000AFF"/>
<stop offset="1" stop-color="#D274FF"/>
</linearGradient>
<linearGradient id="paint1_linear_987_227572" x1="11" y1="9.45312" x2="11" y2="11.1719" gradientUnits="userSpaceOnUse">
<stop stop-color="#000AFF"/>
<stop offset="1" stop-color="#D274FF"/>
</linearGradient>
<linearGradient id="paint2_linear_987_227572" x1="15.125" y1="9.45312" x2="15.125" y2="11.1719" gradientUnits="userSpaceOnUse">
<stop stop-color="#000AFF"/>
<stop offset="1" stop-color="#D274FF"/>
</linearGradient>
<linearGradient id="paint3_linear_987_227572" x1="6.875" y1="9.45312" x2="6.875" y2="11.1719" gradientUnits="userSpaceOnUse">
<stop stop-color="#000AFF"/>
<stop offset="1" stop-color="#D274FF"/>
</linearGradient>
<linearGradient id="paint4_linear_987_227572" x1="3.66667" y1="0" x2="3.66667" y2="7.33333" gradientUnits="userSpaceOnUse">
<stop stop-color="#000AFF"/>
<stop offset="1" stop-color="#D274FF"/>
</linearGradient>
</defs>
</svg>
