<svg width="23" height="23" viewBox="0 0 23 23" fill="none" xmlns="http://www.w3.org/2000/svg">
<path d="M6.14388 16.5312H17.9688C18.35 16.5312 18.7156 16.3798 18.9852 16.1102C19.2548 15.8406 19.4062 15.475 19.4062 15.0938V5.75C19.4062 5.36875 19.2548 5.00312 18.9852 4.73353C18.7156 4.46395 18.35 4.3125 17.9688 4.3125H5.03125C4.65 4.3125 4.28437 4.46395 4.01478 4.73353C3.7452 5.00312 3.59375 5.36875 3.59375 5.75V18.5725L6.14388 16.5312ZM6.64844 17.9688L3.3235 20.6281C3.21781 20.7125 3.09046 20.7654 2.95608 20.7806C2.82169 20.7959 2.68573 20.7729 2.56382 20.7144C2.4419 20.6558 2.33898 20.5641 2.26689 20.4496C2.19479 20.3352 2.15644 20.2027 2.15625 20.0675V5.75C2.15625 4.9875 2.45915 4.25623 2.99832 3.71707C3.53748 3.1779 4.26875 2.875 5.03125 2.875H17.9688C18.7312 2.875 19.4625 3.1779 20.0017 3.71707C20.5408 4.25623 20.8438 4.9875 20.8438 5.75V15.0938C20.8438 15.8562 20.5408 16.5875 20.0017 17.1267C19.4625 17.6658 18.7312 17.9688 17.9688 17.9688H6.64844Z" fill="black"/>
<path d="M11.5001 11.2126C11.1951 11.2126 10.9026 11.0914 10.6869 10.8758C10.4713 10.6601 10.3501 10.3676 10.3501 10.0626C10.3501 9.7576 10.4713 9.46509 10.6869 9.24943C10.9026 9.03376 11.1951 8.9126 11.5001 8.9126C11.8051 8.9126 12.0976 9.03376 12.3133 9.24943C12.5289 9.46509 12.6501 9.7576 12.6501 10.0626C12.6501 10.3676 12.5289 10.6601 12.3133 10.8758C12.0976 11.0914 11.8051 11.2126 11.5001 11.2126ZM15.8126 11.2126C15.5076 11.2126 15.2151 11.0914 14.9994 10.8758C14.7838 10.6601 14.6626 10.3676 14.6626 10.0626C14.6626 9.7576 14.7838 9.46509 14.9994 9.24943C15.2151 9.03376 15.5076 8.9126 15.8126 8.9126C16.1176 8.9126 16.4101 9.03376 16.6258 9.24943C16.8414 9.46509 16.9626 9.7576 16.9626 10.0626C16.9626 10.3676 16.8414 10.6601 16.6258 10.8758C16.4101 11.0914 16.1176 11.2126 15.8126 11.2126ZM7.1876 11.2126C6.8826 11.2126 6.59009 11.0914 6.37443 10.8758C6.15876 10.6601 6.0376 10.3676 6.0376 10.0626C6.0376 9.7576 6.15876 9.46509 6.37443 9.24943C6.59009 9.03376 6.8826 8.9126 7.1876 8.9126C7.4926 8.9126 7.7851 9.03376 8.00077 9.24943C8.21644 9.46509 8.3376 9.7576 8.3376 10.0626C8.3376 10.3676 8.21644 10.6601 8.00077 10.8758C7.7851 11.0914 7.4926 11.2126 7.1876 11.2126Z" fill="black"/>
</svg>
