<svg width="21" height="21" viewBox="0 0 21 21" fill="none" xmlns="http://www.w3.org/2000/svg">
<g clip-path="url(#clip0_491_16473)">
<path d="M10.4998 12.4689C9.74177 12.4695 8.99541 12.2823 8.32743 11.9241C7.65944 11.5658 7.09064 11.0475 6.67188 10.4157L7.76519 9.68896C8.06455 10.1402 8.47092 10.5103 8.94806 10.7664C9.4252 11.0224 9.95828 11.1564 10.4998 11.1564C11.0413 11.1564 11.5744 11.0224 12.0515 10.7664C12.5286 10.5103 12.935 10.1402 13.2344 9.68896L14.3277 10.4157C13.9089 11.0475 13.3401 11.5658 12.6721 11.9241C12.0042 12.2823 11.2578 12.4695 10.4998 12.4689Z" fill="black"/>
<path d="M13.125 5.25006C12.8654 5.25006 12.6117 5.32704 12.3958 5.47126C12.18 5.61548 12.0117 5.82046 11.9124 6.06029C11.8131 6.30012 11.7871 6.56402 11.8377 6.81862C11.8884 7.07322 12.0134 7.30708 12.1969 7.49064C12.3805 7.6742 12.6143 7.7992 12.8689 7.84984C13.1235 7.90049 13.3874 7.8745 13.6273 7.77516C13.8671 7.67582 14.0721 7.50759 14.2163 7.29175C14.3605 7.07591 14.4375 6.82215 14.4375 6.56256C14.4392 6.38973 14.4064 6.21829 14.3411 6.05829C14.2757 5.89828 14.1791 5.75291 14.0569 5.63069C13.9347 5.50848 13.7893 5.41186 13.6293 5.34651C13.4693 5.28115 13.2978 5.24836 13.125 5.25006Z" fill="black"/>
<path d="M7.875 5.25006C7.61541 5.25006 7.36165 5.32704 7.14581 5.47126C6.92998 5.61548 6.76175 5.82046 6.66241 6.06029C6.56307 6.30012 6.53708 6.56402 6.58772 6.81862C6.63836 7.07322 6.76337 7.30708 6.94692 7.49064C7.13048 7.6742 7.36434 7.7992 7.61894 7.84984C7.87354 7.90049 8.13744 7.8745 8.37727 7.77516C8.6171 7.67582 8.82209 7.50759 8.9663 7.29175C9.11052 7.07591 9.1875 6.82215 9.1875 6.56256C9.1892 6.38973 9.15641 6.21829 9.09106 6.05829C9.0257 5.89828 8.92909 5.75291 8.80687 5.63069C8.68465 5.50848 8.53929 5.41186 8.37928 5.34651C8.21927 5.28115 8.04783 5.24836 7.875 5.25006Z" fill="black"/>
<path d="M11.6391 19.6875L10.5 19.0312L13.125 14.4375H17.0625C17.2349 14.4378 17.4057 14.404 17.5651 14.3382C17.7245 14.2723 17.8693 14.1757 17.9912 14.0537C18.1132 13.9318 18.2098 13.787 18.2757 13.6276C18.3415 13.4682 18.3753 13.2974 18.375 13.125V3.9375C18.3753 3.76506 18.3415 3.59425 18.2757 3.43488C18.2098 3.27551 18.1132 3.1307 17.9912 3.00877C17.8693 2.88683 17.7245 2.79016 17.5651 2.72431C17.4057 2.65845 17.2349 2.62471 17.0625 2.625H3.9375C3.76506 2.62471 3.59425 2.65845 3.43488 2.72431C3.27551 2.79016 3.1307 2.88683 3.00877 3.00877C2.88683 3.1307 2.79016 3.27551 2.72431 3.43488C2.65845 3.59425 2.62471 3.76506 2.625 3.9375V13.125C2.62471 13.2974 2.65845 13.4682 2.72431 13.6276C2.79016 13.787 2.88683 13.9318 3.00877 14.0537C3.1307 14.1757 3.27551 14.2723 3.43488 14.3382C3.59425 14.404 3.76506 14.4378 3.9375 14.4375H9.84375V15.75H3.9375C3.59276 15.7501 3.25139 15.6822 2.93288 15.5503C2.61438 15.4184 2.32498 15.2251 2.08121 14.9813C1.83744 14.7375 1.64409 14.4481 1.51219 14.1296C1.3803 13.8111 1.31244 13.4697 1.3125 13.125V3.9375C1.3124 3.59275 1.38022 3.25136 1.51211 2.93283C1.64399 2.61431 1.83734 2.32489 2.08111 2.08111C2.32489 1.83734 2.61431 1.64399 2.93283 1.51211C3.25136 1.38022 3.59275 1.3124 3.9375 1.3125H17.0625C17.4072 1.3124 17.7486 1.38022 18.0672 1.51211C18.3857 1.64399 18.6751 1.83734 18.9189 2.08111C19.1627 2.32489 19.356 2.61431 19.4879 2.93283C19.6198 3.25136 19.6876 3.59275 19.6875 3.9375V13.125C19.6876 13.4697 19.6197 13.8111 19.4878 14.1296C19.3559 14.4481 19.1626 14.7375 18.9188 14.9813C18.675 15.2251 18.3856 15.4184 18.0671 15.5503C17.7486 15.6822 17.4072 15.7501 17.0625 15.75H13.8893L11.6391 19.6875Z" fill="black"/>
</g>
<defs>
<clipPath id="clip0_491_16473">
<rect width="21" height="21" fill="white"/>
</clipPath>
</defs>
</svg>
