<svg width="18" height="18" viewBox="0 0 18 18" fill="none" xmlns="http://www.w3.org/2000/svg">
<path d="M4.80825 12.9375H14.0625C14.3609 12.9375 14.647 12.819 14.858 12.608C15.069 12.397 15.1875 12.1109 15.1875 11.8125V4.5C15.1875 4.20163 15.069 3.91548 14.858 3.7045C14.647 3.49353 14.3609 3.375 14.0625 3.375H3.9375C3.63913 3.375 3.35298 3.49353 3.142 3.7045C2.93103 3.91548 2.8125 4.20163 2.8125 4.5V14.535L4.80825 12.9375ZM5.20312 14.0625L2.601 16.1438C2.51829 16.2098 2.41862 16.2512 2.31345 16.2631C2.20828 16.275 2.10188 16.2571 2.00647 16.2112C1.91106 16.1654 1.83051 16.0936 1.77409 16.0041C1.71766 15.9145 1.68765 15.8108 1.6875 15.705V4.5C1.6875 3.90326 1.92455 3.33097 2.34651 2.90901C2.76847 2.48705 3.34076 2.25 3.9375 2.25H14.0625C14.6592 2.25 15.2315 2.48705 15.6535 2.90901C16.0754 3.33097 16.3125 3.90326 16.3125 4.5V11.8125C16.3125 12.4092 16.0754 12.9815 15.6535 13.4035C15.2315 13.8254 14.6592 14.0625 14.0625 14.0625H5.20312Z" fill="#333333"/>
</svg>
