<svg width="19" height="19" viewBox="0 0 19 19" fill="none" xmlns="http://www.w3.org/2000/svg">
<g clip-path="url(#clip0_1_18919)">
<path d="M9.49961 6.33203C8.45026 6.33203 7.59961 7.18269 7.59961 8.23203C7.59961 9.28138 8.45026 10.132 9.49961 10.132C10.549 10.132 11.3996 9.28138 11.3996 8.23203C11.3996 7.18269 10.549 6.33203 9.49961 6.33203Z" fill="#0C71CE"/>
<path fill-rule="evenodd" clip-rule="evenodd" d="M11.4 2.53318L10.1333 2.53319V0H8.86667V2.53321H7.59989C3.40258 2.53324 1.16271e-05 5.93584 0 10.1331C-1.16267e-05 14.3304 3.40261 17.7331 7.59995 17.7331H11.4001C11.5654 17.7331 11.7296 17.7279 11.8925 17.7174L16.9465 18.9809C17.1623 19.0348 17.3906 18.9716 17.5479 18.8143C17.7052 18.657 17.7684 18.4287 17.7145 18.2129L16.9836 15.2892C18.2347 13.9349 19 12.1229 19 10.1331C19 5.93578 15.5974 2.53314 11.4 2.53318ZM6.33333 8.23333C6.33333 6.48443 7.7511 5.06667 9.5 5.06667C11.2489 5.06667 12.6667 6.48443 12.6667 8.23333C12.6667 9.98223 11.2489 11.4 9.5 11.4C7.7511 11.4 6.33333 9.98223 6.33333 8.23333ZM9.49997 15.2C8.15262 15.2 6.91291 14.7317 5.9372 13.9495L6.72944 12.9613C7.48855 13.5698 8.45093 13.9333 9.49997 13.9333C10.549 13.9333 11.5114 13.5698 12.2705 12.9613L13.0628 13.9495C12.087 14.7317 10.8473 15.2 9.49997 15.2Z" fill="#0C71CE"/>
</g>
<defs>
<clipPath id="clip0_1_18919">
<rect width="19" height="19" fill="white"/>
</clipPath>
</defs>
</svg>
