<svg width="18" height="19" viewBox="0 0 18 19" fill="none" xmlns="http://www.w3.org/2000/svg">
<path d="M15.4329 9.00784L3.55716 2.35627C3.45713 2.30101 3.34263 2.27753 3.22892 2.28895C3.11521 2.30038 3.00768 2.34617 2.92064 2.42023C2.8336 2.49429 2.77118 2.5931 2.7417 2.70352C2.71221 2.81394 2.71706 2.93071 2.7556 3.0383L4.99154 9.31018C5.04079 9.43195 5.04079 9.5681 4.99154 9.68987L2.7556 15.9617C2.71706 16.0693 2.71221 16.1861 2.7417 16.2965C2.77118 16.4069 2.8336 16.5058 2.92064 16.5798C3.00768 16.6539 3.11521 16.6997 3.22892 16.7111C3.34263 16.7225 3.45713 16.699 3.55716 16.6438L15.4329 9.99221C15.5209 9.94357 15.5941 9.87226 15.6452 9.7857C15.6962 9.69915 15.7231 9.6005 15.7231 9.50002C15.7231 9.39954 15.6962 9.3009 15.6452 9.21434C15.5941 9.12779 15.5209 9.05648 15.4329 9.00784V9.00784Z" stroke="#555555" stroke-width="1.5" stroke-linecap="round" stroke-linejoin="round"/>
<path d="M5.0625 9.5H9.5625" stroke="#555555" stroke-width="1.5" stroke-linecap="round" stroke-linejoin="round"/>
</svg>
