<svg width="20" height="19" viewBox="0 0 20 19" fill="none" xmlns="http://www.w3.org/2000/svg">
<rect x="11.1113" y="1.11133" width="8.88889" height="8.88889" rx="4.44444" fill="#F6DDEF"/>
<path d="M11.0458 14.4543L9.95378 16.2767C9.9003 16.3637 9.82542 16.4356 9.7363 16.4854C9.64717 16.5352 9.54677 16.5614 9.44466 16.5614C9.34256 16.5614 9.24215 16.5352 9.15303 16.4854C9.0639 16.4356 8.98903 16.3637 8.93555 16.2767L7.84353 14.4543C7.79217 14.3668 7.71887 14.2942 7.63088 14.2438C7.54288 14.1933 7.44324 14.1667 7.3418 14.1665H2.95161C2.79505 14.1665 2.64492 14.1043 2.53422 13.9936C2.42352 13.8829 2.36133 13.7328 2.36133 13.5762V4.13178C2.36133 3.97523 2.42352 3.82509 2.53422 3.71439C2.64492 3.60369 2.79505 3.5415 2.95161 3.5415H15.9377C16.0943 3.5415 16.2444 3.60369 16.3551 3.71439C16.4658 3.82509 16.528 3.97523 16.528 4.13178V13.5762C16.528 13.7328 16.4658 13.8829 16.3551 13.9936C16.2444 14.1043 16.0943 14.1665 15.9377 14.1665H11.5475C11.4461 14.1667 11.3464 14.1933 11.2584 14.2438C11.1705 14.2942 11.0972 14.3668 11.0458 14.4543V14.4543Z" stroke="url(#paint0_linear_334_41177)" stroke-width="1.5" stroke-linecap="round" stroke-linejoin="round"/>
<path d="M9.44488 9.59191C9.85238 9.59191 10.1827 9.26156 10.1827 8.85406C10.1827 8.44656 9.85238 8.11621 9.44488 8.11621C9.03738 8.11621 8.70703 8.44656 8.70703 8.85406C8.70703 9.26156 9.03738 9.59191 9.44488 9.59191Z" fill="url(#paint1_linear_334_41177)"/>
<path d="M12.9859 9.59191C13.3934 9.59191 13.7237 9.26156 13.7237 8.85406C13.7237 8.44656 13.3934 8.11621 12.9859 8.11621C12.5784 8.11621 12.248 8.44656 12.248 8.85406C12.248 9.26156 12.5784 9.59191 12.9859 9.59191Z" fill="url(#paint2_linear_334_41177)"/>
<path d="M5.90191 9.59191C6.30941 9.59191 6.63976 9.26156 6.63976 8.85406C6.63976 8.44656 6.30941 8.11621 5.90191 8.11621C5.49441 8.11621 5.16406 8.44656 5.16406 8.85406C5.16406 9.26156 5.49441 9.59191 5.90191 9.59191Z" fill="url(#paint3_linear_334_41177)"/>
<defs>
<linearGradient id="paint0_linear_334_41177" x1="9.44466" y1="3.5415" x2="9.44466" y2="16.5614" gradientUnits="userSpaceOnUse">
<stop stop-color="#000AFF"/>
<stop offset="1" stop-color="#D274FF"/>
</linearGradient>
<linearGradient id="paint1_linear_334_41177" x1="9.44488" y1="8.11621" x2="9.44488" y2="9.59191" gradientUnits="userSpaceOnUse">
<stop stop-color="#000AFF"/>
<stop offset="1" stop-color="#D274FF"/>
</linearGradient>
<linearGradient id="paint2_linear_334_41177" x1="12.9859" y1="8.11621" x2="12.9859" y2="9.59191" gradientUnits="userSpaceOnUse">
<stop stop-color="#000AFF"/>
<stop offset="1" stop-color="#D274FF"/>
</linearGradient>
<linearGradient id="paint3_linear_334_41177" x1="5.90191" y1="8.11621" x2="5.90191" y2="9.59191" gradientUnits="userSpaceOnUse">
<stop stop-color="#000AFF"/>
<stop offset="1" stop-color="#D274FF"/>
</linearGradient>
</defs>
</svg>
