<svg width="22" height="22" viewBox="0 0 22 22" fill="none" xmlns="http://www.w3.org/2000/svg">
<path d="M15.5185 14.7857C15.3808 14.7859 15.2473 14.738 15.1413 14.6501L12.4778 12.4285H11.3935C10.1432 12.4285 8.94407 11.9319 8.05998 11.0478C7.17588 10.1637 6.6792 8.96457 6.6792 7.71427C6.6792 6.46397 7.17588 5.26488 8.05998 4.38078C8.94407 3.49668 10.1432 3 11.3935 3H14.9292C16.0742 3.00327 17.179 3.42319 18.0371 4.18135C18.8952 4.93951 19.448 5.98408 19.5924 7.12001C19.7367 8.25594 19.4627 9.40558 18.8214 10.3543C18.1802 11.3029 17.2156 11.9858 16.1077 12.2753V14.1964C16.108 14.3091 16.076 14.4195 16.0154 14.5146C15.9548 14.6096 15.8682 14.6853 15.766 14.7326C15.6883 14.768 15.6038 14.7861 15.5185 14.7857ZM11.3935 4.17857C10.4557 4.17857 9.55642 4.55108 8.89335 5.21415C8.23028 5.87722 7.85777 6.77654 7.85777 7.71427C7.85777 8.652 8.23028 9.55132 8.89335 10.2144C9.55642 10.8775 10.4557 11.25 11.3935 11.25H12.6899C12.8276 11.2497 12.961 11.2977 13.067 11.3855L14.9292 12.9353V11.7921C14.9278 11.6491 14.9784 11.5105 15.0716 11.4021C15.1649 11.2937 15.2944 11.2228 15.436 11.2028C16.3068 11.0601 17.0928 10.5969 17.6395 9.90421C18.1862 9.21152 18.4542 8.33941 18.3907 7.45924C18.3272 6.57907 17.9368 5.75446 17.2963 5.14742C16.6558 4.54038 15.8115 4.1948 14.9292 4.17857H11.3935Z" fill="#5248BD"/>
<path d="M13.7506 7.125H12.572V8.30357H13.7506V7.125Z" fill="#5248BD"/>
<path d="M10.8042 7.125H9.62561V8.30357H10.8042V7.125Z" fill="#5248BD"/>
<path d="M16.697 7.125H15.5184V8.30357H16.697V7.125Z" fill="#5248BD"/>
<path d="M6.08992 19.5006C6.00456 19.501 5.92011 19.4829 5.84242 19.4475C5.74014 19.4002 5.65357 19.3245 5.59299 19.2295C5.53241 19.1344 5.50036 19.024 5.50064 18.9113V16.9902C4.56301 16.7404 3.72531 16.2074 3.10186 15.4638C2.4784 14.7203 2.09958 13.8025 2.01707 12.8357C1.93457 11.8689 2.15242 10.9001 2.64088 10.0617C3.12934 9.22329 3.86461 8.55602 4.74636 8.15097C4.81753 8.11346 4.89562 8.09093 4.97583 8.08475C5.05603 8.07857 5.13666 8.08888 5.21273 8.11504C5.2888 8.14121 5.35871 8.18267 5.41815 8.23687C5.47759 8.29108 5.52531 8.35688 5.55835 8.43023C5.5914 8.50357 5.60908 8.5829 5.6103 8.66334C5.61152 8.74378 5.59626 8.82361 5.56546 8.89793C5.53466 8.97224 5.48896 9.03946 5.4312 9.09545C5.37343 9.15143 5.30481 9.195 5.22957 9.22346C4.53417 9.53876 3.95952 10.0707 3.59157 10.7397C3.22361 11.4088 3.08211 12.1789 3.18823 12.935C3.29436 13.6912 3.6424 14.3926 4.18031 14.9345C4.71822 15.4764 5.4171 15.8296 6.17242 15.9413C6.31401 15.9613 6.4435 16.0321 6.53674 16.1405C6.62998 16.249 6.68061 16.3876 6.67921 16.5306V17.6738L8.54134 16.124C8.64401 16.0276 8.7778 15.9711 8.91849 15.9649H10.2149C10.6868 15.9657 11.1541 15.8712 11.5885 15.6869C12.0229 15.5026 12.4156 15.2323 12.7429 14.8924C12.8523 14.7798 13.002 14.7154 13.1589 14.7132C13.2366 14.7121 13.3137 14.7263 13.386 14.755C13.4582 14.7838 13.524 14.8264 13.5797 14.8806C13.6354 14.9348 13.6799 14.9994 13.7107 15.0707C13.7414 15.1421 13.7578 15.2188 13.7589 15.2965C13.76 15.3742 13.7458 15.4514 13.7171 15.5236C13.6883 15.5958 13.6457 15.6617 13.5915 15.7174C13.1524 16.1685 12.6274 16.5271 12.0475 16.772C11.4676 17.0169 10.8444 17.1432 10.2149 17.1434H9.13063L6.46707 19.365C6.36105 19.4529 6.22761 19.5008 6.08992 19.5006Z" fill="#5248BD"/>
</svg>
