<svg width="19" height="18" viewBox="0 0 19 18" fill="none" xmlns="http://www.w3.org/2000/svg">
<g clip-path="url(#clip0_442_207970)">
<path d="M10.4127 7.08846C9.52953 7.08846 8.81104 7.80691 8.81104 8.69003C8.81104 9.57315 9.52953 10.2916 10.4127 10.2916C11.2958 10.2916 12.0142 9.57315 12.0142 8.69003C12.0142 7.80691 11.2958 7.08846 10.4127 7.08846ZM10.4127 9.44968C9.99373 9.44968 9.65292 9.10886 9.65292 8.68998C9.65292 8.2711 9.99373 7.93029 10.4127 7.93029C10.8316 7.93029 11.1724 8.2711 11.1724 8.68998C11.1724 9.10891 10.8316 9.44968 10.4127 9.44968ZM14.5429 9.5311L13.999 9.13706C14.0173 8.98908 14.0264 8.83965 14.0264 8.69036C14.0264 8.54321 14.0175 8.39612 13.9999 8.25057L14.5439 7.85639C14.683 7.76579 14.8726 7.55233 14.7818 7.08163C14.7382 6.85634 14.6341 6.59325 14.4884 6.34102C14.0848 5.64175 13.5957 5.33578 13.2051 5.53446L12.5929 5.80807C12.3544 5.62711 12.0964 5.47773 11.8218 5.3616L11.753 4.69876C11.7321 4.25945 11.2226 3.9879 10.4127 3.9879C9.60511 3.9879 9.09546 4.2587 9.07254 4.69657L9.0035 5.36164C8.72877 5.47782 8.47079 5.62725 8.23244 5.80816L7.62148 5.53521C7.4735 5.46014 7.19376 5.40266 6.83166 5.71663C6.65829 5.86695 6.48257 6.08874 6.33697 6.34102C5.93334 7.04001 5.91271 7.6165 6.27986 7.85555L6.82549 8.25081C6.80776 8.39654 6.79888 8.54359 6.79888 8.6904C6.79888 8.83965 6.80804 8.98903 6.82633 9.13697L6.28047 9.53246C5.91276 9.77122 5.93311 10.348 6.33692 11.0473C6.48257 11.2996 6.65829 11.5214 6.83166 11.6717C7.19386 11.9857 7.47359 11.9282 7.62148 11.8531L8.23866 11.5774C8.47518 11.756 8.73074 11.9037 9.00276 12.0188L9.07249 12.6917C9.09527 13.1297 9.60502 13.4005 10.4127 13.4005C11.2226 13.4005 11.7321 13.1289 11.7529 12.6896L11.8225 12.0188C12.0945 11.9037 12.3501 11.756 12.5866 11.5774L13.2051 11.8538C13.5957 12.0526 14.0848 11.7465 14.4883 11.0474C14.8934 10.3459 14.913 9.76884 14.5429 9.5311ZM13.1307 8.14403C13.1665 8.32241 13.1845 8.50622 13.1845 8.69036C13.1845 8.87608 13.166 9.06195 13.1296 9.24272C13.097 9.40436 13.1617 9.57011 13.2952 9.66683L13.9557 10.1453C13.9364 10.2438 13.8802 10.4168 13.7592 10.6264C13.6382 10.836 13.5165 10.9711 13.4408 11.037L12.6934 10.703C12.543 10.6357 12.3671 10.6625 12.2434 10.7714C11.9647 11.0169 11.6461 11.201 11.2964 11.3185C11.1401 11.3711 11.0289 11.51 11.0119 11.674L10.9274 12.4882C10.8324 12.5207 10.6546 12.5586 10.4126 12.5586C10.1705 12.5586 9.99266 12.5207 9.89771 12.4881L9.81329 11.6741C9.79627 11.5101 9.68505 11.3711 9.52874 11.3185C9.17908 11.201 8.86048 11.0169 8.58163 10.7714C8.45802 10.6625 8.28235 10.6357 8.13179 10.7029L7.38426 11.0369C7.30858 10.9709 7.18689 10.8358 7.06594 10.6263C6.9449 10.4167 6.88872 10.2437 6.8695 10.1452L7.5299 9.66665C7.66339 9.56992 7.72812 9.40422 7.69556 9.24262C7.65918 9.06181 7.64066 8.87599 7.64066 8.69031C7.64066 8.50678 7.6588 8.32293 7.69449 8.14384C7.72667 7.98248 7.66189 7.81715 7.52864 7.72061L6.86945 7.24313C6.88868 7.14459 6.94485 6.97158 7.06594 6.76191C7.18684 6.55242 7.30854 6.4173 7.38421 6.35136L8.12609 6.68282C8.27697 6.75017 8.45311 6.72314 8.57672 6.61374C8.85674 6.36595 9.17726 6.18032 9.52935 6.06208C9.6857 6.00956 9.79697 5.87055 9.81399 5.70648L9.89767 4.90021C9.99261 4.86761 10.1705 4.82977 10.4126 4.82977C10.6545 4.82977 10.8323 4.86756 10.9273 4.90016L11.011 5.70648C11.028 5.87055 11.1393 6.00956 11.2957 6.06208C11.6477 6.18022 11.9682 6.36581 12.2484 6.61369C12.3721 6.72309 12.5482 6.75012 12.699 6.68273L13.4408 6.35126C13.5164 6.41721 13.6382 6.55233 13.7592 6.76196C13.8802 6.97144 13.9364 7.14435 13.9556 7.24294L13.2964 7.72057C13.1632 7.81719 13.0985 7.98262 13.1307 8.14403ZM15.3731 2.15145H5.45216C3.85163 2.15145 2.56057 3.44952 2.56057 5.0501V13.2542L1.20422 14.4609V4.94885C1.20418 2.67505 3.07711 0.841871 5.35095 0.841871H13.2088C13.6506 0.841871 14.0726 0.973016 14.4291 1.2369C14.6159 1.3752 14.8795 1.33165 15.0179 1.1448C15.1562 0.957956 15.1168 0.700624 14.9299 0.562323C14.4274 0.190356 13.8322 0 13.2088 0H5.35095C2.61295 0 0.362305 2.21085 0.362305 4.94885V15.415C0.362305 15.5817 0.472262 15.7328 0.624875 15.8001C0.777441 15.8674 0.966675 15.8383 1.08987 15.7259L2.56057 14.3939V17.5791C2.56057 17.7458 2.65346 17.8969 2.80607 17.9642C2.86065 17.9883 2.9157 18 2.97313 18C3.07617 18 3.17649 17.9622 3.25563 17.89L5.70159 15.6571C5.77769 15.5876 5.84232 15.527 5.89906 15.4741C6.01612 15.3648 6.12655 15.2616 6.16317 15.2473C6.19755 15.2338 6.34268 15.2393 6.49627 15.2413C6.57938 15.2424 6.67578 15.2472 6.78934 15.2472H15.3732C16.9737 15.2472 18.2755 13.938 18.2755 12.3374V5.0501C18.2755 3.44952 16.9736 2.15145 15.3731 2.15145ZM17.4336 12.3374C17.4336 13.4738 16.5094 14.4054 15.3731 14.4054H6.78929C6.68013 14.4054 6.58738 14.4005 6.50745 14.3995C5.88699 14.3912 5.78737 14.4284 5.32434 14.8603C5.26957 14.9114 5.21228 14.9691 5.1388 15.0362L3.40244 16.625V13.4403C3.40244 13.44 3.40244 13.4396 3.40244 13.4393V5.0501C3.4024 3.91372 4.31583 2.99332 5.45216 2.99332H15.3731C16.5095 2.99332 17.4336 3.91372 17.4336 5.0501V12.3374H17.4336Z" fill="#645DF6"/>
</g>
<defs>
<clipPath id="clip0_442_207970">
<rect width="18" height="18" fill="white" transform="translate(0.319336)"/>
</clipPath>
</defs>
</svg>
