<svg width="30" height="27" viewBox="0 0 30 27" fill="none" xmlns="http://www.w3.org/2000/svg">
<rect x="9" width="21" height="21" rx="10.5" fill="#D5E7FF"/>
<g clip-path="url(#clip0_367_5467)">
<path d="M21 16.5C21 10.701 16.299 6 10.5 6C4.70101 6 0 10.701 0 16.5C0 21.7409 3.83972 26.0847 8.85938 26.8724V19.5352H6.19336V16.5H8.85938V14.1867C8.85938 11.5552 10.427 10.1016 12.8254 10.1016C13.9742 10.1016 15.1758 10.3066 15.1758 10.3066V12.8906H13.8518C12.5474 12.8906 12.1406 13.7 12.1406 14.5303V16.5H15.0527L14.5872 19.5352H12.1406V26.8724C17.1603 26.0847 21 21.7409 21 16.5Z" fill="#1877F2"/>
<path d="M14.5872 19.5352L15.0527 16.5H12.1406V14.5303C12.1406 13.7 12.5474 12.8906 13.8518 12.8906H15.1758V10.3066C15.1758 10.3066 13.9741 10.1016 12.8254 10.1016C10.427 10.1016 8.85938 11.5552 8.85938 14.1867V16.5H6.19336V19.5352H8.85938V26.8724C9.39393 26.9563 9.94186 27 10.5 27C11.0581 27 11.606 26.9563 12.1406 26.8724V19.5352H14.5872Z" fill="white"/>
</g>
<defs>
<clipPath id="clip0_367_5467">
<rect width="21" height="21" fill="white" transform="translate(0 6)"/>
</clipPath>
</defs>
</svg>
