<svg width="14" height="13" viewBox="0 0 14 13" fill="none" xmlns="http://www.w3.org/2000/svg">
<path d="M4.43047 10.2527L2.79023 11.6238C2.73105 11.6728 2.65919 11.704 2.58299 11.7138C2.5068 11.7236 2.42939 11.7116 2.35975 11.6791C2.29011 11.6467 2.23109 11.5952 2.18954 11.5306C2.14799 11.466 2.12561 11.3909 2.125 11.3141V3.25C2.125 3.14226 2.1678 3.03892 2.24399 2.96274C2.32017 2.88655 2.42351 2.84375 2.53125 2.84375H11.4688C11.5765 2.84375 11.6798 2.88655 11.756 2.96274C11.8322 3.03892 11.875 3.14226 11.875 3.25V9.75C11.875 9.85774 11.8322 9.96108 11.756 10.0373C11.6798 10.1134 11.5765 10.1562 11.4688 10.1562H4.68945C4.59434 10.1563 4.50241 10.1905 4.43047 10.2527V10.2527Z" stroke="#364887" stroke-width="1.2" stroke-linecap="round" stroke-linejoin="round"/>
<path d="M6.90781 6.5C6.90781 6.44909 6.94909 6.40781 7 6.40781C7.05091 6.40781 7.09219 6.44909 7.09219 6.5C7.09219 6.55091 7.05091 6.59219 7 6.59219C6.94909 6.59219 6.90781 6.55091 6.90781 6.5Z" fill="#364887" stroke="#364887" stroke-width="1.2"/>
<path d="M9.34531 6.5C9.34531 6.44909 9.38659 6.40781 9.4375 6.40781C9.48841 6.40781 9.52969 6.44909 9.52969 6.5C9.52969 6.55091 9.48841 6.59219 9.4375 6.59219C9.38659 6.59219 9.34531 6.55091 9.34531 6.5Z" fill="#364887" stroke="#364887" stroke-width="1.2"/>
<path d="M4.5625 7.00781C4.84296 7.00781 5.07031 6.78046 5.07031 6.5C5.07031 6.21954 4.84296 5.99219 4.5625 5.99219C4.28204 5.99219 4.05469 6.21954 4.05469 6.5C4.05469 6.78046 4.28204 7.00781 4.5625 7.00781Z" fill="#364887"/>
</svg>
