<svg width="22" height="22" viewBox="0 0 22 22" fill="none" xmlns="http://www.w3.org/2000/svg">
<rect x="12.2227" y="1.29395" width="9.77778" height="10.3529" rx="4.88889" fill="#F6DDEF"/>
<path d="M12.1506 16.8352L10.9493 18.9578C10.8905 19.0591 10.8082 19.1428 10.7101 19.2008C10.6121 19.2588 10.5016 19.2893 10.3893 19.2893C10.277 19.2893 10.1666 19.2588 10.0685 19.2008C9.97049 19.1428 9.88813 19.0591 9.8293 18.9578L8.62808 16.8352C8.57158 16.7333 8.49095 16.6488 8.39416 16.59C8.29736 16.5312 8.18776 16.5002 8.07617 16.5H3.24696C3.07476 16.5 2.9096 16.4276 2.78783 16.2986C2.66607 16.1697 2.59766 15.9948 2.59766 15.8125V4.8125C2.59766 4.63016 2.66607 4.4553 2.78783 4.32636C2.9096 4.19743 3.07476 4.125 3.24696 4.125H17.5317C17.7039 4.125 17.869 4.19743 17.9908 4.32636C18.1126 4.4553 18.181 4.63016 18.181 4.8125V15.8125C18.181 15.9948 18.1126 16.1697 17.9908 16.2986C17.869 16.4276 17.7039 16.5 17.5317 16.5H12.7025C12.5909 16.5002 12.4813 16.5312 12.3845 16.59C12.2877 16.6488 12.2071 16.7333 12.1506 16.8352V16.8352Z" stroke="url(#paint0_linear_1_20593)" stroke-width="1.5" stroke-linecap="round" stroke-linejoin="round"/>
<path d="M10.3898 11.1719C10.838 11.1719 11.2014 10.7871 11.2014 10.3125C11.2014 9.83788 10.838 9.45312 10.3898 9.45312C9.94151 9.45312 9.57812 9.83788 9.57812 10.3125C9.57812 10.7871 9.94151 11.1719 10.3898 11.1719Z" fill="url(#paint1_linear_1_20593)"/>
<path d="M14.2843 11.1719C14.7325 11.1719 15.0959 10.7871 15.0959 10.3125C15.0959 9.83788 14.7325 9.45312 14.2843 9.45312C13.836 9.45312 13.4727 9.83788 13.4727 10.3125C13.4727 10.7871 13.836 11.1719 14.2843 11.1719Z" fill="url(#paint2_linear_1_20593)"/>
<path d="M6.49327 11.1719C6.94152 11.1719 7.3049 10.7871 7.3049 10.3125C7.3049 9.83788 6.94152 9.45312 6.49327 9.45312C6.04502 9.45312 5.68164 9.83788 5.68164 10.3125C5.68164 10.7871 6.04502 11.1719 6.49327 11.1719Z" fill="url(#paint3_linear_1_20593)"/>
<defs>
<linearGradient id="paint0_linear_1_20593" x1="10.3893" y1="4.125" x2="10.3893" y2="19.2893" gradientUnits="userSpaceOnUse">
<stop stop-color="#000AFF"/>
<stop offset="1" stop-color="#D274FF"/>
</linearGradient>
<linearGradient id="paint1_linear_1_20593" x1="10.3898" y1="9.45312" x2="10.3898" y2="11.1719" gradientUnits="userSpaceOnUse">
<stop stop-color="#000AFF"/>
<stop offset="1" stop-color="#D274FF"/>
</linearGradient>
<linearGradient id="paint2_linear_1_20593" x1="14.2843" y1="9.45312" x2="14.2843" y2="11.1719" gradientUnits="userSpaceOnUse">
<stop stop-color="#000AFF"/>
<stop offset="1" stop-color="#D274FF"/>
</linearGradient>
<linearGradient id="paint3_linear_1_20593" x1="6.49327" y1="9.45312" x2="6.49327" y2="11.1719" gradientUnits="userSpaceOnUse">
<stop stop-color="#000AFF"/>
<stop offset="1" stop-color="#D274FF"/>
</linearGradient>
</defs>
</svg>
