<svg width="22" height="22" viewBox="0 0 22 22" fill="none" xmlns="http://www.w3.org/2000/svg">
<path fill-rule="evenodd" clip-rule="evenodd" d="M11 3.4375C6.82336 3.4375 3.43752 6.82335 3.43752 11C3.43752 12.4892 3.86728 13.876 4.60928 15.0454C4.72001 15.22 4.74634 15.4351 4.68098 15.6312L3.83705 18.1629L6.36884 17.319C6.56493 17.2537 6.78003 17.28 6.95456 17.3907C8.12404 18.1328 9.51078 18.5625 11 18.5625C12.2086 18.5625 13.3491 18.2795 14.3607 17.7767C14.7008 17.6078 15.1134 17.7465 15.2824 18.0865C15.4513 18.4265 15.3126 18.8391 14.9726 19.0081C13.7751 19.6032 12.4256 19.9375 11 19.9375C9.36082 19.9375 7.82307 19.4957 6.50128 18.7243L2.96742 19.9022C2.72038 19.9845 2.44801 19.9203 2.26388 19.7361C2.07975 19.552 2.01545 19.2796 2.0978 19.0326L3.27575 15.4987C2.5044 14.177 2.06252 12.6392 2.06252 11C2.06252 6.06395 6.06397 2.0625 11 2.0625C15.9361 2.0625 19.9375 6.06395 19.9375 11C19.9375 12.4256 19.6032 13.7751 19.0081 14.9726C18.8391 15.3126 18.4266 15.4513 18.0865 15.2823C17.7465 15.1134 17.6078 14.7008 17.7768 14.3607C18.2795 13.3491 18.5625 12.2086 18.5625 11C18.5625 6.82335 15.1767 3.4375 11 3.4375Z" fill="#FF8A00"/>
<path fill-rule="evenodd" clip-rule="evenodd" d="M5.9082 9.63615C6.13944 8.7699 6.59511 7.95109 7.27329 7.27292C7.95146 6.59475 8.77027 6.13908 9.63652 5.90783C10.0034 5.8099 10.3802 6.0279 10.4781 6.39475C10.576 6.7616 10.358 7.13837 9.99118 7.23631C9.35226 7.40687 8.74822 7.74253 8.24556 8.24519C7.7429 8.74785 7.40724 9.35189 7.23668 9.9908C7.13874 10.3577 6.76196 10.5756 6.39511 10.4777C6.02826 10.3798 5.81027 10.003 5.9082 9.63615ZM11.5226 6.39475C11.6205 6.0279 11.9973 5.8099 12.3642 5.90783C13.2304 6.13908 14.0492 6.59475 14.7274 7.27292C15.4056 7.95109 15.8612 8.7699 16.0924 9.63615C16.1904 10.003 15.9724 10.3798 15.6056 10.4777C15.2387 10.5756 14.8619 10.3577 14.764 9.9908C14.5934 9.35189 14.2578 8.74785 13.7551 8.24519C13.2524 7.74253 12.6484 7.40687 12.0095 7.23631C11.6426 7.13837 11.4247 6.7616 11.5226 6.39475ZM6.39511 11.5222C6.76196 11.4243 7.13874 11.6423 7.23668 12.0091C7.40724 12.648 7.7429 13.252 8.24556 13.7547C8.74822 14.2574 9.35226 14.593 9.99118 14.7636C10.358 14.8615 10.576 15.2384 10.4781 15.6052C10.3802 15.9721 10.0034 16.19 9.63652 16.0921C8.77027 15.8609 7.95146 15.4052 7.27329 14.727C6.59511 14.0488 6.13944 13.23 5.9082 12.3638C5.81027 11.9969 6.02826 11.6201 6.39511 11.5222ZM11.5226 15.6052C11.4247 15.2384 11.6426 14.8615 12.0095 14.7636C12.6484 14.593 13.2524 14.2574 13.7551 13.7547C14.2578 13.252 14.5934 12.648 14.764 12.0091C14.8619 11.6423 15.2387 11.4243 15.6056 11.5222C15.9724 11.6201 16.1904 11.9969 16.0924 12.3638C15.8612 13.23 15.4056 14.0488 14.7274 14.727C14.0492 15.4052 13.2304 15.8609 12.3642 16.0921C11.9973 16.19 11.6205 15.9721 11.5226 15.6052Z" fill="#FF8A00"/>
</svg>
