<svg width="20" height="20" viewBox="0 0 20 20" fill="none" xmlns="http://www.w3.org/2000/svg">
<path d="M14.3126 11.3828C15.2313 11.3828 15.976 12.1275 15.976 13.0462V13.6801H15.9711C15.9398 14.3966 15.7434 15.2953 14.9387 16.0295C14.0598 16.8315 12.5426 17.3558 10.0002 17.3558C7.45765 17.3558 5.9405 16.8315 5.06157 16.0295C4.25692 15.2953 4.06049 14.3966 4.02925 13.6801H4.02435V13.0462C4.02435 12.1275 4.76908 11.3828 5.68774 11.3828H14.3126Z" fill="white" fill-opacity="0.58"/>
<path d="M6.78247 3.56584C6.02085 3.56584 5.40344 4.18325 5.40344 4.94487V8.62229C5.40344 9.38391 6.02085 10.0013 6.78247 10.0013H13.218C13.9796 10.0013 14.597 9.38391 14.597 8.62229V4.94487C14.597 4.18325 13.9796 3.56584 13.218 3.56584H10.4599C10.4599 3.56584 10.4599 3.38987 10.4599 3.10616C10.4599 2.82246 10.254 2.64648 10.0002 2.64648C9.74635 2.64648 9.54054 2.85837 9.54054 3.10616C9.54054 3.35396 9.54054 3.56584 9.54054 3.56584H6.78247ZM7.24215 6.78358C7.24215 6.27583 7.65377 5.86423 8.16151 5.86423C8.66925 5.86423 9.08086 6.27583 9.08086 6.78358C9.08086 7.29132 8.66925 7.70294 8.16151 7.70294C7.65377 7.70294 7.24215 7.29132 7.24215 6.78358ZM10.9196 6.78358C10.9196 6.27583 11.3312 5.86423 11.8389 5.86423C12.3467 5.86423 12.7583 6.27583 12.7583 6.78358C12.7583 7.29132 12.3467 7.70294 11.8389 7.70294C11.3312 7.70294 10.9196 7.29132 10.9196 6.78358Z" fill="white" fill-opacity="0.58"/>
</svg>
