<svg width="16" height="17" viewBox="0 0 16 17" fill="none" xmlns="http://www.w3.org/2000/svg">
<path d="M6.3125 14.0007C6.31203 13.5471 6.46123 13.1059 6.73697 12.7456C7.01271 12.3853 7.39959 12.126 7.83765 12.0079C8.27571 11.8898 8.74049 11.9196 9.15995 12.0925C9.57941 12.2654 9.93013 12.5718 10.1577 12.9642C11.7252 12.2727 12.3125 11.1875 12.3125 9.125V6.875C12.3125 3.881 10.6242 1.8125 8 1.8125C5.37575 1.8125 3.6875 3.88175 3.6875 6.875V9.5C3.6873 9.64912 3.62797 9.79208 3.52253 9.89753C3.41708 10.003 3.27412 10.0623 3.125 10.0625H2.375C1.8283 10.0619 1.30416 9.84452 0.917515 9.45801C0.530871 9.07151 0.313294 8.54745 0.3125 8.00075L0.3125 7.25075C0.313095 6.70385 0.530561 6.17952 0.917204 5.79273C1.30385 5.40595 1.8281 5.18829 2.375 5.1875H2.7335C3.30125 2.50925 5.2445 0.6875 8 0.6875C10.7555 0.6875 12.698 2.50925 13.2657 5.1875H13.6242C14.171 5.18829 14.6952 5.40585 15.0818 5.79247C15.4684 6.17909 15.686 6.70323 15.6867 7.25V8C15.6862 8.54683 15.4687 9.07108 15.082 9.45775C14.6953 9.84441 14.1711 10.0619 13.6242 10.0625H13.3925C13.3636 10.9508 13.0655 11.8094 12.5378 12.5246C12.0102 13.2397 11.2777 13.7778 10.4375 14.0675C10.4286 14.6145 10.2029 15.1356 9.80981 15.5161C9.41675 15.8967 8.88863 16.1055 8.34162 16.0966C7.79462 16.0878 7.27353 15.862 6.89299 15.4689C6.51246 15.0759 6.30365 14.5478 6.3125 14.0007ZM7.4375 14.0007C7.4375 14.1862 7.49248 14.3674 7.5955 14.5216C7.69851 14.6758 7.84493 14.7959 8.01623 14.8669C8.18754 14.9378 8.37604 14.9564 8.5579 14.9202C8.73975 14.8841 8.9068 14.7948 9.03791 14.6637C9.16902 14.5325 9.25831 14.3655 9.29449 14.1836C9.33066 14.0018 9.31209 13.8133 9.24114 13.642C9.17018 13.4707 9.05002 13.3243 8.89585 13.2212C8.74168 13.1182 8.56042 13.0632 8.375 13.0632C8.12642 13.0634 7.88808 13.1623 7.71231 13.3381C7.53653 13.5138 7.4377 13.7522 7.4375 14.0007ZM13.4375 8.93825H13.6242C13.873 8.93825 14.1115 8.8395 14.2874 8.66371C14.4634 8.48791 14.5623 8.24946 14.5625 8.00075V7.25075C14.5625 7.00204 14.4638 6.76351 14.288 6.58757C14.1122 6.41164 13.8737 6.3127 13.625 6.3125H13.4375V8.93825ZM1.4375 7.25075V8.00075C1.4379 8.2492 1.53682 8.48735 1.71257 8.66296C1.88832 8.83857 2.12655 8.9373 2.375 8.9375H2.5625V6.3125H2.375C2.12629 6.3127 1.88784 6.41164 1.71204 6.58757C1.53625 6.76351 1.4375 7.00204 1.4375 7.25075Z" fill="#333333"/>
</svg>
