<svg width="14" height="18" viewBox="0 0 14 18" fill="none" xmlns="http://www.w3.org/2000/svg">
<path fill-rule="evenodd" clip-rule="evenodd" d="M0.8125 6.25C0.8125 2.83274 3.58274 0.0625 7 0.0625C10.4172 0.0625 13.1875 2.83274 13.1875 6.25V12.6667C13.1875 13.0464 12.8797 13.3542 12.5 13.3542C12.1203 13.3542 11.8125 13.0464 11.8125 12.6667V6.25C11.8125 3.59213 9.65788 1.4375 7 1.4375C4.34213 1.4375 2.1875 3.59213 2.1875 6.25V13.5833C2.1875 15.2287 3.52131 16.5625 5.16667 16.5625C6.81199 16.5625 8.14583 15.2287 8.14583 13.5833V7.16667C8.14583 6.53384 7.63287 6.02083 7 6.02083C6.36713 6.02083 5.85417 6.53384 5.85417 7.16667V12.6667C5.85417 13.0464 5.54635 13.3542 5.16667 13.3542C4.78697 13.3542 4.47917 13.0464 4.47917 12.6667V7.16667C4.47917 5.77445 5.60777 4.64583 7 4.64583C8.39223 4.64583 9.52083 5.77445 9.52083 7.16667V13.5833C9.52083 15.9881 7.57145 17.9375 5.16667 17.9375C2.76193 17.9375 0.8125 15.9881 0.8125 13.5833V6.25Z" fill="#707C97"/>
</svg>
