<svg width="22" height="22" viewBox="0 0 22 22" fill="none" xmlns="http://www.w3.org/2000/svg">
<path d="M10.9999 20.8542C5.56409 20.8542 1.14575 16.4358 1.14575 11C1.14575 5.56418 5.56409 1.14584 10.9999 1.14584C16.4358 1.14584 20.8541 5.56418 20.8541 11C20.8541 16.4358 16.4358 20.8542 10.9999 20.8542ZM10.9999 2.52084C6.32492 2.52084 2.52075 6.32501 2.52075 11C2.52075 15.675 6.32492 19.4792 10.9999 19.4792C15.6749 19.4792 19.4791 15.675 19.4791 11C19.4791 6.32501 15.6749 2.52084 10.9999 2.52084Z" fill="white"/>
<path d="M9.69788 14.2818C9.51454 14.2818 9.34038 14.2084 9.21204 14.0801L6.61783 11.4859C6.352 11.2201 6.352 10.7801 6.61783 10.5143C6.88367 10.2484 7.32367 10.2484 7.5895 10.5143L9.69788 12.6226L14.4095 7.91092C14.6754 7.64509 15.1154 7.64509 15.3812 7.91092C15.647 8.17676 15.647 8.61676 15.3812 8.88259L10.1837 14.0801C10.0554 14.2084 9.88121 14.2818 9.69788 14.2818Z" fill="white"/>
</svg>
