<svg width="20" height="20" viewBox="0 0 20 20" fill="none" xmlns="http://www.w3.org/2000/svg">
<path d="M9.99935 1.66663C5.40685 1.66663 1.66602 5.40746 1.66602 9.99996C1.66602 14.5925 5.40685 18.3333 9.99935 18.3333C14.5918 18.3333 18.3327 14.5925 18.3327 9.99996C18.3327 5.40746 14.5918 1.66663 9.99935 1.66663ZM9.99935 3.33329C13.6911 3.33329 16.666 6.30819 16.666 9.99996C16.666 13.6917 13.6911 16.6666 9.99935 16.6666C6.30758 16.6666 3.33268 13.6917 3.33268 9.99996C3.33268 6.30819 6.30758 3.33329 9.99935 3.33329Z" fill="#BFC4CD"/>
<path d="M12.6695 6.99545L9.43869 11.2354L7.25607 9.0446C6.93157 8.71833 6.40403 8.71684 6.07769 9.04127C5.75144 9.36579 5.74998 9.89333 6.07435 10.2197L8.93243 13.0875C9.28899 13.4454 9.87944 13.4063 10.1857 13.0045L13.9943 8.00449C14.2726 7.63854 14.2019 7.11634 13.8364 6.83749C13.4752 6.57966 12.9736 6.61312 12.6694 6.99545H12.6695Z" fill="#BFC4CD"/>
</svg>
