<svg width="18" height="18" viewBox="0 0 18 18" fill="none" xmlns="http://www.w3.org/2000/svg">
<path d="M2.8125 7.875H15.1875" stroke="#555555" stroke-width="1.2" stroke-linecap="round" stroke-linejoin="round"/>
<path d="M7.22813 10.6875H3.9375C3.63913 10.6875 3.35298 10.569 3.142 10.358C2.93103 10.147 2.8125 9.86087 2.8125 9.5625V4.5C2.8125 3.90326 3.04955 3.33097 3.47151 2.90901C3.89347 2.48705 4.46576 2.25 5.0625 2.25H15.1875V9.5625C15.1875 9.86087 15.069 10.147 14.858 10.358C14.647 10.569 14.3609 10.6875 14.0625 10.6875H10.7719C10.6916 10.6877 10.6123 10.7052 10.5394 10.7386C10.4664 10.772 10.4014 10.8206 10.3488 10.8812C10.2962 10.9419 10.2571 11.013 10.2343 11.09C10.2115 11.1669 10.2054 11.2478 10.2164 11.3273L10.6875 14.625C10.6875 15.0726 10.5097 15.5018 10.1932 15.8182C9.87678 16.1347 9.44755 16.3125 9 16.3125C8.55245 16.3125 8.12322 16.1347 7.80676 15.8182C7.49029 15.5018 7.3125 15.0726 7.3125 14.625L7.78359 11.3273C7.79463 11.2478 7.78853 11.1669 7.76569 11.09C7.74286 11.013 7.70382 10.9419 7.6512 10.8812C7.59859 10.8206 7.53361 10.772 7.46064 10.7386C7.38766 10.7052 7.30839 10.6877 7.22813 10.6875V10.6875Z" stroke="#555555" stroke-width="1.2" stroke-linecap="round" stroke-linejoin="round"/>
<path d="M12.9375 2.25V5.625" stroke="#555555" stroke-width="1.2" stroke-linecap="round" stroke-linejoin="round"/>
</svg>
