<svg width="17" height="18" viewBox="0 0 17 18" fill="none" xmlns="http://www.w3.org/2000/svg">
<path d="M8.5 5.83203V9.01953" stroke="#333333" stroke-width="1.2" stroke-linecap="round" stroke-linejoin="round"/>
<path d="M11.2625 10.6133L8.5 9.01953" stroke="#333333" stroke-width="1.2" stroke-linecap="round" stroke-linejoin="round"/>
<path d="M4.76807 7.14062H2.11182V4.48438" stroke="#333333" stroke-width="1.2" stroke-linecap="round" stroke-linejoin="round"/>
<path d="M4.36963 13.15C5.1867 13.9677 6.22795 14.5248 7.36166 14.7506C8.49536 14.9765 9.67059 14.8611 10.7387 14.4189C11.8068 13.9768 12.7197 13.2277 13.362 12.2666C14.0044 11.3055 14.3472 10.1755 14.3472 9.01953C14.3472 7.86355 14.0044 6.73353 13.362 5.77242C12.7197 4.81132 11.8068 4.06232 10.7387 3.62016C9.67059 3.178 8.49536 3.06255 7.36166 3.28842C6.22795 3.51429 5.1867 4.07133 4.36963 4.88907L2.11182 7.14024" stroke="#333333" stroke-width="1.2" stroke-linecap="round" stroke-linejoin="round"/>
</svg>
