<svg width="26" height="24" viewBox="0 0 26 24" fill="none" xmlns="http://www.w3.org/2000/svg">
<path d="M15.8661 12H6.125C5.77982 12 5.5 11.7202 5.5 11.375C5.5 11.0298 5.77982 10.75 6.125 10.75H15.8661L13.1831 8.06694C12.939 7.82286 12.939 7.42714 13.1831 7.18306C13.4271 6.93898 13.8229 6.93898 14.0669 7.18306L17.8169 10.9331C18.061 11.1771 18.061 11.5729 17.8169 11.8169L14.0669 15.5669C13.8229 15.811 13.4271 15.811 13.1831 15.5669C12.939 15.3229 12.939 14.9271 13.1831 14.6831L15.8661 12ZM10.5 3.875C10.5 4.22018 10.2202 4.5 9.875 4.5C9.52982 4.5 9.25 4.22018 9.25 3.875C9.25 2.14911 10.6491 0.75 12.375 0.75H22.375C24.1009 0.75 25.5 2.14911 25.5 3.875V20.125C25.5 21.8509 24.1009 23.25 22.375 23.25H12.375C10.6491 23.25 9.25 21.8509 9.25 20.125C9.25 19.7798 9.52982 19.5 9.875 19.5C10.2202 19.5 10.5 19.7798 10.5 20.125C10.5 21.1605 11.3395 22 12.375 22H22.375C23.4105 22 24.25 21.1605 24.25 20.125V3.875C24.25 2.83947 23.4105 2 22.375 2H12.375C11.3395 2 10.5 2.83947 10.5 3.875ZM7.375 22C7.72018 22 8 22.2798 8 22.625C8 22.9702 7.72018 23.25 7.375 23.25H3.625C1.89911 23.25 0.5 21.8509 0.5 20.125V3.875C0.5 2.14911 1.89911 0.75 3.625 0.75H7.375C7.72018 0.75 8 1.02982 8 1.375C8 1.72018 7.72018 2 7.375 2H3.625C2.58947 2 1.75 2.83947 1.75 3.875V20.125C1.75 21.1605 2.58947 22 3.625 22H7.375Z" fill="url(#paint0_linear_483_606948)"/>
<defs>
<linearGradient id="paint0_linear_483_606948" x1="13" y1="0.75" x2="13" y2="23.25" gradientUnits="userSpaceOnUse">
<stop stop-color="#0033EA"/>
<stop offset="1" stop-color="#8A0074"/>
</linearGradient>
</defs>
</svg>
