<svg width="64" height="59" viewBox="0 0 64 59" fill="none" xmlns="http://www.w3.org/2000/svg">
<g filter="url(#filter0_dd_0_23296)">
<rect x="5" y="4" width="54" height="49" rx="6" fill="white"/>
</g>
<path d="M34.8661 29H25.125C24.7798 29 24.5 28.7202 24.5 28.375C24.5 28.0298 24.7798 27.75 25.125 27.75H34.8661L32.1831 25.0669C31.939 24.8229 31.939 24.4271 32.1831 24.1831C32.4271 23.939 32.8229 23.939 33.0669 24.1831L36.8169 27.9331C37.061 28.1771 37.061 28.5729 36.8169 28.8169L33.0669 32.5669C32.8229 32.811 32.4271 32.811 32.1831 32.5669C31.939 32.3229 31.939 31.9271 32.1831 31.6831L34.8661 29ZM29.5 20.875C29.5 21.2202 29.2202 21.5 28.875 21.5C28.5298 21.5 28.25 21.2202 28.25 20.875C28.25 19.1491 29.6491 17.75 31.375 17.75H41.375C43.1009 17.75 44.5 19.1491 44.5 20.875V37.125C44.5 38.8509 43.1009 40.25 41.375 40.25H31.375C29.6491 40.25 28.25 38.8509 28.25 37.125C28.25 36.7798 28.5298 36.5 28.875 36.5C29.2202 36.5 29.5 36.7798 29.5 37.125C29.5 38.1605 30.3395 39 31.375 39H41.375C42.4105 39 43.25 38.1605 43.25 37.125V20.875C43.25 19.8395 42.4105 19 41.375 19H31.375C30.3395 19 29.5 19.8395 29.5 20.875ZM26.375 39C26.7202 39 27 39.2798 27 39.625C27 39.9702 26.7202 40.25 26.375 40.25H22.625C20.8991 40.25 19.5 38.8509 19.5 37.125V20.875C19.5 19.1491 20.8991 17.75 22.625 17.75H26.375C26.7202 17.75 27 18.0298 27 18.375C27 18.7202 26.7202 19 26.375 19H22.625C21.5895 19 20.75 19.8395 20.75 20.875V37.125C20.75 38.1605 21.5895 39 22.625 39H26.375Z" fill="url(#paint0_linear_0_23296)"/>
<defs>
<filter id="filter0_dd_0_23296" x="0" y="0" width="64" height="59" filterUnits="userSpaceOnUse" color-interpolation-filters="sRGB">
<feFlood flood-opacity="0" result="BackgroundImageFix"/>
<feColorMatrix in="SourceAlpha" type="matrix" values="0 0 0 0 0 0 0 0 0 0 0 0 0 0 0 0 0 0 127 0" result="hardAlpha"/>
<feOffset dy="3"/>
<feGaussianBlur stdDeviation="1.5"/>
<feComposite in2="hardAlpha" operator="out"/>
<feColorMatrix type="matrix" values="0 0 0 0 0.252083 0 0 0 0 0.304792 0 0 0 0 0.366667 0 0 0 0.1 0"/>
<feBlend mode="normal" in2="BackgroundImageFix" result="effect1_dropShadow_0_23296"/>
<feColorMatrix in="SourceAlpha" type="matrix" values="0 0 0 0 0 0 0 0 0 0 0 0 0 0 0 0 0 0 127 0" result="hardAlpha"/>
<feOffset dy="1"/>
<feGaussianBlur stdDeviation="2.5"/>
<feComposite in2="hardAlpha" operator="out"/>
<feColorMatrix type="matrix" values="0 0 0 0 0 0 0 0 0 0 0 0 0 0 0 0 0 0 0.25 0"/>
<feBlend mode="normal" in2="effect1_dropShadow_0_23296" result="effect2_dropShadow_0_23296"/>
<feBlend mode="normal" in="SourceGraphic" in2="effect2_dropShadow_0_23296" result="shape"/>
</filter>
<linearGradient id="paint0_linear_0_23296" x1="32" y1="17.75" x2="32" y2="40.25" gradientUnits="userSpaceOnUse">
<stop stop-color="#000AFF"/>
<stop offset="1" stop-color="#D274FF"/>
</linearGradient>
</defs>
</svg>
