<svg width="9" height="10" viewBox="0 0 9 10" fill="none" xmlns="http://www.w3.org/2000/svg">
<path d="M1.09686 1.02519C0.883586 0.811915 0.537789 0.811915 0.324512 1.02519C0.11123 1.23847 0.11123 1.58427 0.324512 1.79754L3.47831 4.95133L0.324545 8.10509C0.111263 8.31836 0.111263 8.66417 0.324545 8.87744C0.537822 9.0907 0.883618 9.0907 1.0969 8.87744L4.25065 5.72367L7.40442 8.87744C7.61768 9.0907 7.9635 9.0907 8.17676 8.87744C8.39003 8.66417 8.39003 8.31836 8.17676 8.10509L5.023 4.95133L8.17676 1.79754C8.39008 1.58427 8.39008 1.23847 8.17676 1.02519C7.9635 0.811915 7.61774 0.811915 7.40442 1.02519L4.25065 4.17898L1.09686 1.02519Z" fill="black"/>
</svg>
