<svg width="17" height="17" viewBox="0 0 17 17" fill="none" xmlns="http://www.w3.org/2000/svg">
<path d="M4.40988 3.40777C4.13327 3.13115 3.68477 3.13115 3.40815 3.40777C3.13153 3.68438 3.13153 4.13288 3.40815 4.4095L7.4986 8.49993L3.4082 12.5903C3.13157 12.8669 3.13157 13.3155 3.4082 13.5921C3.68481 13.8687 4.13331 13.8687 4.40993 13.5921L8.50033 9.50166L12.5907 13.5921C12.8673 13.8687 13.3159 13.8687 13.5925 13.5921C13.8691 13.3155 13.8691 12.8669 13.5925 12.5903L9.50205 8.49993L13.5925 4.4095C13.8691 4.13288 13.8691 3.68438 13.5925 3.40777C13.3159 3.13115 12.8674 3.13115 12.5907 3.40777L8.50033 7.49821L4.40988 3.40777Z" fill="black"/>
</svg>
