<svg width="10" height="10" viewBox="0 0 10 10" fill="none" xmlns="http://www.w3.org/2000/svg">
<path d="M1.36855 0.366893C1.1196 0.117937 0.715952 0.117937 0.466996 0.366893C0.218033 0.61585 0.218033 1.0195 0.466996 1.26845L4.1484 4.94984L0.467034 8.63121C0.218071 8.88015 0.218071 9.28382 0.467034 9.53276C0.71599 9.78171 1.11964 9.78171 1.36859 9.53276L5.04995 5.85139L8.73132 9.53276C8.98027 9.78171 9.38393 9.78171 9.63287 9.53276C9.88182 9.28382 9.88182 8.88015 9.63287 8.63121L5.9515 4.94984L9.63287 1.26845C9.88188 1.0195 9.88188 0.61585 9.63287 0.366893C9.38393 0.117937 8.98033 0.117937 8.73132 0.366893L5.04995 4.04829L1.36855 0.366893Z" fill="white"/>
</svg>
