<svg width="14" height="14" viewBox="0 0 14 14" fill="none" xmlns="http://www.w3.org/2000/svg">
<path d="M4.09686 3.02519C3.88359 2.81192 3.53779 2.81192 3.32451 3.02519C3.11123 3.23847 3.11123 3.58427 3.32451 3.79754L6.47831 6.95133L3.32455 10.1051C3.11126 10.3184 3.11126 10.6642 3.32455 10.8774C3.53782 11.0907 3.88362 11.0907 4.0969 10.8774L7.25065 7.72367L10.4044 10.8774C10.6177 11.0907 10.9635 11.0907 11.1768 10.8774C11.39 10.6642 11.39 10.3184 11.1768 10.1051L8.023 6.95133L11.1768 3.79754C11.3901 3.58427 11.3901 3.23847 11.1768 3.02519C10.9635 2.81192 10.6177 2.81192 10.4044 3.02519L7.25065 6.17898L4.09686 3.02519Z" fill="black"/>
</svg>
