<svg width="29" height="29" viewBox="0 0 29 29" fill="none" xmlns="http://www.w3.org/2000/svg">
<rect x="16" width="12.7059" height="12.7059" rx="6.35294" fill="#F6DDEF"/>
<path d="M17.2188 3.625V9.96875H23.5625" stroke="url(#paint0_linear_70_45615)" stroke-width="1.5" stroke-linecap="round" stroke-linejoin="round"/>
<path fill-rule="evenodd" clip-rule="evenodd" d="M6.34375 4.375C6.30231 4.375 6.26257 4.39146 6.23326 4.42076C6.20396 4.45007 6.1875 4.48981 6.1875 4.53125V14.5C6.1875 14.9142 5.85171 15.25 5.4375 15.25C5.02329 15.25 4.6875 14.9142 4.6875 14.5V4.53125C4.6875 4.09198 4.862 3.67071 5.1726 3.3601C5.48321 3.0495 5.90448 2.875 6.34375 2.875H17.2188C17.4177 2.875 17.6084 2.95402 17.7491 3.09467L24.0928 9.43842C24.2335 9.57907 24.3125 9.76984 24.3125 9.96875V14.5C24.3125 14.9142 23.9767 15.25 23.5625 15.25C23.1483 15.25 22.8125 14.9142 22.8125 14.5V10.2794L16.9081 4.375H6.34375ZM4.6875 19.0312C4.6875 18.617 5.02329 18.2812 5.4375 18.2812H7.25C7.92962 18.2812 8.5814 18.5512 9.06196 19.0318C9.54252 19.5124 9.8125 20.1641 9.8125 20.8438C9.8125 21.5234 9.54252 22.1751 9.06196 22.6557C8.5814 23.1363 7.92962 23.4062 7.25 23.4062H6.1875V24.4688C6.1875 24.883 5.85171 25.2188 5.4375 25.2188C5.02329 25.2188 4.6875 24.883 4.6875 24.4688V22.6562V19.0312ZM6.1875 21.9062H7.25C7.53179 21.9062 7.80204 21.7943 8.0013 21.5951C8.20056 21.3958 8.3125 21.1255 8.3125 20.8438C8.3125 20.562 8.20056 20.2917 8.0013 20.0924C7.80204 19.8932 7.53179 19.7812 7.25 19.7812H6.1875V21.9062ZM21.2969 18.2812C20.8827 18.2812 20.5469 18.617 20.5469 19.0312V22.2031V24.4688C20.5469 24.883 20.8827 25.2188 21.2969 25.2188C21.7111 25.2188 22.0469 24.883 22.0469 24.4688V22.9531H24.0156C24.4298 22.9531 24.7656 22.6173 24.7656 22.2031C24.7656 21.7889 24.4298 21.4531 24.0156 21.4531H22.0469V19.7812H24.4688C24.883 19.7812 25.2188 19.4455 25.2188 19.0312C25.2188 18.617 24.883 18.2812 24.4688 18.2812H21.2969ZM12.9141 18.2812C12.4998 18.2812 12.1641 18.617 12.1641 19.0312V24.4688C12.1641 24.883 12.4998 25.2188 12.9141 25.2188H14.5C15.42 25.2188 16.3023 24.8533 16.9528 24.2028C17.6033 23.5523 17.9688 22.67 17.9688 21.75C17.9688 20.83 17.6033 19.9477 16.9528 19.2972C16.3023 18.6467 15.42 18.2812 14.5 18.2812H12.9141ZM13.6641 23.7188V19.7812H14.5C15.0221 19.7812 15.5229 19.9887 15.8921 20.3579C16.2613 20.7271 16.4688 21.2279 16.4688 21.75C16.4688 22.2721 16.2613 22.7729 15.8921 23.1421C15.5229 23.5113 15.0221 23.7188 14.5 23.7188H13.6641Z" fill="url(#paint1_linear_70_45615)"/>
<defs>
<linearGradient id="paint0_linear_70_45615" x1="20.3906" y1="3.625" x2="20.3906" y2="9.96875" gradientUnits="userSpaceOnUse">
<stop stop-color="#000AFF"/>
<stop offset="1" stop-color="#D274FF"/>
</linearGradient>
<linearGradient id="paint1_linear_70_45615" x1="14.9531" y1="2.875" x2="14.9531" y2="25.2188" gradientUnits="userSpaceOnUse">
<stop stop-color="#000AFF"/>
<stop offset="1" stop-color="#D274FF"/>
</linearGradient>
</defs>
</svg>
