<svg width="18" height="18" viewBox="0 0 18 18" fill="none" xmlns="http://www.w3.org/2000/svg">
<path fill-rule="evenodd" clip-rule="evenodd" d="M6.942 1.73506C7.98886 0.269403 10.1672 0.269403 11.2141 1.73506L11.3808 1.9684C11.565 2.22635 11.8744 2.36447 12.1894 2.32947L12.9323 2.24692C14.6042 2.06116 16.0169 3.47385 15.8311 5.14575L15.7486 5.88864C15.7136 6.20369 15.8517 6.51304 16.1096 6.69728L16.343 6.86396C17.8086 7.91081 17.8086 10.0891 16.343 11.1361L16.1096 11.3028C15.8517 11.4869 15.7136 11.7963 15.7486 12.1113L15.8311 12.8542C16.0169 14.5262 14.6042 15.9389 12.9323 15.7531L12.1894 15.6706C11.8744 15.6356 11.565 15.7737 11.3808 16.0316L11.2141 16.265C10.1672 17.7306 7.98895 17.7306 6.942 16.265L6.77533 16.0316C6.59108 15.7737 6.28174 15.6356 5.96669 15.6706L5.2238 15.7531C3.5519 15.9389 2.13921 14.5262 2.32497 12.8542L2.40752 12.1113C2.44252 11.7963 2.3044 11.4869 2.04645 11.3028L1.81311 11.1361C0.347452 10.0891 0.347452 7.9109 1.81311 6.86396L2.04645 6.69728C2.3044 6.51304 2.44252 6.20369 2.40752 5.88864L2.32497 5.14575C2.13921 3.47385 3.5519 2.06116 5.2238 2.24692L5.96669 2.32947C6.28174 2.36447 6.59108 2.22635 6.77533 1.9684L6.942 1.73506ZM12.3218 6.63129C12.6635 6.97301 12.6635 7.52704 12.3218 7.86873L8.98024 11.2103C8.55105 11.6395 7.85507 11.6395 7.42589 11.2103L5.83434 9.61873C5.49264 9.27704 5.49264 8.72299 5.83434 8.3813C6.17605 8.03961 6.73007 8.03961 7.07178 8.3813L8.20306 9.51259L11.0843 6.63129C11.426 6.28959 11.9801 6.28959 12.3218 6.63129Z" fill="#077E4C"/>
</svg>
