<svg width="24" height="24" viewBox="0 0 24 24" fill="none" xmlns="http://www.w3.org/2000/svg">
<path d="M14.1808 4.27574C14.5809 4.38294 14.8184 4.7942 14.7112 5.1943L10.7376 20.024C10.6303 20.4241 10.2191 20.6615 9.81901 20.5543C9.41891 20.4471 9.18148 20.0358 9.28868 19.6357L13.2623 4.80607C13.3695 4.40597 13.7807 4.16853 14.1808 4.27574Z" fill="#1C274C"/>
<path d="M16.4425 7.32738C16.7196 7.0195 17.1938 6.99454 17.5017 7.27163L19.2392 8.83537C19.9756 9.49804 20.5864 10.0478 21.0058 10.5463C21.4468 11.0706 21.7603 11.6338 21.7603 12.3291C21.7603 13.0244 21.4468 13.5877 21.0058 14.1119C20.5864 14.6105 19.9756 15.1602 19.2392 15.8229L17.5017 17.3866C17.1938 17.6637 16.7196 17.6387 16.4425 17.3309C16.1654 17.023 16.1904 16.5488 16.4983 16.2717L18.1947 14.7448C18.9826 14.0358 19.5138 13.5554 19.8579 13.1463C20.1882 12.7537 20.2603 12.5246 20.2603 12.3291C20.2603 12.1337 20.1882 11.9045 19.8579 11.5119C19.5138 11.1029 18.9826 10.6225 18.1947 9.9134L16.4983 8.38657C16.1904 8.10948 16.1654 7.63526 16.4425 7.32738Z" fill="#1C274C"/>
<path d="M7.50178 8.38657C7.80966 8.10948 7.83462 7.63526 7.55752 7.32738C7.28043 7.0195 6.80621 6.99454 6.49833 7.27163L4.76084 8.83537C4.0245 9.49804 3.41369 10.0478 2.99428 10.5463C2.55325 11.0706 2.23975 11.6338 2.23975 12.3291C2.23975 13.0244 2.55325 13.5877 2.99428 14.1119C3.41369 14.6105 4.02449 15.1602 4.76082 15.8228L6.49833 17.3866C6.80621 17.6637 7.28043 17.6387 7.55752 17.3309C7.83462 17.023 7.80966 16.5488 7.50178 16.2717L5.80531 14.7448C5.01743 14.0358 4.48623 13.5554 4.14213 13.1463C3.81188 12.7537 3.73975 12.5246 3.73975 12.3291C3.73975 12.1337 3.81188 11.9045 4.14213 11.5119C4.48623 11.1029 5.01743 10.6225 5.80531 9.9134L7.50178 8.38657Z" fill="#1C274C"/>
</svg>
