<svg width="21" height="21" viewBox="0 0 21 21" fill="none" xmlns="http://www.w3.org/2000/svg">
<g clip-path="url(#clip0_2846_46756)">
<path d="M11.8125 15.75C11.8125 15.0251 11.2249 14.4375 10.5 14.4375C9.77513 14.4375 9.1875 15.0251 9.1875 15.75C9.1875 16.4749 9.77513 17.0625 10.5 17.0625C11.2249 17.0625 11.8125 16.4749 11.8125 15.75Z" fill="black"/>
<path d="M11.8125 10.5C11.8125 9.77513 11.2249 9.1875 10.5 9.1875C9.77513 9.1875 9.1875 9.77513 9.1875 10.5C9.1875 11.2249 9.77513 11.8125 10.5 11.8125C11.2249 11.8125 11.8125 11.2249 11.8125 10.5Z" fill="black"/>
<path d="M11.8125 5.25C11.8125 4.52513 11.2249 3.9375 10.5 3.9375C9.77513 3.9375 9.1875 4.52513 9.1875 5.25C9.1875 5.97487 9.77513 6.5625 10.5 6.5625C11.2249 6.5625 11.8125 5.97487 11.8125 5.25Z" fill="black"/>
</g>
<defs>
<clipPath id="clip0_2846_46756">
<rect width="21" height="21" fill="white" transform="matrix(0 -1 1 0 0 21)"/>
</clipPath>
</defs>
</svg>
