<svg width="21" height="22" viewBox="0 0 21 22" fill="none" xmlns="http://www.w3.org/2000/svg">
<path d="M0 6.09375C0 2.78004 2.68629 0.09375 6 0.09375H15C18.3137 0.09375 21 2.78004 21 6.09375V21.0938H6C2.68629 21.0938 0 18.4075 0 15.0938V6.09375Z" fill="url(#paint0_linear_52_6550)"/>
<path d="M10.559 14.7013C9.62551 14.7013 8.73027 14.3217 8.0702 13.6461C7.41013 12.9704 7.03931 12.0541 7.03931 11.0986C7.03931 11.003 7.07639 10.9114 7.1424 10.8438C7.2084 10.7762 7.29793 10.7383 7.39127 10.7383C7.48462 10.7383 7.57415 10.7762 7.64015 10.8438C7.70616 10.9114 7.74324 11.003 7.74324 11.0986C7.74324 11.863 8.0399 12.5961 8.56796 13.1366C9.09601 13.6771 9.81221 13.9807 10.559 13.9807C11.3058 13.9807 12.022 13.6771 12.55 13.1366C13.0781 12.5961 13.3747 11.863 13.3747 11.0986C13.3747 11.003 13.4118 10.9114 13.4778 10.8438C13.5438 10.7762 13.6334 10.7383 13.7267 10.7383C13.8201 10.7383 13.9096 10.7762 13.9756 10.8438C14.0416 10.9114 14.0787 11.003 14.0787 11.0986C14.0787 12.0541 13.7078 12.9704 13.0478 13.6461C12.3877 14.3217 11.4925 14.7013 10.559 14.7013Z" fill="white"/>
<path d="M10.559 16.1416C10.4657 16.1416 10.3761 16.1037 10.3101 16.0361C10.2441 15.9685 10.207 15.8769 10.207 15.7813V14.3403C10.207 14.2447 10.2441 14.1531 10.3101 14.0855C10.3761 14.0179 10.4657 13.98 10.559 13.98C10.6523 13.98 10.7419 14.0179 10.8079 14.0855C10.8739 14.1531 10.911 14.2447 10.911 14.3403V15.7813C10.911 15.8769 10.8739 15.9685 10.8079 16.0361C10.7419 16.1037 10.6523 16.1416 10.559 16.1416Z" fill="white"/>
<path d="M10.5591 13.26C9.99899 13.26 9.46184 13.0322 9.0658 12.6269C8.66976 12.2215 8.44727 11.6717 8.44727 11.0984V7.49562C8.44727 6.92232 8.66976 6.3725 9.0658 5.96711C9.46184 5.56173 9.99899 5.33398 10.5591 5.33398C11.1192 5.33398 11.6563 5.56173 12.0523 5.96711C12.4484 6.3725 12.6709 6.92232 12.6709 7.49562V11.0984C12.6709 11.6717 12.4484 12.2215 12.0523 12.6269C11.6563 13.0322 11.1192 13.26 10.5591 13.26ZM10.5591 6.05453C10.1857 6.05453 9.82759 6.20636 9.56356 6.47662C9.29953 6.74687 9.1512 7.11342 9.1512 7.49562V11.0984C9.1512 11.4806 9.29953 11.8471 9.56356 12.1174C9.82759 12.3876 10.1857 12.5394 10.5591 12.5394C10.9325 12.5394 11.2906 12.3876 11.5546 12.1174C11.8186 11.8471 11.9669 11.4806 11.9669 11.0984V7.49562C11.9669 7.11342 11.8186 6.74687 11.5546 6.47662C11.2906 6.20636 10.9325 6.05453 10.5591 6.05453Z" fill="white"/>
<defs>
<linearGradient id="paint0_linear_52_6550" x1="21.2477" y1="23.4501" x2="1.91415" y2="3.92198" gradientUnits="userSpaceOnUse">
<stop stop-color="#63C7FF"/>
<stop offset="1" stop-color="#0094FF"/>
</linearGradient>
</defs>
</svg>
