<svg width="28" height="30" viewBox="0 0 28 30" fill="none" xmlns="http://www.w3.org/2000/svg">
<g clip-path="url(#clip0_93_49760)">
<path fill-rule="evenodd" clip-rule="evenodd" d="M16.1873 0H26.2561C27.1535 0 27.8808 0.779221 27.8808 1.74069V7.74257C27.8808 8.70404 27.1535 9.48326 26.2561 9.48326H22.9822L17.8079 12.6195C17.78 12.6366 17.7491 12.6449 17.7185 12.6449C17.6761 12.6449 17.6342 12.6289 17.6005 12.5981C17.5421 12.5454 17.5212 12.4589 17.5476 12.3823L18.553 9.48332H16.1873C15.2899 9.48332 14.5626 8.7041 14.5626 7.74263V1.74069C14.5626 0.779221 15.2899 0 16.1873 0ZM17.3419 1.07143H25.6581C26.3992 1.07143 27 1.59963 27 2.25137V7.39122C27 8.04295 26.3993 8.57115 25.6581 8.57115L22.5 8.57143L19.6804 10.6971C19.6574 10.7087 19.6318 10.7143 19.6066 10.7143C19.5716 10.7143 19.537 10.7034 19.5091 10.6826C19.4609 10.6468 19.4436 10.5882 19.4655 10.5363L20.2958 8.57119H17.3419C16.6007 8.57119 16 8.04299 16 7.39126V2.25137C16 1.59963 16.6007 1.07143 17.3419 1.07143ZM23.8827 23.8883H3.62695C2.59466 23.8883 1.75793 22.9918 1.75793 21.8859V7.92391C1.75793 6.81794 2.59472 5.92145 3.62695 5.92145H12.6959V7.92143H3.62695L3.62459 21.8859L23.8827 21.8883L23.8841 15H25.7517V21.8859C25.7517 22.9918 24.9149 23.8883 23.8827 23.8883ZM24.6123 24.8837C25.3821 24.8837 26.073 25.3892 26.3532 26.1572L27.3371 28.8545C27.4315 29.1128 27.4004 29.4042 27.2542 29.6338C27.1084 29.8628 26.8659 30 26.607 30H0.903055C0.644249 30 0.401731 29.8628 0.255927 29.6338C0.109559 29.4042 0.0786172 29.1128 0.172964 28.8545L1.15679 26.1572C1.43712 25.3892 2.12799 24.8837 2.89781 24.8837H24.6123ZM24.85 12.7C25.3194 12.7 25.7 12.3194 25.7 11.85C25.7 11.3806 25.3194 11 24.85 11C24.3806 11 24 11.3806 24 11.85C24 12.3194 24.3806 12.7 24.85 12.7Z" fill="url(#paint0_linear_93_49760)"/>
</g>
<path d="M10.5565 15.0062H13.9682C13.6497 16.4857 12.6414 17.3368 11.1933 17.3368C9.32828 17.3368 8.12282 16.0005 8.12282 13.9404C8.12282 11.928 9.3207 10.5678 11.1099 10.5678C12.1562 10.5678 12.975 11.0371 13.4147 11.8961L13.4223 11.912H15.7801L15.765 11.8643C15.1281 9.80419 13.3844 8.57129 11.1024 8.57129C9.69219 8.57129 8.40334 9.10422 7.46323 10.0746C6.51554 11.053 6 12.4291 6 13.9324C6 17.0345 8.15315 19.2856 11.1175 19.2856C11.2616 19.2856 11.398 19.2776 11.5345 19.2697C14.0364 19.0708 16 16.8198 16 14.1472V13.3279H10.5489V15.0062H10.5565Z" fill="url(#paint1_linear_93_49760)"/>
<defs>
<linearGradient id="paint0_linear_93_49760" x1="14" y1="0" x2="14" y2="30" gradientUnits="userSpaceOnUse">
<stop stop-color="#000AFF"/>
<stop offset="1" stop-color="#D274FF"/>
</linearGradient>
<linearGradient id="paint1_linear_93_49760" x1="11" y1="8.57129" x2="11" y2="19.2856" gradientUnits="userSpaceOnUse">
<stop stop-color="#EC78FF"/>
<stop offset="1" stop-color="#B032FE"/>
</linearGradient>
<clipPath id="clip0_93_49760">
<rect width="28" height="30" fill="white"/>
</clipPath>
</defs>
</svg>
