<svg width="29" height="28" viewBox="0 0 29 28" fill="none" xmlns="http://www.w3.org/2000/svg">
<g id="Group 1707481000">
<g id="Group 1707481003">
<g id="Group">
<path id="Vector" d="M15.1504 26.0668C14.9625 26.0668 14.7833 26.0146 14.6211 25.9188C14.3735 25.7708 14.2027 25.5357 14.1344 25.257C14.0661 24.9784 14.1003 24.691 14.2454 24.4385C14.3905 24.186 14.6211 24.0118 14.8942 23.9421C15.1674 23.8725 15.4492 23.9073 15.6968 24.0553C15.9443 24.2034 16.1151 24.4385 16.1834 24.7171C16.2517 24.9958 16.2175 25.2831 16.0724 25.5357C15.9273 25.7882 15.6968 25.9623 15.4236 26.032C15.3382 26.0581 15.2443 26.0668 15.1589 26.0668H15.1504ZM15.1504 24.5691C15.1504 24.5691 15.0821 24.5691 15.0479 24.5865C14.9455 24.6126 14.8516 24.6823 14.8003 24.7781C14.7491 24.8739 14.732 24.9871 14.7576 25.0916C14.7833 25.1961 14.8516 25.2918 14.9455 25.3441C15.0394 25.3963 15.1504 25.4138 15.2528 25.3876C15.3553 25.3615 15.4492 25.2918 15.5004 25.1961C15.5516 25.1003 15.5687 24.9871 15.5431 24.8826C15.5175 24.7781 15.4492 24.6823 15.3553 24.6301C15.2955 24.5952 15.2187 24.5691 15.1504 24.5691Z" fill="#950019"/>
<path id="Vector_2" d="M25.6426 11.4204C25.9926 11.4204 26.2573 11.0895 26.1804 10.7412C24.9852 5.42073 20.2982 1.43257 14.7234 1.43257C9.14849 1.43257 4.46151 5.41202 3.26629 10.7412C3.18945 11.0895 3.45411 11.4204 3.80414 11.4204C4.06026 11.4204 4.28223 11.2375 4.34199 10.985C5.42623 6.16089 9.66927 2.55587 14.7319 2.55587C19.7945 2.55587 24.029 6.16089 25.1218 10.985C25.1816 11.2375 25.4035 11.4204 25.6597 11.4204H25.6426Z" fill="#FF8B00"/>
<path id="Vector_3" d="M24.3026 18.1863C22.9964 20.9118 20.6059 22.993 17.7032 23.8551C17.4813 23.9247 17.2764 24.1685 17.2764 24.4123C17.2764 24.7781 17.6264 25.048 17.9679 24.9435C21.1865 23.9944 23.8416 21.6781 25.2929 18.6565C25.4637 18.2908 25.2075 17.8728 24.8148 17.8728H24.7892C24.5843 17.8728 24.3965 17.9947 24.3026 18.1863Z" fill="#FF0033"/>
<g id="Group_2">
<path id="Vector_4" d="M4.75841 12.4131C4.75841 12.139 4.54054 11.9167 4.27178 11.9167C4.00303 11.9167 3.78516 12.139 3.78516 12.4131V16.5493C3.78516 16.8234 4.00303 17.0456 4.27178 17.0456C4.54054 17.0456 4.75841 16.8234 4.75841 16.5493V12.4131Z" fill="#FFC251"/>
<path id="Vector_5" d="M3.44493 13.7367C3.44493 13.4625 3.22706 13.2403 2.95831 13.2403C2.68955 13.2403 2.47168 13.4625 2.47168 13.7367V15.3911C2.47168 15.6653 2.68955 15.8875 2.95831 15.8875C3.22706 15.8875 3.44493 15.6653 3.44493 15.3911V13.7367Z" fill="#FFC251"/>
</g>
<g id="Group_3">
<path id="Vector_6" d="M25.5055 12.4131C25.5055 12.139 25.2876 11.9167 25.0189 11.9167C24.7501 11.9167 24.5322 12.139 24.5322 12.4131V16.5493C24.5322 16.8234 24.7501 17.0456 25.0189 17.0456C25.2876 17.0456 25.5055 16.8234 25.5055 16.5493V12.4131Z" fill="#FF4C2A"/>
<path id="Vector_7" d="M26.8209 13.7367C26.8209 13.4625 26.603 13.2403 26.3343 13.2403C26.0655 13.2403 25.8477 13.4625 25.8477 13.7367V15.3911C25.8477 15.6653 26.0655 15.8875 26.3343 15.8875C26.603 15.8875 26.8209 15.6653 26.8209 15.3911V13.7367Z" fill="#FF4C2A"/>
</g>
</g>
<path id="Vector_8" d="M14.7063 8.09402C12.0085 8.09402 9.81445 10.3319 9.81445 13.0836C9.81445 15.8352 12.0085 18.0731 14.7063 18.0731C15.6369 18.0731 16.5077 17.8032 17.2505 17.3417L19.5811 18.3692H19.5982V13.0923C19.5982 10.3406 17.4041 8.10273 14.7063 8.10273V8.09402ZM17.148 16.079L17.1139 16.1574L17.0456 16.1226C16.3967 16.6451 15.5857 16.9498 14.7063 16.9498C12.6147 16.9498 10.9158 15.217 10.9158 13.0836C10.9158 10.9502 12.6147 9.21733 14.7063 9.21733C16.687 9.21733 18.3176 10.776 18.4884 12.7614V13.4058C18.4884 13.458 18.4798 13.5103 18.4713 13.5625L18.4884 13.5451V16.6625L17.148 16.079Z" fill="#CC0033"/>
</g>
</g>
</svg>
