<svg width="45" height="40" viewBox="0 0 45 40" fill="none" xmlns="http://www.w3.org/2000/svg">
<path d="M0 6C0 2.68629 2.68629 0 6 0H17.4667C20.7804 0 23.4667 2.68629 23.4667 6V15.5111C23.4667 18.8248 20.7804 21.5111 17.4667 21.5111H0V6Z" fill="#FFDAFF"/>
<path d="M11.7343 12.5745C12.5066 12.5745 13.1326 11.9484 13.1326 11.1762C13.1326 10.4039 12.5066 9.77783 11.7343 9.77783C10.962 9.77783 10.3359 10.4039 10.3359 11.1762C10.3359 11.9484 10.962 12.5745 11.7343 12.5745Z" fill="#E570FF"/>
<path d="M6.28701 12.5745C7.05929 12.5745 7.68534 11.9484 7.68534 11.1762C7.68534 10.4039 7.05929 9.77783 6.28701 9.77783C5.51473 9.77783 4.88867 10.4039 4.88867 11.1762C4.88867 11.9484 5.51473 12.5745 6.28701 12.5745Z" fill="#E570FF"/>
<path d="M17.1796 12.5745C17.9519 12.5745 18.5779 11.9484 18.5779 11.1762C18.5779 10.4039 17.9519 9.77783 17.1796 9.77783C16.4073 9.77783 15.7812 10.4039 15.7812 11.1762C15.7812 11.9484 16.4073 12.5745 17.1796 12.5745Z" fill="#E570FF"/>
<path d="M11.7363 15.8442C11.7363 10.8737 15.7658 6.84424 20.7363 6.84424H35.003C39.9736 6.84424 44.003 10.8737 44.003 15.8442V39.1109H20.7363C15.7658 39.1109 11.7363 35.0815 11.7363 30.1109V15.8442Z" fill="url(#paint0_linear_601_5324)"/>
<path d="M27.8177 31.7501C27.6506 31.7501 27.4903 31.6837 27.3721 31.5655C27.2539 31.4473 27.1875 31.287 27.1875 31.1199C27.1875 30.9527 27.2539 30.7924 27.3721 30.6742C27.4903 30.5561 27.6506 30.4897 27.8177 30.4897C29.2523 30.4912 30.6577 30.0846 31.8699 29.3175C31.9392 29.264 32.0189 29.2255 32.1039 29.2044C32.189 29.1834 32.2774 29.1804 32.3637 29.1954C32.4499 29.2105 32.5321 29.2434 32.6049 29.292C32.6778 29.3406 32.7397 29.4038 32.7867 29.4777C32.8338 29.5516 32.8649 29.6344 32.8781 29.721C32.8914 29.8075 32.8864 29.8959 32.8636 29.9804C32.8408 30.065 32.8006 30.1438 32.7456 30.212C32.6907 30.2801 32.6221 30.3361 32.5443 30.3762C31.1324 31.2765 29.4922 31.7533 27.8177 31.7501Z" fill="white"/>
<path d="M34.7487 27.9248C34.6361 27.925 34.5255 27.895 34.4283 27.838C34.3312 27.781 34.2512 27.699 34.1965 27.6006C34.1418 27.5022 34.1145 27.3909 34.1174 27.2783C34.1203 27.1658 34.1533 27.056 34.213 26.9605C34.9745 25.7531 35.3787 24.3547 35.3789 22.9272C35.3789 22.7601 35.4453 22.5998 35.5635 22.4816C35.6816 22.3634 35.8419 22.297 36.0091 22.297C36.1762 22.297 36.3365 22.3634 36.4547 22.4816C36.5729 22.5998 36.6393 22.7601 36.6393 22.9272C36.6399 24.5907 36.1702 26.2205 35.2843 27.6286C35.2276 27.7194 35.1486 27.7942 35.0549 27.8461C34.9611 27.8979 34.8558 27.925 34.7487 27.9248Z" fill="white"/>
<path d="M27.8171 31.7501C26.0721 31.7501 24.3662 31.2326 22.9153 30.2632C21.4644 29.2937 20.3335 27.9157 19.6657 26.3036C18.998 24.6914 18.8232 22.9174 19.1637 21.2059C19.5041 19.4944 20.3444 17.9223 21.5783 16.6884C22.8122 15.4545 24.3843 14.6142 26.0958 14.2738C27.8073 13.9333 29.5813 14.1081 31.1934 14.7759C32.8056 15.4436 34.1836 16.5745 35.153 18.0254C36.1225 19.4763 36.64 21.1822 36.64 22.9272C36.64 23.0943 36.5736 23.2546 36.4554 23.3728C36.3372 23.491 36.1769 23.5574 36.0098 23.5574C35.8426 23.5574 35.6823 23.491 35.5641 23.3728C35.446 23.2546 35.3796 23.0943 35.3796 22.9272C35.3796 21.4314 34.936 19.9693 34.1051 18.7257C33.2741 17.482 32.093 16.5127 30.7111 15.9403C29.3292 15.3679 27.8087 15.2182 26.3417 15.51C24.8747 15.8018 23.5272 16.522 22.4696 17.5797C21.4119 18.6373 20.6917 19.9848 20.3999 21.4518C20.1081 22.9188 20.2578 24.4393 20.8302 25.8212C21.4026 27.2031 22.3719 28.3842 23.6156 29.2152C24.8592 30.0461 26.3213 30.4897 27.8171 30.4897C27.9842 30.4897 28.1445 30.5561 28.2627 30.6743C28.3809 30.7924 28.4473 30.9527 28.4473 31.1199C28.4473 31.287 28.3809 31.4473 28.2627 31.5655C28.1445 31.6837 27.9842 31.7501 27.8171 31.7501Z" fill="white"/>
<path d="M36.0107 31.75C35.9424 31.7483 35.8746 31.7377 35.809 31.7185L32.0277 30.4581C31.9491 30.4316 31.8765 30.3899 31.814 30.3354C31.7515 30.2808 31.7003 30.2145 31.6635 30.1402C31.6266 30.0658 31.6047 29.985 31.5991 29.9022C31.5935 29.8194 31.6042 29.7364 31.6307 29.6577C31.6572 29.5791 31.6989 29.5065 31.7535 29.444C31.808 29.3815 31.8743 29.3303 31.9487 29.2935C32.023 29.2566 32.1038 29.2347 32.1866 29.2291C32.2694 29.2235 32.3525 29.2342 32.4311 29.2607L36.2123 30.5211C36.2939 30.5441 36.37 30.5834 36.436 30.6365C36.5021 30.6896 36.5568 30.7555 36.5968 30.8302C36.6368 30.9049 36.6613 30.9869 36.6689 31.0713C36.6765 31.1558 36.6669 31.2408 36.6409 31.3215C36.597 31.4519 36.5117 31.5644 36.3979 31.6418C36.2841 31.7192 36.1481 31.7572 36.0107 31.75Z" fill="white"/>
<path d="M36.0094 31.75C35.8772 31.7503 35.7484 31.7091 35.6409 31.6322C35.5335 31.5553 35.4529 31.4466 35.4107 31.3215L34.1502 27.5402C34.1238 27.4616 34.113 27.3785 34.1186 27.2957C34.1243 27.213 34.1461 27.1321 34.183 27.0578C34.2199 26.9835 34.271 26.9171 34.3335 26.8626C34.396 26.808 34.4686 26.7663 34.5473 26.7398C34.6259 26.7134 34.709 26.7026 34.7917 26.7082C34.8745 26.7139 34.9554 26.7357 35.0297 26.7726C35.104 26.8095 35.1703 26.8606 35.2249 26.9231C35.2794 26.9856 35.3212 27.0582 35.3476 27.1369L36.6081 30.9181C36.6397 30.9986 36.6545 31.0847 36.6514 31.1711C36.6484 31.2575 36.6276 31.3423 36.5904 31.4204C36.5531 31.4984 36.5002 31.5679 36.435 31.6246C36.3697 31.6813 36.2935 31.724 36.211 31.75C36.1441 31.7586 36.0763 31.7586 36.0094 31.75Z" fill="white"/>
<path d="M27.4955 23.6574H29.9724C29.7412 24.6599 29.0092 25.2366 27.9579 25.2366C26.6038 25.2366 25.7287 24.3312 25.7287 22.9352C25.7287 21.5716 26.5983 20.6499 27.8973 20.6499C28.6569 20.6499 29.2513 20.9679 29.5706 21.55L29.5761 21.5608H31.2879L31.2769 21.5285C30.8145 20.1325 29.5486 19.2971 27.8918 19.2971C26.868 19.2971 25.9323 19.6582 25.2498 20.3158C24.5618 20.9787 24.1875 21.9111 24.1875 22.9298C24.1875 25.0318 25.7507 26.5571 27.9028 26.5571C28.0074 26.5571 28.1065 26.5517 28.2055 26.5463C30.0219 26.4116 31.4475 24.8863 31.4475 23.0753V22.5202H27.49V23.6574H27.4955Z" fill="white"/>
<defs>
<linearGradient id="paint0_linear_601_5324" x1="27.8697" y1="6.84424" x2="27.8697" y2="39.1109" gradientUnits="userSpaceOnUse">
<stop stop-color="#EC78FF"/>
<stop offset="1" stop-color="#B032FE"/>
</linearGradient>
</defs>
</svg>
