<svg width="43" height="43" viewBox="0 0 43 43" fill="none" xmlns="http://www.w3.org/2000/svg">
<path d="M1 10C1 5.02945 5.02944 1 10 1H32.9746C37.9452 1 41.9747 5.02944 41.9747 10V41.3334H10C5.02945 41.3334 1 37.304 1 32.3334V10Z" fill="url(#paint0_linear_385_28950)"/>
<path d="M21.0468 31.4688H30.5964C30.7114 31.4703 30.8255 31.4488 30.932 31.4055C31.0385 31.3622 31.1353 31.298 31.2166 31.2167C31.2979 31.1354 31.3621 31.0386 31.4054 30.9321C31.4487 30.8256 31.4702 30.7115 31.4687 30.5965V21.0469C31.4687 18.2828 30.3707 15.632 28.4162 13.6775C26.4617 11.723 23.8109 10.625 21.0468 10.625V10.625C19.6782 10.625 18.323 10.8946 17.0585 11.4183C15.7941 11.9421 14.6452 12.7097 13.6774 13.6775C12.7097 14.6453 11.942 15.7942 11.4182 17.0586C10.8945 18.323 10.6249 19.6783 10.6249 21.0469V21.0469C10.6249 22.4155 10.8945 23.7707 11.4182 25.0352C11.942 26.2996 12.7097 27.4485 13.6774 28.4163C14.6452 29.384 15.7941 30.1517 17.0585 30.6754C18.323 31.1992 19.6782 31.4688 21.0468 31.4688V31.4688Z" stroke="white" stroke-width="1.5" stroke-linecap="round" stroke-linejoin="round"/>
<path d="M21.0469 22.6328C20.4212 22.6328 19.9141 22.1256 19.9141 21.5C19.9141 20.8744 20.4212 20.3672 21.0469 20.3672C21.6725 20.3672 22.1797 20.8744 22.1797 21.5C22.1797 22.1256 21.6725 22.6328 21.0469 22.6328Z" fill="white"/>
<path d="M15.6094 22.6328C14.9837 22.6328 14.4766 22.1256 14.4766 21.5C14.4766 20.8744 14.9837 20.3672 15.6094 20.3672C16.235 20.3672 16.7422 20.8744 16.7422 21.5C16.7422 22.1256 16.235 22.6328 15.6094 22.6328Z" fill="white"/>
<path d="M26.4844 22.6328C25.8587 22.6328 25.3516 22.1256 25.3516 21.5C25.3516 20.8744 25.8587 20.3672 26.4844 20.3672C27.11 20.3672 27.6172 20.8744 27.6172 21.5C27.6172 22.1256 27.11 22.6328 26.4844 22.6328Z" fill="white"/>
<defs>
<linearGradient id="paint0_linear_385_28950" x1="-1.87135" y1="-0.435676" x2="38.3276" y2="41.1989" gradientUnits="userSpaceOnUse">
<stop stop-color="#E125FF"/>
<stop offset="1" stop-color="#C972FF"/>
</linearGradient>
</defs>
</svg>
