<svg width="30" height="30" viewBox="0 0 30 30" fill="none" xmlns="http://www.w3.org/2000/svg">
<path d="M0.995361 9.75244C0.995361 4.78188 5.0248 0.752441 9.99536 0.752441H20.6555C25.6261 0.752441 29.6555 4.78188 29.6555 9.75244V29.9161H9.99536C5.0248 29.9161 0.995361 25.8866 0.995361 20.9161V9.75244Z" fill="url(#paint0_linear_388_23102)"/>
<path d="M19.6048 18.7643L19.9413 18.9635L20.2594 18.736C20.5065 18.5592 20.8023 18.4634 21.106 18.4618C21.4136 18.4607 21.7138 18.5562 21.9642 18.7347C22.2147 18.9134 22.4028 19.1662 22.5019 19.4574L23.0699 19.2641L22.5019 19.4574C22.6011 19.7487 22.6062 20.0638 22.5167 20.3581C22.4272 20.6525 22.2475 20.9114 22.003 21.0981C21.7585 21.2849 21.4615 21.3902 21.154 21.3991C20.8464 21.4081 20.5438 21.3202 20.2889 21.148C20.034 20.9757 19.8395 20.7278 19.7331 20.4391C19.6266 20.1504 19.6135 19.8356 19.6955 19.539L19.8176 19.0978L19.4243 18.8636L17.8381 17.9187L17.4382 17.6805L17.108 18.0087C16.7036 18.4107 16.1565 18.6364 15.5862 18.6364C15.0159 18.6364 14.4688 18.4107 14.0644 18.0087L13.7343 17.6805L13.3343 17.9187L11.7481 18.8636L11.349 19.1013L11.4792 19.5472C11.516 19.6733 11.5358 19.8036 11.5379 19.9349C11.5371 20.224 11.451 20.5065 11.2904 20.7469C11.129 20.9885 10.8995 21.1768 10.6311 21.288C10.3627 21.3991 10.0673 21.4282 9.78239 21.3715L9.66533 21.96L9.78239 21.3715C9.49744 21.3149 9.23569 21.175 9.03025 20.9695C8.82481 20.7641 8.68491 20.5023 8.62823 20.2174C8.57155 19.9324 8.60064 19.637 8.71182 19.3686C8.823 19.1002 9.01129 18.8708 9.25286 18.7094C9.49402 18.5482 9.77748 18.4621 10.0675 18.4618C10.3709 18.4637 10.6662 18.5595 10.913 18.736L11.2311 18.9635L11.5677 18.7643L13.2573 17.7643L13.6698 17.5202L13.5228 17.064C13.462 16.8753 13.4299 16.6786 13.4276 16.4805C13.43 16.0045 13.5897 15.5426 13.8818 15.1667C14.1747 14.7898 14.5844 14.5206 15.0466 14.4013L15.4966 14.2851V13.8204V12.2203V11.7961L15.0966 11.6547C14.7699 11.5391 14.4945 11.3119 14.3192 11.013C14.1438 10.7141 14.0798 10.3628 14.1384 10.0213C14.197 9.67972 14.3744 9.3699 14.6394 9.14654C14.9043 8.92319 15.2397 8.80068 15.5862 8.80068C15.9327 8.80068 16.2681 8.92319 16.533 9.14654C16.798 9.3699 16.9754 9.67972 17.034 10.0213C17.0926 10.3628 17.0286 10.7141 16.8533 11.013L17.3708 11.3165L16.8533 11.013C16.6779 11.3119 16.4026 11.5391 16.0759 11.6547L15.6759 11.7961V12.2203V13.8204V14.2851L16.1259 14.4013C16.5881 14.5206 16.9977 14.7898 17.2906 15.1667C17.5827 15.5426 17.7424 16.0045 17.7448 16.4804C17.7425 16.6786 17.7104 16.8753 17.6496 17.064L17.5026 17.5202L17.9151 17.7643L19.6048 18.7643ZM14.5139 10.992L15.0128 10.6586L14.5139 10.992C14.6556 11.2041 14.857 11.3694 15.0927 11.467L15.3223 10.9127L15.0927 11.467C15.3283 11.5646 15.5876 11.5901 15.8378 11.5404C16.088 11.4906 16.3178 11.3678 16.4981 11.1874C16.6785 11.0071 16.8013 10.7773 16.8511 10.5271C16.9008 10.2769 16.8753 10.0176 16.7777 9.78196C16.6801 9.5463 16.5148 9.34488 16.3027 9.20317L15.9789 9.68778L16.3027 9.20317C16.0906 9.06146 15.8413 8.98582 15.5862 8.98582C15.2442 8.98582 14.9161 9.1217 14.6743 9.36356C14.4324 9.60542 14.2966 9.93345 14.2966 10.2755C14.2966 10.5306 14.3722 10.7799 14.5139 10.992ZM8.80409 19.6792L9.38906 19.7955L8.80409 19.6792C8.75433 19.9293 8.77987 20.1887 8.87748 20.4243C8.97509 20.66 9.14038 20.8614 9.35247 21.0031C9.56455 21.1448 9.81389 21.2204 10.069 21.2204C10.411 21.2204 10.739 21.0846 10.9809 20.8427C11.2227 20.6008 11.3586 20.2728 11.3586 19.9308C11.3586 19.6757 11.283 19.4264 11.1413 19.2143C10.9996 19.0022 10.7982 18.8369 10.5625 18.7393C10.3268 18.6417 10.0675 18.6161 9.81737 18.6659C9.5672 18.7157 9.3374 18.8385 9.15704 19.0189C8.97668 19.1992 8.85385 19.429 8.80409 19.6792ZM14.4866 18.1282C14.8121 18.3457 15.1947 18.4618 15.5862 18.4618C16.1112 18.4618 16.6146 18.2533 16.9858 17.8821C17.357 17.5109 17.5655 17.0074 17.5655 16.4825C17.5655 16.091 17.4494 15.7083 17.2319 15.3828C17.0145 15.0573 16.7053 14.8036 16.3437 14.6538C15.982 14.504 15.584 14.4648 15.2001 14.5412C14.8161 14.6175 14.4634 14.8061 14.1866 15.0829C13.9098 15.3597 13.7213 15.7124 13.6449 16.0963C13.5686 16.4803 13.6078 16.8782 13.7576 17.2399C13.9074 17.6016 14.1611 17.9107 14.4866 18.1282ZM20.387 21.0031C20.599 21.1448 20.8484 21.2204 21.1034 21.2204C21.4455 21.2204 21.7735 21.0846 22.0154 20.8427C22.2572 20.6008 22.3931 20.2728 22.3931 19.9308C22.3931 19.6757 22.3175 19.4264 22.1758 19.2143C22.0341 19.0022 21.8326 18.8369 21.597 18.7393C21.3613 18.6417 21.102 18.6161 20.8519 18.6659C20.6017 18.7157 20.3719 18.8385 20.1915 19.0189C20.0112 19.1992 19.8883 19.429 19.8386 19.6792C19.7888 19.9294 19.8144 20.1887 19.912 20.4243C20.0096 20.66 20.1749 20.8614 20.387 21.0031Z" stroke="white" stroke-width="1.2"/>
<defs>
<linearGradient id="paint0_linear_388_23102" x1="29.9935" y1="33.1884" x2="3.1436" y2="6.53645" gradientUnits="userSpaceOnUse">
<stop stop-color="#707DF1"/>
<stop offset="1" stop-color="#4356FD"/>
</linearGradient>
</defs>
</svg>
