<svg width="20" height="21" viewBox="0 0 20 21" fill="none" xmlns="http://www.w3.org/2000/svg">
<path d="M11.0446 3.88489H11.0397C10.8339 3.88489 10.667 4.05175 10.667 4.25759V11.8981C10.667 12.1039 10.8339 12.2708 11.0397 12.2708H11.0446C11.2504 12.2708 11.4173 12.1039 11.4173 11.8981V4.25759C11.4173 4.05175 11.2504 3.88489 11.0446 3.88489Z" fill="#6EE8DC"/>
<path d="M13.4391 5.53284H13.4342C13.2284 5.53284 13.0615 5.6997 13.0615 5.90554V11.0156C13.0615 11.2214 13.2284 11.3883 13.4342 11.3883H13.4391C13.645 11.3883 13.8118 11.2214 13.8118 11.0156V5.90554C13.8118 5.6997 13.645 5.53284 13.4391 5.53284Z" fill="#93F7E6"/>
<path d="M6.25261 5.56213H6.24771C6.04187 5.56213 5.875 5.729 5.875 5.93484V11.8932C5.875 12.0991 6.04187 12.266 6.24771 12.266H6.25261C6.45845 12.266 6.62532 12.0991 6.62532 11.8932V5.93484C6.62532 5.729 6.45845 5.56213 6.25261 5.56213Z" fill="#00C7B1"/>
<path d="M3.86003 7.92566H3.85513C3.64929 7.92566 3.48242 8.09253 3.48242 8.29837V8.45039C3.48242 8.65623 3.64929 8.8231 3.85513 8.8231H3.86003C4.06587 8.8231 4.23274 8.65623 4.23274 8.45039V8.29837C4.23274 8.09253 4.06587 7.92566 3.86003 7.92566Z" fill="#009F8F"/>
<path d="M15.8366 7.92566H15.8317C15.6259 7.92566 15.459 8.09253 15.459 8.29837V8.45039C15.459 8.65623 15.6259 8.8231 15.8317 8.8231H15.8366C16.0424 8.8231 16.2093 8.65623 16.2093 8.45039V8.29837C16.2093 8.09253 16.0424 7.92566 15.8366 7.92566Z" fill="#009F8F"/>
<path d="M8.64617 1.33972H8.64126C8.43542 1.33972 8.26855 1.50659 8.26855 1.71243V14.4384C8.26855 14.6443 8.43542 14.8111 8.64126 14.8111H8.64617C8.85201 14.8111 9.01887 14.6443 9.01887 14.4384V1.71243C9.01887 1.50659 8.85201 1.33972 8.64617 1.33972Z" fill="#00C7B1"/>
<path d="M12.2273 19.6318C12.1538 19.6318 12.0753 19.6072 12.0115 19.5631L9.57424 17.8908C9.5301 17.8614 9.47616 17.8467 9.42221 17.8467H5.038C4.17979 17.8467 3.47852 17.1503 3.47852 16.2872V13.536C3.47852 13.3301 3.64525 13.1633 3.85122 13.1633C4.05719 13.1633 4.22393 13.3301 4.22393 13.536V16.2872C4.22393 16.7335 4.58683 17.0964 5.0331 17.0964H9.41731C9.62328 17.0964 9.81944 17.1601 9.99108 17.2729L11.8497 18.548L11.8301 17.1994L12.0508 16.9738H12.2126H14.6892C15.1354 16.9738 15.4983 16.6109 15.4983 16.1646V14.2913C15.4983 14.0853 15.6651 13.9186 15.871 13.9186C16.077 13.9186 16.2437 14.0853 16.2437 14.2913V16.1646C16.2437 17.0228 15.5474 17.7241 14.6842 17.7241H12.5804L12.6049 19.4699L12.399 19.5876C12.3401 19.617 12.2764 19.6318 12.2175 19.6318H12.2273Z" fill="#007E70"/>
</svg>
