<svg xmlns="http://www.w3.org/2000/svg" width="41" height="42" viewBox="0 0 41 42" fill="none">
<g id="Gsoft Omni Iconset-03 1">
<g id="Group">
<path id="Vector" d="M22.8815 9.19446H22.8728C22.5067 9.19446 22.2098 9.49128 22.2098 9.85744V23.4485C22.2098 23.8147 22.5067 24.1115 22.8728 24.1115H22.8815C23.2477 24.1115 23.5445 23.8147 23.5445 23.4485V9.85744C23.5445 9.49128 23.2477 9.19446 22.8815 9.19446Z" fill="#6EE8DC"/>
<path id="Vector_2" d="M27.1386 12.1255H27.1299C26.7637 12.1255 26.4669 12.4223 26.4669 12.7885V21.8783C26.4669 22.2444 26.7637 22.5413 27.1299 22.5413H27.1386C27.5048 22.5413 27.8016 22.2444 27.8016 21.8783V12.7885C27.8016 12.4223 27.5048 12.1255 27.1386 12.1255Z" fill="#93F7E6"/>
<path id="Vector_3" d="M14.3588 12.1779H14.3501C13.984 12.1779 13.6871 12.4747 13.6871 12.8409V23.4398C13.6871 23.806 13.984 24.1028 14.3501 24.1028H14.3588C14.725 24.1028 15.0218 23.806 15.0218 23.4398V12.8409C15.0218 12.4747 14.725 12.1779 14.3588 12.1779Z" fill="#00C7B1"/>
<path id="Vector_4" d="M10.1018 16.3826H10.093C9.72688 16.3826 9.43005 16.6794 9.43005 17.0455V17.316C9.43005 17.6821 9.72688 17.979 10.093 17.979H10.1018C10.4679 17.979 10.7647 17.6821 10.7647 17.316V17.0455C10.7647 16.6794 10.4679 16.3826 10.1018 16.3826Z" fill="#009F8F"/>
<path id="Vector_5" d="M31.4044 16.3826H31.3956C31.0295 16.3826 30.7327 16.6794 30.7327 17.0455V17.316C30.7327 17.6821 31.0295 17.979 31.3956 17.979H31.4044C31.7705 17.979 32.0673 17.6821 32.0673 17.316V17.0455C32.0673 16.6794 31.7705 16.3826 31.4044 16.3826Z" fill="#009F8F"/>
<path id="Vector_6" d="M18.6158 4.66702H18.6071C18.2409 4.66702 17.9441 4.96385 17.9441 5.33V27.9672C17.9441 28.3334 18.2409 28.6302 18.6071 28.6302H18.6158C18.9819 28.6302 19.2788 28.3334 19.2788 27.9672V5.33C19.2788 4.96385 18.9819 4.66702 18.6158 4.66702Z" fill="#00C7B1"/>
</g>
<path id="Vector_7" d="M24.9838 37.2053C24.853 37.2053 24.7134 37.1617 24.6 37.0832L20.2645 34.1085C20.1859 34.0562 20.09 34.03 19.994 34.03H12.1953C10.6687 34.03 9.42126 32.7913 9.42126 31.256V26.3621C9.42126 25.9958 9.71786 25.6992 10.0842 25.6992C10.4506 25.6992 10.7472 25.9958 10.7472 26.3621V31.256C10.7472 32.0498 11.3928 32.6953 12.1866 32.6953H19.9853C20.3517 32.6953 20.7006 32.8087 21.0059 33.0094L24.3121 35.2775L24.2772 32.8785L24.6698 32.4772H24.9577H29.363C30.1568 32.4772 30.8023 31.8317 30.8023 31.0379V27.7055C30.8023 27.3392 31.0989 27.0426 31.4653 27.0426C31.8317 27.0426 32.1283 27.3392 32.1283 27.7055V31.0379C32.1283 32.5645 30.8896 33.8119 29.3542 33.8119H25.6119L25.6555 36.9175L25.2891 37.1268C25.1845 37.1792 25.0711 37.2053 24.9664 37.2053H24.9838Z" fill="#007E70"/>
</g>
</svg>