<svg width="19" height="19" viewBox="0 0 19 19" fill="none" xmlns="http://www.w3.org/2000/svg">
<path d="M0.875 18.1554C0.780717 18.1578 0.687176 18.1381 0.601875 18.0978C0.470617 18.0439 0.358258 17.9522 0.278956 17.8344C0.199654 17.7166 0.156958 17.578 0.15625 17.4359V4.3266C0.166517 3.86453 0.267629 3.40901 0.453811 2.98606C0.639993 2.56312 0.907595 2.18104 1.24133 1.86166C1.57506 1.54227 1.96839 1.29184 2.39884 1.12468C2.82928 0.957506 3.28841 0.876874 3.75 0.887385H15.25C15.7116 0.876874 16.1707 0.957506 16.6012 1.12468C17.0316 1.29184 17.4249 1.54227 17.7587 1.86166C18.0924 2.18104 18.36 2.56312 18.5462 2.98606C18.7324 3.40901 18.8335 3.86453 18.8438 4.3266V11.1187C18.8335 11.5808 18.7324 12.0363 18.5462 12.4592C18.36 12.8822 18.0924 13.2642 17.7587 13.5836C17.4249 13.903 17.0316 14.1534 16.6012 14.3206C16.1707 14.4878 15.7116 14.5684 15.25 14.5579H4.76344L1.38531 17.9468C1.31815 18.0134 1.2385 18.0662 1.15093 18.102C1.06336 18.1378 0.969592 18.156 0.875 18.1554ZM3.75 2.32639C3.1995 2.30691 2.66368 2.50637 2.25964 2.88117C1.8556 3.25597 1.6162 3.77564 1.59375 4.3266V15.7019L3.95844 13.3276C4.0256 13.2609 4.10525 13.2081 4.19282 13.1723C4.28039 13.1365 4.37416 13.1184 4.46875 13.1189H15.25C15.8005 13.1384 16.3363 12.9389 16.7404 12.5641C17.1444 12.1893 17.3838 11.6697 17.4062 11.1187V4.3266C17.3838 3.77564 17.1444 3.25597 16.7404 2.88117C16.3363 2.50637 15.8005 2.30691 15.25 2.32639H3.75Z" fill="white"/>
<path d="M9.5 8.80194C10.0954 8.80194 10.5781 8.31874 10.5781 7.72268C10.5781 7.12663 10.0954 6.64343 9.5 6.64343C8.90457 6.64343 8.42188 7.12663 8.42188 7.72268C8.42188 8.31874 8.90457 8.80194 9.5 8.80194Z" fill="white"/>
<path d="M13.4531 8.80194C14.0486 8.80194 14.5312 8.31874 14.5312 7.72268C14.5312 7.12663 14.0486 6.64343 13.4531 6.64343C12.8577 6.64343 12.375 7.12663 12.375 7.72268C12.375 8.31874 12.8577 8.80194 13.4531 8.80194Z" fill="white"/>
<path d="M5.54688 8.80194C6.14231 8.80194 6.625 8.31874 6.625 7.72268C6.625 7.12663 6.14231 6.64343 5.54688 6.64343C4.95144 6.64343 4.46875 7.12663 4.46875 7.72268C4.46875 8.31874 4.95144 8.80194 5.54688 8.80194Z" fill="white"/>
</svg>
