<svg width="46" height="44" viewBox="0 0 46 44" fill="none" xmlns="http://www.w3.org/2000/svg">
<path d="M0.625 7.6875C0.625 3.82151 3.75901 0.6875 7.625 0.6875H36.625C40.491 0.6875 43.625 3.82151 43.625 7.6875V43.6875H7.625C3.75901 43.6875 0.625 40.5535 0.625 36.6875V7.6875Z" fill="url(#paint0_linear_385_29017)"/>
<mask id="mask0_385_29017" style="mask-type:alpha" maskUnits="userSpaceOnUse" x="0" y="0" width="44" height="44">
<path d="M0.625 7.6875C0.625 3.82151 3.75901 0.6875 7.625 0.6875H36.625C40.491 0.6875 43.625 3.82151 43.625 7.6875V43.6875H7.625C3.75901 43.6875 0.625 40.5535 0.625 36.6875V7.6875Z" fill="url(#paint1_linear_385_29017)"/>
</mask>
<g mask="url(#mask0_385_29017)">
<rect width="46.2293" height="46.8967" transform="matrix(-1 0 0 1 45.5015 -1.70654)" fill="url(#paint2_linear_385_29017)"/>
</g>
<path d="M30.5035 22.0669H27.6142C27.231 22.0669 26.8636 22.2213 26.5927 22.4961C26.3217 22.771 26.1695 23.1437 26.1695 23.5324V27.1962C26.1695 27.5849 26.3217 27.9576 26.5927 28.2325C26.8636 28.5073 27.231 28.6617 27.6142 28.6617H29.0588C29.442 28.6617 29.8095 28.5073 30.0804 28.2325C30.3513 27.9576 30.5035 27.5849 30.5035 27.1962V22.0669ZM30.5035 22.0669C30.5036 20.9059 30.277 19.7565 29.8369 18.6849C29.3967 17.6132 28.7518 16.6406 27.9392 15.8231C27.1267 15.0057 26.1626 14.3595 25.1026 13.9219C24.0426 13.4844 22.9077 13.2641 21.7633 13.2737C20.6197 13.2653 19.4857 13.4865 18.4268 13.9246C17.3678 14.3627 16.4048 15.0091 15.5932 15.8264C14.7816 16.6438 14.1375 17.616 13.6979 18.687C13.2584 19.758 13.0321 20.9067 13.0321 22.0669V27.1962C13.0321 27.5849 13.1843 27.9576 13.4552 28.2325C13.7262 28.5073 14.0936 28.6617 14.4768 28.6617H15.9214C16.3046 28.6617 16.672 28.5073 16.943 28.2325C17.2139 27.9576 17.3661 27.5849 17.3661 27.1962V23.5324C17.3661 23.1437 17.2139 22.771 16.943 22.4961C16.672 22.2213 16.3046 22.0669 15.9214 22.0669H13.0321" stroke="white" stroke-width="1.2" stroke-linecap="round" stroke-linejoin="round"/>
<path d="M30.5036 27.1963V29.3946C30.5036 30.1719 30.1992 30.9175 29.6573 31.4671C29.1155 32.0168 28.3805 32.3256 27.6142 32.3256H22.4225" stroke="white" stroke-width="1.2" stroke-linecap="round" stroke-linejoin="round"/>
<defs>
<linearGradient id="paint0_linear_385_29017" x1="22.125" y1="0.6875" x2="22.125" y2="43.6875" gradientUnits="userSpaceOnUse">
<stop stop-color="#EC78FF"/>
<stop offset="1" stop-color="#B032FE"/>
</linearGradient>
<linearGradient id="paint1_linear_385_29017" x1="22.125" y1="0.6875" x2="22.125" y2="43.6875" gradientUnits="userSpaceOnUse">
<stop stop-color="#EC78FF"/>
<stop offset="1" stop-color="#B032FE"/>
</linearGradient>
<linearGradient id="paint2_linear_385_29017" x1="46.7744" y1="52.1588" x2="3.59757" y2="9.16799" gradientUnits="userSpaceOnUse">
<stop stop-color="#FFC531"/>
<stop offset="1" stop-color="#F99500"/>
</linearGradient>
</defs>
</svg>
