<svg width="32" height="32" viewBox="0 0 32 32" fill="none" xmlns="http://www.w3.org/2000/svg">
<path fill-rule="evenodd" clip-rule="evenodd" d="M10.7501 7.5C7.57442 7.5 5.00006 10.0744 5.00006 13.25C5.00006 16.405 7.54107 18.9665 10.6883 18.9997L10.7501 18.9995L10.8119 18.9997C13.9591 18.9665 16.5001 16.405 16.5001 13.25C16.5001 10.0744 13.9257 7.5 10.7501 7.5ZM3.50006 13.25C3.50006 15.9531 4.97939 18.3107 7.17262 19.5574C6.54103 19.7592 5.92561 20.0149 5.33332 20.3226C3.66006 21.1918 2.22056 22.451 1.13643 23.9937C0.89827 24.3326 0.97994 24.8004 1.31884 25.0386C1.65774 25.2767 2.12554 25.1951 2.3637 24.8562C3.30943 23.5104 4.56516 22.4119 6.02482 21.6537C7.46531 20.9053 9.06265 20.51 10.6853 20.4997L10.7501 20.5L10.8149 20.4997C12.4375 20.51 14.0349 20.9053 15.4753 21.6537C16.935 22.4119 18.1907 23.5104 19.1365 24.8562C19.3746 25.1951 19.8424 25.2767 20.1813 25.0386C20.5202 24.8004 20.6019 24.3326 20.3637 23.9937C19.2796 22.451 17.8401 21.1918 16.1668 20.3226C15.5746 20.0149 14.9591 19.7592 14.3275 19.5574C16.5208 18.3107 18.0001 15.9531 18.0001 13.25C18.0001 9.24594 14.7542 6 10.7501 6C6.746 6 3.50006 9.24594 3.50006 13.25ZM20.9353 6.00001L20.9376 6C22.8604 6 24.7045 6.76384 26.0641 8.12348C27.4238 9.48312 28.1876 11.3272 28.1876 13.25C28.1876 15.1728 27.4238 17.0169 26.0641 18.3765C25.5989 18.8417 25.077 19.2372 24.5146 19.5562C25.1466 19.7579 25.7624 20.0136 26.355 20.3214C28.0286 21.1908 29.468 22.4505 30.5515 23.9941C30.7894 24.3331 30.7075 24.8009 30.3685 25.0389C30.0295 25.2768 29.5617 25.1949 29.3237 24.8559C28.3787 23.5096 27.1232 22.4108 25.6635 21.6526C24.2038 20.8943 22.5829 20.499 20.9381 20.5C20.731 20.5 20.543 20.4161 20.4073 20.2803C20.2715 20.1446 20.1876 19.9571 20.1876 19.75C20.1876 19.4923 20.3175 19.265 20.5155 19.13C20.6158 19.0615 20.7337 19.0168 20.8609 19.0039C20.886 19.0013 20.9114 19 20.9371 19C22.4621 19 23.9251 18.3942 25.0035 17.3159C26.0818 16.2375 26.6876 14.775 26.6876 13.25C26.6876 11.725 26.0818 10.2625 25.0035 9.18414C23.9254 8.10607 22.4633 7.50031 20.9387 7.5C20.4093 7.50171 19.8824 7.57277 19.3714 7.71135C18.9716 7.81978 18.5597 7.58359 18.4512 7.18382C18.3428 6.78405 18.579 6.37208 18.9788 6.26365C19.6166 6.09066 20.2744 6.00202 20.9353 6.00001Z" fill="url(#paint0_linear_942_450009)"/>
<defs>
<linearGradient id="paint0_linear_942_450009" x1="15.8439" y1="6" x2="15.8439" y2="25.1751" gradientUnits="userSpaceOnUse">
<stop stop-color="#000AFF"/>
<stop offset="1" stop-color="#D274FF"/>
</linearGradient>
</defs>
</svg>
