<svg width="43" height="43" viewBox="0 0 43 43" fill="none" xmlns="http://www.w3.org/2000/svg">
<path d="M0 9C0 4.02944 4.02944 0 9 0H34C38.9706 0 43 4.02944 43 9V43H9C4.02944 43 0 38.9706 0 34V9Z" fill="url(#paint0_linear_384_27222)"/>
<path d="M21.6208 29.9101C19.7094 29.9101 17.8763 29.1329 16.5247 27.7495C15.1731 26.366 14.4138 24.4896 14.4138 22.5331C14.4138 22.3375 14.4897 22.1498 14.6249 22.0115C14.7601 21.8731 14.9434 21.7954 15.1345 21.7954C15.3257 21.7954 15.509 21.8731 15.6441 22.0115C15.7793 22.1498 15.8552 22.3375 15.8552 22.5331C15.8552 24.0983 16.4627 25.5994 17.5439 26.7062C18.6252 27.813 20.0917 28.4347 21.6208 28.4347C23.1499 28.4347 24.6164 27.813 25.6977 26.7062C26.7789 25.5994 27.3864 24.0983 27.3864 22.5331C27.3864 22.3375 27.4623 22.1498 27.5974 22.0115C27.7326 21.8731 27.9159 21.7954 28.1071 21.7954C28.2982 21.7954 28.4815 21.8731 28.6167 22.0115C28.7518 22.1498 28.8278 22.3375 28.8278 22.5331C28.8278 24.4896 28.0685 26.366 26.7169 27.7495C25.3653 29.1329 23.5322 29.9101 21.6208 29.9101Z" fill="white"/>
<path d="M21.6208 32.8598C21.4297 32.8598 21.2464 32.7821 21.1112 32.6437C20.9761 32.5054 20.9001 32.3178 20.9001 32.1221V29.1713C20.9001 28.9756 20.9761 28.788 21.1112 28.6497C21.2464 28.5113 21.4297 28.4336 21.6208 28.4336C21.812 28.4336 21.9953 28.5113 22.1305 28.6497C22.2656 28.788 22.3415 28.9756 22.3415 29.1713V32.1221C22.3415 32.3178 22.2656 32.5054 22.1305 32.6437C21.9953 32.7821 21.812 32.8598 21.6208 32.8598Z" fill="white"/>
<path d="M21.6208 26.9594C20.474 26.9594 19.3741 26.4931 18.5632 25.663C17.7522 24.8329 17.2966 23.7071 17.2966 22.5332V15.1562C17.2966 13.9823 17.7522 12.8565 18.5632 12.0264C19.3741 11.1963 20.474 10.73 21.6208 10.73C22.7677 10.73 23.8675 11.1963 24.6785 12.0264C25.4894 12.8565 25.945 13.9823 25.945 15.1562V22.5332C25.945 23.7071 25.4894 24.8329 24.6785 25.663C23.8675 26.4931 22.7677 26.9594 21.6208 26.9594ZM21.6208 12.2054C20.8562 12.2054 20.123 12.5163 19.5824 13.0697C19.0417 13.623 18.738 14.3736 18.738 15.1562V22.5332C18.738 23.3158 19.0417 24.0664 19.5824 24.6197C20.123 25.1731 20.8562 25.484 21.6208 25.484C22.3854 25.484 23.1186 25.1731 23.6593 24.6197C24.1999 24.0664 24.5036 23.3158 24.5036 22.5332V15.1562C24.5036 14.3736 24.1999 13.623 23.6593 13.0697C23.1186 12.5163 22.3854 12.2054 21.6208 12.2054Z" fill="white"/>
<defs>
<linearGradient id="paint0_linear_384_27222" x1="43.5071" y1="47.8249" x2="3.91945" y2="7.83875" gradientUnits="userSpaceOnUse">
<stop stop-color="#63C7FF"/>
<stop offset="1" stop-color="#0094FF"/>
</linearGradient>
</defs>
</svg>
