<svg width="20" height="21" viewBox="0 0 20 21" fill="none" xmlns="http://www.w3.org/2000/svg">
<g id="Group 1707481000">
<g id="Group 1707481001">
<g id="Group 1707480999">
<path id="Vector" d="M11.3526 12.499H5.41683C3.86605 12.499 2.60938 11.2037 2.60938 9.60532V1.06767C2.60938 1.06767 2.63611 1.0346 2.65216 1.05114L4.66283 3.77944C4.99438 4.2314 5.51309 4.49045 6.05854 4.49045H11.3526C12.9034 4.49045 14.1601 5.7857 14.1601 7.3841V9.59981C14.1601 11.1982 12.9034 12.4935 11.3526 12.4935V12.499Z" stroke="#FF33FF" stroke-miterlimit="10"/>
<path id="Vector_2" d="M14.8868 8.13367H8.95101C7.40023 8.13367 6.14355 9.42892 6.14355 11.0273V19.565C6.14355 19.565 6.17029 19.598 6.18633 19.5815L8.19701 16.8532C8.52856 16.4012 9.04727 16.1422 9.59272 16.1422H14.8868C16.4376 16.1422 17.6942 14.8469 17.6942 13.2485V11.0328C17.6942 9.43443 16.4376 8.13918 14.8868 8.13918V8.13367Z" stroke="#C000C0" stroke-miterlimit="10"/>
<path id="Vector_3" d="M8.83862 10.6029C8.99219 10.6029 9.11669 10.4746 9.11669 10.3163C9.11669 10.158 8.99219 10.0297 8.83862 10.0297C8.68504 10.0297 8.56055 10.158 8.56055 10.3163C8.56055 10.4746 8.68504 10.6029 8.83862 10.6029Z" stroke="#FF33FF" stroke-width="1.5" stroke-miterlimit="10"/>
<path id="Vector_4" d="M11.4646 10.6029C11.6182 10.6029 11.7427 10.4746 11.7427 10.3163C11.7427 10.158 11.6182 10.0297 11.4646 10.0297C11.311 10.0297 11.1865 10.158 11.1865 10.3163C11.1865 10.4746 11.311 10.6029 11.4646 10.6029Z" stroke="#FF33FF" stroke-width="1.5" stroke-miterlimit="10"/>
</g>
</g>
</g>
</svg>
