
<svg width="17" height="18" viewBox="0 0 17 18" fill="none" xmlns="http://www.w3.org/2000/svg">
<path d="M5.66667 4.74984C6.44907 4.74984 7.08333 4.11557 7.08333 3.33317C7.08333 2.55077 6.44907 1.9165 5.66667 1.9165C4.88426 1.9165 4.25 2.55077 4.25 3.33317C4.25 4.11557 4.88426 4.74984 5.66667 4.74984Z" fill="#6174A4"/>
<path d="M5.66667 10.4168C6.44907 10.4168 7.08333 9.78257 7.08333 9.00016C7.08333 8.21776 6.44907 7.5835 5.66667 7.5835C4.88426 7.5835 4.25 8.21776 4.25 9.00016C4.25 9.78257 4.88426 10.4168 5.66667 10.4168Z" fill="#6174A4"/>
<path d="M5.66667 16.0833C6.44907 16.0833 7.08333 15.4491 7.08333 14.6667C7.08333 13.8843 6.44907 13.25 5.66667 13.25C4.88426 13.25 4.25 13.8843 4.25 14.6667C4.25 15.4491 4.88426 16.0833 5.66667 16.0833Z" fill="#6174A4"/>
<path d="M11.3334 4.74984C12.1158 4.74984 12.7501 4.11557 12.7501 3.33317C12.7501 2.55077 12.1158 1.9165 11.3334 1.9165C10.551 1.9165 9.91675 2.55077 9.91675 3.33317C9.91675 4.11557 10.551 4.74984 11.3334 4.74984Z" fill="#6174A4"/>
<path d="M11.3334 10.4168C12.1158 10.4168 12.7501 9.78257 12.7501 9.00016C12.7501 8.21776 12.1158 7.5835 11.3334 7.5835C10.551 7.5835 9.91675 8.21776 9.91675 9.00016C9.91675 9.78257 10.551 10.4168 11.3334 10.4168Z" fill="#6174A4"/>
<path d="M11.3334 16.0833C12.1158 16.0833 12.7501 15.4491 12.7501 14.6667C12.7501 13.8843 12.1158 13.25 11.3334 13.25C10.551 13.25 9.91675 13.8843 9.91675 14.6667C9.91675 15.4491 10.551 16.0833 11.3334 16.0833Z" fill="#6174A4"/>
</svg>
