<svg width="169" height="130" viewBox="0 0 169 130" fill="none" xmlns="http://www.w3.org/2000/svg">
<g clip-path="url(#clip0_154_110935)">
<path d="M32.6843 35.8762L0.00317383 57.8984L32.1939 106.374L64.8751 84.3521L32.6843 35.8762Z" fill="#F5F5F5"/>
<path d="M47.9874 82.0553L47.6146 84.3674L31.3673 82.0084L31.7401 79.6963L47.9874 82.0553Z" fill="#E0E0E0"/>
<path d="M39.8026 73.8076L42.1357 74.145L39.5492 90.2593L37.219 89.919L39.8026 73.8076Z" fill="#E0E0E0"/>
<path d="M24.8398 53.3276C24.8631 53.3628 21.5892 55.6103 17.5259 58.3479C13.4627 61.0854 10.1509 63.2772 10.1276 63.242C10.1043 63.2068 13.3782 60.9593 17.4415 58.2217C21.5047 55.4842 24.8165 53.2924 24.8398 53.3276Z" fill="#E0E0E0"/>
<path d="M36.8578 50.2883C36.8811 50.3236 31.4343 54.0352 24.6942 58.5744C17.9512 63.1164 12.4694 66.7694 12.4461 66.7342C12.4228 66.699 17.8667 62.9902 24.6097 58.4453C31.3498 53.9032 36.8345 50.2502 36.8578 50.2854V50.2883Z" fill="#E0E0E0"/>
<path d="M39.2666 53.9143C39.2899 53.9495 33.8431 57.6612 27.103 62.2003C20.36 66.7424 14.8782 70.3954 14.8549 70.3602C14.8316 70.325 20.2755 66.6162 27.0185 62.0712C33.7586 57.5292 39.2433 53.8762 39.2666 53.9114V53.9143Z" fill="#E0E0E0"/>
<path d="M41.6754 57.5442C41.6987 57.5794 36.2519 61.2911 29.5118 65.8302C22.7688 70.3723 17.287 74.0253 17.2637 73.9901C17.2404 73.9548 22.6844 70.2461 29.4273 65.7011C36.1674 61.1591 41.6521 57.5061 41.6754 57.5413V57.5442Z" fill="#E0E0E0"/>
<path d="M44.0872 61.1731C44.1105 61.2083 38.6636 64.92 31.9236 69.4591C25.1806 74.0012 19.6988 77.6542 19.6755 77.619C19.6522 77.5838 25.0961 73.875 31.8391 69.33C38.5792 64.788 44.0638 61.135 44.0872 61.1702V61.1731Z" fill="#E0E0E0"/>
<path d="M141.966 68.3584L114.519 86.8535L141.554 127.564L169.001 109.069L141.966 68.3584Z" fill="#F5F5F5"/>
<path d="M154.818 107.149L154.509 109.092L140.863 107.111L141.175 105.169L154.818 107.149Z" fill="#E0E0E0"/>
<path d="M147.947 100.222L149.907 100.506L147.734 114.039L145.777 113.754L147.947 100.222Z" fill="#E0E0E0"/>
<path d="M135.381 83.022C135.404 83.0572 132.658 84.9497 129.244 87.2471C125.83 89.5475 123.046 91.3814 123.022 91.3461C122.999 91.3109 125.746 89.4184 129.16 87.118C132.57 84.8206 135.358 82.9838 135.381 83.0191V83.022Z" fill="#E0E0E0"/>
<path d="M145.474 80.4691C145.497 80.5043 140.927 83.6262 135.265 87.4406C129.602 91.255 124.994 94.3182 124.971 94.283C124.948 94.2478 129.518 91.1288 135.18 87.3115C140.84 83.4971 145.451 80.4338 145.474 80.4691Z" fill="#E0E0E0"/>
<path d="M147.498 83.5149C147.521 83.5502 142.951 86.6721 137.289 90.4865C131.627 94.3008 127.019 97.3641 126.995 97.3289C126.972 97.2937 131.542 94.1747 137.204 90.3574C142.864 86.543 147.475 83.4797 147.498 83.5149Z" fill="#E0E0E0"/>
<path d="M149.52 86.5628C149.543 86.598 144.973 89.7199 139.31 93.5314C133.648 97.3458 129.04 100.409 129.017 100.374C128.994 100.339 133.564 97.2196 139.226 93.4023C144.885 89.5879 149.496 86.5247 149.52 86.5599V86.5628Z" fill="#E0E0E0"/>
<path d="M151.544 89.6116C151.567 89.6468 146.997 92.7688 141.335 96.5831C135.672 100.398 131.064 103.461 131.041 103.426C131.018 103.39 135.588 100.271 141.25 96.454C146.91 92.6397 151.521 89.5764 151.544 89.6116Z" fill="#E0E0E0"/>
<path d="M98.5433 37.6568L68.5952 21.5215L45.0097 65.9432L74.9578 82.0785L98.5433 37.6568Z" fill="#F5F5F5"/>
<path d="M69.8328 68.1805L67.9337 68.8349L63.1102 55.4053L65.0093 54.748L69.8328 68.1805Z" fill="#E0E0E0"/>
<path d="M72.7456 58.5449L73.4388 60.4727L60.1975 65.0411L59.5043 63.1134L72.7456 58.5449Z" fill="#E0E0E0"/>
<path d="M82.1537 38.7277C82.1304 38.7717 79.0925 37.1814 75.37 35.1745C71.6446 33.1675 68.6474 31.5068 68.6707 31.4628C68.694 31.4188 71.732 33.0091 75.4544 35.016C79.1769 37.023 82.177 38.6837 82.1537 38.7277Z" fill="#E0E0E0"/>
<path d="M89.3395 46.721C89.3162 46.765 84.2888 44.1037 78.1138 40.7764C71.9359 37.4491 66.9464 34.7145 66.9697 34.6705C66.993 34.6264 72.0204 37.2877 78.1983 40.618C84.3733 43.9453 89.3628 46.6799 89.3395 46.7239V46.721Z" fill="#E0E0E0"/>
<path d="M87.5744 50.0452C87.5511 50.0892 82.5237 47.4279 76.3487 44.1006C70.1708 40.7733 65.1812 38.0387 65.2045 37.9947C65.2279 37.9507 70.2552 40.6119 76.4332 43.9422C82.6082 47.2695 87.5977 50.0041 87.5744 50.0481V50.0452Z" fill="#E0E0E0"/>
<path d="M85.8092 53.3694C85.7859 53.4134 80.7586 50.7522 74.5835 47.4248C68.4056 44.0975 63.4161 41.3629 63.4394 41.3189C63.4627 41.2749 68.4901 43.9361 74.668 47.2664C80.843 50.5937 85.8325 53.3283 85.8092 53.3723V53.3694Z" fill="#E0E0E0"/>
<path d="M84.0441 56.6936C84.0208 56.7376 78.9934 54.0764 72.8184 50.7491C66.6405 47.4218 61.651 44.6871 61.6743 44.6431C61.6976 44.5991 66.725 47.2604 72.9029 50.5906C79.0779 53.9179 84.0674 56.6526 84.0441 56.6966V56.6936Z" fill="#E0E0E0"/>
<path opacity="0.2" d="M84.2014 0H83.45V12.9043H84.2014V0Z" fill="black"/>
<path d="M66.2822 28.5169H101.369C101.369 28.5169 98.1301 12.8984 83.5606 12.8984C70.6018 12.8984 66.2822 28.5169 66.2822 28.5169Z" fill="#645DF6"/>
<path d="M84.2014 0H83.45V12.9043H84.2014V0Z" fill="#645DF6"/>
<path d="M3.09036 110.676C4.07487 110.711 4.99821 111.248 5.64775 111.996C6.29729 112.741 6.69633 113.68 6.94974 114.64C7.44199 116.494 7.13907 118.686 6.61478 120.532C4.61955 119.813 3.39037 117.671 2.83404 116.544C1.95439 114.763 1.43884 111.01 3.08745 110.676" fill="url(#paint0_linear_154_110935)"/>
<path d="M9.4868 122.779C8.85765 121.869 8.84309 120.605 9.34117 119.613C9.83925 118.624 10.7946 117.911 11.8461 117.586C12.3325 117.436 12.8976 117.371 13.32 117.656C13.7161 117.923 13.888 118.445 13.8355 118.921C13.7831 119.396 13.5442 119.833 13.2617 120.218C12.2918 121.541 11.1121 122.641 9.4868 122.776" fill="url(#paint1_linear_154_110935)"/>
<path d="M9.70527 128.979C9.70527 128.979 9.6645 128.844 9.61498 128.595C9.56255 128.319 9.49264 127.964 9.41109 127.538C9.2538 126.649 9.0033 125.385 9.19263 123.988C9.37322 122.597 9.92373 121.406 10.5005 120.696C10.783 120.338 11.0568 120.083 11.2578 119.927C11.3539 119.845 11.4413 119.795 11.4937 119.754C11.549 119.716 11.5811 119.698 11.584 119.704C11.6044 119.728 11.118 120.033 10.5791 120.758C10.0344 121.471 9.51012 122.638 9.32953 124.009C9.14312 125.379 9.37322 126.632 9.50721 127.524C9.57711 127.973 9.63537 128.336 9.67032 128.589C9.70236 128.841 9.71692 128.982 9.70527 128.982V128.979Z" fill="#263238"/>
<path d="M3.73413 113.501C3.73413 113.501 3.76617 113.551 3.81569 113.654C3.86812 113.768 3.93802 113.918 4.02249 114.1C4.19726 114.49 4.44775 115.056 4.74776 115.757C5.34779 117.163 6.1517 119.117 6.99057 121.291C7.82944 123.468 8.54306 125.458 9.03823 126.901C9.28581 127.623 9.48388 128.21 9.61495 128.618C9.67612 128.811 9.72563 128.967 9.7635 129.087C9.79554 129.196 9.8101 129.251 9.80719 129.254C9.80428 129.257 9.77806 129.202 9.73728 129.096C9.69359 128.976 9.63534 128.823 9.56543 128.635C9.41397 128.219 9.20425 127.641 8.94793 126.933C8.42655 125.496 7.69837 123.515 6.86241 121.338C6.02354 119.164 5.2371 117.207 4.66038 115.793C4.37785 115.097 4.14483 114.528 3.97589 114.117C3.90016 113.929 3.8419 113.777 3.7953 113.659C3.75452 113.554 3.73704 113.498 3.73996 113.495L3.73413 113.501Z" fill="#263238"/>
<path d="M7.33719 124.877C6.16044 122.861 3.96715 121.488 1.65152 121.318C1.06315 121.274 0.352438 121.374 0.0902916 121.908C-0.171855 122.442 0.177674 123.072 0.579632 123.513C2.25154 125.335 5.0769 125.971 7.35757 125.038" fill="url(#paint2_linear_154_110935)"/>
<path d="M2.5487 122.908C2.5487 122.908 2.67977 122.905 2.91862 122.923C3.03804 122.932 3.18368 122.941 3.3497 122.973C3.51573 123.005 3.70797 123.023 3.91478 123.079C4.12158 123.128 4.35169 123.181 4.58762 123.266C4.82938 123.337 5.07696 123.442 5.33619 123.554C5.84883 123.789 6.39643 124.097 6.9149 124.496C7.43045 124.901 7.86445 125.353 8.2198 125.796C8.38874 126.022 8.55186 126.239 8.68002 126.459C8.81983 126.67 8.92469 126.881 9.02081 127.072C9.12566 127.26 9.18683 127.445 9.25674 127.6C9.32664 127.756 9.36742 127.896 9.40237 128.011C9.47228 128.24 9.50723 128.366 9.4985 128.369C9.46937 128.381 9.32664 127.867 8.93342 127.116C8.83148 126.931 8.72371 126.726 8.58098 126.52C8.45282 126.306 8.28971 126.098 8.11786 125.878C7.76542 125.446 7.33433 125.006 6.82751 124.607C6.31778 124.214 5.78475 123.909 5.28085 123.671C5.02744 123.56 4.78277 123.451 4.54684 123.378C4.31673 123.29 4.09245 123.234 3.88856 123.175C3.07008 122.967 2.54288 122.938 2.54579 122.908H2.5487Z" fill="#263238"/>
<path d="M134.769 30.9492C133.913 31.1487 133.497 32.1404 133.415 33.0207C133.333 33.9009 133.444 34.834 133.077 35.6379C132.664 36.5446 131.676 37.2106 131.641 38.2053C131.621 38.8127 131.979 39.3848 131.962 39.9922C131.932 40.9898 130.925 41.7439 130.872 42.7385C130.834 43.4574 131.309 44.144 131.196 44.8541C131.108 45.4057 130.68 45.8399 130.499 46.371C130.141 47.4244 130.858 48.5863 131.796 49.179C132.838 49.8392 134.175 50.0123 135.349 49.6338C136.523 49.2553 137.513 48.3369 137.982 47.1867C138.501 45.9192 138.387 44.4932 138.273 43.1258C137.924 38.8684 137.662 34.6051 137.49 30.3389" fill="#263238"/>
<path d="M132.282 45.966C132.265 45.9484 132.515 45.875 132.672 45.4965C132.748 45.3116 132.789 45.0652 132.771 44.7806C132.763 44.493 132.664 44.182 132.559 43.8299C132.463 43.4807 132.334 43.0758 132.407 42.6269C132.48 42.1692 132.806 41.7936 133.1 41.4268C133.249 41.2391 133.4 41.0454 133.494 40.8253C133.593 40.6082 133.613 40.3559 133.54 40.1212C133.389 39.6429 132.923 39.2879 132.71 38.7362C132.605 38.4575 132.602 38.1553 132.664 37.8795C132.722 37.6037 132.833 37.3513 132.946 37.1107C133.173 36.6325 133.427 36.1953 133.526 35.7287C133.73 34.7986 133.634 33.9096 133.773 33.179C133.899 32.4484 134.207 31.8968 134.51 31.6151C134.659 31.4684 134.802 31.3921 134.895 31.3393C134.994 31.2953 135.046 31.2777 135.049 31.2806C135.058 31.2982 134.834 31.3657 134.551 31.6562C134.271 31.9408 133.989 32.4806 133.878 33.1966C133.82 33.5516 133.811 33.9536 133.797 34.382C133.782 34.8104 133.767 35.2769 133.66 35.7581C133.558 36.2452 133.301 36.7029 133.08 37.1694C132.862 37.6301 132.661 38.1699 132.853 38.6746C133.039 39.1734 133.508 39.5285 133.683 40.0683C133.77 40.3383 133.741 40.6346 133.628 40.8752C133.52 41.1188 133.363 41.3212 133.211 41.509C132.905 41.8787 132.602 42.2337 132.532 42.6445C132.46 43.0524 132.573 43.4485 132.664 43.7947C132.76 44.1439 132.856 44.4725 132.859 44.7718C132.867 45.0681 132.818 45.3263 132.728 45.5141C132.64 45.7048 132.518 45.8251 132.431 45.8838C132.34 45.9454 132.285 45.9601 132.285 45.9601L132.282 45.966Z" fill="#455A64"/>
<path d="M129.99 52.9229L127.359 60.5575L116.396 61.1502L114.567 65.2492L126.014 66.417C128.297 67.3676 130.904 66.2028 131.737 63.8613L134.793 55.2702L129.99 52.9258V52.9229Z" fill="#B78876"/>
<path d="M152.668 124.906C152.668 124.906 144.632 99.1969 144.463 98.3636C144.309 97.6096 147.379 79.1098 147.766 74.3213L136.91 74.7291C136.91 74.7291 136.91 74.7585 136.91 74.8084L132.297 75.0666L136.43 127.643H141.425L140.93 110.2C144.012 118.533 148.424 127.021 148.424 127.021L152.671 124.906H152.668Z" fill="#B78876"/>
<path d="M141.131 116.449C141.137 116.291 141.07 110.605 141.07 110.605C141.009 110.945 139.153 105.669 139.2 105.347C139.223 105.179 141.131 116.449 141.131 116.449Z" fill="#A36957"/>
<path d="M138.987 102.85C138.987 102.85 138.964 102.964 138.955 103.169C138.943 103.375 138.94 103.674 138.961 104.041C138.967 104.226 138.987 104.425 139.01 104.642C139.037 104.857 139.066 105.088 139.115 105.326C139.206 105.807 139.345 106.327 139.523 106.858C139.887 107.92 140.286 108.85 140.572 109.528C140.706 109.836 140.822 110.1 140.918 110.323C141.003 110.511 141.055 110.61 141.067 110.605C141.078 110.602 141.046 110.49 140.979 110.296C140.912 110.103 140.81 109.824 140.679 109.481C140.423 108.794 140.042 107.858 139.68 106.802C139.503 106.274 139.363 105.763 139.264 105.294C139.211 105.059 139.176 104.833 139.144 104.622C139.115 104.411 139.089 104.211 139.074 104.029C139.04 103.665 139.025 103.369 139.016 103.166C139.007 102.961 138.996 102.85 138.984 102.85H138.987Z" fill="#A36957"/>
<path d="M136.331 127.902V127.43L141.445 127.204L141.46 129.152L141.145 129.173C139.741 129.255 133.998 129.496 133.057 129.211C132.008 128.894 136.331 127.899 136.331 127.899V127.902Z" fill="#455A64"/>
<path d="M141.533 129.038C141.533 129.038 141.504 129.044 141.445 129.047C141.37 129.053 141.288 129.056 141.195 129.064C140.944 129.076 140.636 129.091 140.269 129.109C139.488 129.141 138.407 129.167 137.213 129.173C136.019 129.179 134.938 129.158 134.158 129.135C133.794 129.12 133.485 129.109 133.231 129.1C133.138 129.094 133.057 129.091 132.981 129.085C132.923 129.082 132.894 129.079 132.894 129.076C132.894 129.076 132.923 129.073 132.981 129.073C133.057 129.073 133.138 129.073 133.231 129.073C133.482 129.076 133.794 129.082 134.158 129.088C134.938 129.1 136.019 129.114 137.213 129.109C138.404 129.103 139.485 129.082 140.269 129.062C140.633 129.053 140.941 129.044 141.195 129.038C141.288 129.038 141.37 129.035 141.445 129.032C141.504 129.032 141.533 129.032 141.533 129.032V129.038Z" fill="#263238"/>
<path d="M134.673 129.202C134.656 129.202 134.638 128.982 134.499 128.759C134.362 128.533 134.172 128.418 134.181 128.404C134.184 128.389 134.402 128.483 134.551 128.727C134.7 128.967 134.688 129.208 134.673 129.205V129.202Z" fill="#263238"/>
<path d="M136.173 128.431C136.173 128.431 136.086 128.352 136.013 128.234C135.937 128.117 135.891 128.014 135.902 128.005C135.917 127.997 135.99 128.085 136.063 128.202C136.138 128.319 136.185 128.422 136.173 128.431Z" fill="#263238"/>
<path d="M136.584 128.207C136.584 128.207 136.491 128.166 136.403 128.087C136.316 128.008 136.252 127.934 136.264 127.92C136.275 127.908 136.357 127.961 136.444 128.04C136.532 128.119 136.596 128.192 136.584 128.207Z" fill="#263238"/>
<path d="M136.843 127.724C136.843 127.741 136.724 127.756 136.578 127.759C136.433 127.759 136.313 127.75 136.313 127.732C136.313 127.715 136.433 127.7 136.578 127.697C136.724 127.697 136.843 127.706 136.843 127.724Z" fill="#263238"/>
<path d="M136.934 127.383C136.939 127.398 136.811 127.456 136.636 127.471C136.465 127.486 136.328 127.448 136.331 127.43C136.331 127.412 136.468 127.421 136.631 127.409C136.794 127.398 136.925 127.365 136.931 127.383H136.934Z" fill="#263238"/>
<path d="M135.999 127.981C135.999 127.981 135.873 128.005 135.672 127.981C135.57 127.97 135.451 127.946 135.323 127.905C135.259 127.882 135.192 127.867 135.122 127.823C135.09 127.802 135.052 127.77 135.04 127.72C135.026 127.67 135.052 127.615 135.09 127.588C135.401 127.424 135.716 127.6 135.832 127.761C135.897 127.844 135.926 127.926 135.94 127.981C135.955 128.037 135.952 128.069 135.949 128.069C135.937 128.072 135.926 127.94 135.798 127.788C135.733 127.714 135.64 127.641 135.518 127.606C135.401 127.571 135.238 127.562 135.128 127.635C135.075 127.673 135.096 127.735 135.154 127.77C135.209 127.805 135.276 127.826 135.337 127.849C135.463 127.89 135.576 127.92 135.675 127.937C135.87 127.973 135.996 127.973 135.996 127.981H135.999Z" fill="#263238"/>
<path d="M135.914 127.999C135.914 127.999 135.862 127.92 135.876 127.77C135.885 127.697 135.911 127.612 135.964 127.53C136.022 127.456 136.095 127.357 136.234 127.359C136.31 127.368 136.348 127.456 136.336 127.512C136.331 127.571 136.304 127.621 136.281 127.659C136.232 127.741 136.179 127.808 136.127 127.858C136.025 127.961 135.943 127.999 135.94 127.993C135.934 127.984 136.004 127.935 136.095 127.829C136.138 127.776 136.188 127.712 136.232 127.629C136.275 127.559 136.307 127.436 136.226 127.421C136.144 127.412 136.06 127.494 136.01 127.562C135.958 127.632 135.932 127.712 135.917 127.776C135.894 127.911 135.923 127.996 135.911 127.999H135.914Z" fill="#263238"/>
<path d="M141.425 127.632C141.425 127.632 141.279 127.618 141.049 127.647C140.822 127.673 140.505 127.767 140.231 127.99C139.957 128.213 139.794 128.504 139.721 128.721C139.645 128.941 139.637 129.088 139.625 129.088C139.622 129.088 139.619 129.05 139.625 128.985C139.631 128.917 139.645 128.824 139.68 128.709C139.747 128.48 139.907 128.175 140.193 127.943C140.478 127.712 140.81 127.621 141.046 127.603C141.166 127.594 141.262 127.6 141.326 127.609C141.39 127.618 141.428 127.629 141.425 127.632Z" fill="#263238"/>
<path d="M138.973 128.627C138.973 128.642 138.643 128.698 138.23 128.698C137.816 128.698 137.484 128.651 137.484 128.633C137.484 128.615 137.819 128.636 138.227 128.633C138.638 128.633 138.97 128.607 138.97 128.624L138.973 128.627Z" fill="#263238"/>
<path d="M139.971 128.618C139.971 128.618 139.945 128.688 139.91 128.765C139.875 128.841 139.858 128.908 139.84 128.908C139.823 128.908 139.814 128.826 139.855 128.738C139.893 128.65 139.96 128.603 139.971 128.615V128.618Z" fill="#263238"/>
<path d="M140.344 128.146C140.344 128.146 140.324 128.21 140.272 128.266C140.219 128.319 140.167 128.354 140.155 128.342C140.143 128.331 140.175 128.278 140.228 128.222C140.28 128.169 140.333 128.134 140.344 128.146Z" fill="#263238"/>
<path d="M140.883 127.926C140.88 127.944 140.813 127.944 140.738 127.97C140.662 127.996 140.609 128.037 140.595 128.026C140.58 128.017 140.624 127.944 140.717 127.911C140.81 127.879 140.889 127.911 140.883 127.926Z" fill="#263238"/>
<path d="M141.265 127.823C141.271 127.837 141.241 127.864 141.201 127.881C141.16 127.899 141.119 127.899 141.113 127.881C141.107 127.867 141.137 127.84 141.177 127.823C141.218 127.805 141.259 127.805 141.265 127.823Z" fill="#263238"/>
<path d="M148.323 127.448L148.127 127.016L152.703 124.698L153.51 126.47L153.231 126.62C151.984 127.274 146.84 129.862 145.867 129.991C144.781 130.135 148.323 127.445 148.323 127.445V127.448Z" fill="#455A64"/>
<path d="M153.527 126.336C153.527 126.336 153.501 126.354 153.452 126.38C153.385 126.415 153.312 126.453 153.23 126.497C153.006 126.612 152.729 126.753 152.403 126.92C151.704 127.272 150.728 127.741 149.642 128.24C148.555 128.736 147.562 129.164 146.837 129.467C146.499 129.605 146.211 129.722 145.978 129.816C145.89 129.851 145.815 129.88 145.742 129.907C145.686 129.927 145.66 129.936 145.657 129.933C145.657 129.933 145.683 129.919 145.736 129.895C145.806 129.866 145.882 129.831 145.966 129.792C146.196 129.693 146.482 129.569 146.816 129.426C147.536 129.115 148.526 128.68 149.613 128.184C150.699 127.689 151.675 127.222 152.38 126.882C152.709 126.723 152.989 126.588 153.216 126.477C153.3 126.436 153.376 126.4 153.443 126.368C153.495 126.345 153.525 126.333 153.525 126.333L153.527 126.336Z" fill="#263238"/>
<path d="M147.338 129.32C147.32 129.329 147.219 129.132 146.997 128.985C146.782 128.836 146.56 128.809 146.563 128.792C146.56 128.777 146.799 128.774 147.032 128.935C147.268 129.094 147.352 129.317 147.338 129.32Z" fill="#263238"/>
<path d="M148.392 127.993C148.392 127.993 148.282 127.958 148.165 127.882C148.049 127.805 147.964 127.732 147.973 127.717C147.982 127.703 148.083 127.753 148.2 127.829C148.316 127.905 148.401 127.979 148.392 127.993Z" fill="#263238"/>
<path d="M148.678 127.623C148.672 127.641 148.579 127.623 148.465 127.588C148.352 127.553 148.267 127.509 148.27 127.494C148.276 127.477 148.369 127.494 148.483 127.529C148.596 127.565 148.681 127.609 148.678 127.623Z" fill="#263238"/>
<path d="M148.716 127.071C148.721 127.086 148.619 127.151 148.488 127.212C148.354 127.274 148.241 127.312 148.235 127.297C148.229 127.283 148.331 127.218 148.462 127.157C148.596 127.095 148.71 127.057 148.716 127.071Z" fill="#263238"/>
<path d="M148.657 126.726C148.657 126.726 148.576 126.846 148.424 126.928C148.273 127.013 148.133 127.034 148.13 127.019C148.124 127.001 148.252 126.954 148.395 126.875C148.541 126.796 148.649 126.714 148.66 126.729L148.657 126.726Z" fill="#263238"/>
<path d="M148.052 127.659C148.052 127.659 147.947 127.732 147.752 127.794C147.655 127.823 147.536 127.853 147.402 127.867C147.335 127.873 147.268 127.885 147.186 127.876C147.149 127.87 147.102 127.856 147.07 127.817C147.038 127.779 147.038 127.718 147.061 127.677C147.28 127.398 147.638 127.43 147.81 127.53C147.903 127.58 147.961 127.641 147.996 127.685C148.031 127.732 148.043 127.762 148.04 127.762C148.031 127.771 147.967 127.653 147.789 127.568C147.702 127.527 147.585 127.501 147.46 127.518C147.341 127.536 147.186 127.594 147.117 127.706C147.084 127.762 147.128 127.812 147.195 127.817C147.259 127.826 147.332 127.817 147.396 127.815C147.527 127.803 147.644 127.779 147.74 127.756C147.932 127.706 148.046 127.656 148.052 127.665V127.659Z" fill="#263238"/>
<path d="M147.982 127.709C147.982 127.709 147.9 127.656 147.853 127.515C147.83 127.445 147.818 127.357 147.836 127.26C147.859 127.169 147.885 127.046 148.017 126.993C148.089 126.969 148.261 127.119 148.273 127.175C148.29 127.23 148.185 127.201 148.183 127.248C148.171 127.342 148.151 127.427 148.124 127.494C148.072 127.629 148.014 127.697 148.008 127.694C147.999 127.688 148.043 127.612 148.084 127.48C148.104 127.412 148.121 127.333 148.127 127.242C148.139 127.16 148.116 127.034 148.034 127.054C147.955 127.081 147.915 127.189 147.894 127.271C147.877 127.357 147.883 127.439 147.897 127.506C147.929 127.638 147.993 127.703 147.984 127.712L147.982 127.709Z" fill="#263238"/>
<path d="M152.857 125.1C152.857 125.1 152.718 125.147 152.52 125.268C152.322 125.385 152.071 125.602 151.911 125.919C151.751 126.236 151.722 126.567 151.742 126.796C151.762 127.028 151.815 127.166 151.803 127.169C151.8 127.169 151.783 127.137 151.759 127.075C151.736 127.013 151.713 126.919 151.695 126.799C151.663 126.564 151.684 126.218 151.853 125.887C152.019 125.558 152.287 125.335 152.493 125.227C152.598 125.171 152.689 125.136 152.753 125.118C152.817 125.1 152.852 125.094 152.855 125.097L152.857 125.1Z" fill="#263238"/>
<path d="M151.025 127.02C151.025 127.02 150.752 127.219 150.376 127.392C150 127.565 149.677 127.656 149.671 127.642C149.665 127.624 149.977 127.507 150.35 127.336C150.722 127.166 151.017 127.005 151.025 127.022V127.02Z" fill="#263238"/>
<path d="M151.931 126.6C151.949 126.606 151.934 126.676 151.937 126.761C151.937 126.846 151.949 126.914 151.931 126.923C151.917 126.929 151.873 126.861 151.873 126.761C151.873 126.664 151.914 126.594 151.931 126.6Z" fill="#263238"/>
<path d="M152.083 126.013C152.097 126.019 152.091 126.081 152.065 126.151C152.039 126.221 152.004 126.274 151.989 126.268C151.975 126.263 151.981 126.201 152.007 126.131C152.033 126.06 152.068 126.007 152.083 126.013Z" fill="#263238"/>
<path d="M152.482 125.593C152.485 125.611 152.423 125.637 152.365 125.693C152.307 125.746 152.275 125.807 152.257 125.801C152.24 125.801 152.252 125.713 152.322 125.646C152.394 125.578 152.476 125.576 152.479 125.59L152.482 125.593Z" fill="#263238"/>
<path d="M152.791 125.341C152.791 125.341 152.788 125.388 152.756 125.423C152.724 125.455 152.689 125.473 152.677 125.461C152.665 125.449 152.68 125.414 152.712 125.379C152.744 125.346 152.779 125.329 152.791 125.341Z" fill="#263238"/>
<path d="M147.061 65.6191L146.208 55.1442L150.586 55.2234C150.586 55.2234 150.79 53.6801 150.143 50.2911C149.747 48.2138 148.375 46.9403 146.834 46.1833V46.1569L146.7 46.1217C144.74 45.1975 142.689 45.0684 142.689 45.0684L137.315 45.13C137.315 45.13 133.211 44.6136 130.939 47.5624C130.065 48.6979 127.357 56.4704 127.357 56.4704L133.805 59.5982L133.191 55.288C133.191 55.288 133.313 58.4128 133.709 59.4016C133.931 59.9532 134.569 61.6668 134.569 61.6668L134.484 66.8338L147.055 65.6191H147.061Z" fill="url(#paint3_linear_154_110935)"/>
<path d="M144.096 53.6246L143.298 57.0458H150.824L150.329 51.3066L144.096 53.6246Z" fill="url(#paint4_linear_154_110935)"/>
<path d="M150.825 57.0459C150.825 57.0224 150.446 56.9842 149.828 56.9461C149.211 56.9109 148.357 56.8786 147.417 56.8845C146.473 56.8904 145.619 56.9314 145.005 56.9784C144.387 57.0283 144.009 57.0811 144.012 57.1016C144.012 57.1251 144.396 57.1163 145.011 57.0957C145.628 57.0781 146.479 57.0547 147.417 57.0488C148.357 57.0459 149.208 57.0576 149.825 57.0635C150.443 57.0693 150.825 57.0693 150.825 57.0459Z" fill="#263238"/>
<path d="M143.773 51.2803C143.749 51.2803 143.741 51.6148 143.746 52.1517C143.752 52.6887 143.773 53.431 143.802 54.2496C143.834 55.0682 143.872 55.8106 143.907 56.3446C143.942 56.8815 143.977 57.2102 144 57.2102C144.023 57.2102 144.032 56.8757 144.026 56.3387C144.02 55.8018 144 55.0594 143.971 54.2408C143.939 53.4222 143.901 52.6828 143.866 52.1458C143.831 51.6089 143.796 51.2803 143.773 51.2803Z" fill="#263238"/>
<g opacity="0.3">
<path d="M136.925 54.2432C136.925 54.2432 138.597 66.7338 143.298 66.4022C143.298 66.4022 145.416 66.3758 146.094 64.9586V64.4012L136.925 54.2432Z" fill="black"/>
</g>
<g opacity="0.3">
<path d="M143.773 52.0166L142.873 58.1402L143.455 59.214L144.414 57.1132L144.009 57.1015L143.773 52.0166Z" fill="black"/>
</g>
<path d="M134.571 61.6634C134.571 61.6634 134.516 61.5636 134.443 61.37C134.37 61.1793 134.274 60.8976 134.161 60.5513C133.936 59.853 133.66 58.8789 133.441 57.7786C133.226 56.6783 133.118 55.6689 133.086 54.9354C133.068 54.5686 133.063 54.2723 133.068 54.0669C133.071 53.8615 133.08 53.7471 133.089 53.7471C133.112 53.7471 133.13 54.1989 133.191 54.9266C133.252 55.6543 133.374 56.6548 133.59 57.7463C133.805 58.8378 134.065 59.8119 134.263 60.5161C134.356 60.8418 134.434 61.1206 134.499 61.3494C134.554 61.546 134.58 61.6575 134.568 61.6604L134.571 61.6634Z" fill="#263238"/>
<path d="M136.473 65.2523C136.433 65.264 136.316 64.9941 136.214 64.6508C136.109 64.3075 136.06 64.017 136.101 64.0053C136.141 63.9935 136.258 64.2635 136.36 64.6068C136.465 64.95 136.514 65.2405 136.473 65.2523Z" fill="#263238"/>
<path d="M137.123 65.2051C137.085 65.2139 136.957 64.8119 136.951 64.2925C136.942 63.7732 137.056 63.3654 137.097 63.3742C137.14 63.383 137.097 63.7879 137.103 64.2896C137.108 64.7914 137.167 65.1963 137.123 65.2051Z" fill="#263238"/>
<path d="M133.939 59.7389C133.922 59.7771 132.419 59.0582 130.587 58.1369C128.755 57.2156 127.284 56.4351 127.301 56.397C127.319 56.3588 128.822 57.0777 130.654 57.999C132.486 58.9203 133.957 59.7008 133.939 59.7389Z" fill="#263238"/>
<path d="M136.584 46.1397C136.619 44.655 136.625 43.0911 136.625 43.0911C136.625 43.0911 134.734 42.7243 134.405 40.2186C134.091 37.8302 134.97 32.223 134.97 32.223C137.732 31.1726 140.601 32.1233 142.491 34.3767L142.022 46.4272C141.967 47.8268 140.729 48.8948 139.243 48.8244C137.743 48.754 136.552 47.551 136.584 46.1367V46.1397Z" fill="#B78876"/>
<path d="M134.828 36.7067C134.816 36.8768 134.95 37.0235 135.125 37.0382C135.3 37.0529 135.448 36.9267 135.46 36.7595C135.471 36.5893 135.337 36.4426 135.163 36.4279C134.988 36.4132 134.836 36.5394 134.828 36.7067Z" fill="#263238"/>
<path d="M134.708 36.2867C134.746 36.3307 134.991 36.1576 135.335 36.1664C135.675 36.1723 135.923 36.3542 135.961 36.3131C135.978 36.2955 135.94 36.2192 135.836 36.1371C135.731 36.0549 135.55 35.9728 135.335 35.9669C135.122 35.9639 134.941 36.0373 134.836 36.1136C134.729 36.1928 134.691 36.2662 134.711 36.2867H134.708Z" fill="#263238"/>
<path d="M138.297 36.9235C138.285 37.0936 138.419 37.2403 138.594 37.255C138.769 37.2697 138.917 37.1435 138.929 36.9763C138.94 36.809 138.806 36.6594 138.632 36.6447C138.457 36.63 138.305 36.7562 138.297 36.9235Z" fill="#263238"/>
<path d="M138.273 36.5035C138.311 36.5475 138.556 36.3744 138.9 36.3832C139.241 36.3891 139.488 36.571 139.526 36.5299C139.543 36.5123 139.506 36.436 139.398 36.3509C139.293 36.2688 139.112 36.1866 138.897 36.1807C138.684 36.1778 138.504 36.2512 138.399 36.3275C138.291 36.4067 138.253 36.48 138.273 36.5006V36.5035Z" fill="#263238"/>
<path d="M136.966 39.0241C136.966 39.0035 136.756 38.9625 136.412 38.9097C136.325 38.8979 136.243 38.8774 136.229 38.8187C136.211 38.7541 136.249 38.6603 136.293 38.5605C136.38 38.3492 136.471 38.1292 136.567 37.8974C136.948 36.9526 137.228 36.178 137.19 36.1604C137.152 36.1457 136.811 36.8968 136.427 37.8416C136.334 38.0734 136.246 38.2964 136.162 38.5077C136.127 38.6074 136.066 38.7189 136.106 38.851C136.127 38.9185 136.191 38.9654 136.246 38.983C136.302 39.0006 136.351 39.0036 136.395 39.0065C136.741 39.0329 136.957 39.0417 136.957 39.0212L136.966 39.0241Z" fill="#263238"/>
<path d="M136.628 43.094C136.628 43.094 138.291 43.2466 139.969 42.29C139.969 42.29 139.121 43.983 136.648 43.6838L136.631 43.094H136.628Z" fill="#A36957"/>
<path d="M139.366 35.5089C139.296 35.6174 139.037 35.5676 138.745 35.5147C138.454 35.4561 138.195 35.4032 138.172 35.2771C138.142 35.1568 138.442 34.9895 138.833 35.0629C139.22 35.1362 139.439 35.4032 139.369 35.5059L139.366 35.5089Z" fill="#263238"/>
<path d="M135.97 35.0046C135.943 35.1308 135.664 35.1748 135.343 35.1924C135.023 35.2041 134.74 35.1865 134.703 35.0633C134.665 34.9459 134.936 34.7523 135.323 34.7347C135.71 34.7171 135.996 34.8843 135.97 35.0046Z" fill="#263238"/>
<path d="M136.971 39.8485C136.899 39.828 136.817 39.869 136.782 39.9365C136.738 40.0158 136.759 40.1214 136.826 40.1801C136.893 40.2387 137.003 40.2387 137.073 40.183C137.143 40.1273 137.167 40.0187 137.126 39.9395C137.085 39.8602 136.986 39.8162 136.899 39.8426" fill="#A36957"/>
<path d="M137.053 39.8836C137.068 39.8689 136.998 39.7838 136.849 39.819C136.779 39.8337 136.689 39.8953 136.663 40.0039C136.636 40.1036 136.663 40.2327 136.765 40.3149C136.875 40.3912 137.006 40.3765 137.091 40.3149C137.184 40.2533 137.21 40.1418 137.196 40.0713C137.167 39.9158 137.053 39.8924 137.05 39.9129C137.038 39.9334 137.091 39.9863 137.079 40.0772C137.073 40.1212 137.053 40.1652 137.009 40.1858C136.969 40.2093 136.899 40.2093 136.861 40.1799C136.82 40.1506 136.8 40.086 136.808 40.0391C136.814 39.9892 136.846 39.954 136.887 39.9305C136.969 39.8836 137.038 39.907 137.05 39.8865L137.053 39.8836Z" fill="#263238"/>
<path d="M141.349 37.3255C141.055 38.0121 140.336 38.5431 140.435 39.2855C140.499 39.7637 140.805 40.2127 140.746 40.6909C140.671 41.2924 140.05 41.712 139.963 42.3135C139.855 43.05 140.566 43.6221 140.851 44.3117C141.265 45.3122 140.735 46.4389 140.723 47.5245C140.703 49.1853 142.107 50.7374 143.749 50.8753C144.414 50.9311 145.162 50.7286 145.509 50.1535C145.794 49.6782 145.736 49.0767 145.908 48.5486C146.161 47.7622 146.904 47.1901 147.061 46.3773C147.347 44.8985 145.573 43.6779 145.689 42.1756C145.739 41.533 146.132 40.9755 146.298 40.3535C146.517 39.5407 146.316 38.6253 145.777 37.9798C145.34 37.4546 144.705 37.1113 144.332 36.5391C143.91 35.8907 143.895 35.0662 143.735 34.3062C143.347 32.4548 141.967 30.8469 140.205 30.1926C138.442 29.5383 136.354 29.8581 134.866 31.0112C134.866 31.0112 134.443 32.9448 136.412 33.2676C138.384 33.5903 139.296 33.2177 139.517 34.0128C139.517 34.0128 139.293 34.943 140.109 35.8291C140.924 36.7181 141.69 36.5303 141.346 37.3284L141.349 37.3255Z" fill="#263238"/>
<path d="M144.492 50.7373C144.492 50.7373 144.431 50.7373 144.312 50.7197C144.195 50.7021 144.023 50.6611 143.811 50.5848C143.391 50.4293 142.794 50.0918 142.287 49.4463C142.034 49.1265 141.798 48.7392 141.638 48.2844C141.475 47.8325 141.381 47.3191 141.373 46.7792C141.361 46.2393 141.437 45.6701 141.582 45.1038C141.655 44.8192 141.751 44.5375 141.862 44.2558C141.97 43.9742 142.104 43.7013 142.182 43.4137C142.264 43.1262 142.255 42.8328 142.182 42.554C142.107 42.2753 141.976 42.0112 141.85 41.7501C141.722 41.4889 141.594 41.2307 141.51 40.9549C141.425 40.682 141.393 40.3857 141.448 40.1128C141.565 39.5612 141.897 39.1504 142.095 38.7308C142.302 38.3142 142.369 37.877 142.36 37.4809C142.325 36.6828 141.987 36.0901 141.711 35.7498C141.422 35.4094 141.204 35.2774 141.215 35.2656C141.215 35.2656 141.446 35.3742 141.754 35.7116C142.051 36.049 142.415 36.6476 142.465 37.475C142.482 37.8829 142.421 38.3465 142.209 38.7837C142.008 39.2179 141.687 39.6316 141.585 40.1363C141.483 40.6468 141.722 41.172 141.981 41.6826C142.11 41.9437 142.244 42.2137 142.325 42.5129C142.407 42.8093 142.418 43.1467 142.328 43.4519C142.247 43.76 142.11 44.0358 142.002 44.3116C141.894 44.5874 141.798 44.8661 141.725 45.1419C141.58 45.6965 141.504 46.251 141.513 46.7763C141.515 47.8325 141.877 48.7597 142.369 49.3788C142.852 50.0155 143.423 50.3588 143.831 50.5261C144.245 50.6933 144.495 50.7197 144.489 50.7373H144.492Z" fill="#455A64"/>
<path d="M144.204 35.9317C144.204 35.9317 144.052 35.9699 143.77 35.9963C143.49 36.0197 143.077 36.052 142.57 35.964C142.078 35.873 141.451 35.6295 141.055 35.0397C140.86 34.7434 140.784 34.3854 140.659 34.0539C140.54 33.7194 140.31 33.4289 139.995 33.2294C139.357 32.8215 138.608 32.7716 137.953 32.6924C137.295 32.6161 136.674 32.4753 136.255 32.1584C135.833 31.8562 135.617 31.463 135.559 31.1784C135.527 31.0376 135.53 30.9231 135.536 30.8469C135.547 30.7706 135.553 30.7324 135.559 30.7324C135.576 30.7324 135.538 30.8938 135.614 31.1608C135.684 31.4249 135.903 31.7887 136.313 32.0675C136.718 32.355 137.309 32.4812 137.965 32.5487C138.614 32.622 139.392 32.6631 140.074 33.0973C140.411 33.3086 140.671 33.6402 140.793 33.9952C140.924 34.3443 140.994 34.6876 141.169 34.9576C141.524 35.5033 142.112 35.7527 142.584 35.8525C143.071 35.9523 143.481 35.9376 143.761 35.9317C144.041 35.9229 144.198 35.9141 144.198 35.9259L144.204 35.9317Z" fill="#455A64"/>
<path d="M143.479 33.5434C143.479 33.5434 143.362 33.5875 143.138 33.5933C142.916 33.5992 142.584 33.561 142.217 33.385C142.034 33.297 141.847 33.1737 141.676 33.0065C141.501 32.8392 141.358 32.6251 141.224 32.3991C140.962 31.9531 140.709 31.4015 140.164 31.1756C139.631 30.9438 139.042 30.9966 138.533 31.0318C138.017 31.0817 137.534 31.0993 137.14 31.0201C136.744 30.9497 136.447 30.7854 136.281 30.6328C136.197 30.5565 136.141 30.489 136.109 30.4391C136.077 30.3892 136.063 30.3628 136.066 30.3599C136.077 30.3511 136.147 30.4538 136.319 30.5858C136.488 30.7179 136.776 30.8587 137.158 30.9145C137.542 30.9761 138.003 30.9526 138.521 30.8939C139.034 30.8528 139.64 30.7883 140.225 31.0377C140.516 31.1609 140.752 31.381 140.921 31.6186C141.093 31.8563 141.215 32.1057 141.346 32.3287C141.475 32.5546 141.606 32.76 141.766 32.9185C141.923 33.0798 142.095 33.2031 142.267 33.2911C142.608 33.4701 142.925 33.5258 143.141 33.5376C143.356 33.5493 143.479 33.5346 143.482 33.5464L143.479 33.5434Z" fill="#455A64"/>
<path d="M145.363 50.1033C145.348 50.0974 145.442 49.9067 145.549 49.5458C145.657 49.1849 145.762 48.645 145.745 47.9731C145.721 47.3071 145.564 46.5002 145.124 45.7314C144.912 45.3471 144.588 45.0038 144.323 44.5842C144.192 44.3729 144.079 44.1382 144.029 43.8771C143.979 43.6159 144.009 43.3372 144.093 43.0849C144.256 42.5772 144.55 42.1518 144.612 41.6853C144.69 41.2187 144.454 40.7933 144.233 40.4118C144.119 40.2182 144.009 40.0275 143.921 39.828C143.834 39.6284 143.779 39.4172 143.755 39.2147C143.712 38.8069 143.758 38.4313 143.787 38.0968C143.872 37.4278 143.811 36.8762 143.65 36.5388C143.496 36.1955 143.292 36.0928 143.307 36.0781C143.307 36.0781 143.321 36.0811 143.342 36.0957C143.362 36.1104 143.397 36.128 143.435 36.1632C143.513 36.2278 143.615 36.3393 143.703 36.5124C143.886 36.8557 143.965 37.4308 143.895 38.1056C143.872 38.443 143.831 38.8127 143.88 39.2001C143.918 39.5903 144.119 39.9571 144.352 40.3385C144.466 40.5321 144.585 40.7346 144.67 40.9635C144.757 41.1894 144.795 41.4505 144.757 41.7029C144.687 42.2163 144.387 42.6506 144.236 43.1259C144.157 43.3636 144.134 43.6101 144.175 43.8448C144.218 44.0795 144.32 44.2996 144.446 44.502C144.696 44.907 145.022 45.2561 145.241 45.6581C145.686 46.4532 145.838 47.2836 145.849 47.9673C145.855 48.6538 145.73 49.2025 145.605 49.5605C145.541 49.7395 145.485 49.8774 145.436 49.9654C145.392 50.0564 145.366 50.1004 145.363 50.1004V50.1033Z" fill="#455A64"/>
<path d="M133.497 104.775C133.497 104.775 131.536 86.0439 131.423 79.1223C131.309 72.2006 134.513 65.3699 134.513 65.3699L147.061 64.8359C147.061 64.8359 149.543 71.8603 149.587 74.8091C149.674 80.5424 148.075 86.2023 148.258 90.7503L148.678 104.775" fill="#263238"/>
<path d="M149.097 81.7453C149.097 81.7453 149.027 81.8039 148.893 81.9008C148.858 81.9272 148.82 81.9536 148.78 81.9829C148.742 82.0152 148.701 82.0592 148.657 82.1003C148.57 82.1854 148.465 82.2822 148.378 82.4142C147.973 82.913 147.676 83.808 147.396 84.9229C147.242 85.4775 147.084 86.0966 146.761 86.7039C146.674 86.8507 146.595 87.0091 146.482 87.147C146.426 87.2174 146.377 87.2937 146.318 87.3612L146.126 87.5548C145.864 87.816 145.532 88.0096 145.182 88.1652C144.48 88.4762 143.688 88.6229 142.963 88.9896C142.235 89.3476 141.687 90.0401 141.352 90.8382C141 91.6333 140.784 92.4666 140.49 93.2471C140.202 94.0217 139.806 94.7728 139.179 95.2482C138.559 95.7411 137.79 95.8526 137.126 95.8966C136.45 95.9377 135.824 95.9171 135.265 96.0022C134.705 96.0815 134.21 96.2575 133.861 96.5363C133.508 96.815 133.304 97.1642 133.208 97.4634C133.109 97.7657 133.127 98.0209 133.159 98.1823C133.191 98.3466 133.237 98.4258 133.226 98.4288C133.226 98.4288 133.17 98.3554 133.127 98.1882C133.083 98.0239 133.054 97.7598 133.15 97.4429C133.24 97.129 133.444 96.7651 133.805 96.4688C134.166 96.1724 134.676 95.9817 135.247 95.8937C135.818 95.7998 136.45 95.8145 137.117 95.7675C137.775 95.7206 138.509 95.6032 139.095 95.1337C139.686 94.6819 140.068 93.9571 140.35 93.1913C140.639 92.4197 140.854 91.5864 141.212 90.7736C141.55 89.9608 142.13 89.2244 142.893 88.8547C143.647 88.4791 144.44 88.3353 145.124 88.0361C145.465 87.8864 145.782 87.7016 146.033 87.458L146.219 87.2732C146.278 87.2086 146.324 87.1353 146.377 87.0707C146.487 86.9387 146.563 86.7861 146.648 86.6453C146.968 86.0584 147.128 85.4452 147.291 84.8936C147.585 83.7845 147.9 82.8778 148.331 82.379C148.424 82.247 148.535 82.1502 148.625 82.068C148.672 82.0269 148.713 81.9859 148.753 81.9536C148.797 81.9272 148.838 81.9008 148.873 81.8773C149.016 81.7863 149.091 81.7423 149.094 81.7453H149.097Z" fill="#FAFAFA"/>
<path d="M149.176 73.0781C149.176 73.0781 149.188 73.1632 149.193 73.3305C149.193 73.4948 149.176 73.7412 149.106 74.0464C148.96 74.6567 148.518 75.4959 147.687 76.2558C147.277 76.6372 146.785 77.004 146.217 77.3385C145.654 77.6759 145.034 77.9957 144.399 78.3566C143.767 78.7205 143.112 79.1283 142.538 79.6741C141.955 80.211 141.521 80.9181 141.128 81.6693C140.732 82.4175 140.382 83.1774 139.908 83.8376C139.672 84.1662 139.407 84.4685 139.112 84.7237C138.815 84.979 138.492 85.1873 138.166 85.3604C137.507 85.7037 136.838 85.9179 136.217 86.1145C135.594 86.3082 135.014 86.4813 134.504 86.6955C133.995 86.9067 133.555 87.1473 133.2 87.3997C132.844 87.6549 132.573 87.919 132.381 88.1596C131.994 88.6437 131.912 88.9929 131.889 88.9841C131.883 88.9841 131.912 88.9019 131.97 88.7464C132.037 88.5968 132.142 88.3738 132.334 88.1244C132.524 87.875 132.792 87.5963 133.15 87.3322C133.508 87.0681 133.951 86.8187 134.464 86.5986C134.976 86.3757 135.559 86.1967 136.179 85.9971C136.797 85.7976 137.461 85.5805 138.102 85.2401C138.422 85.07 138.734 84.8675 139.019 84.6181C139.302 84.3687 139.561 84.0753 139.788 83.7555C140.251 83.11 140.598 82.3559 140.997 81.6018C141.39 80.8507 141.839 80.123 142.439 79.5714C143.027 79.0139 143.694 78.6031 144.332 78.2393C144.973 77.8784 145.593 77.5644 146.155 77.2358C146.718 76.913 147.207 76.5551 147.618 76.1854C148.442 75.4489 148.89 74.6362 149.051 74.0405C149.208 73.439 149.156 73.0869 149.179 73.0869L149.176 73.0781Z" fill="#FAFAFA"/>
<path d="M131.487 80.1141C131.487 80.1141 131.475 80.0965 131.461 80.0584C131.449 80.0202 131.423 79.9615 131.405 79.8823C131.37 79.7268 131.347 79.4774 131.434 79.1781C131.597 78.5796 132.241 77.8372 133.278 77.4646C133.794 77.2856 134.382 77.1771 134.991 77.0157C135.594 76.8514 136.252 76.6225 136.744 76.1149C136.989 75.8626 137.196 75.5662 137.365 75.2376C137.531 74.906 137.671 74.551 137.799 74.1842C138.061 73.4536 138.279 72.6585 138.722 71.9337C139.162 71.2061 139.878 70.6985 140.621 70.4461C141.361 70.1733 142.11 70.05 142.8 69.8886C143.496 69.7361 144.146 69.5395 144.696 69.2373C145.241 68.9262 145.672 68.5125 145.978 68.0724C146.607 67.1922 146.77 66.2914 146.793 65.6958C146.808 65.0913 146.712 64.7598 146.732 64.7568C146.732 64.7568 146.849 65.0796 146.854 65.6958C146.849 66.3002 146.7 67.2245 146.068 68.134C145.759 68.5888 145.319 69.0201 144.76 69.3458C144.195 69.6598 143.531 69.8652 142.835 70.0236C142.139 70.1879 141.396 70.3141 140.676 70.584C139.951 70.8364 139.278 71.3146 138.853 72.013C138.425 72.7084 138.206 73.4947 137.941 74.2312C137.81 74.6009 137.668 74.9618 137.496 75.3021C137.318 75.6396 137.103 75.9506 136.843 76.2117C136.322 76.7457 135.635 76.9746 135.023 77.136C134.402 77.2944 133.82 77.3942 133.313 77.5644C132.302 77.9106 131.662 78.6236 131.49 79.1928C131.396 79.4774 131.408 79.718 131.434 79.8735C131.466 80.029 131.493 80.1083 131.487 80.1112V80.1141Z" fill="#FAFAFA"/>
<path d="M148.095 95.9521C148.095 95.9521 148.107 96.0138 148.116 96.137C148.121 96.2573 148.116 96.4392 148.063 96.6681C147.961 97.1199 147.615 97.739 146.962 98.2525C146.642 98.5137 146.254 98.7513 145.806 98.942C145.36 99.1328 144.868 99.2853 144.355 99.4467C143.843 99.6081 143.304 99.7783 142.78 100.025C142.252 100.268 141.766 100.623 141.346 101.078C140.921 101.527 140.554 102.017 140.149 102.448C139.744 102.883 139.284 103.241 138.807 103.508C137.848 104.042 136.855 104.223 136.037 104.232C135.212 104.241 134.56 104.068 134.129 103.912C133.913 103.836 133.75 103.76 133.645 103.704C133.537 103.651 133.482 103.619 133.485 103.616C133.485 103.61 133.546 103.634 133.657 103.678C133.768 103.725 133.931 103.792 134.146 103.86C134.577 103.995 135.224 104.15 136.031 104.127C136.835 104.103 137.805 103.912 138.734 103.387C139.197 103.126 139.64 102.777 140.036 102.349C140.435 101.923 140.799 101.433 141.233 100.975C141.658 100.512 142.174 100.139 142.713 99.8927C143.251 99.6404 143.796 99.4731 144.312 99.3147C144.827 99.1562 145.317 99.0095 145.753 98.8276C146.19 98.6457 146.575 98.4168 146.889 98.1674C147.533 97.6745 147.883 97.0877 147.999 96.6505C148.113 96.2104 148.069 95.9521 148.089 95.9521H148.095Z" fill="#FAFAFA"/>
<path d="M146.665 57.0568L144.239 57.1155C144.079 57.94 143.691 58.5034 143.691 58.5034C141.661 54.956 140.088 50.2027 139.698 48.2926C139.756 48.1018 139.823 47.8906 139.908 47.6559C140.004 47.383 139.922 46.8666 139.875 46.582C139.808 46.1565 139.689 45.5844 139.654 45.3203C139.546 44.5134 139.418 44.3872 139.139 44.4782C138.757 44.6014 139.296 46.7463 138.984 46.7903C138.818 46.8167 138.611 46.0802 138.553 45.4787C138.495 44.8772 138.224 43.0229 138.026 42.8996C137.738 42.7177 137.484 43.0052 137.557 43.6038C137.63 44.2112 137.723 46.0215 137.408 46.045C137.097 46.0685 136.835 42.9964 136.835 42.9964C136.835 42.9964 136.884 42.3275 136.517 42.3451C135.856 42.3744 136.371 45.6137 136.43 45.9188C136.47 46.133 136.127 46.1712 136.098 45.9394C136.066 45.7017 135.908 42.8673 135.235 42.8908C134.72 42.9084 135.635 45.5609 135.346 46.1741C135.058 46.7874 134.857 44.0879 134.362 44.1232C134.178 44.1378 134.044 44.173 134.379 45.7017C134.56 46.5233 135.093 48.0344 135.556 49.2843C136.336 53.5241 139.762 67.0887 145.13 64.6035C148.133 63.2156 149.354 57.0568 149.354 57.0568H146.668H146.665Z" fill="#B78876"/>
<path d="M136.31 46.1245C136.31 46.1245 136.334 46.1275 136.38 46.1157C136.421 46.104 136.503 46.0512 136.491 45.9455C136.485 45.7636 136.456 45.4995 136.415 45.1563C136.383 44.81 136.281 44.3963 136.281 43.9063C136.278 43.6598 136.281 43.3958 136.299 43.117C136.307 42.9762 136.31 42.8324 136.342 42.6945C136.366 42.5625 136.453 42.4099 136.555 42.4275H136.567H136.572C136.677 42.4216 136.756 42.5038 136.791 42.627C136.829 42.7473 136.838 42.8852 136.829 43.0202V43.0261V43.029C136.896 43.7801 136.972 44.6017 137.14 45.479C137.164 45.5876 137.187 45.6991 137.222 45.8106C137.239 45.8663 137.257 45.9221 137.283 45.9778C137.298 46.0072 137.309 46.0336 137.333 46.0658C137.353 46.0922 137.379 46.1363 137.455 46.1421C137.577 46.1333 137.612 46.0394 137.639 45.9866C137.665 45.925 137.682 45.8663 137.694 45.8076C137.72 45.6873 137.732 45.57 137.74 45.4497C137.773 44.9714 137.755 44.4814 137.72 43.9826C137.708 43.7303 137.647 43.4779 137.691 43.2491C137.711 43.1376 137.758 43.0231 137.834 42.9762C137.872 42.9527 137.912 42.9498 137.959 42.9615C137.982 42.9674 138.006 42.9791 138.029 42.9909C138.049 43.0085 138.043 42.9997 138.061 43.0349C138.157 43.2461 138.209 43.519 138.262 43.7713C138.314 44.0325 138.358 44.2966 138.399 44.5636C138.44 44.8306 138.477 45.1034 138.509 45.3734C138.536 45.6463 138.574 45.9309 138.643 46.2067C138.678 46.3446 138.716 46.4825 138.775 46.6204C138.804 46.6879 138.836 46.7583 138.894 46.8287C138.914 46.8581 138.984 46.9138 139.069 46.8933C139.15 46.8669 139.174 46.7994 139.188 46.7612C139.235 46.591 139.22 46.4531 139.22 46.3035C139.214 46.1568 139.203 46.013 139.191 45.8693C139.171 45.6228 139.147 45.3763 139.139 45.1357C139.136 45.0154 139.136 44.8951 139.147 44.7836C139.153 44.7279 139.165 44.6721 139.182 44.631C139.191 44.6105 139.203 44.5958 139.211 44.587C139.217 44.5812 139.22 44.587 139.223 44.5782L139.261 44.5665C139.453 44.4873 139.517 44.7572 139.57 44.9743C139.613 45.2032 139.642 45.4379 139.689 45.6697C139.765 46.1333 139.864 46.591 139.916 47.0312C139.937 47.2512 139.954 47.4772 139.89 47.662C139.82 47.8733 139.753 48.0845 139.686 48.2929L139.68 48.3105L139.686 48.331C140.042 49.9096 140.534 51.3209 140.988 52.5738C141.448 53.8266 141.912 54.9064 142.316 55.7925C142.721 56.6786 143.085 57.3593 143.339 57.8259C143.467 58.0459 143.566 58.222 143.642 58.3511C143.712 58.4684 143.749 58.5301 143.755 58.5271C143.758 58.5271 143.729 58.4596 143.665 58.3364C143.595 58.2044 143.502 58.0254 143.385 57.7995C143.149 57.3271 142.8 56.6405 142.407 55.7514C142.013 54.8624 141.565 53.7797 141.113 52.5268C140.668 51.2739 140.184 49.8597 139.841 48.2987V48.3369C139.905 48.1315 139.975 47.9261 140.042 47.7148C140.12 47.4742 140.097 47.2424 140.077 47.0136C140.024 46.5558 139.928 46.1099 139.852 45.6433C139.809 45.4145 139.779 45.1768 139.733 44.9391C139.707 44.8188 139.68 44.6985 139.613 44.5753C139.581 44.5166 139.532 44.4491 139.453 44.411C139.372 44.3758 139.29 44.3846 139.223 44.4022L139.174 44.4169C139.15 44.4257 139.124 44.4374 139.107 44.455C139.069 44.4873 139.048 44.5254 139.034 44.5606C139.002 44.631 138.993 44.6956 138.984 44.7601C138.97 44.8892 138.97 45.0154 138.975 45.1386C138.984 45.3881 139.008 45.6345 139.028 45.881C139.04 46.0248 139.051 46.1656 139.057 46.3064C139.063 46.4443 139.066 46.594 139.037 46.6996C139.031 46.729 139.016 46.726 139.031 46.7407C139.031 46.7407 139.031 46.7583 139.031 46.7524V46.7407C139.031 46.7407 139.04 46.729 139.034 46.726C139.034 46.726 139.025 46.7202 139.016 46.7084C138.984 46.6703 138.952 46.6116 138.926 46.55C138.874 46.4267 138.836 46.2947 138.804 46.1597C138.737 45.8898 138.699 45.6228 138.673 45.347C138.641 45.0712 138.603 44.7983 138.559 44.5283C138.518 44.2584 138.472 43.9914 138.419 43.7303C138.358 43.4662 138.32 43.2109 138.198 42.9468C138.189 42.9204 138.14 42.8618 138.107 42.8442C138.075 42.8236 138.038 42.8089 138 42.7972C137.921 42.7767 137.825 42.7855 137.752 42.8324C137.606 42.9292 137.563 43.0818 137.537 43.2139C137.513 43.3518 137.516 43.4867 137.531 43.6158C137.545 43.742 137.557 43.8652 137.566 43.9885C137.604 44.4814 137.621 44.9685 137.592 45.435C137.583 45.5494 137.572 45.6668 137.551 45.7754C137.54 45.8311 137.525 45.881 137.507 45.9279C137.499 45.9514 137.487 45.9719 137.475 45.9837C137.464 46.0072 137.455 45.9778 137.458 46.0189C137.473 45.9896 137.458 46.0042 137.446 45.9808C137.435 45.9661 137.423 45.9397 137.411 45.9191C137.391 45.8722 137.373 45.8194 137.356 45.7695C137.324 45.6668 137.298 45.5582 137.274 45.4497C137.103 44.587 137.021 43.7625 136.945 43.0202V43.029C136.951 42.8794 136.942 42.7356 136.899 42.5918C136.875 42.5214 136.843 42.451 136.785 42.3952C136.727 42.3395 136.645 42.3131 136.57 42.316H136.587C136.471 42.2955 136.383 42.3688 136.337 42.4392C136.287 42.5126 136.264 42.5918 136.246 42.6681C136.214 42.8207 136.214 42.9674 136.208 43.1082C136.197 43.3899 136.197 43.6569 136.203 43.9034C136.211 44.4051 136.325 44.8188 136.363 45.1592C136.412 45.4996 136.45 45.7636 136.468 45.9426C136.485 46.0277 136.418 46.0805 136.383 46.0952C136.342 46.1128 136.319 46.1157 136.319 46.1187L136.31 46.1245Z" fill="#A36957"/>
<path d="M117.343 61.0977C117.343 61.0977 116.536 61.0595 115.656 61.2913C114.153 61.6904 111.555 63.2748 111.447 65.2348H113.332C113.332 65.2348 112.274 67.5 112.586 67.2887C113.39 66.7459 114.995 65.1028 114.995 65.1028L117.343 61.0947V61.0977Z" fill="#B78876"/>
<path d="M143.068 27.0058C143.027 27.0087 142.855 25.439 142.686 23.4966C142.517 21.5542 142.413 19.9785 142.456 19.9756C142.497 19.9727 142.669 21.5424 142.838 23.4848C143.007 25.4272 143.112 27.0029 143.068 27.0058Z" fill="#263238"/>
<path d="M151.343 20.0725C151.378 20.096 150.102 21.9591 148.497 24.2331C146.892 26.5071 145.561 28.3292 145.526 28.3057C145.491 28.2822 146.767 26.419 148.372 24.1451C149.977 21.8711 151.308 20.049 151.34 20.0725H151.343Z" fill="#263238"/>
<path d="M154.78 28.5167C154.789 28.5578 153.3 28.9011 151.46 29.2826C149.616 29.664 148.116 29.9398 148.107 29.8987C148.098 29.8577 149.587 29.5144 151.427 29.1329C153.271 28.7515 154.771 28.4757 154.78 28.5167Z" fill="#263238"/>
<path d="M55.7148 68.818L45.4154 122.161L44.0668 129.144L112.825 128.804C115.909 128.789 118.645 126.028 119.638 121.929L131.83 71.5673C132.585 68.4541 130.93 65.2178 128.589 65.2178L58.9975 65.2911C57.4595 65.2911 56.1168 66.7377 55.7148 68.818Z" fill="#645DF6"/>
<g opacity="0.5">
<path d="M55.7148 68.818L45.4154 122.161L44.0668 129.144L112.825 128.804C115.909 128.789 118.645 126.028 119.638 121.929L131.83 71.5673C132.585 68.4541 130.93 65.2178 128.589 65.2178L58.9975 65.2911C57.4595 65.2911 56.1168 66.7377 55.7148 68.818Z" fill="black"/>
</g>
<path d="M106.23 118.548L98.9515 59.4517C98.6544 57.0311 96.7378 55.2237 94.4775 55.2325L78.5128 55.2853C77.3303 55.2882 76.1972 55.7958 75.3583 56.6937L67.7794 64.8095L23.3805 65.0442C20.6688 65.0589 18.5832 67.6439 18.9415 70.5516L25.702 125.171C26.002 127.588 27.9127 129.393 30.1701 129.387L107.547 129.234C116.166 129.413 116.987 126.852 116.987 126.852C107.11 129.055 106.23 118.557 106.23 118.551V118.548Z" fill="#645DF6"/>
<path d="M50.5998 93.6406H42.5425C41.6525 93.6406 40.931 94.356 40.931 95.2385V103.228C40.931 104.111 41.6525 104.826 42.5425 104.826H50.5998C51.4898 104.826 52.2112 104.111 52.2112 103.228V95.2385C52.2112 94.356 51.4898 93.6406 50.5998 93.6406Z" stroke="white" stroke-width="1.5" stroke-linecap="round" stroke-linejoin="round"/>
<path d="M79.606 81.6562H69.9373C69.0473 81.6562 68.3258 82.3717 68.3258 83.2542V92.8417C68.3258 93.7242 69.0473 94.4396 69.9373 94.4396H79.606C80.496 94.4396 81.2175 93.7242 81.2175 92.8417V83.2542C81.2175 82.3717 80.496 81.6562 79.606 81.6562Z" stroke="white" stroke-width="1.5" stroke-linecap="round" stroke-linejoin="round"/>
<path d="M79.606 104.027H69.9373C69.0473 104.027 68.3258 104.743 68.3258 105.625V115.213C68.3258 116.095 69.0473 116.811 69.9373 116.811H79.606C80.496 116.811 81.2175 116.095 81.2175 115.213V105.625C81.2175 104.743 80.496 104.027 79.606 104.027Z" stroke="white" stroke-width="1.5" stroke-linecap="round" stroke-linejoin="round"/>
<path d="M52.2113 99.2334H60.2686" stroke="white" stroke-width="1.5" stroke-linecap="round" stroke-linejoin="round"/>
<path d="M68.3259 110.419H65.103C64.4674 110.421 63.8375 110.299 63.2498 110.059C62.6621 109.819 62.1281 109.466 61.6786 109.021C61.2292 108.575 60.8732 108.045 60.6312 107.463C60.3892 106.88 60.2659 106.255 60.2686 105.625V92.8416C60.2659 92.2114 60.3892 91.5868 60.6312 91.004C60.8732 90.4212 61.2292 89.8917 61.6786 89.4461C62.1281 89.0004 62.6621 88.6474 63.2498 88.4074C63.8375 88.1674 64.4674 88.0453 65.103 88.0479H68.3259" stroke="white" stroke-width="1.5" stroke-linecap="round" stroke-linejoin="round"/>
<path d="M62.0519 112.876C69.6227 112.876 75.76 106.725 75.76 99.1376C75.76 91.5502 69.6227 85.3994 62.0519 85.3994C54.4811 85.3994 48.3438 91.5502 48.3438 99.1376C48.3438 106.725 54.4811 112.876 62.0519 112.876Z" stroke="#B2AEFA" stroke-width="5.5" stroke-linecap="round" stroke-linejoin="round"/>
<path d="M52.3563 89.4209L71.7476 108.855" stroke="#B2AEFA" stroke-width="5.5" stroke-linecap="round" stroke-linejoin="round"/>
<path d="M117.281 30.4508C117.095 30.3716 116.961 30.1867 116.952 29.9696L116.836 27.2467C116.827 27.0765 116.9 26.9093 117.031 26.8007C117.162 26.6921 117.337 26.6511 117.503 26.6892C117.937 26.7919 118.417 26.698 118.816 26.4281C119.186 26.1787 119.434 25.8148 119.495 25.4246C119.559 25.0373 119.44 24.606 119.169 24.2451C118.878 23.8578 118.449 23.5996 118.021 23.5497C117.145 23.447 116.198 24.1248 115.953 25.0285C115.875 25.319 115.577 25.4921 115.286 25.4129C114.992 25.3307 114.826 25.0314 114.905 24.7409C115.286 23.3208 116.743 22.2997 118.146 22.4611C118.875 22.5462 119.565 22.954 120.037 23.5849C120.485 24.1835 120.681 24.917 120.57 25.6006C120.459 26.2872 120.04 26.921 119.419 27.3377C118.971 27.6399 118.458 27.8042 117.946 27.8218L118.036 29.9226C118.047 30.2248 117.817 30.4801 117.517 30.4919C117.433 30.4948 117.354 30.4801 117.281 30.4478V30.4508Z" fill="#645DF6"/>
<path d="M118.077 31.5662C118.094 31.8127 117.908 32.0269 117.663 32.0445C117.418 32.0621 117.206 31.8743 117.188 31.6278C117.171 31.3814 117.357 31.1672 117.602 31.1496C117.846 31.132 118.059 31.3198 118.077 31.5662Z" fill="#645DF6"/>
<path d="M107.92 26.6098C107.92 26.6098 107.931 26.5481 107.946 26.4308C107.961 26.3046 107.978 26.1286 108.004 25.9056C108.016 25.6738 108.077 25.3921 108.144 25.0635C108.182 24.8992 108.202 24.7172 108.264 24.5324C108.322 24.3475 108.38 24.148 108.444 23.9397C108.727 23.1152 109.161 22.1264 109.892 21.1435C110.617 20.1635 111.639 19.1923 112.95 18.4587C113.597 18.0714 114.334 17.8015 115.108 17.5609C115.895 17.3731 116.728 17.2117 117.599 17.2322C118.033 17.2088 118.473 17.2733 118.921 17.3115C119.146 17.332 119.364 17.3936 119.588 17.4318C119.813 17.4728 120.04 17.5169 120.258 17.5961C121.158 17.8279 122.032 18.2563 122.862 18.7844C124.534 19.8436 125.941 21.566 126.713 23.6551C127.1 24.6996 127.284 25.8439 127.284 27.0029C127.307 28.1619 127.083 29.3385 126.675 30.4476L126.544 30.7821L126.526 30.8261L126.544 30.8672C127.275 32.5631 127.992 34.2238 128.685 35.8347L128.807 35.6939C127.304 35.1129 125.845 34.5466 124.444 34.0067L124.388 33.9862L124.345 34.0273C123.133 35.2097 121.688 36.0078 120.226 36.4215C118.758 36.8382 117.278 36.8587 115.936 36.6181C114.587 36.3775 113.375 35.8582 112.362 35.1921C111.348 34.5261 110.533 33.7133 109.906 32.8888C109.283 32.0555 108.872 31.1988 108.564 30.4359C108.29 29.6554 108.124 28.9629 108.042 28.3878C108.007 28.1003 107.978 27.848 107.952 27.625C107.946 27.4049 107.94 27.2201 107.937 27.0645C107.931 26.9208 107.929 26.8063 107.926 26.7213C107.923 26.645 107.92 26.6039 107.917 26.6039C107.917 26.6039 107.911 26.642 107.911 26.7213C107.911 26.8063 107.911 26.9208 107.905 27.0645C107.905 27.2201 107.905 27.4078 107.905 27.6279C107.929 27.8509 107.952 28.1091 107.981 28.3966C108.054 28.9747 108.211 29.6759 108.479 30.4681C108.782 31.2428 109.19 32.1113 109.813 32.9622C110.442 33.8013 111.261 34.6317 112.286 35.3153C113.308 35.999 114.538 36.533 115.907 36.7824C117.273 37.0318 118.776 37.0172 120.27 36.5976C121.761 36.178 123.235 35.3711 124.473 34.1681L124.377 34.1886C125.775 34.7315 127.234 35.2977 128.737 35.8846L128.956 35.9697L128.86 35.7437C128.166 34.1329 127.45 32.4692 126.722 30.7733V30.8584L126.856 30.5151C127.275 29.3825 127.502 28.1766 127.479 26.9941C127.479 25.8117 127.29 24.6409 126.893 23.5729C126.104 21.4398 124.662 19.6852 122.958 18.6113C122.108 18.0743 121.219 17.643 120.302 17.4083C120.078 17.332 119.848 17.288 119.62 17.244C119.393 17.2058 119.169 17.1442 118.942 17.1237C118.487 17.0855 118.042 17.0239 117.599 17.0503C116.713 17.0327 115.869 17.2 115.071 17.3936C114.284 17.6401 113.539 17.9188 112.886 18.3149C111.561 19.069 110.533 20.0578 109.804 21.0584C109.073 22.0589 108.642 23.0653 108.371 23.8986C108.31 24.1099 108.252 24.3094 108.197 24.5001C108.138 24.6879 108.121 24.8727 108.086 25.0371C108.022 25.3716 107.969 25.6532 107.964 25.888C107.946 26.1139 107.934 26.287 107.926 26.4161C107.917 26.5335 107.917 26.5951 107.92 26.5951V26.6098Z" fill="#263238"/>
</g>
<defs>
<linearGradient id="paint0_linear_154_110935" x1="4.60458" y1="110.676" x2="4.60458" y2="120.532" gradientUnits="userSpaceOnUse">
<stop stop-color="#000AFF"/>
<stop offset="1" stop-color="#D274FF"/>
</linearGradient>
<linearGradient id="paint1_linear_154_110935" x1="11.4169" y1="117.458" x2="11.4169" y2="122.779" gradientUnits="userSpaceOnUse">
<stop stop-color="#000AFF"/>
<stop offset="1" stop-color="#D274FF"/>
</linearGradient>
<linearGradient id="paint2_linear_154_110935" x1="3.67854" y1="121.309" x2="3.67854" y2="125.465" gradientUnits="userSpaceOnUse">
<stop stop-color="#000AFF"/>
<stop offset="1" stop-color="#D274FF"/>
</linearGradient>
<linearGradient id="paint3_linear_154_110935" x1="138.986" y1="45.0684" x2="138.986" y2="66.8338" gradientUnits="userSpaceOnUse">
<stop stop-color="#000AFF"/>
<stop offset="1" stop-color="#D274FF"/>
</linearGradient>
<linearGradient id="paint4_linear_154_110935" x1="147.061" y1="51.3066" x2="147.061" y2="57.0458" gradientUnits="userSpaceOnUse">
<stop stop-color="#000AFF"/>
<stop offset="1" stop-color="#D274FF"/>
</linearGradient>
<clipPath id="clip0_154_110935">
<rect width="169" height="130" fill="white"/>
</clipPath>
</defs>
</svg>
