<svg width="24" height="24" viewBox="0 0 24 24" fill="none" xmlns="http://www.w3.org/2000/svg">
<g clip-path="url(#clip0_177_35758)">
<path d="M21.8536 12.4394C21.5386 12.7544 21 12.5313 21 12.0859V3.5C21 3.22386 20.7761 3 20.5 3H13.5C13.2239 3 13 2.77614 13 2.5V1.5C13 1.22386 12.7761 1 12.5 1H8.5C8.22386 1 8 1.22386 8 1.5V2.5C8 2.77614 7.77614 3 7.5 3H3.5C3.22386 3 3 3.22386 3 3.5V6.5C3 6.77614 3.22386 7 3.5 7C3.77614 7 4 6.77614 4 6.5V4.5C4 4.22386 4.22386 4 4.5 4H7.5C7.77614 4 8 4.22386 8 4.5V5.5C8 5.77614 8.22386 6 8.5 6H12.5C12.7761 6 13 5.77614 13 5.5V4.5C13 4.22386 13.2239 4 13.5 4H19.5C19.7761 4 20 4.22386 20 4.5V12.0859C20 12.5313 19.4614 12.7544 19.1464 12.4394L18.0605 11.3535C17.8653 11.1583 17.5487 11.1583 17.3535 11.3535C17.1583 11.5487 17.1583 11.8653 17.3535 12.0605L20.1464 14.8534C20.3417 15.0487 20.6583 15.0487 20.8536 14.8534L23.6465 12.0605C23.8417 11.8653 23.8417 11.5487 23.6465 11.3535C23.4513 11.1583 23.1347 11.1583 22.9395 11.3535L21.8536 12.4394ZM12 4.5C12 4.77614 11.7761 5 11.5 5H9.5C9.22386 5 9 4.77614 9 4.5V2.5C9 2.22386 9.22386 2 9.5 2H11.5C11.7761 2 12 2.22386 12 2.5V4.5ZM20 19.5C20 19.7761 19.7761 20 19.5 20H17.5C17.2239 20 17 19.7761 17 19.5V18.5C17 18.2239 16.7761 18 16.5 18H12.5C12.2239 18 12 18.2239 12 18.5V19.5C12 19.7761 11.7761 20 11.5 20H4.5C4.22386 20 4 19.7761 4 19.5V11.9141C4 11.4687 4.53857 11.2456 4.85355 11.5606L5.9395 12.6465C6.13473 12.8417 6.45127 12.8417 6.6465 12.6465C6.84173 12.4513 6.84173 12.1347 6.6465 11.9395L3.85355 9.14655C3.65829 8.95129 3.34171 8.95129 3.14645 9.14655L0.3535 11.9395C0.158267 12.1347 0.158267 12.4513 0.3535 12.6465C0.548733 12.8417 0.865267 12.8417 1.0605 12.6465L2.14645 11.5606C2.46143 11.2456 3 11.4687 3 11.9141V20.5C3 20.7761 3.22386 21 3.5 21H11.5C11.7761 21 12 21.2239 12 21.5V22.5C12 22.7761 12.2239 23 12.5 23H16.5C16.7761 23 17 22.7761 17 22.5V21.5C17 21.2239 17.2239 21 17.5 21H20.5C20.7761 21 21 20.7761 21 20.5V17.5C21 17.2239 20.7761 17 20.5 17C20.2239 17 20 17.2239 20 17.5V19.5ZM16 21.5C16 21.7761 15.7761 22 15.5 22H13.5C13.2239 22 13 21.7761 13 21.5V19.5C13 19.2239 13.2239 19 13.5 19H15.5C15.7761 19 16 19.2239 16 19.5V21.5Z" fill="url(#paint0_linear_177_35758)"/>
</g>
<defs>
<linearGradient id="paint0_linear_177_35758" x1="12" y1="1" x2="12" y2="23" gradientUnits="userSpaceOnUse">
<stop stop-color="#000AFF"/>
<stop offset="1" stop-color="#D274FF"/>
</linearGradient>
<clipPath id="clip0_177_35758">
<rect width="24" height="24" fill="white"/>
</clipPath>
</defs>
</svg>
