<svg width="36" height="37" viewBox="0 0 36 37" fill="none" xmlns="http://www.w3.org/2000/svg">
<rect x="12" width="24" height="24" rx="12" fill="#F6DDEF"/>
<g clip-path="url(#clip0_106_2043)">
<path d="M27.7636 14.3563L15.5466 7.10268C15.3182 6.96686 15.0342 6.96686 14.8058 7.0965L2.42218 14.0476C2.19376 14.1773 2.0456 14.418 2.0456 14.6835L1.87275 28.8883C1.86658 29.1537 2.00856 29.3945 2.2308 29.5303L14.5095 36.8951C14.6268 36.963 14.7564 37 14.8923 37C15.0157 37 15.1392 36.9691 15.2565 36.9074L27.6463 29.9563C27.8809 29.8266 28.0229 29.5797 28.0229 29.3142L28.1278 14.9983C28.1278 14.7329 27.992 14.486 27.7636 14.3563ZM14.2564 35.0184L3.35435 28.4808L3.50868 16.0231L14.2564 22.3693V35.0184ZM15.0096 21.0914L4.23096 14.7329L15.1577 8.59662L25.924 14.986L15.0096 21.0914ZM26.5413 28.8698L15.738 34.932V22.3754L26.6339 16.2824L26.5413 28.8698Z" fill="url(#paint0_linear_106_2043)"/>
<path d="M10.0401 25.4621C10.1636 25.4621 10.287 25.4312 10.4043 25.3695C10.7624 25.1658 10.8858 24.7151 10.6883 24.3632C10.4907 24.0052 10.0401 23.8817 9.68203 24.0793C9.32398 24.2768 9.20052 24.7275 9.39806 25.0855C9.53388 25.3263 9.78081 25.4621 10.0401 25.4621Z" fill="url(#paint1_linear_106_2043)"/>
<path d="M7.5645 26.8573C7.68797 26.8573 7.81143 26.8264 7.92873 26.7647C8.28678 26.5671 8.41024 26.1103 8.2127 25.7584C8.01515 25.4004 7.55833 25.2769 7.20645 25.4744C6.8484 25.672 6.72493 26.1288 6.92248 26.4807C7.05212 26.7215 7.30522 26.8573 7.5645 26.8573Z" fill="url(#paint2_linear_106_2043)"/>
<path d="M12.5215 24.0731C12.645 24.0731 12.7685 24.0422 12.8858 23.9805C13.2438 23.7829 13.3673 23.3261 13.1697 22.9742C12.9722 22.6162 12.5154 22.4927 12.1635 22.6903C11.8054 22.8878 11.682 23.3446 11.8795 23.6965C12.0091 23.9373 12.2623 24.0731 12.5215 24.0731Z" fill="url(#paint3_linear_106_2043)"/>
<path d="M5.08891 28.2462C5.21238 28.2462 5.33585 28.2154 5.45314 28.1536C5.81119 27.9499 5.93466 27.4993 5.73711 27.1474C5.53339 26.7893 5.08274 26.6659 4.73086 26.8634C4.37281 27.061 4.24934 27.5178 4.44689 27.8697C4.57653 28.1104 4.82964 28.2462 5.08891 28.2462Z" fill="url(#paint4_linear_106_2043)"/>
<path d="M21.9484 26.9313C22.0657 26.9992 22.1953 27.0363 22.3249 27.0363C22.5781 27.0363 22.825 26.9066 22.9608 26.6721C23.1707 26.3202 23.0534 25.8633 22.7015 25.6596C22.3496 25.4497 21.8928 25.567 21.6829 25.9189C21.4792 26.2708 21.5965 26.7214 21.9484 26.9313Z" fill="url(#paint5_linear_106_2043)"/>
<path d="M19.5039 25.4806C19.6212 25.5485 19.7508 25.5856 19.8804 25.5856C20.1335 25.5856 20.3805 25.4559 20.5163 25.2213C20.7262 24.8695 20.6089 24.4126 20.257 24.2089C19.9051 23.999 19.4483 24.1163 19.2446 24.4682C19.0409 24.8201 19.152 25.2707 19.5039 25.4806Z" fill="url(#paint6_linear_106_2043)"/>
<path d="M17.0652 24.0299C17.1825 24.0978 17.3121 24.1348 17.4418 24.1348C17.6949 24.1348 17.9418 24.0052 18.0776 23.7706C18.2875 23.4187 18.1702 22.9619 17.8184 22.7582C17.4665 22.5483 17.0097 22.6656 16.8059 23.0175C16.596 23.3694 16.7133 23.82 17.0652 24.0299Z" fill="url(#paint7_linear_106_2043)"/>
<path d="M24.3928 28.3821C24.5101 28.45 24.6398 28.487 24.7694 28.487C25.0225 28.487 25.2695 28.3574 25.4053 28.1228C25.6152 27.7709 25.4979 27.3141 25.146 27.1042C24.7941 26.8943 24.3373 27.0116 24.1336 27.3635C23.9237 27.7154 24.041 28.1722 24.3928 28.3821Z" fill="url(#paint8_linear_106_2043)"/>
<path d="M15.0776 15.5231C14.6702 15.5169 14.3307 15.8441 14.3307 16.2577C14.3245 16.6651 14.6517 17.0047 15.0591 17.0047C15.0591 17.0047 15.0653 17.0047 15.0714 17.0047C15.4789 17.0047 15.8061 16.6775 15.8122 16.27C15.8122 15.8626 15.4851 15.5231 15.0776 15.5231Z" fill="url(#paint9_linear_106_2043)"/>
<path d="M15.1084 12.6772C14.7009 12.671 14.3614 12.9982 14.3614 13.4056C14.3552 13.8131 14.6824 14.1526 15.096 14.1588H15.1022C15.5096 14.1588 15.8368 13.8316 15.843 13.4242C15.8492 13.0229 15.522 12.6834 15.1084 12.6772Z" fill="url(#paint10_linear_106_2043)"/>
<path d="M15.127 11.3191C15.127 11.3191 15.1331 11.3191 15.1393 11.3191C15.5468 11.3191 15.8739 10.9919 15.8801 10.5844C15.8863 10.177 15.5591 9.83746 15.1455 9.83746C14.7381 9.83128 14.3985 10.1585 14.3985 10.5659C14.3924 10.9795 14.7195 11.3129 15.127 11.3191Z" fill="url(#paint11_linear_106_2043)"/>
<path d="M15.0405 18.3628C14.6331 18.3566 14.2935 18.6838 14.2935 19.0912C14.2874 19.4987 14.6146 19.8382 15.0282 19.8444H15.0343C15.4418 19.8444 15.769 19.5172 15.7751 19.1098C15.7751 18.7023 15.448 18.369 15.0405 18.3628Z" fill="url(#paint12_linear_106_2043)"/>
</g>
<defs>
<linearGradient id="paint0_linear_106_2043" x1="15.0002" y1="7.00003" x2="15.0002" y2="37" gradientUnits="userSpaceOnUse">
<stop stop-color="#000AFF"/>
<stop offset="1" stop-color="#D274FF"/>
</linearGradient>
<linearGradient id="paint1_linear_106_2043" x1="10.0432" y1="23.9854" x2="10.0432" y2="25.4621" gradientUnits="userSpaceOnUse">
<stop stop-color="#000AFF"/>
<stop offset="1" stop-color="#D274FF"/>
</linearGradient>
<linearGradient id="paint2_linear_106_2043" x1="7.56759" y1="25.3806" x2="7.56759" y2="26.8573" gradientUnits="userSpaceOnUse">
<stop stop-color="#000AFF"/>
<stop offset="1" stop-color="#D274FF"/>
</linearGradient>
<linearGradient id="paint3_linear_106_2043" x1="12.5246" y1="22.5964" x2="12.5246" y2="24.0731" gradientUnits="userSpaceOnUse">
<stop stop-color="#000AFF"/>
<stop offset="1" stop-color="#D274FF"/>
</linearGradient>
<linearGradient id="paint4_linear_106_2043" x1="5.092" y1="26.7696" x2="5.092" y2="28.2462" gradientUnits="userSpaceOnUse">
<stop stop-color="#000AFF"/>
<stop offset="1" stop-color="#D274FF"/>
</linearGradient>
<linearGradient id="paint5_linear_106_2043" x1="22.324" y1="25.5554" x2="22.324" y2="27.0363" gradientUnits="userSpaceOnUse">
<stop stop-color="#000AFF"/>
<stop offset="1" stop-color="#D274FF"/>
</linearGradient>
<linearGradient id="paint6_linear_106_2043" x1="19.8818" y1="24.1046" x2="19.8818" y2="25.5856" gradientUnits="userSpaceOnUse">
<stop stop-color="#000AFF"/>
<stop offset="1" stop-color="#D274FF"/>
</linearGradient>
<linearGradient id="paint7_linear_106_2043" x1="17.4418" y1="22.6539" x2="17.4418" y2="24.1348" gradientUnits="userSpaceOnUse">
<stop stop-color="#000AFF"/>
<stop offset="1" stop-color="#D274FF"/>
</linearGradient>
<linearGradient id="paint8_linear_106_2043" x1="24.7694" y1="26.9999" x2="24.7694" y2="28.487" gradientUnits="userSpaceOnUse">
<stop stop-color="#000AFF"/>
<stop offset="1" stop-color="#D274FF"/>
</linearGradient>
<linearGradient id="paint9_linear_106_2043" x1="15.0714" y1="15.523" x2="15.0714" y2="17.0047" gradientUnits="userSpaceOnUse">
<stop stop-color="#000AFF"/>
<stop offset="1" stop-color="#D274FF"/>
</linearGradient>
<linearGradient id="paint10_linear_106_2043" x1="15.1022" y1="12.6771" x2="15.1022" y2="14.1588" gradientUnits="userSpaceOnUse">
<stop stop-color="#000AFF"/>
<stop offset="1" stop-color="#D274FF"/>
</linearGradient>
<linearGradient id="paint11_linear_106_2043" x1="15.1393" y1="9.83737" x2="15.1393" y2="11.3191" gradientUnits="userSpaceOnUse">
<stop stop-color="#000AFF"/>
<stop offset="1" stop-color="#D274FF"/>
</linearGradient>
<linearGradient id="paint12_linear_106_2043" x1="15.0343" y1="18.3627" x2="15.0343" y2="19.8444" gradientUnits="userSpaceOnUse">
<stop stop-color="#000AFF"/>
<stop offset="1" stop-color="#D274FF"/>
</linearGradient>
<clipPath id="clip0_106_2043">
<rect width="30" height="30" fill="white" transform="translate(0 7)"/>
</clipPath>
</defs>
</svg>
