<svg width="14" height="14" viewBox="0 0 14 14" fill="none" xmlns="http://www.w3.org/2000/svg">
<path d="M7 9.625C8.44975 9.625 9.625 8.44975 9.625 7C9.625 5.55025 8.44975 4.375 7 4.375C5.55025 4.375 4.375 5.55025 4.375 7C4.375 8.44975 5.55025 9.625 7 9.625Z" stroke="#645DF6" stroke-width="1.2" stroke-linecap="round" stroke-linejoin="round"/>
<path d="M10.046 3.56006C10.1845 3.68766 10.3158 3.81891 10.4397 3.95381L11.9327 4.16709C12.176 4.58955 12.3635 5.04176 12.4905 5.5124L11.5827 6.721C11.5827 6.721 11.5991 7.09287 11.5827 7.27881L12.4905 8.4874C12.3641 8.95825 12.1765 9.41053 11.9327 9.83272L10.4397 10.046C10.4397 10.046 10.1827 10.314 10.046 10.4397L9.83272 11.9327C9.41025 12.176 8.95805 12.3635 8.4874 12.4905L7.27881 11.5827C7.09323 11.5991 6.90657 11.5991 6.721 11.5827L5.5124 12.4905C5.04156 12.3641 4.58928 12.1765 4.16709 11.9327L3.95381 10.4397C3.81891 10.3121 3.68766 10.1809 3.56006 10.046L2.06709 9.83272C1.82383 9.41025 1.63633 8.95805 1.50928 8.4874L2.41709 7.27881C2.41709 7.27881 2.40068 6.90693 2.41709 6.721L1.50928 5.5124C1.63574 5.04156 1.82327 4.58928 2.06709 4.16709L3.56006 3.95381C3.68766 3.81891 3.81891 3.68766 3.95381 3.56006L4.16709 2.06709C4.58955 1.82383 5.04176 1.63633 5.5124 1.50928L6.721 2.41709C6.90657 2.40068 7.09323 2.40068 7.27881 2.41709L8.4874 1.50928C8.95825 1.63574 9.41053 1.82327 9.83272 2.06709L10.046 3.56006Z" stroke="#645DF6" stroke-width="1.2" stroke-linecap="round" stroke-linejoin="round"/>
</svg>
