<svg width="18" height="18" viewBox="0 0 18 18" fill="none" xmlns="http://www.w3.org/2000/svg">
<path d="M9 11.25C10.5533 11.25 11.8125 9.9908 11.8125 8.4375C11.8125 6.8842 10.5533 5.625 9 5.625C7.4467 5.625 6.1875 6.8842 6.1875 8.4375C6.1875 9.9908 7.4467 11.25 9 11.25Z" stroke="#645DF6" strokeWidth="1.2" strokeLinecap="round" strokeLinejoin="round"/>
<path d="M4.48593 14.0203C4.90915 13.1867 5.55493 12.4866 6.3517 11.9975C7.14847 11.5084 8.0651 11.2496 8.99999 11.2496C9.93488 11.2496 10.8515 11.5084 11.6483 11.9975C12.4451 12.4866 13.0908 13.1867 13.5141 14.0203" stroke="#645DF6" strokeWidth="1.2" strokeLinecap="round" strokeLinejoin="round"/>
<path d="M14.0625 5.0625C14.6838 5.0625 15.1875 4.55882 15.1875 3.9375C15.1875 3.31618 14.6838 2.8125 14.0625 2.8125C13.4412 2.8125 12.9375 3.31618 12.9375 3.9375C12.9375 4.55882 13.4412 5.0625 14.0625 5.0625Z" stroke="#645DF6" strokeLinecap="round" strokeLinejoin="round"/>
<path d="M14.0625 2.8125V1.96875" stroke="#645DF6" strokeWidth="1.2" strokeLinecap="round" strokeLinejoin="round"/>
<path d="M13.0851 3.375L12.3609 2.95312" stroke="#645DF6" strokeWidth="1.2" strokeLinecap="round" strokeLinejoin="round"/>
<path d="M13.0851 4.5L12.3609 4.92188" stroke="#645DF6" strokeWidth="1.2" strokeLinecap="round" strokeLinejoin="round"/>
<path d="M14.0625 5.0625V5.90625" stroke="#645DF6" strokeWidth="1.2" strokeLinecap="round" strokeLinejoin="round"/>
<path d="M15.0399 4.5L15.7641 4.92188" stroke="#645DF6" strokeWidth="1.2" strokeLinecap="round" strokeLinejoin="round"/>
<path d="M15.0399 3.375L15.7641 2.95312" stroke="#645DF6" strokeWidth="1.2" strokeLinecap="round" strokeLinejoin="round"/>
<path d="M15.7008 8.19141C15.7349 8.45957 15.7513 8.72968 15.75 9C15.75 10.335 15.3541 11.6401 14.6124 12.7501C13.8707 13.8601 12.8165 14.7253 11.5831 15.2362C10.3497 15.7471 8.99252 15.8808 7.68314 15.6203C6.37377 15.3599 5.17104 14.717 4.22703 13.773C3.28303 12.829 2.64015 11.6262 2.3797 10.3169C2.11925 9.00749 2.25292 7.65029 2.76382 6.41689C3.27471 5.18349 4.13987 4.12928 5.2499 3.38758C6.35994 2.64588 7.66498 2.25 9 2.25C9.20894 2.24868 9.41781 2.25807 9.62578 2.27812" stroke="#645DF6" strokeWidth="1.2" strokeLinecap="round" strokeLinejoin="round"/>
</svg>
