<svg width="22" height="44" viewBox="0 0 22 44" fill="none" xmlns="http://www.w3.org/2000/svg">
<path d="M0.5 1L0.500002 36" stroke="#6174A4" stroke-linecap="round" stroke-dasharray="2 2"/>
<line x1="0.5" y1="36.5" x2="17.5" y2="36.5" stroke="#6174A4" stroke-linecap="round" stroke-dasharray="2 2"/>
<path d="M9.69337 42.427L19.5899 37.2536C19.735 37.1775 19.8558 37.0667 19.9399 36.9327C20.0239 36.7986 20.0682 36.646 20.0682 36.4907C20.0682 36.3353 20.0239 36.1828 19.9399 36.0487C19.8558 35.9146 19.735 35.8039 19.5899 35.7278L9.69337 30.5544C9.52752 30.466 9.33631 30.428 9.14627 30.4456C8.95623 30.4633 8.77678 30.5357 8.63283 30.6528C8.48578 30.7669 8.37991 30.9205 8.32959 31.0926C8.27928 31.2648 8.28695 31.4473 8.35158 31.6153L9.99806 35.9083C10.0147 35.9511 10.0449 35.9881 10.0847 36.0145C10.1245 36.0409 10.1719 36.0553 10.2207 36.0559L14.4512 36.0559C14.5719 36.054 14.689 36.0946 14.7791 36.1696C14.8692 36.2446 14.9258 36.3485 14.9375 36.4606C14.9424 36.5208 14.9338 36.5812 14.9125 36.6381C14.8911 36.695 14.8573 36.7472 14.8133 36.7914C14.7693 36.8356 14.7159 36.8708 14.6567 36.8948C14.5974 36.9188 14.5334 36.9311 14.4688 36.9309L10.2207 36.9309C10.1724 36.9303 10.1251 36.9437 10.0853 36.9691C10.0454 36.9946 10.015 37.0309 9.99806 37.0731L8.35158 41.3715C8.31702 41.4667 8.29921 41.5664 8.29884 41.6669C8.29955 41.8191 8.34279 41.9685 8.42429 42.1003C8.50578 42.2321 8.62271 42.3418 8.76353 42.4186C8.90435 42.4954 9.06419 42.5365 9.22726 42.538C9.39033 42.5395 9.55099 42.5012 9.69337 42.427Z" fill="#6174A4"/>
</svg>
