<svg width="61" height="61" viewBox="0 0 61 61" fill="none" xmlns="http://www.w3.org/2000/svg">
<path d="M54.3281 1.90625H12.3906C11.1272 1.90776 9.91589 2.41034 9.02249 3.30374C8.12909 4.19714 7.62651 5.40842 7.625 6.67188V9.53125H5.71875C4.70761 9.53125 3.73789 9.93292 3.02291 10.6479C2.30792 11.3629 1.90625 12.3326 1.90625 13.3438C1.90625 14.3549 2.30792 15.3246 3.02291 16.0396C3.73789 16.7546 4.70761 17.1562 5.71875 17.1562H7.625V20.9688H5.71875C4.70761 20.9688 3.73789 21.3704 3.02291 22.0854C2.30792 22.8004 1.90625 23.7701 1.90625 24.7812C1.90625 25.7924 2.30792 26.7621 3.02291 27.4771C3.73789 28.1921 4.70761 28.5938 5.71875 28.5938H7.625V33.3594H5.71875C4.70761 33.3594 3.73789 33.761 3.02291 34.476C2.30792 35.191 1.90625 36.1607 1.90625 37.1719C1.90625 38.183 2.30792 39.1527 3.02291 39.8677C3.73789 40.5827 4.70761 40.9844 5.71875 40.9844H7.625V44.7969H5.71875C4.70761 44.7969 3.73789 45.1985 3.02291 45.9135C2.30792 46.6285 1.90625 47.5982 1.90625 48.6094C1.90625 49.6205 2.30792 50.5902 3.02291 51.3052C3.73789 52.0202 4.70761 52.4219 5.71875 52.4219H7.625V54.3281C7.62651 55.5916 8.12909 56.8029 9.02249 57.6963C9.91589 58.5897 11.1272 59.0922 12.3906 59.0938H54.3281C55.5916 59.0922 56.8029 58.5897 57.6963 57.6963C58.5897 56.8029 59.0922 55.5916 59.0938 54.3281V6.67188C59.0922 5.40842 58.5897 4.19714 57.6963 3.30374C56.8029 2.41034 55.5916 1.90776 54.3281 1.90625ZM5.71875 15.25C5.21318 15.25 4.72832 15.0492 4.37083 14.6917C4.01334 14.3342 3.8125 13.8493 3.8125 13.3438C3.8125 12.8382 4.01334 12.3533 4.37083 11.9958C4.72832 11.6383 5.21318 11.4375 5.71875 11.4375H11.4375C11.9431 11.4375 12.4279 11.6383 12.7854 11.9958C13.1429 12.3533 13.3438 12.8382 13.3438 13.3438C13.3438 13.8493 13.1429 14.3342 12.7854 14.6917C12.4279 15.0492 11.9431 15.25 11.4375 15.25H5.71875ZM3.8125 24.7812C3.8125 24.2757 4.01334 23.7908 4.37083 23.4333C4.72832 23.0758 5.21318 22.875 5.71875 22.875H11.4375C11.9431 22.875 12.4279 23.0758 12.7854 23.4333C13.1429 23.7908 13.3438 24.2757 13.3438 24.7812C13.3438 25.2868 13.1429 25.7717 12.7854 26.1292C12.4279 26.4867 11.9431 26.6875 11.4375 26.6875H5.71875C5.21318 26.6875 4.72832 26.4867 4.37083 26.1292C4.01334 25.7717 3.8125 25.2868 3.8125 24.7812ZM3.8125 37.1719C3.8125 36.6663 4.01334 36.1814 4.37083 35.824C4.72832 35.4665 5.21318 35.2656 5.71875 35.2656H11.4375C11.9431 35.2656 12.4279 35.4665 12.7854 35.824C13.1429 36.1814 13.3438 36.6663 13.3438 37.1719C13.3438 37.6774 13.1429 38.1623 12.7854 38.5198C12.4279 38.8773 11.9431 39.0781 11.4375 39.0781H5.71875C5.21318 39.0781 4.72832 38.8773 4.37083 38.5198C4.01334 38.1623 3.8125 37.6774 3.8125 37.1719ZM3.8125 48.6094C3.8125 48.1038 4.01334 47.6189 4.37083 47.2615C4.72832 46.904 5.21318 46.7031 5.71875 46.7031H11.4375C11.9431 46.7031 12.4279 46.904 12.7854 47.2615C13.1429 47.6189 13.3438 48.1038 13.3438 48.6094C13.3438 49.1149 13.1429 49.5998 12.7854 49.9573C12.4279 50.3148 11.9431 50.5156 11.4375 50.5156H5.71875C5.21318 50.5156 4.72832 50.3148 4.37083 49.9573C4.01334 49.5998 3.8125 49.1149 3.8125 48.6094ZM19.0625 57.1875H12.3906C11.6323 57.1875 10.905 56.8862 10.3687 56.35C9.8325 55.8138 9.53125 55.0865 9.53125 54.3281V52.4219H11.4375C12.4486 52.4219 13.4184 52.0202 14.1333 51.3052C14.8483 50.5902 15.25 49.6205 15.25 48.6094C15.25 47.5982 14.8483 46.6285 14.1333 45.9135C13.4184 45.1985 12.4486 44.7969 11.4375 44.7969H9.53125V40.9844H11.4375C12.4486 40.9844 13.4184 40.5827 14.1333 39.8677C14.8483 39.1527 15.25 38.183 15.25 37.1719C15.25 36.1607 14.8483 35.191 14.1333 34.476C13.4184 33.761 12.4486 33.3594 11.4375 33.3594H9.53125V28.5938H11.4375C12.4486 28.5938 13.4184 28.1921 14.1333 27.4771C14.8483 26.7621 15.25 25.7924 15.25 24.7812C15.25 23.7701 14.8483 22.8004 14.1333 22.0854C13.4184 21.3704 12.4486 20.9688 11.4375 20.9688H9.53125V17.1562H11.4375C12.4486 17.1562 13.4184 16.7546 14.1333 16.0396C14.8483 15.3246 15.25 14.3549 15.25 13.3438C15.25 12.3326 14.8483 11.3629 14.1333 10.6479C13.4184 9.93292 12.4486 9.53125 11.4375 9.53125H9.53125V6.67188C9.53125 5.91352 9.8325 5.18623 10.3687 4.64999C10.905 4.11375 11.6323 3.8125 12.3906 3.8125H19.0625V57.1875ZM57.1875 54.3281C57.1875 55.0865 56.8862 55.8138 56.35 56.35C55.8138 56.8862 55.0865 57.1875 54.3281 57.1875H20.9688V3.8125H54.3281C55.0865 3.8125 55.8138 4.11375 56.35 4.64999C56.8862 5.18623 57.1875 5.91352 57.1875 6.67188V54.3281Z" fill="#A8B6CB"/>
<path d="M39.0781 16.2031C36.2505 16.2031 33.4863 17.0416 31.1352 18.6126C28.7841 20.1835 26.9516 22.4164 25.8695 25.0288C24.7874 27.6412 24.5043 30.5159 25.056 33.2892C25.6076 36.0625 26.9693 38.61 28.9687 40.6094C30.9682 42.6089 33.5156 43.9705 36.289 44.5222C39.0623 45.0738 41.9369 44.7907 44.5493 43.7086C47.1617 42.6265 49.3946 40.794 50.9656 38.4429C52.5365 36.0918 53.375 33.3277 53.375 30.5C53.3707 26.7096 51.8631 23.0756 49.1828 20.3953C46.5026 17.7151 42.8686 16.2074 39.0781 16.2031ZM31.4531 40.2467V36.2188C31.4546 34.9553 31.9572 33.744 32.8506 32.8506C33.744 31.9572 34.9553 31.4546 36.2188 31.4531H41.9375C43.201 31.4546 44.4122 31.9572 45.3056 32.8506C46.199 33.744 46.7016 34.9553 46.7031 36.2188V40.2467C44.5305 41.9592 41.8446 42.8905 39.0781 42.8905C36.3117 42.8905 33.6258 41.9592 31.4531 40.2467ZM39.0781 29.5469C38.3241 29.5469 37.587 29.3233 36.96 28.9044C36.3331 28.4854 35.8444 27.89 35.5558 27.1934C35.2673 26.4967 35.1918 25.7301 35.3389 24.9906C35.486 24.251 35.8491 23.5717 36.3823 23.0385C36.9155 22.5053 37.5948 22.1422 38.3344 21.9951C39.0739 21.848 39.8405 21.9235 40.5371 22.2121C41.2338 22.5006 41.8292 22.9893 42.2481 23.6163C42.667 24.2432 42.8906 24.9803 42.8906 25.7344C42.8906 26.7455 42.489 27.7152 41.774 28.4302C41.059 29.1452 40.0893 29.5469 39.0781 29.5469ZM48.6094 38.4109V36.2188C48.607 34.6718 48.0679 33.1736 47.0841 31.9798C46.1003 30.786 44.7327 29.9706 43.2147 29.6727C43.9879 28.8627 44.5063 27.8436 44.7056 26.7417C44.9049 25.6399 44.7763 24.5037 44.3358 23.4742C43.8953 22.4448 43.1623 21.5673 42.2276 20.9506C41.293 20.3339 40.1979 20.0051 39.0781 20.0051C37.9584 20.0051 36.8633 20.3339 35.9286 20.9506C34.994 21.5673 34.261 22.4448 33.8205 23.4742C33.38 24.5037 33.2514 25.6399 33.4507 26.7417C33.65 27.8436 34.1684 28.8627 34.9416 29.6727C33.4236 29.9706 32.056 30.786 31.0722 31.9798C30.0884 33.1736 29.5493 34.6718 29.5469 36.2188V38.4109C28.0431 36.6006 27.086 34.3995 26.7876 32.0652C26.4891 29.7308 26.8616 27.3597 27.8615 25.2293C28.8613 23.0989 30.4473 21.2973 32.4336 20.0353C34.42 18.7733 36.7248 18.1031 39.0781 18.1031C41.4315 18.1031 43.7362 18.7733 45.7226 20.0353C47.709 21.2973 49.2949 23.0989 50.2948 25.2293C51.2947 27.3597 51.6672 29.7308 51.3687 32.0652C51.0702 34.3995 50.1131 36.6006 48.6094 38.4109Z" fill="#A8B6CB"/>
</svg>
