<svg width="22" height="22" viewBox="0 0 22 22" fill="none" xmlns="http://www.w3.org/2000/svg">
<path d="M14.3645 20.5513L16.5553 18.333C16.7258 18.1627 16.861 17.9605 16.9532 17.738C17.0455 17.5154 17.093 17.2768 17.093 17.0359C17.093 16.795 17.0455 16.5564 16.9532 16.3339C16.861 16.1113 16.7258 15.9091 16.5553 15.7388L15.3086 14.5197C15.1384 14.3492 14.9362 14.214 14.7136 14.1217C14.491 14.0295 14.2525 13.982 14.0116 13.982C13.7706 13.982 13.5321 14.0295 13.3095 14.1217C13.0869 14.214 12.8847 14.3492 12.7145 14.5197L11.8895 15.3447C9.76569 14.0716 7.98718 12.2962 6.7103 10.1747L7.5353 9.34967C7.70576 9.1794 7.84099 8.97721 7.93325 8.75464C8.02551 8.53208 8.073 8.29351 8.073 8.05259C8.073 7.81166 8.02551 7.57309 7.93325 7.35053C7.84099 7.12797 7.70576 6.92577 7.5353 6.7555L6.2978 5.49967C6.12692 5.32365 5.92245 5.18371 5.6965 5.08815C5.47054 4.9926 5.22771 4.94336 4.98239 4.94336C4.73706 4.94336 4.49423 4.9926 4.26828 5.08815C4.04233 5.18371 3.83785 5.32365 3.66697 5.49967L1.5128 7.69967C1.36266 7.84884 1.26875 8.04536 1.24703 8.25589C1.22531 8.46643 1.27711 8.67799 1.39364 8.85467C4.50956 13.538 8.52614 17.5546 13.2095 20.6705C13.3862 20.787 13.5977 20.8388 13.8082 20.8171C14.0188 20.7954 14.2153 20.7015 14.3645 20.5513Z" stroke="url(#paint0_linear_162_16352)" stroke-linecap="round" stroke-linejoin="round"/>
<path d="M7.38861 2.84147C9.02497 1.96446 10.8988 1.63337 12.7366 1.89653C14.5744 2.15968 16.28 3.00329 17.6045 4.30425C18.929 5.60521 19.8031 7.29542 20.0992 9.12822C20.3952 10.961 20.0978 12.8405 19.2503 14.4923" stroke="url(#paint1_linear_162_16352)" stroke-linecap="round" stroke-linejoin="round"/>
<path d="M11.916 5.20654V10.3399H15.5827" stroke="url(#paint2_linear_162_16352)" stroke-linecap="round" stroke-linejoin="round"/>
<defs>
<linearGradient id="paint0_linear_162_16352" x1="9.16759" y1="4.94336" x2="9.16759" y2="20.822" gradientUnits="userSpaceOnUse">
<stop stop-color="#0033EA"/>
<stop offset="1" stop-color="#8A0074"/>
</linearGradient>
<linearGradient id="paint1_linear_162_16352" x1="13.7996" y1="1.80859" x2="13.7996" y2="14.4923" gradientUnits="userSpaceOnUse">
<stop stop-color="#0033EA"/>
<stop offset="1" stop-color="#8A0074"/>
</linearGradient>
<linearGradient id="paint2_linear_162_16352" x1="13.7493" y1="5.20654" x2="13.7493" y2="10.3399" gradientUnits="userSpaceOnUse">
<stop stop-color="#0033EA"/>
<stop offset="1" stop-color="#8A0074"/>
</linearGradient>
</defs>
</svg>
