<svg width="34" height="37" viewBox="0 0 34 37" fill="none" xmlns="http://www.w3.org/2000/svg">
<rect x="9" width="25" height="25" rx="12.5" fill="#FBE0FF"/>
<path d="M20.7033 29.8571C20.4924 29.8575 20.288 29.7849 20.1257 29.6518L16.0465 26.2857H14.3859C12.4711 26.2857 10.6347 25.5332 9.28075 24.1936C7.92677 22.8541 7.16611 21.0373 7.16611 19.1429C7.16611 17.2485 7.92677 15.4316 9.28075 14.0921C10.6347 12.7525 12.4711 12 14.3859 12H19.8008C21.5544 12.005 23.2463 12.6412 24.5605 13.7899C25.8747 14.9387 26.7213 16.5213 26.9424 18.2425C27.1634 19.9636 26.7438 21.7055 25.7617 23.1428C24.7797 24.5802 23.3024 25.6149 21.6057 26.0536V28.9643C21.6062 29.135 21.5571 29.3024 21.4643 29.4464C21.3715 29.5904 21.239 29.7051 21.0823 29.7768C20.9633 29.8304 20.834 29.8578 20.7033 29.8571ZM14.3859 13.7857C12.9498 13.7857 11.5725 14.3501 10.557 15.3548C9.54156 16.3594 8.97107 17.7221 8.97107 19.1429C8.97107 20.5637 9.54156 21.9263 10.557 22.9309C11.5725 23.9356 12.9498 24.5 14.3859 24.5H16.3714C16.5822 24.4996 16.7866 24.5722 16.949 24.7053L19.8008 27.0536V25.3214C19.7986 25.1048 19.8762 24.8947 20.019 24.7305C20.1618 24.5662 20.3601 24.4589 20.5769 24.4286C21.9106 24.2123 23.1143 23.5105 23.9516 22.461C24.7889 21.4114 25.1993 20.09 25.102 18.7564C25.0048 17.4228 24.407 16.1734 23.426 15.2537C22.4451 14.3339 21.152 13.8103 19.8008 13.7857H14.3859Z" fill="url(#paint0_linear_58_40208)"/>
<path d="M17.9958 18.25H16.1909V20.0357H17.9958V18.25Z" fill="url(#paint1_linear_58_40208)"/>
<path d="M13.4834 18.25H11.6785V20.0357H13.4834V18.25Z" fill="url(#paint2_linear_58_40208)"/>
<path d="M22.5082 18.25H20.7033V20.0357H22.5082V18.25Z" fill="url(#paint3_linear_58_40208)"/>
<path d="M6.26364 37C6.1329 37.0007 6.00357 36.9733 5.8846 36.9196C5.72795 36.8479 5.59537 36.7332 5.5026 36.5892C5.40982 36.4452 5.36073 36.2779 5.36116 36.1071V33.1964C3.92521 32.8179 2.64228 32.0103 1.68747 30.8837C0.732667 29.7571 0.152499 28.3665 0.0261494 26.9016C-0.1002 25.4368 0.233424 23.969 0.981489 22.6986C1.72955 21.4283 2.85562 20.4173 4.20599 19.8036C4.31498 19.7467 4.43458 19.7126 4.55742 19.7032C4.68026 19.6939 4.80373 19.7095 4.92023 19.7491C5.03674 19.7888 5.1438 19.8516 5.23484 19.9337C5.32587 20.0159 5.39894 20.1156 5.44955 20.2267C5.50016 20.3378 5.52723 20.458 5.5291 20.5799C5.53097 20.7018 5.5076 20.8227 5.46043 20.9353C5.41326 21.0479 5.34328 21.1498 5.25481 21.2346C5.16634 21.3194 5.06125 21.3854 4.94602 21.4286C3.88103 21.9063 3.00097 22.7123 2.43745 23.7259C1.87393 24.7396 1.65723 25.9065 1.81975 27.0522C1.98228 28.1979 2.5153 29.2607 3.3391 30.0817C4.1629 30.9028 5.23322 31.4379 6.38999 31.6071C6.60683 31.6375 6.80513 31.7448 6.94793 31.909C7.09072 32.0733 7.16827 32.2833 7.16611 32.5V34.2321L10.0179 31.8839C10.1752 31.7379 10.3801 31.6523 10.5955 31.6428H12.581C13.3037 31.6442 14.0192 31.5009 14.6846 31.2217C15.3499 30.9424 15.9513 30.5329 16.4526 30.0178C16.6201 29.8474 16.8493 29.7497 17.0896 29.7463C17.2086 29.7447 17.3268 29.7662 17.4374 29.8097C17.5479 29.8533 17.6488 29.9179 17.7341 30C17.8194 30.0821 17.8876 30.18 17.9347 30.2881C17.9818 30.3962 18.0069 30.5125 18.0086 30.6302C18.0102 30.748 17.9884 30.8649 17.9445 30.9743C17.9005 31.0837 17.8351 31.1834 17.7522 31.2678C17.0797 31.9514 16.2757 32.4947 15.3875 32.8658C14.4994 33.2369 13.5451 33.4282 12.581 33.4286H10.9204L6.84122 36.7946C6.67886 36.9277 6.4745 37.0004 6.26364 37Z" fill="url(#paint4_linear_58_40208)"/>
<defs>
<linearGradient id="paint0_linear_58_40208" x1="9.00432" y1="19.7007" x2="9.00432" y2="37.0001" gradientUnits="userSpaceOnUse">
<stop stop-color="#5D43FF"/>
<stop offset="0.979167" stop-color="#DF50E2"/>
</linearGradient>
<linearGradient id="paint1_linear_58_40208" x1="9.00432" y1="19.7007" x2="9.00432" y2="37.0001" gradientUnits="userSpaceOnUse">
<stop stop-color="#5D43FF"/>
<stop offset="0.979167" stop-color="#DF50E2"/>
</linearGradient>
<linearGradient id="paint2_linear_58_40208" x1="9.00432" y1="19.7007" x2="9.00432" y2="37.0001" gradientUnits="userSpaceOnUse">
<stop stop-color="#5D43FF"/>
<stop offset="0.979167" stop-color="#DF50E2"/>
</linearGradient>
<linearGradient id="paint3_linear_58_40208" x1="9.00432" y1="19.7007" x2="9.00432" y2="37.0001" gradientUnits="userSpaceOnUse">
<stop stop-color="#5D43FF"/>
<stop offset="0.979167" stop-color="#DF50E2"/>
</linearGradient>
<linearGradient id="paint4_linear_58_40208" x1="9.00432" y1="19.7007" x2="9.00432" y2="37.0001" gradientUnits="userSpaceOnUse">
<stop stop-color="#5D43FF"/>
<stop offset="0.979167" stop-color="#DF50E2"/>
</linearGradient>
</defs>
</svg>
