<svg width="18" height="18" viewBox="0 0 18 18" fill="none" xmlns="http://www.w3.org/2000/svg">
<path d="M10.8458 15.8203H2.83301C2.69315 15.8203 2.55902 15.7648 2.46012 15.6659C2.36122 15.567 2.30566 15.4328 2.30566 15.293V5.06006C2.30566 4.9202 2.36122 4.78607 2.46012 4.68717C2.55902 4.58827 2.69315 4.53271 2.83301 4.53271H10.8458C10.9857 4.53271 11.1198 4.58827 11.2187 4.68717C11.3176 4.78607 11.3732 4.9202 11.3732 5.06006V15.293C11.3732 15.4328 11.3176 15.567 11.2187 15.6659C11.1198 15.7648 10.9857 15.8203 10.8458 15.8203ZM3.36035 14.7656H10.3185V5.5874H3.36035V14.7656Z" fill="white"/>
<path d="M13.691 12.9751H10.8458C10.706 12.9751 10.5718 12.9196 10.473 12.8207C10.3741 12.7218 10.3185 12.5876 10.3185 12.4478C10.3185 12.3079 10.3741 12.1738 10.473 12.0749C10.5718 11.976 10.706 11.9204 10.8458 11.9204H13.1637V2.74219H6.20557V5.05969C6.20557 5.19955 6.15001 5.33368 6.05111 5.43258C5.95221 5.53147 5.81808 5.58703 5.67822 5.58703C5.53836 5.58703 5.40423 5.53147 5.30533 5.43258C5.20644 5.33368 5.15088 5.19955 5.15088 5.05969V2.21484C5.15088 2.07498 5.20644 1.94085 5.30533 1.84196C5.40423 1.74306 5.53836 1.6875 5.67822 1.6875H13.691C13.8309 1.6875 13.965 1.74306 14.0639 1.84196C14.1628 1.94085 14.2184 2.07498 14.2184 2.21484V12.4478C14.2184 12.5876 14.1628 12.7218 14.0639 12.8207C13.965 12.9196 13.8309 12.9751 13.691 12.9751Z" fill="white"/>
</svg>
