<svg width="13" height="15" viewBox="0 0 13 15" fill="none" xmlns="http://www.w3.org/2000/svg">
<path d="M8.8468 14.8198H0.833984C0.694124 14.8198 0.559992 14.7643 0.461096 14.6654C0.3622 14.5665 0.306641 14.4324 0.306641 14.2925V4.05957C0.306641 3.91971 0.3622 3.78558 0.461096 3.68668C0.559992 3.58779 0.694124 3.53223 0.833984 3.53223H8.8468C8.98666 3.53223 9.12079 3.58779 9.21969 3.68668C9.31858 3.78558 9.37414 3.91971 9.37414 4.05957V14.2925C9.37414 14.4324 9.31858 14.5665 9.21969 14.6654C9.12079 14.7643 8.98666 14.8198 8.8468 14.8198ZM1.36133 13.7652H8.31945V4.58691H1.36133V13.7652Z" fill="#333333"/>
<path d="M11.6925 11.9751H8.8473C8.70744 11.9751 8.57331 11.9196 8.47442 11.8207C8.37552 11.7218 8.31996 11.5876 8.31996 11.4478C8.31996 11.3079 8.37552 11.1738 8.47442 11.0749C8.57331 10.976 8.70744 10.9204 8.8473 10.9204H11.1652V1.74219H4.20703V4.05969C4.20703 4.19955 4.15147 4.33368 4.05258 4.43258C3.95368 4.53147 3.81955 4.58703 3.67969 4.58703C3.53983 4.58703 3.40569 4.53147 3.3068 4.43258C3.2079 4.33368 3.15234 4.19955 3.15234 4.05969V1.21484C3.15234 1.07498 3.2079 0.940852 3.3068 0.841955C3.40569 0.743059 3.53983 0.6875 3.67969 0.6875H11.6925C11.8324 0.6875 11.9665 0.743059 12.0654 0.841955C12.1643 0.940852 12.2198 1.07498 12.2198 1.21484V11.4478C12.2198 11.5876 12.1643 11.7218 12.0654 11.8207C11.9665 11.9196 11.8324 11.9751 11.6925 11.9751Z" fill="#333333"/>
</svg>
