<svg width="18" height="19" viewBox="0 0 18 19" fill="none" xmlns="http://www.w3.org/2000/svg">
<path fill-rule="evenodd" clip-rule="evenodd" d="M5.26758 3.3125C5.26758 2.588 5.85558 2 6.58008 2H15.1871C15.9116 2 16.4996 2.588 16.4996 3.3125V11.936C16.4996 12.2841 16.3613 12.6179 16.1152 12.8641C15.869 13.1102 15.5352 13.2485 15.1871 13.2485H6.58008C6.23198 13.2485 5.89814 13.1102 5.652 12.8641C5.40586 12.6179 5.26758 12.2841 5.26758 11.936V3.3125ZM6.58008 3.125C6.53035 3.125 6.48266 3.14475 6.4475 3.17992C6.41233 3.21508 6.39258 3.26277 6.39258 3.3125V11.936C6.39258 12.0403 6.47658 12.1235 6.58008 12.1235H15.1871C15.2368 12.1235 15.2845 12.1037 15.3197 12.0686C15.3548 12.0334 15.3746 11.9857 15.3746 11.936V3.3125C15.3746 3.26277 15.3548 3.21508 15.3197 3.17992C15.2845 3.14475 15.2368 3.125 15.1871 3.125H6.58008Z" fill="black"/>
<path d="M1.49609 8.5613C1.496 8.38887 1.52987 8.21812 1.59579 8.05879C1.6617 7.89947 1.75836 7.75469 1.88025 7.63273C2.00214 7.51078 2.14686 7.41403 2.30615 7.34803C2.46544 7.28202 2.63617 7.24805 2.80859 7.24805H3.93734C4.08653 7.24805 4.2296 7.30731 4.33509 7.4128C4.44058 7.51829 4.49984 7.66136 4.49984 7.81055C4.49984 7.95973 4.44058 8.1028 4.33509 8.20829C4.2296 8.31378 4.08653 8.37305 3.93734 8.37305H2.80859C2.75887 8.37305 2.71117 8.3928 2.67601 8.42796C2.64085 8.46313 2.62109 8.51082 2.62109 8.56055L2.62484 15.687C2.62484 15.7905 2.70809 15.8745 2.81234 15.8745H9.93734C9.98707 15.8745 10.0348 15.8548 10.0699 15.8196C10.1051 15.7845 10.1248 15.7368 10.1248 15.687V14.5545C10.1248 14.4054 10.1841 14.2623 10.2896 14.1568C10.3951 14.0513 10.5382 13.992 10.6873 13.992C10.8365 13.992 10.9796 14.0513 11.0851 14.1568C11.1906 14.2623 11.2498 14.4054 11.2498 14.5545V15.687C11.2498 16.0351 11.1116 16.369 10.8654 16.6151C10.6193 16.8613 10.2854 16.9995 9.93734 16.9995H2.81234C2.46425 16.9995 2.13041 16.8613 1.88427 16.6151C1.63812 16.369 1.49984 16.0351 1.49984 15.687L1.49609 8.5613Z" fill="black"/>
</svg>
