<svg width="16" height="17" viewBox="0 0 16 17" fill="none" xmlns="http://www.w3.org/2000/svg">
<g clip-path="url(#clip0_1535_178991)">
<path d="M9.6668 3.83333C9.58147 3.83333 9.49613 3.80067 9.4308 3.736L6.76413 1.06933C6.6688 0.973333 6.64013 0.830667 6.69213 0.706C6.74347 0.581333 6.86547 0.5 7.00013 0.5H12.3335C12.4681 0.5 12.5901 0.581333 12.6415 0.706C12.6935 0.830667 12.6648 0.974 12.5695 1.06933L9.9028 3.736C9.83747 3.80067 9.75213 3.83333 9.6668 3.83333ZM7.8048 1.16667L9.6668 3.02867L11.5288 1.16667H7.8048Z" fill="#333333" stroke="#333333" stroke-width="0.4"/>
<path d="M14.3335 16.5002H12.3335C11.7822 16.5002 11.3335 16.0515 11.3335 15.5002V4.8335C11.3335 4.28216 11.7822 3.8335 12.3335 3.8335H14.3335C14.8848 3.8335 15.3335 4.28216 15.3335 4.8335V15.5002C15.3335 16.0515 14.8848 16.5002 14.3335 16.5002ZM12.3335 4.50016C12.1495 4.50016 12.0002 4.6495 12.0002 4.8335V15.5002C12.0002 15.6835 12.1495 15.8335 12.3335 15.8335H14.3335C14.5175 15.8335 14.6668 15.6835 14.6668 15.5002V4.8335C14.6668 4.6495 14.5175 4.50016 14.3335 4.50016H12.3335Z" fill="#333333" stroke="#333333" stroke-width="0.4"/>
<path d="M6.99984 16.5002H1.6665C1.11517 16.5002 0.666504 16.0515 0.666504 15.5002V4.8335C0.666504 4.28216 1.11517 3.8335 1.6665 3.8335H6.99984C7.55117 3.8335 7.99984 4.28216 7.99984 4.8335V15.5002C7.99984 16.0515 7.55117 16.5002 6.99984 16.5002ZM1.6665 4.50016C1.4825 4.50016 1.33317 4.6495 1.33317 4.8335V15.5002C1.33317 15.6835 1.4825 15.8335 1.6665 15.8335H6.99984C7.18384 15.8335 7.33317 15.6835 7.33317 15.5002V4.8335C7.33317 4.6495 7.18384 4.50016 6.99984 4.50016H1.6665Z" fill="#333333" stroke="#333333" stroke-width="0.4"/>
<path d="M15.0002 10.5002H11.6668C11.4828 10.5002 11.3335 10.3508 11.3335 10.1668C11.3335 9.98283 11.4828 9.8335 11.6668 9.8335H15.0002C15.1842 9.8335 15.3335 9.98283 15.3335 10.1668C15.3335 10.3508 15.1842 10.5002 15.0002 10.5002Z" fill="#333333"/>
<path d="M7.6665 10.5002H0.999837C0.815837 10.5002 0.666504 10.3508 0.666504 10.1668C0.666504 9.98283 0.815837 9.8335 0.999837 9.8335H7.6665C7.8505 9.8335 7.99984 9.98283 7.99984 10.1668C7.99984 10.3508 7.8505 10.5002 7.6665 10.5002Z" fill="#333333" stroke="#333333" stroke-width="0.4"/>
<path d="M4.33333 16.5002C4.14933 16.5002 4 16.3508 4 16.1668V4.16683C4 3.98283 4.14933 3.8335 4.33333 3.8335C4.51733 3.8335 4.66667 3.98283 4.66667 4.16683V16.1668C4.66667 16.3508 4.51733 16.5002 4.33333 16.5002Z" fill="#333333" stroke="#333333" stroke-width="0.4"/>
</g>
<defs>
<clipPath id="clip0_1535_178991">
<rect width="16" height="16" fill="white" transform="translate(0 0.5)"/>
</clipPath>
</defs>
</svg>
