<svg width="15" height="15" viewBox="0 0 15 15" fill="none" xmlns="http://www.w3.org/2000/svg">
<path fill-rule="evenodd" clip-rule="evenodd" d="M7.5625 0.125C9.5019 0.125 11.3619 0.895422 12.7332 2.26678C14.1046 3.63814 14.875 5.4981 14.875 7.4375C14.875 9.3769 14.1046 11.2369 12.7332 12.6082C11.3619 13.9796 9.5019 14.75 7.5625 14.75C5.6231 14.75 3.76314 13.9796 2.39178 12.6082C1.02042 11.2369 0.25 9.3769 0.25 7.4375C0.25 5.4981 1.02042 3.63814 2.39178 2.26678C3.76314 0.895422 5.6231 0.125 7.5625 0.125ZM13.0682 4.625C12.3467 3.22213 11.1189 2.14597 9.63363 1.6145C10.1331 2.5595 10.4942 3.572 10.7057 4.625H13.0682ZM13.723 7.99437C13.741 7.8093 13.75 7.62345 13.75 7.4375C13.7489 6.8666 13.6682 6.29864 13.5104 5.75H10.8756C10.9116 6.12238 10.9375 6.497 10.9375 6.875C10.9352 7.63084 10.8575 8.38456 10.7057 9.125H13.5104C13.6172 8.75488 13.6881 8.37687 13.7241 7.99437H13.723ZM9.74613 7.99437L9.75287 7.937C9.79126 7.58428 9.81116 7.2298 9.8125 6.875C9.80495 6.4987 9.7764 6.12312 9.727 5.75H5.398C5.34819 6.12308 5.31964 6.49868 5.3125 6.875C5.31525 7.63245 5.40318 8.3872 5.57463 9.125H9.55037C9.637 8.7515 9.70225 8.37463 9.74613 7.99437ZM9.53012 4.625C9.26508 3.43514 8.78674 2.30313 8.11825 1.28375C7.93375 1.268 7.74925 1.25 7.5625 1.25C7.44531 1.25057 7.3282 1.2562 7.2115 1.26688L7.00675 1.28375L7 1.295C6.33504 2.31139 5.85903 3.43948 5.59487 4.625H9.53012ZM4.41925 4.625C4.63504 3.57273 5.00104 2.55696 5.506 1.60888C4.01423 2.13852 2.78065 3.21721 2.05675 4.625H4.41925ZM1.61463 5.75C1.457 6.29869 1.37636 6.86662 1.375 7.4375C1.37636 8.00838 1.457 8.57631 1.61463 9.125H4.41925C4.26673 8.38467 4.18909 7.63087 4.1875 6.875C4.1875 6.497 4.21337 6.12238 4.24937 5.75H1.61463ZM4.71287 10.25H2.05788C2.48314 11.0807 3.09031 11.8047 3.83418 12.3682C4.57805 12.9317 5.43945 13.3202 6.35425 13.5046C5.63423 12.5159 5.07987 11.4167 4.71287 10.25ZM7.5625 13.2245C8.28187 12.3348 8.84419 11.3288 9.22525 10.25H5.89975C6.28083 11.3288 6.84315 12.3348 7.5625 13.2245ZM10.4121 10.25C10.0451 11.4167 9.49075 12.5159 8.77075 13.5046C9.68549 13.32 10.5468 12.9315 11.2907 12.368C12.0345 11.8045 12.6417 11.0806 13.0671 10.25H10.4121Z" fill="white"/>
</svg>
