<svg width="18" height="13" viewBox="0 0 18 13" fill="none" xmlns="http://www.w3.org/2000/svg">
<g clip-path="url(#clip0_509_48828)">
<path d="M18 11.7558C18 12.2185 17.624 12.5932 17.1613 12.5932H0.837307C0.374621 12.5932 0 12.2185 0 11.7558V0.837307C0 0.374621 0.374621 0 0.837307 0H17.1627C17.6254 0 18.0014 0.374621 18.0014 0.837307V11.7558H18Z" fill="#E6E7E8"/>
<path d="M0 11.7558C0 12.2185 0.374621 12.5931 0.837307 12.5931H17.1627C17.6254 12.5931 18.0014 12.2185 18.0014 11.7558V11.6189H0V11.7558Z" fill="#DA2128"/>
<path d="M18 9.67865H0V10.6529H18V9.67865Z" fill="#DA2128"/>
<path d="M18 7.73985H0V8.71275H18V7.73985Z" fill="#DA2128"/>
<path d="M18 5.79964H0V6.77393H18V5.79964Z" fill="#DA2128"/>
<path d="M18 3.86084H0V4.83513H18V3.86084Z" fill="#DA2128"/>
<path d="M18 1.92064H0V2.89493H18V1.92064Z" fill="#DA2128"/>
<path d="M18 0.837307C18 0.374621 17.624 0 17.1613 0H0.837307C0.374621 0 0 0.374621 0 0.837307V0.974295H18V0.837307Z" fill="#DA2128"/>
<path d="M9.40467 0H0.835909C0.374621 0 0 0.376019 0 0.837307V6.77813H9.40467V0Z" fill="#006BB5"/>
<path d="M0.633123 0.152359L0.725381 0.429132H1.00635L0.778499 0.599668L0.863767 0.879236L0.633123 0.7087L0.405275 0.879236L0.493339 0.599668L0.262695 0.429132H0.545059L0.633123 0.152359Z" fill="#EDEDEE"/>
<path d="M2.18044 0.152359L2.26991 0.429132H2.55506L2.32722 0.599668L2.41528 0.879236L2.18044 0.7087L1.95679 0.879236L2.04485 0.599668L1.81421 0.429132H2.09657L2.18044 0.152359Z" fill="#EDEDEE"/>
<path d="M3.8048 0.152359L3.89007 0.429132H4.17103L3.94318 0.599668L4.03125 0.879236L3.8048 0.7087L3.57276 0.879236L3.65802 0.599668L3.43018 0.429132H3.71534L3.8048 0.152359Z" fill="#EDEDEE"/>
<path d="M5.42065 0.152359L5.50872 0.429132H5.79108L5.56044 0.599668L5.6485 0.879236L5.42065 0.7087L5.18861 0.879236L5.27388 0.599668L5.04883 0.429132H5.33259L5.42065 0.152359Z" fill="#EDEDEE"/>
<path d="M7.03673 0.152359L7.122 0.429132H7.41135L7.17931 0.599668L7.26458 0.879236L7.03673 0.7087L6.80469 0.879236L6.89415 0.599668L6.66211 0.429132H6.94867L7.03673 0.152359Z" fill="#EDEDEE"/>
<path d="M1.37815 0.912781L1.46342 1.19095H1.74858L1.51793 1.36289L1.606 1.64245L1.37815 1.47052L1.14611 1.64245L1.23557 1.36289L1.00073 1.19095H1.29009L1.37815 0.912781Z" fill="#EDEDEE"/>
<path d="M2.92547 0.912781L3.01493 1.19095H3.2973L3.06945 1.36289L3.15751 1.64245L2.92547 1.47052L2.69483 1.64245L2.78289 1.36289L2.55225 1.19095H2.83741L2.92547 0.912781Z" fill="#EDEDEE"/>
<path d="M4.54283 0.912781L4.6309 1.19095H4.91606L4.68541 1.36289L4.77348 1.64245L4.54283 1.47052L4.31079 1.64245L4.40305 1.36289L4.16821 1.19095H4.45337L4.54283 0.912781Z" fill="#EDEDEE"/>
<path d="M6.15876 0.912781L6.24682 1.19095H6.53338L6.30134 1.36289L6.3894 1.64245L6.15876 1.47052L5.93091 1.64245L6.01897 1.36289L5.78833 1.19095H6.07069L6.15876 0.912781Z" fill="#EDEDEE"/>
<path d="M7.77881 0.912781L7.86268 1.19095H8.14924L7.92139 1.36289L8.00666 1.64245L7.77881 1.47052L7.54677 1.64245L7.63483 1.36289L7.40698 1.19095H7.68935L7.77881 0.912781Z" fill="#EDEDEE"/>
<path d="M1.37815 2.30084L1.46342 2.57622H1.74858L1.51793 2.74955L1.606 3.02772L1.37815 2.85718L1.14611 3.02772L1.23557 2.74955L1.00073 2.57622H1.29009L1.37815 2.30084Z" fill="#EDEDEE"/>
<path d="M2.92547 2.30084L3.01493 2.57622H3.2973L3.06945 2.74955L3.15751 3.02772L2.92547 2.85718L2.69483 3.02772L2.78289 2.74955L2.55225 2.57622H2.83741L2.92547 2.30084Z" fill="#EDEDEE"/>
<path d="M4.54283 2.30084L4.6309 2.57622H4.91606L4.68541 2.74955L4.77348 3.02772L4.54283 2.85718L4.31079 3.02772L4.40305 2.74955L4.16821 2.57622H4.45337L4.54283 2.30084Z" fill="#EDEDEE"/>
<path d="M6.15876 2.30084L6.24682 2.57622H6.53338L6.30134 2.74955L6.3894 3.02772L6.15876 2.85718L5.93091 3.02772L6.01897 2.74955L5.78833 2.57622H6.07069L6.15876 2.30084Z" fill="#EDEDEE"/>
<path d="M7.77881 2.30084L7.86268 2.57622H8.14924L7.92139 2.74955L8.00666 3.02772L7.77881 2.85718L7.54677 3.02772L7.63483 2.74955L7.40698 2.57622H7.68935L7.77881 2.30084Z" fill="#EDEDEE"/>
<path d="M1.37815 3.68471L1.46342 3.96288H1.74858L1.51793 4.13621L1.606 4.41158L1.37815 4.23825L1.14611 4.41158L1.23557 4.13621L1.00073 3.96288H1.29009L1.37815 3.68471Z" fill="#EDEDEE"/>
<path d="M2.92547 3.68471L3.01493 3.96288H3.2973L3.06945 4.13621L3.15751 4.41158L2.92547 4.23825L2.69483 4.41158L2.78289 4.13621L2.55225 3.96288H2.83741L2.92547 3.68471Z" fill="#EDEDEE"/>
<path d="M4.54283 3.68471L4.6309 3.96288H4.91606L4.68541 4.13621L4.77348 4.41158L4.54283 4.23825L4.31079 4.41158L4.40305 4.13621L4.16821 3.96288H4.45337L4.54283 3.68471Z" fill="#EDEDEE"/>
<path d="M6.15876 3.68471L6.24682 3.96288H6.53338L6.30134 4.13621L6.3894 4.41158L6.15876 4.23825L5.93091 4.41158L6.01897 4.13621L5.78833 3.96288H6.07069L6.15876 3.68471Z" fill="#EDEDEE"/>
<path d="M7.77881 3.68471L7.86268 3.96288H8.14924L7.92139 4.13621L8.00666 4.41158L7.77881 4.23825L7.54677 4.41158L7.63483 4.13621L7.40698 3.96288H7.68935L7.77881 3.68471Z" fill="#EDEDEE"/>
<path d="M1.37815 5.06996L1.46342 5.34673H1.74858L1.51793 5.52007L1.606 5.79824L1.37815 5.6263L1.14611 5.79824L1.23557 5.52007L1.00073 5.34673H1.29009L1.37815 5.06996Z" fill="#EDEDEE"/>
<path d="M2.92547 5.06996L3.01493 5.34673H3.2973L3.06945 5.52007L3.15751 5.79824L2.92547 5.6263L2.69483 5.79824L2.78289 5.52007L2.55225 5.34673H2.83741L2.92547 5.06996Z" fill="#EDEDEE"/>
<path d="M4.54283 5.06996L4.6309 5.34673H4.91606L4.68541 5.52007L4.77348 5.79824L4.54283 5.6263L4.31079 5.79824L4.40305 5.52007L4.16821 5.34673H4.45337L4.54283 5.06996Z" fill="#EDEDEE"/>
<path d="M6.15876 5.06996L6.24682 5.34673H6.53338L6.30134 5.52007L6.3894 5.79824L6.15876 5.6263L5.93091 5.79824L6.01897 5.52007L5.78833 5.34673H6.07069L6.15876 5.06996Z" fill="#EDEDEE"/>
<path d="M7.77881 5.06996L7.86268 5.34673H8.14924L7.92139 5.52007L8.00666 5.79824L7.77881 5.6263L7.54677 5.79824L7.63483 5.52007L7.40698 5.34673H7.68935L7.77881 5.06996Z" fill="#EDEDEE"/>
<path d="M8.65265 0.152359L8.74072 0.429132H9.02308L8.79523 0.599668L8.8847 0.879236L8.65265 0.7087L8.42201 0.879236L8.51007 0.599668L8.28223 0.429132H8.56459L8.65265 0.152359Z" fill="#EDEDEE"/>
<path d="M0.633123 1.53761L0.725381 1.81718H1.00635L0.778499 1.98632L0.863767 2.26589L0.633123 2.09395L0.405275 2.26589L0.493339 1.98632L0.262695 1.81718H0.545059L0.633123 1.53761Z" fill="#EDEDEE"/>
<path d="M2.18044 1.53761L2.26991 1.81718H2.55506L2.32722 1.98632L2.41528 2.26589L2.18044 2.09395L1.95679 2.26589L2.04485 1.98632L1.81421 1.81718H2.09657L2.18044 1.53761Z" fill="#EDEDEE"/>
<path d="M3.8048 1.53761L3.89007 1.81718H4.17103L3.94318 1.98632L4.03125 2.26589L3.8048 2.09395L3.57276 2.26589L3.65802 1.98632L3.43018 1.81718H3.71534L3.8048 1.53761Z" fill="#EDEDEE"/>
<path d="M5.42065 1.53761L5.50872 1.81718H5.79108L5.56044 1.98632L5.6485 2.26589L5.42065 2.09395L5.18861 2.26589L5.27388 1.98632L5.04883 1.81718H5.33259L5.42065 1.53761Z" fill="#EDEDEE"/>
<path d="M7.03673 1.53761L7.122 1.81718H7.41135L7.17931 1.98632L7.26458 2.26589L7.03673 2.09395L6.80469 2.26589L6.89415 1.98632L6.66211 1.81718H6.94867L7.03673 1.53761Z" fill="#EDEDEE"/>
<path d="M8.65265 1.53761L8.74072 1.81718H9.02308L8.79523 1.98632L8.8847 2.26589L8.65265 2.09395L8.42201 2.26589L8.51007 1.98632L8.28223 1.81718H8.56459L8.65265 1.53761Z" fill="#EDEDEE"/>
<path d="M0.633123 2.92288L0.725381 3.19965H1.00635L0.778499 3.37299L0.863767 3.64976L0.633123 3.47782L0.405275 3.64976L0.493339 3.37299L0.262695 3.19965H0.545059L0.633123 2.92288Z" fill="#EDEDEE"/>
<path d="M2.18044 2.92288L2.26991 3.19965H2.55506L2.32722 3.37299L2.41528 3.64976L2.18044 3.47782L1.95679 3.64976L2.04485 3.37299L1.81421 3.19965H2.09657L2.18044 2.92288Z" fill="#EDEDEE"/>
<path d="M3.8048 2.92288L3.89007 3.19965H4.17103L3.94318 3.37299L4.03125 3.64976L3.8048 3.47782L3.57276 3.64976L3.65802 3.37299L3.43018 3.19965H3.71534L3.8048 2.92288Z" fill="#EDEDEE"/>
<path d="M5.42065 2.92288L5.50872 3.19965H5.79108L5.56044 3.37299L5.6485 3.64976L5.42065 3.47782L5.18861 3.64976L5.27388 3.37299L5.04883 3.19965H5.33259L5.42065 2.92288Z" fill="#EDEDEE"/>
<path d="M7.03673 2.92288L7.122 3.19965H7.41135L7.17931 3.37299L7.26458 3.64976L7.03673 3.47782L6.80469 3.64976L6.89415 3.37299L6.66211 3.19965H6.94867L7.03673 2.92288Z" fill="#EDEDEE"/>
<path d="M8.65265 2.92288L8.74072 3.19965H9.02308L8.79523 3.37299L8.8847 3.64976L8.65265 3.47782L8.42201 3.64976L8.51007 3.37299L8.28223 3.19965H8.56459L8.65265 2.92288Z" fill="#EDEDEE"/>
<path d="M0.633123 4.30954L0.725381 4.58771H1.00635L0.778499 4.75685L0.863767 5.03502L0.633123 4.86448L0.405275 5.03502L0.493339 4.75685L0.262695 4.58771H0.545059L0.633123 4.30954Z" fill="#EDEDEE"/>
<path d="M2.18044 4.30954L2.26991 4.58771H2.55506L2.32722 4.75685L2.41528 5.03502L2.18044 4.86448L1.95679 5.03502L2.04485 4.75685L1.81421 4.58771H2.09657L2.18044 4.30954Z" fill="#EDEDEE"/>
<path d="M3.8048 4.30954L3.89007 4.58771H4.17103L3.94318 4.75685L4.03125 5.03502L3.8048 4.86448L3.57276 5.03502L3.65802 4.75685L3.43018 4.58771H3.71534L3.8048 4.30954Z" fill="#EDEDEE"/>
<path d="M5.42065 4.30954L5.50872 4.58771H5.79108L5.56044 4.75685L5.6485 5.03502L5.42065 4.86448L5.18861 5.03502L5.27388 4.75685L5.04883 4.58771H5.33259L5.42065 4.30954Z" fill="#EDEDEE"/>
<path d="M7.03673 4.30954L7.122 4.58771H7.41135L7.17931 4.75685L7.26458 5.03502L7.03673 4.86448L6.80469 5.03502L6.89415 4.75685L6.66211 4.58771H6.94867L7.03673 4.30954Z" fill="#EDEDEE"/>
<path d="M8.65265 4.30954L8.74072 4.58771H9.02308L8.79523 4.75685L8.8847 5.03502L8.65265 4.86448L8.42201 5.03502L8.51007 4.75685L8.28223 4.58771H8.56459L8.65265 4.30954Z" fill="#EDEDEE"/>
<path d="M0.633123 5.692L0.725381 5.97297H1.00635L0.778499 6.1435L0.863767 6.42028L0.633123 6.24974L0.405275 6.42028L0.493339 6.1435L0.262695 5.97297H0.545059L0.633123 5.692Z" fill="#EDEDEE"/>
<path d="M2.18044 5.692L2.26991 5.97297H2.55506L2.32722 6.1435L2.41528 6.42028L2.18044 6.24974L1.95679 6.42028L2.04485 6.1435L1.81421 5.97297H2.09657L2.18044 5.692Z" fill="#EDEDEE"/>
<path d="M3.8048 5.692L3.89007 5.97297H4.17103L3.94318 6.1435L4.03125 6.42028L3.8048 6.24974L3.57276 6.42028L3.65802 6.1435L3.43018 5.97297H3.71534L3.8048 5.692Z" fill="#EDEDEE"/>
<path d="M5.42065 5.692L5.50872 5.97297H5.79108L5.56044 6.1435L5.6485 6.42028L5.42065 6.24974L5.18861 6.42028L5.27388 6.1435L5.04883 5.97297H5.33259L5.42065 5.692Z" fill="#EDEDEE"/>
<path d="M7.03673 5.692L7.122 5.97297H7.41135L7.17931 6.1435L7.26458 6.42028L7.03673 6.24974L6.80469 6.42028L6.89415 6.1435L6.66211 5.97297H6.94867L7.03673 5.692Z" fill="#EDEDEE"/>
<path d="M8.65265 5.692L8.74072 5.97297H9.02308L8.79523 6.1435L8.8847 6.42028L8.65265 6.24974L8.42201 6.42028L8.51007 6.1435L8.28223 5.97297H8.56459L8.65265 5.692Z" fill="#EDEDEE"/>
</g>
<defs>
<clipPath id="clip0_509_48828">
<rect width="18" height="12.5932" fill="white"/>
</clipPath>
</defs>
</svg>
