<svg width="43" height="43" viewBox="0 0 43 43" fill="none" xmlns="http://www.w3.org/2000/svg">
<path d="M39.2595 36.932H3.74048V14.5416C3.74048 13.5333 4.55781 12.7158 5.5663 12.7158H37.4338C38.4421 12.7158 39.2597 13.5332 39.2597 14.5416L39.2595 36.932Z" fill="#E0EBFC"/>
<path d="M5.70605 34.8902V15.53C5.70605 15.3948 5.75973 15.2653 5.85527 15.1697C5.95081 15.0742 6.08039 15.0205 6.2155 15.0205H36.7843C36.9194 15.0205 37.049 15.0742 37.1445 15.1697C37.2401 15.2653 37.2938 15.3948 37.2938 15.53V34.8902C37.2938 35.0253 37.2401 35.1549 37.1445 35.2504C37.049 35.346 36.9194 35.3997 36.7843 35.3997H6.2155C6.08039 35.3997 5.95081 35.346 5.85527 35.2504C5.75973 35.1549 5.70605 35.0253 5.70605 34.8902Z" fill="#6BDDDD"/>
<path d="M39.2595 37.2678H3.74048C3.65138 37.2678 3.56594 37.2324 3.50293 37.1694C3.43993 37.1064 3.40454 37.021 3.40454 36.9319V14.5415C3.40454 13.3496 4.37422 12.3799 5.5663 12.3799H37.434C38.6259 12.3799 39.5958 13.3496 39.5958 14.5415V36.9319C39.5957 37.021 39.5602 37.1064 39.4972 37.1694C39.4341 37.2324 39.3486 37.2678 39.2595 37.2678ZM4.07642 36.5959H38.9237V14.5415C38.9237 13.7199 38.2554 13.0518 37.4338 13.0518H5.56613C4.7446 13.0518 4.07625 13.7201 4.07625 14.5415L4.07642 36.5959Z" fill="#3762CC"/>
<path d="M36.7845 35.7356H6.2155C5.99138 35.7353 5.7765 35.6462 5.61802 35.4877C5.45954 35.3292 5.37038 35.1143 5.37012 34.8902V15.53C5.37038 15.3058 5.45954 15.091 5.61802 14.9325C5.7765 14.774 5.99138 14.6848 6.2155 14.6846H36.7843C37.0084 14.6848 37.2233 14.774 37.3818 14.9325C37.5403 15.091 37.6294 15.3058 37.6297 15.53V34.8902C37.6295 35.1143 37.5404 35.3292 37.3819 35.4877C37.2235 35.6462 37.0086 35.7354 36.7845 35.7356ZM6.2155 15.3564C6.11976 15.3564 6.04199 15.4344 6.04199 15.53V34.8902C6.04199 34.9858 6.11976 35.0637 6.2155 35.0637H36.7843C36.88 35.0637 36.9578 34.9858 36.9578 34.8902V15.53C36.9578 15.4344 36.88 15.3564 36.7843 15.3564H6.2155Z" fill="#3762CC"/>
<path d="M40.9934 40.7822H2.00655C1.60803 40.7822 1.22582 40.6238 0.944022 40.342C0.662221 40.0602 0.503906 39.678 0.503906 39.2795V37.7616C0.503884 37.6526 0.525336 37.5446 0.567036 37.4439C0.608737 37.3432 0.669868 37.2517 0.746939 37.1747C0.82401 37.0976 0.91551 37.0365 1.01621 36.9948C1.11691 36.9531 1.22485 36.9316 1.33384 36.9316H41.6663C41.7753 36.9316 41.8833 36.9531 41.984 36.9948C42.0847 37.0365 42.1762 37.0976 42.2532 37.1747C42.3303 37.2517 42.3914 37.3432 42.4331 37.4439C42.4748 37.5446 42.4963 37.6526 42.4963 37.7616V39.2795C42.4962 39.6781 42.3379 40.0603 42.056 40.3421C41.7742 40.6238 41.392 40.7822 40.9934 40.7822Z" fill="#E0EBFC"/>
<path d="M28.4988 38.3876H14.5013C14.4133 38.3876 14.3289 38.3526 14.2666 38.2904C14.2044 38.2281 14.1694 38.1437 14.1694 38.0557V36.9326H28.8308V38.0557C28.8308 38.1437 28.7958 38.2281 28.7335 38.2904C28.6713 38.3526 28.5869 38.3876 28.4988 38.3876Z" fill="#A4C9FF"/>
<path d="M28.4988 38.7227H14.5013C14.3242 38.7226 14.1544 38.6522 14.0291 38.5269C13.9039 38.4017 13.8334 38.2319 13.8333 38.0548V36.9316C13.8333 36.8425 13.8686 36.7571 13.9316 36.6941C13.9946 36.6311 14.0801 36.5957 14.1692 36.5957H28.8305C28.9196 36.5957 29.0051 36.6311 29.0681 36.6941C29.1311 36.7571 29.1664 36.8425 29.1664 36.9316V38.0548C29.1663 38.2319 29.0959 38.4017 28.9707 38.5269C28.8456 38.6521 28.6758 38.7225 28.4988 38.7227ZM14.5053 37.2677V38.055L28.4947 38.051V37.2679L14.5053 37.2677Z" fill="#3762CC"/>
<path d="M40.9934 41.1191H2.00655C0.992863 41.1191 0.167969 40.2942 0.167969 39.2803V37.7624C0.167969 37.1196 0.691023 36.5967 1.33384 36.5967H41.6662C42.309 36.5967 42.832 37.1196 42.832 37.7624V39.2803C42.832 40.2942 42.0071 41.1191 40.9934 41.1191ZM1.33384 37.2684C1.20289 37.2685 1.07735 37.3206 0.984738 37.4132C0.89213 37.5057 0.840022 37.6313 0.839844 37.7622V39.2802C0.840155 39.5895 0.96317 39.8861 1.1819 40.1049C1.40063 40.3236 1.6972 40.4467 2.00655 40.447H40.9933C41.3026 40.4467 41.5992 40.3236 41.8179 40.1049C42.0367 39.8861 42.1597 39.5895 42.16 39.2802V37.7622C42.1598 37.6313 42.1077 37.5057 42.0151 37.4132C41.9225 37.3206 41.7969 37.2685 41.666 37.2684H1.33384Z" fill="#3762CC"/>
<path d="M32.7541 28.2954H10.2459C9.93415 28.2953 9.63515 28.1714 9.41469 27.951C9.19423 27.7305 9.07036 27.4315 9.07031 27.1197V22.5282C9.07036 22.2164 9.19423 21.9174 9.41469 21.6969C9.63515 21.4765 9.93415 21.3526 10.2459 21.3525H32.7541C33.0659 21.3526 33.3648 21.4765 33.5853 21.6969C33.8058 21.9174 33.9296 22.2164 33.9297 22.5282V27.1196C33.9297 27.4314 33.8058 27.7304 33.5854 27.9509C33.3649 28.1714 33.0659 28.2953 32.7541 28.2954Z" fill="#4671C6"/>
<path d="M32.7541 28.6313H10.2459C9.41246 28.6313 8.73438 27.9532 8.73438 27.1197V22.5282C8.73438 21.6947 9.41246 21.0166 10.2459 21.0166H32.7541C33.5875 21.0166 34.2656 21.6947 34.2656 22.5282V27.1197C34.2656 27.9532 33.5875 28.6313 32.7541 28.6313ZM10.2459 21.6885C10.0233 21.6887 9.80989 21.7773 9.65248 21.9347C9.49507 22.0921 9.40652 22.3055 9.40625 22.5282V27.1197C9.40652 27.3424 9.49507 27.5558 9.65248 27.7132C9.80989 27.8706 10.0233 27.9592 10.2459 27.9594H32.7541C32.9767 27.9592 33.1901 27.8706 33.3475 27.7132C33.5049 27.5558 33.5935 27.3424 33.5938 27.1197V22.5282C33.5935 22.3055 33.5049 22.0921 33.3475 21.9347C33.1901 21.7773 32.9767 21.6887 32.7541 21.6885H10.2459Z" fill="#3762CC"/>
<path d="M29.0319 32.3488H13.9681C12.3299 32.3488 11.002 31.0208 11.002 29.3826V21.0374C11.002 19.3992 12.3299 18.0713 13.9681 18.0713H29.0321C30.6703 18.0713 31.9982 19.3992 31.9982 21.0374V29.3826C31.998 31.0208 30.6701 32.3488 29.0319 32.3488Z" fill="#E0EBFC"/>
<path d="M13.9681 30.3332C13.7161 30.3329 13.4745 30.2326 13.2963 30.0544C13.1181 29.8762 13.0179 29.6346 13.0176 29.3826V21.0374C13.0179 20.7854 13.1181 20.5439 13.2963 20.3657C13.4745 20.1875 13.7161 20.0872 13.9681 20.0869H29.0321C29.2841 20.0872 29.5257 20.1875 29.7038 20.3657C29.882 20.5439 29.9823 20.7854 29.9826 21.0374V29.3826C29.9823 29.6346 29.882 29.8762 29.7038 30.0544C29.5257 30.2326 29.2841 30.3329 29.0321 30.3332H13.9681Z" fill="#FFEA92"/>
<path d="M26.8805 28.1561C27.662 28.1561 28.2956 27.8024 28.2956 27.3661C28.2956 26.9298 27.662 26.5762 26.8805 26.5762C26.0989 26.5762 25.4653 26.9298 25.4653 27.3661C25.4653 27.8024 26.0989 28.1561 26.8805 28.1561Z" fill="#F9A7A7"/>
<path d="M24.9744 26.0432C24.8248 26.0432 24.6766 26.0138 24.5384 25.9565C24.4002 25.8993 24.2746 25.8153 24.1689 25.7096C24.0631 25.6038 23.9792 25.4782 23.9219 25.34C23.8647 25.2018 23.8352 25.0537 23.8352 24.9041V23.689C23.8352 23.3868 23.9552 23.0971 24.1689 22.8835C24.3825 22.6698 24.6722 22.5498 24.9744 22.5498C25.2765 22.5498 25.5662 22.6698 25.7799 22.8835C25.9935 23.0971 26.1135 23.3868 26.1135 23.689V24.9041C26.1136 25.0537 26.0841 25.2018 26.0269 25.34C25.9696 25.4782 25.8857 25.6038 25.7799 25.7096C25.6741 25.8154 25.5486 25.8993 25.4103 25.9565C25.2721 26.0138 25.124 26.0432 24.9744 26.0432Z" fill="#3762CC"/>
<path d="M16.1197 28.1561C16.9013 28.1561 17.5349 27.8024 17.5349 27.3661C17.5349 26.9298 16.9013 26.5762 16.1197 26.5762C15.3382 26.5762 14.7046 26.9298 14.7046 27.3661C14.7046 27.8024 15.3382 28.1561 16.1197 28.1561Z" fill="#F9A7A7"/>
<path d="M17.9475 26.0694C18.2519 26.0694 18.5439 25.9485 18.7591 25.7333C18.9743 25.518 19.0953 25.2261 19.0953 24.9217V23.6975C19.0953 23.5468 19.0656 23.3976 19.0079 23.2583C18.9502 23.1191 18.8657 22.9925 18.7591 22.886C18.6525 22.7794 18.526 22.6948 18.3868 22.6372C18.2475 22.5795 18.0983 22.5498 17.9475 22.5498C17.7968 22.5498 17.6476 22.5795 17.5083 22.6372C17.3691 22.6948 17.2425 22.7794 17.136 22.886C17.0294 22.9925 16.9448 23.1191 16.8872 23.2583C16.8295 23.3976 16.7998 23.5468 16.7998 23.6975V24.9217C16.7998 25.2261 16.9207 25.518 17.136 25.7333C17.3512 25.9485 17.6431 26.0694 17.9475 26.0694Z" fill="#3762CC"/>
<path d="M30.0478 2.21777H12.9523C11.7903 2.21777 10.8481 3.15991 10.8481 4.32192V12.9083C10.8481 14.0703 11.7901 15.0125 12.9523 15.0125H19.9178L20.8666 16.6055C21.1525 17.0854 21.8474 17.0854 22.1333 16.6055L23.0821 15.0125H30.0476C31.2097 15.0125 32.1518 14.0705 32.1518 12.9083V4.32175C32.152 3.15974 31.21 2.21777 30.0478 2.21777Z" fill="#A4C9FF"/>
<path d="M21.5001 17.3012C21.314 17.3021 21.1309 17.2542 20.9691 17.1623C20.8074 17.0704 20.6725 16.9376 20.5781 16.7773L19.7268 15.3484H12.9523C11.6069 15.3484 10.5122 14.2537 10.5122 12.9085V4.32192C10.5122 2.97632 11.6069 1.88184 12.9523 1.88184H30.0478C31.3932 1.88184 32.4879 2.97649 32.4879 4.32192V12.9083C32.4879 14.2537 31.3932 15.3482 30.0478 15.3482H23.2731L22.4219 16.7771C22.3275 16.9375 22.1927 17.0703 22.0309 17.1623C21.8692 17.2542 21.6861 17.3021 21.5001 17.3012ZM12.9523 2.55371C11.9772 2.55371 11.1841 3.34703 11.1841 4.32192V12.9083C11.1841 13.8834 11.9772 14.6764 12.9523 14.6764H19.9178C19.976 14.6764 20.0332 14.6915 20.0838 14.7203C20.1343 14.749 20.1766 14.7905 20.2064 14.8405L21.1552 16.4333C21.2605 16.6102 21.4314 16.6292 21.4999 16.6292C21.5684 16.6292 21.7392 16.6102 21.8446 16.4333L22.7934 14.8405C22.8232 14.7905 22.8655 14.7491 22.916 14.7203C22.9666 14.6916 23.0238 14.6764 23.082 14.6764H30.0475C31.0225 14.6764 31.8157 13.8832 31.8157 12.9083V4.32192C31.8157 3.34686 31.0225 2.55371 30.0475 2.55371H12.9523Z" fill="#3762CC"/>
<path d="M15.9969 9.59139C16.5383 9.59139 16.9771 9.15251 16.9771 8.61112C16.9771 8.06974 16.5383 7.63086 15.9969 7.63086C15.4555 7.63086 15.0166 8.06974 15.0166 8.61112C15.0166 9.15251 15.4555 9.59139 15.9969 9.59139Z" fill="#E0EBFC"/>
<path d="M21.5 9.59139C22.0414 9.59139 22.4803 9.15251 22.4803 8.61112C22.4803 8.06974 22.0414 7.63086 21.5 7.63086C20.9587 7.63086 20.5198 8.06974 20.5198 8.61112C20.5198 9.15251 20.9587 9.59139 21.5 9.59139Z" fill="#E0EBFC"/>
<path d="M27.0032 9.59139C27.5446 9.59139 27.9835 9.15251 27.9835 8.61112C27.9835 8.06974 27.5446 7.63086 27.0032 7.63086C26.4618 7.63086 26.0229 8.06974 26.0229 8.61112C26.0229 9.15251 26.4618 9.59139 27.0032 9.59139Z" fill="#E0EBFC"/>
<path d="M15.9968 9.92733C15.271 9.92733 14.6806 9.33675 14.6806 8.61112C14.6806 7.8855 15.271 7.29492 15.9968 7.29492C16.7226 7.29492 17.313 7.8855 17.313 8.61112C17.313 9.33675 16.7226 9.92733 15.9968 9.92733ZM15.9968 7.9668C15.6416 7.9668 15.3525 8.25587 15.3525 8.61112C15.3525 8.96638 15.6416 9.25545 15.9968 9.25545C16.3521 9.25545 16.6412 8.96638 16.6412 8.61112C16.6412 8.25587 16.3523 7.9668 15.9968 7.9668ZM21.5 9.92733C20.7742 9.92733 20.1838 9.33675 20.1838 8.61112C20.1838 7.8855 20.7742 7.29492 21.5 7.29492C22.2258 7.29492 22.8162 7.8855 22.8162 8.61112C22.8162 9.33675 22.2258 9.92733 21.5 9.92733ZM21.5 7.9668C21.1447 7.9668 20.8557 8.25587 20.8557 8.61112C20.8557 8.96638 21.1447 9.25545 21.5 9.25545C21.8553 9.25545 22.1443 8.96638 22.1443 8.61112C22.1443 8.25587 21.8553 7.9668 21.5 7.9668ZM27.0032 9.92733C26.2774 9.92733 25.687 9.33675 25.687 8.61112C25.687 7.8855 26.2774 7.29492 27.0032 7.29492C27.729 7.29492 28.3194 7.8855 28.3194 8.61112C28.3194 9.33675 27.7288 9.92733 27.0032 9.92733ZM27.0032 7.9668C26.6479 7.9668 26.3588 8.25587 26.3588 8.61112C26.3588 8.96638 26.6479 9.25545 27.0032 9.25545C27.3584 9.25545 27.6475 8.96638 27.6475 8.61112C27.6475 8.25587 27.3584 7.9668 27.0032 7.9668ZM29.0319 32.6841H13.9681C12.1473 32.6841 10.666 31.2029 10.666 29.3821V21.037C10.666 19.2162 12.1473 17.7349 13.9681 17.7349H29.0321C30.8528 17.7349 32.3342 19.2162 32.3342 21.037V29.3821C32.334 31.2029 30.8527 32.6841 29.0319 32.6841ZM13.9681 18.4067C12.5179 18.4067 11.3379 19.5865 11.3379 21.037V29.3821C11.3379 30.8324 12.5177 32.0122 13.9681 32.0122H29.0321C30.4823 32.0122 31.6623 30.8324 31.6623 29.3821V21.037C31.6623 19.5865 30.4825 18.4067 29.0321 18.4067H13.9681Z" fill="#3762CC"/>
<path d="M29.0319 30.6689H13.9681C13.2588 30.6689 12.6816 30.0918 12.6816 29.3826V21.0374C12.6816 20.3279 13.2588 19.751 13.9681 19.751H29.0321C29.7414 19.751 30.3185 20.3281 30.3185 21.0374V29.3826C30.3184 30.0918 29.7412 30.6689 29.0319 30.6689ZM13.9681 20.4229C13.8052 20.423 13.6489 20.4878 13.5337 20.6031C13.4185 20.7183 13.3537 20.8745 13.3535 21.0374V29.3826C13.3537 29.5456 13.4185 29.7018 13.5337 29.817C13.649 29.9322 13.8052 29.9969 13.9681 29.9971H29.0321C29.195 29.9969 29.3512 29.9322 29.4664 29.817C29.5817 29.7018 29.6465 29.5456 29.6467 29.3826V21.0374C29.6465 20.8745 29.5817 20.7183 29.4664 20.6031C29.3512 20.4878 29.195 20.423 29.0321 20.4229H13.9681Z" fill="#3762CC"/>
</svg>
