<svg width="25" height="26" viewBox="0 0 25 26" fill="none" xmlns="http://www.w3.org/2000/svg">
<path d="M17.0257 11.683C13.671 11.7034 10.968 14.4394 10.9884 17.7941C11.0088 21.1488 13.7448 23.8518 17.0995 23.8314C20.4542 23.811 23.1572 21.075 23.1368 17.7203C23.1164 14.3656 20.3804 11.6626 17.0257 11.683Z" fill="#F9A140"/>
<path d="M16.3365 23.7886C13.3393 23.4317 11.0072 20.8905 10.9884 17.794C11.0072 20.8903 13.3396 23.4315 16.3365 23.7886ZM23.1369 17.7595C23.1369 17.7465 23.1369 17.7334 23.1368 17.7203C23.1165 14.3785 20.4008 11.6834 17.0637 11.6828C20.401 11.683 23.1165 14.3783 23.1368 17.7203C23.1369 17.7334 23.1369 17.7465 23.1369 17.7595ZM10.9883 17.7547C10.9885 16.7687 11.2241 15.8369 11.6421 15.0129H11.6421C11.2241 15.8369 10.9885 16.7687 10.9883 17.7547Z" fill="#DBE3E5"/>
<path d="M17.0618 23.8313C16.8164 23.8313 16.5743 23.8167 16.3365 23.7884C13.3396 23.4313 11.0072 20.8901 10.9884 17.7938C10.9884 17.7922 10.9884 17.7906 10.9884 17.7889C10.9883 17.7775 10.9883 17.766 10.9883 17.7546C10.9885 16.7685 11.2241 15.8367 11.6421 15.0127C12.02 14.8288 12.3798 14.6131 12.7177 14.3694C11.9814 15.3125 11.5456 16.5011 11.5535 17.7904C11.5719 20.8217 14.0348 23.2662 17.0619 23.2662C17.0732 23.2662 17.0847 23.2661 17.0961 23.2661C20.1386 23.2476 22.5902 20.7661 22.5717 17.7235C22.5533 14.6922 20.0904 12.2478 17.0633 12.2478C17.052 12.2478 17.0405 12.2478 17.0291 12.2479C15.9182 12.2546 14.8863 12.5896 14.0244 13.1605C14.294 12.8422 14.5371 12.5001 14.7496 12.1385C15.3831 11.8775 16.0705 11.7204 16.7909 11.6886C16.8688 11.6852 16.9471 11.6832 17.0257 11.6828C17.0265 11.6828 17.0272 11.6828 17.028 11.6828H17.0281C17.0383 11.6827 17.0487 11.6827 17.0589 11.6826C17.0604 11.6826 17.0619 11.6826 17.0634 11.6826C17.0636 11.6826 17.0635 11.6826 17.0637 11.6826C20.4008 11.6832 23.1165 14.3783 23.1368 17.7201C23.1369 17.7332 23.1369 17.7463 23.1369 17.7594C23.1361 21.0961 20.4411 23.8109 17.0995 23.8312C17.087 23.8312 17.0743 23.8313 17.0618 23.8313Z" fill="#E4943D"/>
<path d="M17.0992 23.8313C13.7445 23.8517 11.0085 21.1487 10.9881 17.7939C10.9677 14.4393 13.6708 11.7032 17.0254 11.6829C20.3802 11.6625 23.1162 14.3655 23.1366 17.7202C23.1569 21.0749 20.4539 23.8109 17.0992 23.8313ZM17.018 10.4566C12.986 10.4811 9.73738 13.7695 9.76186 17.8014C9.78634 21.8333 13.0747 25.0821 17.1066 25.0575C21.1386 25.0332 24.3873 21.7447 24.3628 17.7127C24.3383 13.6808 21.0499 10.4321 17.018 10.4566Z" fill="#F4D242"/>
<path d="M15.0789 19.5988C14.9256 19.3432 14.8953 18.9179 15.3411 18.8645C15.7122 18.82 16.0924 19.1018 16.4295 19.262C16.7063 19.3937 17.0119 19.4596 17.3461 19.4596C17.704 19.4596 17.991 19.3725 18.2071 19.1982C18.4231 19.024 18.5312 18.7951 18.5312 18.5114C18.5312 18.2237 18.4442 18.0191 18.2704 17.8975C18.0965 17.7759 17.7985 17.7152 17.3765 17.7152H17.098C16.4092 17.7152 15.8842 17.5714 15.5229 17.2836C15.1616 16.9959 14.981 16.5786 14.981 16.0315C14.981 15.4966 15.1574 15.0814 15.5103 14.7855C15.863 14.4898 16.3586 14.3418 16.9967 14.3418C17.2566 14.3418 17.5217 14.3854 17.7919 14.4725C18.3536 14.6538 19.2422 15.0951 19.0865 15.6664C18.8406 16.568 17.8793 15.3809 17.5334 15.2322C17.3308 15.1451 17.0929 15.1016 16.8195 15.1016C16.502 15.1016 16.2463 15.1857 16.0522 15.3538C15.858 15.522 15.761 15.7358 15.761 15.9951C15.761 16.2503 15.8605 16.4327 16.0598 16.5421C16.2589 16.6515 16.6877 16.7143 17.3461 16.7305C18.0484 16.7508 18.5616 16.8976 18.8857 17.1712C19.2098 17.4447 19.3719 17.8671 19.3719 18.4384C19.3719 18.9855 19.1929 19.4231 18.8351 19.7513C18.4772 20.0795 17.9944 20.2437 17.3867 20.2437C17.1942 20.2437 16.9798 20.2224 16.7436 20.1799C16.2526 20.0914 15.515 20.0958 15.1597 19.7072C15.1282 19.6729 15.1015 19.6366 15.0789 19.5988Z" fill="#F4D242"/>
<path d="M17.1883 21.6851H17.1806C16.9708 21.6851 16.8008 21.4884 16.8008 21.2458V13.7569C16.8008 13.5143 16.9708 13.3176 17.1806 13.3176H17.1883C17.398 13.3176 17.568 13.5143 17.568 13.7569V21.2458C17.568 21.4884 17.398 21.6851 17.1883 21.6851Z" fill="#F4D242"/>
<path d="M1.36133 6.69434C2.00777 4.06724 4.07761 1.9967 6.7104 1.35278C6.38797 1.5206 6.07319 1.70234 5.76791 1.89657C4.11516 2.54575 2.78771 3.83996 2.09386 5.46757C1.82743 5.86104 1.58258 6.27075 1.36133 6.69434Z" fill="#D6E5E8"/>
<path d="M8.45009 15.7451C4.43904 15.7448 1.17492 12.5055 1.15053 8.48882C1.14677 7.87015 1.22013 7.26874 1.3615 6.69419C1.58276 6.27061 1.82761 5.8609 2.09404 5.46743C1.74934 6.276 1.5609 7.16699 1.56657 8.10196C1.5887 11.745 4.54914 14.6829 8.18703 14.6832C8.20085 14.6832 8.21425 14.6831 8.22809 14.683C9.09855 14.6777 9.92881 14.5047 10.6883 14.1948C10.4477 14.6244 10.2492 15.0809 10.0986 15.5584C9.58297 15.6773 9.04658 15.7416 8.49532 15.745C8.48007 15.7451 8.46531 15.7451 8.45009 15.7451ZM14.0762 11.093C14.5508 10.1732 14.8159 9.12839 14.8091 8.02153C14.787 4.37853 11.8266 1.44033 8.18874 1.44033C8.17493 1.44033 8.1615 1.44038 8.14766 1.44047C7.30779 1.44555 6.50565 1.60671 5.76809 1.89643C6.07337 1.7022 6.38815 1.52045 6.71058 1.35263C7.25454 1.2196 7.82221 1.14754 8.40668 1.14401C8.42193 1.14392 8.43669 1.14387 8.45194 1.14387C12.463 1.14387 15.7271 4.38348 15.7515 8.40016C15.7562 9.18199 15.638 9.9356 15.4147 10.6432C14.95 10.7503 14.5021 10.9019 14.0762 11.093Z" fill="#DFE8EA"/>
<path d="M12.7168 14.3694C13.0836 13.8995 13.5251 13.4906 14.0235 13.1605C13.639 13.6144 13.2003 14.0206 12.7168 14.3694Z" fill="#E9973E"/>
<path d="M11.6406 15.0127C12.2959 13.721 13.3997 12.6942 14.7482 12.1385C13.3997 12.6942 12.2959 13.721 11.6407 15.0127H11.6406Z" fill="#CDD4D6"/>
<path d="M11.6406 15.0127C12.2959 13.721 13.3997 12.6942 14.7481 12.1385C14.5356 12.5001 14.2925 12.8421 14.0229 13.1605C13.5246 13.4905 13.0831 13.8995 12.7162 14.3693C12.3783 14.6131 12.0186 14.8288 11.6406 15.0127Z" fill="#D58B3B"/>
<path d="M10.0977 15.5583C10.2483 15.0809 10.4468 14.6244 10.6874 14.1948C12.1528 13.5968 13.3551 12.4889 14.0752 11.093C14.5012 10.9019 14.9491 10.7503 15.4138 10.6431C15.2476 11.1698 15.0234 11.6708 14.7484 12.1386C13.3999 12.6942 12.2962 13.721 11.6409 15.0128C11.1544 15.2495 10.6374 15.4339 10.0977 15.5583Z" fill="#E4C440"/>
<path d="M8.15071 1.98771C4.79603 2.00807 2.09303 4.74411 2.1134 8.0988C2.13376 11.4535 4.8698 14.1565 8.22451 14.1361C11.5792 14.1158 14.2822 11.3797 14.2618 8.02503C14.2415 4.67034 11.5054 1.96732 8.15071 1.98771Z" fill="#F9A140"/>
<path d="M2.09375 5.46753C2.7876 3.83992 4.11505 2.54571 5.7678 1.89653C4.31191 2.82278 3.06008 4.04031 2.09375 5.46753Z" fill="#C4D1D4"/>
<path d="M8.18699 14.6831C4.54911 14.6829 1.58866 11.7449 1.56653 8.1019C1.56087 7.16693 1.7493 6.27594 2.094 5.46737C3.06033 4.04016 4.31216 2.82262 5.76805 1.89638C6.50562 1.60666 7.30775 1.4455 8.14762 1.44041C8.16146 1.44033 8.17489 1.44028 8.1887 1.44028C11.8266 1.44028 14.787 4.37848 14.8091 8.02148C14.8158 9.12833 14.5507 10.1731 14.0761 11.093C13.742 11.243 13.4209 11.4174 13.1158 11.6139C13.8441 10.6052 14.2702 9.36431 14.2621 8.02482C14.2417 4.68281 11.5259 1.98736 8.18862 1.98736C8.17594 1.98736 8.16364 1.98742 8.15094 1.9875C4.79625 2.00786 2.09325 4.7439 2.11362 8.09859C2.13392 11.4406 4.84974 14.1358 8.18705 14.136C8.19973 14.136 8.21202 14.136 8.22473 14.1359C9.34554 14.1291 10.3938 13.8191 11.2919 13.2842C11.0689 13.5714 10.867 13.8757 10.6883 14.1947C9.92877 14.5046 9.09851 14.6777 8.22805 14.683C8.21421 14.6831 8.20081 14.6831 8.18699 14.6831Z" fill="#CCD4D6"/>
<path d="M10.6875 14.1948C10.8662 13.8758 11.0682 13.5715 11.2911 13.2842C12.0077 12.8575 12.6287 12.2875 13.115 11.614C13.4202 11.4175 13.7412 11.2431 14.0754 11.0931C13.3552 12.489 12.153 13.5968 10.6875 14.1948Z" fill="#D1B43D"/>
<path d="M8.18683 14.1362C4.84952 14.136 2.1337 11.4408 2.1134 8.0988C2.09303 4.74411 4.79603 2.00808 8.15071 1.98771C8.16342 1.98763 8.17572 1.98757 8.1884 1.98757C11.5257 1.98757 14.2415 4.68303 14.2618 8.02503C14.27 9.36452 13.8439 10.6054 13.1156 11.6141C12.6292 12.2876 12.0083 12.8576 11.2917 13.2844C10.3936 13.8193 9.34532 14.1293 8.22451 14.1361C8.2118 14.1362 8.19951 14.1362 8.18683 14.1362ZM8.18832 2.5527C8.17702 2.5527 8.1655 2.55273 8.15417 2.55281C5.11155 2.57127 2.66004 5.05276 2.6785 8.09538C2.6969 11.1266 5.1598 13.5711 8.18688 13.5711C8.19818 13.5711 8.20973 13.5711 8.22106 13.571C11.2636 13.5525 13.7152 11.071 13.6967 8.02846C13.6783 4.9972 11.2154 2.5527 8.18832 2.5527Z" fill="#E4943D"/>
<path d="M8.22424 14.1359C4.86953 14.1563 2.13349 11.4533 2.11312 8.09858C2.09276 4.74387 4.79576 2.00786 8.15044 1.98749C11.5052 1.9671 14.2412 4.67012 14.2616 8.02481C14.2819 11.3795 11.5789 14.1155 8.22424 14.1359ZM8.14301 0.761224C4.11108 0.785676 0.862377 4.07408 0.886856 8.10601C0.911363 12.138 4.19974 15.3866 8.23167 15.3622C12.2636 15.3377 15.5123 12.0493 15.4878 8.01735C15.4633 3.98542 12.1749 0.736745 8.14301 0.761224Z" fill="#F4D242"/>
<path d="M9.61419 10.112C9.35334 10.2752 8.90337 10.3587 8.26417 10.3625L8.02459 10.364C8.02034 9.66695 8.01611 8.96995 8.01188 8.27295L8.30243 8.27118C8.93144 8.26737 9.37146 8.34462 9.62236 8.50288C9.87324 8.66117 9.99981 8.92895 10.0021 9.30642C10.0044 9.68049 9.87503 9.94902 9.61419 10.112ZM7.36086 10.368C7.35663 9.67099 7.3524 8.97399 7.34817 8.27698L7.60963 8.27541C7.61388 8.97241 7.61808 9.66941 7.62234 10.3664L7.36086 10.368ZM7.59443 5.77115C7.59822 6.39676 7.60203 7.0224 7.60582 7.648L7.34436 7.64958C7.34055 7.02397 7.33676 6.39836 7.33298 5.77273L7.59443 5.77115ZM8.36882 5.76645C8.76323 5.76405 9.0663 5.84301 9.27813 6.00323C9.48988 6.16346 9.59672 6.39491 9.59857 6.6975C9.60051 7.01709 9.48549 7.25409 9.25354 7.40851C9.02157 7.56291 8.66407 7.64157 8.18139 7.6445L8.00807 7.64554C8.00428 7.01994 8.00047 6.39433 7.99669 5.76872L8.36882 5.76645ZM10.6163 8.41524C10.4364 8.17835 10.1623 7.99464 9.79438 7.8642C10.0214 7.73368 10.1921 7.56771 10.3065 7.36635C10.4209 7.16513 10.4773 6.93017 10.4757 6.66153C10.4725 6.12776 10.2812 5.72169 9.90205 5.44355C9.52298 5.16527 8.97305 5.02834 8.25226 5.0327L7.99221 5.03428C7.99075 4.79247 7.98928 4.55068 7.98782 4.30887C7.98646 4.08657 7.58421 4.089 7.58556 4.3113C7.58703 4.55311 7.58852 4.79493 7.58996 5.03674L7.3285 5.03831C7.32704 4.7965 7.32557 4.55469 7.32411 4.31291C7.32276 4.0906 6.9205 4.09303 6.92185 4.31534C6.92332 4.55715 6.92478 4.79896 6.92625 5.04077L5.87045 5.04715C5.7548 5.04787 5.6666 5.07995 5.60579 5.14322C5.54501 5.20646 5.51492 5.29756 5.51564 5.41661C5.51647 5.55608 5.55451 5.65187 5.62964 5.70409C5.70473 5.7564 5.87321 5.78159 6.13506 5.77999L6.30335 5.779L6.33125 10.3743L6.16294 10.3753C5.8807 10.377 5.70233 10.4027 5.62781 10.4524C5.55332 10.5022 5.51655 10.5952 5.51738 10.7312C5.51812 10.8535 5.54841 10.9451 5.60825 11.0059C5.6681 11.0668 5.7575 11.0968 5.87653 11.0961L6.96297 11.0895C6.96446 11.3313 6.96592 11.5731 6.96739 11.815C6.96874 12.0373 7.371 12.0348 7.36964 11.8125C7.36818 11.5707 7.36671 11.3289 7.36525 11.0871L7.6267 11.0855C7.62817 11.3273 7.62963 11.5691 7.6311 11.8109C7.63245 12.0332 8.03471 12.0308 8.03335 11.8085C8.03189 11.5667 8.03042 11.3249 8.02893 11.0831L8.16138 11.0823L8.60005 11.0796C8.97402 11.0773 9.26296 11.0544 9.46664 11.0106C9.67046 10.9669 9.85528 10.8969 10.0213 10.8006C10.2991 10.6357 10.5138 10.4253 10.6652 10.1694C10.8167 9.91346 10.8915 9.63084 10.8897 9.32134C10.8874 8.95418 10.7963 8.65216 10.6163 8.41524Z" fill="#F4D242"/>
<path d="M8.74536 22.8779L7.21066 21.1907C7.16187 21.1371 7.07277 21.1744 7.07666 21.2467L7.12791 22.2026C5.78732 21.8182 4.64385 20.9947 3.88126 19.8554C3.06973 18.6429 2.78421 17.2141 3.07377 15.8235C3.08239 15.782 3.05658 15.7413 3.01528 15.7321L2.57252 15.6332C2.53071 15.6239 2.48897 15.6504 2.48018 15.6923C2.15449 17.2463 2.47139 18.8418 3.37611 20.1935C4.22643 21.4639 5.50323 22.3786 6.99839 22.7977L6.5112 23.788C6.47968 23.8521 6.54469 23.9209 6.61042 23.8931L8.71839 23.0008C8.76732 22.98 8.78111 22.9172 8.74536 22.8779Z" fill="#6DB294"/>
<path d="M21.8392 6.53753C20.8877 5.3411 19.5402 4.53405 18.0157 4.23891L18.422 3.20718C18.4475 3.14239 18.3789 3.08075 18.3172 3.11305L16.2825 4.17871C16.2366 4.20275 16.2282 4.26494 16.2661 4.30028L17.9398 5.86149C17.9915 5.90971 18.0751 5.86641 18.0656 5.79637L17.9354 4.84264C19.303 5.11584 20.5101 5.84287 21.3635 6.91591C22.2721 8.05824 22.6737 9.45962 22.4985 10.8699C22.4934 10.9109 22.5217 10.9484 22.5626 10.9541L23.0157 11.0169C23.0571 11.0226 23.0956 10.9935 23.1008 10.9521C23.2986 9.3759 22.8521 7.81101 21.8392 6.53753Z" fill="#679BC6"/>
</svg>
