<svg width="79" height="17" viewBox="0 0 79 17" fill="none" xmlns="http://www.w3.org/2000/svg">
<path d="M0.481 8.463C0.481 7.579 0.684667 6.786 1.092 6.084C1.508 5.382 2.067 4.836 2.769 4.446C3.47967 4.04733 4.25533 3.848 5.096 3.848C6.058 3.848 6.91167 4.08633 7.657 4.563C8.411 5.031 8.957 5.69833 9.295 6.565H7.514C7.28 6.08833 6.955 5.733 6.539 5.499C6.123 5.265 5.642 5.148 5.096 5.148C4.498 5.148 3.965 5.28233 3.497 5.551C3.029 5.81967 2.66067 6.20533 2.392 6.708C2.132 7.21067 2.002 7.79567 2.002 8.463C2.002 9.13033 2.132 9.71533 2.392 10.218C2.66067 10.7207 3.029 11.1107 3.497 11.388C3.965 11.6567 4.498 11.791 5.096 11.791C5.642 11.791 6.123 11.674 6.539 11.44C6.955 11.206 7.28 10.8507 7.514 10.374H9.295C8.957 11.2407 8.411 11.908 7.657 12.376C6.91167 12.844 6.058 13.078 5.096 13.078C4.24667 13.078 3.471 12.883 2.769 12.493C2.067 12.0943 1.508 11.544 1.092 10.842C0.684667 10.14 0.481 9.347 0.481 8.463ZM14.0067 13.091C13.4 13.091 12.854 12.987 12.3687 12.779C11.8834 12.5623 11.502 12.259 11.2247 11.869C10.9474 11.479 10.8087 11.024 10.8087 10.504H12.3947C12.4294 10.894 12.581 11.2147 12.8497 11.466C13.127 11.7173 13.5127 11.843 14.0067 11.843C14.518 11.843 14.9167 11.7217 15.2027 11.479C15.4887 11.2277 15.6317 10.907 15.6317 10.517C15.6317 10.2137 15.5407 9.96667 15.3587 9.776C15.1854 9.58533 14.9644 9.438 14.6957 9.334C14.4357 9.23 14.0717 9.11733 13.6037 8.996C13.0144 8.84 12.5334 8.684 12.1607 8.528C11.7967 8.36333 11.4847 8.112 11.2247 7.774C10.9647 7.436 10.8347 6.98533 10.8347 6.422C10.8347 5.902 10.9647 5.447 11.2247 5.057C11.4847 4.667 11.8487 4.368 12.3167 4.16C12.7847 3.952 13.3264 3.848 13.9417 3.848C14.817 3.848 15.532 4.069 16.0867 4.511C16.65 4.94433 16.962 5.54233 17.0227 6.305H15.3847C15.3587 5.97567 15.2027 5.694 14.9167 5.46C14.6307 5.226 14.2537 5.109 13.7857 5.109C13.361 5.109 13.0144 5.21733 12.7457 5.434C12.477 5.65067 12.3427 5.96267 12.3427 6.37C12.3427 6.64733 12.425 6.877 12.5897 7.059C12.763 7.23233 12.9797 7.371 13.2397 7.475C13.4997 7.579 13.855 7.69167 14.3057 7.813C14.9037 7.97767 15.389 8.14233 15.7617 8.307C16.143 8.47167 16.4637 8.72733 16.7237 9.074C16.9924 9.412 17.1267 9.867 17.1267 10.439C17.1267 10.8983 17.001 11.3317 16.7497 11.739C16.507 12.1463 16.1474 12.4757 15.6707 12.727C15.2027 12.9697 14.648 13.091 14.0067 13.091ZM21.8524 13.091C21.2457 13.091 20.6997 12.987 20.2144 12.779C19.7291 12.5623 19.3477 12.259 19.0704 11.869C18.7931 11.479 18.6544 11.024 18.6544 10.504H20.2404C20.2751 10.894 20.4267 11.2147 20.6954 11.466C20.9727 11.7173 21.3584 11.843 21.8524 11.843C22.3637 11.843 22.7624 11.7217 23.0484 11.479C23.3344 11.2277 23.4774 10.907 23.4774 10.517C23.4774 10.2137 23.3864 9.96667 23.2044 9.776C23.0311 9.58533 22.8101 9.438 22.5414 9.334C22.2814 9.23 21.9174 9.11733 21.4494 8.996C20.8601 8.84 20.3791 8.684 20.0064 8.528C19.6424 8.36333 19.3304 8.112 19.0704 7.774C18.8104 7.436 18.6804 6.98533 18.6804 6.422C18.6804 5.902 18.8104 5.447 19.0704 5.057C19.3304 4.667 19.6944 4.368 20.1624 4.16C20.6304 3.952 21.1721 3.848 21.7874 3.848C22.6627 3.848 23.3777 4.069 23.9324 4.511C24.4957 4.94433 24.8077 5.54233 24.8684 6.305H23.2304C23.2044 5.97567 23.0484 5.694 22.7624 5.46C22.4764 5.226 22.0994 5.109 21.6314 5.109C21.2067 5.109 20.8601 5.21733 20.5914 5.434C20.3227 5.65067 20.1884 5.96267 20.1884 6.37C20.1884 6.64733 20.2707 6.877 20.4354 7.059C20.6087 7.23233 20.8254 7.371 21.0854 7.475C21.3454 7.579 21.7007 7.69167 22.1514 7.813C22.7494 7.97767 23.2347 8.14233 23.6074 8.307C23.9887 8.47167 24.3094 8.72733 24.5694 9.074C24.8381 9.412 24.9724 9.867 24.9724 10.439C24.9724 10.8983 24.8467 11.3317 24.5954 11.739C24.3527 12.1463 23.9931 12.4757 23.5164 12.727C23.0484 12.9697 22.4937 13.091 21.8524 13.091ZM32.698 13.117C32.1347 13.117 31.6277 13.0173 31.177 12.818C30.735 12.61 30.384 12.3327 30.124 11.986C29.864 11.6307 29.7254 11.2363 29.708 10.803H31.242C31.268 11.1063 31.411 11.362 31.671 11.57C31.9397 11.7693 32.2734 11.869 32.672 11.869C33.088 11.869 33.4087 11.791 33.634 11.635C33.868 11.4703 33.985 11.2623 33.985 11.011C33.985 10.7423 33.855 10.543 33.595 10.413C33.3437 10.283 32.9407 10.14 32.386 9.984C31.8487 9.83667 31.411 9.69367 31.073 9.555C30.735 9.41633 30.4404 9.204 30.189 8.918C29.9464 8.632 29.825 8.255 29.825 7.787C29.825 7.40567 29.9377 7.059 30.163 6.747C30.3884 6.42633 30.709 6.175 31.125 5.993C31.5497 5.811 32.035 5.72 32.581 5.72C33.3957 5.72 34.05 5.928 34.544 6.344C35.0467 6.75133 35.3154 7.31033 35.35 8.021H33.868C33.842 7.70033 33.712 7.44467 33.478 7.254C33.244 7.06333 32.9277 6.968 32.529 6.968C32.139 6.968 31.84 7.04167 31.632 7.189C31.424 7.33633 31.32 7.53133 31.32 7.774C31.32 7.96467 31.3894 8.125 31.528 8.255C31.6667 8.385 31.8357 8.489 32.035 8.567C32.2344 8.63633 32.529 8.72733 32.919 8.84C33.439 8.97867 33.8637 9.12167 34.193 9.269C34.531 9.40767 34.8214 9.61567 35.064 9.893C35.3067 10.1703 35.4324 10.5387 35.441 10.998C35.441 11.4053 35.3284 11.7693 35.103 12.09C34.8777 12.4107 34.557 12.662 34.141 12.844C33.7337 13.026 33.2527 13.117 32.698 13.117ZM38.7714 7.046V11.011C38.7714 11.2797 38.832 11.4747 38.9534 11.596C39.0834 11.7087 39.3 11.765 39.6034 11.765H40.5134V13H39.3434C38.676 13 38.1647 12.844 37.8094 12.532C37.454 12.22 37.2764 11.713 37.2764 11.011V7.046H36.4314V5.837H37.2764V4.056H38.7714V5.837H40.5134V7.046H38.7714ZM48.3273 5.837L43.9333 16.367H42.3993L43.8553 12.883L41.0343 5.837H42.6853L44.7003 11.297L46.7933 5.837H48.3273ZM50.9277 3.38V13H49.4457V3.38H50.9277ZM59.4384 9.243C59.4384 9.51167 59.4211 9.75433 59.3864 9.971H53.9134C53.9568 10.543 54.1691 11.0023 54.5504 11.349C54.9318 11.6957 55.3998 11.869 55.9544 11.869C56.7518 11.869 57.3151 11.5353 57.6444 10.868H59.2434C59.0268 11.5267 58.6324 12.0683 58.0604 12.493C57.4971 12.909 56.7951 13.117 55.9544 13.117C55.2698 13.117 54.6544 12.9653 54.1084 12.662C53.5711 12.35 53.1464 11.9167 52.8344 11.362C52.5311 10.7987 52.3794 10.1487 52.3794 9.412C52.3794 8.67533 52.5268 8.02967 52.8214 7.475C53.1248 6.91167 53.5451 6.47833 54.0824 6.175C54.6284 5.87167 55.2524 5.72 55.9544 5.72C56.6304 5.72 57.2328 5.86733 57.7614 6.162C58.2901 6.45667 58.7018 6.87267 58.9964 7.41C59.2911 7.93867 59.4384 8.54967 59.4384 9.243ZM57.8914 8.775C57.8828 8.229 57.6878 7.79133 57.3064 7.462C56.9251 7.13267 56.4528 6.968 55.8894 6.968C55.3781 6.968 54.9404 7.13267 54.5764 7.462C54.2124 7.78267 53.9958 8.22033 53.9264 8.775H57.8914ZM64.9368 7.579C65.3528 7.53567 65.6692 7.41 65.8858 7.202C66.1112 6.994 66.2238 6.721 66.2238 6.383C66.2238 6.071 66.1892 5.499 66.1198 4.667C66.0418 3.887 66.0028 3.263 66.0028 2.795C66.0028 2.17967 66.1805 1.69867 66.5358 1.352C66.8998 1.00533 67.3765 0.831999 67.9658 0.831999H68.8368V2.119H68.2648C67.9875 2.119 67.7795 2.184 67.6408 2.314C67.5108 2.43533 67.4458 2.63467 67.4458 2.912C67.4458 3.12 67.4588 3.39733 67.4848 3.744C67.5108 4.09067 67.5282 4.33767 67.5368 4.485C67.6148 5.28233 67.6538 5.93233 67.6538 6.435C67.6538 6.877 67.5412 7.24533 67.3158 7.54C67.0992 7.83467 66.7612 8.02967 66.3018 8.125V8.151C66.7612 8.24633 67.0992 8.44133 67.3158 8.736C67.5412 9.03067 67.6538 9.399 67.6538 9.841C67.6538 10.3437 67.6148 10.9937 67.5368 11.791C67.5282 11.9383 67.5108 12.1853 67.4848 12.532C67.4588 12.8787 67.4458 13.156 67.4458 13.364C67.4458 13.6413 67.5108 13.8407 67.6408 13.962C67.7795 14.092 67.9875 14.157 68.2648 14.157H68.8368V15.444H67.9658C67.3765 15.444 66.8998 15.2707 66.5358 14.924C66.1805 14.5773 66.0028 14.0963 66.0028 13.481C66.0028 13.013 66.0418 12.389 66.1198 11.609C66.1892 10.777 66.2238 10.205 66.2238 9.893C66.2238 9.555 66.1112 9.282 65.8858 9.074C65.6692 8.866 65.3528 8.74033 64.9368 8.697V7.579ZM78.4489 8.697C78.0329 8.74033 77.7122 8.866 77.4869 9.074C77.2702 9.282 77.1619 9.555 77.1619 9.893C77.1619 10.205 77.1966 10.777 77.2659 11.609C77.3439 12.389 77.3829 13.013 77.3829 13.481C77.3829 14.0963 77.2009 14.5773 76.8369 14.924C76.4816 15.2707 76.0092 15.444 75.4199 15.444H74.5489V14.157H75.1209C75.3982 14.157 75.6019 14.092 75.7319 13.962C75.8706 13.8407 75.9399 13.6413 75.9399 13.364C75.9399 13.156 75.9269 12.8787 75.9009 12.532C75.8749 12.1853 75.8576 11.9383 75.8489 11.791C75.7709 10.9937 75.7319 10.3437 75.7319 9.841C75.7319 9.399 75.8402 9.03067 76.0569 8.736C76.2822 8.44133 76.6246 8.24633 77.0839 8.151V8.125C76.6246 8.02967 76.2822 7.83467 76.0569 7.54C75.8402 7.24533 75.7319 6.877 75.7319 6.435C75.7319 5.93233 75.7709 5.28233 75.8489 4.485C75.8576 4.33767 75.8749 4.09067 75.9009 3.744C75.9269 3.39733 75.9399 3.12 75.9399 2.912C75.9399 2.63467 75.8706 2.43533 75.7319 2.314C75.6019 2.184 75.3982 2.119 75.1209 2.119H74.5489V0.831999H75.4199C76.0092 0.831999 76.4816 1.00533 76.8369 1.352C77.2009 1.69867 77.3829 2.17967 77.3829 2.795C77.3829 3.263 77.3439 3.887 77.2659 4.667C77.1966 5.499 77.1619 6.071 77.1619 6.383C77.1619 6.721 77.2702 6.994 77.4869 7.202C77.7122 7.41 78.0329 7.53567 78.4489 7.579V8.697Z" fill="#333333"/>
</svg>
