<svg width="15" height="15" viewBox="0 0 15 15" fill="none" xmlns="http://www.w3.org/2000/svg">
<g clip-path="url(#clip0_620_50510)">
<path d="M9.14966 13.7048C9.16953 13.7061 9.18914 13.7077 9.20928 13.7077H13.7506C14.2818 13.7077 14.7139 13.2755 14.7139 12.7444V2.21696C14.7139 1.68592 14.2818 1.25365 13.7506 1.25365H9.20928C9.18929 1.25365 9.16953 1.25544 9.14966 1.25667V0L0.286133 1.18291V13.7865L9.14966 15V13.7048ZM9.14966 9.24733H10.6193V9.79803H9.14966V9.24733ZM9.14966 9.17852V8.61773H10.6193V9.17852H9.14966ZM9.14966 8.54892V7.90557H10.6193V8.54892H9.14966ZM9.14966 7.83675V7.11658H10.6193V7.83675H9.14966ZM9.14966 7.05785V6.3718H10.6193V7.05785H9.14966ZM9.14966 6.31294V5.62689H10.59H10.6194V6.31294H9.14966ZM9.20931 1.80425H13.7506C13.9783 1.80425 14.1635 1.98949 14.1635 2.21708V12.7447C14.1635 12.9722 13.9783 13.1575 13.7506 13.1575H9.20931C9.18903 13.1575 9.1693 13.1544 9.14968 13.1513V9.85679H10.6782V9.85666H14.0234V5.49934H14.0205V4.82325H12.3347H12.2758H10.59V4.82338H9.14966V1.81026C9.16927 1.80727 9.18891 1.80425 9.20931 1.80425ZM13.9546 5.62676V9.78772H13.3122V5.82765H12.8712V9.78769H12.5037V6.23445H12.0627V9.78769H11.739V6.63633H11.298V9.78769H10.6782V7.11645V7.05772V6.37167V6.31281V5.62676H12.2757H12.3346H13.9546ZM12.3347 5.56816V4.88216H13.9616V5.49934H13.9546V5.56816H12.3347ZM12.2758 5.56816H10.6782H10.6489V4.88216H12.2757V5.56816H12.2758ZM2.52587 8.2316C2.70831 8.23485 2.91237 8.19557 3.03308 8.14642L3.1256 8.65657C3.01298 8.71356 2.76033 8.7708 2.43504 8.76207C1.53151 8.73801 1.07771 8.12868 1.07771 7.338C1.07771 6.39082 1.69986 5.84734 2.49418 5.82645C2.80812 5.81802 3.04895 5.88013 3.15809 5.93725L3.0331 6.45648C2.90845 6.40293 2.73644 6.35487 2.52188 6.35851C2.04755 6.36642 1.68435 6.67652 1.68435 7.30123C1.68432 7.86335 1.99286 8.22264 2.52587 8.2316ZM4.21809 8.80974C3.89636 8.80101 3.58245 8.70657 3.42679 8.61233L3.55367 8.07249C3.72251 8.16552 3.984 8.26091 4.25578 8.26544C4.55162 8.27056 4.70947 8.14555 4.70947 7.95247C4.70947 7.76766 4.57325 7.66149 4.23056 7.53277C3.76391 7.36209 3.46353 7.0951 3.46353 6.67373C3.46353 6.17912 3.85919 5.79004 4.52627 5.77258C4.85097 5.7639 5.09233 5.82837 5.26621 5.90402L5.11847 6.45185C5.0015 6.39614 4.79506 6.31578 4.51365 6.32041C4.23501 6.32497 4.10084 6.45774 4.10084 6.60996C4.10084 6.79703 4.25987 6.87831 4.62845 7.02065C5.14021 7.21317 5.38426 7.4884 5.38426 7.91115C5.38406 8.41382 5.00562 8.83071 4.21809 8.80974ZM7.37442 8.84791L6.55299 8.82669L5.586 5.79386L6.33106 5.77471L6.70358 7.06141C6.80926 7.42555 6.90569 7.77713 6.97935 8.16147L6.99338 8.16173C7.07179 7.79216 7.16936 7.42635 7.27647 7.07298L7.68025 5.74032L8.45536 5.72064L7.37442 8.84791Z" fill="#4A6ADA"/>
</g>
<defs>
<clipPath id="clip0_620_50510">
<rect width="15" height="15" fill="white"/>
</clipPath>
</defs>
</svg>
