<svg width="35" height="35" viewBox="0 0 35 35" fill="none" xmlns="http://www.w3.org/2000/svg">
<path d="M21.1321 12.5858L24.7917 15.3125C25.6078 15.9246 26.1254 16.8465 26.2303 17.8499C27.1716 17.6212 28.155 17.5 29.1667 17.5H29.5938L26.4636 14.3698C26.1788 14.085 26.1788 13.6233 26.4636 13.3386C26.7483 13.0538 27.21 13.0538 27.4948 13.3386L31.8698 17.7136C32.1545 17.9983 32.1545 18.46 31.8698 18.7448L27.4948 23.1198C27.21 23.4045 26.7483 23.4045 26.4636 23.1198C26.1788 22.835 26.1788 22.3733 26.4636 22.0886L29.5938 18.9583H29.1667C23.1261 18.9583 18.2292 23.8552 18.2292 29.8958C18.2292 30.2985 17.9027 30.625 17.5 30.625C17.0973 30.625 16.7708 30.2985 16.7708 29.8958C16.7708 23.8552 11.874 18.9583 5.83334 18.9583H5.4062L8.53644 22.0886C8.8212 22.3733 8.8212 22.835 8.53644 23.1198C8.25168 23.4045 7.79 23.4045 7.50524 23.1198L3.13024 18.7448C2.84548 18.46 2.84548 17.9983 3.13024 17.7136L7.50524 13.3386C7.79 13.0538 8.25168 13.0538 8.53644 13.3386C8.8212 13.6233 8.8212 14.085 8.53644 14.3698L5.4062 17.5H5.83334C6.84503 17.5 7.82841 17.6212 8.76976 17.8499C8.87464 16.8465 9.3923 15.9245 10.209 15.312L13.8605 12.5799C12.5233 11.5109 11.6667 9.86592 11.6667 8.02083C11.6667 4.79917 14.2783 2.1875 17.5 2.1875C20.7217 2.1875 23.3333 4.79917 23.3333 8.02083C23.3333 9.86932 22.4736 11.517 21.1321 12.5858ZM19.7756 13.3937C19.0763 13.6902 18.3073 13.8542 17.5 13.8542C16.6884 13.8542 15.9156 13.6884 15.2134 13.389L11.0833 16.4792C10.5325 16.8923 10.2083 17.5406 10.2083 18.2292C10.2083 18.2507 10.2074 18.272 10.2056 18.2931C13.5921 19.5699 16.2725 22.2868 17.5 25.6971C18.7275 22.2868 21.4079 19.5699 24.7944 18.2931C24.7926 18.272 24.7917 18.2507 24.7917 18.2292C24.7917 17.5406 24.4675 16.8923 23.9185 16.4805L19.7756 13.3937ZM17.5 12.3958C19.9163 12.3958 21.875 10.4371 21.875 8.02083C21.875 5.60459 19.9163 3.64583 17.5 3.64583C15.0838 3.64583 13.125 5.60459 13.125 8.02083C13.125 10.4371 15.0838 12.3958 17.5 12.3958Z" fill="url(#paint0_linear_180_831463)"/>
<defs>
<linearGradient id="paint0_linear_180_831463" x1="17.5" y1="2.1875" x2="17.5" y2="30.625" gradientUnits="userSpaceOnUse">
<stop stop-color="#0033EA"/>
<stop offset="1" stop-color="#8A0074"/>
</linearGradient>
</defs>
</svg>
