<svg width="22" height="22" viewBox="0 0 22 22" fill="none" xmlns="http://www.w3.org/2000/svg">
<g clip-path="url(#clip0_987_227698)">
<path fill-rule="evenodd" clip-rule="evenodd" d="M6.09893 13.4237C5.68551 13.3813 5.28415 13.2981 4.89893 13.1784V14.2125C4.89893 14.5357 5.02733 14.8457 5.25589 15.0743C5.48445 15.3028 5.79444 15.4312 6.11768 15.4312H10.7187C10.7206 15.4313 10.7225 15.4318 10.7241 15.4327C10.7258 15.4337 10.7272 15.435 10.7282 15.4367L10.7281 15.4367L10.7309 15.4413L11.8756 17.3517L11.8755 17.3517L11.8791 17.3576C11.9889 17.536 12.1425 17.6834 12.3254 17.7857C12.5083 17.8879 12.7144 17.9416 12.9239 17.9416C13.1335 17.9416 13.3395 17.8879 13.5224 17.7857C13.7053 17.6834 13.859 17.536 13.9687 17.3576L13.9687 17.3576L13.9723 17.3517L15.117 15.4413L14.6022 15.1329L15.1197 15.4367C15.1207 15.435 15.122 15.4337 15.1237 15.4327L15.1258 15.4318C15.1269 15.4314 15.128 15.4313 15.1292 15.4312H19.7302C20.0534 15.4312 20.3634 15.3028 20.592 15.0743C20.8205 14.8457 20.9489 14.5357 20.9489 14.2125V4.3125C20.9489 3.98927 20.8205 3.67927 20.592 3.45071C20.3634 3.22215 20.0534 3.09375 19.7302 3.09375H11.3048C11.6368 3.45669 11.9262 3.85934 12.1648 4.29375H19.7302C19.7351 4.29375 19.7399 4.29573 19.7434 4.29924C19.747 4.30276 19.7489 4.30753 19.7489 4.3125V14.2125C19.7489 14.2175 19.7469 14.2222 19.7434 14.2258C19.7399 14.2293 19.7352 14.2312 19.7302 14.2312L15.1282 14.2312L15.1273 14.2313C14.9165 14.2316 14.7095 14.2869 14.5267 14.3918C14.3448 14.4961 14.193 14.6459 14.0864 14.8265L12.9459 16.73C12.9435 16.7334 12.9405 16.7362 12.9368 16.7383C12.9329 16.7405 12.9285 16.7416 12.9239 16.7416C12.9194 16.7416 12.915 16.7405 12.911 16.7383C12.9074 16.7362 12.9043 16.7334 12.902 16.73L11.7614 14.8264C11.6548 14.6459 11.5031 14.4961 11.3212 14.3918C11.1383 14.2869 10.9313 14.2316 10.7206 14.2312H10.7196H6.11768C6.1127 14.2312 6.10793 14.2293 6.10442 14.2258C6.1009 14.2222 6.09893 14.2175 6.09893 14.2125V13.4237ZM12.3805 9.81207C12.5681 9.39661 12.7111 8.95671 12.8035 8.49848C12.843 8.49227 12.8835 8.48904 12.9247 8.48904C13.3519 8.48904 13.6981 8.83532 13.6981 9.26248C13.6981 9.68963 13.3519 10.0359 12.9247 10.0359C12.7125 10.0359 12.5203 9.95045 12.3805 9.81207ZM17.4101 9.26248C17.4101 9.68963 17.0638 10.0359 16.6366 10.0359C16.2095 10.0359 15.8632 9.68963 15.8632 9.26248C15.8632 8.83532 16.2095 8.48904 16.6366 8.48904C17.0638 8.48904 17.4101 8.83532 17.4101 9.26248Z" fill="url(#paint0_linear_987_227698)"/>
<circle cx="6.7373" cy="7.2688" r="5.6875" fill="white" stroke="url(#paint1_linear_987_227698)"/>
<path fill-rule="evenodd" clip-rule="evenodd" d="M5.4502 6.03135C5.4502 5.39622 5.96507 4.88135 6.6002 4.88135C7.23532 4.88135 7.7502 5.39622 7.7502 6.03135C7.7502 6.66648 7.23532 7.18135 6.6002 7.18135C5.96507 7.18135 5.4502 6.66648 5.4502 6.03135ZM6.6002 3.88135C5.41278 3.88135 4.4502 4.84394 4.4502 6.03135C4.4502 6.64335 4.7059 7.19563 5.11631 7.58717C4.96648 7.67323 4.82158 7.77219 4.68268 7.88332C4.12084 8.33279 3.67726 8.96391 3.3853 9.69616C3.28303 9.95267 3.40805 10.2435 3.66456 10.3458C3.92106 10.4481 4.21191 10.323 4.31419 10.0665C4.55191 9.47032 4.90021 8.98992 5.30737 8.66418C5.7124 8.34016 6.15906 8.18135 6.59974 8.18135C7.04043 8.18135 7.48708 8.34016 7.89211 8.66418C8.29928 8.98992 8.64758 9.47032 8.8853 10.0665C8.98757 10.323 9.27842 10.4481 9.53493 10.3458C9.79143 10.2435 9.91646 9.95267 9.81419 9.69616C9.52222 8.96391 9.07865 8.33279 8.51681 7.88332C8.37808 7.77233 8.23337 7.67348 8.08374 7.5875C8.49435 7.19594 8.7502 6.64352 8.7502 6.03135C8.7502 4.84394 7.78761 3.88135 6.6002 3.88135Z" fill="url(#paint2_linear_987_227698)"/>
</g>
<defs>
<linearGradient id="paint0_linear_987_227698" x1="12.9239" y1="3.09375" x2="12.9239" y2="17.9416" gradientUnits="userSpaceOnUse">
<stop stop-color="#000AFF"/>
<stop offset="1" stop-color="#D274FF"/>
</linearGradient>
<linearGradient id="paint1_linear_987_227698" x1="6.7373" y1="1.0813" x2="6.7373" y2="13.4563" gradientUnits="userSpaceOnUse">
<stop stop-color="#000AFF"/>
<stop offset="1" stop-color="#D274FF"/>
</linearGradient>
<linearGradient id="paint2_linear_987_227698" x1="6.59974" y1="3.88135" x2="6.59974" y2="10.3815" gradientUnits="userSpaceOnUse">
<stop stop-color="#000AFF"/>
<stop offset="1" stop-color="#D274FF"/>
</linearGradient>
<clipPath id="clip0_987_227698">
<rect width="22" height="22" fill="white"/>
</clipPath>
</defs>
</svg>
