<svg width="32" height="31" viewBox="0 0 32 31" fill="none" xmlns="http://www.w3.org/2000/svg">
<path d="M19.8156 25.4852C18.6099 26.6909 16.9021 27.0885 15.3652 26.6781C15.5672 27.4344 15.9647 28.1494 16.5581 28.7427C18.3572 30.5418 21.274 30.5418 23.0731 28.7427C23.9727 27.8432 23.9726 26.3848 23.0731 25.4852C22.1736 24.5857 20.7151 24.5857 19.8156 25.4852Z" fill="#333333"/>
<path d="M22.627 24.0022C23.0613 24.167 23.4597 24.4233 23.798 24.7616C24.1419 25.1055 24.3937 25.5068 24.5552 25.9347L26.3799 24.1101L24.4495 22.1797C23.757 22.8722 23.1094 23.5198 22.627 24.0022Z" fill="#333333"/>
<path d="M30.602 17.9584C30.0689 17.4253 29.2047 17.4253 28.6716 17.9584C28.4707 18.1593 26.812 19.818 25.1738 21.4562L27.1042 23.3866L30.602 19.8888C31.1351 19.3557 31.1351 18.4914 30.602 17.9584Z" fill="#333333"/>
<g clip-path="url(#clip0_239_1674)">
<path d="M4.32031 9.36276C4.32031 9.17176 4.39619 8.98858 4.53125 8.85352C4.66631 8.71845 4.84949 8.64258 5.0405 8.64258H12.2424C12.4334 8.64258 12.6165 8.71845 12.7516 8.85352C12.8867 8.98858 12.9625 9.17176 12.9625 9.36276C12.9625 9.55377 12.8867 9.73695 12.7516 9.87201C12.6165 10.0071 12.4334 10.0829 12.2424 10.0829H5.0405C4.84949 10.0829 4.66631 10.0071 4.53125 9.87201C4.39619 9.73695 4.32031 9.55377 4.32031 9.36276ZM4.32031 13.6839C4.32031 13.4929 4.39619 13.3097 4.53125 13.1746C4.66631 13.0396 4.84949 12.9637 5.0405 12.9637H12.2424C12.4334 12.9637 12.6165 13.0396 12.7516 13.1746C12.8867 13.3097 12.9625 13.4929 12.9625 13.6839C12.9625 13.8749 12.8867 14.0581 12.7516 14.1931C12.6165 14.3282 12.4334 14.4041 12.2424 14.4041H5.0405C4.84949 14.4041 4.66631 14.3282 4.53125 14.1931C4.39619 14.0581 4.32031 13.8749 4.32031 13.6839ZM5.0405 17.2848C4.84949 17.2848 4.66631 17.3607 4.53125 17.4957C4.39619 17.6308 4.32031 17.814 4.32031 18.005C4.32031 18.196 4.39619 18.3792 4.53125 18.5142C4.66631 18.6493 4.84949 18.7252 5.0405 18.7252H12.2424C12.4334 18.7252 12.6165 18.6493 12.7516 18.5142C12.8867 18.3792 12.9625 18.196 12.9625 18.005C12.9625 17.814 12.8867 17.6308 12.7516 17.4957C12.6165 17.3607 12.4334 17.2848 12.2424 17.2848H5.0405Z" fill="#333333"/>
<path d="M2.88074 0C2.11672 0 1.38399 0.303506 0.84375 0.84375C0.303506 1.38399 0 2.11672 0 2.88074L0 20.1652C0 20.9292 0.303506 21.662 0.84375 22.2022C1.38399 22.7424 2.11672 23.0459 2.88074 23.0459H20.1652C20.9292 23.0459 21.662 22.7424 22.2022 22.2022C22.7424 21.662 23.0459 20.9292 23.0459 20.1652V2.88074C23.0459 2.11672 22.7424 1.38399 22.2022 0.84375C21.662 0.303506 20.9292 0 20.1652 0L2.88074 0ZM20.1652 1.44037C20.5472 1.44037 20.9136 1.59212 21.1837 1.86225C21.4538 2.13237 21.6056 2.49873 21.6056 2.88074V4.32112H1.44037V2.88074C1.44037 2.49873 1.59212 2.13237 1.86225 1.86225C2.13237 1.59212 2.49873 1.44037 2.88074 1.44037H20.1652ZM21.6056 5.76149V20.1652C21.6056 20.5472 21.4538 20.9136 21.1837 21.1837C20.9136 21.4538 20.5472 21.6056 20.1652 21.6056H17.2845V5.76149H21.6056ZM15.8441 5.76149V21.6056H2.88074C2.49873 21.6056 2.13237 21.4538 1.86225 21.1837C1.59212 20.9136 1.44037 20.5472 1.44037 20.1652V5.76149H15.8441Z" fill="#333333"/>
</g>
<defs>
<clipPath id="clip0_239_1674">
<rect width="23.0459" height="23.0459" fill="white"/>
</clipPath>
</defs>
</svg>
