<svg width="29" height="29" viewBox="0 0 29 29" fill="none" xmlns="http://www.w3.org/2000/svg">
<path d="M8.125 11.8477L17.1528 20.8754" stroke="#645DF6" stroke-width="1.2" stroke-linecap="round" stroke-linejoin="round"/>
<path d="M11.4896 20.8076L7.96875 24.3285" stroke="#645DF6" stroke-width="1.5" stroke-linecap="round" stroke-linejoin="round"/>
<path d="M8.32943 17.6479L4.80859 21.1688" stroke="#645DF6" stroke-width="1.5" stroke-linecap="round" stroke-linejoin="round"/>
<path d="M15.3576 10.5158L21.553 3.60957C22.0617 3.10078 22.7518 2.81494 23.4714 2.81494C24.1909 2.81494 24.881 3.10078 25.3898 3.60957C25.8985 4.11836 26.1844 4.80843 26.1844 5.52797C26.1844 6.24751 25.8985 6.93758 25.3898 7.44638L18.4835 13.6417C18.3925 13.7237 18.3192 13.8234 18.2679 13.9347C18.2167 14.0459 18.1886 14.1665 18.1855 14.2889C18.1823 14.4114 18.2041 14.5332 18.2495 14.647C18.2949 14.7608 18.363 14.8641 18.4497 14.9507L19.4878 15.9889C19.8228 16.3288 20.0105 16.7869 20.0105 17.2641C20.0105 17.7413 19.8228 18.1993 19.4878 18.5393L10.8325 27.1946L1.80469 18.1669L10.4601 9.51148C10.8 9.17655 11.258 8.9888 11.7352 8.9888C12.2124 8.9888 12.6705 9.17655 13.0104 9.51148L14.0486 10.5497C14.1352 10.6363 14.2386 10.7044 14.3523 10.7498C14.4661 10.7953 14.5879 10.817 14.7104 10.8139C14.8329 10.8107 14.9534 10.7826 15.0647 10.7314C15.1759 10.6802 15.2756 10.6068 15.3576 10.5158V10.5158Z" stroke="#645DF6" stroke-width="1.5" stroke-linecap="round" stroke-linejoin="round"/>
</svg>
