<svg width="22" height="22" viewBox="0 0 22 22" fill="none" xmlns="http://www.w3.org/2000/svg">
<g clip-path="url(#clip0_170_636)">
<path d="M11 22C17.0751 22 22 17.0751 22 11C22 4.92487 17.0751 0 11 0C4.92487 0 0 4.92487 0 11C0 17.0751 4.92487 22 11 22Z" fill="#B2B9C1"/>
<path d="M13.1522 13.135C14.4731 12.3858 15.3609 10.9653 15.3609 9.34131C15.3609 6.9291 13.4078 4.97595 10.9956 4.97595C8.58335 4.97595 6.63453 6.9291 6.63453 9.33698C6.63453 10.9653 7.52666 12.3815 8.84319 13.1307C6.10619 13.8279 3.88453 15.8071 2.85815 18.3968C4.87193 20.6098 7.77351 22 10.9999 22C14.2263 22 17.1278 20.6098 19.1416 18.3968C18.1152 15.8071 15.8936 13.8279 13.1522 13.135Z" fill="white"/>
<path d="M17.392 7.8949H16.7078C16.0625 5.34412 13.7499 3.44727 10.9999 3.44727C8.24989 3.44727 5.93729 5.33979 5.29201 7.8949H4.60776C4.3739 7.8949 4.18335 8.08545 4.18335 8.31931V10.3937C4.18335 10.6276 4.3739 10.8181 4.60776 10.8181H5.4739C5.73807 10.8181 5.94162 10.5799 5.89398 10.3244C5.80737 9.87404 5.77705 9.40199 5.81603 8.91695C6.0239 6.34884 8.13729 4.28742 10.7141 4.14884C13.7109 3.98427 16.2054 6.37916 16.2054 9.34136C16.2054 9.67916 16.1708 10.004 16.1101 10.3244C16.0582 10.5843 16.266 10.8225 16.5259 10.8225H16.6038C16.4219 11.3855 15.9585 12.4335 14.9452 12.9965C14.0963 13.4685 13.0267 13.5118 11.7664 13.1177C11.7015 12.8276 11.381 12.4855 11.0519 12.3252C10.6274 12.113 10.3633 12.2906 10.2117 12.5937C10.0601 12.8969 10.0818 13.213 10.5019 13.4252C10.8743 13.6114 11.4373 13.6504 11.6711 13.4469C12.2731 13.6331 12.8361 13.7284 13.3601 13.7284C14.0097 13.7284 14.5944 13.5855 15.1097 13.2953C16.3007 12.6327 16.79 11.4028 16.9633 10.8181H17.392C17.6259 10.8181 17.8164 10.6276 17.8164 10.3937V8.31931C17.8164 8.08545 17.6259 7.8949 17.392 7.8949Z" fill="#324A5E"/>
</g>
<defs>
<clipPath id="clip0_170_636">
<rect width="22" height="22" fill="white"/>
</clipPath>
</defs>
</svg>
