<svg width="37" height="34" viewBox="0 0 37 34" fill="none" xmlns="http://www.w3.org/2000/svg">
<path d="M15.791 16.8474L24.8188 25.8752" stroke="#6174A4" stroke-width="1.2" stroke-linecap="round" stroke-linejoin="round"/>
<path d="M19.1536 25.8075L15.6328 29.3283" stroke="#6174A4" stroke-width="1.5" stroke-linecap="round" stroke-linejoin="round"/>
<path d="M15.9935 22.6478L12.4727 26.1686" stroke="#6174A4" stroke-width="1.5" stroke-linecap="round" stroke-linejoin="round"/>
<path d="M23.0237 15.5158L29.219 8.60959C29.7278 8.10079 30.4178 7.81496 31.1374 7.81496C31.8569 7.81496 32.547 8.10079 33.0558 8.60959C33.5646 9.11838 33.8504 9.80845 33.8504 10.528C33.8504 11.2475 33.5646 11.9376 33.0558 12.4464L26.1495 18.6417C26.0585 18.7237 25.9852 18.8234 25.9339 18.9347C25.8827 19.0459 25.8546 19.1665 25.8515 19.2889C25.8483 19.4114 25.8701 19.5332 25.9155 19.647C25.9609 19.7608 26.029 19.8641 26.1157 19.9507L27.1539 20.9889C27.4888 21.3288 27.6765 21.7869 27.6765 22.2641C27.6765 22.7413 27.4888 23.1994 27.1539 23.5393L18.4985 32.1947L9.4707 23.1669L18.1261 14.5115C18.466 14.1766 18.9241 13.9888 19.4013 13.9888C19.8785 13.9888 20.3365 14.1766 20.6764 14.5115L21.7146 15.5497C21.8012 15.6363 21.9046 15.7044 22.0183 15.7498C22.1321 15.7953 22.2539 15.8171 22.3764 15.8139C22.4989 15.8107 22.6194 15.7827 22.7307 15.7314C22.842 15.6802 22.9416 15.6068 23.0237 15.5158V15.5158Z" stroke="#6174A4" stroke-width="1.5" stroke-linecap="round" stroke-linejoin="round"/>
<path d="M7.77865 13.6111C11.0003 13.6111 13.612 10.9994 13.612 7.77778C13.612 4.55611 11.0003 1.94444 7.77865 1.94444C4.55698 1.94444 1.94531 4.55611 1.94531 7.77778C1.94531 10.9994 4.55698 13.6111 7.77865 13.6111Z" stroke="#6174A4" stroke-linecap="round" stroke-linejoin="round"/>
<path d="M5.34766 7.77777H10.2088" stroke="#6174A4" stroke-linecap="round" stroke-linejoin="round"/>
<path d="M7.77734 5.34723V10.2083" stroke="#6174A4" stroke-linecap="round" stroke-linejoin="round"/>
</svg>
