<svg width="50" height="49" viewBox="0 0 50 49" fill="none" xmlns="http://www.w3.org/2000/svg">
<circle cx="11" cy="10" r="10" fill="#FDEBFF"/>
<path d="M16.4251 36.75H20.5085M30.7168 30.625V36.3417C30.7168 38.6285 30.7168 39.7721 30.2717 40.6455C29.8803 41.4138 29.2556 42.0385 28.4873 42.4299C27.6139 42.875 26.4703 42.875 24.1835 42.875H12.7501C10.4633 42.875 9.3198 42.875 8.44634 42.4299C7.678 42.0385 7.05333 41.4138 6.66186 40.6455C6.2168 39.7721 6.2168 38.6285 6.2168 36.3417V12.6583C6.2168 10.3715 6.2168 9.22801 6.66186 8.35454C7.05333 7.5862 7.678 6.96153 8.44634 6.57006C9.3198 6.125 10.4633 6.125 12.7501 6.125H18.4668M26.6335 14.3943C28.5953 14.7944 30.3961 15.7626 31.8119 17.1784C33.2276 18.5942 34.1958 20.395 34.596 22.3569M26.6335 22.3567H26.6539M26.6335 6.125C30.7797 6.58613 34.6456 8.44444 37.5954 11.3943C40.5454 14.3442 42.4035 18.2101 42.8647 22.3563" stroke="#645DF6" stroke-width="2" stroke-linecap="round" stroke-linejoin="round"/>
</svg>
