<svg width="28" height="28" viewBox="0 0 28 28" fill="none" xmlns="http://www.w3.org/2000/svg">
<path d="M12.8347 11.667H15.168V17.5003H12.8347V11.667ZM12.8335 18.667H15.1668V21.0003H12.8335V18.667Z" fill="#D21E1E"/>
<path d="M16.0628 4.90013C15.6568 4.13597 14.8658 3.66113 14.0001 3.66113C13.1344 3.66113 12.3434 4.13597 11.9374 4.9013L3.37644 21.0748C3.18647 21.43 3.09236 21.8285 3.10341 22.2312C3.11446 22.6338 3.23028 23.0266 3.43944 23.3708C3.64558 23.7166 3.93835 24.0026 4.28883 24.2007C4.6393 24.3987 5.03538 24.5019 5.43794 24.5001H22.5623C23.3883 24.5001 24.1361 24.0778 24.5619 23.3708C24.7708 23.0265 24.8864 22.6337 24.8974 22.2311C24.9085 21.8286 24.8146 21.4301 24.6249 21.0748L16.0628 4.90013ZM5.43794 22.1668L14.0001 5.9933L22.5681 22.1668H5.43794Z" fill="#D21E1E"/>
</svg>
