<svg width="4" height="17" viewBox="0 0 4 17" fill="none" xmlns="http://www.w3.org/2000/svg">
<g id="Group 1707480816">
<path id="Vector" d="M4 14.5469C4 13.5804 3.2165 12.7969 2.25 12.7969C1.2835 12.7969 0.5 13.5804 0.5 14.5469C0.5 15.5134 1.2835 16.2969 2.25 16.2969C3.2165 16.2969 4 15.5134 4 14.5469Z" fill="black"/>
<path id="Vector_2" d="M4 8.54688C4 7.58038 3.2165 6.79688 2.25 6.79688C1.2835 6.79688 0.5 7.58038 0.5 8.54688C0.5 9.51337 1.2835 10.2969 2.25 10.2969C3.2165 10.2969 4 9.51337 4 8.54688Z" fill="black"/>
<path id="Vector_3" d="M4 2.54688C4 1.58038 3.2165 0.796875 2.25 0.796875C1.2835 0.796875 0.5 1.58038 0.5 2.54688C0.5 3.51337 1.2835 4.29688 2.25 4.29688C3.2165 4.29688 4 3.51337 4 2.54688Z" fill="black"/>
</g>
</svg>
