<svg width="20" height="20" viewBox="0 0 20 20" fill="none" xmlns="http://www.w3.org/2000/svg">
<path d="M13.1711 2.46053H13.6711V1.46053H13.1711V2.46053ZM7.32895 1.46053H6.82895V2.46053H7.32895V1.46053ZM17.0658 1.46053H16.5658V2.46053H17.0658V1.46053ZM3.43421 2.46053H3.93421V1.46053H3.43421V2.46053ZM1.1446 5.35527C0.86846 5.35527 0.644602 5.57912 0.644602 5.85527C0.644602 6.13141 0.86846 6.35527 1.1446 6.35527V5.35527ZM19.3561 6.35527C19.6322 6.35527 19.8561 6.13141 19.8561 5.85527C19.8561 5.57912 19.6322 5.35527 19.3561 5.35527V6.35527ZM15.6184 0.5V0H14.6184V0.5H15.6184ZM14.6184 3.42105V3.92105H15.6184V3.42105H14.6184ZM5.88158 0.5V0H4.88158V0.5H5.88158ZM4.88158 3.42105V3.92105H5.88158V3.42105H4.88158ZM13.1711 1.46053H7.32895V2.46053H13.1711V1.46053ZM17.0658 2.46053H19.0132V1.46053H17.0658V2.46053ZM19.0132 2.46053C18.9464 2.46053 18.9298 2.42084 18.9495 2.44893C18.9698 2.47785 19 2.54745 19 2.65458H20C20 2.37303 19.9231 2.09561 19.7682 1.87467C19.6126 1.6529 19.3526 1.46053 19.0132 1.46053V2.46053ZM19 2.65458V17.9237H20V2.65458H19ZM19 17.9237C19 18.0307 18.9698 18.1004 18.9495 18.1293C18.9297 18.1574 18.9464 18.1177 19.0132 18.1177V19.1177C19.3526 19.1177 19.6126 18.9253 19.7682 18.7035C19.9231 18.4826 20 18.2052 20 17.9237H19ZM1.48684 18.1177C1.55364 18.1177 1.57026 18.1574 1.55053 18.1293C1.53022 18.1004 1.5 18.0307 1.5 17.9237H0.5C0.5 18.2052 0.57688 18.4826 0.73184 18.7035C0.887376 18.9253 1.14741 19.1177 1.48684 19.1177V18.1177ZM1.5 17.9237V2.65458H0.5V17.9237H1.5ZM1.5 2.65458C1.5 2.54745 1.53023 2.47785 1.55052 2.44893C1.57022 2.42084 1.5536 2.46053 1.48684 2.46053V1.46053C1.14745 1.46053 0.887408 1.6529 0.731848 1.87467C0.576872 2.0956 0.5 2.37303 0.5 2.65458H1.5ZM1.48684 2.46053H3.43421V1.46053H1.48684V2.46053ZM1.1446 6.35527H19.3561V5.35527H1.1446V6.35527ZM14.6184 0.5V3.42105H15.6184V0.5H14.6184ZM4.88158 0.5V3.42105H5.88158V0.5H4.88158ZM19.0132 18.1177H1.48684V19.1177H19.0132V18.1177Z" fill="url(#paint0_linear_987_197242)"/>
<defs>
<linearGradient id="paint0_linear_987_197242" x1="10.25" y1="0.5" x2="10.25" y2="18.6177" gradientUnits="userSpaceOnUse">
<stop stop-color="#0033EA"/>
<stop offset="1" stop-color="#8A0074"/>
</linearGradient>
</defs>
</svg>
