<svg width="20" height="21" viewBox="0 0 20 21" fill="none" xmlns="http://www.w3.org/2000/svg">
<path d="M16.25 3.625H3.75C3.40482 3.625 3.125 3.90482 3.125 4.25V16.75C3.125 17.0952 3.40482 17.375 3.75 17.375H16.25C16.5952 17.375 16.875 17.0952 16.875 16.75V4.25C16.875 3.90482 16.5952 3.625 16.25 3.625Z" stroke="#333333" stroke-width="1.2" stroke-linecap="round" stroke-linejoin="round"/>
<path d="M13.75 2.375V4.875" stroke="#333333" stroke-width="1.2" stroke-linecap="round" stroke-linejoin="round"/>
<path d="M6.25 2.375V4.875" stroke="#333333" stroke-width="1.2" stroke-linecap="round" stroke-linejoin="round"/>
<path d="M3.125 7.375H16.875" stroke="#333333" stroke-width="1.2" stroke-linecap="round" stroke-linejoin="round"/>
<path d="M7.1875 10.5H9.375L8.125 12.0625C8.33072 12.0621 8.53334 12.1126 8.7149 12.2093C8.89646 12.306 9.05134 12.4461 9.16579 12.617C9.28025 12.788 9.35075 12.9845 9.37104 13.1892C9.39133 13.3939 9.36079 13.6005 9.28211 13.7906C9.20343 13.9806 9.07906 14.1484 8.92002 14.2789C8.76098 14.4093 8.5722 14.4986 8.37041 14.5386C8.16863 14.5786 7.96008 14.5682 7.76327 14.5084C7.56646 14.4485 7.38748 14.341 7.24219 14.1953" stroke="#333333" stroke-width="1.2" stroke-linecap="round" stroke-linejoin="round"/>
<path d="M11.25 11.4375L12.5 10.5V14.5625" stroke="#333333" stroke-width="1.2" stroke-linecap="round" stroke-linejoin="round"/>
</svg>
