<svg width="33" height="31" viewBox="0 0 33 31" fill="none" xmlns="http://www.w3.org/2000/svg">
<path d="M30.5 15.0441C30.5 22.4824 24.2745 28.5882 16.5 28.5882C8.72549 28.5882 2.5 22.4824 2.5 15.0441C2.5 7.6058 8.72549 1.5 16.5 1.5C24.2745 1.5 30.5 7.6058 30.5 15.0441Z" fill="white" stroke="#D0D7E0" strokeWidth="3"/>
<path d="M13.8335 10.1653V20.3472H11.6808V12.2087H11.6212L9.28951 13.6703V11.7612L11.8101 10.1653H13.8335ZM16.2535 20.3472V18.796L19.8778 15.4402C20.186 15.1419 20.4445 14.8734 20.6533 14.6348C20.8654 14.3962 21.0262 14.1625 21.1356 13.9338C21.2449 13.7018 21.2996 13.4516 21.2996 13.1831C21.2996 12.8848 21.2317 12.6279 21.0958 12.4125C20.9599 12.1938 20.7743 12.0264 20.539 11.9104C20.3037 11.7911 20.0368 11.7314 19.7386 11.7314C19.427 11.7314 19.1552 11.7944 18.9232 11.9203C18.6912 12.0463 18.5122 12.2269 18.3863 12.4622C18.2603 12.6975 18.1974 12.9776 18.1974 13.3024H16.154C16.154 12.6362 16.3048 12.0579 16.6065 11.5673C16.9081 11.0768 17.3306 10.6973 17.8742 10.4288C18.4178 10.1604 19.0442 10.0261 19.7535 10.0261C20.4826 10.0261 21.1173 10.1554 21.6576 10.4139C22.2011 10.6691 22.6237 11.0238 22.9253 11.4778C23.227 11.9319 23.3778 12.4523 23.3778 13.0389C23.3778 13.4234 23.3015 13.8029 23.1491 14.1774C22.9999 14.552 22.7331 14.9679 22.3486 15.4253C21.9642 15.8794 21.4223 16.4246 20.7229 17.0609L19.2364 18.5176V18.5872H23.512V20.3472H16.2535Z" fill="#FC9700"/>
<path d="M16.5002 1.49988C20.8064 1.49988 29.5314 3.86792 30.5002 14.4999C30.6348 18.9299 27.8351 27.2112 17.5002 28.4999C12.6558 29.0368 2.96913 26.8871 2.00024 13.9999" stroke="#FF9900" strokeWidth="3" strokeLinecap="round"/>
</svg>
