<svg width="19" height="19" viewBox="0 0 19 19" fill="none" xmlns="http://www.w3.org/2000/svg">
<path fill-rule="evenodd" clip-rule="evenodd" d="M13.1546 4.91852C12.811 4.64777 12.3138 4.70952 12.0439 5.05389L6.45868 12.1852L3.78364 8.8626C3.50814 8.52297 3.01097 8.46756 2.67055 8.74226C2.32934 9.01697 2.2763 9.51572 2.54943 9.85535L5.84989 13.9546C6.0011 14.1414 6.22751 14.2499 6.46739 14.2499H6.47293C6.71359 14.2483 6.9416 14.1367 7.09043 13.9459L13.29 6.02922C13.5599 5.68564 13.4998 5.18768 13.1546 4.91852ZM17.1129 4.91852C16.7685 4.64777 16.2722 4.70952 16.0022 5.05389L10.417 12.1852L9.93884 11.5923L8.93738 12.8724L9.80822 13.9546C9.95943 14.1414 10.1858 14.2499 10.4257 14.2499H10.4313C10.6719 14.2483 10.8999 14.1367 11.0488 13.9459L17.2483 6.02922C17.5183 5.68564 17.4581 5.18768 17.1129 4.91852ZM7.90086 9.06019L6.89782 10.3395L6.50832 9.85582C6.2344 9.5154 6.28744 9.01665 6.62865 8.74194C6.96986 8.46802 7.46782 8.52265 7.74174 8.86307L7.90086 9.06019Z" fill="#231F20"/>
<mask id="mask0_163_14890" style="mask-type:alpha" maskUnits="userSpaceOnUse" x="2" y="4" width="16" height="11">
<path fill-rule="evenodd" clip-rule="evenodd" d="M13.1546 4.91852C12.811 4.64777 12.3138 4.70952 12.0439 5.05389L6.45868 12.1852L3.78364 8.8626C3.50814 8.52297 3.01097 8.46756 2.67055 8.74226C2.32934 9.01697 2.2763 9.51572 2.54943 9.85535L5.84989 13.9546C6.0011 14.1414 6.22751 14.2499 6.46739 14.2499H6.47293C6.71359 14.2483 6.9416 14.1367 7.09043 13.9459L13.29 6.02922C13.5599 5.68564 13.4998 5.18768 13.1546 4.91852ZM17.1129 4.91852C16.7685 4.64777 16.2722 4.70952 16.0022 5.05389L10.417 12.1852L9.93884 11.5923L8.93738 12.8724L9.80822 13.9546C9.95943 14.1414 10.1858 14.2499 10.4257 14.2499H10.4313C10.6719 14.2483 10.8999 14.1367 11.0488 13.9459L17.2483 6.02922C17.5183 5.68564 17.4581 5.18768 17.1129 4.91852ZM7.90086 9.06019L6.89782 10.3395L6.50832 9.85582C6.2344 9.5154 6.28744 9.01665 6.62865 8.74194C6.96986 8.46802 7.46782 8.52265 7.74174 8.86307L7.90086 9.06019Z" fill="white"/>
</mask>
<g mask="url(#mask0_163_14890)">
<rect width="19" height="19" fill="#9CA1AC"/>
</g>
</svg>
