<svg width="17" height="17" viewBox="0 0 17 17" fill="none" xmlns="http://www.w3.org/2000/svg">
<path d="M14.0078 4H3.00781" stroke="#555555" stroke-width="1.2" stroke-linecap="round" stroke-linejoin="round"/>
<path d="M7.00781 7V11" stroke="#555555" stroke-width="1.2" stroke-linecap="round" stroke-linejoin="round"/>
<path d="M10.0078 7V11" stroke="#555555" stroke-width="1.2" stroke-linecap="round" stroke-linejoin="round"/>
<path d="M13.0078 4V13.5C13.0078 13.6326 12.9551 13.7598 12.8614 13.8536C12.7676 13.9473 12.6404 14 12.5078 14H4.50781C4.3752 14 4.24803 13.9473 4.15426 13.8536C4.06049 13.7598 4.00781 13.6326 4.00781 13.5V4" stroke="#555555" stroke-width="1.2" stroke-linecap="round" stroke-linejoin="round"/>
<path d="M11.0078 4V3C11.0078 2.73478 10.9025 2.48043 10.7149 2.29289C10.5274 2.10536 10.273 2 10.0078 2H7.00781C6.7426 2 6.48824 2.10536 6.30071 2.29289C6.11317 2.48043 6.00781 2.73478 6.00781 3V4" stroke="#555555" stroke-width="1.2" stroke-linecap="round" stroke-linejoin="round"/>
</svg>
