<svg width="18" height="18" viewBox="0 0 18 18" fill="none" xmlns="http://www.w3.org/2000/svg">
<path d="M5.44219 14.1961L3.17109 16.0945C3.08914 16.1623 2.98965 16.2055 2.88415 16.2191C2.77864 16.2326 2.67146 16.216 2.57504 16.1711C2.47861 16.1262 2.39689 16.0549 2.33936 15.9654C2.28183 15.8759 2.25084 15.772 2.25 15.6656V4.5C2.25 4.35082 2.30926 4.20774 2.41475 4.10225C2.52024 3.99676 2.66332 3.9375 2.8125 3.9375H15.1875C15.3367 3.9375 15.4798 3.99676 15.5852 4.10225C15.6907 4.20774 15.75 4.35082 15.75 4.5V13.5C15.75 13.6492 15.6907 13.7923 15.5852 13.8977C15.4798 14.0032 15.3367 14.0625 15.1875 14.0625H5.80078C5.66909 14.0625 5.5418 14.11 5.44219 14.1961V14.1961Z" stroke="#333333" stroke-width="1.2" stroke-linecap="round" stroke-linejoin="round"/>
<path d="M9 9.70312C9.38833 9.70312 9.70312 9.38833 9.70312 9C9.70312 8.61167 9.38833 8.29688 9 8.29688C8.61167 8.29688 8.29688 8.61167 8.29688 9C8.29688 9.38833 8.61167 9.70312 9 9.70312Z" fill="#333333"/>
<path d="M12.375 9.70312C12.7633 9.70312 13.0781 9.38833 13.0781 9C13.0781 8.61167 12.7633 8.29688 12.375 8.29688C11.9867 8.29688 11.6719 8.61167 11.6719 9C11.6719 9.38833 11.9867 9.70312 12.375 9.70312Z" fill="#333333"/>
<path d="M5.625 9.70312C6.01333 9.70312 6.32812 9.38833 6.32812 9C6.32812 8.61167 6.01333 8.29688 5.625 8.29688C5.23667 8.29688 4.92188 8.61167 4.92188 9C4.92188 9.38833 5.23667 9.70312 5.625 9.70312Z" fill="#333333"/>
</svg>
