<svg width="20" height="21" viewBox="0 0 20 21" fill="none" xmlns="http://www.w3.org/2000/svg">
<g id="Group 1707481000">
<g id="Group 1707481003">
<g id="Group">
<path id="Vector" d="M10.7957 18.9355C10.6616 18.9355 10.5335 18.8982 10.4177 18.8297C10.2408 18.724 10.1189 18.5561 10.0701 18.357C10.0213 18.158 10.0457 17.9527 10.1493 17.7724C10.253 17.592 10.4177 17.4676 10.6128 17.4178C10.8079 17.3681 11.0092 17.393 11.186 17.4987C11.3629 17.6044 11.4848 17.7724 11.5336 17.9714C11.5824 18.1704 11.558 18.3757 11.4543 18.5561C11.3507 18.7364 11.186 18.8608 10.9909 18.9106C10.9299 18.9293 10.8628 18.9355 10.8018 18.9355H10.7957ZM10.7957 17.8657C10.7957 17.8657 10.747 17.8657 10.7226 17.8781C10.6494 17.8968 10.5823 17.9465 10.5457 18.0149C10.5091 18.0834 10.4969 18.1642 10.5152 18.2389C10.5335 18.3135 10.5823 18.3819 10.6494 18.4192C10.7165 18.4566 10.7957 18.469 10.8689 18.4503C10.9421 18.4317 11.0092 18.3819 11.0458 18.3135C11.0824 18.2451 11.0945 18.1642 11.0763 18.0896C11.058 18.0149 11.0092 17.9465 10.9421 17.9092C10.8994 17.8843 10.8445 17.8657 10.7957 17.8657Z" fill="#950019"/>
<path id="Vector_2" d="M18.2885 8.47387C18.5385 8.47387 18.7276 8.23751 18.6727 7.98872C17.819 4.1884 14.4711 1.33972 10.4891 1.33972C6.50701 1.33972 3.15917 4.18218 2.30544 7.98872C2.25056 8.23751 2.4396 8.47387 2.68962 8.47387C2.87256 8.47387 3.03111 8.34325 3.0738 8.16288C3.84825 4.71709 6.879 2.14208 10.4952 2.14208C14.1113 2.14208 17.136 4.71709 17.9165 8.16288C17.9592 8.34325 18.1178 8.47387 18.3007 8.47387H18.2885Z" fill="#FF8B00"/>
<path id="Vector_3" d="M17.3332 13.3067C16.4002 15.2535 14.6927 16.74 12.6194 17.3558C12.4608 17.4055 12.3145 17.5797 12.3145 17.7539C12.3145 18.0151 12.5645 18.2079 12.8084 18.1333C15.1074 17.4553 17.0039 15.8008 18.0406 13.6425C18.1625 13.3813 17.9796 13.0828 17.6991 13.0828H17.6808C17.5344 13.0828 17.4003 13.1698 17.3332 13.3067Z" fill="#FF0033"/>
<g id="Group_2">
<path id="Vector_4" d="M3.37292 9.1829C3.37292 8.9871 3.21729 8.82837 3.02532 8.82837C2.83336 8.82837 2.67773 8.9871 2.67773 9.1829V12.1373C2.67773 12.3331 2.83336 12.4918 3.02532 12.4918C3.21729 12.4918 3.37292 12.3331 3.37292 12.1373V9.1829Z" fill="#FFC251"/>
<path id="Vector_5" d="M2.43444 10.1282C2.43444 9.93241 2.27882 9.77368 2.08685 9.77368C1.89488 9.77368 1.73926 9.93241 1.73926 10.1282V11.31C1.73926 11.5058 1.89488 11.6645 2.08685 11.6645C2.27882 11.6645 2.43444 11.5058 2.43444 11.31V10.1282Z" fill="#FFC251"/>
</g>
<g id="Group_3">
<path id="Vector_6" d="M18.1913 9.1829C18.1913 8.9871 18.0357 8.82837 17.8437 8.82837C17.6517 8.82837 17.4961 8.9871 17.4961 9.1829V12.1373C17.4961 12.3331 17.6517 12.4918 17.8437 12.4918C18.0357 12.4918 18.1913 12.3331 18.1913 12.1373V9.1829Z" fill="#FF4C2A"/>
<path id="Vector_7" d="M19.1307 10.1282C19.1307 9.93241 18.9751 9.77368 18.7831 9.77368C18.5912 9.77368 18.4355 9.93241 18.4355 10.1282V11.31C18.4355 11.5058 18.5912 11.6645 18.7831 11.6645C18.9751 11.6645 19.1307 11.5058 19.1307 11.31V10.1282Z" fill="#FF4C2A"/>
</g>
</g>
<path id="Vector_8" d="M10.4766 6.0979C8.54963 6.0979 6.98242 7.6964 6.98242 9.66186C6.98242 11.6273 8.54963 13.2258 10.4766 13.2258C11.1413 13.2258 11.7633 13.033 12.2939 12.7034L13.9586 13.4373H13.9708V9.66808C13.9708 7.70262 12.4036 6.10412 10.4766 6.10412V6.0979ZM12.2207 11.8015L12.1963 11.8575L12.1475 11.8326C11.684 12.2058 11.1047 12.4235 10.4766 12.4235C8.98259 12.4235 7.76907 11.1857 7.76907 9.66186C7.76907 8.13801 8.98259 6.90026 10.4766 6.90026C11.8914 6.90026 13.0561 8.01361 13.1781 9.43173V9.892C13.1781 9.92932 13.172 9.96664 13.1659 10.004L13.1781 9.99152V12.2182L12.2207 11.8015Z" fill="#CC0033"/>
</g>
</g>
</svg>
