<svg width="17" height="17" viewBox="0 0 17 17" fill="none" xmlns="http://www.w3.org/2000/svg">
<g clip-path="url(#clip0_77_18725)">
<path d="M4.35614 3.52624C3.91644 3.52624 3.49474 3.35157 3.18383 3.04065C2.87291 2.72974 2.69824 2.30804 2.69824 1.86834C2.69824 1.42864 2.87291 1.00695 3.18383 0.696035C3.49474 0.38512 3.91644 0.210449 4.35614 0.210449C4.79584 0.210449 5.21753 0.38512 5.52845 0.696035C5.83936 1.00695 6.01403 1.42864 6.01403 1.86834C6.01403 2.30804 5.83936 2.72974 5.52845 3.04065C5.21753 3.35157 4.79584 3.52624 4.35614 3.52624ZM8.50087 3.52624C8.06117 3.52624 7.63948 3.35157 7.32856 3.04065C7.01765 2.72974 6.84298 2.30804 6.84298 1.86834C6.84298 1.42864 7.01765 1.00695 7.32856 0.696035C7.63948 0.38512 8.06117 0.210449 8.50087 0.210449C8.94057 0.210449 9.36227 0.38512 9.67318 0.696035C9.9841 1.00695 10.1588 1.42864 10.1588 1.86834C10.1588 2.30804 9.9841 2.72974 9.67318 3.04065C9.36227 3.35157 8.94057 3.52624 8.50087 3.52624ZM12.6456 3.52624C12.2059 3.52624 11.7842 3.35157 11.4733 3.04065C11.1624 2.72974 10.9877 2.30804 10.9877 1.86834C10.9877 1.42864 11.1624 1.00695 11.4733 0.696035C11.7842 0.38512 12.2059 0.210449 12.6456 0.210449C13.0853 0.210449 13.507 0.38512 13.8179 0.696035C14.1288 1.00695 14.3035 1.42864 14.3035 1.86834C14.3035 2.30804 14.1288 2.72974 13.8179 3.04065C13.507 3.35157 13.0853 3.52624 12.6456 3.52624ZM4.35614 7.67098C3.91644 7.67098 3.49474 7.4963 3.18383 7.18539C2.87291 6.87447 2.69824 6.45278 2.69824 6.01308C2.69824 5.57338 2.87291 5.15169 3.18383 4.84077C3.49474 4.52986 3.91644 4.35519 4.35614 4.35519C4.79584 4.35519 5.21753 4.52986 5.52845 4.84077C5.83936 5.15169 6.01403 5.57338 6.01403 6.01308C6.01403 6.45278 5.83936 6.87447 5.52845 7.18539C5.21753 7.4963 4.79584 7.67098 4.35614 7.67098ZM8.50087 7.67098C8.06117 7.67098 7.63948 7.4963 7.32856 7.18539C7.01765 6.87447 6.84298 6.45278 6.84298 6.01308C6.84298 5.57338 7.01765 5.15169 7.32856 4.84077C7.63948 4.52986 8.06117 4.35519 8.50087 4.35519C8.94057 4.35519 9.36227 4.52986 9.67318 4.84077C9.9841 5.15169 10.1588 5.57338 10.1588 6.01308C10.1588 6.45278 9.9841 6.87447 9.67318 7.18539C9.36227 7.4963 8.94057 7.67098 8.50087 7.67098ZM12.6456 7.67098C12.2059 7.67098 11.7842 7.4963 11.4733 7.18539C11.1624 6.87447 10.9877 6.45278 10.9877 6.01308C10.9877 5.57338 11.1624 5.15169 11.4733 4.84077C11.7842 4.52986 12.2059 4.35519 12.6456 4.35519C13.0853 4.35519 13.507 4.52986 13.8179 4.84077C14.1288 5.15169 14.3035 5.57338 14.3035 6.01308C14.3035 6.45278 14.1288 6.87447 13.8179 7.18539C13.507 7.4963 13.0853 7.67098 12.6456 7.67098ZM4.35614 11.8157C3.91644 11.8157 3.49474 11.641 3.18383 11.3301C2.87291 11.0192 2.69824 10.5975 2.69824 10.1578C2.69824 9.71812 2.87291 9.29642 3.18383 8.98551C3.49474 8.67459 3.91644 8.49992 4.35614 8.49992C4.79584 8.49992 5.21753 8.67459 5.52845 8.98551C5.83936 9.29642 6.01403 9.71812 6.01403 10.1578C6.01403 10.5975 5.83936 11.0192 5.52845 11.3301C5.21753 11.641 4.79584 11.8157 4.35614 11.8157ZM8.50087 11.8157C8.06117 11.8157 7.63948 11.641 7.32856 11.3301C7.01765 11.0192 6.84298 10.5975 6.84298 10.1578C6.84298 9.71812 7.01765 9.29642 7.32856 8.98551C7.63948 8.67459 8.06117 8.49992 8.50087 8.49992C8.94057 8.49992 9.36227 8.67459 9.67318 8.98551C9.9841 9.29642 10.1588 9.71812 10.1588 10.1578C10.1588 10.5975 9.9841 11.0192 9.67318 11.3301C9.36227 11.641 8.94057 11.8157 8.50087 11.8157ZM8.50087 16.7894C8.06117 16.7894 7.63948 16.6147 7.32856 16.3038C7.01765 15.9929 6.84298 15.5712 6.84298 15.1315C6.84298 14.6918 7.01765 14.2701 7.32856 13.9592C7.63948 13.6483 8.06117 13.4736 8.50087 13.4736C8.94057 13.4736 9.36227 13.6483 9.67318 13.9592C9.9841 14.2701 10.1588 14.6918 10.1588 15.1315C10.1588 15.5712 9.9841 15.9929 9.67318 16.3038C9.36227 16.6147 8.94057 16.7894 8.50087 16.7894ZM12.6456 11.8157C12.2059 11.8157 11.7842 11.641 11.4733 11.3301C11.1624 11.0192 10.9877 10.5975 10.9877 10.1578C10.9877 9.71812 11.1624 9.29642 11.4733 8.98551C11.7842 8.67459 12.2059 8.49992 12.6456 8.49992C13.0853 8.49992 13.507 8.67459 13.8179 8.98551C14.1288 9.29642 14.3035 9.71812 14.3035 10.1578C14.3035 10.5975 14.1288 11.0192 13.8179 11.3301C13.507 11.641 13.0853 11.8157 12.6456 11.8157Z" fill="white"/>
</g>
<defs>
<clipPath id="clip0_77_18725">
<rect width="16.5789" height="16.5789" fill="white" transform="translate(0.211426 0.210449)"/>
</clipPath>
</defs>
</svg>
