<svg width="16" height="16" viewBox="0 0 16 16" fill="none" xmlns="http://www.w3.org/2000/svg">
<path d="M3.9999 3.2C3.57556 3.2 3.16859 3.03143 2.86853 2.73137C2.56847 2.43131 2.3999 2.02435 2.3999 1.6C2.3999 1.17565 2.56847 0.768687 2.86853 0.468629C3.16859 0.168571 3.57556 0 3.9999 0C4.42425 0 4.83122 0.168571 5.13127 0.468629C5.43133 0.768687 5.5999 1.17565 5.5999 1.6C5.5999 2.02435 5.43133 2.43131 5.13127 2.73137C4.83122 3.03143 4.42425 3.2 3.9999 3.2ZM7.9999 3.2C7.57556 3.2 7.16859 3.03143 6.86853 2.73137C6.56847 2.43131 6.3999 2.02435 6.3999 1.6C6.3999 1.17565 6.56847 0.768687 6.86853 0.468629C7.16859 0.168571 7.57556 0 7.9999 0C8.42425 0 8.83121 0.168571 9.13127 0.468629C9.43133 0.768687 9.5999 1.17565 9.5999 1.6C9.5999 2.02435 9.43133 2.43131 9.13127 2.73137C8.83121 3.03143 8.42425 3.2 7.9999 3.2ZM11.9999 3.2C11.5756 3.2 11.1686 3.03143 10.8685 2.73137C10.5685 2.43131 10.3999 2.02435 10.3999 1.6C10.3999 1.17565 10.5685 0.768687 10.8685 0.468629C11.1686 0.168571 11.5756 0 11.9999 0C12.4242 0 12.8312 0.168571 13.1313 0.468629C13.4313 0.768687 13.5999 1.17565 13.5999 1.6C13.5999 2.02435 13.4313 2.43131 13.1313 2.73137C12.8312 3.03143 12.4242 3.2 11.9999 3.2ZM3.9999 7.2C3.57556 7.2 3.16859 7.03143 2.86853 6.73137C2.56847 6.43131 2.3999 6.02435 2.3999 5.6C2.3999 5.17565 2.56847 4.76869 2.86853 4.46863C3.16859 4.16857 3.57556 4 3.9999 4C4.42425 4 4.83122 4.16857 5.13127 4.46863C5.43133 4.76869 5.5999 5.17565 5.5999 5.6C5.5999 6.02435 5.43133 6.43131 5.13127 6.73137C4.83122 7.03143 4.42425 7.2 3.9999 7.2ZM7.9999 7.2C7.57556 7.2 7.16859 7.03143 6.86853 6.73137C6.56847 6.43131 6.3999 6.02435 6.3999 5.6C6.3999 5.17565 6.56847 4.76869 6.86853 4.46863C7.16859 4.16857 7.57556 4 7.9999 4C8.42425 4 8.83121 4.16857 9.13127 4.46863C9.43133 4.76869 9.5999 5.17565 9.5999 5.6C9.5999 6.02435 9.43133 6.43131 9.13127 6.73137C8.83121 7.03143 8.42425 7.2 7.9999 7.2ZM11.9999 7.2C11.5756 7.2 11.1686 7.03143 10.8685 6.73137C10.5685 6.43131 10.3999 6.02435 10.3999 5.6C10.3999 5.17565 10.5685 4.76869 10.8685 4.46863C11.1686 4.16857 11.5756 4 11.9999 4C12.4242 4 12.8312 4.16857 13.1313 4.46863C13.4313 4.76869 13.5999 5.17565 13.5999 5.6C13.5999 6.02435 13.4313 6.43131 13.1313 6.73137C12.8312 7.03143 12.4242 7.2 11.9999 7.2ZM3.9999 11.2C3.57556 11.2 3.16859 11.0314 2.86853 10.7314C2.56847 10.4313 2.3999 10.0243 2.3999 9.6C2.3999 9.17565 2.56847 8.76869 2.86853 8.46863C3.16859 8.16857 3.57556 8 3.9999 8C4.42425 8 4.83122 8.16857 5.13127 8.46863C5.43133 8.76869 5.5999 9.17565 5.5999 9.6C5.5999 10.0243 5.43133 10.4313 5.13127 10.7314C4.83122 11.0314 4.42425 11.2 3.9999 11.2ZM7.9999 11.2C7.57556 11.2 7.16859 11.0314 6.86853 10.7314C6.56847 10.4313 6.3999 10.0243 6.3999 9.6C6.3999 9.17565 6.56847 8.76869 6.86853 8.46863C7.16859 8.16857 7.57556 8 7.9999 8C8.42425 8 8.83121 8.16857 9.13127 8.46863C9.43133 8.76869 9.5999 9.17565 9.5999 9.6C9.5999 10.0243 9.43133 10.4313 9.13127 10.7314C8.83121 11.0314 8.42425 11.2 7.9999 11.2ZM7.9999 16C7.57556 16 7.16859 15.8314 6.86853 15.5314C6.56847 15.2313 6.3999 14.8243 6.3999 14.4C6.3999 13.9757 6.56847 13.5687 6.86853 13.2686C7.16859 12.9686 7.57556 12.8 7.9999 12.8C8.42425 12.8 8.83121 12.9686 9.13127 13.2686C9.43133 13.5687 9.5999 13.9757 9.5999 14.4C9.5999 14.8243 9.43133 15.2313 9.13127 15.5314C8.83121 15.8314 8.42425 16 7.9999 16ZM11.9999 11.2C11.5756 11.2 11.1686 11.0314 10.8685 10.7314C10.5685 10.4313 10.3999 10.0243 10.3999 9.6C10.3999 9.17565 10.5685 8.76869 10.8685 8.46863C11.1686 8.16857 11.5756 8 11.9999 8C12.4242 8 12.8312 8.16857 13.1313 8.46863C13.4313 8.76869 13.5999 9.17565 13.5999 9.6C13.5999 10.0243 13.4313 10.4313 13.1313 10.7314C12.8312 11.0314 12.4242 11.2 11.9999 11.2Z" fill="#333333"/>
</svg>
