<svg width="22" height="17" viewBox="0 0 22 17" fill="none" xmlns="http://www.w3.org/2000/svg">
<path d="M18.3333 8.35126V3.14506L16.6774 0.660885C16.5521 0.485842 16.3883 0.341909 16.1986 0.240191C16.009 0.138473 15.7984 0.0816898 15.5833 0.0742188H2.75C2.53501 0.081531 2.32456 0.138101 2.13488 0.239576C1.9452 0.341051 1.78136 0.484725 1.65596 0.659514L0 3.14506V14.2826C0.000727768 14.8901 0.242403 15.4726 0.672016 15.9022C1.10163 16.3318 1.6841 16.5735 2.29167 16.5742H12.8333V15.6576H2.29167C1.92699 15.6576 1.57726 15.5127 1.31939 15.2548C1.06153 14.997 0.916667 14.6472 0.916667 14.2826V3.74089H5.5V6.03255C5.5 6.39722 5.64487 6.74695 5.90273 7.00482C6.1606 7.26268 6.51033 7.40755 6.875 7.40755H11.4583C11.823 7.40755 12.1727 7.26268 12.4306 7.00482C12.6885 6.74695 12.8333 6.39722 12.8333 6.03255V3.74089H17.4167V8.35126C16.3689 8.4684 15.4058 8.98228 14.7251 9.78735C14.0443 10.5924 13.6977 11.6276 13.7564 12.6802C13.8151 13.7329 14.2745 14.7231 15.0405 15.4476C15.8064 16.172 16.8207 16.5757 17.875 16.5757C18.9293 16.5757 19.9436 16.172 20.7095 15.4476C21.4755 14.7231 21.9349 13.7329 21.9936 12.6802C22.0523 11.6276 21.7057 10.5924 21.0249 9.78735C20.3442 8.98228 19.3811 8.4684 18.3333 8.35126ZM15.9147 1.16826L17.0188 2.82422H12.6583L11.7416 0.990885H15.5833C15.7121 1.00652 15.8303 1.06979 15.9147 1.16826ZM11.6334 2.82422H6.69992L7.61659 0.990885H10.7167L11.6334 2.82422ZM2.42092 1.16826C2.50476 1.07029 2.62208 1.00706 2.75 0.990885H6.59174L5.67508 2.82422H1.3145L2.42092 1.16826ZM11.9167 6.03255C11.9167 6.15411 11.8684 6.27068 11.7824 6.35664C11.6965 6.44259 11.5799 6.49088 11.4583 6.49088H6.875C6.75344 6.49088 6.63687 6.44259 6.55092 6.35664C6.46496 6.27068 6.41667 6.15411 6.41667 6.03255V3.74089H11.9167V6.03255ZM17.875 15.6576C17.2405 15.6576 16.6202 15.4694 16.0926 15.1168C15.5649 14.7643 15.1537 14.2632 14.9109 13.677C14.6681 13.0907 14.6045 12.4457 14.7283 11.8233C14.8521 11.2009 15.1577 10.6293 15.6064 10.1806C16.0551 9.73189 16.6267 9.42632 17.2491 9.30253C17.8714 9.17873 18.5165 9.24227 19.1028 9.4851C19.689 9.72793 20.1901 10.1392 20.5426 10.6668C20.8952 11.1944 21.0833 11.8147 21.0833 12.4492C21.0824 13.2998 20.744 14.1153 20.1426 14.7168C19.5411 15.3183 18.7256 15.6566 17.875 15.6576Z" fill="url(#paint0_linear_1625_79323)"/>
<path d="M5.5 9.24072H2.75V10.1574H5.5V9.24072Z" fill="url(#paint1_linear_1625_79323)"/>
<path d="M6.41667 11.0742H2.75V11.9909H6.41667V11.0742Z" fill="url(#paint2_linear_1625_79323)"/>
<path d="M7.33333 12.9077H2.75V13.8244H7.33333V12.9077Z" fill="url(#paint3_linear_1625_79323)"/>
<path d="M16.041 11.5327H19.7077L17.8743 14.2827L16.041 11.5327Z" fill="#645DF6"/>
<defs>
<linearGradient id="paint0_linear_1625_79323" x1="11" y1="0.0742187" x2="11" y2="16.5757" gradientUnits="userSpaceOnUse">
<stop stop-color="#0033EA"/>
<stop offset="1" stop-color="#8A0074"/>
</linearGradient>
<linearGradient id="paint1_linear_1625_79323" x1="4.125" y1="9.24072" x2="4.125" y2="10.1574" gradientUnits="userSpaceOnUse">
<stop stop-color="#0033EA"/>
<stop offset="1" stop-color="#8A0074"/>
</linearGradient>
<linearGradient id="paint2_linear_1625_79323" x1="4.58333" y1="11.0742" x2="4.58333" y2="11.9909" gradientUnits="userSpaceOnUse">
<stop stop-color="#0033EA"/>
<stop offset="1" stop-color="#8A0074"/>
</linearGradient>
<linearGradient id="paint3_linear_1625_79323" x1="5.04167" y1="12.9077" x2="5.04167" y2="13.8244" gradientUnits="userSpaceOnUse">
<stop stop-color="#0033EA"/>
<stop offset="1" stop-color="#8A0074"/>
</linearGradient>
</defs>
</svg>
