<svg width="18" height="18" viewBox="0 0 18 18" fill="none" xmlns="http://www.w3.org/2000/svg">
<path d="M3.375 2.8125L14.625 15.1875" stroke="#333333" stroke-width="1.2" stroke-linecap="round" stroke-linejoin="round"/>
<path d="M10.8914 11.0814C10.3753 11.5543 9.69998 11.8154 9.00001 11.8127C8.43235 11.8126 7.87799 11.6408 7.40982 11.3198C6.94165 10.9988 6.58157 10.5436 6.37693 10.0141C6.17228 9.48463 6.13265 8.90561 6.26324 8.35318C6.39383 7.80074 6.68853 7.30076 7.1086 6.91895" stroke="#333333" stroke-width="1.2" stroke-linecap="round" stroke-linejoin="round"/>
<path d="M5.20312 4.82324C2.33438 6.27168 1.125 8.9998 1.125 8.9998C1.125 8.9998 3.375 14.0623 9 14.0623C10.3181 14.073 11.6197 13.7693 12.7969 13.1764" stroke="#333333" stroke-width="1.2" stroke-linecap="round" stroke-linejoin="round"/>
<path d="M14.6672 11.8899C16.2 10.5188 16.875 9.00002 16.875 9.00002C16.875 9.00002 14.625 3.93752 8.99999 3.93752C8.51235 3.93655 8.02548 3.97654 7.54453 4.05705" stroke="#333333" stroke-width="1.2" stroke-linecap="round" stroke-linejoin="round"/>
<path d="M9.52734 6.23682C10.1255 6.35014 10.6705 6.65494 11.0802 7.10521C11.4898 7.55548 11.7419 8.12678 11.7984 8.73291" stroke="#333333" stroke-width="1.2" stroke-linecap="round" stroke-linejoin="round"/>
</svg>
