<svg width="13" height="13" viewBox="0 0 13 13" fill="none" xmlns="http://www.w3.org/2000/svg">
<path d="M7.8658 8.00332C7.49303 8.34481 7.00532 8.53337 6.49978 8.53144C6.08981 8.5314 5.68944 8.4073 5.35132 8.17546C5.01319 7.94361 4.75314 7.61488 4.60534 7.23247C4.45754 6.85006 4.42892 6.43188 4.52323 6.0329C4.61755 5.63392 4.83039 5.27282 5.13377 4.99707" stroke="white" stroke-linecap="round" stroke-linejoin="round"/>
<path d="M3.75781 3.4834C1.68594 4.52949 0.8125 6.4998 0.8125 6.4998C0.8125 6.4998 2.4375 10.1561 6.5 10.1561C7.45193 10.1638 8.39199 9.94447 9.24219 9.51621" stroke="white" stroke-linecap="round" stroke-linejoin="round"/>
<path d="M10.5934 8.58712C11.7004 7.59689 12.1879 6.50001 12.1879 6.50001C12.1879 6.50001 10.5629 2.84376 6.50039 2.84376C6.1482 2.84307 5.79658 2.87194 5.44922 2.93009" stroke="white" stroke-linecap="round" stroke-linejoin="round"/>
<path d="M6.88086 4.50439C7.31283 4.58624 7.70646 4.80637 8.00234 5.13157C8.29822 5.45676 8.4803 5.86937 8.52109 6.30713" stroke="white" stroke-width="1.5" stroke-linecap="round" stroke-linejoin="round"/>
</svg>
