<svg width="16" height="16" viewBox="0 0 16 16" fill="none" xmlns="http://www.w3.org/2000/svg">
<path d="M9.71188 6.33089C8.596 5.94523 7.38262 5.94743 6.26814 6.33714C6.18679 6.36542 6.11413 6.41422 6.05719 6.47882C6.00026 6.54343 5.96097 6.62164 5.94314 6.70589L5.58064 8.54964C5.56351 8.63141 5.52665 8.70776 5.47328 8.77203C5.4199 8.8363 5.35162 8.88655 5.27439 8.91839L2.31814 10.0996C2.21758 10.1413 2.10607 10.1486 2.00095 10.1203C1.89583 10.0921 1.803 10.0299 1.73689 9.94339C1.2903 9.36634 1.06933 8.64632 1.11535 7.91809C1.16137 7.18987 1.47121 6.50339 1.98689 5.98714C3.58193 4.39334 5.74453 3.49805 7.99939 3.49805C10.2542 3.49805 12.4168 4.39334 14.0119 5.98714C14.5276 6.50339 14.8374 7.18987 14.8834 7.91809C14.9294 8.64632 14.7085 9.36634 14.2619 9.94339C14.1958 10.0299 14.1029 10.0921 13.9978 10.1203C13.8927 10.1486 13.7812 10.1413 13.6806 10.0996L10.7244 8.91839C10.6479 8.88713 10.5801 8.83784 10.5268 8.77472C10.4735 8.71161 10.4362 8.63653 10.4181 8.55589L10.0306 6.69964C10.0139 6.61585 9.9758 6.53783 9.91993 6.47319C9.86406 6.40856 9.79238 6.35953 9.71188 6.33089V6.33089Z" stroke="#333333" stroke-width="1.2" stroke-linecap="round" stroke-linejoin="round"/>
<path d="M2.5 12.5H13.5" stroke="#333333" stroke-width="1.2" stroke-linecap="round" stroke-linejoin="round"/>
</svg>
