<svg width="16" height="16" viewBox="0 0 16 16" fill="none" xmlns="http://www.w3.org/2000/svg">
<path d="M2 3H5V9.5H2C1.86739 9.5 1.74021 9.44732 1.64645 9.35355C1.55268 9.25979 1.5 9.13261 1.5 9V3.5C1.5 3.36739 1.55268 3.24021 1.64645 3.14645C1.74021 3.05268 1.86739 3 2 3V3Z" stroke="#555555" stroke-width="1.2" stroke-linecap="round" stroke-linejoin="round"/>
<path d="M5 9.5L7.5 14.5C8.03043 14.5 8.53914 14.2893 8.91421 13.9142C9.28929 13.5391 9.5 13.0304 9.5 12.5V11H13.3687C13.5105 11.0004 13.6508 10.9704 13.78 10.912C13.9092 10.8537 14.0245 10.7684 14.118 10.6618C14.2116 10.5553 14.2812 10.4299 14.3223 10.2942C14.3634 10.1585 14.375 10.0156 14.3562 9.875L13.6062 3.875C13.5759 3.63414 13.459 3.41254 13.2773 3.25154C13.0956 3.09054 12.8615 3.00113 12.6187 3H5" stroke="#555555" stroke-width="1.2" stroke-linecap="round" stroke-linejoin="round"/>
</svg>
