<svg width="26" height="31" viewBox="0 0 26 31" fill="none" xmlns="http://www.w3.org/2000/svg">
<path d="M23.8971 30.4261H2.10294C0.941519 30.4261 0 29.4714 0 28.2938V2.70649C0 1.52887 0.941519 0.574219 2.10294 0.574219H16.25L26 10.4602V28.2938C26 29.4714 25.0585 30.4261 23.8971 30.4261Z" fill="url(#paint0_linear_66_78660)"/>
<g opacity="0.27" filter="url(#filter0_f_66_78660)">
<g style="mix-blend-mode:darken" opacity="0.27">
<path d="M21.6031 15.0156H4.58838V23.157H21.6031V15.0156Z" fill="#0072A2"/>
</g>
</g>
<path opacity="0.11" d="M6.97803 13.2705H19.0221" stroke="white" stroke-width="12"/>
<path opacity="0.11" d="M6.97803 16.1777H19.0221" stroke="white" stroke-width="12"/>
<path opacity="0.11" d="M6.97803 19.0859H19.0221" stroke="white" stroke-width="12"/>
<path opacity="0.11" d="M6.97803 21.9932H19.0221" stroke="white" stroke-width="12"/>
<path opacity="0.11" d="M6.97803 24.9014H19.0221" stroke="white" stroke-width="12"/>
<path d="M5.01902 21.6066C4.92336 21.6066 4.84282 21.5734 4.77737 21.507C4.71192 21.4406 4.6792 21.359 4.6792 21.262V16.6143C4.6792 16.5173 4.71192 16.4357 4.77737 16.3693C4.84282 16.2979 4.92336 16.2621 5.01902 16.2621H6.53686C7.11077 16.2621 7.59658 16.3923 7.9943 16.6526C8.39704 16.9078 8.6991 17.2397 8.90047 17.648C9.10185 18.0563 9.20253 18.4851 9.20253 18.9343C9.20253 19.3836 9.10185 19.8124 8.90047 20.2207C8.6991 20.629 8.39704 20.9634 7.9943 21.2237C7.59658 21.4789 7.11077 21.6066 6.53686 21.6066H5.01902ZM6.45379 20.9557C6.86661 20.9557 7.22908 20.8715 7.54121 20.7031C7.85333 20.5295 8.09498 20.2921 8.26615 19.991C8.43732 19.6847 8.5229 19.3325 8.5229 18.9343C8.5229 18.5362 8.43732 18.1865 8.26615 17.8854C8.09498 17.5791 7.85333 17.3417 7.54121 17.1733C7.22908 16.9997 6.86661 16.9129 6.45379 16.9129H5.36638V20.9557H6.45379ZM13.2122 21.6831C12.6836 21.6831 12.2204 21.5658 11.8228 21.3309C11.425 21.0961 11.1179 20.772 10.9015 20.3585C10.685 19.945 10.5717 19.4703 10.5617 18.9343C10.5717 18.3984 10.685 17.9236 10.9015 17.5102C11.1179 17.0967 11.425 16.7726 11.8228 16.5378C12.2204 16.3029 12.6836 16.1855 13.2122 16.1855C13.7408 16.1855 14.2015 16.3029 14.5941 16.5378C14.9918 16.7726 15.2989 17.0992 15.5154 17.5178C15.7369 17.9313 15.8527 18.4035 15.8628 18.9343C15.8527 19.4652 15.7369 19.9399 15.5154 20.3585C15.2989 20.772 14.9918 21.0961 14.5941 21.3309C14.2015 21.5658 13.7408 21.6831 13.2122 21.6831ZM13.2122 21.0323C13.6149 21.0323 13.9648 20.9404 14.2619 20.7567C14.5589 20.5729 14.7854 20.3227 14.9415 20.0063C15.0975 19.6898 15.1756 19.3325 15.1756 18.9343C15.1756 18.5362 15.0975 18.1788 14.9415 17.8624C14.7854 17.5459 14.5589 17.2958 14.2619 17.112C13.9648 16.9283 13.6149 16.8364 13.2122 16.8364C12.8044 16.8364 12.452 16.9283 12.155 17.112C11.863 17.2958 11.6389 17.5459 11.4829 17.8624C11.3268 18.1788 11.2488 18.5362 11.2488 18.9343C11.2488 19.3325 11.3268 19.6898 11.4829 20.0063C11.6389 20.3227 11.863 20.5729 12.155 20.7567C12.452 20.9404 12.8044 21.0323 13.2122 21.0323ZM19.8614 21.6831C19.358 21.6831 18.9049 21.5734 18.5022 21.3539C18.1044 21.1293 17.7899 20.8103 17.5582 20.3968C17.3317 19.9782 17.2184 19.4908 17.2184 18.9343C17.2184 18.3779 17.3317 17.893 17.5582 17.4795C17.7899 17.0609 18.1044 16.742 18.5022 16.5224C18.9049 16.2979 19.358 16.1855 19.8614 16.1855C20.2037 16.1855 20.5084 16.2264 20.7752 16.3081C21.047 16.3898 21.3164 16.5071 21.5832 16.6603C21.694 16.7215 21.7493 16.8185 21.7493 16.9512C21.7493 17.0278 21.7216 17.0967 21.6662 17.158C21.6109 17.2141 21.5379 17.2422 21.4473 17.2422C21.3969 17.2422 21.3516 17.232 21.3113 17.2116C21.0898 17.0942 20.8733 17.0048 20.6619 16.9436C20.4505 16.8823 20.2063 16.8517 19.9294 16.8517C19.4965 16.8517 19.1265 16.9436 18.8193 17.1273C18.5173 17.306 18.2883 17.5536 18.1322 17.87C17.9811 18.1815 17.9056 18.5362 17.9056 18.9343C17.9056 19.3325 17.9811 19.6898 18.1322 20.0063C18.2883 20.3177 18.5173 20.5652 18.8193 20.749C19.1265 20.9276 19.4965 21.017 19.9294 21.017C20.2063 21.017 20.4505 20.9864 20.6619 20.9251C20.8733 20.8639 21.0898 20.7745 21.3113 20.6571C21.3516 20.6367 21.3969 20.6265 21.4473 20.6265C21.5379 20.6265 21.6109 20.6546 21.6662 20.7107C21.7216 20.7668 21.7493 20.8357 21.7493 20.9175C21.7493 21.0501 21.694 21.1472 21.5832 21.2084C21.3164 21.3615 21.047 21.4789 20.7752 21.5606C20.5084 21.6423 20.2037 21.6831 19.8614 21.6831Z" fill="white"/>
<path d="M4.77714 21.5065L4.91232 21.3695L4.77714 21.5065ZM4.77714 16.3688L4.91232 16.5059L4.91482 16.5033L4.91723 16.5007L4.77714 16.3688ZM7.99406 16.6521L7.89038 16.8149L7.89156 16.8157L7.89274 16.8165L7.99406 16.6521ZM8.90024 17.6475L8.72925 17.7342L8.90024 17.6475ZM8.90024 20.2202L8.72925 20.1335L8.90024 20.2202ZM7.99406 21.2232L8.09631 21.387L8.09683 21.3866L7.99406 21.2232ZM7.54098 20.7026L7.6308 20.8736L7.63185 20.8732L7.6329 20.8726L7.54098 20.7026ZM8.26592 19.9905L8.43156 20.0873L8.43191 20.0866L8.43225 20.0861L8.26592 19.9905ZM8.26592 17.8849L8.09959 17.9804L8.09993 17.981L8.10028 17.9817L8.26592 17.8849ZM7.54098 17.1728L7.44905 17.3428L7.4501 17.3434L7.45115 17.3438L7.54098 17.1728ZM5.36615 16.9125V16.7186H5.17498V16.9125H5.36615ZM5.36615 20.9552H5.17498V21.1491H5.36615V20.9552ZM5.01879 21.4122C4.97194 21.4122 4.94059 21.3982 4.91232 21.3695L4.64196 21.6436C4.74457 21.7477 4.87432 21.7999 5.01879 21.7999V21.4122ZM4.91232 21.3695C4.88404 21.3408 4.87015 21.309 4.87015 21.2615H4.48779C4.48779 21.408 4.53934 21.5396 4.64196 21.6436L4.91232 21.3695ZM4.87015 21.2615V16.6138H4.48779V21.2615H4.87015ZM4.87015 16.6138C4.87015 16.5663 4.88404 16.5346 4.91232 16.5059L4.64196 16.2318C4.53934 16.3358 4.48779 16.4674 4.48779 16.6138H4.87015ZM4.91723 16.5007C4.94673 16.4686 4.97663 16.4555 5.01879 16.4555V16.0678C4.86964 16.0678 4.73843 16.1262 4.63704 16.2369L4.91723 16.5007ZM5.01879 16.4555H6.53663V16.0678H5.01879V16.4555ZM6.53663 16.4555C7.08164 16.4555 7.52958 16.5788 7.89038 16.8149L8.09775 16.4893C7.66313 16.2047 7.13945 16.0678 6.53663 16.0678V16.4555ZM7.89274 16.8165C8.26736 17.0539 8.54448 17.3596 8.72925 17.7342L9.07124 17.5609C8.85326 17.1188 8.52626 16.7608 8.09539 16.4877L7.89274 16.8165ZM8.72925 17.7342C8.91757 18.1161 9.01112 18.5152 9.01112 18.9338H9.39348C9.39348 18.4541 9.28565 17.9956 9.07124 17.5609L8.72925 17.7342ZM9.01112 18.9338C9.01112 19.3525 8.91757 19.7516 8.72925 20.1335L9.07124 20.3068C9.28565 19.872 9.39348 19.4136 9.39348 18.9338H9.01112ZM8.72925 20.1335C8.5443 20.5085 8.26671 20.8171 7.8913 21.0598L8.09683 21.3866C8.52691 21.1087 8.85344 20.7485 9.07124 20.3068L8.72925 20.1335ZM7.89182 21.0594C7.53081 21.2911 7.08232 21.4122 6.53663 21.4122V21.7999C7.13877 21.7999 7.6619 21.6658 8.09631 21.387L7.89182 21.0594ZM6.53663 21.4122H5.01879V21.7999H6.53663V21.4122ZM6.45356 21.1491C6.89244 21.1491 7.28672 21.0593 7.6308 20.8736L7.45115 20.5315C7.17097 20.6827 6.84031 20.7614 6.45356 20.7614V21.1491ZM7.6329 20.8726C7.97452 20.6826 8.24221 20.4204 8.43156 20.0873L8.10028 19.8937C7.94729 20.1629 7.73169 20.3755 7.44905 20.5326L7.6329 20.8726ZM8.43225 20.0861C8.62174 19.747 8.71384 19.3611 8.71384 18.9338H8.33149C8.33149 19.3029 8.25243 19.6214 8.09959 19.8949L8.43225 20.0861ZM8.71384 18.9338C8.71384 18.5067 8.62176 18.1227 8.43156 17.788L8.10028 17.9817C8.25241 18.2493 8.33149 18.5647 8.33149 18.9338H8.71384ZM8.43225 17.7893C8.24282 17.4504 7.97436 17.1871 7.6308 17.0017L7.45115 17.3438C7.73185 17.4953 7.94667 17.7068 8.09959 17.9804L8.43225 17.7893ZM7.6329 17.0028C7.28839 16.8113 6.89335 16.7186 6.45356 16.7186V17.1063C6.83942 17.1063 7.16931 17.1872 7.44905 17.3428L7.6329 17.0028ZM6.45356 16.7186H5.36615V17.1063H6.45356V16.7186ZM5.17498 16.9125V20.9552H5.55733V16.9125H5.17498ZM5.36615 21.1491H6.45356V20.7614H5.36615V21.1491ZM11.8225 21.3304L11.9187 21.1629L11.8225 21.3304ZM10.9012 20.358L10.7323 20.4489L10.9012 20.358ZM10.5614 18.9338L10.3703 18.9302L10.3702 18.9338L10.3703 18.9375L10.5614 18.9338ZM10.9012 17.5097L11.0701 17.6006L10.9012 17.5097ZM11.8225 16.5373L11.7263 16.3698L11.8225 16.5373ZM14.5939 16.5373L14.4968 16.7043L14.4977 16.7047L14.5939 16.5373ZM15.5152 17.5173L15.3458 17.6074L15.3465 17.6086L15.3471 17.6099L15.5152 17.5173ZM15.8626 18.9338L16.0536 18.9375L16.0537 18.9338L16.0536 18.9302L15.8626 18.9338ZM15.5152 20.358L15.3467 20.2663L15.3463 20.2671L15.5152 20.358ZM14.5939 21.3304L14.4977 21.1629L14.4968 21.1634L14.5939 21.3304ZM14.2617 20.7562L14.162 20.5907L14.2617 20.7562ZM14.9413 20.0058L15.1122 20.0924L14.9413 20.0058ZM14.9413 17.8619L15.1122 17.7752L14.9413 17.8619ZM14.2617 17.1115L14.162 17.277L14.2617 17.1115ZM12.1548 17.1115L12.0552 16.9461L12.0545 16.9465L12.0539 16.9469L12.1548 17.1115ZM11.4827 17.8619L11.3117 17.7752L11.4827 17.8619ZM11.4827 20.0058L11.3117 20.0924L11.4827 20.0058ZM12.1548 20.7562L12.0539 20.9208L12.0545 20.9212L12.0552 20.9216L12.1548 20.7562ZM13.212 21.4888C12.7121 21.4888 12.2831 21.378 11.9187 21.1629L11.7263 21.4979C12.1573 21.7524 12.6546 21.8765 13.212 21.8765V21.4888ZM11.9187 21.1629C11.5518 20.9463 11.2699 20.6488 11.0701 20.2671L10.7323 20.4489C10.9655 20.8942 11.2977 21.2449 11.7263 21.4979L11.9187 21.1629ZM11.0701 20.2671C10.8696 19.8842 10.7621 19.4402 10.7525 18.9302L10.3703 18.9375C10.3808 19.4995 10.4999 20.0049 10.7323 20.4489L11.0701 20.2671ZM10.7525 18.9375C10.7621 18.4275 10.8696 17.9835 11.0701 17.6006L10.7323 17.4188C10.4999 17.8628 10.3808 18.3682 10.3703 18.9302L10.7525 18.9375ZM11.0701 17.6006C11.2699 17.2189 11.5518 16.9214 11.9187 16.7047L11.7263 16.3698C11.2977 16.6228 10.9655 16.9735 10.7323 17.4188L11.0701 17.6006ZM11.9187 16.7047C12.2831 16.4897 12.7121 16.3789 13.212 16.3789V15.9912C12.6546 15.9912 12.1573 16.1153 11.7263 16.3698L11.9187 16.7047ZM13.212 16.3789C13.7119 16.3789 14.138 16.4897 14.4968 16.7043L14.691 16.3703C14.2645 16.1153 13.7692 15.9912 13.212 15.9912V16.3789ZM14.4977 16.7047C14.8639 16.921 15.1458 17.2207 15.3458 17.6074L15.6845 17.4273C15.4515 16.9769 15.1193 16.6231 14.6901 16.3698L14.4977 16.7047ZM15.3471 17.6099C15.5523 17.9927 15.6618 18.4337 15.6714 18.9375L16.0536 18.9302C16.043 18.3722 15.9211 17.8689 15.6831 17.4248L15.3471 17.6099ZM15.6714 18.9302C15.6618 19.434 15.5523 19.878 15.3467 20.2663L15.6836 20.4497C15.9211 20.001 16.043 19.4955 16.0536 18.9375L15.6714 18.9302ZM15.3463 20.2671C15.1465 20.6488 14.8645 20.9463 14.4977 21.1629L14.6901 21.4979C15.1187 21.2449 15.4509 20.8942 15.684 20.4489L15.3463 20.2671ZM14.4968 21.1634C14.138 21.378 13.7119 21.4888 13.212 21.4888V21.8765C13.7692 21.8765 14.2645 21.7524 14.691 21.4974L14.4968 21.1634ZM13.212 21.2257C13.6442 21.2257 14.0297 21.1267 14.3612 20.9216L14.162 20.5907C13.8995 20.7532 13.5852 20.838 13.212 20.838V21.2257ZM14.3612 20.9216C14.6889 20.7189 14.9401 20.4414 15.1122 20.0924L14.7703 19.9192C14.6301 20.2031 14.4284 20.426 14.162 20.5907L14.3612 20.9216ZM15.1122 20.0924C15.2831 19.7459 15.3666 19.3583 15.3666 18.9338H14.9842C14.9842 19.3057 14.9115 19.6328 14.7703 19.9192L15.1122 20.0924ZM15.3666 18.9338C15.3666 18.5094 15.2831 18.1218 15.1122 17.7752L14.7703 17.9485C14.9115 18.2349 14.9842 18.562 14.9842 18.9338H15.3666ZM15.1122 17.7752C14.9401 17.4263 14.6889 17.1488 14.3612 16.9461L14.162 17.277C14.4284 17.4417 14.6301 17.6646 14.7703 17.9485L15.1122 17.7752ZM14.3612 16.9461C14.0297 16.741 13.6442 16.642 13.212 16.642V17.0297C13.5852 17.0297 13.8995 17.1145 14.162 17.277L14.3612 16.9461ZM13.212 16.642C12.7752 16.642 12.387 16.7407 12.0552 16.9461L12.2543 17.277C12.5165 17.1148 12.8332 17.0297 13.212 17.0297V16.642ZM12.0539 16.9469C11.7314 17.1498 11.4833 17.4272 11.3117 17.7752L11.6536 17.9485C11.7941 17.6637 11.9941 17.4408 12.2555 17.2762L12.0539 16.9469ZM11.3117 17.7752C11.1408 18.1218 11.0574 18.5094 11.0574 18.9338H11.4398C11.4398 18.562 11.5124 18.2349 11.6536 17.9485L11.3117 17.7752ZM11.0574 18.9338C11.0574 19.3583 11.1408 19.7459 11.3117 20.0924L11.6536 19.9192C11.5124 19.6328 11.4398 19.3057 11.4398 18.9338H11.0574ZM11.3117 20.0924C11.4833 20.4405 11.7314 20.7179 12.0539 20.9208L12.2555 20.5915C11.9941 20.4269 11.7941 20.204 11.6536 19.9192L11.3117 20.0924ZM12.0552 20.9216C12.387 21.127 12.7752 21.2257 13.212 21.2257V20.838C12.8332 20.838 12.5165 20.7529 12.2543 20.5907L12.0552 20.9216ZM18.5019 21.3534L18.4089 21.5227L18.4102 21.5235L18.4114 21.5242L18.5019 21.3534ZM17.558 20.3963L17.3904 20.4895L17.3911 20.4908L17.3918 20.4921L17.558 20.3963ZM17.558 17.4791L17.3913 17.3842L17.3909 17.3849L17.558 17.4791ZM18.5019 16.522L18.5933 16.6922L18.5941 16.6918L18.5019 16.522ZM20.7749 16.3076L20.7197 16.4932L20.7206 16.4935L20.7749 16.3076ZM21.5829 16.6598L21.4888 16.8285L21.49 16.8292L21.4914 16.83L21.5829 16.6598ZM21.666 17.1575L21.8012 17.2945L21.8041 17.2915L21.8069 17.2884L21.666 17.1575ZM21.3111 17.2111L21.2225 17.3828L21.224 17.3837L21.2255 17.3845L21.3111 17.2111ZM20.6617 16.9431L20.7141 16.7567L20.6617 16.9431ZM18.8191 17.1268L18.9155 17.2943L18.9162 17.2937L18.8191 17.1268ZM18.1319 17.8696L17.9609 17.7829L17.9603 17.784L18.1319 17.8696ZM18.1319 20.0058L17.9599 20.0902L17.9606 20.092L17.9615 20.0936L18.1319 20.0058ZM18.8191 20.7485L18.7207 20.9147L18.7224 20.9157L18.724 20.9167L18.8191 20.7485ZM20.6617 20.9246L20.7141 21.111L20.6617 20.9246ZM21.3111 20.6566L21.2255 20.4832L21.224 20.484L21.2225 20.4849L21.3111 20.6566ZM21.666 20.7102L21.8012 20.5732L21.666 20.7102ZM21.5829 21.2079L21.4914 21.0377L21.49 21.0385L21.4888 21.0392L21.5829 21.2079ZM20.7749 21.5601L20.7206 21.3742L20.7197 21.3745L20.7749 21.5601ZM19.8612 21.4888C19.3861 21.4888 18.9646 21.3855 18.5925 21.1826L18.4114 21.5242C18.8447 21.7603 19.3295 21.8765 19.8612 21.8765V21.4888ZM18.595 21.1841C18.2288 20.9772 17.9391 20.6842 17.7242 20.3005L17.3918 20.4921C17.6401 20.9354 17.9797 21.2803 18.4089 21.5227L18.595 21.1841ZM17.7256 20.3031C17.5169 19.9174 17.4094 19.463 17.4094 18.9338H17.027C17.027 19.5174 17.146 20.038 17.3904 20.4895L17.7256 20.3031ZM17.4094 18.9338C17.4094 18.4046 17.5169 17.9532 17.7251 17.5732L17.3909 17.3849C17.146 17.8318 17.027 18.3504 17.027 18.9338H17.4094ZM17.7247 17.5738C17.9395 17.1857 18.2288 16.8935 18.5933 16.6922L18.4106 16.3517C17.9797 16.5894 17.6396 16.9353 17.3913 17.3842L17.7247 17.5738ZM18.5941 16.6918C18.9659 16.4844 19.3868 16.3789 19.8612 16.3789V15.9912C19.3287 15.9912 18.8434 16.1103 18.4098 16.3521L18.5941 16.6918ZM19.8612 16.3789C20.1889 16.3789 20.4743 16.4181 20.7197 16.4932L20.8302 16.122C20.5419 16.0338 20.2181 15.9912 19.8612 15.9912V16.3789ZM20.7206 16.4935C20.9775 16.5706 21.2336 16.682 21.4888 16.8285L21.6771 16.491C21.3987 16.3313 21.1161 16.2078 20.8292 16.1217L20.7206 16.4935ZM21.4914 16.83C21.5204 16.8461 21.5343 16.8621 21.5421 16.8756C21.5501 16.8896 21.5579 16.9122 21.5579 16.9507H21.9403C21.9403 16.8566 21.9204 16.7644 21.873 16.6813C21.8254 16.5979 21.7561 16.5347 21.6745 16.4896L21.4914 16.83ZM21.5579 16.9507C21.5579 16.9745 21.5511 16.9976 21.5251 17.0265L21.8069 17.2884C21.8916 17.1948 21.9403 17.0801 21.9403 16.9507H21.5579ZM21.5308 17.0204C21.517 17.0345 21.4956 17.0479 21.447 17.0479V17.4355C21.5797 17.4355 21.7042 17.3928 21.8012 17.2945L21.5308 17.0204ZM21.447 17.0479C21.4228 17.0479 21.4073 17.0431 21.3965 17.0377L21.2255 17.3845C21.2954 17.4198 21.3705 17.4355 21.447 17.4355V17.0479ZM21.3996 17.0393C21.1682 16.9166 20.9396 16.822 20.7141 16.7567L20.6091 17.1295C20.8066 17.1866 21.0109 17.2708 21.2225 17.3828L21.3996 17.0393ZM20.7141 16.7567C20.4819 16.6894 20.2195 16.6574 19.9292 16.6574V17.045C20.1926 17.045 20.4185 17.0742 20.6091 17.1295L20.7141 16.7567ZM19.9292 16.6574C19.4694 16.6574 19.0642 16.7551 18.7219 16.9599L18.9162 17.2937C19.1882 17.131 19.5231 17.045 19.9292 17.045V16.6574ZM18.7228 16.9594C18.3887 17.157 18.1336 17.4326 17.9609 17.7829L18.3029 17.9562C18.4423 17.6736 18.6454 17.454 18.9155 17.2943L18.7228 16.9594ZM17.9603 17.784C17.7947 18.1257 17.7142 18.5104 17.7142 18.9338H18.0966C18.0966 18.561 18.1671 18.2362 18.3035 17.9551L17.9603 17.784ZM17.7142 18.9338C17.7142 19.3574 17.7947 19.7441 17.9599 20.0902L18.304 19.9214C18.1671 19.6345 18.0966 19.3066 18.0966 18.9338H17.7142ZM17.9615 20.0936C18.1342 20.4383 18.3886 20.7127 18.7207 20.9147L18.9175 20.5823C18.6455 20.4168 18.4417 20.1962 18.3024 19.918L17.9615 20.0936ZM18.724 20.9167C19.0658 21.1156 19.4703 21.2103 19.9292 21.2103V20.8227C19.5222 20.8227 19.1865 20.7388 18.9142 20.5804L18.724 20.9167ZM19.9292 21.2103C20.2195 21.2103 20.4819 21.1783 20.7141 21.111L20.6091 20.7382C20.4185 20.7935 20.1926 20.8227 19.9292 20.8227V21.2103ZM20.7141 21.111C20.9396 21.0457 21.1682 20.9511 21.3996 20.8284L21.2225 20.4849C21.0109 20.5969 20.8066 20.6811 20.6091 20.7382L20.7141 21.111ZM21.3965 20.83C21.4073 20.8246 21.4228 20.8198 21.447 20.8198V20.4322C21.3705 20.4322 21.2954 20.4479 21.2255 20.4832L21.3965 20.83ZM21.447 20.8198C21.4956 20.8198 21.517 20.8332 21.5308 20.8473L21.8012 20.5732C21.7042 20.4749 21.5797 20.4322 21.447 20.4322V20.8198ZM21.5308 20.8473C21.5492 20.866 21.5579 20.8851 21.5579 20.917H21.9403C21.9403 20.7855 21.8935 20.6668 21.8012 20.5732L21.5308 20.8473ZM21.5579 20.917C21.5579 20.9555 21.5501 20.9781 21.5421 20.9921C21.5343 21.0056 21.5204 21.0216 21.4914 21.0377L21.6745 21.3781C21.7561 21.3329 21.8254 21.2698 21.873 21.1864C21.9204 21.1033 21.9403 21.0111 21.9403 20.917H21.5579ZM21.4888 21.0392C21.2336 21.1857 20.9775 21.2971 20.7206 21.3742L20.8292 21.746C21.1161 21.6599 21.3987 21.5364 21.6771 21.3767L21.4888 21.0392ZM20.7197 21.3745C20.4743 21.4496 20.1889 21.4888 19.8612 21.4888V21.8765C20.2181 21.8765 20.5419 21.8339 20.8302 21.7457L20.7197 21.3745Z" fill="white"/>
<mask id="mask0_66_78660" style="mask-type:alpha" maskUnits="userSpaceOnUse" x="0" y="0" width="26" height="31">
<path d="M23.8971 30.4261H2.10294C0.941519 30.4261 0 29.4714 0 28.2938V2.70649C0 1.52887 0.941519 0.574219 2.10294 0.574219H16.25L26 10.4602V28.2938C26 29.4714 25.0585 30.4261 23.8971 30.4261Z" fill="url(#paint1_linear_66_78660)"/>
</mask>
<g mask="url(#mask0_66_78660)">
<path opacity="0.05" d="M-1.38603 20.1526C10.413 20.1526 19.9779 10.8447 19.9779 -0.637075C19.9779 -12.1189 10.413 -21.4268 -1.38603 -21.4268C-13.185 -21.4268 -22.75 -12.1189 -22.75 -0.637075C-22.75 10.8447 -13.185 20.1526 -1.38603 20.1526Z" fill="url(#paint2_linear_66_78660)"/>
<path opacity="0.07" d="M-1.38626 12.3991C6.03101 12.3991 12.0439 6.56266 12.0439 -0.636897C12.0439 -7.83646 6.03101 -13.6729 -1.38626 -13.6729C-8.80352 -13.6729 -14.8164 -7.83646 -14.8164 -0.636897C-14.8164 6.56266 -8.80352 12.3991 -1.38626 12.3991Z" fill="url(#paint3_linear_66_78660)"/>
<g filter="url(#filter1_d_66_78660)">
<path d="M26 10.4602H18.3529C17.1915 10.4602 16.25 9.50557 16.25 8.32795V0.574219L26 10.4602Z" fill="url(#paint4_linear_66_78660)"/>
</g>
</g>
<defs>
<filter id="filter0_f_66_78660" x="-34.4116" y="-23.9844" width="95.0146" height="86.1416" filterUnits="userSpaceOnUse" color-interpolation-filters="sRGB">
<feFlood flood-opacity="0" result="BackgroundImageFix"/>
<feBlend mode="normal" in="SourceGraphic" in2="BackgroundImageFix" result="shape"/>
<feGaussianBlur stdDeviation="19.5" result="effect1_foregroundBlur_66_78660"/>
</filter>
<filter id="filter1_d_66_78660" x="-6.75" y="-23.4258" width="59.75" height="59.8857" filterUnits="userSpaceOnUse" color-interpolation-filters="sRGB">
<feFlood flood-opacity="0" result="BackgroundImageFix"/>
<feColorMatrix in="SourceAlpha" type="matrix" values="0 0 0 0 0 0 0 0 0 0 0 0 0 0 0 0 0 0 127 0" result="hardAlpha"/>
<feOffset dx="2" dy="1"/>
<feGaussianBlur stdDeviation="12.5"/>
<feColorMatrix type="matrix" values="0 0 0 0 0 0 0 0 0 0 0 0 0 0 0 0 0 0 0.33 0"/>
<feBlend mode="normal" in2="BackgroundImageFix" result="effect1_dropShadow_66_78660"/>
<feBlend mode="normal" in="SourceGraphic" in2="effect1_dropShadow_66_78660" result="shape"/>
</filter>
<linearGradient id="paint0_linear_66_78660" x1="13" y1="0.574219" x2="13" y2="30.4261" gradientUnits="userSpaceOnUse">
<stop stop-color="#6ABDF8"/>
<stop offset="1" stop-color="#008BD6"/>
</linearGradient>
<linearGradient id="paint1_linear_66_78660" x1="13" y1="0.574219" x2="13" y2="30.4261" gradientUnits="userSpaceOnUse">
<stop stop-color="#6ABDF8"/>
<stop offset="1" stop-color="#008BD6"/>
</linearGradient>
<linearGradient id="paint2_linear_66_78660" x1="0.165147" y1="0.0773453" x2="6.80287" y2="17.4516" gradientUnits="userSpaceOnUse">
<stop stop-color="white" stop-opacity="0"/>
<stop offset="1" stop-color="white"/>
</linearGradient>
<linearGradient id="paint3_linear_66_78660" x1="-0.411134" y1="-0.188927" x2="3.74309" y2="10.7124" gradientUnits="userSpaceOnUse">
<stop stop-color="white" stop-opacity="0"/>
<stop offset="1" stop-color="white"/>
</linearGradient>
<linearGradient id="paint4_linear_66_78660" x1="21.125" y1="0.574219" x2="21.125" y2="10.4602" gradientUnits="userSpaceOnUse">
<stop stop-color="#009FE3"/>
<stop offset="1" stop-color="#0087C1"/>
</linearGradient>
</defs>
</svg>
