<svg width="20" height="20" viewBox="0 0 20 20" fill="none" xmlns="http://www.w3.org/2000/svg">
<path d="M17.3779 4.28875L13.2113 0.12207C13.1331 0.0439453 13.0273 0 12.9166 0H4.16664C3.24746 0 2.5 0.747461 2.5 1.66668V18.3334C2.5 19.2525 3.24746 20 4.16668 20H15.8334C16.7525 20 17.5 19.2525 17.5 18.3333V4.58332C17.5 4.47266 17.4561 4.36688 17.3779 4.28875ZM13.3333 1.42254L16.0775 4.16668H14.1666C13.7073 4.16668 13.3333 3.79273 13.3333 3.33336V1.42254ZM16.6667 18.3333C16.6667 18.7927 16.2927 19.1666 15.8334 19.1666H4.16668C3.7073 19.1666 3.33336 18.7927 3.33336 18.3333V1.66668C3.33336 1.2073 3.7073 0.833359 4.16668 0.833359H12.5V3.33336C12.5 4.25254 13.2475 5 14.1667 5H16.6667V18.3333Z" fill="url(#paint0_linear_1528_152570)"/>
<path d="M13.7497 8.33325H6.24969C6.01938 8.33325 5.83301 8.51962 5.83301 8.74993C5.83301 8.98024 6.01938 9.16661 6.24969 9.16661H13.7497C13.98 9.16661 14.1664 8.98024 14.1664 8.74993C14.1664 8.51962 13.98 8.33325 13.7497 8.33325Z" fill="url(#paint1_linear_1528_152570)"/>
<path d="M13.7497 10.8333H6.24969C6.01938 10.8333 5.83301 11.0196 5.83301 11.2499C5.83301 11.4802 6.01938 11.6666 6.24969 11.6666H13.7497C13.98 11.6666 14.1664 11.4802 14.1664 11.2499C14.1664 11.0196 13.98 10.8333 13.7497 10.8333Z" fill="url(#paint2_linear_1528_152570)"/>
<path d="M13.7497 13.3333H6.24969C6.01938 13.3333 5.83301 13.5196 5.83301 13.7499C5.83301 13.9802 6.01938 14.1666 6.24969 14.1666H13.7497C13.98 14.1666 14.1664 13.9802 14.1664 13.7499C14.1664 13.5196 13.98 13.3333 13.7497 13.3333Z" fill="url(#paint3_linear_1528_152570)"/>
<path d="M10.4164 15.8333H6.24969C6.01938 15.8333 5.83301 16.0196 5.83301 16.2499C5.83301 16.4802 6.01938 16.6666 6.24969 16.6666H10.4164C10.6467 16.6666 10.833 16.4802 10.833 16.2499C10.833 16.0196 10.6467 15.8333 10.4164 15.8333Z" fill="url(#paint4_linear_1528_152570)"/>
<defs>
<linearGradient id="paint0_linear_1528_152570" x1="10" y1="0" x2="10" y2="20" gradientUnits="userSpaceOnUse">
<stop stop-color="#000AFF"/>
<stop offset="1" stop-color="#D274FF"/>
</linearGradient>
<linearGradient id="paint1_linear_1528_152570" x1="9.99969" y1="8.33325" x2="9.99969" y2="9.16661" gradientUnits="userSpaceOnUse">
<stop stop-color="#000AFF"/>
<stop offset="1" stop-color="#D274FF"/>
</linearGradient>
<linearGradient id="paint2_linear_1528_152570" x1="9.99969" y1="10.8333" x2="9.99969" y2="11.6666" gradientUnits="userSpaceOnUse">
<stop stop-color="#000AFF"/>
<stop offset="1" stop-color="#D274FF"/>
</linearGradient>
<linearGradient id="paint3_linear_1528_152570" x1="9.99969" y1="13.3333" x2="9.99969" y2="14.1666" gradientUnits="userSpaceOnUse">
<stop stop-color="#000AFF"/>
<stop offset="1" stop-color="#D274FF"/>
</linearGradient>
<linearGradient id="paint4_linear_1528_152570" x1="8.33303" y1="15.8333" x2="8.33303" y2="16.6666" gradientUnits="userSpaceOnUse">
<stop stop-color="#000AFF"/>
<stop offset="1" stop-color="#D274FF"/>
</linearGradient>
</defs>
</svg>
