<svg width="23" height="31" viewBox="0 0 23 31" fill="none" xmlns="http://www.w3.org/2000/svg">
<path fill-rule="evenodd" clip-rule="evenodd" d="M11 29.625H3.12495C2.51155 29.625 2 29.1236 2 28.5051V2.61989C2 2.01217 2.50145 1.5 3.12003 1.5H14.375V7.11834C14.375 8.37763 15.3813 9.375 16.6227 9.375H21.125V28.5074C21.125 29.1244 20.6213 29.625 20 29.625H12.125V18.375L15.7812 22.0312L16.625 21.1875L11.5625 16.125L6.5 21.1875L7.34375 22.0312L11 18.375V29.625ZM14.9375 0.375H3.1281C1.88375 0.375 0.875 1.38563 0.875 2.63325V28.4918C0.875 29.7389 1.87729 30.75 3.1221 30.75H20.0029C21.2439 30.75 22.25 29.7395 22.25 28.5104V8.8125V8.25L15.5 0.375H14.9375ZM15.5 2.0625V7.11512C15.5 7.7419 16.007 8.25 16.6213 8.25H20.7874L15.5 2.0625Z" fill="url(#paint0_linear_162_25209)"/>
<defs>
<linearGradient id="paint0_linear_162_25209" x1="11.5625" y1="0.375" x2="11.5625" y2="30.75" gradientUnits="userSpaceOnUse">
<stop stop-color="#0033EA"/>
<stop offset="1" stop-color="#8A0074"/>
</linearGradient>
</defs>
</svg>
