<svg width="21" height="21" viewBox="0 0 21 21" fill="none" xmlns="http://www.w3.org/2000/svg">
<circle cx="10.5" cy="10.5" r="10.5" fill="#0FA779"/>
<path d="M11.0293 5.91211V7.55029H10.2236V5.91211H11.0293ZM10.9326 14.6831V16.1172H10.1323V14.6831H10.9326ZM12.0068 12.9858C12.0068 12.771 11.9585 12.5776 11.8618 12.4058C11.7651 12.2339 11.6058 12.0763 11.3838 11.9331C11.1618 11.7899 10.8646 11.6574 10.4922 11.5356C10.041 11.396 9.65072 11.2259 9.32129 11.0254C8.99544 10.8249 8.743 10.576 8.56396 10.2788C8.38851 9.98161 8.30078 9.62174 8.30078 9.19922C8.30078 8.75879 8.39567 8.37923 8.58545 8.06055C8.77523 7.74186 9.04378 7.49658 9.39111 7.32471C9.73844 7.15283 10.1466 7.06689 10.6157 7.06689C10.981 7.06689 11.3068 7.1224 11.5933 7.2334C11.8797 7.34082 12.1214 7.50195 12.3184 7.7168C12.5189 7.93164 12.6711 8.19482 12.7749 8.50635C12.8823 8.81787 12.936 9.17773 12.936 9.58594H11.9478C11.9478 9.34603 11.9191 9.12581 11.8618 8.92529C11.8045 8.72477 11.7186 8.55111 11.604 8.4043C11.4894 8.25391 11.3498 8.13932 11.1851 8.06055C11.0203 7.97819 10.8306 7.93701 10.6157 7.93701C10.3149 7.93701 10.0661 7.98893 9.86914 8.09277C9.67578 8.19661 9.53255 8.34342 9.43945 8.5332C9.34635 8.7194 9.2998 8.93604 9.2998 9.18311C9.2998 9.41227 9.34635 9.61279 9.43945 9.78467C9.53255 9.95654 9.6901 10.1123 9.91211 10.252C10.1377 10.388 10.4474 10.5223 10.8413 10.6548C11.3032 10.8016 11.6953 10.9753 12.0176 11.1758C12.3398 11.3727 12.5851 11.6162 12.7534 11.9062C12.9217 12.1927 13.0059 12.549 13.0059 12.9751C13.0059 13.437 12.902 13.8273 12.6943 14.146C12.4867 14.4611 12.1948 14.701 11.8188 14.8657C11.4429 15.0304 11.0024 15.1128 10.4976 15.1128C10.1932 15.1128 9.89242 15.0716 9.59521 14.9893C9.29801 14.9069 9.02946 14.7726 8.78955 14.5864C8.54964 14.3966 8.35807 14.1478 8.21484 13.8398C8.07161 13.5283 8 13.147 8 12.6958H8.99902C8.99902 13.0002 9.04199 13.2526 9.12793 13.4531C9.21745 13.6501 9.33561 13.8076 9.48242 13.9258C9.62923 14.0404 9.79036 14.1227 9.96582 14.1729C10.1449 14.2194 10.3221 14.2427 10.4976 14.2427C10.8198 14.2427 11.092 14.1925 11.314 14.0923C11.5396 13.9884 11.7114 13.8416 11.8296 13.6519C11.9478 13.4621 12.0068 13.2401 12.0068 12.9858Z" fill="white"/>
</svg>
