<svg width="13" height="4" viewBox="0 0 13 4" fill="none" xmlns="http://www.w3.org/2000/svg">
<path d="M2.84363 2.04999C2.84363 2.77375 2.2569 3.36047 1.53314 3.36047C0.80938 3.36047 0.222656 2.77375 0.222656 2.04999C0.222656 1.32623 0.80938 0.739502 1.53314 0.739502C2.2569 0.739502 2.84363 1.32623 2.84363 2.04999Z" fill="#333333"/>
<path d="M7.8241 2.04999C7.8241 2.77375 7.23739 3.36047 6.51361 3.36047C5.78983 3.36047 5.20312 2.77375 5.20312 2.04999C5.20312 1.32623 5.78983 0.739502 6.51361 0.739502C7.23739 0.739502 7.8241 1.32623 7.8241 2.04999Z" fill="#333333"/>
<path d="M11.4926 3.36047C12.2164 3.36047 12.8031 2.77375 12.8031 2.04999C12.8031 1.32623 12.2164 0.739502 11.4926 0.739502C10.7688 0.739502 10.1821 1.32623 10.1821 2.04999C10.1821 2.77375 10.7688 3.36047 11.4926 3.36047Z" fill="#333333"/>
</svg>
