<svg width="16" height="4" viewBox="0 0 16 4" fill="none" xmlns="http://www.w3.org/2000/svg">
<path d="M1.75 3.95312C2.7165 3.95312 3.5 3.16962 3.5 2.20312C3.5 1.23663 2.7165 0.453125 1.75 0.453125C0.783502 0.453125 0 1.23663 0 2.20312C0 3.16962 0.783502 3.95312 1.75 3.95312Z" fill="black"/>
<path d="M7.75 3.95312C8.7165 3.95312 9.5 3.16962 9.5 2.20312C9.5 1.23663 8.7165 0.453125 7.75 0.453125C6.7835 0.453125 6 1.23663 6 2.20312C6 3.16962 6.7835 3.95312 7.75 3.95312Z" fill="black"/>
<path d="M13.75 3.95312C14.7165 3.95312 15.5 3.16962 15.5 2.20312C15.5 1.23663 14.7165 0.453125 13.75 0.453125C12.7835 0.453125 12 1.23663 12 2.20312C12 3.16962 12.7835 3.95312 13.75 3.95312Z" fill="black"/>
</svg>
