<svg width="18" height="16" viewBox="0 0 18 16" fill="none" xmlns="http://www.w3.org/2000/svg">
<path d="M8.52706 9.5C9.40855 9.5 10.1259 8.827 10.1259 8C10.1259 7.173 9.40855 6.5 8.52706 6.5C7.64557 6.5 6.92822 7.173 6.92822 8C6.92822 8.827 7.64557 9.5 8.52706 9.5Z" fill="white"/>
<path d="M13.8566 9.5C14.7381 9.5 15.4555 8.827 15.4555 8C15.4555 7.173 14.7381 6.5 13.8566 6.5C12.9752 6.5 12.2578 7.173 12.2578 8C12.2578 8.827 12.9752 9.5 13.8566 9.5Z" fill="white"/>
<path d="M3.19771 9.5C4.07921 9.5 4.79655 8.827 4.79655 8C4.79655 7.173 4.07921 6.5 3.19771 6.5C2.31622 6.5 1.59888 7.173 1.59888 8C1.59888 8.827 2.31622 9.5 3.19771 9.5Z" fill="white"/>
</svg>
