<svg width="16" height="22" viewBox="0 0 16 22" fill="none" xmlns="http://www.w3.org/2000/svg">
<path fill-rule="evenodd" clip-rule="evenodd" d="M2.10526 4.21053C3.26797 4.21053 4.21053 3.26797 4.21053 2.10526C4.21053 0.942558 3.26797 0 2.10526 0C0.942558 0 0 0.942558 0 2.10526C0 3.26797 0.942558 4.21053 2.10526 4.21053ZM2.10526 10.1053C3.26797 10.1053 4.21053 9.1627 4.21053 8C4.21053 6.83729 3.26797 5.89473 2.10526 5.89473C0.942558 5.89473 0 6.83729 0 8C0 9.1627 0.942558 10.1053 2.10526 10.1053ZM4.21053 13.8947C4.21053 15.0574 3.26797 16 2.10526 16C0.942558 16 0 15.0574 0 13.8947C0 12.732 0.942558 11.7895 2.10526 11.7895C3.26797 11.7895 4.21053 12.732 4.21053 13.8947ZM7.99979 4.21053C9.1625 4.21053 10.1051 3.26797 10.1051 2.10526C10.1051 0.942558 9.1625 0 7.99979 0C6.83709 0 5.89453 0.942558 5.89453 2.10526C5.89453 3.26797 6.83709 4.21053 7.99979 4.21053ZM10.1051 7.99999C10.1051 9.1627 9.1625 10.1053 7.99979 10.1053C6.83709 10.1053 5.89453 9.1627 5.89453 7.99999C5.89453 6.83729 6.83709 5.89473 7.99979 5.89473C9.1625 5.89473 10.1051 6.83729 10.1051 7.99999ZM7.99979 16C9.1625 16 10.1051 15.0574 10.1051 13.8947C10.1051 12.732 9.1625 11.7895 7.99979 11.7895C6.83709 11.7895 5.89453 12.732 5.89453 13.8947C5.89453 15.0574 6.83709 16 7.99979 16ZM10.1051 19.7895C10.1051 20.9522 9.1625 21.8947 7.99979 21.8947C6.83709 21.8947 5.89453 20.9522 5.89453 19.7895C5.89453 18.6268 6.83709 17.6842 7.99979 17.6842C9.1625 17.6842 10.1051 18.6268 10.1051 19.7895ZM13.8943 4.21053C15.057 4.21053 15.9996 3.26797 15.9996 2.10526C15.9996 0.942558 15.057 0 13.8943 0C12.7316 0 11.7891 0.942558 11.7891 2.10526C11.7891 3.26797 12.7316 4.21053 13.8943 4.21053ZM15.9996 7.99999C15.9996 9.1627 15.057 10.1053 13.8943 10.1053C12.7316 10.1053 11.7891 9.1627 11.7891 7.99999C11.7891 6.83729 12.7316 5.89473 13.8943 5.89473C15.057 5.89473 15.9996 6.83729 15.9996 7.99999ZM13.8943 16C15.057 16 15.9996 15.0574 15.9996 13.8947C15.9996 12.732 15.057 11.7895 13.8943 11.7895C12.7316 11.7895 11.7891 12.732 11.7891 13.8947C11.7891 15.0574 12.7316 16 13.8943 16Z" fill="url(#paint0_linear_325_21268)"/>
<defs>
<linearGradient id="paint0_linear_325_21268" x1="7.99979" y1="0" x2="7.99979" y2="21.8947" gradientUnits="userSpaceOnUse">
<stop stop-color="#000AFF"/>
<stop offset="1" stop-color="#D274FF"/>
</linearGradient>
</defs>
</svg>
