<svg width="21" height="21" viewBox="0 0 21 21" fill="none" xmlns="http://www.w3.org/2000/svg">
<path d="M15.9426 18.1562H5.05763C4.7542 18.1439 4.45618 18.0718 4.18063 17.9441C3.90508 17.8164 3.65741 17.6356 3.4518 17.4121C3.24618 17.1887 3.08665 16.9268 2.98234 16.6416C2.87803 16.3564 2.83098 16.0535 2.84388 15.75V13.125C2.84388 12.951 2.91303 12.784 3.03609 12.661C3.15917 12.5379 3.32609 12.4688 3.50013 12.4688C3.67419 12.4688 3.8411 12.5379 3.96417 12.661C4.08725 12.784 4.15638 12.951 4.15638 13.125V15.75C4.1338 16.0098 4.21208 16.2683 4.37499 16.472C4.5379 16.6757 4.77295 16.8088 5.03138 16.8438H15.9426C16.2011 16.8088 16.4361 16.6757 16.5991 16.472C16.762 16.2683 16.8402 16.0098 16.8176 15.75V13.125C16.8176 12.951 16.8868 12.784 17.0099 12.661C17.1329 12.5379 17.2998 12.4688 17.4739 12.4688C17.6479 12.4688 17.8149 12.5379 17.9379 12.661C18.061 12.784 18.1301 12.951 18.1301 13.125V15.75C18.1564 16.3585 17.9412 16.9526 17.5315 17.4032C17.1219 17.8539 16.5508 18.1245 15.9426 18.1562Z" fill="#645DF6"/>
<path d="M10.5002 13.7813C10.414 13.7816 10.3286 13.7648 10.2489 13.7317C10.1693 13.6987 10.097 13.6501 10.0365 13.5888L6.53649 10.0888C6.42057 9.96433 6.35746 9.79975 6.36045 9.62973C6.36345 9.45972 6.43233 9.29758 6.55257 9.17727C6.6728 9.05705 6.83502 8.98818 7.00503 8.98521C7.17504 8.98223 7.33958 9.04532 7.46399 9.16126L10.5002 12.1975L13.5365 9.16126C13.6609 9.04532 13.8254 8.98223 13.9954 8.98521C14.1654 8.98818 14.3277 9.05705 14.4479 9.17727C14.5681 9.29758 14.637 9.45972 14.64 9.62973C14.643 9.79975 14.5799 9.96433 14.464 10.0888L10.964 13.5888C10.9034 13.6501 10.8312 13.6987 10.7515 13.7317C10.6719 13.7648 10.5864 13.7816 10.5002 13.7813Z" fill="#645DF6"/>
<path d="M10.5 13.7812C10.3267 13.779 10.161 13.7091 10.0384 13.5866C9.91585 13.464 9.84603 13.2983 9.84375 13.125V3.5C9.84375 3.32595 9.91287 3.15903 10.036 3.03596C10.159 2.91289 10.326 2.84375 10.5 2.84375C10.674 2.84375 10.841 2.91289 10.964 3.03596C11.0871 3.15903 11.1562 3.32595 11.1562 3.5V13.125C11.154 13.2983 11.0842 13.464 10.9616 13.5866C10.839 13.7091 10.6733 13.779 10.5 13.7812Z" fill="#645DF6"/>
</svg>
