<svg width="18" height="18" viewBox="0 0 18 18" fill="none" xmlns="http://www.w3.org/2000/svg">
<path d="M6.04688 4.07812L9 1.125L11.9531 4.07812" stroke="#555555" stroke-width="1.2" stroke-linecap="round" stroke-linejoin="round"/>
<path d="M9 9V1.125" stroke="#555555" stroke-width="1.2" stroke-linecap="round" stroke-linejoin="round"/>
<path d="M12.375 6.75H14.0625C14.2117 6.75 14.3548 6.80926 14.4602 6.91475C14.5657 7.02024 14.625 7.16332 14.625 7.3125V14.625C14.625 14.7742 14.5657 14.9173 14.4602 15.0227C14.3548 15.1282 14.2117 15.1875 14.0625 15.1875H3.9375C3.78832 15.1875 3.64524 15.1282 3.53975 15.0227C3.43426 14.9173 3.375 14.7742 3.375 14.625V7.3125C3.375 7.16332 3.43426 7.02024 3.53975 6.91475C3.64524 6.80926 3.78832 6.75 3.9375 6.75H5.625" stroke="#555555" stroke-width="1.2" stroke-linecap="round" stroke-linejoin="round"/>
</svg>
