<svg width="15" height="16" viewBox="0 0 15 16" fill="none" xmlns="http://www.w3.org/2000/svg">
<g clip-path="url(#clip0_1057_135488)">
<path d="M7.5 0.5C3.36457 0.5 0 3.86457 0 8C0 12.1354 3.36457 15.5 7.5 15.5C11.6354 15.5 15 12.1354 15 8C15 3.86457 11.6354 0.5 7.5 0.5ZM7.5 14.5625C3.88137 14.5625 0.9375 11.6186 0.9375 8C0.9375 4.38137 3.88137 1.4375 7.5 1.4375C11.1186 1.4375 14.0625 4.38137 14.0625 8C14.0625 11.6186 11.1186 14.5625 7.5 14.5625ZM10.1752 8.13734C10.3583 8.32051 10.3583 8.61711 10.1752 8.80016L7.83141 11.1439C7.73988 11.2354 7.61988 11.2812 7.5 11.2812C7.38012 11.2812 7.26012 11.2354 7.16859 11.1439L4.82484 8.80016C4.64168 8.61699 4.64168 8.32039 4.82484 8.13734C5.00801 7.9543 5.30461 7.95418 5.48766 8.13734L7.03125 9.68094V5.1875C7.03125 4.9284 7.24113 4.71875 7.5 4.71875C7.75887 4.71875 7.96875 4.9284 7.96875 5.1875V9.68094L9.51234 8.13734C9.69539 7.95418 9.99211 7.95418 10.1752 8.13734Z" fill="white"/>
</g>
<defs>
<clipPath id="clip0_1057_135488">
<rect width="15" height="15" fill="white" transform="translate(0 0.5)"/>
</clipPath>
</defs>
</svg>
