<svg width="8" height="18" viewBox="0 0 8 18" fill="none" xmlns="http://www.w3.org/2000/svg">
<path fill-rule="evenodd" clip-rule="evenodd" d="M1.43318 1.28572V1.28443L2.07604 1.28572H1.43318ZM1.43318 15.4286C2.14161 15.4286 2.71889 16.0059 2.71889 16.7143C2.71889 17.4227 2.14161 18 1.43318 18C0.72347 18 0.14747 17.4227 0.14747 16.7143C0.14747 16.0059 0.72347 15.4286 1.43318 15.4286ZM6.57604 15.4286C7.28447 15.4286 7.86175 16.0059 7.86175 16.7143C7.86175 17.4227 7.28447 18 6.57604 18C5.86632 18 5.29032 17.4227 5.29032 16.7143C5.29032 16.0059 5.86632 15.4286 6.57604 15.4286ZM1.43317 10.2857C2.1416 10.2857 2.71888 10.863 2.71888 11.5714C2.71888 12.2799 2.1416 12.8571 1.43317 12.8571C0.723461 12.8571 0.147461 12.2799 0.147461 11.5714C0.147461 10.863 0.723461 10.2857 1.43317 10.2857ZM6.57603 10.2857C7.28446 10.2857 7.86175 10.863 7.86175 11.5714C7.86175 12.2799 7.28446 12.8571 6.57603 12.8571C5.86631 12.8571 5.29031 12.2799 5.29031 11.5714C5.29031 10.863 5.86631 10.2857 6.57603 10.2857ZM1.43317 5.14284C2.1416 5.14284 2.71888 5.72014 2.71888 6.42856C2.71888 7.13699 2.1416 7.71428 1.43317 7.71428C0.723461 7.71428 0.147461 7.13699 0.147461 6.42856C0.147461 5.72014 0.723461 5.14284 1.43317 5.14284ZM6.57603 5.14284C7.28446 5.14284 7.86175 5.72014 7.86175 6.42856C7.86175 7.13699 7.28446 7.71428 6.57603 7.71428C5.86631 7.71428 5.29031 7.13699 5.29031 6.42856C5.29031 5.72014 5.86631 5.14284 6.57603 5.14284ZM1.43317 0C2.1416 0 2.71888 0.577284 2.71888 1.28572C2.71888 1.99415 2.1416 2.57143 1.43317 2.57143C0.723461 2.57143 0.147461 1.99415 0.147461 1.28572C0.147461 0.577284 0.723471 0 1.43317 0ZM6.57538 0C7.28381 0 7.8611 0.577284 7.8611 1.28572C7.8611 1.99415 7.28381 2.57143 6.57538 2.57143C5.86696 2.57143 5.28967 1.99415 5.28967 1.28572C5.28967 0.577284 5.86697 0 6.57538 0Z" fill="black"/>
</svg>
