<svg width="48" height="48" viewBox="0 0 48 48" fill="none" xmlns="http://www.w3.org/2000/svg">
<path d="M23.9857 47.9714C37.2327 47.9714 47.9714 37.2327 47.9714 23.9857C47.9714 10.7388 37.2327 0 23.9857 0C10.7388 0 0 10.7388 0 23.9857C0 37.2327 10.7388 47.9714 23.9857 47.9714Z" fill="#F4F7FF"/>
<path d="M23.9858 47.4501C36.9447 47.4501 47.4501 36.9447 47.4501 23.9858C47.4501 11.0268 36.9447 0.521484 23.9858 0.521484C11.0268 0.521484 0.521484 11.0268 0.521484 23.9858C0.521484 36.9447 11.0268 47.4501 23.9858 47.4501Z" stroke="#9EA8FF" stroke-linecap="round" stroke-dasharray="3 3"/>
<mask id="mask0_2729_32797" style="mask-type:alpha" maskUnits="userSpaceOnUse" x="1" y="1" width="46" height="46">
<path d="M23.9849 46.4073C36.3679 46.4073 46.4063 36.3689 46.4063 23.9859C46.4063 11.6029 36.3679 1.56445 23.9849 1.56445C11.6019 1.56445 1.56348 11.6029 1.56348 23.9859C1.56348 36.3689 11.6019 46.4073 23.9849 46.4073Z" fill="#F4F7FF" stroke="#9EA8FF"/>
</mask>
<g mask="url(#mask0_2729_32797)">
<path d="M37.542 12.5144H14.5992C12.2953 12.5144 10.4277 14.382 10.4277 16.6858V43.8001C10.4277 46.1039 12.2953 47.9715 14.5992 47.9715H37.542C39.8458 47.9715 41.7134 46.1039 41.7134 43.8001V16.6858C41.7134 14.382 39.8458 12.5144 37.542 12.5144Z" fill="white"/>
<path d="M37.5424 17.9895H14.5995C14.1676 17.9895 13.8174 18.3397 13.8174 18.7716V21.9002C13.8174 22.3322 14.1676 22.6824 14.5995 22.6824H37.5424C37.9743 22.6824 38.3245 22.3322 38.3245 21.9002V18.7716C38.3245 18.3397 37.9743 17.9895 37.5424 17.9895Z" fill="white" stroke="#9EA8FF" stroke-width="0.5"/>
<path opacity="0.6" d="M37.5424 29.2002H14.5995C14.0235 29.2002 13.5566 29.6671 13.5566 30.2431V33.3716C13.5566 33.9476 14.0235 34.4145 14.5995 34.4145H37.5424C38.1183 34.4145 38.5852 33.9476 38.5852 33.3716V30.2431C38.5852 29.6671 38.1183 29.2002 37.5424 29.2002Z" fill="#D4D5E6"/>
<g filter="url(#filter0_d_2729_32797)">
<path d="M32.198 27.3752V26.7886C32.198 26.5294 32.0951 26.2806 31.9116 26.0973C31.7283 25.914 31.4797 25.8109 31.2203 25.8109C30.9611 25.8109 30.7123 25.914 30.529 26.0973C30.3457 26.2806 30.2426 26.5294 30.2426 26.7886V23.6601C30.2426 23.4008 30.1397 23.1521 29.9563 22.9687C29.7729 22.7854 29.5243 22.6824 29.265 22.6824C29.0057 22.6824 28.757 22.7854 28.5736 22.9687C28.3903 23.1521 28.2873 23.4008 28.2873 23.6601V29.5896L27.2168 27.7321C27.0871 27.5072 26.8734 27.3429 26.6227 27.2755C26.372 27.2082 26.1047 27.2431 25.8797 27.3728C25.6548 27.5025 25.4906 27.7161 25.4232 27.9668C25.3558 28.2175 25.3908 28.4848 25.5205 28.7098C27.1141 32.0681 28.0819 33.2413 30.2426 33.2413C30.7562 33.2413 31.2647 33.1401 31.7392 32.9436C32.2137 32.7471 32.6449 32.4591 33.008 32.0959C33.3711 31.7327 33.6591 31.3016 33.8557 30.8272C34.0522 30.3527 34.1533 29.8442 34.1533 29.3306V27.3752C34.1533 27.116 34.0504 26.8673 33.867 26.6839C33.6836 26.5006 33.435 26.3976 33.1757 26.3976C32.9164 26.3976 32.6677 26.5006 32.4844 26.6839C32.301 26.8673 32.198 27.116 32.198 27.3752Z" fill="#645DF6"/>
</g>
</g>
<defs>
<filter id="filter0_d_2729_32797" x="21.3896" y="20.6824" width="16.7637" height="18.5588" filterUnits="userSpaceOnUse" color-interpolation-filters="sRGB">
<feFlood flood-opacity="0" result="BackgroundImageFix"/>
<feColorMatrix in="SourceAlpha" type="matrix" values="0 0 0 0 0 0 0 0 0 0 0 0 0 0 0 0 0 0 127 0" result="hardAlpha"/>
<feOffset dy="2"/>
<feGaussianBlur stdDeviation="2"/>
<feComposite in2="hardAlpha" operator="out"/>
<feColorMatrix type="matrix" values="0 0 0 0 0 0 0 0 0 0 0 0 0 0 0 0 0 0 0.12 0"/>
<feBlend mode="normal" in2="BackgroundImageFix" result="effect1_dropShadow_2729_32797"/>
<feBlend mode="normal" in="SourceGraphic" in2="effect1_dropShadow_2729_32797" result="shape"/>
</filter>
</defs>
</svg>
