<svg width="16" height="16" viewBox="0 0 16 16" fill="none" xmlns="http://www.w3.org/2000/svg">
<g clip-path="url(#clip0_966_15019)">
<path fill-rule="evenodd" clip-rule="evenodd" d="M5.71854 1.14286V1.14172L6.28998 1.14286H5.71854ZM5.71854 13.7143C6.34826 13.7143 6.8614 14.2274 6.8614 14.8571C6.8614 15.4869 6.34826 16 5.71854 16C5.08769 16 4.57569 15.4869 4.57569 14.8571C4.57569 14.2274 5.08769 13.7143 5.71854 13.7143ZM10.29 13.7143C10.9197 13.7143 11.4328 14.2274 11.4328 14.8571C11.4328 15.4869 10.9197 16 10.29 16C9.65912 16 9.14712 15.4869 9.14712 14.8571C9.14712 14.2274 9.65912 13.7143 10.29 13.7143ZM5.71853 9.14286C6.34825 9.14286 6.86139 9.656 6.86139 10.2857C6.86139 10.9154 6.34825 11.4286 5.71853 11.4286C5.08768 11.4286 4.57568 10.9154 4.57568 10.2857C4.57568 9.656 5.08768 9.14286 5.71853 9.14286ZM10.29 9.14286C10.9197 9.14286 11.4328 9.656 11.4328 10.2857C11.4328 10.9154 10.9197 11.4286 10.29 11.4286C9.65911 11.4286 9.14711 10.9154 9.14711 10.2857C9.14711 9.656 9.65911 9.14286 10.29 9.14286ZM5.71853 4.57142C6.34825 4.57142 6.86139 5.08457 6.86139 5.71428C6.86139 6.34399 6.34825 6.85713 5.71853 6.85713C5.08768 6.85713 4.57568 6.34399 4.57568 5.71428C4.57568 5.08457 5.08768 4.57142 5.71853 4.57142ZM10.29 4.57142C10.9197 4.57142 11.4328 5.08457 11.4328 5.71428C11.4328 6.34399 10.9197 6.85713 10.29 6.85713C9.65911 6.85713 9.14711 6.34399 9.14711 5.71428C9.14711 5.08457 9.65911 4.57142 10.29 4.57142ZM5.71853 0C6.34825 0 6.86139 0.513142 6.86139 1.14286C6.86139 1.77258 6.34825 2.28572 5.71853 2.28572C5.08768 2.28572 4.57568 1.77258 4.57568 1.14286C4.57568 0.513142 5.08769 0 5.71853 0ZM10.2894 0C10.9191 0 11.4322 0.513142 11.4322 1.14286C11.4322 1.77258 10.9191 2.28572 10.2894 2.28572C9.65968 2.28572 9.14653 1.77258 9.14653 1.14286C9.14653 0.513142 9.65969 0 10.2894 0Z" fill="black"/>
</g>
<defs>
<clipPath id="clip0_966_15019">
<rect width="16" height="16" fill="white"/>
</clipPath>
</defs>
</svg>
