<svg width="23" height="23" viewBox="0 0 23 23" fill="none" xmlns="http://www.w3.org/2000/svg">
<path d="M5.54831 10.1123C6.18849 10.1123 6.81429 9.92242 7.34658 9.56675C7.87886 9.21109 8.29373 8.70557 8.53872 8.11413C8.7837 7.52268 8.8478 6.87187 8.72291 6.244C8.59801 5.61612 8.28974 5.03938 7.83707 4.58671C7.38439 4.13403 6.80765 3.82576 6.17978 3.70087C5.5519 3.57598 4.90109 3.64007 4.30965 3.88506C3.7182 4.13004 3.21268 4.54491 2.85702 5.0772C2.50136 5.60949 2.31152 6.23529 2.31152 6.87546C2.31256 7.73359 2.65391 8.55628 3.2607 9.16307C3.86749 9.76986 4.69018 10.1112 5.54831 10.1123ZM5.54831 4.56347C6.00558 4.56347 6.45258 4.69907 6.83279 4.95311C7.21299 5.20716 7.50933 5.56824 7.68431 5.9907C7.8593 6.41316 7.90509 6.87803 7.81588 7.32651C7.72667 7.77499 7.50647 8.18695 7.18314 8.51029C6.8598 8.83363 6.44784 9.05382 5.99936 9.14303C5.55088 9.23224 5.08601 9.18645 4.66355 9.01146C4.24109 8.83648 3.88001 8.54014 3.62596 8.15994C3.37192 7.77973 3.23632 7.33273 3.23632 6.87546C3.23696 6.26248 3.48076 5.67479 3.9142 5.24135C4.34764 4.80791 4.93533 4.56411 5.54831 4.56347ZM4.62352 6.87546C4.62352 6.69255 4.67775 6.51375 4.77937 6.36167C4.88099 6.20959 5.02542 6.09106 5.19441 6.02106C5.36339 5.95107 5.54934 5.93275 5.72873 5.96844C5.90812 6.00412 6.07291 6.0922 6.20224 6.22153C6.33158 6.35087 6.41966 6.51565 6.45534 6.69504C6.49102 6.87444 6.47271 7.06038 6.40271 7.22937C6.33272 7.39835 6.21418 7.54278 6.0621 7.6444C5.91002 7.74602 5.73122 7.80026 5.54831 7.80026C5.30304 7.80026 5.06782 7.70283 4.89438 7.52939C4.72095 7.35596 4.62352 7.12073 4.62352 6.87546ZM11.5595 6.87546C11.5595 6.81473 11.5714 6.75459 11.5946 6.69847C11.6178 6.64235 11.6519 6.59136 11.6948 6.54842C11.7378 6.50547 11.7888 6.47142 11.8449 6.44819C11.901 6.42496 11.9612 6.41303 12.0219 6.41306H19.4203C19.5429 6.41306 19.6605 6.46178 19.7472 6.5485C19.8339 6.63521 19.8827 6.75283 19.8827 6.87546C19.8827 6.9981 19.8339 7.11571 19.7472 7.20243C19.6605 7.28914 19.5429 7.33786 19.4203 7.33786H12.0219C11.9612 7.3379 11.901 7.32596 11.8449 7.30273C11.7888 7.27951 11.7378 7.24545 11.6948 7.20251C11.6519 7.15956 11.6178 7.10857 11.5946 7.05246C11.5714 6.99634 11.5595 6.9362 11.5595 6.87546ZM5.54831 19.3602C6.18849 19.3602 6.81429 19.1704 7.34658 18.8147C7.87886 18.4591 8.29373 17.9535 8.53872 17.3621C8.7837 16.7706 8.8478 16.1198 8.72291 15.492C8.59801 14.8641 8.28974 14.2873 7.83707 13.8347C7.38439 13.382 6.80765 13.0737 6.17978 12.9488C5.5519 12.8239 4.90109 12.888 4.30965 13.133C3.7182 13.378 3.21268 13.7929 2.85702 14.3252C2.50136 14.8575 2.31152 15.4833 2.31152 16.1234C2.31256 16.9816 2.65391 17.8042 3.2607 18.411C3.86749 19.0178 4.69018 19.3592 5.54831 19.3602ZM5.54831 13.8114C6.00558 13.8114 6.45258 13.947 6.83279 14.2011C7.21299 14.4551 7.50933 14.8162 7.68431 15.2387C7.8593 15.6611 7.90509 16.126 7.81588 16.5745C7.72667 17.023 7.50647 17.4349 7.18314 17.7583C6.8598 18.0816 6.44784 18.3018 5.99936 18.391C5.55088 18.4802 5.08601 18.4344 4.66355 18.2594C4.24109 18.0844 3.88001 17.7881 3.62596 17.4079C3.37192 17.0277 3.23632 16.5807 3.23632 16.1234C3.23696 15.5105 3.48076 14.9228 3.9142 14.4893C4.34764 14.0559 4.93533 13.8121 5.54831 13.8114ZM11.5595 16.1234C11.5595 16.0627 11.5714 16.0026 11.5946 15.9464C11.6178 15.8903 11.6519 15.8393 11.6948 15.7964C11.7378 15.7534 11.7888 15.7194 11.8449 15.6962C11.901 15.6729 11.9612 15.661 12.0219 15.661H19.4203C19.5429 15.661 19.6605 15.7097 19.7472 15.7965C19.8339 15.8832 19.8827 16.0008 19.8827 16.1234C19.8827 16.2461 19.8339 16.3637 19.7472 16.4504C19.6605 16.5371 19.5429 16.5858 19.4203 16.5858H12.0219C11.9612 16.5859 11.901 16.5739 11.8449 16.5507C11.7888 16.5275 11.7378 16.4934 11.6948 16.4505C11.6519 16.4075 11.6178 16.3565 11.5946 16.3004C11.5714 16.2443 11.5595 16.1842 11.5595 16.1234Z" fill="#333333"/>
</svg>
