<svg width="18" height="18" viewBox="0 0 18 18" fill="none" xmlns="http://www.w3.org/2000/svg">
<g clip-path="url(#clip0_851_459712)">
<path d="M14.625 3.375V1.125H1.125V6.75H6.1875V16.875H16.875V3.375H14.625ZM2.25 5.625V2.25H13.5V3.375H6.1875V5.625H2.25ZM15.75 15.75H7.3125V4.5H15.75V15.75Z" fill="#333333"/>
<path d="M9.5625 6.1875H8.4375V7.3125H9.5625V6.1875Z" fill="#333333"/>
<path d="M14.625 6.1875H10.6875V7.3125H14.625V6.1875Z" fill="#333333"/>
<path d="M9.5625 9.5625H8.4375V10.6875H9.5625V9.5625Z" fill="#333333"/>
<path d="M14.625 9.5625H10.6875V10.6875H14.625V9.5625Z" fill="#333333"/>
<path d="M9.5625 12.9375H8.4375V14.0625H9.5625V12.9375Z" fill="#333333"/>
<path d="M14.625 12.9375H10.6875V14.0625H14.625V12.9375Z" fill="#333333"/>
</g>
<defs>
<clipPath id="clip0_851_459712">
<rect width="18" height="18" fill="white"/>
</clipPath>
</defs>
</svg>
