<svg width="17" height="17" viewBox="0 0 17 17" fill="none" xmlns="http://www.w3.org/2000/svg">
<path d="M15.6402 0.5H1.09755C0.491394 0.5 0 0.991394 0 1.59755V4.34144C0 4.94763 0.491394 5.43902 1.09755 5.43902H15.6402C16.0949 5.43902 16.4634 5.07046 16.4634 4.61585V1.32317C16.4634 0.868562 16.0949 0.5 15.6402 0.5ZM0.548791 4.34147V1.59755C0.548791 1.29446 0.794488 1.04876 1.09758 1.04876H11.5244V4.89023H1.09755C0.794488 4.89023 0.548791 4.64454 0.548791 4.34147ZM15.9146 4.61585C15.9146 4.7674 15.7918 4.89023 15.6402 4.89023H12.0732V1.04879H15.6402C15.7918 1.04879 15.9146 1.17166 15.9146 1.32317V4.61585Z" fill="url(#paint0_linear_987_197176)"/>
<path d="M14.6503 1.87196H13.3376C13.0733 1.87113 12.8302 2.01643 12.7059 2.24962C12.5815 2.48278 12.5962 2.76562 12.7441 2.98463L13.4575 4.05475C13.5769 4.23417 13.7781 4.34199 13.9937 4.34199C14.2092 4.34199 14.4104 4.23417 14.5298 4.05475L15.2433 2.98463C15.3911 2.76568 15.4058 2.48301 15.2816 2.24985C15.1573 2.01672 14.9144 1.87132 14.6503 1.87196ZM14.7874 2.67893L14.074 3.74905C14.0563 3.77535 14.0267 3.79114 13.995 3.79114C13.9632 3.79114 13.9336 3.77535 13.9159 3.74905L13.2025 2.67893C13.1676 2.62831 13.1637 2.56243 13.1926 2.50809C13.2214 2.45378 13.2782 2.42005 13.3397 2.42072H14.6524C14.7139 2.42008 14.7706 2.45378 14.7995 2.50809C14.8284 2.5624 14.8246 2.62828 14.7896 2.67893H14.7874Z" fill="url(#paint1_linear_987_197176)"/>
<path d="M0.823171 9.2805H11.25C11.7046 9.2805 12.0732 8.91194 12.0732 8.45733V6.81099C12.0732 6.35638 11.7046 5.98782 11.25 5.98782H0.823171C0.368562 5.98782 0 6.35638 0 6.81099V8.45733C0 8.91194 0.368562 9.2805 0.823171 9.2805ZM0.548791 6.81099C0.548791 6.65944 0.671656 6.53661 0.823171 6.53661H11.25C11.4016 6.53661 11.5244 6.65947 11.5244 6.81099V8.45733C11.5244 8.60888 11.4015 8.73171 11.25 8.73171H0.823171C0.671624 8.73171 0.548791 8.60888 0.548791 8.45733V6.81099Z" fill="url(#paint2_linear_987_197176)"/>
<path d="M0.823171 13.1219H11.25C11.7046 13.1219 12.0732 12.7534 12.0732 12.2988V10.6524C12.0732 10.1978 11.7046 9.82926 11.25 9.82926H0.823171C0.368562 9.82926 0 10.1978 0 10.6524V12.2988C0 12.7534 0.368562 13.1219 0.823171 13.1219ZM0.548791 10.6524C0.548791 10.5009 0.671656 10.378 0.823171 10.378H11.25C11.4016 10.378 11.5244 10.5009 11.5244 10.6524V12.2988C11.5244 12.4503 11.4015 12.5732 11.25 12.5732H0.823171C0.671624 12.5732 0.548791 12.4503 0.548791 12.2988V10.6524Z" fill="url(#paint3_linear_987_197176)"/>
<path d="M0.823171 16.9634H11.25C11.7046 16.9634 12.0732 16.5949 12.0732 16.1402V14.4939C12.0732 14.0393 11.7046 13.6707 11.25 13.6707H0.823171C0.368562 13.6707 0 14.0393 0 14.4939V16.1402C0 16.5949 0.368562 16.9634 0.823171 16.9634ZM0.548791 14.4939C0.548791 14.3424 0.671656 14.2195 0.823171 14.2195H11.25C11.4016 14.2195 11.5244 14.3424 11.5244 14.4939V16.1402C11.5244 16.2918 11.4015 16.4146 11.25 16.4146H0.823171C0.671624 16.4146 0.548791 16.2918 0.548791 16.1402V14.4939Z" fill="url(#paint4_linear_987_197176)"/>
<defs>
<linearGradient id="paint0_linear_987_197176" x1="8.23171" y1="0.5" x2="8.23171" y2="16.9634" gradientUnits="userSpaceOnUse">
<stop stop-color="#0033EA"/>
<stop offset="1" stop-color="#8A0074"/>
</linearGradient>
<linearGradient id="paint1_linear_987_197176" x1="8.23171" y1="0.5" x2="8.23171" y2="16.9634" gradientUnits="userSpaceOnUse">
<stop stop-color="#0033EA"/>
<stop offset="1" stop-color="#8A0074"/>
</linearGradient>
<linearGradient id="paint2_linear_987_197176" x1="8.23171" y1="0.5" x2="8.23171" y2="16.9634" gradientUnits="userSpaceOnUse">
<stop stop-color="#0033EA"/>
<stop offset="1" stop-color="#8A0074"/>
</linearGradient>
<linearGradient id="paint3_linear_987_197176" x1="8.23171" y1="0.5" x2="8.23171" y2="16.9634" gradientUnits="userSpaceOnUse">
<stop stop-color="#0033EA"/>
<stop offset="1" stop-color="#8A0074"/>
</linearGradient>
<linearGradient id="paint4_linear_987_197176" x1="8.23171" y1="0.5" x2="8.23171" y2="16.9634" gradientUnits="userSpaceOnUse">
<stop stop-color="#0033EA"/>
<stop offset="1" stop-color="#8A0074"/>
</linearGradient>
</defs>
</svg>
