<svg width="15" height="15" viewBox="0 0 15 15" fill="none" xmlns="http://www.w3.org/2000/svg">
<path d="M9.6533 2.62341H2.68013C2.02582 2.62341 1.49438 3.15485 1.49438 3.80916V13.8143C1.49438 14.4686 2.02582 15 2.68013 15H9.6533C10.3076 15 10.8391 14.4686 10.8391 13.8143V3.80916C10.836 3.15485 10.3045 2.62341 9.6533 2.62341ZM10.0066 13.8112C10.0066 14.0078 9.84683 14.1675 9.65023 14.1675H2.67706C2.48046 14.1675 2.32072 14.0078 2.32072 13.8112V3.80916C2.32072 3.61256 2.48046 3.45282 2.67706 3.45282H9.65023C9.84683 3.45282 10.0066 3.61256 10.0066 3.80916V13.8112Z" fill="black"/>
<path d="M12.3198 0H5.34664C4.69232 0 4.16089 0.531436 4.16089 1.18575C4.16089 1.41614 4.3452 1.60045 4.57559 1.60045C4.80598 1.60045 4.9903 1.41614 4.9903 1.18575C4.9903 0.989146 5.15003 0.829408 5.34664 0.829408H12.3198C12.5164 0.829408 12.6761 0.989146 12.6761 1.18575V11.1909C12.6761 11.3875 12.5164 11.5472 12.3198 11.5472C12.0894 11.5472 11.9051 11.7315 11.9051 11.9619C11.9051 12.1923 12.0894 12.3766 12.3198 12.3766C12.9741 12.3766 13.5056 11.8452 13.5056 11.1909V1.18575C13.5056 0.531436 12.9741 0 12.3198 0Z" fill="black"/>
</svg>
