<svg width="29" height="30" viewBox="0 0 29 30" fill="none" xmlns="http://www.w3.org/2000/svg">
<rect x="13" width="16" height="16" rx="8" fill="#F6DDEF"/>
<path d="M25 15.0002H21.031C20.5047 15.0002 19.9999 15.2109 19.6278 15.586C19.2556 15.961 19.0465 16.4697 19.0465 17.0001V22C19.0465 22.5305 19.2556 23.0392 19.6278 23.4142C19.9999 23.7893 20.5047 24 21.031 24H23.0155C23.5418 24 24.0466 23.7893 24.4188 23.4142C24.7909 23.0392 25 22.5305 25 22V15.0002ZM25 15.0002C25.0001 13.4159 24.6888 11.8473 24.0842 10.3849C23.4797 8.92242 22.5937 7.59511 21.4775 6.47951C20.3613 5.36392 19.037 4.48211 17.5809 3.88498C16.1248 3.28785 14.5658 2.98721 12.9938 3.00042C11.4229 2.98887 9.86519 3.29073 8.41053 3.88861C6.95587 4.48648 5.63299 5.36855 4.51811 6.48398C3.40324 7.59941 2.5184 8.92616 1.9146 10.3878C1.31079 11.8494 0.999958 13.417 1 15.0002V22C1 22.5305 1.20908 23.0392 1.58125 23.4142C1.95341 23.7893 2.45818 24 2.9845 24H4.96899C5.49531 24 6.00008 23.7893 6.37224 23.4142C6.74441 23.0392 6.95349 22.5305 6.95349 22V17.0001C6.95349 16.4697 6.74441 15.961 6.37224 15.586C6.00008 15.2109 5.49531 15.0002 4.96899 15.0002H1" stroke="url(#paint0_linear_698_22962)" stroke-width="1.5" stroke-linecap="round" stroke-linejoin="round"/>
<path d="M25 21V24.4286C25 25.641 24.6233 26.8037 23.9528 27.6611C23.2823 28.5184 22.3728 29 21.4246 29H15" stroke="url(#paint1_linear_698_22962)" stroke-width="1.5" stroke-linecap="round" stroke-linejoin="round"/>
<defs>
<linearGradient id="paint0_linear_698_22962" x1="13" y1="3" x2="13" y2="24" gradientUnits="userSpaceOnUse">
<stop stop-color="#000AFF"/>
<stop offset="1" stop-color="#D274FF"/>
</linearGradient>
<linearGradient id="paint1_linear_698_22962" x1="20" y1="21" x2="20" y2="29" gradientUnits="userSpaceOnUse">
<stop stop-color="#000AFF"/>
<stop offset="1" stop-color="#D274FF"/>
</linearGradient>
</defs>
</svg>
