<svg width="27" height="27" viewBox="0 0 27 27" fill="none" xmlns="http://www.w3.org/2000/svg">
<rect width="27" height="27" rx="6" fill="white"/>
<path d="M12 19.4999H9C8.86739 19.4999 8.74022 19.4473 8.64645 19.3535C8.55268 19.2597 8.5 19.1326 8.5 18.9999V16.2062C8.49978 16.1413 8.51236 16.0769 8.53702 16.0169C8.56169 15.9568 8.59796 15.9022 8.64375 15.8562L16.1438 8.3562C16.1903 8.30895 16.2457 8.27144 16.3069 8.24583C16.3681 8.22022 16.4337 8.20703 16.5 8.20703C16.5663 8.20703 16.632 8.22022 16.6931 8.24583C16.7543 8.27144 16.8097 8.30895 16.8563 8.3562L19.6438 11.1437C19.691 11.1902 19.7285 11.2457 19.7541 11.3068C19.7797 11.368 19.7929 11.4336 19.7929 11.4999C19.7929 11.5663 19.7797 11.6319 19.7541 11.6931C19.7285 11.7542 19.691 11.8097 19.6438 11.8562L12 19.4999Z" stroke="#555555" stroke-width="1.5" stroke-linecap="round" stroke-linejoin="round"/>
<path d="M14.5 10L18 13.5" stroke="#555555" stroke-width="1.5" stroke-linecap="round" stroke-linejoin="round"/>
<path d="M19.5 19.5H12" stroke="#555555" stroke-width="1.5" stroke-linecap="round" stroke-linejoin="round"/>
</svg>
