<svg width="17" height="17" viewBox="0 0 17 17" fill="none" xmlns="http://www.w3.org/2000/svg">
<path d="M6.50782 14.0039H3.50782C3.37521 14.0039 3.24803 13.9512 3.15426 13.8574C3.06049 13.7636 3.00782 13.6365 3.00782 13.5039V10.7101C3.00759 10.6452 3.02017 10.5808 3.04483 10.5208C3.0695 10.4607 3.10577 10.4061 3.15157 10.3601L10.6516 2.8601C10.6981 2.81286 10.7535 2.77534 10.8147 2.74973C10.8759 2.72413 10.9415 2.71094 11.0078 2.71094C11.0741 2.71094 11.1398 2.72413 11.2009 2.74973C11.2621 2.77534 11.3175 2.81286 11.3641 2.8601L14.1516 5.6476C14.1988 5.69413 14.2363 5.74958 14.2619 5.81074C14.2875 5.8719 14.3007 5.93755 14.3007 6.00385C14.3007 6.07016 14.2875 6.1358 14.2619 6.19696C14.2363 6.25812 14.1988 6.31358 14.1516 6.3601L6.50782 14.0039Z" stroke="#555555" stroke-width="1.2" stroke-linecap="round" stroke-linejoin="round"/>
<path d="M9.00781 4.5L12.5078 8" stroke="#555555" stroke-width="1.2" stroke-linecap="round" stroke-linejoin="round"/>
<path d="M14.0078 14H6.50781" stroke="#555555" stroke-width="1.2" stroke-linecap="round" stroke-linejoin="round"/>
</svg>
