<svg width="15" height="15" viewBox="0 0 15 15" fill="none" xmlns="http://www.w3.org/2000/svg">
<path d="M0.937416 13.5935C0.871269 13.5939 0.805786 13.5803 0.745272 13.5536C0.684758 13.5269 0.630582 13.4877 0.586307 13.4385C0.542032 13.3894 0.50866 13.3314 0.488384 13.2685C0.468108 13.2055 0.461388 13.139 0.468666 13.0732L0.829603 9.79196C0.842452 9.68709 0.890354 9.58963 0.965541 9.5154L8.63429 1.84665C8.77362 1.70704 8.93911 1.59629 9.12129 1.52072C9.30348 1.44515 9.49877 1.40625 9.69601 1.40625C9.89324 1.40625 10.0885 1.44515 10.2707 1.52072C10.4529 1.59629 10.6184 1.70704 10.7577 1.84665L12.2155 3.30446C12.3551 3.44379 12.4659 3.60928 12.5415 3.79146C12.617 3.97365 12.6559 4.16895 12.6559 4.36618C12.6559 4.56342 12.617 4.75871 12.5415 4.9409C12.4659 5.12308 12.3551 5.28857 12.2155 5.4279L4.55148 13.092C4.47725 13.1671 4.37979 13.2151 4.27492 13.2279L0.993666 13.5888L0.937416 13.5935ZM1.74835 10.0545L1.4671 12.5951L4.00773 12.3138L11.5546 4.76696C11.607 4.7147 11.6487 4.65261 11.677 4.58423C11.7054 4.51586 11.72 4.44256 11.72 4.36852C11.72 4.29449 11.7054 4.22119 11.677 4.15281C11.6487 4.08444 11.607 4.02235 11.5546 3.97009L10.0921 2.50759C10.0398 2.45515 9.97775 2.41354 9.90938 2.38515C9.841 2.35676 9.7677 2.34214 9.69367 2.34214C9.61963 2.34214 9.54633 2.35676 9.47796 2.38515C9.40958 2.41354 9.34749 2.45515 9.29523 2.50759L1.74835 10.0545Z" fill="#2E50C8"/>
<path d="M10.781 6.66051C10.7193 6.66087 10.6582 6.64904 10.6011 6.62572C10.544 6.60239 10.492 6.56802 10.4482 6.52457L7.53727 3.60426C7.49356 3.56056 7.45889 3.50867 7.43524 3.45157C7.41159 3.39446 7.39941 3.33326 7.39941 3.27145C7.39941 3.20964 7.41159 3.14844 7.43524 3.09133C7.45889 3.03423 7.49356 2.98234 7.53727 2.93864C7.58097 2.89493 7.63286 2.86026 7.68996 2.83661C7.74707 2.81296 7.80827 2.80078 7.87008 2.80078C7.93189 2.80078 7.99309 2.81296 8.0502 2.83661C8.1073 2.86026 8.15919 2.89493 8.20289 2.93864L11.1232 5.85895C11.1671 5.90253 11.202 5.95437 11.2258 6.01149C11.2496 6.06861 11.2619 6.12988 11.2619 6.19176C11.2619 6.25364 11.2496 6.31491 11.2258 6.37203C11.202 6.42915 11.1671 6.481 11.1232 6.52457C11.0783 6.56916 11.0248 6.60418 10.966 6.62755C10.9072 6.65091 10.8443 6.66212 10.781 6.66051Z" fill="#2E50C8"/>
<path d="M7.53996 5.86043L3.89062 9.50977L4.55354 10.1727L8.20287 6.52334L7.53996 5.86043Z" fill="#2E50C8"/>
<path d="M14.0625 13.5938H6.5625C6.43818 13.5938 6.31895 13.5444 6.23104 13.4565C6.14314 13.3685 6.09375 13.2493 6.09375 13.125C6.09375 13.0007 6.14314 12.8815 6.23104 12.7935C6.31895 12.7056 6.43818 12.6562 6.5625 12.6562H14.0625C14.1868 12.6562 14.306 12.7056 14.394 12.7935C14.4819 12.8815 14.5312 13.0007 14.5312 13.125C14.5312 13.2493 14.4819 13.3685 14.394 13.4565C14.306 13.5444 14.1868 13.5938 14.0625 13.5938Z" fill="#2E50C8"/>
</svg>
