<svg width="15" height="15" viewBox="0 0 15 15" fill="none" xmlns="http://www.w3.org/2000/svg">
<path d="M0.937507 13.5935C0.871361 13.5939 0.805878 13.5803 0.745364 13.5536C0.684849 13.5269 0.630674 13.4877 0.586399 13.4385C0.542124 13.3894 0.508751 13.3314 0.488476 13.2685C0.4682 13.2055 0.46148 13.139 0.468757 13.0732L0.829695 9.79196C0.842544 9.68709 0.890446 9.58963 0.965632 9.5154L8.63438 1.84665C8.77371 1.70704 8.9392 1.59629 9.12138 1.52072C9.30357 1.44515 9.49887 1.40625 9.6961 1.40625C9.89334 1.40625 10.0886 1.44515 10.2708 1.52072C10.453 1.59629 10.6185 1.70704 10.7578 1.84665L12.2156 3.30446C12.3552 3.44379 12.466 3.60928 12.5416 3.79146C12.6171 3.97365 12.656 4.16895 12.656 4.36618C12.656 4.56342 12.6171 4.75871 12.5416 4.9409C12.466 5.12308 12.3552 5.28857 12.2156 5.4279L4.55157 13.092C4.47734 13.1671 4.37988 13.2151 4.27501 13.2279L0.993757 13.5888L0.937507 13.5935ZM1.74845 10.0545L1.4672 12.5951L4.00782 12.3138L11.5547 4.76696C11.6071 4.7147 11.6487 4.65261 11.6771 4.58423C11.7055 4.51586 11.7201 4.44256 11.7201 4.36852C11.7201 4.29449 11.7055 4.22119 11.6771 4.15281C11.6487 4.08444 11.6071 4.02235 11.5547 3.97009L10.0922 2.50759C10.0399 2.45515 9.97784 2.41354 9.90947 2.38515C9.84109 2.35676 9.76779 2.34214 9.69376 2.34214C9.61973 2.34214 9.54642 2.35676 9.47805 2.38515C9.40967 2.41354 9.34758 2.45515 9.29532 2.50759L1.74845 10.0545Z" fill="#333333"/>
<path d="M10.7813 6.66051C10.7196 6.66087 10.6584 6.64904 10.6013 6.62572C10.5442 6.60239 10.4923 6.56802 10.4485 6.52457L7.53751 3.60426C7.49381 3.56056 7.45914 3.50867 7.43549 3.45157C7.41183 3.39446 7.39966 3.33326 7.39966 3.27145C7.39966 3.20964 7.41183 3.14844 7.43549 3.09133C7.45914 3.03423 7.49381 2.98234 7.53751 2.93864C7.58122 2.89493 7.6331 2.86026 7.69021 2.83661C7.74731 2.81296 7.80852 2.80078 7.87033 2.80078C7.93214 2.80078 7.99334 2.81296 8.05044 2.83661C8.10755 2.86026 8.15943 2.89493 8.20314 2.93864L11.1235 5.85895C11.1674 5.90253 11.2023 5.95437 11.2261 6.01149C11.2499 6.06861 11.2621 6.12988 11.2621 6.19176C11.2621 6.25364 11.2499 6.31491 11.2261 6.37203C11.2023 6.42915 11.1674 6.481 11.1235 6.52457C11.0785 6.56916 11.0251 6.60418 10.9663 6.62755C10.9075 6.65091 10.8445 6.66212 10.7813 6.66051Z" fill="#333333"/>
<path d="M7.53993 5.86043L3.89059 9.50977L4.55351 10.1727L8.20284 6.52334L7.53993 5.86043Z" fill="#333333"/>
<path d="M14.0625 13.5938H6.5625C6.43818 13.5938 6.31895 13.5444 6.23104 13.4565C6.14314 13.3685 6.09375 13.2493 6.09375 13.125C6.09375 13.0007 6.14314 12.8815 6.23104 12.7935C6.31895 12.7056 6.43818 12.6562 6.5625 12.6562H14.0625C14.1868 12.6562 14.306 12.7056 14.394 12.7935C14.4819 12.8815 14.5312 13.0007 14.5312 13.125C14.5312 13.2493 14.4819 13.3685 14.394 13.4565C14.306 13.5444 14.1868 13.5938 14.0625 13.5938Z" fill="#333333"/>
</svg>
