<svg width="20" height="16" viewBox="0 0 20 16" fill="none" xmlns="http://www.w3.org/2000/svg">
<path d="M15.8333 6.06832V1.88055C15.8333 0.961367 15.0859 0.213867 14.1666 0.213867H1.66664C0.747461 0.213867 0 0.961328 0 1.88055V10.2139C0 11.133 0.747461 11.8805 1.66668 11.8805H11.011C11.557 13.8014 13.3232 15.2139 15.4167 15.2139C16.2223 15.2139 17.0146 15.0019 17.7087 14.6003C17.9077 14.4851 17.9761 14.2304 17.8605 14.031C17.7454 13.8316 17.4902 13.7629 17.2913 13.8793C16.724 14.2072 16.0758 14.3805 15.4166 14.3805C13.3487 14.3805 11.6666 12.6984 11.6666 10.6305C11.6666 8.56269 13.3488 6.88055 15.4166 6.88055C17.4845 6.88055 19.1666 8.56269 19.1666 10.6305V11.0472C19.1666 11.5066 18.7927 11.8805 18.3333 11.8805C17.8739 11.8805 17.5 11.5066 17.5 11.0472V9.38055C17.5 9.15023 17.3136 8.96387 17.0833 8.96387C16.9713 8.96387 16.8705 9.00922 16.7957 9.08105C16.4275 8.75289 15.9475 8.54719 15.4166 8.54719C14.268 8.54719 13.3333 9.48184 13.3333 10.6305C13.3333 11.7792 14.268 12.7139 15.4167 12.7139C16.0376 12.7139 16.5897 12.4353 16.9718 12.0029C17.2736 12.4316 17.7702 12.7139 18.3334 12.7139C19.2525 12.7139 20 11.9664 20 11.0472V10.6305C20 8.24391 18.1658 6.2798 15.8333 6.06832ZM1.66668 1.04719H14.1667C14.184 1.04719 14.1986 1.05605 14.2157 1.05711L8.2593 5.94629C8.04731 6.07977 7.74008 6.05207 7.60215 5.96746L1.6182 1.05703C1.63512 1.05602 1.64949 1.04719 1.66668 1.04719ZM15 6.06832C12.6675 6.2798 10.8333 8.24391 10.8333 10.6305C10.8333 10.7712 10.842 10.9098 10.8544 11.0472H1.66668C1.2073 11.0472 0.833359 10.6733 0.833359 10.2139V1.88055C0.833359 1.76254 0.859414 1.65109 0.903867 1.5493L7.11023 6.63887C7.35273 6.79715 7.63148 6.88059 7.91672 6.88059C8.19098 6.88059 8.4591 6.80328 8.69512 6.6568C8.71871 6.64418 8.74109 6.62914 8.76227 6.61164L14.9295 1.54922C14.9739 1.65109 15 1.76254 15 1.88059V6.06832H15ZM15.4167 11.8805C14.7274 11.8805 14.1667 11.3198 14.1667 10.6305C14.1667 9.94125 14.7274 9.38055 15.4167 9.38055C16.106 9.38055 16.6667 9.94125 16.6667 10.6305C16.6667 11.3198 16.106 11.8805 15.4167 11.8805Z" fill="#DD1CFC"/>
</svg>
