<svg width="22" height="17" viewBox="0 0 22 17" fill="none" xmlns="http://www.w3.org/2000/svg">
<path d="M17.4167 6.6899V2.08335C17.4167 1.07225 16.5944 0.25 15.5833 0.25H1.8333C0.822207 0.25 0 1.07221 0 2.08335V11.25C0 12.2611 0.822207 13.0833 1.83335 13.0833H12.1121C12.7126 15.1962 14.6555 16.75 16.9583 16.75C17.8446 16.75 18.716 16.5168 19.4796 16.075C19.6985 15.9484 19.7737 15.6682 19.6466 15.4489C19.5199 15.2296 19.2393 15.1539 19.0204 15.2819C18.3964 15.6427 17.6834 15.8333 16.9583 15.8333C14.6836 15.8333 12.8333 13.983 12.8333 11.7083C12.8333 9.43371 14.6837 7.58335 16.9583 7.58335C19.2329 7.58335 21.0833 9.43371 21.0833 11.7083V12.1667C21.0833 12.672 20.672 13.0833 20.1667 13.0833C19.6613 13.0833 19.25 12.672 19.25 12.1667V10.3333C19.25 10.08 19.045 9.875 18.7917 9.875C18.6684 9.875 18.5576 9.92489 18.4753 10.0039C18.0702 9.64293 17.5423 9.41665 16.9583 9.41665C15.6948 9.41665 14.6667 10.4448 14.6667 11.7083C14.6667 12.9718 15.6948 14 16.9583 14C17.6414 14 18.2487 13.6936 18.6689 13.2179C19.001 13.6896 19.5472 14 20.1667 14C21.1778 14 22 13.1778 22 12.1667V11.7083C22 9.08304 19.9824 6.92253 17.4167 6.6899ZM1.83335 1.16665H15.5833C15.6024 1.16665 15.6184 1.17641 15.6372 1.17757L9.08523 6.55566C8.85204 6.70249 8.51409 6.67202 8.36236 6.57895L1.78002 1.17748C1.79863 1.17636 1.81444 1.16665 1.83335 1.16665ZM16.5 6.6899C13.9343 6.92253 11.9167 9.08304 11.9167 11.7083C11.9167 11.863 11.9261 12.0155 11.9399 12.1667H1.83335C1.32804 12.1667 0.916695 11.7554 0.916695 11.25V2.08335C0.916695 1.95354 0.945355 1.83095 0.994254 1.71897L7.82126 7.3175C8.08801 7.49161 8.39463 7.58339 8.70839 7.58339C9.01007 7.58339 9.30501 7.49836 9.56463 7.33722C9.59058 7.32334 9.6152 7.3068 9.63849 7.28755L16.4224 1.71889C16.4713 1.83095 16.5 1.95354 16.5 2.08339V6.6899H16.5ZM16.9583 13.0833C16.2001 13.0833 15.5833 12.4666 15.5833 11.7083C15.5833 10.9501 16.2001 10.3333 16.9583 10.3333C17.7166 10.3333 18.3333 10.9501 18.3333 11.7083C18.3333 12.4666 17.7166 13.0833 16.9583 13.0833Z" fill="#333333"/>
</svg>
