<svg width="23" height="24" viewBox="0 0 23 24" fill="none" xmlns="http://www.w3.org/2000/svg">
<g clip-path="url(#clip0_987_197139)">
<path d="M18.1021 10.0515V5.26366C18.1021 4.21277 17.2476 3.35815 16.1966 3.35815H1.90546C0.854567 3.35815 0 4.21272 0 5.26366V14.7911C0 15.842 0.854567 16.6966 1.9055 16.6966H12.5888C13.213 18.8926 15.2323 20.5075 17.6258 20.5075C18.5469 20.5075 19.4526 20.2652 20.2463 19.806C20.4738 19.6744 20.5519 19.3831 20.4198 19.1552C20.2881 18.9273 19.9965 18.8486 19.769 18.9817C19.1205 19.3567 18.3794 19.5548 17.6257 19.5548C15.2615 19.5548 13.3384 17.6316 13.3384 15.2675C13.3384 12.9033 15.2616 10.9801 17.6257 10.9801C19.9899 10.9801 21.9131 12.9033 21.9131 15.2675V15.7439C21.9131 16.2691 21.4856 16.6966 20.9604 16.6966C20.4352 16.6966 20.0076 16.2691 20.0076 15.7439V13.8384C20.0076 13.575 19.7945 13.362 19.5312 13.362C19.4031 13.362 19.288 13.4138 19.2024 13.4959C18.7814 13.1208 18.2327 12.8856 17.6257 12.8856C16.3125 12.8856 15.2439 13.9542 15.2439 15.2674C15.2439 16.5807 16.3125 17.6493 17.6258 17.6493C18.3357 17.6493 18.9669 17.3308 19.4037 16.8364C19.7488 17.3266 20.3165 17.6493 20.9604 17.6493C22.0113 17.6493 22.8659 16.7947 22.8659 15.7438V15.2674C22.8659 12.5388 20.7688 10.2933 18.1021 10.0515ZM1.9055 4.31088H16.1967C16.2165 4.31088 16.2331 4.32102 16.2527 4.32223L9.44279 9.91199C9.20043 10.0646 8.84918 10.0329 8.69148 9.9362L1.85008 4.32214C1.86942 4.32098 1.88585 4.31088 1.9055 4.31088ZM17.1494 10.0515C14.4827 10.2933 12.3857 12.5388 12.3857 15.2675C12.3857 15.4282 12.3955 15.5867 12.4098 15.7439H1.9055C1.3803 15.7439 0.952774 15.3163 0.952774 14.7911V5.26366C0.952774 5.12874 0.982562 5.00132 1.03338 4.88494L8.12908 10.7038C8.40633 10.8848 8.72502 10.9802 9.05113 10.9802C9.36468 10.9802 9.67123 10.8918 9.94106 10.7243C9.96804 10.7099 9.99363 10.6927 10.0178 10.6727L17.0687 4.88485C17.1196 5.00132 17.1494 5.12874 17.1494 5.2637V10.0515H17.1494ZM17.6258 16.6966C16.8377 16.6966 16.1967 16.0555 16.1967 15.2675C16.1967 14.4794 16.8377 13.8384 17.6258 13.8384C18.4138 13.8384 19.0549 14.4794 19.0549 15.2675C19.0549 16.0555 18.4138 16.6966 17.6258 16.6966Z" fill="url(#paint0_linear_987_197139)"/>
</g>
<defs>
<linearGradient id="paint0_linear_987_197139" x1="11.4329" y1="3.35815" x2="11.4329" y2="20.5075" gradientUnits="userSpaceOnUse">
<stop stop-color="#0033EA"/>
<stop offset="1" stop-color="#8A0074"/>
</linearGradient>
<clipPath id="clip0_987_197139">
<rect width="22.8659" height="22.8659" fill="white" transform="translate(0 0.5)"/>
</clipPath>
</defs>
</svg>
