<svg width="20" height="20" viewBox="0 0 20 20" fill="none" xmlns="http://www.w3.org/2000/svg">
<path fill-rule="evenodd" clip-rule="evenodd" d="M13.225 12.2681C12.6139 12.2307 12.3462 11.772 12.2629 11.1693C12.2432 11.0263 12.234 10.8755 12.2314 10.7019C12.2301 10.6186 12.2303 10.5548 12.2315 10.4222C12.2343 10.1212 12.2367 9.86815 12.2387 9.66315C12.2397 9.56375 11.2254 9.21507 9.90755 9.20161C8.59038 9.18816 7.56938 9.51678 7.56843 9.61669L7.56127 10.3752C7.55741 10.793 7.54562 11.0044 7.49091 11.2555C7.37718 11.7775 7.08506 12.1756 6.53433 12.201C4.90424 12.4553 3.9497 12.5665 3.41346 12.551C2.36753 12.5208 1.62284 11.6257 1.60647 10.7144C1.60079 10.3984 1.60447 10.0088 1.61714 9.5572C1.64342 6.77394 5.44703 4.72168 9.94973 4.76766C14.4534 4.81365 18.2163 6.9402 18.19 9.71761C18.189 10.22 18.1874 10.3844 18.1792 10.8663C18.1638 11.7634 17.3661 12.6839 16.3287 12.6802C15.7831 12.6782 14.7836 12.5431 13.225 12.2681ZM6.16206 10.3614L6.16923 9.60271C6.18141 8.3131 7.83432 7.78109 9.92106 7.8024C12.0092 7.82372 13.6505 8.38796 13.6379 9.67758C13.6359 9.8823 13.6335 10.1351 13.6307 10.4359C13.6296 10.5573 13.6294 10.6131 13.6305 10.6815C13.6319 10.7746 13.6357 10.8538 13.6423 10.9208C15.02 11.1608 15.9129 11.2794 16.333 11.2809C16.5499 11.2817 16.777 11.0197 16.7801 10.8415C16.7882 10.3665 16.7898 10.2093 16.7908 9.70888C16.8076 7.92272 13.77 6.20602 9.93621 6.16687C6.10358 6.12773 3.03322 7.78437 3.01611 9.58401C3.00375 10.0287 3.00027 10.3978 3.00551 10.69C3.00931 10.9012 3.21242 11.1453 3.45307 11.1523C3.85391 11.1639 4.7116 11.0661 6.14189 10.8457C6.15478 10.7365 6.15994 10.5913 6.16206 10.3614ZM9.12718 17.1106L9.1781 11.8724L10.5777 11.886L10.5268 17.1242L12.3184 15.3671L13.2984 16.3663L9.80094 19.7965L6.37078 16.299L7.37007 15.319L9.12718 17.1106Z" fill="white"/>
</svg>
