<svg width="20" height="20" viewBox="0 0 20 20" fill="none" xmlns="http://www.w3.org/2000/svg">
<path d="M2.69174 6.59417L6.59174 2.69167C6.71674 2.56667 6.8834 2.5 7.06673 2.5H12.9417C13.1167 2.5 13.2917 2.56667 13.4167 2.69167L17.3084 6.58583C17.4334 6.71083 17.5001 6.8775 17.5001 7.06083V12.9392C17.5001 13.1142 17.4334 13.2892 17.3084 13.4142L13.4167 17.3083C13.2917 17.4333 13.1251 17.5 12.9417 17.5H7.0584C6.88104 17.501 6.7104 17.4321 6.5834 17.3083L2.69174 13.4142C2.62979 13.3517 2.58092 13.2776 2.54801 13.196C2.5151 13.1144 2.4988 13.0271 2.50007 12.9392V7.06083C2.50007 6.88583 2.56674 6.71083 2.69174 6.58583V6.59417Z" fill="white" stroke="#E41C1C" stroke-width="2" stroke-miterlimit="10" stroke-linejoin="round"/>
<path d="M10 13.3337H10.0067M10 6.66699V10.8337" stroke="#E41C1C" stroke-width="2" stroke-miterlimit="10" stroke-linecap="round"/>
</svg>
