<svg width="15" height="16" viewBox="0 0 15 16" fill="none" xmlns="http://www.w3.org/2000/svg">
<g clip-path="url(#clip0_375_7798)">
<path d="M13.1006 4.44219C13.085 4.40445 13.062 4.37015 13.0331 4.34126L9.28313 0.59126C9.22444 0.533018 9.14517 0.500234 9.06249 0.5H2.18751C2.01492 0.5 1.875 0.639922 1.875 0.81251V15.1875C1.875 15.3601 2.01492 15.5 2.18751 15.5H12.8125C12.9851 15.5 13.125 15.3601 13.125 15.1875V4.56251C13.1249 4.52117 13.1166 4.48027 13.1006 4.44219ZM9.375 1.56687L12.0581 4.25H9.375V1.56687ZM12.5 14.875H2.49999V1.12499H8.74998V4.56248C8.74998 4.73507 8.8899 4.87499 9.06249 4.87499H12.5V14.875H12.5Z" fill="black"/>
<path d="M3.75 5.81251V13.3125C3.75 13.4851 3.88992 13.625 4.06251 13.625H10.9375C11.1101 13.625 11.25 13.4851 11.25 13.3125V5.81251C11.25 5.63992 11.1101 5.5 10.9375 5.5H4.06251C3.88992 5.50003 3.75 5.63992 3.75 5.81251ZM9.375 6.12502H10.625V7.37503H9.375V6.12502ZM9.375 8.00002H10.625V9.25003H9.375V8.00002ZM9.375 9.87502H10.625V11.125H9.375V9.87502ZM9.375 11.75H10.625V13H9.375V11.75ZM6.24999 6.12502H8.74998V7.37503H6.24999V6.12502ZM6.24999 8.00002H8.74998V9.25003H6.24999V8.00002ZM6.24999 9.87502H8.74998V11.125H6.24999V9.87502ZM6.24999 11.75H8.74998V13H6.24999V11.75ZM4.37499 6.12502H5.625V7.37503H4.37499V6.12502ZM4.37499 8.00002H5.625V9.25003H4.37499V8.00002ZM4.37499 9.87502H5.625V11.125H4.37499V9.87502ZM4.37499 11.75H5.625V13H4.37499V11.75Z" fill="black"/>
</g>
<defs>
<clipPath id="clip0_375_7798">
<rect width="15" height="15" fill="white" transform="translate(0 0.5)"/>
</clipPath>
</defs>
</svg>
