<svg width="18" height="18" viewBox="0 0 18 18" fill="none" xmlns="http://www.w3.org/2000/svg">
<g clip-path="url(#clip0_28_2848)">
<path d="M2.25 10.6875H9.65812L8.20688 9.23062L9 8.4375L11.8125 11.25L9 14.0625L8.20688 13.2694L9.65812 11.8125H2.25V10.6875Z" fill="#645DF6"/>
<path d="M4.5 7.87501V5.62501C4.49957 5.55098 4.51376 5.4776 4.54175 5.40906C4.56974 5.34053 4.61099 5.27819 4.66312 5.22563L8.60062 1.28813C8.65318 1.236 8.71552 1.19476 8.78405 1.16676C8.85258 1.13877 8.92597 1.12458 9 1.12501H14.625C14.9234 1.12501 15.2095 1.24354 15.4205 1.45451C15.6315 1.66549 15.75 1.95164 15.75 2.25001V15.75C15.75 16.0484 15.6315 16.3345 15.4205 16.5455C15.2095 16.7565 14.9234 16.875 14.625 16.875H5.625C5.32663 16.875 5.04048 16.7565 4.8295 16.5455C4.61853 16.3345 4.5 16.0484 4.5 15.75V14.625H5.625V15.75H14.625V2.25001H10.125V5.62501C10.125 5.92338 10.0065 6.20953 9.79549 6.4205C9.58452 6.63148 9.29837 6.75001 9 6.75001H5.625V7.87501H4.5ZM9 5.62501V2.48063L5.85562 5.62501H9Z" fill="#645DF6"/>
</g>
<defs>
<clipPath id="clip0_28_2848">
<rect width="18" height="18" fill="white" transform="matrix(-1 0 0 1 18 0)"/>
</clipPath>
</defs>
</svg>
