<svg width="17" height="18" viewBox="0 0 17 18" fill="none" xmlns="http://www.w3.org/2000/svg">
<path d="M5.71094 4.37109L8.5 1.58203L11.2891 4.37109" stroke="#333333" stroke-width="1.2" stroke-linecap="round" stroke-linejoin="round"/>
<path d="M8.5 9.01953V1.58203" stroke="#333333" stroke-width="1.2" stroke-linecap="round" stroke-linejoin="round"/>
<path d="M11.6875 6.89453H13.2812C13.4221 6.89453 13.5573 6.9505 13.6569 7.05013C13.7565 7.14976 13.8125 7.28488 13.8125 7.42578V14.332C13.8125 14.4729 13.7565 14.6081 13.6569 14.7077C13.5573 14.8073 13.4221 14.8633 13.2812 14.8633H3.71875C3.57785 14.8633 3.44273 14.8073 3.3431 14.7077C3.24347 14.6081 3.1875 14.4729 3.1875 14.332V7.42578C3.1875 7.28488 3.24347 7.14976 3.3431 7.05013C3.44273 6.9505 3.57785 6.89453 3.71875 6.89453H5.3125" stroke="#333333" stroke-width="1.2" stroke-linecap="round" stroke-linejoin="round"/>
</svg>
