<svg width="25" height="23" viewBox="0 0 25 23" fill="none" xmlns="http://www.w3.org/2000/svg">
<path fill-rule="evenodd" clip-rule="evenodd" d="M13.6978 2.22493C12.9352 1.88506 12.0647 1.88506 11.3021 2.22493C10.9663 2.37464 10.578 2.71213 10.015 3.50891C9.45477 4.30161 8.81073 5.41473 7.90763 6.97832L4.4032 13.0458C3.4969 14.615 2.85215 15.7332 2.44384 16.618C2.03335 17.5074 1.9347 18.0144 1.97287 18.3813C2.05955 19.2148 2.49518 19.9722 3.17134 20.465C3.46898 20.6819 3.95618 20.8504 4.92976 20.9399C5.89815 21.0289 7.18668 21.03 8.99555 21.03H16.0044C17.8132 21.03 19.1018 21.0289 20.0702 20.9399C21.0437 20.8504 21.531 20.6819 21.8286 20.465C22.5048 19.9722 22.9404 19.2148 23.027 18.3813C23.0653 18.0144 22.9666 17.5074 22.5561 16.618C22.1477 15.7332 21.5031 14.615 20.5967 13.0458L17.0923 6.97831C16.1892 5.41471 15.5452 4.30161 14.9851 3.50889C14.4221 2.71213 14.0336 2.37464 13.6978 2.22493ZM10.5037 0.424837C11.7745 -0.141612 13.2254 -0.141612 14.4962 0.424837C15.326 0.794651 15.9671 1.49031 16.5888 2.37022C17.2074 3.2455 17.8958 4.43756 18.7672 5.94623L18.7931 5.99126L22.2976 12.0587L22.3236 12.1038C23.1982 13.6179 23.8892 14.8143 24.3398 15.7907C24.7928 16.7722 25.0762 17.6784 24.9819 18.5856C24.8374 19.9747 24.1113 21.237 22.9843 22.0583C22.2485 22.5947 21.3241 22.8029 20.2497 22.9018C19.1808 23 17.8018 23 16.0563 23H16.0044H8.99555H8.94366C7.19813 23 5.81913 23 4.75021 22.9018C3.67588 22.8029 2.75151 22.5947 2.01555 22.0583C0.888634 21.237 0.162581 19.9747 0.018102 18.5856C-0.0762479 17.6784 0.207156 16.7722 0.66013 15.7907C1.11084 14.8143 1.80176 13.6181 2.67634 12.1038L2.70234 12.0587L6.20677 5.99126L6.23275 5.94629C7.10412 4.43759 7.79262 3.24551 8.41112 2.37022C9.03289 1.49031 9.67397 0.794651 10.5037 0.424837ZM12.5 7.23975C13.0427 7.23975 13.4826 7.68076 13.4826 8.22476V12.8215C13.4826 13.3655 13.0427 13.8065 12.5 13.8065C11.9573 13.8065 11.5173 13.3655 11.5173 12.8215V8.22476C11.5173 7.68076 11.9573 7.23975 12.5 7.23975ZM12.5 15.4482C11.7763 15.4482 11.1897 16.0362 11.1897 16.7616C11.1897 17.4869 11.7763 18.0749 12.5 18.0749H12.5131C13.2367 18.0749 13.8233 17.4869 13.8233 16.7616C13.8233 16.0362 13.2367 15.4482 12.5131 15.4482H12.5Z" fill="#D21E1E"/>
</svg>
