<svg width="19" height="20" viewBox="0 0 19 20" fill="none" xmlns="http://www.w3.org/2000/svg">
<path fill-rule="evenodd" clip-rule="evenodd" d="M10.0938 1.6875C12.1409 1.6875 14.1042 2.50072 15.5517 3.94827C16.9993 5.39582 17.8125 7.35911 17.8125 9.40625C17.8125 11.4534 16.9993 13.4167 15.5517 14.8642C14.1042 16.3118 12.1409 17.125 10.0938 17.125C8.04661 17.125 6.08332 16.3118 4.63577 14.8642C3.18822 13.4167 2.375 11.4534 2.375 9.40625C2.375 7.35911 3.18822 5.39582 4.63577 3.94827C6.08332 2.50072 8.04661 1.6875 10.0938 1.6875ZM15.9054 6.4375C15.1438 4.9567 13.8478 3.82074 12.2799 3.25975C12.8072 4.25725 13.1884 5.326 13.4116 6.4375H15.9054ZM16.5965 9.99406C16.6155 9.7987 16.625 9.60253 16.625 9.40625C16.6238 8.80364 16.5387 8.20412 16.3721 7.625H13.5909C13.6289 8.01806 13.6562 8.4135 13.6562 8.8125C13.6538 9.61033 13.5718 10.4059 13.4116 11.1875H16.3721C16.4849 10.7968 16.5597 10.3978 16.5977 9.99406H16.5965ZM12.3987 9.99406L12.4058 9.9335C12.4463 9.56119 12.4673 9.18701 12.4688 8.8125C12.4608 8.4153 12.4306 8.01885 12.3785 7.625H7.809C7.75642 8.0188 7.72629 8.41528 7.71875 8.8125C7.72165 9.61204 7.81446 10.4087 7.99544 11.1875H12.1921C12.2835 10.7933 12.3524 10.3954 12.3987 9.99406ZM12.1707 6.4375C11.8909 5.18154 11.386 3.98663 10.6804 2.91062C10.4856 2.894 10.2909 2.875 10.0938 2.875C9.97005 2.8756 9.84644 2.88155 9.72325 2.89281L9.50712 2.91062L9.5 2.9225C8.7981 3.99536 8.29565 5.18612 8.01681 6.4375H12.1707ZM6.77587 6.4375C7.00365 5.32677 7.38998 4.25456 7.923 3.25381C6.34836 3.81289 5.04624 4.9515 4.28212 6.4375H6.77587ZM3.81544 7.625C3.64906 8.20417 3.56393 8.80365 3.5625 9.40625C3.56393 10.0088 3.64906 10.6083 3.81544 11.1875H6.77587C6.61488 10.406 6.53293 9.61037 6.53125 8.8125C6.53125 8.4135 6.55856 8.01806 6.59656 7.625H3.81544ZM7.08581 12.375H4.28331C4.7322 13.2518 5.37311 14.0161 6.1583 14.6109C6.9435 15.2057 7.85276 15.6157 8.81838 15.8104C8.05836 14.7668 7.47319 13.6065 7.08581 12.375ZM10.0938 15.5148C10.8531 14.5756 11.4466 13.5138 11.8489 12.375H8.33862C8.74088 13.5138 9.33443 14.5756 10.0938 15.5148ZM13.1017 12.375C12.7143 13.6065 12.1291 14.7668 11.3691 15.8104C12.3347 15.6156 13.2439 15.2055 14.029 14.6107C14.8142 14.0159 15.4552 13.2517 15.9042 12.375H13.1017Z" fill="#645DF6"/>
</svg>
