<svg width="18" height="19" viewBox="0 0 18 19" fill="none" xmlns="http://www.w3.org/2000/svg">
<g clip-path="url(#clip0_489_227480)">
<path d="M1.95508 11.668H9.3632L7.91195 10.2111L8.70508 9.41797L11.5176 12.2305L8.70508 15.043L7.91195 14.2498L9.3632 12.793H1.95508V11.668Z" fill="#333333"/>
<path d="M4.20508 8.85548V6.60548C4.20465 6.53145 4.21884 6.45806 4.24683 6.38953C4.27482 6.321 4.31607 6.25866 4.3682 6.2061L8.3057 2.2686C8.35826 2.21647 8.4206 2.17522 8.48913 2.14723C8.55766 2.11924 8.63105 2.10505 8.70508 2.10548H14.3301C14.6284 2.10548 14.9146 2.224 15.1256 2.43498C15.3366 2.64596 15.4551 2.93211 15.4551 3.23048V16.7305C15.4551 17.0288 15.3366 17.315 15.1256 17.526C14.9146 17.737 14.6284 17.8555 14.3301 17.8555H5.33008C5.03171 17.8555 4.74556 17.737 4.53458 17.526C4.3236 17.315 4.20508 17.0288 4.20508 16.7305V15.6055H5.33008V16.7305H14.3301V3.23048H9.83008V6.60548C9.83008 6.90385 9.71155 7.18999 9.50057 7.40097C9.28959 7.61195 9.00345 7.73048 8.70508 7.73048H5.33008V8.85548H4.20508ZM8.70508 6.60548V3.4611L5.5607 6.60548H8.70508Z" fill="#333333"/>
</g>
<defs>
<clipPath id="clip0_489_227480">
<rect width="18" height="18" fill="white" transform="matrix(-1 0 0 1 18 0.5)"/>
</clipPath>
</defs>
</svg>
