<svg width="18" height="18" viewBox="0 0 18 18" fill="none" xmlns="http://www.w3.org/2000/svg">
<path d="M8.9999 3.75C6.18186 3.75 4.07692 5.5803 2.82543 7.07951C1.88631 8.20455 1.88631 9.79545 2.82543 10.9205C4.07692 12.4197 6.18186 14.25 8.9999 14.25C11.818 14.25 13.9229 12.4197 15.1744 10.9205C16.1135 9.79545 16.1135 8.20455 15.1744 7.07951C13.9229 5.5803 11.818 3.75 8.9999 3.75Z" stroke="black" stroke-linecap="round" stroke-linejoin="round"/>
<path d="M9 11.25C10.2427 11.25 11.25 10.2427 11.25 9C11.25 7.75732 10.2427 6.75 9 6.75C7.75732 6.75 6.75 7.75732 6.75 9C6.75 10.2427 7.75732 11.25 9 11.25Z" stroke="black" stroke-linecap="round" stroke-linejoin="round"/>
</svg>
