<svg width="18" height="12" viewBox="0 0 18 12" fill="none" xmlns="http://www.w3.org/2000/svg">
<path d="M9.06252 11.7227C6.38024 11.7227 3.84197 10.5862 1.91375 8.52278C1.67665 8.26933 1.69049 7.87123 1.94393 7.63414C2.19801 7.39704 2.59548 7.41088 2.83321 7.66432C4.52056 9.47054 6.73243 10.4648 9.06252 10.4648C12.058 10.4648 14.8164 8.82654 16.5088 6.0625C14.817 3.29846 12.058 1.66016 9.06252 1.66016C5.95698 1.66016 3.10552 3.42172 1.43389 6.37255C1.26283 6.67505 0.877938 6.78197 0.576692 6.60965C0.274188 6.43859 0.168532 6.05495 0.339594 5.75245C2.237 2.40227 5.49851 0.402344 9.06252 0.402344C12.6272 0.402344 15.888 2.40227 17.7855 5.75245C17.8943 5.94489 17.8943 6.18011 17.7855 6.37192C15.888 9.72211 12.6272 11.7227 9.06252 11.7227Z" fill="#8E8E8E"/>
<path d="M9.0625 9.20703C7.32861 9.20703 5.91797 7.79639 5.91797 6.0625C5.91797 4.32861 7.32861 2.91797 9.0625 2.91797C10.7964 2.91797 12.207 4.32861 12.207 6.0625C12.207 7.79639 10.7964 9.20703 9.0625 9.20703ZM9.0625 4.17578C8.02229 4.17578 7.17578 5.02229 7.17578 6.0625C7.17578 7.10271 8.02229 7.94922 9.0625 7.94922C10.1027 7.94922 10.9492 7.10271 10.9492 6.0625C10.9492 5.02229 10.1027 4.17578 9.0625 4.17578Z" fill="#8E8E8E"/>
</svg>
