<svg width="16" height="16" viewBox="0 0 16 16" fill="none" xmlns="http://www.w3.org/2000/svg">
<path d="M8.00004 1C6.64866 1.00225 5.33157 1.42565 4.23202 2.21129C3.13247 2.99694 2.30513 4.10576 1.8651 5.3835C1.42507 6.66124 1.39423 8.04436 1.77687 9.34045C2.15951 10.6365 2.9366 11.7811 4.00004 12.615V14.5C4.0002 14.5886 4.02389 14.6756 4.06869 14.752C4.1135 14.8284 4.17781 14.8916 4.25504 14.935C4.32977 14.9774 4.41415 14.9997 4.50004 15C4.58979 15 4.67787 14.9758 4.75504 14.93L6.58004 13.835C7.04561 13.9435 7.52199 13.9989 8.00004 14C9.72395 14 11.3773 13.3152 12.5962 12.0962C13.8152 10.8772 14.5 9.22391 14.5 7.5C14.5 5.77609 13.8152 4.12279 12.5962 2.90381C11.3773 1.68482 9.72395 1 8.00004 1ZM8.00004 13C7.53432 12.998 7.0707 12.9375 6.62004 12.82C6.5562 12.8037 6.48977 12.8001 6.42455 12.8096C6.35934 12.819 6.29663 12.8412 6.24004 12.875L5.00004 13.615V12.365C4.99968 12.2857 4.98044 12.2076 4.94393 12.1372C4.90741 12.0667 4.85466 12.006 4.79004 11.96C3.72719 11.193 2.97318 10.0717 2.66386 8.79801C2.35453 7.52434 2.51023 6.18207 3.1029 5.01303C3.69556 3.84399 4.68623 2.92502 5.89643 2.4217C7.10663 1.91838 8.4568 1.86379 9.70368 2.26776C10.9506 2.67174 12.0122 3.50772 12.6973 4.6251C13.3824 5.74248 13.646 7.0678 13.4405 8.36228C13.235 9.65677 12.574 10.8353 11.5765 11.6856C10.5791 12.5359 9.31074 13.002 8.00004 13Z" fill="#555555"/>
<path d="M10.7 6.60027L9.045 7.84027L7.355 6.14527C7.26963 6.05999 7.1563 6.00847 7.03592 6.0002C6.91554 5.99193 6.79623 6.02747 6.7 6.10027L4.7 7.60027C4.64747 7.63966 4.60322 7.68902 4.56976 7.74552C4.53631 7.80202 4.51431 7.86456 4.50503 7.92956C4.48627 8.06083 4.52044 8.19418 4.6 8.30027C4.67957 8.40635 4.79802 8.47649 4.92929 8.49524C5.06057 8.514 5.19392 8.47983 5.3 8.40027L6.955 7.16027L8.645 8.85527C8.73037 8.94054 8.8437 8.99206 8.96408 9.00033C9.08446 9.0086 9.20377 8.97306 9.3 8.90027L11.3 7.40027C11.3525 7.36087 11.3968 7.31151 11.4302 7.25501C11.4637 7.19851 11.4857 7.13598 11.495 7.07098C11.5043 7.00598 11.5007 6.93978 11.4844 6.87618C11.4681 6.81257 11.4394 6.7528 11.4 6.70027C11.3606 6.64774 11.3112 6.60348 11.2547 6.57003C11.1982 6.53658 11.1357 6.51458 11.0707 6.50529C11.0057 6.49601 10.9395 6.49961 10.8759 6.51591C10.8123 6.53221 10.7525 6.56087 10.7 6.60027Z" fill="#555555"/>
</svg>
