<svg width="14" height="14" viewBox="0 0 14 14" fill="none" xmlns="http://www.w3.org/2000/svg">
<path d="M11.0597 0.40625H2.94279C2.27006 0.40625 1.62488 0.673492 1.14918 1.14918C0.673492 1.62488 0.40625 2.27006 0.40625 2.94279V11.0597C0.40625 11.7324 0.673492 12.3776 1.14918 12.8533C1.62488 13.329 2.27006 13.5962 2.94279 13.5962H11.0597C11.7324 13.5962 12.3776 13.329 12.8533 12.8533C13.329 12.3776 13.5962 11.7324 13.5962 11.0597V2.94279C13.5962 2.27006 13.329 1.62488 12.8533 1.14918C12.3776 0.673492 11.7324 0.40625 11.0597 0.40625ZM12.5816 11.0597C12.5816 11.4633 12.4213 11.8505 12.1359 12.1359C11.8505 12.4213 11.4633 12.5816 11.0597 12.5816H7.50856V8.01586H9.53779C9.67233 8.01586 9.80137 7.96242 9.89651 7.86728C9.99165 7.77214 10.0451 7.6431 10.0451 7.50856C10.0451 7.37401 9.99165 7.24497 9.89651 7.14984C9.80137 7.0547 9.67233 7.00125 9.53779 7.00125H7.50856V5.98663C7.50856 5.71754 7.61545 5.45947 7.80573 5.26919C7.99601 5.07892 8.25408 4.97202 8.52317 4.97202H9.53779C9.67233 4.97202 9.80137 4.91857 9.89651 4.82343C9.99165 4.72829 10.0451 4.59926 10.0451 4.46471C10.0451 4.33016 9.99165 4.20113 9.89651 4.10599C9.80137 4.01085 9.67233 3.9574 9.53779 3.9574H8.52317C7.98499 3.9574 7.46884 4.1712 7.08829 4.55175C6.70774 4.93231 6.49394 5.44845 6.49394 5.98663V7.00125H4.97202C4.83747 7.00125 4.70844 7.0547 4.6133 7.14984C4.51816 7.24497 4.46471 7.37401 4.46471 7.50856C4.46471 7.6431 4.51816 7.77214 4.6133 7.86728C4.70844 7.96242 4.83747 8.01586 4.97202 8.01586H6.49394V12.5816H2.94279C2.53915 12.5816 2.15204 12.4213 1.86663 12.1359C1.58121 11.8505 1.42087 11.4633 1.42087 11.0597V2.94279C1.42087 2.53915 1.58121 2.15204 1.86663 1.86663C2.15204 1.58121 2.53915 1.42087 2.94279 1.42087H11.0597C11.4633 1.42087 11.8505 1.58121 12.1359 1.86663C12.4213 2.15204 12.5816 2.53915 12.5816 2.94279V11.0597Z" fill="#555555"/>
</svg>
