<svg width="20" height="21" viewBox="0 0 20 21" fill="none" xmlns="http://www.w3.org/2000/svg">
<path d="M10.3444 15.3985L14.2819 17.8985C14.7897 18.2188 15.4147 17.7422 15.2662 17.1563L14.1256 12.6719C14.0948 12.5476 14.0997 12.4171 14.1398 12.2955C14.1798 12.1738 14.2535 12.066 14.3522 11.9844L17.8834 9.03908C18.3444 8.65627 18.11 7.88283 17.5084 7.84377L12.899 7.54689C12.7733 7.53958 12.6524 7.49578 12.5511 7.42086C12.4498 7.34594 12.3725 7.24314 12.3287 7.12502L10.61 2.79689C10.5645 2.67182 10.4816 2.56377 10.3726 2.48742C10.2636 2.41107 10.1337 2.37012 10.0006 2.37012C9.86751 2.37012 9.73764 2.41107 9.62863 2.48742C9.51961 2.56377 9.43673 2.67182 9.39123 2.79689L7.67248 7.12502C7.62868 7.24314 7.55141 7.34594 7.45013 7.42086C7.34885 7.49578 7.22794 7.53958 7.10217 7.54689L2.49279 7.84377C1.89123 7.88283 1.65686 8.65627 2.11779 9.03908L5.64904 11.9844C5.74774 12.066 5.82138 12.1738 5.86146 12.2955C5.90155 12.4171 5.90645 12.5476 5.87561 12.6719L4.82092 16.8281C4.64123 17.5313 5.39123 18.1016 5.99279 17.7188L9.65686 15.3985C9.7596 15.3331 9.87885 15.2984 10.0006 15.2984C10.1224 15.2984 10.2416 15.3331 10.3444 15.3985V15.3985Z" stroke="#333333" stroke-width="1.2" stroke-linecap="round" stroke-linejoin="round"/>
</svg>
