<svg width="27" height="28" viewBox="0 0 27 28" fill="none" xmlns="http://www.w3.org/2000/svg">
<path d="M5.93991 8.05981H3.77991C3.35026 8.05981 2.93821 8.23049 2.6344 8.5343C2.33059 8.83811 2.15991 9.25016 2.15991 9.67981V18.3198C2.15991 18.7495 2.33059 19.1615 2.6344 19.4653C2.93821 19.7691 3.35026 19.9398 3.77991 19.9398H5.93991C6.08313 19.9398 6.22048 19.8829 6.32175 19.7817C6.42302 19.6804 6.47991 19.543 6.47991 19.3998V8.59981C6.47991 8.4566 6.42302 8.31925 6.32175 8.21798C6.22048 8.11671 6.08313 8.05981 5.93991 8.05981ZM5.39991 18.8598H3.77991C3.6367 18.8598 3.49934 18.8029 3.39807 18.7017C3.2968 18.6004 3.23991 18.463 3.23991 18.3198V9.67981C3.23991 9.5366 3.2968 9.39925 3.39807 9.29798C3.49934 9.19671 3.6367 9.13981 3.77991 9.13981H5.39991V18.8598Z" fill="url(#paint0_linear_987_197301)"/>
<path d="M20.1848 21.02H11.3396V19.94H20.1848C20.6032 19.9402 21.008 19.7914 21.3266 19.5203C21.6452 19.2491 21.8569 18.8734 21.9236 18.4604L23.3168 10.1228C23.3607 9.87123 23.3493 9.61314 23.2835 9.36642C23.2176 9.11971 23.0989 8.89026 22.9355 8.69401C22.7722 8.49776 22.5681 8.3394 22.3374 8.22992C22.1067 8.12044 21.8549 8.06245 21.5996 8.05998H13.4996V6.97998H21.5996C22.0129 6.98072 22.4211 7.0713 22.7959 7.24545C23.1707 7.41959 23.5031 7.67313 23.7702 7.98851C24.0373 8.30389 24.2327 8.67357 24.3427 9.07193C24.4528 9.47029 24.4749 9.88781 24.4076 10.2956L22.9928 18.644C22.8826 19.3087 22.5397 19.9127 22.0254 20.3479C21.511 20.7832 20.8586 21.0214 20.1848 21.02Z" fill="url(#paint1_linear_987_197301)"/>
<path d="M11.3404 21.0199H10.2604C9.83073 21.0199 9.41868 20.8492 9.11487 20.5454C8.81106 20.2416 8.64038 19.8296 8.64038 19.3999V7.51991C8.64145 7.43779 8.65985 7.35683 8.69438 7.28231L10.8544 2.96231C10.8999 2.87221 10.9693 2.79635 11.055 2.74302C11.1407 2.68969 11.2394 2.66094 11.3404 2.65991H13.5004C13.6436 2.65991 13.7809 2.7168 13.8822 2.81807C13.9835 2.91934 14.0404 3.0567 14.0404 3.19991V8.05991H12.9604V3.73991H11.6752L9.72038 7.64951V19.3999C9.72038 19.5431 9.77727 19.6805 9.87854 19.7818C9.97981 19.883 10.1172 19.9399 10.2604 19.9399H11.3404V21.0199Z" fill="url(#paint2_linear_987_197301)"/>
<defs>
<linearGradient id="paint0_linear_987_197301" x1="4.31991" y1="8.05981" x2="4.31991" y2="19.9398" gradientUnits="userSpaceOnUse">
<stop stop-color="#0033EA"/>
<stop offset="1" stop-color="#8A0074"/>
</linearGradient>
<linearGradient id="paint1_linear_987_197301" x1="17.8926" y1="6.97998" x2="17.8926" y2="21.02" gradientUnits="userSpaceOnUse">
<stop stop-color="#0033EA"/>
<stop offset="1" stop-color="#8A0074"/>
</linearGradient>
<linearGradient id="paint2_linear_987_197301" x1="11.3404" y1="2.65991" x2="11.3404" y2="21.0199" gradientUnits="userSpaceOnUse">
<stop stop-color="#0033EA"/>
<stop offset="1" stop-color="#8A0074"/>
</linearGradient>
</defs>
</svg>
