<svg width="18" height="18" viewBox="0 0 18 18" fill="none" xmlns="http://www.w3.org/2000/svg">
<g clip-path="url(#clip0_3411_24914)">
<path d="M7.5 11.25H16.5V12H7.5V11.25ZM4.5 9H6V7.5H4.5V9ZM7.5 8.25H16.5V7.5H7.5V8.25ZM4.5 12.75H6V11.25H4.5V12.75ZM7.5 15.75H16.5V15H7.5V15.75ZM4.5 16.5H6V15H4.5V16.5ZM17.25 2.25V4.5C17.2498 4.69885 17.1707 4.8895 17.0301 5.03011C16.8895 5.17072 16.6989 5.2498 16.5 5.25H1.5C1.30115 5.2498 1.1105 5.17072 0.969889 5.03011C0.82928 4.8895 0.750199 4.69885 0.75 4.5V2.25C0.750199 2.05115 0.82928 1.8605 0.969889 1.71989C1.1105 1.57928 1.30115 1.5002 1.5 1.5H16.5C16.6989 1.5002 16.8895 1.57928 17.0301 1.71989C17.1707 1.8605 17.2498 2.05115 17.25 2.25ZM16.5007 4.5L16.5 2.25H1.5V4.5H16.5007Z" fill="#645DF6"/>
</g>
<defs>
<clipPath id="clip0_3411_24914">
<rect width="18" height="18" fill="white"/>
</clipPath>
</defs>
</svg>
