<svg width="20" height="20" viewBox="0 0 20 20" fill="none" xmlns="http://www.w3.org/2000/svg">
<path d="M4.08984 10.3883V3.88827C4.08984 3.73155 4.1521 3.58125 4.26292 3.47044C4.37373 3.35962 4.52403 3.29736 4.68075 3.29736H11.7717L15.908 7.43373V10.3883" stroke="#645DF6" stroke-width="1.2" stroke-linecap="round" stroke-linejoin="round"/>
<path d="M11.7715 3.29736V7.43373H15.9078" stroke="#645DF6" stroke-width="1.2" stroke-linecap="round" stroke-linejoin="round"/>
<path d="M4.08984 15.7064H5.27166C5.5851 15.7064 5.8857 15.5819 6.10733 15.3603C6.32897 15.1386 6.45348 14.838 6.45348 14.5246C6.45348 14.2112 6.32897 13.9106 6.10733 13.6889C5.8857 13.4673 5.5851 13.3428 5.27166 13.3428H4.08984V16.8882" stroke="#645DF6" stroke-width="1.2" stroke-linecap="round" stroke-linejoin="round"/>
<path d="M16.4998 13.3428H14.4316V16.8882" stroke="#645DF6" stroke-width="1.2" stroke-linecap="round" stroke-linejoin="round"/>
<path d="M16.2044 15.4106H14.4316" stroke="#645DF6" stroke-width="1.2" stroke-linecap="round" stroke-linejoin="round"/>
<path d="M9.99893 16.8882C10.4691 16.8882 10.92 16.7015 11.2524 16.369C11.5849 16.0366 11.7717 15.5857 11.7717 15.1155C11.7717 14.6453 11.5849 14.1944 11.2524 13.862C10.92 13.5295 10.4691 13.3428 9.99893 13.3428H8.96484V16.8882H9.99893Z" stroke="#645DF6" stroke-width="1.2" stroke-linecap="round" stroke-linejoin="round"/>
</svg>
