<svg width="20" height="22" viewBox="0 0 20 22" fill="none" xmlns="http://www.w3.org/2000/svg">
<path d="M14.3371 9.60657V5.62545C14.3371 5.5115 14.2845 5.40621 14.21 5.32292L9.74663 0.63594C9.66333 0.548309 9.54488 0.5 9.4266 0.5H2.34999C1.04355 0.5 0 1.56538 0 2.87198V16.2534C0 17.56 1.04355 18.6078 2.34999 18.6078H7.93591C8.99245 20.3616 10.913 21.5366 13.1007 21.5366C16.4241 21.5366 19.1381 18.8358 19.1381 15.508C19.1426 12.6011 17.0555 10.1722 14.3371 9.60657ZM9.86507 2.039L12.8596 5.19131H10.9173C10.3385 5.19131 9.86507 4.71351 9.86507 4.13476V2.039ZM2.34999 17.7309C1.53017 17.7309 0.876952 17.0732 0.876952 16.2534V2.87198C0.876952 2.04767 1.53017 1.37695 2.34999 1.37695H8.98812V4.13476C8.98812 5.20014 9.85191 6.06826 10.9173 6.06826H13.4602V9.49245C13.3287 9.48812 13.2235 9.47496 13.1095 9.47496C11.5793 9.47496 10.1719 10.0625 9.1109 10.9833H3.54264C3.30141 10.9833 3.10416 11.1806 3.10416 11.4216C3.10416 11.6628 3.30141 11.8601 3.54264 11.8601H8.29542C7.98405 12.2986 7.72533 12.737 7.52375 13.2193H3.54264C3.30141 13.2193 3.10416 13.4166 3.10416 13.6578C3.10416 13.8989 3.30141 14.0963 3.54264 14.0963H7.23871C7.12909 14.5348 7.07211 15.0214 7.07211 15.508C7.07211 16.2972 7.22555 17.0777 7.50176 17.7354H2.34999V17.7309ZM13.1052 20.6641C10.2641 20.6641 7.9534 18.3535 7.9534 15.5124C7.9534 12.6712 10.2596 10.3606 13.1052 10.3606C15.9506 10.3606 18.2568 12.6712 18.2568 15.5124C18.2568 18.3535 15.9463 20.6641 13.1052 20.6641Z" fill="url(#paint0_linear_987_197228)"/>
<path d="M3.54297 9.66357H7.98439C8.22561 9.66357 8.42286 9.46616 8.42286 9.2251C8.42286 8.98387 8.22561 8.78662 7.98439 8.78662H3.54297C3.30174 8.78662 3.10449 8.98387 3.10449 9.2251C3.10449 9.46616 3.30174 9.66357 3.54297 9.66357Z" fill="url(#paint1_linear_987_197228)"/>
<path d="M13.4159 12.2765C13.3326 12.1889 13.2187 12.1362 13.0959 12.1362C12.9731 12.1362 12.8592 12.1889 12.7759 12.2765L10.2065 15.0343C10.0399 15.2097 10.053 15.4903 10.2285 15.6525C10.4039 15.8191 10.6888 15.806 10.8554 15.6307L12.6706 13.6884V18.4762C12.6706 18.7174 12.8678 18.9146 13.109 18.9146C13.3501 18.9146 13.5475 18.7174 13.5475 18.4762V13.6884L15.3494 15.6307C15.4372 15.7227 15.5512 15.771 15.6696 15.771C15.7747 15.771 15.88 15.7315 15.9676 15.6525C16.1431 15.486 16.1562 15.2097 15.9896 15.0343L13.4159 12.2765Z" fill="url(#paint2_linear_987_197228)"/>
<defs>
<linearGradient id="paint0_linear_987_197228" x1="9.56904" y1="0.5" x2="9.56904" y2="21.5366" gradientUnits="userSpaceOnUse">
<stop stop-color="#0033EA"/>
<stop offset="1" stop-color="#8A0074"/>
</linearGradient>
<linearGradient id="paint1_linear_987_197228" x1="5.76368" y1="8.78662" x2="5.76368" y2="9.66357" gradientUnits="userSpaceOnUse">
<stop stop-color="#0033EA"/>
<stop offset="1" stop-color="#8A0074"/>
</linearGradient>
<linearGradient id="paint2_linear_987_197228" x1="13.0981" y1="12.1362" x2="13.0981" y2="18.9146" gradientUnits="userSpaceOnUse">
<stop stop-color="#0033EA"/>
<stop offset="1" stop-color="#8A0074"/>
</linearGradient>
</defs>
</svg>
