<svg width="13" height="13" viewBox="0 0 13 13" fill="none" xmlns="http://www.w3.org/2000/svg">
<path d="M8.53125 11.375H10.1562C10.264 11.375 10.3673 11.3322 10.4435 11.256C10.5197 11.1798 10.5625 11.0765 10.5625 10.9688V4.46875L7.71875 1.625H2.84375C2.73601 1.625 2.63267 1.6678 2.55649 1.74399C2.4803 1.82017 2.4375 1.92351 2.4375 2.03125V6.5" stroke="white" stroke-linecap="round" stroke-linejoin="round"/>
<path d="M6.5 9.14062H2.84375V11.375H6.5V9.14062Z" stroke="white" stroke-linecap="round" stroke-linejoin="round"/>
<path d="M3.65625 9.14062V8.53125C3.65625 8.26189 3.76325 8.00356 3.95372 7.81309C4.14419 7.62263 4.40251 7.51563 4.67188 7.51562C4.94124 7.51563 5.19956 7.62263 5.39003 7.81309C5.5805 8.00356 5.6875 8.26189 5.6875 8.53125V9.14062" stroke="white" stroke-linecap="round" stroke-linejoin="round"/>
</svg>
