<svg width="17" height="17" viewBox="0 0 17 17" fill="none" xmlns="http://www.w3.org/2000/svg">
<path d="M16 8.032L8.90835 14.7203C8.03959 15.5397 6.86124 16 5.6326 16C4.40396 16 3.22564 15.5397 2.35686 14.7203C1.48807 13.901 1 12.7896 1 11.6309C1 10.4721 1.48807 9.36082 2.35686 8.54147L9.44853 1.85312C10.0277 1.30687 10.8133 1 11.6324 1C12.4514 1 13.237 1.30687 13.8162 1.85312C14.3954 2.39937 14.7208 3.14024 14.7208 3.91274C14.7208 4.68525 14.3954 5.42613 13.8162 5.97237L6.7168 12.6606C6.4272 12.9338 6.03443 13.0873 5.62489 13.0873C5.21534 13.0873 4.82256 12.9338 4.53297 12.6606C4.24338 12.3876 4.08068 12.0171 4.08068 11.6309C4.08068 11.2446 4.24338 10.8741 4.53297 10.6011L11.0844 4.42948" stroke="#555555" stroke-width="1.5" stroke-linecap="round" stroke-linejoin="round"/>
</svg>
