<svg width="14" height="16" viewBox="0 0 14 16" fill="none" xmlns="http://www.w3.org/2000/svg">
<path d="M9.24982 4.62483L3.39279 10.5803C3.19888 10.7943 3.0947 11.0747 3.10181 11.3634C3.10891 11.6521 3.22677 11.927 3.43097 12.1312C3.63517 12.3354 3.91008 12.4532 4.19877 12.4603C4.48747 12.4674 4.76785 12.3633 4.98185 12.1694L11.9639 5.08889C12.3517 4.66089 12.5601 4.10014 12.5458 3.52274C12.5316 2.94535 12.2959 2.39554 11.8875 1.98714C11.4791 1.57873 10.9293 1.34302 10.3519 1.32881C9.77451 1.31459 9.21376 1.52296 8.78575 1.91077L1.80372 8.99124C1.17155 9.6234 0.816406 10.4808 0.816406 11.3748C0.816406 12.2689 1.17155 13.1263 1.80372 13.7584C2.43589 14.3906 3.2933 14.7457 4.18732 14.7457C5.08134 14.7457 5.93874 14.3906 6.57091 13.7584L12.3436 7.99983" stroke="black" stroke-width="1.5" stroke-linecap="round" stroke-linejoin="round"/>
</svg>
