<svg width="40" height="40" viewBox="0 0 40 40" fill="none" xmlns="http://www.w3.org/2000/svg">
<g clip-path="url(#clip0_42_31584)">
<path d="M24.6666 14.6667H7.99992C7.63192 14.6667 7.33325 14.9654 7.33325 15.3334C7.33325 15.7014 7.63192 16.0001 7.99992 16.0001H24.6666C25.0346 16.0001 25.3333 15.7014 25.3333 15.3334C25.3333 14.9654 25.0346 14.6667 24.6666 14.6667Z" fill="#645DF6"/>
<path d="M7.99992 10.6666H14.6666C15.0346 10.6666 15.3333 10.3679 15.3333 9.99992C15.3333 9.63192 15.0346 9.33325 14.6666 9.33325H7.99992C7.63192 9.33325 7.33325 9.63192 7.33325 9.99992C7.33325 10.3679 7.63192 10.6666 7.99992 10.6666Z" fill="#645DF6"/>
<path d="M25.3333 20.6667C25.3333 20.2987 25.0346 20 24.6666 20H7.99992C7.63192 20 7.33325 20.2987 7.33325 20.6667C7.33325 21.0347 7.63192 21.3333 7.99992 21.3333H24.6666C25.0346 21.3333 25.3333 21.0347 25.3333 20.6667Z" fill="#645DF6"/>
<path d="M19.9999 25.9999C19.9999 25.6319 19.7013 25.3333 19.3333 25.3333H7.99992C7.63192 25.3333 7.33325 25.6319 7.33325 25.9999C7.33325 26.3679 7.63192 26.6666 7.99992 26.6666H19.3333C19.7013 26.6666 19.9999 26.3679 19.9999 25.9999Z" fill="#645DF6"/>
<path d="M7.99992 30.6667C7.63192 30.6667 7.33325 30.9654 7.33325 31.3334C7.33325 31.7014 7.63192 32.0001 7.99992 32.0001H17.3333C17.7013 32.0001 17.9999 31.7014 17.9999 31.3334C17.9999 30.9654 17.7013 30.6667 17.3333 30.6667H7.99992Z" fill="#645DF6"/>
<path d="M1.99996 1.33333H21.3333V10.6667H30.6666V22H32V9.724L22.276 0H0.666626V40H21.3333V38.6667H1.99996V1.33333ZM22.6666 2.276L29.724 9.33333H22.6666V2.276Z" fill="#645DF6"/>
<path d="M23.3333 24V40H39.3333V24H23.3333ZM37.9999 38.6667H31.9999V30.276L34.8619 33.138L35.8046 32.1953L31.3333 27.724L26.8619 32.1953L27.8046 33.138L30.6666 30.276V38.6667H24.6666V25.3333H37.9999V38.6667Z" fill="#645DF6"/>
</g>
<defs>
<clipPath id="clip0_42_31584">
<rect width="40" height="40" fill="white"/>
</clipPath>
</defs>
</svg>
