<svg width="15" height="16" viewBox="0 0 15 16" fill="none" xmlns="http://www.w3.org/2000/svg">
<g id="FileText">
<path id="Vector" d="M11.7188 13.625H3.28125C3.15693 13.625 3.0377 13.5756 2.94979 13.4877C2.86189 13.3998 2.8125 13.2806 2.8125 13.1562V2.84375C2.8125 2.71943 2.86189 2.6002 2.94979 2.51229C3.0377 2.42439 3.15693 2.375 3.28125 2.375H8.90625L12.1875 5.65625V13.1562C12.1875 13.2806 12.1381 13.3998 12.0502 13.4877C11.9623 13.5756 11.8431 13.625 11.7188 13.625Z" stroke="url(#paint0_linear_137_1724)" stroke-width="1.2" stroke-linecap="round" stroke-linejoin="round"/>
<path id="Vector_2" d="M8.90625 2.375V5.65625H12.1875" stroke="url(#paint1_linear_137_1724)" stroke-linecap="round" stroke-linejoin="round"/>
<path id="Vector_3" d="M5.625 8.46875H9.375" stroke="url(#paint2_linear_137_1724)" stroke-width="1.2" stroke-linecap="round" stroke-linejoin="round"/>
<path id="Vector_4" d="M5.625 10.3438H9.375" stroke="url(#paint3_linear_137_1724)" stroke-width="1.2" stroke-linecap="round" stroke-linejoin="round"/>
</g>
<defs>
<linearGradient id="paint0_linear_137_1724" x1="7.5" y1="2.375" x2="7.5" y2="13.625" gradientUnits="userSpaceOnUse">
<stop stop-color="#0033EA"/>
<stop offset="1" stop-color="#8A0074"/>
</linearGradient>
<linearGradient id="paint1_linear_137_1724" x1="10.5469" y1="2.375" x2="10.5469" y2="5.65625" gradientUnits="userSpaceOnUse">
<stop stop-color="#0033EA"/>
<stop offset="1" stop-color="#8A0074"/>
</linearGradient>
<linearGradient id="paint2_linear_137_1724" x1="7.5" y1="8.46875" x2="7.5" y2="9.46875" gradientUnits="userSpaceOnUse">
<stop stop-color="#0033EA"/>
<stop offset="1" stop-color="#8A0074"/>
</linearGradient>
<linearGradient id="paint3_linear_137_1724" x1="7.5" y1="10.3438" x2="7.5" y2="11.3438" gradientUnits="userSpaceOnUse">
<stop stop-color="#0033EA"/>
<stop offset="1" stop-color="#8A0074"/>
</linearGradient>
</defs>
</svg>
