<svg width="19" height="19" viewBox="0 0 19 19" fill="none" xmlns="http://www.w3.org/2000/svg">
<path d="M12.4688 16.625H4.15625C3.99878 16.625 3.84776 16.5624 3.73641 16.4511C3.62506 16.3397 3.5625 16.1887 3.5625 16.0312V5.34375C3.5625 5.18628 3.62506 5.03526 3.73641 4.92391C3.84776 4.81256 3.99878 4.75 4.15625 4.75H10.0938L13.0625 7.71875V16.0312C13.0625 16.1887 12.9999 16.3397 12.8886 16.4511C12.7772 16.5624 12.6262 16.625 12.4688 16.625Z" stroke="#645DF6" stroke-linecap="round" stroke-linejoin="round"/>
<path d="M5.9375 4.75V2.96875C5.9375 2.81128 6.00006 2.66026 6.11141 2.54891C6.22276 2.43756 6.37378 2.375 6.53125 2.375H12.4688L15.4375 5.34375V13.6562C15.4375 13.8137 15.3749 13.9647 15.2636 14.0761C15.1522 14.1874 15.0012 14.25 14.8438 14.25H13.0625" stroke="#645DF6" stroke-linecap="round" stroke-linejoin="round"/>
<path d="M6.53125 11.2812H10.0938" stroke="#645DF6" stroke-linecap="round" stroke-linejoin="round"/>
<path d="M6.53125 13.6562H10.0938" stroke="#645DF6" stroke-linecap="round" stroke-linejoin="round"/>
</svg>
