<svg width="36" height="36" viewBox="0 0 36 36" fill="none" xmlns="http://www.w3.org/2000/svg">
<path fill-rule="evenodd" clip-rule="evenodd" d="M18 32.625H10.125C9.51155 32.625 9 32.1236 9 31.5051V5.61989C9 5.01217 9.50145 4.5 10.12 4.5H21.375V10.1183C21.375 11.3776 22.3813 12.375 23.6227 12.375H28.125V31.5074C28.125 32.1244 27.6213 32.625 27 32.625H19.125V21.375L22.7812 25.0312L23.625 24.1875L18.5625 19.125L13.5 24.1875L14.3438 25.0312L18 21.375V32.625ZM21.9375 3.375H10.1281C8.88375 3.375 7.875 4.38563 7.875 5.63325V31.4918C7.875 32.7389 8.87729 33.75 10.1221 33.75H27.0029C28.2439 33.75 29.25 32.7395 29.25 31.5104V11.8125V11.25L22.5 3.375H21.9375ZM22.5 5.0625V10.1151C22.5 10.7419 23.007 11.25 23.6213 11.25H27.7874L22.5 5.0625Z" fill="#157EFB"/>
</svg>
