<svg width="370" height="249" viewBox="0 0 370 249" fill="none" xmlns="http://www.w3.org/2000/svg">
<path d="M78.7609 223.848C92.4997 214.628 95.8539 197.183 95.5603 181.453C95.511 178.826 95.844 176.064 94.6215 173.743C93.3986 171.421 90.4879 169.804 88.1026 170.874C86.1248 171.761 85.2329 174.016 84.1051 175.875C82.6049 178.347 80.3948 180.379 77.8117 181.661C76.1136 182.503 74.0219 183.001 72.3732 182.066C70.1108 180.783 69.8902 177.652 69.9475 175.04C70.0535 170.177 70.1591 165.312 70.2652 160.448C70.3219 157.838 70.3717 155.174 69.5913 152.683C68.8113 150.194 67.0402 147.865 64.5479 147.132C62.0561 146.399 58.9387 147.785 58.3714 150.331C58.1351 151.392 58.3364 152.498 58.2466 153.581C58.1568 154.662 57.6289 155.854 56.587 156.141C55.5328 156.431 54.4918 155.675 53.7168 154.9C51.0424 152.223 49.2526 148.801 47.5832 145.398C45.9132 141.996 44.2956 138.515 41.8768 135.603C39.458 132.691 36.0846 130.362 32.3214 130.094C28.5573 129.826 24.5075 132.073 23.4986 135.729C22.4868 139.394 24.5934 143.16 26.9017 146.174C30.3254 150.647 34.3974 154.617 38.9479 157.921C39.7683 158.518 40.6573 159.163 40.9597 160.134C41.5033 161.882 39.8147 163.587 38.0752 164.133C36.1038 164.75 33.9795 164.517 31.9248 164.726C29.8696 164.935 27.6333 165.799 26.8272 167.711C25.7093 170.364 27.9145 173.193 30.0985 175.058C34.4724 178.792 39.4876 181.766 44.8541 183.808C46.7786 184.541 48.8047 185.187 50.3444 186.56C51.8841 187.933 52.7893 190.292 51.8189 192.116C50.8471 193.943 48.4179 194.495 46.3967 194.091C44.3755 193.689 42.5783 192.569 40.6578 191.817C37.0633 190.409 32.3915 190.586 30.0279 193.651C28.4744 195.666 28.2968 198.502 29.0289 200.942C29.7605 203.383 31.2889 205.498 32.9164 207.453C38.606 214.285 45.9394 219.827 54.2807 222.838C62.622 225.849 70.3801 226.746 78.7609 223.848Z" fill="#EBEBEB"/>
<path d="M74.7831 213.94C72.572 205.974 69.4191 197.44 65.8143 188.624C64.9046 186.424 64.0057 184.25 63.1197 182.107C62.2312 179.969 61.3506 177.852 60.3595 175.832C58.3955 171.784 56.1967 168.041 53.9975 164.551C51.7982 161.06 49.5831 157.826 47.4899 154.816C45.3903 151.81 43.3799 149.045 41.4392 146.601C37.5724 141.7 33.9908 138.119 31.4314 135.758C30.1532 134.573 29.1325 133.686 28.4329 133.092C28.0925 132.807 27.8271 132.585 27.6342 132.423C27.4527 132.274 27.3535 132.205 27.3535 132.205C27.3535 132.205 27.4354 132.294 27.6081 132.454C27.795 132.622 28.0521 132.855 28.3821 133.152C29.0634 133.765 30.0678 134.67 31.3278 135.871C33.8517 138.263 37.3933 141.863 41.2221 146.775C43.1446 149.222 45.1377 151.993 47.224 155.003C49.3034 158.019 51.5056 161.256 53.6921 164.746C55.879 168.233 58.0645 171.969 60.0147 176.001C60.9984 178.013 61.8716 180.116 62.7605 182.259C63.6461 184.401 64.5435 186.574 65.4522 188.773C69.0545 197.583 72.2113 206.097 74.4358 214.039" fill="#E0E0E0"/>
<path d="M60.2621 175.792C60.2887 175.797 60.379 175.4 60.5191 174.68C60.6627 173.96 60.8393 172.912 61.0401 171.615C61.4446 169.02 61.8852 165.42 62.3617 161.448C62.8378 157.474 63.34 153.889 63.7993 151.311C64.0248 150.02 64.2206 148.978 64.3662 148.26C64.5072 147.541 64.5738 147.14 64.5472 147.133C64.5211 147.126 64.4051 147.516 64.2177 148.226C64.0257 148.935 63.7885 149.971 63.5275 151.259C62.9962 153.832 62.4491 157.423 61.9725 161.401C61.5058 165.339 61.0835 168.902 60.7663 171.577C60.606 172.822 60.4718 173.857 60.3687 174.656C60.2744 175.383 60.2355 175.788 60.2621 175.792Z" fill="#E0E0E0"/>
<path d="M26.5391 169.014C26.5386 169.028 26.6584 169.048 26.8864 169.076C27.1612 169.103 27.4902 169.137 27.8864 169.177C28.7541 169.26 30.0092 169.379 31.5558 169.577C34.649 169.946 38.9054 170.613 43.5665 171.556C48.228 172.509 52.4075 173.554 55.4079 174.402C56.9111 174.815 58.1178 175.183 58.9535 175.434C59.3349 175.547 59.6531 175.641 59.9175 175.719C60.1395 175.78 60.2579 175.806 60.2628 175.793C60.2668 175.78 60.1568 175.73 59.9432 175.644C59.6851 175.547 59.3748 175.429 59.0014 175.289C58.18 174.993 56.9827 174.583 55.4859 174.134C52.4988 173.216 48.3168 172.125 43.6444 171.17C38.9725 170.224 34.6968 169.599 31.5864 169.3C30.0329 169.138 28.7704 169.061 27.8977 169.024C27.4991 169.013 27.1681 169.004 26.8918 168.996C26.6614 168.995 26.5396 169 26.5391 169.014Z" fill="#E0E0E0"/>
<path d="M74.4177 213.306C74.4301 213.312 74.5085 213.171 74.6471 212.897C74.8005 212.583 74.9959 212.182 75.2376 211.688C75.7463 210.637 76.4458 209.098 77.286 207.186C78.9697 203.363 81.133 198.013 83.4457 192.077C85.7599 186.14 87.8803 180.779 89.4965 176.932C90.2976 175.046 90.9528 173.504 91.4288 172.383C91.6429 171.876 91.8156 171.466 91.9513 171.145C92.0672 170.86 92.122 170.707 92.1096 170.701C92.0973 170.696 92.0184 170.837 91.8797 171.112C91.7268 171.425 91.5315 171.826 91.2902 172.32C90.7811 173.371 90.083 174.91 89.2429 176.822C87.5586 180.645 85.3949 185.995 83.0816 191.934C80.7684 197.869 78.6476 203.229 77.0314 207.077C76.2302 208.962 75.5751 210.505 75.099 211.626C74.8849 212.132 74.7122 212.542 74.5766 212.865C74.4601 213.148 74.4054 213.301 74.4177 213.306Z" fill="#E0E0E0"/>
<path d="M29.6973 198.258C29.6939 198.271 29.8473 198.333 30.1428 198.439C30.4797 198.555 30.9114 198.702 31.4442 198.884C32.6233 199.28 34.2493 199.824 36.2379 200.49C40.2828 201.851 45.8481 203.8 51.9911 205.968C58.1365 208.136 63.7201 210.045 67.7905 211.339C69.826 211.987 71.4767 212.496 72.6242 212.826C73.1669 212.98 73.6055 213.104 73.9474 213.201C74.2517 213.282 74.4126 213.318 74.417 213.305C74.4214 213.292 74.267 213.23 73.9705 213.124C73.6341 213.009 73.2034 212.861 72.6696 212.679C71.491 212.284 69.8655 211.74 67.8764 211.074C63.8306 209.713 58.2653 207.763 52.1203 205.595C45.9773 203.427 40.3938 201.518 36.3238 200.225C34.2883 199.577 32.6371 199.068 31.4891 198.738C30.9469 198.584 30.5084 198.46 30.166 198.363C29.8626 198.282 29.7018 198.246 29.6973 198.258Z" fill="#E0E0E0"/>
<path d="M290.097 122.769L274.111 163.645L334.429 187.489L350.415 146.613L290.097 122.769Z" fill="#EBEBEB"/>
<path d="M350.435 147.177C350.442 147.196 350.175 147.306 349.661 147.498C349.091 147.704 348.34 147.975 347.403 148.314C345.372 149.019 342.537 150.003 339.056 151.213C331.933 153.626 322.182 156.929 311.382 160.587L311.154 160.665L311.034 160.454C310.942 160.294 310.842 160.121 310.743 159.947C305.018 149.882 299.838 140.774 296.05 134.115C294.218 130.837 292.725 128.166 291.656 126.253C291.171 125.359 290.782 124.643 290.488 124.101C290.226 123.606 290.098 123.341 290.115 123.33C290.133 123.32 290.296 123.565 290.59 124.042C290.909 124.57 291.329 125.267 291.855 126.139C292.963 128.028 294.511 130.668 296.411 133.907C300.237 140.544 305.47 149.621 311.253 159.652C311.352 159.826 311.452 160 311.543 160.16L311.195 160.027C322.017 156.433 331.787 153.189 338.925 150.819C342.43 149.684 345.286 148.76 347.331 148.098C348.283 147.803 349.045 147.566 349.623 147.387C350.15 147.23 350.429 147.157 350.435 147.177Z" fill="#E0E0E0"/>
<path d="M274.128 164.206C274.05 164.062 280.778 160.253 289.152 155.697C297.529 151.14 304.381 147.564 304.458 147.707C304.535 147.851 297.809 151.66 289.432 156.217C281.058 160.772 274.205 164.35 274.128 164.206Z" fill="#E0E0E0"/>
<path d="M324.709 155.123C324.865 155.077 327.172 162.411 329.861 171.503C332.551 180.598 334.604 188.007 334.449 188.053C334.293 188.1 331.987 180.767 329.297 171.672C326.608 162.58 324.554 155.17 324.709 155.123Z" fill="#E0E0E0"/>
<path d="M334.97 69.8743L299.424 85.4395L309.859 109.528L345.405 93.9628L334.97 69.8743Z" fill="#EBEBEB"/>
<path d="M335.217 70.1154C335.227 70.1208 335.161 70.281 335.025 70.5811C334.87 70.9105 334.667 71.344 334.412 71.8866C333.85 73.0482 333.065 74.6706 332.101 76.6621C330.103 80.7119 327.369 86.2557 324.34 92.3962L324.276 92.5257L324.137 92.488C324.031 92.4592 323.915 92.4279 323.8 92.3967C317.144 90.5739 311.122 88.9247 306.718 87.7184C304.564 87.1108 302.809 86.6158 301.552 86.2617C300.97 86.0901 300.505 85.9527 300.152 85.8485C299.833 85.7503 299.667 85.6928 299.67 85.6814C299.673 85.6694 299.845 85.7037 300.17 85.78C300.527 85.8678 300.999 85.9839 301.587 86.1292C302.851 86.4571 304.616 86.9154 306.782 87.4774C311.193 88.6573 317.225 90.2718 323.891 92.0554C324.007 92.0867 324.122 92.1179 324.228 92.1467L324.024 92.2385C327.09 86.1163 329.858 80.5894 331.879 76.5515C332.885 74.5809 333.704 72.9753 334.29 71.8261C334.569 71.2964 334.792 70.8723 334.961 70.5504C335.118 70.2597 335.206 70.1099 335.217 70.1154Z" fill="#E0E0E0"/>
<path d="M310.105 109.769C310.011 109.742 311.254 105.269 312.88 99.781C314.506 94.2912 315.899 89.8649 315.992 89.8927C316.086 89.9205 314.843 94.3919 313.217 99.8821C311.591 105.37 310.197 109.798 310.105 109.769Z" fill="#E0E0E0"/>
<path d="M327.678 84.4185C327.725 84.3327 331.786 86.4541 336.748 89.1558C341.712 91.859 345.698 94.1193 345.651 94.2051C345.605 94.2909 341.545 92.17 336.58 89.4673C331.618 86.7651 327.632 84.5043 327.678 84.4185Z" fill="#E0E0E0"/>
<path d="M344.287 224.07C344.287 224.142 272.966 224.199 185.007 224.199C97.0173 224.199 25.7109 224.141 25.7109 224.07C25.7109 223.999 97.0168 223.941 185.007 223.941C272.966 223.941 344.287 223.999 344.287 224.07Z" fill="#263238"/>
<path d="M287.008 222.104H83.038C79.0691 222.104 75.8516 218.869 75.8516 214.879V84.1608C75.8516 80.1705 79.0691 76.9355 83.038 76.9355H287.008C290.977 76.9355 294.194 80.1705 294.194 84.1608V214.879C294.194 218.869 290.977 222.104 287.008 222.104Z" fill="#263238"/>
<path d="M294.499 224.069H75.5011C70.6521 224.069 66.7207 220.117 66.7207 215.241V211.367H303.279V215.241C303.279 220.117 299.348 224.069 294.499 224.069Z" fill="#263238"/>
<path d="M287.723 82.7031H81.7129V205.296H287.723V82.7031Z" fill="#455A64"/>
<path d="M163.498 211.367L166.433 216.061H207.74L210.465 211.367H163.498Z" fill="#455A64"/>
<path d="M282.288 204.904H87.5698C86.6778 204.904 85.9551 204.177 85.9551 203.281V88.4769C85.9551 87.5802 86.6778 86.8535 87.5698 86.8535H282.289C283.18 86.8535 283.904 87.5801 283.904 88.4764V203.28C283.903 204.177 283.18 204.904 282.288 204.904Z" fill="#EBEBEB"/>
<path d="M283.903 95.5039H85.9551V204.905H283.903V95.5039Z" fill="#EBEBEB"/>
<path d="M102.189 91.4134C102.189 92.2913 101.481 93.0031 100.608 93.0031C99.7348 93.0031 99.0273 92.2913 99.0273 91.4134C99.0273 90.5355 99.7348 89.8242 100.608 89.8242C101.481 89.8242 102.189 90.5355 102.189 91.4134Z" fill="#455A64"/>
<path d="M92.609 91.4134C92.609 92.2913 91.9016 93.0031 91.0279 93.0031C90.1552 93.0031 89.4473 92.2913 89.4473 91.4134C89.4473 90.5355 90.1552 89.8242 91.0279 89.8242C91.9011 89.8242 92.609 90.5355 92.609 91.4134Z" fill="#455A64"/>
<path d="M97.2072 91.4134C97.2072 92.2913 96.4997 93.0031 95.6261 93.0031C94.7529 93.0031 94.0449 92.2913 94.0449 91.4134C94.0449 90.5355 94.7529 89.8242 95.6261 89.8242C96.4997 89.8242 97.2072 90.5355 97.2072 91.4134Z" fill="#455A64"/>
<path d="M292.319 211.367C292.319 211.446 243.857 211.509 184.09 211.509C124.303 211.509 75.8516 211.446 75.8516 211.367C75.8516 211.289 124.303 211.225 184.09 211.225C243.857 211.225 292.319 211.288 292.319 211.367Z" fill="#455A64"/>
<path d="M75.8064 212.964C75.804 212.968 75.7477 212.934 75.6392 212.863C75.5282 212.789 75.3679 212.682 75.1567 212.541C74.9436 212.395 74.6802 212.216 74.3669 212.002C74.0541 211.786 73.6826 211.546 73.2978 211.224C72.9051 210.912 72.4661 210.564 71.9821 210.179C71.5016 209.789 71.0181 209.314 70.471 208.826C69.3966 207.828 68.2372 206.588 67.033 205.108C64.6517 202.136 62.2195 198.053 60.5373 192.877C58.8881 187.708 57.9779 181.469 58.4904 174.638C58.7514 171.229 59.298 167.667 60.3325 164.076C61.3503 160.487 62.7893 156.837 64.889 153.395C65.406 152.53 65.9896 151.696 66.5949 150.871C67.2343 150.074 67.8786 149.27 68.5283 148.461C69.2155 147.683 69.9313 146.92 70.6398 146.141C71.365 145.377 72.1499 144.661 72.9111 143.911C76.0403 140.997 79.5612 138.341 83.3352 135.89C90.8906 130.976 99.4327 126.909 108.225 122.673C116.99 118.356 126.228 114.216 135.7 110.028C173.633 93.3257 208.351 79.0959 233.641 69.2161C246.277 64.2541 256.593 60.4721 263.727 57.879C267.301 56.6009 270.09 55.6485 271.977 54.9913C272.92 54.6689 273.64 54.4229 274.127 54.2558C274.368 54.1764 274.551 54.1164 274.678 54.0747C274.801 54.0355 274.864 54.0177 274.866 54.0222C274.867 54.0261 274.807 54.0524 274.686 54.1C274.562 54.1476 274.382 54.2161 274.145 54.3059C273.66 54.4839 272.946 54.7463 272.011 55.0895C270.129 55.772 267.36 56.7759 263.795 58.068C256.683 60.7186 246.39 64.5517 233.773 69.5564C208.522 79.521 173.832 93.8023 135.906 110.501C126.433 114.689 117.209 118.819 108.443 123.129C99.6443 127.359 91.1185 131.409 83.5917 136.289C79.832 138.723 76.3294 141.357 73.2179 144.244C72.4616 144.987 71.6812 145.696 70.9599 146.452C70.2559 147.224 69.5441 147.979 68.8613 148.748C68.2155 149.55 67.5752 150.345 66.9398 151.133C66.3404 151.947 65.7641 152.766 65.2511 153.619C63.1697 157.014 61.7326 160.628 60.7129 164.186C59.6764 167.746 59.1229 171.282 58.852 174.665C58.3197 181.448 59.1984 187.647 60.8101 192.79C62.4554 197.938 64.8446 202.008 67.1889 204.983C68.3744 206.465 69.5169 207.709 70.5756 208.715C71.1148 209.207 71.5914 209.686 72.0645 210.081C72.5416 210.471 72.9737 210.826 73.3605 211.142C73.7394 211.469 74.1044 211.715 74.4118 211.938C74.7186 212.16 74.9766 212.346 75.1858 212.497C75.3901 212.647 75.5455 212.762 75.653 212.841C75.7571 212.919 75.8084 212.961 75.8064 212.964Z" fill="#263238"/>
<path d="M266.574 37.6893L275.708 45.3034L274.865 54.0236L282.349 49.8403L290.32 55.5334L320.032 36.3496L266.574 37.6893Z" fill="#E8505B"/>
<g opacity="0.5">
<path d="M275.708 45.3031L319.226 36.3691L280.139 48.2627L274.865 54.0233L275.708 45.3031Z" fill="black"/>
</g>
<g opacity="0.8">
<path d="M280.139 48.2637L282.349 49.841L274.865 54.0242L280.139 48.2637Z" fill="black"/>
</g>
<path d="M146.313 184.504C146.313 184.504 146.281 184.296 146.238 183.908C146.195 183.504 146.135 182.936 146.057 182.203C145.904 180.694 145.682 178.511 145.4 175.725C144.85 170.13 144.062 162.117 143.102 152.359L143.295 152.519C130.194 153.781 113.708 155.369 95.8444 157.09C95.7971 157.142 96.2179 156.632 96.0403 156.852L96.0413 156.86L96.0427 156.877L96.0457 156.911L96.0521 156.978L96.0649 157.112L96.0901 157.381L96.1404 157.917L96.2415 158.987C96.3086 159.699 96.3752 160.409 96.4423 161.116C96.5755 162.53 96.7078 163.935 96.839 165.329C97.1009 168.116 97.3585 170.86 97.611 173.552C98.1142 178.935 98.5977 184.11 99.056 189.011L98.8355 188.828C112.787 187.538 124.626 186.444 132.999 185.67C137.18 185.295 140.494 184.998 142.785 184.792C143.91 184.695 144.784 184.62 145.397 184.568C145.683 184.545 145.905 184.528 146.076 184.515C146.229 184.504 146.309 184.5 146.313 184.504C146.318 184.507 146.246 184.518 146.101 184.536C145.937 184.555 145.722 184.579 145.447 184.61C144.845 184.674 143.986 184.763 142.88 184.88C140.602 185.11 137.307 185.443 133.15 185.863C124.75 186.689 112.871 187.857 98.8735 189.233L98.6717 189.253L98.6525 189.05C98.1858 184.15 97.6929 178.976 97.1804 173.594C96.9253 170.902 96.6653 168.158 96.4009 165.371C96.2692 163.977 96.136 162.572 96.0023 161.158C95.9357 160.451 95.8686 159.741 95.801 159.029L95.6999 157.96L95.6491 157.423L95.6239 157.155L95.6111 157.021L95.6047 156.954L95.6012 156.92L95.5997 156.903L95.5992 156.895C95.4202 157.108 95.8415 156.594 95.802 156.647C113.669 154.96 130.158 153.403 143.261 152.165L143.438 152.148L143.455 152.326C144.342 162.137 145.07 170.194 145.578 175.82C145.82 178.593 146.01 180.765 146.141 182.266C146.2 182.986 146.246 183.545 146.279 183.943C146.309 184.319 146.313 184.504 146.313 184.504Z" fill="#455A64"/>
<path d="M143.28 152.342C143.291 152.352 143.164 152.515 142.912 152.818C142.629 153.149 142.258 153.585 141.794 154.128C140.776 155.291 139.355 156.912 137.609 158.906C134.009 162.954 129.071 168.506 123.569 174.692L123.444 174.832L123.285 174.731C122.885 174.474 122.455 174.199 122.022 173.921C114.784 169.253 108.234 165.029 103.445 161.94C101.11 160.409 99.2059 159.161 97.8423 158.267C97.2148 157.844 96.7125 157.506 96.3312 157.249C95.9883 157.012 95.8122 156.881 95.8206 156.868C95.829 156.855 96.0209 156.961 96.3791 157.173C96.7713 157.412 97.2888 157.727 97.935 158.12C99.3169 158.985 101.246 160.193 103.613 161.675C108.42 164.735 114.994 168.921 122.259 173.545C122.692 173.823 123.123 174.099 123.523 174.355L123.24 174.394C128.782 168.244 133.755 162.725 137.381 158.7C139.17 156.744 140.626 155.154 141.669 154.014C142.157 153.493 142.549 153.077 142.847 152.759C143.12 152.476 143.268 152.332 143.28 152.342Z" fill="#455A64"/>
<path d="M270.856 138.262C270.856 138.262 270.889 138.111 270.962 137.835C271.039 137.547 271.148 137.142 271.289 136.62C271.582 135.548 272.007 133.995 272.549 132.013C273.649 128.039 275.225 122.347 277.144 115.415L277.234 115.576C267.938 112.944 256.241 109.632 243.566 106.043C243.52 106.066 243.943 105.83 243.763 105.933L243.761 105.939L243.758 105.951L243.751 105.975L243.738 106.022L243.711 106.117L243.657 106.308L243.55 106.688L243.337 107.447C243.195 107.952 243.054 108.456 242.912 108.957C242.63 109.96 242.35 110.956 242.072 111.945C241.515 113.922 240.967 115.867 240.43 117.776C239.353 121.593 238.318 125.263 237.338 128.738L237.235 128.553C247.12 131.393 255.508 133.803 261.44 135.508C264.399 136.367 266.745 137.048 268.366 137.518C269.162 137.752 269.779 137.934 270.212 138.061C270.414 138.122 270.571 138.17 270.69 138.206C270.798 138.239 270.854 138.258 270.856 138.262C270.858 138.266 270.807 138.254 270.702 138.228C270.586 138.197 270.433 138.156 270.236 138.104C269.807 137.986 269.196 137.819 268.408 137.604C266.79 137.153 264.447 136.502 261.493 135.68C255.528 134.004 247.094 131.634 237.155 128.841L237.012 128.801L237.052 128.656C238.026 125.18 239.055 121.508 240.125 117.69C240.66 115.78 241.207 113.834 241.762 111.857C242.039 110.868 242.319 109.872 242.601 108.868C242.742 108.367 242.883 107.863 243.025 107.358L243.238 106.599L243.345 106.219L243.398 106.028L243.425 105.933L243.438 105.885L243.445 105.862L243.448 105.85L243.45 105.844C243.271 105.942 243.695 105.702 243.654 105.729C256.322 109.341 268.013 112.675 277.304 115.325L277.43 115.36L277.394 115.486C275.41 122.435 273.782 128.141 272.645 132.125C272.079 134.086 271.635 135.623 271.328 136.685C271.179 137.194 271.063 137.588 270.981 137.869C270.902 138.134 270.856 138.262 270.856 138.262Z" fill="#455A64"/>
<path d="M277.268 115.45C277.273 115.46 277.143 115.538 276.891 115.678C276.61 115.829 276.241 116.027 275.78 116.275C274.777 116.799 273.377 117.53 271.656 118.428C268.125 120.237 263.282 122.717 257.885 125.481L257.762 125.544L257.68 125.432C257.474 125.15 257.253 124.846 257.03 124.541C253.31 119.417 249.944 114.78 247.483 111.389C246.29 109.718 245.317 108.356 244.62 107.381C244.303 106.924 244.048 106.559 243.855 106.281C243.683 106.028 243.597 105.891 243.606 105.885C243.615 105.878 243.719 106.002 243.908 106.243C244.113 106.511 244.384 106.864 244.722 107.306C245.439 108.266 246.44 109.608 247.668 111.252C250.149 114.629 253.542 119.246 257.291 124.348C257.514 124.653 257.736 124.957 257.942 125.239L257.738 125.19C263.153 122.461 268.012 120.013 271.555 118.227C273.295 117.366 274.71 116.667 275.725 116.166C276.197 115.94 276.575 115.759 276.863 115.621C277.124 115.5 277.263 115.441 277.268 115.45Z" fill="#455A64"/>
<path d="M99.7337 100.441C99.7337 100.441 102.055 98.5513 105.652 104.221C109.249 109.89 110.725 113.218 110.725 113.218C110.725 113.218 111.644 114.39 112.419 113.49C113.194 112.59 114.141 110.159 115.632 110.435C117.178 110.722 117.837 112.362 117.789 114.871C117.74 117.38 117.836 122.882 117.846 123.379C117.857 123.868 118.202 124.555 118.827 124.027C119.453 123.499 122.893 118.806 125.01 120.581C127.127 122.356 125.85 129.324 125.725 130.088C125.6 130.853 125.776 131.157 126.145 131.307C126.515 131.457 127.524 129.771 128.556 128.476C129.589 127.182 131.012 125.864 132.148 126.99C133.284 128.116 134.1 133.173 130.079 141.905L127.953 145.828L123.493 146.012C113.924 145.821 109.76 142.87 109.251 141.35C108.741 139.829 110.543 139.121 112.153 138.754C113.763 138.388 115.712 138.215 115.74 137.815C115.768 137.414 115.573 137.123 114.834 136.901C114.096 136.679 107.306 134.781 106.647 132.09C105.987 129.4 111.69 128.345 112.436 128.011C113.182 127.677 112.718 127.064 112.286 126.841C111.846 126.614 106.968 124.118 104.704 123.063C102.439 122.007 101.261 120.694 101.682 119.17C102.089 117.702 104.676 117.911 105.82 117.605C106.965 117.298 106.319 115.954 106.319 115.954C106.319 115.954 103.99 113.162 100.496 107.428C97.0027 101.693 99.7831 100.405 99.7831 100.405" fill="#E8505B"/>
<path d="M102.963 105.514C102.963 105.514 102.983 105.557 103.029 105.638C103.08 105.723 103.149 105.842 103.238 105.994C103.428 106.312 103.702 106.77 104.053 107.357C104.762 108.54 105.801 110.244 107.093 112.345C109.674 116.546 113.289 122.32 117.303 128.683C121.318 135.048 124.948 140.813 127.552 145C128.85 147.091 129.901 148.784 130.631 149.961C130.993 150.542 131.275 150.995 131.47 151.309C131.565 151.458 131.638 151.574 131.692 151.658C131.742 151.736 131.772 151.774 131.772 151.774C131.772 151.774 131.751 151.731 131.705 151.65C131.655 151.564 131.586 151.446 131.496 151.294C131.306 150.977 131.033 150.518 130.682 149.931C129.973 148.748 128.934 147.044 127.643 144.944C125.061 140.743 121.446 134.968 117.431 128.603C113.417 122.24 109.788 116.476 107.183 112.289C105.886 110.198 104.835 108.505 104.103 107.328C103.742 106.747 103.46 106.293 103.264 105.979C103.17 105.831 103.096 105.715 103.043 105.631C102.992 105.552 102.963 105.514 102.963 105.514Z" fill="#263238"/>
<path d="M114.445 113.889C114.434 113.887 114.405 113.998 114.36 114.201C114.314 114.403 114.257 114.698 114.189 115.063C114.056 115.794 113.898 116.807 113.746 117.929C113.6 119.033 113.469 120.031 113.367 120.802C113.321 121.144 113.281 121.434 113.248 121.672C113.22 121.877 113.208 121.992 113.219 121.994C113.229 121.996 113.259 121.885 113.306 121.682C113.351 121.479 113.409 121.184 113.472 120.818C113.598 120.086 113.742 119.071 113.895 117.949C114.048 116.847 114.187 115.85 114.294 115.08C114.342 114.739 114.384 114.448 114.417 114.211C114.445 114.005 114.455 113.891 114.445 113.889Z" fill="#263238"/>
<path d="M112.821 122.113C112.828 122.072 110.765 121.652 108.212 121.176C105.658 120.7 103.582 120.347 103.574 120.388C103.567 120.429 105.63 120.848 108.184 121.325C110.737 121.802 112.813 122.154 112.821 122.113Z" fill="#263238"/>
<path d="M119.424 131.607C119.422 131.596 119.305 131.602 119.096 131.621C118.854 131.645 118.558 131.674 118.208 131.708C117.459 131.782 116.424 131.88 115.278 131.946C114.132 132.015 113.093 132.042 112.34 132.056C111.989 132.063 111.691 132.07 111.449 132.074C111.238 132.08 111.121 132.088 111.121 132.099C111.121 132.109 111.237 132.121 111.448 132.134C111.658 132.146 111.963 132.158 112.34 132.163C113.094 132.177 114.137 132.167 115.287 132.097C116.436 132.031 117.473 131.916 118.221 131.815C118.594 131.763 118.896 131.717 119.104 131.68C119.311 131.642 119.425 131.617 119.424 131.607Z" fill="#263238"/>
<path d="M122.52 124.494C122.511 124.49 122.457 124.585 122.369 124.759C122.281 124.934 122.157 125.188 122.007 125.504C121.707 126.136 121.302 127.013 120.864 127.986C120.426 128.959 120.036 129.843 119.762 130.486C119.624 130.807 119.515 131.069 119.443 131.251C119.371 131.433 119.336 131.536 119.345 131.54C119.355 131.544 119.408 131.45 119.497 131.275C119.585 131.101 119.709 130.846 119.859 130.53C120.158 129.898 120.563 129.021 121.001 128.048C121.44 127.075 121.829 126.192 122.104 125.548C122.242 125.227 122.35 124.965 122.422 124.783C122.495 124.601 122.53 124.498 122.52 124.494Z" fill="#263238"/>
<path d="M129.409 132.131C129.4 132.127 129.332 132.248 129.219 132.472C129.096 132.724 128.939 133.043 128.752 133.425C128.364 134.233 127.837 135.353 127.263 136.594C126.689 137.835 126.177 138.963 125.814 139.782C125.644 140.172 125.502 140.498 125.39 140.756C125.293 140.987 125.244 141.117 125.253 141.121C125.262 141.126 125.33 141.004 125.443 140.781C125.566 140.529 125.723 140.209 125.91 139.827C126.298 139.02 126.826 137.899 127.4 136.658C127.973 135.417 128.485 134.29 128.849 133.47C129.018 133.08 129.16 132.754 129.272 132.497C129.369 132.265 129.418 132.135 129.409 132.131Z" fill="#263238"/>
<path d="M125.294 140.877C125.293 140.867 125.145 140.87 124.878 140.885C124.583 140.903 124.204 140.927 123.749 140.955C122.795 141.014 121.479 141.092 120.022 141.137C118.566 141.184 117.246 141.193 116.291 141.193C115.835 141.193 115.456 141.194 115.16 141.194C114.892 141.196 114.744 141.202 114.744 141.212C114.744 141.222 114.891 141.236 115.158 141.253C115.425 141.269 115.812 141.286 116.29 141.299C117.246 141.326 118.568 141.335 120.027 141.288C121.486 141.243 122.805 141.148 123.757 141.062C124.233 141.017 124.618 140.977 124.884 140.943C125.149 140.911 125.295 140.888 125.294 140.877Z" fill="#263238"/>
<path d="M272.258 145.18C270.6 144.414 268.625 144.53 266.934 145.22C265.242 145.909 263.808 147.126 262.594 148.497C260.247 151.149 258.939 155.019 258.283 158.508C262.176 158.99 265.98 156.481 267.83 155.086C270.755 152.881 274.708 147.111 272.258 145.18Z" fill="#E8505B"/>
<path d="M251.244 159.877C253.103 159.034 254.318 157.039 254.46 154.994C254.601 152.949 253.754 150.904 252.387 149.383C251.755 148.68 250.917 148.04 249.975 148.088C249.095 148.134 248.331 148.8 247.963 149.605C247.595 150.41 247.565 151.331 247.652 152.213C247.947 155.237 248.785 158.11 251.244 159.877Z" fill="#E8505B"/>
<path d="M246.132 169.747C246.154 169.763 246.328 169.563 246.623 169.187C246.917 168.811 247.332 168.258 247.825 167.56C248.8 166.162 250.13 164.167 251.025 161.677C251.918 159.184 251.994 156.704 251.619 155.013C251.439 154.165 251.191 153.505 250.976 153.074C250.762 152.642 250.61 152.423 250.59 152.434C250.516 152.466 251.067 153.395 251.344 155.065C251.639 156.721 251.521 159.115 250.653 161.545C249.781 163.975 248.507 165.971 247.594 167.403C246.667 168.831 246.083 169.713 246.132 169.747Z" fill="#263238"/>
<path d="M268.748 149.234C268.73 149.213 268.38 149.474 267.762 149.963C267.144 150.452 266.261 151.175 265.179 152.08C263.016 153.889 260.068 156.437 256.883 159.332C253.697 162.228 250.878 164.92 248.87 166.902C247.866 167.892 247.062 168.703 246.516 169.272C245.968 169.841 245.675 170.164 245.694 170.184C245.713 170.204 246.043 169.918 246.623 169.383C247.25 168.798 248.072 168.03 249.064 167.105C251.119 165.177 253.966 162.52 257.148 159.627C260.331 156.736 263.246 154.156 265.361 152.294C266.377 151.395 267.219 150.65 267.862 150.082C268.448 149.555 268.765 149.254 268.748 149.234Z" fill="#263238"/>
<path d="M253.484 165.228C257.043 162.806 261.802 162.271 265.806 163.842C266.826 164.242 267.932 164.977 267.95 166.077C267.968 167.179 266.88 167.952 265.861 168.362C261.626 170.067 256.397 168.864 253.32 165.477" fill="#E8505B"/>
<path d="M263.161 165.844C263.172 165.818 262.946 165.707 262.524 165.526C262.315 165.432 262.055 165.327 261.742 165.237C261.43 165.144 261.08 165.016 260.676 164.941C259.879 164.744 258.904 164.617 257.817 164.58C256.731 164.565 255.532 164.653 254.301 164.906C253.073 165.175 251.941 165.581 250.953 166.036C249.974 166.513 249.133 167.024 248.483 167.528C248.144 167.761 247.874 168.02 247.627 168.233C247.377 168.442 247.181 168.643 247.027 168.815C246.714 169.151 246.552 169.344 246.572 169.364C246.627 169.419 247.319 168.677 248.645 167.758C249.304 167.292 250.141 166.817 251.105 166.37C252.078 165.944 253.185 165.559 254.382 165.296C255.583 165.05 256.75 164.954 257.812 164.948C258.873 164.965 259.829 165.059 260.618 165.218C262.201 165.519 263.133 165.916 263.161 165.844Z" fill="#263238"/>
<path d="M250.203 57.2285H125.52V194.683H250.203V57.2285Z" fill="#FAFAFA"/>
<path d="M250.202 194.684C250.201 193.706 250.157 139.372 250.09 57.2291L250.202 57.3422C213.641 57.3466 170.937 57.3521 125.532 57.358H125.519L125.648 57.2291C125.641 107.808 125.634 155.044 125.628 194.684L125.519 194.574C200.498 194.639 249.278 194.683 250.202 194.684C249.278 194.685 200.498 194.727 125.519 194.794H125.41V194.684C125.404 155.044 125.398 107.808 125.391 57.2291V57.0996H125.519H125.531C170.937 57.1056 213.641 57.1105 250.201 57.1155H250.314V57.2291C250.248 139.372 250.203 193.706 250.202 194.684Z" fill="#263238"/>
<path d="M216.488 182.105H168.835C164.883 182.105 161.68 178.884 161.68 174.91V173.446C161.68 169.473 164.883 166.252 168.835 166.252H216.488C220.44 166.252 223.644 169.473 223.644 173.446V174.91C223.644 178.884 220.44 182.105 216.488 182.105Z" fill="#E8505B"/>
<g opacity="0.5">
<path d="M216.488 182.105H168.835C164.883 182.105 161.68 178.884 161.68 174.91V173.446C161.68 169.473 164.883 166.252 168.835 166.252H216.488C220.44 166.252 223.644 169.473 223.644 173.446V174.91C223.644 178.884 220.44 182.105 216.488 182.105Z" fill="black"/>
</g>
<path d="M211.285 182.105H163.632C159.68 182.105 156.477 178.884 156.477 174.91V173.446C156.477 169.473 159.68 166.252 163.632 166.252H211.285C215.237 166.252 218.441 169.473 218.441 173.446V174.91C218.441 178.884 215.237 182.105 211.285 182.105Z" fill="#E8505B"/>
<path d="M173.576 175.203L173.786 174.729C174.048 174.94 174.463 175.091 174.865 175.091C175.373 175.091 175.588 174.908 175.588 174.664C175.588 173.955 173.646 174.42 173.646 173.2C173.646 172.67 174.066 172.219 174.962 172.219C175.354 172.219 175.765 172.322 176.05 172.509L175.858 172.984C175.564 172.81 175.242 172.725 174.957 172.725C174.454 172.725 174.248 172.923 174.248 173.171C174.248 173.87 176.185 173.415 176.185 174.621C176.185 175.147 175.76 175.597 174.864 175.597C174.356 175.597 173.847 175.438 173.576 175.203Z" fill="#FAFAFA"/>
<path d="M176.76 174.121V172.268H177.367V174.097C177.367 174.773 177.67 175.064 178.197 175.064C178.725 175.064 179.024 174.773 179.024 174.097V172.268H179.621V174.121C179.621 175.078 179.084 175.599 178.193 175.599C177.297 175.599 176.76 175.078 176.76 174.121Z" fill="#FAFAFA"/>
<path d="M183.376 174.66C183.376 175.224 182.937 175.552 182.097 175.552H180.473V172.268H182.003C182.787 172.268 183.208 172.601 183.208 173.122C183.208 173.459 183.039 173.708 182.787 173.844C183.138 173.956 183.376 174.233 183.376 174.66ZM181.079 172.746V173.651H181.938C182.359 173.651 182.596 173.501 182.596 173.201C182.596 172.896 182.359 172.746 181.938 172.746H181.079ZM182.764 174.599C182.764 174.271 182.517 174.126 182.06 174.126H181.079V175.073H182.06C182.517 175.073 182.764 174.928 182.764 174.599Z" fill="#FAFAFA"/>
<path d="M183.752 175.203L183.962 174.729C184.224 174.94 184.639 175.091 185.041 175.091C185.549 175.091 185.764 174.908 185.764 174.664C185.764 173.955 183.823 174.42 183.823 173.2C183.823 172.67 184.242 172.219 185.139 172.219C185.531 172.219 185.941 172.322 186.226 172.509L186.034 172.984C185.74 172.81 185.418 172.725 185.134 172.725C184.63 172.725 184.424 172.923 184.424 173.171C184.424 173.87 186.361 173.415 186.361 174.621C186.361 175.147 185.936 175.597 185.041 175.597C184.531 175.597 184.023 175.438 183.752 175.203Z" fill="#FAFAFA"/>
<path d="M186.73 173.908C186.73 172.927 187.477 172.219 188.481 172.219C189.013 172.219 189.47 172.411 189.774 172.768L189.382 173.139C189.144 172.88 188.85 172.754 188.508 172.754C187.832 172.754 187.342 173.233 187.342 173.908C187.342 174.584 187.832 175.062 188.508 175.062C188.849 175.062 189.143 174.936 189.382 174.673L189.774 175.048C189.47 175.406 189.013 175.598 188.476 175.598C187.477 175.597 186.73 174.889 186.73 173.908Z" fill="#FAFAFA"/>
<path d="M192.499 175.552L191.831 174.59C191.79 174.595 191.748 174.595 191.706 174.595H190.968V175.552H190.361V172.268H191.706C192.564 172.268 193.096 172.709 193.096 173.436C193.096 173.933 192.844 174.299 192.401 174.473L193.152 175.552H192.499V175.552ZM191.677 172.783H190.968V174.092H191.677C192.209 174.092 192.485 173.848 192.485 173.436C192.485 173.022 192.209 172.783 191.677 172.783Z" fill="#FAFAFA"/>
<path d="M193.773 172.268H194.38V175.552H193.773V172.268Z" fill="#FAFAFA"/>
<path d="M198.164 174.66C198.164 175.224 197.726 175.552 196.886 175.552H195.262V172.268H196.792C197.576 172.268 197.996 172.601 197.996 173.122C197.996 173.459 197.828 173.708 197.576 173.844C197.927 173.956 198.164 174.233 198.164 174.66ZM195.869 172.746V173.651H196.727C197.147 173.651 197.385 173.501 197.385 173.201C197.385 172.896 197.147 172.746 196.727 172.746H195.869ZM197.553 174.599C197.553 174.271 197.306 174.126 196.848 174.126H195.869V175.073H196.848C197.306 175.073 197.553 174.928 197.553 174.599Z" fill="#FAFAFA"/>
<path d="M201.267 175.039V175.55H198.816V172.266H201.201V172.777H199.423V173.631H201V174.133H199.423V175.039H201.267Z" fill="#FAFAFA"/>
<path d="M224.145 155.68C224.145 155.751 208.289 155.809 188.733 155.809C169.171 155.809 153.318 155.751 153.318 155.68C153.318 155.608 169.171 155.551 188.733 155.551C208.288 155.55 224.145 155.608 224.145 155.68Z" fill="#263238"/>
<path d="M235.224 159.988C235.224 160.06 214.406 160.117 188.732 160.117C163.05 160.117 142.236 160.059 142.236 159.988C142.236 159.917 163.05 159.859 188.732 159.859C214.406 159.859 235.224 159.917 235.224 159.988Z" fill="#263238"/>
<path d="M131.381 62.5751C131.381 63.1614 130.908 63.6366 130.325 63.6366C129.742 63.6366 129.27 63.1614 129.27 62.5751C129.27 61.9888 129.742 61.5137 130.325 61.5137C130.908 61.5137 131.381 61.9888 131.381 62.5751Z" fill="#E0E0E0"/>
<path d="M133.845 63.6366C134.428 63.6366 134.901 63.1613 134.901 62.5751C134.901 61.9889 134.428 61.5137 133.845 61.5137C133.262 61.5137 132.789 61.9889 132.789 62.5751C132.789 63.1613 133.262 63.6366 133.845 63.6366Z" fill="#E0E0E0"/>
<path d="M138.42 62.5751C138.42 63.1614 137.947 63.6366 137.364 63.6366C136.781 63.6366 136.309 63.1614 136.309 62.5751C136.309 61.9888 136.781 61.5137 137.364 61.5137C137.947 61.5137 138.42 61.9888 138.42 62.5751Z" fill="#E0E0E0"/>
<path d="M240.925 84.8044L242.975 77.3709C242.975 77.3709 243.714 74.3508 243.89 73.6449C244.123 72.7115 243.472 72.4178 243.088 73.0527C242.942 73.2938 241.32 76.369 241.32 76.369C241.32 76.369 242.613 71.3346 242.66 71.1516C243.078 69.5078 242.066 69.6779 241.77 70.2657C241.463 70.8728 239.632 75.8273 239.632 75.8273C241.352 69.3531 240.814 68.7832 240.33 68.681C239.847 68.5793 238.33 74.4986 238.33 74.4986C238.33 74.4986 237.785 73.4867 236.776 72.7893C235.22 71.714 232.629 72.7879 232.504 73.5239C232.379 74.26 233.304 74.4663 233.304 74.4663C235.253 73.204 237.251 74.7332 237.046 76.6021C236.842 78.4715 234.487 78.2116 234.194 76.8813C233.551 73.9624 232.552 74.9107 232.552 74.9107L233.553 81.3498L232.492 84.5877" fill="#FFBE9D"/>
<path d="M167.074 115.106L211.4 114.809L212.618 145.108L166.721 144.653L167.074 115.106Z" fill="#455A64"/>
<path d="M167.074 115.107L189.588 96.8125L211.4 114.809" fill="#263238"/>
<path d="M166.721 144.653C166.666 144.601 170.217 140.708 174.651 135.959C179.087 131.207 182.727 127.4 182.782 127.452C182.838 127.504 179.288 131.396 174.851 136.148C170.417 140.897 166.777 144.706 166.721 144.653Z" fill="#263238"/>
<path d="M212.62 145.108C212.563 145.159 209.109 141.34 204.907 136.58C200.703 131.818 197.342 127.918 197.399 127.868C197.456 127.817 200.909 131.635 205.113 136.397C209.315 141.157 212.677 145.058 212.62 145.108Z" fill="#263238"/>
<path d="M211.4 114.809L189.132 132.673L167.074 115.106" fill="#263238"/>
<path d="M137.456 80.959L137.604 80.9545L137.009 78.9606L135.111 71.341C134.931 70.6496 135.313 69.9373 136.002 69.6809L137.369 69.6343L142.049 67.433C142.934 67.1042 143.912 67.6627 144.022 68.5714C144.193 69.9721 145.14 73.7342 146.149 72.4163C146.172 72.3856 146.197 72.3603 146.221 72.33C147.638 70.3689 149.403 69.3109 150.129 69.3406C150.837 69.3694 151.099 70.2325 150.625 70.7478C150.555 70.8361 150.471 70.9184 150.357 70.9804C150.31 71.0062 150.254 71.0523 150.204 71.0846C149.654 71.5285 149 72.3176 148.519 72.9431C148.061 73.5398 147.712 74.2163 147.487 74.9266C147.237 75.7167 147.052 76.4096 146.912 76.9969L147.275 80.886" fill="#FFBE9D"/>
<path d="M149.944 46.4457C149.944 46.4457 144.474 45.3917 136.615 38.2146C128.758 31.0369 124.886 21.3183 123.951 21.3932C123.016 21.4676 118.874 19.6761 111.578 36.9036C104.282 54.1312 107.457 57.9931 109.003 57.9172C110.549 57.8408 120.972 54.5979 127.556 55.1604C134.139 55.7234 142.672 58.9211 142.672 58.9211L149.944 46.4457Z" fill="#455A64"/>
<path d="M161.753 55.3858L159.998 58.9838L159.213 60.5958C158.135 62.8065 155.524 63.7821 153.272 62.8159L141.506 59.0667L147.852 43.2988L159.668 49.2037C161.936 50.3366 162.868 53.0988 161.753 55.3858Z" fill="#263238"/>
<path d="M155.195 61.2541L151.688 68.6762L149.817 68.2105L137.971 78.4727L134.395 71.8997C134.395 71.8997 141.472 68.5919 142.725 65.9854C143.978 63.3789 142.43 62.8398 142.43 62.8398L145.694 58.8906L155.195 61.2541Z" fill="#263238"/>
<path d="M112.216 37.1962C108.338 46.5264 106.847 54.7848 108.886 55.6414C110.924 56.4985 115.722 49.6289 119.6 40.2987C123.478 30.9684 124.969 22.7105 122.93 21.8534C120.891 20.9968 116.094 27.8659 112.216 37.1962Z" fill="#263238"/>
<path d="M162.897 60.4799L159.711 59.5727L161.56 55.7812L163.97 57.1939L162.897 60.4799Z" fill="#455A64"/>
<path d="M144.576 60.2441L153.216 65.4437L154.216 63.3278L144.576 60.2441Z" fill="#455A64"/>
<path d="M161.56 55.7812L159.711 59.5727L160.366 59.7597L161.849 55.9504L161.56 55.7812Z" fill="#455A64"/>
<path d="M159.41 56.7047C159.366 56.8088 157.773 56.2379 155.851 55.4295C153.927 54.621 152.405 53.8814 152.448 53.7778C152.491 53.6741 154.084 54.245 156.007 55.053C157.929 55.8615 159.453 56.6005 159.41 56.7047Z" fill="#455A64"/>
<path d="M160.316 54.4519C160.27 54.5546 158.827 53.9912 157.093 53.1931C155.358 52.395 153.991 51.6654 154.038 51.5627C154.085 51.4606 155.528 52.024 157.262 52.8221C158.995 53.6202 160.363 54.3498 160.316 54.4519Z" fill="#455A64"/>
<path d="M158.249 59.074C158.234 59.1286 157.857 59.0522 157.253 58.8836C156.951 58.7992 156.594 58.6921 156.198 58.5666C155.805 58.4357 155.395 58.2417 154.956 58.0567C153.206 57.2998 151.865 56.5479 151.905 56.4532C151.953 56.3411 153.381 56.9318 155.115 57.6812C155.55 57.8643 155.954 58.0686 156.334 58.2154C156.716 58.3578 157.058 58.4912 157.344 58.6093C157.915 58.8459 158.264 59.02 158.249 59.074Z" fill="#455A64"/>
<path d="M120.594 34.9062C120.594 34.9062 115.786 32.0953 113.382 38.587C110.978 45.0786 115.979 45.9918 115.979 45.9918C117.924 42.7623 119.474 39.0805 120.594 34.9062Z" fill="#455A64"/>
<path d="M125.404 27.1133C125.432 27.1173 125.377 27.5547 125.253 28.3449C125.126 29.1335 124.947 30.2778 124.683 31.6839C124.503 32.3779 124.306 33.1357 124.095 33.9487C123.988 34.3559 123.877 34.7765 123.763 35.21C123.705 35.4268 123.647 35.647 123.588 35.8697C123.524 36.0909 123.437 36.3087 123.361 36.5323C123.046 37.4251 122.715 38.3616 122.372 39.3318C122.286 39.5743 122.199 39.8188 122.111 40.0659C122.027 40.3139 121.903 40.548 121.8 40.7925C121.582 41.2776 121.362 41.7701 121.139 42.2681C120.915 42.7661 120.694 43.2581 120.475 43.7437C120.361 43.9838 120.268 44.2318 120.14 44.4604C120.013 44.6896 119.888 44.9177 119.765 45.1434C119.268 46.0441 118.788 46.9136 118.331 47.7419C118.214 47.9473 118.108 48.1561 117.986 48.351C117.859 48.5435 117.733 48.733 117.609 48.9199C117.361 49.2934 117.12 49.656 116.887 50.0067C116.42 50.7041 115.985 51.3553 115.586 51.951C114.714 53.0774 113.981 53.9672 113.477 54.5848C112.97 55.1998 112.68 55.5316 112.658 55.5138C112.635 55.4964 112.884 55.1319 113.352 54.4871C113.838 53.8299 114.52 52.9073 115.359 51.7744C115.741 51.1743 116.16 50.5191 116.608 49.8167C116.834 49.4655 117.067 49.1025 117.307 48.729C117.427 48.5425 117.549 48.353 117.673 48.1611C117.792 47.9661 117.894 47.7568 118.008 47.5515C118.455 46.7247 118.924 45.8576 119.411 44.9584C119.533 44.7337 119.656 44.507 119.78 44.2789C119.907 44.0517 119.998 43.8052 120.111 43.5661C120.327 43.084 120.546 42.595 120.768 42.1004C120.99 41.6059 121.21 41.1174 121.426 40.6358C121.53 40.3932 121.653 40.1606 121.738 39.9151C121.826 39.6705 121.914 39.428 122 39.1874C122.349 38.2262 122.685 37.2992 123.005 36.4148C123.083 36.1931 123.171 35.9778 123.238 35.7591C123.299 35.5384 123.36 35.3211 123.419 35.1063C123.539 34.6778 123.655 34.2612 123.768 33.8584C123.996 33.0549 124.208 32.3049 124.402 31.619C124.691 30.2406 124.927 29.1181 125.096 28.3186C125.269 27.5389 125.376 27.1093 125.404 27.1133Z" fill="#263238"/>
<path d="M153.811 98.0103L148.919 79.3245L136.695 79.6499L140.497 105.725C140.983 111.399 144.304 115.113 149.897 116.015C153.25 116.555 156.883 113.341 159.577 111.261C161.335 109.903 161.648 110.173 163.462 108.515L171.336 102.792L171.529 103.731L171.478 103.733L172.816 119.666L189.124 132.54L208.577 116.871L208.133 110.093C208.181 110.087 208.229 109.993 208.127 109.995L207.623 102.315L217.588 113.807C219.882 117.175 223.786 119.058 227.834 118.75C232.211 118.416 236.006 115.581 237.587 111.465L242.722 85.1982L231.454 82.7603L226.177 101.688L213.587 87.1415C206.328 77.6312 197.851 78.4352 197.851 78.4352L182.225 78.1565C182.213 78.156 182.202 78.1565 182.19 78.157C181.726 78.1818 172.993 78.4471 167.074 84.8063L153.811 98.0103Z" fill="#E8505B"/>
<path d="M214.223 88.1776C214.216 88.193 214.054 88.0977 213.72 87.9926C213.389 87.885 212.875 87.7843 212.213 87.8358C211.552 87.8899 210.758 88.1027 209.901 88.5025C209.036 88.8879 208.143 89.5019 207.102 90.1041C206.07 90.6878 204.829 91.3282 203.368 91.2945C202.645 91.2701 201.92 91.0693 201.218 90.7915C200.514 90.5147 199.821 90.1705 199.092 89.8804C197.647 89.2866 195.955 89.0878 194.289 89.4221C192.611 89.744 191.073 90.6903 189.499 91.6089C188.705 92.0662 187.906 92.5057 187.065 92.8325C186.227 93.1619 185.356 93.3712 184.489 93.4625C182.756 93.649 181.042 93.3906 179.563 92.7755C178.077 92.1674 176.831 91.2806 175.69 90.4567C174.55 89.6269 173.501 88.8373 172.472 88.2381C171.441 87.6424 170.433 87.2416 169.518 87.014C168.6 86.7943 167.78 86.7471 167.12 86.8136C165.79 86.9589 165.156 87.4222 165.143 87.3775C165.141 87.3736 165.18 87.3493 165.259 87.3056C165.339 87.263 165.456 87.1955 165.616 87.1191C165.942 86.9832 166.437 86.7942 167.109 86.7139C167.779 86.6311 168.615 86.6638 169.551 86.8741C170.484 87.0923 171.512 87.4867 172.562 88.0804C173.611 88.6776 174.671 89.4627 175.814 90.2836C176.958 91.0985 178.197 91.968 179.652 92.5558C181.099 93.1505 182.771 93.3975 184.462 93.212C185.307 93.1212 186.156 92.9159 186.973 92.5945C187.792 92.2746 188.581 91.8415 189.371 91.3862C190.938 90.4736 192.504 89.5059 194.24 89.175C195.956 88.8333 197.701 89.0456 199.179 89.6601C200.646 90.2623 201.978 91.0375 203.374 91.0817C204.765 91.1248 205.982 90.5172 207.012 89.9463C208.05 89.3606 208.959 88.7515 209.842 88.372C210.716 87.9797 211.53 87.7763 212.206 87.7371C212.883 87.6994 213.406 87.819 213.737 87.9445C214.07 88.066 214.223 88.1776 214.223 88.1776Z" fill="#FAFAFA"/>
<path d="M223.285 97.4836C223.285 97.4836 223.239 97.7391 223.018 98.1751C222.796 98.6056 222.366 99.2117 221.603 99.7459C220.852 100.284 219.771 100.739 218.461 100.864C217.153 101.013 215.66 100.855 214.036 100.668C212.424 100.504 210.588 100.303 208.768 100.906C207.868 101.212 207.014 101.727 206.156 102.287C205.296 102.843 204.417 103.457 203.407 103.893C201.405 104.779 199.031 105.113 196.683 104.684C195.508 104.484 194.349 104.066 193.267 103.48C192.184 102.896 191.174 102.17 190.128 101.49C189.082 100.816 188.015 100.182 186.862 99.8406C185.714 99.4944 184.509 99.4552 183.356 99.6209C181.038 99.9597 178.934 100.897 176.835 101.468C175.79 101.767 174.734 101.975 173.694 101.997C172.659 102.015 171.634 101.87 170.728 101.494C168.907 100.739 167.568 99.4533 166.376 98.3397C165.188 97.2069 164.093 96.1995 162.981 95.5299C161.881 94.8434 160.779 94.5394 159.877 94.4655C158.968 94.3911 158.263 94.5548 157.814 94.7155C157.364 94.8836 157.151 95.027 157.143 95.0116C157.143 95.0116 157.346 94.8529 157.796 94.6669C158.244 94.4883 158.958 94.3048 159.884 94.3653C160.802 94.4248 161.93 94.7209 163.055 95.4064C164.19 96.074 165.305 97.0834 166.5 98.2068C167.697 99.3114 169.033 100.573 170.807 101.295C171.688 101.656 172.679 101.791 173.688 101.771C174.701 101.746 175.737 101.538 176.772 101.239C177.81 100.946 178.857 100.577 179.939 100.226C181.019 99.8764 182.139 99.5346 183.322 99.3709C184.499 99.1993 185.749 99.237 186.936 99.5951C188.128 99.9473 189.215 100.595 190.268 101.274C191.321 101.958 192.326 102.68 193.389 103.255C194.45 103.829 195.578 104.237 196.728 104.436C199.025 104.859 201.352 104.537 203.313 103.676C205.275 102.815 206.818 101.319 208.701 100.704C209.632 100.392 210.583 100.302 211.482 100.302C212.384 100.304 213.242 100.394 214.056 100.488C215.681 100.686 217.158 100.854 218.447 100.722C219.738 100.611 220.799 100.18 221.546 99.6641C222.304 99.1527 222.739 98.5679 222.973 98.1513C223.206 97.7282 223.269 97.4772 223.285 97.4836Z" fill="#FAFAFA"/>
<path d="M237.54 110.111C237.518 110.132 237.346 109.843 236.857 109.549C236.378 109.258 235.539 109.021 234.54 109.201C233.537 109.377 232.479 110.032 231.419 110.877C230.882 111.295 230.325 111.755 229.695 112.167C229.068 112.575 228.354 112.945 227.555 113.094C226.758 113.253 225.958 113.179 225.224 113.03C224.487 112.877 223.801 112.647 223.156 112.425C222.509 112.202 221.902 111.981 221.322 111.828C220.741 111.677 220.188 111.583 219.68 111.549C218.663 111.476 217.837 111.666 217.331 111.927C216.82 112.18 216.593 112.416 216.575 112.393C216.569 112.386 216.624 112.328 216.736 112.224C216.791 112.169 216.864 112.109 216.957 112.045C217.047 111.976 217.155 111.904 217.286 111.837C217.792 111.541 218.645 111.315 219.69 111.367C220.212 111.39 220.779 111.475 221.374 111.621C221.97 111.768 222.585 111.984 223.231 112.199C224.509 112.618 225.98 113.126 227.505 112.841C228.259 112.702 228.943 112.352 229.557 111.955C230.174 111.556 230.729 111.105 231.274 110.689C232.348 109.849 233.452 109.182 234.508 109.022C235.557 108.857 236.426 109.135 236.909 109.464C237.158 109.624 237.31 109.8 237.412 109.914C237.503 110.039 237.547 110.106 237.54 110.111Z" fill="#FAFAFA"/>
<path d="M240.017 95.8556C240.023 95.8655 239.885 95.9831 239.592 96.1229C239.301 96.2638 238.847 96.4091 238.267 96.4597C237.689 96.5093 236.993 96.4552 236.25 96.2772C235.505 96.1011 234.724 95.8 233.912 95.4945C233.1 95.1895 232.32 94.9201 231.59 94.7971C230.859 94.6726 230.184 94.685 229.636 94.7897C228.523 94.999 228.008 95.5565 227.981 95.5074C227.973 95.4995 228.083 95.3551 228.345 95.1617C228.605 94.9682 229.031 94.744 229.598 94.6106C230.165 94.4777 230.868 94.4455 231.627 94.5615C232.387 94.6766 233.186 94.9454 234.001 95.252C234.816 95.5585 235.585 95.862 236.305 96.0455C237.026 96.2311 237.696 96.3015 238.255 96.2767C239.387 96.2311 239.998 95.805 240.017 95.8556Z" fill="#FAFAFA"/>
<path d="M207.304 114.604C207.289 114.631 206.872 114.325 206.013 114.009C205.158 113.703 203.831 113.438 202.204 113.614C200.574 113.757 198.712 114.401 196.765 115.35C194.808 116.277 192.735 117.518 190.324 118.303C189.122 118.692 187.892 118.932 186.692 118.933C185.492 118.929 184.348 118.686 183.309 118.347C182.266 118.011 181.316 117.59 180.433 117.197C179.548 116.805 178.731 116.427 177.969 116.126C176.452 115.5 175.148 115.216 174.238 115.147C174.01 115.134 173.808 115.114 173.632 115.109C173.463 115.115 173.315 115.12 173.186 115.124C172.945 115.13 172.817 115.129 172.816 115.12C172.815 115.111 172.941 115.095 173.183 115.072C173.312 115.061 173.461 115.048 173.631 115.033C173.809 115.029 174.013 115.041 174.245 115.047C175.167 115.086 176.499 115.348 178.034 115.956C178.806 116.248 179.63 116.618 180.517 117.001C181.403 117.385 182.351 117.795 183.381 118.12C184.408 118.448 185.524 118.679 186.691 118.68C187.859 118.675 189.062 118.44 190.245 118.056C192.619 117.284 194.689 116.055 196.664 115.134C198.627 114.192 200.528 113.554 202.188 113.431C203.844 113.275 205.191 113.574 206.048 113.914C206.909 114.266 207.304 114.604 207.304 114.604Z" fill="#FAFAFA"/>
<path d="M139.928 101.927C139.928 101.927 139.997 101.865 140.163 101.815C140.326 101.765 140.594 101.744 140.908 101.845C141.221 101.944 141.579 102.16 141.881 102.522C142.18 102.883 142.409 103.364 142.663 103.873C142.911 104.385 143.26 104.897 143.754 105.333C144.244 105.772 144.879 106.107 145.579 106.347C146.996 106.824 148.673 106.852 150.383 106.578C152.099 106.327 153.742 105.976 155.274 105.987C156.809 105.963 158.177 106.427 159.142 107.066C160.127 107.696 160.681 108.521 160.905 109.126C161.133 109.739 161.111 110.107 161.111 110.107C161.079 110.112 161.063 109.748 160.813 109.165C160.566 108.588 160.011 107.812 159.044 107.22C158.093 106.62 156.771 106.19 155.274 106.226C153.776 106.227 152.15 106.58 150.419 106.835C148.695 107.111 146.961 107.079 145.503 106.574C144.78 106.318 144.122 105.962 143.613 105.494C143.101 105.032 142.74 104.478 142.5 103.955C142.254 103.434 142.043 102.964 141.768 102.613C141.497 102.266 141.165 102.048 140.876 101.941C140.275 101.72 139.928 101.964 139.928 101.927Z" fill="#FAFAFA"/>
<path d="M150.63 86.7758C150.599 86.8244 150.082 86.199 148.91 85.8776C148.331 85.7199 147.608 85.6474 146.82 85.7397C146.031 85.8295 145.186 86.0953 144.336 86.4594C143.485 86.8264 142.702 87.2451 141.974 87.6047C141.249 87.9667 140.577 88.2658 139.994 88.4687C139.411 88.6716 138.923 88.7832 138.581 88.8323C138.24 88.8824 138.049 88.8799 138.047 88.8655C138.04 88.8209 138.8 88.7464 139.931 88.2971C140.496 88.0754 141.15 87.7634 141.867 87.3919C142.585 87.0224 143.369 86.5948 144.235 86.2213C145.1 85.8508 145.971 85.5835 146.794 85.5026C147.615 85.4203 148.365 85.5145 148.959 85.702C149.555 85.8915 149.992 86.1628 150.258 86.3855C150.527 86.6092 150.638 86.7684 150.63 86.7758Z" fill="#FAFAFA"/>
<g opacity="0.3">
<path d="M186.352 130.349C192.683 126.657 200.015 122.328 203.671 115.952C206.008 111.874 207.17 106.997 207.624 102.312L208.578 116.869L189.125 132.538L186.352 130.349Z" fill="black"/>
</g>
<g opacity="0.2">
<path d="M169.937 82.1934C168.443 87.7783 165.579 92.591 161.24 96.3874C160.193 97.304 159.055 98.1586 157.741 98.6105C156.428 99.0623 154.905 99.0658 153.717 98.3436L153.812 98.0103L163.67 88.1955L169.937 82.1934Z" fill="black"/>
</g>
<path d="M155.066 105.817C155.024 105.801 155.185 105.366 155.318 104.64C155.452 103.915 155.521 102.888 155.342 101.778C155.157 100.668 154.764 99.7172 154.405 99.0749C154.047 98.4301 153.755 98.07 153.79 98.0417C153.809 98.0239 154.153 98.3443 154.561 98.9816C154.969 99.615 155.405 100.589 155.595 101.735C155.781 102.882 155.68 103.945 155.496 104.677C155.313 105.413 155.09 105.827 155.066 105.817Z" fill="#263238"/>
<path d="M152.24 103.317C152.174 103.267 153.032 102.363 153.416 100.927C153.822 99.4968 153.548 98.2781 153.63 98.2697C153.659 98.2622 153.769 98.5539 153.826 99.0524C153.885 99.5484 153.866 100.254 153.663 100.996C153.458 101.737 153.113 102.352 152.809 102.748C152.504 103.145 152.261 103.338 152.24 103.317Z" fill="#263238"/>
<path d="M170.593 93.0625C170.663 93.0561 171.068 97.0102 171.497 101.893C171.926 106.777 172.216 110.74 172.146 110.747C172.075 110.753 171.67 106.8 171.241 101.916C170.812 97.033 170.522 93.0685 170.593 93.0625Z" fill="#263238"/>
<path d="M196.932 77.8653C196.94 77.8623 196.976 77.9541 197.038 78.1326C197.107 78.3087 197.178 78.5781 197.253 78.9297C197.397 79.6311 197.47 80.6925 197.206 81.9593C196.93 83.2102 196.288 84.6813 195.055 85.8807C193.84 87.0924 191.994 87.8701 190.026 87.9187C188.057 87.9574 186.179 87.261 184.912 86.1034C183.628 84.9591 182.923 83.5177 182.592 82.2802C182.274 81.0263 182.301 79.9629 182.414 79.2561C182.473 78.9014 182.532 78.6296 182.594 78.4506C182.648 78.2695 182.68 78.1763 182.688 78.1793C182.719 78.1872 182.592 78.5642 182.513 79.269C182.431 79.9703 182.434 81.0129 182.767 82.2321C183.113 83.4359 183.818 84.8287 185.068 85.9248C186.299 87.0324 188.113 87.697 190.02 87.6608C191.927 87.6132 193.71 86.8697 194.891 85.7091C196.092 84.5593 196.737 83.1373 197.029 81.9191C197.309 80.6866 197.266 79.6445 197.155 78.9476C197.045 78.2462 196.901 77.8747 196.932 77.8653Z" fill="#263238"/>
<path d="M225.591 107.747C225.524 107.751 225.411 106.355 225.51 104.634C225.605 102.913 225.874 101.539 225.941 101.551C226.015 101.562 225.861 102.942 225.766 104.649C225.668 106.356 225.666 107.745 225.591 107.747Z" fill="#263238"/>
<path d="M227.572 108.649C227.54 108.661 227.369 108.278 227.151 107.637C226.932 106.997 226.673 106.096 226.464 105.083C226.256 104.07 226.138 103.139 226.087 102.464C226.035 101.789 226.041 101.369 226.075 101.367C226.152 101.361 226.299 103.023 226.716 105.031C227.124 107.039 227.645 108.624 227.572 108.649Z" fill="#263238"/>
<path d="M207.622 108.933C207.551 108.936 207.39 106.141 207.261 102.693C207.132 99.2423 207.085 96.4439 207.156 96.4414C207.227 96.4389 207.389 99.2324 207.518 102.683C207.646 106.132 207.693 108.93 207.622 108.933Z" fill="#263238"/>
<path d="M189.94 87.1412C186.242 87.0717 183.238 84.1185 183.083 80.403C182.969 77.6849 182.877 75.1891 182.877 75.1891C182.877 75.1891 177.218 74.5849 176.877 68.9429C176.535 63.3009 176.883 50.2899 176.883 50.2899C183.248 47.1646 190.796 47.7469 196.612 51.8121L197.475 52.4157L197.065 80.2145C197.007 84.1086 193.813 87.2141 189.94 87.1412Z" fill="#FFBE9D"/>
<path d="M182.863 75.1084C182.863 75.1084 186.426 75.2255 190.083 72.6602C190.083 72.6602 188.548 76.8072 182.921 76.5721L182.863 75.1084Z" fill="#EB996E"/>
<path d="M197.064 58.2974C197.158 58.2513 200.867 56.9622 200.931 60.8275C200.994 64.6928 197.121 63.9597 197.112 63.8491C197.104 63.7385 197.064 58.2974 197.064 58.2974Z" fill="#FFBE9D"/>
<path d="M198.263 62.366C198.28 62.3531 198.331 62.4122 198.445 62.4623C198.556 62.5114 198.746 62.5431 198.945 62.4642C199.349 62.3075 199.68 61.6538 199.688 60.9564C199.692 60.6042 199.613 60.2704 199.484 59.9952C199.363 59.7144 199.177 59.52 198.972 59.4868C198.768 59.4426 198.626 59.5681 198.58 59.6777C198.53 59.7868 198.556 59.8632 198.536 59.8702C198.525 59.8801 198.452 59.8067 198.481 59.6465C198.495 59.5696 198.539 59.4773 198.628 59.4019C198.719 59.3251 198.854 59.2844 198.997 59.2973C199.294 59.3132 199.565 59.583 199.706 59.885C199.863 60.1886 199.961 60.5636 199.956 60.9589C199.944 61.7381 199.559 62.4737 199.006 62.6443C198.737 62.7197 198.51 62.6413 198.392 62.552C198.272 62.4593 198.25 62.373 198.263 62.366Z" fill="#EB996E"/>
<path d="M179.567 58.8271C179.552 59.2531 179.898 59.6177 180.341 59.6415C180.782 59.6653 181.153 59.3399 181.169 58.9139C181.184 58.4878 180.837 58.1227 180.395 58.0989C179.953 58.0746 179.582 58.4005 179.567 58.8271Z" fill="#263238"/>
<path d="M178.591 58.0181C178.69 58.1233 179.299 57.6709 180.163 57.6729C181.025 57.663 181.66 58.1094 181.754 58.0032C181.799 57.9561 181.698 57.7661 181.422 57.5643C181.15 57.3629 180.687 57.1675 180.149 57.1699C179.611 57.1729 179.158 57.3718 178.898 57.5757C178.632 57.7805 178.542 57.971 178.591 58.0181Z" fill="#263238"/>
<path d="M187.862 58.9247C187.847 59.3508 188.193 59.7148 188.636 59.7391C189.077 59.763 189.448 59.4376 189.464 59.0115C189.478 58.5855 189.132 58.2204 188.69 58.1966C188.248 58.1723 187.877 58.4982 187.862 58.9247Z" fill="#263238"/>
<path d="M187.083 58.1802C187.182 58.2854 187.792 57.833 188.655 57.8355C189.517 57.8256 190.151 58.2725 190.245 58.1658C190.291 58.1187 190.191 57.9287 189.914 57.7269C189.642 57.5255 189.178 57.3301 188.64 57.332C188.102 57.335 187.65 57.5344 187.389 57.7383C187.125 57.9426 187.034 58.1331 187.083 58.1802Z" fill="#263238"/>
<path d="M183.947 64.6214C183.951 64.5718 183.414 64.479 182.544 64.3669C182.324 64.3441 182.115 64.3 182.078 64.1487C182.026 63.9885 182.118 63.7494 182.225 63.4915C182.432 62.9548 182.649 62.3924 182.877 61.8026C183.783 59.398 184.439 57.421 184.342 57.3853C184.246 57.3495 183.433 59.2696 182.527 61.6742C182.309 62.2674 182.1 62.8323 181.902 63.373C181.819 63.6249 181.675 63.9106 181.787 64.2434C181.847 64.4091 182.009 64.5296 182.15 64.5678C182.292 64.6115 182.415 64.6135 182.524 64.6204C183.401 64.667 183.944 64.671 183.947 64.6214Z" fill="#263238"/>
<path d="M186.49 65.2227C186.349 65.2148 186.347 66.1572 185.545 66.8263C184.744 67.4979 183.744 67.3918 183.737 67.5237C183.724 67.5827 183.959 67.7067 184.381 67.7181C184.795 67.7325 185.399 67.5986 185.891 67.1894C186.38 66.7792 186.591 66.2316 186.623 65.8447C186.658 65.4509 186.554 65.2173 186.49 65.2227Z" fill="#263238"/>
<path d="M186.86 54.776C186.945 55.0121 187.808 54.9 188.822 55.023C189.838 55.1251 190.655 55.4237 190.789 55.2119C190.85 55.1108 190.707 54.8886 190.377 54.6599C190.049 54.4317 189.527 54.2145 188.918 54.1465C188.309 54.0796 187.752 54.1768 187.383 54.3276C187.011 54.4784 186.823 54.6639 186.86 54.776Z" fill="#263238"/>
<path d="M178.909 55.5033C179.061 55.7007 179.656 55.4958 180.372 55.4864C181.087 55.4517 181.693 55.6188 181.833 55.4125C181.894 55.3123 181.799 55.1149 181.534 54.9279C181.273 54.7419 180.837 54.5896 180.345 54.6045C179.853 54.6204 179.427 54.799 179.178 55.0008C178.925 55.2037 178.842 55.407 178.909 55.5033Z" fill="#263238"/>
<path d="M174.014 46.5601C173.954 45.8597 174.214 45.1078 174.781 44.6961C175.348 44.2844 176.227 44.3107 176.688 44.8395C176.424 43.8956 177.191 42.8073 178.164 42.7448C179.081 42.6863 179.863 43.3827 180.749 43.6267C181.614 43.8653 182.542 43.659 183.374 43.3222C184.206 42.9854 184.983 42.5207 185.826 42.2112C187.583 41.5659 189.591 41.6472 191.291 42.4319C192.991 43.2165 194.362 44.6951 195.021 46.4554C196.25 46.069 197.647 46.6965 198.405 47.7435C199.164 48.7906 199.358 50.1655 199.207 51.4516C199.105 52.3206 198.855 53.1604 198.564 53.9877C198.565 54.0601 198.572 54.1315 198.57 54.2044C198.512 57.3124 198.163 60.9624 196.843 60.9828C194.545 61.018 195.093 56.6641 195.093 56.6641C192.272 55.5684 193.322 51.3187 192.617 50.6744C191.912 50.0296 190.436 48.5317 184.53 51.5667C182.236 52.7452 179.187 52.7085 177.522 52.3286C177.474 52.3181 177.424 52.3107 177.375 52.2983C177.365 52.2958 177.352 52.2938 177.341 52.2914C177.323 52.2869 177.31 52.2765 177.293 52.2715C176.762 52.1326 176.25 51.9258 175.778 51.6252C175.243 51.285 174.756 50.8242 174.53 50.23C174.303 49.6358 174.388 48.8938 174.852 48.4608C174.416 47.9112 174.075 47.2604 174.014 46.5601Z" fill="#263238"/>
</svg>
