<svg width="18" height="18" viewBox="0 0 18 18" fill="none" xmlns="http://www.w3.org/2000/svg">
<path d="M15.1875 6.41953V14.625C15.1875 14.7742 15.1282 14.9173 15.0227 15.0228C14.9173 15.1282 14.7742 15.1875 14.625 15.1875H3.375C3.22582 15.1875 3.08274 15.1282 2.97725 15.0228C2.87176 14.9173 2.8125 14.7742 2.8125 14.625V3.375C2.8125 3.22582 2.87176 3.08275 2.97725 2.97726C3.08274 2.87177 3.22582 2.8125 3.375 2.8125H11.5805C11.6535 2.81225 11.7259 2.8264 11.7934 2.85415C11.861 2.8819 11.9224 2.9227 11.9742 2.97422L15.0258 6.02578C15.0773 6.07756 15.1181 6.13899 15.1459 6.20655C15.1736 6.27412 15.1878 6.34649 15.1875 6.41953V6.41953Z" stroke="black" stroke-width="1.2" stroke-linecap="round" stroke-linejoin="round"/>
<path d="M5.625 15.1875V10.6875C5.625 10.5383 5.68426 10.3952 5.78975 10.2898C5.89524 10.1843 6.03832 10.125 6.1875 10.125H11.8125C11.9617 10.125 12.1048 10.1843 12.2102 10.2898C12.3157 10.3952 12.375 10.5383 12.375 10.6875V15.1875" stroke="black" stroke-width="1.2" stroke-linecap="round" stroke-linejoin="round"/>
<path d="M10.6875 5.0625H6.75" stroke="black" stroke-width="1.2" stroke-linecap="round" stroke-linejoin="round"/>
</svg>
