<svg width="22" height="44" viewBox="0 0 22 44" fill="none" xmlns="http://www.w3.org/2000/svg">
<path d="M2.62347e-07 0C5.83476 6.95788e-08 11.4305 2.31785 15.5563 6.44365C19.6821 10.5694 22 16.1652 22 22C22 27.8347 19.6822 33.4305 15.5564 37.5563C11.4306 41.6821 5.83478 44 2.40404e-05 44L0 22L2.62347e-07 0Z" fill="white"/>
<path d="M11.2486 28C11.1609 28.0005 11.0739 27.9837 10.9927 27.9505C10.9115 27.9173 10.8376 27.8685 10.7754 27.8067L5.44325 22.4746C5.38078 22.4126 5.33119 22.3389 5.29735 22.2577C5.26352 22.1765 5.24609 22.0893 5.24609 22.0014C5.24609 21.9134 5.26352 21.8263 5.29735 21.745C5.33119 21.6638 5.38078 21.5901 5.44325 21.5281L10.7754 16.196C10.9009 16.0705 11.0711 16 11.2486 16C11.4261 16 11.5963 16.0705 11.7218 16.196C11.8473 16.3215 11.9178 16.4917 11.9178 16.6692C11.9178 16.8467 11.8473 17.017 11.7218 17.1425L6.85626 22.0014L11.7218 26.8602C11.7843 26.9222 11.8339 26.9959 11.8677 27.0771C11.9015 27.1584 11.919 27.2455 11.919 27.3335C11.919 27.4215 11.9015 27.5086 11.8677 27.5898C11.8339 27.671 11.7843 27.7447 11.7218 27.8067C11.6595 27.8685 11.5857 27.9173 11.5045 27.9505C11.4233 27.9837 11.3363 28.0005 11.2486 28Z" fill="#6174A4"/>
</svg>
