<svg width="22" height="44" viewBox="0 0 22 44" fill="none" xmlns="http://www.w3.org/2000/svg">
<path d="M22 44C16.1652 44 10.5695 41.6821 6.44365 37.5563C2.31785 33.4305 -1.62312e-07 27.8348 0 22C1.62312e-07 16.1652 2.31785 10.5695 6.44365 6.44365C10.5695 2.31785 16.1652 -6.95788e-08 22 0L22 22L22 44Z" fill="white"/>
<path d="M9.75141 28C9.83913 28.0005 9.92608 27.9837 10.0073 27.9505C10.0885 27.9173 10.1624 27.8685 10.2246 27.8067L15.5568 22.4746C15.6192 22.4126 15.6688 22.3389 15.7026 22.2577C15.7365 22.1765 15.7539 22.0893 15.7539 22.0014C15.7539 21.9134 15.7365 21.8263 15.7026 21.745C15.6688 21.6638 15.6192 21.5901 15.5568 21.5281L10.2246 16.196C10.0991 16.0705 9.9289 16 9.75141 16C9.57392 16 9.40369 16.0705 9.27819 16.196C9.15268 16.3215 9.08217 16.4917 9.08217 16.6692C9.08217 16.8467 9.15268 17.017 9.27819 17.1425L14.1437 22.0014L9.27819 26.8602C9.21571 26.9222 9.16613 26.9959 9.13229 27.0771C9.09845 27.1584 9.08103 27.2455 9.08103 27.3335C9.08103 27.4215 9.09845 27.5086 9.13229 27.5898C9.16613 27.671 9.21571 27.7447 9.27819 27.8067C9.34046 27.8685 9.41432 27.9173 9.49553 27.9505C9.57674 27.9837 9.66369 28.0005 9.75141 28Z" fill="#6174A4"/>
</svg>
