<svg width="24" height="24" viewBox="0 0 24 24" fill="none" xmlns="http://www.w3.org/2000/svg">
<path d="M21.7574 6.42994H18.3097V3H17.4477V6.42994H14V7.28742H17.4477V10.7174H18.3097V7.28742H21.7574V6.42994Z" fill="#333333"/>
<path d="M6.21875 12.8594H3.875C3.61612 12.8594 3.40625 13.0692 3.40625 13.3281V15.6719C3.40625 15.9308 3.61612 16.1406 3.875 16.1406H6.21875C6.47763 16.1406 6.6875 15.9308 6.6875 15.6719V13.3281C6.6875 13.0692 6.47763 12.8594 6.21875 12.8594Z" stroke="#333333" stroke-linecap="round" stroke-linejoin="round"/>
<path d="M14.6562 9.34375H11.8438C11.5849 9.34375 11.375 9.55362 11.375 9.8125V12.625C11.375 12.8839 11.5849 13.0938 11.8438 13.0938H14.6562C14.9151 13.0938 15.125 12.8839 15.125 12.625V9.8125C15.125 9.55362 14.9151 9.34375 14.6562 9.34375Z" stroke="#333333" stroke-linecap="round" stroke-linejoin="round"/>
<path d="M14.6562 15.9062H11.8438C11.5849 15.9062 11.375 16.1161 11.375 16.375V19.1875C11.375 19.4464 11.5849 19.6562 11.8438 19.6562H14.6562C14.9151 19.6562 15.125 19.4464 15.125 19.1875V16.375C15.125 16.1161 14.9151 15.9062 14.6562 15.9062Z" stroke="#333333" stroke-linecap="round" stroke-linejoin="round"/>
<path d="M6.6875 14.5H9.03125" stroke="#333333" stroke-linecap="round" stroke-linejoin="round"/>
<path d="M11.375 17.7813H10.4375C10.2526 17.782 10.0694 17.7462 9.89845 17.6758C9.72748 17.6054 9.57215 17.5018 9.44142 17.3711C9.31068 17.2404 9.20712 17.085 9.13673 16.9141C9.06633 16.7431 9.03049 16.5599 9.03126 16.375V12.625C9.03049 12.4401 9.06633 12.2569 9.13673 12.0859C9.20712 11.915 9.31068 11.7597 9.44142 11.6289C9.57215 11.4982 9.72748 11.3946 9.89845 11.3242C10.0694 11.2538 10.2526 11.218 10.4375 11.2188H11.375" stroke="#333333" stroke-linecap="round" stroke-linejoin="round"/>
</svg>
