<svg width="37" height="35" viewBox="0 0 37 35" fill="none" xmlns="http://www.w3.org/2000/svg">
<rect x="0.5" y="1" width="27" height="6" rx="1.5" fill="white" stroke="url(#paint0_linear_6_33489)"/>
<rect x="4.5" y="13" width="19" height="6" rx="1.5" fill="white" stroke="url(#paint1_linear_6_33489)"/>
<rect x="0.5" y="25" width="27" height="6" rx="1.5" fill="white" stroke="url(#paint2_linear_6_33489)"/>
<path fill-rule="evenodd" clip-rule="evenodd" d="M14.7254 19.8894V19.5894H14.1254V19.8894V22.736L13.1767 21.7873C13.0595 21.6701 12.8696 21.6701 12.7524 21.7873C12.6353 21.9045 12.6353 22.0944 12.7524 22.2116L14.2132 23.6724C14.242 23.7011 14.2752 23.7228 14.3105 23.7375C14.3459 23.7522 14.3847 23.7603 14.4254 23.7603C14.5082 23.7603 14.5832 23.7267 14.6375 23.6724C14.6375 23.6724 14.6376 23.6723 14.6376 23.6723L16.0983 22.2116C16.2155 22.0944 16.2155 21.9045 16.0983 21.7873C15.9812 21.6701 15.7912 21.6701 15.6741 21.7873L14.7254 22.736V19.8894Z" fill="url(#paint3_linear_6_33489)"/>
<path fill-rule="evenodd" clip-rule="evenodd" d="M14.7256 7.88936V7.58936H14.1256V7.88936V11.2368L13.1767 10.2879C13.0595 10.1707 12.8696 10.1707 12.7524 10.2879C12.6353 10.405 12.6353 10.595 12.7524 10.7121L14.2132 12.173C14.3304 12.2901 14.5203 12.2901 14.6375 12.173L16.0983 10.7121C16.2155 10.595 16.2155 10.405 16.0983 10.2879C15.9812 10.1707 15.7912 10.1707 15.6741 10.2879L14.7256 11.2364V7.88936Z" fill="url(#paint4_linear_6_33489)"/>
<circle cx="28.5" cy="26" r="8.5" fill="white"/>
<path d="M28.5 28.7625C30.0257 28.7625 31.2625 27.5257 31.2625 26C31.2625 24.4743 30.0257 23.2375 28.5 23.2375C26.9743 23.2375 25.7375 24.4743 25.7375 26C25.7375 27.5257 26.9743 28.7625 28.5 28.7625Z" stroke="url(#paint5_linear_6_33489)" stroke-linecap="round" stroke-linejoin="round"/>
<path d="M32.4995 22.9539C32.496 23.1644 32.5622 23.3688 32.6692 23.5502C32.6825 23.5727 32.6956 23.5953 32.7085 23.6181C32.8119 23.8009 32.9554 23.96 33.139 24.0621L33.955 24.5158C34.2045 24.6545 34.3875 24.8926 34.4282 25.1752C34.5069 25.7208 34.5083 26.2748 34.4325 26.8208C34.3929 27.1057 34.2088 27.346 33.9571 27.4854L33.14 27.9379C32.9558 28.0399 32.8117 28.1994 32.708 28.3826C32.6953 28.4051 32.6824 28.4275 32.6692 28.4498C32.5622 28.6311 32.496 28.8355 32.4995 29.0461L32.5152 29.9798C32.5201 30.267 32.404 30.546 32.1778 30.7229C31.7442 31.0618 31.266 31.3393 30.7566 31.5476C30.4895 31.6568 30.1881 31.6182 29.9406 31.4697L29.1334 30.9853C28.9571 30.8796 28.7525 30.8337 28.547 30.8356C28.5154 30.8359 28.4838 30.8359 28.4523 30.8356C28.2471 30.8336 28.043 30.8794 27.8669 30.9847L27.0615 31.4667C26.816 31.6136 26.5177 31.6526 26.2523 31.546C25.7394 31.3398 25.2581 31.0627 24.8223 30.7227C24.5958 30.5461 24.4798 30.267 24.4847 29.9798L24.5005 29.0462C24.504 28.8391 24.4402 28.6378 24.3355 28.4592C24.3203 28.4332 24.3053 28.4071 24.2906 28.3808C24.1883 28.1983 24.0449 28.0402 23.8621 27.9386L23.0449 27.4842C22.7954 27.3455 22.6124 27.1074 22.5717 26.8248C22.493 26.2792 22.4916 25.7252 22.5674 25.1792C22.607 24.8943 22.7911 24.654 23.0428 24.5146L23.8599 24.062C24.0441 23.96 24.1882 23.8006 24.2919 23.6173C24.3046 23.5948 24.3175 23.5724 24.3307 23.5502C24.4377 23.3688 24.5039 23.1644 24.5004 22.9539L24.4847 22.0202C24.4798 21.733 24.5959 21.454 24.8221 21.2771C25.2557 20.9381 25.7339 20.6606 26.2433 20.4524C26.5104 20.3431 26.8118 20.3818 27.0593 20.5302L27.8666 21.0146C28.0428 21.1204 28.2474 21.1663 28.4529 21.1644C28.4845 21.1641 28.5161 21.1641 28.5476 21.1644C28.7528 21.1663 28.957 21.1206 29.133 21.0153L29.9384 20.5333C30.1839 20.3864 30.4822 20.3473 30.7476 20.454C31.2605 20.6601 31.7419 20.9373 32.1776 21.2772C32.4041 21.4539 32.5201 21.733 32.5152 22.0201L32.4995 22.9539Z" stroke="url(#paint6_linear_6_33489)" stroke-linecap="round" stroke-linejoin="round"/>
<defs>
<linearGradient id="paint0_linear_6_33489" x1="14" y1="0.5" x2="14" y2="7.5" gradientUnits="userSpaceOnUse">
<stop stop-color="#000AFF"/>
<stop offset="1" stop-color="#D274FF"/>
</linearGradient>
<linearGradient id="paint1_linear_6_33489" x1="14" y1="12.5" x2="14" y2="19.5" gradientUnits="userSpaceOnUse">
<stop stop-color="#000AFF"/>
<stop offset="1" stop-color="#D274FF"/>
</linearGradient>
<linearGradient id="paint2_linear_6_33489" x1="14" y1="24.5" x2="14" y2="31.5" gradientUnits="userSpaceOnUse">
<stop stop-color="#000AFF"/>
<stop offset="1" stop-color="#D274FF"/>
</linearGradient>
<linearGradient id="paint3_linear_6_33489" x1="14.4254" y1="19.5894" x2="14.4254" y2="23.7603" gradientUnits="userSpaceOnUse">
<stop stop-color="#000AFF"/>
<stop offset="1" stop-color="#D274FF"/>
</linearGradient>
<linearGradient id="paint4_linear_6_33489" x1="14.4254" y1="7.58936" x2="14.4254" y2="12.2608" gradientUnits="userSpaceOnUse">
<stop stop-color="#000AFF"/>
<stop offset="1" stop-color="#D274FF"/>
</linearGradient>
<linearGradient id="paint5_linear_6_33489" x1="28.5" y1="23.2375" x2="28.5" y2="28.7625" gradientUnits="userSpaceOnUse">
<stop stop-color="#0033EA"/>
<stop offset="1" stop-color="#8A0074"/>
</linearGradient>
<linearGradient id="paint6_linear_6_33489" x1="28.5" y1="20.2966" x2="28.5" y2="31.7034" gradientUnits="userSpaceOnUse">
<stop stop-color="#0033EA"/>
<stop offset="1" stop-color="#8A0074"/>
</linearGradient>
</defs>
</svg>
