<svg width="32" height="32" viewBox="0 0 32 32" fill="none" xmlns="http://www.w3.org/2000/svg">
<mask id="mask0_942_449990" style="mask-type:luminance" maskUnits="userSpaceOnUse" x="1" y="1" width="29" height="29">
<path d="M29.8032 1H1.1C1.04477 1 1 1.04477 1 1.1V29.8032C1 29.8584 1.04477 29.9032 1.1 29.9032H29.8032C29.8584 29.9032 29.9032 29.8584 29.9032 29.8032V1.1C29.9032 1.04477 29.8584 1 29.8032 1Z" fill="white"/>
</mask>
<g mask="url(#mask0_942_449990)">
<path d="M19.0647 22.0789C19.0647 22.4103 18.7961 22.6789 18.4647 22.6789H12.1744C11.9032 22.6789 11.6703 22.4947 11.5681 22.2435C11.5583 22.2194 11.5482 22.1954 11.5379 22.1714C11.4295 21.9204 11.4628 21.6226 11.6562 21.4292L20.5244 12.5612C20.7179 12.3677 21.016 12.3347 21.2677 12.4423C21.816 12.6769 22.4163 12.7728 23.015 12.7181C23.7687 12.6492 24.4816 12.3451 25.053 11.8487C25.6243 11.3522 26.025 10.6887 26.1984 9.95199C26.3718 9.21529 26.3092 8.4427 26.0193 7.74352C25.7294 7.04438 25.227 6.45411 24.5831 6.05626C23.9393 5.6584 23.1866 5.47311 22.4316 5.52661C21.6767 5.5801 20.9577 5.86968 20.3763 6.35435C19.9147 6.73926 19.5584 7.23172 19.337 7.78531C19.2353 8.03959 19.001 8.22729 18.7272 8.22729H14.2454C13.914 8.22729 13.6454 8.4959 13.6454 8.8273V9.43369C13.6454 9.76509 13.914 10.0337 14.2454 10.0337H18.7285C19.0017 10.0337 19.2356 10.2206 19.3379 10.474C19.3469 10.4961 19.356 10.5182 19.3654 10.5401C19.4731 10.792 19.4403 11.0904 19.2466 11.2841L10.3793 20.1513C10.1858 20.3448 9.88765 20.3778 9.63603 20.2702C9.08772 20.0357 8.48741 19.9397 7.88872 19.9945C7.13501 20.0633 6.42206 20.3675 5.85076 20.864C5.27946 21.3604 4.87875 22.0239 4.70535 22.7606C4.53194 23.4974 4.59462 24.27 4.88451 24.9691C5.1744 25.6682 5.67682 26.2585 6.32067 26.6563C6.96452 27.0542 7.71718 27.2395 8.47214 27.186C9.2271 27.1325 9.94611 26.8429 10.5274 26.3582C10.9891 25.9733 11.3453 25.4809 11.5668 24.9273C11.6685 24.673 11.9028 24.4853 12.1766 24.4853H18.4647C18.7961 24.4853 19.0647 24.754 19.0647 25.0853V26.595C19.0647 26.9264 19.3334 27.195 19.6647 27.195H25.6905C26.0219 27.195 26.2906 26.9264 26.2906 26.595V20.5692C26.2906 20.2378 26.0219 19.9692 25.6905 19.9692H19.6647C19.3334 19.9692 19.0647 20.2378 19.0647 20.5692V22.0789ZM22.6776 7.32403C23.0349 7.32403 23.3842 7.42998 23.6813 7.62848C23.9783 7.82697 24.2099 8.10909 24.3466 8.43919C24.4833 8.76929 24.5191 9.13249 24.4494 9.48289C24.3797 9.83329 24.2076 10.1552 23.955 10.4078C23.7024 10.6605 23.3805 10.8325 23.0301 10.9022C22.6797 10.9719 22.3164 10.9362 21.9863 10.7994C21.6563 10.6627 21.3741 10.4312 21.1756 10.1341C20.9771 9.837 20.8712 9.4878 20.8712 9.1305C20.8717 8.6516 21.0622 8.19239 21.4009 7.85374C21.7396 7.51508 22.1987 7.32458 22.6776 7.32403ZM8.22604 25.3886C7.86875 25.3886 7.51949 25.2826 7.22243 25.0841C6.92536 24.8856 6.69382 24.6035 6.55709 24.2734C6.42037 23.9433 6.38459 23.5801 6.45429 23.2297C6.524 22.8793 6.69604 22.5574 6.94868 22.3048C7.20132 22.0521 7.5232 21.8801 7.87361 21.8104C8.22403 21.7407 8.58725 21.7764 8.91733 21.9132C9.24742 22.0499 9.52955 22.2814 9.72804 22.5785C9.92654 22.8756 10.0325 23.2248 10.0325 23.5821C10.0319 24.061 9.84144 24.5202 9.50278 24.8589C9.16413 25.1975 8.70497 25.388 8.22604 25.3886ZM20.8712 22.3757C20.8712 22.0443 21.1398 21.7757 21.4712 21.7757H23.8841C24.2155 21.7757 24.4841 22.0443 24.4841 22.3757V24.7886C24.4841 25.1199 24.2155 25.3886 23.8841 25.3886H21.4712C21.1398 25.3886 20.8712 25.1199 20.8712 24.7886V22.3757Z" fill="url(#paint0_linear_942_449990)"/>
<path d="M9.88806 12.3679C9.815 12.4507 9.68831 12.4589 9.60879 12.3823C9.19636 11.9848 8.86285 11.512 8.62664 10.9888C8.36299 10.4049 8.22661 9.77151 8.22656 9.13081C8.22652 8.49001 8.36282 7.85664 8.6264 7.27264C8.86254 6.74944 9.196 6.27662 9.6084 5.87907C9.68789 5.80245 9.81455 5.81064 9.88764 5.8934L10.8189 6.9479C10.892 7.03075 10.8835 7.15676 10.8062 7.23576C10.5847 7.4621 10.4043 7.72589 10.2735 8.01541C10.1152 8.36591 10.0333 8.74601 10.0333 9.13061C10.0332 9.51511 10.115 9.89531 10.2732 10.2458C10.404 10.5354 10.5844 10.7992 10.8059 11.0256C10.8831 11.1046 10.8917 11.2306 10.8185 11.3134L9.88806 12.3679Z" fill="url(#paint1_linear_942_449990)"/>
<path d="M7.49825 15.0773C7.42519 15.1601 7.29865 15.1682 7.21763 15.0932C6.42144 14.3555 5.78051 13.4654 5.33335 12.4749C4.85874 11.4237 4.61328 10.2835 4.61328 9.12996C4.61328 7.97656 4.85874 6.83635 5.33335 5.78509C5.78051 4.79462 6.42144 3.9045 7.21763 3.16685C7.29865 3.09179 7.42519 3.0999 7.49825 3.18272L8.42879 4.23759C8.50187 4.32043 8.4937 4.44662 8.41319 4.52226C7.80896 5.08999 7.32181 5.7715 6.98011 6.52833C6.61095 7.34599 6.42003 8.23286 6.42003 9.12996C6.42003 10.0272 6.61095 10.914 6.98011 11.7317C7.32181 12.4885 7.80896 13.17 8.41319 13.7378C8.4937 13.8134 8.50187 13.9396 8.42879 14.0224L7.49825 15.0773Z" fill="url(#paint2_linear_942_449990)"/>
</g>
<defs>
<linearGradient id="paint0_linear_942_449990" x1="15.4519" y1="5.51758" x2="15.4519" y2="27.195" gradientUnits="userSpaceOnUse">
<stop stop-color="#000AFF"/>
<stop offset="1" stop-color="#D274FF"/>
</linearGradient>
<linearGradient id="paint1_linear_942_449990" x1="9.58897" y1="5.74358" x2="9.58897" y2="12.5178" gradientUnits="userSpaceOnUse">
<stop stop-color="#000AFF"/>
<stop offset="1" stop-color="#D274FF"/>
</linearGradient>
<linearGradient id="paint2_linear_942_449990" x1="6.5872" y1="3.03277" x2="6.5872" y2="15.2273" gradientUnits="userSpaceOnUse">
<stop stop-color="#000AFF"/>
<stop offset="1" stop-color="#D274FF"/>
</linearGradient>
</defs>
</svg>
