<svg width="18" height="18" viewBox="0 0 18 18" fill="none" xmlns="http://www.w3.org/2000/svg">
<g clip-path="url(#clip0_180_830369)">
<path d="M11.2499 13.5H6.67256C6.61833 13.2988 6.53727 13.1058 6.43158 12.9263L12.3636 6.9943C12.7696 7.23385 13.2406 7.33966 13.71 7.29677C14.1794 7.25387 14.6234 7.06444 14.9792 6.75529C15.335 6.44613 15.5845 6.03291 15.6925 5.57411C15.8005 5.1153 15.7615 4.63415 15.581 4.19874C15.4004 3.76334 15.0875 3.39574 14.6866 3.14797C14.2856 2.9002 13.8169 2.78481 13.3467 2.81812C12.8765 2.85144 12.4287 3.03177 12.0667 3.33361C11.7047 3.63545 11.4468 4.0435 11.3294 4.50001H7.8749V5.62501H11.3294C11.3818 5.82647 11.4621 6.0196 11.5681 6.19876L5.63615 12.1307C5.23021 11.8911 4.75922 11.7853 4.28983 11.8282C3.82044 11.8711 3.37644 12.0606 3.02065 12.3697C2.66487 12.6789 2.41532 13.0921 2.30733 13.5509C2.19933 14.0097 2.23837 14.4909 2.4189 14.9263C2.59944 15.3617 2.91233 15.7293 3.3133 15.977C3.71427 16.2248 4.183 16.3402 4.65316 16.3069C5.12333 16.2736 5.57111 16.0932 5.93313 15.7914C6.29515 15.4896 6.55308 15.0815 6.67042 14.625H11.2499V16.3125H15.7499V11.8125H11.2499V13.5ZM13.4999 3.93751C13.7224 3.93751 13.9399 4.00349 14.1249 4.1271C14.3099 4.25072 14.4541 4.42642 14.5393 4.63199C14.6244 4.83756 14.6467 5.06375 14.6033 5.28198C14.5599 5.50021 14.4527 5.70067 14.2954 5.858C14.1381 6.01534 13.9376 6.12248 13.7194 6.16589C13.5011 6.2093 13.2749 6.18702 13.0694 6.10187C12.8638 6.01672 12.6881 5.87253 12.5645 5.68752C12.4409 5.50252 12.3749 5.28501 12.3749 5.06251C12.3752 4.76424 12.4939 4.47829 12.7048 4.26739C12.9157 4.05649 13.2016 3.93785 13.4999 3.93751ZM4.4999 15.1875C4.2774 15.1875 4.05989 15.1215 3.87488 14.9979C3.68988 14.8743 3.54568 14.6986 3.46053 14.493C3.37539 14.2875 3.35311 14.0613 3.39652 13.843C3.43992 13.6248 3.54707 13.4243 3.7044 13.267C3.86174 13.1097 4.06219 13.0025 4.28042 12.9591C4.49865 12.9157 4.72485 12.938 4.93042 13.0231C5.13598 13.1083 5.31169 13.2525 5.4353 13.4375C5.55892 13.6225 5.6249 13.84 5.6249 14.0625C5.62456 14.3608 5.50592 14.6467 5.29502 14.8576C5.08411 15.0685 4.79816 15.1872 4.4999 15.1875ZM12.3749 12.9375H14.6249V15.1875H12.3749V12.9375Z" fill="url(#paint0_linear_180_830369)"/>
<path d="M5.45235 7.17212C5.15306 6.90821 4.91336 6.58364 4.74916 6.21996C4.58496 5.85628 4.50003 5.46183 4.5 5.06281C4.49997 4.66378 4.58485 4.26932 4.749 3.90562C4.91315 3.54192 5.15281 3.21732 5.45207 2.95337L6.19693 3.79684C6.01726 3.95518 5.87334 4.14995 5.77476 4.3682C5.67617 4.58646 5.62517 4.82319 5.62514 5.06268C5.62512 5.30217 5.67607 5.53892 5.7746 5.75719C5.87314 5.97547 6.01701 6.17027 6.19665 6.32865L5.45235 7.17212Z" fill="url(#paint1_linear_180_830369)"/>
<path d="M3.96405 8.85994C3.42527 8.38486 2.99376 7.80057 2.69819 7.14588C2.40262 6.49119 2.24976 5.7811 2.24976 5.06278C2.24976 4.34446 2.40262 3.63437 2.69819 2.97968C2.99376 2.32499 3.42527 1.7407 3.96405 1.26562L4.70835 2.10937C4.28928 2.47888 3.95364 2.93334 3.72374 3.44255C3.49384 3.95176 3.37494 4.50407 3.37494 5.06278C3.37494 5.62149 3.49384 6.1738 3.72374 6.68301C3.95364 7.19222 4.28928 7.64668 4.70835 8.01619L3.96405 8.85994Z" fill="url(#paint2_linear_180_830369)"/>
</g>
<defs>
<linearGradient id="paint0_linear_180_830369" x1="8.99993" y1="2.8125" x2="8.99993" y2="16.3125" gradientUnits="userSpaceOnUse">
<stop stop-color="#000AFF"/>
<stop offset="1" stop-color="#D274FF"/>
</linearGradient>
<linearGradient id="paint1_linear_180_830369" x1="5.34846" y1="2.95337" x2="5.34846" y2="7.17212" gradientUnits="userSpaceOnUse">
<stop stop-color="#000AFF"/>
<stop offset="1" stop-color="#D274FF"/>
</linearGradient>
<linearGradient id="paint2_linear_180_830369" x1="3.47905" y1="1.26562" x2="3.47905" y2="8.85994" gradientUnits="userSpaceOnUse">
<stop stop-color="#000AFF"/>
<stop offset="1" stop-color="#D274FF"/>
</linearGradient>
<clipPath id="clip0_180_830369">
<rect width="18" height="18" fill="white"/>
</clipPath>
</defs>
</svg>
