<svg width="23" height="22" viewBox="0 0 23 22" fill="none" xmlns="http://www.w3.org/2000/svg">
<path d="M6.12417 20.68H11.8075C12.1833 20.68 12.495 20.3683 12.495 19.9925C12.495 19.6166 12.1833 19.305 11.8075 19.305H6.12417C5.14334 19.305 4.18084 18.489 4.01584 17.5174L2.79667 10.2208C2.68667 9.5608 3.05325 8.61655 3.56658 8.20405L9.91917 3.12579C10.6525 2.53913 11.8717 2.53912 12.5958 3.11662L18.9483 8.20405C19.4708 8.62572 19.8283 9.5608 19.7183 10.2208L19.4617 11.7699C19.3975 12.1457 19.6541 12.5032 20.03 12.5582C20.4058 12.6315 20.7541 12.3657 20.8183 11.9899L21.075 10.45C21.2675 9.3133 20.7175 7.85579 19.81 7.13163L13.4575 2.04408C12.2292 1.05408 10.295 1.06326 9.0575 2.05326L2.70501 7.13163C1.80667 7.85579 1.25667 9.3133 1.44 10.45L2.65917 17.7465C2.93417 19.369 4.48334 20.68 6.12417 20.68Z" fill="url(#paint0_linear_103_3664)"/>
<path d="M17.6736 20.8542C18.0495 20.8542 18.352 20.5517 18.3611 20.1851C18.3886 18.9476 19.2044 18.1317 20.4419 18.1042C20.8178 18.0951 21.1203 17.7834 21.1111 17.3984C21.102 17.0226 20.7995 16.7292 20.4236 16.7292C20.4145 16.7292 20.4145 16.7292 20.4053 16.7292C18.4345 16.7751 17.0228 18.1776 16.9861 20.1484C16.977 20.5242 17.2795 20.8451 17.6553 20.8542C17.6645 20.8542 17.6645 20.8542 17.6736 20.8542Z" fill="url(#paint1_linear_103_3664)"/>
<path d="M14.9236 20.8542C15.2995 20.8542 15.6111 20.5517 15.6111 20.1759C15.6203 19.5709 15.7211 18.9934 15.9045 18.4526C16.372 17.1142 17.3711 16.1242 18.7095 15.6475C19.2503 15.455 19.8278 15.3542 20.4328 15.3542C20.8086 15.3542 21.1203 15.0426 21.1111 14.6576C21.1111 14.2817 20.7995 13.9792 20.4236 13.9792H20.4145C19.6536 13.9884 18.9295 14.1167 18.2511 14.3551C16.5186 14.9692 15.2261 16.2617 14.612 17.9942C14.3736 18.6726 14.2453 19.4059 14.2361 20.1576C14.2361 20.5426 14.5386 20.8542 14.9236 20.8542Z" fill="url(#paint2_linear_103_3664)"/>
<path d="M20.4251 21.0833C20.9385 21.0833 21.3418 20.6708 21.3418 20.1667C21.3418 19.6625 20.9293 19.25 20.4251 19.25C19.921 19.25 19.5085 19.6625 19.5085 20.1667C19.5085 20.6708 19.9118 21.0833 20.4251 21.0833Z" fill="url(#paint3_linear_103_3664)"/>
<defs>
<linearGradient id="paint0_linear_103_3664" x1="11.2591" y1="1.30615" x2="11.2591" y2="20.68" gradientUnits="userSpaceOnUse">
<stop stop-color="#0033EA"/>
<stop offset="1" stop-color="#8A0074"/>
</linearGradient>
<linearGradient id="paint1_linear_103_3664" x1="19.0486" y1="16.7292" x2="19.0486" y2="20.8542" gradientUnits="userSpaceOnUse">
<stop stop-color="#0033EA"/>
<stop offset="1" stop-color="#8A0074"/>
</linearGradient>
<linearGradient id="paint2_linear_103_3664" x1="17.6737" y1="13.9792" x2="17.6737" y2="20.8542" gradientUnits="userSpaceOnUse">
<stop stop-color="#0033EA"/>
<stop offset="1" stop-color="#8A0074"/>
</linearGradient>
<linearGradient id="paint3_linear_103_3664" x1="20.4251" y1="19.25" x2="20.4251" y2="21.0833" gradientUnits="userSpaceOnUse">
<stop stop-color="#0033EA"/>
<stop offset="1" stop-color="#8A0074"/>
</linearGradient>
</defs>
</svg>
