<svg width="18" height="19" viewBox="0 0 18 19" fill="none" xmlns="http://www.w3.org/2000/svg">
<g clip-path="url(#clip0_987_197118)">
<path d="M14.8562 15.5715H4.61939C4.38309 16.613 3.45169 17.3905 2.33869 17.3905C1.04705 17.3905 0 16.3434 0 15.0518C0 13.7602 1.04705 12.7131 2.33869 12.7131C2.84038 12.7131 3.30515 12.8711 3.68602 13.14L13.2885 4.4978C13.1814 4.30626 13.1005 4.09808 13.0506 3.87814H4.61943C4.38313 4.91963 3.45172 5.69711 2.33872 5.69711C1.04705 5.69711 0 4.65006 0 3.35846C0 2.06686 1.04705 1.01978 2.33869 1.01978C3.45169 1.01978 4.38309 1.79726 4.61939 2.83875H13.0506C13.2869 1.79726 14.2183 1.01978 15.3313 1.01978C16.6229 1.01978 17.67 2.06683 17.67 3.35846C17.67 4.6501 16.6229 5.69715 15.3313 5.69715C14.8296 5.69715 14.3648 5.53919 13.984 5.27027L4.38154 13.9125C4.48859 14.104 4.56949 14.3122 4.61939 14.5321H14.8562L13.6646 13.3405C13.4616 13.1375 13.4616 12.8085 13.6646 12.6055C13.8675 12.4026 14.1966 12.4026 14.3995 12.6055L16.4783 14.6843C16.6813 14.8873 16.6813 15.2164 16.4783 15.4193L14.3995 17.4981C14.1966 17.7011 13.8675 17.7011 13.6646 17.4981C13.4616 17.2952 13.4616 16.9661 13.6646 16.7632L14.8562 15.5715ZM2.33869 16.3511C3.05625 16.3511 3.63795 15.7694 3.63795 15.0518C3.63795 14.3343 3.05625 13.7526 2.33869 13.7526C1.62112 13.7526 1.03942 14.3343 1.03942 15.0518C1.03942 15.7694 1.62112 16.3511 2.33869 16.3511ZM2.33869 4.65772C3.05625 4.65772 3.63795 4.07603 3.63795 3.35846C3.63795 2.64089 3.05625 2.05916 2.33869 2.05916C1.62112 2.05916 1.03942 2.64089 1.03942 3.35846C1.03942 4.07603 1.62112 4.65772 2.33869 4.65772ZM15.3313 4.65772C16.0489 4.65772 16.6306 4.07603 16.6306 3.35846C16.6306 2.64089 16.0489 2.0592 15.3313 2.0592C14.6137 2.0592 14.0321 2.64089 14.0321 3.35846C14.0321 4.07603 14.6137 4.65772 15.3313 4.65772Z" fill="url(#paint0_linear_987_197118)"/>
</g>
<defs>
<linearGradient id="paint0_linear_987_197118" x1="8.835" y1="1.01978" x2="8.835" y2="17.6503" gradientUnits="userSpaceOnUse">
<stop stop-color="#0033EA"/>
<stop offset="1" stop-color="#8A0074"/>
</linearGradient>
<clipPath id="clip0_987_197118">
<rect width="17.67" height="17.67" fill="white" transform="translate(0 0.5)"/>
</clipPath>
</defs>
</svg>
