<svg width="16" height="15" viewBox="0 0 16 15" fill="none" xmlns="http://www.w3.org/2000/svg">
<g clip-path="url(#clip0_1011_35456)">
<path d="M13.168 10.3781V7.96873C13.168 7.72009 13.0692 7.48164 12.8934 7.30582C12.7176 7.13 12.4791 7.03123 12.2305 7.03123H8.48047V4.62186C8.92234 4.50777 9.30744 4.23644 9.56357 3.85873C9.8197 3.48102 9.92928 3.02286 9.87178 2.57014C9.81428 2.11741 9.59363 1.7012 9.25121 1.39952C8.90878 1.09784 8.46809 0.931396 8.01172 0.931396C7.55536 0.931396 7.11466 1.09784 6.77224 1.39952C6.42981 1.7012 6.20917 2.11741 6.15167 2.57014C6.09416 3.02286 6.20375 3.48102 6.45988 3.85873C6.71601 4.23644 7.1011 4.50777 7.54297 4.62186V7.03123H3.79297C3.54433 7.03123 3.30588 7.13 3.13006 7.30582C2.95425 7.48164 2.85547 7.72009 2.85547 7.96873V10.3781C2.4136 10.4922 2.02851 10.7635 1.77238 11.1412C1.51625 11.5189 1.40666 11.9771 1.46417 12.4298C1.52167 12.8826 1.74231 13.2988 2.08474 13.6004C2.42716 13.9021 2.86786 14.0686 3.32422 14.0686C3.78059 14.0686 4.22128 13.9021 4.56371 13.6004C4.90613 13.2988 5.12678 12.8826 5.18428 12.4298C5.24178 11.9771 5.1322 11.5189 4.87607 11.1412C4.61994 10.7635 4.23484 10.4922 3.79297 10.3781V7.96873H12.2305V10.3781C11.7886 10.4922 11.4035 10.7635 11.1474 11.1412C10.8912 11.5189 10.7817 11.9771 10.8392 12.4298C10.8967 12.8826 11.1173 13.2988 11.4597 13.6004C11.8022 13.9021 12.2429 14.0686 12.6992 14.0686C13.1556 14.0686 13.5963 13.9021 13.9387 13.6004C14.2811 13.2988 14.5018 12.8826 14.5593 12.4298C14.6168 11.9771 14.5072 11.5189 14.2511 11.1412C13.9949 10.7635 13.6098 10.4922 13.168 10.3781ZM4.26172 12.1875C4.26172 12.3729 4.20674 12.5542 4.10373 12.7083C4.00071 12.8625 3.8543 12.9827 3.68299 13.0536C3.51168 13.1246 3.32318 13.1431 3.14133 13.107C2.95947 13.0708 2.79242 12.9815 2.66131 12.8504C2.5302 12.7193 2.44091 12.5522 2.40474 12.3704C2.36856 12.1885 2.38713 12 2.45809 11.8287C2.52904 11.6574 2.64921 11.511 2.80338 11.408C2.95755 11.305 3.1388 11.25 3.32422 11.25C3.57286 11.25 3.81132 11.3488 3.98714 11.5246C4.16295 11.7004 4.26172 11.9388 4.26172 12.1875ZM7.07422 2.81248C7.07422 2.62706 7.12921 2.44581 7.23222 2.29164C7.33523 2.13746 7.48165 2.0173 7.65296 1.94635C7.82426 1.87539 8.01276 1.85682 8.19462 1.893C8.37648 1.92917 8.54352 2.01846 8.67464 2.14957C8.80575 2.28068 8.89504 2.44773 8.93121 2.62959C8.96738 2.81144 8.94882 2.99994 8.87786 3.17125C8.8069 3.34255 8.68674 3.48897 8.53257 3.59199C8.3784 3.695 8.19714 3.74998 8.01172 3.74998C7.76308 3.74998 7.52463 3.65121 7.34881 3.47539C7.173 3.29958 7.07422 3.06112 7.07422 2.81248ZM12.6992 13.125C12.5138 13.125 12.3325 13.07 12.1784 12.967C12.0242 12.864 11.904 12.7176 11.8331 12.5462C11.7621 12.3749 11.7436 12.1864 11.7797 12.0046C11.8159 11.8227 11.9052 11.6557 12.0363 11.5246C12.1674 11.3935 12.3345 11.3042 12.5163 11.268C12.6982 11.2318 12.8867 11.2504 13.058 11.3213C13.2293 11.3923 13.3757 11.5125 13.4787 11.6666C13.5817 11.8208 13.6367 12.0021 13.6367 12.1875C13.6367 12.4361 13.538 12.6746 13.3621 12.8504C13.1863 13.0262 12.9479 13.125 12.6992 13.125Z" fill="#333333"/>
</g>
<defs>
<clipPath id="clip0_1011_35456">
<rect width="15" height="15" fill="white" transform="translate(0.511719)"/>
</clipPath>
</defs>
</svg>
