<svg width="27" height="27" viewBox="0 0 27 27" fill="none" xmlns="http://www.w3.org/2000/svg">
<path d="M19.1269 14.9766C20.428 14.9766 21.4826 16.0312 21.4826 17.3323V18.23H21.4757C21.4315 19.2448 21.1532 20.5175 20.0137 21.5573C18.769 22.693 16.6203 23.4355 13.0196 23.4355C9.41891 23.4355 7.27031 22.693 6.02556 21.5573C4.88601 20.5175 4.60782 19.2448 4.56358 18.23H4.55664V17.3323C4.55664 16.0312 5.61133 14.9766 6.91235 14.9766H19.1269Z" fill="#2D50C8"/>
<path d="M8.46277 3.90747C7.38415 3.90747 6.50977 4.78185 6.50977 5.86047V11.0685C6.50977 12.1471 7.38415 13.0215 8.46277 13.0215H17.5768C18.6553 13.0215 19.5298 12.1471 19.5298 11.0685V5.86047C19.5298 4.78185 18.6553 3.90747 17.5768 3.90747H13.6708C13.6708 3.90747 13.6708 3.65825 13.6708 3.25647C13.6708 2.85468 13.3792 2.60547 13.0198 2.60547C12.6602 2.60547 12.3688 2.90554 12.3688 3.25647C12.3688 3.6074 12.3688 3.90747 12.3688 3.90747H8.46277ZM9.11377 8.46447C9.11377 7.74539 9.6967 7.16247 10.4158 7.16247C11.1348 7.16247 11.7178 7.74539 11.7178 8.46447C11.7178 9.18354 11.1348 9.76647 10.4158 9.76647C9.6967 9.76647 9.11377 9.18354 9.11377 8.46447ZM14.3218 8.46447C14.3218 7.74539 14.9047 7.16247 15.6238 7.16247C16.3429 7.16247 16.9258 7.74539 16.9258 8.46447C16.9258 9.18354 16.3429 9.76647 15.6238 9.76647C14.9047 9.76647 14.3218 9.18354 14.3218 8.46447Z" fill="#2D50C8"/>
</svg>
