<svg width="27" height="27" viewBox="0 0 27 27" fill="none" xmlns="http://www.w3.org/2000/svg">
<path d="M16.2001 7.4248C15.4545 7.4248 14.8501 8.02923 14.8501 8.7748C14.8501 9.52038 15.4545 10.1248 16.2001 10.1248C16.9457 10.1248 17.5501 9.52038 17.5501 8.7748C17.5501 8.02923 16.9457 7.4248 16.2001 7.4248Z" fill="#212121"/>
<path d="M9.44995 8.7748C9.44995 8.02923 10.0544 7.4248 10.8 7.4248C11.5455 7.4248 12.15 8.02923 12.15 8.7748C12.15 9.52038 11.5455 10.1248 10.8 10.1248C10.0544 10.1248 9.44995 9.52038 9.44995 8.7748Z" fill="#212121"/>
<path d="M14.175 3.3752C14.175 3.00241 13.8727 2.7002 13.5 2.7002C13.1272 2.7002 12.825 3.00241 12.825 3.3752V4.0502H8.775C7.65662 4.0502 6.75 4.95681 6.75 6.0752V11.4752C6.75 12.5936 7.65662 13.5002 8.775 13.5002H18.225C19.3433 13.5002 20.25 12.5936 20.25 11.4752V6.0752C20.25 4.95681 19.3433 4.0502 18.225 4.0502H14.175V3.3752ZM8.775 5.4002H18.225C18.5977 5.4002 18.9 5.70241 18.9 6.0752V11.4752C18.9 11.848 18.5977 12.1502 18.225 12.1502H8.775C8.40221 12.1502 8.1 11.848 8.1 11.4752V6.0752C8.1 5.70241 8.40221 5.4002 8.775 5.4002Z" fill="#212121"/>
<path d="M13.8376 24.2977C17.3687 24.2525 19.5007 23.4941 20.752 22.3524C21.9335 21.2743 22.222 19.9547 22.2679 18.9025H22.2751V17.9716C22.2751 16.6226 21.1816 15.5291 19.8325 15.5291H15.5251V15.5249H11.4751V15.5291H7.16765C5.81867 15.5291 4.7251 16.6226 4.7251 17.9716V18.9025H4.73229C4.77817 19.9547 5.06661 21.2743 6.24817 22.3524C7.49943 23.4941 9.63156 24.2525 13.1626 24.2977V24.2999H13.8376V24.2977ZM7.16765 16.8791H19.8325C20.436 16.8791 20.9251 17.3682 20.9251 17.9716V18.5624C20.9251 19.4934 20.748 20.5285 19.8421 21.3551C18.914 22.202 17.0918 22.9499 13.5001 22.9499C9.90837 22.9499 8.08618 22.202 7.15812 21.3551C6.25226 20.5285 6.0751 19.4934 6.0751 18.5624V17.9716C6.0751 17.3682 6.56424 16.8791 7.16765 16.8791Z" fill="#212121"/>
</svg>
