<svg width="16" height="13" viewBox="0 0 16 13" fill="none" xmlns="http://www.w3.org/2000/svg">
<path d="M14.75 3.1875V11.1258C14.75 11.2582 14.6974 11.3852 14.6038 11.4788C14.5102 11.5724 14.3832 11.625 14.2508 11.625H1.8125C1.66332 11.625 1.52024 11.5657 1.41475 11.4602C1.30926 11.3548 1.25 11.2117 1.25 11.0625V1.5C1.25 1.35082 1.30926 1.20774 1.41475 1.10225C1.52024 0.996763 1.66332 0.9375 1.8125 0.9375H5.56016C5.68178 0.938 5.80005 0.977424 5.89766 1.05L7.85234 2.5125C7.94995 2.58508 8.06822 2.6245 8.18984 2.625H14.1875C14.3367 2.625 14.4798 2.68426 14.5852 2.78975C14.6907 2.89524 14.75 3.03832 14.75 3.1875Z" stroke="#645DF6" stroke-width="1.2" stroke-linecap="round" stroke-linejoin="round"/>
</svg>
