<svg width="20" height="21" viewBox="0 0 20 21" fill="none" xmlns="http://www.w3.org/2000/svg">
<path fill-rule="evenodd" clip-rule="evenodd" d="M3.10576 4.99931C3.11045 4.99463 3.11681 4.99199 3.12344 4.99199H7.28549C7.2922 4.99211 7.29872 4.99429 7.30416 4.99823L7.30448 4.99847L8.99772 6.26699L7.30448 7.53552L7.30415 7.53575C7.29872 7.53969 7.2922 7.54187 7.28549 7.54199H3.09844V5.01699C3.09844 5.01036 3.10107 5.004 3.10576 4.99931ZM7.28997 8.74199L7.2875 8.14193V8.74199H3.09844V15.642C3.09844 15.6486 3.10107 15.655 3.10576 15.6597C3.11045 15.6644 3.11681 15.667 3.12344 15.667H16.8734C16.8801 15.667 16.8864 15.6644 16.8911 15.6597C16.8958 15.655 16.8984 15.6486 16.8984 15.642V6.89199C16.8984 6.88536 16.8958 6.879 16.8911 6.87431C16.8864 6.86963 16.8801 6.86699 16.8734 6.86699H10.1983L8.02224 8.49718L8.02052 8.49847L8.02052 8.49847C7.80925 8.65557 7.55324 8.7409 7.28997 8.74199ZM10.1983 5.66699L8.02224 4.0368L8.02224 4.0368L8.02052 4.03552C7.80925 3.87842 7.55324 3.79308 7.28997 3.792V3.79199H7.2875H3.12344C2.79855 3.79199 2.48696 3.92105 2.25723 4.15079C2.0275 4.38052 1.89844 4.6921 1.89844 5.01699V8.14199V15.642C1.89844 15.9669 2.0275 16.2785 2.25723 16.5082C2.48696 16.7379 2.79855 16.867 3.12344 16.867H16.8734C17.1983 16.867 17.5099 16.7379 17.7396 16.5082C17.9694 16.2785 18.0984 15.9669 18.0984 15.642V6.89199C18.0984 6.5671 17.9694 6.25552 17.7396 6.02579C17.5099 5.79605 17.1983 5.66699 16.8734 5.66699H10.1983ZM7.52344 11.5795C7.52344 11.2481 7.79207 10.9795 8.12344 10.9795H9.39844V9.70449C9.39844 9.37312 9.66707 9.10449 9.99844 9.10449C10.3298 9.10449 10.5984 9.37312 10.5984 9.70449V10.9795H11.8734C12.2048 10.9795 12.4734 11.2481 12.4734 11.5795C12.4734 11.9109 12.2048 12.1795 11.8734 12.1795H10.5984V13.4545C10.5984 13.7859 10.3298 14.0545 9.99844 14.0545C9.66707 14.0545 9.39844 13.7859 9.39844 13.4545V12.1795H8.12344C7.79207 12.1795 7.52344 11.9109 7.52344 11.5795Z" fill="url(#paint0_linear_1135_25280)"/>
<defs>
<linearGradient id="paint0_linear_1135_25280" x1="9.99844" y1="3.79199" x2="9.99844" y2="16.867" gradientUnits="userSpaceOnUse">
<stop stop-color="#000AFF"/>
<stop offset="1" stop-color="#D274FF"/>
</linearGradient>
</defs>
</svg>
