<svg width="18" height="18" viewBox="0 0 18 18" fill="none" xmlns="http://www.w3.org/2000/svg">
<path d="M15.75 6.1875V14.1258C15.75 14.2582 15.6974 14.3852 15.6038 14.4788C15.5102 14.5724 15.3832 14.625 15.2508 14.625H2.8125C2.66332 14.625 2.52024 14.5657 2.41475 14.4602C2.30926 14.3548 2.25 14.2117 2.25 14.0625V4.5C2.25 4.35082 2.30926 4.20774 2.41475 4.10225C2.52024 3.99676 2.66332 3.9375 2.8125 3.9375H6.56016C6.68178 3.938 6.80005 3.97742 6.89766 4.05L8.85234 5.5125C8.94995 5.58508 9.06822 5.6245 9.18984 5.625H15.1875C15.3367 5.625 15.4798 5.68426 15.5852 5.78975C15.6907 5.89524 15.75 6.03832 15.75 6.1875Z" stroke="#333333" stroke-width="1.2" stroke-linecap="round" stroke-linejoin="round"/>
</svg>
