<svg width="29" height="29" viewBox="0 0 29 29" fill="none" xmlns="http://www.w3.org/2000/svg">
<g clip-path="url(#clip0_3099_1817)">
<path d="M26.06 20.0167L22.0668 20.7814L22.299 21.9539L24.9725 21.4441L24.3494 22.3617C21.9422 25.3523 18.3625 27.1138 14.4883 27.1138C7.50449 27.1138 1.86875 21.4781 1.86875 14.4943C1.86875 14.3187 1.86875 14.1998 1.86875 14.0242L0.696289 13.9675C0.696289 14.1431 0.696289 14.3187 0.696289 14.4943C0.696289 22.1238 6.85879 28.2863 14.4883 28.2863C18.7137 28.2863 22.6445 26.4058 25.3463 23.064L25.8787 22.2541L26.3432 24.7066L27.5156 24.4744L26.751 20.4812C26.7057 20.1923 26.4168 19.9601 26.06 20.0167Z" fill="white"/>
<path d="M14.5 0.708008C10.2746 0.708008 6.34375 2.58848 3.64199 5.93027L3.16621 6.65527L2.70742 4.22539L1.5293 4.46328L2.23164 8.45644C2.28828 8.75098 2.58848 8.9832 2.99629 8.92656L6.98945 8.16191L6.75723 6.98945L4.06113 7.49922L4.64453 6.63828C7.04609 3.64199 10.6258 1.88047 14.5 1.88047C21.4838 1.88047 27.1195 7.51621 27.1195 14.5C27.1195 14.6756 27.1195 14.7945 27.1195 14.9701L28.292 15.0268C28.292 14.8512 28.292 14.6756 28.292 14.5C28.292 6.87051 22.1295 0.708008 14.5 0.708008Z" fill="white"/>
<path d="M8.98301 8.80762H7.81055V20.1357H8.98301V8.80762Z" fill="white"/>
<path d="M13.0328 12.6196H11.8604V20.1925H13.0328V12.6196Z" fill="white"/>
<path d="M17.1393 10.7446H15.9668V20.1923H17.1393V10.7446Z" fill="white"/>
<path d="M21.1891 12.6196H20.0166V20.1925H21.1891V12.6196Z" fill="white"/>
</g>
<defs>
<clipPath id="clip0_3099_1817">
<rect width="29" height="29" fill="white"/>
</clipPath>
</defs>
</svg>
