<svg width="30" height="30" viewBox="0 0 30 30" fill="none" xmlns="http://www.w3.org/2000/svg">
<g clip-path="url(#clip0_3099_1830)">
<path d="M19.5 27H18V24.5C18 24.224 17.776 24 17.5 24C17.2241 24 17.0001 24.224 17.0001 24.5V27.5C17.0001 27.776 17.2241 28 17.5 28H19.5C20.0615 28 20.6475 28.4569 20.8875 29H9.11252C9.35252 28.457 9.93852 28 10.5 28H15.5C15.776 28 16 27.776 16 27.5C16 27.224 15.776 27 15.5 27H13V24.5C13 24.224 12.776 24 12.5 24C12.224 24 12 24.224 12 24.5V27H10.5C9.215 27 8 28.215 8 29.5C8 29.776 8.224 30 8.49998 30H21.5C21.776 30 22 29.776 22 29.5C22 28.215 20.785 27 19.5 27Z" fill="white"/>
<path d="M22.5335 15.9555C22.6005 15.9861 22.6705 16 22.7395 16C22.9296 16 23.1115 15.891 23.1955 15.7065C23.729 14.5275 24 13.2805 24 12C24 7.03752 19.9625 3 15 3C10.0375 3 6 7.03752 6 12C6 13.2805 6.271 14.5275 6.80449 15.7065C6.91898 15.958 7.21547 16.0695 7.46648 15.9555C7.71797 15.8415 7.82947 15.545 7.71598 15.2936C7.24049 14.2451 6.99996 13.1371 6.99996 12.0001C6.99996 7.58906 10.5889 4.00008 14.9999 4.00008C19.4109 4.00008 23 7.58906 23 12.0001C23 13.1371 22.7595 14.2451 22.284 15.2936C22.1705 15.545 22.282 15.8416 22.5335 15.9555Z" fill="white"/>
<path d="M27.5 0H2.50002C1.215 0 0 1.215 0 2.50002V15.5C0 15.776 0.224004 16 0.49998 16C0.775957 16 0.999961 15.776 0.999961 15.5V2.50002C0.999961 1.771 1.77094 1.00002 2.49996 1.00002H27.5C28.229 1.00002 29 1.771 29 2.50002V20.5C29 21.229 28.229 22 27.5 22H2.50002C1.771 22 1.00002 21.229 1.00002 20.5V18H27.5C27.776 18 28 17.776 28 17.5C28 17.224 27.776 17 27.5 17H0.49998C0.224004 17 0 17.224 0 17.5V20.5C0 21.785 1.215 23 2.50002 23H27.5C28.7851 23 30.0001 21.785 30.0001 20.5V2.50002C30 1.215 28.785 0 27.5 0Z" fill="white"/>
<path d="M20.202 15.921C20.2855 15.9745 20.379 16 20.471 16C20.636 16 20.7971 15.9185 20.8926 15.77C21.6171 14.6395 22 13.336 22 12C22 8.14004 18.8601 5 15 5C11.14 5 8 8.14004 8 12C8 13.336 8.38303 14.6395 9.10748 15.77C9.25596 16.002 9.56498 16.0705 9.79801 15.921C10.0305 15.772 10.0985 15.4625 9.949 15.23C9.3285 14.261 9.00002 13.1445 9.00002 12C9.00002 8.69152 11.6915 6.00002 15 6.00002C18.3085 6.00002 21 8.69152 21 12C21 13.1445 20.6715 14.261 20.051 15.23C19.9015 15.4625 19.9695 15.772 20.202 15.921Z" fill="white"/>
<path d="M14 20C14 20.5515 14.4485 21 15 21C15.5515 21 16 20.5516 16 20C16 19.4485 15.5516 19 15 19C14.4485 19.0001 14 19.4485 14 20Z" fill="white"/>
<path d="M15 9.5C15.5515 9.5 16 9.94848 16 10.5C16 10.776 16.224 11 16.5 11C16.776 11 17 10.776 17 10.5C17 9.57102 16.3599 8.79453 15.5 8.571V8.49998C15.5 8.224 15.276 8 15 8C14.724 8 14.5 8.224 14.5 8.49998V8.571C13.64 8.79447 13 9.57102 13 10.5C13 11.603 13.897 12.5 15 12.5C15.5515 12.5 16 12.9485 16 13.5C16 14.0515 15.5515 14.5 15 14.5C14.4485 14.5 14 14.0516 14 13.5C14 13.224 13.776 13 13.5 13C13.224 13 13 13.224 13 13.5C13 14.429 13.64 15.2055 14.5 15.429V15.5001C14.5 15.776 14.724 16 15 16C15.276 16 15.5 15.776 15.5 15.5001V15.429C16.3599 15.2056 17 14.429 17 13.5C17 12.397 16.1029 11.5 15 11.5C14.4485 11.5 14 11.0516 14 10.5C14 9.94848 14.4485 9.5 15 9.5Z" fill="white"/>
</g>
<defs>
<clipPath id="clip0_3099_1830">
<rect width="30" height="30" fill="white"/>
</clipPath>
</defs>
</svg>
