<svg width="30" height="30" viewBox="0 0 30 30" fill="none" xmlns="http://www.w3.org/2000/svg">
<g clip-path="url(#clip0_3099_1807)">
<path d="M10.541 15.9141H3.88477V20.9238H10.541V15.9141ZM9.31641 19.7051H5.10352V17.1387H9.31641V19.7051Z" fill="white"/>
<path d="M22.4531 23.9824H10.4824V25.207H22.4531V23.9824Z" fill="white"/>
<path d="M26.543 0.644531H7.0957C5.56641 0.644531 4.2832 1.92773 4.2832 3.45703V11.8242H3.45703C1.92773 11.8242 0.644531 13.1074 0.644531 14.6367V26.543C0.644531 28.0723 1.92773 29.3555 3.45703 29.3555H23.4961C25.0254 29.3555 26.3086 28.0723 26.3086 26.4844V18.1758H26.5547C28.084 18.1758 29.3672 16.8926 29.3672 15.3047V3.45703C29.3555 1.92773 28.0723 0.644531 26.543 0.644531ZM7.0957 1.86914H26.543C27.3984 1.86914 28.1309 2.60156 28.1309 3.45703V4.68164H5.50781V3.45703C5.50781 2.60156 6.24023 1.86914 7.0957 1.86914ZM25.0781 26.4844C25.0781 27.3398 24.3457 28.0723 23.4902 28.0723H3.45703C2.60156 28.0723 1.86914 27.3398 1.86914 26.4844V14.6309C1.86914 13.7754 2.60156 13.043 3.45703 13.043H23.4961C24.3516 13.043 25.084 13.7754 25.084 14.6309V26.4844H25.0781ZM26.543 16.957H26.2969V14.6367C26.2969 13.1074 25.0137 11.8242 23.4844 11.8242H5.50781V5.90039H28.1309V15.3691C28.1309 16.2246 27.3984 16.957 26.543 16.957Z" fill="white"/>
</g>
<defs>
<clipPath id="clip0_3099_1807">
<rect width="30" height="30" fill="white"/>
</clipPath>
</defs>
</svg>
