<svg width="30" height="30" viewBox="0 0 30 30" fill="none" xmlns="http://www.w3.org/2000/svg">
<path fill-rule="evenodd" clip-rule="evenodd" d="M7.34093 4.075C7.42883 3.97314 7.53763 3.8914 7.65992 3.83532C7.78221 3.77924 7.91515 3.75014 8.04968 3.75H22.1872C22.3246 3.75005 22.4603 3.78031 22.5847 3.83863C22.7092 3.89695 22.8192 3.98192 22.9072 4.0875L29.1572 11.5875C29.3034 11.763 29.3805 11.9858 29.3741 12.2141C29.3677 12.4424 29.2781 12.6606 29.1222 12.8275L15.6847 27.2025C15.597 27.2964 15.4909 27.3712 15.3731 27.4224C15.2552 27.4735 15.1281 27.4999 14.9997 27.4999C14.8712 27.4999 14.7441 27.4735 14.6263 27.4224C14.5085 27.3712 14.4024 27.2964 14.3147 27.2025L0.877185 12.8275C0.718937 12.6585 0.628826 12.4369 0.62421 12.2054C0.619594 11.9739 0.7008 11.7489 0.852185 11.5737L7.33968 4.07375L7.34093 4.075ZM8.47843 5.625L2.82218 12.1625L14.9997 25.1912L27.1872 12.1537L21.7484 5.625H8.47843Z" fill="white"/>
</svg>
