<svg width="16" height="17" viewBox="0 0 16 17" fill="none" xmlns="http://www.w3.org/2000/svg">
<path d="M9.50781 7.08325H10.145C10.7822 7.08325 10.7822 7.79159 11.4296 9.58154C12.0566 11.3333 12.0566 12.0416 12.6938 12.0416H13.331" stroke="#333333" stroke-linecap="round" stroke-linejoin="round"/>
<path d="M8.87109 12.0416C9.8269 12.0416 10.7827 10.6249 11.4199 9.56242C12.0571 8.49992 13.0129 7.08325 13.9687 7.08325" stroke="#333333" stroke-linecap="round" stroke-linejoin="round"/>
<path d="M2.5 13.4583C2.5 14.5208 2.8186 14.875 3.77441 14.875C4.73021 14.875 5.04881 12.0417 5.68602 8.5C6.32322 4.95833 6.64182 2.125 7.59763 2.125C8.55343 2.125 8.87203 2.47917 8.87203 3.54167" stroke="#333333" stroke-linecap="round" stroke-linejoin="round"/>
<path d="M3.77344 8.5H7.59666" stroke="#333333" stroke-linecap="round" stroke-linejoin="round"/>
</svg>
