<svg width="32" height="32" viewBox="0 0 32 32" fill="none" xmlns="http://www.w3.org/2000/svg">
<path d="M1.50006 10C1.50006 5.30558 5.30564 1.5 10.0001 1.5H22.4928C27.1873 1.5 30.9928 5.30558 30.9928 10V30.5156H10.0001C5.30563 30.5156 1.50006 26.71 1.50006 22.0156V10Z" fill="url(#paint0_linear_499_18658)" stroke="url(#paint1_linear_499_18658)"/>
<path d="M15.6563 23.5625H22.9008C22.988 23.5637 23.0746 23.5473 23.1554 23.5145C23.2362 23.4816 23.3096 23.4329 23.3713 23.3713C23.4329 23.3096 23.4816 23.2362 23.5145 23.1554C23.5473 23.0746 23.5637 22.988 23.5625 22.9008V15.6562C23.5625 13.5594 22.7295 11.5484 21.2468 10.0657C19.7641 8.58298 17.7531 7.75 15.6563 7.75V7.75C14.618 7.75 13.5899 7.9545 12.6307 8.35183C11.6714 8.74915 10.7999 9.33152 10.0657 10.0657C9.33153 10.7999 8.74916 11.6714 8.35183 12.6307C7.9545 13.5899 7.75 14.618 7.75 15.6562V15.6562C7.75 16.6945 7.9545 17.7226 8.35183 18.6818C8.74916 19.6411 9.33153 20.5126 10.0657 21.2468C10.7999 21.981 11.6714 22.5633 12.6307 22.9607C13.5899 23.358 14.618 23.5625 15.6563 23.5625V23.5625Z" stroke="white" strokeWidth="1.5" strokeLinecap="round" strokeLinejoin="round"/>
<path d="M15.6562 16.8594C15.1816 16.8594 14.7969 16.4746 14.7969 16C14.7969 15.5254 15.1816 15.1406 15.6562 15.1406C16.1309 15.1406 16.5156 15.5254 16.5156 16C16.5156 16.4746 16.1309 16.8594 15.6562 16.8594Z" fill="white"/>
<path d="M11.5312 16.8594C11.0566 16.8594 10.6719 16.4746 10.6719 16C10.6719 15.5254 11.0566 15.1406 11.5312 15.1406C12.0059 15.1406 12.3906 15.5254 12.3906 16C12.3906 16.4746 12.0059 16.8594 11.5312 16.8594Z" fill="white"/>
<path d="M19.7812 16.8594C19.3066 16.8594 18.9219 16.4746 18.9219 16C18.9219 15.5254 19.3066 15.1406 19.7812 15.1406C20.2559 15.1406 20.6406 15.5254 20.6406 16C20.6406 16.4746 20.2559 16.8594 19.7812 16.8594Z" fill="white"/>
<defs>
<linearGradient id="paint0_linear_499_18658" x1="16.2464" y1="1" x2="16.2464" y2="31.0156" gradientUnits="userSpaceOnUse">
<stop stop-color="#EC78FF"/>
<stop offset="1" stop-color="#B032FE"/>
</linearGradient>
<linearGradient id="paint1_linear_499_18658" x1="16.2464" y1="1" x2="16.2464" y2="31.0156" gradientUnits="userSpaceOnUse">
<stop stop-color="#EC78FF"/>
<stop offset="1" stop-color="#B032FE"/>
</linearGradient>
</defs>
</svg>
