<svg width="25" height="25" viewBox="0 0 25 25" fill="none" xmlns="http://www.w3.org/2000/svg">
<path d="M12.9375 22.875C12.7303 22.875 12.5316 22.7927 12.3851 22.6462C12.2386 22.4996 12.1562 22.3009 12.1562 22.0937C12.1562 21.8865 12.2386 21.6878 12.3851 21.5413C12.5316 21.3948 12.7303 21.3125 12.9375 21.3125C14.7159 21.3144 16.4582 20.8104 17.9609 19.8594C18.0468 19.793 18.1456 19.7453 18.251 19.7192C18.3564 19.6932 18.466 19.6894 18.573 19.7081C18.6799 19.7268 18.7818 19.7675 18.8721 19.8278C18.9624 19.888 19.0391 19.9664 19.0974 20.058C19.1557 20.1495 19.1943 20.2522 19.2108 20.3595C19.2272 20.4668 19.221 20.5764 19.1928 20.6812C19.1645 20.786 19.1147 20.8837 19.0465 20.9682C18.9783 21.0527 18.8933 21.1221 18.7969 21.1719C17.0467 22.2879 15.0133 22.879 12.9375 22.875Z" fill="white"/>
<path d="M21.5309 18.1328C21.3913 18.1331 21.2542 18.096 21.1338 18.0253C21.0134 17.9546 20.9142 17.853 20.8464 17.731C20.7786 17.6089 20.7447 17.471 20.7483 17.3314C20.7519 17.1919 20.7928 17.0559 20.8668 16.9375C21.8108 15.4407 22.3119 13.7072 22.3121 11.9375C22.3121 11.7303 22.3944 11.5316 22.5409 11.3851C22.6874 11.2386 22.8862 11.1562 23.0934 11.1562C23.3006 11.1562 23.4993 11.2386 23.6458 11.3851C23.7923 11.5316 23.8746 11.7303 23.8746 11.9375C23.8753 13.9997 23.2931 16.0201 22.1949 17.7656C22.1246 17.8782 22.0267 17.971 21.9105 18.0353C21.7943 18.0995 21.6636 18.1331 21.5309 18.1328Z" fill="white"/>
<path d="M12.9375 22.875C10.7743 22.875 8.65962 22.2335 6.86096 21.0317C5.06229 19.8299 3.66041 18.1217 2.83257 16.1231C2.00474 14.1245 1.78814 11.9254 2.21017 9.80371C2.63219 7.68204 3.67389 5.73316 5.20352 4.20352C6.73316 2.67389 8.68204 1.63219 10.8037 1.21017C12.9254 0.78814 15.1245 1.00474 17.1231 1.83257C19.1217 2.66041 20.8299 4.06229 22.0317 5.86096C23.2335 7.65962 23.875 9.77427 23.875 11.9375C23.875 12.1447 23.7927 12.3434 23.6462 12.4899C23.4997 12.6364 23.301 12.7188 23.0938 12.7188C22.8866 12.7188 22.6878 12.6364 22.5413 12.4899C22.3948 12.3434 22.3125 12.1447 22.3125 11.9375C22.3125 10.0833 21.7627 8.27075 20.7325 6.72903C19.7024 5.18732 18.2382 3.98571 16.5252 3.27613C14.8121 2.56656 12.9271 2.38091 11.1085 2.74264C9.28996 3.10438 7.6195 3.99726 6.30838 5.30838C4.99726 6.6195 4.10438 8.28996 3.74264 10.1085C3.38091 11.9271 3.56656 13.8121 4.27613 15.5252C4.98571 17.2382 6.18732 18.7024 7.72903 19.7325C9.27075 20.7627 11.0833 21.3125 12.9375 21.3125C13.1447 21.3125 13.3434 21.3948 13.4899 21.5413C13.6364 21.6878 13.7188 21.8866 13.7188 22.0938C13.7188 22.301 13.6364 22.4997 13.4899 22.6462C13.3434 22.7927 13.1447 22.875 12.9375 22.875Z" fill="white"/>
<path d="M23.0937 22.875C23.009 22.8728 22.925 22.8597 22.8437 22.8359L18.1562 21.2734C18.0587 21.2406 17.9687 21.1889 17.8912 21.1212C17.8137 21.0536 17.7503 20.9714 17.7046 20.8792C17.6589 20.7871 17.6318 20.6869 17.6248 20.5843C17.6179 20.4817 17.6312 20.3787 17.664 20.2812C17.6969 20.1837 17.7486 20.0937 17.8162 20.0162C17.8838 19.9387 17.966 19.8753 18.0582 19.8296C18.1503 19.7839 18.2505 19.7568 18.3532 19.7498C18.4558 19.7429 18.5587 19.7562 18.6562 19.789L23.3437 21.3515C23.4448 21.3801 23.5392 21.4287 23.6211 21.4945C23.7029 21.5603 23.7707 21.642 23.8203 21.7346C23.8699 21.8273 23.9003 21.929 23.9097 22.0336C23.9191 22.1383 23.9073 22.2437 23.875 22.3437C23.8206 22.5054 23.7148 22.6449 23.5737 22.7408C23.4327 22.8367 23.2641 22.8839 23.0937 22.875Z" fill="white"/>
<path d="M23.0937 22.875C22.9299 22.8754 22.7702 22.8243 22.637 22.729C22.5038 22.6337 22.4039 22.4989 22.3515 22.3437L20.789 17.6562C20.7562 17.5587 20.7429 17.4558 20.7498 17.3532C20.7568 17.2505 20.7839 17.1503 20.8296 17.0582C20.8753 16.966 20.9387 16.8838 21.0162 16.8162C21.0937 16.7486 21.1837 16.6969 21.2812 16.664C21.3787 16.6312 21.4817 16.6179 21.5843 16.6248C21.6869 16.6318 21.7871 16.6589 21.8792 16.7046C21.9714 16.7503 22.0536 16.8137 22.1212 16.8912C22.1889 16.9687 22.2406 17.0587 22.2734 17.1562L23.8359 21.8437C23.8751 21.9434 23.8935 22.0502 23.8897 22.1573C23.8859 22.2644 23.8602 22.3696 23.814 22.4663C23.7678 22.5631 23.7022 22.6493 23.6213 22.7196C23.5404 22.7898 23.4459 22.8427 23.3437 22.875C23.2607 22.8857 23.1767 22.8857 23.0937 22.875Z" fill="white"/>
<path d="M12.5383 12.8428H15.6088C15.3223 14.0856 14.4148 14.8005 13.1115 14.8005C11.433 14.8005 10.348 13.678 10.348 11.9475C10.348 10.2571 11.4261 9.11456 13.0364 9.11456C13.9781 9.11456 14.715 9.50877 15.1107 10.2304L15.1176 10.2437H17.2396L17.226 10.2036C16.6528 8.47313 15.0834 7.4375 13.0296 7.4375C11.7605 7.4375 10.6005 7.88516 9.75441 8.70031C8.90149 9.52213 8.4375 10.678 8.4375 11.9408C8.4375 14.5466 10.3753 16.4375 13.0433 16.4375C13.1729 16.4375 13.2957 16.4308 13.4185 16.4241C15.6703 16.2571 17.4375 14.3662 17.4375 12.1212V11.433H12.5315V12.8428H12.5383Z" fill="white"/>
</svg>
