<svg width="16" height="16" viewBox="0 0 16 16" fill="none" xmlns="http://www.w3.org/2000/svg">
<path d="M13.5 3H2.5C2.22386 3 2 3.22386 2 3.5V12.5C2 12.7761 2.22386 13 2.5 13H13.5C13.7761 13 14 12.7761 14 12.5V3.5C14 3.22386 13.7761 3 13.5 3Z" stroke="#333333" stroke-width="1.2" stroke-linecap="round" stroke-linejoin="round"/>
<path d="M2 10.4999L5.14375 7.35619C5.19027 7.30895 5.24573 7.27144 5.30689 7.24583C5.36805 7.22022 5.43369 7.20703 5.5 7.20703C5.56631 7.20703 5.63195 7.22022 5.69311 7.24583C5.75427 7.27144 5.80973 7.30895 5.85625 7.35619L8.64375 10.1437C8.69027 10.1909 8.74573 10.2285 8.80689 10.2541C8.86805 10.2797 8.93369 10.2929 9 10.2929C9.06631 10.2929 9.13195 10.2797 9.19311 10.2541C9.25427 10.2285 9.30973 10.1909 9.35625 10.1437L10.6438 8.85619C10.6903 8.80895 10.7457 8.77144 10.8069 8.74583C10.8681 8.72022 10.9337 8.70703 11 8.70703C11.0663 8.70703 11.1319 8.72022 11.1931 8.74583C11.2543 8.77144 11.3097 8.80895 11.3562 8.85619L14 11.4999" stroke="#333333" stroke-width="1.2" stroke-linecap="round" stroke-linejoin="round"/>
<path d="M10.3125 6.25C10.3125 6.56066 10.0607 6.8125 9.75 6.8125C9.43934 6.8125 9.1875 6.56066 9.1875 6.25C9.1875 5.93934 9.43934 5.6875 9.75 5.6875C10.0607 5.6875 10.3125 5.93934 10.3125 6.25Z" fill="#333333" stroke="#333333" stroke-width="0.125"/>
</svg>
