<svg width="15" height="15" viewBox="0 0 15 15" fill="none" xmlns="http://www.w3.org/2000/svg">
<path d="M9.28125 6.3125C9.63355 6.3125 9.97793 6.20803 10.2709 6.01231C10.5638 5.81658 10.7921 5.53839 10.9269 5.2129C11.0617 4.88742 11.097 4.52927 11.0283 4.18375C10.9595 3.83822 10.7899 3.52083 10.5408 3.27172C10.2917 3.0226 9.97428 2.85296 9.62876 2.78423C9.28323 2.7155 8.92508 2.75077 8.5996 2.88559C8.27411 3.02041 7.99592 3.24872 7.80019 3.54164C7.60447 3.83457 7.5 4.17895 7.5 4.53125C7.5 5.00367 7.68767 5.45674 8.02172 5.79078C8.35576 6.12483 8.80883 6.3125 9.28125 6.3125ZM9.28125 3.9375C9.39868 3.9375 9.51348 3.97232 9.61112 4.03756C9.70876 4.10281 9.78486 4.19554 9.8298 4.30403C9.87474 4.41253 9.8865 4.53191 9.86359 4.64708C9.84068 4.76226 9.78413 4.86806 9.7011 4.95109C9.61806 5.03413 9.51226 5.09068 9.39709 5.11359C9.28191 5.1365 9.16253 5.12474 9.05403 5.0798C8.94554 5.03486 8.85281 4.95876 8.78756 4.86112C8.72232 4.76348 8.6875 4.64868 8.6875 4.53125C8.6875 4.37378 8.75006 4.22276 8.8614 4.11141C8.97275 4.00006 9.12378 3.9375 9.28125 3.9375Z" fill="#4E4E4E"/>
<path d="M13.4375 0.375H1.5625C1.24756 0.375 0.94551 0.500111 0.722811 0.722811C0.500111 0.94551 0.375 1.24756 0.375 1.5625V13.4375C0.375 13.7524 0.500111 14.0545 0.722811 14.2772C0.94551 14.4999 1.24756 14.625 1.5625 14.625H13.4375C13.7524 14.625 14.0545 14.4999 14.2772 14.2772C14.4999 14.0545 14.625 13.7524 14.625 13.4375V1.5625C14.625 1.24756 14.4999 0.94551 14.2772 0.722811C14.0545 0.500111 13.7524 0.375 13.4375 0.375ZM13.4375 13.4375H1.5625V9.875L4.53125 6.90625L7.85031 10.2253C8.07281 10.4465 8.37378 10.5706 8.6875 10.5706C9.00122 10.5706 9.30219 10.4465 9.52469 10.2253L10.4688 9.28125L13.4375 12.25V13.4375ZM13.4375 10.5697L11.3059 8.43812C11.0834 8.21695 10.7825 8.09281 10.4688 8.09281C10.155 8.09281 9.85406 8.21695 9.63156 8.43812L8.6875 9.38219L5.36844 6.06313C5.14594 5.84195 4.84497 5.71781 4.53125 5.71781C4.21753 5.71781 3.91656 5.84195 3.69406 6.06313L1.5625 8.19469V1.5625H13.4375V10.5697Z" fill="#4E4E4E"/>
</svg>
