<svg width="17" height="17" viewBox="0 0 17 17" fill="none" xmlns="http://www.w3.org/2000/svg">
<path d="M8.5 11.6875C10.2604 11.6875 11.6875 10.2604 11.6875 8.5C11.6875 6.73959 10.2604 5.3125 8.5 5.3125C6.73959 5.3125 5.3125 6.73959 5.3125 8.5C5.3125 10.2604 6.73959 11.6875 8.5 11.6875Z" stroke="#6174A4" stroke-width="1.2" stroke-linecap="round" stroke-linejoin="round"/>
<path d="M12.1988 4.32324C12.367 4.47819 12.5264 4.63757 12.6769 4.80137L14.4898 5.06035C14.7852 5.57334 15.0129 6.12245 15.1671 6.69395L14.0648 8.16152C14.0648 8.16152 14.0847 8.61309 14.0648 8.83887L15.1671 10.3064C15.0136 10.8782 14.7859 11.4274 14.4898 11.94L12.6769 12.199C12.6769 12.199 12.3648 12.5244 12.1988 12.6771L11.9398 14.49C11.4268 14.7854 10.8777 15.0131 10.3062 15.1674L8.83862 14.065C8.61328 14.085 8.38662 14.085 8.16128 14.065L6.6937 15.1674C6.12196 15.0138 5.57277 14.7861 5.06011 14.49L4.80112 12.6771C4.63732 12.5222 4.47795 12.3628 4.323 12.199L2.51011 11.94C2.21472 11.427 1.98704 10.8779 1.83276 10.3064L2.93511 8.83887C2.93511 8.83887 2.91519 8.3873 2.93511 8.16152L1.83276 6.69395C1.98633 6.1222 2.21404 5.57301 2.51011 5.06035L4.323 4.80137C4.47795 4.63757 4.63732 4.47819 4.80112 4.32324L5.06011 2.51035C5.5731 2.21496 6.1222 1.98729 6.6937 1.83301L8.16128 2.93535C8.38662 2.91543 8.61328 2.91543 8.83862 2.93535L10.3062 1.83301C10.8779 1.98657 11.4271 2.21429 11.9398 2.51035L12.1988 4.32324Z" stroke="#6174A4" stroke-width="1.2" stroke-linecap="round" stroke-linejoin="round"/>
</svg>
