<svg width="18" height="18" viewBox="0 0 18 18" fill="none" xmlns="http://www.w3.org/2000/svg">
<path d="M9 12.375C10.864 12.375 12.375 10.864 12.375 9C12.375 7.13604 10.864 5.625 9 5.625C7.13604 5.625 5.625 7.13604 5.625 9C5.625 10.864 7.13604 12.375 9 12.375Z" stroke="#333333" stroke-width="1.5" stroke-linecap="round" stroke-linejoin="round"/>
<path d="M13.8794 5.67441C14.0486 5.91676 14.1968 6.17317 14.3223 6.44082L16.1434 7.45332C16.3708 8.47178 16.3732 9.52759 16.1505 10.5471L14.3223 11.5596C14.1968 11.8272 14.0486 12.0836 13.8794 12.326L13.9145 14.4143C13.1427 15.1175 12.2293 15.6474 11.2356 15.9682L9.44265 14.8924C9.14772 14.9135 8.85165 14.9135 8.55672 14.8924L6.77078 15.9611C5.77396 15.6462 4.8575 15.1184 4.08484 14.4143L4.12 12.333C3.95214 12.0873 3.80402 11.8287 3.67703 11.5596L1.85593 10.5471C1.62854 9.52861 1.62614 8.4728 1.8489 7.45332L3.67703 6.44082C3.80252 6.17317 3.95072 5.91676 4.12 5.67441L4.08484 3.58613C4.85663 2.88284 5.77008 2.35299 6.76375 2.03223L8.55672 3.10801C8.85165 3.08691 9.14772 3.08691 9.44265 3.10801L11.2286 2.03926C12.2254 2.35418 13.1419 2.88199 13.9145 3.58613L13.8794 5.67441Z" stroke="#333333" stroke-width="1.5" stroke-linecap="round" stroke-linejoin="round"/>
</svg>
