<svg width="18" height="17" viewBox="0 0 18 17" fill="none" xmlns="http://www.w3.org/2000/svg">
<g id="Gear">
<path id="Vector" d="M9.41679 11.6875C11.1943 11.6875 12.6353 10.2604 12.6353 8.5C12.6353 6.73959 11.1943 5.3125 9.41679 5.3125C7.63923 5.3125 6.19824 6.73959 6.19824 8.5C6.19824 10.2604 7.63923 11.6875 9.41679 11.6875Z" stroke="#555555" stroke-width="1.2" stroke-linecap="round" stroke-linejoin="round"/>
<path id="Vector_2" d="M13.1516 4.32306C13.3214 4.47801 13.4823 4.63738 13.6343 4.80118L15.4649 5.06017C15.7631 5.57316 15.993 6.12226 16.1488 6.69376L15.0357 8.16134C15.0357 8.16134 15.0559 8.6129 15.0357 8.83868L16.1488 10.3063C15.9938 10.878 15.7638 11.4272 15.4649 11.9399L13.6343 12.1988C13.6343 12.1988 13.3192 12.5242 13.1516 12.677L12.89 14.4899C12.3721 14.7852 11.8176 15.0129 11.2405 15.1672L9.75867 14.0649C9.53113 14.0848 9.30226 14.0848 9.07473 14.0649L7.59285 15.1672C7.01554 15.0136 6.461 14.7859 5.94335 14.4899L5.68184 12.677C5.51645 12.522 5.35552 12.3626 5.19906 12.1988L3.36851 11.9399C3.07025 11.4269 2.84035 10.8778 2.68457 10.3063L3.79765 8.83868C3.79765 8.83868 3.77754 8.38712 3.79765 8.16134L2.68457 6.69376C2.83963 6.12202 3.06956 5.57283 3.36851 5.06017L5.19906 4.80118C5.35552 4.63738 5.51645 4.47801 5.68184 4.32306L5.94335 2.51017C6.46134 2.21478 7.01579 1.98711 7.59285 1.83282L9.07473 2.93517C9.30226 2.91524 9.53113 2.91524 9.75867 2.93517L11.2405 1.83282C11.8179 1.98639 12.3724 2.2141 12.89 2.51017L13.1516 4.32306Z" stroke="#555555" stroke-width="1.2" stroke-linecap="round" stroke-linejoin="round"/>
</g>
</svg>
