<svg width="28" height="28" viewBox="0 0 28 28" fill="none" xmlns="http://www.w3.org/2000/svg">
<rect x="15" width="12.7059" height="12.7059" rx="6.35294" fill="#F6DDEF"/>
<path fill-rule="evenodd" clip-rule="evenodd" d="M6.125 6C6.05596 6 6 6.05596 6 6.125V11.375C6 11.444 6.05596 11.5 6.125 11.5H11.375C11.444 11.5 11.5 11.444 11.5 11.375V6.125C11.5 6.05596 11.444 6 11.375 6H6.125ZM4.5 6.125C4.5 5.22754 5.22754 4.5 6.125 4.5H11.375C12.2725 4.5 13 5.22754 13 6.125V11.375C13 12.2725 12.2725 13 11.375 13H6.125C5.22754 13 4.5 12.2725 4.5 11.375V6.125ZM6.125 16.5C6.05596 16.5 6 16.556 6 16.625V21.875C6 21.944 6.05596 22 6.125 22H11.375C11.444 22 11.5 21.944 11.5 21.875V16.625C11.5 16.556 11.444 16.5 11.375 16.5H6.125ZM4.5 16.625C4.5 15.7275 5.22754 15 6.125 15H11.375C12.2725 15 13 15.7275 13 16.625V21.875C13 22.7725 12.2725 23.5 11.375 23.5H6.125C5.22754 23.5 4.5 22.7725 4.5 21.875V16.625ZM16.5 6.125C16.5 6.05596 16.556 6 16.625 6H21.875C21.944 6 22 6.05596 22 6.125V11.375C22 11.444 21.944 11.5 21.875 11.5H16.625C16.556 11.5 16.5 11.444 16.5 11.375V6.125ZM16.625 4.5C15.7275 4.5 15 5.22754 15 6.125V11.375C15 12.2725 15.7275 13 16.625 13H21.875C22.7725 13 23.5 12.2725 23.5 11.375V6.125C23.5 5.22754 22.7725 4.5 21.875 4.5H16.625ZM19 17.675C18.2682 17.675 17.675 18.2682 17.675 19C17.675 19.0285 17.6759 19.0569 17.6777 19.085C17.7215 19.7771 18.2968 20.325 19 20.325C19.7318 20.325 20.325 19.7318 20.325 19C20.325 18.9715 20.3241 18.9431 20.3223 18.915C20.2785 18.2229 19.7032 17.675 19 17.675ZM16.575 19C16.575 17.6607 17.6607 16.575 19 16.575C20.2871 16.575 21.3399 17.5777 21.4201 18.8445C21.4233 18.8959 21.425 18.9478 21.425 19C21.425 20.3393 20.3393 21.425 19 21.425C17.7129 21.425 16.6601 20.4223 16.5799 19.1555C16.5767 19.1041 16.575 19.0522 16.575 19ZM18.2678 14.6384C18.1324 14.5366 17.9577 14.503 17.7942 14.5471C17.4121 14.6503 17.045 14.8025 16.7021 14.9999C16.5556 15.0843 16.456 15.2314 16.4321 15.3988L16.3063 16.2792L16.2792 16.3063L15.3988 16.4321C15.2316 16.456 15.0847 16.5553 15.0003 16.7015C14.8021 17.0446 14.6497 17.4122 14.547 17.7948C14.5031 17.9582 14.5368 18.1326 14.6384 18.2678L15.1714 18.9774L15.1717 19.0221L14.6384 19.7322C14.5366 19.8676 14.503 20.0423 14.5471 20.2058C14.6503 20.5879 14.8025 20.955 14.9999 21.2979C15.0843 21.4444 15.2314 21.544 15.3988 21.5679L16.2792 21.6937L16.3063 21.7208L16.4321 22.6012C16.456 22.7684 16.5553 22.9153 16.7015 22.9997C17.0446 23.1979 17.4122 23.3503 17.7948 23.453C17.9582 23.4969 18.1326 23.4632 18.2678 23.3616L18.9728 22.8321C18.9909 22.8323 19.0091 22.8323 19.0272 22.8321L19.7322 23.3616C19.8676 23.4634 20.0423 23.497 20.2058 23.4529C20.5879 23.3497 20.955 23.1975 21.2979 23.0001C21.4444 22.9157 21.544 22.7686 21.5679 22.6012L21.6938 21.7203L21.7201 21.6938L22.6012 21.5679C22.7684 21.544 22.9153 21.4447 22.9997 21.2985C23.1979 20.9554 23.3503 20.5878 23.453 20.2052C23.4969 20.0418 23.4632 19.8674 23.3616 19.7322L22.8286 19.0226L22.8283 18.9779L23.3616 18.2678C23.4634 18.1324 23.497 17.9577 23.4529 17.7942C23.3497 17.4121 23.1975 17.045 23.0001 16.7021C22.9157 16.5556 22.7686 16.456 22.6012 16.4321L21.7231 16.3066L21.6934 16.2769L21.5679 15.3988C21.544 15.2316 21.4447 15.0847 21.2985 15.0003C20.9554 14.8021 20.5878 14.6497 20.2052 14.547C20.0418 14.5031 19.8674 14.5368 19.7322 14.6384L19.0272 15.1679C19.0091 15.1677 18.9909 15.1677 18.9728 15.1679L18.2678 14.6384ZM16.1663 19.5295C16.2429 19.4276 16.2816 19.3023 16.276 19.175L16.276 19.175L16.276 19.1748L16.276 19.1732L16.2757 19.1658L16.2746 19.137C16.2738 19.1122 16.2727 19.0779 16.2721 19.0401C16.2706 18.9564 16.2714 18.8832 16.2744 18.8491C16.2864 18.7139 16.2479 18.579 16.1663 18.4705L15.6863 17.8314C15.7282 17.7122 15.7767 17.5954 15.8314 17.4814L16.6208 17.3687C16.7437 17.3511 16.8572 17.2924 16.9425 17.2022C17.0267 17.1132 17.1132 17.0267 17.2022 16.9425C17.2924 16.8572 17.3511 16.7437 17.3687 16.6208L17.4814 15.8318C17.5954 15.777 17.7124 15.7285 17.8317 15.6865L18.4705 16.1663C18.579 16.2479 18.714 16.2864 18.8492 16.2744C18.9495 16.2656 19.0505 16.2656 19.1508 16.2744C19.286 16.2864 19.421 16.2479 19.5295 16.1663L20.1686 15.6863C20.2878 15.7282 20.4047 15.7767 20.5186 15.8314L20.6313 16.6208C20.6492 16.7462 20.7099 16.8617 20.8032 16.9475C20.8912 17.0286 20.9741 17.1116 21.0521 17.1964C21.138 17.2898 21.2536 17.3507 21.3792 17.3687L22.1682 17.4814C22.223 17.5954 22.2715 17.7124 22.3135 17.8317L21.8337 18.4705C21.7571 18.5724 21.7184 18.6977 21.724 18.825L21.724 18.825L21.724 18.8252L21.7241 18.8268L21.7243 18.8342L21.7254 18.863C21.7262 18.8878 21.7273 18.9221 21.7279 18.9599C21.7294 19.0437 21.7286 19.1168 21.7256 19.1509C21.7136 19.2861 21.7521 19.421 21.8337 19.5295L22.3137 20.1686C22.2718 20.2878 22.2233 20.4046 22.1686 20.5186L21.3792 20.6313C21.2576 20.6487 21.1452 20.7063 21.0601 20.795L21.0601 20.7951L21.0601 20.7951L21.0598 20.7954L21.0584 20.7968L21.0528 20.8026L21.0317 20.8245C21.0137 20.8431 20.9887 20.8688 20.9609 20.8971C20.9025 20.9564 20.8409 21.0177 20.8034 21.0523C20.71 21.1382 20.6493 21.2537 20.6313 21.3792L20.5186 22.1682C20.4046 22.223 20.2876 22.2715 20.1683 22.3135L19.5295 21.8337C19.421 21.7521 19.286 21.7136 19.1508 21.7256C19.0505 21.7344 18.9495 21.7344 18.8492 21.7256C18.714 21.7136 18.579 21.7521 18.4705 21.8337L17.8314 22.3137C17.7122 22.2718 17.5954 22.2233 17.4814 22.1686L17.3687 21.3792C17.3511 21.2563 17.2924 21.1428 17.2022 21.0575C17.1132 20.9733 17.0267 20.8868 16.9425 20.7978C16.8572 20.7076 16.7437 20.6489 16.6208 20.6313L15.8318 20.5186C15.777 20.4046 15.7285 20.2876 15.6865 20.1683L16.1663 19.5295Z" fill="url(#paint0_linear_198_30245)"/>
<defs>
<linearGradient id="paint0_linear_198_30245" x1="14" y1="4.5" x2="14" y2="23.5" gradientUnits="userSpaceOnUse">
<stop stop-color="#000AFF"/>
<stop offset="1" stop-color="#D274FF"/>
</linearGradient>
</defs>
</svg>
