<svg width="32" height="32" viewBox="0 0 32 32" fill="none" xmlns="http://www.w3.org/2000/svg">
<path fill-rule="evenodd" clip-rule="evenodd" d="M6.75 6.5C6.61193 6.5 6.5 6.61193 6.5 6.75V12.75C6.5 12.8881 6.61193 13 6.75 13H12.75C12.8881 13 13 12.8881 13 12.75V6.75C13 6.61193 12.8881 6.5 12.75 6.5H6.75ZM5 6.75C5 5.7835 5.7835 5 6.75 5H12.75C13.7165 5 14.5 5.7835 14.5 6.75V12.75C14.5 13.7165 13.7165 14.5 12.75 14.5H6.75C5.7835 14.5 5 13.7165 5 12.75V6.75ZM6.75 18.5C6.61193 18.5 6.5 18.6119 6.5 18.75V24.75C6.5 24.8881 6.61193 25 6.75 25H12.75C12.8881 25 13 24.8881 13 24.75V18.75C13 18.6119 12.8881 18.5 12.75 18.5H6.75ZM5 18.75C5 17.7835 5.7835 17 6.75 17H12.75C13.7165 17 14.5 17.7835 14.5 18.75V24.75C14.5 25.7165 13.7165 26.5 12.75 26.5H6.75C5.7835 26.5 5 25.7165 5 24.75V18.75ZM18.5 6.75C18.5 6.61193 18.6119 6.5 18.75 6.5H24.75C24.8881 6.5 25 6.61193 25 6.75V12.75C25 12.8881 24.8881 13 24.75 13H18.75C18.6119 13 18.5 12.8881 18.5 12.75V6.75ZM18.75 5C17.7835 5 17 5.7835 17 6.75V12.75C17 13.7165 17.7835 14.5 18.75 14.5H24.75C25.7165 14.5 26.5 13.7165 26.5 12.75V6.75C26.5 5.7835 25.7165 5 24.75 5H18.75ZM22.7863 27.0547H21.1356C21.0343 27.0547 20.9365 27.0172 20.8612 26.9495C20.7859 26.8817 20.7383 26.7885 20.7276 26.6877L20.6054 25.5368C20.4348 25.4788 20.2681 25.4097 20.1064 25.3301L19.207 26.0575C19.1283 26.1209 19.029 26.153 18.928 26.1476C18.8271 26.1423 18.7317 26.0998 18.6602 26.0285L17.4929 24.8612C17.4215 24.7896 17.3791 24.6942 17.3737 24.5933C17.3684 24.4924 17.4005 24.393 17.4639 24.3143L18.1915 23.4139C18.1117 23.2522 18.0426 23.0855 17.9845 22.9148L16.8317 22.7918C16.731 22.7811 16.6378 22.7336 16.57 22.6583C16.5023 22.583 16.4648 22.4854 16.4647 22.3841V20.7331C16.4648 20.6318 16.5023 20.5341 16.57 20.4589C16.6378 20.3836 16.731 20.3361 16.8317 20.3254L17.9826 20.2032C18.0407 20.0325 18.1098 19.8658 18.1896 19.7041L17.462 18.8037C17.3986 18.725 17.3665 18.6257 17.3718 18.5247C17.3772 18.4238 17.4196 18.3284 17.4909 18.2568L18.6582 17.0895C18.7298 17.0182 18.8252 16.9757 18.9261 16.9704C19.0271 16.965 19.1264 16.9972 19.2051 17.0605L20.1055 17.7879C20.2673 17.7083 20.4339 17.6392 20.6046 17.5812L20.7268 16.4303C20.7373 16.3292 20.7849 16.2357 20.8604 16.1677C20.936 16.0998 21.034 16.0623 21.1356 16.0625H22.7863C22.8876 16.0625 22.9854 16.1 23.0607 16.1677C23.136 16.2355 23.1836 16.3287 23.1943 16.4295L23.3163 17.5804C23.487 17.6384 23.6537 17.7075 23.8155 17.7871L24.7157 17.0597C24.7944 16.9963 24.8938 16.9642 24.9947 16.9696C25.0956 16.9749 25.191 17.0174 25.2626 17.0887L26.4299 18.256C26.5012 18.3276 26.5437 18.423 26.549 18.5239C26.5544 18.6248 26.5223 18.7242 26.4589 18.8029L25.7313 19.7033C25.8109 19.8651 25.88 20.0317 25.9382 20.2023L27.0891 20.3246C27.1898 20.3353 27.2829 20.3829 27.3506 20.4581C27.4183 20.5334 27.4558 20.631 27.4558 20.7323V22.3833C27.456 22.4845 27.4188 22.5822 27.3513 22.6576C27.2838 22.733 27.1908 22.7808 27.0902 22.7918L25.9393 22.914C25.8811 23.0846 25.812 23.2513 25.7323 23.413L26.46 24.3135C26.5234 24.3922 26.5555 24.4915 26.5501 24.5925C26.5448 24.6934 26.5023 24.7888 26.431 24.8604L25.2637 26.0285C25.1921 26.0998 25.0967 26.1423 24.9958 26.1476C24.8949 26.153 24.7955 26.1209 24.7168 26.0575L23.8166 25.3301C23.6548 25.4097 23.4881 25.4788 23.3173 25.5368L23.1954 26.6877C23.1847 26.7887 23.137 26.8821 23.0614 26.9498C22.9858 27.0176 22.8878 27.055 22.7863 27.0547ZM21.5039 26.2344H22.4169L22.5288 25.18C22.5375 25.0975 22.5711 25.0195 22.6251 24.9565C22.6791 24.8935 22.751 24.8483 22.8312 24.827C23.1201 24.75 23.3974 24.6347 23.6559 24.4844C23.7278 24.4424 23.8108 24.4234 23.8939 24.4298C23.9769 24.4362 24.056 24.4677 24.1207 24.5202L24.9454 25.1866L25.591 24.541L24.9235 23.7188C24.8711 23.6541 24.8395 23.5749 24.8331 23.4919C24.8267 23.4089 24.8458 23.3259 24.8877 23.2539C25.0377 22.9956 25.1526 22.7185 25.2292 22.4298C25.2506 22.3495 25.2958 22.2776 25.3589 22.2236C25.4219 22.1696 25.4999 22.1361 25.5825 22.1273L26.6366 22.0152V21.1022L25.5825 20.9901C25.4999 20.9814 25.4219 20.9478 25.3589 20.8938C25.2958 20.8398 25.2506 20.7679 25.2292 20.6877C25.1526 20.3989 25.0378 20.1216 24.8877 19.8633C24.8458 19.7913 24.8267 19.7083 24.8331 19.6253C24.8395 19.5422 24.8711 19.4631 24.9235 19.3984L25.5899 18.5738L24.9443 17.9282L24.1196 18.5945C24.0549 18.647 23.9758 18.6785 23.8928 18.6849C23.8097 18.6913 23.7267 18.6723 23.6548 18.6304C23.3964 18.4804 23.1193 18.3656 22.8306 18.2888C22.7504 18.2675 22.6786 18.2223 22.6246 18.1593C22.5706 18.0963 22.537 18.0183 22.5282 17.9358L22.4175 16.8828H21.5039L21.3921 17.9372C21.3833 18.0198 21.3496 18.0977 21.2956 18.1607C21.2415 18.2238 21.1696 18.2689 21.0894 18.2902C20.8009 18.3673 20.524 18.4825 20.2661 18.6328C20.1941 18.6747 20.1111 18.6938 20.028 18.6874C19.945 18.681 19.8659 18.6494 19.8012 18.597L18.9773 17.9295L18.332 18.5751L18.9987 19.3998C19.0511 19.4645 19.0826 19.5437 19.0889 19.6267C19.0953 19.7097 19.0762 19.7927 19.0342 19.8646C18.8844 20.123 18.7696 20.4002 18.6927 20.6888C18.6714 20.769 18.6262 20.8408 18.5632 20.8948C18.5001 20.9488 18.4222 20.9824 18.3397 20.9912L17.2853 21.1033V22.0161L18.3397 22.1282C18.4222 22.1369 18.5001 22.1705 18.5632 22.2245C18.6262 22.2785 18.6714 22.3504 18.6927 22.4306C18.7695 22.7189 18.8843 22.9958 19.0339 23.2539C19.0759 23.3258 19.095 23.4088 19.0886 23.4919C19.0823 23.5749 19.0508 23.654 18.9984 23.7188L18.332 24.5421L18.9776 25.1877L19.8026 24.5213C19.8673 24.4688 19.9464 24.4373 20.0294 24.4309C20.1125 24.4245 20.1955 24.4435 20.2674 24.4855C20.5256 24.6354 20.8027 24.7503 21.0913 24.827C21.1715 24.8483 21.2435 24.8934 21.2975 24.9565C21.3515 25.0195 21.3852 25.0974 21.394 25.18L21.5039 26.2344ZM20.573 23.6356C20.9838 23.9101 21.4667 24.0567 21.9608 24.0567C22.6232 24.0561 23.2582 23.7927 23.7266 23.3243C24.195 22.856 24.4585 22.221 24.4592 21.5586C24.4592 21.0645 24.3127 20.5815 24.0382 20.1707C23.7637 19.7599 23.3736 19.4397 22.9171 19.2507C22.4607 19.0616 21.9584 19.0121 21.4738 19.1084C20.9893 19.2048 20.5441 19.4427 20.1947 19.7921C19.8454 20.1414 19.6074 20.5865 19.511 21.0711C19.4146 21.5556 19.464 22.0579 19.653 22.5144C19.8421 22.9709 20.1622 23.361 20.573 23.6356ZM21.0288 20.1637C21.3046 19.9793 21.629 19.8808 21.9608 19.8808C22.4057 19.8812 22.8322 20.0581 23.1468 20.3727C23.4614 20.6872 23.6384 21.1137 23.6389 21.5586C23.6389 21.8904 23.5405 22.2148 23.3562 22.4907C23.1718 22.7666 22.9098 22.9817 22.6032 23.1087C22.2967 23.2357 21.9593 23.2689 21.6339 23.2042C21.3084 23.1395 21.0095 22.9797 20.7748 22.7451C20.5401 22.5105 20.3803 22.2115 20.3156 21.8861C20.2508 21.5606 20.284 21.2233 20.4109 20.9167C20.5379 20.6101 20.7529 20.3481 21.0288 20.1637Z" fill="url(#paint0_linear_942_449999)"/>
<defs>
<linearGradient id="paint0_linear_942_449999" x1="16.2279" y1="5" x2="16.2279" y2="27.0547" gradientUnits="userSpaceOnUse">
<stop stop-color="#000AFF"/>
<stop offset="1" stop-color="#D274FF"/>
</linearGradient>
</defs>
</svg>
