<svg width="18" height="18" viewBox="0 0 18 18" fill="none" xmlns="http://www.w3.org/2000/svg">
<path d="M17.4868 12.5907C17.267 12.5541 17.0472 12.5541 16.8246 12.5174C16.8054 12.5155 16.7874 12.5068 16.774 12.4928C16.7606 12.4789 16.7526 12.4607 16.7513 12.4414C16.6699 12.199 16.5758 11.961 16.4696 11.7285V11.6158C16.5795 11.427 16.7513 11.2382 16.8725 11.0522C16.9137 10.9962 16.9327 10.927 16.926 10.8578C16.9192 10.7886 16.8871 10.7244 16.8359 10.6774L16.1033 9.9251C16.053 9.87941 15.988 9.85339 15.9201 9.85184C15.8555 9.86613 15.7936 9.89088 15.737 9.9251C15.551 10.0378 15.3678 10.2266 15.1734 10.3393C15.1637 10.3393 15.1544 10.3432 15.1475 10.35C15.1406 10.3569 15.1368 10.3662 15.1368 10.3759H15.1001C14.8437 10.3027 14.6606 10.1505 14.4042 10.0773C14.3845 10.0765 14.3658 10.0682 14.3522 10.054C14.3385 10.0398 14.3309 10.0209 14.3309 10.0012C14.2943 9.77576 14.2943 9.58697 14.2576 9.36155C14.2616 9.29895 14.2465 9.23661 14.2143 9.18278C14.1821 9.12895 14.1343 9.08615 14.0773 9.06005C14.0588 9.03803 14.0326 9.02392 14.004 9.0206H12.9333C12.8697 9.01543 12.806 9.02915 12.7501 9.06005C12.6769 9.13331 12.5642 9.24602 12.5642 9.35873C12.558 9.57364 12.5335 9.78763 12.4909 9.99836C12.4897 10.0177 12.4816 10.0359 12.4682 10.0498C12.4548 10.0638 12.4369 10.0725 12.4176 10.0744C12.1612 10.1477 11.9781 10.2999 11.7216 10.3731H11.685C11.6484 10.3731 11.6484 10.3731 11.6118 10.3365C11.4314 10.19 11.2426 10.0547 11.0482 9.92228C11.0258 9.89628 10.9974 9.87605 10.9656 9.8633C10.9337 9.85055 10.8992 9.84565 10.865 9.84902C10.7552 9.84902 10.7552 9.88565 10.6453 9.92228L9.91265 10.6746C9.8614 10.7216 9.8293 10.7858 9.82254 10.855C9.81578 10.9242 9.83483 10.9934 9.87602 11.0494C9.98591 11.2382 10.1578 11.3903 10.279 11.6129C10.2919 11.6261 10.2991 11.6438 10.2991 11.6622C10.2991 11.6807 10.2919 11.6984 10.279 11.7116C10.2057 11.9736 10.0592 12.1624 9.99718 12.4244C9.99595 12.4437 9.98791 12.462 9.97449 12.4759C9.96108 12.4898 9.94316 12.4986 9.92392 12.5005C9.70132 12.5372 9.51816 12.5372 9.29838 12.5738C9.23388 12.5777 9.17216 12.6014 9.1217 12.6418C9.07125 12.6821 9.03453 12.7371 9.0166 12.7992V14.0813C9.08518 14.1836 9.18355 14.2623 9.29838 14.3067C9.50864 14.3127 9.71797 14.3372 9.92392 14.38C9.94337 14.3814 9.96163 14.3899 9.97516 14.4039C9.98869 14.418 9.99653 14.4366 9.99718 14.4561C10.0704 14.7181 10.217 14.9069 10.279 15.1689C10.279 15.2084 10.3156 15.245 10.279 15.2817C10.1691 15.4704 9.99718 15.6592 9.87602 15.8452C9.83402 15.9014 9.8145 15.9713 9.82128 16.0411C9.82805 16.1109 9.86063 16.1757 9.91265 16.2228L10.6453 16.9723C10.7185 17.0484 10.7552 17.0484 10.865 17.0484C10.9301 17.0341 10.9921 17.0083 11.0482 16.9723C11.2281 16.8245 11.4162 16.6872 11.6118 16.5609C11.6484 16.5609 11.6484 16.5215 11.685 16.5215H11.7216C11.9781 16.5975 12.1612 16.7469 12.4176 16.823C12.4373 16.8237 12.456 16.832 12.4696 16.8462C12.4833 16.8604 12.4909 16.8793 12.4909 16.899C12.5275 17.1245 12.5275 17.3499 12.5642 17.5753C12.6008 17.8007 12.6769 17.8374 12.8459 17.8374H13.911C14.097 17.8374 14.1703 17.7613 14.1928 17.5753C14.2154 17.3893 14.2295 17.1245 14.2661 16.899C14.2677 16.8887 14.2715 16.8788 14.2772 16.8699C14.2828 16.8611 14.2903 16.8535 14.299 16.8477C14.3077 16.8419 14.3176 16.8379 14.3279 16.8361C14.3383 16.8343 14.3489 16.8346 14.3591 16.8371C14.5962 16.7488 14.8285 16.6482 15.0551 16.5356H15.0917C15.1014 16.5356 15.1107 16.5394 15.1176 16.5463C15.1245 16.5532 15.1283 16.5625 15.1283 16.5722C15.3115 16.6849 15.4946 16.8709 15.6919 16.9836C15.7417 17.0303 15.8068 17.0573 15.875 17.0597C15.9483 17.0597 15.9849 17.023 16.0948 16.9836L16.8274 16.2341C16.8763 16.1851 16.9067 16.1207 16.9134 16.0518C16.9201 15.983 16.9026 15.9139 16.8641 15.8565C16.7542 15.6705 16.5823 15.5183 16.4611 15.2929C16.4482 15.2798 16.441 15.2621 16.441 15.2436C16.441 15.2252 16.4482 15.2075 16.4611 15.1943C16.5344 14.9323 16.6809 14.7435 16.7429 14.4814C16.7435 14.4619 16.7514 14.4434 16.7649 14.4293C16.7784 14.4153 16.7967 14.4067 16.8162 14.4053C17.0388 14.3687 17.2585 14.3687 17.4783 14.3321C17.6981 14.2954 17.7347 14.2194 17.7347 14.0306V12.9683C17.7404 12.7034 17.6699 12.6301 17.4868 12.5907ZM13.4095 15.1492C12.974 15.1507 12.5557 14.9796 12.2462 14.6732C11.9367 14.3669 11.7613 13.9504 11.7583 13.5149V13.4557C11.7759 13.0293 11.9577 12.6261 12.2657 12.3305C12.5737 12.035 12.984 11.87 13.4109 11.87C13.8378 11.87 14.2481 12.035 14.5561 12.3305C14.8641 12.6261 15.0459 13.0293 15.0635 13.4557C15.052 13.8945 14.8752 14.3127 14.5685 14.6267C14.2618 14.9407 13.8479 15.1274 13.4095 15.1492Z" fill="white"/>
<rect x="8.38965" y="0.5" width="5.76262" height="5.76262" rx="1" stroke="white"/>
<rect x="0.5" y="0.5" width="5.76262" height="5.76262" rx="1" stroke="white"/>
<rect x="0.5" y="8.39062" width="5.76262" height="5.76262" rx="1" stroke="white"/>
</svg>
