<svg width="16" height="15" viewBox="0 0 16 15" fill="none" xmlns="http://www.w3.org/2000/svg">
<path fill-rule="evenodd" clip-rule="evenodd" d="M0.287109 0.0625L15.0249 6.625L11.4664 10.0938L14.2418 12.8301C14.3899 12.9762 14.3964 13.2178 14.2573 13.3708L13.6263 14.065C13.5942 14.1012 13.5549 14.1303 13.511 14.1506C13.467 14.1709 13.4194 14.182 13.371 14.183C13.3226 14.1841 13.2745 14.1752 13.2297 14.1569C13.185 14.1385 13.1444 14.1111 13.1107 14.0764L10.2807 11.2274L6.62442 14.9598L0.287109 0.0625ZM3.3427 2.93266C3.10805 2.82419 3.00258 2.92797 3.10702 3.16431L7.01077 11.9957C7.09448 12.1852 7.2788 12.2189 7.42299 12.0701L12.015 7.33291C12.159 7.18441 12.1229 6.99353 11.9356 6.90681L3.3427 2.93266Z" fill="url(#paint0_linear_162_21512)"/>
<defs>
<linearGradient id="paint0_linear_162_21512" x1="7.656" y1="0.0625" x2="7.656" y2="14.9598" gradientUnits="userSpaceOnUse">
<stop stop-color="#0033EA"/>
<stop offset="1" stop-color="#8A0074"/>
</linearGradient>
</defs>
</svg>
