<svg width="19" height="19" viewBox="0 0 19 19" fill="none" xmlns="http://www.w3.org/2000/svg">
<path fill-rule="evenodd" clip-rule="evenodd" d="M5.56055 2.96842C5.56055 2.20367 6.18121 1.58301 6.94596 1.58301H16.0311C16.7959 1.58301 17.4165 2.20367 17.4165 2.96842V12.071C17.4165 12.4384 17.2706 12.7908 17.0108 13.0506C16.751 13.3105 16.3986 13.4564 16.0311 13.4564H6.94596C6.57853 13.4564 6.22614 13.3105 5.96633 13.0506C5.70651 12.7908 5.56055 12.4384 5.56055 12.071V2.96842ZM6.94596 2.77051C6.89347 2.77051 6.84313 2.79136 6.80602 2.82848C6.7689 2.86559 6.74805 2.91593 6.74805 2.96842V12.071C6.74805 12.181 6.83671 12.2689 6.94596 12.2689H16.0311C16.0836 12.2689 16.134 12.2481 16.1711 12.211C16.2082 12.1738 16.229 12.1235 16.229 12.071V2.96842C16.229 2.91593 16.2082 2.86559 16.1711 2.82848C16.134 2.79136 16.0836 2.77051 16.0311 2.77051H6.94596Z" fill="#645DF6"/>
<path d="M1.58008 8.50925C1.57997 8.32725 1.61573 8.14701 1.68531 7.97884C1.75489 7.81066 1.85692 7.65784 1.98558 7.52911C2.11424 7.40037 2.267 7.29825 2.43514 7.22858C2.60327 7.15891 2.78349 7.12305 2.96549 7.12305H4.15695C4.31443 7.12305 4.46545 7.1856 4.5768 7.29695C4.68815 7.4083 4.7507 7.55932 4.7507 7.7168C4.7507 7.87427 4.68815 8.02529 4.5768 8.13664C4.46545 8.24799 4.31443 8.31055 4.15695 8.31055H2.96549C2.913 8.31055 2.86266 8.3314 2.82555 8.36852C2.78843 8.40563 2.76758 8.45597 2.76758 8.50846L2.77154 16.0309C2.77154 16.1401 2.85941 16.2288 2.96945 16.2288H10.4903C10.5428 16.2288 10.5931 16.2079 10.6302 16.1708C10.6674 16.1337 10.6882 16.0834 10.6882 16.0309V14.8355C10.6882 14.678 10.7508 14.527 10.8621 14.4156C10.9735 14.3043 11.1245 14.2417 11.282 14.2417C11.4394 14.2417 11.5904 14.3043 11.7018 14.4156C11.8131 14.527 11.8757 14.678 11.8757 14.8355V16.0309C11.8757 16.3983 11.7297 16.7507 11.4699 17.0105C11.2101 17.2703 10.8577 17.4163 10.4903 17.4163H2.96945C2.60202 17.4163 2.24963 17.2703 1.98982 17.0105C1.73 16.7507 1.58404 16.3983 1.58404 16.0309L1.58008 8.50925Z" fill="#645DF6"/>
</svg>
