<svg width="14" height="14" viewBox="0 0 14 14" fill="none" xmlns="http://www.w3.org/2000/svg">
<path d="M6.57687 8.27778H11.0516C10.634 10.0889 9.31144 11.1308 7.41216 11.1308C4.96596 11.1308 3.38488 9.49493 3.38488 6.973C3.38488 4.50949 4.95601 2.84443 7.30277 2.84443C8.67503 2.84443 9.74897 3.41892 10.3257 4.47054L10.3357 4.49001H13.4282L13.4083 4.43159C12.573 1.90966 10.2859 0.400391 7.29283 0.400391C5.44326 0.400391 3.7528 1.05278 2.51976 2.24072C1.27677 3.4384 0.600586 5.12293 0.600586 6.96326C0.600586 10.7608 3.42465 13.5164 7.31272 13.5164C7.50165 13.5164 7.68064 13.5067 7.85963 13.4969C11.1411 13.2535 13.7166 10.4979 13.7166 7.22616V6.22323H6.56692V8.27778H6.57687Z" fill="#555555"/>
</svg>
