<svg width="21" height="22" viewBox="0 0 21 22" fill="none" xmlns="http://www.w3.org/2000/svg">
<path d="M9.35048 14.339C8.77891 14.5687 8.31949 15.0281 8.08985 15.5996C7.20951 17.7902 9.25844 19.839 11.4491 18.9587C12.0206 18.729 12.4799 18.2697 12.7095 17.698C13.5899 15.5074 11.5411 13.4586 9.35048 14.339ZM9.03725 13.5596C11.9143 12.4033 14.6452 15.1341 13.489 18.0112C13.1739 18.7953 12.5463 19.423 11.7623 19.7381C8.88522 20.8943 6.1542 18.1635 7.31041 15.2864C7.62541 14.5024 8.25323 13.8747 9.03723 13.5596H9.03725ZM9.56048 3.01997C8.98891 3.2497 8.52949 3.70908 8.29985 4.28061C7.41951 6.47121 9.46844 8.52002 11.6591 7.63967C12.2306 7.40998 12.6899 6.95066 12.9195 6.37903C13.7999 4.18841 11.7511 2.13963 9.56048 3.01997ZM9.24725 2.24055C12.1243 1.08432 14.8552 3.81514 13.699 6.6922C13.3839 7.47626 12.7563 8.10396 11.9723 8.41906C9.09522 9.57529 6.3642 6.84445 7.52041 3.96739C7.83541 3.1834 8.46323 2.55566 9.24723 2.24055H9.24725ZM3.01326 4.38774H4.91649C5.14845 4.38774 5.33649 4.1997 5.33649 3.96774C5.33649 3.73578 5.14845 3.54774 4.91649 3.54774H3.01326C2.7813 3.54774 2.59326 3.73578 2.59326 3.96774C2.59326 4.1997 2.7813 4.38774 3.01326 4.38774Z" fill="url(#paint0_linear_120_437260)"/>
<path d="M5.33634 5.8701V3.96687C5.33634 3.73491 5.1483 3.54688 4.91634 3.54688C4.68437 3.54688 4.49634 3.73491 4.49634 3.96687V5.8701C4.49634 6.10207 4.68437 6.2901 4.91634 6.2901C5.1483 6.2901 5.33634 6.10207 5.33634 5.8701Z" fill="url(#paint1_linear_120_437260)"/>
<path d="M5.12717 17.9266C3.33479 16.1342 2.30997 13.7114 2.30997 11.1254C2.30997 8.67432 3.22989 6.36819 4.85889 4.60331C5.01622 4.43285 5.00558 4.16715 4.83512 4.00982C4.66466 3.85248 4.39896 3.86312 4.24162 4.03358C2.47079 5.95213 1.46997 8.46108 1.46997 11.1254C1.46997 13.9364 2.58486 16.5722 4.5332 18.5206C4.69722 18.6846 4.96315 18.6846 5.12717 18.5206C5.29119 18.3566 5.29119 18.0906 5.12717 17.9266ZM17.974 17.8036H16.0708C15.8388 17.8036 15.6508 17.9916 15.6508 18.2236C15.6508 18.4556 15.8388 18.6436 16.0708 18.6436H17.974C18.206 18.6436 18.394 18.4556 18.394 18.2236C18.394 17.9916 18.206 17.8036 17.974 17.8036Z" fill="url(#paint2_linear_120_437260)"/>
<path d="M15.6509 16.3184V18.2217C15.6509 18.4536 15.8389 18.6417 16.0709 18.6417C16.3028 18.6417 16.4909 18.4536 16.4909 18.2217V16.3184C16.4909 16.0865 16.3028 15.8984 16.0709 15.8984C15.8389 15.8984 15.6509 16.0865 15.6509 16.3184Z" fill="url(#paint3_linear_120_437260)"/>
<path d="M15.8601 4.26386C17.6525 6.05624 18.6773 8.4791 18.6773 11.0651C18.6773 13.5162 17.7574 15.8223 16.1284 17.5872C15.971 17.7576 15.9817 18.0233 16.1521 18.1807C16.3226 18.338 16.5883 18.3274 16.7456 18.1569C18.5165 16.2384 19.5173 13.7294 19.5173 11.0651C19.5173 8.25404 18.4024 5.61824 16.454 3.66989C16.29 3.50587 16.0241 3.50587 15.8601 3.66989C15.6961 3.83391 15.6961 4.09984 15.8601 4.26386Z" fill="url(#paint4_linear_120_437260)"/>
<defs>
<linearGradient id="paint0_linear_120_437260" x1="8.28201" y1="1.96875" x2="8.28201" y2="20.0099" gradientUnits="userSpaceOnUse">
<stop stop-color="#0033EA"/>
<stop offset="1" stop-color="#8A0074"/>
</linearGradient>
<linearGradient id="paint1_linear_120_437260" x1="4.91634" y1="3.54688" x2="4.91634" y2="6.2901" gradientUnits="userSpaceOnUse">
<stop stop-color="#0033EA"/>
<stop offset="1" stop-color="#8A0074"/>
</linearGradient>
<linearGradient id="paint2_linear_120_437260" x1="9.93199" y1="3.89844" x2="9.93199" y2="18.6436" gradientUnits="userSpaceOnUse">
<stop stop-color="#0033EA"/>
<stop offset="1" stop-color="#8A0074"/>
</linearGradient>
<linearGradient id="paint3_linear_120_437260" x1="16.0709" y1="15.8984" x2="16.0709" y2="18.6417" gradientUnits="userSpaceOnUse">
<stop stop-color="#0033EA"/>
<stop offset="1" stop-color="#8A0074"/>
</linearGradient>
<linearGradient id="paint4_linear_120_437260" x1="17.6272" y1="3.54687" x2="17.6272" y2="18.292" gradientUnits="userSpaceOnUse">
<stop stop-color="#0033EA"/>
<stop offset="1" stop-color="#8A0074"/>
</linearGradient>
</defs>
</svg>
