<svg width="64" height="64" viewBox="0 0 64 64" fill="none" xmlns="http://www.w3.org/2000/svg">
<g filter="url(#filter0_d_3004_88560)">
<rect x="12" y="6" width="40" height="40" rx="20" fill="white"/>
</g>
<g clip-path="url(#clip0_3004_88560)">
<path fill-rule="evenodd" clip-rule="evenodd" d="M27.095 26.5C27.095 25.8829 27.1974 25.2913 27.3805 24.7364L24.1787 22.2915C23.5546 23.5584 23.2031 24.9861 23.2031 26.5C23.2031 28.0127 23.5543 29.4394 24.1773 30.7055L27.3773 28.2559C27.1961 27.7035 27.095 27.1141 27.095 26.5Z" fill="#FBBC05"/>
<path fill-rule="evenodd" clip-rule="evenodd" d="M32.7167 20.8864C34.0572 20.8864 35.268 21.3614 36.2194 22.1386L38.9868 19.375C37.3004 17.9068 35.1383 17 32.7167 17C28.9571 17 25.7259 19.15 24.1787 22.2915L27.3804 24.7364C28.1181 22.4971 30.221 20.8864 32.7167 20.8864Z" fill="#EA4335"/>
<path fill-rule="evenodd" clip-rule="evenodd" d="M32.7167 32.1137C30.2212 32.1137 28.1182 30.503 27.3805 28.2637L24.1787 30.7081C25.7259 33.8501 28.9571 36.0001 32.7167 36.0001C35.0371 36.0001 37.2525 35.1761 38.9151 33.6324L35.876 31.2829C35.0185 31.8231 33.9386 32.1137 32.7167 32.1137Z" fill="#34A853"/>
<path fill-rule="evenodd" clip-rule="evenodd" d="M41.7968 26.4999C41.7968 25.9385 41.7102 25.3339 41.5805 24.7727H32.7158V28.4431H37.8185C37.5633 29.6946 36.869 30.6566 35.8752 31.2827L38.9143 33.6322C40.6608 32.0113 41.7968 29.5965 41.7968 26.4999Z" fill="#4285F4"/>
</g>
<defs>
<filter id="filter0_d_3004_88560" x="0" y="0" width="64" height="64" filterUnits="userSpaceOnUse" color-interpolation-filters="sRGB">
<feFlood flood-opacity="0" result="BackgroundImageFix"/>
<feColorMatrix in="SourceAlpha" type="matrix" values="0 0 0 0 0 0 0 0 0 0 0 0 0 0 0 0 0 0 127 0" result="hardAlpha"/>
<feOffset dy="6"/>
<feGaussianBlur stdDeviation="6"/>
<feComposite in2="hardAlpha" operator="out"/>
<feColorMatrix type="matrix" values="0 0 0 0 0 0 0 0 0 0 0 0 0 0 0 0 0 0 0.1 0"/>
<feBlend mode="normal" in2="BackgroundImageFix" result="effect1_dropShadow_3004_88560"/>
<feBlend mode="normal" in="SourceGraphic" in2="effect1_dropShadow_3004_88560" result="shape"/>
</filter>
<clipPath id="clip0_3004_88560">
<rect width="19" height="19" fill="white" transform="translate(23 17)"/>
</clipPath>
</defs>
</svg>
