<svg width="20" height="20" viewBox="0 0 20 20" fill="none" xmlns="http://www.w3.org/2000/svg">
<g clip-path="url(#clip0_90_49075)">
<path fill-rule="evenodd" clip-rule="evenodd" d="M4.3101 10.0003C4.3101 9.35078 4.41791 8.72797 4.61057 8.14391L1.24025 5.57031C0.583379 6.90391 0.213379 8.40672 0.213379 10.0003C0.213379 11.5927 0.583066 13.0944 1.23885 14.4272L4.60729 11.8486C4.4165 11.2672 4.3101 10.6467 4.3101 10.0003Z" fill="#FBBC05"/>
<path fill-rule="evenodd" clip-rule="evenodd" d="M10.2276 4.09094C11.6387 4.09094 12.9132 4.59094 13.9146 5.40906L16.8277 2.5C15.0526 0.954531 12.7766 0 10.2276 0C6.27008 0 2.86883 2.26312 1.24023 5.57L4.61039 8.14359C5.38695 5.78641 7.60055 4.09094 10.2276 4.09094Z" fill="#EA4335"/>
<path fill-rule="evenodd" clip-rule="evenodd" d="M10.2276 15.9091C7.6007 15.9091 5.38711 14.2136 4.61055 11.8564L1.24023 14.4296C2.86883 17.7369 6.27008 20 10.2276 20C12.6701 20 15.0021 19.1327 16.7523 17.5077L13.5532 15.0346C12.6505 15.6032 11.5138 15.9091 10.2276 15.9091Z" fill="#34A853"/>
<path fill-rule="evenodd" clip-rule="evenodd" d="M19.7864 9.99977C19.7864 9.40883 19.6954 8.77242 19.5588 8.18164H10.2275V12.0452H15.5988C15.3302 13.3626 14.5993 14.3752 13.5532 15.0343L16.7522 17.5074C18.5907 15.8012 19.7864 13.2593 19.7864 9.99977Z" fill="#4285F4"/>
</g>
<defs>
<clipPath id="clip0_90_49075">
<rect width="20" height="20" fill="white"/>
</clipPath>
</defs>
</svg>
