<svg width="21" height="21" viewBox="0 0 21 21" fill="none" xmlns="http://www.w3.org/2000/svg">
<path d="M9.35097 13.839C8.7794 14.0687 8.31998 14.5281 8.09034 15.0996C7.21 17.2902 9.25893 19.339 11.4496 18.4587C12.0211 18.229 12.4803 17.7697 12.71 17.198C13.5904 15.0074 11.5416 12.9586 9.35097 13.839ZM9.03773 13.0596C11.9148 11.9033 14.6457 14.6341 13.4894 17.5112C13.1744 18.2953 12.5468 18.923 11.7628 19.2381C8.88571 20.3943 6.15469 17.6635 7.31089 14.7864C7.6259 14.0024 8.25372 13.3747 9.03771 13.0596H9.03773ZM9.56097 2.51997C8.9894 2.7497 8.52998 3.20908 8.30034 3.78061C7.42 5.97121 9.46893 8.02002 11.6596 7.13967C12.2311 6.90998 12.6903 6.45066 12.92 5.87903C13.8004 3.68841 11.7516 1.63963 9.56097 2.51997ZM9.24773 1.74055C12.1248 0.584322 14.8557 3.31514 13.6994 6.1922C13.3844 6.97626 12.7568 7.60396 11.9728 7.91906C9.09571 9.07529 6.36468 6.34445 7.5209 3.46739C7.83589 2.6834 8.46372 2.05566 9.24771 1.74055H9.24773ZM3.01375 3.88774H4.91698C5.14894 3.88774 5.33698 3.6997 5.33698 3.46774C5.33698 3.23578 5.14894 3.04774 4.91698 3.04774H3.01375C2.78179 3.04774 2.59375 3.23578 2.59375 3.46774C2.59375 3.6997 2.78179 3.88774 3.01375 3.88774Z" fill="url(#paint0_linear_162_21695)"/>
<path d="M5.33609 5.37108V3.46785C5.33609 3.23589 5.14806 3.04785 4.91609 3.04785C4.68413 3.04785 4.49609 3.23589 4.49609 3.46785V5.37108C4.49609 5.60304 4.68413 5.79108 4.91609 5.79108C5.14806 5.79108 5.33609 5.60304 5.33609 5.37108Z" fill="url(#paint1_linear_162_21695)"/>
<path d="M5.1279 17.4242C3.33552 15.6318 2.3107 13.2089 2.3107 10.6229C2.3107 8.17188 3.23062 5.86575 4.85962 4.10087C5.01696 3.93041 5.00631 3.66471 4.83585 3.50737C4.66539 3.35004 4.39969 3.36068 4.24235 3.53114C2.47153 5.44969 1.4707 7.95864 1.4707 10.6229C1.4707 13.434 2.58559 16.0698 4.53393 18.0181C4.69796 18.1822 4.96388 18.1822 5.1279 18.0181C5.29192 17.8541 5.29192 17.5882 5.1279 17.4242ZM17.9747 17.3012H16.0715C15.8395 17.3012 15.6515 17.4892 15.6515 17.7212C15.6515 17.9531 15.8395 18.1412 16.0715 18.1412H17.9747C18.2067 18.1412 18.3947 17.9531 18.3947 17.7212C18.3947 17.4892 18.2067 17.3012 17.9747 17.3012Z" fill="url(#paint2_linear_162_21695)"/>
<path d="M15.6504 15.8175V17.7207C15.6504 17.9527 15.8384 18.1407 16.0704 18.1407C16.3024 18.1407 16.4904 17.9527 16.4904 17.7207V15.8175C16.4904 15.5855 16.3024 15.3975 16.0704 15.3975C15.8384 15.3975 15.6504 15.5855 15.6504 15.8175Z" fill="url(#paint3_linear_162_21695)"/>
<path d="M15.8593 3.76484C17.6517 5.55722 18.6765 7.98007 18.6765 10.5661C18.6765 13.0171 17.7566 15.3233 16.1276 17.0881C15.9703 17.2586 15.9809 17.5243 16.1514 17.6816C16.3219 17.839 16.5876 17.8283 16.7449 17.6579C18.5157 15.7393 19.5165 13.2304 19.5165 10.5661C19.5165 7.75502 18.4017 5.11921 16.4533 3.17087C16.2893 3.00685 16.0234 3.00685 15.8593 3.17087C15.6953 3.33489 15.6953 3.60081 15.8593 3.76484Z" fill="url(#paint4_linear_162_21695)"/>
<defs>
<linearGradient id="paint0_linear_162_21695" x1="8.2825" y1="1.46875" x2="8.2825" y2="19.5099" gradientUnits="userSpaceOnUse">
<stop stop-color="#0033EA"/>
<stop offset="1" stop-color="#8A0074"/>
</linearGradient>
<linearGradient id="paint1_linear_162_21695" x1="4.91609" y1="3.04785" x2="4.91609" y2="5.79108" gradientUnits="userSpaceOnUse">
<stop stop-color="#0033EA"/>
<stop offset="1" stop-color="#8A0074"/>
</linearGradient>
<linearGradient id="paint2_linear_162_21695" x1="9.93272" y1="3.396" x2="9.93272" y2="18.1412" gradientUnits="userSpaceOnUse">
<stop stop-color="#0033EA"/>
<stop offset="1" stop-color="#8A0074"/>
</linearGradient>
<linearGradient id="paint3_linear_162_21695" x1="16.0704" y1="15.3975" x2="16.0704" y2="18.1407" gradientUnits="userSpaceOnUse">
<stop stop-color="#0033EA"/>
<stop offset="1" stop-color="#8A0074"/>
</linearGradient>
<linearGradient id="paint4_linear_162_21695" x1="17.6264" y1="3.04785" x2="17.6264" y2="17.793" gradientUnits="userSpaceOnUse">
<stop stop-color="#0033EA"/>
<stop offset="1" stop-color="#8A0074"/>
</linearGradient>
</defs>
</svg>
