<svg width="17" height="16" viewBox="0 0 17 16" fill="none" xmlns="http://www.w3.org/2000/svg">
<path d="M8.49984 0.666626C7.04944 0.666626 5.63162 1.09672 4.42566 1.90252C3.2197 2.70831 2.27977 3.85362 1.72472 5.19361C1.16968 6.53361 1.02446 8.0081 1.30742 9.43062C1.59037 10.8532 2.28881 12.1598 3.31439 13.1854C4.33998 14.211 5.64665 14.9094 7.06918 15.1924C8.49171 15.4753 9.9662 15.3301 11.3062 14.7751C12.6462 14.22 13.7915 13.2801 14.5973 12.0741C15.4031 10.8682 15.8332 9.45036 15.8332 7.99996C15.8332 6.05504 15.0606 4.18978 13.6853 2.81451C12.31 1.43924 10.4448 0.666626 8.49984 0.666626ZM12.3045 6.47129L7.63784 11.138C7.51282 11.2629 7.34328 11.3332 7.16651 11.3332C6.98973 11.3332 6.82019 11.2629 6.69517 11.138L4.69517 9.13796C4.57374 9.01223 4.50654 8.84383 4.50806 8.66903C4.50958 8.49423 4.57969 8.32702 4.7033 8.20342C4.8269 8.07981 4.99411 8.0097 5.16891 8.00818C5.3437 8.00666 5.51211 8.07386 5.63784 8.19529L7.16651 9.72396L11.3618 5.52863C11.4876 5.40719 11.656 5.33999 11.8308 5.34151C12.0056 5.34303 12.1728 5.41314 12.2964 5.53675C12.42 5.66035 12.4901 5.82756 12.4916 6.00236C12.4931 6.17716 12.4259 6.34556 12.3045 6.47129Z" fill="#0FA779"/>
</svg>
