<svg width="19" height="19" viewBox="0 0 19 19" fill="none" xmlns="http://www.w3.org/2000/svg">
<path d="M6.33337 13.4709L6.34237 13.4609" stroke="url(#paint0_linear_146_538166)" stroke-linecap="round" stroke-linejoin="round"/>
<path d="M6.33333 3.96094H2.85C2.58767 3.96094 2.375 4.1736 2.375 4.43594V16.1526C2.375 16.415 2.58767 16.6276 2.85 16.6276H9.81667C10.079 16.6276 10.2917 16.415 10.2917 16.1526V12.6693" stroke="url(#paint1_linear_146_538166)" stroke-linecap="round" stroke-linejoin="round"/>
<path d="M12.6667 2.375V10.2917" stroke="url(#paint2_linear_146_538166)" stroke-linecap="round" stroke-linejoin="round"/>
<path d="M10.2915 3.96094V8.71094" stroke="url(#paint3_linear_146_538166)" stroke-linecap="round" stroke-linejoin="round"/>
<path d="M17.4165 5.53906V7.1224" stroke="url(#paint4_linear_146_538166)" stroke-linecap="round" stroke-linejoin="round"/>
<path d="M7.9165 5.53906V7.1224" stroke="url(#paint5_linear_146_538166)" stroke-linecap="round" stroke-linejoin="round"/>
<path d="M15.0415 3.16406V9.4974" stroke="url(#paint6_linear_146_538166)" stroke-linecap="round" stroke-linejoin="round"/>
<defs>
<linearGradient id="paint0_linear_146_538166" x1="6.33787" y1="13.4609" x2="6.33787" y2="13.4709" gradientUnits="userSpaceOnUse">
<stop stop-color="#0033EA"/>
<stop offset="1" stop-color="#8A0074"/>
</linearGradient>
<linearGradient id="paint1_linear_146_538166" x1="6.33333" y1="3.96094" x2="6.33333" y2="16.6276" gradientUnits="userSpaceOnUse">
<stop stop-color="#0033EA"/>
<stop offset="1" stop-color="#8A0074"/>
</linearGradient>
<linearGradient id="paint2_linear_146_538166" x1="13.1667" y1="2.375" x2="13.1667" y2="10.2917" gradientUnits="userSpaceOnUse">
<stop stop-color="#0033EA"/>
<stop offset="1" stop-color="#8A0074"/>
</linearGradient>
<linearGradient id="paint3_linear_146_538166" x1="10.7915" y1="3.96094" x2="10.7915" y2="8.71094" gradientUnits="userSpaceOnUse">
<stop stop-color="#0033EA"/>
<stop offset="1" stop-color="#8A0074"/>
</linearGradient>
<linearGradient id="paint4_linear_146_538166" x1="17.9165" y1="5.53906" x2="17.9165" y2="7.1224" gradientUnits="userSpaceOnUse">
<stop stop-color="#0033EA"/>
<stop offset="1" stop-color="#8A0074"/>
</linearGradient>
<linearGradient id="paint5_linear_146_538166" x1="8.4165" y1="5.53906" x2="8.4165" y2="7.1224" gradientUnits="userSpaceOnUse">
<stop stop-color="#0033EA"/>
<stop offset="1" stop-color="#8A0074"/>
</linearGradient>
<linearGradient id="paint6_linear_146_538166" x1="15.5415" y1="3.16406" x2="15.5415" y2="9.4974" gradientUnits="userSpaceOnUse">
<stop stop-color="#0033EA"/>
<stop offset="1" stop-color="#8A0074"/>
</linearGradient>
</defs>
</svg>
