<svg width="18" height="15" viewBox="0 0 18 15" fill="none" xmlns="http://www.w3.org/2000/svg">
<path fill-rule="evenodd" clip-rule="evenodd" d="M1.37553 1.43803C1.39194 1.42162 1.4142 1.4124 1.4374 1.4124H6.01607C6.03617 1.41262 6.05568 1.41914 6.07188 1.43103L6.07235 1.43138L7.99919 2.8749L6.07235 4.31843L6.07189 4.31876C6.05569 4.33066 6.03616 4.33718 6.01607 4.3374H1.3499V1.4999C1.3499 1.4767 1.35912 1.45444 1.37553 1.43803ZM6.02034 5.5374L6.01787 4.93746V5.5374H1.3499V13.1874C1.3499 13.2106 1.35912 13.2329 1.37553 13.2493C1.39194 13.2657 1.41419 13.2749 1.4374 13.2749H16.5624C16.5856 13.2749 16.6079 13.2657 16.6243 13.2493C16.6407 13.2329 16.6499 13.2106 16.6499 13.1874V3.5624C16.6499 3.53919 16.6407 3.51694 16.6243 3.50053C16.6079 3.48412 16.5856 3.4749 16.5624 3.4749H9.19972L6.79011 5.2801L6.7884 5.28138L6.78839 5.28138C6.56628 5.44654 6.29713 5.53626 6.02034 5.5374ZM9.19972 2.2749L6.79011 0.46971L6.79012 0.469707L6.78839 0.468426C6.56628 0.303264 6.29713 0.213546 6.02034 0.212407V0.212402H6.01787H1.4374C1.09594 0.212402 0.768455 0.34805 0.527003 0.589503C0.28555 0.830955 0.149902 1.15844 0.149902 1.4999V4.9374V13.1874C0.149902 13.5289 0.285549 13.8563 0.527003 14.0978C0.768456 14.3393 1.09594 14.4749 1.4374 14.4749H16.5624C16.9039 14.4749 17.2313 14.3393 17.4728 14.0978C17.7143 13.8563 17.8499 13.5289 17.8499 13.1874V3.5624C17.8499 3.22094 17.7143 2.89346 17.4728 2.652C17.2313 2.41055 16.9039 2.2749 16.5624 2.2749H9.19972ZM6.3374 8.71865C6.3374 8.38728 6.60603 8.11865 6.9374 8.11865H8.3999V6.65615C8.3999 6.32478 8.66853 6.05615 8.9999 6.05615C9.33127 6.05615 9.5999 6.32478 9.5999 6.65615V8.11865H11.0624C11.3938 8.11865 11.6624 8.38728 11.6624 8.71865C11.6624 9.05002 11.3938 9.31865 11.0624 9.31865H9.5999V10.7812C9.5999 11.1125 9.33127 11.3812 8.9999 11.3812C8.66853 11.3812 8.3999 11.1125 8.3999 10.7812V9.31865H6.9374C6.60603 9.31865 6.3374 9.05002 6.3374 8.71865Z" fill="url(#paint0_linear_987_227511)"/>
<defs>
<linearGradient id="paint0_linear_987_227511" x1="8.9999" y1="0.212402" x2="8.9999" y2="14.4749" gradientUnits="userSpaceOnUse">
<stop stop-color="#0033EA"/>
<stop offset="1" stop-color="#8A0074"/>
</linearGradient>
</defs>
</svg>
