<svg width="40" height="40" viewBox="0 0 40 40" fill="none" xmlns="http://www.w3.org/2000/svg">
<circle cx="20" cy="20" r="20" fill="#FFD8D8"/>
<path d="M25.7508 21.8435C26.9758 21.8435 27.9687 22.8364 27.9687 24.0614V24.9066H27.9622C27.9205 25.862 27.6586 27.0602 26.5857 28.0391C25.4139 29.1084 23.3909 29.8075 20.0009 29.8075C16.6109 29.8075 14.5881 29.1084 13.4162 28.0391C12.3433 27.0602 12.0814 25.862 12.0397 24.9066H12.0332V24.0614C12.0332 22.8364 13.0262 21.8435 14.2511 21.8435H25.7508Z" fill="#D14343"/>
<path d="M15.7108 11.4204C14.6953 11.4204 13.8721 12.2436 13.8721 13.2591V18.1623C13.8721 19.1778 14.6953 20.001 15.7108 20.001H24.2914C25.3069 20.001 26.1301 19.1778 26.1301 18.1623V13.2591C26.1301 12.2436 25.3069 11.4204 24.2914 11.4204H20.614C20.614 11.4204 20.614 11.1857 20.614 10.8075C20.614 10.4292 20.3395 10.1946 20.0011 10.1946C19.6626 10.1946 19.3882 10.4771 19.3882 10.8075C19.3882 11.1379 19.3882 11.4204 19.3882 11.4204H15.7108ZM16.3237 15.7107C16.3237 15.0337 16.8725 14.4849 17.5495 14.4849C18.2265 14.4849 18.7753 15.0337 18.7753 15.7107C18.7753 16.3877 18.2265 16.9365 17.5495 16.9365C16.8725 16.9365 16.3237 16.3877 16.3237 15.7107ZM21.2269 15.7107C21.2269 15.0337 21.7757 14.4849 22.4527 14.4849C23.1297 14.4849 23.6785 15.0337 23.6785 15.7107C23.6785 16.3877 23.1297 16.9365 22.4527 16.9365C21.7757 16.9365 21.2269 16.3877 21.2269 15.7107Z" fill="#D14343"/>
</svg>
