<svg width="16" height="16" viewBox="0 0 16 16" fill="none" xmlns="http://www.w3.org/2000/svg">
<path d="M7.29037 9.6095H12.7491C12.2396 11.8189 10.6262 13.0898 8.30933 13.0898C5.32525 13.0898 3.39651 11.0943 3.39651 8.01782C3.39651 5.01262 5.31312 2.98144 8.17589 2.98144C9.84989 2.98144 11.16 3.68226 11.8635 4.96511L11.8757 4.98886H15.6482L15.624 4.91759C14.605 1.84113 11.815 0 8.16376 0C5.90751 0 3.84534 0.795843 2.34117 2.24499C0.824868 3.70601 0 5.76095 0 8.00594C0 12.6385 3.44503 16 8.18802 16C8.4185 16 8.63685 15.9881 8.85519 15.9762C12.8582 15.6793 16 12.3177 16 8.32665V7.10319H7.27824V9.6095H7.29037Z" fill="#475987"/>
</svg>
