<svg width="22" height="10" viewBox="0 0 22 10" fill="none" xmlns="http://www.w3.org/2000/svg">
<path d="M2.0331 8.19532C1.83372 7.9875 1.67505 7.72953 1.57395 7.42742C1.47285 7.1253 1.41173 6.80699 1.40216 6.46141C1.38638 5.87788 1.48258 5.35321 1.69679 4.87054C1.90522 4.39341 2.20901 3.95783 2.61372 3.56955C3.20343 3.00378 3.96654 2.53773 4.90279 2.18272C5.83905 1.8277 6.86946 1.57083 7.98824 1.41764C9.11834 1.26468 10.2636 1.19695 11.4353 1.21469C12.6068 1.24374 13.7482 1.35713 14.8595 1.55484C15.9649 1.75811 16.9779 2.05012 17.8812 2.43621C18.7901 2.82806 19.5326 3.32418 20.1086 3.92455C20.4852 4.3171 20.7758 4.7589 20.9694 5.23839C21.1685 5.72365 21.2589 6.25771 21.2294 6.84033C21.2083 7.55901 20.9753 8.12624 20.5475 8.53671C20.3856 8.69202 20.1905 8.81269 19.9795 8.88208C19.7627 8.95703 19.5301 8.98069 19.282 8.93044L16.1296 8.32958C15.8871 8.2851 15.6845 8.22444 15.5106 8.14736C15.3423 8.07605 15.1971 7.98255 15.0919 7.87287C14.9589 7.73432 14.8665 7.55695 14.82 7.34652C14.7678 7.14163 14.7447 6.8977 14.7506 6.62603L14.7524 5.74842C14.7551 5.6239 14.712 5.52112 14.6234 5.42876C14.5791 5.38257 14.5345 5.34771 14.4787 5.31262C14.417 5.28308 14.3664 5.26508 14.3216 5.24154C14.0348 5.15088 13.6174 5.0746 13.075 5.01847C12.5269 4.96789 11.9558 4.92817 11.3617 4.91065C10.7559 4.90421 10.1839 4.90978 9.62824 4.94398C9.08391 4.97841 8.66915 5.04374 8.37289 5.12842C8.3329 5.14461 8.2816 5.16057 8.22451 5.18208C8.16165 5.20913 8.10986 5.24774 8.05782 5.29766C7.95954 5.39195 7.91761 5.4987 7.91494 5.62321L7.89093 6.47773C7.88485 6.76072 7.85133 7.00353 7.78481 7.20038C7.72938 7.40877 7.63517 7.57676 7.49064 7.71543C7.38079 7.82081 7.243 7.90866 7.06596 7.97873C6.88893 8.04881 6.68395 8.10134 6.44526 8.14187L3.23005 8.62124C2.98004 8.66155 2.75966 8.64016 2.5576 8.55685C2.36133 8.468 2.18818 8.35696 2.0331 8.19532Z" stroke="url(#paint0_linear_162_21667)" stroke-miterlimit="10"/>
<defs>
<linearGradient id="paint0_linear_162_21667" x1="16.8502" y1="12.0839" x2="5.7733" y2="0.538235" gradientUnits="userSpaceOnUse">
<stop stop-color="#0033EA"/>
<stop offset="1" stop-color="#8A0074"/>
</linearGradient>
</defs>
</svg>
