<svg width="22" height="22" viewBox="0 0 22 22" fill="none" xmlns="http://www.w3.org/2000/svg">
<path d="M10.9998 20.5419C16.2696 20.5419 20.5416 16.2699 20.5416 11.0001C20.5416 5.73027 16.2696 1.45825 10.9998 1.45825C5.73002 1.45825 1.45801 5.73027 1.45801 11.0001C1.45801 16.2699 5.73002 20.5419 10.9998 20.5419Z" fill="#F9BF44"/>
<path d="M11.0002 15.5256C10.1858 15.529 9.38694 15.3025 8.69561 14.872C8.00429 14.4415 7.44857 13.8245 7.09242 13.0921C7.07232 13.0516 7.06042 13.0075 7.0574 12.9624C7.05439 12.9172 7.06032 12.8719 7.07484 12.8291C7.08937 12.7862 7.11222 12.7467 7.14207 12.7127C7.17192 12.6787 7.20819 12.6509 7.2488 12.6309C7.2894 12.611 7.33355 12.5992 7.37871 12.5964C7.42386 12.5935 7.46914 12.5996 7.51193 12.6143C7.55473 12.629 7.59421 12.652 7.6281 12.6819C7.662 12.7119 7.68964 12.7483 7.70945 12.789C8.01171 13.4039 8.48022 13.9218 9.06186 14.284C9.64349 14.6462 10.315 14.8382 11.0002 14.8382C11.6854 14.8382 12.3568 14.6462 12.9385 14.284C13.5201 13.9218 13.9886 13.4039 14.2909 12.789C14.3107 12.7483 14.3383 12.7119 14.3722 12.6819C14.4061 12.652 14.4456 12.629 14.4884 12.6143C14.5312 12.5996 14.5765 12.5935 14.6216 12.5964C14.6668 12.5992 14.7109 12.611 14.7515 12.6309C14.7921 12.6509 14.8284 12.6787 14.8583 12.7127C14.8881 12.7467 14.911 12.7862 14.9255 12.8291C14.94 12.8719 14.9459 12.9172 14.9429 12.9624C14.9399 13.0075 14.928 13.0516 14.9079 13.0921C14.5518 13.8245 13.996 14.4415 13.3047 14.872C12.6134 15.3025 11.8146 15.529 11.0002 15.5256Z" fill="#382A12"/>
<path d="M7.21973 11.2114C7.69435 11.2114 8.0791 10.7697 8.0791 10.2248C8.0791 9.67998 7.69435 9.23828 7.21973 9.23828C6.74511 9.23828 6.36035 9.67998 6.36035 10.2248C6.36035 10.7697 6.74511 11.2114 7.21973 11.2114Z" fill="#382A12"/>
<path d="M14.7803 11.2114C15.2549 11.2114 15.6396 10.7697 15.6396 10.2248C15.6396 9.67998 15.2549 9.23828 14.7803 9.23828C14.3057 9.23828 13.9209 9.67998 13.9209 10.2248C13.9209 10.7697 14.3057 11.2114 14.7803 11.2114Z" fill="#382A12"/>
</svg>
