<svg width="20" height="21" viewBox="0 0 20 21" fill="none" xmlns="http://www.w3.org/2000/svg">
<path d="M6.28547 13.6874L5.63281 17.2655C5.6182 17.3466 5.61977 17.4297 5.63741 17.5102C5.65506 17.5907 5.68843 17.6668 5.73563 17.7344C5.78282 17.8019 5.8429 17.8594 5.9124 17.9036C5.98191 17.9479 6.05947 17.9779 6.14062 17.992H6.25C6.39711 17.9925 6.53965 17.941 6.65254 17.8467C6.76544 17.7524 6.84144 17.6213 6.86719 17.4764L6.28547 13.6874ZM6.28547 13.6874H6.29688V13.6249L6.23539 13.6136L6.23334 13.6249H2.5C2.33424 13.6249 2.17527 13.559 2.05806 13.4418C1.94085 13.3246 1.875 13.1656 1.875 12.9999C1.875 12.8341 1.94085 12.6751 2.05806 12.5579C2.17527 12.4407 2.33424 12.3749 2.5 12.3749H6.52344L7.1918 8.68735H7.20312V8.62485L7.14163 8.61371L7.13961 8.62485H3.40625C3.24049 8.62485 3.08152 8.559 2.96431 8.44179C2.8471 8.32458 2.78125 8.16561 2.78125 7.99985C2.78125 7.83409 2.8471 7.67512 2.96431 7.55791C3.08152 7.4407 3.24049 7.37485 3.40625 7.37485L6.28547 13.6874ZM17.5 7.43735H17.5625V7.42521C17.6887 7.43931 17.8071 7.49583 17.8977 7.58648C18.0032 7.69197 18.0625 7.83504 18.0625 7.98423C18.0625 8.13341 18.0032 8.27649 17.8977 8.38198C17.7923 8.48746 17.6492 8.54673 17.5 8.54673H13.4766H13.4244L13.4151 8.59808L12.7354 12.3481L12.722 12.4217H12.7969H16.5938C16.7429 12.4217 16.886 12.481 16.9915 12.5865C17.097 12.692 17.1562 12.835 17.1562 12.9842C17.1562 13.1334 17.097 13.2765 16.9915 13.382C16.886 13.4875 16.7429 13.5467 16.5938 13.5467H12.5703H12.5182L12.5088 13.598L11.8057 17.4574L11.8057 17.4577C11.7825 17.588 11.7141 17.706 11.6125 17.7909C11.5109 17.8758 11.3826 17.9221 11.2502 17.9217H11.25H11.1462C11.075 17.9086 11.007 17.8819 10.946 17.8431C10.8834 17.8033 10.8293 17.7515 10.7869 17.6907C10.7444 17.63 10.7143 17.5614 10.6985 17.489C10.6826 17.4166 10.6812 17.3418 10.6943 17.2688C10.6943 17.2688 10.6943 17.2688 10.6943 17.2687L11.3584 13.6283L11.3718 13.5545H11.2969H7.57031H7.51817L7.50882 13.6058L6.8057 17.4652L6.80565 17.4655C6.78248 17.5958 6.71408 17.7138 6.61247 17.7987C6.51087 17.8836 6.38258 17.9299 6.25018 17.9295H6.25H6.14617C6.07501 17.9165 6.00703 17.8898 5.94595 17.8509C5.8834 17.8111 5.82933 17.7593 5.78686 17.6986C5.74438 17.6378 5.71434 17.5692 5.69846 17.4968C5.68258 17.4244 5.68117 17.3496 5.69431 17.2766C5.69431 17.2766 5.69432 17.2766 5.69432 17.2766L6.35836 13.6361L6.37181 13.5624H6.29688H2.5C2.35082 13.5624 2.20774 13.5031 2.10225 13.3976C1.99676 13.2921 1.9375 13.149 1.9375 12.9999C1.9375 12.8507 1.99676 12.7076 2.10225 12.6021C2.20774 12.4966 2.35082 12.4374 2.5 12.4374H6.52344H6.57563L6.58494 12.386L7.26462 8.636L7.27797 8.56235H7.20312H3.40625C3.25707 8.56235 3.11399 8.50309 3.0085 8.3976C2.90301 8.29211 2.84375 8.14904 2.84375 7.99985C2.84375 7.85067 2.90301 7.70759 3.0085 7.60211C3.11399 7.49662 3.25707 7.43735 3.40625 7.43735H7.42969H7.48183L7.49118 7.38606L8.1943 3.52668L8.19435 3.52638C8.22047 3.37902 8.30406 3.24806 8.42673 3.16232C8.5494 3.07659 8.7011 3.04309 8.84847 3.06921C8.99584 3.09532 9.12679 3.17891 9.21253 3.30158C9.29825 3.42422 9.33175 3.57588 9.30567 3.72321C9.30566 3.72325 9.30565 3.72329 9.30565 3.72332L8.64164 7.36364L8.62819 7.43735H8.70312H12.4297H12.4818L12.4912 7.38606L13.1943 3.52668L13.1944 3.52638C13.2205 3.37902 13.3041 3.24806 13.4267 3.16232C13.5494 3.07659 13.7011 3.04309 13.8485 3.06921C13.9958 3.09532 14.1268 3.17891 14.2125 3.30158C14.255 3.36232 14.2851 3.43083 14.301 3.50319C14.317 3.57554 14.3186 3.65034 14.3057 3.7233C14.3056 3.72331 14.3056 3.72331 14.3056 3.72332L13.6416 7.36364L13.6282 7.43735H13.7031H17.5ZM11.5234 12.4374H11.5756L11.5849 12.386L12.2646 8.636L12.278 8.56235H12.2031H8.47656H8.42437L8.41506 8.61371L7.73538 12.3637L7.72203 12.4374H7.79688H11.5234Z" fill="black" stroke="#333333" stroke-width="0.125"/>
</svg>
