<svg width="27" height="28" viewBox="0 0 27 28" fill="none" xmlns="http://www.w3.org/2000/svg">
<path d="M21.375 14.2554H22.5C23.0967 14.2554 23.669 14.4924 24.091 14.9144C24.5129 15.3363 24.75 15.9086 24.75 16.5054V18.7554C24.75 19.3521 24.5129 19.9244 24.091 20.3464C23.669 20.7683 23.0967 21.0054 22.5 21.0054H21.375C21.0766 21.0054 20.7905 20.8868 20.5795 20.6759C20.3685 20.4649 20.25 20.1787 20.25 19.8804V15.3804C20.25 15.082 20.3685 14.7959 20.5795 14.5849C20.7905 14.3739 21.0766 14.2554 21.375 14.2554ZM5.625 21.0054H4.5C3.90326 21.0054 3.33097 20.7683 2.90901 20.3464C2.48705 19.9244 2.25 19.3521 2.25 18.7554V16.5054C2.25 15.9086 2.48705 15.3363 2.90901 14.9144C3.33097 14.4924 3.90326 14.2554 4.5 14.2554H5.625C5.92337 14.2554 6.20952 14.3739 6.4205 14.5849C6.63147 14.7959 6.75 15.082 6.75 15.3804V19.8804C6.75 20.1787 6.63147 20.4649 6.4205 20.6759C6.20952 20.8868 5.92337 21.0054 5.625 21.0054Z" fill="#A3D3FF"/>
<path d="M23.3438 13.5466V12.0054C23.3438 9.39465 22.3066 6.89085 20.4606 5.04479C18.6145 3.19873 16.1107 2.16162 13.5 2.16162C10.8893 2.16162 8.38548 3.19873 6.53942 5.04479C4.69336 6.89085 3.65625 9.39465 3.65625 12.0054V13.5466C3.01128 13.7294 2.44315 14.1168 2.03736 14.6504C1.63158 15.184 1.41009 15.835 1.40625 16.5054V18.7554C1.40625 19.5759 1.7322 20.3628 2.31239 20.943C2.89258 21.5232 3.67949 21.8491 4.5 21.8491H5.625C6.14623 21.8462 6.64528 21.6378 7.01385 21.2692C7.38243 20.9007 7.5908 20.4016 7.59375 19.8804V15.3804C7.5908 14.8591 7.38243 14.3601 7.01385 13.9915C6.64528 13.6229 6.14623 13.4146 5.625 13.4116H5.34375V12.0054C5.34375 9.8422 6.20307 7.76763 7.73266 6.23803C9.26225 4.70844 11.3368 3.84912 13.5 3.84912C15.6632 3.84912 17.7377 4.70844 19.2673 6.23803C20.7969 7.76763 21.6563 9.8422 21.6563 12.0054V13.4116H21.375C20.8538 13.4146 20.3547 13.6229 19.9861 13.9915C19.6176 14.3601 19.4092 14.8591 19.4063 15.3804V19.8804C19.4092 20.4016 19.6176 20.9007 19.9861 21.2692C20.3547 21.6378 20.8538 21.8462 21.375 21.8491H21.6563V23.2554C21.6563 23.6283 21.5081 23.986 21.2444 24.2497C20.9806 24.5135 20.623 24.6616 20.25 24.6616H13.5C13.2762 24.6616 13.0616 24.7505 12.9034 24.9088C12.7451 25.067 12.6563 25.2816 12.6563 25.5054C12.6563 25.7292 12.7451 25.9438 12.9034 26.102C13.0616 26.2602 13.2762 26.3491 13.5 26.3491H20.25C21.0705 26.3491 21.8574 26.0232 22.4376 25.443C23.0178 24.8628 23.3438 24.0759 23.3438 23.2554V21.7141C23.9887 21.5313 24.5569 21.1439 24.9626 20.6103C25.3684 20.0767 25.5899 19.4257 25.5938 18.7554V16.5054C25.5899 15.835 25.3684 15.184 24.9626 14.6504C24.5569 14.1168 23.9887 13.7294 23.3438 13.5466ZM5.90625 15.3804V19.8804C5.90625 19.955 5.87662 20.0265 5.82387 20.0792C5.77113 20.132 5.69959 20.1616 5.625 20.1616H4.5C4.12704 20.1616 3.76935 20.0135 3.50563 19.7497C3.24191 19.486 3.09375 19.1283 3.09375 18.7554V16.5054C3.09375 16.1324 3.24191 15.7747 3.50563 15.511C3.76935 15.2473 4.12704 15.0991 4.5 15.0991H5.625C5.69959 15.0991 5.77113 15.1288 5.82387 15.1815C5.87662 15.2342 5.90625 15.3058 5.90625 15.3804ZM23.9063 18.7554C23.9063 19.1283 23.7581 19.486 23.4944 19.7497C23.2306 20.0135 22.873 20.1616 22.5 20.1616H21.375C21.3004 20.1616 21.2289 20.132 21.1761 20.0792C21.1234 20.0265 21.0938 19.955 21.0938 19.8804V15.3804C21.0938 15.3058 21.1234 15.2342 21.1761 15.1815C21.2289 15.1288 21.3004 15.0991 21.375 15.0991H22.5C22.873 15.0991 23.2306 15.2473 23.4944 15.511C23.7581 15.7747 23.9063 16.1324 23.9063 16.5054V18.7554Z" fill="white"/>
</svg>
