<svg width="17" height="17" viewBox="0 0 17 17" fill="none" xmlns="http://www.w3.org/2000/svg">
<path d="M14.4985 8.50021H12.5298C12.2687 8.50021 12.0183 8.60392 11.8337 8.78852C11.6491 8.97313 11.5454 9.22351 11.5454 9.48458V11.9455C11.5454 12.2066 11.6491 12.457 11.8337 12.6416C12.0183 12.8262 12.2687 12.9299 12.5298 12.9299H13.5142C13.7752 12.9299 14.0256 12.8262 14.2102 12.6416C14.3948 12.457 14.4985 12.2066 14.4985 11.9455V8.50021ZM14.4985 8.50021C14.4986 7.72043 14.3442 6.94836 14.0443 6.22856C13.7444 5.50875 13.3049 4.85545 12.7513 4.30636C12.1976 3.75726 11.5407 3.32324 10.8184 3.02934C10.0961 2.73543 9.32282 2.58746 8.54307 2.59396C7.76383 2.58827 6.99117 2.73685 6.26961 3.03112C5.54806 3.32539 4.89186 3.75954 4.33885 4.30856C3.78583 4.85757 3.34693 5.51059 3.04742 6.22999C2.74791 6.94939 2.59373 7.72095 2.59375 8.50021V11.9455C2.59375 12.2066 2.69746 12.457 2.88207 12.6416C3.06667 12.8262 3.31705 12.9299 3.57812 12.9299H4.5625C4.82357 12.9299 5.07395 12.8262 5.25856 12.6416C5.44316 12.457 5.54688 12.2066 5.54688 11.9455V9.48458C5.54688 9.22351 5.44316 8.97313 5.25856 8.78852C5.07395 8.60392 4.82357 8.50021 4.5625 8.50021H2.59375" stroke="#6174A4" stroke-width="1.2" stroke-linecap="round" stroke-linejoin="round"/>
<path d="M14.4985 11.9453V13.4219C14.4985 13.944 14.2911 14.4448 13.9219 14.814C13.5527 15.1832 13.0519 15.3906 12.5298 15.3906H8.99219" stroke="#6174A4" stroke-width="1.2" stroke-linecap="round" stroke-linejoin="round"/>
</svg>
