<svg width="20" height="20" viewBox="0 0 20 20" fill="none" xmlns="http://www.w3.org/2000/svg">
<g clip-path="url(#clip0_960_13254)">
<path d="M9.99996 18.3337C14.6023 18.3337 18.3333 14.6027 18.3333 10.0003C18.3333 5.39795 14.6023 1.66699 9.99996 1.66699C5.39759 1.66699 1.66663 5.39795 1.66663 10.0003C1.66663 14.6027 5.39759 18.3337 9.99996 18.3337Z" stroke="#645DF6" stroke-width="2" stroke-linecap="round" stroke-linejoin="round"/>
<path d="M7.57495 7.50047C7.77087 6.94353 8.15758 6.4739 8.66658 6.17475C9.17558 5.87561 9.77403 5.76626 10.3559 5.86607C10.9378 5.96588 11.4656 6.26841 11.8458 6.72008C12.2261 7.17175 12.4342 7.74341 12.4333 8.33381C12.4333 10.0005 9.93328 10.8338 9.93328 10.8338" stroke="#645DF6" stroke-width="2" stroke-linecap="round" stroke-linejoin="round"/>
<path d="M10 14.167H10.0089" stroke="#645DF6" stroke-width="2" stroke-linecap="round" stroke-linejoin="round"/>
</g>
<defs>
<clipPath id="clip0_960_13254">
<rect width="20" height="20" fill="white"/>
</clipPath>
</defs>
</svg>
