<svg width="28" height="35" viewBox="0 0 28 35" fill="none" xmlns="http://www.w3.org/2000/svg">
<g clip-path="url(#clip0_93_49746)">
<path d="M24.6747 8.85194C24.6639 8.79922 24.6483 8.74738 24.6277 8.69794C24.6072 8.64856 24.5816 8.59994 24.552 8.55548C24.5215 8.5102 24.4869 8.4682 24.4491 8.4303C24.4112 8.3924 24.3692 8.35784 24.3239 8.3282C24.2794 8.29856 24.2317 8.27302 24.1822 8.25245C24.132 8.23189 24.0801 8.2162 24.0283 8.20553C23.9212 8.18409 23.8126 8.18409 23.7063 8.20553C23.6534 8.21625 23.6016 8.23189 23.5521 8.25245C23.5019 8.27302 23.4541 8.29856 23.4097 8.3282C23.3644 8.35784 23.3224 8.3924 23.2845 8.4303C23.2466 8.4682 23.212 8.5102 23.1824 8.55548C23.1528 8.59994 23.1272 8.64856 23.1067 8.69794C23.0861 8.74738 23.0704 8.79922 23.0597 8.85194C23.049 8.90548 23.0433 8.95896 23.0433 9.0125C23.0433 9.22988 23.1314 9.44234 23.2846 9.5947C23.3225 9.6326 23.3645 9.66716 23.4098 9.69763C23.4543 9.72727 23.502 9.75281 23.5523 9.77337C23.6016 9.79393 23.6535 9.80963 23.7062 9.82029C23.759 9.83101 23.8133 9.83593 23.8668 9.83593C23.9203 9.83593 23.9747 9.83101 24.0282 9.82029C24.0801 9.80957 24.132 9.79393 24.1821 9.77337C24.2316 9.75281 24.2794 9.72727 24.3238 9.69763C24.3691 9.66716 24.4111 9.63255 24.449 9.5947C24.6022 9.44152 24.6903 9.22994 24.6903 9.0125C24.6902 8.95896 24.6853 8.90548 24.6747 8.85194Z" fill="url(#paint0_linear_93_49746)"/>
<path d="M23.6878 5.94754C23.5688 5.71309 23.4395 5.48023 23.3039 5.25552C22.3543 3.68227 21.0113 2.3654 19.4201 1.44736C17.7791 0.5005 15.9049 0 14 0C8.01177 0 3.13994 4.87184 3.13994 10.8601V12.7413C1.49581 13.4812 0.347595 15.1338 0.347595 17.0507C0.347595 19.6556 2.46679 21.7748 5.07172 21.7748H5.87256C6.25581 22.9006 7.32266 23.713 8.57642 23.713C10.1513 23.713 11.4325 22.4318 11.4325 20.8569V13.2445C11.4325 11.6696 10.1513 10.3884 8.57642 10.3884C7.32271 10.3884 6.25581 11.2008 5.87256 12.3266H5.07172C4.97602 12.3266 4.88119 12.3303 4.78691 12.336V10.8602C4.78691 5.77992 8.91997 1.64697 14.0001 1.64697C17.2575 1.64697 20.2085 3.31417 21.894 6.10668C22.0089 6.29721 22.1185 6.49463 22.2195 6.69348C22.4255 7.09893 22.9212 7.26053 23.3265 7.05474C23.7321 6.84874 23.8938 6.35299 23.6878 5.94754ZM7.36717 20.8568V13.2445C7.36717 12.5778 7.90956 12.0354 8.57637 12.0354C9.24312 12.0354 9.78556 12.5777 9.78556 13.2445V20.8568C9.78556 21.5235 9.24317 22.066 8.57637 22.066C7.90967 22.066 7.36728 21.5236 7.36717 20.8569C7.36717 20.8569 7.36717 20.8569 7.36717 20.8568ZM5.07172 13.9734H5.72026V20.1277H5.07172C3.37499 20.1278 1.99451 18.7474 1.99451 17.0506C1.99451 15.3538 3.37493 13.9734 5.07172 13.9734Z" fill="url(#paint1_linear_93_49746)"/>
<path d="M24.8601 12.7415V11.6839C24.8601 11.2291 24.4913 10.8604 24.0366 10.8604C23.5818 10.8604 23.2131 11.2291 23.2131 11.6839V12.3363C23.1188 12.3307 23.0239 12.3269 22.9283 12.3269H22.1275C21.7442 11.2011 20.6774 10.3887 19.4236 10.3887C17.8487 10.3887 16.5675 11.6699 16.5675 13.2448V20.8571C16.5675 22.432 17.8487 23.7132 19.4236 23.7132C20.6774 23.7132 21.7442 22.9008 22.1275 21.775H22.9283C23.1588 21.775 23.3853 21.7577 23.6071 21.7256V24.75H17.0413C16.7061 23.8031 15.8021 23.1225 14.7417 23.1225H13.3406C11.9958 23.1225 10.9017 24.2167 10.9017 25.5615C10.9017 26.9063 11.9959 28.0004 13.3406 28.0004H14.7417C15.7931 28.0004 16.6913 27.3315 17.0331 26.397H24.4305C24.8853 26.397 25.254 26.0283 25.254 25.5735V21.1604C26.6846 20.3476 27.6525 18.8106 27.6525 17.051C27.6524 15.1341 26.5042 13.4815 24.8601 12.7415ZM20.6327 20.857V20.8571C20.6327 21.524 20.0903 22.0663 19.4235 22.0663C18.7568 22.0663 18.2143 21.5239 18.2143 20.8571V13.2448C18.2143 12.578 18.7567 12.0356 19.4235 12.0356C20.0903 12.0356 20.6327 12.578 20.6327 13.2448V20.857ZM15.5279 25.6532C15.4821 26.0469 15.1473 26.3535 14.7417 26.3535H13.3406C12.9039 26.3535 12.5486 25.9982 12.5486 25.5615C12.5486 25.1247 12.9039 24.7695 13.3406 24.7695H14.7417C15.1509 24.7695 15.4887 25.0815 15.5295 25.4802C15.5261 25.5109 15.5239 25.5419 15.5239 25.5735C15.5239 25.6003 15.5254 25.6269 15.5279 25.6532ZM22.9283 20.1282H22.2796V13.9739H22.9283C24.625 13.9739 26.0055 15.3543 26.0055 17.0511C26.0055 18.7479 24.625 20.1282 22.9283 20.1282Z" fill="url(#paint2_linear_93_49746)"/>
</g>
<path d="M4.10083 31.4053H7.17134C6.88476 32.6481 5.97726 33.363 4.674 33.363C2.99545 33.363 1.91054 32.2405 1.91054 30.51C1.91054 28.8196 2.98863 27.6771 4.59894 27.6771C5.54056 27.6771 6.27748 28.0713 6.67324 28.7929L6.68006 28.8062H8.80212L8.78848 28.7661C8.21531 27.0356 6.64594 26 4.59212 26C3.32297 26 2.163 26.4477 1.31691 27.2628C0.463988 28.0846 0 29.2405 0 30.5033C0 33.1091 1.93783 35 4.60576 35C4.73541 35 4.85823 34.9933 4.98105 34.9866C7.23275 34.8196 9 32.9287 9 30.6837V29.9955H4.09401V31.4053H4.10083Z" fill="url(#paint3_linear_93_49746)"/>
<defs>
<linearGradient id="paint0_linear_93_49746" x1="23.8668" y1="8.18945" x2="23.8668" y2="9.83593" gradientUnits="userSpaceOnUse">
<stop stop-color="#000AFF"/>
<stop offset="1" stop-color="#D274FF"/>
</linearGradient>
<linearGradient id="paint1_linear_93_49746" x1="12.0624" y1="0" x2="12.0624" y2="23.713" gradientUnits="userSpaceOnUse">
<stop stop-color="#000AFF"/>
<stop offset="1" stop-color="#D274FF"/>
</linearGradient>
<linearGradient id="paint2_linear_93_49746" x1="19.2771" y1="10.3887" x2="19.2771" y2="28.0004" gradientUnits="userSpaceOnUse">
<stop stop-color="#000AFF"/>
<stop offset="1" stop-color="#D274FF"/>
</linearGradient>
<linearGradient id="paint3_linear_93_49746" x1="4.5" y1="26" x2="4.5" y2="35" gradientUnits="userSpaceOnUse">
<stop stop-color="#EC78FF"/>
<stop offset="1" stop-color="#B032FE"/>
</linearGradient>
<clipPath id="clip0_93_49746">
<rect width="28" height="28" fill="white"/>
</clipPath>
</defs>
</svg>
