<svg width="21" height="21" viewBox="0 0 21 21" fill="none" xmlns="http://www.w3.org/2000/svg">
<g clip-path="url(#clip0_601_5027)">
<path d="M8.53125 17.5009C8.53071 16.9716 8.70477 16.4569 9.02646 16.0365C9.34816 15.6162 9.79952 15.3137 10.3106 15.1759C10.8217 15.0382 11.3639 15.0728 11.8533 15.2745C12.3426 15.4762 12.7518 15.8337 13.0174 16.2916C14.8461 15.4849 15.5313 14.2188 15.5313 11.8125V9.1875C15.5313 5.6945 13.5616 3.28125 10.5 3.28125C7.43838 3.28125 5.46875 5.69538 5.46875 9.1875V12.25C5.46852 12.424 5.3993 12.5908 5.27628 12.7138C5.15326 12.8368 4.98648 12.906 4.8125 12.9063H3.9375C3.29969 12.9056 2.68818 12.6519 2.2371 12.201C1.78602 11.7501 1.53218 11.1387 1.53125 10.5009L1.53125 9.62588C1.53194 8.98783 1.78565 8.37611 2.23674 7.92486C2.68782 7.47361 3.29946 7.21968 3.9375 7.21875H4.35575C5.01813 4.09413 7.28525 1.96875 10.5 1.96875C13.7148 1.96875 15.981 4.09413 16.6434 7.21875H17.0616C17.6995 7.21968 18.311 7.47349 18.7621 7.92455C19.2131 8.37561 19.467 8.98711 19.4679 9.625V10.5C19.4672 11.138 19.2134 11.7496 18.7623 12.2007C18.3112 12.6518 17.6996 12.9056 17.0616 12.9063H16.7913C16.7575 13.9426 16.4098 14.9443 15.7942 15.7786C15.1785 16.613 14.324 17.2408 13.3438 17.5788C13.3334 18.2169 13.07 18.8249 12.6114 19.2688C12.1529 19.7128 11.5367 19.9564 10.8986 19.9461C10.2604 19.9357 9.65245 19.6723 9.20849 19.2138C8.76453 18.7552 8.52092 18.1391 8.53125 17.5009ZM9.84375 17.5009C9.84375 17.7172 9.9079 17.9287 10.0281 18.1085C10.1483 18.2884 10.3191 18.4286 10.5189 18.5114C10.7188 18.5942 10.9387 18.6158 11.1509 18.5736C11.363 18.5314 11.5579 18.4272 11.7109 18.2743C11.8639 18.1213 11.968 17.9264 12.0102 17.7143C12.0524 17.5021 12.0308 17.2822 11.948 17.0823C11.8652 16.8825 11.725 16.7116 11.5452 16.5915C11.3653 16.4713 11.1538 16.4071 10.9375 16.4071C10.6475 16.4074 10.3694 16.5227 10.1644 16.7277C9.95929 16.9328 9.84398 17.2109 9.84375 17.5009ZM16.8438 11.5946H17.0616C17.3518 11.5946 17.6301 11.4794 17.8353 11.2743C18.0406 11.0692 18.156 10.791 18.1563 10.5009V9.62588C18.1563 9.33571 18.041 9.05742 17.836 8.85217C17.6309 8.64691 17.3527 8.53148 17.0625 8.53125H16.8438V11.5946ZM2.84375 9.62588V10.5009C2.84421 10.7907 2.95962 11.0686 3.16467 11.2735C3.36971 11.4783 3.64764 11.5935 3.9375 11.5938H4.15625V8.53125H3.9375C3.64734 8.53148 3.36914 8.64691 3.16405 8.85217C2.95896 9.05742 2.84375 9.33571 2.84375 9.62588Z" fill="#FF8A00"/>
</g>
<defs>
<clipPath id="clip0_601_5027">
<rect width="21" height="21" fill="white"/>
</clipPath>
</defs>
</svg>
