<svg width="26" height="24" viewBox="0 0 26 24" fill="none" xmlns="http://www.w3.org/2000/svg">
<path fill-rule="evenodd" clip-rule="evenodd" d="M15.0336 5.58382H15.0955C15.2095 8.36257 17.5041 10.5862 20.3104 10.5862C21.0618 10.5862 21.7766 10.4268 22.4226 10.1399C22.5237 10.5714 22.5775 11.0213 22.5775 11.4844C22.5775 14.7369 19.9294 17.385 16.6769 17.385H16.3018H15.8072L15.4562 17.7336L11.6941 21.4696V18.585V17.385H10.4941H7.10055C3.84806 17.385 1.2 14.737 1.2 11.4844C1.2 8.23188 3.84806 5.58382 7.10055 5.58382H15.0336ZM10.4941 22.3668C10.4941 22.7024 10.6945 23.0021 11.0045 23.1306C11.1054 23.1722 11.2119 23.1935 11.3206 23.1935C11.5415 23.1935 11.7483 23.1082 11.9031 22.9532L16.3018 18.585H16.6769C20.5922 18.585 23.7775 15.3997 23.7775 11.4844C23.7775 10.8521 23.694 10.239 23.5381 9.65508C24.8373 8.67563 25.6774 7.11942 25.6774 5.36693C25.6774 2.40284 23.2745 0 20.3105 0C17.6822 0 15.4955 1.88929 15.0336 4.38382H7.10055C3.18532 4.38382 0 7.56914 0 11.4844C0 15.3997 3.18532 18.585 7.10055 18.585H9.2941H10.4941V19.785V22.3668ZM20.3104 1.34761C22.5266 1.34761 24.3297 3.15065 24.3297 5.36688C24.3297 7.58315 22.5266 9.3862 20.3104 9.3862C18.0941 9.3862 16.291 7.58315 16.291 5.36688C16.291 3.1506 18.0941 1.34761 20.3104 1.34761ZM20.07 7.18997C19.9526 7.18997 19.8351 7.14371 19.7455 7.05123L18.6221 5.89151C18.4429 5.70654 18.4429 5.40669 18.6221 5.22168C18.8013 5.03676 19.0918 5.03676 19.271 5.22168L20.07 6.04644L21.8128 4.24741C21.9921 4.06245 22.2826 4.06245 22.4617 4.24741C22.6409 4.43242 22.6409 4.73228 22.4617 4.91724L20.3944 7.05123C20.3048 7.14371 20.1873 7.18997 20.07 7.18997Z" fill="url(#paint0_linear_109_17820)"/>
<defs>
<linearGradient id="paint0_linear_109_17820" x1="12.8387" y1="0" x2="12.8387" y2="23.1934" gradientUnits="userSpaceOnUse">
<stop stop-color="#000AFF"/>
<stop offset="1" stop-color="#D274FF"/>
</linearGradient>
</defs>
</svg>
