<svg width="20" height="21" viewBox="0 0 20 21" fill="none" xmlns="http://www.w3.org/2000/svg">
<path d="M10 8.9375C11.7259 8.9375 13.125 7.53839 13.125 5.8125C13.125 4.08661 11.7259 2.6875 10 2.6875C8.27411 2.6875 6.875 4.08661 6.875 5.8125C6.875 7.53839 8.27411 8.9375 10 8.9375Z" stroke="#333333" stroke-width="1.2" stroke-linecap="round" stroke-linejoin="round"/>
<path d="M14.6875 17.0625C16.4134 17.0625 17.8125 15.6634 17.8125 13.9375C17.8125 12.2116 16.4134 10.8125 14.6875 10.8125C12.9616 10.8125 11.5625 12.2116 11.5625 13.9375C11.5625 15.6634 12.9616 17.0625 14.6875 17.0625Z" stroke="#333333" stroke-width="1.5" stroke-linecap="round" stroke-linejoin="round"/>
<path d="M5.3125 17.0625C7.03839 17.0625 8.4375 15.6634 8.4375 13.9375C8.4375 12.2116 7.03839 10.8125 5.3125 10.8125C3.58661 10.8125 2.1875 12.2116 2.1875 13.9375C2.1875 15.6634 3.58661 17.0625 5.3125 17.0625Z" stroke="#333333" stroke-width="1.5" stroke-linecap="round" stroke-linejoin="round"/>
</svg>
