<svg width="18" height="19" viewBox="0 0 18 19" fill="none" xmlns="http://www.w3.org/2000/svg">
<path d="M11 17H7.5C4.67157 17 3.25736 17 2.37868 16.1213C1.5 15.2427 1.5 13.8284 1.5 11V9.5C1.5 6.67157 1.5 5.25736 2.37868 4.37868C3.25736 3.5 4.67157 3.5 7.5 3.5H10.5C13.3284 3.5 14.7427 3.5 15.6213 4.37868C16.5 5.25736 16.5 6.67157 16.5 9.5V11C16.5 13.8284 16.5 15.2427 15.6213 16.1213C15.1314 16.6112 14.4751 16.828 13.5 16.9239" stroke="#645DF6" stroke-linecap="round"/>
<path d="M5.25 3.5V2.375" stroke="#645DF6" stroke-linecap="round"/>
<path d="M12.75 3.5V2.375" stroke="#645DF6" stroke-linecap="round"/>
<path d="M16.125 7.25H12.4688H8.0625M1.5 7.25H4.40625" stroke="#645DF6" stroke-linecap="round"/>
<path d="M13.5 13.25C13.5 13.6642 13.1642 14 12.75 14C12.3358 14 12 13.6642 12 13.25C12 12.8358 12.3358 12.5 12.75 12.5C13.1642 12.5 13.5 12.8358 13.5 13.25Z" fill="#645DF6"/>
<path d="M13.5 10.25C13.5 10.6642 13.1642 11 12.75 11C12.3358 11 12 10.6642 12 10.25C12 9.83578 12.3358 9.5 12.75 9.5C13.1642 9.5 13.5 9.83578 13.5 10.25Z" fill="#645DF6"/>
<path d="M9.75 13.25C9.75 13.6642 9.41422 14 9 14C8.58578 14 8.25 13.6642 8.25 13.25C8.25 12.8358 8.58578 12.5 9 12.5C9.41422 12.5 9.75 12.8358 9.75 13.25Z" fill="#645DF6"/>
<path d="M9.75 10.25C9.75 10.6642 9.41422 11 9 11C8.58578 11 8.25 10.6642 8.25 10.25C8.25 9.83578 8.58578 9.5 9 9.5C9.41422 9.5 9.75 9.83578 9.75 10.25Z" fill="#645DF6"/>
<path d="M6 13.25C6 13.6642 5.66421 14 5.25 14C4.83579 14 4.5 13.6642 4.5 13.25C4.5 12.8358 4.83579 12.5 5.25 12.5C5.66421 12.5 6 12.8358 6 13.25Z" fill="#645DF6"/>
<path d="M6 10.25C6 10.6642 5.66421 11 5.25 11C4.83579 11 4.5 10.6642 4.5 10.25C4.5 9.83578 4.83579 9.5 5.25 9.5C5.66421 9.5 6 9.83578 6 10.25Z" fill="#645DF6"/>
</svg>
