<svg width="14" height="4" viewBox="0 0 14 4" fill="none" xmlns="http://www.w3.org/2000/svg">
<path d="M3.33191 2.04974C3.33191 2.77351 2.74518 3.36023 2.02142 3.36023C1.29766 3.36023 0.710938 2.77351 0.710938 2.04974C0.710938 1.32598 1.29766 0.739258 2.02142 0.739258C2.74518 0.739258 3.33191 1.32598 3.33191 2.04974Z" fill="#333333"/>
<path d="M8.31238 2.04974C8.31238 2.77351 7.72567 3.36023 7.00189 3.36023C6.27811 3.36023 5.69141 2.77351 5.69141 2.04974C5.69141 1.32598 6.27811 0.739258 7.00189 0.739258C7.72567 0.739258 8.31238 1.32598 8.31238 2.04974Z" fill="#333333"/>
<path d="M11.9804 3.36023C12.7042 3.36023 13.2909 2.77351 13.2909 2.04974C13.2909 1.32598 12.7042 0.739258 11.9804 0.739258C11.2566 0.739258 10.6699 1.32598 10.6699 2.04974C10.6699 2.77351 11.2566 3.36023 11.9804 3.36023Z" fill="#333333"/>
</svg>
