<svg width="27" height="27" viewBox="0 0 27 27" fill="none" xmlns="http://www.w3.org/2000/svg">
<rect width="27" height="27" rx="13.5" fill="#DDDFEE"/>
<path d="M13.5271 15.5C14.4086 15.5 15.1259 14.827 15.1259 14C15.1259 13.173 14.4086 12.5 13.5271 12.5C12.6456 12.5 11.9282 13.173 11.9282 14C11.9282 14.827 12.6456 15.5 13.5271 15.5Z" fill="#333333"/>
<path d="M18.8566 15.5C19.7381 15.5 20.4555 14.827 20.4555 14C20.4555 13.173 19.7381 12.5 18.8566 12.5C17.9752 12.5 17.2578 13.173 17.2578 14C17.2578 14.827 17.9752 15.5 18.8566 15.5Z" fill="#333333"/>
<path d="M8.19747 15.5C9.07896 15.5 9.79631 14.827 9.79631 14C9.79631 13.173 9.07896 12.5 8.19747 12.5C7.31598 12.5 6.59863 13.173 6.59863 14C6.59863 14.827 7.31598 15.5 8.19747 15.5Z" fill="#333333"/>
</svg>
