<svg width="19" height="19" viewBox="0 0 19 19" fill="none" xmlns="http://www.w3.org/2000/svg">
<path d="M12.4054 17.7531L14.2975 15.8372C14.4447 15.6902 14.5615 15.5155 14.6412 15.3233C14.7208 15.1311 14.7618 14.9251 14.7618 14.717C14.7618 14.5089 14.7208 14.3029 14.6412 14.1107C14.5615 13.9185 14.4447 13.7439 14.2975 13.5968L13.2208 12.5439C13.0738 12.3967 12.8991 12.2799 12.7069 12.2002C12.5147 12.1205 12.3087 12.0795 12.1006 12.0795C11.8925 12.0795 11.6865 12.1205 11.4943 12.2002C11.3021 12.2799 11.1274 12.3967 10.9804 12.5439L10.2679 13.2564C8.43371 12.1569 6.89773 10.6236 5.79497 8.79139L6.50747 8.07889C6.65469 7.93184 6.77147 7.75721 6.85115 7.565C6.93083 7.37279 6.97184 7.16675 6.97184 6.95868C6.97184 6.7506 6.93083 6.54457 6.85115 6.35236C6.77147 6.16014 6.65469 5.98552 6.50747 5.83847L5.43872 4.75389C5.29114 4.60187 5.11455 4.48102 4.91941 4.39849C4.72427 4.31596 4.51455 4.27344 4.30268 4.27344C4.09081 4.27344 3.88109 4.31596 3.68595 4.39849C3.49081 4.48102 3.31422 4.60187 3.16664 4.75389L1.30622 6.65389C1.17655 6.78271 1.09545 6.95244 1.07669 7.13426C1.05793 7.31609 1.10267 7.4988 1.20331 7.65139C3.89433 11.6961 7.36319 15.1649 11.4079 17.856C11.5605 17.9566 11.7432 18.0013 11.925 17.9826C12.1068 17.9638 12.2766 17.8827 12.4054 17.7531Z" stroke="url(#paint0_linear_146_537804)" stroke-linecap="round" stroke-linejoin="round"/>
<path d="M6.38086 2.45453C7.79408 1.69711 9.41238 1.41117 10.9996 1.63844C12.5868 1.86571 14.0598 2.59428 15.2037 3.71784C16.3476 4.8414 17.1025 6.30113 17.3582 7.884C17.6138 9.46687 17.357 11.09 16.625 12.5166" stroke="url(#paint1_linear_146_537804)" stroke-linecap="round" stroke-linejoin="round"/>
<path d="M10.2916 4.5V8.93333H13.4583" stroke="url(#paint2_linear_146_537804)" stroke-linecap="round" stroke-linejoin="round"/>
<defs>
<linearGradient id="paint0_linear_146_537804" x1="7.91718" y1="4.27344" x2="7.91718" y2="17.9868" gradientUnits="userSpaceOnUse">
<stop stop-color="#0033EA"/>
<stop offset="1" stop-color="#8A0074"/>
</linearGradient>
<linearGradient id="paint1_linear_146_537804" x1="11.9176" y1="1.5625" x2="11.9176" y2="12.5166" gradientUnits="userSpaceOnUse">
<stop stop-color="#0033EA"/>
<stop offset="1" stop-color="#8A0074"/>
</linearGradient>
<linearGradient id="paint2_linear_146_537804" x1="11.875" y1="4.5" x2="11.875" y2="8.93333" gradientUnits="userSpaceOnUse">
<stop stop-color="#0033EA"/>
<stop offset="1" stop-color="#8A0074"/>
</linearGradient>
</defs>
</svg>
