<svg width="17" height="16" viewBox="0 0 17 16" fill="none" xmlns="http://www.w3.org/2000/svg">
<rect x="1" y="0.5" width="15" height="15" rx="7.5" stroke="#645DF6"/>
<g clip-path="url(#clip0_156_75417)">
<path d="M8.79673 4.14844C8.24684 4.14907 7.71966 4.36779 7.33083 4.75661C6.94201 5.14544 6.72329 5.67263 6.72266 6.22251C6.72266 6.36003 6.77729 6.49192 6.87453 6.58916C6.97177 6.6864 7.10366 6.74103 7.24117 6.74103C7.37869 6.74103 7.51058 6.6864 7.60782 6.58916C7.70506 6.49192 7.75969 6.36003 7.75969 6.22251C7.75969 5.94747 7.86895 5.6837 8.06343 5.48922C8.25792 5.29473 8.52169 5.18547 8.79673 5.18547C9.07177 5.18547 9.33554 5.29473 9.53003 5.48922C9.72451 5.6837 9.83377 5.94747 9.83377 6.22251C9.83377 6.67216 9.56944 6.94814 9.13499 7.34917C8.73293 7.7193 8.27821 8.1386 8.27821 8.8151C8.27821 8.95262 8.33284 9.08451 8.43008 9.18175C8.52732 9.27899 8.65921 9.33362 8.79673 9.33362C8.93425 9.33362 9.06614 9.27899 9.16338 9.18175C9.26062 9.08451 9.31525 8.95262 9.31525 8.8151C9.31525 8.60395 9.51375 8.41001 9.83782 8.11126C10.2733 7.7092 10.8708 7.15878 10.8708 6.22251C10.8702 5.67263 10.6515 5.14544 10.2626 4.75661C9.8738 4.36779 9.34662 4.14907 8.79673 4.14844V4.14844Z" fill="#645DF6"/>
<path d="M8.7968 10.3711C8.5917 10.3711 8.3912 10.4319 8.22066 10.5459C8.05012 10.6598 7.9172 10.8218 7.83871 11.0113C7.76021 11.2008 7.73968 11.4093 7.77969 11.6104C7.81971 11.8116 7.91847 11.9964 8.06351 12.1414C8.20854 12.2865 8.39332 12.3852 8.59449 12.4252C8.79565 12.4653 9.00417 12.4447 9.19366 12.3662C9.38315 12.2877 9.54512 12.1548 9.65907 11.9843C9.77302 11.8137 9.83384 11.6132 9.83384 11.4081C9.83357 11.1332 9.72422 10.8696 9.5298 10.6751C9.33538 10.4807 9.07176 10.3714 8.7968 10.3711Z" fill="#645DF6"/>
</g>
<defs>
<clipPath id="clip0_156_75417">
<rect width="8.2963" height="8.2963" fill="white" transform="translate(4.64844 4.14844)"/>
</clipPath>
</defs>
</svg>
