<svg width="16" height="16" viewBox="0 0 16 16" fill="none" xmlns="http://www.w3.org/2000/svg">
<path d="M8 0.00031662C3.5888 0.00031662 0 3.58897 0 7.99988C0 12.4109 3.5888 15.9995 8 15.9995C12.4112 15.9995 16 12.4109 16 7.99988C16 3.58897 12.4112 0.00031662 8 0.00031662ZM8 14.545C4.39084 14.545 1.45455 11.6089 1.45455 7.99993C1.45455 4.39096 4.39084 1.45486 8 1.45486C11.6092 1.45486 14.5455 4.39096 14.5455 7.99988C14.5455 11.6089 11.6092 14.545 8 14.545Z" fill="#6174A4"/>
<path d="M7.99998 6.30342C7.59833 6.30342 7.27271 6.62905 7.27271 7.03069V11.8784C7.27271 12.28 7.59833 12.6056 7.99998 12.6056C8.40163 12.6056 8.72725 12.28 8.72725 11.8784V7.03069C8.72725 6.62909 8.40163 6.30342 7.99998 6.30342Z" fill="#6174A4"/>
<path d="M7.99998 3.39447C7.80846 3.39447 7.62126 3.47205 7.48555 3.60732C7.35028 3.7426 7.27271 3.93023 7.27271 4.12175C7.27271 4.31326 7.35028 4.50041 7.48555 4.63617C7.62083 4.77144 7.80846 4.84902 7.99998 4.84902C8.19149 4.84902 8.37864 4.77144 8.51435 4.63617C8.64963 4.50041 8.72725 4.31326 8.72725 4.12175C8.72725 3.93023 8.64963 3.7426 8.51435 3.60732C8.37864 3.472 8.19149 3.39447 7.99998 3.39447Z" fill="#6174A4"/>
</svg>
