<svg width="14" height="20" viewBox="0 0 14 20" fill="none" xmlns="http://www.w3.org/2000/svg">
<path d="M14 19.1875H0V0.8125H9.625L14 5.1875V19.1875Z" fill="#90CAF9"/>
<path d="M13.3437 5.625H9.1875V1.46875L13.3437 5.625Z" fill="#E1F5FE"/>
<path d="M5.6875 9.5625L2.625 13.9375H8.75L5.6875 9.5625Z" fill="#1565C0"/>
<path d="M8.75 11.0498L6.5625 13.9373H10.9375L8.75 11.0498Z" fill="#1976D2"/>
<path d="M9.625 10.2188C9.625 10.3928 9.69414 10.5597 9.81721 10.6828C9.94028 10.8059 10.1072 10.875 10.2812 10.875C10.4553 10.875 10.6222 10.8059 10.7453 10.6828C10.8684 10.5597 10.9375 10.3928 10.9375 10.2188C10.9375 10.0447 10.8684 9.87778 10.7453 9.75471C10.6222 9.63164 10.4553 9.5625 10.2812 9.5625C10.1072 9.5625 9.94028 9.63164 9.81721 9.75471C9.69414 9.87778 9.625 10.0447 9.625 10.2188Z" fill="#1976D2"/>
</svg>
