<svg width="18" height="18" viewBox="0 0 18 18" fill="none" xmlns="http://www.w3.org/2000/svg">
<g clip-path="url(#clip0_620_50381)">
<path d="M15.75 10.6875H8.34188L9.79312 9.23062L9 8.4375L6.1875 11.25L9 14.0625L9.79312 13.2694L8.34188 11.8125H15.75V10.6875Z" fill="#4A6ADA"/>
<path d="M13.5 7.87501V5.62501C13.5004 5.55098 13.4862 5.4776 13.4582 5.40906C13.4303 5.34053 13.389 5.27819 13.3369 5.22563L9.39938 1.28813C9.34682 1.236 9.28448 1.19476 9.21595 1.16676C9.14742 1.13877 9.07403 1.12458 9 1.12501H3.375C3.07663 1.12501 2.79048 1.24354 2.5795 1.45451C2.36853 1.66549 2.25 1.95164 2.25 2.25001V15.75C2.25 16.0484 2.36853 16.3345 2.5795 16.5455C2.79048 16.7565 3.07663 16.875 3.375 16.875H12.375C12.6734 16.875 12.9595 16.7565 13.1705 16.5455C13.3815 16.3345 13.5 16.0484 13.5 15.75V14.625H12.375V15.75H3.375V2.25001H7.875V5.62501C7.875 5.92338 7.99353 6.20953 8.20451 6.4205C8.41548 6.63148 8.70163 6.75001 9 6.75001H12.375V7.87501H13.5ZM9 5.62501V2.48063L12.1444 5.62501H9Z" fill="#4A6ADA"/>
</g>
<defs>
<clipPath id="clip0_620_50381">
<rect width="18" height="18" fill="white"/>
</clipPath>
</defs>
</svg>
