<svg width="19" height="19" viewBox="0 0 19 19" fill="none" xmlns="http://www.w3.org/2000/svg">
<path d="M18.2322 0.16842C18.4566 0.392969 18.4566 0.757036 18.2322 0.981585L16.3138 2.89988C17.5565 4.49305 17.6144 6.71049 16.4876 8.36186C16.3266 8.59777 16.1415 8.82213 15.9322 9.03146L15.5872 9.37641L15.5844 9.37917L15.2294 9.73429C14.7578 10.2058 13.9933 10.2058 13.5218 9.73429L8.66616 4.87868C8.19461 4.40714 8.19461 3.64262 8.66616 3.17107L9.36899 2.46829C11.0436 0.793572 13.6799 0.666371 15.5007 2.08669L17.4189 0.16842C17.6435 -0.0561401 18.0076 -0.0561401 18.2322 0.16842ZM15.112 3.27451C13.9186 2.08774 12.0812 1.94117 10.7288 2.83479C10.5356 2.96245 10.3522 3.11134 10.1822 3.28146L9.83716 3.62646C9.61705 3.8465 9.61705 4.20325 9.83716 4.42329L13.9772 8.56329C14.1966 8.78278 14.5522 8.78332 14.7723 8.56493L14.774 8.56329L15.119 8.2183C16.4799 6.85737 16.4822 4.65235 15.126 3.28852L15.1189 3.28159L15.112 3.27451Z" fill="#1E1E38"/>
<path d="M8.45658 7.64327C8.68115 7.86782 8.68115 8.23189 8.45658 8.45644L6.56312 10.3499L8.04995 11.8367L9.94336 9.94322C10.168 9.71874 10.532 9.71874 10.7566 9.94322C10.9811 10.1678 10.9811 10.5319 10.7566 10.7565L8.86312 12.6499L9.37664 13.1634C10.0457 13.8325 10.0457 14.9174 9.37664 15.5866L9.03161 15.9316C7.35689 17.6062 4.72066 17.7334 2.89988 16.3132L0.981585 18.2315C0.757036 18.456 0.392969 18.456 0.16842 18.2315C-0.0561401 18.0069 -0.0561401 17.6428 0.16842 17.4182L2.08672 15.5C0.66652 13.6792 0.793756 11.0431 2.46843 9.36845L2.81343 9.02339C3.48257 8.35425 4.56746 8.35425 5.2366 9.02339L5.74995 9.53669L7.64342 7.64327C7.86797 7.41871 8.23204 7.41871 8.45658 7.64327ZM3.28781 15.1245C4.65157 16.4817 6.85722 16.4796 8.21843 15.1184L8.56343 14.7734C8.78347 14.5533 8.78347 14.1966 8.56343 13.9766L4.42343 9.83661C4.20339 9.6165 3.84664 9.6165 3.6266 9.83661L3.28161 10.1816C1.92045 11.5428 1.91834 13.7483 3.27529 15.1121C3.27741 15.1141 3.2795 15.1161 3.28159 15.1182C3.28368 15.1204 3.28575 15.1225 3.28781 15.1245Z" fill="#1E1E38"/>
</svg>
