<svg width="16" height="16" viewBox="0 0 16 16" fill="none" xmlns="http://www.w3.org/2000/svg">
<g clip-path="url(#clip0_406_474929)">
<path d="M8 0.000244141C3.5888 0.000244141 0 3.5889 0 7.99981C0 12.4108 3.5888 15.9994 8 15.9994C12.4112 15.9994 16 12.4108 16 7.99981C16 3.5889 12.4112 0.000244141 8 0.000244141ZM8 14.5449C4.39084 14.5449 1.45455 11.6088 1.45455 7.99986C1.45455 4.39089 4.39084 1.45479 8 1.45479C11.6092 1.45479 14.5455 4.39089 14.5455 7.99981C14.5455 11.6089 11.6092 14.5449 8 14.5449Z" fill="#2D50C8"/>
<path d="M8.00071 6.30347C7.59906 6.30347 7.27344 6.62909 7.27344 7.03074V11.8784C7.27344 12.28 7.59906 12.6057 8.00071 12.6057C8.40236 12.6057 8.72798 12.28 8.72798 11.8784V7.03074C8.72798 6.62914 8.40236 6.30347 8.00071 6.30347Z" fill="#2D50C8"/>
<path d="M8.00071 3.39429C7.8092 3.39429 7.622 3.47186 7.48629 3.60714C7.35101 3.74241 7.27344 3.93004 7.27344 4.12156C7.27344 4.31308 7.35101 4.50023 7.48629 4.63598C7.62156 4.77126 7.8092 4.84883 8.00071 4.84883C8.19223 4.84883 8.37938 4.77126 8.51509 4.63598C8.65036 4.50023 8.72798 4.31308 8.72798 4.12156C8.72798 3.93004 8.65036 3.74241 8.51509 3.60714C8.37938 3.47181 8.19223 3.39429 8.00071 3.39429Z" fill="#2D50C8"/>
</g>
<defs>
<clipPath id="clip0_406_474929">
<rect width="16" height="16" fill="white"/>
</clipPath>
</defs>
</svg>
