<svg width="17" height="17" viewBox="0 0 17 17" fill="none" xmlns="http://www.w3.org/2000/svg">
<path d="M8.5 16.4688C6.92393 16.4688 5.38326 16.0014 4.0728 15.1258C2.76235 14.2502 1.74097 13.0056 1.13784 11.5495C0.534703 10.0934 0.376895 8.49116 0.684371 6.94538C0.991847 5.39959 1.7508 3.9797 2.86525 2.86525C3.9797 1.7508 5.39959 0.991847 6.94538 0.684371C8.49116 0.376895 10.0934 0.534703 11.5495 1.13784C13.0056 1.74097 14.2502 2.76235 15.1258 4.0728C16.0014 5.38326 16.4688 6.92393 16.4688 8.5C16.4688 10.6134 15.6292 12.6403 14.1348 14.1348C12.6403 15.6292 10.6134 16.4688 8.5 16.4688ZM8.5 1.59375C7.13408 1.59375 5.79882 1.9988 4.6631 2.75767C3.52737 3.51654 2.64218 4.59514 2.11946 5.8571C1.59674 7.11905 1.45998 8.50767 1.72646 9.84735C1.99293 11.187 2.65069 12.4176 3.61655 13.3835C4.5824 14.3493 5.81298 15.0071 7.15266 15.2736C8.49234 15.54 9.88096 15.4033 11.1429 14.8805C12.4049 14.3578 13.4835 13.4726 14.2423 12.3369C15.0012 11.2012 15.4063 9.86593 15.4063 8.5C15.4063 6.66835 14.6786 4.91172 13.3835 3.61655C12.0883 2.32137 10.3317 1.59375 8.5 1.59375Z" fill="#101820"/>
<path d="M9.03125 7.4375H7.96875V12.2188H9.03125V7.4375Z" fill="#101820"/>
<path d="M8.5 6.375C8.28986 6.375 8.08443 6.31269 7.90971 6.19594C7.73498 6.07919 7.5988 5.91325 7.51838 5.7191C7.43796 5.52496 7.41692 5.31132 7.45792 5.10522C7.49891 4.89911 7.60011 4.70979 7.7487 4.5612C7.89729 4.41261 8.08661 4.31141 8.29272 4.27042C8.49882 4.22942 8.71246 4.25046 8.9066 4.33088C9.10075 4.4113 9.26669 4.54748 9.38344 4.72221C9.50019 4.89693 9.5625 5.10236 9.5625 5.3125C9.5625 5.59429 9.45056 5.86454 9.2513 6.0638C9.05204 6.26306 8.78179 6.375 8.5 6.375Z" fill="#101820"/>
</svg>
