<svg width="19" height="19" viewBox="0 0 19 19" fill="none" xmlns="http://www.w3.org/2000/svg">
<g clip-path="url(#clip0_146_535139)">
<path d="M10.6875 13.6562H10.0938V8.34931C10.0938 8.34278 10.092 8.33684 10.092 8.33091C10.092 8.32497 10.0938 8.31903 10.0938 8.3125C10.0938 7.98475 9.82775 7.71875 9.5 7.71875H8.3125C7.98475 7.71875 7.71875 7.98475 7.71875 8.3125C7.71875 8.64025 7.98475 8.90625 8.3125 8.90625H8.90625V13.6562H8.3125C7.98475 13.6562 7.71875 13.9222 7.71875 14.25C7.71875 14.5778 7.98475 14.8438 8.3125 14.8438H10.6875C11.0153 14.8438 11.2812 14.5778 11.2812 14.25C11.2812 13.9222 11.0153 13.6562 10.6875 13.6562ZM9.5 6.53125C10.1561 6.53125 10.6875 5.99925 10.6875 5.34375C10.6875 4.68825 10.1561 4.15625 9.5 4.15625C8.84391 4.15625 8.3125 4.68825 8.3125 5.34375C8.3125 5.99925 8.8445 6.53125 9.5 6.53125ZM9.5 0C4.25362 0 0 4.25303 0 9.5C0 14.747 4.25303 19 9.5 19C14.747 19 19 14.747 19 9.5C19 4.25303 14.747 0 9.5 0ZM9.5 17.8309C4.91625 17.8309 1.1875 14.0832 1.1875 9.49941C1.1875 4.91566 4.91625 1.18691 9.5 1.18691C14.0837 1.18691 17.8125 4.91566 17.8125 9.49941C17.8125 14.0832 14.0837 17.8309 9.5 17.8309Z" fill="#645DF6"/>
</g>
<defs>
<clipPath id="clip0_146_535139">
<rect width="19" height="19" fill="white"/>
</clipPath>
</defs>
</svg>
