<svg width="14" height="15" viewBox="0 0 14 15" fill="none" xmlns="http://www.w3.org/2000/svg">
<g clip-path="url(#clip0_294_36696)">
<path d="M7.875 10.5234H7.4375V6.61306C7.4375 6.60825 7.43619 6.60388 7.43619 6.5995C7.43619 6.59513 7.4375 6.59075 7.4375 6.58594C7.4375 6.34444 7.2415 6.14844 7 6.14844H6.125C5.8835 6.14844 5.6875 6.34444 5.6875 6.58594C5.6875 6.82744 5.8835 7.02344 6.125 7.02344H6.5625V10.5234H6.125C5.8835 10.5234 5.6875 10.7194 5.6875 10.9609C5.6875 11.2024 5.8835 11.3984 6.125 11.3984H7.875C8.1165 11.3984 8.3125 11.2024 8.3125 10.9609C8.3125 10.7194 8.1165 10.5234 7.875 10.5234ZM7 5.27344C7.48344 5.27344 7.875 4.88144 7.875 4.39844C7.875 3.91544 7.48344 3.52344 7 3.52344C6.51656 3.52344 6.125 3.91544 6.125 4.39844C6.125 4.88144 6.517 5.27344 7 5.27344ZM7 0.460938C3.13425 0.460938 0 3.59475 0 7.46094C0 11.3271 3.13381 14.4609 7 14.4609C10.8662 14.4609 14 11.3271 14 7.46094C14 3.59475 10.8662 0.460938 7 0.460938ZM7 13.5995C3.6225 13.5995 0.875 10.838 0.875 7.4605C0.875 4.083 3.6225 1.3355 7 1.3355C10.3775 1.3355 13.125 4.083 13.125 7.4605C13.125 10.838 10.3775 13.5995 7 13.5995Z" fill="#645DF6"/>
</g>
<defs>
<clipPath id="clip0_294_36696">
<rect width="14" height="14" fill="white" transform="translate(0 0.460938)"/>
</clipPath>
</defs>
</svg>
