<svg width="22" height="22" viewBox="0 0 22 22" fill="none" xmlns="http://www.w3.org/2000/svg">
<g id="instagram">
<path id="bg" d="M0 11C0 17.0751 4.92487 22 11 22C17.0751 22 22 17.0751 22 11C22 4.92487 17.0751 0 11 0C4.92487 0 0 4.92487 0 11Z" fill="#F00073"/>
<g id="instagram_2">
<path d="M11 6.32495C12.5125 6.32495 12.7187 6.32495 13.3375 6.32495C13.8875 6.32495 14.1625 6.46245 14.3687 6.5312C14.6437 6.6687 14.85 6.73745 15.0562 6.9437C15.2625 7.14995 15.4 7.3562 15.4687 7.6312C15.5375 7.83745 15.6062 8.11245 15.675 8.66245C15.675 9.2812 15.675 9.4187 15.675 11C15.675 12.5812 15.675 12.7187 15.675 13.3375C15.675 13.8875 15.5375 14.1625 15.4687 14.3687C15.3312 14.6437 15.2625 14.85 15.0562 15.0562C14.85 15.2625 14.6437 15.4 14.3687 15.4687C14.1625 15.5375 13.8875 15.6062 13.3375 15.675C12.7187 15.675 12.5812 15.675 11 15.675C9.4187 15.675 9.2812 15.675 8.66245 15.675C8.11245 15.675 7.83745 15.5375 7.6312 15.4687C7.3562 15.3312 7.14995 15.2625 6.9437 15.0562C6.73745 14.85 6.59995 14.6437 6.5312 14.3687C6.46245 14.1625 6.3937 13.8875 6.32495 13.3375C6.32495 12.7187 6.32495 12.5812 6.32495 11C6.32495 9.4187 6.32495 9.2812 6.32495 8.66245C6.32495 8.11245 6.46245 7.83745 6.5312 7.6312C6.6687 7.3562 6.73745 7.14995 6.9437 6.9437C7.14995 6.73745 7.3562 6.59995 7.6312 6.5312C7.83745 6.46245 8.11245 6.3937 8.66245 6.32495C9.2812 6.32495 9.48745 6.32495 11 6.32495ZM11 5.2937C9.4187 5.2937 9.2812 5.2937 8.66245 5.2937C8.0437 5.2937 7.6312 5.4312 7.28745 5.5687C6.9437 5.7062 6.59995 5.91245 6.2562 6.2562C5.91245 6.59995 5.77495 6.87495 5.5687 7.28745C5.4312 7.6312 5.36245 8.0437 5.2937 8.66245C5.2937 9.2812 5.2937 9.48745 5.2937 11C5.2937 12.5812 5.2937 12.7187 5.2937 13.3375C5.2937 13.9562 5.4312 14.3687 5.5687 14.7125C5.7062 15.0562 5.91245 15.4 6.2562 15.7437C6.59995 16.0875 6.87495 16.225 7.28745 16.4312C7.6312 16.5687 8.0437 16.6375 8.66245 16.7062C9.2812 16.7062 9.48745 16.7062 11 16.7062C12.5125 16.7062 12.7187 16.7062 13.3375 16.7062C13.9562 16.7062 14.3687 16.5687 14.7125 16.4312C15.0562 16.2937 15.4 16.0875 15.7437 15.7437C16.0875 15.4 16.225 15.125 16.4312 14.7125C16.5687 14.3687 16.6375 13.9562 16.7062 13.3375C16.7062 12.7187 16.7062 12.5125 16.7062 11C16.7062 9.48745 16.7062 9.2812 16.7062 8.66245C16.7062 8.0437 16.5687 7.6312 16.4312 7.28745C16.2937 6.9437 16.0875 6.59995 15.7437 6.2562C15.4 5.91245 15.125 5.77495 14.7125 5.5687C14.3687 5.4312 13.9562 5.36245 13.3375 5.2937C12.7187 5.2937 12.5812 5.2937 11 5.2937Z" fill="white"/>
<path d="M11 8.0437C9.34995 8.0437 8.0437 9.34995 8.0437 11C8.0437 12.65 9.34995 13.9562 11 13.9562C12.65 13.9562 13.9562 12.65 13.9562 11C13.9562 9.34995 12.65 8.0437 11 8.0437ZM11 12.925C9.9687 12.925 9.07495 12.1 9.07495 11C9.07495 9.9687 9.89995 9.07495 11 9.07495C12.0312 9.07495 12.925 9.89995 12.925 11C12.925 12.0312 12.0312 12.925 11 12.925Z" fill="white"/>
<path d="M14.025 8.66245C14.4046 8.66245 14.7125 8.35465 14.7125 7.97495C14.7125 7.59526 14.4046 7.28745 14.025 7.28745C13.6453 7.28745 13.3375 7.59526 13.3375 7.97495C13.3375 8.35465 13.6453 8.66245 14.025 8.66245Z" fill="white"/>
</g>
</g>
</svg>
