<svg width="22" height="22" viewBox="0 0 22 22" fill="none" xmlns="http://www.w3.org/2000/svg">
<g clip-path="url(#clip0_416_479501)">
<path d="M13.5246 6.33896H8.47519C8.19464 6.33895 7.91684 6.39421 7.65765 6.50157C7.39845 6.60892 7.16295 6.76628 6.96457 6.96466C6.76619 7.16304 6.60883 7.39855 6.50147 7.65774C6.39412 7.91693 6.33886 8.19473 6.33887 8.47528V13.5247C6.33887 14.0913 6.56394 14.6347 6.96458 15.0353C7.16296 15.2337 7.39846 15.3911 7.65765 15.4984C7.91684 15.6058 8.19464 15.661 8.47519 15.661H13.5246C14.0912 15.661 14.6346 15.4359 15.0352 15.0353C15.4358 14.6347 15.6609 14.0913 15.6609 13.5247V8.47528C15.6609 8.19474 15.6056 7.91694 15.4983 7.65775C15.3909 7.39856 15.2336 7.16305 15.0352 6.96468C14.8368 6.7663 14.6013 6.60894 14.3421 6.50158C14.083 6.39422 13.8052 6.33896 13.5246 6.33896ZM10.9999 13.9387C10.4187 13.9387 9.85052 13.7663 9.36726 13.4434C8.884 13.1205 8.50734 12.6615 8.28492 12.1246C8.0625 11.5876 8.0043 10.9967 8.11769 10.4267C8.23108 9.85664 8.51096 9.33302 8.92194 8.92204C9.33293 8.51106 9.85655 8.23117 10.4266 8.11778C10.9966 8.00439 11.5875 8.06259 12.1245 8.28501C12.6615 8.50743 13.1204 8.88409 13.4433 9.36735C13.7662 9.85062 13.9386 10.4188 13.9386 11C13.9386 11.3859 13.8626 11.768 13.7149 12.1246C13.5672 12.4811 13.3507 12.8051 13.0779 13.078C12.805 13.3508 12.481 13.5673 12.1245 13.715C11.7679 13.8627 11.3858 13.9387 10.9999 13.9387V13.9387ZM14.0611 8.66163C13.9228 8.66164 13.7876 8.62065 13.6726 8.54383C13.5577 8.46701 13.468 8.35782 13.4151 8.23007C13.3622 8.10232 13.3484 7.96174 13.3753 7.82612C13.4023 7.6905 13.4689 7.56592 13.5667 7.46814C13.6644 7.37035 13.789 7.30376 13.9246 7.27678C14.0602 7.2498 14.2008 7.26365 14.3286 7.31656C14.4563 7.36948 14.5655 7.45909 14.6424 7.57406C14.7192 7.68904 14.7602 7.82421 14.7602 7.96249C14.7602 8.14791 14.6865 8.32573 14.5554 8.45684C14.4243 8.58796 14.2465 8.66162 14.0611 8.66163V8.66163Z" fill="url(#paint0_linear_416_479501)"/>
<path d="M11 9.08981C10.6222 9.08981 10.2529 9.20184 9.93878 9.41174C9.62466 9.62163 9.37983 9.91996 9.23525 10.269C9.09067 10.618 9.05284 11.0021 9.12655 11.3726C9.20025 11.7432 9.38218 12.0835 9.64932 12.3507C9.91647 12.6178 10.2568 12.7998 10.6274 12.8735C10.9979 12.9472 11.382 12.9093 11.731 12.7648C12.0801 12.6202 12.3784 12.3754 12.5883 12.0612C12.7982 11.7471 12.9102 11.3778 12.9102 11C12.9102 10.4934 12.7089 10.0075 12.3507 9.64929C11.9925 9.29106 11.5066 9.08981 11 9.08981V9.08981Z" fill="url(#paint1_linear_416_479501)"/>
<path d="M11 0C4.92486 0 0 4.92486 0 11C0 17.0751 4.92486 22 11 22C17.0751 22 22 17.0751 22 11C22 4.92486 17.0751 0 11 0ZM16.7292 13.4277C16.7291 14.3033 16.3813 15.143 15.7622 15.7622C15.143 16.3813 14.3033 16.7291 13.4277 16.7292H8.57227C7.69668 16.7291 6.85697 16.3813 6.23783 15.7622C5.6187 15.143 5.27085 14.3033 5.2708 13.4277V8.57227C5.27084 7.69668 5.61868 6.85696 6.23782 6.23783C6.85696 5.6187 7.69668 5.27087 8.57227 5.27085H13.4277C14.3033 5.27088 15.143 5.61872 15.7622 6.23785C16.3813 6.85698 16.7291 7.69669 16.7292 8.57227V13.4277Z" fill="url(#paint2_linear_416_479501)"/>
</g>
<defs>
<linearGradient id="paint0_linear_416_479501" x1="0.343652" y1="21.6562" x2="21.7561" y2="0.243843" gradientUnits="userSpaceOnUse">
<stop stop-color="#FFCB52"/>
<stop offset="0.318" stop-color="#FF6341"/>
<stop offset="0.658" stop-color="#CD39A2"/>
<stop offset="1" stop-color="#515BCA"/>
</linearGradient>
<linearGradient id="paint1_linear_416_479501" x1="0.343771" y1="21.6562" x2="21.7562" y2="0.243837" gradientUnits="userSpaceOnUse">
<stop stop-color="#FFCB52"/>
<stop offset="0.318" stop-color="#FF6341"/>
<stop offset="0.658" stop-color="#CD39A2"/>
<stop offset="1" stop-color="#515BCA"/>
</linearGradient>
<linearGradient id="paint2_linear_416_479501" x1="0.34375" y1="21.6562" x2="21.7562" y2="0.243848" gradientUnits="userSpaceOnUse">
<stop stop-color="#FFCB52"/>
<stop offset="0.318" stop-color="#FF6341"/>
<stop offset="0.658" stop-color="#CD39A2"/>
<stop offset="1" stop-color="#515BCA"/>
</linearGradient>
<clipPath id="clip0_416_479501">
<rect width="22" height="22" fill="white"/>
</clipPath>
</defs>
</svg>
