<svg width="120" height="120" viewBox="0 0 120 120" fill="none" xmlns="http://www.w3.org/2000/svg">
<g clip-path="url(#clip0_5_17167)">
<path fill-rule="evenodd" clip-rule="evenodd" d="M99.2278 27.9722C99.2278 31.9491 96.0038 35.1722 92.0278 35.1722C88.0519 35.1722 84.8278 31.9491 84.8278 27.9722C84.8278 23.9953 88.0519 20.7722 92.0278 20.7722C96.0047 20.7722 99.2278 23.9953 99.2278 27.9722ZM60 79.9997C48.9544 79.9997 40.0003 71.0456 40.0003 60C40.0003 48.9544 48.9544 40.0003 60 40.0003C71.0456 40.0003 79.9997 48.9544 79.9997 60C79.9997 71.0456 71.0456 79.9997 60 79.9997ZM60 29.1891C42.9834 29.1891 29.1891 42.9834 29.1891 60C29.1891 77.0166 42.9834 90.8109 60 90.8109C77.0166 90.8109 90.8109 77.0166 90.8109 60C90.8109 42.9834 77.0166 29.1891 60 29.1891ZM60 10.8112C76.0209 10.8112 77.9184 10.8722 84.2447 11.1609C90.0947 11.4281 93.2719 12.405 95.3859 13.2272C98.1862 14.3156 100.185 15.6159 102.285 17.7159C104.385 19.815 105.685 21.8138 106.774 24.615C107.595 26.7291 108.573 29.9062 108.84 35.7562C109.129 42.0834 109.19 43.9809 109.19 60.0019C109.19 76.0228 109.129 77.9203 108.84 84.2466C108.573 90.0966 107.596 93.2738 106.774 95.3878C105.685 98.1881 104.385 100.187 102.285 102.287C100.186 104.387 98.1872 105.687 95.3859 106.776C93.2719 107.597 90.0947 108.575 84.2447 108.842C77.9184 109.131 76.0209 109.192 60 109.192C43.9781 109.192 42.0806 109.131 35.7544 108.842C29.9044 108.575 26.7272 107.598 24.6131 106.776C21.8128 105.687 19.8141 104.387 17.7141 102.287C15.615 100.188 14.3138 98.1891 13.2253 95.3878C12.4041 93.2738 11.4262 90.0966 11.1591 84.2466C10.8703 77.9194 10.8094 76.0219 10.8094 60.0019C10.8094 43.9809 10.8703 42.0834 11.1591 35.7562C11.4262 29.9062 12.4031 26.7291 13.2253 24.615C14.3138 21.8147 15.6141 19.8159 17.7141 17.7159C19.8131 15.6159 21.8119 14.3156 24.6131 13.2272C26.7272 12.4059 29.9044 11.4281 35.7544 11.1609C42.0816 10.8722 43.9791 10.8112 60 10.8112ZM60 0C43.7053 0 41.6616 0.069375 35.2622 0.360937C28.8759 0.6525 24.5138 1.66687 20.6981 3.15C16.7522 4.68281 13.4062 6.735 10.0706 10.0706C6.735 13.4062 4.68281 16.7522 3.15 20.6981C1.66687 24.5147 0.6525 28.8759 0.360937 35.2622C0.069375 41.6616 0 43.7053 0 60C0 76.2947 0.069375 78.3384 0.360937 84.7378C0.6525 91.1241 1.66687 95.4853 3.15 99.3019C4.68281 103.248 6.735 106.594 10.0706 109.929C13.4062 113.265 16.7522 115.316 20.6981 116.85C24.5147 118.333 28.8759 119.347 35.2622 119.639C41.6616 119.931 43.7053 120 60 120C76.2947 120 78.3384 119.931 84.7378 119.639C91.1241 119.347 95.4853 118.333 99.3019 116.85C103.248 115.316 106.594 113.265 109.929 109.929C113.265 106.594 115.316 103.248 116.85 99.3019C118.333 95.4853 119.347 91.1241 119.639 84.7378C119.931 78.3384 120 76.2947 120 60C120 43.7053 119.931 41.6616 119.639 35.2622C119.347 28.8759 118.333 24.5147 116.85 20.6981C115.316 16.7522 113.265 13.4062 109.929 10.0706C106.594 6.735 103.248 4.68375 99.3019 3.15C95.4853 1.66687 91.1241 0.6525 84.7378 0.360937C78.3384 0.069375 76.2947 0 60 0Z" fill="#FCE4EB"/>
</g>
<defs>
<clipPath id="clip0_5_17167">
<rect width="120" height="120" fill="white"/>
</clipPath>
</defs>
</svg>
