<svg width="18" height="18" viewBox="0 0 18 18" fill="none" xmlns="http://www.w3.org/2000/svg">
<path d="M9.002 4.39408C6.45247 4.39408 4.39603 6.45056 4.39603 9.00001C4.39603 11.5495 6.45247 13.6059 9.002 13.6059C11.5515 13.6059 13.6079 11.5495 13.6079 9.00001C13.6079 6.45056 11.5515 4.39408 9.002 4.39408ZM9.002 11.9945C7.35446 11.9945 6.00751 10.6515 6.00751 9.00001C6.00751 7.34849 7.3504 6.0056 9.002 6.0056C10.6534 6.0056 11.9964 7.34849 11.9964 9.00001C11.9964 10.6515 10.6495 11.9945 9.002 11.9945ZM14.8706 4.20572C14.8706 4.80302 14.3895 5.28001 13.7963 5.28001C13.199 5.28001 12.722 4.799 12.722 4.20572C12.722 3.61244 13.203 3.13138 13.7963 3.13138C14.3895 3.13138 14.8706 3.6124 14.8706 4.20572ZM17.9211 5.29599C17.8531 3.85697 17.5243 2.58216 16.47 1.53193C15.4198 0.481655 14.145 0.152944 12.706 0.080835C11.2227 -0.00334472 6.7772 -0.00334472 5.29399 0.080835C3.85888 0.148921 2.58415 0.477671 1.52989 1.52794C0.475596 2.57822 0.150908 3.85294 0.0787598 5.29201C-0.00541992 6.77517 -0.00541992 11.2208 0.0787598 12.704C0.146924 14.1431 0.475596 15.4178 1.52989 16.4681C2.58415 17.5184 3.85493 17.847 5.29399 17.9192C6.77716 18.0033 11.2227 18.0033 12.706 17.9192C14.1451 17.8511 15.4199 17.5223 16.47 16.4681C17.5203 15.4177 17.849 14.1431 17.9211 12.704C18.0054 11.2208 18.0054 6.77919 17.9211 5.29599ZM16.005 14.2954C15.6924 15.0811 15.087 15.6865 14.2974 16.0031C13.1148 16.4722 10.3088 16.3639 9.00196 16.3639C7.69509 16.3639 4.88505 16.4681 3.70653 16.0031C2.92083 15.6904 2.31548 15.0852 1.99884 14.2954C1.52989 13.1129 1.63817 10.3069 1.63817 9.00001C1.63817 7.69318 1.53392 4.88318 1.99888 3.70462C2.31161 2.91892 2.91685 2.31361 3.70657 1.99697C4.88911 1.52794 7.69513 1.63619 9.002 1.63619C10.3088 1.63619 13.1188 1.53197 14.2974 1.99697C15.0831 2.30955 15.6884 2.91494 16.005 3.70462C16.4741 4.88712 16.3659 7.69318 16.3659 9.00001C16.3659 10.3069 16.474 13.1169 16.005 14.2954Z" fill="url(#paint0_linear_314_2673)"/>
<defs>
<linearGradient id="paint0_linear_314_2673" x1="1.90425" y1="2.27062" x2="14.3841" y2="14.106" gradientUnits="userSpaceOnUse">
<stop stop-color="#FEC053"/>
<stop offset="0.3273" stop-color="#F2203E"/>
<stop offset="0.6485" stop-color="#B729A8"/>
<stop offset="1" stop-color="#5342D6"/>
</linearGradient>
</defs>
</svg>
