<svg width="15" height="15" viewBox="0 0 15 15" fill="none" xmlns="http://www.w3.org/2000/svg">
<path d="M10.7812 0H4.21875C1.875 0 0 1.875 0 4.21875V7.03125V10.7812C0 13.125 1.875 15 4.21875 15H10.7812C13.125 15 15 13.125 15 10.7812V7.03125V4.21875C15 1.875 13.125 0 10.7812 0ZM7.5 4.6875C9.04688 4.6875 10.3125 5.95312 10.3125 7.5C10.3125 9.04688 9.04688 10.3125 7.5 10.3125C5.95312 10.3125 4.6875 9.04688 4.6875 7.5C4.6875 5.95312 5.95312 4.6875 7.5 4.6875ZM10.3125 3.28125C10.3125 2.76562 10.7344 2.34375 11.25 2.34375C11.7656 2.34375 12.1875 2.76562 12.1875 3.28125C12.1875 3.79688 11.7656 4.21875 11.25 4.21875C10.7344 4.21875 10.3125 3.79688 10.3125 3.28125Z" fill="#8190B7"/>
</svg>
