<svg width="30" height="29" viewBox="0 0 30 29" fill="none" xmlns="http://www.w3.org/2000/svg">
<rect x="9" width="21" height="21" rx="10.5" fill="#F7E8FF"/>
<g clip-path="url(#clip0_416_479499)">
<path d="M13.5246 13.339H8.47519C8.19464 13.339 7.91684 13.3942 7.65765 13.5016C7.39845 13.6089 7.16295 13.7663 6.96457 13.9647C6.76619 14.163 6.60883 14.3985 6.50147 14.6577C6.39412 14.9169 6.33886 15.1947 6.33887 15.4753V20.5247C6.33887 21.0913 6.56394 21.6347 6.96458 22.0353C7.16296 22.2337 7.39846 22.3911 7.65765 22.4984C7.91684 22.6058 8.19464 22.661 8.47519 22.661H13.5246C14.0912 22.661 14.6346 22.4359 15.0352 22.0353C15.4358 21.6347 15.6609 21.0913 15.6609 20.5247V15.4753C15.6609 15.1947 15.6056 14.9169 15.4983 14.6577C15.3909 14.3986 15.2336 14.1631 15.0352 13.9647C14.8368 13.7663 14.6013 13.6089 14.3421 13.5016C14.083 13.3942 13.8052 13.339 13.5246 13.339ZM10.9999 20.9387C10.4187 20.9387 9.85052 20.7663 9.36726 20.4434C8.884 20.1205 8.50734 19.6615 8.28492 19.1246C8.0625 18.5876 8.0043 17.9967 8.11769 17.4267C8.23108 16.8566 8.51096 16.333 8.92194 15.922C9.33293 15.5111 9.85655 15.2312 10.4266 15.1178C10.9966 15.0044 11.5875 15.0626 12.1245 15.285C12.6615 15.5074 13.1204 15.8841 13.4433 16.3674C13.7662 16.8506 13.9386 17.4188 13.9386 18C13.9386 18.3859 13.8626 18.768 13.7149 19.1246C13.5672 19.4811 13.3507 19.8051 13.0779 20.078C12.805 20.3508 12.481 20.5673 12.1245 20.715C11.7679 20.8627 11.3858 20.9387 10.9999 20.9387V20.9387ZM14.0611 15.6616C13.9228 15.6616 13.7876 15.6206 13.6726 15.5438C13.5577 15.467 13.468 15.3578 13.4151 15.2301C13.3622 15.1023 13.3484 14.9617 13.3753 14.8261C13.4023 14.6905 13.4689 14.5659 13.5667 14.4681C13.6644 14.3704 13.789 14.3038 13.9246 14.2768C14.0602 14.2498 14.2008 14.2636 14.3286 14.3166C14.4563 14.3695 14.5655 14.4591 14.6424 14.5741C14.7192 14.689 14.7602 14.8242 14.7602 14.9625C14.7602 15.1479 14.6865 15.3257 14.5554 15.4568C14.4243 15.588 14.2465 15.6616 14.0611 15.6616V15.6616Z" fill="url(#paint0_linear_416_479499)"/>
<path d="M11 16.0898C10.6222 16.0898 10.2529 16.2018 9.93878 16.4117C9.62466 16.6216 9.37983 16.92 9.23525 17.269C9.09067 17.618 9.05284 18.0021 9.12655 18.3726C9.20025 18.7432 9.38218 19.0835 9.64932 19.3507C9.91647 19.6178 10.2568 19.7998 10.6274 19.8735C10.9979 19.9472 11.382 19.9093 11.731 19.7648C12.0801 19.6202 12.3784 19.3754 12.5883 19.0612C12.7982 18.7471 12.9102 18.3778 12.9102 18C12.9102 17.4934 12.7089 17.0075 12.3507 16.6493C11.9925 16.2911 11.5066 16.0898 11 16.0898V16.0898Z" fill="url(#paint1_linear_416_479499)"/>
<path d="M11 7C4.92486 7 0 11.9249 0 18C0 24.0751 4.92486 29 11 29C17.0751 29 22 24.0751 22 18C22 11.9249 17.0751 7 11 7ZM16.7292 20.4277C16.7291 21.3033 16.3813 22.143 15.7622 22.7622C15.143 23.3813 14.3033 23.7291 13.4277 23.7292H8.57227C7.69668 23.7291 6.85697 23.3813 6.23783 22.7622C5.6187 22.143 5.27085 21.3033 5.2708 20.4277V15.5723C5.27084 14.6967 5.61868 13.857 6.23782 13.2378C6.85696 12.6187 7.69668 12.2709 8.57227 12.2708H13.4277C14.3033 12.2709 15.143 12.6187 15.7622 13.2378C16.3813 13.857 16.7291 14.6967 16.7292 15.5723V20.4277Z" fill="url(#paint2_linear_416_479499)"/>
</g>
<defs>
<linearGradient id="paint0_linear_416_479499" x1="0.343652" y1="28.6562" x2="21.7561" y2="7.24384" gradientUnits="userSpaceOnUse">
<stop stop-color="#FFCB52"/>
<stop offset="0.318" stop-color="#FF6341"/>
<stop offset="0.658" stop-color="#CD39A2"/>
<stop offset="1" stop-color="#515BCA"/>
</linearGradient>
<linearGradient id="paint1_linear_416_479499" x1="0.343771" y1="28.6562" x2="21.7562" y2="7.24384" gradientUnits="userSpaceOnUse">
<stop stop-color="#FFCB52"/>
<stop offset="0.318" stop-color="#FF6341"/>
<stop offset="0.658" stop-color="#CD39A2"/>
<stop offset="1" stop-color="#515BCA"/>
</linearGradient>
<linearGradient id="paint2_linear_416_479499" x1="0.34375" y1="28.6562" x2="21.7562" y2="7.24385" gradientUnits="userSpaceOnUse">
<stop stop-color="#FFCB52"/>
<stop offset="0.318" stop-color="#FF6341"/>
<stop offset="0.658" stop-color="#CD39A2"/>
<stop offset="1" stop-color="#515BCA"/>
</linearGradient>
<clipPath id="clip0_416_479499">
<rect width="22" height="22" fill="white" transform="translate(0 7)"/>
</clipPath>
</defs>
</svg>
