<svg width="18" height="19" viewBox="0 0 18 19" fill="none" xmlns="http://www.w3.org/2000/svg">
<g id="integration 1" clip-path="url(#clip0_301_2385)">
<g id="Group">
<g id="Page-1_19_">
<g id="web_export_19_">
<path id="integration_x2C_-blocks_x2C_-elements_x2C_-external_x2C_-code_x2C_-development" d="M9.52942 8.69763H13.2353C13.5277 8.69763 13.7647 8.93466 13.7647 9.22705V13.4624C13.7647 13.7548 13.5277 13.9918 13.2353 13.9918H4.76469C4.4723 13.9918 4.23527 13.7548 4.23527 13.4624V4.99174C4.23527 4.69935 4.4723 4.46232 4.76469 4.46232H9C9.29239 4.46232 9.52942 4.69935 9.52942 4.99174V8.69763ZM5.29411 12.9329H8.47058V9.75647H5.29411V12.9329ZM5.29411 5.52116V8.69763H8.47058V5.52116H5.29411ZM9.52942 12.9329H12.7059V9.75647H9.52942V12.9329ZM13.2353 0.227051H17.4706C17.763 0.227051 18 0.464074 18 0.756468V4.99178C18 5.28417 17.763 5.52119 17.4706 5.52119H13.2353C12.9429 5.52119 12.7059 5.28417 12.7059 4.99178V0.756468C12.7059 0.464074 12.9429 0.227051 13.2353 0.227051ZM13.7647 1.28589V4.46236H16.9412V1.28589H13.7647ZM16.9412 8.16822C16.9412 7.87582 17.1782 7.6388 17.4706 7.6388C17.763 7.6388 18 7.87582 18 8.16822V16.1094C18 17.2789 17.0519 18.227 15.8824 18.227H2.11764C0.948093 18.2271 0 17.279 0 16.1094V2.34469C0 1.17514 0.948093 0.227051 2.11764 0.227051H10.0588C10.3512 0.227051 10.5882 0.464074 10.5882 0.756468C10.5882 1.04886 10.3512 1.28589 10.0588 1.28589H2.11764C1.53285 1.28589 1.0588 1.75993 1.0588 2.34472V16.1094C1.0588 16.6942 1.53285 17.1682 2.11764 17.1682H15.8823C16.4671 17.1682 16.9412 16.6942 16.9412 16.1094V8.16822Z" fill="url(#paint0_linear_301_2385)"/>
</g>
</g>
</g>
</g>
<defs>
<linearGradient id="paint0_linear_301_2385" x1="9.00002" y1="0.227051" x2="9.00002" y2="18.227" gradientUnits="userSpaceOnUse">
<stop stop-color="#000AFF"/>
<stop offset="1" stop-color="#D274FF"/>
</linearGradient>
<clipPath id="clip0_301_2385">
<rect width="18" height="18" fill="white" transform="translate(0 0.227051)"/>
</clipPath>
</defs>
</svg>
