<svg width="37" height="38" viewBox="0 0 37 38" fill="none" xmlns="http://www.w3.org/2000/svg">
<path d="M28.0664 6.3565C27.6145 6.14837 27.0821 6.2293 26.7125 6.56223L24.9578 8.11594L22.5705 5.98045C22.0908 5.55079 21.3647 5.55079 20.8851 5.98045L18.4998 8.11392L16.1138 5.98045C15.6341 5.55079 14.9079 5.55079 14.4282 5.98045L12.0402 8.11594L10.2839 6.5623C9.76565 6.10165 8.97208 6.14837 8.51143 6.66661C8.3052 6.89864 8.19222 7.19889 8.19437 7.50932V30.8071C8.19026 31.5015 8.74985 32.0677 9.44423 32.0718C9.75472 32.0736 10.055 31.9605 10.2871 31.7542L12.0418 30.2005L14.4291 32.336C14.9087 32.7656 15.6348 32.7656 16.1144 32.336L18.4998 30.2022L20.8855 32.3357C21.3652 32.7653 22.0914 32.7653 22.5711 32.3357L24.9591 30.2003L26.7154 31.7539C27.2336 32.2147 28.0272 32.1682 28.4879 31.65C28.6943 31.4179 28.8073 31.1175 28.8051 30.8068V7.50932C28.8114 7.01194 28.5209 6.55863 28.0664 6.3565ZM25.7942 29.2532C25.3145 28.8283 24.5925 28.8302 24.1151 29.2577L21.7279 31.3931L19.3425 29.2596C18.8628 28.83 18.1366 28.83 17.6569 29.2596L15.2713 31.3931L12.883 29.2577C12.4074 28.8302 11.6867 28.8283 11.2088 29.2531L9.45883 30.8064V27.4363L9.45251 7.50963L11.2053 9.06297C11.685 9.48789 12.407 9.48599 12.8844 9.05848L15.2716 6.92305L17.6571 9.05652C18.1367 9.48618 18.8629 9.48618 19.3426 9.05652L21.7283 6.92305L24.1165 9.05848C24.5921 9.48593 25.3128 9.48789 25.7907 9.06303L27.5407 7.50932V23.5245L27.547 30.8065L25.7942 29.2532Z" fill="url(#paint0_linear_47_51239)"/>
<path d="M24.4935 18.5259H12.5072C12.1581 18.5259 11.875 18.8089 11.875 19.1581C11.875 19.5073 12.1581 19.7903 12.5072 19.7903H24.4935C24.8427 19.7903 25.1257 19.5073 25.1257 19.1581C25.1257 18.8089 24.8426 18.5259 24.4935 18.5259Z" fill="url(#paint1_linear_47_51239)"/>
<path d="M18.8034 14.7324H12.5072C12.1581 14.7324 11.875 15.0155 11.875 15.3647C11.875 15.7138 12.1581 15.9969 12.5072 15.9969H18.8034C19.1526 15.9969 19.4356 15.7138 19.4356 15.3647C19.4356 15.0155 19.1525 14.7324 18.8034 14.7324Z" fill="url(#paint2_linear_47_51239)"/>
<path d="M24.4935 22.3193H12.5072C12.1581 22.3193 11.875 22.6024 11.875 22.9516C11.875 23.3008 12.1581 23.5838 12.5072 23.5838H24.4935C24.8427 23.5838 25.1257 23.3008 25.1257 22.9516C25.1257 22.6024 24.8426 22.3193 24.4935 22.3193Z" fill="url(#paint3_linear_47_51239)"/>
<defs>
<linearGradient id="paint0_linear_47_51239" x1="18.4998" y1="5.6582" x2="18.4998" y2="32.6582" gradientUnits="userSpaceOnUse">
<stop stop-color="#000AFF"/>
<stop offset="1" stop-color="#D274FF"/>
</linearGradient>
<linearGradient id="paint1_linear_47_51239" x1="18.5004" y1="18.5259" x2="18.5004" y2="19.7903" gradientUnits="userSpaceOnUse">
<stop stop-color="#000AFF"/>
<stop offset="1" stop-color="#D274FF"/>
</linearGradient>
<linearGradient id="paint2_linear_47_51239" x1="15.6553" y1="14.7324" x2="15.6553" y2="15.9969" gradientUnits="userSpaceOnUse">
<stop stop-color="#000AFF"/>
<stop offset="1" stop-color="#D274FF"/>
</linearGradient>
<linearGradient id="paint3_linear_47_51239" x1="18.5004" y1="22.3193" x2="18.5004" y2="23.5838" gradientUnits="userSpaceOnUse">
<stop stop-color="#000AFF"/>
<stop offset="1" stop-color="#D274FF"/>
</linearGradient>
</defs>
</svg>
