<svg width="21" height="28" viewBox="0 0 21 28" fill="none" xmlns="http://www.w3.org/2000/svg">
<path d="M20.0664 1.3565C19.6145 1.14837 19.0821 1.2293 18.7125 1.56223L16.9578 3.11594L14.5705 0.980452C14.0908 0.550787 13.3647 0.550787 12.8851 0.980452L10.4998 3.11392L8.11384 0.980452C7.6341 0.550787 6.90792 0.550787 6.42818 0.980452L4.04024 3.11594L2.2839 1.5623C1.76565 1.10165 0.972075 1.14837 0.511431 1.66661C0.305196 1.89864 0.192216 2.19889 0.194366 2.50932V25.8071C0.190257 26.5015 0.749845 27.0677 1.44423 27.0718C1.75472 27.0736 2.05496 26.9605 2.28706 26.7542L4.04175 25.2005L6.42906 27.336C6.90868 27.7656 7.6348 27.7656 8.11441 27.336L10.4998 25.2022L12.8855 27.3357C13.3652 27.7653 14.0914 27.7653 14.5711 27.3357L16.9591 25.2003L18.7154 26.7539C19.2336 27.2147 20.0272 27.1682 20.4879 26.65C20.6943 26.4179 20.8073 26.1175 20.8051 25.8068V2.50932C20.8114 2.01194 20.5209 1.55863 20.0664 1.3565ZM17.7942 24.2532C17.3145 23.8283 16.5925 23.8302 16.1151 24.2577L13.7279 26.3931L11.3425 24.2596C10.8628 23.83 10.1366 23.83 9.65693 24.2596L7.27126 26.3931L4.883 24.2577C4.40744 23.8302 3.68669 23.8283 3.20879 24.2531L1.45883 25.8064V22.4363L1.45251 2.50963L3.20531 4.06297C3.68499 4.48789 4.40699 4.48599 4.88439 4.05848L7.27164 1.92305L9.65705 4.05652C10.1367 4.48618 10.8629 4.48618 11.3426 4.05652L13.7283 1.92305L16.1165 4.05848C16.5921 4.48593 17.3128 4.48789 17.7907 4.06303L19.5407 2.50932V18.5245L19.547 25.8065L17.7942 24.2532Z" fill="url(#paint0_linear_47_51240)"/>
<path d="M16.4935 13.5259H4.50723C4.15805 13.5259 3.875 13.8089 3.875 14.1581C3.875 14.5073 4.15805 14.7903 4.50723 14.7903H16.4935C16.8427 14.7903 17.1257 14.5073 17.1257 14.1581C17.1257 13.8089 16.8426 13.5259 16.4935 13.5259Z" fill="url(#paint1_linear_47_51240)"/>
<path d="M10.8034 9.73242H4.50723C4.15805 9.73242 3.875 10.0155 3.875 10.3647C3.875 10.7138 4.15805 10.9969 4.50723 10.9969H10.8034C11.1526 10.9969 11.4356 10.7138 11.4356 10.3647C11.4356 10.0155 11.1525 9.73242 10.8034 9.73242Z" fill="url(#paint2_linear_47_51240)"/>
<path d="M16.4935 17.3193H4.50723C4.15805 17.3193 3.875 17.6024 3.875 17.9516C3.875 18.3008 4.15805 18.5838 4.50723 18.5838H16.4935C16.8427 18.5838 17.1257 18.3008 17.1257 17.9516C17.1257 17.6024 16.8426 17.3193 16.4935 17.3193Z" fill="url(#paint3_linear_47_51240)"/>
<defs>
<linearGradient id="paint0_linear_47_51240" x1="10.4998" y1="0.658203" x2="10.4998" y2="27.6582" gradientUnits="userSpaceOnUse">
<stop stop-color="#000AFF"/>
<stop offset="1" stop-color="#D274FF"/>
</linearGradient>
<linearGradient id="paint1_linear_47_51240" x1="10.5004" y1="13.5259" x2="10.5004" y2="14.7903" gradientUnits="userSpaceOnUse">
<stop stop-color="#000AFF"/>
<stop offset="1" stop-color="#D274FF"/>
</linearGradient>
<linearGradient id="paint2_linear_47_51240" x1="7.65531" y1="9.73242" x2="7.65531" y2="10.9969" gradientUnits="userSpaceOnUse">
<stop stop-color="#000AFF"/>
<stop offset="1" stop-color="#D274FF"/>
</linearGradient>
<linearGradient id="paint3_linear_47_51240" x1="10.5004" y1="17.3193" x2="10.5004" y2="18.5838" gradientUnits="userSpaceOnUse">
<stop stop-color="#000AFF"/>
<stop offset="1" stop-color="#D274FF"/>
</linearGradient>
</defs>
</svg>
