<svg width="19" height="19" viewBox="0 0 19 19" fill="none" xmlns="http://www.w3.org/2000/svg">
<path fill-rule="evenodd" clip-rule="evenodd" d="M2.68867 3.70576L5.60586 0.788574L6.62539 1.80811L2.67734 5.75615L0.193359 3.27256L1.22461 2.24131L2.68867 3.70576ZM18.8824 4.02061H7.94766V2.47021H18.8824V4.02061Z" fill="url(#paint0_linear_180_831403)"/>
<path fill-rule="evenodd" clip-rule="evenodd" d="M2.68867 3.70576L5.60586 0.788574L6.62539 1.80811L2.67734 5.75615L0.193359 3.27256L1.22461 2.24131L2.68867 3.70576ZM18.8824 4.02061H7.94766V2.47021H18.8824V4.02061Z" fill="url(#paint1_linear_180_831403)"/>
<path fill-rule="evenodd" clip-rule="evenodd" d="M2.68867 16.2058L5.60586 13.2886L6.62539 14.3081L2.67734 18.2562L0.193359 15.7726L1.22461 14.7413L2.68867 16.2058ZM18.8824 16.5206H7.94766V14.9702H18.8824V16.5206Z" fill="url(#paint2_linear_180_831403)"/>
<path fill-rule="evenodd" clip-rule="evenodd" d="M2.68867 16.2058L5.60586 13.2886L6.62539 14.3081L2.67734 18.2562L0.193359 15.7726L1.22461 14.7413L2.68867 16.2058ZM18.8824 16.5206H7.94766V14.9702H18.8824V16.5206Z" fill="url(#paint3_linear_180_831403)"/>
<path fill-rule="evenodd" clip-rule="evenodd" d="M2.68867 9.95576L5.60586 7.03857L6.62539 8.05811L2.67734 12.0062L0.193359 9.52256L1.22461 8.49131L2.68867 9.95576ZM18.8824 10.2706H7.94766V8.72022H18.8824V10.2706Z" fill="url(#paint4_linear_180_831403)"/>
<path fill-rule="evenodd" clip-rule="evenodd" d="M2.68867 9.95576L5.60586 7.03857L6.62539 8.05811L2.67734 12.0062L0.193359 9.52256L1.22461 8.49131L2.68867 9.95576ZM18.8824 10.2706H7.94766V8.72022H18.8824V10.2706Z" fill="url(#paint5_linear_180_831403)"/>
<defs>
<linearGradient id="paint0_linear_180_831403" x1="9.53789" y1="0.788574" x2="9.53789" y2="5.75615" gradientUnits="userSpaceOnUse">
<stop stop-color="#0033EA"/>
<stop offset="1" stop-color="#8A0074"/>
</linearGradient>
<linearGradient id="paint1_linear_180_831403" x1="9.53789" y1="0.788574" x2="9.53789" y2="5.75615" gradientUnits="userSpaceOnUse">
<stop stop-color="#0033EA"/>
<stop offset="1" stop-color="#8A0074"/>
</linearGradient>
<linearGradient id="paint2_linear_180_831403" x1="9.53789" y1="13.2886" x2="9.53789" y2="18.2562" gradientUnits="userSpaceOnUse">
<stop stop-color="#0033EA"/>
<stop offset="1" stop-color="#8A0074"/>
</linearGradient>
<linearGradient id="paint3_linear_180_831403" x1="9.53789" y1="13.2886" x2="9.53789" y2="18.2562" gradientUnits="userSpaceOnUse">
<stop stop-color="#0033EA"/>
<stop offset="1" stop-color="#8A0074"/>
</linearGradient>
<linearGradient id="paint4_linear_180_831403" x1="9.53789" y1="7.03857" x2="9.53789" y2="12.0062" gradientUnits="userSpaceOnUse">
<stop stop-color="#0033EA"/>
<stop offset="1" stop-color="#8A0074"/>
</linearGradient>
<linearGradient id="paint5_linear_180_831403" x1="9.53789" y1="7.03857" x2="9.53789" y2="12.0062" gradientUnits="userSpaceOnUse">
<stop stop-color="#0033EA"/>
<stop offset="1" stop-color="#8A0074"/>
</linearGradient>
</defs>
</svg>
