<svg width="20" height="20" viewBox="0 0 20 20" fill="none" xmlns="http://www.w3.org/2000/svg">
<g clip-path="url(#clip0_162_3239)">
<path fill-rule="evenodd" clip-rule="evenodd" d="M4.55094 5.36469L6.88469 3.03094L7.70031 3.84657L4.54188 7.00501L2.55469 5.01813L3.37969 4.19313L4.55094 5.36469ZM17.5059 5.61657H8.75812V4.37626H17.5059V5.61657Z" fill="#333333"/>
<path fill-rule="evenodd" clip-rule="evenodd" d="M4.55094 5.36469L6.88469 3.03094L7.70031 3.84657L4.54188 7.00501L2.55469 5.01813L3.37969 4.19313L4.55094 5.36469ZM17.5059 5.61657H8.75812V4.37626H17.5059V5.61657Z" fill="#333333"/>
<path fill-rule="evenodd" clip-rule="evenodd" d="M4.55094 15.3647L6.88469 13.0309L7.70031 13.8466L4.54188 17.005L2.55469 15.0181L3.37969 14.1931L4.55094 15.3647ZM17.5059 15.6166H8.75812V14.3763H17.5059V15.6166Z" fill="#333333"/>
<path fill-rule="evenodd" clip-rule="evenodd" d="M4.55094 15.3647L6.88469 13.0309L7.70031 13.8466L4.54188 17.005L2.55469 15.0181L3.37969 14.1931L4.55094 15.3647ZM17.5059 15.6166H8.75812V14.3763H17.5059V15.6166Z" fill="#333333"/>
<path fill-rule="evenodd" clip-rule="evenodd" d="M4.55094 10.3647L6.88469 8.03094L7.70031 8.84657L4.54188 12.005L2.55469 10.0181L3.37969 9.19313L4.55094 10.3647ZM17.5059 10.6166H8.75812V9.37626H17.5059V10.6166Z" fill="#333333"/>
<path fill-rule="evenodd" clip-rule="evenodd" d="M4.55094 10.3647L6.88469 8.03094L7.70031 8.84657L4.54188 12.005L2.55469 10.0181L3.37969 9.19313L4.55094 10.3647ZM17.5059 10.6166H8.75812V9.37626H17.5059V10.6166Z" fill="#333333"/>
</g>
<defs>
<clipPath id="clip0_162_3239">
<rect width="20" height="20" fill="white"/>
</clipPath>
</defs>
</svg>
