<svg width="20" height="21" viewBox="0 0 20 21" fill="none" xmlns="http://www.w3.org/2000/svg">
<path d="M5.625 13.625V16.125C5.625 16.4565 5.4933 16.7745 5.25888 17.0089C5.02446 17.2433 4.70652 17.375 4.375 17.375C4.04348 17.375 3.72554 17.2433 3.49112 17.0089C3.2567 16.7745 3.125 16.4565 3.125 16.125" stroke="#333333" stroke-width="1.2" stroke-linecap="round" stroke-linejoin="round"/>
<path d="M8.125 17.0625C8.4636 17.3151 8.87446 17.452 9.29688 17.4531C10 17.4531 10.625 17.2188 10.625 16.4375C10.625 15.1875 8.125 15.7344 8.125 14.5625C8.125 13.9375 8.59375 13.5469 9.29688 13.5469C9.71929 13.548 10.1301 13.6849 10.4688 13.9375" stroke="#333333" stroke-width="1.2" stroke-linecap="round" stroke-linejoin="round"/>
<path d="M11.875 3V7.375H16.25" stroke="#333333" stroke-width="1.2" stroke-linecap="round" stroke-linejoin="round"/>
<path d="M13.75 18H15.625C15.7908 18 15.9497 17.9342 16.0669 17.8169C16.1842 17.6997 16.25 17.5408 16.25 17.375V7.375L11.875 3H4.375C4.20924 3 4.05027 3.06585 3.93306 3.18306C3.81585 3.30027 3.75 3.45924 3.75 3.625V11.75" stroke="#333333" stroke-width="1.2" stroke-linecap="round" stroke-linejoin="round"/>
</svg>
