<svg width="31" height="32" viewBox="0 0 31 32" fill="none" xmlns="http://www.w3.org/2000/svg">
<rect x="16.6666" y="0.888672" width="14.1176" height="14.1176" rx="7.05882" fill="#F6DDEF"/>
<path fill-rule="evenodd" clip-rule="evenodd" d="M4.5 8.5625C4.5 8.45895 4.58395 8.375 4.6875 8.375H25.3125C25.4161 8.375 25.5 8.45895 25.5 8.5625V25.4375C25.5 25.5411 25.4161 25.625 25.3125 25.625H4.6875C4.58395 25.625 4.5 25.5411 4.5 25.4375V8.5625ZM4.6875 6.875C3.75552 6.875 3 7.63052 3 8.5625V25.4375C3 26.3695 3.75552 27.125 4.6875 27.125H25.3125C26.2445 27.125 27 26.3695 27 25.4375V8.5625C27 7.63052 26.2445 6.875 25.3125 6.875H4.6875ZM8.73048 16.0625C8.73048 14.9234 9.65389 14 10.793 14C11.9321 14 12.8555 14.9234 12.8555 16.0625C12.8555 17.1529 12.0093 18.0457 10.9377 18.12C10.8895 18.1185 10.8413 18.1177 10.793 18.1177C10.7447 18.1177 10.6964 18.1185 10.6483 18.12C9.5767 18.0457 8.73048 17.1529 8.73048 16.0625ZM14.3555 16.0625C14.3555 17.1425 13.8749 18.1103 13.1159 18.7636C13.2665 18.8543 13.4122 18.9542 13.5523 19.0629C14.3416 19.6756 14.9045 20.5335 15.1524 21.5015C15.2551 21.9028 15.0131 22.3113 14.6118 22.4141C14.2106 22.5168 13.802 22.2748 13.6992 21.8736C13.534 21.2282 13.1587 20.6563 12.6325 20.2478C12.1472 19.8712 11.5591 19.6533 10.9481 19.6217C10.8966 19.6239 10.8449 19.625 10.793 19.625C10.741 19.625 10.6893 19.6239 10.6379 19.6217C10.0269 19.6533 9.43873 19.8712 8.95347 20.2478C8.42726 20.6563 8.05196 21.2282 7.88673 21.8736C7.78399 22.2748 7.37541 22.5168 6.97414 22.4141C6.57287 22.3113 6.33087 21.9028 6.43361 21.5015C6.68145 20.5335 7.2444 19.6756 8.03371 19.0629C8.17373 18.9542 8.31947 18.8543 8.47005 18.7636C7.71107 18.1103 7.23048 17.1425 7.23048 16.0625C7.23048 14.095 8.82547 12.5 10.793 12.5C12.7605 12.5 14.3555 14.095 14.3555 16.0625ZM17.0625 15.125C17.0625 14.7108 17.3983 14.375 17.8125 14.375H22.5C22.9142 14.375 23.25 14.7108 23.25 15.125C23.25 15.5392 22.9142 15.875 22.5 15.875H17.8125C17.3983 15.875 17.0625 15.5392 17.0625 15.125ZM17.0625 18.875C17.0625 18.4608 17.3983 18.125 17.8125 18.125H22.5C22.9142 18.125 23.25 18.4608 23.25 18.875C23.25 19.2892 22.9142 19.625 22.5 19.625H17.8125C17.3983 19.625 17.0625 19.2892 17.0625 18.875Z" fill="url(#paint0_linear_39_27487)"/>
<defs>
<linearGradient id="paint0_linear_39_27487" x1="15" y1="6.875" x2="15" y2="27.125" gradientUnits="userSpaceOnUse">
<stop stop-color="#000AFF"/>
<stop offset="1" stop-color="#D274FF"/>
</linearGradient>
</defs>
</svg>
