<svg width="18" height="18" viewBox="0 0 18 18" fill="none" xmlns="http://www.w3.org/2000/svg">
<path d="M16.3125 5.0625H13.5C13.3508 5.0625 13.2077 5.12176 13.1023 5.22725C12.9968 5.33274 12.9375 5.47582 12.9375 5.625C12.9375 5.77418 12.9968 5.91726 13.1023 6.02275C13.2077 6.12824 13.3508 6.1875 13.5 6.1875H16.3125C16.4617 6.1875 16.6048 6.24676 16.7102 6.35225C16.8157 6.45774 16.875 6.60082 16.875 6.75V15.75C16.875 15.8992 16.8157 16.0423 16.7102 16.1477C16.6048 16.2532 16.4617 16.3125 16.3125 16.3125H1.6875C1.53832 16.3125 1.39524 16.2532 1.28975 16.1477C1.18426 16.0423 1.125 15.8992 1.125 15.75V6.75C1.125 6.60082 1.18426 6.45774 1.28975 6.35225C1.39524 6.24676 1.53832 6.1875 1.6875 6.1875H6.1875C6.1875 6.48587 6.30603 6.77202 6.517 6.983C6.72798 7.19397 7.01413 7.3125 7.3125 7.3125H10.6875C10.9859 7.3125 11.272 7.19397 11.483 6.983C11.694 6.77202 11.8125 6.48587 11.8125 6.1875V1.6875C11.8125 1.38913 11.694 1.10298 11.483 0.892005C11.272 0.681026 10.9859 0.5625 10.6875 0.5625H7.3125C7.01413 0.5625 6.72798 0.681026 6.517 0.892005C6.30603 1.10298 6.1875 1.38913 6.1875 1.6875V5.0625H1.6875C1.23995 5.0625 0.810725 5.24029 0.494257 5.55676C0.17779 5.87322 0 6.30245 0 6.75L0 15.75C0 16.1976 0.17779 16.6268 0.494257 16.9432C0.810725 17.2597 1.23995 17.4375 1.6875 17.4375H16.3125C16.7601 17.4375 17.1893 17.2597 17.5057 16.9432C17.8222 16.6268 18 16.1976 18 15.75V6.75C18 6.30245 17.8222 5.87322 17.5057 5.55676C17.1893 5.24029 16.7601 5.0625 16.3125 5.0625ZM7.3125 1.6875H10.6875V6.1875H7.3125V1.6875Z" fill="white"/>
</svg>
