<svg width="23" height="24" viewBox="0 0 23 24" fill="none" xmlns="http://www.w3.org/2000/svg">
<path d="M13.8546 0.901744C13.7801 0.827062 13.6916 0.767808 13.5942 0.727379C13.4968 0.686949 13.3924 0.666138 13.2869 0.666138C13.1814 0.666138 13.077 0.686949 12.9796 0.727379C12.8822 0.767808 12.7937 0.827062 12.7192 0.901744L1.48507 12.1359C1.41048 12.2104 1.35132 12.2989 1.31099 12.3963C1.27065 12.4937 1.24992 12.5981 1.24999 12.7036V18.3207C1.24998 18.4261 1.27073 18.5305 1.31107 18.6279C1.3514 18.7253 1.41053 18.8138 1.48507 18.8883L3.96157 21.3648C3.69399 22.0148 3.40582 22.3192 3.1794 22.3192C2.71465 22.3192 2.2629 21.6909 2.11557 21.3876L2.0224 21.1926L0.898987 21.7267L0.99107 21.9217C1.02249 21.9899 1.77974 23.5662 3.1794 23.5662C3.56582 23.5383 3.9359 23.3991 4.245 23.1656C4.5541 22.932 4.78902 22.614 4.9214 22.2499C5.02749 22.3029 5.1441 22.3314 5.26265 22.3333H10.8797C10.9852 22.3333 11.0896 22.3126 11.187 22.2722C11.2844 22.2319 11.3729 22.1728 11.4474 22.0982L22.6816 10.8641C22.7563 10.7896 22.8155 10.7011 22.8559 10.6037C22.8964 10.5063 22.9172 10.4019 22.9172 10.2964C22.9172 10.1909 22.8964 10.0865 22.8559 9.9891C22.8155 9.89169 22.7563 9.80322 22.6816 9.72874L13.8546 0.901744ZM10.7638 21.25H5.37749L5.3309 21.2034C5.44271 20.8455 5.536 20.4821 5.6104 20.1147C6.26968 20.2491 6.95539 20.1367 7.53719 19.7987C8.11899 19.4607 8.55633 18.9207 8.7661 18.2814C8.97586 17.6421 8.94342 16.948 8.67495 16.331C8.40648 15.714 7.92068 15.2172 7.3099 14.935C6.69911 14.6527 6.00591 14.6047 5.36204 14.8001C4.71818 14.9954 4.16853 15.4205 3.81756 15.9946C3.4666 16.5687 3.33878 17.2517 3.4584 17.9138C3.57803 18.5759 3.93675 19.171 4.4664 19.586C4.44257 19.6716 4.41224 19.7507 4.3949 19.8406C4.36999 19.9652 4.3429 20.0746 4.3169 20.1894L2.33332 18.2047V12.8206L13.2858 1.86483L21.7174 10.2953L10.7638 21.25ZM4.49999 17.4583C4.49999 17.1369 4.59529 16.8228 4.77385 16.5555C4.95241 16.2883 5.2062 16.08 5.50313 15.957C5.80006 15.834 6.12679 15.8019 6.44201 15.8646C6.75723 15.9273 7.04678 16.082 7.27404 16.3093C7.5013 16.5365 7.65606 16.8261 7.71876 17.1413C7.78146 17.4565 7.74928 17.7833 7.62629 18.0802C7.5033 18.3771 7.29502 18.6309 7.02779 18.8095C6.76056 18.988 6.44638 19.0833 6.12499 19.0833C6.10224 19.0833 6.08165 19.0779 6.05782 19.0768C6.24039 18.8103 6.46334 18.5738 6.71865 18.3759L6.89199 18.2524L6.1889 17.2276L6.01015 17.3522C5.57671 17.6775 5.20783 18.0809 4.92249 18.5417C4.65187 18.2456 4.50124 17.8594 4.49999 17.4583Z" fill="url(#paint0_linear_102_4576)"/>
<defs>
<linearGradient id="paint0_linear_102_4576" x1="11.9081" y1="0.666138" x2="11.9081" y2="23.5662" gradientUnits="userSpaceOnUse">
<stop stop-color="#0033EA"/>
<stop offset="1" stop-color="#8A0074"/>
</linearGradient>
</defs>
</svg>
