<svg width="18" height="18" viewBox="0 0 18 18" fill="none" xmlns="http://www.w3.org/2000/svg">
<g clip-path="url(#clip0_163_14972)">
<path d="M4.5 5.4563V6.4688H5.625V5.4563H4.5ZM12.375 5.4563V6.4688H13.5V5.4563H12.375ZM4.5 7.4813V8.4938H5.625V7.4813H4.5ZM12.375 7.4813V8.4938H13.5V7.4813H12.375ZM4.5 9.5063V10.5188H5.625V9.5063H4.5ZM12.375 9.5063V10.5188H13.5V9.5063H12.375ZM4.5 11.5313V12.5438H5.625V11.5313H4.5ZM12.375 11.5313V12.5438H13.5V11.5313H12.375Z" fill="white"/>
<path d="M1.6875 3.375C1.23995 3.375 0.810725 3.55279 0.494257 3.86926C0.17779 4.18573 0 4.61495 0 5.0625L0 6.75C0 6.89918 0.0592632 7.04226 0.164752 7.14775C0.270242 7.25324 0.413316 7.3125 0.5625 7.3125C1.01005 7.3125 1.43928 7.49029 1.75574 7.80676C2.07221 8.12323 2.25 8.55245 2.25 9C2.25 9.44755 2.07221 9.87678 1.75574 10.1932C1.43928 10.5097 1.01005 10.6875 0.5625 10.6875C0.413316 10.6875 0.270242 10.7468 0.164752 10.8523C0.0592632 10.9577 0 11.1008 0 11.25L0 12.9375C0 13.3851 0.17779 13.8143 0.494257 14.1307C0.810725 14.4472 1.23995 14.625 1.6875 14.625H16.3125C16.7601 14.625 17.1893 14.4472 17.5057 14.1307C17.8222 13.8143 18 13.3851 18 12.9375V11.25C18 11.1008 17.9407 10.9577 17.8352 10.8523C17.7298 10.7468 17.5867 10.6875 17.4375 10.6875C16.9899 10.6875 16.5607 10.5097 16.2443 10.1932C15.9278 9.87678 15.75 9.44755 15.75 9C15.75 8.55245 15.9278 8.12323 16.2443 7.80676C16.5607 7.49029 16.9899 7.3125 17.4375 7.3125C17.5867 7.3125 17.7298 7.25324 17.8352 7.14775C17.9407 7.04226 18 6.89918 18 6.75V5.0625C18 4.61495 17.8222 4.18573 17.5057 3.86926C17.1893 3.55279 16.7601 3.375 16.3125 3.375H1.6875ZM1.125 5.0625C1.125 4.91332 1.18426 4.77024 1.28975 4.66475C1.39524 4.55926 1.53832 4.5 1.6875 4.5H16.3125C16.4617 4.5 16.6048 4.55926 16.7102 4.66475C16.8157 4.77024 16.875 4.91332 16.875 5.0625V6.24375C16.2392 6.37285 15.6676 6.71779 15.257 7.22011C14.8465 7.72242 14.6222 8.35124 14.6222 9C14.6222 9.64876 14.8465 10.2776 15.257 10.7799C15.6676 11.2822 16.2392 11.6271 16.875 11.7563V12.9375C16.875 13.0867 16.8157 13.2298 16.7102 13.3352C16.6048 13.4407 16.4617 13.5 16.3125 13.5H1.6875C1.53832 13.5 1.39524 13.4407 1.28975 13.3352C1.18426 13.2298 1.125 13.0867 1.125 12.9375V11.7563C1.76079 11.6271 2.33239 11.2822 2.74296 10.7799C3.15353 10.2776 3.37782 9.64876 3.37782 9C3.37782 8.35124 3.15353 7.72242 2.74296 7.22011C2.33239 6.71779 1.76079 6.37285 1.125 6.24375V5.0625Z" fill="white"/>
</g>
<defs>
<clipPath id="clip0_163_14972">
<rect width="18" height="18" fill="white"/>
</clipPath>
</defs>
</svg>
