<svg width="41" height="41" viewBox="0 0 41 41" fill="none" xmlns="http://www.w3.org/2000/svg">
<circle cx="27.0227" cy="13.9773" r="13.9773" fill="#F7DDEF"/>
<path d="M22.1604 8.01608C22.0563 7.9117 21.9326 7.82888 21.7965 7.77237C21.6603 7.71586 21.5144 7.68677 21.3669 7.68677C21.2195 7.68677 21.0736 7.71586 20.9374 7.77237C20.8013 7.82888 20.6776 7.9117 20.5735 8.01608L4.8712 23.7184C4.76695 23.8225 4.68426 23.9462 4.62788 24.0824C4.5715 24.2185 4.54252 24.3645 4.54262 24.5118V32.363C4.54261 32.5103 4.57162 32.6562 4.62799 32.7924C4.68437 32.9285 4.76702 33.0522 4.8712 33.1564L8.33267 36.6179C7.95866 37.5264 7.55589 37.9519 7.23942 37.9519C6.58982 37.9519 5.9584 37.0737 5.75247 36.6497L5.62225 36.3771L4.05202 37.1236L4.18072 37.3962C4.22464 37.4916 5.28307 39.6948 7.23942 39.6948C7.77952 39.6558 8.29679 39.4613 8.72883 39.1348C9.16087 38.8084 9.48922 38.3639 9.67426 37.855C9.82253 37.929 9.98552 37.9689 10.1512 37.9716H18.0024C18.1497 37.9716 18.2956 37.9426 18.4318 37.8862C18.5679 37.8298 18.6916 37.7472 18.7958 37.643L34.4981 21.9407C34.6025 21.8366 34.6853 21.713 34.7418 21.5768C34.7984 21.4406 34.8274 21.2947 34.8274 21.1473C34.8274 20.9998 34.7984 20.8539 34.7418 20.7177C34.6853 20.5816 34.6025 20.4579 34.4981 20.3538L22.1604 8.01608ZM17.8404 36.4574H10.3117L10.2466 36.3923C10.4029 35.8921 10.5333 35.3841 10.6373 34.8705C11.5588 35.0584 12.5172 34.9013 13.3304 34.4288C14.1436 33.9564 14.7549 33.2017 15.0481 32.3081C15.3413 31.4145 15.2959 30.4444 14.9207 29.582C14.5454 28.7196 13.8664 28.0252 13.0127 27.6307C12.159 27.2362 11.1901 27.1691 10.2902 27.4421C9.3902 27.7152 8.62194 28.3094 8.13139 29.1118C7.64083 29.9141 7.46218 30.8688 7.62938 31.7943C7.79658 32.7198 8.29799 33.5516 9.03829 34.1316C9.00498 34.2512 8.96258 34.3617 8.93835 34.4874C8.90353 34.6615 8.86567 34.8145 8.82933 34.975L6.05682 32.201V24.6754L21.3654 9.36221L33.1505 21.1457L17.8404 36.4574ZM9.08523 31.1577C9.08523 30.7084 9.21844 30.2693 9.46802 29.8958C9.71759 29.5223 10.0723 29.2312 10.4873 29.0593C10.9024 28.8873 11.3591 28.8424 11.7996 28.93C12.2402 29.0176 12.6449 29.234 12.9626 29.5516C13.2802 29.8693 13.4966 30.274 13.5842 30.7146C13.6718 31.1551 13.6269 31.6118 13.455 32.0269C13.283 32.4419 12.9919 32.7966 12.6184 33.0462C12.2449 33.2958 11.8058 33.429 11.3565 33.429C11.3247 33.429 11.296 33.4214 11.2627 33.4199C11.5178 33.0474 11.8295 32.7169 12.1863 32.4402L12.4286 32.2676L11.4459 30.8351L11.196 31.0093C10.5902 31.464 10.0746 32.0279 9.67577 32.6719C9.29752 32.2581 9.08699 31.7183 9.08523 31.1577Z" fill="url(#paint0_linear_29_6482)"/>
<defs>
<linearGradient id="paint0_linear_29_6482" x1="19.4397" y1="7.68677" x2="19.4397" y2="39.6948" gradientUnits="userSpaceOnUse">
<stop stop-color="#000AFF"/>
<stop offset="1" stop-color="#D274FF"/>
</linearGradient>
</defs>
</svg>
