<svg width="23" height="23" viewBox="0 0 23 23" fill="none" xmlns="http://www.w3.org/2000/svg">
<g clip-path="url(#clip0_951_496399)">
<path d="M20.6664 10.2843L17.4052 6.61586C17.2603 6.45206 17.0823 6.32095 16.8828 6.23123C16.6834 6.1415 16.4671 6.09521 16.2484 6.09543L6.7541 6.09402C6.34351 6.0944 5.94985 6.25767 5.65952 6.548C5.36919 6.83833 5.20592 7.23199 5.20553 7.64258L5.20553 14.9838C5.20591 15.3944 5.36919 15.788 5.65952 16.0783C5.94985 16.3687 6.34351 16.5319 6.7541 16.5323L16.2459 16.532C16.4646 16.5327 16.6809 16.487 16.8807 16.398C17.0804 16.309 17.2589 16.1786 17.4045 16.0154L20.6675 12.3445C20.9197 12.0606 21.0589 11.694 21.0587 11.3142C21.0586 10.9344 20.9189 10.568 20.6664 10.2843ZM16.1926 12.8617C15.7845 12.8533 15.3955 12.6875 15.1069 12.3989C14.8183 12.1103 14.6524 11.7212 14.644 11.3132C14.6444 10.9026 14.8076 10.5089 15.098 10.2186C15.3883 9.92826 15.782 9.76499 16.1926 9.76461C16.6004 9.77416 16.9888 9.94041 17.2772 10.2288C17.5657 10.5173 17.7319 10.9057 17.7415 11.3135C17.741 11.7241 17.5776 12.1177 17.2872 12.408C16.9968 12.6983 16.6031 12.8614 16.1926 12.8617Z" fill="#2D50C8"/>
</g>
<defs>
<clipPath id="clip0_951_496399">
<rect width="16" height="16" fill="white" transform="translate(11.5) rotate(45)"/>
</clipPath>
</defs>
</svg>
