<svg width="16" height="16" viewBox="0 0 16 16" fill="none" xmlns="http://www.w3.org/2000/svg">
<path d="M8.97609 0.162746C8.92453 0.111043 8.86328 0.0700211 8.79584 0.0420313C8.7284 0.0140415 8.6561 -0.000366211 8.58309 -0.000366211C8.51007 -0.000366211 8.43777 0.0140415 8.37033 0.0420313C8.3029 0.0700211 8.24164 0.111043 8.19009 0.162746L0.412586 7.94025C0.360948 7.99183 0.319993 8.0531 0.292066 8.12054C0.264139 8.18797 0.249788 8.26026 0.249836 8.33325V12.222C0.249829 12.295 0.264198 12.3673 0.292123 12.4347C0.320048 12.5021 0.360981 12.5634 0.412586 12.615L2.12709 14.3295C1.94184 14.7795 1.74234 14.9902 1.58559 14.9902C1.26384 14.9902 0.951086 14.5552 0.849086 14.3452L0.784586 14.2102L0.00683594 14.58L0.0705858 14.715C0.0923358 14.7622 0.616586 15.8535 1.58559 15.8535C1.8531 15.8342 2.10931 15.7379 2.32331 15.5762C2.5373 15.4145 2.69993 15.1943 2.79159 14.9422C2.86503 14.9789 2.94576 14.9987 3.02784 15H6.91659C6.98957 15 7.06184 14.9856 7.12927 14.9577C7.1967 14.9298 7.25797 14.8889 7.30959 14.8372L15.0871 7.05975C15.1388 7.00819 15.1798 6.94694 15.2078 6.8795C15.2358 6.81206 15.2502 6.73976 15.2502 6.66675C15.2502 6.59373 15.2358 6.52143 15.2078 6.45399C15.1798 6.38655 15.1388 6.3253 15.0871 6.27375L8.97609 0.162746ZM6.83634 14.25H3.10734L3.07509 14.2177C3.15249 13.97 3.21707 13.7184 3.26859 13.464C3.72501 13.5571 4.19973 13.4792 4.60251 13.2452C5.0053 13.0112 5.30807 12.6374 5.4533 12.1948C5.59852 11.7522 5.57606 11.2717 5.3902 10.8446C5.20433 10.4174 4.86801 10.0735 4.44516 9.87805C4.02231 9.68264 3.5424 9.6494 3.09664 9.78465C2.65089 9.9199 2.27036 10.2142 2.02739 10.6116C1.78441 11.0091 1.69592 11.4819 1.77874 11.9403C1.86156 12.3987 2.10991 12.8107 2.47659 13.098C2.46009 13.1572 2.43909 13.212 2.42709 13.2742C2.40984 13.3605 2.39109 13.4362 2.37309 13.5157L0.999836 12.1417V8.41425L8.58234 0.829496L14.4196 6.666L6.83634 14.25ZM2.49984 11.625C2.49984 11.4025 2.56582 11.185 2.68943 11C2.81305 10.815 2.98875 10.6708 3.19432 10.5856C3.39988 10.5005 3.62608 10.4782 3.84431 10.5216C4.06254 10.565 4.263 10.6722 4.42033 10.8295C4.57767 10.9868 4.68481 11.1873 4.72822 11.4055C4.77163 11.6237 4.74935 11.8499 4.6642 12.0555C4.57905 12.2611 4.43486 12.4368 4.24985 12.5604C4.06485 12.684 3.84734 12.75 3.62484 12.75C3.60909 12.75 3.59484 12.7462 3.57834 12.7455C3.70473 12.561 3.85908 12.3973 4.03584 12.2602L4.15584 12.1747L3.66909 11.4652L3.54534 11.5515C3.24526 11.7767 2.98988 12.056 2.79234 12.375C2.60499 12.1701 2.5007 11.9027 2.49984 11.625Z" fill="#6174A4"/>
</svg>
