<svg width="24" height="25" viewBox="0 0 24 25" fill="none" xmlns="http://www.w3.org/2000/svg">
<g clip-path="url(#clip0_987_197281)">
<path d="M8 15.5H3.5C2.83712 15.4995 2.20154 15.2359 1.73282 14.7672C1.26409 14.2985 1.00053 13.6629 1 13V4C1.00053 3.33712 1.26409 2.70154 1.73282 2.23282C2.20154 1.76409 2.83712 1.50053 3.5 1.5H12.5C13.1629 1.50053 13.7985 1.76409 14.2672 2.23282C14.7359 2.70154 14.9995 3.33712 15 4V8.5H14V4C13.9995 3.60234 13.8413 3.22111 13.5601 2.93992C13.2789 2.65873 12.8977 2.50053 12.5 2.5H3.5C3.10234 2.50053 2.72111 2.65873 2.43992 2.93992C2.15873 3.22111 2.00053 3.60234 2 4V13C2.00053 13.3977 2.15873 13.7789 2.43992 14.0601C2.72111 14.3413 3.10234 14.4995 3.5 14.5H8V15.5ZM7.962 10.689C6.85063 11.5519 5.56601 12.1645 4.196 12.485L3.954 11.515C5.14224 11.237 6.25982 10.7153 7.236 9.983C6.05243 8.73555 5.23943 7.18329 4.888 5.5H4V4.5H7.279L6.735 3.956L7.442 3.249L8.692 4.5H12V5.5H11.086C10.8376 6.61872 10.3956 7.68544 9.78 8.652C8.94492 9.08595 8.29754 9.81052 7.96 10.689H7.962ZM7.994 9.306C9.01188 8.24613 9.72494 6.93125 10.058 5.5H5.922C6.25795 6.93187 6.97374 8.24667 7.994 9.306ZM23 20.947V12.053C23.0037 11.7198 22.9414 11.3892 22.8167 11.0802C22.6921 10.7712 22.5075 10.4899 22.2736 10.2526C22.0397 10.0153 21.7612 9.82661 21.454 9.69744C21.1469 9.56827 20.8172 9.50117 20.484 9.5H11.553C10.8761 9.50079 10.2272 9.77003 9.74863 10.2486C9.27002 10.7272 9.00079 11.3761 9 12.053V20.947C9.00079 21.6239 9.27002 22.2728 9.74863 22.7514C10.2272 23.23 10.8761 23.4992 11.553 23.5H20.447C21.1239 23.4992 21.7728 23.23 22.2514 22.7514C22.73 22.2728 22.9992 21.6239 23 20.947ZM20.484 10.5C20.886 10.5003 21.2714 10.6601 21.5557 10.9443C21.8399 11.2286 21.9997 11.614 22 12.016V20.984C21.9997 21.386 21.8399 21.7714 21.5557 22.0557C21.2714 22.3399 20.886 22.4997 20.484 22.5H11.516C11.114 22.4997 10.7286 22.3399 10.4443 22.0557C10.1601 21.7714 10.0003 21.386 10 20.984V12.016C10.0003 11.614 10.1601 11.2286 10.4443 10.9443C10.7286 10.6601 11.114 10.5003 11.516 10.5H20.484ZM18.398 18.5H13.602L12.443 20.73L11.557 20.27L16 11.715L20.443 20.27L19.557 20.73L18.398 18.5ZM17.878 17.5L16 13.885L14.122 17.5H17.878Z" fill="url(#paint0_linear_987_197281)"/>
</g>
<defs>
<linearGradient id="paint0_linear_987_197281" x1="12.0001" y1="1.5" x2="12.0001" y2="23.5" gradientUnits="userSpaceOnUse">
<stop stop-color="#0033EA"/>
<stop offset="1" stop-color="#8A0074"/>
</linearGradient>
<clipPath id="clip0_987_197281">
<rect width="24" height="24" fill="white" transform="translate(0 0.5)"/>
</clipPath>
</defs>
</svg>
