<svg width="19" height="20" viewBox="0 0 19 20" fill="none" xmlns="http://www.w3.org/2000/svg">
<path d="M10.37 19.5169H16.4315C17.4756 19.5169 18.3257 18.6287 18.3257 17.5378V5.66276C18.3257 4.57184 17.4756 3.68359 16.4315 3.68359H9.23344C9.02431 3.68359 7.18592 3.78132 7.18592 3.99982V4.58393C6.99044 4.66072 6.89118 4.88872 6.96467 5.09376L10.0154 19.2604C10.0707 19.4148 10.2124 19.5169 10.37 19.5169Z" fill="#555555"/>
<path d="M16.4317 9.22526H11.1279C10.9187 9.22526 10.749 9.04793 10.749 8.82943C10.749 8.61093 10.9187 8.43359 11.1279 8.43359H16.4317C16.6408 8.43359 16.8105 8.61093 16.8105 8.82943C16.8105 9.04793 16.6408 9.22526 16.4317 9.22526Z" fill="white"/>
<path d="M13.4013 9.22396C13.1922 9.22396 13.0225 9.04663 13.0225 8.82812V8.03646C13.0225 7.81796 13.1922 7.64062 13.4013 7.64062C13.6104 7.64062 13.7802 7.81796 13.7802 8.03646V8.82812C13.7802 9.04663 13.6104 9.22396 13.4013 9.22396Z" fill="white"/>
<path d="M12.2649 13.9745C12.146 13.9745 12.0293 13.9167 11.9558 13.8082C11.8346 13.6301 11.8747 13.3831 12.0452 13.2564C13.7038 12.0254 14.9168 9.51422 14.9168 8.82943C14.9168 8.61093 15.0866 8.43359 15.2957 8.43359C15.5048 8.43359 15.6745 8.61093 15.6745 8.82943C15.6745 9.87284 14.2145 12.6176 12.4847 13.9024C12.418 13.9507 12.3414 13.9745 12.2649 13.9745Z" fill="white"/>
<path d="M15.2952 14.764C15.2035 14.764 15.1118 14.7299 15.0399 14.6602C14.7648 14.3974 12.344 12.0612 11.9136 10.9545C11.8348 10.7518 11.9288 10.5214 12.122 10.4391C12.3137 10.3575 12.5365 10.4541 12.6153 10.6568C12.9252 11.454 14.8398 13.3952 15.5513 14.076C15.7059 14.224 15.7157 14.4734 15.5748 14.6357C15.4998 14.7204 15.3975 14.764 15.2952 14.764Z" fill="white"/>
<path d="M13.0223 16.349H2.03583C0.991729 16.349 0.141602 15.4607 0.141602 14.3698V2.49479C0.141602 1.40387 0.991729 0.515625 2.03583 0.515625H8.09734C8.25949 0.515625 8.40345 0.623292 8.45573 0.783208L13.3807 15.8249C13.4201 15.9452 13.4012 16.079 13.3307 16.1827C13.2595 16.2872 13.1451 16.349 13.0223 16.349Z" fill="#333333"/>
<path d="M10.37 19.514C10.2813 19.514 10.1927 19.4815 10.1207 19.4158C9.96307 19.2717 9.94716 19.0216 10.0851 18.8569L12.737 15.6902C12.8749 15.5248 13.1143 15.5089 13.2719 15.653C13.4295 15.7971 13.4454 16.0473 13.3075 16.2119L10.6556 19.3786C10.5798 19.4681 10.4753 19.514 10.37 19.514Z" fill="#333333"/>
<path d="M7.33937 11.5998C7.18329 11.5998 7.03781 11.4992 6.9825 11.3369L5.44515 6.83949L3.9078 11.3369C3.83733 11.5428 3.61988 11.6504 3.42363 11.5768C3.22664 11.5032 3.12359 11.2768 3.19406 11.0709L5.08828 5.52928C5.19587 5.2142 5.69443 5.2142 5.80126 5.52928L7.69549 11.0709C7.76595 11.2768 7.66367 11.5032 7.46591 11.5768C7.42499 11.5927 7.3818 11.5998 7.33937 11.5998Z" fill="white"/>
<path d="M6.20282 9.22526H4.68744C4.47832 9.22526 4.30859 9.04793 4.30859 8.82943C4.30859 8.61093 4.47832 8.43359 4.68744 8.43359H6.20282C6.41194 8.43359 6.58166 8.61093 6.58166 8.82943C6.58166 9.04793 6.41194 9.22526 6.20282 9.22526Z" fill="white"/>
</svg>
