<svg width="20" height="21" viewBox="0 0 20 21" fill="none" xmlns="http://www.w3.org/2000/svg">
<path d="M14.2488 8.3717L14.2487 8.37144C14.2027 8.27851 14.1317 8.2003 14.0436 8.1457C13.9555 8.09109 13.8538 8.06227 13.7501 8.0625L13.7496 8.0625C13.6447 8.06177 13.5418 8.09035 13.4523 8.14501C13.3629 8.19967 13.2905 8.27822 13.2433 8.37181C13.2433 8.37183 13.2433 8.37185 13.2433 8.37187L11.5481 11.7623L11.5297 11.799L11.4888 11.7968C10.1476 11.7241 8.85691 11.2609 7.77543 10.4644L7.71888 10.4227L7.76682 10.3714C9.01404 9.03595 9.77113 7.31678 9.91425 5.4951L9.91878 5.4375H9.97656H11.875C12.0242 5.4375 12.1673 5.37824 12.2727 5.27275C12.3782 5.16726 12.4375 5.02418 12.4375 4.875C12.4375 4.72582 12.3782 4.58274 12.2727 4.47725C12.1673 4.37176 12.0242 4.3125 11.875 4.3125H7.5H7.4375V4.25V3C7.4375 2.85082 7.37824 2.70774 7.27275 2.60225C7.16726 2.49676 7.02418 2.4375 6.875 2.4375C6.72582 2.4375 6.58274 2.49676 6.47725 2.60225C6.37176 2.70774 6.3125 2.85082 6.3125 3V4.25V4.3125H6.25H1.875C1.72582 4.3125 1.58274 4.37176 1.47725 4.47725C1.37176 4.58274 1.3125 4.72582 1.3125 4.875C1.3125 5.02418 1.37176 5.16726 1.47725 5.27275C1.58274 5.37824 1.72582 5.4375 1.875 5.4375H8.71875H8.78713L8.781 5.50561C8.64188 7.0501 7.98641 8.50267 6.92039 9.6289L6.8751 9.67675L6.8297 9.629C6.16406 8.92883 5.65364 8.09608 5.3318 7.18518C5.28097 7.04578 5.17711 6.9321 5.04285 6.86891C4.90849 6.80569 4.75459 6.79815 4.61471 6.84794L4.61369 6.84831L4.61368 6.8483C4.5435 6.87192 4.47876 6.90935 4.42327 6.95839C4.36778 7.00743 4.32268 7.06708 4.29061 7.13383C4.25855 7.20057 4.24017 7.27307 4.23657 7.34703C4.23297 7.42099 4.24421 7.49493 4.26964 7.56448L4.26981 7.56496C4.64166 8.60835 5.22492 9.56373 5.98307 10.3713L6.03114 10.4225L5.97469 10.4643C4.78849 11.3426 3.35086 11.8154 1.87488 11.8125M14.2488 8.3717L1.87488 11.8125M14.2488 8.3717L18.6238 17.1217M14.2488 8.3717L18.6238 17.1217M1.87488 11.8125C1.72574 11.8125 1.58271 11.8718 1.47725 11.9773C1.37176 12.0827 1.3125 12.2258 1.3125 12.375C1.3125 12.5242 1.37176 12.6673 1.47725 12.7727C1.58274 12.8782 1.7258 12.9375 1.87498 12.9375L1.87488 11.8125ZM18.6238 17.1217C18.6238 17.1217 18.6238 17.1217 18.6238 17.1217C18.6906 17.2554 18.7022 17.4101 18.6561 17.5523C18.6102 17.6939 18.5108 17.8119 18.3791 17.8811C18.2986 17.9164 18.212 17.9356 18.1241 17.9375C18.0194 17.9382 17.9167 17.9096 17.8273 17.855C17.7379 17.8004 17.6656 17.7218 17.6184 17.6283L18.6238 17.1217ZM6.83645 11.2242C5.42061 12.3338 3.67382 12.937 1.875 12.9375L17.6183 17.6281L16.5403 15.472L16.523 15.4375H16.4844H11.0078H10.9692L10.9519 15.472L9.87386 17.6281C9.87384 17.6282 9.87382 17.6282 9.8738 17.6283C9.80665 17.7616 9.68932 17.8627 9.54761 17.9095C9.40585 17.9563 9.25129 17.9449 9.11795 17.8778C8.98461 17.8106 8.8834 17.6933 8.83658 17.5515C8.78977 17.4098 8.80119 17.2552 8.86832 17.1219L8.8684 17.1217L10.9465 12.9655L10.9862 12.8862L10.8982 12.8755C9.44425 12.6987 8.06635 12.1277 6.91355 11.2242L6.875 11.194L6.83645 11.2242ZM11.5769 14.222L11.5316 14.3125H11.6328H15.8594H15.9604L15.9153 14.2221L13.8059 9.99553L13.7501 9.88368L13.6941 9.99545L11.5769 14.222Z" fill="black" stroke="#333333" stroke-width="0.125"/>
</svg>
