<svg width="8" height="14" viewBox="0 0 8 14" fill="none" xmlns="http://www.w3.org/2000/svg">
<path d="M7.00044 13.7501C6.90174 13.7507 6.80389 13.7318 6.71251 13.6945C6.62113 13.6571 6.53802 13.6021 6.46794 13.5326L0.467942 7.53264C0.397646 7.46292 0.341851 7.37997 0.303774 7.28857C0.265698 7.19718 0.246094 7.09915 0.246094 7.00014C0.246094 6.90113 0.265698 6.8031 0.303774 6.71171C0.341851 6.62031 0.397646 6.53736 0.467942 6.46764L6.46794 0.467639C6.60917 0.326411 6.80072 0.24707 7.00044 0.24707C7.20017 0.24707 7.39171 0.326411 7.53294 0.467639C7.67417 0.608867 7.75351 0.800413 7.75351 1.00014C7.75351 1.19987 7.67417 1.39141 7.53294 1.53264L2.05794 7.00014L7.53294 12.4676C7.60324 12.5374 7.65904 12.6203 7.69711 12.7117C7.73519 12.8031 7.75479 12.9011 7.75479 13.0001C7.75479 13.0991 7.73519 13.1972 7.69711 13.2886C7.65904 13.38 7.60324 13.4629 7.53294 13.5326C7.46286 13.6021 7.37975 13.6571 7.28837 13.6945C7.19699 13.7318 7.09915 13.7507 7.00044 13.7501Z" fill="black"/>
</svg>
