<svg width="22" height="22" viewBox="0 0 22 22" fill="none" xmlns="http://www.w3.org/2000/svg">
<path d="M3.42036 2.72266H4.92301C5.71875 2.72266 6.37139 3.33912 6.42907 4.12021L6.43322 4.23286V17.8247C6.43322 18.6204 5.81675 19.2731 5.03567 19.3308L4.92301 19.3349H3.42036C2.62462 19.3349 1.97199 18.7184 1.9143 17.9374L1.91016 17.8247V4.23286C1.91016 3.43712 2.52662 2.78449 3.30771 2.7268L3.42036 2.72266H4.92301H3.42036ZM8.7023 2.72266H10.2087C11.0045 2.72266 11.6571 3.33912 11.7148 4.12021L11.7189 4.23286V17.8247C11.7189 18.6204 11.1025 19.2731 10.3214 19.3308L10.2087 19.3349H8.7023C7.90584 19.3349 7.25386 18.7184 7.19624 17.9374L7.1921 17.8247V4.23286C7.1921 3.43712 7.80787 2.78449 8.58955 2.7268L8.7023 2.72266H10.2087H8.7023ZM15.6006 4.2528C16.2374 4.2528 16.8206 4.6588 17.03 5.27945L17.0648 5.39828L19.9794 17.0895C20.1726 17.8615 19.7328 18.6438 18.9884 18.8893L18.88 18.9207L17.3978 19.2899C17.2754 19.3201 17.1523 19.3352 17.0315 19.3352C16.394 19.3352 15.8114 18.9285 15.6022 18.3084L15.5674 18.1897L12.6519 6.49847C12.4595 5.72507 12.8993 4.94342 13.6437 4.69861L13.7521 4.66735L15.2344 4.2981C15.3567 4.2679 15.4798 4.2528 15.6006 4.2528ZM4.92301 3.85531H3.42036C3.23578 3.85531 3.08103 3.98955 3.04892 4.16522L3.04281 4.23286V17.8247C3.04281 18.0093 3.17705 18.164 3.35272 18.1961L3.42036 18.2022H4.92301C5.10827 18.2022 5.26249 18.068 5.29448 17.8923L5.30056 17.8247V4.23286C5.30056 4.04828 5.16692 3.89353 4.99085 3.86142L4.92301 3.85531ZM10.2087 3.85531H8.7023C8.51705 3.85531 8.36282 3.98955 8.33083 4.16522L8.32475 4.23286V17.8247C8.32475 18.0093 8.45839 18.164 8.63446 18.1961L8.7023 18.2022H10.2087C10.394 18.2022 10.5482 18.068 10.5802 17.8923L10.5863 17.8247V4.23286C10.5863 4.04828 10.4526 3.89353 10.2766 3.86142L10.2087 3.85531ZM15.6006 5.38545L15.5542 5.38828L15.5077 5.39677L14.0262 5.76602C13.8463 5.81099 13.7291 5.97827 13.7408 6.15649L13.7514 6.22361L16.6661 17.9156C16.7151 18.1119 16.8903 18.2026 17.0315 18.2026L17.0779 18.1996L17.1237 18.1905L18.6059 17.8212C18.7858 17.7763 18.903 17.6096 18.8913 17.431L18.8808 17.3636L15.9653 5.67163C15.9162 5.47455 15.7418 5.38545 15.6006 5.38545Z" fill="white"/>
</svg>
