<svg width="28" height="28" viewBox="0 0 28 28" fill="none" xmlns="http://www.w3.org/2000/svg">
<g clip-path="url(#clip0_209_113768)">
<rect x="13" width="15" height="15" rx="7.5" fill="#F6DDEF"/>
<path fill-rule="evenodd" clip-rule="evenodd" d="M24.889 4.66602H3.11122C2.69866 4.66602 2.303 4.8299 2.01128 5.12163C1.71955 5.41335 1.55566 5.80901 1.55566 6.22157V21.7771C1.55566 22.1897 1.71955 22.5853 2.01128 22.8771C2.303 23.1688 2.69866 23.3327 3.11122 23.3327H14.7779L15.2212 22.7882L15.9446 21.9016L15.8746 21.7771H3.11122V6.22157H24.889V12.8793C25.4799 13.2619 26.0052 13.7372 26.4446 14.2871V6.22157C26.4446 5.80901 26.2807 5.41335 25.9889 5.12163C25.6972 4.8299 25.3016 4.66602 24.889 4.66602ZM18.6668 9.33252H5.44458V10.577H18.6668V9.33252ZM5.44458 12.4436H14.0001V13.688H5.44458V12.4436ZM13.2224 17.8882H5.44458V19.1326H13.2224V17.8882ZM21.354 13.4003C20.3601 13.3932 19.387 13.6857 18.5617 14.2397C17.7353 14.7944 17.0954 15.5855 16.7258 16.5097C16.3561 17.4338 16.2738 18.448 16.4897 19.4196C16.7055 20.3912 17.2095 21.2752 17.9357 21.9559L16.4268 23.7992L17.1268 26.607L19.9734 23.1381C20.8745 23.4045 21.8335 23.4045 22.7346 23.1381L25.5812 26.607L26.2812 23.7992L24.7723 21.9559C25.4985 21.2752 26.0025 20.3912 26.2183 19.4196C26.4342 18.448 26.3519 17.4338 25.9823 16.5097C25.6126 15.5855 24.9728 14.7944 24.1464 14.2397C23.321 13.6857 22.348 13.3932 21.354 13.4003ZM19.5084 21.1195C20.0535 21.4934 20.697 21.6978 21.3579 21.707C22.2525 21.7111 23.1124 21.3608 23.7494 20.7325C24.3863 20.1043 24.7486 19.2494 24.7568 18.3547C24.7567 17.6937 24.5612 17.0475 24.1949 16.4973C23.8286 15.9471 23.3078 15.5174 22.6979 15.2624C22.0881 15.0074 21.4165 14.9383 20.7675 15.0639C20.1186 15.1895 19.5212 15.5042 19.0506 15.9684C18.58 16.4325 18.2571 17.0255 18.1225 17.6726C17.988 18.3198 18.0477 18.9923 18.2943 19.6056C18.5409 20.2189 18.9633 20.7456 19.5084 21.1195Z" fill="url(#paint0_linear_209_113768)"/>
</g>
<defs>
<linearGradient id="paint0_linear_209_113768" x1="14.0001" y1="4.66602" x2="14.0001" y2="26.607" gradientUnits="userSpaceOnUse">
<stop stop-color="#000AFF"/>
<stop offset="1" stop-color="#D274FF"/>
</linearGradient>
<clipPath id="clip0_209_113768">
<rect width="28" height="28" fill="white"/>
</clipPath>
</defs>
</svg>
