<svg width="16" height="16" viewBox="0 0 16 16" fill="none" xmlns="http://www.w3.org/2000/svg">
<path d="M15 0H1C0.734783 0 0.48043 0.119511 0.292893 0.332241C0.105357 0.544972 0 0.833496 0 1.13434V12.4778C0 12.7786 0.105357 13.0671 0.292893 13.2799C0.48043 13.4926 0.734783 13.6121 1 13.6121H8.5L8.785 13.2151L9.25 12.5685L9.205 12.4778H1V1.13434H15V5.98933C15.3799 6.26826 15.7175 6.61491 16 7.01591V1.13434C16 0.833496 15.8946 0.544972 15.7071 0.332241C15.5196 0.119511 15.2652 0 15 0V0Z" fill="#645DF6"/>
<mask id="path-2-inside-1_903_4129" fill="white">
<path d="M11 3.40234H2.5V4.30982H11V3.40234Z"/>
</mask>
<path d="M11 3.40234H2.5V4.30982H11V3.40234Z" fill="#645DF6"/>
<path d="M2.5 3.40234V2.40234H1.5V3.40234H2.5ZM11 3.40234H12V2.40234H11V3.40234ZM11 4.30982V5.30982H12V4.30982H11ZM2.5 4.30982H1.5V5.30982H2.5V4.30982ZM2.5 4.40234H11V2.40234H2.5V4.40234ZM10 3.40234V4.30982H12V3.40234H10ZM11 3.30982H2.5V5.30982H11V3.30982ZM3.5 4.30982V3.40234H1.5V4.30982H3.5Z" fill="#645DF6" mask="url(#path-2-inside-1_903_4129)"/>
<mask id="path-4-inside-2_903_4129" fill="white">
<path d="M8 5.67188H2.5V6.57935H8V5.67188Z"/>
</mask>
<path d="M8 5.67188H2.5V6.57935H8V5.67188Z" fill="#645DF6"/>
<path d="M2.5 5.67188V4.67188H1.5V5.67188H2.5ZM8 5.67188H9V4.67188H8V5.67188ZM8 6.57935V7.57935H9V6.57935H8ZM2.5 6.57935H1.5V7.57935H2.5V6.57935ZM2.5 6.67188H8V4.67188H2.5V6.67188ZM7 5.67188V6.57935H9V5.67188H7ZM8 5.57935H2.5V7.57935H8V5.57935ZM3.5 6.57935V5.67188H1.5V6.57935H3.5Z" fill="#645DF6" mask="url(#path-4-inside-2_903_4129)"/>
<path d="M7.5 9.64258H2.5V10.5501H7.5V9.64258Z" fill="#645DF6"/>
<path d="M12.7299 6.36925C12.0901 6.36349 11.4636 6.57681 10.9323 6.98133C10.4011 7.38586 9.98974 7.96276 9.7521 8.63667C9.51447 9.31057 9.46158 10.0501 9.60034 10.7587C9.73911 11.4672 10.0631 12.1118 10.5299 12.6081L9.55991 13.9523L10.0099 15.9998L11.8399 13.4702C12.4192 13.6645 13.0356 13.6645 13.6149 13.4702L15.4449 15.9998L15.8949 13.9523L14.9249 12.6081C15.3917 12.1118 15.7157 11.4672 15.8545 10.7587C15.9932 10.0501 15.9404 9.31057 15.7027 8.63667C15.4651 7.96276 15.0538 7.38586 14.5225 6.98133C13.9912 6.57681 13.3647 6.36349 12.7249 6.36925H12.7299ZM12.7299 12.4266C12.305 12.4199 11.8914 12.2709 11.5409 11.9982C11.1905 11.7256 10.919 11.3415 10.7605 10.8943C10.602 10.447 10.5635 9.95664 10.65 9.48472C10.7365 9.01279 10.9441 8.58041 11.2467 8.24194C11.5492 7.90346 11.9332 7.674 12.3504 7.58241C12.7676 7.49081 13.1993 7.54116 13.5914 7.72714C13.9834 7.91312 14.3182 8.22642 14.5537 8.62764C14.7892 9.02887 14.9149 9.50012 14.9149 9.98214C14.9096 10.6345 14.6768 11.2579 14.2673 11.7161C13.8578 12.1742 13.305 12.4297 12.7299 12.4266V12.4266Z" fill="#645DF6"/>
</svg>
