<svg width="16" height="16" viewBox="0 0 16 16" fill="none" xmlns="http://www.w3.org/2000/svg">
<path d="M5.88135 10.1187L10.1188 5.875" stroke="#333333" stroke-width="1.2" stroke-linecap="round" stroke-linejoin="round"/>
<path d="M9.06231 11.1812L7.29356 12.95C7.01491 13.2286 6.68411 13.4497 6.32003 13.6005C5.95596 13.7513 5.56575 13.8289 5.17168 13.8289C4.37583 13.8289 3.61256 13.5128 3.04981 12.95C2.48705 12.3872 2.1709 11.624 2.1709 10.8281C2.1709 10.0323 2.48705 9.26901 3.04981 8.70625L4.81856 6.9375" stroke="#333333" stroke-width="1.2" stroke-linecap="round" stroke-linejoin="round"/>
<path d="M11.1812 9.06231L12.95 7.29356C13.5128 6.7308 13.8289 5.96754 13.8289 5.17168C13.8289 4.37583 13.5128 3.61256 12.95 3.04981C12.3872 2.48705 11.624 2.1709 10.8281 2.1709C10.0323 2.1709 9.26901 2.48705 8.70625 3.04981L6.9375 4.81856" stroke="#333333" stroke-width="1.2" stroke-linecap="round" stroke-linejoin="round"/>
</svg>
