<svg width="20" height="20" viewBox="0 0 20 20" fill="none" xmlns="http://www.w3.org/2000/svg">
<path d="M6.25 10H13.75" stroke="#645DF6" stroke-width="1.5" stroke-linecap="round" stroke-linejoin="round"/>
<path d="M8.125 13.75H5C4.00544 13.75 3.05161 13.3549 2.34835 12.6517C1.64509 11.9484 1.25 10.9946 1.25 10C1.25 9.00544 1.64509 8.05161 2.34835 7.34835C3.05161 6.64509 4.00544 6.25 5 6.25H8.125" stroke="#645DF6" stroke-width="1.5" stroke-linecap="round" stroke-linejoin="round"/>
<path d="M11.875 13.75H15C15.9946 13.75 16.9484 13.3549 17.6517 12.6517C18.3549 11.9484 18.75 10.9946 18.75 10C18.75 9.00544 18.3549 8.05161 17.6517 7.34835C16.9484 6.64509 15.9946 6.25 15 6.25H11.875" stroke="#645DF6" stroke-width="1.5" stroke-linecap="round" stroke-linejoin="round"/>
</svg>
