<svg width="17" height="19" viewBox="0 0 17 19" fill="none" xmlns="http://www.w3.org/2000/svg">
<path fill-rule="evenodd" clip-rule="evenodd" d="M5.66602 1.74194C3.02541 1.74194 0.884766 4.08171 0.884766 6.96796C0.884766 8.30605 1.34556 9.52794 2.10235 10.4521C2.29802 10.6911 2.63387 10.7114 2.85249 10.4976C3.07112 10.2837 3.08972 9.9166 2.89405 9.67759C2.30488 8.95811 1.94727 8.00937 1.94727 6.96796C1.94727 4.7231 3.61221 2.90328 5.66602 2.90328H8.49935C10.5532 2.90328 12.2181 4.7231 12.2181 6.96796C12.2181 9.21283 10.5532 11.0326 8.49935 11.0326H7.08268C6.78928 11.0326 6.55143 11.2926 6.55143 11.6133C6.55143 11.934 6.78928 12.194 7.08268 12.194H8.49935C11.1399 12.194 13.2806 9.85419 13.2806 6.96796C13.2806 4.08171 11.1399 1.74194 8.49935 1.74194H5.66602Z" fill="#1C274C"/>
<path opacity="0.5" d="M4.78125 11.6135C4.78125 9.3686 6.44619 7.54879 8.5 7.54879H9.91667C10.2101 7.54879 10.4479 7.28881 10.4479 6.96812C10.4479 6.64743 10.2101 6.38745 9.91667 6.38745H8.5C5.85939 6.38745 3.71875 8.72724 3.71875 11.6135C3.71875 14.4997 5.85939 16.8395 8.5 16.8395H11.3333C13.9739 16.8395 16.1146 14.4997 16.1146 11.6135C16.1146 10.2754 15.6538 9.05349 14.897 8.1293C14.7013 7.89038 14.3655 7.87001 14.1468 8.08386C13.9282 8.29777 13.9096 8.66483 14.1053 8.90384C14.6944 9.62332 15.0521 10.5721 15.0521 11.6135C15.0521 13.8583 13.3871 15.6782 11.3333 15.6782H8.5C6.44619 15.6782 4.78125 13.8583 4.78125 11.6135Z" fill="#1C274C"/>
</svg>
