<svg width="18" height="18" viewBox="0 0 18 18" fill="none" xmlns="http://www.w3.org/2000/svg">
<path d="M7.3125 9H15.1875" stroke="white" stroke-linecap="round" stroke-linejoin="round"/>
<path d="M7.3125 4.5H15.1875" stroke="white" stroke-linecap="round" stroke-linejoin="round"/>
<path d="M7.3125 13.5H15.1875" stroke="white" stroke-linecap="round" stroke-linejoin="round"/>
<path d="M2.8125 4.21875L3.9375 3.65625V7.59375" stroke="white" stroke-linecap="round" stroke-linejoin="round"/>
<path d="M2.88984 10.7297C2.94168 10.6013 3.01999 10.4854 3.11968 10.3893C3.21938 10.2933 3.3382 10.2194 3.46839 10.1724C3.59859 10.1254 3.73723 10.1064 3.87527 10.1166C4.01331 10.1268 4.14764 10.1661 4.2695 10.2317C4.39135 10.2974 4.498 10.388 4.58246 10.4976C4.66692 10.6073 4.72731 10.7335 4.75968 10.8681C4.79205 11.0027 4.79567 11.1426 4.77031 11.2787C4.74495 11.4147 4.69117 11.5439 4.6125 11.6578L2.8125 14.0625H4.78125" stroke="white" stroke-linecap="round" stroke-linejoin="round"/>
</svg>
