<svg width="18" height="12" viewBox="0 0 18 12" fill="none" xmlns="http://www.w3.org/2000/svg">
<path fill-rule="evenodd" clip-rule="evenodd" d="M0.873698 0.583496H1.95703C2.25619 0.583496 2.4987 0.826 2.4987 1.12516C2.4987 1.42433 2.25619 1.66683 1.95703 1.66683H0.873698C0.574546 1.66683 0.332031 1.42433 0.332031 1.12516C0.332031 0.826 0.574546 0.583496 0.873698 0.583496ZM5.20703 0.583496H17.1237C17.4229 0.583496 17.6654 0.826 17.6654 1.12516C17.6654 1.42433 17.4229 1.66683 17.1237 1.66683H5.20703C4.90787 1.66683 4.66537 1.42433 4.66537 1.12516C4.66537 0.826 4.90787 0.583496 5.20703 0.583496ZM1.95703 7.0835H0.873698C0.574546 7.0835 0.332031 7.326 0.332031 7.62516C0.332031 7.92432 0.574546 8.16683 0.873698 8.16683H1.95703C2.25619 8.16683 2.4987 7.92432 2.4987 7.62516C2.4987 7.326 2.25619 7.0835 1.95703 7.0835ZM5.20703 7.0835H17.1237C17.4229 7.0835 17.6654 7.326 17.6654 7.62516C17.6654 7.92432 17.4229 8.16683 17.1237 8.16683H5.20703C4.90787 8.16683 4.66537 7.92432 4.66537 7.62516C4.66537 7.326 4.90787 7.0835 5.20703 7.0835ZM1.95703 3.8335H0.873698C0.574546 3.8335 0.332031 4.076 0.332031 4.37516C0.332031 4.67432 0.574546 4.91683 0.873698 4.91683H1.95703C2.25619 4.91683 2.4987 4.67432 2.4987 4.37516C2.4987 4.076 2.25619 3.8335 1.95703 3.8335ZM5.20703 3.8335H12.7904C13.0895 3.8335 13.332 4.076 13.332 4.37516C13.332 4.67432 13.0895 4.91683 12.7904 4.91683H5.20703C4.90787 4.91683 4.66537 4.67432 4.66537 4.37516C4.66537 4.076 4.90787 3.8335 5.20703 3.8335ZM1.95703 10.3335H0.873698C0.574546 10.3335 0.332031 10.576 0.332031 10.8752C0.332031 11.1743 0.574546 11.4168 0.873698 11.4168H1.95703C2.25619 11.4168 2.4987 11.1743 2.4987 10.8752C2.4987 10.576 2.25619 10.3335 1.95703 10.3335ZM5.20703 10.3335H12.7904C13.0895 10.3335 13.332 10.576 13.332 10.8752C13.332 11.1743 13.0895 11.4168 12.7904 11.4168H5.20703C4.90787 11.4168 4.66537 11.1743 4.66537 10.8752C4.66537 10.576 4.90787 10.3335 5.20703 10.3335Z" fill="url(#paint0_linear_162_16470)"/>
<defs>
<linearGradient id="paint0_linear_162_16470" x1="8.9987" y1="0.583496" x2="8.9987" y2="11.4168" gradientUnits="userSpaceOnUse">
<stop stop-color="#0033EA"/>
<stop offset="1" stop-color="#8A0074"/>
</linearGradient>
</defs>
</svg>
