<svg width="14" height="14" viewBox="0 0 14 14" fill="none" xmlns="http://www.w3.org/2000/svg">
<g clip-path="url(#clip0_1057_298853)">
<path d="M3.99588 2.36614C3.99588 2.2501 4.04197 2.13882 4.12402 2.05678C4.20607 1.97473 4.31735 1.92864 4.43338 1.92864H13.5625C13.6785 1.92864 13.7898 1.97473 13.8719 2.05678C13.9539 2.13882 14 2.2501 14 2.36614C14 2.48217 13.9539 2.59345 13.8719 2.6755C13.7898 2.75754 13.6785 2.80364 13.5625 2.80364H4.43338C4.31735 2.80364 4.20607 2.75754 4.12402 2.6755C4.04197 2.59345 3.99588 2.48217 3.99588 2.36614ZM3.09165 2.36614C3.09165 2.67187 3.00099 2.97074 2.83113 3.22495C2.66127 3.47916 2.41985 3.67729 2.13739 3.79429C1.85492 3.91129 1.54411 3.9419 1.24425 3.88226C0.944389 3.82261 0.668949 3.67539 0.452762 3.4592C0.236575 3.24301 0.0893492 2.96757 0.0297033 2.66771C-0.0299427 2.36785 0.000669776 2.05704 0.11767 1.77458C0.234669 1.49211 0.432801 1.25069 0.687011 1.08083C0.94122 0.910974 1.24009 0.820313 1.54583 0.820312C1.95565 0.820797 2.34856 0.983816 2.63835 1.27361C2.92815 1.5634 3.09116 1.95631 3.09165 2.36614ZM2.21665 2.36614C2.21664 2.23346 2.1773 2.10377 2.10358 1.99345C2.02987 1.88314 1.9251 1.79716 1.80252 1.7464C1.67994 1.69563 1.54506 1.68235 1.41494 1.70823C1.28481 1.73412 1.16528 1.79801 1.07147 1.89183C0.977657 1.98565 0.91377 2.10518 0.887888 2.2353C0.862007 2.36543 0.875293 2.50031 0.926067 2.62288C0.976841 2.74546 1.06282 2.85023 1.17314 2.92394C1.28345 2.99765 1.41315 3.03699 1.54583 3.03699C1.72368 3.03679 1.8942 2.96605 2.01996 2.84028C2.14573 2.71452 2.21646 2.544 2.21665 2.36614ZM13.5625 6.56376H4.43338C4.31735 6.56376 4.20607 6.60985 4.12402 6.6919C4.04197 6.77395 3.99588 6.88523 3.99588 7.00126C3.99588 7.11729 4.04197 7.22857 4.12402 7.31062C4.20607 7.39266 4.31735 7.43876 4.43338 7.43876H13.5625C13.6785 7.43876 13.7898 7.39266 13.8719 7.31062C13.9539 7.22857 14 7.11729 14 7.00126C14 6.88523 13.9539 6.77395 13.8719 6.6919C13.7898 6.60985 13.6785 6.56376 13.5625 6.56376ZM3.09165 7.00126C3.09164 7.30699 3.00098 7.60586 2.83112 7.86006C2.66126 8.11427 2.41983 8.3124 2.13737 8.42939C1.8549 8.54639 1.54409 8.577 1.24423 8.51735C0.944374 8.4577 0.668937 8.31047 0.452752 8.09428C0.236568 7.87809 0.089345 7.60266 0.0297013 7.3028C-0.0299425 7.00294 0.000671588 6.69212 0.117672 6.40966C0.234673 6.1272 0.432805 5.88578 0.687014 5.71592C0.941223 5.54607 1.24009 5.45541 1.54583 5.45541C1.95566 5.45589 2.34857 5.61891 2.63836 5.90871C2.92816 6.19851 3.09117 6.59142 3.09165 7.00126ZM2.21665 7.00126C2.21665 6.86858 2.17731 6.73888 2.10359 6.62857C2.02988 6.51825 1.92512 6.43227 1.80254 6.3815C1.67996 6.33072 1.54508 6.31744 1.41495 6.34332C1.28483 6.36921 1.1653 6.4331 1.07148 6.52691C0.977664 6.62073 0.913774 6.74026 0.88789 6.87039C0.862006 7.00051 0.875291 7.13539 0.926064 7.25797C0.976837 7.38055 1.06282 7.48532 1.17313 7.55903C1.28345 7.63274 1.41315 7.67208 1.54583 7.67208C1.72368 7.67188 1.89419 7.60114 2.01995 7.47538C2.14571 7.34962 2.21645 7.17911 2.21665 7.00126ZM13.5625 11.1989H4.43338C4.31735 11.1989 4.20607 11.245 4.12402 11.327C4.04197 11.4091 3.99588 11.5203 3.99588 11.6364C3.99588 11.7524 4.04197 11.8637 4.12402 11.9457C4.20607 12.0278 4.31735 12.0739 4.43338 12.0739H13.5625C13.6785 12.0739 13.7898 12.0278 13.8719 11.9457C13.9539 11.8637 14 11.7524 14 11.6364C14 11.5203 13.9539 11.4091 13.8719 11.327C13.7898 11.245 13.6785 11.1989 13.5625 11.1989ZM3.09165 11.6364C3.09165 11.9421 3.00099 12.241 2.83113 12.4952C2.66127 12.7494 2.41985 12.9475 2.13739 13.0645C1.85492 13.1815 1.54411 13.2121 1.24425 13.1525C0.944389 13.0929 0.668949 12.9456 0.452762 12.7294C0.236575 12.5133 0.0893492 12.2378 0.0297033 11.938C-0.0299427 11.6381 0.000669776 11.3273 0.11767 11.0448C0.234669 10.7624 0.432801 10.5209 0.687011 10.3511C0.94122 10.1812 1.24009 10.0906 1.54583 10.0906C1.95565 10.091 2.34855 10.2541 2.63834 10.5438C2.92813 10.8336 3.09116 11.2265 3.09165 11.6364V11.6364ZM2.21665 11.6364C2.21664 11.5037 2.1773 11.374 2.10358 11.2637C2.02987 11.1534 1.9251 11.0674 1.80252 11.0166C1.67994 10.9659 1.54506 10.9526 1.41494 10.9785C1.28481 11.0044 1.16528 11.0683 1.07147 11.1621C0.977657 11.2559 0.91377 11.3754 0.887888 11.5055C0.862007 11.6357 0.875293 11.7706 0.926067 11.8931C0.976841 12.0157 1.06282 12.1205 1.17314 12.1942C1.28345 12.2679 1.41315 12.3072 1.54583 12.3072C1.72369 12.307 1.8942 12.2363 2.01996 12.1105C2.14573 11.9847 2.21646 11.8142 2.21665 11.6364V11.6364Z" fill="#333333"/>
</g>
<defs>
<clipPath id="clip0_1057_298853">
<rect width="14" height="14" fill="white"/>
</clipPath>
</defs>
</svg>
