<svg width="15" height="15" viewBox="0 0 15 15" fill="none" xmlns="http://www.w3.org/2000/svg">
<g clip-path="url(#clip0_0_22571)">
<path d="M12.1875 6.09375C12.1875 5.96943 12.1381 5.8502 12.0502 5.76229C11.9623 5.67439 11.8431 5.625 11.7187 5.625H7.03125C6.90693 5.625 6.7877 5.67439 6.69979 5.76229C6.61189 5.8502 6.5625 5.96943 6.5625 6.09375C6.5625 6.21807 6.61189 6.3373 6.69979 6.42521C6.7877 6.51311 6.90693 6.5625 7.03125 6.5625H11.7187C11.8431 6.5625 11.9623 6.51311 12.0502 6.42521C12.1381 6.3373 12.1875 6.21807 12.1875 6.09375ZM12.1875 8.90625C12.1875 8.78193 12.1381 8.6627 12.0502 8.57479C11.9623 8.48689 11.8431 8.4375 11.7187 8.4375H7.03125C6.90693 8.4375 6.7877 8.48689 6.69979 8.57479C6.61189 8.6627 6.5625 8.78193 6.5625 8.90625C6.5625 9.03057 6.61189 9.1498 6.69979 9.23771C6.7877 9.32561 6.90693 9.375 7.03125 9.375H11.7187C11.8431 9.375 11.9623 9.32561 12.0502 9.23771C12.1381 9.1498 12.1875 9.03057 12.1875 8.90625ZM11.7187 11.25C11.8431 11.25 11.9623 11.2994 12.0502 11.3873C12.1381 11.4752 12.1875 11.5944 12.1875 11.7188C12.1875 11.8431 12.1381 11.9623 12.0502 12.0502C11.9623 12.1381 11.8431 12.1875 11.7187 12.1875H7.03125C6.90693 12.1875 6.7877 12.1381 6.69979 12.0502C6.61189 11.9623 6.5625 11.8431 6.5625 11.7188C6.5625 11.5944 6.61189 11.4752 6.69979 11.3873C6.7877 11.2994 6.90693 11.25 7.03125 11.25H11.7187Z" fill="url(#paint0_linear_0_22571)"/>
<path d="M13.125 0C13.6223 0 14.0992 0.197544 14.4508 0.549175C14.8025 0.900806 15 1.37772 15 1.875V13.125C15 13.6223 14.8025 14.0992 14.4508 14.4508C14.0992 14.8025 13.6223 15 13.125 15H1.875C1.37772 15 0.900806 14.8025 0.549175 14.4508C0.197544 14.0992 0 13.6223 0 13.125V1.875C0 1.37772 0.197544 0.900806 0.549175 0.549175C0.900806 0.197544 1.37772 0 1.875 0L13.125 0ZM1.875 0.9375C1.62636 0.9375 1.3879 1.03627 1.21209 1.21209C1.03627 1.3879 0.9375 1.62636 0.9375 1.875V2.8125H14.0625V1.875C14.0625 1.62636 13.9637 1.3879 13.7879 1.21209C13.6121 1.03627 13.3736 0.9375 13.125 0.9375H1.875ZM0.9375 3.75V13.125C0.9375 13.3736 1.03627 13.6121 1.21209 13.7879C1.3879 13.9637 1.62636 14.0625 1.875 14.0625H3.75V3.75H0.9375ZM4.6875 3.75V14.0625H13.125C13.3736 14.0625 13.6121 13.9637 13.7879 13.7879C13.9637 13.6121 14.0625 13.3736 14.0625 13.125V3.75H4.6875Z" fill="url(#paint1_linear_0_22571)"/>
</g>
<defs>
<linearGradient id="paint0_linear_0_22571" x1="9.375" y1="5.625" x2="9.375" y2="12.1875" gradientUnits="userSpaceOnUse">
<stop stop-color="#000AFF"/>
<stop offset="1" stop-color="#D274FF"/>
</linearGradient>
<linearGradient id="paint1_linear_0_22571" x1="7.5" y1="0" x2="7.5" y2="15" gradientUnits="userSpaceOnUse">
<stop stop-color="#000AFF"/>
<stop offset="1" stop-color="#D274FF"/>
</linearGradient>
<clipPath id="clip0_0_22571">
<rect width="15" height="15" fill="white"/>
</clipPath>
</defs>
</svg>
