<svg width="20" height="20" viewBox="0 0 20 20" fill="none" xmlns="http://www.w3.org/2000/svg">
<g clip-path="url(#clip0_45_14724)">
<path opacity="0.6" d="M9.99988 0C9.0875 0 8.34766 0.739531 8.34766 1.65187C8.34766 2.5643 9.0875 3.30375 9.99988 3.30375C10.9123 3.30375 11.6514 2.5643 11.6514 1.65187C11.6514 0.739531 10.9123 0 9.99988 0Z" fill="#645DF6"/>
<path d="M9.99988 16.6963C9.0875 16.6963 8.34766 17.4358 8.34766 18.3482C8.34766 19.2606 9.0875 20 9.99988 20C10.9123 20 11.6514 19.2606 11.6514 18.3482C11.6514 17.4358 10.9123 16.6963 9.99988 16.6963Z" fill="#645DF6"/>
<path opacity="0.5" d="M2.9293 2.92905C2.28398 3.57401 2.28398 4.61991 2.9293 5.26522C3.57461 5.91054 4.6202 5.91054 5.26547 5.26522C5.91078 4.62026 5.91078 3.57437 5.26547 2.92905C4.6202 2.28374 3.57461 2.28374 2.9293 2.92905Z" fill="#645DF6"/>
<path opacity="0.9" d="M14.7335 14.7348C14.0888 15.3801 14.0888 16.4261 14.7335 17.0713C15.3788 17.7167 16.425 17.7167 17.0697 17.0713C17.715 16.4264 17.715 15.3801 17.0697 14.7348C16.4243 14.0895 15.3788 14.0899 14.7335 14.7348Z" fill="#645DF6"/>
<path opacity="0.4" d="M3.30305 9.99991C3.30375 9.08788 2.56391 8.34839 1.65152 8.34839C0.739141 8.34804 -0.000702624 9.08792 5.01232e-07 10.0003C-0.000702624 10.9123 0.738438 11.6518 1.65152 11.6518C2.56391 11.6518 3.30305 10.9123 3.30305 9.99991Z" fill="#645DF6"/>
<path opacity="0.8" d="M18.3475 8.34814C17.4352 8.34814 16.696 9.08803 16.6953 10C16.6953 10.9124 17.4352 11.6519 18.3475 11.6522C19.2599 11.6522 19.9998 10.9124 19.9991 10C19.9998 9.08799 19.2599 8.34814 18.3475 8.34814Z" fill="#645DF6"/>
<path opacity="0.3" d="M2.92927 14.7352C2.28399 15.3802 2.28399 16.4265 2.92927 17.0714C3.57392 17.7167 4.6195 17.7167 5.26478 17.0714C5.91009 16.4261 5.91009 15.3802 5.26478 14.7349C4.62017 14.0896 3.57458 14.0896 2.92927 14.7352Z" fill="#645DF6"/>
<path opacity="0.7" d="M17.0706 5.26555C17.7159 4.62024 17.7159 3.57399 17.0706 2.92868C16.4253 2.28372 15.379 2.28336 14.7337 2.92868C14.0884 3.57399 14.0891 4.61989 14.7337 5.2652C15.379 5.91051 16.4253 5.91051 17.0706 5.26555Z" fill="#645DF6"/>
</g>
<defs>
<clipPath id="clip0_45_14724">
<rect width="20" height="20" fill="white"/>
</clipPath>
</defs>
</svg>
