<svg width="12" height="16" viewBox="0 0 12 16" fill="none" xmlns="http://www.w3.org/2000/svg">
<path d="M5.845 0.877808C2.61207 0.901837 0 3.52689 0 6.76372C0 8.34122 0.672824 9.86742 1.66193 10.9377L5.8463 15.1221L10.0151 10.952C11.012 9.88171 11.69 8.34967 11.69 6.76372C11.6894 3.52754 9.07728 0.901837 5.845 0.877808ZM9.07923 10.0519L5.8463 13.2854L2.59973 10.0389C1.78467 9.14718 1.29889 7.92493 1.29889 6.76372C1.29889 4.25622 3.33749 2.20073 5.845 2.17735C8.35186 2.20073 10.3905 4.25687 10.3911 6.76372C10.3911 7.93337 9.90078 9.16082 9.07923 10.0519Z" fill="#3159E6"/>
<path d="M5.8449 4.08215C4.38625 4.08215 3.20361 5.26479 3.20361 6.72344C3.20361 8.1821 4.38625 9.36473 5.8449 9.36473C7.30356 9.36473 8.48619 8.1821 8.48619 6.72344C8.48619 5.26414 7.30356 4.08215 5.8449 4.08215ZM5.8449 8.0652C5.10454 8.0652 4.5025 7.46316 4.5025 6.72279C4.5025 5.98243 5.10454 5.38039 5.8449 5.38039C6.58527 5.38039 7.18731 5.98243 7.18731 6.72279C7.18731 7.46316 6.58527 8.0652 5.8449 8.0652Z" fill="#3159E6"/>
</svg>
