<svg width="26" height="27" viewBox="0 0 26 27" fill="none" xmlns="http://www.w3.org/2000/svg">
<g clip-path="url(#clip0_987_197315)">
<path d="M14.3978 16.3892L11.917 17.9384V4.62748L15.167 3.00248V9.46781C15.4786 9.02694 15.8423 8.62536 16.2503 8.27181V2.99923L19.5263 4.62748L19.5231 6.76598C19.8737 6.70797 20.2283 6.67754 20.5837 6.67498L20.6053 6.67606L20.6107 3.95689L15.7087 1.51831L11.3753 3.68498L7.04199 1.51831L2.16699 3.95689V19.8916L7.04199 16.8464L11.3753 19.5547L14.7878 17.4227C14.6419 17.0725 14.5119 16.7276 14.3978 16.3881V16.3892ZM6.50033 15.9082L3.24924 17.9406L3.22433 4.62639L6.50033 3.00031V15.9082ZM10.8337 17.9395L7.58366 15.9082V3.00139L10.8337 4.62639V17.9395ZM20.5837 8.08331C19.8719 8.09169 19.1689 8.24141 18.5154 8.52378C17.862 8.80615 17.2712 9.21554 16.7773 9.72817C16.2834 10.2408 15.8963 10.8464 15.6385 11.5099C15.3806 12.1734 15.2572 12.8815 15.2753 13.5931C15.2753 16.6341 18.1765 20.7496 20.5837 25.4166C22.9908 20.7496 25.892 16.6341 25.892 13.5931C25.9101 12.8815 25.7867 12.1734 25.5288 11.5099C25.271 10.8464 24.8839 10.2408 24.39 9.72817C23.8961 9.21554 23.3053 8.80615 22.6519 8.52378C21.9985 8.24141 21.2954 8.09169 20.5837 8.08331ZM20.5837 23.1167C20.2608 22.5285 19.9358 21.95 19.6195 21.3834C17.9425 18.3912 16.3587 15.5659 16.3587 13.5931C16.3296 13.0203 16.4174 12.4476 16.6166 11.9097C16.8159 11.3719 17.1224 10.8801 17.5176 10.4644C17.9128 10.0487 18.3883 9.71772 18.9154 9.49153C19.4425 9.26535 20.0101 9.14872 20.5837 9.14872C21.1572 9.14872 21.7248 9.26535 22.2519 9.49153C22.779 9.71772 23.2546 10.0487 23.6497 10.4644C24.0449 10.8801 24.3514 11.3719 24.5507 11.9097C24.7499 12.4476 24.8377 13.0203 24.8087 13.5931C24.8087 15.5648 23.2248 18.3912 21.5478 21.3823C21.2315 21.95 20.9065 22.5285 20.5837 23.1167ZM20.5837 11.1535C20.118 11.1457 19.6605 11.2767 19.2696 11.5298C18.8786 11.7829 18.5718 12.1466 18.3882 12.5747C18.2046 13.0027 18.1525 13.4757 18.2386 13.9334C18.3247 14.3911 18.545 14.8128 18.8716 15.1449C19.1981 15.477 19.6161 15.7044 20.0723 15.7981C20.5286 15.8919 21.0023 15.8477 21.4334 15.6713C21.8644 15.4949 22.2332 15.1943 22.4928 14.8076C22.7524 14.4209 22.8911 13.9657 22.8912 13.5C22.8939 13.1944 22.8363 12.8912 22.7218 12.6078C22.6073 12.3244 22.438 12.0664 22.2237 11.8485C22.0094 11.6306 21.7543 11.457 21.4729 11.3378C21.1914 11.2185 20.8893 11.1559 20.5837 11.1535ZM20.5837 14.7631C20.332 14.7711 20.0837 14.7038 19.8706 14.5698C19.6574 14.4357 19.4892 14.2411 19.3874 14.0109C19.2855 13.7806 19.2548 13.5252 19.299 13.2773C19.3433 13.0295 19.4605 12.8005 19.6357 12.6197C19.8109 12.4389 20.0361 12.3145 20.2825 12.2625C20.5288 12.2105 20.7851 12.2333 21.0184 12.3278C21.2518 12.4224 21.4515 12.5845 21.5922 12.7933C21.7328 13.0021 21.8079 13.2482 21.8078 13.5C21.8125 13.8297 21.6862 14.1477 21.4568 14.3845C21.2273 14.6213 20.9133 14.7574 20.5837 14.7631Z" fill="url(#paint0_linear_987_197315)"/>
</g>
<defs>
<linearGradient id="paint0_linear_987_197315" x1="14.0304" y1="1.51831" x2="14.0304" y2="25.4166" gradientUnits="userSpaceOnUse">
<stop stop-color="#0033EA"/>
<stop offset="1" stop-color="#8A0074"/>
</linearGradient>
<clipPath id="clip0_987_197315">
<rect width="26" height="26" fill="white" transform="translate(0 0.5)"/>
</clipPath>
</defs>
</svg>
