<svg width="18" height="19" viewBox="0 0 18 19" fill="none" xmlns="http://www.w3.org/2000/svg">
<path d="M9 11.75C9.77665 11.75 10.4062 11.1204 10.4062 10.3438C10.4062 9.5671 9.77665 8.9375 9 8.9375C8.22335 8.9375 7.59375 9.5671 7.59375 10.3438C7.59375 11.1204 8.22335 11.75 9 11.75Z" stroke="#645DF6" stroke-width="1.2" stroke-linecap="round" stroke-linejoin="round"/>
<path d="M9 11.75V13.4375" stroke="#645DF6" stroke-width="1.2" stroke-linecap="round" stroke-linejoin="round"/>
<path d="M14.625 6.6875H3.375C3.06434 6.6875 2.8125 6.93934 2.8125 7.25V15.125C2.8125 15.4357 3.06434 15.6875 3.375 15.6875H14.625C14.9357 15.6875 15.1875 15.4357 15.1875 15.125V7.25C15.1875 6.93934 14.9357 6.6875 14.625 6.6875Z" stroke="#645DF6" stroke-width="1.2" stroke-linecap="round" stroke-linejoin="round"/>
<path d="M6.46875 6.6875V4.15625C6.46875 3.48492 6.73543 2.84109 7.21014 2.36639C7.68484 1.89168 8.32867 1.625 9 1.625C9.67133 1.625 10.3152 1.89168 10.7899 2.36639C11.2646 2.84109 11.5312 3.48492 11.5312 4.15625" stroke="#645DF6" stroke-width="1.2" stroke-linecap="round" stroke-linejoin="round"/>
</svg>
