<svg width="8" height="11" viewBox="0 0 8 11" fill="none" xmlns="http://www.w3.org/2000/svg">
<path d="M6.13028 3.90108V2.28492C6.13028 1.025 5.10527 0 3.84535 0C2.58544 0 1.56043 1.025 1.56043 2.28492V3.90108H0V10.8116H7.69071V3.90108H6.13028ZM2.22919 2.28492C2.22919 1.39376 2.95419 0.668757 3.84535 0.668757C4.73652 0.668757 5.46152 1.39376 5.46152 2.28492V3.90108H2.22919V2.28492ZM7.02195 10.1428H0.668757V4.56984H7.02195V10.1428Z" fill="#EE7200"/>
<path d="M3.51102 7.53556V8.72969H4.17978V7.53553C4.44314 7.41008 4.62562 7.14137 4.62562 6.83075C4.62562 6.40054 4.27561 6.05054 3.8454 6.05054C3.41519 6.05054 3.06519 6.40054 3.06519 6.83075C3.06519 7.14139 3.24767 7.41012 3.51102 7.53556Z" fill="#EE7200"/>
</svg>
