<svg width="59" height="28" viewBox="0 0 59 28" fill="none" xmlns="http://www.w3.org/2000/svg">
<circle cx="31" cy="14" r="14" fill="white"/>
<path d="M29.1426 14.2877C29.6892 15.4166 30.6021 16.3271 31.7324 16.8709C31.8158 16.9104 31.908 16.9274 32 16.9205C32.092 16.9135 32.1806 16.8827 32.257 16.831L33.9172 15.722C33.9905 15.6723 34.0753 15.6419 34.1635 15.6338C34.2518 15.6257 34.3407 15.6401 34.4219 15.6756L37.5297 17.0103C37.6359 17.0545 37.7246 17.1324 37.7822 17.232C37.8398 17.3316 37.8631 17.4474 37.8484 17.5615C37.7499 18.3303 37.3747 19.0369 36.7929 19.549C36.2111 20.0612 35.4626 20.3437 34.6875 20.3439C32.2923 20.3439 29.9951 19.3924 28.3014 17.6987C26.6078 16.005 25.6562 13.7079 25.6562 11.3127C25.6564 10.5376 25.939 9.7891 26.4511 9.2073C26.9633 8.6255 27.6699 8.25024 28.4387 8.15174C28.5528 8.13708 28.6685 8.16034 28.7681 8.21794C28.8677 8.27553 28.9456 8.36427 28.9898 8.47049L30.3246 11.5849C30.3593 11.6649 30.3738 11.7521 30.3669 11.8389C30.3599 11.9258 30.3317 12.0096 30.2848 12.083L29.1758 13.7697C29.1264 13.846 29.0974 13.9337 29.0916 14.0244C29.0858 14.115 29.1034 14.2057 29.1426 14.2877V14.2877Z" stroke="#2D50C8" stroke-width="1.2" stroke-linecap="round" stroke-linejoin="round"/>
<path d="M34.1562 9.1875H36.8125V11.8438" stroke="#2D50C8" stroke-width="1.2" stroke-linecap="round" stroke-linejoin="round"/>
<path d="M33.625 12.375L36.8125 9.1875" stroke="#2D50C8" stroke-width="1.2" stroke-linecap="round" stroke-linejoin="round"/>
<circle cx="50" cy="15" r="2" fill="#2D50C8"/>
<circle cx="57" cy="15" r="2" fill="#2D50C8"/>
<circle cx="2" cy="15" r="2" fill="#2D50C8"/>
<circle cx="9" cy="15" r="2" fill="#2D50C8"/>
</svg>
