<svg width="40" height="40" viewBox="0 0 40 40" fill="none" xmlns="http://www.w3.org/2000/svg">
<rect width="40" height="40" rx="8" fill="#6675FF"/>
<path d="M19.9375 30.875C19.7303 30.875 19.5316 30.7927 19.3851 30.6462C19.2386 30.4996 19.1562 30.3009 19.1562 30.0937C19.1562 29.8865 19.2386 29.6878 19.3851 29.5413C19.5316 29.3948 19.7303 29.3125 19.9375 29.3125C21.7159 29.3144 23.4582 28.8104 24.9609 27.8594C25.0468 27.793 25.1456 27.7453 25.251 27.7192C25.3564 27.6932 25.466 27.6894 25.573 27.7081C25.6799 27.7268 25.7818 27.7675 25.8721 27.8278C25.9624 27.888 26.0391 27.9664 26.0974 28.058C26.1557 28.1495 26.1943 28.2522 26.2108 28.3595C26.2272 28.4668 26.221 28.5764 26.1928 28.6812C26.1645 28.786 26.1147 28.8837 26.0465 28.9682C25.9783 29.0527 25.8933 29.1221 25.7969 29.1719C24.0467 30.2879 22.0133 30.879 19.9375 30.875Z" fill="white"/>
<path d="M28.5314 26.1328C28.3918 26.1331 28.2546 26.096 28.1343 26.0253C28.0139 25.9546 27.9146 25.853 27.8468 25.731C27.7791 25.6089 27.7452 25.471 27.7488 25.3314C27.7524 25.1919 27.7933 25.0559 27.8673 24.9375C28.8113 23.4407 29.3124 21.7072 29.3126 19.9375C29.3126 19.7303 29.3949 19.5316 29.5414 19.3851C29.6879 19.2386 29.8867 19.1562 30.0939 19.1562C30.3011 19.1562 30.4998 19.2386 30.6463 19.3851C30.7928 19.5316 30.8751 19.7303 30.8751 19.9375C30.8758 21.9997 30.2935 24.0201 29.1954 25.7656C29.125 25.8782 29.0271 25.971 28.911 26.0353C28.7948 26.0995 28.6641 26.1331 28.5314 26.1328Z" fill="white"/>
<path d="M19.9375 30.875C17.7743 30.875 15.6596 30.2335 13.861 29.0317C12.0623 27.8299 10.6604 26.1217 9.83257 24.1231C9.00474 22.1245 8.78814 19.9254 9.21017 17.8037C9.63219 15.682 10.6739 13.7332 12.2035 12.2035C13.7332 10.6739 15.682 9.63219 17.8037 9.21017C19.9254 8.78814 22.1245 9.00474 24.1231 9.83257C26.1217 10.6604 27.8299 12.0623 29.0317 13.861C30.2335 15.6596 30.875 17.7743 30.875 19.9375C30.875 20.1447 30.7927 20.3434 30.6462 20.4899C30.4997 20.6364 30.301 20.7188 30.0938 20.7188C29.8866 20.7188 29.6878 20.6364 29.5413 20.4899C29.3948 20.3434 29.3125 20.1447 29.3125 19.9375C29.3125 18.0833 28.7627 16.2707 27.7325 14.729C26.7024 13.1873 25.2382 11.9857 23.5252 11.2761C21.8121 10.5666 19.9271 10.3809 18.1085 10.7426C16.29 11.1044 14.6195 11.9973 13.3084 13.3084C11.9973 14.6195 11.1044 16.29 10.7426 18.1085C10.3809 19.9271 10.5666 21.8121 11.2761 23.5252C11.9857 25.2382 13.1873 26.7024 14.729 27.7325C16.2707 28.7627 18.0833 29.3125 19.9375 29.3125C20.1447 29.3125 20.3434 29.3948 20.4899 29.5413C20.6364 29.6878 20.7188 29.8866 20.7188 30.0938C20.7188 30.301 20.6364 30.4997 20.4899 30.6462C20.3434 30.7927 20.1447 30.875 19.9375 30.875Z" fill="white"/>
<path d="M30.0937 30.875C30.009 30.8728 29.925 30.8597 29.8437 30.8359L25.1562 29.2734C25.0587 29.2406 24.9687 29.1889 24.8912 29.1212C24.8137 29.0536 24.7503 28.9714 24.7046 28.8792C24.6589 28.7871 24.6318 28.6869 24.6248 28.5843C24.6179 28.4817 24.6312 28.3787 24.664 28.2812C24.6969 28.1837 24.7486 28.0937 24.8162 28.0162C24.8838 27.9387 24.966 27.8753 25.0582 27.8296C25.1503 27.7839 25.2505 27.7568 25.3532 27.7498C25.4558 27.7429 25.5587 27.7562 25.6562 27.789L30.3437 29.3515C30.4448 29.3801 30.5392 29.4287 30.6211 29.4945C30.7029 29.5603 30.7707 29.642 30.8203 29.7346C30.8699 29.8273 30.9003 29.929 30.9097 30.0336C30.9191 30.1383 30.9073 30.2437 30.875 30.3437C30.8206 30.5054 30.7148 30.6449 30.5737 30.7408C30.4327 30.8367 30.2641 30.8839 30.0937 30.875Z" fill="white"/>
<path d="M30.0937 30.875C29.9299 30.8754 29.7702 30.8243 29.637 30.729C29.5038 30.6337 29.4039 30.4989 29.3515 30.3437L27.789 25.6562C27.7562 25.5587 27.7429 25.4558 27.7498 25.3532C27.7568 25.2505 27.7839 25.1503 27.8296 25.0582C27.8753 24.966 27.9387 24.8838 28.0162 24.8162C28.0937 24.7486 28.1837 24.6969 28.2812 24.664C28.3787 24.6312 28.4817 24.6179 28.5843 24.6248C28.6869 24.6318 28.7871 24.6589 28.8792 24.7046C28.9714 24.7503 29.0536 24.8137 29.1212 24.8912C29.1889 24.9687 29.2406 25.0587 29.2734 25.1562L30.8359 29.8437C30.8751 29.9434 30.8935 30.0502 30.8897 30.1573C30.8859 30.2644 30.8602 30.3696 30.814 30.4663C30.7678 30.5631 30.7022 30.6493 30.6213 30.7196C30.5404 30.7898 30.4459 30.8427 30.3437 30.875C30.2607 30.8857 30.1767 30.8857 30.0937 30.875Z" fill="white"/>
<path d="M19.5383 20.8428H22.6088C22.3223 22.0856 21.4148 22.8005 20.1115 22.8005C18.433 22.8005 17.348 21.678 17.348 19.9475C17.348 18.2571 18.4261 17.1146 20.0364 17.1146C20.9781 17.1146 21.715 17.5088 22.1107 18.2304L22.1176 18.2437H24.2396L24.226 18.2036C23.6528 16.4731 22.0834 15.4375 20.0296 15.4375C18.7605 15.4375 17.6005 15.8852 16.7544 16.7003C15.9015 17.5221 15.4375 18.678 15.4375 19.9408C15.4375 22.5466 17.3753 24.4375 20.0433 24.4375C20.1729 24.4375 20.2957 24.4308 20.4185 24.4241C22.6703 24.2571 24.4375 22.3662 24.4375 20.1212V19.433H19.5315V20.8428H19.5383Z" fill="white"/>
</svg>
