<svg width="44" height="44" viewBox="0 0 44 44" fill="none" xmlns="http://www.w3.org/2000/svg">
<rect width="44" height="44" rx="6" fill="#A5ABB9"/>
<path d="M16.0204 26.0695H21.2769C20.7863 28.197 19.2327 29.4209 17.0016 29.4209C14.128 29.4209 12.2707 27.4993 12.2707 24.5368C12.2707 21.6429 14.1163 19.6869 16.8731 19.6869C18.4851 19.6869 19.7466 20.3618 20.4241 21.5971L20.4358 21.62H24.0687L24.0453 21.5514C23.0641 18.5889 20.3774 16.8159 16.8614 16.8159C14.6887 16.8159 12.7029 17.5823 11.2545 18.9778C9.79432 20.3847 9 22.3635 9 24.5253C9 28.9863 12.3174 32.2233 16.8848 32.2233C17.1067 32.2233 17.317 32.2119 17.5272 32.2004C21.382 31.9145 24.4074 28.6774 24.4074 24.8342V23.656H16.0087V26.0695H16.0204Z" fill="white"/>
<path fill-rule="evenodd" clip-rule="evenodd" d="M27.7673 15.0115C28.0494 15.3242 27.9599 15.6785 27.7105 16.0146C27.6514 16.0943 27.5832 16.1729 27.5009 16.2594C27.4614 16.3009 27.4305 16.3321 27.3661 16.3967C27.2197 16.5432 27.0967 16.6663 26.9969 16.766C26.9486 16.8144 27.2788 17.4742 27.9195 18.1156C28.56 18.7566 29.2197 19.087 29.2683 19.0384L29.6372 18.6693C29.8404 18.466 29.9479 18.3679 30.0958 18.2709C30.4031 18.0693 30.7383 18.0145 31.021 18.2673C31.9441 18.9276 32.4665 19.3328 32.7224 19.5987C33.2216 20.1173 33.1561 20.9157 32.7252 21.3711C32.5758 21.529 32.3864 21.7186 32.1626 21.9343C30.809 23.2886 27.9524 22.4644 25.763 20.273C23.5732 18.081 22.7495 15.2241 24.1002 13.8726C24.3427 13.6263 24.4227 13.5464 24.6588 13.3137C25.0985 12.8804 25.9337 12.8126 26.4414 13.3141C26.7085 13.5779 27.1342 14.1257 27.7673 15.0115ZM30.3178 19.3501L29.9488 19.7193C29.3216 20.3468 28.2535 19.8119 27.2389 18.7963C26.2236 17.78 25.6893 16.7123 26.3167 16.0849C26.4163 15.9854 26.5392 15.8624 26.6855 15.716C26.7445 15.6569 26.7715 15.6295 26.8039 15.5955C26.848 15.5491 26.8843 15.5083 26.9133 15.4723C26.3523 14.6907 25.9709 14.2024 25.7653 13.9993C25.6591 13.8944 25.4214 13.9137 25.3341 13.9997C25.1013 14.2291 25.0248 14.3056 24.7832 14.5509C23.9146 15.42 24.5796 17.7263 26.4437 19.5923C28.3072 21.4576 30.6131 22.1229 31.4884 21.2473C31.7087 21.0348 31.8882 20.8552 32.0264 20.7092C32.1262 20.6036 32.1441 20.3859 32.0292 20.2665C31.8379 20.0678 31.3696 19.7026 30.561 19.1219C30.502 19.1694 30.4296 19.2382 30.3178 19.3501ZM32.1124 14.607L29.5643 17.1552L28.8834 16.4744L31.4316 13.9262H29.7053V12.9633H33.0753V16.3334H32.1124V14.607Z" fill="white"/>
</svg>
