<svg width="33" height="33" viewBox="0 0 33 33" fill="none" xmlns="http://www.w3.org/2000/svg">
<path d="M0 9C0 4.02944 4.02944 0 9 0H23.8155C28.786 0 32.8155 4.02944 32.8155 9V32.059H8.99999C4.02943 32.059 0 28.0296 0 23.059V9Z" fill="url(#paint0_linear_212_19231)"/>
<path d="M16.5 22.3C15.0413 22.3 13.6424 21.7205 12.6109 20.6891C11.5795 19.6576 11 18.2587 11 16.8C11 16.6541 11.0579 16.5142 11.1611 16.4111C11.2642 16.3079 11.4041 16.25 11.55 16.25C11.6959 16.25 11.8358 16.3079 11.9389 16.4111C12.0421 16.5142 12.1 16.6541 12.1 16.8C12.1 17.967 12.5636 19.0861 13.3887 19.9113C14.2139 20.7364 15.333 21.2 16.5 21.2C17.667 21.2 18.7861 20.7364 19.6113 19.9113C20.4364 19.0861 20.9 17.967 20.9 16.8C20.9 16.6541 20.9579 16.5142 21.0611 16.4111C21.1642 16.3079 21.3041 16.25 21.45 16.25C21.5959 16.25 21.7358 16.3079 21.8389 16.4111C21.9421 16.5142 22 16.6541 22 16.8C22 18.2587 21.4205 19.6576 20.3891 20.6891C19.3576 21.7205 17.9587 22.3 16.5 22.3Z" fill="white"/>
<path d="M16.5 24.499C16.3541 24.499 16.2142 24.4411 16.111 24.3379C16.0079 24.2348 15.95 24.0949 15.95 23.949V21.749C15.95 21.6031 16.0079 21.4632 16.111 21.3601C16.2142 21.257 16.3541 21.199 16.5 21.199C16.6458 21.199 16.7857 21.257 16.8889 21.3601C16.992 21.4632 17.05 21.6031 17.05 21.749V23.949C17.05 24.0949 16.992 24.2348 16.8889 24.3379C16.7857 24.4411 16.6458 24.499 16.5 24.499Z" fill="white"/>
<path d="M16.5 20.1C15.6247 20.1 14.7854 19.7523 14.1665 19.1335C13.5476 18.5146 13.2 17.6752 13.2 16.8V11.3C13.2 10.4248 13.5476 9.58542 14.1665 8.96655C14.7854 8.34768 15.6247 8 16.5 8C17.3752 8 18.2145 8.34768 18.8334 8.96655C19.4523 9.58542 19.8 10.4248 19.8 11.3V16.8C19.8 17.6752 19.4523 18.5146 18.8334 19.1335C18.2145 19.7523 17.3752 20.1 16.5 20.1ZM16.5 9.1C15.9165 9.1 15.3569 9.33178 14.9443 9.74436C14.5317 10.1569 14.3 10.7165 14.3 11.3V16.8C14.3 17.3835 14.5317 17.9431 14.9443 18.3556C15.3569 18.7682 15.9165 19 16.5 19C17.0834 19 17.643 18.7682 18.0556 18.3556C18.4682 17.9431 18.7 17.3835 18.7 16.8V11.3C18.7 10.7165 18.4682 10.1569 18.0556 9.74436C17.643 9.33178 17.0834 9.1 16.5 9.1Z" fill="white"/>
<defs>
<linearGradient id="paint0_linear_212_19231" x1="33.2025" y1="35.6562" x2="3.70245" y2="5.15625" gradientUnits="userSpaceOnUse">
<stop stop-color="#24E866"/>
<stop offset="1" stop-color="#0075FF"/>
</linearGradient>
</defs>
</svg>
