<svg width="38" height="38" viewBox="0 0 38 38" fill="none" xmlns="http://www.w3.org/2000/svg">
<rect x="3.04028" y="1.52014" width="31.92" height="31.92" rx="15.96" fill="#F7476E"/>
<path d="M19.978 34.3677C19.6631 34.3677 19.361 34.2426 19.1383 34.0199C18.9156 33.7972 18.7905 33.4951 18.7905 33.1802C18.7905 32.8652 18.9156 32.5632 19.1383 32.3405C19.361 32.1178 19.6631 31.9927 19.978 31.9927C22.6812 31.9956 25.3295 31.2295 27.6137 29.7839C27.7442 29.6831 27.8944 29.6105 28.0546 29.5709C28.2148 29.5314 28.3814 29.5256 28.544 29.554C28.7065 29.5824 28.8613 29.6444 28.9986 29.7359C29.1358 29.8275 29.2525 29.9467 29.3411 30.0858C29.4298 30.225 29.4884 30.3811 29.5134 30.5442C29.5383 30.7073 29.529 30.8738 29.486 31.0331C29.443 31.1924 29.3673 31.341 29.2637 31.4694C29.1601 31.5978 29.0309 31.7032 28.8843 31.7789C26.224 33.4753 23.1332 34.3737 19.978 34.3677V34.3677Z" fill="#F7476E"/>
<path d="M33.0407 27.1596C32.8285 27.16 32.6201 27.1035 32.4371 26.9961C32.2542 26.8887 32.1033 26.7342 32.0003 26.5488C31.8972 26.3633 31.8458 26.1536 31.8512 25.9415C31.8567 25.7294 31.9189 25.5226 32.0313 25.3427C33.4663 23.0675 34.2279 20.4326 34.2282 17.7427C34.2282 17.4277 34.3533 17.1257 34.576 16.903C34.7987 16.6803 35.1008 16.5552 35.4157 16.5552C35.7307 16.5552 36.0327 16.6803 36.2554 16.903C36.4781 17.1257 36.6032 17.4277 36.6032 17.7427C36.6043 20.8772 35.7192 23.9482 34.0501 26.6014C33.9431 26.7726 33.7943 26.9136 33.6177 27.0113C33.4411 27.1089 33.2425 27.16 33.0407 27.1596V27.1596Z" fill="#F7476E"/>
<path d="M19.978 34.3677C16.6899 34.3677 13.4756 33.3926 10.7417 31.5659C8.00771 29.7391 5.87684 27.1426 4.61854 24.1048C3.36023 21.067 3.031 17.7242 3.67248 14.4993C4.31396 11.2744 5.89734 8.31208 8.22238 5.98703C10.5474 3.66199 13.5097 2.07861 16.7347 1.43713C19.9596 0.795649 23.3023 1.12488 26.3401 2.38319C29.378 3.64149 31.9744 5.77236 33.8012 8.50633C35.628 11.2403 36.603 14.4546 36.603 17.7427C36.603 18.0576 36.4779 18.3597 36.2552 18.5824C36.0325 18.8051 35.7305 18.9302 35.4155 18.9302C35.1006 18.9302 34.7985 18.8051 34.5758 18.5824C34.3531 18.3597 34.228 18.0576 34.228 17.7427C34.228 14.9243 33.3923 12.1692 31.8265 9.82581C30.2607 7.48241 28.0351 5.65595 25.4313 4.5774C22.8274 3.49885 19.9622 3.21665 17.198 3.76649C14.4338 4.31633 11.8947 5.67351 9.90176 7.66641C7.90887 9.65931 6.55168 12.1984 6.00184 14.9626C5.45201 17.7269 5.7342 20.5921 6.81275 23.1959C7.8913 25.7998 9.71776 28.0253 12.0612 29.5911C14.4046 31.1569 17.1597 31.9927 19.978 31.9927C20.293 31.9927 20.595 32.1178 20.8177 32.3405C21.0404 32.5632 21.1655 32.8652 21.1655 33.1802C21.1655 33.4951 21.0404 33.7972 20.8177 34.0199C20.595 34.2426 20.293 34.3677 19.978 34.3677Z" fill="#F7476E"/>
<path d="M35.4155 34.3677C35.2868 34.3644 35.1591 34.3445 35.0355 34.3083L27.9105 31.9333C27.7624 31.8834 27.6255 31.8048 27.5077 31.702C27.3899 31.5992 27.2936 31.4742 27.2241 31.3342C27.1546 31.1941 27.1134 31.0418 27.1028 30.8858C27.0922 30.7298 27.1125 30.5733 27.1624 30.4252C27.2123 30.277 27.2909 30.1401 27.3937 30.0224C27.4965 29.9046 27.6215 29.8082 27.7615 29.7387C27.9015 29.6693 28.0539 29.6281 28.2099 29.6175C28.3658 29.6069 28.5224 29.6271 28.6705 29.677L35.7955 32.052C35.9492 32.0954 36.0926 32.1693 36.2171 32.2694C36.3415 32.3694 36.4446 32.4936 36.5199 32.6344C36.5953 32.7752 36.6415 32.9297 36.6558 33.0888C36.6701 33.2479 36.6521 33.4082 36.603 33.5602C36.5204 33.8059 36.3596 34.0179 36.1451 34.1637C35.9307 34.3096 35.6745 34.3812 35.4155 34.3677Z" fill="#F7476E"/>
<path d="M35.4155 34.3677C35.1666 34.3683 34.9237 34.2907 34.7213 34.1458C34.5188 34.0009 34.367 33.796 34.2874 33.5602L31.9124 26.4352C31.8625 26.287 31.8422 26.1305 31.8528 25.9745C31.8634 25.8185 31.9046 25.6662 31.9741 25.5261C32.0436 25.3861 32.1399 25.2611 32.2577 25.1583C32.3755 25.0555 32.5124 24.9769 32.6605 24.927C32.8087 24.8771 32.9652 24.8569 33.1211 24.8675C33.2771 24.8781 33.4295 24.9193 33.5695 24.9887C33.7096 25.0582 33.8345 25.1546 33.9373 25.2724C34.0401 25.3901 34.1187 25.527 34.1686 25.6752L36.5436 32.8002C36.6033 32.9517 36.6311 33.114 36.6254 33.2768C36.6197 33.4396 36.5805 33.5995 36.5103 33.7465C36.4402 33.8936 36.3405 34.0246 36.2175 34.1314C36.0945 34.2383 35.9509 34.3187 35.7955 34.3677C35.6694 34.3839 35.5416 34.3839 35.4155 34.3677V34.3677Z" fill="#F7476E"/>
<path d="M19.3712 19.1188H24.0384C23.6028 21.0078 22.2234 22.0945 20.2424 22.0945C17.691 22.0945 16.042 20.3883 16.042 17.7579C16.042 15.1885 17.6807 13.4518 20.1283 13.4518C21.5596 13.4518 22.6797 14.051 23.2813 15.1479L23.2916 15.1682H26.5172L26.4964 15.1073C25.6252 12.4769 23.2398 10.9027 20.118 10.9027C18.1889 10.9027 16.4257 11.5832 15.1396 12.8222C13.8432 14.0714 13.1379 15.8283 13.1379 17.7478C13.1379 21.7086 16.0834 24.5827 20.1387 24.5827C20.3358 24.5827 20.5224 24.5726 20.7091 24.5624C24.1317 24.3085 26.8179 21.4344 26.8179 18.022V16.9759H19.3608V19.1188H19.3712Z" fill="white"/>
<path d="M34.431 32.4182L27.3889 29.7235L31.6644 25.4041L34.431 32.4182Z" fill="#F7476E"/>
</svg>
