<svg width="22" height="22" viewBox="0 0 22 22" fill="none" xmlns="http://www.w3.org/2000/svg">
<path d="M5.86685 20.68H11.5502C11.926 20.68 12.2377 20.3683 12.2377 19.9925C12.2377 19.6166 11.926 19.305 11.5502 19.305H5.86685C4.88601 19.305 3.92352 18.489 3.75851 17.5174L2.53935 10.2208C2.42935 9.5608 2.79592 8.61655 3.30926 8.20405L9.66185 3.12579C10.3952 2.53913 11.6143 2.53912 12.3385 3.11662L18.691 8.20405C19.2135 8.62572 19.571 9.5608 19.461 10.2208L19.2043 11.7699C19.1402 12.1457 19.3968 12.5032 19.7727 12.5582C20.1485 12.6315 20.4968 12.3657 20.561 11.9899L20.8176 10.45C21.0101 9.3133 20.4601 7.85579 19.5526 7.13163L13.2001 2.04408C11.9718 1.05408 10.0377 1.06326 8.80018 2.05326L2.44768 7.13163C1.54935 7.85579 0.999346 9.3133 1.18268 10.45L2.40185 17.7465C2.67685 19.369 4.22601 20.68 5.86685 20.68Z" fill="url(#paint0_linear_180_831437)"/>
<path d="M17.4165 20.854C17.7923 20.854 18.0948 20.5515 18.104 20.1848C18.1315 18.9473 18.9473 18.1315 20.1848 18.104C20.5606 18.0948 20.8631 17.7832 20.854 17.3982C20.8448 17.0223 20.5423 16.729 20.1665 16.729C20.1573 16.729 20.1573 16.729 20.1481 16.729C18.1773 16.7748 16.7656 18.1773 16.729 20.1482C16.7198 20.524 17.0223 20.8448 17.3981 20.854C17.4073 20.854 17.4073 20.854 17.4165 20.854Z" fill="url(#paint1_linear_180_831437)"/>
<path d="M14.6665 20.854C15.0423 20.854 15.354 20.5515 15.354 20.1757C15.3631 19.5707 15.464 18.9932 15.6473 18.4523C16.1148 17.114 17.114 16.1239 18.4523 15.6472C18.9931 15.4547 19.5706 15.354 20.1756 15.354C20.5515 15.354 20.8631 15.0423 20.854 14.6573C20.854 14.2815 20.5423 13.979 20.1665 13.979H20.1573C19.3965 13.9882 18.6723 14.1165 17.994 14.3548C16.2615 14.969 14.969 16.2615 14.3548 17.994C14.1165 18.6723 13.9881 19.4057 13.979 20.1573C13.979 20.5423 14.2815 20.854 14.6665 20.854Z" fill="url(#paint2_linear_180_831437)"/>
<path d="M20.1667 21.0833C20.68 21.0833 21.0833 20.6708 21.0833 20.1667C21.0833 19.6625 20.6708 19.25 20.1667 19.25C19.6625 19.25 19.25 19.6625 19.25 20.1667C19.25 20.6708 19.6533 21.0833 20.1667 21.0833Z" fill="url(#paint3_linear_180_831437)"/>
<defs>
<linearGradient id="paint0_linear_180_831437" x1="11.0017" y1="1.30615" x2="11.0017" y2="20.68" gradientUnits="userSpaceOnUse">
<stop stop-color="#0033EA"/>
<stop offset="1" stop-color="#8A0074"/>
</linearGradient>
<linearGradient id="paint1_linear_180_831437" x1="18.7915" y1="16.729" x2="18.7915" y2="20.854" gradientUnits="userSpaceOnUse">
<stop stop-color="#0033EA"/>
<stop offset="1" stop-color="#8A0074"/>
</linearGradient>
<linearGradient id="paint2_linear_180_831437" x1="17.4166" y1="13.979" x2="17.4166" y2="20.854" gradientUnits="userSpaceOnUse">
<stop stop-color="#0033EA"/>
<stop offset="1" stop-color="#8A0074"/>
</linearGradient>
<linearGradient id="paint3_linear_180_831437" x1="20.1667" y1="19.25" x2="20.1667" y2="21.0833" gradientUnits="userSpaceOnUse">
<stop stop-color="#0033EA"/>
<stop offset="1" stop-color="#8A0074"/>
</linearGradient>
</defs>
</svg>
