<svg width="15" height="13" viewBox="0 0 15 13" fill="none" xmlns="http://www.w3.org/2000/svg">
<path d="M14.0625 12.125H0.9375C0.81318 12.125 0.693951 12.0756 0.606044 11.9877C0.518136 11.8998 0.46875 11.7806 0.46875 11.6562V1.34375C0.46875 1.21943 0.518136 1.1002 0.606044 1.01229C0.693951 0.924386 0.81318 0.875 0.9375 0.875H14.0625C14.1868 0.875 14.306 0.924386 14.394 1.01229C14.4819 1.1002 14.5312 1.21943 14.5312 1.34375V11.6562C14.5312 11.7806 14.4819 11.8998 14.394 11.9877C14.306 12.0756 14.1868 12.125 14.0625 12.125ZM1.40625 11.1875H13.5938V1.8125H1.40625V11.1875Z" fill="#555555"/>
<path d="M7.50002 7.14221C7.16425 7.14093 6.84003 7.01955 6.58596 6.80002L0.632836 1.70002C0.538353 1.61922 0.47984 1.50418 0.47017 1.38023C0.465382 1.31886 0.472729 1.25715 0.491793 1.19861C0.510856 1.14008 0.541261 1.08587 0.581273 1.03909C0.621286 0.992304 0.670121 0.953859 0.72499 0.925949C0.77986 0.898039 0.83969 0.881209 0.901063 0.876421C1.02501 0.866751 1.14773 0.906716 1.24221 0.987524L7.19534 6.09221C7.28024 6.16484 7.3883 6.20474 7.50002 6.20474C7.61175 6.20474 7.7198 6.16484 7.80471 6.09221L13.7578 0.987524C13.8046 0.947512 13.8588 0.917107 13.9174 0.898044C13.9759 0.878981 14.0376 0.871633 14.099 0.876421C14.1604 0.881209 14.2202 0.898039 14.2751 0.925949C14.3299 0.953859 14.3788 0.992304 14.4188 1.03909C14.4588 1.08587 14.4892 1.14008 14.5083 1.19861C14.5273 1.25715 14.5347 1.31886 14.5299 1.38023C14.5251 1.44161 14.5083 1.50144 14.4803 1.55631C14.4524 1.61118 14.414 1.66001 14.3672 1.70002L8.43752 6.80002C8.17737 7.02487 7.84385 7.1466 7.50002 7.14221Z" fill="#555555"/>
</svg>
