<svg width="15" height="15" viewBox="0 0 15 15" fill="none" xmlns="http://www.w3.org/2000/svg">
<path d="M8.97283 0.0625C9.08531 0.0625035 9.19488 0.0982041 9.28576 0.16446C9.37665 0.230716 9.44417 0.324109 9.47858 0.431188L10.063 2.247C10.3084 2.36706 10.5432 2.502 10.7674 2.65394L12.6331 2.25231C12.7432 2.22883 12.8578 2.24086 12.9605 2.28669C13.0632 2.33251 13.1488 2.40977 13.2048 2.50731L14.6774 5.05625C14.7336 5.15374 14.7574 5.26657 14.7454 5.37847C14.7334 5.49038 14.6861 5.59556 14.6105 5.67887L13.3301 7.092C13.3488 7.36297 13.3488 7.6349 13.3301 7.90588L14.6105 9.32113C14.6861 9.40444 14.7334 9.50962 14.7454 9.62153C14.7574 9.73343 14.7336 9.84626 14.6774 9.94375L13.2048 12.4937C13.1486 12.5911 13.063 12.6681 12.9603 12.7138C12.8576 12.7594 12.743 12.7713 12.6331 12.7477L10.7674 12.3461C10.5443 12.4969 10.3084 12.6329 10.064 12.753L9.47858 14.5688C9.44417 14.6759 9.37665 14.7693 9.28576 14.8355C9.19488 14.9018 9.08531 14.9375 8.97283 14.9375H6.02758C5.91511 14.9375 5.80554 14.9018 5.71465 14.8355C5.62376 14.7693 5.55625 14.6759 5.52183 14.5688L4.93852 12.7541C4.69374 12.6344 4.45764 12.4977 4.23196 12.345L2.36727 12.7477C2.25726 12.7712 2.14264 12.7591 2.03991 12.7133C1.93719 12.6675 1.85166 12.5902 1.79564 12.4927L0.323019 9.94375C0.266786 9.84626 0.242967 9.73343 0.254997 9.62153C0.267028 9.50962 0.314286 9.40444 0.389957 9.32113L1.67027 7.90588C1.65172 7.63561 1.65172 7.36439 1.67027 7.09412L0.389957 5.67887C0.314286 5.59556 0.267028 5.49038 0.254997 5.37847C0.242967 5.26657 0.266786 5.15374 0.323019 5.05625L1.79564 2.50625C1.85181 2.4089 1.93741 2.33187 2.04012 2.28624C2.14284 2.24061 2.25738 2.22873 2.36727 2.25231L4.23196 2.655C4.45721 2.50306 4.69308 2.366 4.93852 2.24594L5.52289 0.431188C5.5572 0.324454 5.62439 0.231308 5.71485 0.165084C5.80532 0.0988603 5.91441 0.0629523 6.02652 0.0625H8.97177H8.97283ZM8.58396 1.125H6.41646L5.81296 3.00244L5.40602 3.20112C5.20597 3.29902 5.01285 3.41049 4.82802 3.53475L4.45189 3.78975L2.52239 3.37325L1.43864 5.25175L2.76146 6.71588L2.72958 7.16637C2.71431 7.38853 2.71431 7.61147 2.72958 7.83363L2.76146 8.28413L1.43652 9.74825L2.52133 11.6267L4.45083 11.2113L4.82696 11.4653C5.01179 11.5895 5.20491 11.701 5.40496 11.7989L5.81189 11.9976L6.41646 13.875H8.58608L9.19171 11.9965L9.59758 11.7989C9.79741 11.7012 9.99019 11.5897 10.1745 11.4653L10.5496 11.2113L12.4801 11.6267L13.5639 9.74825L12.24 8.28413L12.2719 7.83363C12.2872 7.61112 12.2872 7.38782 12.2719 7.16531L12.24 6.71481L13.565 5.25175L12.4801 3.37325L10.5496 3.78763L10.1745 3.53475C9.99021 3.41024 9.79743 3.29876 9.59758 3.20112L9.19171 3.0035L8.58502 1.125H8.58396ZM7.50021 4.3125C8.34558 4.3125 9.15634 4.64832 9.75411 5.2461C10.3519 5.84387 10.6877 6.65462 10.6877 7.5C10.6877 8.34538 10.3519 9.15613 9.75411 9.7539C9.15634 10.3517 8.34558 10.6875 7.50021 10.6875C6.65483 10.6875 5.84408 10.3517 5.2463 9.7539C4.64853 9.15613 4.31271 8.34538 4.31271 7.5C4.31271 6.65462 4.64853 5.84387 5.2463 5.2461C5.84408 4.64832 6.65483 4.3125 7.50021 4.3125ZM7.50021 5.375C6.93662 5.375 6.39612 5.59888 5.9976 5.9974C5.59909 6.39591 5.37521 6.93641 5.37521 7.5C5.37521 8.06359 5.59909 8.60409 5.9976 9.0026C6.39612 9.40112 6.93662 9.625 7.50021 9.625C8.06379 9.625 8.60429 9.40112 9.00281 9.0026C9.40132 8.60409 9.62521 8.06359 9.62521 7.5C9.62521 6.93641 9.40132 6.39591 9.00281 5.9974C8.60429 5.59888 8.06379 5.375 7.50021 5.375Z" fill="black"/>
</svg>
