<svg width="17" height="17" viewBox="0 0 17 17" fill="none" xmlns="http://www.w3.org/2000/svg">
<g clip-path="url(#clip0_2406_46360)">
<path d="M15.5833 10.3063V14.1667C15.5833 14.5424 15.4341 14.9027 15.1684 15.1684C14.9027 15.4341 14.5424 15.5833 14.1667 15.5833H2.83332C2.4576 15.5833 2.09727 15.4341 1.83159 15.1684C1.56591 14.9027 1.41666 14.5424 1.41666 14.1667V2.83334C1.41666 2.45762 1.56591 2.09728 1.83159 1.8316C2.09727 1.56593 2.4576 1.41667 2.83332 1.41667H6.75041" stroke="#645DF6" stroke-width="1.5" stroke-linecap="round" stroke-linejoin="bevel"/>
<path d="M15.1512 1.75667L6.55914 9.98042" stroke="#645DF6" stroke-width="1.5" stroke-linecap="round" stroke-linejoin="bevel"/>
<path d="M12.0417 1.34584H14.2304C14.5708 1.33035 14.9036 1.4495 15.1568 1.6775C15.41 1.90551 15.5632 2.22404 15.5833 2.56417V4.88751" stroke="#645DF6" stroke-width="1.5" stroke-linecap="round" stroke-linejoin="bevel"/>
</g>
<defs>
<clipPath id="clip0_2406_46360">
<rect width="17" height="17" fill="white"/>
</clipPath>
</defs>
</svg>
