<svg width="16" height="16" viewBox="0 0 16 16" fill="none" xmlns="http://www.w3.org/2000/svg">
<path d="M7.9999 5.42773C6.57972 5.42773 5.42847 6.57901 5.42847 7.99919C5.42847 9.4193 6.57972 10.5706 7.9999 10.5706C8.77064 10.5706 9.46218 10.2315 9.9335 9.69433C10.3306 9.24176 10.5713 8.64856 10.5713 7.99919C10.5713 7.73633 10.5319 7.48273 10.4586 7.24393C10.136 6.19233 9.15721 5.42773 7.9999 5.42773ZM6.28561 7.99919C6.28561 7.05239 7.0531 6.2849 7.9999 6.2849C8.9467 6.2849 9.71418 7.05239 9.71418 7.99919C9.71418 8.94593 8.9467 9.71347 7.9999 9.71347C7.0531 9.71347 6.28561 8.94593 6.28561 7.99919Z" fill="#4A6ADA"/>
<path d="M12.4052 12.7967L11.4181 12.3633C11.1357 12.2395 10.804 12.2577 10.537 12.4122C10.2701 12.5668 10.0999 12.8393 10.066 13.1463L9.94732 14.22C9.92281 14.4414 9.76218 14.6235 9.54589 14.6751C8.52921 14.9175 7.46989 14.9175 6.45321 14.6751C6.23692 14.6235 6.07624 14.4414 6.05178 14.22L5.93327 13.1479C5.89847 12.8415 5.72058 12.5697 5.45391 12.4157C5.18723 12.2617 4.86342 12.2436 4.58195 12.3668L3.59459 12.8002C3.39007 12.89 3.15128 12.8407 2.99879 12.6773C2.28832 11.916 1.75946 11.0032 1.45202 10.0075C1.3858 9.79306 1.46231 9.56009 1.6427 9.42694L2.51543 8.78272C2.76402 8.59974 2.91083 8.30912 2.91083 8.00009C2.91083 7.691 2.76401 7.40037 2.51511 7.21717L1.64292 6.57403C1.46226 6.44083 1.38568 6.20757 1.45213 5.99294C1.76011 4.99817 2.28925 4.08633 2.99973 3.32605C3.15238 3.1627 3.39128 3.11364 3.59576 3.20364L4.57873 3.63628C4.86157 3.76065 5.18673 3.74186 5.45485 3.58492C5.72178 3.42977 5.89955 3.15698 5.93384 2.84994L6.05321 1.77693C6.07818 1.55285 6.24247 1.36942 6.46212 1.32048C6.96561 1.20828 7.47938 1.14866 8.00738 1.14258C8.52258 1.14853 9.03578 1.20817 9.53864 1.32054C9.75818 1.3696 9.92235 1.55296 9.94727 1.77693L10.0668 2.85076C10.1208 3.34381 10.5363 3.71724 11.0316 3.71776C11.1648 3.71797 11.2965 3.69019 11.4195 3.63565L12.4026 3.20293C12.6071 3.11293 12.846 3.162 12.9986 3.32535C13.7092 4.08563 14.2383 4.99746 14.5462 5.99226C14.6126 6.20672 14.5362 6.43986 14.3558 6.57312L13.4844 7.21666C13.2358 7.39969 13.0856 7.69032 13.0856 7.99934C13.0856 8.30843 13.2358 8.59906 13.4849 8.78243L14.3571 9.42626C14.5376 9.55946 14.6141 9.7926 14.5477 10.0072C14.2398 11.0017 13.711 11.9135 13.0009 12.6739C12.8484 12.8372 12.6097 12.8864 12.4052 12.7967ZM9.29304 12.6835C9.42744 12.2674 9.70784 11.9019 10.1076 11.6704C10.6114 11.3787 11.2305 11.3452 11.7622 11.5784L12.5302 11.9155C13.0233 11.3447 13.4052 10.6861 13.656 9.97409L12.9768 9.47272L12.9762 9.47232C12.513 9.13112 12.2285 8.58694 12.2285 7.99934C12.2285 7.4122 12.5127 6.86797 12.9755 6.52694L12.9762 6.52643L13.6546 6.0254C13.4037 5.31329 13.0217 4.65475 12.5284 4.08409L11.7669 4.41926L11.7656 4.41984C11.5338 4.52233 11.284 4.57524 11.0307 4.5749C10.0979 4.5737 9.31681 3.87072 9.21481 2.9452L9.2147 2.94421L9.1219 2.11C8.7543 2.04156 8.38144 2.00467 8.00732 1.99978C7.62212 2.00478 7.24681 2.04178 6.87858 2.11013L6.78567 2.94513C6.72132 3.52124 6.38807 4.03345 5.88669 4.32532C5.38239 4.62003 4.7682 4.65594 4.23343 4.4208L3.47003 4.08479C2.97675 4.65541 2.59471 5.31388 2.34387 6.02592L3.02379 6.52729C3.49198 6.8722 3.76797 7.41894 3.76797 8.00009C3.76797 8.581 3.49214 9.1278 3.02411 9.4726L2.34367 9.97489C2.59419 10.6879 2.97618 11.3474 3.46964 11.9189L4.23842 11.5815C4.76987 11.349 5.38031 11.3834 5.88258 11.6735C6.38504 11.9637 6.7195 12.4751 6.78492 13.0511L6.78527 13.0537L6.87772 13.8904C7.61852 14.0361 8.38058 14.0361 9.12138 13.8904L9.21401 13.0521C9.22795 12.9264 9.25447 12.8028 9.29304 12.6835Z" fill="#4A6ADA"/>
</svg>
