<svg width="17" height="18" viewBox="0 0 17 18" fill="none" xmlns="http://www.w3.org/2000/svg">
<path d="M8.5 9.53125C9.67361 9.53125 10.625 8.57986 10.625 7.40625C10.625 6.23264 9.67361 5.28125 8.5 5.28125C7.32639 5.28125 6.375 6.23264 6.375 7.40625C6.375 8.57986 7.32639 9.53125 8.5 9.53125Z" stroke="#2D50C8" stroke-width="1.5" stroke-linecap="round" stroke-linejoin="round"/>
<path d="M13.8125 7.40625C13.8125 12.1875 8.5 15.9062 8.5 15.9062C8.5 15.9062 3.1875 12.1875 3.1875 7.40625C3.1875 5.99729 3.74721 4.64603 4.7435 3.64975C5.73978 2.65346 7.09104 2.09375 8.5 2.09375C9.90896 2.09375 11.2602 2.65346 12.2565 3.64975C13.2528 4.64603 13.8125 5.99729 13.8125 7.40625V7.40625Z" stroke="#2D50C8" stroke-width="1.5" stroke-linecap="round" stroke-linejoin="round"/>
</svg>
