<svg width="22" height="22" viewBox="0 0 22 22" fill="none" xmlns="http://www.w3.org/2000/svg">
<path d="M13.0625 6.875V17.5055C13.0615 17.6197 13.0893 17.7324 13.1434 17.833C13.1974 17.9337 13.2761 18.0191 13.3719 18.0812L14.3172 18.7086C14.4088 18.7697 14.5137 18.808 14.6232 18.8201C14.7326 18.8323 14.8434 18.8179 14.9461 18.7784C15.0489 18.7388 15.1406 18.6751 15.2136 18.5927C15.2866 18.5102 15.3388 18.4115 15.3657 18.3047L16.5 13.75" stroke="#645DF6" stroke-width="1.5" stroke-linecap="round" stroke-linejoin="round"/>
<path d="M16.5 13.7498C17.4117 13.7498 18.286 13.3877 18.9307 12.743C19.5753 12.0983 19.9375 11.224 19.9375 10.3123C19.9375 9.40064 19.5753 8.5263 18.9307 7.88165C18.286 7.23699 17.4117 6.87483 16.5 6.87483H13.0625C13.0625 6.87483 8.37891 6.87483 3.87578 3.10217C3.77562 3.01929 3.65401 2.9665 3.52507 2.94994C3.39612 2.93338 3.26512 2.95371 3.14727 3.00859C3.02941 3.06347 2.92953 3.15064 2.85922 3.25999C2.7889 3.36934 2.75103 3.49639 2.75 3.62639V16.9983C2.75103 17.1283 2.7889 17.2553 2.85922 17.3647C2.92953 17.474 3.02941 17.5612 3.14727 17.6161C3.26512 17.6709 3.39612 17.6913 3.52507 17.6747C3.65401 17.6582 3.77562 17.6054 3.87578 17.5225C8.37891 13.7498 13.0625 13.7498 13.0625 13.7498H16.5Z" stroke="#645DF6" stroke-width="1.5" stroke-linecap="round" stroke-linejoin="round"/>
</svg>
