<svg width="18" height="17" viewBox="0 0 18 17" fill="none" xmlns="http://www.w3.org/2000/svg">
<path d="M15.2035 0.174561H2.52987C1.13486 0.174561 0 1.30946 0 2.70443V11.258C0 12.653 1.13486 13.7879 2.52987 13.7879H3.52263L3.54206 16.0213C3.54379 16.2271 3.662 16.4142 3.84716 16.5042C3.92243 16.5408 4.00344 16.5587 4.08407 16.5587C4.20179 16.5587 4.31865 16.5204 4.41536 16.4457L7.85898 13.7879H15.2035C16.5985 13.7879 17.7333 12.653 17.7333 11.258V2.70443C17.7333 1.30946 16.5985 0.174561 15.2035 0.174561ZM16.6491 11.2581C16.6491 12.0552 16.0006 12.7037 15.2035 12.7037H7.67413C7.55429 12.7037 7.43782 12.7434 7.34291 12.8167L4.61673 14.9207L4.60211 13.2411C4.59955 12.9436 4.35758 12.7037 4.06003 12.7037H2.52987C1.73274 12.7037 1.08423 12.0552 1.08423 11.2581V2.70443C1.08423 1.9073 1.73274 1.25879 2.52987 1.25879H15.2035C16.0006 1.25879 16.6491 1.9073 16.6491 2.70443V11.2581H16.6491Z" fill="url(#paint0_linear_934_197064)"/>
<defs>
<linearGradient id="paint0_linear_934_197064" x1="8.86666" y1="0.174561" x2="8.86666" y2="16.5587" gradientUnits="userSpaceOnUse">
<stop stop-color="#0033EA"/>
<stop offset="1" stop-color="#8A0074"/>
</linearGradient>
</defs>
</svg>
