<svg width="20" height="21" viewBox="0 0 20 21" fill="none" xmlns="http://www.w3.org/2000/svg">
<path d="M5.59375 11.75L2.5 14.25V4.25C2.5 4.08424 2.56585 3.92527 2.68306 3.80806C2.80027 3.69085 2.95924 3.625 3.125 3.625H13.125C13.2908 3.625 13.4497 3.69085 13.5669 3.80806C13.6842 3.92527 13.75 4.08424 13.75 4.25V11.125C13.75 11.2908 13.6842 11.4497 13.5669 11.5669C13.4497 11.6842 13.2908 11.75 13.125 11.75H5.59375Z" stroke="#333333" stroke-width="1.2" stroke-linecap="round" stroke-linejoin="round"/>
<path d="M6.25 11.75V14.875C6.25 15.0408 6.31585 15.1997 6.43306 15.3169C6.55027 15.4342 6.70924 15.5 6.875 15.5H14.4062L17.5 18V8C17.5 7.83424 17.4342 7.67527 17.3169 7.55806C17.1997 7.44085 17.0408 7.375 16.875 7.375H13.75" stroke="#333333" stroke-width="1.5" stroke-linecap="round" stroke-linejoin="round"/>
</svg>
