<svg width="124" height="124" viewBox="0 0 124 124" fill="none" xmlns="http://www.w3.org/2000/svg">
<path opacity="0.22" d="M62 10.3334C55.2802 10.0894 48.5804 11.2072 42.3037 13.6196C36.027 16.032 30.3032 19.6891 25.4766 24.371C20.6499 29.0528 16.8202 34.6626 14.2178 40.8629C11.6154 47.0632 10.2941 53.7259 10.3334 60.45C10.2468 67.4311 11.6489 74.3505 14.4463 80.7471C17.2437 87.1438 21.3722 92.8708 26.5567 97.5467C26.9683 97.9133 27.3034 98.3577 27.5428 98.8542C27.7822 99.3507 27.9212 99.8897 27.9517 100.44V109.637C27.98 110.315 28.1728 110.976 28.5133 111.562C28.8539 112.149 29.332 112.645 29.9066 113.006C30.4811 113.367 31.1348 113.582 31.8113 113.635C32.4879 113.687 33.1669 113.574 33.79 113.305L44.1234 108.81C45.0057 108.477 45.9793 108.477 46.8617 108.81C51.7465 110.129 56.7855 110.789 61.845 110.773C75.1642 110.794 87.946 105.523 97.3786 96.1191C106.811 86.7155 112.122 73.95 112.143 60.6309C112.163 47.3117 106.892 34.5299 97.4882 25.0973C88.0847 15.6647 75.3192 10.3539 62 10.3334ZM93 48.8767L77.8617 72.9534C77.2907 73.8598 76.5381 74.6381 75.6512 75.239C74.7643 75.8399 73.7625 76.2504 72.7089 76.4446C71.6554 76.6388 70.573 76.6125 69.5302 76.3673C68.4873 76.1221 67.5066 75.6634 66.65 75.02L54.56 65.9784C54.0234 65.5759 53.3708 65.3584 52.7 65.3584C52.0293 65.3584 51.3766 65.5759 50.84 65.9784L34.5134 78.3784C34.0587 78.729 33.4944 78.9072 32.9208 78.8813C32.3471 78.8554 31.8013 78.627 31.38 78.2368C30.9588 77.8465 30.6895 77.3197 30.6199 76.7497C30.5504 76.1797 30.685 75.6035 31 75.1234L46.1384 51.0467C46.7093 50.1402 47.462 49.362 48.3489 48.7611C49.2357 48.1602 50.2376 47.7496 51.2911 47.5554C52.3447 47.3612 53.427 47.3876 54.4699 47.6328C55.5127 47.878 56.4934 48.3367 57.35 48.98L69.44 58.0217C69.9766 58.4242 70.6293 58.6417 71.3 58.6417C71.9708 58.6417 72.6234 58.4242 73.16 58.0217L89.4867 45.6217C89.9414 45.271 90.5056 45.0928 91.0793 45.1188C91.6529 45.1447 92.1988 45.373 92.62 45.7633C93.0412 46.1535 93.3105 46.6804 93.3801 47.2504C93.4497 47.8204 93.315 48.3966 93 48.8767Z" fill="#87AFFB"/>
</svg>
