<svg width="16" height="16" viewBox="0 0 16 16" fill="none" xmlns="http://www.w3.org/2000/svg">
<path d="M8 0.6875C6.7299 0.687843 5.48177 1.0189 4.37846 1.6481C3.27516 2.2773 2.35471 3.18294 1.7077 4.2759C1.06069 5.36885 0.709435 6.61145 0.688494 7.88138C0.667554 9.15131 0.977655 10.4048 1.58828 11.5185L0.987289 13.6219C0.932173 13.8148 0.929647 14.019 0.979972 14.2132C1.0303 14.4074 1.13164 14.5846 1.2735 14.7265C1.41537 14.8683 1.59259 14.9697 1.7868 15.02C1.98101 15.0703 2.18515 15.0678 2.37806 15.0127L4.48152 14.4118C5.45903 14.9482 6.54624 15.2539 7.66003 15.3057C8.77382 15.3574 9.8847 15.1538 10.9077 14.7104C11.9308 14.267 12.8389 13.5955 13.5626 12.7473C14.2863 11.8991 14.8065 10.8967 15.0834 9.81662C15.3603 8.73656 15.3866 7.60748 15.1602 6.51571C14.9338 5.42394 14.4608 4.39839 13.7772 3.51748C13.0937 2.63656 12.2178 1.9236 11.2165 1.43311C10.2152 0.942615 9.115 0.687579 8 0.6875ZM11.7727 7.27274L9.52274 9.52274C9.47051 9.57498 9.4085 9.61641 9.34026 9.64468C9.27201 9.67295 9.19887 9.6875 9.125 9.6875C9.05113 9.6875 8.97799 9.67295 8.90975 9.64468C8.8415 9.61641 8.77949 9.57498 8.72726 9.52274L6.875 7.67048L5.02274 9.52274C4.97052 9.57503 4.90851 9.61651 4.84025 9.64482C4.77199 9.67313 4.69883 9.68772 4.62493 9.68774C4.55103 9.68776 4.47786 9.67323 4.40958 9.64496C4.3413 9.61669 4.27927 9.57524 4.22701 9.52299C4.17476 9.47074 4.13332 9.4087 4.10505 9.34042C4.07678 9.27215 4.06224 9.19897 4.06226 9.12507C4.06229 9.05118 4.07687 8.97801 4.10518 8.90975C4.13349 8.84149 4.17498 8.77948 4.22726 8.72726L6.47726 6.47726C6.58275 6.37178 6.72582 6.31252 6.875 6.31252C7.02418 6.31252 7.16725 6.37178 7.27274 6.47726L9.125 8.32952L10.9773 6.47726C11.0828 6.37188 11.2258 6.31272 11.3749 6.31276C11.524 6.31281 11.667 6.37207 11.7725 6.47751C11.8779 6.58295 11.9372 6.72595 11.9372 6.87507C11.9373 7.02419 11.8781 7.16723 11.7727 7.27274V7.27274Z" fill="#3076FF"/>
</svg>
