<svg width="41" height="48" viewBox="0 0 41 48" fill="none" xmlns="http://www.w3.org/2000/svg">
<circle cx="30" cy="11" r="11" fill="#F7DDEF"/>
<path d="M26.6816 21.5142H9.33184C8.77271 21.5142 8.31934 21.9675 8.31934 22.5267C8.31934 23.0858 8.77271 23.5392 9.33184 23.5392H26.6816C27.2407 23.5392 27.6941 23.0858 27.6941 22.5267C27.6941 21.9675 27.2407 21.5142 26.6816 21.5142Z" fill="url(#paint0_linear_283_54219)"/>
<path d="M26.6814 26.9783H9.31816C8.75904 26.9783 8.30566 27.4316 8.30566 27.9908C8.30566 28.5499 8.75904 29.0033 9.31816 29.0033H26.6814C27.2405 29.0033 27.6939 28.5499 27.6939 27.9908C27.6939 27.4316 27.2405 26.9783 26.6814 26.9783Z" fill="url(#paint1_linear_283_54219)"/>
<path d="M15.2818 32.457H9.31816C8.75904 32.457 8.30566 32.9104 8.30566 33.4695C8.30566 34.0287 8.75904 34.482 9.31816 34.482H15.2818C15.8409 34.482 16.2943 34.0287 16.2943 33.4695C16.2943 32.9104 15.8409 32.457 15.2818 32.457Z" fill="url(#paint2_linear_283_54219)"/>
<path d="M29.3139 14.7305H6.68568C3.6808 14.7305 1.2373 17.1751 1.2373 20.18V35.8152C1.2373 38.8201 3.68193 41.2647 6.6868 41.2647H12.9182L16.1109 44.4968C16.6037 44.9952 17.2596 45.2708 17.9616 45.2708H17.9627C18.6636 45.2708 19.3217 44.9963 19.8144 44.4968L23.0072 41.2647H29.3139C32.3188 41.2647 34.7634 38.8201 34.7634 35.8152V20.18C34.7623 17.1751 32.3188 14.7305 29.3139 14.7305ZM32.7373 35.8152C32.7373 37.703 31.2017 39.2397 29.3139 39.2397H22.5842C22.3142 39.2397 22.0543 39.3477 21.8631 39.5412L18.3733 43.0737C18.2631 43.1851 18.1168 43.2458 17.9616 43.2458C17.8063 43.2458 17.6601 43.1851 17.5521 43.0748L14.0612 39.5423C13.8699 39.35 13.6112 39.2408 13.3401 39.2408H6.68568C4.79793 39.2408 3.2623 37.7041 3.2623 35.8163V20.18C3.2623 18.2922 4.79793 16.7566 6.68568 16.7566H29.3128C31.2006 16.7566 32.7362 18.2922 32.7362 20.18L32.7373 35.8152Z" fill="url(#paint3_linear_283_54219)"/>
<defs>
<linearGradient id="paint0_linear_283_54219" x1="18.0067" y1="21.5142" x2="18.0067" y2="23.5392" gradientUnits="userSpaceOnUse">
<stop stop-color="#000AFF"/>
<stop offset="1" stop-color="#D274FF"/>
</linearGradient>
<linearGradient id="paint1_linear_283_54219" x1="17.9998" y1="26.9783" x2="17.9998" y2="29.0033" gradientUnits="userSpaceOnUse">
<stop stop-color="#000AFF"/>
<stop offset="1" stop-color="#D274FF"/>
</linearGradient>
<linearGradient id="paint2_linear_283_54219" x1="12.3" y1="32.457" x2="12.3" y2="34.482" gradientUnits="userSpaceOnUse">
<stop stop-color="#000AFF"/>
<stop offset="1" stop-color="#D274FF"/>
</linearGradient>
<linearGradient id="paint3_linear_283_54219" x1="18.0004" y1="14.7305" x2="18.0004" y2="45.2708" gradientUnits="userSpaceOnUse">
<stop stop-color="#000AFF"/>
<stop offset="1" stop-color="#D274FF"/>
</linearGradient>
</defs>
</svg>
