<svg width="22" height="22" viewBox="0 0 22 22" fill="none" xmlns="http://www.w3.org/2000/svg">
<path d="M10.5452 2.63624C9.84604 2.63624 9.1755 2.91399 8.6811 3.40838C8.18671 3.90277 7.90896 4.57331 7.90896 5.27249V10.545C7.90896 11.2442 8.18671 11.9147 8.6811 12.4091C9.1755 12.9035 9.84604 13.1812 10.5452 13.1812C11.2444 13.1812 11.9149 12.9035 12.4093 12.4091C12.9037 11.9147 13.1815 11.2442 13.1815 10.545V5.27249C13.1815 4.57331 12.9037 3.90277 12.4093 3.40838C11.9149 2.91399 11.2444 2.63624 10.5452 2.63624ZM10.5452 1.31812C11.594 1.31812 12.5998 1.73474 13.3414 2.47632C14.083 3.21791 14.4996 4.22372 14.4996 5.27249V10.545C14.4996 11.5938 14.083 12.5996 13.3414 13.3412C12.5998 14.0827 11.594 14.4994 10.5452 14.4994C9.49645 14.4994 8.49064 14.0827 7.74905 13.3412C7.00746 12.5996 6.59084 11.5938 6.59084 10.545V5.27249C6.59084 4.22372 7.00746 3.21791 7.74905 2.47632C8.49064 1.73474 9.49645 1.31812 10.5452 1.31812ZM9.88615 18.4537V17.1356C8.313 17.1356 6.80429 16.5107 5.6919 15.3983C4.57952 14.2859 3.95459 12.7772 3.95459 11.2041V10.545C3.95459 10.3702 4.02403 10.2026 4.14762 10.079C4.27122 9.95536 4.43886 9.88593 4.61365 9.88593C4.78845 9.88593 4.95608 9.95536 5.07968 10.079C5.20328 10.2026 5.27271 10.3702 5.27271 10.545V11.2041C5.27271 12.4276 5.75877 13.6011 6.62396 14.4662C7.48915 15.3314 8.66259 15.8175 9.88615 15.8175H11.2043C12.4278 15.8175 13.6013 15.3314 14.4665 14.4662C15.3317 13.6011 15.8177 12.4276 15.8177 11.2041V10.545C15.8177 10.3702 15.8872 10.2026 16.0107 10.079C16.1343 9.95536 16.302 9.88593 16.4768 9.88593C16.6516 9.88593 16.8192 9.95536 16.9428 10.079C17.0664 10.2026 17.1358 10.3702 17.1358 10.545V11.2041C17.1358 12.7772 16.5109 14.2859 15.3985 15.3983C14.2861 16.5107 12.7774 17.1356 11.2043 17.1356V18.4537H12.5224C12.6972 18.4537 12.8648 18.5232 12.9884 18.6468C13.112 18.7704 13.1815 18.938 13.1815 19.1128C13.1815 19.2876 13.112 19.4552 12.9884 19.5788C12.8648 19.7024 12.6972 19.7719 12.5224 19.7719H8.56803C8.39323 19.7719 8.2256 19.7024 8.102 19.5788C7.9784 19.4552 7.90896 19.2876 7.90896 19.1128C7.90896 18.938 7.9784 18.7704 8.102 18.6468C8.2256 18.5232 8.39323 18.4537 8.56803 18.4537H9.88615Z" fill="black"/>
</svg>
