<svg width="15" height="19" viewBox="0 0 15 19" fill="none" xmlns="http://www.w3.org/2000/svg">
<path d="M7.54521 1.63624C6.84604 1.63624 6.1755 1.91399 5.6811 2.40838C5.18671 2.90277 4.90896 3.57331 4.90896 4.27249V9.54499C4.90896 10.2442 5.18671 10.9147 5.6811 11.4091C6.1755 11.9035 6.84604 12.1812 7.54521 12.1812C8.24439 12.1812 8.91493 11.9035 9.40932 11.4091C9.90372 10.9147 10.1815 10.2442 10.1815 9.54499V4.27249C10.1815 3.57331 9.90372 2.90277 9.40932 2.40838C8.91493 1.91399 8.24439 1.63624 7.54521 1.63624ZM7.54521 0.318115C8.59398 0.318115 9.59979 0.734736 10.3414 1.47632C11.083 2.21791 11.4996 3.22372 11.4996 4.27249V9.54499C11.4996 10.5938 11.083 11.5996 10.3414 12.3412C9.59979 13.0827 8.59398 13.4994 7.54521 13.4994C6.49645 13.4994 5.49064 13.0827 4.74905 12.3412C4.00746 11.5996 3.59084 10.5938 3.59084 9.54499V4.27249C3.59084 3.22372 4.00746 2.21791 4.74905 1.47632C5.49064 0.734736 6.49645 0.318115 7.54521 0.318115ZM6.88615 17.4537V16.1356C5.313 16.1356 3.80429 15.5107 2.6919 14.3983C1.57952 13.2859 0.95459 11.7772 0.95459 10.2041V9.54499C0.95459 9.3702 1.02403 9.20256 1.14762 9.07896C1.27122 8.95536 1.43886 8.88593 1.61365 8.88593C1.78845 8.88593 1.95608 8.95536 2.07968 9.07896C2.20328 9.20256 2.27271 9.3702 2.27271 9.54499V10.2041C2.27271 11.4276 2.75877 12.6011 3.62396 13.4662C4.48915 14.3314 5.66259 14.8175 6.88615 14.8175H8.20428C9.42784 14.8175 10.6013 14.3314 11.4665 13.4662C12.3317 12.6011 12.8177 11.4276 12.8177 10.2041V9.54499C12.8177 9.3702 12.8872 9.20256 13.0107 9.07896C13.1343 8.95536 13.302 8.88593 13.4768 8.88593C13.6516 8.88593 13.8192 8.95536 13.9428 9.07896C14.0664 9.20256 14.1358 9.3702 14.1358 9.54499V10.2041C14.1358 11.7772 13.5109 13.2859 12.3985 14.3983C11.2861 15.5107 9.77743 16.1356 8.20428 16.1356V17.4537H9.5224C9.6972 17.4537 9.86483 17.5232 9.98843 17.6468C10.112 17.7704 10.1815 17.938 10.1815 18.1128C10.1815 18.2876 10.112 18.4552 9.98843 18.5788C9.86483 18.7024 9.6972 18.7719 9.5224 18.7719H5.56803C5.39323 18.7719 5.2256 18.7024 5.102 18.5788C4.9784 18.4552 4.90896 18.2876 4.90896 18.1128C4.90896 17.938 4.9784 17.7704 5.102 17.6468C5.2256 17.5232 5.39323 17.4537 5.56803 17.4537H6.88615Z" fill="white"/>
</svg>
