<svg width="22" height="20" viewBox="0 0 22 20" fill="none" xmlns="http://www.w3.org/2000/svg">
<path d="M16.2381 2.04335H11.5238V0.510837C11.5238 0.375355 11.4686 0.245421 11.3704 0.149621C11.2722 0.0538203 11.1389 0 11 0C10.8611 0 10.7278 0.0538203 10.6296 0.149621C10.5314 0.245421 10.4762 0.375355 10.4762 0.510837V2.04335H5.7619C5.06749 2.04397 4.40169 2.31328 3.91067 2.79214C3.41964 3.27101 3.1435 3.92031 3.14286 4.59753V13.7926C3.1435 14.4698 3.41964 15.1191 3.91067 15.598C4.40169 16.0769 5.06749 16.3462 5.7619 16.3468H8.62444L10.5642 19.1843C10.612 19.2543 10.6768 19.3117 10.7529 19.3513C10.8289 19.391 10.9138 19.4118 11 19.4118C11.0862 19.4118 11.1711 19.391 11.2471 19.3513C11.3232 19.3117 11.388 19.2543 11.4358 19.1843L13.3756 16.3468H16.2381C16.9325 16.3462 17.5983 16.0769 18.0893 15.598C18.5804 15.1191 18.8565 14.4698 18.8571 13.7926V4.59753C18.8565 3.92031 18.5804 3.27101 18.0893 2.79214C17.5983 2.31328 16.9325 2.04397 16.2381 2.04335V2.04335ZM17.8095 13.7926C17.8091 14.1989 17.6434 14.5885 17.3488 14.8758C17.0542 15.1631 16.6547 15.3247 16.2381 15.3251H13.0952C13.009 15.3252 12.9242 15.3461 12.8482 15.3857C12.7722 15.4254 12.7073 15.4827 12.6594 15.5526L11 17.9801L9.34057 15.5526C9.29265 15.4827 9.22782 15.4254 9.15182 15.3857C9.07581 15.3461 8.99097 15.3252 8.90476 15.3251H5.7619C5.34528 15.3247 4.94584 15.1631 4.65124 14.8758C4.35664 14.5885 4.19093 14.1989 4.19048 13.7926V12.2601H17.8095V13.7926ZM17.8095 11.2384H4.19048V4.59753C4.19093 4.19122 4.35664 3.80168 4.65124 3.51438C4.94584 3.22707 5.34528 3.06547 5.7619 3.06502H16.2381C16.6547 3.06547 17.0542 3.22707 17.3488 3.51438C17.6434 3.80168 17.8091 4.19122 17.8095 4.59753V11.2384ZM8.90476 7.66256C8.90476 7.86463 8.84332 8.06216 8.72821 8.23017C8.61309 8.39818 8.44948 8.52913 8.25805 8.60646C8.06662 8.68379 7.85598 8.70402 7.65276 8.6646C7.44954 8.62518 7.26288 8.52787 7.11636 8.38499C6.96985 8.24211 6.87008 8.06006 6.82965 7.86188C6.78923 7.66369 6.80998 7.45827 6.88927 7.27158C6.96856 7.08489 7.10284 6.92533 7.27512 6.81307C7.4474 6.7008 7.64994 6.64088 7.85714 6.64088C8.13499 6.64088 8.40145 6.74852 8.59792 6.94013C8.79439 7.13173 8.90476 7.39159 8.90476 7.66256ZM15.1905 7.66256C15.1905 7.86463 15.129 8.06216 15.0139 8.23017C14.8988 8.39818 14.7352 8.52913 14.5438 8.60646C14.3523 8.68379 14.1417 8.70402 13.9385 8.6646C13.7353 8.62518 13.5486 8.52787 13.4021 8.38499C13.2556 8.24211 13.1558 8.06006 13.1154 7.86188C13.0749 7.66369 13.0957 7.45827 13.175 7.27158C13.2543 7.08489 13.3886 6.92533 13.5608 6.81307C13.7331 6.7008 13.9357 6.64088 14.1429 6.64088C14.4207 6.64088 14.6872 6.74852 14.8836 6.94013C15.0801 7.13173 15.1905 7.39159 15.1905 7.66256ZM1.04762 5.61921V9.70591C1.04762 9.84139 0.992432 9.97132 0.894199 10.0671C0.795965 10.1629 0.662732 10.2167 0.52381 10.2167C0.384887 10.2167 0.251654 10.1629 0.15342 10.0671C0.0551869 9.97132 0 9.84139 0 9.70591V5.61921C0 5.48373 0.0551869 5.35379 0.15342 5.25799C0.251654 5.16219 0.384887 5.10837 0.52381 5.10837C0.662732 5.10837 0.795965 5.16219 0.894199 5.25799C0.992432 5.35379 1.04762 5.48373 1.04762 5.61921V5.61921ZM22 5.61921V9.70591C22 9.84139 21.9448 9.97132 21.8466 10.0671C21.7483 10.1629 21.6151 10.2167 21.4762 10.2167C21.3373 10.2167 21.204 10.1629 21.1058 10.0671C21.0076 9.97132 20.9524 9.84139 20.9524 9.70591V5.61921C20.9524 5.48373 21.0076 5.35379 21.1058 5.25799C21.204 5.16219 21.3373 5.10837 21.4762 5.10837C21.6151 5.10837 21.7483 5.16219 21.8466 5.25799C21.9448 5.35379 22 5.48373 22 5.61921V5.61921Z" fill="url(#paint0_linear_1125_32944)"/>
<defs>
<linearGradient id="paint0_linear_1125_32944" x1="11" y1="0" x2="11" y2="19.4118" gradientUnits="userSpaceOnUse">
<stop stop-color="#000AFF"/>
<stop offset="1" stop-color="#D274FF"/>
</linearGradient>
</defs>
</svg>
