<svg width="44" height="43" viewBox="0 0 44 43" fill="none" xmlns="http://www.w3.org/2000/svg">
<g filter="url(#filter0_d_209_113700)">
<path d="M4 9C4 4.02944 8.02944 0 13 0H31C35.9706 0 40 4.02944 40 9V35H13C8.02944 35 4 30.9706 4 26V9Z" fill="url(#paint0_linear_209_113700)"/>
<path d="M22.1011 24.3452C20.5009 24.3452 18.9662 23.7126 17.8346 22.5865C16.7031 21.4605 16.0674 19.9332 16.0674 18.3407C16.0674 18.1814 16.131 18.0287 16.2441 17.9161C16.3573 17.8035 16.5107 17.7402 16.6708 17.7402C16.8308 17.7402 16.9843 17.8035 17.0974 17.9161C17.2106 18.0287 17.2741 18.1814 17.2741 18.3407C17.2741 19.6147 17.7827 20.8365 18.6879 21.7374C19.5932 22.6382 20.8209 23.1443 22.1011 23.1443C23.3813 23.1443 24.6091 22.6382 25.5143 21.7374C26.4196 20.8365 26.9281 19.6147 26.9281 18.3407C26.9281 18.1814 26.9917 18.0287 27.1048 17.9161C27.218 17.8035 27.3715 17.7402 27.5315 17.7402C27.6915 17.7402 27.845 17.8035 27.9581 17.9161C28.0713 18.0287 28.1349 18.1814 28.1349 18.3407C28.1349 19.9332 27.4992 21.4605 26.3676 22.5865C25.2361 23.7126 23.7014 24.3452 22.1011 24.3452Z" fill="white"/>
<path d="M22.1012 26.7473C21.9412 26.7473 21.7877 26.684 21.6745 26.5714C21.5614 26.4588 21.4978 26.3061 21.4978 26.1468V23.745C21.4978 23.5857 21.5614 23.433 21.6745 23.3204C21.7877 23.2078 21.9412 23.1445 22.1012 23.1445C22.2612 23.1445 22.4147 23.2078 22.5278 23.3204C22.641 23.433 22.7046 23.5857 22.7046 23.745V26.1468C22.7046 26.3061 22.641 26.4588 22.5278 26.5714C22.4147 26.684 22.2612 26.7473 22.1012 26.7473Z" fill="white"/>
<path d="M22.1012 21.9444C21.1411 21.9444 20.2202 21.5648 19.5413 20.8892C18.8624 20.2135 18.481 19.2972 18.481 18.3417V12.3371C18.481 11.3816 18.8624 10.4652 19.5413 9.78959C20.2202 9.11395 21.1411 8.73438 22.1012 8.73438C23.0613 8.73438 23.9822 9.11395 24.6611 9.78959C25.34 10.4652 25.7214 11.3816 25.7214 12.3371V18.3417C25.7214 19.2972 25.34 20.2135 24.6611 20.8892C23.9822 21.5648 23.0613 21.9444 22.1012 21.9444ZM22.1012 9.93528C21.4611 9.93528 20.8472 10.1883 20.3946 10.6388C19.942 11.0892 19.6877 11.7001 19.6877 12.3371V18.3417C19.6877 18.9787 19.942 19.5896 20.3946 20.04C20.8472 20.4904 21.4611 20.7435 22.1012 20.7435C22.7413 20.7435 23.3552 20.4904 23.8078 20.04C24.2604 19.5896 24.5147 18.9787 24.5147 18.3417V12.3371C24.5147 11.7001 24.2604 11.0892 23.8078 10.6388C23.3552 10.1883 22.7413 9.93528 22.1012 9.93528Z" fill="white"/>
</g>
<defs>
<filter id="filter0_d_209_113700" x="0" y="0" width="44" height="43" filterUnits="userSpaceOnUse" color-interpolation-filters="sRGB">
<feFlood flood-opacity="0" result="BackgroundImageFix"/>
<feColorMatrix in="SourceAlpha" type="matrix" values="0 0 0 0 0 0 0 0 0 0 0 0 0 0 0 0 0 0 127 0" result="hardAlpha"/>
<feOffset dy="4"/>
<feGaussianBlur stdDeviation="2"/>
<feComposite in2="hardAlpha" operator="out"/>
<feColorMatrix type="matrix" values="0 0 0 0 0 0 0 0 0 0 0 0 0 0 0 0 0 0 0.25 0"/>
<feBlend mode="normal" in2="BackgroundImageFix" result="effect1_dropShadow_209_113700"/>
<feBlend mode="normal" in="SourceGraphic" in2="effect1_dropShadow_209_113700" result="shape"/>
</filter>
<linearGradient id="paint0_linear_209_113700" x1="40.4245" y1="38.9272" x2="8.22391" y2="5.47318" gradientUnits="userSpaceOnUse">
<stop stop-color="#63C7FF"/>
<stop offset="1" stop-color="#0094FF"/>
</linearGradient>
</defs>
</svg>
