<svg width="20" height="20" viewBox="0 0 20 20" fill="none" xmlns="http://www.w3.org/2000/svg">
<path d="M3.54684 13.8281C2.61628 12.2581 2.29079 10.4025 2.63146 8.60949C2.97213 6.81652 3.95553 5.20954 5.39706 4.09025C6.83859 2.97096 8.6391 2.41633 10.4606 2.53049C12.2821 2.64464 13.9992 3.41972 15.2897 4.71023C16.5802 6.00073 17.3553 7.71791 17.4695 9.53939C17.5836 11.3609 17.029 13.1614 15.9097 14.6029C14.7904 16.0444 13.1834 17.0278 11.3905 17.3685C9.5975 17.7092 7.74183 17.3837 6.17184 16.4531V16.4531L3.57809 17.1875C3.47182 17.2186 3.35915 17.2205 3.25189 17.1931C3.14462 17.1656 3.04671 17.1098 2.96842 17.0315C2.89013 16.9533 2.83434 16.8553 2.8069 16.7481C2.77946 16.6408 2.78139 16.5281 2.81247 16.4219L3.54684 13.8281Z" stroke="#555555" stroke-width="1.5" stroke-linecap="round" stroke-linejoin="round"/>
<path d="M10.6309 5.355L10.4879 10.69H9.44291L9.29991 5.355H10.6309ZM10.0039 13.077C9.77658 13.077 9.58591 13 9.43191 12.846C9.27791 12.692 9.20091 12.5013 9.20091 12.274C9.20091 12.0467 9.27791 11.856 9.43191 11.702C9.58591 11.548 9.77658 11.471 10.0039 11.471C10.2239 11.471 10.4109 11.548 10.5649 11.702C10.7189 11.856 10.7959 12.0467 10.7959 12.274C10.7959 12.5013 10.7189 12.692 10.5649 12.846C10.4109 13 10.2239 13.077 10.0039 13.077Z" fill="#555555"/>
</svg>
