<svg width="43" height="43" viewBox="0 0 43 43" fill="none" xmlns="http://www.w3.org/2000/svg">
<g filter="url(#filter0_d_409_85192)">
<rect x="4" y="2" width="35" height="35" rx="6" fill="white"/>
<rect x="4.5" y="2.5" width="34" height="34" rx="5.5" stroke="#D1D4DD"/>
</g>
<path fill-rule="evenodd" clip-rule="evenodd" d="M19.169 16.8941C19.5963 17.3677 19.4608 17.9042 19.083 18.4134C18.9934 18.5341 18.8902 18.653 18.7655 18.784C18.7057 18.8469 18.659 18.8943 18.5614 18.992L18.0023 19.5514C17.929 19.6246 18.4291 20.6239 19.3996 21.5954C19.8816 22.0779 20.3708 22.4442 20.7501 22.6816V24.2985C20.0064 24.0421 19.1764 23.4348 18.3688 22.6264C16.831 21.0871 16.0218 19.47 16.972 18.5199L17.5305 17.961C17.6199 17.8715 17.6608 17.8301 17.7099 17.7785C17.7767 17.7082 17.8317 17.6465 17.8757 17.5919C17.0259 16.4082 16.4483 15.6686 16.1369 15.361C15.976 15.2021 15.6159 15.2314 15.4837 15.3616C15.1311 15.709 15.0152 15.8249 14.6495 16.1964C13.3338 17.5128 14.341 21.0058 17.1643 23.8319C19.9867 26.6572 23.4793 27.6648 24.805 26.3386C25.1386 26.0168 25.4105 25.7448 25.6197 25.5236C25.771 25.3637 25.798 25.0339 25.624 24.8532C25.5345 24.7602 25.4049 24.6431 25.2324 24.4997C25.1479 23.9099 24.7694 23.4151 24.2501 23.1684V21.9348C25.5533 22.8705 26.3007 23.4539 26.6739 23.8417C27.4299 24.6272 27.3309 25.8363 26.6782 26.5261C26.4519 26.7653 26.165 27.0524 25.8261 27.3792C23.776 29.4304 19.4493 28.1821 16.1334 24.8629C12.8168 21.543 11.5692 17.216 13.615 15.1691C13.9822 14.796 14.1033 14.675 14.461 14.3225C15.127 13.6663 16.3919 13.5636 17.1609 14.3232C17.5654 14.7227 18.2102 15.5524 19.169 16.8941Z" fill="#6174A4"/>
<path d="M21.5 17.75H22.5V24.75H23.5" stroke="#6174A4" stroke-width="1.5" stroke-linecap="round" stroke-linejoin="round"/>
<path d="M22.25 14.5C22.9404 14.5 23.5 13.9404 23.5 13.25C23.5 12.5596 22.9404 12 22.25 12C21.5596 12 21 12.5596 21 13.25C21 13.9404 21.5596 14.5 22.25 14.5Z" fill="#6174A4"/>
<defs>
<filter id="filter0_d_409_85192" x="0" y="0" width="43" height="43" filterUnits="userSpaceOnUse" color-interpolation-filters="sRGB">
<feFlood flood-opacity="0" result="BackgroundImageFix"/>
<feColorMatrix in="SourceAlpha" type="matrix" values="0 0 0 0 0 0 0 0 0 0 0 0 0 0 0 0 0 0 127 0" result="hardAlpha"/>
<feOffset dy="2"/>
<feGaussianBlur stdDeviation="2"/>
<feComposite in2="hardAlpha" operator="out"/>
<feColorMatrix type="matrix" values="0 0 0 0 0 0 0 0 0 0 0 0 0 0 0 0 0 0 0.12 0"/>
<feBlend mode="normal" in2="BackgroundImageFix" result="effect1_dropShadow_409_85192"/>
<feBlend mode="normal" in="SourceGraphic" in2="effect1_dropShadow_409_85192" result="shape"/>
</filter>
</defs>
</svg>
