<svg width="18" height="18" viewBox="0 0 18 18" fill="none" xmlns="http://www.w3.org/2000/svg">
<path d="M14.625 3.9375H3.375C2.75368 3.9375 2.25 4.44118 2.25 5.0625V12.9375C2.25 13.5588 2.75368 14.0625 3.375 14.0625H14.625C15.2463 14.0625 15.75 13.5588 15.75 12.9375V5.0625C15.75 4.44118 15.2463 3.9375 14.625 3.9375Z" stroke="#555555" stroke-width="1.2" stroke-linecap="round" stroke-linejoin="round"/>
<path d="M2.25 8.43751H6.24375C6.37329 8.43679 6.49902 8.48138 6.59916 8.56355C6.69931 8.64572 6.76759 8.76032 6.79219 8.88751C6.89961 9.39342 7.17752 9.84709 7.57941 10.1726C7.98131 10.4981 8.48281 10.6758 9 10.6758C9.51719 10.6758 10.0187 10.4981 10.4206 10.1726C10.8225 9.84709 11.1004 9.39342 11.2078 8.88751C11.2324 8.76032 11.3007 8.64572 11.4008 8.56355C11.501 8.48138 11.6267 8.43679 11.7562 8.43751H15.75" stroke="#555555" stroke-width="1.2" stroke-linecap="round" stroke-linejoin="round"/>
<path d="M2.25 6.1875H15.75" stroke="#555555" stroke-width="1.5" stroke-linecap="round" stroke-linejoin="round"/>
</svg>
