<svg width="14" height="14" viewBox="0 0 14 14" fill="none" xmlns="http://www.w3.org/2000/svg">
<g clip-path="url(#clip0_63_8020)">
<path d="M13.9997 8.74999C13.9997 8.93082 13.9122 9.10582 13.7663 9.21665L11.433 10.9667C11.328 11.0425 11.2055 11.0833 11.083 11.0833C10.9955 11.0833 10.9022 11.06 10.8205 11.0192C10.6222 10.92 10.4997 10.7217 10.4997 10.5V9.33332H2.91634C2.59551 9.33332 2.33301 9.07082 2.33301 8.74999C2.33301 8.42915 2.59551 8.16665 2.91634 8.16665H10.4997V6.99999C10.4997 6.77832 10.6222 6.57415 10.8205 6.48082C11.0188 6.38165 11.258 6.39915 11.433 6.53332L13.7663 8.28332C13.9122 8.39415 13.9997 8.56915 13.9997 8.74999Z" fill="#555555"/>
<path d="M10.5 1.16667V5.25C10.5 5.57083 10.2375 5.83333 9.91667 5.83333C9.59583 5.83333 9.33333 5.57083 9.33333 5.25V1.45833C9.33333 1.295 9.205 1.16667 9.04167 1.16667H1.45833C1.295 1.16667 1.16667 1.295 1.16667 1.45833V12.5417C1.16667 12.705 1.295 12.8333 1.45833 12.8333H9.04167C9.205 12.8333 9.33333 12.705 9.33333 12.5417V12.25C9.33333 11.9292 9.59583 11.6667 9.91667 11.6667C10.2375 11.6667 10.5 11.9292 10.5 12.25V12.8333C10.5 13.475 9.975 14 9.33333 14H1.16667C0.525 14 0 13.475 0 12.8333V1.16667C0 0.525 0.525 0 1.16667 0H9.33333C9.975 0 10.5 0.525 10.5 1.16667Z" fill="#555555"/>
</g>
<defs>
<clipPath id="clip0_63_8020">
<rect width="14" height="14" fill="white"/>
</clipPath>
</defs>
</svg>
