<svg width="17" height="17" viewBox="0 0 17 17" fill="none" xmlns="http://www.w3.org/2000/svg">
<g clip-path="url(#clip0_0_22585)">
<path d="M10.4101 7.77422H15.3684C16.1431 7.77422 16.7746 7.14265 16.7746 6.36802V1.4062C16.7746 0.631568 16.1431 0 15.3684 0H10.4101C9.63547 0 9.00391 0.631568 9.00391 1.4062V6.36453C9.00391 7.14265 9.63547 7.77422 10.4101 7.77422ZM9.85879 1.4062C9.85879 1.10263 10.1065 0.854885 10.4101 0.854885H15.3684C15.672 0.854885 15.9198 1.10263 15.9198 1.4062V6.36453C15.9198 6.6681 15.672 6.91584 15.3684 6.91584H10.4101C10.1065 6.91584 9.85879 6.6681 9.85879 6.36453V1.4062Z" fill="url(#paint0_linear_0_22585)"/>
<path d="M3.70808 0.823492C3.54059 0.656004 3.27191 0.656004 3.10442 0.823492L0.344366 3.58355C0.176878 3.75104 0.176878 4.01972 0.344366 4.1872L3.10442 6.94726C3.18817 7.031 3.29634 7.07288 3.40799 7.07288C3.51965 7.07288 3.62782 7.031 3.71157 6.94726C3.87905 6.77977 3.87905 6.51109 3.71157 6.34361L1.67729 4.31282H7.63706C7.87433 4.31282 8.06625 4.12091 8.06625 3.88712C8.06625 3.65334 7.87433 3.45793 7.63706 3.45793H1.67729L3.70808 1.42715C3.87556 1.26315 3.87556 0.990979 3.70808 0.823492Z" fill="url(#paint1_linear_0_22585)"/>
<path d="M0.21875 15.5938C0.21875 16.3684 0.850318 17 1.62495 17H6.58328C7.35791 17 7.98948 16.3684 7.98948 15.5938V10.6355C7.98948 9.86085 7.35791 9.22928 6.58328 9.22928H1.62844C0.853807 9.22928 0.222239 9.86085 0.222239 10.6355V15.5938H0.21875ZM1.07363 10.6355C1.07363 10.3319 1.32138 10.0842 1.62495 10.0842H6.58328C6.88685 10.0842 7.13459 10.3319 7.13459 10.6355V15.5938C7.13459 15.8974 6.88685 16.1451 6.58328 16.1451H1.62844C1.32487 16.1451 1.07712 15.8974 1.07712 15.5938V10.6355H1.07363Z" fill="url(#paint2_linear_0_22585)"/>
<path d="M9.36083 13.5421H15.3206L13.2898 15.5729C13.1223 15.7404 13.1223 16.009 13.2898 16.1765C13.3736 16.2603 13.4817 16.3021 13.5934 16.3021C13.705 16.3021 13.8132 16.2603 13.897 16.1765L16.657 13.4165C16.7373 13.3362 16.7826 13.228 16.7826 13.1129C16.7826 13.0012 16.7373 12.8896 16.657 12.8093L13.897 10.0493C13.7295 9.88177 13.4608 9.88177 13.2933 10.0493C13.1258 10.2167 13.1258 10.4854 13.2933 10.6529L15.3241 12.6837H9.36083C9.12355 12.6837 8.93164 12.8756 8.93164 13.1129C8.93164 13.3502 9.12355 13.5421 9.36083 13.5421Z" fill="url(#paint3_linear_0_22585)"/>
</g>
<defs>
<linearGradient id="paint0_linear_0_22585" x1="12.8893" y1="0" x2="12.8893" y2="7.77422" gradientUnits="userSpaceOnUse">
<stop stop-color="#000AFF"/>
<stop offset="1" stop-color="#D274FF"/>
</linearGradient>
<linearGradient id="paint1_linear_0_22585" x1="4.1425" y1="0.697876" x2="4.1425" y2="7.07288" gradientUnits="userSpaceOnUse">
<stop stop-color="#000AFF"/>
<stop offset="1" stop-color="#D274FF"/>
</linearGradient>
<linearGradient id="paint2_linear_0_22585" x1="4.10411" y1="9.22928" x2="4.10411" y2="17" gradientUnits="userSpaceOnUse">
<stop stop-color="#000AFF"/>
<stop offset="1" stop-color="#D274FF"/>
</linearGradient>
<linearGradient id="paint3_linear_0_22585" x1="12.8571" y1="9.92365" x2="12.8571" y2="16.3021" gradientUnits="userSpaceOnUse">
<stop stop-color="#000AFF"/>
<stop offset="1" stop-color="#D274FF"/>
</linearGradient>
<clipPath id="clip0_0_22585">
<rect width="17" height="17" fill="white"/>
</clipPath>
</defs>
</svg>
