<svg width="21" height="21" viewBox="0 0 21 21" fill="none" xmlns="http://www.w3.org/2000/svg">
<path d="M6.59375 16.2266L4.02344 18.3828C3.93238 18.4582 3.82183 18.5061 3.70461 18.5212C3.58738 18.5363 3.46829 18.5178 3.36115 18.4679C3.25401 18.418 3.16321 18.3387 3.09929 18.2393C3.03536 18.1399 3.00094 18.0244 3 17.9063V5.5C3 5.33424 3.06585 5.17527 3.18306 5.05806C3.30027 4.94085 3.45924 4.875 3.625 4.875H17.375C17.5408 4.875 17.6997 4.94085 17.8169 5.05806C17.9342 5.17527 18 5.33424 18 5.5V15.5C18 15.6658 17.9342 15.8247 17.8169 15.9419C17.6997 16.0592 17.5408 16.125 17.375 16.125H6.88281L6.59375 16.2266Z" stroke="#333333" stroke-width="1.5" stroke-linecap="round" stroke-linejoin="round"/>
<path d="M8 9.25H13" stroke="#333333" stroke-width="1.5" stroke-linecap="round" stroke-linejoin="round"/>
<path d="M8 11.75H13" stroke="black" stroke-width="1.5" stroke-linecap="round" stroke-linejoin="round"/>
</svg>
