<svg width="19" height="19" viewBox="0 0 19 19" fill="none" xmlns="http://www.w3.org/2000/svg">
<path d="M1.58301 4.15617C1.58301 2.73518 2.73494 1.58325 4.15592 1.58325H12.4684C13.8894 1.58325 15.0413 2.73518 15.0413 4.15617V7.92229C14.9759 7.91849 14.9098 7.91658 14.8434 7.91658H13.8538V4.15617C13.8538 3.39102 13.2336 2.77075 12.4684 2.77075H4.15592C3.39078 2.77075 2.77051 3.39102 2.77051 4.15617V13.2603C2.77051 14.0255 3.39078 14.6458 4.15592 14.6458H4.74967V14.8437C4.74967 15.188 4.80142 15.5204 4.89756 15.8333H4.15592C2.73495 15.8333 1.58301 14.6813 1.58301 13.2603V4.15617ZM5.34342 3.95825C5.01551 3.95825 4.74967 4.22409 4.74967 4.552C4.74967 4.87992 5.01551 5.14575 5.34342 5.14575H11.2809C11.6088 5.14575 11.8747 4.87992 11.8747 4.552C11.8747 4.22409 11.6088 3.95825 11.2809 3.95825H5.34342ZM6.33301 6.53117C6.33301 6.20325 6.59884 5.93742 6.92676 5.93742H11.2809C11.6088 5.93742 11.8747 6.20325 11.8747 6.53117C11.8747 6.85908 11.6088 7.12492 11.2809 7.12492H6.92676C6.59884 7.12492 6.33301 6.85908 6.33301 6.53117ZM5.54134 11.2812C5.54134 9.86021 6.69327 8.70825 8.11426 8.70825H14.8434C16.2644 8.70825 17.4163 9.86021 17.4163 11.2812V14.8437C17.4163 16.2646 16.2644 17.4166 14.8434 17.4166H8.11426C6.69327 17.4166 5.54134 16.2646 5.54134 14.8437V11.2812ZM8.11426 9.89575C7.71503 9.89575 7.35524 10.0646 7.10243 10.3348L11.4789 13.1482L15.8553 10.3348C15.6025 10.0646 15.2427 9.89575 14.8434 9.89575H8.11426ZM6.72884 14.8437C6.72884 15.6088 7.34911 16.2291 8.11426 16.2291H14.8434C15.6086 16.2291 16.2288 15.6088 16.2288 14.8437V11.5064L11.7999 14.3535C11.6044 14.4793 11.3534 14.4793 11.1578 14.3535L6.72884 11.5064V14.8437Z" fill="#645DF6"/>
</svg>
