<svg width="19" height="20" viewBox="0 0 19 20" fill="none" xmlns="http://www.w3.org/2000/svg">
<path d="M13.3 19.2271H5.7C4.18875 19.2255 2.73984 18.6244 1.67123 17.5558C0.60261 16.4872 0.00157177 15.0383 0 13.5271V5.92705C0.00157177 4.4158 0.60261 2.9669 1.67123 1.89828C2.73984 0.829661 4.18875 0.228623 5.7 0.227051H13.3C14.8113 0.228623 16.2602 0.829661 17.3288 1.89828C18.3974 2.9669 18.9984 4.4158 19 5.92705V13.5271C18.9984 15.0383 18.3974 16.4872 17.3288 17.5558C16.2602 18.6244 14.8113 19.2255 13.3 19.2271ZM5.7 1.49174C4.52416 1.49331 3.39694 1.9611 2.5655 2.79255C1.73405 3.62399 1.26626 4.75122 1.26469 5.92705V13.5271C1.26626 14.7029 1.73405 15.8301 2.5655 16.6616C3.39694 17.493 4.52416 17.9608 5.7 17.9624H13.3C14.4758 17.9608 15.6031 17.493 16.4345 16.6616C17.2659 15.8301 17.7337 14.7029 17.7353 13.5271V5.92705C17.7337 4.75122 17.2659 3.62399 16.4345 2.79255C15.6031 1.9611 14.4758 1.49331 13.3 1.49174H5.7Z" fill="url(#paint0_linear_98_2316)"/>
<path d="M9.5 10.9917C8.74843 10.9917 8.01374 10.7689 7.38883 10.3513C6.76393 9.93377 6.27687 9.34029 5.98926 8.64594C5.70164 7.95158 5.62639 7.18752 5.77302 6.45039C5.91964 5.71327 6.28156 5.03617 6.81299 4.50473C7.34443 3.97329 8.02153 3.61138 8.75866 3.46475C9.49578 3.31813 10.2598 3.39338 10.9542 3.681C11.6486 3.96861 12.242 4.45566 12.6596 5.08057C13.0771 5.70548 13.3 6.44017 13.3 7.19174C13.2984 8.19908 12.8976 9.16471 12.1853 9.87701C11.473 10.5893 10.5073 10.9902 9.5 10.9917ZM9.5 4.66236C8.99856 4.66236 8.50839 4.81106 8.09146 5.08964C7.67453 5.36822 7.34957 5.76419 7.15768 6.22745C6.96579 6.69072 6.91558 7.20049 7.0134 7.69229C7.11123 8.18409 7.35269 8.63584 7.70726 8.99041C8.06183 9.34498 8.51358 9.58645 9.00539 9.68427C9.49719 9.7821 10.007 9.73189 10.4702 9.54C10.9335 9.34811 11.3295 9.02315 11.608 8.60622C11.8866 8.18929 12.0353 7.69911 12.0353 7.19768C12.0353 6.52527 11.7682 5.8804 11.2927 5.40494C10.8173 4.92948 10.1724 4.66236 9.5 4.66236Z" fill="url(#paint1_linear_98_2316)"/>
<path d="M13.9413 14.8689C13.7829 14.8693 13.6303 14.8099 13.5138 14.7027C12.6978 13.9422 11.6247 13.5181 10.5094 13.5152H8.49656C7.38121 13.5181 6.30812 13.9422 5.49219 14.7027C5.43143 14.7634 5.359 14.8111 5.27927 14.843C5.19954 14.8749 5.11416 14.8904 5.02831 14.8883C4.94245 14.8863 4.8579 14.8669 4.77975 14.8313C4.7016 14.7957 4.63148 14.7446 4.57363 14.6812C4.51579 14.6177 4.47141 14.5431 4.44318 14.462C4.41495 14.3809 4.40346 14.2949 4.4094 14.2093C4.41534 14.1236 4.43859 14.04 4.47774 13.9636C4.51689 13.8871 4.57113 13.8194 4.63719 13.7646C5.68918 12.7966 7.06705 12.2603 8.49656 12.2624H10.5034C11.9366 12.2621 13.3171 12.8028 14.3688 13.7764C14.4611 13.8632 14.5255 13.9756 14.5535 14.0992C14.5815 14.2228 14.5719 14.3519 14.526 14.47C14.48 14.5881 14.3998 14.6898 14.2956 14.7619C14.1914 14.8341 14.068 14.8734 13.9413 14.8749V14.8689Z" fill="url(#paint2_linear_98_2316)"/>
<defs>
<linearGradient id="paint0_linear_98_2316" x1="9.5" y1="0.227051" x2="9.5" y2="19.2271" gradientUnits="userSpaceOnUse">
<stop stop-color="#000AFF"/>
<stop offset="1" stop-color="#D274FF"/>
</linearGradient>
<linearGradient id="paint1_linear_98_2316" x1="9.5" y1="0.227051" x2="9.5" y2="19.2271" gradientUnits="userSpaceOnUse">
<stop stop-color="#000AFF"/>
<stop offset="1" stop-color="#D274FF"/>
</linearGradient>
<linearGradient id="paint2_linear_98_2316" x1="9.5" y1="0.227051" x2="9.5" y2="19.2271" gradientUnits="userSpaceOnUse">
<stop stop-color="#000AFF"/>
<stop offset="1" stop-color="#D274FF"/>
</linearGradient>
</defs>
</svg>
