<svg width="16" height="20" viewBox="0 0 16 20" fill="none" xmlns="http://www.w3.org/2000/svg">
<path d="M12.975 19.7781H2.42504C1.78188 19.7781 1.16506 19.5226 0.710279 19.0679C0.255495 18.6131 0 17.9963 0 17.3531V16.5509C0 12.7009 3.45423 9.56676 7.7 9.56676C11.9458 9.56676 15.4 12.6989 15.4 16.5509V17.3531C15.4 17.6716 15.3373 17.9869 15.2154 18.2811C15.0935 18.5753 14.9149 18.8427 14.6897 19.0679C14.4645 19.293 14.1972 19.4717 13.903 19.5935C13.6088 19.7154 13.2934 19.7781 12.975 19.7781ZM7.7 10.5387C3.98871 10.5387 0.970018 13.2354 0.970018 16.5528V17.355C0.970018 17.7409 1.12331 18.111 1.39619 18.3839C1.66906 18.6568 2.03915 18.8101 2.42504 18.8101H12.975C13.3609 18.8101 13.7309 18.6568 14.0038 18.3839C14.2767 18.111 14.43 17.7409 14.43 17.355V16.5509C14.43 13.2354 11.4113 10.5387 7.7 10.5387Z" fill="url(#paint0_linear_987_197260)"/>
<path d="M7.7 8.1127C6.94713 8.11289 6.21112 7.88982 5.58504 7.47169C4.95896 7.05356 4.47094 6.45915 4.1827 5.76365C3.89446 5.06815 3.81894 4.30279 3.9657 3.56436C4.11246 2.82594 4.4749 2.14762 5.00719 1.6152C5.53948 1.08277 6.21771 0.720158 6.95609 0.573211C7.69448 0.426263 8.45986 0.501585 9.15543 0.78965C9.85101 1.07772 10.4455 1.56558 10.8638 2.19156C11.2821 2.81753 11.5054 3.55349 11.5054 4.30635C11.5046 5.31545 11.1035 6.28302 10.39 6.99665C9.67657 7.71029 8.7091 8.11167 7.7 8.1127ZM7.7 1.47099C7.13895 1.4708 6.59044 1.63701 6.12385 1.94859C5.65727 2.26018 5.29358 2.70314 5.07879 3.22146C4.86399 3.73977 4.80774 4.31014 4.91715 4.86042C5.02656 5.41071 5.29672 5.91618 5.69344 6.31291C6.09017 6.70964 6.59564 6.97979 7.14593 7.0892C7.69621 7.19861 8.26658 7.14236 8.7849 6.92756C9.30321 6.71277 9.74617 6.34908 10.0578 5.8825C10.3693 5.41592 10.5356 4.86741 10.5354 4.30635C10.5346 3.5546 10.2356 2.83387 9.70405 2.3023C9.17249 1.77073 8.45175 1.47176 7.7 1.47099Z" fill="url(#paint1_linear_987_197260)"/>
<defs>
<linearGradient id="paint0_linear_987_197260" x1="7.7" y1="0.5" x2="7.7" y2="19.7781" gradientUnits="userSpaceOnUse">
<stop stop-color="#0033EA"/>
<stop offset="1" stop-color="#8A0074"/>
</linearGradient>
<linearGradient id="paint1_linear_987_197260" x1="7.7" y1="0.5" x2="7.7" y2="19.7781" gradientUnits="userSpaceOnUse">
<stop stop-color="#0033EA"/>
<stop offset="1" stop-color="#8A0074"/>
</linearGradient>
</defs>
</svg>
