<svg width="23" height="23" viewBox="0 0 23 23" fill="none" xmlns="http://www.w3.org/2000/svg">
<path d="M11.5 16.1719C13.4848 16.1719 15.0938 14.5629 15.0938 12.5781C15.0938 10.5934 13.4848 8.98438 11.5 8.98438C9.51523 8.98438 7.90625 10.5934 7.90625 12.5781C7.90625 14.5629 9.51523 16.1719 11.5 16.1719Z" stroke="white" strokeWidth="1.5" strokeLinecap="round" strokeLinejoin="round"/>
<path d="M17.6094 10.4219C18.4465 10.4205 19.2723 10.6147 20.0211 10.9891C20.7698 11.3635 21.4207 11.9076 21.9219 12.5781" stroke="white" strokeWidth="1.5" strokeLinecap="round" strokeLinejoin="round"/>
<path d="M1.07812 12.5781C1.57927 11.9076 2.23017 11.3635 2.97891 10.9891C3.72765 10.6147 4.55351 10.4205 5.39062 10.4219" stroke="white" strokeWidth="1.5" strokeLinecap="round" strokeLinejoin="round"/>
<path d="M6.32501 19.4063C6.79833 18.4369 7.53438 17.62 8.44932 17.0486C9.36426 16.4772 10.4213 16.1742 11.5 16.1742C12.5787 16.1742 13.6358 16.4772 14.5507 17.0486C15.4656 17.62 16.2017 18.4369 16.675 19.4063" stroke="white" strokeWidth="1.5" strokeLinecap="round" strokeLinejoin="round"/>
<path d="M5.39061 10.4219C4.84494 10.4224 4.31038 10.2677 3.84939 9.97571C3.3884 9.68374 3.02002 9.2666 2.78729 8.77305C2.55456 8.27949 2.4671 7.7299 2.53512 7.18848C2.60315 6.64706 2.82384 6.13619 3.17143 5.71554C3.51902 5.29489 3.97914 4.98185 4.49803 4.81299C5.01691 4.64413 5.57314 4.62643 6.10172 4.76195C6.6303 4.89747 7.10939 5.18062 7.48302 5.57831C7.85665 5.97601 8.10939 6.47182 8.21171 7.00781" stroke="white" strokeWidth="1.5" strokeLinecap="round" strokeLinejoin="round"/>
<path d="M14.7883 7.00781C14.8906 6.47182 15.1433 5.97601 15.517 5.57831C15.8906 5.18062 16.3697 4.89747 16.8983 4.76195C17.4268 4.62643 17.9831 4.64413 18.502 4.81299C19.0208 4.98185 19.481 5.29489 19.8285 5.71554C20.1761 6.13619 20.3968 6.64706 20.4649 7.18848C20.5329 7.7299 20.4454 8.27949 20.2127 8.77305C19.98 9.2666 19.6116 9.68374 19.1506 9.97571C18.6896 10.2677 18.155 10.4224 17.6094 10.4219" stroke="white" strokeWidth="1.5" strokeLinecap="round" strokeLinejoin="round"/>
</svg>
