<svg width="14" height="15" viewBox="0 0 14 15" fill="none" xmlns="http://www.w3.org/2000/svg">
<path d="M5.64258 7.40264C5.64258 8.16788 6.22683 8.79063 6.94477 8.79063C7.66271 8.79063 8.24695 8.16788 8.24695 7.40264C8.24695 6.63739 7.66271 6.01465 6.94477 6.01465C6.22683 6.01465 5.64258 6.63739 5.64258 7.40264Z" fill="#555555"/>
<path d="M5.64258 12.0291C5.64258 12.7943 6.22683 13.4171 6.94477 13.4171C7.66271 13.4171 8.24695 12.7943 8.24695 12.0291C8.24695 11.2639 7.66271 10.6411 6.94477 10.6411C6.22683 10.6411 5.64258 11.2639 5.64258 12.0291Z" fill="#555555"/>
<path d="M5.64258 2.77617C5.64258 3.54142 6.22683 4.16416 6.94477 4.16416C7.66271 4.16416 8.24695 3.54142 8.24695 2.77617C8.24695 2.01093 7.66271 1.38818 6.94477 1.38818C6.22683 1.38818 5.64258 2.01093 5.64258 2.77617Z" fill="#555555"/>
</svg>
