<svg width="19" height="19" viewBox="0 0 19 19" fill="none" xmlns="http://www.w3.org/2000/svg">
<path d="M9.5 0.875C4.70833 0.875 0.875 4.70833 0.875 9.5C0.875 11.225 1.45 12.95 2.40833 14.3875L1.06667 16.6875C0.875 16.975 0.875 17.3583 1.06667 17.6458C1.25833 17.9333 1.45 18.125 1.83333 18.125H9.5C14.2917 18.125 18.125 14.2917 18.125 9.5C18.125 4.70833 14.2917 0.875 9.5 0.875ZM9.5 16.2083H3.55833L4.42083 14.7708C4.6125 14.3875 4.6125 14.0042 4.325 13.7167C3.36667 12.5667 2.79167 11.0333 2.79167 9.5C2.79167 5.7625 5.7625 2.79167 9.5 2.79167C13.2375 2.79167 16.2083 5.7625 16.2083 9.5C16.2083 13.2375 13.2375 16.2083 9.5 16.2083Z" fill="white"/>
<path d="M9.59575 4.99561H9.49991C8.54158 4.99561 7.67908 5.47477 7.19991 6.24144C6.81658 6.72061 6.91241 7.29561 7.39158 7.58311C7.87075 7.87061 8.44575 7.77477 8.73325 7.2956C8.92491 7.00811 9.21241 6.91227 9.49991 6.91227H9.59575C10.0749 6.91227 10.4582 7.2956 10.4582 7.77477C10.4582 8.15811 10.1707 8.54144 9.88325 8.63727L9.21241 8.82894C8.82908 8.92477 8.54158 9.3081 8.54158 9.69144V10.4581C8.54158 11.0331 8.92491 11.4164 9.49991 11.4164C9.97908 11.4164 10.4582 11.0331 10.4582 10.5539C11.6082 10.1706 12.3749 9.11644 12.3749 7.87061C12.3749 6.33727 11.1291 4.99561 9.59575 4.99561Z" fill="white"/>
<path d="M9.50008 14.2917C10.0294 14.2917 10.4584 13.8626 10.4584 13.3333C10.4584 12.8041 10.0294 12.375 9.50008 12.375C8.97081 12.375 8.54175 12.8041 8.54175 13.3333C8.54175 13.8626 8.97081 14.2917 9.50008 14.2917Z" fill="white"/>
</svg>
