<svg width="15" height="16" viewBox="0 0 15 16" fill="none" xmlns="http://www.w3.org/2000/svg">
<rect x="0.75" y="1.25" width="13.5" height="13.5" rx="6.75" stroke="#645DF6" stroke-width="1.5"/>
<g clip-path="url(#clip0_3601_3681)">
<path d="M7.77623 4.38867C7.26071 4.38926 6.76648 4.59431 6.40195 4.95884C6.03743 5.32336 5.83238 5.8176 5.83179 6.33312C5.83179 6.46204 5.883 6.58569 5.97417 6.67685C6.06533 6.76801 6.18897 6.81923 6.3179 6.81923C6.44682 6.81923 6.57047 6.76801 6.66163 6.67685C6.75279 6.58569 6.80401 6.46204 6.80401 6.33312C6.80401 6.07527 6.90644 5.82798 7.08877 5.64565C7.27109 5.46332 7.51838 5.36089 7.77623 5.36089C8.03408 5.36089 8.28137 5.46332 8.4637 5.64565C8.64602 5.82798 8.74845 6.07527 8.74845 6.33312C8.74845 6.75466 8.50065 7.01339 8.09335 7.38936C7.71642 7.73636 7.29012 8.12945 7.29012 8.76367C7.29012 8.8926 7.34134 9.01624 7.4325 9.10741C7.52366 9.19857 7.64731 9.24978 7.77623 9.24978C7.90516 9.24978 8.0288 9.19857 8.11996 9.10741C8.21113 9.01624 8.26234 8.8926 8.26234 8.76367C8.26234 8.56571 8.44843 8.3839 8.75225 8.10382C9.16051 7.72689 9.72068 7.21087 9.72068 6.33312C9.72009 5.8176 9.51504 5.32336 9.15051 4.95884C8.78598 4.59431 8.29175 4.38926 7.77623 4.38867V4.38867Z" fill="#645DF6"/>
<path d="M7.77624 10.2217C7.58395 10.2217 7.39598 10.2787 7.2361 10.3855C7.07622 10.4924 6.95161 10.6442 6.87802 10.8218C6.80444 10.9995 6.78518 11.195 6.8227 11.3836C6.86021 11.5722 6.95281 11.7454 7.08877 11.8814C7.22474 12.0173 7.39798 12.1099 7.58657 12.1474C7.77516 12.185 7.97064 12.1657 8.14829 12.0921C8.32594 12.0185 8.47778 11.8939 8.58461 11.734C8.69144 11.5742 8.74846 11.3862 8.74846 11.1939C8.74821 10.9361 8.64569 10.689 8.46342 10.5067C8.28115 10.3244 8.03401 10.2219 7.77624 10.2217Z" fill="#645DF6"/>
</g>
<defs>
<clipPath id="clip0_3601_3681">
<rect width="7.77778" height="7.77778" fill="white" transform="translate(3.88733 4.38867)"/>
</clipPath>
</defs>
</svg>
