<svg width="24" height="27" viewBox="0 0 24 27" fill="none" xmlns="http://www.w3.org/2000/svg">
<path d="M12.151 7.54176C11.9058 7.36575 11.6383 7.36631 11.356 7.54335L0.941406 13.6787L22.5679 13.6786L12.1528 7.54307L12.151 7.54176Z" fill="url(#paint0_linear_402_28593)"/>
<path d="M0.718961 13.365L11.2293 7.0908C11.5401 6.89315 11.85 6.89381 12.1242 7.0924L22.6329 13.365H22.7061C22.939 13.1321 22.939 12.7193 22.7061 12.4734L12.0983 6.1416C11.8293 5.94584 11.5409 5.95847 11.2535 6.14131L0.645626 12.4736C0.412396 12.7195 0.412396 13.1321 0.645626 13.365H0.718961Z" fill="url(#paint1_linear_402_28593)"/>
<path d="M21.9412 14.271C21.9412 14.1801 21.9073 14.1486 21.8161 14.1486H1.72614C1.63456 14.1486 1.56836 14.1801 1.56836 14.271V14.7461C1.56836 14.8368 1.63456 14.9321 1.72614 14.9321H21.8161C21.9073 14.9321 21.9412 14.8368 21.9412 14.7461V14.271Z" fill="url(#paint2_linear_402_28593)"/>
<path d="M21.9412 23.8733C21.9412 23.7788 21.9073 23.7079 21.8161 23.7079H1.72614C1.63456 23.7079 1.56836 23.7788 1.56836 23.8733V24.3682C1.56836 24.4628 1.63456 24.4915 1.72614 24.4915H21.8161C21.9073 24.4915 21.9412 24.4628 21.9412 24.3682V23.8733Z" fill="url(#paint3_linear_402_28593)"/>
<path d="M22.5664 25.1193C22.5664 25.032 22.5018 24.9625 22.4034 24.9625H0.945059C0.847173 24.9625 0.783203 25.032 0.783203 25.1193V25.5761C0.783203 25.6634 0.847173 25.7461 0.945059 25.7461H22.4034C22.5018 25.7461 22.5664 25.6634 22.5664 25.5761V25.1193Z" fill="url(#paint4_linear_402_28593)"/>
<path d="M23.5071 26.3834C23.5071 26.2925 23.4209 26.2159 23.315 26.2159H0.190469C0.0849761 26.2159 0 26.2925 0 26.3834V26.8584C0 26.9492 0.0849761 26.9995 0.190469 26.9995H23.315C23.4209 26.9995 23.5071 26.9492 23.5071 26.8584V26.3834Z" fill="url(#paint5_linear_402_28593)"/>
<path d="M6.2696 15.8812C6.2696 15.9613 6.19634 16.0293 6.09742 16.0293H3.79594C3.69693 16.0293 3.60547 15.9613 3.60547 15.8812V15.677C3.60547 15.597 3.69693 15.5592 3.79594 15.5592H6.09742C6.19634 15.5592 6.2696 15.597 6.2696 15.677V15.8812Z" fill="url(#paint6_linear_402_28593)"/>
<path d="M6.582 22.9471C6.582 23.0324 6.5058 23.082 6.41175 23.082H3.46128C3.36732 23.082 3.29102 23.0324 3.29102 22.9471L3.66932 22.4345C3.76042 22.3179 3.80226 22.2992 3.8963 22.2992H5.97673C6.07077 22.2992 6.11379 22.28 6.2037 22.4345L6.582 22.9471Z" fill="url(#paint7_linear_402_28593)"/>
<path d="M5.95525 21.8072C5.95525 21.8977 5.90571 21.9854 5.81045 21.9854H4.08028C3.98511 21.9854 3.91797 21.8977 3.91797 21.8072V16.634C3.91797 16.5435 3.98511 16.5004 4.08028 16.5004H5.81045C5.90571 16.5004 5.95525 16.5435 5.95525 16.634V21.8072Z" fill="url(#paint8_linear_402_28593)"/>
<path d="M10.8145 15.8812C10.8145 15.9613 10.7338 16.0293 10.6336 16.0293H8.30208C8.20187 16.0293 8.15039 15.9613 8.15039 15.8812V15.677C8.15039 15.597 8.20187 15.5592 8.30208 15.5592H10.6336C10.7338 15.5592 10.8145 15.597 10.8145 15.677V15.8812Z" fill="url(#paint9_linear_402_28593)"/>
<path d="M11.1269 22.9471C11.1269 23.0324 11.0507 23.082 10.9567 23.082H8.00612C7.91216 23.082 7.83594 23.0324 7.83594 22.9471L8.21425 22.4345C8.30527 22.3179 8.34719 22.2992 8.44114 22.2992H10.5217C10.6157 22.2992 10.6588 22.28 10.7486 22.4345L11.1269 22.9471Z" fill="url(#paint10_linear_402_28593)"/>
<path d="M10.5002 21.8072C10.5002 21.8977 10.4143 21.9854 10.322 21.9854H8.6461C8.55382 21.9854 8.46289 21.8977 8.46289 21.8072V16.634C8.46289 16.5435 8.55382 16.5004 8.6461 16.5004H10.322C10.4143 16.5004 10.5002 16.5435 10.5002 16.634V21.8072Z" fill="url(#paint11_linear_402_28593)"/>
<path d="M15.2008 15.8812C15.2008 15.9613 15.1179 16.0293 15.025 16.0293H12.8587C12.7656 16.0293 12.6934 15.9613 12.6934 15.8812V15.677C12.6934 15.597 12.7656 15.5592 12.8587 15.5592H15.025C15.1179 15.5592 15.2008 15.597 15.2008 15.677V15.8812Z" fill="url(#paint12_linear_402_28593)"/>
<path d="M15.6699 22.9471C15.6699 23.0324 15.5945 23.082 15.4998 23.082H12.5493C12.4552 23.082 12.3789 23.0324 12.3789 22.9471L12.7573 22.4345C12.8483 22.3179 12.8903 22.2992 12.9843 22.2992H15.0649C15.1587 22.2992 15.2019 22.28 15.292 22.4345L15.6699 22.9471Z" fill="url(#paint13_linear_402_28593)"/>
<path d="M15.0451 21.8072C15.0451 21.8977 14.9818 21.9854 14.8868 21.9854H13.1562C13.061 21.9854 13.0078 21.8977 13.0078 21.8072V16.634C13.0078 16.5435 13.061 16.5004 13.1562 16.5004H14.8868C14.9818 16.5004 15.0451 16.5435 15.0451 16.634V21.8072Z" fill="url(#paint14_linear_402_28593)"/>
<path d="M19.9024 15.8812C19.9024 15.9613 19.8116 16.0293 19.7141 16.0293H17.4409C17.3434 16.0293 17.2383 15.9613 17.2383 15.8812V15.677C17.2383 15.597 17.3434 15.5592 17.4409 15.5592H19.7141C19.8116 15.5592 19.9024 15.597 19.9024 15.677V15.8812Z" fill="url(#paint15_linear_402_28593)"/>
<path d="M20.2153 22.9471C20.2153 23.0324 20.1354 23.082 20.0362 23.082H16.9457C16.8475 23.082 16.7676 23.0324 16.7676 22.9471L17.1634 22.4345C17.2587 22.3179 17.303 22.2992 17.4013 22.2992H19.5806C19.6798 22.2992 19.7241 22.28 19.8185 22.4345L20.2153 22.9471Z" fill="url(#paint16_linear_402_28593)"/>
<path d="M19.5885 21.8072C19.5885 21.8977 19.5145 21.9854 19.4138 21.9854H17.5801C17.4784 21.9854 17.3945 21.8977 17.3945 21.8072V16.634C17.3945 16.5435 17.4784 16.5004 17.5801 16.5004H19.4138C19.5145 16.5004 19.5885 16.5435 19.5885 16.634V21.8072Z" fill="url(#paint17_linear_402_28593)"/>
<path d="M11.7539 11.0157V11.3291C11.8979 11.303 11.9106 11.2426 11.9106 11.1833C11.9106 11.0999 11.8619 11.0513 11.7539 11.0157Z" fill="white"/>
<path d="M11.4414 10.3816C11.4414 10.4618 11.5254 10.5087 11.5981 10.5444V10.231C11.5254 10.2546 11.4414 10.3112 11.4414 10.3816Z" fill="white"/>
<path d="M11.8222 11.7175V11.8935H11.6177V11.7206C11.3451 11.6891 11.0821 11.5167 11.0821 11.1939C11.0821 11.1736 11.0832 11.1452 11.0832 11.1452H11.4358C11.4358 11.1452 11.4348 11.1661 11.4348 11.1788C11.4348 11.3071 11.4474 11.3959 11.6177 11.4318V10.9396C11.3792 10.8648 11.1208 10.773 11.1208 10.4149C11.1208 10.1244 11.3451 9.96819 11.6177 9.93564V9.77893H11.8222V9.93786C12.129 9.97473 12.2993 10.1316 12.2993 10.4403V10.462H11.9585V10.4479C11.9585 10.3492 11.9244 10.2746 11.8222 10.2363V10.6582C12.0949 10.7309 12.3206 10.8279 12.3206 11.1744C12.3206 11.5191 12.129 11.6807 11.8222 11.7175ZM11.7532 9.13528C10.8012 9.13528 10.0293 9.87195 10.0293 10.7808C10.0293 11.6896 10.8012 12.4263 11.7532 12.4263C12.7052 12.4263 13.477 11.6896 13.477 10.7808C13.477 9.87195 12.7052 9.13528 11.7532 9.13528Z" fill="white"/>
<path d="M16.9922 7.13701C17.3978 6.74783 17.9382 6.53052 18.5004 6.53052C19.0625 6.53052 19.6029 6.74783 20.0086 7.13701" stroke="url(#paint18_linear_402_28593)" stroke-width="1.2" stroke-linecap="round" stroke-linejoin="round"/>
<path d="M15.5352 5.67607C16.3281 4.90234 17.3921 4.46924 18.5 4.46924C19.6079 4.46924 20.6719 4.90234 21.4648 5.67607" stroke="url(#paint19_linear_402_28593)" stroke-width="1.2" stroke-linecap="round" stroke-linejoin="round"/>
<path d="M14.0781 4.21948C15.2567 3.05805 16.8449 2.40698 18.4996 2.40698C20.1543 2.40698 21.7425 3.05805 22.9211 4.21948" stroke="url(#paint20_linear_402_28593)" stroke-width="1.2" stroke-linecap="round" stroke-linejoin="round"/>
<path d="M18.5 9.02344C18.7373 9.02344 18.9297 8.83106 18.9297 8.59375C18.9297 8.35644 18.7373 8.16406 18.5 8.16406C18.2627 8.16406 18.0703 8.35644 18.0703 8.59375C18.0703 8.83106 18.2627 9.02344 18.5 9.02344Z" fill="url(#paint21_linear_402_28593)"/>
<defs>
<linearGradient id="paint0_linear_402_28593" x1="22.8229" y1="6.70679" x2="19.7626" y2="17.3713" gradientUnits="userSpaceOnUse">
<stop stop-color="#707DF1"/>
<stop offset="1" stop-color="#4356FD"/>
</linearGradient>
<linearGradient id="paint1_linear_402_28593" x1="23.1451" y1="5.17298" x2="19.1543" y2="17.4372" gradientUnits="userSpaceOnUse">
<stop stop-color="#707DF1"/>
<stop offset="1" stop-color="#4356FD"/>
</linearGradient>
<linearGradient id="paint2_linear_402_28593" x1="22.1814" y1="14.0606" x2="22.1265" y2="15.5014" gradientUnits="userSpaceOnUse">
<stop stop-color="#707DF1"/>
<stop offset="1" stop-color="#4356FD"/>
</linearGradient>
<linearGradient id="paint3_linear_402_28593" x1="22.1814" y1="23.62" x2="22.1265" y2="25.0607" gradientUnits="userSpaceOnUse">
<stop stop-color="#707DF1"/>
<stop offset="1" stop-color="#4356FD"/>
</linearGradient>
<linearGradient id="paint4_linear_402_28593" x1="22.8233" y1="24.8746" x2="22.772" y2="26.3156" gradientUnits="userSpaceOnUse">
<stop stop-color="#707DF1"/>
<stop offset="1" stop-color="#4356FD"/>
</linearGradient>
<linearGradient id="paint5_linear_402_28593" x1="23.7843" y1="26.128" x2="23.7367" y2="27.5693" gradientUnits="userSpaceOnUse">
<stop stop-color="#707DF1"/>
<stop offset="1" stop-color="#4356FD"/>
</linearGradient>
<linearGradient id="paint6_linear_402_28593" x1="6.30102" y1="15.5064" x2="6.15425" y2="16.3465" gradientUnits="userSpaceOnUse">
<stop stop-color="#707DF1"/>
<stop offset="1" stop-color="#4356FD"/>
</linearGradient>
<linearGradient id="paint7_linear_402_28593" x1="6.62082" y1="22.2105" x2="6.29861" y2="23.5774" gradientUnits="userSpaceOnUse">
<stop stop-color="#707DF1"/>
<stop offset="1" stop-color="#4356FD"/>
</linearGradient>
<linearGradient id="paint8_linear_402_28593" x1="5.97927" y1="15.8849" x2="2.65763" y2="17.1311" gradientUnits="userSpaceOnUse">
<stop stop-color="#707DF1"/>
<stop offset="1" stop-color="#4356FD"/>
</linearGradient>
<linearGradient id="paint9_linear_402_28593" x1="10.8459" y1="15.5064" x2="10.6992" y2="16.3465" gradientUnits="userSpaceOnUse">
<stop stop-color="#707DF1"/>
<stop offset="1" stop-color="#4356FD"/>
</linearGradient>
<linearGradient id="paint10_linear_402_28593" x1="11.1657" y1="22.2105" x2="10.8435" y2="23.5774" gradientUnits="userSpaceOnUse">
<stop stop-color="#707DF1"/>
<stop offset="1" stop-color="#4356FD"/>
</linearGradient>
<linearGradient id="paint11_linear_402_28593" x1="10.5242" y1="15.8849" x2="7.20256" y2="17.1311" gradientUnits="userSpaceOnUse">
<stop stop-color="#707DF1"/>
<stop offset="1" stop-color="#4356FD"/>
</linearGradient>
<linearGradient id="paint12_linear_402_28593" x1="15.2303" y1="15.5064" x2="15.075" y2="16.3433" gradientUnits="userSpaceOnUse">
<stop stop-color="#707DF1"/>
<stop offset="1" stop-color="#4356FD"/>
</linearGradient>
<linearGradient id="paint13_linear_402_28593" x1="15.7087" y1="22.2105" x2="15.3865" y2="23.5774" gradientUnits="userSpaceOnUse">
<stop stop-color="#707DF1"/>
<stop offset="1" stop-color="#4356FD"/>
</linearGradient>
<linearGradient id="paint14_linear_402_28593" x1="15.0691" y1="15.8849" x2="11.7475" y2="17.1311" gradientUnits="userSpaceOnUse">
<stop stop-color="#707DF1"/>
<stop offset="1" stop-color="#4356FD"/>
</linearGradient>
<linearGradient id="paint15_linear_402_28593" x1="19.9338" y1="15.5064" x2="19.7871" y2="16.3465" gradientUnits="userSpaceOnUse">
<stop stop-color="#707DF1"/>
<stop offset="1" stop-color="#4356FD"/>
</linearGradient>
<linearGradient id="paint16_linear_402_28593" x1="20.2559" y1="22.2105" x2="19.9469" y2="23.5839" gradientUnits="userSpaceOnUse">
<stop stop-color="#707DF1"/>
<stop offset="1" stop-color="#4356FD"/>
</linearGradient>
<linearGradient id="paint17_linear_402_28593" x1="19.6144" y1="15.8849" x2="16.1064" y2="17.3022" gradientUnits="userSpaceOnUse">
<stop stop-color="#707DF1"/>
<stop offset="1" stop-color="#4356FD"/>
</linearGradient>
<linearGradient id="paint18_linear_402_28593" x1="20.0442" y1="7.20506" x2="19.8303" y2="6.13085" gradientUnits="userSpaceOnUse">
<stop stop-color="#707DF1"/>
<stop offset="1" stop-color="#4356FD"/>
</linearGradient>
<linearGradient id="paint19_linear_402_28593" x1="21.5348" y1="5.81148" x2="21.1045" y2="3.67595" gradientUnits="userSpaceOnUse">
<stop stop-color="#707DF1"/>
<stop offset="1" stop-color="#4356FD"/>
</linearGradient>
<linearGradient id="paint20_linear_402_28593" x1="23.0254" y1="4.42286" x2="22.3749" y2="1.21735" gradientUnits="userSpaceOnUse">
<stop stop-color="#707DF1"/>
<stop offset="1" stop-color="#4356FD"/>
</linearGradient>
<linearGradient id="paint21_linear_402_28593" x1="18.9398" y1="9.11986" x2="18.1486" y2="8.32072" gradientUnits="userSpaceOnUse">
<stop stop-color="#707DF1"/>
<stop offset="1" stop-color="#4356FD"/>
</linearGradient>
</defs>
</svg>
