<svg width="51" height="46" viewBox="0 0 51 46" fill="none" xmlns="http://www.w3.org/2000/svg">
<path d="M20.4681 38.6982H30.5318V44.2627H20.4681V38.6982Z" fill="#90A2B7"/>
<path d="M20.4685 38.6982H30.5314V40.4305H20.4685V38.6982Z" fill="#677987"/>
<path d="M35.2831 45.6349H15.7168C15.2044 45.6349 14.7888 45.2197 14.7888 44.7073C14.7888 44.1949 15.2044 43.7793 15.7168 43.7793H35.2831C35.7955 43.7793 36.2107 44.1945 36.2107 44.7073C36.2107 45.2194 35.7955 45.6349 35.2831 45.6349Z" fill="#AFBCC9"/>
<path d="M51 4.89814V37.9474C51 38.526 50.5311 38.9941 49.9522 38.9941H1.04784C0.468864 38.9941 0 38.526 0 37.9474V4.89814C0 4.03084 0.70388 3.32812 1.57118 3.32812H49.4288C50.2969 3.32812 51 4.03084 51 4.89814Z" fill="#C8CBD0"/>
<path d="M51 33.9727V37.9481C51 38.5267 50.5311 38.9948 49.9533 38.9948H1.04668C0.468864 38.9948 0 38.5267 0 37.9481V33.9727H51Z" fill="#AFBCC9"/>
<path d="M6.13257 1.26531V14.6593C6.13257 15.2262 6.59209 15.6857 7.15901 15.6857H17.4592L20.4592 18.6853C21.1055 19.332 22.2109 18.874 22.2109 17.9596V1.26531C22.2109 0.698395 21.7514 0.239258 21.1849 0.239258H7.15901C6.59209 0.239258 6.13257 0.698395 6.13257 1.26531Z" fill="#7E8691"/>
<path d="M44.9588 15.5602V25.0624C44.9588 25.6293 44.4997 26.0885 43.9328 26.0885H33.6325L30.6326 29.0884C29.9863 29.7351 28.8809 29.2771 28.8809 28.3628V15.5602C28.8809 14.9937 29.3404 14.5342 29.9069 14.5342H43.9332C44.4997 14.5342 44.9588 14.9937 44.9588 15.5602Z" fill="#919BAA"/>
<path d="M32.2956 18.6428H32.2485C31.8236 18.6428 31.4789 18.298 31.4789 17.8732C31.4789 17.4479 31.8236 17.1035 32.2485 17.1035H32.2956C32.7205 17.1035 33.0652 17.4479 33.0652 17.8732C33.0652 18.298 32.7205 18.6428 32.2956 18.6428Z" fill="white"/>
<path d="M41.6005 18.619H34.7348C34.31 18.619 33.9652 18.2746 33.9652 17.8493C33.9652 17.4244 34.31 17.0801 34.7348 17.0801H41.6005C42.0254 17.0801 42.3701 17.4244 42.3701 17.8493C42.3701 18.2746 42.0254 18.619 41.6005 18.619Z" fill="white"/>
<path d="M32.2956 23.2762H32.2485C31.8236 23.2762 31.4789 22.9318 31.4789 22.5069C31.4789 22.0817 31.8236 21.7373 32.2485 21.7373H32.2956C32.7205 21.7373 33.0652 22.0817 33.0652 22.5069C33.0652 22.9318 32.7205 23.2762 32.2956 23.2762Z" fill="white"/>
<path d="M41.6005 23.2522H34.7348C34.31 23.2522 33.9652 22.9078 33.9652 22.4825C33.9652 22.0576 34.31 21.7129 34.7348 21.7129H41.6005C42.0254 21.7129 42.3701 22.0576 42.3701 22.4825C42.3701 22.9078 42.0254 23.2522 41.6005 23.2522Z" fill="white"/>
<path d="M41.6005 20.9612H41.5535C41.1286 20.9612 40.7838 20.6164 40.7838 20.1915C40.7838 19.7666 41.1286 19.4219 41.5535 19.4219H41.6005C42.0254 19.4219 42.3702 19.7666 42.3702 20.1915C42.3702 20.6164 42.0254 20.9612 41.6005 20.9612Z" fill="white"/>
<path d="M39.1142 20.9367H32.2485C31.8236 20.9367 31.4789 20.5924 31.4789 20.1671C31.4789 19.7422 31.8236 19.3975 32.2485 19.3975H39.1142C39.5391 19.3975 39.8838 19.7422 39.8838 20.1671C39.8838 20.5924 39.5391 20.9367 39.1142 20.9367Z" fill="white"/>
<path d="M9.43879 4.12033H9.39171C8.96681 4.12033 8.62207 3.77559 8.62207 3.35069C8.62207 2.92541 8.96681 2.58105 9.39171 2.58105H9.43879C9.86369 2.58105 10.2084 2.9258 10.2084 3.35069C10.2084 3.77598 9.86369 4.12033 9.43879 4.12033Z" fill="white"/>
<path d="M18.7437 4.09787H11.878C11.4528 4.09787 11.1084 3.75313 11.1084 3.32823C11.1084 2.90334 11.4528 2.55859 11.878 2.55859H18.7437C19.1686 2.55859 19.5129 2.90334 19.5129 3.32823C19.5129 3.75313 19.1686 4.09787 18.7437 4.09787Z" fill="white"/>
<path d="M18.7437 8.54807H9.43883C9.01354 8.54807 8.66919 8.20332 8.66919 7.77843C8.66919 7.35314 9.01354 7.00879 9.43883 7.00879H18.7437C19.1686 7.00879 19.513 7.35353 19.513 7.77843C19.513 8.20332 19.1686 8.54807 18.7437 8.54807Z" fill="white"/>
<path d="M18.72 6.32443H9.39171C8.96681 6.32443 8.62207 5.97969 8.62207 5.55479C8.62207 5.12951 8.96681 4.78516 9.39171 4.78516H18.72C19.1449 4.78516 19.4896 5.12951 19.4896 5.55479C19.4896 5.97969 19.1449 6.32443 18.72 6.32443Z" fill="white"/>
<path d="M9.43879 13.0676H9.39171C8.96681 13.0676 8.62207 12.7232 8.62207 12.298C8.62207 11.8731 8.96681 11.5283 9.39171 11.5283H9.43879C9.86369 11.5283 10.2084 11.8731 10.2084 12.298C10.2084 12.7232 9.86369 13.0676 9.43879 13.0676Z" fill="white"/>
<path d="M18.7437 13.0451H11.878C11.4528 13.0451 11.1084 12.7004 11.1084 12.2755C11.1084 11.8506 11.4528 11.5059 11.878 11.5059H18.7437C19.1686 11.5059 19.5129 11.8506 19.5129 12.2755C19.5129 12.7004 19.1686 13.0451 18.7437 13.0451Z" fill="white"/>
<path d="M18.7437 10.843H18.6966C18.2714 10.843 17.927 10.4986 17.927 10.0733C17.927 9.64845 18.2714 9.30371 18.6966 9.30371H18.7437C19.1686 9.30371 19.513 9.64845 19.513 10.0733C19.513 10.4986 19.1686 10.843 18.7437 10.843Z" fill="white"/>
<path d="M16.2574 10.8205H9.39171C8.96681 10.8205 8.62207 10.4758 8.62207 10.0509C8.62207 9.6256 8.96681 9.28125 9.39171 9.28125H16.2574C16.6823 9.28125 17.027 9.62599 17.027 10.0509C17.027 10.4758 16.6823 10.8205 16.2574 10.8205Z" fill="white"/>
</svg>
