<svg width="23" height="23" viewBox="0 0 23 23" fill="none" xmlns="http://www.w3.org/2000/svg">
<path d="M20.4468 6.79175H16.9991V3.36182H16.1372V6.79175H12.6895V7.64924H16.1372V11.0792H16.9991V7.64924H20.4468V6.79175Z" fill="#645DF6"/>
<path d="M4.9082 13.2212H2.56445C2.30557 13.2212 2.0957 13.4311 2.0957 13.6899V16.0337C2.0957 16.2926 2.30557 16.5024 2.56445 16.5024H4.9082C5.16709 16.5024 5.37695 16.2926 5.37695 16.0337V13.6899C5.37695 13.4311 5.16709 13.2212 4.9082 13.2212Z" stroke="#645DF6" stroke-linecap="round" stroke-linejoin="round"/>
<path d="M13.3457 9.70557H10.5332C10.2743 9.70557 10.0645 9.91543 10.0645 10.1743V12.9868C10.0645 13.2457 10.2743 13.4556 10.5332 13.4556H13.3457C13.6046 13.4556 13.8145 13.2457 13.8145 12.9868V10.1743C13.8145 9.91543 13.6046 9.70557 13.3457 9.70557Z" stroke="#645DF6" stroke-linecap="round" stroke-linejoin="round"/>
<path d="M13.3457 16.2681H10.5332C10.2743 16.2681 10.0645 16.4779 10.0645 16.7368V19.5493C10.0645 19.8082 10.2743 20.0181 10.5332 20.0181H13.3457C13.6046 20.0181 13.8145 19.8082 13.8145 19.5493V16.7368C13.8145 16.4779 13.6046 16.2681 13.3457 16.2681Z" stroke="#645DF6" stroke-linecap="round" stroke-linejoin="round"/>
<path d="M5.37695 14.8618H7.7207" stroke="#645DF6" stroke-linecap="round" stroke-linejoin="round"/>
<path d="M10.0645 18.1431H9.12697C8.94208 18.1439 8.75887 18.108 8.5879 18.0376C8.41694 17.9672 8.26161 17.8637 8.13087 17.7329C8.00013 17.6022 7.89658 17.4469 7.82618 17.2759C7.75578 17.1049 7.71994 16.9217 7.72072 16.7368V12.9868C7.71994 12.8019 7.75578 12.6187 7.82618 12.4478C7.89658 12.2768 8.00013 12.1215 8.13087 11.9907C8.26161 11.86 8.41694 11.7564 8.5879 11.686C8.75887 11.6156 8.94208 11.5798 9.12697 11.5806H10.0645" stroke="#645DF6" stroke-linecap="round" stroke-linejoin="round"/>
</svg>
