<svg width="20" height="20" viewBox="0 0 20 20" fill="none" xmlns="http://www.w3.org/2000/svg">
<rect width="20" height="20" rx="10" fill="#8190B7"/>
<path d="M8.3222 15.2812C8.3933 15.2817 8.46378 15.268 8.5296 15.2411C8.59542 15.2143 8.65529 15.1746 8.70577 15.1246L13.0277 10.8026C13.0783 10.7524 13.1185 10.6927 13.146 10.6268C13.1734 10.561 13.1875 10.4904 13.1875 10.4191C13.1875 10.3478 13.1734 10.2771 13.146 10.2113C13.1185 10.1455 13.0783 10.0857 13.0277 10.0355L8.70577 5.71357C8.60404 5.61184 8.46606 5.55469 8.3222 5.55469C8.17833 5.55469 8.04036 5.61184 7.93863 5.71357C7.8369 5.8153 7.77974 5.95327 7.77974 6.09714C7.77974 6.24101 7.8369 6.37898 7.93863 6.48071L11.8824 10.4191L7.93863 14.3574C7.88799 14.4077 7.8478 14.4674 7.82037 14.5332C7.79294 14.5991 7.77882 14.6697 7.77882 14.741C7.77882 14.8123 7.79294 14.8829 7.82037 14.9488C7.8478 15.0146 7.88799 15.0743 7.93863 15.1246C7.98911 15.1746 8.04897 15.2143 8.11479 15.2411C8.18062 15.268 8.2511 15.2817 8.3222 15.2812Z" fill="white"/>
</svg>
