<svg width="22" height="22" viewBox="0 0 22 22" fill="none" xmlns="http://www.w3.org/2000/svg">
<g clip-path="url(#clip0_193_818774)">
<path d="M1.375 11C1.375 12.9036 1.9395 14.7645 2.99711 16.3474C4.05471 17.9302 5.55793 19.1638 7.31667 19.8923C9.07541 20.6208 11.0107 20.8114 12.8777 20.4401C14.7448 20.0687 16.4598 19.152 17.8059 17.8059C19.152 16.4598 20.0687 14.7448 20.4401 12.8777C20.8114 11.0107 20.6208 9.07541 19.8923 7.31667C19.1638 5.55793 17.9302 4.05471 16.3474 2.99711C14.7645 1.9395 12.9036 1.375 11 1.375C8.44729 1.375 5.99913 2.38906 4.1941 4.1941C2.38906 5.99913 1.375 8.44729 1.375 11ZM5.5 10.3125H13.8531L10.0169 6.45741L11 5.5L16.5 11L11 16.5L10.0169 15.5188L13.8531 11.6875H5.5V10.3125Z" fill="black"/>
</g>
<defs>
<clipPath id="clip0_193_818774">
<rect width="22" height="22" fill="white"/>
</clipPath>
</defs>
</svg>
