<svg width="174" height="133" viewBox="0 0 174 133" fill="none" xmlns="http://www.w3.org/2000/svg">
<g clip-path="url(#clip0_22_10697)">
<path d="M33.6515 36.7039L0.00341797 59.2344L33.1466 108.829L66.7946 86.2985L33.6515 36.7039Z" fill="#F5F5F5"/>
<path d="M49.4072 83.9496L49.0234 86.3151L32.2954 83.9016L32.6793 81.5361L49.4072 83.9496Z" fill="#E0E0E0"/>
<path d="M40.9803 75.5112L43.3825 75.8564L40.7194 92.3426L38.3203 91.9944L40.9803 75.5112Z" fill="#E0E0E0"/>
<path d="M25.5749 54.5585C25.5989 54.5946 22.2281 56.894 18.0446 59.6947C13.8611 62.4954 10.4514 64.7378 10.4274 64.7018C10.4034 64.6658 13.7742 62.3663 17.9576 59.5656C22.1411 56.7649 25.5509 54.5225 25.5749 54.5585Z" fill="#E0E0E0"/>
<path d="M37.9484 51.4486C37.9724 51.4846 32.3645 55.2819 25.425 59.9258C18.4825 64.5727 12.8385 68.31 12.8145 68.2739C12.7905 68.2379 18.3955 64.4436 25.338 59.7937C32.2775 55.1469 37.9244 51.4095 37.9484 51.4456V51.4486Z" fill="#E0E0E0"/>
<path d="M40.4284 55.159C40.4524 55.195 34.8444 58.9924 27.9049 63.6362C20.9625 68.2831 15.3185 72.0204 15.2945 71.9844C15.2705 71.9484 20.8755 68.154 27.818 63.5042C34.7575 58.8573 40.4044 55.12 40.4284 55.156V55.159Z" fill="#E0E0E0"/>
<path d="M42.9086 58.8724C42.9326 58.9084 37.3247 62.7058 30.3852 67.3496C23.4427 71.9965 17.7987 75.7338 17.7747 75.6978C17.7507 75.6618 23.3557 71.8674 30.2982 67.2175C37.2377 62.5707 42.8846 58.8334 42.9086 58.8694V58.8724Z" fill="#E0E0E0"/>
<path d="M45.3918 62.5853C45.4158 62.6213 39.8078 66.4187 32.8683 71.0625C25.9258 75.7094 20.2819 79.4467 20.2579 79.4107C20.2339 79.3746 25.8389 75.5803 32.7814 70.9304C39.7208 66.2836 45.3678 62.5463 45.3918 62.5823V62.5853Z" fill="#E0E0E0"/>
<g clip-path="url(#clip1_22_10697)">
<path fill-rule="evenodd" clip-rule="evenodd" d="M17.3957 59.7867C16.7926 58.8484 17.0629 57.609 17.9862 57.0154L27.2234 51.0779C28.1468 50.4844 29.3865 50.7532 29.9897 51.6915L37.4567 63.3081C38.0598 64.2464 37.7895 65.4859 36.8662 66.0794L27.629 72.0169C26.7057 72.6104 25.4659 72.3417 24.8628 71.4033L24.1161 70.2417C23.8921 69.8932 23.4281 69.7923 23.0796 70.0163L21.925 70.7585C21.5765 70.9825 21.4756 71.4465 21.6996 71.7949C21.9236 72.1434 22.3876 72.2443 22.736 72.0203L23.2598 71.6837L23.601 72.2144C24.6474 73.8424 26.8127 74.3248 28.4401 73.2787L37.6773 67.3412C39.3047 66.2951 39.765 64.125 38.7185 62.497L31.2515 50.8804C30.205 49.2524 28.0398 48.77 26.4123 49.8161L17.1752 55.7536C15.5477 56.7997 15.0875 58.9698 16.1339 60.5978L16.4751 61.1285L15.9513 61.4652C15.6029 61.6892 15.502 62.1532 15.726 62.5016C15.9499 62.8501 16.414 62.951 16.7624 62.727L17.9171 61.9848C18.2655 61.7608 18.3664 61.2968 18.1424 60.9484L17.3957 59.7867ZM24.2544 60.3029C23.6513 59.3646 23.9216 58.1252 24.8449 57.5316C25.7683 56.9381 27.0081 57.2069 27.6112 58.1452C28.2143 59.0835 27.944 60.323 27.0207 60.9165C26.0973 61.51 24.8576 61.2412 24.2544 60.3029ZM29.4049 59.6823C29.5059 58.8901 29.3386 58.0585 28.873 57.3341C27.8266 55.7062 25.6613 55.2238 24.0339 56.2698C22.4064 57.3159 21.9462 59.486 22.9926 61.114C23.4582 61.8383 24.1452 62.3358 24.9078 62.5729C24.1049 63.7059 24.0271 65.2619 24.8248 66.5028L25.5715 67.6645C26.2055 68.6509 27.5195 68.9455 28.5093 68.3093L33.1279 65.3406C34.1176 64.7044 34.3952 63.3867 33.7612 62.4003L33.0145 61.2386C32.2168 59.9977 30.769 59.4223 29.4049 59.6823ZM27.8318 62.1783L26.6771 62.9205C25.7538 63.514 25.4835 64.7535 26.0866 65.6918L26.8333 66.8534C27.024 67.1502 27.4125 67.2312 27.6982 67.0475L32.3168 64.0788C32.6024 63.8952 32.6901 63.5081 32.4994 63.2114L31.7527 62.0497C31.1495 61.1114 29.9098 60.8426 28.9864 61.4361L27.8318 62.1783ZM18.7128 67.1483C18.4888 66.7999 18.5897 66.3358 18.9382 66.1119L20.0928 65.3697C20.4412 65.1457 20.9053 65.2466 21.1292 65.595C21.3532 65.9435 21.2523 66.4075 20.9039 66.6315L19.7492 67.3737C19.4008 67.5976 18.9368 67.4967 18.7128 67.1483ZM17.4447 63.7885C17.0963 64.0125 16.9954 64.4765 17.2194 64.825C17.4434 65.1734 17.9074 65.2743 18.2558 65.0503L19.4105 64.3081C19.7589 64.0842 19.8598 63.6201 19.6358 63.2717C19.4119 62.9233 18.9478 62.8224 18.5994 63.0463L17.4447 63.7885ZM20.2062 69.4716C19.9822 69.1232 20.0831 68.6592 20.4316 68.4352L21.5862 67.693C21.9346 67.469 22.3987 67.5699 22.6226 67.9184C22.8466 68.2668 22.7457 68.7308 22.3973 68.9548L21.2426 69.697C20.8942 69.921 20.4302 69.8201 20.2062 69.4716Z" fill="#CFCFCF"/>
</g>
<path d="M146.166 69.9355L117.907 88.8574L145.742 130.508L174.001 111.586L146.166 69.9355Z" fill="#F5F5F5"/>
<path d="M159.398 109.621L159.08 111.609L145.031 109.582L145.351 107.595L159.398 109.621Z" fill="#E0E0E0"/>
<path d="M152.324 102.534L154.342 102.825L152.105 116.67L150.09 116.379L152.324 102.534Z" fill="#E0E0E0"/>
<path d="M139.386 84.9371C139.41 84.9731 136.582 86.9093 133.068 89.2598C129.553 91.6132 126.686 93.4894 126.662 93.4534C126.638 93.4173 129.466 91.4811 132.981 89.1277C136.492 86.7772 139.362 84.8981 139.386 84.9341V84.9371Z" fill="#E0E0E0"/>
<path d="M149.778 82.3255C149.802 82.3615 145.096 85.5555 139.266 89.4579C133.437 93.3603 128.692 96.4942 128.668 96.4582C128.644 96.4222 133.35 93.2312 139.18 89.3258C145.006 85.4234 149.754 82.2895 149.778 82.3255Z" fill="#E0E0E0"/>
<path d="M151.862 85.4417C151.886 85.4777 147.181 88.6717 141.351 92.5741C135.521 96.4765 130.777 99.6104 130.753 99.5744C130.729 99.5384 135.434 96.3474 141.264 92.442C147.091 88.5396 151.838 85.4057 151.862 85.4417Z" fill="#E0E0E0"/>
<path d="M153.943 88.5604C153.967 88.5965 149.262 91.7904 143.432 95.6898C137.602 99.5922 132.858 102.726 132.834 102.69C132.81 102.654 137.515 99.4632 143.345 95.5577C149.172 91.6553 153.919 88.5214 153.943 88.5574V88.5604Z" fill="#E0E0E0"/>
<path d="M156.027 91.6795C156.051 91.7155 151.346 94.9095 145.516 98.8119C139.686 102.714 134.942 105.848 134.918 105.812C134.894 105.776 139.599 102.585 145.429 98.6798C151.256 94.7774 156.003 91.6435 156.027 91.6795Z" fill="#E0E0E0"/>
<path d="M101.459 38.5258L70.6248 22.0181L46.3414 67.4648L77.1756 83.9726L101.459 38.5258Z" fill="#F5F5F5"/>
<path d="M71.899 69.7542L69.9437 70.4236L64.9775 56.6841L66.9328 56.0117L71.899 69.7542Z" fill="#E0E0E0"/>
<path d="M74.898 59.896L75.6117 61.8682L61.9786 66.5421L61.2649 64.5699L74.898 59.896Z" fill="#E0E0E0"/>
<path d="M84.5843 39.6215C84.5603 39.6665 81.4324 38.0395 77.5998 35.9862C73.7642 33.933 70.6783 32.2339 70.7023 32.1889C70.7263 32.1439 73.8541 33.7709 77.6868 35.8241C81.5194 37.8774 84.6082 39.5765 84.5843 39.6215Z" fill="#E0E0E0"/>
<path d="M91.9827 47.7989C91.9587 47.8439 86.7826 45.1212 80.4249 41.7171C74.0642 38.313 68.927 35.5153 68.951 35.4703C68.975 35.4252 74.1511 38.1479 80.5118 41.555C86.8695 44.9591 92.0067 47.7569 91.9827 47.8019V47.7989Z" fill="#E0E0E0"/>
<path d="M90.1653 51.1998C90.1413 51.2448 84.9652 48.5221 78.6075 45.118C72.2468 41.7139 67.1096 38.9162 67.1336 38.8712C67.1576 38.8261 72.3337 41.5488 78.6944 44.9559C85.0521 48.36 90.1893 51.1577 90.1653 51.2028V51.1998Z" fill="#E0E0E0"/>
<path d="M88.3479 54.6011C88.3239 54.6462 83.1478 51.9235 76.7901 48.5194C70.4294 45.1153 65.2923 42.3176 65.3162 42.2725C65.3402 42.2275 70.5164 44.9502 76.8771 48.3573C83.2348 51.7614 88.3719 54.5591 88.3479 54.6041V54.6011Z" fill="#E0E0E0"/>
<path d="M86.5308 58.002C86.5068 58.047 81.3306 55.3244 74.973 51.9203C68.6123 48.5162 63.4751 45.7184 63.4991 45.6734C63.5231 45.6284 68.6992 48.3511 75.0599 51.7582C81.4176 55.1623 86.5548 57.96 86.5308 58.005V58.002Z" fill="#E0E0E0"/>
<path opacity="0.2" d="M86.6927 0H85.9189V13.2021H86.6927V0Z" fill="black"/>
<path d="M68.2432 29.1751H104.368C104.368 29.1751 101.033 13.1963 86.0327 13.1963C72.6906 13.1963 68.2432 29.1751 68.2432 29.1751Z" fill="#645DF6"/>
<path d="M86.6924 0H85.9187V13.2021H86.6924V0Z" fill="#645DF6"/>
<path d="M3.18177 113.23C4.1954 113.266 5.14606 113.815 5.81482 114.581C6.48357 115.343 6.89443 116.304 7.15533 117.285C7.66215 119.183 7.35026 121.425 6.81046 123.313C4.7562 122.578 3.49066 120.386 2.91787 119.234C2.01219 117.412 1.48139 113.572 3.17877 113.23" fill="url(#paint0_linear_22_10697)"/>
<path d="M9.76752 125.613C9.11975 124.682 9.10476 123.388 9.61757 122.374C10.1304 121.362 11.114 120.633 12.1966 120.3C12.6975 120.146 13.2792 120.08 13.7141 120.372C14.1219 120.645 14.2989 121.179 14.2449 121.665C14.1909 122.152 13.945 122.599 13.6541 122.992C12.6555 124.346 11.4409 125.472 9.76752 125.61" fill="url(#paint1_linear_22_10697)"/>
<path d="M9.99247 131.955C9.99247 131.955 9.95048 131.817 9.8995 131.562C9.84552 131.28 9.77355 130.917 9.68958 130.481C9.52764 129.572 9.26973 128.278 9.46466 126.849C9.65059 125.426 10.2174 124.208 10.8112 123.481C11.1021 123.115 11.384 122.854 11.5909 122.695C11.6899 122.611 11.7798 122.56 11.8338 122.517C11.8908 122.478 11.9238 122.46 11.9268 122.466C11.9478 122.49 11.4469 122.803 10.8921 123.544C10.3313 124.274 9.79154 125.468 9.60561 126.87C9.41368 128.272 9.65059 129.554 9.78854 130.466C9.86052 130.926 9.92049 131.298 9.95648 131.556C9.98947 131.814 10.0045 131.958 9.99247 131.958V131.955Z" fill="#263238"/>
<path d="M3.84473 116.121C3.84473 116.121 3.87771 116.172 3.9287 116.277C3.98268 116.394 4.05465 116.547 4.14162 116.733C4.32155 117.132 4.57946 117.712 4.88835 118.429C5.50612 119.867 6.33383 121.866 7.19751 124.091C8.0612 126.318 8.79593 128.353 9.30575 129.83C9.56066 130.569 9.76458 131.169 9.89953 131.586C9.96251 131.784 10.0135 131.944 10.0525 132.067C10.0855 132.178 10.1005 132.235 10.0975 132.238C10.0945 132.241 10.0675 132.184 10.0255 132.076C9.9805 131.953 9.92053 131.796 9.84855 131.604C9.69261 131.178 9.47669 130.587 9.21278 129.863C8.67598 128.392 7.92625 126.366 7.06556 124.139C6.20187 121.914 5.39217 119.912 4.79838 118.465C4.50749 117.754 4.26757 117.171 4.09364 116.751C4.01566 116.559 3.95569 116.403 3.9077 116.283C3.86572 116.175 3.84773 116.118 3.85072 116.115L3.84473 116.121Z" fill="#263238"/>
<path d="M7.55428 127.759C6.34271 125.697 4.08453 124.292 1.7004 124.118C1.09461 124.073 0.36288 124.175 0.0929774 124.721C-0.176925 125.268 0.182945 125.913 0.596795 126.363C2.31817 128.227 5.22712 128.879 7.57527 127.924" fill="url(#paint2_linear_22_10697)"/>
<path d="M2.62411 125.745C2.62411 125.745 2.75906 125.742 3.00497 125.76C3.12792 125.769 3.27787 125.778 3.44881 125.811C3.61974 125.844 3.81767 125.862 4.0306 125.919C4.24352 125.97 4.48043 126.024 4.72334 126.111C4.97225 126.183 5.22716 126.291 5.49407 126.405C6.02187 126.645 6.58567 126.961 7.11948 127.369C7.65029 127.783 8.09712 128.245 8.46299 128.699C8.63693 128.93 8.80487 129.152 8.93682 129.377C9.08077 129.593 9.18873 129.809 9.28769 130.004C9.39565 130.197 9.45863 130.386 9.5306 130.545C9.60258 130.704 9.64456 130.848 9.68055 130.965C9.75252 131.199 9.78851 131.328 9.77951 131.331C9.74953 131.343 9.60258 130.818 9.19773 130.049C9.09276 129.86 8.9818 129.65 8.83486 129.44C8.7029 129.221 8.53497 129.008 8.35803 128.783C7.99516 128.341 7.55132 127.891 7.02951 127.483C6.5047 127.081 5.9559 126.768 5.43709 126.525C5.17618 126.411 4.92427 126.3 4.68136 126.225C4.44445 126.135 4.21353 126.078 4.00361 126.018C3.16091 125.805 2.61811 125.775 2.62111 125.745H2.62411Z" fill="#263238"/>
<path d="M138.757 31.6634C137.875 31.8676 137.446 32.8822 137.362 33.7828C137.278 34.6833 137.392 35.6379 137.014 36.4604C136.588 37.388 135.572 38.0694 135.536 39.087C135.515 39.7084 135.884 40.2938 135.866 40.9152C135.836 41.9358 134.798 42.7073 134.744 43.7249C134.705 44.4603 135.194 45.1628 135.077 45.8892C134.987 46.4536 134.546 46.8978 134.36 47.4412C133.991 48.5188 134.729 49.7076 135.695 50.3139C136.768 50.9894 138.145 51.1665 139.353 50.7792C140.562 50.392 141.582 49.4524 142.064 48.2757C142.598 46.9789 142.481 45.52 142.364 44.1211C142.004 39.7654 141.735 35.4038 141.558 31.0391" fill="#263238"/>
<path d="M136.195 47.027C136.177 47.009 136.435 46.934 136.597 46.5467C136.675 46.3576 136.717 46.1055 136.699 45.8143C136.69 45.5201 136.588 45.2019 136.48 44.8417C136.381 44.4845 136.249 44.0702 136.324 43.6109C136.399 43.1426 136.735 42.7584 137.038 42.3832C137.191 42.191 137.347 41.9929 137.443 41.7678C137.545 41.5456 137.566 41.2875 137.491 41.0473C137.335 40.558 136.855 40.1948 136.636 39.6305C136.528 39.3453 136.525 39.0361 136.588 38.7539C136.648 38.4718 136.762 38.2136 136.879 37.9674C137.113 37.4781 137.374 37.0309 137.476 36.5536C137.686 35.602 137.587 34.6924 137.731 33.945C137.86 33.1975 138.178 32.6331 138.49 32.345C138.643 32.1949 138.79 32.1168 138.885 32.0628C138.987 32.0178 139.041 31.9998 139.044 32.0028C139.053 32.0208 138.823 32.0898 138.532 32.387C138.244 32.6782 137.953 33.2305 137.839 33.963C137.779 34.3262 137.77 34.7374 137.755 35.1757C137.74 35.614 137.725 36.0913 137.614 36.5836C137.509 37.0819 137.245 37.5502 137.017 38.0275C136.792 38.4988 136.585 39.0511 136.783 39.5674C136.975 40.0777 137.458 40.441 137.638 40.9933C137.728 41.2695 137.698 41.5727 137.581 41.8188C137.47 42.068 137.308 42.2751 137.152 42.4672C136.837 42.8454 136.525 43.2087 136.453 43.6289C136.378 44.0462 136.495 44.4514 136.588 44.8057C136.687 45.1629 136.786 45.4991 136.789 45.8053C136.798 46.1085 136.747 46.3726 136.654 46.5647C136.564 46.7599 136.438 46.8829 136.348 46.943C136.255 47.006 136.198 47.021 136.198 47.021L136.195 47.027Z" fill="#455A64"/>
<path d="M133.836 54.1445L131.128 61.9553L119.84 62.5617L117.956 66.7553L129.742 67.95C132.093 68.9226 134.777 67.7309 135.635 65.3354L138.781 56.546L133.836 54.1475V54.1445Z" fill="#B78876"/>
<path d="M157.185 127.789C157.185 127.789 148.911 101.486 148.737 100.634C148.578 99.8623 151.739 80.9356 152.138 76.0366L140.961 76.4539C140.961 76.4539 140.961 76.4839 140.961 76.5349L136.211 76.7991L140.466 130.589H145.609L145.099 112.743C148.272 121.269 152.816 129.953 152.816 129.953L157.188 127.789H157.185Z" fill="#B78876"/>
<path d="M145.306 119.137C145.312 118.975 145.243 113.158 145.243 113.158C145.18 113.506 143.27 108.108 143.318 107.778C143.342 107.607 145.306 119.137 145.306 119.137Z" fill="#A36957"/>
<path d="M143.099 105.224C143.099 105.224 143.075 105.341 143.066 105.551C143.054 105.761 143.051 106.067 143.072 106.442C143.078 106.632 143.099 106.836 143.123 107.058C143.15 107.277 143.18 107.514 143.231 107.757C143.324 108.249 143.468 108.781 143.651 109.324C144.026 110.411 144.437 111.362 144.731 112.056C144.869 112.371 144.989 112.641 145.088 112.869C145.175 113.061 145.229 113.164 145.24 113.158C145.252 113.155 145.22 113.04 145.151 112.842C145.082 112.644 144.977 112.359 144.842 112.008C144.578 111.305 144.185 110.348 143.813 109.267C143.63 108.727 143.486 108.204 143.384 107.724C143.33 107.484 143.294 107.253 143.261 107.037C143.231 106.821 143.204 106.616 143.189 106.43C143.153 106.058 143.138 105.755 143.129 105.548C143.12 105.338 143.108 105.224 143.096 105.224H143.099Z" fill="#A36957"/>
<path d="M140.364 130.854V130.37L145.63 130.139L145.645 132.132L145.321 132.153C143.876 132.237 137.962 132.484 136.993 132.192C135.914 131.868 140.364 130.851 140.364 130.851V130.854Z" fill="#455A64"/>
<path d="M145.72 132.015C145.72 132.015 145.69 132.021 145.63 132.024C145.552 132.03 145.468 132.033 145.372 132.042C145.114 132.054 144.797 132.069 144.419 132.087C143.615 132.12 142.502 132.147 141.273 132.153C140.043 132.159 138.931 132.138 138.127 132.114C137.752 132.099 137.434 132.087 137.173 132.078C137.077 132.072 136.993 132.069 136.915 132.063C136.855 132.06 136.825 132.057 136.825 132.054C136.825 132.054 136.855 132.051 136.915 132.051C136.993 132.051 137.077 132.051 137.173 132.051C137.431 132.054 137.752 132.06 138.127 132.066C138.931 132.078 140.043 132.093 141.273 132.087C142.499 132.081 143.612 132.06 144.419 132.039C144.794 132.03 145.111 132.021 145.372 132.015C145.468 132.015 145.552 132.012 145.63 132.009C145.69 132.009 145.72 132.009 145.72 132.009V132.015Z" fill="#263238"/>
<path d="M138.658 132.183C138.64 132.183 138.622 131.958 138.478 131.73C138.337 131.499 138.142 131.382 138.151 131.367C138.154 131.352 138.379 131.448 138.532 131.697C138.685 131.943 138.673 132.189 138.658 132.186V132.183Z" fill="#263238"/>
<path d="M140.202 131.394C140.202 131.394 140.112 131.313 140.037 131.193C139.959 131.073 139.911 130.968 139.923 130.959C139.938 130.95 140.013 131.04 140.088 131.16C140.166 131.28 140.214 131.385 140.202 131.394Z" fill="#263238"/>
<path d="M140.625 131.166C140.625 131.166 140.529 131.124 140.439 131.043C140.349 130.962 140.283 130.887 140.295 130.872C140.307 130.86 140.391 130.914 140.481 130.995C140.571 131.076 140.637 131.151 140.625 131.166Z" fill="#263238"/>
<path d="M140.892 130.671C140.892 130.689 140.769 130.704 140.619 130.707C140.469 130.707 140.346 130.698 140.346 130.68C140.346 130.662 140.469 130.647 140.619 130.644C140.769 130.644 140.892 130.653 140.892 130.671Z" fill="#263238"/>
<path d="M140.985 130.322C140.991 130.337 140.859 130.397 140.679 130.412C140.502 130.427 140.361 130.388 140.364 130.37C140.364 130.352 140.505 130.361 140.673 130.349C140.841 130.337 140.976 130.304 140.982 130.322H140.985Z" fill="#263238"/>
<path d="M140.022 130.935C140.022 130.935 139.893 130.959 139.686 130.935C139.582 130.923 139.459 130.899 139.327 130.857C139.261 130.833 139.192 130.818 139.12 130.773C139.087 130.752 139.048 130.719 139.036 130.668C139.021 130.617 139.048 130.56 139.087 130.533C139.408 130.365 139.731 130.545 139.851 130.71C139.917 130.794 139.947 130.878 139.962 130.935C139.977 130.992 139.974 131.025 139.971 131.025C139.959 131.028 139.947 130.893 139.815 130.737C139.749 130.662 139.653 130.587 139.528 130.551C139.408 130.515 139.24 130.506 139.126 130.581C139.072 130.62 139.093 130.683 139.153 130.719C139.21 130.755 139.279 130.776 139.342 130.8C139.471 130.842 139.587 130.872 139.689 130.89C139.89 130.926 140.019 130.926 140.019 130.935H140.022Z" fill="#263238"/>
<path d="M139.935 130.953C139.935 130.953 139.881 130.872 139.896 130.719C139.905 130.644 139.932 130.557 139.986 130.473C140.046 130.397 140.121 130.295 140.265 130.298C140.343 130.307 140.382 130.397 140.37 130.454C140.364 130.515 140.337 130.566 140.313 130.605C140.262 130.689 140.208 130.758 140.154 130.809C140.049 130.914 139.965 130.953 139.962 130.947C139.956 130.938 140.028 130.887 140.121 130.779C140.166 130.725 140.217 130.659 140.262 130.575C140.307 130.503 140.34 130.376 140.256 130.361C140.172 130.352 140.085 130.436 140.034 130.506C139.98 130.578 139.953 130.659 139.938 130.725C139.914 130.863 139.944 130.95 139.932 130.953H139.935Z" fill="#263238"/>
<path d="M145.609 130.577C145.609 130.577 145.459 130.562 145.222 130.592C144.988 130.619 144.662 130.716 144.38 130.944C144.098 131.172 143.93 131.469 143.855 131.691C143.777 131.916 143.768 132.066 143.756 132.066C143.753 132.066 143.75 132.027 143.756 131.961C143.762 131.892 143.777 131.796 143.813 131.679C143.882 131.445 144.047 131.133 144.341 130.896C144.635 130.658 144.976 130.565 145.219 130.547C145.342 130.538 145.441 130.544 145.507 130.553C145.573 130.562 145.612 130.574 145.609 130.577Z" fill="#263238"/>
<path d="M143.084 131.595C143.084 131.61 142.745 131.667 142.319 131.667C141.894 131.667 141.552 131.619 141.552 131.601C141.552 131.583 141.897 131.604 142.316 131.601C142.739 131.601 143.081 131.574 143.081 131.592L143.084 131.595Z" fill="#263238"/>
<path d="M144.113 131.586C144.113 131.586 144.086 131.658 144.05 131.736C144.014 131.814 143.996 131.883 143.978 131.883C143.96 131.883 143.951 131.799 143.993 131.709C144.032 131.619 144.101 131.571 144.113 131.583V131.586Z" fill="#263238"/>
<path d="M144.497 131.103C144.497 131.103 144.476 131.169 144.422 131.226C144.368 131.28 144.314 131.316 144.302 131.304C144.29 131.292 144.323 131.238 144.377 131.181C144.431 131.127 144.485 131.091 144.497 131.103Z" fill="#263238"/>
<path d="M145.051 130.878C145.048 130.896 144.979 130.896 144.901 130.923C144.824 130.95 144.77 130.992 144.755 130.98C144.74 130.971 144.785 130.896 144.88 130.863C144.976 130.83 145.057 130.863 145.051 130.878Z" fill="#263238"/>
<path d="M145.444 130.773C145.45 130.788 145.42 130.815 145.378 130.833C145.336 130.851 145.294 130.851 145.288 130.833C145.282 130.818 145.312 130.791 145.354 130.773C145.396 130.755 145.438 130.755 145.444 130.773Z" fill="#263238"/>
<path d="M152.711 130.388L152.51 129.947L157.221 127.576L158.052 129.389L157.764 129.542C156.48 130.211 151.184 132.859 150.182 132.991C149.064 133.138 152.711 130.385 152.711 130.385V130.388Z" fill="#455A64"/>
<path d="M158.07 129.251C158.07 129.251 158.043 129.269 157.992 129.296C157.923 129.332 157.848 129.371 157.764 129.416C157.533 129.533 157.248 129.677 156.912 129.848C156.192 130.208 155.188 130.688 154.069 131.199C152.95 131.706 151.928 132.144 151.181 132.454C150.833 132.595 150.536 132.715 150.296 132.811C150.206 132.847 150.128 132.877 150.054 132.904C149.997 132.925 149.97 132.934 149.967 132.931C149.967 132.931 149.994 132.916 150.048 132.892C150.119 132.862 150.197 132.826 150.284 132.787C150.521 132.685 150.815 132.559 151.16 132.412C151.901 132.093 152.92 131.649 154.039 131.142C155.158 130.634 156.162 130.157 156.888 129.809C157.227 129.647 157.515 129.509 157.749 129.395C157.836 129.353 157.914 129.317 157.983 129.284C158.037 129.26 158.067 129.248 158.067 129.248L158.07 129.251Z" fill="#263238"/>
<path d="M151.697 132.304C151.679 132.313 151.574 132.112 151.346 131.962C151.124 131.808 150.896 131.781 150.899 131.763C150.896 131.748 151.142 131.745 151.382 131.91C151.625 132.073 151.712 132.301 151.697 132.304Z" fill="#263238"/>
<path d="M152.783 130.947C152.783 130.947 152.669 130.911 152.549 130.833C152.429 130.755 152.342 130.68 152.351 130.665C152.36 130.65 152.465 130.701 152.585 130.779C152.705 130.857 152.792 130.932 152.783 130.947Z" fill="#263238"/>
<path d="M153.076 130.568C153.07 130.586 152.974 130.568 152.857 130.532C152.741 130.496 152.654 130.451 152.657 130.436C152.663 130.418 152.759 130.436 152.875 130.472C152.992 130.508 153.079 130.553 153.076 130.568Z" fill="#263238"/>
<path d="M153.115 130.004C153.121 130.019 153.016 130.085 152.882 130.148C152.744 130.211 152.627 130.25 152.621 130.235C152.615 130.22 152.72 130.154 152.855 130.091C152.992 130.028 153.109 129.989 153.115 130.004Z" fill="#263238"/>
<path d="M153.055 129.65C153.055 129.65 152.971 129.773 152.816 129.857C152.66 129.944 152.516 129.965 152.513 129.95C152.507 129.932 152.639 129.884 152.786 129.803C152.935 129.722 153.046 129.638 153.058 129.653L153.055 129.65Z" fill="#263238"/>
<path d="M152.432 130.605C152.432 130.605 152.324 130.68 152.123 130.743C152.024 130.773 151.901 130.803 151.763 130.818C151.694 130.824 151.625 130.836 151.541 130.827C151.502 130.821 151.454 130.806 151.421 130.767C151.388 130.728 151.388 130.665 151.412 130.623C151.637 130.337 152.006 130.37 152.183 130.473C152.279 130.524 152.339 130.587 152.375 130.632C152.411 130.68 152.423 130.71 152.42 130.71C152.411 130.719 152.345 130.599 152.162 130.512C152.072 130.47 151.952 130.443 151.823 130.461C151.7 130.479 151.541 130.539 151.469 130.653C151.436 130.71 151.481 130.761 151.55 130.767C151.616 130.776 151.691 130.767 151.757 130.764C151.892 130.752 152.012 130.728 152.111 130.704C152.309 130.653 152.426 130.602 152.432 130.611V130.605Z" fill="#263238"/>
<path d="M152.36 130.655C152.36 130.655 152.276 130.601 152.228 130.457C152.204 130.385 152.192 130.295 152.21 130.196C152.234 130.103 152.261 129.977 152.396 129.923C152.471 129.899 152.648 130.052 152.66 130.109C152.678 130.166 152.57 130.136 152.567 130.184C152.555 130.28 152.534 130.367 152.507 130.436C152.453 130.574 152.393 130.643 152.387 130.64C152.378 130.634 152.423 130.556 152.465 130.421C152.486 130.352 152.504 130.271 152.51 130.178C152.522 130.094 152.498 129.965 152.414 129.986C152.333 130.013 152.291 130.124 152.27 130.208C152.252 130.295 152.258 130.379 152.273 130.448C152.306 130.583 152.372 130.649 152.363 130.658L152.36 130.655Z" fill="#263238"/>
<path d="M157.38 127.987C157.38 127.987 157.236 128.035 157.032 128.158C156.828 128.278 156.57 128.5 156.405 128.825C156.24 129.149 156.21 129.488 156.231 129.722C156.252 129.959 156.306 130.1 156.294 130.103C156.291 130.103 156.273 130.07 156.249 130.007C156.225 129.944 156.201 129.848 156.183 129.725C156.15 129.485 156.171 129.131 156.345 128.792C156.516 128.455 156.792 128.227 157.005 128.116C157.113 128.059 157.206 128.023 157.272 128.005C157.338 127.987 157.374 127.981 157.377 127.984L157.38 127.987Z" fill="#263238"/>
<path d="M155.493 129.95C155.493 129.95 155.212 130.154 154.825 130.331C154.438 130.509 154.105 130.602 154.099 130.587C154.093 130.569 154.414 130.449 154.798 130.274C155.182 130.1 155.484 129.935 155.493 129.953V129.95Z" fill="#263238"/>
<path d="M156.426 129.521C156.444 129.527 156.429 129.599 156.432 129.686C156.432 129.773 156.444 129.842 156.426 129.851C156.411 129.857 156.366 129.788 156.366 129.686C156.366 129.587 156.408 129.515 156.426 129.521Z" fill="#263238"/>
<path d="M156.582 128.92C156.597 128.926 156.591 128.989 156.564 129.061C156.537 129.134 156.501 129.188 156.486 129.182C156.471 129.176 156.477 129.112 156.504 129.04C156.531 128.968 156.567 128.914 156.582 128.92Z" fill="#263238"/>
<path d="M156.993 128.491C156.996 128.509 156.933 128.536 156.873 128.593C156.813 128.647 156.78 128.71 156.762 128.704C156.744 128.704 156.756 128.614 156.828 128.545C156.903 128.476 156.987 128.473 156.99 128.488L156.993 128.491Z" fill="#263238"/>
<path d="M157.311 128.233C157.311 128.233 157.308 128.281 157.275 128.317C157.242 128.35 157.206 128.368 157.194 128.356C157.182 128.344 157.197 128.308 157.23 128.272C157.263 128.239 157.299 128.221 157.311 128.233Z" fill="#263238"/>
<path d="M151.412 67.1334L150.533 56.4168L155.041 56.4978C155.041 56.4978 155.251 54.9188 154.585 51.4517C154.177 49.3264 152.765 48.0236 151.178 47.2491V47.2221L151.04 47.1861C149.022 46.2405 146.911 46.1084 146.911 46.1084L141.378 46.1714C141.378 46.1714 137.152 45.6431 134.813 48.66C133.914 49.8217 131.125 57.7736 131.125 57.7736L137.764 60.9736L137.131 56.5638C137.131 56.5638 137.257 59.7608 137.665 60.7724C137.893 61.3368 138.55 63.0899 138.55 63.0899L138.463 68.3761L151.406 67.1334H151.412Z" fill="url(#paint3_linear_22_10697)"/>
<path d="M148.359 54.8617L147.538 58.3619H155.287L154.777 52.4902L148.359 54.8617Z" fill="url(#paint4_linear_22_10697)"/>
<path d="M155.287 58.3621C155.287 58.3381 154.897 58.2991 154.261 58.26C153.625 58.224 152.747 58.191 151.778 58.197C150.806 58.203 149.928 58.245 149.295 58.2931C148.659 58.3441 148.269 58.3981 148.272 58.4191C148.272 58.4432 148.668 58.4341 149.301 58.4131C149.937 58.3951 150.812 58.3711 151.778 58.3651C152.747 58.3621 153.622 58.3741 154.258 58.3801C154.894 58.3861 155.287 58.3861 155.287 58.3621Z" fill="#263238"/>
<path d="M148.026 52.4634C148.002 52.4634 147.993 52.8056 147.999 53.3549C148.005 53.9043 148.026 54.6637 148.056 55.5013C148.089 56.3388 148.128 57.0982 148.164 57.6446C148.2 58.1939 148.236 58.5301 148.26 58.5301C148.284 58.5301 148.293 58.1879 148.287 57.6386C148.281 57.0892 148.26 56.3298 148.23 55.4922C148.197 54.6547 148.158 53.8983 148.122 53.3489C148.086 52.7996 148.05 52.4634 148.026 52.4634Z" fill="#263238"/>
<g opacity="0.3">
<path d="M140.976 55.4951C140.976 55.4951 142.697 68.274 147.537 67.9348C147.537 67.9348 149.718 67.9078 150.416 66.4579V65.8875L140.976 55.4951Z" fill="black"/>
</g>
<g opacity="0.3">
<path d="M148.027 53.2168L147.1 59.4817L147.7 60.5803L148.686 58.431L148.269 58.419L148.027 53.2168Z" fill="black"/>
</g>
<path d="M138.553 63.0868C138.553 63.0868 138.496 62.9847 138.421 62.7866C138.346 62.5915 138.247 62.3033 138.13 61.9491C137.899 61.2346 137.614 60.238 137.389 59.1123C137.167 57.9866 137.056 56.954 137.023 56.2035C137.005 55.8283 136.999 55.5251 137.005 55.315C137.008 55.1049 137.017 54.9878 137.026 54.9878C137.05 54.9878 137.068 55.4501 137.131 56.1945C137.194 56.939 137.32 57.9626 137.542 59.0793C137.764 60.196 138.031 61.1926 138.235 61.9131C138.331 62.2463 138.412 62.5314 138.478 62.7656C138.535 62.9667 138.562 63.0808 138.55 63.0838L138.553 63.0868Z" fill="#263238"/>
<path d="M140.511 66.7581C140.469 66.7701 140.349 66.4939 140.244 66.1427C140.136 65.7915 140.085 65.4943 140.127 65.4823C140.169 65.4703 140.289 65.7465 140.394 66.0977C140.502 66.4489 140.553 66.7461 140.511 66.7581Z" fill="#263238"/>
<path d="M141.18 66.7102C141.141 66.7192 141.009 66.308 141.003 65.7766C140.994 65.2453 141.111 64.8281 141.153 64.8371C141.198 64.8461 141.153 65.2603 141.159 65.7736C141.165 66.2869 141.225 66.7012 141.18 66.7102Z" fill="#263238"/>
<path d="M137.902 61.1179C137.884 61.1569 136.337 60.4214 134.45 59.4788C132.564 58.5363 131.05 57.7378 131.068 57.6987C131.086 57.6597 132.633 58.3952 134.519 59.3378C136.406 60.2803 137.92 61.0788 137.902 61.1179Z" fill="#263238"/>
<path d="M140.625 47.2041C140.661 45.6851 140.667 44.0851 140.667 44.0851C140.667 44.0851 138.721 43.7099 138.382 41.1463C138.058 38.7028 138.964 32.9663 138.964 32.9663C141.806 31.8916 144.76 32.8642 146.707 35.1696L146.224 47.4982C146.167 48.9301 144.892 50.0228 143.363 49.9508C141.818 49.8787 140.592 48.648 140.625 47.2011V47.2041Z" fill="#B78876"/>
<path d="M138.817 37.553C138.805 37.7271 138.943 37.8772 139.123 37.8922C139.302 37.9072 139.455 37.7781 139.467 37.607C139.479 37.4329 139.341 37.2828 139.162 37.2678C138.982 37.2528 138.826 37.3819 138.817 37.553Z" fill="#263238"/>
<path d="M138.694 37.1237C138.733 37.1687 138.985 36.9916 139.338 37.0006C139.689 37.0066 139.944 37.1927 139.983 37.1507C140.001 37.1327 139.962 37.0546 139.854 36.9706C139.746 36.8865 139.56 36.8025 139.338 36.7965C139.119 36.7935 138.934 36.8685 138.826 36.9466C138.715 37.0276 138.676 37.1027 138.697 37.1237H138.694Z" fill="#263238"/>
<path d="M142.388 37.7751C142.376 37.9492 142.514 38.0993 142.694 38.1143C142.874 38.1294 143.027 38.0003 143.039 37.8292C143.051 37.6581 142.913 37.505 142.733 37.49C142.553 37.4749 142.397 37.604 142.388 37.7751Z" fill="#263238"/>
<path d="M142.364 37.3459C142.403 37.3909 142.655 37.2138 143.009 37.2228C143.36 37.2288 143.615 37.415 143.654 37.3729C143.672 37.3549 143.633 37.2769 143.522 37.1898C143.414 37.1058 143.228 37.0217 143.006 37.0157C142.787 37.0127 142.601 37.0878 142.493 37.1658C142.382 37.2469 142.343 37.3219 142.364 37.3429V37.3459Z" fill="#263238"/>
<path d="M141.018 39.9247C141.018 39.9036 140.802 39.8616 140.448 39.8076C140.358 39.7956 140.274 39.7746 140.259 39.7145C140.241 39.6485 140.28 39.5524 140.325 39.4504C140.415 39.2342 140.508 39.0091 140.607 38.7719C141 37.8053 141.288 37.0129 141.249 36.9948C141.21 36.9798 140.859 37.7483 140.463 38.7149C140.367 38.9521 140.277 39.1802 140.19 39.3963C140.154 39.4984 140.091 39.6125 140.133 39.7475C140.154 39.8166 140.22 39.8646 140.277 39.8826C140.334 39.9006 140.385 39.9036 140.43 39.9066C140.787 39.9337 141.009 39.9427 141.009 39.9217L141.018 39.9247Z" fill="#263238"/>
<path d="M140.67 44.0881C140.67 44.0881 142.382 44.2442 144.11 43.2656C144.11 43.2656 143.237 44.9977 140.691 44.6915L140.673 44.0881H140.67Z" fill="#A36957"/>
<path d="M143.489 36.3282C143.417 36.4392 143.15 36.3882 142.85 36.3342C142.55 36.2741 142.283 36.2201 142.259 36.091C142.229 35.968 142.538 35.7968 142.94 35.8719C143.339 35.9469 143.564 36.2201 143.492 36.3252L143.489 36.3282Z" fill="#263238"/>
<path d="M139.992 35.8117C139.965 35.9407 139.677 35.9858 139.347 36.0038C139.018 36.0158 138.727 35.9978 138.688 35.8717C138.649 35.7516 138.928 35.5535 139.326 35.5355C139.725 35.5175 140.019 35.6886 139.992 35.8117Z" fill="#263238"/>
<path d="M141.024 40.7678C140.949 40.7468 140.865 40.7888 140.829 40.8578C140.784 40.9389 140.805 41.0469 140.874 41.107C140.943 41.167 141.057 41.167 141.129 41.11C141.201 41.0529 141.225 40.9419 141.183 40.8608C141.141 40.7798 141.039 40.7347 140.949 40.7618" fill="#A36957"/>
<path d="M141.108 40.8037C141.123 40.7887 141.051 40.7016 140.898 40.7377C140.826 40.7527 140.733 40.8157 140.706 40.9268C140.679 41.0288 140.706 41.1609 140.811 41.245C140.925 41.323 141.06 41.308 141.147 41.245C141.243 41.1819 141.27 41.0679 141.255 40.9958C141.225 40.8367 141.108 40.8127 141.105 40.8337C141.093 40.8547 141.147 40.9088 141.135 41.0018C141.129 41.0469 141.108 41.0919 141.063 41.1129C141.021 41.1369 140.949 41.1369 140.91 41.1069C140.868 41.0769 140.847 41.0108 140.856 40.9628C140.862 40.9118 140.895 40.8757 140.937 40.8517C141.021 40.8037 141.093 40.8277 141.105 40.8067L141.108 40.8037Z" fill="#263238"/>
<path d="M145.531 38.1863C145.228 38.8887 144.488 39.4321 144.59 40.1915C144.656 40.6808 144.97 41.1401 144.91 41.6294C144.832 42.2448 144.194 42.6741 144.104 43.2894C143.993 44.0429 144.724 44.6283 145.018 45.3337C145.444 46.3573 144.898 47.51 144.886 48.6207C144.865 50.3198 146.311 51.9078 148.002 52.0488C148.686 52.1059 149.457 51.8987 149.814 51.3104C150.108 50.8241 150.048 50.2087 150.224 49.6684C150.485 48.8639 151.25 48.2785 151.412 47.447C151.706 45.9341 149.88 44.6853 150 43.1484C150.051 42.4909 150.455 41.9206 150.626 41.2842C150.851 40.4527 150.644 39.5161 150.09 38.8557C149.64 38.3184 148.986 37.9672 148.602 37.3818C148.167 36.7184 148.152 35.8749 147.987 35.0974C147.588 33.2032 146.167 31.5582 144.353 30.8888C142.538 30.2194 140.388 30.5466 138.856 31.7263C138.856 31.7263 138.421 33.7045 140.448 34.0347C142.478 34.3649 143.417 33.9837 143.645 34.7972C143.645 34.7972 143.414 35.7488 144.254 36.6553C145.093 37.5649 145.882 37.3728 145.528 38.1893L145.531 38.1863Z" fill="#263238"/>
<path d="M148.767 51.9079C148.767 51.9079 148.704 51.9079 148.581 51.8898C148.461 51.8718 148.284 51.8298 148.065 51.7518C147.633 51.5927 147.019 51.2475 146.497 50.587C146.236 50.2598 145.993 49.8636 145.828 49.3983C145.66 48.936 145.564 48.4107 145.555 47.8584C145.543 47.306 145.621 46.7237 145.771 46.1443C145.846 45.8531 145.945 45.5649 146.059 45.2768C146.17 44.9886 146.308 44.7094 146.389 44.4152C146.473 44.1211 146.464 43.8209 146.389 43.5357C146.311 43.2505 146.176 42.9804 146.047 42.7132C145.915 42.446 145.783 42.1819 145.696 41.8997C145.609 41.6205 145.576 41.3173 145.633 41.0382C145.753 40.4738 146.095 40.0536 146.299 39.6243C146.512 39.198 146.581 38.7507 146.572 38.3455C146.536 37.529 146.188 36.9226 145.903 36.5744C145.606 36.2262 145.381 36.0911 145.393 36.0791C145.393 36.0791 145.63 36.1902 145.948 36.5354C146.254 36.8806 146.629 37.493 146.68 38.3395C146.698 38.7568 146.635 39.231 146.416 39.6783C146.209 40.1226 145.879 40.5459 145.774 41.0622C145.669 41.5845 145.915 42.1218 146.182 42.6441C146.314 42.9113 146.452 43.1875 146.536 43.4937C146.62 43.7969 146.632 44.1421 146.539 44.4543C146.455 44.7695 146.314 45.0516 146.203 45.3338C146.092 45.616 145.993 45.9012 145.918 46.1833C145.768 46.7507 145.69 47.318 145.699 47.8554C145.702 48.936 146.074 49.8846 146.581 50.518C147.079 51.1694 147.666 51.5206 148.086 51.6917C148.512 51.8628 148.77 51.8898 148.764 51.9079H148.767Z" fill="#455A64"/>
<path d="M148.47 36.7602C148.47 36.7602 148.314 36.7992 148.023 36.8262C147.735 36.8503 147.309 36.8833 146.788 36.7932C146.281 36.7002 145.636 36.451 145.228 35.8476C145.027 35.5444 144.949 35.1782 144.82 34.839C144.697 34.4968 144.461 34.1996 144.137 33.9955C143.48 33.5782 142.709 33.5272 142.034 33.4462C141.357 33.3681 140.718 33.224 140.286 32.8998C139.851 32.5906 139.629 32.1884 139.569 31.8972C139.536 31.7531 139.539 31.636 139.545 31.558C139.557 31.4799 139.563 31.4409 139.569 31.4409C139.587 31.4409 139.548 31.606 139.626 31.8792C139.698 32.1494 139.923 32.5216 140.346 32.8068C140.763 33.1009 141.372 33.23 142.046 33.2991C142.715 33.3741 143.516 33.4161 144.218 33.8604C144.565 34.0765 144.832 34.4158 144.958 34.779C145.093 35.1362 145.165 35.4874 145.345 35.7636C145.711 36.3219 146.317 36.5771 146.803 36.6791C147.303 36.7812 147.726 36.7662 148.014 36.7602C148.302 36.7512 148.464 36.7422 148.464 36.7542L148.47 36.7602Z" fill="#455A64"/>
<path d="M147.723 34.3171C147.723 34.3171 147.603 34.3621 147.373 34.3681C147.145 34.3742 146.803 34.3351 146.425 34.155C146.236 34.065 146.044 33.9389 145.867 33.7678C145.687 33.5967 145.54 33.3775 145.402 33.1464C145.132 32.6901 144.871 32.1258 144.311 31.8946C143.762 31.6575 143.156 31.7115 142.631 31.7475C142.1 31.7986 141.603 31.8166 141.198 31.7355C140.79 31.6635 140.484 31.4954 140.313 31.3393C140.226 31.2612 140.169 31.1922 140.136 31.1412C140.103 31.0901 140.088 31.0631 140.091 31.0601C140.103 31.0511 140.175 31.1562 140.352 31.2913C140.526 31.4263 140.823 31.5704 141.216 31.6275C141.612 31.6905 142.085 31.6665 142.619 31.6064C143.147 31.5644 143.771 31.4984 144.374 31.7535C144.674 31.8796 144.916 32.1048 145.09 32.3479C145.267 32.5911 145.393 32.8462 145.528 33.0744C145.66 33.3055 145.795 33.5156 145.96 33.6777C146.122 33.8428 146.299 33.9689 146.476 34.059C146.827 34.2421 147.154 34.2991 147.376 34.3111C147.597 34.3231 147.723 34.3081 147.726 34.3201L147.723 34.3171Z" fill="#455A64"/>
<path d="M149.664 51.2595C149.649 51.2535 149.745 51.0584 149.856 50.6891C149.967 50.3199 150.074 49.7676 150.057 49.0801C150.033 48.3987 149.871 47.5732 149.418 46.7867C149.199 46.3935 148.866 46.0423 148.593 45.613C148.458 45.3969 148.341 45.1567 148.29 44.8896C148.239 44.6224 148.269 44.3372 148.356 44.0791C148.524 43.5597 148.827 43.1245 148.89 42.6472C148.971 42.1699 148.728 41.7346 148.5 41.3444C148.383 41.1463 148.269 40.9511 148.179 40.747C148.089 40.5429 148.032 40.3267 148.008 40.1196C147.963 39.7024 148.011 39.3181 148.041 38.9759C148.128 38.2915 148.065 37.7271 147.9 37.3819C147.741 37.0307 147.531 36.9257 147.546 36.9106C147.546 36.9106 147.561 36.9136 147.582 36.9287C147.603 36.9437 147.639 36.9617 147.678 36.9977C147.759 37.0637 147.864 37.1778 147.954 37.3549C148.143 37.7061 148.224 38.2945 148.152 38.9849C148.128 39.3301 148.086 39.7084 148.137 40.1046C148.176 40.5039 148.383 40.8791 148.623 41.2693C148.74 41.4675 148.863 41.6746 148.95 41.9087C149.04 42.1399 149.079 42.407 149.04 42.6652C148.968 43.1905 148.659 43.6348 148.503 44.1211C148.422 44.3642 148.398 44.6164 148.44 44.8565C148.485 45.0967 148.59 45.3218 148.719 45.529C148.977 45.9432 149.313 46.3004 149.538 46.7117C149.997 47.5252 150.152 48.3747 150.164 49.0741C150.17 49.7766 150.042 50.3379 149.913 50.7042C149.847 50.8873 149.79 51.0283 149.739 51.1184C149.694 51.2115 149.667 51.2565 149.664 51.2565V51.2595Z" fill="#455A64"/>
<path d="M137.446 107.193C137.446 107.193 135.428 88.0294 135.311 80.948C135.194 73.8667 138.493 66.8784 138.493 66.8784L151.412 66.332C151.412 66.332 153.967 73.5185 154.012 76.5353C154.102 82.4009 152.456 88.1915 152.645 92.8444L153.076 107.193" fill="#263238"/>
<path d="M153.508 83.6315C153.508 83.6315 153.437 83.6915 153.299 83.7906C153.263 83.8176 153.224 83.8446 153.182 83.8746C153.143 83.9077 153.101 83.9527 153.056 83.9947C152.966 84.0818 152.858 84.1808 152.768 84.3159C152.351 84.8262 152.045 85.7418 151.757 86.8825C151.598 87.4498 151.436 88.0832 151.103 88.7046C151.013 88.8547 150.932 89.0168 150.815 89.1579C150.758 89.2299 150.708 89.308 150.648 89.377L150.45 89.5751C150.18 89.8423 149.838 90.0404 149.478 90.1995C148.755 90.5177 147.94 90.6678 147.193 91.0431C146.443 91.4093 145.879 92.1177 145.534 92.9342C145.172 93.7477 144.95 94.6002 144.647 95.3987C144.35 96.1912 143.942 96.9597 143.297 97.446C142.658 97.9503 141.867 98.0644 141.183 98.1094C140.487 98.1514 139.842 98.1304 139.267 98.2175C138.691 98.2985 138.181 98.4786 137.821 98.7638C137.458 99.049 137.248 99.4062 137.149 99.7124C137.047 100.022 137.065 100.283 137.098 100.448C137.131 100.616 137.179 100.697 137.167 100.7C137.167 100.7 137.11 100.625 137.065 100.454C137.02 100.286 136.99 100.016 137.089 99.6914C137.182 99.3702 137.392 98.998 137.764 98.6948C138.136 98.3916 138.661 98.1965 139.249 98.1064C139.836 98.0104 140.487 98.0254 141.174 97.9773C141.852 97.9293 142.607 97.8092 143.21 97.3289C143.819 96.8667 144.212 96.1252 144.503 95.3417C144.8 94.5522 145.022 93.6997 145.39 92.8682C145.738 92.0367 146.335 91.2832 147.121 90.905C147.898 90.5207 148.713 90.3736 149.418 90.0675C149.769 89.9144 150.096 89.7252 150.354 89.4761L150.546 89.287C150.606 89.2209 150.654 89.1459 150.708 89.0798C150.821 88.9448 150.899 88.7887 150.986 88.6446C151.316 88.0442 151.481 87.4168 151.649 86.8525C151.952 85.7178 152.276 84.7902 152.72 84.2799C152.816 84.1448 152.93 84.0457 153.023 83.9617C153.071 83.9197 153.113 83.8776 153.155 83.8446C153.2 83.8176 153.242 83.7906 153.278 83.7666C153.425 83.6735 153.502 83.6285 153.505 83.6315H153.508Z" fill="#FAFAFA"/>
<path d="M153.589 74.7642C153.589 74.7642 153.601 74.8512 153.607 75.0223C153.607 75.1904 153.589 75.4426 153.517 75.7548C153.367 76.3792 152.912 77.2377 152.057 78.0152C151.634 78.4054 151.127 78.7806 150.542 79.1228C149.964 79.4681 149.325 79.7953 148.671 80.1645C148.02 80.5367 147.346 80.954 146.755 81.5123C146.155 82.0617 145.708 82.7851 145.303 83.5536C144.895 84.3191 144.536 85.0965 144.047 85.772C143.804 86.1082 143.531 86.4173 143.228 86.6785C142.922 86.9397 142.589 87.1528 142.253 87.3299C141.576 87.6811 140.886 87.9003 140.247 88.1014C139.605 88.2995 139.009 88.4766 138.484 88.6958C137.959 88.9119 137.506 89.158 137.14 89.4162C136.774 89.6774 136.496 89.9475 136.298 90.1937C135.899 90.689 135.815 91.0462 135.791 91.0372C135.785 91.0372 135.815 90.9531 135.875 90.794C135.944 90.6409 136.052 90.4128 136.25 90.1577C136.445 89.9025 136.72 89.6173 137.089 89.3472C137.458 89.077 137.914 88.8218 138.442 88.5967C138.97 88.3686 139.569 88.1854 140.208 87.9813C140.844 87.7772 141.528 87.555 142.187 87.2068C142.517 87.0327 142.838 86.8256 143.132 86.5704C143.423 86.3153 143.69 86.0151 143.924 85.6879C144.401 85.0275 144.758 84.256 145.168 83.4845C145.573 82.7161 146.035 81.9716 146.653 81.4073C147.259 80.8369 147.945 80.4166 148.602 80.0444C149.262 79.6752 149.901 79.354 150.479 79.0178C151.058 78.6876 151.562 78.3214 151.985 77.9431C152.834 77.1897 153.295 76.3581 153.46 75.7488C153.622 75.1334 153.568 74.7732 153.592 74.7732L153.589 74.7642Z" fill="#FAFAFA"/>
<path d="M135.377 81.9627C135.377 81.9627 135.365 81.9447 135.35 81.9056C135.338 81.8666 135.311 81.8066 135.293 81.7255C135.257 81.5664 135.233 81.3113 135.323 81.0051C135.491 80.3927 136.154 79.6332 137.221 79.252C137.752 79.0689 138.358 78.9578 138.985 78.7927C139.605 78.6246 140.283 78.3905 140.79 77.8711C141.042 77.613 141.255 77.3098 141.429 76.9736C141.6 76.6344 141.744 76.2712 141.876 75.8959C142.146 75.1485 142.37 74.335 142.826 73.5935C143.279 72.849 144.017 72.3297 144.782 72.0716C145.543 71.7924 146.314 71.6663 147.025 71.5012C147.742 71.3451 148.41 71.144 148.977 70.8348C149.538 70.5166 149.982 70.0933 150.297 69.6431C150.944 68.7425 151.112 67.8209 151.136 67.2116C151.151 66.5932 151.052 66.254 151.073 66.251C151.073 66.251 151.193 66.5812 151.199 67.2116C151.193 67.8299 151.04 68.7755 150.39 69.7061C150.072 70.1714 149.619 70.6127 149.043 70.9459C148.461 71.2671 147.777 71.4772 147.061 71.6393C146.344 71.8074 145.579 71.9365 144.839 72.2127C144.092 72.4708 143.399 72.9601 142.961 73.6746C142.52 74.386 142.295 75.1905 142.023 75.944C141.888 76.3222 141.741 76.6914 141.564 77.0396C141.381 77.3848 141.159 77.703 140.892 77.9702C140.355 78.5165 139.647 78.7507 139.018 78.9158C138.379 79.0779 137.779 79.1799 137.257 79.3541C136.217 79.7083 135.557 80.4377 135.38 81.0201C135.284 81.3113 135.296 81.5574 135.323 81.7165C135.356 81.8756 135.383 81.9567 135.377 81.9597V81.9627Z" fill="#FAFAFA"/>
<path d="M152.477 98.1665C152.477 98.1665 152.489 98.2295 152.498 98.3556C152.504 98.4787 152.498 98.6648 152.444 98.899C152.339 99.3612 151.982 99.9946 151.31 100.52C150.98 100.787 150.581 101.03 150.12 101.225C149.661 101.421 149.154 101.577 148.626 101.742C148.098 101.907 147.544 102.081 147.004 102.333C146.461 102.582 145.96 102.945 145.528 103.411C145.09 103.87 144.713 104.371 144.296 104.813C143.879 105.257 143.405 105.623 142.913 105.896C141.927 106.443 140.904 106.629 140.061 106.638C139.213 106.647 138.541 106.47 138.097 106.311C137.875 106.232 137.707 106.154 137.599 106.097C137.488 106.043 137.431 106.01 137.434 106.007C137.434 106.001 137.497 106.025 137.611 106.07C137.725 106.118 137.893 106.187 138.115 106.256C138.559 106.395 139.225 106.554 140.055 106.53C140.883 106.506 141.882 106.311 142.838 105.773C143.315 105.506 143.771 105.149 144.179 104.711C144.59 104.275 144.964 103.774 145.411 103.306C145.849 102.831 146.38 102.45 146.935 102.198C147.49 101.94 148.05 101.769 148.581 101.607C149.112 101.445 149.616 101.294 150.066 101.108C150.515 100.922 150.911 100.688 151.235 100.433C151.898 99.9286 152.258 99.3282 152.378 98.8809C152.495 98.4307 152.45 98.1665 152.471 98.1665H152.477Z" fill="#FAFAFA"/>
<path d="M151.004 58.3739L148.506 58.4339C148.341 59.2775 147.942 59.8538 147.942 59.8538C145.852 56.2246 144.233 51.3616 143.831 49.4074C143.891 49.2122 143.96 48.9961 144.047 48.756C144.146 48.4768 144.062 47.9485 144.014 47.6573C143.945 47.222 143.822 46.6367 143.786 46.3665C143.675 45.541 143.543 45.4119 143.255 45.505C142.862 45.631 143.417 47.8254 143.096 47.8704C142.925 47.8974 142.712 47.144 142.652 46.5286C142.592 45.9132 142.314 44.016 142.11 43.89C141.813 43.7038 141.552 43.998 141.627 44.6104C141.702 45.2318 141.798 47.0839 141.474 47.1079C141.153 47.132 140.883 43.989 140.883 43.989C140.883 43.989 140.934 43.3046 140.556 43.3226C139.875 43.3526 140.406 46.6667 140.466 46.9789C140.508 47.198 140.154 47.237 140.124 46.9999C140.091 46.7567 139.929 43.8569 139.237 43.881C138.706 43.899 139.647 46.6126 139.351 47.24C139.054 47.8674 138.847 45.1057 138.337 45.1417C138.148 45.1567 138.01 45.1928 138.355 46.7567C138.541 47.5972 139.09 49.1432 139.567 50.422C140.37 54.7597 143.897 68.6372 149.424 66.0947C152.516 64.6748 153.772 58.3739 153.772 58.3739H151.007H151.004Z" fill="#B78876"/>
<path d="M140.343 47.1891C140.343 47.1891 140.367 47.1921 140.415 47.18C140.457 47.168 140.541 47.114 140.529 47.0059C140.523 46.8198 140.493 46.5497 140.451 46.1984C140.418 45.8442 140.313 45.421 140.313 44.9197C140.31 44.6675 140.313 44.3973 140.331 44.1122C140.34 43.9681 140.343 43.821 140.376 43.6799C140.4 43.5448 140.49 43.3887 140.595 43.4067H140.607H140.613C140.721 43.4007 140.802 43.4848 140.838 43.6108C140.877 43.7339 140.886 43.875 140.877 44.0131V44.0191V44.0221C140.946 44.7906 141.024 45.6311 141.198 46.5286C141.222 46.6397 141.246 46.7538 141.282 46.8679C141.3 46.9249 141.318 46.9819 141.345 47.039C141.36 47.069 141.372 47.096 141.396 47.129C141.417 47.156 141.444 47.2011 141.522 47.2071C141.648 47.1981 141.684 47.102 141.711 47.048C141.738 46.9849 141.756 46.9249 141.768 46.8649C141.795 46.7418 141.807 46.6217 141.816 46.4986C141.849 46.0093 141.831 45.508 141.795 44.9977C141.783 44.7395 141.72 44.4814 141.765 44.2472C141.786 44.1332 141.834 44.0161 141.912 43.9681C141.951 43.9441 141.993 43.9411 142.041 43.9531C142.065 43.9591 142.089 43.9711 142.113 43.9831C142.134 44.0011 142.128 43.9921 142.146 44.0281C142.244 44.2442 142.298 44.5234 142.352 44.7816C142.406 45.0487 142.451 45.3189 142.493 45.5921C142.535 45.8652 142.574 46.1444 142.607 46.4206C142.634 46.6998 142.673 46.9909 142.745 47.2731C142.781 47.4142 142.82 47.5553 142.88 47.6964C142.91 47.7654 142.943 47.8375 143.003 47.9095C143.024 47.9395 143.096 47.9966 143.183 47.9755C143.267 47.9485 143.291 47.8795 143.306 47.8405C143.354 47.6663 143.339 47.5253 143.339 47.3722C143.333 47.2221 143.321 47.075 143.309 46.9279C143.288 46.6757 143.264 46.4236 143.255 46.1774C143.252 46.0544 143.252 45.9313 143.264 45.8172C143.27 45.7602 143.282 45.7031 143.3 45.6611C143.309 45.6401 143.321 45.6251 143.33 45.6161C143.336 45.6101 143.339 45.6161 143.342 45.6071L143.381 45.5951C143.579 45.514 143.645 45.7902 143.699 46.0123C143.744 46.2465 143.774 46.4866 143.822 46.7238C143.9 47.1981 144.002 47.6663 144.056 48.1166C144.077 48.3418 144.095 48.5729 144.029 48.762C143.957 48.9782 143.888 49.1943 143.819 49.4074L143.813 49.4254L143.819 49.4464C144.185 51.0614 144.692 52.5053 145.159 53.7871C145.633 55.0689 146.11 56.1736 146.527 57.0801C146.944 57.9867 147.319 58.6831 147.58 59.1604C147.712 59.3856 147.813 59.5657 147.891 59.6978C147.963 59.8178 148.002 59.8809 148.008 59.8779C148.011 59.8779 147.981 59.8088 147.915 59.6828C147.843 59.5477 147.747 59.3646 147.628 59.1334C147.385 58.6501 147.025 57.9477 146.62 57.0381C146.215 56.1286 145.753 55.0209 145.288 53.7391C144.83 52.4573 144.332 51.0104 143.978 49.4134V49.4525C144.044 49.2423 144.116 49.0322 144.185 48.8161C144.266 48.5699 144.242 48.3328 144.221 48.0986C144.167 47.6303 144.068 47.174 143.99 46.6967C143.945 46.4626 143.915 46.2195 143.867 45.9763C143.84 45.8532 143.813 45.7302 143.744 45.6041C143.711 45.544 143.66 45.475 143.579 45.436C143.495 45.4 143.411 45.409 143.342 45.427L143.291 45.442C143.267 45.451 143.24 45.463 143.222 45.481C143.183 45.514 143.162 45.553 143.147 45.5891C143.114 45.6611 143.105 45.7272 143.096 45.7932C143.081 45.9253 143.081 46.0544 143.087 46.1804C143.096 46.4356 143.12 46.6877 143.141 46.9399C143.153 47.087 143.165 47.2311 143.171 47.3752C143.177 47.5163 143.18 47.6694 143.15 47.7774C143.144 47.8074 143.129 47.8044 143.144 47.8194C143.144 47.8194 143.144 47.8375 143.144 47.8314V47.8194C143.144 47.8194 143.153 47.8074 143.147 47.8044C143.147 47.8044 143.138 47.7984 143.129 47.7864C143.096 47.7474 143.063 47.6874 143.036 47.6243C142.982 47.4982 142.943 47.3632 142.91 47.2251C142.841 46.9489 142.802 46.6757 142.775 46.3936C142.742 46.1114 142.703 45.8322 142.658 45.556C142.616 45.2799 142.568 45.0067 142.514 44.7395C142.451 44.4694 142.412 44.2082 142.286 43.938C142.277 43.911 142.226 43.851 142.194 43.833C142.161 43.812 142.122 43.797 142.083 43.785C142.002 43.7639 141.903 43.7729 141.828 43.821C141.678 43.92 141.633 44.0761 141.606 44.2112C141.582 44.3523 141.585 44.4904 141.6 44.6225C141.615 44.7515 141.627 44.8776 141.636 45.0037C141.675 45.508 141.693 46.0063 141.663 46.4836C141.654 46.6007 141.642 46.7208 141.621 46.8318C141.609 46.8889 141.594 46.9399 141.576 46.9879C141.567 47.0119 141.555 47.033 141.543 47.045C141.531 47.069 141.522 47.039 141.525 47.081C141.54 47.051 141.525 47.066 141.513 47.042C141.501 47.027 141.489 46.9999 141.477 46.9789C141.456 46.9309 141.438 46.8769 141.42 46.8258C141.387 46.7208 141.36 46.6097 141.336 46.4986C141.159 45.6161 141.075 44.7726 140.997 44.0131V44.0221C141.003 43.869 140.994 43.7219 140.949 43.5748C140.925 43.5028 140.892 43.4307 140.832 43.3737C140.772 43.3167 140.688 43.2897 140.61 43.2927H140.628C140.508 43.2716 140.418 43.3467 140.37 43.4187C140.319 43.4938 140.295 43.5748 140.277 43.6529C140.244 43.809 140.244 43.9591 140.238 44.1032C140.226 44.3913 140.226 44.6645 140.232 44.9167C140.241 45.43 140.358 45.8532 140.397 46.2014C140.448 46.5497 140.487 46.8198 140.505 47.0029C140.523 47.09 140.454 47.144 140.418 47.159C140.376 47.177 140.352 47.18 140.352 47.183L140.343 47.1891Z" fill="#A36957"/>
<path d="M120.814 62.5074C120.814 62.5074 119.983 62.4684 119.078 62.7055C117.53 63.1138 114.855 64.7348 114.744 66.74H116.685C116.685 66.74 115.596 69.0574 115.917 68.8413C116.745 68.286 118.397 66.6049 118.397 66.6049L120.814 62.5044V62.5074Z" fill="#B78876"/>
<path d="M147.301 27.629C147.259 27.632 147.082 26.026 146.908 24.0387C146.734 22.0515 146.626 20.4395 146.671 20.4365C146.713 20.4335 146.89 22.0395 147.064 24.0267C147.238 26.014 147.346 27.626 147.301 27.629Z" fill="#263238"/>
<path d="M155.821 20.5354C155.857 20.5594 154.543 22.4656 152.891 24.792C151.238 27.1184 149.868 28.9826 149.832 28.9586C149.796 28.9346 151.109 27.0284 152.762 24.702C154.414 22.3755 155.785 20.5114 155.818 20.5354H155.821Z" fill="#263238"/>
<path d="M159.359 29.175C159.368 29.2171 157.836 29.5683 155.941 29.9585C154.042 30.3488 152.498 30.6309 152.489 30.5889C152.48 30.5469 154.012 30.1957 155.908 29.8054C157.806 29.4152 159.35 29.133 159.359 29.175Z" fill="#263238"/>
<path d="M57.3633 70.4054L46.7591 124.979L45.3706 132.123L116.163 131.775C119.339 131.76 122.155 128.936 123.177 124.742L135.731 73.2182C136.508 70.0332 134.804 66.7222 132.393 66.7222L60.743 66.7972C59.1596 66.7972 57.7771 68.2771 57.3633 70.4054Z" fill="#645DF6"/>
<g opacity="0.5">
<path d="M57.3633 70.4054L46.7591 124.979L45.3706 132.123L116.163 131.775C119.339 131.76 122.155 128.936 123.177 124.742L135.731 73.2182C136.508 70.0332 134.804 66.7222 132.393 66.7222L60.743 66.7972C59.1596 66.7972 57.7771 68.2771 57.3633 70.4054Z" fill="black"/>
</g>
<path d="M109.373 121.284L101.879 60.8235C101.573 58.347 99.6 56.4979 97.2729 56.5069L80.8358 56.5609C79.6182 56.5639 78.4517 57.0832 77.588 58.0018L69.7848 66.3049L24.0724 66.5451C21.2804 66.5601 19.1332 69.2047 19.502 72.1795L26.4625 128.059C26.7714 130.533 28.7387 132.379 31.0628 132.373L110.729 132.217C119.603 132.4 120.448 129.779 120.448 129.779C110.279 132.033 109.373 121.293 109.373 121.287V121.284Z" fill="#645DF6"/>
<path d="M120.751 31.1531C120.559 31.0721 120.421 30.8829 120.412 30.6608L120.292 27.8751C120.283 27.701 120.358 27.5299 120.493 27.4188C120.628 27.3077 120.808 27.2657 120.979 27.3047C121.426 27.4098 121.921 27.3137 122.332 27.0376C122.712 26.7824 122.967 26.4102 123.03 26.0109C123.096 25.6147 122.973 25.1734 122.694 24.8042C122.395 24.408 121.954 24.1438 121.513 24.0928C120.61 23.9877 119.636 24.6811 119.384 25.6057C119.303 25.9029 118.997 26.08 118.697 25.9989C118.394 25.9149 118.223 25.6087 118.304 25.3115C118.697 23.8586 120.196 22.814 121.642 22.9791C122.392 23.0661 123.102 23.4834 123.588 24.1288C124.05 24.7412 124.251 25.4916 124.137 26.1911C124.023 26.8935 123.591 27.5419 122.952 27.9682C122.49 28.2773 121.963 28.4454 121.435 28.4635L121.528 30.6128C121.54 30.922 121.303 31.1831 120.994 31.1951C120.907 31.1981 120.826 31.1831 120.751 31.1501V31.1531Z" fill="#645DF6"/>
<path d="M121.57 32.2936C121.588 32.5458 121.396 32.7649 121.144 32.7829C120.892 32.801 120.673 32.6088 120.655 32.3567C120.637 32.1045 120.829 31.8854 121.081 31.8674C121.333 31.8494 121.552 32.0415 121.57 32.2936Z" fill="#645DF6"/>
<path d="M111.113 27.2236C111.113 27.2236 111.125 27.1605 111.14 27.0405C111.155 26.9114 111.173 26.7313 111.2 26.5031C111.212 26.266 111.275 25.9778 111.344 25.6416C111.383 25.4735 111.404 25.2874 111.467 25.0983C111.527 24.9091 111.586 24.705 111.652 24.4919C111.943 23.6484 112.39 22.6367 113.143 21.6311C113.89 20.6285 114.942 19.6349 116.292 18.8844C116.958 18.4882 117.716 18.212 118.514 17.9659C119.324 17.7737 120.181 17.6086 121.078 17.6297C121.525 17.6056 121.978 17.6717 122.44 17.7107C122.67 17.7317 122.895 17.7948 123.126 17.8338C123.357 17.8758 123.591 17.9208 123.816 18.0019C124.743 18.239 125.642 18.6773 126.497 19.2176C128.218 20.3013 129.667 22.0634 130.462 24.2007C130.861 25.2694 131.049 26.4401 131.049 27.6258C131.073 28.8116 130.843 30.0153 130.423 31.15L130.288 31.4922L130.27 31.5372L130.288 31.5793C131.04 33.3143 131.778 35.0134 132.492 36.6614L132.618 36.5173C131.07 35.9229 129.568 35.3436 128.125 34.7912L128.069 34.7702L128.024 34.8123C126.776 36.022 125.289 36.8385 123.783 37.2618C122.272 37.688 120.748 37.709 119.366 37.4629C117.977 37.2167 116.73 36.6854 115.686 36.004C114.642 35.3226 113.803 34.4911 113.158 33.6475C112.516 32.795 112.093 31.9185 111.775 31.138C111.494 30.3395 111.323 29.6311 111.239 29.0427C111.203 28.7485 111.173 28.4904 111.146 28.2622C111.14 28.0371 111.134 27.848 111.131 27.6889C111.125 27.5418 111.122 27.4247 111.119 27.3376C111.116 27.2596 111.113 27.2176 111.11 27.2176C111.11 27.2176 111.104 27.2566 111.104 27.3376C111.104 27.4247 111.104 27.5418 111.098 27.6889C111.098 27.848 111.098 28.0401 111.098 28.2652C111.122 28.4934 111.146 28.7575 111.176 29.0517C111.251 29.6431 111.413 30.3605 111.688 31.171C112 31.9635 112.42 32.852 113.062 33.7226C113.71 34.5811 114.552 35.4306 115.608 36.1301C116.661 36.8295 117.926 37.3758 119.336 37.631C120.742 37.8861 122.29 37.8711 123.828 37.4419C125.363 37.0126 126.881 36.1871 128.155 34.9563L128.057 34.9774C129.496 35.5327 130.998 36.1121 132.546 36.7124L132.771 36.7995L132.672 36.5683C131.958 34.9203 131.22 33.2183 130.471 31.4832V31.5703L130.609 31.219C131.04 30.0603 131.274 28.8266 131.25 27.6168C131.25 26.4071 131.055 25.2093 130.648 24.1167C129.835 21.9343 128.35 20.1392 126.596 19.0405C125.72 18.4912 124.806 18.0499 123.861 17.8098C123.63 17.7317 123.393 17.6867 123.159 17.6417C122.925 17.6026 122.694 17.5396 122.461 17.5186C121.993 17.4796 121.534 17.4165 121.078 17.4435C120.166 17.4255 119.297 17.5966 118.475 17.7948C117.665 18.0469 116.898 18.3321 116.226 18.7373C114.861 19.5088 113.803 20.5204 113.053 21.5441C112.3 22.5677 111.856 23.5973 111.577 24.4499C111.515 24.666 111.455 24.8701 111.398 25.0652C111.338 25.2574 111.32 25.4465 111.284 25.6146C111.218 25.9568 111.164 26.245 111.158 26.4851C111.14 26.7163 111.128 26.8934 111.119 27.0255C111.11 27.1455 111.11 27.2086 111.113 27.2086V27.2236Z" fill="#263238"/>
<circle cx="53" cy="94" r="2" fill="white"/>
<circle cx="73" cy="93" r="2" fill="white"/>
<path d="M52 104.5C54.8333 101.833 62.8 97.9001 72 103.5" stroke="white"/>
</g>
<defs>
<linearGradient id="paint0_linear_22_10697" x1="4.74079" y1="113.23" x2="4.74079" y2="123.313" gradientUnits="userSpaceOnUse">
<stop stop-color="#000AFF"/>
<stop offset="1" stop-color="#D274FF"/>
</linearGradient>
<linearGradient id="paint1_linear_22_10697" x1="11.7547" y1="120.169" x2="11.7547" y2="125.613" gradientUnits="userSpaceOnUse">
<stop stop-color="#000AFF"/>
<stop offset="1" stop-color="#D274FF"/>
</linearGradient>
<linearGradient id="paint2_linear_22_10697" x1="3.78739" y1="124.108" x2="3.78739" y2="128.361" gradientUnits="userSpaceOnUse">
<stop stop-color="#000AFF"/>
<stop offset="1" stop-color="#D274FF"/>
</linearGradient>
<linearGradient id="paint3_linear_22_10697" x1="143.098" y1="46.1084" x2="143.098" y2="68.3761" gradientUnits="userSpaceOnUse">
<stop stop-color="#000AFF"/>
<stop offset="1" stop-color="#D274FF"/>
</linearGradient>
<linearGradient id="paint4_linear_22_10697" x1="151.412" y1="52.4902" x2="151.412" y2="58.3619" gradientUnits="userSpaceOnUse">
<stop stop-color="#000AFF"/>
<stop offset="1" stop-color="#D274FF"/>
</linearGradient>
<clipPath id="clip0_22_10697">
<rect width="174" height="133" fill="white"/>
</clipPath>
<clipPath id="clip1_22_10697">
<rect width="28.8248" height="29" fill="white" transform="translate(7.46216 57.1431) rotate(-32.7324)"/>
</clipPath>
</defs>
</svg>
