<svg width="29" height="28" viewBox="0 0 29 28" fill="none" xmlns="http://www.w3.org/2000/svg">
<g clip-path="url(#clip0_1171_113997)">
<path d="M24.9974 6.07513C24.9895 6.00907 24.9116 5.418 24.5096 5.0155L19.9841 0.49088C19.582 0.0888171 18.9909 0.0105047 18.9244 0.00306716C18.908 0.000944871 18.8915 -7.82471e-05 18.875 4.66153e-06H6.1875C4.98131 4.66153e-06 4 0.981317 4 2.1875V25.8125C4 27.0187 4.98131 28 6.1875 28H22.8125C24.0187 28 25 27.0187 25 25.8125V6.125C25 6.10838 24.9991 6.09175 24.9974 6.07513Z" fill="url(#paint0_linear_1171_113997)"/>
<path d="M24.5096 5.01586L19.9841 0.490795C19.582 0.0887321 18.9909 0.0104197 18.9244 0.00298215C18.8632 -0.00424363 18.8011 0.00169818 18.7423 0.0204099C18.6835 0.0391217 18.6294 0.0701718 18.5836 0.111482C18.5376 0.152386 18.5008 0.202588 18.4756 0.258773C18.4504 0.314958 18.4374 0.375847 18.4375 0.43742V4.37492C18.4375 5.58111 19.4188 6.56242 20.625 6.56242H24.5625C24.6242 6.56242 24.6851 6.54936 24.7414 6.5241C24.7976 6.49884 24.8479 6.46195 24.8889 6.41586C24.9716 6.32311 25.0109 6.19886 24.9974 6.07504C24.9899 6.00898 24.9116 5.41792 24.5096 5.01586Z" fill="url(#paint1_linear_1171_113997)"/>
<path d="M14.5 17.0625C14.2679 17.0625 14.0454 16.9703 13.8813 16.8062C13.7172 16.6421 13.625 16.4196 13.625 16.1875V15.3125C13.625 14.0468 14.5241 13.3774 15.1803 12.8883C15.8829 12.3642 16.25 12.0588 16.25 11.375C16.25 10.4099 15.4651 9.625 14.5 9.625C13.5349 9.625 12.75 10.4099 12.75 11.375C12.75 11.6071 12.6578 11.8296 12.4937 11.9937C12.3296 12.1578 12.1071 12.25 11.875 12.25C11.6429 12.25 11.4204 12.1578 11.2563 11.9937C11.0922 11.8296 11 11.6071 11 11.375C11 9.44519 12.5702 7.875 14.5 7.875C16.4298 7.875 18 9.44519 18 11.375C18 12.9688 16.9745 13.7331 16.2255 14.2914C15.6082 14.7516 15.375 14.959 15.375 15.3125V16.1875C15.375 16.4196 15.2828 16.6421 15.1187 16.8062C14.9546 16.9703 14.7321 17.0625 14.5 17.0625Z" fill="url(#paint2_linear_1171_113997)"/>
<path d="M14.5 20.125C14.9832 20.125 15.375 19.7332 15.375 19.25C15.375 18.7668 14.9832 18.375 14.5 18.375C14.0168 18.375 13.625 18.7668 13.625 19.25C13.625 19.7332 14.0168 20.125 14.5 20.125Z" fill="url(#paint3_linear_1171_113997)"/>
</g>
<defs>
<linearGradient id="paint0_linear_1171_113997" x1="2.89137" y1="25.6086" x2="23.9968" y2="4.50319" gradientUnits="userSpaceOnUse">
<stop stop-color="#B3D8F4"/>
<stop offset="1" stop-color="#D1E7F8"/>
</linearGradient>
<linearGradient id="paint1_linear_1171_113997" x1="19.0789" y1="5.92104" x2="22.2468" y2="2.75311" gradientUnits="userSpaceOnUse">
<stop stop-color="#00969B"/>
<stop offset="1" stop-color="#00D7DF"/>
</linearGradient>
<linearGradient id="paint2_linear_1171_113997" x1="11.7507" y1="14.6759" x2="17.2493" y2="9.177" gradientUnits="userSpaceOnUse">
<stop stop-color="#005ECE"/>
<stop offset="1" stop-color="#2488FF"/>
</linearGradient>
<linearGradient id="paint3_linear_1171_113997" x1="13.8814" y1="19.8691" x2="15.1186" y2="18.6314" gradientUnits="userSpaceOnUse">
<stop stop-color="#005ECE"/>
<stop offset="1" stop-color="#2488FF"/>
</linearGradient>
<clipPath id="clip0_1171_113997">
<rect width="28" height="28" fill="white" transform="translate(0.5)"/>
</clipPath>
</defs>
</svg>
