<svg width="32" height="33" viewBox="0 0 32 33" fill="none" xmlns="http://www.w3.org/2000/svg">
<g clip-path="url(#clip0_1011_24035)">
<path d="M30.4319 26.9516C31.5299 28.0483 31.5307 29.8316 30.4319 30.9291C29.3338 32.0273 27.5526 32.0273 26.4544 30.9291L21.5651 26.0398L25.5426 22.0623L30.4319 26.9516Z" fill="white"/>
<path d="M21.0163 4.7197C25.6538 9.3572 25.6538 16.876 21.0163 21.5135C16.3788 26.151 8.86001 26.151 4.22251 21.5135C-0.41499 16.876 -0.41499 9.3572 4.22251 4.7197C8.86001 0.0822022 16.3788 0.0822022 21.0163 4.7197Z" fill="#E1ECFF"/>
<path d="M17.9225 7.81349C20.8513 10.7422 20.8513 15.491 17.9225 18.4197C14.9938 21.3491 10.245 21.3491 7.31629 18.4197C4.38692 15.491 4.38692 10.7422 7.31629 7.81349C10.245 4.88411 14.9938 4.88411 17.9225 7.81349Z" fill="white"/>
<path d="M9.43726 11.349L10.8513 9.93452L12.4426 11.5258L12.6194 11.7026L12.7962 11.5258L14.3869 9.93452L15.8014 11.349L14.2101 12.9398L14.0333 13.1166L14.2101 13.2934L15.8014 14.8841L14.3869 16.2986L12.7962 14.7073L12.6194 14.5305L12.4426 14.7073L10.8513 16.2986L9.43726 14.8841L11.028 13.2933L11.2048 13.1166L11.028 12.9398L9.43726 11.349Z" fill="white" stroke="#D50060" stroke-width="0.5"/>
<path d="M28.4431 32.0652C27.6083 32.0652 26.8235 31.7402 26.2334 31.15L21.344 26.2606C21.315 26.2316 21.292 26.1972 21.2763 26.1593C21.2605 26.1214 21.2525 26.0807 21.2525 26.0397C21.2525 25.9987 21.2605 25.958 21.2763 25.9201C21.292 25.8822 21.315 25.8478 21.344 25.8188L25.3215 21.8413C25.3505 21.8122 25.385 21.7892 25.4229 21.7735C25.4608 21.7578 25.5015 21.7497 25.5425 21.7497C25.5836 21.7497 25.6242 21.7578 25.6621 21.7735C25.7 21.7892 25.7345 21.8122 25.7635 21.8413L30.6529 26.7306C31.2431 27.3201 31.5682 28.1048 31.5682 28.9403C31.5682 29.7756 31.2431 30.5605 30.6528 31.1501C30.0628 31.7402 29.278 32.0652 28.4431 32.0652ZM22.0069 26.0397L26.6753 30.7081C27.1474 31.1802 27.7752 31.4402 28.4431 31.4402C29.111 31.4402 29.7388 31.1802 30.2109 30.7081C30.6831 30.2364 30.9431 29.6086 30.9431 28.9403C30.9431 28.272 30.6831 27.6443 30.2111 27.1728L25.5425 22.5042L22.0069 26.0397ZM12.6194 25.2983C9.49845 25.2983 6.37745 24.1103 4.00151 21.7344C1.69963 19.4325 0.431885 16.372 0.431885 13.1166C0.431885 9.86121 1.69963 6.8007 4.00151 4.49877C8.75338 -0.25317 16.4853 -0.25317 21.2372 4.49877C23.5391 6.80064 24.8068 9.86121 24.8068 13.1166C24.8068 16.372 23.5391 19.4325 21.2373 21.7344C18.8613 24.1104 15.7403 25.2983 12.6194 25.2983ZM12.6194 1.55952C9.65845 1.55952 6.69757 2.68658 4.44351 4.94071C2.25963 7.12458 1.05688 10.0281 1.05688 13.1166C1.05688 16.205 2.25963 19.1086 4.44351 21.2925C8.9517 25.8006 16.2871 25.8006 20.7953 21.2925C22.9792 19.1086 24.1819 16.205 24.1819 13.1166C24.1819 10.0281 22.9792 7.12458 20.7953 4.94071C18.5412 2.68658 15.5803 1.55952 12.6194 1.55952Z" fill="#336666"/>
<path d="M12.6193 20.9292C10.5325 20.9292 8.5707 20.1165 7.0952 18.6406C5.61945 17.1652 4.80664 15.2034 4.80664 13.1166C4.80664 11.0298 5.61939 9.06802 7.09527 7.59245C8.5707 6.1167 10.5326 5.30396 12.6193 5.30396C14.7061 5.30396 16.668 6.11671 18.1435 7.59252C19.6189 9.06796 20.4315 11.0298 20.4315 13.1166C20.4315 15.2034 19.619 17.1651 18.1435 18.6406C16.668 20.1165 14.7061 20.9292 12.6193 20.9292ZM12.6193 5.92896C10.6995 5.92896 8.89464 6.67671 7.5372 8.03446C6.17939 9.39196 5.43164 11.1968 5.43164 13.1166C5.43164 15.0363 6.17939 16.8413 7.53714 18.1986C8.89464 19.5565 10.6995 20.3041 12.6193 20.3041C14.5391 20.3041 16.344 19.5564 17.7015 18.1986C19.059 16.8411 19.8065 15.0363 19.8065 13.1165C19.8065 11.1968 19.059 9.39183 17.7015 8.03439C16.344 6.67671 14.5391 5.92896 12.6193 5.92896Z" fill="#336666"/>
<path d="M23.4686 24.3914C23.4275 24.3915 23.3869 24.3834 23.349 24.3677C23.311 24.352 23.2766 24.3289 23.2476 24.2999L20.7289 21.7811C20.6992 21.7522 20.6756 21.7178 20.6594 21.6797C20.6433 21.6416 20.6348 21.6007 20.6345 21.5593C20.6343 21.518 20.6422 21.477 20.6579 21.4387C20.6737 21.4004 20.6968 21.3656 20.7261 21.3364C20.7553 21.3071 20.7901 21.284 20.8284 21.2683C20.8666 21.2526 20.9077 21.2446 20.949 21.2449C20.9904 21.2451 21.0313 21.2536 21.0694 21.2698C21.1074 21.286 21.1419 21.3096 21.1708 21.3392L23.6895 23.858C23.7186 23.887 23.7416 23.9214 23.7573 23.9593C23.773 23.9973 23.7811 24.0379 23.7811 24.0789C23.7811 24.12 23.773 24.1606 23.7573 24.1985C23.7416 24.2364 23.7186 24.2709 23.6895 24.2999C23.6606 24.3289 23.6261 24.352 23.5882 24.3677C23.5503 24.3834 23.5096 24.3915 23.4686 24.3914Z" fill="#336666"/>
</g>
<defs>
<clipPath id="clip0_1011_24035">
<rect width="32" height="32" fill="white" transform="translate(0 0.5)"/>
</clipPath>
</defs>
</svg>
