<svg width="84" height="83" viewBox="0 0 84 83" fill="none" xmlns="http://www.w3.org/2000/svg">
<path d="M36.5725 26.7714C37.7089 26.3315 38.9009 26.0518 40.1143 25.9401C40.1998 25.9327 40.2831 25.9084 40.3592 25.8686C40.4353 25.8288 40.5027 25.7743 40.5575 25.7082C40.6124 25.6421 40.6536 25.5658 40.6787 25.4837C40.7038 25.4016 40.7123 25.3153 40.7038 25.2298C40.6953 25.1444 40.67 25.0615 40.6291 24.9859C40.5883 24.9104 40.5329 24.8437 40.4661 24.7897C40.3993 24.7357 40.3225 24.6955 40.2401 24.6715C40.1576 24.6475 40.0712 24.6401 39.9859 24.6497C38.6523 24.773 37.3424 25.0816 36.094 25.5666C35.9342 25.63 35.8062 25.7544 35.7381 25.9122C35.67 26.0701 35.6674 26.2485 35.7308 26.4083C35.7943 26.568 35.9186 26.696 36.0765 26.7641C36.2343 26.8322 36.4127 26.8348 36.5725 26.7714ZM43.2916 25.9154C44.8245 26.0309 46.2277 26.0555 47.5091 26.001C47.5952 25.999 47.68 25.9799 47.7586 25.9448C47.8373 25.9096 47.9081 25.8592 47.967 25.7963C48.0259 25.7335 48.0717 25.6596 48.1018 25.5789C48.1318 25.4981 48.1455 25.4122 48.1419 25.3262C48.1384 25.2401 48.1177 25.1556 48.0812 25.0776C48.0447 24.9997 47.9929 24.9297 47.9291 24.8719C47.8652 24.8142 47.7905 24.7697 47.7092 24.7411C47.628 24.7125 47.5419 24.7004 47.4559 24.7055C46.22 24.7573 44.8673 24.7327 43.3889 24.6212C43.2221 24.6168 43.06 24.6767 42.9362 24.7885C42.8124 24.9004 42.7364 25.0556 42.7239 25.222C42.7114 25.3884 42.7633 25.5532 42.869 25.6823C42.9747 25.8114 43.126 25.8949 43.2916 25.9154ZM51.0106 25.6172C52.5228 25.3331 53.8054 24.913 54.8831 24.3955C54.9599 24.3586 55.0287 24.307 55.0855 24.2435C55.1424 24.1801 55.1862 24.106 55.2144 24.0257C55.2427 23.9453 55.2548 23.8601 55.2501 23.775C55.2455 23.69 55.2241 23.6066 55.1872 23.5298C55.1503 23.453 55.0987 23.3842 55.0352 23.3274C54.9718 23.2705 54.8977 23.2267 54.8174 23.1985C54.737 23.1703 54.6518 23.1581 54.5667 23.1628C54.4817 23.1675 54.3984 23.1889 54.3215 23.2257C53.3333 23.7004 52.1571 24.083 50.7707 24.3436C50.6844 24.3565 50.6016 24.3866 50.5273 24.4323C50.4529 24.4779 50.3885 24.538 50.338 24.6091C50.2874 24.6802 50.2517 24.7608 50.233 24.846C50.2143 24.9312 50.213 25.0193 50.2292 25.105C50.2453 25.1907 50.2786 25.2723 50.327 25.3449C50.3754 25.4174 50.438 25.4795 50.511 25.5273C50.5839 25.5751 50.6658 25.6077 50.7516 25.6232C50.8375 25.6386 50.9256 25.6366 51.0106 25.6172ZM57.5261 22.5941C58.6881 21.4723 59.3703 20.1807 59.6776 18.8669C59.7168 18.6994 59.6879 18.5232 59.5972 18.377C59.5065 18.2309 59.3614 18.1267 59.1939 18.0875C59.0264 18.0483 58.8502 18.0772 58.704 18.1679C58.5578 18.2587 58.4537 18.4037 58.4145 18.5712C58.1603 19.6619 57.5897 20.7305 56.6261 21.6604C56.5648 21.7195 56.5157 21.7901 56.4817 21.8681C56.4477 21.9462 56.4293 22.0302 56.4278 22.1153C56.4262 22.2005 56.4414 22.2851 56.4726 22.3644C56.5037 22.4436 56.5501 22.516 56.6092 22.5773C56.6683 22.6386 56.7389 22.6877 56.817 22.7217C56.895 22.7557 56.979 22.774 57.0642 22.7756C57.1493 22.7772 57.2339 22.762 57.3132 22.7308C57.3925 22.6997 57.4648 22.6532 57.5261 22.5941ZM59.369 14.4018C58.8541 13.0349 57.9813 11.8742 56.9179 11.1401C56.7762 11.0426 56.6015 11.0054 56.4324 11.0367C56.2632 11.0679 56.1134 11.1651 56.0159 11.3068C55.9184 11.4485 55.8812 11.6231 55.9124 11.7923C55.9437 11.9614 56.0409 12.1113 56.1826 12.2088C57.0424 12.8014 57.7388 13.7508 58.1551 14.8583C58.2156 15.0193 58.3376 15.1496 58.4943 15.2206C58.6509 15.2916 58.8293 15.2975 58.9903 15.237C59.1513 15.1764 59.2816 15.0544 59.3526 14.8978C59.4236 14.7412 59.4295 14.5628 59.369 14.4018ZM42.4733 11.1375C43.1853 7.7968 46.0228 6.17182 48.0693 6.16014C48.7411 6.15625 49.3234 6.31447 49.6256 6.7191C49.8045 6.95902 49.859 7.28064 49.7903 7.67489C49.761 7.84446 49.8003 8.0187 49.8996 8.15928C49.9988 8.29985 50.1498 8.39525 50.3194 8.42449C50.489 8.45372 50.6632 8.4144 50.8038 8.31517C50.9443 8.21594 51.0397 8.06493 51.069 7.89536C51.209 7.08481 51.0327 6.43508 50.6644 5.94357C50.1495 5.25233 49.2054 4.85678 48.0628 4.86327C45.5715 4.87753 42.0713 6.8008 41.2049 10.8678C41.1857 10.9516 41.1834 11.0385 41.198 11.1232C41.2127 11.208 41.2441 11.289 41.2903 11.3615C41.3366 11.434 41.3968 11.4966 41.4675 11.5456C41.5382 11.5946 41.6179 11.6291 41.7021 11.647C41.7862 11.6649 41.8731 11.6659 41.9576 11.6499C42.0421 11.6339 42.1226 11.6012 42.1944 11.5538C42.2662 11.5064 42.3278 11.4452 42.3757 11.3737C42.4236 11.3022 42.4567 11.222 42.4733 11.1375Z" fill="#738BAB"/>
<path d="M41.2103 11.1401C42.0882 15.1864 45.5755 17.1006 48.0603 17.1161C49.2911 17.1226 50.2884 16.6648 50.776 15.8724C51.0704 15.3952 51.1988 14.787 51.0613 14.0439C50.8927 13.1296 50.291 11.9585 49.0317 10.5682C48.9753 10.5026 48.9063 10.4489 48.8288 10.4103C48.7513 10.3717 48.6668 10.3491 48.5804 10.3436C48.494 10.3382 48.4074 10.3502 48.3257 10.3788C48.244 10.4074 48.1688 10.452 48.1046 10.5102C48.0405 10.5683 47.9886 10.6386 47.952 10.7171C47.9155 10.7956 47.895 10.8806 47.8919 10.9671C47.8887 11.0537 47.9029 11.1399 47.9336 11.2209C47.9643 11.3018 48.011 11.3758 48.0707 11.4384C48.9474 12.4072 49.4675 13.2333 49.6957 13.9271C49.8682 14.4563 49.8643 14.8803 49.6724 15.1929C49.4986 15.4743 49.1873 15.6442 48.8125 15.7376C48.3418 15.8543 47.7776 15.8452 47.1824 15.7194C45.2798 15.3174 43.0985 13.7261 42.4786 10.8652C42.4351 10.7044 42.3315 10.5664 42.1891 10.4798C42.0468 10.3932 41.8766 10.3646 41.7138 10.3999C41.5509 10.4352 41.4079 10.5317 41.3141 10.6694C41.2204 10.8072 41.1832 10.9757 41.2103 11.1401Z" fill="#738BAB"/>
<path d="M41.668 12.2996H50.3505C50.6945 12.2996 51.0244 12.1629 51.2676 11.9197C51.5108 11.6765 51.6474 11.3466 51.6474 11.0027C51.6474 10.6587 51.5108 10.3289 51.2676 10.0857C51.0244 9.84244 50.6945 9.70581 50.3505 9.70581H41.668C41.324 9.70581 40.9942 9.84244 40.7509 10.0857C40.5077 10.3289 40.3711 10.6587 40.3711 11.0027C40.3711 11.3466 40.5077 11.6765 40.7509 11.9197C40.9942 12.1629 41.324 12.2996 41.668 12.2996Z" fill="#2D74FF"/>
<path d="M15.4141 62.9244V70.1985C15.4141 71.6303 16.353 72.8921 17.7251 73.3032L41.0688 80.3064C41.6761 80.4893 42.3239 80.4893 42.9312 80.3064L66.2749 73.3032C66.9428 73.1032 67.5285 72.6931 67.9448 72.1338C68.3611 71.5744 68.586 70.8958 68.5859 70.1985V59.8274C68.5859 59.6554 68.5176 59.4905 68.396 59.3689C68.2744 59.2473 68.1095 59.179 67.9375 59.179C67.7655 59.179 67.6006 59.2473 67.479 59.3689C67.3574 59.4905 67.2891 59.6554 67.2891 59.8274V70.1985C67.2891 71.0571 66.7249 71.8144 65.9027 72.0621L42.559 79.0653C42.1943 79.1742 41.8057 79.1742 41.441 79.0653L18.0973 72.0621C17.6967 71.9416 17.3456 71.6952 17.096 71.3596C16.8463 71.0239 16.7113 70.6169 16.7109 70.1985V62.9244C16.7109 62.7524 16.6426 62.5875 16.521 62.4658C16.3994 62.3442 16.2345 62.2759 16.0625 62.2759C15.8905 62.2759 15.7256 62.3442 15.604 62.4658C15.4824 62.5875 15.4141 62.7524 15.4141 62.9244Z" fill="#738BAB"/>
<path d="M13.9045 48.2308L8.94269 55.5866C8.77378 55.8362 8.66526 56.1217 8.6257 56.4204C8.58614 56.7192 8.61663 57.0231 8.71475 57.308C8.81288 57.593 8.97595 57.8512 9.19108 58.0622C9.4062 58.2733 9.66748 58.4314 9.95425 58.5241L33.2915 66.1069C33.6927 66.2372 34.1254 66.2337 34.5244 66.0969C34.9234 65.9601 35.2672 65.6973 35.504 65.3482L42.5369 54.9706C42.5933 54.8873 42.6296 54.7921 42.6428 54.6924C42.656 54.5927 42.6459 54.4913 42.6132 54.3962C42.5805 54.3011 42.5261 54.2149 42.4543 54.1444C42.3826 54.074 42.2954 54.0212 42.1997 53.9902L16.2622 45.5735C16.1015 45.5307 15.9305 45.5513 15.7844 45.6309C15.6384 45.7105 15.5284 45.8431 15.4772 46.0014C15.426 46.1597 15.4374 46.3315 15.5092 46.4816C15.5809 46.6317 15.7075 46.7485 15.8628 46.8081L40.9794 54.9576L34.4302 64.6207C34.3513 64.7372 34.2366 64.8249 34.1035 64.8705C33.9704 64.9161 33.826 64.9172 33.6922 64.8736L10.355 57.2907C10.2595 57.2597 10.1725 57.2069 10.1009 57.1365C10.0293 57.0662 9.97505 56.9801 9.94236 56.8852C9.90967 56.7903 9.89947 56.689 9.91256 56.5895C9.92565 56.49 9.96167 56.3948 10.0178 56.3116L14.9796 48.9557C15.0289 48.8852 15.0637 48.8055 15.0819 48.7214C15.1001 48.6373 15.1014 48.5504 15.0856 48.4658C15.0699 48.3812 15.0375 48.3005 14.9903 48.2286C14.9431 48.1566 14.882 48.0948 14.8107 48.0466C14.7393 47.9985 14.6591 47.9651 14.5747 47.9483C14.4903 47.9315 14.4034 47.9317 14.319 47.9488C14.2347 47.966 14.1546 47.9997 14.0834 48.0481C14.0123 48.0965 13.9515 48.1586 13.9045 48.2308Z" fill="#738BAB"/>
<path d="M64.0483 46.7705L41.8004 53.9902C41.7173 54.0146 41.6399 54.0555 41.5729 54.1103C41.5058 54.1652 41.4504 54.2329 41.41 54.3095C41.3695 54.3861 41.3448 54.4701 41.3374 54.5564C41.3299 54.6427 41.3398 54.7296 41.3665 54.8121C41.3932 54.8945 41.4361 54.9707 41.4928 55.0363C41.5494 55.1018 41.6186 55.1553 41.6963 55.1937C41.774 55.2321 41.8586 55.2545 41.9451 55.2596C42.0315 55.2647 42.1182 55.2524 42.1998 55.2235L64.4477 48.0051C64.6115 47.9521 64.7474 47.8363 64.8257 47.6831C64.9041 47.5299 64.9183 47.3518 64.8653 47.1881C64.8124 47.0244 64.6965 46.8884 64.5433 46.8101C64.3901 46.7318 64.212 46.7175 64.0483 46.7705Z" fill="#738BAB"/>
<path d="M43.2993 57.6798L48.4959 65.3482C48.9822 66.0654 49.8835 66.374 50.7084 66.1069L74.0456 58.5241C74.3324 58.4314 74.5937 58.2733 74.8088 58.0622C75.0239 57.8512 75.187 57.593 75.2851 57.308C75.3832 57.0231 75.4137 56.7192 75.3742 56.4204C75.3346 56.1217 75.2261 55.8362 75.0572 55.5866L68.4755 45.8277C68.3789 45.6853 68.2299 45.587 68.061 45.5542C67.8921 45.5214 67.7171 45.5567 67.5742 45.6526C67.4319 45.7492 67.3335 45.8982 67.3007 46.0671C67.2679 46.236 67.3033 46.411 67.3991 46.5539L73.9821 56.3116C74.0377 56.395 74.0732 56.4901 74.086 56.5895C74.0988 56.6889 74.0885 56.7899 74.0559 56.8846C74.0233 56.9794 73.9692 57.0653 73.8979 57.1358C73.8266 57.2062 73.74 57.2592 73.6449 57.2907L50.3076 64.8736C50.1738 64.9172 50.0295 64.9161 49.8964 64.8705C49.7633 64.8249 49.6486 64.7372 49.5697 64.6207L44.3731 56.9522C44.2766 56.8098 44.1275 56.7116 43.9586 56.6791C43.7897 56.6467 43.6148 56.6826 43.4724 56.7791C43.33 56.8756 43.2318 57.0247 43.1993 57.1936C43.1669 57.3625 43.2028 57.5374 43.2993 57.6798ZM20.202 45.5255L42.2009 38.3641C42.2962 38.3325 42.3829 38.2792 42.4542 38.2084C42.5255 38.1377 42.5794 38.0514 42.6118 37.9563C42.6442 37.8612 42.6542 37.76 42.641 37.6604C42.6277 37.5608 42.5916 37.4657 42.5354 37.3824L36.2573 28.1486C36.0204 27.8004 35.6769 27.5384 35.2784 27.402C34.8799 27.2657 34.448 27.2624 34.0474 27.3926L10.7088 34.9754C10.4225 35.0689 10.1618 35.2275 9.94719 35.4388C9.73254 35.6501 9.56981 35.9083 9.47179 36.193C9.37376 36.4778 9.3431 36.7815 9.38223 37.0801C9.42135 37.3787 9.52919 37.6642 9.69728 37.9141L15.5241 46.5539C15.6234 46.6894 15.7713 46.7812 15.9367 46.81C16.1022 46.8388 16.2724 46.8025 16.4117 46.7085C16.5509 46.6146 16.6484 46.4704 16.6836 46.3061C16.7188 46.1419 16.689 45.9704 16.6005 45.8277L10.7724 37.1892C10.7163 37.1058 10.6803 37.0106 10.6672 36.911C10.6541 36.8113 10.6643 36.71 10.697 36.615C10.7296 36.52 10.7839 36.4339 10.8555 36.3634C10.9271 36.2929 11.0141 36.2399 11.1096 36.2087L34.4481 28.6259C34.5816 28.5825 34.7256 28.5835 34.8584 28.6289C34.9912 28.6742 35.1057 28.7615 35.1848 28.8775L40.9779 37.398L19.8012 44.2921C19.6394 44.3467 19.5056 44.4628 19.4289 44.6154C19.3522 44.768 19.3388 44.9446 19.3916 45.107C19.4444 45.2694 19.5591 45.4044 19.7108 45.4828C19.8625 45.5611 20.039 45.5765 20.202 45.5255Z" fill="#738BAB"/>
<path d="M41.7991 38.3641L67.7366 46.8068C67.8706 46.8507 68.0152 46.8498 68.1486 46.8042C68.282 46.7585 68.3969 46.6707 68.4759 46.5539L74.3027 37.9141C74.4708 37.6642 74.5786 37.3787 74.6178 37.0801C74.6569 36.7815 74.6262 36.4778 74.5282 36.193C74.4302 35.9083 74.2675 35.6501 74.0528 35.4388C73.8382 35.2275 73.5775 35.0689 73.2912 34.9754L49.9526 27.3926C49.552 27.2624 49.1201 27.2657 48.7216 27.402C48.3231 27.5384 47.9796 27.8004 47.7427 28.1486L43.2063 34.8198C43.1094 34.962 43.0731 35.1369 43.1052 35.3059C43.1373 35.4749 43.2352 35.6243 43.3774 35.7211C43.5197 35.8179 43.6945 35.8543 43.8636 35.8222C44.0326 35.7901 44.1819 35.6921 44.2788 35.5499L48.8152 28.8775C48.8943 28.7615 49.0088 28.6742 49.1416 28.6289C49.2744 28.5835 49.4184 28.5825 49.5519 28.6259L72.8904 36.2087C72.9856 36.2404 73.0722 36.2936 73.1435 36.3641C73.2148 36.4347 73.2688 36.5207 73.3014 36.6156C73.3341 36.7104 73.3444 36.8115 73.3316 36.911C73.3188 37.0105 73.2832 37.1057 73.2276 37.1892L67.6731 45.423L42.2012 37.1308C42.0376 37.0775 41.8596 37.0913 41.7063 37.1693C41.5529 37.2472 41.4368 37.3829 41.3835 37.5465C41.3302 37.71 41.344 37.888 41.422 38.0414C41.4999 38.1947 41.6356 38.3108 41.7991 38.3641Z" fill="#738BAB"/>
<path d="M61.644 46.1882L42.0002 52.561L22.3564 46.1882L42.0002 39.7933L61.644 46.1882Z" fill="#2D74FF"/>
<path d="M35.5132 37.6872C35.1644 37.1957 34.8648 36.7016 34.6132 36.2074C34.535 36.0545 34.3992 35.9389 34.2358 35.886C34.0724 35.833 33.8946 35.8471 33.7416 35.9251C33.5885 36.0031 33.4727 36.1386 33.4194 36.3019C33.3662 36.4653 33.38 36.643 33.4577 36.7962C33.7365 37.3448 34.0685 37.8934 34.4563 38.4394C34.556 38.5795 34.7074 38.6743 34.877 38.7029C35.0466 38.7315 35.2207 38.6915 35.3609 38.5917C35.501 38.492 35.5958 38.3407 35.6244 38.171C35.653 38.0014 35.613 37.8273 35.5132 37.6872ZM33.7145 33.5099C33.5986 32.7971 33.5921 32.0707 33.695 31.3558C33.72 31.1856 33.6762 31.0124 33.5735 30.8744C33.4707 30.7363 33.3173 30.6448 33.1471 30.6199C32.9768 30.5949 32.8036 30.6386 32.6656 30.7414C32.5276 30.8442 32.436 30.9975 32.4111 31.1678C32.2902 32.0118 32.2977 32.8692 32.4332 33.711C32.4598 33.8809 32.5529 34.0332 32.6919 34.1345C32.8309 34.2358 33.0044 34.2778 33.1743 34.2511C33.3442 34.2245 33.4966 34.1314 33.5979 33.9924C33.6992 33.8534 33.7411 33.6799 33.7145 33.5099Z" fill="#738BAB"/>
</svg>
