<svg width="17" height="17" viewBox="0 0 17 17" fill="none" xmlns="http://www.w3.org/2000/svg">
<g clip-path="url(#clip0_444_5459)">
<path d="M0.266602 0H5.20745V10.0504H0.266602V0ZM1.37149 8.94549H4.10256V1.10489H1.37149V8.94549ZM6.25393 0H15.2184L16.7335 8.74418L14.7799 10.6975H12.309L12.9974 12.4474L12.4581 16.7584L9.35919 17L8.44721 13.8543L6.25393 10.2968V0ZM7.35882 9.98365L9.46659 13.4023L10.17 15.8284L11.4736 15.7268L11.8646 12.6004L11.866 12.5893L10.6869 9.59252H14.3224L15.5469 8.36808L14.2885 1.10489H7.35882V9.98365Z" fill="#555555"/>
</g>
<defs>
<clipPath id="clip0_444_5459">
<rect width="17" height="17" fill="white" transform="matrix(1 0 0 -1 0 17)"/>
</clipPath>
</defs>
</svg>
