<svg width="16" height="16" viewBox="0 0 16 16" fill="none" xmlns="http://www.w3.org/2000/svg">
<path fill-rule="evenodd" clip-rule="evenodd" d="M13.1426 0.5C14.0894 0.5 14.8569 1.26751 14.8569 2.21429V10.7857C14.8569 11.7325 14.0894 12.5 13.1426 12.5L10.572 12.4991L8.60581 14.4653C8.29683 14.7743 7.81063 14.7981 7.47438 14.5366L7.39363 14.4653L5.42744 12.4991L2.85686 12.5C1.91009 12.5 1.14258 11.7325 1.14258 10.7857V2.21429C1.14258 1.26751 1.91009 0.5 2.85686 0.5H13.1426Z" stroke="#356EFF" stroke-linecap="round" stroke-linejoin="round"/>
<path d="M12.2854 4.78564H7.14258" stroke="#356EFF" stroke-linecap="round" stroke-linejoin="round"/>
<path fill-rule="evenodd" clip-rule="evenodd" d="M4.57017 5.64275C4.99874 5.64275 5.42731 5.21418 5.42731 4.78561C5.42731 4.35704 4.99874 3.92847 4.57017 3.92847C4.1416 3.92847 3.71402 4.35704 3.71402 4.78561C3.71402 5.21418 4.1416 5.64275 4.57017 5.64275ZM4.57017 9.07132C4.99874 9.07132 5.42731 8.64275 5.42731 8.21418C5.42731 7.78561 4.99874 7.35704 4.57017 7.35704C4.1416 7.35704 3.71402 7.78561 3.71402 8.21418C3.71402 8.64275 4.1416 9.07132 4.57017 9.07132Z" fill="#356EFF"/>
<path d="M12.2854 8.21436H7.14258" stroke="#356EFF" stroke-linecap="round" stroke-linejoin="round"/>
</svg>
