<svg width="20" height="21" viewBox="0 0 20 21" fill="none" xmlns="http://www.w3.org/2000/svg">
<g id="notification (2) 1">
<g id="Group">
<path id="Vector" d="M15.8333 7.51868C14.1083 7.51868 12.7083 6.11868 12.7083 4.39368C12.7083 2.66868 14.1083 1.26868 15.8333 1.26868C17.5583 1.26868 18.9583 2.66868 18.9583 4.39368C18.9583 6.11868 17.5583 7.51868 15.8333 7.51868ZM15.8333 2.51868C14.7999 2.51868 13.9583 3.36034 13.9583 4.39368C13.9583 5.42701 14.7999 6.26868 15.8333 6.26868C16.8666 6.26868 17.7083 5.42701 17.7083 4.39368C17.7083 3.36034 16.8666 2.51868 15.8333 2.51868Z" fill="url(#paint0_linear_301_2447)"/>
<path id="Vector_2" d="M12.5 19.1853H7.49996C2.97496 19.1853 1.04163 17.252 1.04163 12.727V7.72701C1.04163 3.20201 2.97496 1.26868 7.49996 1.26868H11.6666C12.0083 1.26868 12.2916 1.55201 12.2916 1.89368C12.2916 2.23534 12.0083 2.51868 11.6666 2.51868H7.49996C3.65829 2.51868 2.29163 3.88534 2.29163 7.72701V12.727C2.29163 16.5687 3.65829 17.9353 7.49996 17.9353H12.5C16.3416 17.9353 17.7083 16.5687 17.7083 12.727V8.56034C17.7083 8.21868 17.9916 7.93534 18.3333 7.93534C18.675 7.93534 18.9583 8.21868 18.9583 8.56034V12.727C18.9583 17.252 17.025 19.1853 12.5 19.1853Z" fill="url(#paint1_linear_301_2447)"/>
</g>
</g>
<defs>
<linearGradient id="paint0_linear_301_2447" x1="15.8333" y1="1.26868" x2="15.8333" y2="7.51868" gradientUnits="userSpaceOnUse">
<stop stop-color="#000AFF"/>
<stop offset="1" stop-color="#D274FF"/>
</linearGradient>
<linearGradient id="paint1_linear_301_2447" x1="9.99996" y1="1.26868" x2="9.99996" y2="19.1853" gradientUnits="userSpaceOnUse">
<stop stop-color="#000AFF"/>
<stop offset="1" stop-color="#D274FF"/>
</linearGradient>
</defs>
</svg>
