<svg width="22" height="19" viewBox="0 0 22 19" fill="none" xmlns="http://www.w3.org/2000/svg">
<path d="M1.00873 6.11492V5.11892H3.26473V13.7949H2.16073V6.11492H1.00873Z" fill="#333333"/>
<path d="M6.16473 12.9189C7.18073 12.1029 7.97673 11.4349 8.55273 10.9149C9.12873 10.3869 9.61273 9.83892 10.0047 9.27092C10.4047 8.69492 10.6047 8.13092 10.6047 7.57892C10.6047 7.05892 10.4767 6.65092 10.2207 6.35492C9.97273 6.05092 9.56873 5.89892 9.00873 5.89892C8.46473 5.89892 8.04073 6.07092 7.73673 6.41492C7.44073 6.75092 7.28073 7.20292 7.25673 7.77092H6.20073C6.23273 6.87492 6.50473 6.18292 7.01673 5.69492C7.52873 5.20692 8.18873 4.96292 8.99673 4.96292C9.82073 4.96292 10.4727 5.19092 10.9527 5.64692C11.4407 6.10292 11.6847 6.73092 11.6847 7.53092C11.6847 8.19492 11.4847 8.84292 11.0847 9.47492C10.6927 10.0989 10.2447 10.6509 9.74073 11.1309C9.23673 11.6029 8.59273 12.1549 7.80873 12.7869H11.9367V13.6989H6.16473V12.9189Z" fill="#333333"/>
<path d="M14.2727 7.30292C14.3287 6.56692 14.6127 5.99092 15.1247 5.57492C15.6367 5.15892 16.3007 4.95092 17.1167 4.95092C17.6607 4.95092 18.1287 5.05092 18.5207 5.25092C18.9207 5.44292 19.2207 5.70692 19.4207 6.04292C19.6287 6.37892 19.7327 6.75892 19.7327 7.18292C19.7327 7.67892 19.5887 8.10692 19.3007 8.46692C19.0207 8.82692 18.6527 9.05892 18.1967 9.16292V9.22292C18.7167 9.35092 19.1287 9.60292 19.4327 9.97892C19.7367 10.3549 19.8887 10.8469 19.8887 11.4549C19.8887 11.9109 19.7847 12.3229 19.5767 12.6909C19.3687 13.0509 19.0567 13.3349 18.6407 13.5429C18.2247 13.7509 17.7247 13.8549 17.1407 13.8549C16.2927 13.8549 15.5967 13.6349 15.0527 13.1949C14.5087 12.7469 14.2047 12.1149 14.1407 11.2989H15.1967C15.2527 11.7789 15.4487 12.1709 15.7847 12.4749C16.1207 12.7789 16.5687 12.9309 17.1287 12.9309C17.6887 12.9309 18.1127 12.7869 18.4007 12.4989C18.6967 12.2029 18.8447 11.8229 18.8447 11.3589C18.8447 10.7589 18.6447 10.3269 18.2447 10.0629C17.8447 9.79892 17.2407 9.66692 16.4327 9.66692H16.1567V8.75492H16.4447C17.1807 8.74692 17.7367 8.62692 18.1127 8.39492C18.4887 8.15492 18.6767 7.78692 18.6767 7.29092C18.6767 6.86692 18.5367 6.52692 18.2567 6.27092C17.9847 6.01492 17.5927 5.88692 17.0807 5.88692C16.5847 5.88692 16.1847 6.01492 15.8807 6.27092C15.5767 6.52692 15.3967 6.87092 15.3407 7.30292H14.2727Z" fill="#333333"/>
</svg>
