<svg width="28" height="29" viewBox="0 0 28 29" fill="none" xmlns="http://www.w3.org/2000/svg">
<path d="M14 18.3477H22.75V19.5977H14V18.3477ZM14 9.59766H22.75V10.8477H14V9.59766ZM9 12.0977V7.09766H7.75V7.72266H6.5V8.97266H7.75V12.0977H6.5V13.3477H10.25V12.0977H9ZM10.25 22.0977H6.5V19.5977C6.5 19.2661 6.6317 18.9482 6.86612 18.7138C7.10054 18.4794 7.41848 18.3477 7.75 18.3477H9V17.0977H6.5V15.8477H9C9.33152 15.8477 9.64946 15.9794 9.88388 16.2138C10.1183 16.4482 10.25 16.7661 10.25 17.0977V18.3477C10.25 18.6792 10.1183 18.9971 9.88388 19.2315C9.64946 19.466 9.33152 19.5977 9 19.5977H7.75V20.8477H10.25V22.0977Z" fill="#212529"/>
</svg>
