<svg width="25" height="22" viewBox="0 0 25 22" fill="none" xmlns="http://www.w3.org/2000/svg">
<path d="M0.532 6.54V5.378H3.164V15.5H1.876V6.54H0.532Z" fill="url(#paint0_linear_987_197152)"/>
<path d="M6.714 14.478C7.89933 13.526 8.828 12.7467 9.5 12.14C10.172 11.524 10.7367 10.8847 11.194 10.222C11.6607 9.55 11.894 8.892 11.894 8.248C11.894 7.64133 11.7447 7.16533 11.446 6.82C11.1567 6.46533 10.6853 6.288 10.032 6.288C9.39733 6.288 8.90267 6.48867 8.548 6.89C8.20267 7.282 8.016 7.80933 7.988 8.472H6.756C6.79333 7.42667 7.11067 6.61933 7.708 6.05C8.30533 5.48067 9.07533 5.196 10.018 5.196C10.9793 5.196 11.74 5.462 12.3 5.994C12.8693 6.526 13.154 7.25867 13.154 8.192C13.154 8.96667 12.9207 9.72267 12.454 10.46C11.9967 11.188 11.474 11.832 10.886 12.392C10.298 12.9427 9.54667 13.5867 8.632 14.324H13.448V15.388H6.714V14.478Z" fill="#333333"/>
<path d="M16.84 7.926C16.9053 7.06733 17.2367 6.39533 17.834 5.91C18.4313 5.42467 19.206 5.182 20.158 5.182C20.7927 5.182 21.3387 5.29867 21.796 5.532C22.2627 5.756 22.6127 6.064 22.846 6.456C23.0887 6.848 23.21 7.29133 23.21 7.786C23.21 8.36467 23.042 8.864 22.706 9.284C22.3793 9.704 21.95 9.97467 21.418 10.096V10.166C22.0247 10.3153 22.5053 10.6093 22.86 11.048C23.2147 11.4867 23.392 12.0607 23.392 12.77C23.392 13.302 23.2707 13.7827 23.028 14.212C22.7853 14.632 22.4213 14.9633 21.936 15.206C21.4507 15.4487 20.8673 15.57 20.186 15.57C19.1967 15.57 18.3847 15.3133 17.75 14.8C17.1153 14.2773 16.7607 13.54 16.686 12.588H17.918C17.9833 13.148 18.212 13.6053 18.604 13.96C18.996 14.3147 19.5187 14.492 20.172 14.492C20.8253 14.492 21.32 14.324 21.656 13.988C22.0013 13.6427 22.174 13.1993 22.174 12.658C22.174 11.958 21.9407 11.454 21.474 11.146C21.0073 10.838 20.3027 10.684 19.36 10.684H19.038V9.62H19.374C20.2327 9.61067 20.8813 9.47067 21.32 9.2C21.7587 8.92 21.978 8.49067 21.978 7.912C21.978 7.41733 21.8147 7.02067 21.488 6.722C21.1707 6.42333 20.7133 6.274 20.116 6.274C19.5373 6.274 19.0707 6.42333 18.716 6.722C18.3613 7.02067 18.1513 7.422 18.086 7.926H16.84Z" fill="url(#paint1_linear_987_197152)"/>
<defs>
<linearGradient id="paint0_linear_987_197152" x1="2.5" y1="0.5" x2="2.5" y2="21.5" gradientUnits="userSpaceOnUse">
<stop stop-color="#0033EA"/>
<stop offset="1" stop-color="#8A0074"/>
</linearGradient>
<linearGradient id="paint1_linear_987_197152" x1="20.5" y1="0.5" x2="20.5" y2="21.5" gradientUnits="userSpaceOnUse">
<stop stop-color="#0033EA"/>
<stop offset="1" stop-color="#8A0074"/>
</linearGradient>
</defs>
</svg>
