<svg width="40" height="40" viewBox="0 0 40 40" fill="none" xmlns="http://www.w3.org/2000/svg">
<circle cx="20" cy="20" r="20" fill="#E2E3F2"/>
<path d="M25.7508 21.8418C26.9758 21.8418 27.9687 22.8347 27.9687 24.0596V24.9048H27.9622C27.9205 25.8602 27.6586 27.0585 26.5857 28.0374C25.4139 29.1067 23.3909 29.8057 20.0009 29.8057C16.6109 29.8057 14.5881 29.1067 13.4162 28.0374C12.3433 27.0585 12.0814 25.8602 12.0397 24.9048H12.0332V24.0596C12.0332 22.8347 13.0262 21.8418 14.2511 21.8418H25.7508Z" fill="#4E6696"/>
<path d="M15.7108 11.4192C14.6953 11.4192 13.8721 12.2424 13.8721 13.2579V18.1611C13.8721 19.1766 14.6953 19.9998 15.7108 19.9998H24.2914C25.3069 19.9998 26.1301 19.1766 26.1301 18.1611V13.2579C26.1301 12.2424 25.3069 11.4192 24.2914 11.4192H20.614C20.614 11.4192 20.614 11.1845 20.614 10.8063C20.614 10.428 20.3395 10.1934 20.0011 10.1934C19.6626 10.1934 19.3882 10.4759 19.3882 10.8063C19.3882 11.1367 19.3882 11.4192 19.3882 11.4192H15.7108ZM16.3237 15.7095C16.3237 15.0325 16.8725 14.4837 17.5495 14.4837C18.2265 14.4837 18.7753 15.0325 18.7753 15.7095C18.7753 16.3865 18.2265 16.9353 17.5495 16.9353C16.8725 16.9353 16.3237 16.3865 16.3237 15.7095ZM21.2269 15.7095C21.2269 15.0325 21.7757 14.4837 22.4527 14.4837C23.1297 14.4837 23.6785 15.0325 23.6785 15.7095C23.6785 16.3865 23.1297 16.9353 22.4527 16.9353C21.7757 16.9353 21.2269 16.3865 21.2269 15.7095Z" fill="#4E6696"/>
</svg>
