<svg width="45" height="45" viewBox="0 0 45 45" fill="none" xmlns="http://www.w3.org/2000/svg">
<rect width="45" height="45" rx="22.5" fill="#FD3D5E" fill-opacity="0.2"/>
<rect x="5" y="5" width="35" height="35" rx="17.5" fill="#FD3D5E"/>
<path d="M26.8891 10.9541H18.1093C17.9843 10.9537 17.8605 10.9779 17.745 11.0253C17.6294 11.0728 17.5243 11.1426 17.4358 11.2307L11.2298 17.4367C11.1416 17.5253 11.0718 17.6304 11.0244 17.7459C10.9769 17.8615 10.9527 17.9853 10.9531 18.1103V26.8901C10.9527 27.015 10.9769 27.1388 11.0244 27.2544C11.0718 27.3699 11.1416 27.475 11.2298 27.5636L17.4358 33.7696C17.5243 33.8577 17.6294 33.9275 17.745 33.975C17.8605 34.0224 17.9843 34.0467 18.1093 34.0462H26.8891C27.014 34.0467 27.1378 34.0224 27.2534 33.975C27.369 33.9275 27.474 33.8577 27.5626 33.7696L33.7686 27.5636C33.8567 27.475 33.9265 27.3699 33.974 27.2544C34.0215 27.1388 34.0457 27.015 34.0452 26.8901V18.1103C34.0457 17.9853 34.0215 17.8615 33.974 17.7459C33.9265 17.6304 33.8567 17.5253 33.7686 17.4367L27.5626 11.2307C27.474 11.1426 27.369 11.0728 27.2534 11.0253C27.1378 10.9779 27.014 10.9537 26.8891 10.9541V10.9541Z" stroke="white" stroke-width="1.5" stroke-linecap="round" stroke-linejoin="round"/>
<path d="M17.1764 20.705C17.1764 19.975 17.3864 19.405 17.8064 18.995C18.2364 18.575 18.7864 18.365 19.4564 18.365C20.1264 18.365 20.6714 18.575 21.0914 18.995C21.5214 19.405 21.7364 19.975 21.7364 20.705C21.7364 21.435 21.5214 22.01 21.0914 22.43C20.6714 22.85 20.1264 23.06 19.4564 23.06C18.7864 23.06 18.2364 22.85 17.8064 22.43C17.3864 22.01 17.1764 21.435 17.1764 20.705ZM26.3264 18.56L20.3414 29H18.6614L24.6464 18.56H26.3264ZM19.4564 19.4C18.8264 19.4 18.5114 19.835 18.5114 20.705C18.5114 21.585 18.8264 22.025 19.4564 22.025C19.7564 22.025 19.9864 21.92 20.1464 21.71C20.3164 21.49 20.4014 21.155 20.4014 20.705C20.4014 19.835 20.0864 19.4 19.4564 19.4ZM23.2814 26.84C23.2814 26.11 23.4914 25.54 23.9114 25.13C24.3414 24.71 24.8914 24.5 25.5614 24.5C26.2214 24.5 26.7614 24.71 27.1814 25.13C27.6114 25.54 27.8264 26.11 27.8264 26.84C27.8264 27.57 27.6114 28.145 27.1814 28.565C26.7614 28.985 26.2214 29.195 25.5614 29.195C24.8914 29.195 24.3414 28.985 23.9114 28.565C23.4914 28.145 23.2814 27.57 23.2814 26.84ZM25.5464 25.535C24.9164 25.535 24.6014 25.97 24.6014 26.84C24.6014 27.71 24.9164 28.145 25.5464 28.145C26.1764 28.145 26.4914 27.71 26.4914 26.84C26.4914 25.97 26.1764 25.535 25.5464 25.535Z" fill="white"/>
</svg>
