<svg width="19" height="19" viewBox="0 0 19 19" fill="none" xmlns="http://www.w3.org/2000/svg">
<path d="M9.89583 10.293H9.10417C8.8942 10.293 8.69284 10.3764 8.54437 10.5248C8.39591 10.6733 8.3125 10.8747 8.3125 11.0846C8.3125 11.2946 8.39591 11.496 8.54437 11.6444C8.69284 11.7929 8.8942 11.8763 9.10417 11.8763H9.89583C10.1058 11.8763 10.3072 11.7929 10.4556 11.6444C10.6041 11.496 10.6875 11.2946 10.6875 11.0846C10.6875 10.8747 10.6041 10.6733 10.4556 10.5248C10.3072 10.3764 10.1058 10.293 9.89583 10.293Z" fill="white"/>
<path d="M9.89583 7.125H9.10417C8.8942 7.125 8.69284 7.20841 8.54437 7.35687C8.39591 7.50534 8.3125 7.7067 8.3125 7.91667C8.3125 8.12663 8.39591 8.32799 8.54437 8.47646C8.69284 8.62493 8.8942 8.70833 9.10417 8.70833H9.89583C10.1058 8.70833 10.3072 8.62493 10.4556 8.47646C10.6041 8.32799 10.6875 8.12663 10.6875 7.91667C10.6875 7.7067 10.6041 7.50534 10.4556 7.35687C10.3072 7.20841 10.1058 7.125 9.89583 7.125Z" fill="white"/>
<path d="M9.89583 3.96094H9.10417C8.8942 3.96094 8.69284 4.04435 8.54437 4.19281C8.39591 4.34128 8.3125 4.54264 8.3125 4.7526C8.3125 4.96257 8.39591 5.16393 8.54437 5.3124C8.69284 5.46086 8.8942 5.54427 9.10417 5.54427H9.89583C10.1058 5.54427 10.3072 5.46086 10.4556 5.3124C10.6041 5.16393 10.6875 4.96257 10.6875 4.7526C10.6875 4.54264 10.6041 4.34128 10.4556 4.19281C10.3072 4.04435 10.1058 3.96094 9.89583 3.96094Z" fill="white"/>
<path d="M6.72982 10.293H5.93815C5.72819 10.293 5.52682 10.3764 5.37836 10.5248C5.22989 10.6733 5.14648 10.8747 5.14648 11.0846C5.14648 11.2946 5.22989 11.496 5.37836 11.6444C5.52682 11.7929 5.72819 11.8763 5.93815 11.8763H6.72982C6.93978 11.8763 7.14114 11.7929 7.28961 11.6444C7.43808 11.496 7.52148 11.2946 7.52148 11.0846C7.52148 10.8747 7.43808 10.6733 7.28961 10.5248C7.14114 10.3764 6.93978 10.293 6.72982 10.293Z" fill="white"/>
<path d="M6.72982 7.125H5.93815C5.72819 7.125 5.52682 7.20841 5.37836 7.35687C5.22989 7.50534 5.14648 7.7067 5.14648 7.91667C5.14648 8.12663 5.22989 8.32799 5.37836 8.47646C5.52682 8.62493 5.72819 8.70833 5.93815 8.70833H6.72982C6.93978 8.70833 7.14114 8.62493 7.28961 8.47646C7.43808 8.32799 7.52148 8.12663 7.52148 7.91667C7.52148 7.7067 7.43808 7.50534 7.28961 7.35687C7.14114 7.20841 6.93978 7.125 6.72982 7.125Z" fill="white"/>
<path d="M6.72982 3.96094H5.93815C5.72819 3.96094 5.52682 4.04435 5.37836 4.19281C5.22989 4.34128 5.14648 4.54264 5.14648 4.7526C5.14648 4.96257 5.22989 5.16393 5.37836 5.3124C5.52682 5.46086 5.72819 5.54427 5.93815 5.54427H6.72982C6.93978 5.54427 7.14114 5.46086 7.28961 5.3124C7.43808 5.16393 7.52148 4.96257 7.52148 4.7526C7.52148 4.54264 7.43808 4.34128 7.28961 4.19281C7.14114 4.04435 6.93978 3.96094 6.72982 3.96094Z" fill="white"/>
<path d="M13.0628 10.293H12.2712C12.0612 10.293 11.8598 10.3764 11.7114 10.5248C11.5629 10.6733 11.4795 10.8747 11.4795 11.0846C11.4795 11.2946 11.5629 11.496 11.7114 11.6444C11.8598 11.7929 12.0612 11.8763 12.2712 11.8763H13.0628C13.2728 11.8763 13.4742 11.7929 13.6226 11.6444C13.7711 11.496 13.8545 11.2946 13.8545 11.0846C13.8545 10.8747 13.7711 10.6733 13.6226 10.5248C13.4742 10.3764 13.2728 10.293 13.0628 10.293Z" fill="white"/>
<path d="M13.0628 7.125H12.2712C12.0612 7.125 11.8598 7.20841 11.7114 7.35687C11.5629 7.50534 11.4795 7.7067 11.4795 7.91667C11.4795 8.12663 11.5629 8.32799 11.7114 8.47646C11.8598 8.62493 12.0612 8.70833 12.2712 8.70833H13.0628C13.2728 8.70833 13.4742 8.62493 13.6226 8.47646C13.7711 8.32799 13.8545 8.12663 13.8545 7.91667C13.8545 7.7067 13.7711 7.50534 13.6226 7.35687C13.4742 7.20841 13.2728 7.125 13.0628 7.125Z" fill="white"/>
<path d="M13.0628 3.96094H12.2712C12.0612 3.96094 11.8598 4.04435 11.7114 4.19281C11.5629 4.34128 11.4795 4.54264 11.4795 4.7526C11.4795 4.96257 11.5629 5.16393 11.7114 5.3124C11.8598 5.46086 12.0612 5.54427 12.2712 5.54427H13.0628C13.2728 5.54427 13.4742 5.46086 13.6226 5.3124C13.7711 5.16393 13.8545 4.96257 13.8545 4.7526C13.8545 4.54264 13.7711 4.34128 13.6226 4.19281C13.4742 4.04435 13.2728 3.96094 13.0628 3.96094Z" fill="white"/>
<path d="M17.417 16.6263H16.6253V1.58464C16.6253 1.37467 16.5419 1.17331 16.3935 1.02484C16.245 0.876376 16.0436 0.792969 15.8337 0.792969H3.16699C2.95703 0.792969 2.75567 0.876376 2.6072 1.02484C2.45873 1.17331 2.37533 1.37467 2.37533 1.58464V16.6263H1.58366C1.3737 16.6263 1.17233 16.7097 1.02387 16.8582C0.8754 17.0066 0.791992 17.208 0.791992 17.418C0.791992 17.6279 0.8754 17.8293 1.02387 17.9778C1.17233 18.1262 1.3737 18.2096 1.58366 18.2096H17.417C17.627 18.2096 17.8283 18.1262 17.9768 17.9778C18.1253 17.8293 18.2087 17.6279 18.2087 17.418C18.2087 17.208 18.1253 17.0066 17.9768 16.8582C17.8283 16.7097 17.627 16.6263 17.417 16.6263ZM7.91699 16.6263V15.043H11.0837V16.6263H7.91699ZM12.667 16.6263V14.2513C12.667 14.0413 12.5836 13.84 12.4351 13.6915C12.2867 13.543 12.0853 13.4596 11.8753 13.4596H7.12533C6.91536 13.4596 6.714 13.543 6.56553 13.6915C6.41707 13.84 6.33366 14.0413 6.33366 14.2513V16.6263H3.95866V2.3763H15.042V16.6263H12.667Z" fill="white"/>
</svg>
