<svg width="20" height="21" viewBox="0 0 20 21" fill="none" xmlns="http://www.w3.org/2000/svg">
<path d="M7.35156 13.1484L12.6484 7.84375" stroke="#333333" stroke-width="1.2" stroke-linecap="round" stroke-linejoin="round"/>
<path d="M11.3281 14.4766L9.11719 16.6875C8.76888 17.0358 8.35538 17.3121 7.90029 17.5006C7.4452 17.6891 6.95743 17.7861 6.46485 17.7861C5.47003 17.7861 4.51595 17.3909 3.8125 16.6875C3.10906 15.9841 2.71387 15.03 2.71387 14.0352C2.71387 13.0403 3.10906 12.0863 3.8125 11.3828L6.02344 9.17188" stroke="#333333" stroke-width="1.5" stroke-linecap="round" stroke-linejoin="round"/>
<path d="M13.9766 11.8272L16.1875 9.61621C16.8909 8.91277 17.2861 7.95869 17.2861 6.96387C17.2861 5.96905 16.8909 5.01497 16.1875 4.31153C15.4841 3.60808 14.53 3.21289 13.5352 3.21289C12.5403 3.21289 11.5863 3.60808 10.8828 4.31153L8.67188 6.52246" stroke="#333333" stroke-width="1.5" stroke-linecap="round" stroke-linejoin="round"/>
</svg>
