<svg width="30" height="30" viewBox="0 0 30 30" fill="none" xmlns="http://www.w3.org/2000/svg">
<rect width="30" height="30" rx="15" fill="#8190B7"/>
<path d="M11.332 12.7642C11.332 15.0182 13.1762 16.8624 15.4302 16.8624C17.6843 16.8624 19.5285 15.0182 19.5285 12.7642C19.5285 10.5102 17.6843 8.66602 15.4302 8.66602C13.1762 8.66602 11.332 10.5102 11.332 12.7642ZM18.5642 12.7642C18.5642 14.4879 17.1539 15.8982 15.4302 15.8982C13.7066 15.8982 12.2963 14.4879 12.2963 12.7642C12.2963 11.0406 13.7066 9.6303 15.4302 9.6303C17.1539 9.6303 18.5642 11.0406 18.5642 12.7642Z" fill="white"/>
<path d="M10.6568 21.2497C11.9345 19.972 13.622 19.2729 15.43 19.2729C17.238 19.2729 18.9255 19.972 20.2032 21.2497L20.8903 20.5626C19.4318 19.1162 17.4912 18.3086 15.43 18.3086C13.3688 18.3086 11.4282 19.1162 9.96973 20.5626L10.6568 21.2497Z" fill="white"/>
</svg>
