<svg width="23" height="23" viewBox="0 0 23 23" fill="none" xmlns="http://www.w3.org/2000/svg">
<path d="M5.54831 10.2104C6.18849 10.2104 6.81429 10.0206 7.34658 9.6649C7.87886 9.30924 8.29373 8.80372 8.53872 8.21227C8.7837 7.62083 8.8478 6.97002 8.72291 6.34214C8.59801 5.71427 8.28974 5.13752 7.83707 4.68485C7.38439 4.23218 6.80765 3.9239 6.17978 3.79901C5.5519 3.67412 4.90109 3.73822 4.30965 3.9832C3.7182 4.22819 3.21268 4.64306 2.85702 5.17534C2.50136 5.70763 2.31152 6.33343 2.31152 6.97361C2.31256 7.83174 2.65391 8.65443 3.2607 9.26122C3.86749 9.86801 4.69018 10.2094 5.54831 10.2104ZM5.54831 4.66161C6.00558 4.66161 6.45258 4.79721 6.83279 5.05126C7.21299 5.3053 7.50933 5.66638 7.68431 6.08885C7.8593 6.51131 7.90509 6.97617 7.81588 7.42465C7.72667 7.87314 7.50647 8.28509 7.18314 8.60843C6.8598 8.93177 6.44784 9.15197 5.99936 9.24117C5.55088 9.33038 5.08601 9.2846 4.66355 9.10961C4.24109 8.93462 3.88001 8.63829 3.62596 8.25808C3.37192 7.87788 3.23632 7.43088 3.23632 6.97361C3.23696 6.36063 3.48076 5.77294 3.9142 5.33949C4.34764 4.90605 4.93533 4.66226 5.54831 4.66161ZM4.62352 6.97361C4.62352 6.7907 4.67775 6.6119 4.77937 6.45982C4.88099 6.30774 5.02542 6.1892 5.19441 6.11921C5.36339 6.04921 5.54934 6.0309 5.72873 6.06658C5.90812 6.10226 6.07291 6.19034 6.20224 6.31968C6.33158 6.44901 6.41966 6.61379 6.45534 6.79319C6.49102 6.97258 6.47271 7.15853 6.40271 7.32751C6.33272 7.4965 6.21418 7.64093 6.0621 7.74255C5.91002 7.84416 5.73122 7.8984 5.54831 7.8984C5.30304 7.8984 5.06782 7.80097 4.89438 7.62754C4.72095 7.4541 4.62352 7.21888 4.62352 6.97361ZM11.5595 6.97361C11.5595 6.91287 11.5714 6.85273 11.5946 6.79661C11.6178 6.7405 11.6519 6.68951 11.6948 6.64656C11.7378 6.60362 11.7888 6.56956 11.8449 6.54633C11.901 6.52311 11.9612 6.51117 12.0219 6.51121H19.4203C19.5429 6.51121 19.6605 6.55993 19.7472 6.64664C19.8339 6.73336 19.8827 6.85097 19.8827 6.97361C19.8827 7.09624 19.8339 7.21386 19.7472 7.30057C19.6605 7.38729 19.5429 7.43601 19.4203 7.43601H12.0219C11.9612 7.43604 11.901 7.4241 11.8449 7.40088C11.7888 7.37765 11.7378 7.3436 11.6948 7.30065C11.6519 7.25771 11.6178 7.20672 11.5946 7.1506C11.5714 7.09448 11.5595 7.03434 11.5595 6.97361ZM5.54831 19.4584C6.18849 19.4584 6.81429 19.2685 7.34658 18.9129C7.87886 18.5572 8.29373 18.0517 8.53872 17.4602C8.7837 16.8688 8.8478 16.218 8.72291 15.5901C8.59801 14.9622 8.28974 14.3855 7.83707 13.9328C7.38439 13.4801 6.80765 13.1719 6.17978 13.047C5.5519 12.9221 4.90109 12.9862 4.30965 13.2312C3.7182 13.4762 3.21268 13.891 2.85702 14.4233C2.50136 14.9556 2.31152 15.5814 2.31152 16.2216C2.31256 17.0797 2.65391 17.9024 3.2607 18.5092C3.86749 19.116 4.69018 19.4573 5.54831 19.4584ZM5.54831 13.9096C6.00558 13.9096 6.45258 14.0452 6.83279 14.2992C7.21299 14.5533 7.50933 14.9144 7.68431 15.3368C7.8593 15.7593 7.90509 16.2241 7.81588 16.6726C7.72667 17.1211 7.50647 17.5331 7.18314 17.8564C6.8598 18.1797 6.44784 18.3999 5.99936 18.4891C5.55088 18.5784 5.08601 18.5326 4.66355 18.3576C4.24109 18.1826 3.88001 17.8863 3.62596 17.506C3.37192 17.1258 3.23632 16.6788 3.23632 16.2216C3.23696 15.6086 3.48076 15.0209 3.9142 14.5875C4.34764 14.154 4.93533 13.9102 5.54831 13.9096ZM11.5595 16.2216C11.5595 16.1608 11.5714 16.1007 11.5946 16.0446C11.6178 15.9885 11.6519 15.9375 11.6948 15.8945C11.7378 15.8516 11.7888 15.8175 11.8449 15.7943C11.901 15.7711 11.9612 15.7591 12.0219 15.7592H19.4203C19.5429 15.7592 19.6605 15.8079 19.7472 15.8946C19.8339 15.9813 19.8827 16.0989 19.8827 16.2216C19.8827 16.3442 19.8339 16.4618 19.7472 16.5485C19.6605 16.6353 19.5429 16.684 19.4203 16.684H12.0219C11.9612 16.684 11.901 16.6721 11.8449 16.6488C11.7888 16.6256 11.7378 16.5916 11.6948 16.5486C11.6519 16.5057 11.6178 16.4547 11.5946 16.3986C11.5714 16.3425 11.5595 16.2823 11.5595 16.2216Z" fill="url(#paint0_linear_987_197165)"/>
<defs>
<linearGradient id="paint0_linear_987_197165" x1="11.0971" y1="3.73682" x2="11.0971" y2="19.4584" gradientUnits="userSpaceOnUse">
<stop stop-color="#0033EA"/>
<stop offset="1" stop-color="#8A0074"/>
</linearGradient>
</defs>
</svg>
