<svg width="20" height="26" viewBox="0 0 20 26" fill="none" xmlns="http://www.w3.org/2000/svg">
<path d="M8.75 3H4.58333C4.35333 3 4.16667 2.81333 4.16667 2.58333C4.16667 2.35333 4.35333 2.16667 4.58333 2.16667H8.75C8.98 2.16667 9.16667 2.35333 9.16667 2.58333C9.16667 2.81333 8.98 3 8.75 3Z" fill="url(#paint0_linear_987_197292)"/>
<path d="M7.08333 23.8333H6.25C6.02 23.8333 5.83333 23.6467 5.83333 23.4167C5.83333 23.1867 6.02 23 6.25 23H7.08333C7.31333 23 7.5 23.1867 7.5 23.4167C7.5 23.6467 7.31333 23.8333 7.08333 23.8333Z" fill="url(#paint1_linear_987_197292)"/>
<path d="M11.25 25.5H2.08333C0.934167 25.5 0 24.5658 0 23.4167V2.58333C0 1.43417 0.934167 0.5 2.08333 0.5H11.25C12.3992 0.5 13.3333 1.43417 13.3333 2.58333V6.75C13.3333 6.98 13.1467 7.16667 12.9167 7.16667C12.6867 7.16667 12.5 6.98 12.5 6.75V2.58333C12.5 1.89417 11.9392 1.33333 11.25 1.33333H2.08333C1.39417 1.33333 0.833333 1.89417 0.833333 2.58333V23.4167C0.833333 24.1058 1.39417 24.6667 2.08333 24.6667H11.25C11.9392 24.6667 12.5 24.1058 12.5 23.4167V15.0833C12.5 14.8533 12.6867 14.6667 12.9167 14.6667C13.1467 14.6667 13.3333 14.8533 13.3333 15.0833V23.4167C13.3333 24.5658 12.3992 25.5 11.25 25.5Z" fill="url(#paint2_linear_987_197292)"/>
<path d="M19.5833 13.8333H3.75C3.52 13.8333 3.33333 13.6467 3.33333 13.4167V8.41667C3.33333 8.18667 3.52 8 3.75 8H19.5833C19.8133 8 20 8.18667 20 8.41667V13.4167C20 13.6467 19.8133 13.8333 19.5833 13.8333ZM4.16667 13H19.1667V8.83333H4.16667V13Z" fill="url(#paint3_linear_987_197292)"/>
<path d="M17.6725 11.5058C17.6725 11.6125 17.6317 11.7192 17.5508 11.8008C17.3883 11.9633 17.1242 11.9633 16.9617 11.8008L15.7833 10.6225C15.6208 10.46 15.6208 10.1958 15.7833 10.0333C15.9458 9.87083 16.21 9.87083 16.3725 10.0333L17.5508 11.2117C17.6317 11.2925 17.6725 11.3992 17.6725 11.5058Z" fill="url(#paint4_linear_987_197292)"/>
<path d="M16.0775 11.9225C15.9708 11.9225 15.8642 11.8817 15.7825 11.8008C15.62 11.6383 15.62 11.3742 15.7825 11.2117L16.9608 10.0333C17.1233 9.87083 17.3875 9.87083 17.55 10.0333C17.7125 10.1958 17.7125 10.46 17.55 10.6225L16.3717 11.8008C16.2908 11.8817 16.1842 11.9225 16.0775 11.9225Z" fill="url(#paint5_linear_987_197292)"/>
<path d="M14.3392 11.5058C14.3392 11.6125 14.2983 11.7192 14.2175 11.8008C14.055 11.9633 13.7908 11.9633 13.6283 11.8008L12.45 10.6225C12.2875 10.46 12.2875 10.1958 12.45 10.0333C12.6125 9.87083 12.8767 9.87083 13.0392 10.0333L14.2175 11.2117C14.2983 11.2925 14.3392 11.3992 14.3392 11.5058Z" fill="url(#paint6_linear_987_197292)"/>
<path d="M12.7442 11.9225C12.6375 11.9225 12.5308 11.8817 12.4492 11.8008C12.2867 11.6383 12.2867 11.3742 12.4492 11.2117L13.6275 10.0333C13.79 9.87083 14.0542 9.87083 14.2167 10.0333C14.3792 10.1958 14.3792 10.46 14.2167 10.6225L13.0383 11.8008C12.9575 11.8817 12.8508 11.9225 12.7442 11.9225Z" fill="url(#paint7_linear_987_197292)"/>
<path d="M11.0058 11.5058C11.0058 11.6125 10.965 11.7192 10.8842 11.8008C10.7217 11.9633 10.4575 11.9633 10.295 11.8008L9.11667 10.6225C8.95417 10.46 8.95417 10.1958 9.11667 10.0333C9.27917 9.87083 9.54333 9.87083 9.70583 10.0333L10.8842 11.2117C10.965 11.2925 11.0058 11.3992 11.0058 11.5058Z" fill="url(#paint8_linear_987_197292)"/>
<path d="M9.41083 11.9225C9.30417 11.9225 9.1975 11.8817 9.11583 11.8008C8.95333 11.6383 8.95333 11.3742 9.11583 11.2117L10.2942 10.0333C10.4567 9.87083 10.7208 9.87083 10.8833 10.0333C11.0458 10.1958 11.0458 10.46 10.8833 10.6225L9.705 11.8008C9.62417 11.8817 9.5175 11.9225 9.41083 11.9225Z" fill="url(#paint9_linear_987_197292)"/>
<path d="M7.6725 11.5058C7.6725 11.6125 7.63167 11.7192 7.55083 11.8008C7.38833 11.9633 7.12417 11.9633 6.96167 11.8008L5.78333 10.6225C5.62083 10.46 5.62083 10.1958 5.78333 10.0333C5.94583 9.87083 6.21 9.87083 6.3725 10.0333L7.55083 11.2117C7.63167 11.2925 7.6725 11.3992 7.6725 11.5058Z" fill="url(#paint10_linear_987_197292)"/>
<path d="M6.0775 11.9225C5.97083 11.9225 5.86417 11.8817 5.7825 11.8008C5.62 11.6383 5.62 11.3742 5.7825 11.2117L6.96083 10.0333C7.12333 9.87083 7.3875 9.87083 7.55 10.0333C7.7125 10.1958 7.7125 10.46 7.55 10.6225L6.37167 11.8008C6.29083 11.8817 6.18417 11.9225 6.0775 11.9225Z" fill="url(#paint11_linear_987_197292)"/>
<defs>
<linearGradient id="paint0_linear_987_197292" x1="10" y1="0.5" x2="10" y2="25.5" gradientUnits="userSpaceOnUse">
<stop stop-color="#0033EA"/>
<stop offset="1" stop-color="#8A0074"/>
</linearGradient>
<linearGradient id="paint1_linear_987_197292" x1="10" y1="0.5" x2="10" y2="25.5" gradientUnits="userSpaceOnUse">
<stop stop-color="#0033EA"/>
<stop offset="1" stop-color="#8A0074"/>
</linearGradient>
<linearGradient id="paint2_linear_987_197292" x1="10" y1="0.5" x2="10" y2="25.5" gradientUnits="userSpaceOnUse">
<stop stop-color="#0033EA"/>
<stop offset="1" stop-color="#8A0074"/>
</linearGradient>
<linearGradient id="paint3_linear_987_197292" x1="10" y1="0.5" x2="10" y2="25.5" gradientUnits="userSpaceOnUse">
<stop stop-color="#0033EA"/>
<stop offset="1" stop-color="#8A0074"/>
</linearGradient>
<linearGradient id="paint4_linear_987_197292" x1="10" y1="0.5" x2="10" y2="25.5" gradientUnits="userSpaceOnUse">
<stop stop-color="#0033EA"/>
<stop offset="1" stop-color="#8A0074"/>
</linearGradient>
<linearGradient id="paint5_linear_987_197292" x1="10" y1="0.5" x2="10" y2="25.5" gradientUnits="userSpaceOnUse">
<stop stop-color="#0033EA"/>
<stop offset="1" stop-color="#8A0074"/>
</linearGradient>
<linearGradient id="paint6_linear_987_197292" x1="10" y1="0.5" x2="10" y2="25.5" gradientUnits="userSpaceOnUse">
<stop stop-color="#0033EA"/>
<stop offset="1" stop-color="#8A0074"/>
</linearGradient>
<linearGradient id="paint7_linear_987_197292" x1="10" y1="0.5" x2="10" y2="25.5" gradientUnits="userSpaceOnUse">
<stop stop-color="#0033EA"/>
<stop offset="1" stop-color="#8A0074"/>
</linearGradient>
<linearGradient id="paint8_linear_987_197292" x1="10" y1="0.5" x2="10" y2="25.5" gradientUnits="userSpaceOnUse">
<stop stop-color="#0033EA"/>
<stop offset="1" stop-color="#8A0074"/>
</linearGradient>
<linearGradient id="paint9_linear_987_197292" x1="10" y1="0.5" x2="10" y2="25.5" gradientUnits="userSpaceOnUse">
<stop stop-color="#0033EA"/>
<stop offset="1" stop-color="#8A0074"/>
</linearGradient>
<linearGradient id="paint10_linear_987_197292" x1="10" y1="0.5" x2="10" y2="25.5" gradientUnits="userSpaceOnUse">
<stop stop-color="#0033EA"/>
<stop offset="1" stop-color="#8A0074"/>
</linearGradient>
<linearGradient id="paint11_linear_987_197292" x1="10" y1="0.5" x2="10" y2="25.5" gradientUnits="userSpaceOnUse">
<stop stop-color="#0033EA"/>
<stop offset="1" stop-color="#8A0074"/>
</linearGradient>
</defs>
</svg>
