<svg width="14" height="14" viewBox="0 0 14 14" fill="none" xmlns="http://www.w3.org/2000/svg">
<path fill-rule="evenodd" clip-rule="evenodd" d="M6.47311 3.71821C6.80271 4.08358 6.69821 4.49749 6.40678 4.89023C6.33768 4.98335 6.25804 5.07509 6.16185 5.17619C6.11567 5.22472 6.07967 5.26121 6.00437 5.33659C5.83334 5.50778 5.68958 5.65163 5.57306 5.76814C5.51655 5.82464 5.90233 6.59553 6.65101 7.34495C7.39929 8.09396 8.17014 8.48 8.22691 8.4232L8.65792 7.99195C8.89527 7.75436 9.02097 7.63973 9.1937 7.52641C9.55278 7.29084 9.94444 7.22682 10.2748 7.52219C11.3533 8.29368 11.9636 8.7671 12.2626 9.07778C12.8458 9.68375 12.7694 10.6165 12.2659 11.1487C12.0914 11.3332 11.87 11.5547 11.6086 11.8067C10.0271 13.3891 6.68937 12.4261 4.13139 9.86561C1.57284 7.30454 0.610384 3.96653 2.18856 2.38751C2.47189 2.09973 2.56531 2.00636 2.84124 1.73447C3.35499 1.22825 4.3308 1.14899 4.92399 1.73497C5.23601 2.04319 5.73345 2.68323 6.47311 3.71821ZM9.45306 8.78736L9.02197 9.21869C8.28919 9.95187 7.04126 9.32691 5.85578 8.14027C4.6695 6.95282 4.04523 5.70535 4.77825 4.97239C4.89461 4.85604 5.03825 4.71233 5.20914 4.54127C5.27809 4.47225 5.30963 4.44028 5.34749 4.40049C5.39907 4.34628 5.44145 4.29867 5.47539 4.25654C4.81987 3.34341 4.37426 2.77284 4.13403 2.53553C4.00997 2.41298 3.73217 2.43554 3.63019 2.53603C3.35819 2.80404 3.26878 2.8934 2.9866 3.18C1.97167 4.19549 2.74863 6.89015 4.92662 9.07029C7.10393 11.2497 9.79819 12.0271 10.8208 11.004C11.0782 10.7557 11.288 10.5459 11.4494 10.3753C11.566 10.252 11.5869 9.99755 11.4527 9.85812C11.2292 9.62589 10.682 9.19926 9.73722 8.52077C9.66835 8.5762 9.58369 8.6566 9.45306 8.78736ZM11.55 3.24562L8.5727 6.22287L7.7772 5.42738L10.7545 2.45012H8.73745V1.32512H12.675V5.26262H11.55V3.24562Z" fill="#6174A4"/>
</svg>
