<svg width="24" height="18" viewBox="0 0 24 18" fill="none" xmlns="http://www.w3.org/2000/svg">
<path d="M23 9L3 9" stroke="#6174A4" stroke-linecap="round" stroke-linejoin="round" stroke-dasharray="3 3"/>
<path d="M12.8085 3.07177L2.91197 8.24521C2.76685 8.32129 2.64605 8.43206 2.56198 8.56613C2.47791 8.7002 2.43359 8.85275 2.43359 9.0081C2.43359 9.16345 2.47791 9.316 2.56198 9.45007C2.64605 9.58415 2.76685 9.69491 2.91197 9.77099L12.8085 14.9444C12.9743 15.0328 13.1655 15.0708 13.3556 15.0532C13.5456 15.0355 13.725 14.9631 13.869 14.846C14.0161 14.7319 14.1219 14.5783 14.1722 14.4061C14.2226 14.2339 14.2149 14.0515 14.1503 13.8835L12.5038 9.59052C12.4871 9.54772 12.4569 9.51066 12.4171 9.48429C12.3773 9.45791 12.3299 9.44346 12.2811 9.44287L8.05065 9.44287C7.92993 9.44478 7.81287 9.4042 7.72276 9.32921C7.63264 9.25423 7.57608 9.15032 7.56432 9.03818C7.55947 8.97803 7.568 8.91759 7.58938 8.86066C7.61076 8.80373 7.64451 8.75155 7.68853 8.70738C7.73255 8.66321 7.78589 8.62802 7.84518 8.60401C7.90447 8.58 7.96844 8.5677 8.03307 8.56787L12.2811 8.56787C12.3294 8.56846 12.3767 8.55512 12.4166 8.52967C12.4564 8.50422 12.4869 8.4679 12.5038 8.42568L14.1503 4.12724C14.1848 4.03211 14.2026 3.93238 14.203 3.83193C14.2023 3.67972 14.159 3.53033 14.0775 3.39849C13.9961 3.26665 13.8791 3.15693 13.7383 3.08017C13.5975 3.00341 13.4376 2.96226 13.2746 2.96079C13.1115 2.95932 12.9508 2.99757 12.8085 3.07177Z" fill="#6174A4"/>
</svg>
