<svg width="24" height="18" viewBox="0 0 24 18" fill="none" xmlns="http://www.w3.org/2000/svg">
<path d="M1 9L21 9" stroke="#6174A4" stroke-linecap="round" stroke-linejoin="round" stroke-dasharray="3 3"/>
<path d="M11.1915 14.9282L21.088 9.75479C21.2331 9.67871 21.3539 9.56795 21.438 9.43387C21.5221 9.2998 21.5664 9.14725 21.5664 8.9919C21.5664 8.83655 21.5221 8.684 21.438 8.54993C21.3539 8.41585 21.2331 8.30509 21.088 8.22901L11.1915 3.05557C11.0257 2.9672 10.8345 2.9292 10.6444 2.94684C10.4544 2.96448 10.275 3.03689 10.131 3.15401C9.98394 3.26811 9.87808 3.42168 9.82776 3.59387C9.77744 3.76606 9.78512 3.94853 9.84975 4.11651L11.4962 8.40948C11.5129 8.45228 11.5431 8.48934 11.5829 8.51571C11.6227 8.54209 11.6701 8.55654 11.7189 8.55714L15.9494 8.55713C16.0701 8.55522 16.1871 8.5958 16.2772 8.67079C16.3674 8.74577 16.4239 8.84968 16.4357 8.96182C16.4405 9.02197 16.432 9.08241 16.4106 9.13934C16.3892 9.19627 16.3555 9.24845 16.3115 9.29262C16.2674 9.33679 16.2141 9.37198 16.1548 9.39599C16.0955 9.42 16.0316 9.4323 15.9669 9.43213L11.7189 9.43213C11.6706 9.43154 11.6233 9.44488 11.5834 9.47033C11.5436 9.49578 11.5131 9.5321 11.4962 9.57432L9.84975 13.8728C9.81519 13.9679 9.79738 14.0676 9.79701 14.1681C9.79772 14.3203 9.84096 14.4697 9.92246 14.6015C10.004 14.7334 10.1209 14.8431 10.2617 14.9198C10.4025 14.9966 10.5624 15.0377 10.7254 15.0392C10.8885 15.0407 11.0492 15.0024 11.1915 14.9282Z" fill="#6174A4"/>
</svg>
