<svg width="28" height="28" viewBox="0 0 28 28" fill="none" xmlns="http://www.w3.org/2000/svg">
<rect x="15" width="12.7059" height="12.7059" rx="6.35294" fill="#F6DDEF"/>
<path fill-rule="evenodd" clip-rule="evenodd" d="M4.125 6.90625C4.125 6.85447 4.16697 6.8125 4.21875 6.8125H22.7812C22.833 6.8125 22.875 6.85447 22.875 6.90625V22.0938C22.875 22.1455 22.833 22.1875 22.7812 22.1875H4.21875C4.16697 22.1875 4.125 22.1455 4.125 22.0938V6.90625ZM4.21875 5.3125C3.33855 5.3125 2.625 6.02605 2.625 6.90625V22.0938C2.625 22.974 3.33855 23.6875 4.21875 23.6875H22.7812C23.6615 23.6875 24.375 22.974 24.375 22.0938V6.90625C24.375 6.02605 23.6615 5.3125 22.7812 5.3125H4.21875ZM7.93243 13.6562C7.93243 12.6725 8.72993 11.875 9.71368 11.875C10.6974 11.875 11.4949 12.6725 11.4949 13.6562C11.4949 14.5967 10.7661 15.3669 9.84245 15.4329C9.79959 15.4316 9.75667 15.4309 9.71368 15.4309C9.6707 15.4309 9.62777 15.4316 9.58492 15.4329C8.66127 15.3669 7.93243 14.5967 7.93243 13.6562ZM12.9949 13.6562C12.9949 14.6144 12.5843 15.4766 11.9294 16.0765C12.0369 16.145 12.1416 16.2186 12.243 16.2974C12.9666 16.859 13.4826 17.6454 13.7098 18.5327C13.8125 18.934 13.5705 19.3426 13.1692 19.4453C12.768 19.5481 12.3594 19.3061 12.2567 18.9048C12.1121 18.3402 11.7837 17.8397 11.3233 17.4823C10.8996 17.1534 10.3863 16.9629 9.85287 16.9346C9.80671 16.9365 9.76031 16.9375 9.71368 16.9375C9.66706 16.9375 9.62065 16.9365 9.5745 16.9346C9.04111 16.9629 8.52779 17.1534 8.10411 17.4823C7.64368 17.8397 7.31529 18.3402 7.17072 18.9048C7.06797 19.3061 6.65939 19.5481 6.25812 19.4453C5.85685 19.3426 5.61485 18.934 5.71759 18.5327C5.94478 17.6454 6.46081 16.859 7.18435 16.2974C7.28576 16.2186 7.39044 16.145 7.49801 16.0765C6.8431 15.4766 6.43243 14.6144 6.43243 13.6562C6.43243 11.8441 7.9015 10.375 9.71368 10.375C11.5259 10.375 12.9949 11.8441 12.9949 13.6562ZM15.2812 12.8125C15.2812 12.3983 15.617 12.0625 16.0312 12.0625H20.25C20.6642 12.0625 21 12.3983 21 12.8125C21 13.2267 20.6642 13.5625 20.25 13.5625H16.0312C15.617 13.5625 15.2812 13.2267 15.2812 12.8125ZM15.2812 16.1875C15.2812 15.7733 15.617 15.4375 16.0312 15.4375H20.25C20.6642 15.4375 21 15.7733 21 16.1875C21 16.6017 20.6642 16.9375 20.25 16.9375H16.0312C15.617 16.9375 15.2812 16.6017 15.2812 16.1875Z" fill="url(#paint0_linear_71_45807)"/>
<defs>
<linearGradient id="paint0_linear_71_45807" x1="13.5" y1="5.3125" x2="13.5" y2="23.6875" gradientUnits="userSpaceOnUse">
<stop stop-color="#000AFF"/>
<stop offset="1" stop-color="#D274FF"/>
</linearGradient>
</defs>
</svg>
