<svg width="31" height="31" viewBox="0 0 31 31" fill="none" xmlns="http://www.w3.org/2000/svg">
<path d="M28.36 30.72H12.36C11.059 30.72 10 29.661 10 28.36V20.72H2.36C1.059 20.72 0 19.661 0 18.36V2.36C0 1.059 1.059 0 2.36 0H18.36C19.662 0 20.72 1.059 20.72 2.36V10H28.36C29.662 10 30.72 11.059 30.72 12.36V28.36C30.72 29.662 29.662 30.72 28.36 30.72ZM10.72 20.72V28.36C10.72 29.264 11.456 30 12.36 30H28.36C29.264 30 30 29.265 30 28.36V12.36C30 11.456 29.265 10.72 28.36 10.72H20.72V18.36C20.72 19.662 19.661 20.72 18.36 20.72H10.72ZM18.36 17.72C18.007 17.72 17.72 18.007 17.72 18.36V19.36C17.72 19.713 18.007 20 18.36 20C19.264 20 20 19.265 20 18.36C20 18.007 19.713 17.72 19.36 17.72H18.36ZM10.36 20H17.16C17.058 19.81 17 19.592 17 19.36V18.36C17 17.61 17.61 17 18.36 17H19.36C19.591 17 19.809 17.059 20 17.16V9.56C19.81 9.663 19.592 9.72 19.36 9.72H18.36C17.61 9.72 17 9.11 17 8.36V7.36C17 6.61 17.61 6 18.36 6H19.36C19.591 6 19.809 6.058 20 6.16V2.36C20 1.456 19.265 0.72 18.36 0.72H14.56C14.663 0.911 14.72 1.129 14.72 1.36V2.36C14.72 3.11 14.11 3.72 13.36 3.72H12.36C11.61 3.72 11 3.11 11 2.36V1.36C11 1.129 11.058 0.911 11.16 0.72H3.56C3.662 0.911 3.72 1.129 3.72 1.36V2.36C3.72 3.11 3.11 3.72 2.36 3.72H1.36C1.129 3.72 0.911 3.662 0.72 3.56V11.16C0.911 11.057 1.129 11 1.36 11H2.36C3.11 11 3.72 11.61 3.72 12.36V13.36C3.72 14.11 3.11 14.72 2.36 14.72H1.36C1.129 14.72 0.911 14.662 0.72 14.56V18.36C0.72 19.264 1.456 20 2.36 20H6.16C6.057 19.81 6 19.592 6 19.36V18.36C6 17.61 6.61 17 7.36 17H8.36C9.11 17 9.72 17.61 9.72 18.36V19.36C9.72 19.591 9.662 19.809 9.56 20H10.36ZM7.36 17.72C7.007 17.72 6.72 18.007 6.72 18.36V19.36C6.72 19.713 7.007 20 7.36 20H8.36C8.713 20 9 19.713 9 19.36V18.36C9 18.007 8.713 17.72 8.36 17.72H7.36ZM0.72 13.36C0.72 13.713 1.007 14 1.36 14H2.36C2.713 14 3 13.713 3 13.36V12.36C3 12.007 2.713 11.72 2.36 11.72H1.36C1.007 11.72 0.72 12.007 0.72 12.36V13.36ZM18.36 6.72C18.007 6.72 17.72 7.007 17.72 7.36V8.36C17.72 8.713 18.007 9 18.36 9H19.36C19.713 9 20 8.713 20 8.36V7.36C20 7.007 19.713 6.72 19.36 6.72H18.36ZM12.36 0.72C12.007 0.72 11.72 1.007 11.72 1.36V2.36C11.72 2.713 12.007 3 12.36 3H13.36C13.713 3 14 2.713 14 2.36V1.36C14 1.007 13.713 0.72 13.36 0.72H12.36ZM0.72 2.36C0.72 2.713 1.007 3 1.36 3H2.36C2.713 3 3 2.713 3 2.36V1.36C3 1.007 2.713 0.72 2.36 0.72C1.456 0.72 0.72 1.456 0.72 2.36ZM13.36 14.72H12.36C11.61 14.72 11 14.11 11 13.36V12.36C11 11.61 11.61 11 12.36 11H13.36C14.11 11 14.72 11.61 14.72 12.36V13.36C14.72 14.11 14.11 14.72 13.36 14.72ZM12.36 11.72C12.007 11.72 11.72 12.007 11.72 12.36V13.36C11.72 13.713 12.007 14 12.36 14H13.36C13.713 14 14 13.713 14 13.36V12.36C14 12.007 13.713 11.72 13.36 11.72H12.36ZM8.36 9.72H7.36C6.61 9.72 6 9.11 6 8.36V7.36C6 6.61 6.61 6 7.36 6H8.36C9.11 6 9.72 6.61 9.72 7.36V8.36C9.72 9.11 9.11 9.72 8.36 9.72ZM7.36 6.72C7.007 6.72 6.72 7.007 6.72 7.36V8.36C6.72 8.713 7.007 9 7.36 9H8.36C8.713 9 9 8.713 9 8.36V7.36C9 7.007 8.713 6.72 8.36 6.72H7.36Z" fill="#333333"/>
</svg>
