<svg width="20" height="20" viewBox="0 0 20 20" fill="none" xmlns="http://www.w3.org/2000/svg">
<path d="M11.1357 15.1129V3.97706C11.1357 3.09847 11.848 2.38623 12.7266 2.38623H13.522C14.4006 2.38623 15.1128 3.09847 15.1128 3.97706V15.1129C15.1128 15.9915 14.4006 16.7037 13.522 16.7037H12.7266C11.848 16.7037 11.1357 15.9915 11.1357 15.1129Z" stroke="white" stroke-linecap="round" stroke-linejoin="round"/>
<path d="M7.95413 15.1129V3.97706C7.95413 3.09847 7.24189 2.38623 6.3633 2.38623H5.56788C4.68929 2.38623 3.97705 3.09847 3.97705 3.97706V15.1129C3.97705 15.9915 4.68929 16.7037 5.56788 16.7037H6.3633C7.24189 16.7037 7.95413 15.9915 7.95413 15.1129Z" stroke="white" stroke-linecap="round" stroke-linejoin="round"/>
</svg>
