<svg width="35" height="36" viewBox="0 0 35 36" fill="none" xmlns="http://www.w3.org/2000/svg">
<path d="M32.7325 7.57806L26.4825 5.07806C26.3333 5.01825 26.1667 5.01825 26.0175 5.07806L19.7675 7.57806C19.6516 7.62449 19.5523 7.70455 19.4824 7.80792C19.4124 7.91129 19.375 8.03324 19.375 8.15806V14.6181C19.3782 15.805 19.6871 16.9712 20.2719 18.0041C20.8567 19.0371 21.6976 19.902 22.7138 20.5156L25.9288 22.4443C26.0258 22.5025 26.1368 22.5332 26.25 22.5332C26.3632 22.5332 26.4742 22.5025 26.5713 22.4443L29.375 20.7618V27.7618C29.3747 28.0336 29.2666 28.2941 29.0744 28.4862C28.8823 28.6784 28.6217 28.7865 28.35 28.7868H4.15C3.87825 28.7865 3.61773 28.6784 3.42558 28.4862C3.23343 28.2941 3.12533 28.0336 3.125 27.7618V13.7831H17.5C17.6658 13.7831 17.8247 13.7172 17.9419 13.6C18.0592 13.4828 18.125 13.3238 18.125 13.1581C18.125 12.9923 18.0592 12.8333 17.9419 12.7161C17.8247 12.5989 17.6658 12.5331 17.5 12.5331H3.125V11.0581C3.12533 10.7863 3.23343 10.5258 3.42558 10.3336C3.61773 10.1415 3.87825 10.0334 4.15 10.0331H17.5C17.6658 10.0331 17.8247 9.96721 17.9419 9.85C18.0592 9.73279 18.125 9.57382 18.125 9.40806C18.125 9.2423 18.0592 9.08333 17.9419 8.96612C17.8247 8.84891 17.6658 8.78306 17.5 8.78306H4.15C3.54673 8.78339 2.96827 9.02318 2.5417 9.44976C2.11512 9.87633 1.87533 10.4548 1.875 11.0581V27.7581C1.87533 28.3613 2.11512 28.9398 2.5417 29.3664C2.96827 29.7929 3.54673 30.0327 4.15 30.0331H28.35C28.9533 30.0327 29.5317 29.7929 29.9583 29.3664C30.3849 28.9398 30.6247 28.3613 30.625 27.7581V19.9081C31.4036 19.2625 32.031 18.454 32.4629 17.5395C32.8949 16.6251 33.1209 15.6269 33.125 14.6156V8.15806C33.125 8.03324 33.0876 7.91129 33.0176 7.80792C32.9477 7.70455 32.8484 7.62449 32.7325 7.57806ZM31.875 14.6181C31.8724 15.5893 31.6197 16.5435 31.1411 17.3886C30.6624 18.2338 29.9741 18.9413 29.1425 19.4431L26.25 21.1793L23.3575 19.4431C22.5259 18.9413 21.8376 18.2338 21.359 17.3886C20.8803 16.5435 20.6276 15.5893 20.625 14.6181V8.58056L26.25 6.33056L31.875 8.58056V14.6181Z" fill="url(#paint0_linear_64_36258)"/>
<path d="M24.1928 12.8227C24.1348 12.7645 24.0659 12.7184 23.9901 12.687C23.9142 12.6555 23.8329 12.6392 23.7508 12.6392C23.6687 12.6391 23.5873 12.6552 23.5114 12.6866C23.4356 12.718 23.3666 12.764 23.3085 12.822C23.2504 12.8801 23.2043 12.949 23.1728 13.0248C23.1413 13.1007 23.1251 13.182 23.125 13.2641C23.1249 13.3462 23.1411 13.4275 23.1724 13.5034C23.2038 13.5793 23.2498 13.6483 23.3078 13.7064L24.9753 15.3727C25.0926 15.4898 25.2515 15.5556 25.4172 15.5556C25.583 15.5556 25.7419 15.4898 25.8591 15.3727L29.1928 12.0389C29.31 11.9215 29.3758 11.7624 29.3757 11.5966C29.3756 11.4307 29.3096 11.2717 29.1922 11.1545C29.0749 11.0373 28.9158 10.9716 28.7499 10.9717C28.5841 10.9718 28.425 11.0378 28.3078 11.1552L25.4166 14.0477L24.1928 12.8227Z" fill="url(#paint1_linear_64_36258)"/>
<path d="M6.25 25.0332C6.08424 25.0332 5.92527 25.0991 5.80806 25.2163C5.69085 25.3335 5.625 25.4924 5.625 25.6582C5.625 25.824 5.69085 25.9829 5.80806 26.1001C5.92527 26.2174 6.08424 26.2832 6.25 26.2832H11.25C11.4158 26.2832 11.5747 26.2174 11.6919 26.1001C11.8092 25.9829 11.875 25.824 11.875 25.6582C11.875 25.4924 11.8092 25.3335 11.6919 25.2163C11.5747 25.0991 11.4158 25.0332 11.25 25.0332H6.25Z" fill="url(#paint2_linear_64_36258)"/>
<defs>
<linearGradient id="paint0_linear_64_36258" x1="17.5" y1="5.0332" x2="17.5" y2="30.0331" gradientUnits="userSpaceOnUse">
<stop stop-color="#000AFF"/>
<stop offset="1" stop-color="#D274FF"/>
</linearGradient>
<linearGradient id="paint1_linear_64_36258" x1="26.2503" y1="10.9717" x2="26.2503" y2="15.5556" gradientUnits="userSpaceOnUse">
<stop stop-color="#000AFF"/>
<stop offset="1" stop-color="#D274FF"/>
</linearGradient>
<linearGradient id="paint2_linear_64_36258" x1="8.75" y1="25.0332" x2="8.75" y2="26.2832" gradientUnits="userSpaceOnUse">
<stop stop-color="#000AFF"/>
<stop offset="1" stop-color="#D274FF"/>
</linearGradient>
</defs>
</svg>
