<svg width="20" height="20" viewBox="0 0 20 20" fill="none" xmlns="http://www.w3.org/2000/svg">
<path d="M4.09375 9.77255V3.27255C4.09375 3.11583 4.15601 2.96553 4.26682 2.85471C4.37764 2.7439 4.52794 2.68164 4.68466 2.68164H11.7756L15.9119 6.818V9.77255" stroke="#645DF6" stroke-width="1.2" stroke-linecap="round" stroke-linejoin="round"/>
<path d="M11.7734 2.68164V6.818H15.9098" stroke="#645DF6" stroke-width="1.2" stroke-linecap="round" stroke-linejoin="round"/>
<path d="M4.09375 15.0912H5.27557C5.58901 15.0912 5.88961 14.9667 6.11124 14.745C6.33287 14.5234 6.45739 14.2228 6.45739 13.9094C6.45739 13.5959 6.33287 13.2953 6.11124 13.0737C5.88961 12.8521 5.58901 12.7275 5.27557 12.7275H4.09375V16.273" stroke="#645DF6" stroke-width="1.2" stroke-linecap="round" stroke-linejoin="round"/>
<path d="M16.4979 12.7275H14.4297V16.273" stroke="#645DF6" stroke-width="1.2" stroke-linecap="round" stroke-linejoin="round"/>
<path d="M16.2024 14.7959H14.4297" stroke="#645DF6" stroke-width="1.2" stroke-linecap="round" stroke-linejoin="round"/>
<path d="M10.0028 16.273C10.473 16.273 10.9239 16.0862 11.2563 15.7538C11.5888 15.4213 11.7756 14.9704 11.7756 14.5003C11.7756 14.0301 11.5888 13.5792 11.2563 13.2468C10.9239 12.9143 10.473 12.7275 10.0028 12.7275H8.96875V16.273H10.0028Z" stroke="#645DF6" stroke-width="1.2" stroke-linecap="round" stroke-linejoin="round"/>
</svg>
