<svg width="15" height="16" viewBox="0 0 15 16" fill="none" xmlns="http://www.w3.org/2000/svg">
<g clip-path="url(#clip0_375_7775)">
<path fill-rule="evenodd" clip-rule="evenodd" d="M9.77855 0.5C10.1262 0.5 10.4677 0.641172 10.7138 0.887352L13.2859 3.45941C13.5356 3.70912 13.6732 4.04176 13.6732 4.3947V15.5H1.32031V0.5H9.77855ZM9.26149 1.38235H2.20266V14.6177H12.7909V4.91177H9.26148V1.38234L9.26149 1.38235ZM10.1438 1.565V4.02941H12.6082L10.1438 1.565Z" fill="black"/>
<path fill-rule="evenodd" clip-rule="evenodd" d="M7.03536 5.79395C7.24448 5.79395 7.42889 5.89277 7.56654 6.08953C7.89389 6.551 7.87096 7.04247 7.75007 7.70423C7.70861 7.93189 7.75096 8.16218 7.87713 8.35365C8.05536 8.62541 8.31213 8.99953 8.56448 9.3163C8.74978 9.55012 9.03478 9.67453 9.32331 9.63571C9.50861 9.61012 9.73184 9.58895 9.96125 9.58895C10.9848 9.58895 10.908 9.95423 11.0007 10.2895C11.0518 10.4925 11.0262 10.6698 10.9212 10.8013C10.7907 10.9786 10.5215 11.0704 10.128 11.0704C9.69213 11.0704 9.54831 10.9963 9.16889 10.8754C8.95448 10.8066 8.73213 10.7925 8.51507 10.8498C8.08184 10.9628 7.36713 11.1348 6.77066 11.2169C6.45213 11.261 6.16272 11.4251 5.97036 11.6925C5.53713 12.2925 5.13566 12.8528 4.49948 12.8528C4.33536 12.8528 4.18448 12.7936 4.06007 12.6754C3.87654 12.4919 3.79801 12.2881 3.83684 12.0516C3.94448 11.3254 4.83743 10.9204 5.36861 10.6248C5.49389 10.5551 5.59272 10.4484 5.65448 10.316L6.49714 8.49395C6.55714 8.366 6.57566 8.22395 6.55361 8.08365C6.45566 7.466 6.31095 6.42748 6.70007 5.95806C6.78566 5.85306 6.9039 5.79395 7.03536 5.79395ZM7.19596 8.44983C6.85801 9.43895 6.26066 10.5145 6.18036 10.6398C6.90125 10.301 8.33596 10.1298 8.33596 10.1298C7.61419 9.43453 7.19596 8.44983 7.19596 8.44983Z" fill="black"/>
</g>
<defs>
<clipPath id="clip0_375_7775">
<rect width="15" height="15" fill="white" transform="translate(0 0.5)"/>
</clipPath>
</defs>
</svg>
