<svg width="28" height="26" viewBox="0 0 28 26" fill="none" xmlns="http://www.w3.org/2000/svg">
<path fill-rule="evenodd" clip-rule="evenodd" d="M18.0312 21.5625V23.3773C18.0312 24.3801 17.2208 25.1875 16.2211 25.1875H2.62266C1.6199 25.1875 0.8125 24.373 0.8125 23.3684V2.53789C0.8125 1.53287 1.62744 0.71875 2.63273 0.71875H11.6875V6.15797C11.6875 7.16517 12.5014 7.96875 13.5054 7.96875H18.0312V9.78125H9.88121C8.37625 9.78125 7.15625 10.9977 7.15625 12.4989V18.8449C7.15625 20.3458 8.36699 21.5625 9.88121 21.5625H18.0312ZM12.5938 0.71875V6.15359C12.5938 6.65557 13.0024 7.0625 13.4916 7.0625H18.0312L12.5938 0.71875ZM9.87007 10.6875C8.87178 10.6875 8.0625 11.5033 8.0625 12.4928V18.851C8.0625 19.848 8.88025 20.6562 9.87007 20.6562H25.2862C26.2845 20.6562 27.0938 19.8405 27.0938 18.851V12.4928C27.0938 11.4957 26.276 10.6875 25.2862 10.6875H9.87007ZM21.6562 15.2188V13.4062H25.2812V12.5H20.75V18.8438H21.6562V16.125H24.375V15.2188H21.6562ZM9.875 14.3125V18.8438H10.7812V16.125H12.5893C13.5928 16.125 14.4062 15.3205 14.4062 14.3125C14.4062 13.3115 13.5962 12.5 12.5893 12.5H9.875V14.3125ZM10.7812 13.4062V15.2188H12.5947C13.0947 15.2188 13.5 14.8165 13.5 14.3125C13.5 13.812 13.0988 13.4062 12.5947 13.4062H10.7812ZM15.3125 12.5V18.8438H18.0268C19.0303 18.8438 19.8438 18.0403 19.8438 17.0259V14.3179C19.8438 13.3139 19.0337 12.5 18.0268 12.5H15.3125ZM16.2188 13.4062V17.9375H18.0322C18.5322 17.9375 18.9375 17.5354 18.9375 17.0314V14.3123C18.9375 13.8119 18.5363 13.4062 18.0322 13.4062H16.2188Z" fill="#7098FF"/>
</svg>
