<svg width="18" height="18" viewBox="0 0 18 18" fill="none" xmlns="http://www.w3.org/2000/svg">
<path d="M13.3509 11.7433C13.1315 11.808 12.8095 11.8153 12.4643 11.7653C12.0937 11.7115 11.7158 11.5983 11.3443 11.4313C12.0068 11.335 12.5207 11.3647 12.9602 11.5204C13.0643 11.5573 13.2354 11.6559 13.3509 11.7433ZM9.65483 11.1357C9.62787 11.143 9.60132 11.1499 9.57491 11.1573C9.39666 11.2058 9.22323 11.2531 9.0561 11.2952L8.83074 11.3524C8.37741 11.4671 7.91391 11.5843 7.45613 11.7238C7.6301 11.3043 7.79174 10.8801 7.95 10.4654C8.06718 10.1584 8.18684 9.84478 8.31059 9.53523C8.37336 9.63891 8.43888 9.74263 8.50706 9.84663C8.81765 10.3197 9.20807 10.757 9.65483 11.1357ZM8.5017 6.40467C8.53109 6.92235 8.4194 7.42036 8.25555 7.89813C8.05373 7.30737 7.95968 6.655 8.21199 6.12832C8.2767 5.99332 8.32971 5.92114 8.36409 5.88348C8.41719 5.96547 8.48703 6.14889 8.5017 6.40467ZM6.13505 12.9624C6.02165 13.1653 5.9059 13.3552 5.78727 13.5345C5.50098 13.966 5.03276 14.4279 4.79222 14.4279C4.76855 14.4279 4.73991 14.4241 4.69805 14.3799C4.67111 14.3517 4.6668 14.3314 4.6681 14.3038C4.67621 14.1452 4.88639 13.8627 5.19086 13.6007C5.46721 13.3631 5.77957 13.1518 6.13505 12.9624ZM14.1168 11.7657C14.08 11.2374 13.1905 10.8984 13.1817 10.8952C12.8379 10.7733 12.4644 10.7141 12.0398 10.7141C11.5854 10.7141 11.0954 10.7798 10.4662 10.9269C9.90629 10.53 9.42263 10.0331 9.06128 9.48298C8.90171 9.23994 8.75825 8.99734 8.63319 8.76038C8.93847 8.03043 9.21338 7.24558 9.16343 6.36655C9.12315 5.66172 8.80532 5.18827 8.37309 5.18827C8.07659 5.18827 7.8213 5.40788 7.61372 5.84159C7.24341 6.61442 7.34075 7.60329 7.90289 8.78328C7.70043 9.25879 7.51233 9.75177 7.33026 10.229C7.10373 10.8224 6.87032 11.4346 6.60725 12.017C5.86949 12.3089 5.2634 12.663 4.7583 13.0976C4.4274 13.3818 4.02849 13.8163 4.00572 14.2698C3.99461 14.4834 4.06785 14.6793 4.21669 14.8363C4.37481 15.0029 4.57347 15.0907 4.7919 15.0909C5.51334 15.0909 6.20769 14.0997 6.33941 13.9009C6.6045 13.5013 6.85263 13.0556 7.09577 12.5415C7.70813 12.3201 8.36072 12.155 8.99324 11.9953L9.21977 11.9377C9.39005 11.8944 9.56703 11.8466 9.74856 11.7969C9.94067 11.745 10.1383 11.6911 10.3392 11.6399C10.9887 12.053 11.6871 12.3224 12.3683 12.4213C12.942 12.5047 13.4516 12.4563 13.7965 12.2765C14.1069 12.1149 14.124 11.8654 14.1168 11.7657ZM15.514 16.3093C15.514 17.2769 14.6611 17.3366 14.489 17.3385H3.48517C2.521 17.3385 2.46294 16.4798 2.4611 16.3093L2.46097 1.69039C2.46097 0.721755 3.31542 0.66303 3.48504 0.661086H10.9183L10.9223 0.66501V3.56578C10.9223 4.14793 11.2742 5.2501 12.6071 5.2501H15.4891L15.5139 5.27481L15.514 16.3093ZM14.8307 4.58892H12.6076C11.6437 4.58892 11.5854 3.73486 11.5841 3.56588V1.32888L14.8307 4.58892ZM16.1751 16.3093V5.00206L11.5841 0.39196V0.370511H11.5621L11.1934 0H3.4852C2.90228 0 1.79999 0.353401 1.79999 1.6907V16.3096C1.79999 16.8942 2.15232 18 3.4852 18H14.49C15.0728 17.9999 16.1751 17.6464 16.1751 16.3093Z" fill="#EB5757"/>
</svg>
