<svg width="26" height="29" viewBox="0 0 26 29" fill="none" xmlns="http://www.w3.org/2000/svg">
<path d="M23.8971 29H2.10294C0.941519 29 0 28.0726 0 26.9286V2.07143C0 0.927411 0.941519 0 2.10294 0H16.25L26 9.6039V26.9286C26 28.0726 25.0585 29 23.8971 29Z" fill="#F9626B"/>
<path opacity="0.12" fill-rule="evenodd" clip-rule="evenodd" d="M19.0217 13.0879H6.97754V11.958H19.0217V13.0879ZM19.0217 15.9126H6.97754V14.7827H19.0217V15.9126ZM6.97754 18.7372H19.0217V17.6074H6.97754V18.7372ZM19.0217 21.5619H6.97754V20.432H19.0217V21.5619ZM6.97754 24.3866H19.0217V23.2567H6.97754V24.3866Z" fill="white"/>
<path d="M5.94724 20.4694C5.85158 20.4694 5.77104 20.4372 5.70559 20.3727C5.64014 20.3082 5.60742 20.2289 5.60742 20.1346V15.5824C5.60742 15.4881 5.64014 15.4089 5.70559 15.3444C5.77104 15.275 5.85158 15.2402 5.94724 15.2402H7.66897C8.14723 15.2402 8.53739 15.3196 8.83945 15.4783C9.14151 15.6369 9.35799 15.8403 9.48888 16.0882C9.61974 16.3361 9.68522 16.6039 9.68522 16.8915C9.68522 17.1792 9.61974 17.447 9.48888 17.6949C9.35799 17.9428 9.14151 18.1462 8.83945 18.3048C8.53739 18.4635 8.14723 18.5428 7.66897 18.5428H6.29461V20.1346C6.29461 20.2289 6.25936 20.3082 6.18889 20.3727C6.12344 20.4372 6.04289 20.4694 5.94724 20.4694ZM7.60101 17.9031C8.11451 17.9031 8.47447 17.8065 8.68087 17.6131C8.89231 17.4197 8.99803 17.1792 8.99803 16.8915C8.99803 16.6039 8.89231 16.3634 8.68087 16.17C8.47447 15.9766 8.11451 15.8799 7.60101 15.8799H6.29461V17.9031H7.60101ZM11.5495 20.4322C11.4538 20.4322 11.3733 20.4 11.3078 20.3355C11.2423 20.271 11.2097 20.1917 11.2097 20.0975V15.5824C11.2097 15.4881 11.2423 15.4089 11.3078 15.3444C11.3733 15.275 11.4538 15.2402 11.5495 15.2402H13.0673C13.6412 15.2402 14.127 15.3667 14.5248 15.6196C14.9275 15.8675 15.2295 16.1899 15.4309 16.5866C15.6323 16.9832 15.733 17.3998 15.733 17.8362C15.733 18.2726 15.6323 18.6892 15.4309 19.0858C15.2295 19.4825 14.9275 19.8074 14.5248 20.0603C14.127 20.3082 13.6412 20.4322 13.0673 20.4322H11.5495ZM12.9843 19.7999C13.3971 19.7999 13.7596 19.7181 14.0717 19.5545C14.3838 19.3858 14.6254 19.1552 14.7966 18.8627C14.9678 18.5652 15.0534 18.223 15.0534 17.8362C15.0534 17.4494 14.9678 17.1097 14.7966 16.8172C14.6254 16.5196 14.3838 16.289 14.0717 16.1254C13.7596 15.9568 13.3971 15.8725 12.9843 15.8725H11.8968V19.7999H12.9843ZM17.749 20.4694C17.6535 20.4694 17.5729 20.4372 17.5074 20.3727C17.442 20.3082 17.4092 20.2289 17.4092 20.1346V15.5824C17.4092 15.4881 17.442 15.4089 17.5074 15.3444C17.5729 15.275 17.6535 15.2402 17.749 15.2402H20.6866C20.7772 15.2402 20.8527 15.2724 20.9131 15.3369C20.9786 15.3964 21.0113 15.4708 21.0113 15.5601C21.0113 15.6493 20.9786 15.7237 20.9131 15.7832C20.8527 15.8427 20.7772 15.8725 20.6866 15.8725H18.0964V17.5164H20.4223C20.5129 17.5164 20.5884 17.5486 20.6488 17.6131C20.7143 17.6726 20.747 17.7469 20.747 17.8362C20.747 17.9255 20.7143 17.9998 20.6488 18.0594C20.5884 18.1189 20.5129 18.1486 20.4223 18.1486H18.0964V20.1346C18.0964 20.2289 18.0612 20.3082 17.9907 20.3727C17.9253 20.4372 17.8447 20.4694 17.749 20.4694Z" fill="white"/>
<path d="M5.70536 20.3725L5.84054 20.2394L5.70536 20.3725ZM5.70536 15.3442L5.84054 15.4773L5.84305 15.4749L5.84546 15.4724L5.70536 15.3442ZM8.83922 15.4781L8.92919 15.3119L8.83922 15.4781ZM9.48865 16.088L9.31904 16.1749L9.48865 16.088ZM9.48865 17.6947L9.31904 17.6078L9.48865 17.6947ZM8.83922 18.3047L8.92919 18.4708L8.83922 18.3047ZM6.29438 18.5427V18.3544H6.1032V18.5427H6.29438ZM6.18866 20.3725L6.05857 20.2345L6.05598 20.2369L6.05347 20.2394L6.18866 20.3725ZM8.68064 17.6129L8.55055 17.4749L8.54971 17.4757L8.54888 17.4765L8.68064 17.6129ZM8.68064 16.1699L8.54888 16.3063L8.54971 16.307L8.55055 16.3079L8.68064 16.1699ZM6.29438 15.8798V15.6915H6.1032V15.8798H6.29438ZM6.29438 17.903H6.1032V18.0913H6.29438V17.903ZM5.94701 20.2809C5.90016 20.2809 5.86882 20.2672 5.84054 20.2394L5.57018 20.5056C5.67279 20.6068 5.80255 20.6575 5.94701 20.6575V20.2809ZM5.84054 20.2394C5.81227 20.2115 5.79837 20.1806 5.79837 20.1345H5.41602C5.41602 20.2767 5.46757 20.4046 5.57018 20.5056L5.84054 20.2394ZM5.79837 20.1345V15.5822H5.41602V20.1345H5.79837ZM5.79837 15.5822C5.79837 15.5361 5.81227 15.5052 5.84054 15.4773L5.57018 15.2111C5.46757 15.3121 5.41602 15.44 5.41602 15.5822H5.79837ZM5.84546 15.4724C5.87495 15.4411 5.90485 15.4284 5.94701 15.4284V15.0518C5.79786 15.0518 5.66666 15.1085 5.56527 15.2161L5.84546 15.4724ZM5.94701 15.4284H7.66874V15.0518H5.94701V15.4284ZM7.66874 15.4284C8.1274 15.4284 8.48368 15.5047 8.74925 15.6443L8.92919 15.3119C8.59064 15.1341 8.16662 15.0518 7.66874 15.0518V15.4284ZM8.74925 15.6443C9.0244 15.7888 9.20936 15.9671 9.31904 16.1749L9.65822 16.0011C9.50615 15.713 9.25816 15.4848 8.92919 15.3119L8.74925 15.6443ZM9.31904 16.1749C9.43534 16.3953 9.49381 16.6331 9.49381 16.8914H9.87616C9.87616 16.5744 9.80371 16.2767 9.65822 16.0011L9.31904 16.1749ZM9.49381 16.8914C9.49381 17.1496 9.43534 17.3875 9.31904 17.6078L9.65822 17.7816C9.80371 17.506 9.87616 17.2083 9.87616 16.8914H9.49381ZM9.31904 17.6078C9.20936 17.8156 9.0244 17.9939 8.74925 18.1385L8.92919 18.4708C9.25816 18.298 9.50615 18.0697 9.65822 17.7816L9.31904 17.6078ZM8.74925 18.1385C8.48368 18.278 8.1274 18.3544 7.66874 18.3544V18.731C8.16662 18.731 8.59064 18.6487 8.92919 18.4708L8.74925 18.1385ZM7.66874 18.3544H6.29438V18.731H7.66874V18.3544ZM6.1032 18.5427V20.1345H6.48555V18.5427H6.1032ZM6.1032 20.1345C6.1032 20.176 6.09034 20.2055 6.05857 20.2345L6.31874 20.5105C6.42793 20.4106 6.48555 20.2814 6.48555 20.1345H6.1032ZM6.05347 20.2394C6.0252 20.2672 5.99386 20.2809 5.94701 20.2809V20.6575C6.09147 20.6575 6.22122 20.6068 6.32384 20.5056L6.05347 20.2394ZM7.60078 18.0913C8.12766 18.0913 8.55107 17.9942 8.8124 17.7493L8.54888 17.4765C8.3974 17.6184 8.1009 17.7147 7.60078 17.7147V18.0913ZM8.81073 17.7509C9.06165 17.5214 9.18898 17.2306 9.18898 16.8914H8.80663C8.80663 17.1273 8.72252 17.3176 8.55055 17.4749L8.81073 17.7509ZM9.18898 16.8914C9.18898 16.5521 9.06165 16.2614 8.81073 16.0318L8.55055 16.3079C8.72252 16.4651 8.80663 16.6554 8.80663 16.8914H9.18898ZM8.8124 16.0334C8.55107 15.7885 8.12766 15.6915 7.60078 15.6915V16.0681C8.1009 16.0681 8.3974 16.1644 8.54888 16.3063L8.8124 16.0334ZM7.60078 15.6915H6.29438V16.0681H7.60078V15.6915ZM6.1032 15.8798V17.903H6.48555V15.8798H6.1032ZM6.29438 18.0913H7.60078V17.7147H6.29438V18.0913ZM11.3076 20.3353L11.4428 20.2022L11.3076 20.3353ZM11.3076 15.3442L11.4428 15.4773L11.4453 15.4749L11.4477 15.4724L11.3076 15.3442ZM14.5245 15.6194L14.4208 15.7776L14.4221 15.7784L14.4232 15.7791L14.5245 15.6194ZM15.4307 16.5864L15.2597 16.6706L15.4307 16.5864ZM15.4307 19.0857L15.2597 19.0015L15.4307 19.0857ZM14.5245 20.0601L14.6268 20.2192L14.6273 20.2188L14.5245 20.0601ZM14.0714 19.5543L14.1613 19.7205L14.1623 19.72L14.1634 19.7194L14.0714 19.5543ZM14.7964 18.8625L14.962 18.9566L14.9624 18.9559L14.9627 18.9554L14.7964 18.8625ZM14.7964 16.817L14.6301 16.9098L14.6304 16.9104L14.6307 16.9111L14.7964 16.817ZM14.0714 16.1252L13.9795 16.2904L13.9805 16.2909L13.9816 16.2914L14.0714 16.1252ZM11.8966 15.8723V15.684H11.7054V15.8723H11.8966ZM11.8966 19.7998H11.7054V19.9881H11.8966V19.7998ZM11.5492 20.2437C11.5024 20.2437 11.4711 20.23 11.4428 20.2022L11.1724 20.4684C11.275 20.5696 11.4048 20.6203 11.5492 20.6203V20.2437ZM11.4428 20.2022C11.4146 20.1743 11.4006 20.1434 11.4006 20.0973H11.0183C11.0183 20.2396 11.0698 20.3674 11.1724 20.4684L11.4428 20.2022ZM11.4006 20.0973V15.5822H11.0183V20.0973H11.4006ZM11.4006 15.5822C11.4006 15.5361 11.4146 15.5052 11.4428 15.4773L11.1724 15.2111C11.0698 15.3121 11.0183 15.44 11.0183 15.5822H11.4006ZM11.4477 15.4724C11.4772 15.4411 11.5071 15.4284 11.5492 15.4284V15.0518C11.4001 15.0518 11.2689 15.1085 11.1676 15.2161L11.4477 15.4724ZM11.5492 15.4284H13.0671V15.0518H11.5492V15.4284ZM13.0671 15.4284C13.6121 15.4284 14.0601 15.5482 14.4208 15.7776L14.6282 15.4612C14.1936 15.1848 13.67 15.0518 13.0671 15.0518V15.4284ZM14.4232 15.7791C14.7978 16.0097 15.0749 16.3067 15.2597 16.6706L15.6017 16.5022C15.3838 16.0728 15.0568 15.725 14.6258 15.4597L14.4232 15.7791ZM15.2597 16.6706C15.448 17.0416 15.5416 17.4294 15.5416 17.836H15.9239C15.9239 17.37 15.8161 16.9246 15.6017 16.5022L15.2597 16.6706ZM15.5416 17.836C15.5416 18.2427 15.448 18.6304 15.2597 19.0015L15.6017 19.1699C15.8161 18.7475 15.9239 18.3021 15.9239 17.836H15.5416ZM15.2597 19.0015C15.0747 19.3658 14.7971 19.6656 14.4218 19.9013L14.6273 20.2188C15.0573 19.9488 15.384 19.5989 15.6017 19.1699L15.2597 19.0015ZM14.4223 19.901C14.0613 20.126 13.6128 20.2437 13.0671 20.2437V20.6203C13.6692 20.6203 14.1924 20.49 14.6268 20.2192L14.4223 19.901ZM13.0671 20.2437H11.5492V20.6203H13.0671V20.2437ZM12.984 19.9881C13.4229 19.9881 13.8172 19.9009 14.1613 19.7205L13.9816 19.3881C13.7014 19.535 13.3708 19.6114 12.984 19.6114V19.9881ZM14.1634 19.7194C14.505 19.5349 14.7727 19.2802 14.962 18.9566L14.6307 18.7685C14.4778 19.03 14.2621 19.2365 13.9795 19.3891L14.1634 19.7194ZM14.9627 18.9554C15.1523 18.626 15.2443 18.2511 15.2443 17.836H14.8619C14.8619 18.1946 14.7829 18.504 14.6301 18.7697L14.9627 18.9554ZM15.2443 17.836C15.2443 17.4211 15.1523 17.048 14.962 16.7229L14.6307 16.9111C14.7829 17.171 14.8619 17.4774 14.8619 17.836H15.2443ZM14.9627 16.7242C14.7733 16.3949 14.5048 16.1392 14.1613 15.959L13.9816 16.2914C14.2623 16.4386 14.4771 16.644 14.6301 16.9098L14.9627 16.7242ZM14.1634 15.9601C13.8189 15.774 13.4238 15.684 12.984 15.684V16.0606C13.3699 16.0606 13.6998 16.1393 13.9795 16.2904L14.1634 15.9601ZM12.984 15.684H11.8966V16.0606H12.984V15.684ZM11.7054 15.8723V19.7998H12.0878V15.8723H11.7054ZM11.8966 19.9881H12.984V19.6114H11.8966V19.9881ZM17.5072 20.3725L17.6423 20.2394L17.5072 20.3725ZM17.5072 15.3442L17.6423 15.4773L17.6449 15.4749L17.6473 15.4724L17.5072 15.3442ZM20.9129 15.3368L20.7725 15.4645L20.7776 15.47L20.7833 15.4752L20.9129 15.3368ZM20.9129 15.7831L20.7833 15.6447L20.7804 15.6473L20.7777 15.6499L20.9129 15.7831ZM18.0962 15.8723V15.684H17.905V15.8723H18.0962ZM18.0962 17.5162H17.905V17.7045H18.0962V17.5162ZM20.6486 17.6129L20.5082 17.7407L20.5133 17.7461L20.519 17.7513L20.6486 17.6129ZM20.6486 18.0592L20.519 17.9208L20.5161 17.9234L20.5134 17.9261L20.6486 18.0592ZM18.0962 18.1484V17.9601H17.905V18.1484H18.0962ZM17.9905 20.3725L17.8604 20.2345L17.8578 20.2369L17.8553 20.2394L17.9905 20.3725ZM17.7488 20.2809C17.702 20.2809 17.6706 20.2672 17.6423 20.2394L17.372 20.5056C17.4747 20.6068 17.6044 20.6575 17.7488 20.6575V20.2809ZM17.6423 20.2394C17.6141 20.2115 17.6002 20.1806 17.6002 20.1345H17.2178C17.2178 20.2767 17.2694 20.4046 17.372 20.5056L17.6423 20.2394ZM17.6002 20.1345V15.5822H17.2178V20.1345H17.6002ZM17.6002 15.5822C17.6002 15.5361 17.6141 15.5052 17.6423 15.4773L17.372 15.2111C17.2694 15.3121 17.2178 15.44 17.2178 15.5822H17.6002ZM17.6473 15.4724C17.6767 15.4411 17.7067 15.4284 17.7488 15.4284V15.0518C17.5997 15.0518 17.4685 15.1085 17.3671 15.2161L17.6473 15.4724ZM17.7488 15.4284H20.6863V15.0518H17.7488V15.4284ZM20.6863 15.4284C20.7247 15.4284 20.7489 15.4394 20.7725 15.4645L21.0534 15.209C20.9561 15.1052 20.8292 15.0518 20.6863 15.0518V15.4284ZM20.7833 15.4752C20.8087 15.4983 20.8199 15.5222 20.8199 15.5599H21.2022C21.2022 15.4192 21.148 15.2942 21.0426 15.1984L20.7833 15.4752ZM20.8199 15.5599C20.8199 15.5977 20.8087 15.6215 20.7833 15.6447L21.0426 15.9215C21.148 15.8256 21.2022 15.7007 21.2022 15.5599H20.8199ZM20.7777 15.6499C20.7555 15.6718 20.7297 15.684 20.6863 15.684V16.0606C20.8243 16.0606 20.9495 16.0134 21.048 15.9162L20.7777 15.6499ZM20.6863 15.684H18.0962V16.0606H20.6863V15.684ZM17.905 15.8723V17.5162H18.2874V15.8723H17.905ZM18.0962 17.7045H20.422V17.3279H18.0962V17.7045ZM20.422 17.7045C20.4604 17.7045 20.4846 17.7155 20.5082 17.7407L20.7891 17.4851C20.6918 17.3814 20.5649 17.3279 20.422 17.3279V17.7045ZM20.519 17.7513C20.5444 17.7745 20.5556 17.7983 20.5556 17.836H20.9379C20.9379 17.6953 20.8837 17.5703 20.7783 17.4745L20.519 17.7513ZM20.5556 17.836C20.5556 17.8738 20.5444 17.8976 20.519 17.9208L20.7783 18.1976C20.8837 18.1017 20.9379 17.9768 20.9379 17.836H20.5556ZM20.5134 17.9261C20.4912 17.9479 20.4654 17.9601 20.422 17.9601V18.3368C20.56 18.3368 20.6852 18.2895 20.7837 18.1923L20.5134 17.9261ZM20.422 17.9601H18.0962V18.3368H20.422V17.9601ZM17.905 18.1484V20.1345H18.2874V18.1484H17.905ZM17.905 20.1345C17.905 20.176 17.8922 20.2055 17.8604 20.2345L18.1206 20.5105C18.2297 20.4106 18.2874 20.2814 18.2874 20.1345H17.905ZM17.8553 20.2394C17.827 20.2672 17.7956 20.2809 17.7488 20.2809V20.6575C17.8933 20.6575 18.0231 20.6068 18.1256 20.5056L17.8553 20.2394Z" fill="white"/>
<mask id="mask0_66_78808" style="mask-type:alpha" maskUnits="userSpaceOnUse" x="0" y="0" width="26" height="29">
<path d="M23.8971 29H2.10294C0.941519 29 0 28.0726 0 26.9286V2.07143C0 0.927411 0.941519 0 2.10294 0H16.25L26 9.6039V26.9286C26 28.0726 25.0585 29 23.8971 29Z" fill="url(#paint0_linear_66_78808)"/>
</mask>
<g mask="url(#mask0_66_78808)">
<g filter="url(#filter0_d_66_78808)">
<path d="M26 9.6039H18.3529C17.1915 9.6039 16.25 8.67649 16.25 7.53247V0L26 9.6039Z" fill="url(#paint1_linear_66_78808)"/>
</g>
</g>
<defs>
<filter id="filter0_d_66_78808" x="-6.75" y="-24" width="59.75" height="59.6035" filterUnits="userSpaceOnUse" color-interpolation-filters="sRGB">
<feFlood flood-opacity="0" result="BackgroundImageFix"/>
<feColorMatrix in="SourceAlpha" type="matrix" values="0 0 0 0 0 0 0 0 0 0 0 0 0 0 0 0 0 0 127 0" result="hardAlpha"/>
<feOffset dx="2" dy="1"/>
<feGaussianBlur stdDeviation="12.5"/>
<feColorMatrix type="matrix" values="0 0 0 0 0 0 0 0 0 0 0 0 0 0 0 0 0 0 0.33 0"/>
<feBlend mode="normal" in2="BackgroundImageFix" result="effect1_dropShadow_66_78808"/>
<feBlend mode="normal" in="SourceGraphic" in2="effect1_dropShadow_66_78808" result="shape"/>
</filter>
<linearGradient id="paint0_linear_66_78808" x1="13" y1="0" x2="13" y2="29" gradientUnits="userSpaceOnUse">
<stop stop-color="#FF7981"/>
<stop offset="1" stop-color="#E85567"/>
</linearGradient>
<linearGradient id="paint1_linear_66_78808" x1="21.125" y1="0" x2="21.125" y2="9.6039" gradientUnits="userSpaceOnUse">
<stop stop-color="#D03954"/>
<stop offset="1" stop-color="#C02A3C"/>
</linearGradient>
</defs>
</svg>
