<svg width="17" height="17" viewBox="0 0 17 17" fill="none" xmlns="http://www.w3.org/2000/svg">
<path d="M6.76758 13.5195H3.76758C3.63497 13.5195 3.5078 13.4668 3.41403 13.373C3.32026 13.2793 3.26758 13.1521 3.26758 13.0195V10.2257C3.26735 10.1608 3.27993 10.0965 3.3046 10.0364C3.32927 9.97635 3.36554 9.92175 3.41133 9.87573L10.9113 2.37573C10.9579 2.32848 11.0133 2.29097 11.0745 2.26536C11.1356 2.23975 11.2013 2.22656 11.2676 2.22656C11.3339 2.22656 11.3995 2.23975 11.4607 2.26536C11.5219 2.29097 11.5773 2.32848 11.6238 2.37573L14.4113 5.16323C14.4586 5.20975 14.4961 5.26521 14.5217 5.32637C14.5473 5.38753 14.5605 5.45317 14.5605 5.51948C14.5605 5.58578 14.5473 5.65142 14.5217 5.71258C14.4961 5.77375 14.4586 5.8292 14.4113 5.87573L6.76758 13.5195Z" stroke="#555555" stroke-width="1.2" stroke-linecap="round" stroke-linejoin="round"/>
<path d="M9.26758 4.01953L12.7676 7.51953" stroke="#555555" stroke-width="1.2" stroke-linecap="round" stroke-linejoin="round"/>
<path d="M14.2676 13.5195H6.76758" stroke="#555555" stroke-width="1.2" stroke-linecap="round" stroke-linejoin="round"/>
</svg>
