<svg width="16" height="17" viewBox="0 0 16 17" fill="none" xmlns="http://www.w3.org/2000/svg">
<path d="M6 13.8164H3C2.86739 13.8164 2.74022 13.7637 2.64645 13.6699C2.55268 13.5761 2.5 13.449 2.5 13.3164V10.5226C2.49978 10.4577 2.51236 10.3933 2.53702 10.3333C2.56169 10.2732 2.59796 10.2186 2.64375 10.1726L10.1438 2.6726C10.1903 2.62536 10.2457 2.58784 10.3069 2.56223C10.3681 2.53663 10.4337 2.52344 10.5 2.52344C10.5663 2.52344 10.632 2.53663 10.6931 2.56223C10.7543 2.58784 10.8097 2.62536 10.8563 2.6726L13.6438 5.4601C13.691 5.50663 13.7285 5.56208 13.7541 5.62324C13.7797 5.6844 13.7929 5.75005 13.7929 5.81635C13.7929 5.88266 13.7797 5.9483 13.7541 6.00946C13.7285 6.07062 13.691 6.12608 13.6438 6.1726L6 13.8164Z" stroke="#555555" stroke-width="1.2" stroke-linecap="round" stroke-linejoin="round"/>
<path d="M8.5 4.3125L12 7.8125" stroke="#555555" stroke-width="1.2" stroke-linecap="round" stroke-linejoin="round"/>
<path d="M13.5 13.8125H6" stroke="#555555" stroke-width="1.2" stroke-linecap="round" stroke-linejoin="round"/>
</svg>
