<svg width="17" height="17" viewBox="0 0 17 17" fill="none" xmlns="http://www.w3.org/2000/svg">
<path d="M6.53125 13.9133H3.57813C3.44759 13.9133 3.3224 13.8615 3.2301 13.7692C3.1378 13.6769 3.08594 13.5517 3.08594 13.4212V10.6711C3.08572 10.6071 3.0981 10.5438 3.12238 10.4847C3.14666 10.4256 3.18236 10.3718 3.22744 10.3265L10.6103 2.94371C10.6561 2.8972 10.7106 2.86027 10.7708 2.83507C10.8311 2.80986 10.8957 2.79687 10.9609 2.79688C11.0262 2.79687 11.0908 2.80986 11.151 2.83507C11.2112 2.86027 11.2658 2.8972 11.3116 2.94371L14.0556 5.68765C14.1021 5.73345 14.139 5.78804 14.1642 5.84825C14.1894 5.90845 14.2024 5.97307 14.2024 6.03834C14.2024 6.10361 14.1894 6.16822 14.1642 6.22843C14.139 6.28863 14.1021 6.34322 14.0556 6.38902L6.53125 13.9133Z" stroke="#645DF6" strokeWidth="1.2" strokeLinecap="round" strokeLinejoin="round"/>
<path d="M8.99219 4.5625L12.4375 8.00781" stroke="#645DF6" strokeWidth="1.2" strokeLinecap="round" strokeLinejoin="round"/>
<path d="M13.9141 13.9141H6.53125" stroke="#645DF6" strokeWidth="1.2" strokeLinecap="round" strokeLinejoin="round"/>
</svg>
