<svg width="17" height="17" viewBox="0 0 17 17" fill="none" xmlns="http://www.w3.org/2000/svg">
<path d="M6.53125 13.9138H3.57813C3.44759 13.9138 3.3224 13.862 3.2301 13.7697C3.1378 13.6774 3.08594 13.5522 3.08594 13.4216V10.6715C3.08572 10.6076 3.0981 10.5443 3.12238 10.4852C3.14666 10.4261 3.18236 10.3723 3.22744 10.327L10.6103 2.9442C10.6561 2.89769 10.7106 2.86076 10.7708 2.83555C10.8311 2.81035 10.8957 2.79736 10.9609 2.79736C11.0262 2.79736 11.0908 2.81035 11.151 2.83555C11.2112 2.86076 11.2658 2.89769 11.3116 2.9442L14.0556 5.68814C14.1021 5.73394 14.139 5.78853 14.1642 5.84873C14.1894 5.90894 14.2024 5.97356 14.2024 6.03883C14.2024 6.1041 14.1894 6.16871 14.1642 6.22892C14.139 6.28912 14.1021 6.34371 14.0556 6.38951L6.53125 13.9138Z" stroke="#333333" stroke-width="1.2" stroke-linecap="round" stroke-linejoin="round"/>
<path d="M8.99219 4.5625L12.4375 8.00781" stroke="#333333" stroke-width="1.2" stroke-linecap="round" stroke-linejoin="round"/>
<path d="M13.9141 13.9141H6.53125" stroke="#333333" stroke-width="1.2" stroke-linecap="round" stroke-linejoin="round"/>
</svg>
