<svg width="17" height="17" viewBox="0 0 17 17" fill="none" xmlns="http://www.w3.org/2000/svg">
<path d="M2.42913 9.71415L9.1077 9.71475C9.74752 9.71475 10.2723 10.2099 10.3187 10.8384L10.322 10.929V12.4463C10.3214 14.9963 7.71917 15.7856 5.76842 15.7856C3.85668 15.7856 1.3187 15.0275 1.21794 12.5972L1.21484 12.4463V10.9284C1.21484 10.2886 1.71051 9.76386 2.33855 9.71748L2.42913 9.71415ZM14.572 9.71415L14.6626 9.71748C15.2592 9.76154 15.7364 10.2373 15.7826 10.8334L15.7863 10.9284V12.1427C15.7857 14.425 13.7038 15.1784 12.1434 15.1784C11.5011 15.1784 10.7719 15.0479 10.1344 14.7383C10.3275 14.5088 10.4908 14.2538 10.6183 13.9684C11.1997 14.2234 11.8271 14.2631 12.0923 14.2673L12.2675 14.2655C12.8963 14.2438 14.7752 14.0319 14.8717 12.2839L14.8756 12.1427V10.9284C14.8756 10.7795 14.7676 10.6555 14.6264 10.6298L14.572 10.6249L10.8982 10.6255C10.8472 10.3211 10.7199 10.0441 10.5372 9.81161L10.4556 9.71475L14.572 9.71415ZM2.42913 10.6249L2.36802 10.6309C2.2925 10.6463 2.24092 10.6873 2.2142 10.7135C2.18797 10.7402 2.14698 10.7914 2.13163 10.8671L2.12556 10.9284V12.4463C2.12556 13.2593 2.48195 13.8603 3.21538 14.2829C3.82031 14.6324 4.66605 14.8432 5.56108 14.8716L5.76842 14.8749L6.03244 14.8687C6.95566 14.8274 9.29837 14.5307 9.40734 12.5873L9.41127 12.4457V10.929C9.41127 10.7806 9.30334 10.6562 9.16209 10.6304L9.1077 10.6255L2.42913 10.6249ZM5.76842 1.82129C7.61292 1.82129 9.1077 3.31668 9.1077 5.16057C9.1077 7.00447 7.61292 8.49986 5.76842 8.49986C3.92392 8.49986 2.42913 7.00447 2.42913 5.16057C2.42913 3.31668 3.92392 1.82129 5.76842 1.82129ZM12.447 3.03557C13.9557 3.03557 15.1791 4.25897 15.1791 5.76772C15.1791 7.27647 13.9557 8.49986 12.447 8.49986C10.9382 8.49986 9.71484 7.27647 9.71484 5.76772C9.71484 4.25897 10.9382 3.03557 12.447 3.03557ZM5.76842 2.732C4.42906 2.732 3.33984 3.82122 3.33984 5.16057C3.33984 6.49993 4.42906 7.58915 5.76842 7.58915C7.10777 7.58915 8.19699 6.49993 8.19699 5.16057C8.19699 3.82122 7.10777 2.732 5.76842 2.732ZM12.447 3.94629C11.4428 3.94629 10.6256 4.7635 10.6256 5.76772C10.6256 6.77193 11.4428 7.58915 12.447 7.58915C13.4512 7.58915 14.2684 6.77193 14.2684 5.76772C14.2684 4.7635 13.4512 3.94629 12.447 3.94629Z" fill="#333333"/>
</svg>
