<svg width="15" height="15" viewBox="0 0 15 15" fill="none" xmlns="http://www.w3.org/2000/svg">
<path d="M1.42913 8.71415L8.1077 8.71475C8.74752 8.71475 9.27227 9.20987 9.31865 9.83838L9.32199 9.92904V11.4463C9.32138 13.9963 6.71917 14.7856 4.76842 14.7856C2.85668 14.7856 0.318696 14.0275 0.217941 11.5972L0.214844 11.4463V9.92843C0.214844 9.28861 0.710513 8.76386 1.33855 8.71748L1.42913 8.71415ZM13.572 8.71415L13.6626 8.71748C14.2592 8.76154 14.7364 9.23734 14.7826 9.83337L14.7863 9.92843V11.1427C14.7857 13.425 12.7038 14.1784 11.1434 14.1784C10.5011 14.1784 9.77188 14.0479 9.13438 13.7383C9.32745 13.5088 9.49077 13.2538 9.61827 12.9684C10.1997 13.2234 10.8271 13.2631 11.0923 13.2673L11.2675 13.2655C11.8963 13.2438 13.7752 13.0319 13.8717 11.2839L13.8756 11.1427V9.92843C13.8756 9.77948 13.7676 9.65547 13.6264 9.62975L13.572 9.62486L9.89816 9.62547C9.84717 9.32106 9.71993 9.04408 9.53721 8.81161L9.45556 8.71475L13.572 8.71415ZM1.42913 9.62486L1.36802 9.63093C1.2925 9.64628 1.24092 9.68727 1.2142 9.7135C1.18797 9.74022 1.14698 9.79141 1.13163 9.86709L1.12556 9.92843V11.4463C1.12556 12.2593 1.48195 12.8603 2.21538 13.2829C2.82031 13.6324 3.66605 13.8432 4.56108 13.8716L4.76842 13.8749L5.03244 13.8687C5.95566 13.8274 8.29837 13.5307 8.40734 11.5873L8.41127 11.4457V9.92904C8.41127 9.78063 8.30334 9.6562 8.16209 9.63038L8.1077 9.62547L1.42913 9.62486ZM4.76842 0.821289C6.61292 0.821289 8.1077 2.31668 8.1077 4.16057C8.1077 6.00447 6.61292 7.49986 4.76842 7.49986C2.92392 7.49986 1.42913 6.00447 1.42913 4.16057C1.42913 2.31668 2.92392 0.821289 4.76842 0.821289ZM11.447 2.03557C12.9557 2.03557 14.1791 3.25897 14.1791 4.76772C14.1791 6.27647 12.9557 7.49986 11.447 7.49986C9.93824 7.49986 8.71484 6.27647 8.71484 4.76772C8.71484 3.25897 9.93824 2.03557 11.447 2.03557ZM4.76842 1.732C3.42906 1.732 2.33984 2.82122 2.33984 4.16057C2.33984 5.49993 3.42906 6.58915 4.76842 6.58915C6.10777 6.58915 7.19699 5.49993 7.19699 4.16057C7.19699 2.82122 6.10777 1.732 4.76842 1.732ZM11.447 2.94629C10.4428 2.94629 9.62556 3.7635 9.62556 4.76772C9.62556 5.77193 10.4428 6.58915 11.447 6.58915C12.4512 6.58915 13.2684 5.77193 13.2684 4.76772C13.2684 3.7635 12.4512 2.94629 11.447 2.94629Z" fill="white"/>
</svg>
