<svg width="86" height="44" viewBox="0 0 86 44" fill="none" xmlns="http://www.w3.org/2000/svg">
<rect width="86" height="44" rx="6" fill="#645DF6"/>
<path d="M39.9492 21.725C40.6567 23.1859 41.838 24.3642 43.3008 25.0679C43.4087 25.119 43.528 25.1411 43.6471 25.1321C43.7661 25.1231 43.8807 25.0832 43.9797 25.0164L46.1281 23.5812C46.223 23.5168 46.3327 23.4776 46.4469 23.467C46.5612 23.4565 46.6762 23.4751 46.7812 23.5211L50.8031 25.2484C50.9406 25.3056 51.0554 25.4064 51.13 25.5353C51.2045 25.6642 51.2346 25.814 51.2156 25.9617C51.0882 26.9566 50.6025 27.871 49.8496 28.5338C49.0967 29.1965 48.1281 29.5622 47.125 29.5625C44.0253 29.5625 41.0525 28.3311 38.8607 26.1393C36.6689 23.9474 35.4375 20.9747 35.4375 17.875C35.4377 16.8719 35.8034 15.9033 36.4662 15.1504C37.129 14.3974 38.0433 13.9118 39.0383 13.7843C39.186 13.7654 39.3358 13.7955 39.4647 13.87C39.5935 13.9445 39.6944 14.0594 39.7516 14.1968L41.4789 18.2273C41.5238 18.3307 41.5426 18.4436 41.5336 18.556C41.5246 18.6684 41.4881 18.7769 41.4273 18.8718L39.9922 21.0547C39.9283 21.1534 39.8908 21.2668 39.8833 21.3842C39.8757 21.5016 39.8985 21.6189 39.9492 21.725V21.725Z" stroke="white" stroke-width="1.5" stroke-linecap="round" stroke-linejoin="round"/>
</svg>
