<svg width="14" height="15" viewBox="0 0 14 15" fill="none" xmlns="http://www.w3.org/2000/svg">
<path d="M4.39258 7.78751C4.93925 8.91642 5.85211 9.82694 6.98242 10.3707C7.0658 10.4102 7.15802 10.4273 7.25001 10.4203C7.34199 10.4133 7.43057 10.3825 7.50703 10.3309L9.16719 9.22188C9.24054 9.17213 9.32529 9.14178 9.41355 9.13365C9.5018 9.12552 9.59067 9.13988 9.67188 9.1754L12.7797 10.5102C12.8859 10.5544 12.9746 10.6323 13.0322 10.7319C13.0898 10.8315 13.1131 10.9472 13.0984 11.0613C12.9999 11.8301 12.6247 12.5367 12.0429 13.0489C11.4611 13.561 10.7126 13.8436 9.9375 13.8438C7.54226 13.8438 5.24513 12.8923 3.55144 11.1986C1.85775 9.50488 0.90625 7.20774 0.90625 4.81251C0.906425 4.03741 1.18902 3.28894 1.70115 2.70713C2.21328 2.12533 2.91986 1.75007 3.68867 1.65157C3.80278 1.63691 3.91855 1.66017 4.01814 1.71777C4.11774 1.77536 4.19564 1.8641 4.23984 1.97032L5.57461 5.08477C5.60932 5.16469 5.62384 5.25192 5.61689 5.33877C5.60994 5.42563 5.58174 5.50944 5.53477 5.58282L4.42578 7.26954C4.37641 7.34583 4.34743 7.43351 4.34162 7.52419C4.3358 7.61488 4.35335 7.70554 4.39258 7.78751V7.78751Z" stroke="#2D50C8" stroke-width="1.5" stroke-linecap="round" stroke-linejoin="round"/>
</svg>
