<svg width="23" height="23" viewBox="0 0 23 23" fill="none" xmlns="http://www.w3.org/2000/svg">
<path d="M8.31055 11.2116C9.05016 12.739 10.2852 13.9709 11.8145 14.7066C11.9273 14.76 12.052 14.7831 12.1765 14.7736C12.3009 14.7642 12.4208 14.7225 12.5242 14.6527L14.7703 13.1523C14.8695 13.085 14.9842 13.0439 15.1036 13.0329C15.223 13.0219 15.3433 13.0413 15.4531 13.0894L19.6578 14.8952C19.8015 14.955 19.9216 15.0604 19.9995 15.1952C20.0774 15.3299 20.1089 15.4866 20.0891 15.6409C19.9558 16.6811 19.4481 17.6371 18.6609 18.3299C17.8738 19.0228 16.8612 19.4052 15.8125 19.4054C12.5719 19.4054 9.464 18.1181 7.17254 15.8266C4.88108 13.5351 3.59375 10.4273 3.59375 7.18664C3.59399 6.13799 3.97632 5.12534 4.6692 4.3382C5.36209 3.55105 6.31805 3.04335 7.3582 2.91008C7.51259 2.89025 7.66921 2.92172 7.80396 2.99964C7.9387 3.07757 8.04409 3.19763 8.10391 3.34133L9.90977 7.555C9.95673 7.66313 9.97637 7.78114 9.96697 7.89865C9.95757 8.01616 9.91941 8.12955 9.85586 8.22883L8.35547 10.5109C8.28867 10.6141 8.24947 10.7327 8.2416 10.8554C8.23374 10.9781 8.25747 11.1007 8.31055 11.2116V11.2116Z" stroke="white" stroke-width="1.5" stroke-linecap="round" stroke-linejoin="round"/>
<path d="M15.0938 4.3125H18.6875V7.90625" stroke="white" stroke-width="1.5" stroke-linecap="round" stroke-linejoin="round"/>
<path d="M14.375 8.625L18.6875 4.3125" stroke="white" stroke-width="1.5" stroke-linecap="round" stroke-linejoin="round"/>
</svg>
