<svg width="67" height="22" viewBox="0 0 67 22" fill="none" xmlns="http://www.w3.org/2000/svg">
<path d="M19.2679 12.7397C20.3916 7.98976 17.4448 3.22996 12.6859 2.10836C7.92711 0.986752 3.15837 3.92807 2.03466 8.67798C0.910948 13.4279 3.85779 18.1877 8.61662 19.3093C13.3754 20.4309 18.1442 17.4896 19.2679 12.7397Z" fill="#645DF6"/>
<path d="M46.5721 15.7583V12.5492C46.5721 11.7594 46.2751 11.3645 45.5333 11.3645C45.2366 11.3645 44.8902 11.4139 44.6925 11.4633V16.1532C44.6925 16.3014 44.5443 16.4496 44.3958 16.4496H43.258C43.1098 16.4496 42.9614 16.3017 42.9614 16.1532V10.6734C42.9614 10.4758 43.1095 10.3276 43.258 10.2785C44.0002 10.0315 44.742 9.8833 45.5333 9.8833C47.3139 9.8833 48.3032 10.8213 48.3032 12.5492V16.2026C48.3032 16.3505 48.155 16.499 48.0065 16.499H47.3139C46.8688 16.499 46.5721 16.1532 46.5721 15.7583ZM51.0236 13.8331L50.9741 14.2774C50.9741 14.8696 51.3698 15.2151 52.0129 15.2151C52.5076 15.2151 52.9524 15.0672 53.4474 14.8202C53.4966 14.8202 53.5461 14.7708 53.5956 14.7708C53.6945 14.7708 53.7437 14.8202 53.7935 14.8696C53.843 14.919 53.9417 15.0672 53.9417 15.0672C54.0407 15.2151 54.1397 15.4127 54.1397 15.5609C54.1397 15.8077 53.9915 16.0547 53.7935 16.1532C53.2494 16.4496 52.6063 16.5975 51.9139 16.5975C51.1226 16.5975 50.4795 16.4002 49.9848 16.0053C49.4902 15.5609 49.1935 14.9684 49.1935 14.228V12.3022C49.1935 10.7716 50.1828 9.8339 51.8644 9.8339C53.4966 9.8339 54.4364 10.7225 54.4364 12.3022V13.487C54.4364 13.6352 54.2882 13.7834 54.1397 13.7834H51.0236V13.8331ZM50.9741 12.7468H52.8537V12.2531C52.8537 11.6606 52.5073 11.2657 51.9139 11.2657C51.3203 11.2657 50.9741 11.6115 50.9741 12.2531V12.7468ZM63.5869 13.8331L63.5374 14.2774C63.5374 14.8696 63.9331 15.2151 64.5759 15.2151C65.0709 15.2151 65.5157 15.0672 66.0104 14.8202C66.0599 14.8202 66.1094 14.7708 66.1586 14.7708C66.2579 14.7708 66.3073 14.8202 66.3565 14.8696C66.406 14.919 66.505 15.0672 66.505 15.0672C66.604 15.2151 66.703 15.4127 66.703 15.5609C66.703 15.8077 66.5545 16.0547 66.3565 16.1532C65.8127 16.4496 65.1696 16.5975 64.4772 16.5975C63.6859 16.5975 63.0428 16.4002 62.5481 16.0053C62.0535 15.5609 61.7568 14.9684 61.7568 14.228V12.3022C61.7568 10.7716 62.7461 9.8339 64.4277 9.8339C66.0599 9.8339 66.9997 10.7225 66.9997 12.3022V13.487C66.9997 13.6352 66.8515 13.7834 66.703 13.7834H63.5869V13.8331ZM63.5374 12.7468H65.417V12.2531C65.417 11.6606 65.0706 11.2657 64.4772 11.2657C63.8839 11.2657 63.5374 11.6115 63.5374 12.2531V12.7468ZM34.4539 16.499H35.1463C35.2948 16.499 35.4432 16.3508 35.4432 16.2026V12.5492C35.4432 10.8707 34.5529 9.8833 33.0693 9.8833C32.6238 9.8833 32.1292 9.9821 31.8325 10.0809V8.25423C31.8325 7.85931 31.4863 7.51379 31.0907 7.51379H30.3981C30.2499 7.51379 30.1014 7.6617 30.1014 7.80991V16.2026C30.1014 16.3505 30.2496 16.499 30.3981 16.499H31.5358C31.684 16.499 31.8322 16.3508 31.8322 16.2026V11.5621C32.0797 11.4633 32.4261 11.4139 32.6733 11.4139C33.4151 11.4139 33.7121 11.7594 33.7121 12.5986V15.8077C33.7616 16.1532 34.0583 16.499 34.4539 16.499ZM41.9226 12.3516V14.1786C41.9226 15.7089 40.8841 16.6469 39.1527 16.6469C37.471 16.6469 36.383 15.7092 36.383 14.1786V12.3519C36.383 10.8213 37.4215 9.8833 39.1527 9.8833C40.8841 9.8833 41.9226 10.8213 41.9226 12.3519V12.3516ZM40.1917 12.3516C40.1917 11.7594 39.845 11.3645 39.2021 11.3645C38.559 11.3645 38.2131 11.71 38.2131 12.3519V14.1786C38.2131 14.7708 38.5593 15.1163 39.2021 15.1163C39.8453 15.1163 40.1914 14.7708 40.1914 14.1786L40.1917 12.3516ZM29.1616 11.513C29.1616 13.0926 27.9746 14.1789 26.3917 14.1789C25.996 14.1789 25.6498 14.1295 25.3037 13.9813V16.2029C25.3037 16.3508 25.1552 16.4993 25.0067 16.4993H23.8692C23.721 16.4993 23.5723 16.3511 23.5723 16.2029V8.35303C23.5723 8.15542 23.7207 8.00752 23.8692 7.95811C24.6111 7.71111 25.3529 7.5632 26.1445 7.5632C27.9251 7.5632 29.1616 8.64915 29.1616 10.3276V11.513ZM27.381 10.2291C27.381 9.43928 26.8368 9.04436 26.0947 9.04436C25.6498 9.04436 25.3529 9.19256 25.3529 9.19256V12.451C25.6498 12.5989 25.798 12.6483 26.1442 12.6483C26.8863 12.6483 27.4305 12.204 27.4305 11.4636V10.2294L27.381 10.2291ZM61.1137 11.513C61.1137 13.0926 59.9267 14.1789 58.3438 14.1789C57.9481 14.1789 57.6019 14.1295 57.2558 13.9813V16.2029C57.2558 16.3508 57.1076 16.4993 56.9591 16.4993H55.8213C55.6731 16.4993 55.5247 16.3511 55.5247 16.2029V8.35303C55.5247 8.15542 55.6728 8.00752 55.8213 7.95811C56.5632 7.71111 57.3053 7.5632 58.0966 7.5632C59.8772 7.5632 61.1137 8.64915 61.1137 10.3276V11.513ZM59.3331 10.2291C59.3331 9.43928 58.7889 9.04436 58.0471 9.04436C57.6019 9.04436 57.3053 9.19256 57.3053 9.19256V12.451C57.6019 12.5989 57.7504 12.6483 58.0966 12.6483C58.8384 12.6483 59.3829 12.204 59.3829 11.4636V10.2294L59.3331 10.2291Z" fill="#645DF6"/>
<path d="M14.6701 8.40235C14.6701 8.05683 14.3735 7.76042 14.027 7.76042H12.84L10.1199 4.65019C9.87244 4.35407 9.47679 4.25527 9.08113 4.35407L8.14132 4.65019C7.99314 4.69959 7.94335 4.8972 8.04234 4.9957L11.0102 7.80982H6.50919C6.36071 7.80982 6.26172 7.90863 6.26172 8.05683V8.55026C6.26172 8.89607 6.55869 9.19218 6.90485 9.19218H7.59718V11.5617C7.59718 13.3393 8.53698 14.3758 10.1199 14.3758C10.6143 14.3758 11.0102 14.3264 11.5046 14.1291V15.7088C11.5032 15.8129 11.5228 15.9162 11.5621 16.0126C11.6013 16.1091 11.6596 16.1967 11.7333 16.2703C11.8071 16.3439 11.8949 16.402 11.9915 16.4412C12.0881 16.4805 12.1916 16.5 12.2959 16.4986H12.9885C13.1367 16.4986 13.2852 16.3507 13.2852 16.2028V9.14278H14.423C14.5712 9.14278 14.6701 9.04398 14.6701 8.89607V8.40235ZM11.5049 12.6479C11.2079 12.7958 10.8122 12.8455 10.5156 12.8455C9.72426 12.8455 9.3283 12.4506 9.3283 11.5617V9.19218H11.5046L11.5049 12.6479Z" fill="white"/>
</svg>
