<svg width="17" height="17" viewBox="0 0 17 17" fill="none" xmlns="http://www.w3.org/2000/svg">
<path d="M5.58789 8.74122C6.26319 10.1358 7.39084 11.2605 8.78711 11.9322C8.8901 11.981 9.00402 12.0021 9.11765 11.9935C9.23128 11.9849 9.34071 11.9468 9.43516 11.883L11.4859 10.5131C11.5765 10.4516 11.6812 10.4141 11.7903 10.4041C11.8993 10.3941 12.0091 10.4118 12.1094 10.4557L15.9484 12.1045C16.0796 12.1591 16.1893 12.2553 16.2604 12.3784C16.3316 12.5014 16.3603 12.6444 16.3422 12.7854C16.2205 13.7351 15.7569 14.6079 15.0383 15.2405C14.3196 15.8732 13.395 16.2223 12.4375 16.2225C9.47868 16.2225 6.64104 15.0471 4.54884 12.9549C2.45664 10.8627 1.28125 8.02504 1.28125 5.06622C1.28147 4.10875 1.63055 3.18416 2.26319 2.46546C2.89582 1.74677 3.76865 1.28321 4.71836 1.16153C4.85932 1.14343 5.00233 1.17216 5.12535 1.24331C5.24838 1.31446 5.34461 1.42407 5.39922 1.55528L7.04805 5.40255C7.09092 5.50127 7.10886 5.60902 7.10028 5.71631C7.09169 5.8236 7.05685 5.92713 6.99883 6.01778L5.62891 8.10138C5.56792 8.19562 5.53212 8.30392 5.52494 8.41595C5.51776 8.52797 5.53943 8.63996 5.58789 8.74122V8.74122Z" stroke="url(#paint0_linear_122_465742)" stroke-linecap="round" stroke-linejoin="round"/>
<defs>
<linearGradient id="paint0_linear_122_465742" x1="8.81436" y1="1.15625" x2="8.81436" y2="16.2225" gradientUnits="userSpaceOnUse">
<stop stop-color="#0033EA"/>
<stop offset="1" stop-color="#8A0074"/>
</linearGradient>
</defs>
</svg>
