<svg width="20" height="20" viewBox="0 0 20 20" fill="none" xmlns="http://www.w3.org/2000/svg">
<path d="M12.1408 7.91606C10.746 7.43398 9.22925 7.43673 7.83615 7.92387C7.73447 7.95921 7.64364 8.02022 7.57247 8.10097C7.5013 8.18173 7.45218 8.2795 7.4299 8.38481L6.97677 10.6895C6.95536 10.7917 6.9093 10.8871 6.84257 10.9675C6.77585 11.0478 6.6905 11.1106 6.59396 11.1504L2.89865 12.627C2.77295 12.6791 2.63356 12.6882 2.50216 12.6528C2.37077 12.6175 2.25472 12.5398 2.17208 12.4317C1.61385 11.7104 1.33764 10.8103 1.39516 9.90006C1.45269 8.98978 1.83999 8.13167 2.48458 7.48637C4.47839 5.49411 7.18164 4.375 10.0002 4.375C12.8188 4.375 15.522 5.49411 17.5158 7.48637C18.1604 8.13167 18.5477 8.98978 18.6053 9.90006C18.6628 10.8103 18.3866 11.7104 17.8283 12.4317C17.7457 12.5398 17.6296 12.6175 17.4983 12.6528C17.3669 12.6882 17.2275 12.6791 17.1018 12.627L13.4065 11.1504C13.3108 11.1114 13.2261 11.0497 13.1594 10.9708C13.0928 10.8919 13.0462 10.7981 13.0236 10.6973L12.5393 8.377C12.5184 8.27226 12.4707 8.17473 12.4009 8.09393C12.3311 8.01314 12.2414 7.95185 12.1408 7.91606V7.91606Z" stroke="url(#paint0_linear_146_542012)" stroke-linecap="round" stroke-linejoin="round"/>
<path d="M3.125 15.625H16.875" stroke="url(#paint1_linear_146_542012)" stroke-linecap="round" stroke-linejoin="round"/>
<defs>
<linearGradient id="paint0_linear_146_542012" x1="10.0002" y1="4.375" x2="10.0002" y2="12.674" gradientUnits="userSpaceOnUse">
<stop stop-color="#0033EA"/>
<stop offset="1" stop-color="#8A0074"/>
</linearGradient>
<linearGradient id="paint1_linear_146_542012" x1="10" y1="15.625" x2="10" y2="16.625" gradientUnits="userSpaceOnUse">
<stop stop-color="#0033EA"/>
<stop offset="1" stop-color="#8A0074"/>
</linearGradient>
</defs>
</svg>
