<svg width="17" height="17" viewBox="0 0 17 17" fill="none" xmlns="http://www.w3.org/2000/svg">
<g clip-path="url(#clip0_444_750)">
<path d="M15.0238 11.2557C14.5731 12.3214 13.8683 13.2605 12.9709 13.9908C12.0735 14.7212 11.0109 15.2206 9.87589 15.4454C8.74091 15.6701 7.56813 15.6135 6.4601 15.2803C5.35208 14.9472 4.34253 14.3476 3.51972 13.5342C2.69692 12.7207 2.08591 11.7181 1.74012 10.6139C1.39432 9.50978 1.32427 8.33773 1.53609 7.20025C1.74791 6.06277 2.23514 4.99449 2.9552 4.08882C3.67526 3.18315 4.60621 2.46765 5.66667 2.00488" stroke="#4A6ADA" strokeWidth="1.5" strokeLinecap="round" strokeLinejoin="round"/>
<path d="M15.5833 8.50033C15.5833 7.57013 15.4001 6.64904 15.0441 5.78965C14.6882 4.93026 14.1664 4.1494 13.5087 3.49165C12.8509 2.8339 12.0701 2.31215 11.2107 1.95618C10.3513 1.60021 9.4302 1.41699 8.5 1.41699V8.50033H15.5833Z" stroke="#4A6ADA" strokeWidth="1.5" strokeLinecap="round" strokeLinejoin="round"/>
</g>
<defs>
<clipPath id="clip0_444_750">
<rect width="17" height="17" fill="white"/>
</clipPath>
</defs>
</svg>
