<svg width="22" height="22" viewBox="0 0 22 22" fill="none" xmlns="http://www.w3.org/2000/svg">
<path d="M0 6C0 2.68629 2.68629 0 6 0H15.4291C18.7428 0 21.4291 2.68629 21.4291 6V21.0938H5.99999C2.68629 21.0938 0 18.4075 0 15.0938V6Z" fill="#D44CEA"/>
<path d="M10.3117 15.6065H15.1635C15.2219 15.6073 15.2799 15.5963 15.334 15.5743C15.3881 15.5523 15.4373 15.5197 15.4786 15.4784C15.5199 15.4371 15.5525 15.3879 15.5745 15.3338C15.5965 15.2797 15.6074 15.2217 15.6067 15.1633V10.3115C15.6067 8.90723 15.0488 7.56045 14.0558 6.56745C13.0628 5.57446 11.716 5.0166 10.3117 5.0166V5.0166C9.61637 5.0166 8.92784 5.15356 8.28543 5.41965C7.64302 5.68575 7.05931 6.07577 6.56763 6.56745C6.07595 7.05913 5.68592 7.64284 5.41983 8.28525C5.15373 8.92767 5.01678 9.6162 5.01678 10.3115V10.3115C5.01678 11.0069 5.15373 11.6954 5.41983 12.3378C5.68592 12.9802 6.07595 13.5639 6.56763 14.0556C7.05931 14.5473 7.64302 14.9373 8.28543 15.2034C8.92784 15.4695 9.61637 15.6065 10.3117 15.6065V15.6065Z" stroke="white" stroke-width="1.3" stroke-linecap="round" stroke-linejoin="round"/>
<path d="M10.3117 11.1174C9.99381 11.1174 9.73613 10.8597 9.73613 10.5418C9.73613 10.224 9.99381 9.96631 10.3117 9.96631C10.6295 9.96631 10.8872 10.224 10.8872 10.5418C10.8872 10.8597 10.6295 11.1174 10.3117 11.1174Z" fill="white"/>
<path d="M7.54897 11.1174C7.23111 11.1174 6.97344 10.8597 6.97344 10.5418C6.97344 10.224 7.23111 9.96631 7.54897 9.96631C7.86684 9.96631 8.12451 10.224 8.12451 10.5418C8.12451 10.8597 7.86684 11.1174 7.54897 11.1174Z" fill="white"/>
<path d="M13.0741 11.1174C12.7563 11.1174 12.4986 10.8597 12.4986 10.5418C12.4986 10.224 12.7563 9.96631 13.0741 9.96631C13.392 9.96631 13.6497 10.224 13.6497 10.5418C13.6497 10.8597 13.392 11.1174 13.0741 11.1174Z" fill="white"/>
</svg>
