<svg width="18" height="21" viewBox="0 0 18 21" fill="none" xmlns="http://www.w3.org/2000/svg">
<g clip-path="url(#clip0_155_18511)">
<path d="M12.4366 7.28823C12.4437 7.28874 12.4507 7.28926 12.4579 7.28926C12.4701 7.28926 12.4823 7.28823 12.4943 7.28656C12.8139 7.29311 13.0696 7.55376 13.07 7.87335C13.07 8.01857 13.1878 8.13632 13.333 8.13632C13.4782 8.13632 13.5959 8.01857 13.5959 7.87335C13.5953 7.35063 13.2314 6.8984 12.7209 6.78592V6.53323C12.7209 6.38801 12.6031 6.27026 12.4579 6.27026C12.3127 6.27026 12.195 6.38801 12.195 6.53323V6.79786C11.6552 6.94219 11.3059 7.46439 11.3787 8.01845C11.4515 8.5725 11.9238 8.98672 12.4826 8.98672C12.807 8.98672 13.07 9.24981 13.07 9.57428C13.07 9.89863 12.807 10.1617 12.4826 10.1617C12.1581 10.1617 11.8951 9.89863 11.8951 9.57428C11.8951 9.42906 11.7774 9.31132 11.6322 9.31132C11.487 9.31132 11.3692 9.42906 11.3692 9.57428C11.3699 10.0781 11.7083 10.5189 12.195 10.6498V10.9379C12.195 11.0831 12.3127 11.2009 12.4579 11.2009C12.6031 11.2009 12.7209 11.0831 12.7209 10.9379V10.6618C13.2762 10.5402 13.6508 10.0197 13.5895 9.45449C13.5284 8.88926 13.0511 8.46092 12.4826 8.46105C12.1671 8.46117 11.9079 8.21208 11.8954 7.89685C11.8831 7.58163 12.122 7.31288 12.4366 7.28836V7.28823Z" fill="#333333" stroke="#333333" stroke-width="0.3"/>
<path d="M12.4977 4.98462C10.8799 4.98462 9.49938 6.04021 8.98218 7.45365H2.45542C2.31084 7.45365 2.19348 7.58397 2.19245 7.72842L2.1303 16.9533H0.269899C0.124678 16.9533 0 17.0584 0 17.2039V18.3746C0.00333841 19.4766 0.871331 20.382 1.97224 20.4318V20.4376H10.0913V20.4299C10.157 20.4323 10.1841 20.4376 10.2257 20.4376H10.2314C11.3708 20.4358 12.2936 19.5115 12.2936 18.3721V12.4533C12.3594 12.4569 12.429 12.4589 12.497 12.4589C14.5557 12.4589 16.2309 10.7804 16.2309 8.72161C16.2309 6.66295 14.5565 4.98462 12.4977 4.98462ZM2.07227 19.9116H2.0706C1.21994 19.9105 0.529783 19.2226 0.525931 18.3719V17.4792H8.15194V18.3681C8.15232 18.9169 8.3715 19.443 8.76081 19.8299C8.78842 19.8575 8.8227 19.8788 8.85159 19.9116H2.07227ZM11.7677 18.3719C11.7678 19.2211 11.0803 19.91 10.2311 19.9116H10.2261C9.37354 19.9101 8.6821 19.2208 8.67787 18.3684V17.2039C8.68005 17.1366 8.65437 17.0715 8.60673 17.024C8.5591 16.9765 8.494 16.951 8.42684 16.9533H2.65624L2.71658 7.97958H8.83619C8.78958 8.22033 8.76544 8.46481 8.76415 8.70992C8.76364 9.22828 8.87175 9.74086 9.08156 10.2148H6.59777C6.45242 10.2148 6.3348 10.3325 6.3348 10.4778C6.3348 10.623 6.45242 10.7407 6.59777 10.7407H9.36687C9.90936 11.5938 10.7766 12.1886 11.7677 12.3876V18.3719ZM12.4977 11.933C10.7263 11.933 9.29008 10.497 9.29021 8.72546C9.29021 6.95391 10.7263 5.51787 12.4978 5.51787C14.2692 5.51787 15.7053 6.95404 15.7053 8.72546C15.7033 10.4961 14.2685 11.9311 12.4977 11.933Z" fill="#333333" stroke="#333333" stroke-width="0.3"/>
<path d="M4.91003 11.9648C4.44586 11.9648 4.06836 12.3304 4.06836 12.7798C4.06836 13.2292 4.44586 13.5948 4.91003 13.5948C5.3742 13.5948 5.75183 13.2292 5.75183 12.7798C5.75183 12.3304 5.3742 11.9648 4.91003 11.9648ZM4.91003 13.0688C4.73579 13.0688 4.59429 12.9392 4.59429 12.7798C4.59429 12.6203 4.73592 12.4908 4.91003 12.4908C5.08414 12.4908 5.2259 12.6205 5.2259 12.7798C5.2259 12.9392 5.08414 13.0688 4.91003 13.0688Z" fill="#333333" stroke="#333333" stroke-width="0.3"/>
<path d="M6.33496 12.7788C6.33496 12.9241 6.45258 13.0418 6.59793 13.0418H10.1038C10.249 13.0418 10.3668 12.9241 10.3668 12.7788C10.3668 12.6336 10.249 12.5159 10.1038 12.5159H6.59793C6.45258 12.5159 6.33496 12.6336 6.33496 12.7788Z" fill="#333333" stroke="#333333" stroke-width="0.3"/>
<path d="M4.91003 9.67896C4.44586 9.67896 4.06836 10.0446 4.06836 10.494C4.06836 10.9435 4.44586 11.309 4.91003 11.309C5.3742 11.309 5.75183 10.9435 5.75183 10.494C5.75183 10.0446 5.3742 9.67896 4.91003 9.67896ZM4.91003 10.7831C4.73579 10.7831 4.59429 10.6534 4.59429 10.494C4.59429 10.3347 4.73592 10.2049 4.91003 10.2049C5.08414 10.2049 5.2259 10.3346 5.2259 10.494C5.2259 10.6534 5.08414 10.7832 4.91003 10.7832V10.7831Z" fill="#333333" stroke="#333333" stroke-width="0.3"/>
<path d="M4.91003 14.2505C4.44586 14.2505 4.06836 14.616 4.06836 15.0655C4.06836 15.5149 4.44586 15.8804 4.91003 15.8804C5.3742 15.8804 5.75183 15.5149 5.75183 15.0655C5.75183 14.616 5.3742 14.2505 4.91003 14.2505ZM4.91003 15.3545C4.73579 15.3545 4.59429 15.2249 4.59429 15.0655C4.59429 14.9061 4.73592 14.7764 4.91003 14.7764C5.08414 14.7764 5.2259 14.9061 5.2259 15.0655C5.2259 15.2248 5.08414 15.3545 4.91003 15.3545Z" fill="#333333" stroke="#333333" stroke-width="0.3"/>
<path d="M10.1038 14.8167H6.59793C6.45258 14.8167 6.33496 14.9344 6.33496 15.0796C6.33496 15.2248 6.45258 15.3426 6.59793 15.3426H10.1038C10.249 15.3426 10.3668 15.2248 10.3668 15.0796C10.3668 14.9344 10.249 14.8167 10.1038 14.8167Z" fill="#333333" stroke="#333333" stroke-width="0.3"/>
</g>
<defs>
<clipPath id="clip0_155_18511">
<rect width="16.2309" height="16.2309" fill="white" transform="translate(0 4.59741)"/>
</clipPath>
</defs>
</svg>
