<svg width="24" height="25" viewBox="0 0 24 25" fill="none" xmlns="http://www.w3.org/2000/svg">
<path d="M20.625 7.9707C20.5255 7.9707 20.4302 8.01021 20.3598 8.08054C20.2895 8.15086 20.25 8.24625 20.25 8.3457V19.7832C20.25 20.0816 20.1315 20.3677 19.9205 20.5787C19.7095 20.7897 19.4234 20.9082 19.125 20.9082H8.625C8.32663 20.9082 8.04048 20.7897 7.8295 20.5787C7.61853 20.3677 7.5 20.0816 7.5 19.7832V5.5332C7.5 5.23483 7.61853 4.94869 7.8295 4.73771C8.04048 4.52673 8.32663 4.4082 8.625 4.4082H16.3125C16.412 4.4082 16.5073 4.36869 16.5777 4.29837C16.648 4.22804 16.6875 4.13266 16.6875 4.0332C16.6875 3.93375 16.648 3.83836 16.5777 3.76804C16.5073 3.69771 16.412 3.6582 16.3125 3.6582H8.625C8.12772 3.6582 7.65081 3.85575 7.29917 4.20738C6.94754 4.55901 6.75 5.03592 6.75 5.5332V19.7832C6.75 20.2805 6.94754 20.7574 7.29917 21.109C7.65081 21.4607 8.12772 21.6582 8.625 21.6582H19.125C19.6223 21.6582 20.0992 21.4607 20.4508 21.109C20.8025 20.7574 21 20.2805 21 19.7832V8.3457C21 8.24625 20.9605 8.15086 20.8902 8.08054C20.8198 8.01021 20.7245 7.9707 20.625 7.9707Z" fill="url(#paint0_linear_173_21909)"/>
<path d="M4.125 8.9082H5.625C5.72446 8.9082 5.81984 8.86869 5.89016 8.79837C5.96049 8.72804 6 8.63266 6 8.5332C6 8.43375 5.96049 8.33836 5.89016 8.26804C5.81984 8.19771 5.72446 8.1582 5.625 8.1582H4.125C3.62772 8.1582 3.15081 8.35575 2.79917 8.70738C2.44754 9.05901 2.25 9.53592 2.25 10.0332V18.2832C2.25 18.7805 2.44754 19.2574 2.79917 19.609C3.15081 19.9607 3.62772 20.1582 4.125 20.1582H5.625C5.72446 20.1582 5.81984 20.1187 5.89016 20.0484C5.96049 19.978 6 19.8827 6 19.7832C6 19.6837 5.96049 19.5884 5.89016 19.518C5.81984 19.4477 5.72446 19.4082 5.625 19.4082H4.125C3.82663 19.4082 3.54048 19.2897 3.3295 19.0787C3.11853 18.8677 3 18.5816 3 18.2832V10.0332C3 9.73483 3.11853 9.44869 3.3295 9.23771C3.54048 9.02673 3.82663 8.9082 4.125 8.9082Z" fill="url(#paint1_linear_173_21909)"/>
<path d="M18.4257 5.66431L18.197 6.57931C18.1863 6.62073 18.1883 6.6644 18.2027 6.70467C18.2171 6.74494 18.2433 6.77996 18.2778 6.8052C18.3124 6.83044 18.3537 6.84475 18.3964 6.84626C18.4392 6.84777 18.4814 6.83642 18.5176 6.81368L19.3126 6.31306L20.1132 6.81368C20.1495 6.83772 20.1922 6.85014 20.2357 6.84927C20.2792 6.8484 20.3213 6.83429 20.3566 6.80882C20.3918 6.78335 20.4185 6.74773 20.433 6.70672C20.4474 6.66571 20.4491 6.62126 20.4376 6.57931L20.2126 5.66431L20.9364 5.05681C20.9675 5.02893 20.9898 4.99262 21.0006 4.95229C21.0115 4.91197 21.0104 4.86936 20.9975 4.82965C20.9846 4.78994 20.9604 4.75483 20.9279 4.72858C20.8954 4.70234 20.856 4.68609 20.8145 4.68181L19.877 4.61618L19.5245 3.74056C19.5087 3.70071 19.4813 3.66653 19.4459 3.64244C19.4105 3.61835 19.3686 3.60547 19.3257 3.60547C19.2829 3.60547 19.241 3.61835 19.2056 3.64244C19.1701 3.66653 19.1428 3.70071 19.127 3.74056L18.7726 4.61618L17.8351 4.68181C17.7936 4.68609 17.7542 4.70234 17.7217 4.72858C17.6892 4.75483 17.6651 4.78994 17.6522 4.82965C17.6393 4.86936 17.6382 4.91197 17.649 4.95229C17.6598 4.99262 17.6822 5.02893 17.7132 5.05681L18.4257 5.66431Z" fill="url(#paint2_linear_173_21909)"/>
<path d="M13.8749 18.4712C13.9743 18.4712 14.0697 18.4317 14.14 18.3613C14.2104 18.291 14.2499 18.1956 14.2499 18.0962V16.763C14.4913 16.7231 14.7273 16.6552 14.953 16.5605C15.3371 16.4099 15.6709 16.1542 15.9163 15.8225C16.1617 15.4909 16.3087 15.0969 16.3405 14.6855C16.4961 13.1049 15.1086 12.5893 13.9949 12.1768C12.8474 11.7512 12.1536 11.4268 12.1799 10.6355C12.1843 10.3993 12.2543 10.169 12.3821 9.97033C12.5099 9.77165 12.6905 9.61245 12.9036 9.51055C13.6311 9.12242 14.6661 9.20305 15.4818 9.71117C15.5618 9.74093 15.6496 9.74248 15.7306 9.71559C15.8116 9.68869 15.881 9.63495 15.9274 9.56324C15.9737 9.49154 15.9942 9.40617 15.9855 9.32124C15.9767 9.23631 15.9392 9.15692 15.8793 9.09617C15.387 8.78702 14.8288 8.59817 14.2499 8.54492V7.23242C14.2499 7.13297 14.2104 7.03758 14.14 6.96726C14.0697 6.89693 13.9743 6.85742 13.8749 6.85742C13.7754 6.85742 13.68 6.89693 13.6097 6.96726C13.5394 7.03758 13.4999 7.13297 13.4999 7.23242V8.5618C13.1685 8.60422 12.8472 8.70516 12.5511 8.85992C12.2222 9.0236 11.9439 9.27345 11.7458 9.58284C11.5476 9.89223 11.4372 10.2496 11.4261 10.6168C11.3811 12.0137 12.6299 12.4768 13.7286 12.8855C14.9436 13.3355 15.6843 13.6618 15.5905 14.618C15.5716 14.895 15.473 15.1605 15.3067 15.3827C15.1404 15.6049 14.9134 15.7743 14.653 15.8705C13.7549 16.2549 12.5324 16.058 11.998 15.6305C11.9598 15.5952 11.9147 15.5682 11.8655 15.5512C11.8164 15.5342 11.7642 15.5276 11.7123 15.5319C11.6605 15.5362 11.6101 15.5512 11.5644 15.576C11.5186 15.6008 11.4786 15.6349 11.4467 15.676C11.4148 15.7171 11.3919 15.7645 11.3793 15.8149C11.3667 15.8654 11.3648 15.918 11.3736 15.9692C11.3824 16.0205 11.4018 16.0694 11.4305 16.1128C11.4593 16.1561 11.4967 16.1931 11.5405 16.2212C12.0243 16.5962 12.7593 16.8099 13.4999 16.8212V18.0962C13.4999 18.1956 13.5394 18.291 13.6097 18.3613C13.68 18.4317 13.7754 18.4712 13.8749 18.4712Z" fill="url(#paint3_linear_173_21909)"/>
<defs>
<linearGradient id="paint0_linear_173_21909" x1="13.875" y1="3.6582" x2="13.875" y2="21.6582" gradientUnits="userSpaceOnUse">
<stop stop-color="#000AFF"/>
<stop offset="1" stop-color="#D274FF"/>
</linearGradient>
<linearGradient id="paint1_linear_173_21909" x1="4.125" y1="8.1582" x2="4.125" y2="20.1582" gradientUnits="userSpaceOnUse">
<stop stop-color="#000AFF"/>
<stop offset="1" stop-color="#D274FF"/>
</linearGradient>
<linearGradient id="paint2_linear_173_21909" x1="19.3248" y1="3.60547" x2="19.3248" y2="6.84931" gradientUnits="userSpaceOnUse">
<stop stop-color="#000AFF"/>
<stop offset="1" stop-color="#D274FF"/>
</linearGradient>
<linearGradient id="paint3_linear_173_21909" x1="13.8603" y1="6.85742" x2="13.8603" y2="18.4712" gradientUnits="userSpaceOnUse">
<stop stop-color="#000AFF"/>
<stop offset="1" stop-color="#D274FF"/>
</linearGradient>
</defs>
</svg>
