<svg width="18" height="18" viewBox="0 0 18 18" fill="none" xmlns="http://www.w3.org/2000/svg">
<path d="M16.0383 8.52126L5.92031 2.33376C5.83514 2.28122 5.73749 2.25235 5.63744 2.25014C5.53739 2.24792 5.43856 2.27244 5.35114 2.32117C5.26373 2.36989 5.19089 2.44105 5.14016 2.52731C5.08942 2.61357 5.06261 2.7118 5.0625 2.81188V15.1869C5.06261 15.287 5.08942 15.3852 5.14016 15.4714C5.19089 15.5577 5.26373 15.6289 5.35114 15.6776C5.43856 15.7263 5.53739 15.7508 5.63744 15.7486C5.73749 15.7464 5.83514 15.7175 5.92031 15.665L16.0383 9.47751C16.1214 9.42837 16.1902 9.35844 16.238 9.2746C16.2859 9.19076 16.311 9.0959 16.311 8.99938C16.311 8.90286 16.2859 8.808 16.238 8.72416C16.1902 8.64032 16.1214 8.57039 16.0383 8.52126Z" fill="#333333" stroke="#333333" stroke-width="1.5" stroke-linecap="round" stroke-linejoin="round"/>
</svg>
