<svg width="12" height="14" viewBox="0 0 12 14" fill="none" xmlns="http://www.w3.org/2000/svg">
<path d="M1.20867 13.377C1.51004 13.377 1.76616 13.2564 2.0675 13.0832L10.8515 8.0056C11.4768 7.63647 11.6953 7.3954 11.6953 6.99612C11.6953 6.59684 11.4768 6.35577 10.8515 5.99416L2.0675 0.909067C1.76616 0.735817 1.51004 0.622803 1.20867 0.622803C0.65122 0.622803 0.304688 1.04468 0.304688 1.7001V12.2922C0.304688 12.9476 0.65122 13.377 1.20867 13.377ZM1.59291 11.9381C1.54768 11.9381 1.51757 11.9079 1.51757 11.8477V2.14454C1.51757 2.08427 1.54768 2.05416 1.59291 2.05416C1.62303 2.05416 1.65318 2.06923 1.68329 2.09183L10.0229 6.91326C10.0605 6.93585 10.0907 6.95845 10.0907 6.99612C10.0907 7.03379 10.0605 7.06391 10.0229 7.07899L1.68329 11.9079C1.65318 11.923 1.62303 11.9381 1.59291 11.9381Z" fill="#333333"/>
</svg>
