<svg width="10" height="10" viewBox="0 0 10 10" fill="none" xmlns="http://www.w3.org/2000/svg">
<path d="M8.75 5.625H1.25C1.08424 5.625 0.925269 5.55915 0.808058 5.44194C0.690848 5.32473 0.625 5.16576 0.625 5C0.625 4.83424 0.690848 4.67527 0.808058 4.55806C0.925269 4.44085 1.08424 4.375 1.25 4.375H8.75C8.91576 4.375 9.07473 4.44085 9.19194 4.55806C9.30915 4.67527 9.375 4.83424 9.375 5C9.375 5.16576 9.30915 5.32473 9.19194 5.44194C9.07473 5.55915 8.91576 5.625 8.75 5.625Z" fill="#555555"/>
<path d="M4.375 8.75L4.375 1.25C4.375 1.08424 4.44085 0.925269 4.55806 0.808058C4.67527 0.690848 4.83424 0.625 5 0.625C5.16576 0.625 5.32473 0.690848 5.44194 0.808058C5.55915 0.925269 5.625 1.08424 5.625 1.25L5.625 8.75C5.625 8.91576 5.55915 9.07473 5.44194 9.19194C5.32473 9.30915 5.16576 9.375 5 9.375C4.83424 9.375 4.67527 9.30915 4.55806 9.19194C4.44085 9.07473 4.375 8.91576 4.375 8.75Z" fill="#555555"/>
</svg>
