<svg width="26" height="31" viewBox="0 0 26 31" fill="none" xmlns="http://www.w3.org/2000/svg">
<mask id="mask0_66_78068" style="mask-type:alpha" maskUnits="userSpaceOnUse" x="0" y="0" width="26" height="31">
<path d="M23.8971 30.0604H2.10294C0.941519 30.0604 0 29.1292 0 27.9804V3.02043C0 1.87168 0.941519 0.94043 2.10294 0.94043H16.25L26 10.5841V27.9804C26 29.1292 25.0585 30.0604 23.8971 30.0604Z" fill="url(#paint0_linear_66_78068)"/>
</mask>
<g mask="url(#mask0_66_78068)">
<path d="M23.8971 30.0604H2.10294C0.941519 30.0604 0 29.1292 0 27.9804V3.02043C0 1.87168 0.941519 0.94043 2.10294 0.94043H16.25L26 10.5841V27.9804C26 29.1292 25.0585 30.0604 23.8971 30.0604Z" fill="url(#paint1_linear_66_78068)"/>
<g opacity="0.26" filter="url(#filter0_f_66_78068)">
<g style="mix-blend-mode:darken">
<path d="M21.6031 15.0273H4.58838V22.9692H21.6031V15.0273Z" fill="#E66000"/>
</g>
</g>
<path d="M5.11814 21.4944C5.02248 21.4944 4.94194 21.4621 4.87649 21.3973C4.81104 21.3325 4.77832 21.2529 4.77832 21.1583V16.5872C4.77832 16.4926 4.81104 16.413 4.87649 16.3482C4.94194 16.2785 5.02248 16.2436 5.11814 16.2436H6.83987C7.31813 16.2436 7.70829 16.3233 8.01035 16.4826C8.31241 16.642 8.52889 16.8462 8.65978 17.0951C8.79067 17.3441 8.85611 17.6129 8.85611 17.9018C8.85611 18.1906 8.79067 18.4595 8.65978 18.7084C8.52889 18.9574 8.31241 19.1616 8.01035 19.3209C7.70829 19.4802 7.31813 19.5599 6.83987 19.5599H5.4655V21.1583C5.4655 21.2529 5.43026 21.3325 5.35978 21.3973C5.29433 21.4621 5.21379 21.4944 5.11814 21.4944ZM6.77191 18.9176C7.28541 18.9176 7.64536 18.8205 7.85177 18.6263C8.06321 18.4321 8.16893 18.1906 8.16893 17.9018C8.16893 17.6129 8.06321 17.3715 7.85177 17.1773C7.64536 16.9831 7.28541 16.886 6.77191 16.886H5.4655V18.9176H6.77191ZM10.7204 21.4944C10.6247 21.4944 10.5442 21.4621 10.4787 21.3973C10.4133 21.3325 10.3806 21.2529 10.3806 21.1583V16.6993C10.3806 16.5648 10.4284 16.4503 10.524 16.3557C10.6197 16.2561 10.7355 16.2063 10.8714 16.2063H10.9696C11.1306 16.2063 11.2692 16.281 11.3849 16.4304L14.2922 20.5832V16.5499C14.2922 16.4552 14.3249 16.3756 14.3904 16.3109C14.4559 16.2412 14.5364 16.2063 14.632 16.2063C14.7277 16.2063 14.8082 16.2412 14.8737 16.3109C14.9441 16.3756 14.9794 16.4552 14.9794 16.5499V21.0089C14.9794 21.1434 14.929 21.2579 14.8284 21.3525C14.7327 21.4471 14.6169 21.4944 14.481 21.4944H14.3904C14.3098 21.4944 14.2343 21.477 14.1639 21.4421C14.0934 21.4023 14.0355 21.3525 13.9902 21.2927L11.0677 17.1175V21.1583C11.0677 21.2529 11.0325 21.3325 10.962 21.3973C10.8966 21.4621 10.8161 21.4944 10.7204 21.4944ZM19.3044 21.5318C18.7858 21.5318 18.3252 21.4197 17.9225 21.1956C17.5198 20.9666 17.2076 20.6504 16.9861 20.2471C16.7646 19.8387 16.6538 19.3756 16.6538 18.8578C16.6538 18.33 16.7696 17.862 17.0012 17.4536C17.2328 17.0453 17.5474 16.7291 17.9451 16.5051C18.3478 16.281 18.7934 16.1689 19.2817 16.1689C19.6744 16.1689 20.0167 16.2162 20.3087 16.3109C20.6057 16.4055 20.8902 16.5374 21.1621 16.7067C21.2023 16.7267 21.2376 16.7615 21.2678 16.8113C21.298 16.8611 21.3131 16.9159 21.3131 16.9756C21.3131 17.0602 21.2829 17.1325 21.2225 17.1922C21.1671 17.252 21.0916 17.2818 20.9959 17.2818C20.9406 17.2818 20.8877 17.2694 20.8373 17.2445C20.6008 17.105 20.3641 17.0005 20.1275 16.9308C19.8909 16.8611 19.6342 16.8262 19.3573 16.8262C18.9746 16.8262 18.6298 16.9059 18.3227 17.0652C18.0156 17.2245 17.7739 17.4586 17.5978 17.7673C17.4266 18.0711 17.341 18.4345 17.341 18.8578C17.341 19.2462 17.4216 19.5948 17.5827 19.9035C17.7488 20.2073 17.9854 20.4487 18.2925 20.628C18.6046 20.8022 18.9721 20.8894 19.395 20.8894C19.8683 20.8894 20.3087 20.7798 20.7165 20.5608V19.2089H19.4705C19.385 19.2089 19.3119 19.179 19.2515 19.1192C19.1911 19.0595 19.1609 18.9873 19.1609 18.9026C19.1609 18.818 19.1911 18.7458 19.2515 18.686C19.3119 18.6263 19.385 18.5964 19.4705 18.5964H20.9582C21.0588 18.5964 21.1445 18.6313 21.2149 18.701C21.2854 18.7706 21.3206 18.8554 21.3206 18.9549V20.6504C21.3206 20.755 21.2929 20.8496 21.2376 20.9342C21.1872 21.0139 21.1192 21.0737 21.0337 21.1135C20.4698 21.3923 19.8934 21.5318 19.3044 21.5318Z" fill="white"/>
<path d="M4.87675 16.3478L5.01193 16.4815L5.01443 16.4791L5.01684 16.4765L4.87675 16.3478ZM5.46576 19.5596V19.3705H5.27459V19.5596H5.46576ZM5.36004 21.3969L5.22996 21.2583L5.22737 21.2608L5.22486 21.2633L5.36004 21.3969ZM7.85203 18.6259L7.72194 18.4873L7.7211 18.4882L7.72027 18.4889L7.85203 18.6259ZM7.85203 17.1769L7.72027 17.3139L7.7211 17.3147L7.72194 17.3155L7.85203 17.1769ZM5.46576 16.8856V16.6965H5.27459V16.8856H5.46576ZM5.46576 18.9172H5.27459V19.1063H5.46576V18.9172ZM5.1184 21.305C5.07155 21.305 5.0402 21.2912 5.01193 21.2633L4.74157 21.5306C4.84418 21.6322 4.97393 21.6831 5.1184 21.6831V21.305ZM5.01193 21.2633C4.98365 21.2353 4.96976 21.2043 4.96976 21.1579H4.5874C4.5874 21.3008 4.63895 21.4292 4.74157 21.5306L5.01193 21.2633ZM4.96976 21.1579V16.5869H4.5874V21.1579H4.96976ZM4.96976 16.5869C4.96976 16.5405 4.98365 16.5095 5.01193 16.4815L4.74157 16.2142C4.63895 16.3156 4.5874 16.444 4.5874 16.5869H4.96976ZM5.01684 16.4765C5.04634 16.4451 5.07624 16.4324 5.1184 16.4324V16.0542C4.96925 16.0542 4.83804 16.1112 4.73665 16.2192L5.01684 16.4765ZM5.1184 16.4324H6.84013V16.0542H5.1184V16.4324ZM6.84013 16.4324C7.29878 16.4324 7.65507 16.509 7.92064 16.6492L8.10058 16.3154C7.76203 16.1368 7.338 16.0542 6.84013 16.0542V16.4324ZM7.92064 16.6492C8.19579 16.7943 8.38075 16.9734 8.49042 17.182L8.82965 17.0075C8.67754 16.7182 8.42955 16.489 8.10058 16.3154L7.92064 16.6492ZM8.49042 17.182C8.60673 17.4033 8.6652 17.6421 8.6652 17.9014H9.04755C9.04755 17.5832 8.97513 17.2842 8.82965 17.0075L8.49042 17.182ZM8.6652 17.9014C8.6652 18.1608 8.60673 18.3996 8.49042 18.6208L8.82965 18.7953C8.97513 18.5186 9.04755 18.2197 9.04755 17.9014H8.6652ZM8.49042 18.6208C8.38075 18.8295 8.19579 19.0085 7.92064 19.1537L8.10058 19.4874C8.42955 19.3138 8.67754 19.0846 8.82965 18.7953L8.49042 18.6208ZM7.92064 19.1537C7.65507 19.2938 7.29878 19.3705 6.84013 19.3705V19.7486C7.338 19.7486 7.76203 19.666 8.10058 19.4874L7.92064 19.1537ZM6.84013 19.3705H5.46576V19.7486H6.84013V19.3705ZM5.27459 19.5596V21.1579H5.65694V19.5596H5.27459ZM5.27459 21.1579C5.27459 21.1996 5.26173 21.2292 5.22996 21.2583L5.49013 21.5356C5.59932 21.4352 5.65694 21.3054 5.65694 21.1579H5.27459ZM5.22486 21.2633C5.19659 21.2912 5.16524 21.305 5.1184 21.305V21.6831C5.26286 21.6831 5.39261 21.6322 5.49522 21.5306L5.22486 21.2633ZM6.77217 19.1063C7.29905 19.1063 7.72246 19.0088 7.98379 18.7629L7.72027 18.4889C7.56879 18.6314 7.27229 18.7281 6.77217 18.7281V19.1063ZM7.98211 18.7645C8.23304 18.534 8.36037 18.2421 8.36037 17.9014H7.97801C7.97801 18.1383 7.8939 18.3294 7.72194 18.4873L7.98211 18.7645ZM8.36037 17.9014C8.36037 17.5608 8.23304 17.2688 7.98211 17.0383L7.72194 17.3155C7.8939 17.4734 7.97801 17.6645 7.97801 17.9014H8.36037ZM7.98379 17.0399C7.72246 16.794 7.29905 16.6965 6.77217 16.6965V17.0747C7.27229 17.0747 7.56879 17.1714 7.72027 17.3139L7.98379 17.0399ZM6.77217 16.6965H5.46576V17.0747H6.77217V16.6965ZM5.27459 16.8856V18.9172H5.65694V16.8856H5.27459ZM5.46576 19.1063H6.77217V18.7281H5.46576V19.1063ZM10.5243 16.3553L10.6595 16.489L10.6612 16.4873L10.6629 16.4855L10.5243 16.3553ZM11.3852 16.43L11.5423 16.3223L11.5397 16.3186L11.5369 16.3149L11.3852 16.43ZM14.2925 20.5828L14.1353 20.6905L14.4837 21.188V20.5828H14.2925ZM14.3907 16.3105L14.5258 16.4442L14.5283 16.4417L14.5308 16.4392L14.3907 16.3105ZM14.874 16.3105L14.7338 16.4392L14.7387 16.4443L14.7439 16.4491L14.874 16.3105ZM14.8286 21.3521L14.697 21.215L14.6952 21.2167L14.6935 21.2184L14.8286 21.3521ZM14.1641 21.4418L14.0693 21.6059L14.0739 21.6085L14.0787 21.6109L14.1641 21.4418ZM13.9904 21.2924L13.8333 21.4L13.8353 21.403L13.8375 21.4058L13.9904 21.2924ZM11.068 17.1172L11.2252 17.0096L10.8768 16.5118V17.1172H11.068ZM10.9623 21.3969L10.8322 21.2583L10.8296 21.2608L10.8271 21.2633L10.9623 21.3969ZM10.7206 21.305C10.6738 21.305 10.6424 21.2912 10.6142 21.2633L10.3438 21.5306C10.4464 21.6322 10.5762 21.6831 10.7206 21.6831V21.305ZM10.6142 21.2633C10.5859 21.2353 10.572 21.2043 10.572 21.1579H10.1896C10.1896 21.3008 10.2412 21.4292 10.3438 21.5306L10.6142 21.2633ZM10.572 21.1579V16.6989H10.1896V21.1579H10.572ZM10.572 16.6989C10.572 16.6144 10.5999 16.548 10.6595 16.489L10.3891 16.2216C10.2574 16.3519 10.1896 16.5145 10.1896 16.6989H10.572ZM10.6629 16.4855C10.7233 16.4226 10.7895 16.395 10.8717 16.395V16.0168C10.6821 16.0168 10.5166 16.0888 10.3857 16.225L10.6629 16.4855ZM10.8717 16.395H10.9698V16.0168H10.8717V16.395ZM10.9698 16.395C11.0604 16.395 11.1465 16.4328 11.2335 16.5451L11.5369 16.3149C11.3923 16.1284 11.2015 16.0168 10.9698 16.0168V16.395ZM11.228 16.5377L14.1353 20.6905L14.4496 20.4751L11.5423 16.3223L11.228 16.5377ZM14.4837 20.5828V16.5495H14.1013V20.5828H14.4837ZM14.4837 16.5495C14.4837 16.5032 14.4975 16.4722 14.5258 16.4442L14.2555 16.1768C14.1528 16.2783 14.1013 16.4066 14.1013 16.5495H14.4837ZM14.5308 16.4392C14.5602 16.4078 14.5901 16.395 14.6323 16.395V16.0168C14.4832 16.0168 14.3519 16.0738 14.2505 16.1818L14.5308 16.4392ZM14.6323 16.395C14.6745 16.395 14.7044 16.4078 14.7338 16.4392L15.0141 16.1818C14.9127 16.0738 14.7814 16.0168 14.6323 16.0168V16.395ZM14.7439 16.4491C14.7756 16.4782 14.7885 16.5078 14.7885 16.5495H15.1708C15.1708 16.402 15.1132 16.2722 15.004 16.1719L14.7439 16.4491ZM14.7885 16.5495V21.0086H15.1708V16.5495H14.7885ZM14.7885 21.0086C14.7885 21.0899 14.7606 21.1553 14.697 21.215L14.9604 21.4892C15.0981 21.3598 15.1708 21.1961 15.1708 21.0086H14.7885ZM14.6935 21.2184C14.6338 21.2773 14.5667 21.305 14.4813 21.305V21.6831C14.6677 21.6831 14.8321 21.6161 14.9638 21.4858L14.6935 21.2184ZM14.4813 21.305H14.3907V21.6831H14.4813V21.305ZM14.3907 21.305C14.3391 21.305 14.293 21.2941 14.2496 21.2726L14.0787 21.6109C14.1763 21.6592 14.2811 21.6831 14.3907 21.6831V21.305ZM14.2589 21.2776C14.2094 21.2496 14.1719 21.2166 14.1434 21.1789L13.8375 21.4058C13.8996 21.4877 13.9778 21.5543 14.0693 21.6059L14.2589 21.2776ZM14.1476 21.1848L11.2252 17.0096L10.9109 17.2248L13.8333 21.4L14.1476 21.1848ZM10.8768 17.1172V21.1579H11.2592V17.1172H10.8768ZM10.8768 21.1579C10.8768 21.1996 10.8639 21.2292 10.8322 21.2583L11.0924 21.5356C11.2015 21.4352 11.2592 21.3054 11.2592 21.1579H10.8768ZM10.8271 21.2633C10.7988 21.2912 10.7675 21.305 10.7206 21.305V21.6831C10.8651 21.6831 10.9949 21.6322 11.0974 21.5306L10.8271 21.2633ZM17.9227 21.1953L17.8274 21.3592L17.8282 21.3597L17.8291 21.3601L17.9227 21.1953ZM16.9864 20.2467L16.8179 20.3361L16.8184 20.337L16.9864 20.2467ZM17.9454 16.5047L17.8517 16.3399L17.8508 16.3404L17.9454 16.5047ZM20.309 16.3105L20.2494 16.4902L20.2504 16.4905L20.309 16.3105ZM21.1623 16.7064L21.0604 16.8663L21.0685 16.8713L21.0769 16.8755L21.1623 16.7064ZM21.2227 17.1918L21.0876 17.0582L21.0846 17.0611L21.0818 17.0641L21.2227 17.1918ZM20.8376 17.2441L20.7397 17.4066L20.7458 17.4102L20.7521 17.4133L20.8376 17.2441ZM17.598 17.767L17.4315 17.674L17.431 17.6749L17.598 17.767ZM17.5829 19.9031L17.4131 19.9898L17.4139 19.9915L17.4148 19.9931L17.5829 19.9031ZM18.2928 20.6276L18.1956 20.7904L18.1972 20.7914L18.1988 20.7923L18.2928 20.6276ZM20.7168 20.5604L20.8081 20.7265L20.908 20.6729V20.5604H20.7168ZM20.7168 19.2085H20.908V19.0194H20.7168V19.2085ZM21.2378 20.9339L21.0773 20.8311L21.0765 20.8324L21.0757 20.8336L21.2378 20.9339ZM21.0339 21.1131L20.9525 20.942L20.9505 20.9429L20.9485 20.944L21.0339 21.1131ZM19.3047 21.3423C18.8149 21.3423 18.3872 21.2368 18.0165 21.0305L17.8291 21.3601C18.2637 21.6019 18.7574 21.7205 19.3047 21.7205V21.3423ZM18.018 21.0313C17.6459 20.8197 17.359 20.529 17.1543 20.1564L16.8184 20.337C17.0568 20.7711 17.394 21.1127 17.8274 21.3592L18.018 21.0313ZM17.1548 20.1573C16.9499 19.7796 16.8453 19.3479 16.8453 18.8575H16.4629C16.4629 19.4028 16.5798 19.8972 16.8179 20.3361L17.1548 20.1573ZM16.8453 18.8575C16.8453 18.3579 16.9546 17.9224 17.1682 17.5458L16.8348 17.3607C16.5852 17.8008 16.4629 18.3014 16.4629 18.8575H16.8453ZM17.1682 17.5458C17.3834 17.1663 17.6735 16.8755 18.04 16.669L17.8508 16.3404C17.4219 16.582 17.0827 16.9235 16.8348 17.3607L17.1682 17.5458ZM18.0392 16.6695C18.4116 16.4622 18.8246 16.3577 19.282 16.3577V15.9795C18.7628 15.9795 18.2846 16.099 17.8517 16.3399L18.0392 16.6695ZM19.282 16.3577C19.6598 16.3577 19.9812 16.4032 20.2494 16.4902L20.3686 16.1308C20.0528 16.0286 19.6896 15.9795 19.282 15.9795V16.3577ZM20.2504 16.4905C20.5318 16.5801 20.8018 16.7052 21.0604 16.8663L21.2642 16.5464C20.9792 16.3688 20.6803 16.2301 20.3676 16.1305L20.2504 16.4905ZM21.0769 16.8755C21.0769 16.8755 21.0774 16.8758 21.0785 16.8765C21.0796 16.8774 21.0814 16.8788 21.0837 16.8812C21.0886 16.8859 21.0957 16.8943 21.1041 16.9082L21.432 16.7136C21.3887 16.6423 21.3291 16.5774 21.2478 16.5372L21.0769 16.8755ZM21.1041 16.9082C21.116 16.9278 21.1222 16.9487 21.1222 16.9752H21.5045C21.5045 16.8823 21.4805 16.7937 21.432 16.7136L21.1041 16.9082ZM21.1222 16.9752C21.1222 17.0098 21.112 17.034 21.0876 17.0582L21.3579 17.3255C21.4542 17.2302 21.5045 17.11 21.5045 16.9752H21.1222ZM21.0818 17.0641C21.0687 17.0781 21.0481 17.0924 20.9962 17.0924V17.4706C21.1356 17.4706 21.2659 17.4251 21.3636 17.3196L21.0818 17.0641ZM20.9962 17.0924C20.971 17.0924 20.9473 17.087 20.9231 17.075L20.7521 17.4133C20.8285 17.4511 20.9106 17.4706 20.9962 17.4706V17.0924ZM20.9355 17.0817C20.6868 16.9352 20.4358 16.8239 20.1823 16.7492L20.0732 17.1117C20.293 17.1764 20.5152 17.2743 20.7397 17.4066L20.9355 17.0817ZM20.1823 16.7492C19.926 16.6736 19.6507 16.6368 19.3575 16.6368V17.015C19.6182 17.015 19.8563 17.0478 20.0732 17.1117L20.1823 16.7492ZM19.3575 16.6368C18.9473 16.6368 18.5714 16.7224 18.2342 16.8974L18.4118 17.2323C18.6887 17.0886 19.0026 17.015 19.3575 17.015V16.6368ZM18.2342 16.8974C17.8933 17.0742 17.6252 17.3347 17.4315 17.674L17.7645 17.8599C17.9232 17.5818 18.1384 17.3741 18.4118 17.2323L18.2342 16.8974ZM17.431 17.6749C17.2409 18.0123 17.1501 18.4089 17.1501 18.8575H17.5325C17.5325 18.4595 17.6128 18.1291 17.765 17.8591L17.431 17.6749ZM17.1501 18.8575C17.1501 19.2724 17.2364 19.6513 17.4131 19.9898L17.7528 19.8164C17.6073 19.5375 17.5325 19.2193 17.5325 18.8575H17.1501ZM17.4148 19.9931C17.5978 20.3277 17.8593 20.5942 18.1956 20.7904L18.39 20.4648C18.1121 20.3026 17.9003 20.086 17.7511 19.8131L17.4148 19.9931ZM18.1988 20.7923C18.5443 20.9853 18.9454 21.0781 19.3953 21.0781V20.7C18.9993 20.7 18.6655 20.6186 18.3867 20.4629L18.1988 20.7923ZM19.3953 21.0781C19.8997 21.0781 20.3717 20.961 20.8081 20.7265L20.6255 20.3943C20.2463 20.5979 19.8373 20.7 19.3953 20.7V21.0781ZM20.908 20.5604V19.2085H20.5256V20.5604H20.908ZM20.7168 19.0194H19.4708V19.3976H20.7168V19.0194ZM19.4708 19.0194C19.4358 19.0194 19.4114 19.0094 19.387 18.9852L19.1166 19.2526C19.213 19.3479 19.3346 19.3976 19.4708 19.3976V19.0194ZM19.387 18.9852C19.3625 18.961 19.3524 18.9369 19.3524 18.9023H18.97C18.97 19.037 19.0203 19.1573 19.1166 19.2526L19.387 18.9852ZM19.3524 18.9023C19.3524 18.8677 19.3625 18.8436 19.387 18.8194L19.1166 18.552C19.0203 18.6473 18.97 18.7675 18.97 18.9023H19.3524ZM19.387 18.8194C19.4114 18.7952 19.4358 18.7851 19.4708 18.7851V18.4069C19.3346 18.4069 19.213 18.4567 19.1166 18.552L19.387 18.8194ZM19.4708 18.7851H20.9584V18.4069H19.4708V18.7851ZM20.9584 18.7851C21.009 18.7851 21.0458 18.8004 21.08 18.8343L21.3503 18.5669C21.2437 18.4613 21.1093 18.4069 20.9584 18.4069V18.7851ZM21.08 18.8343C21.1142 18.8681 21.1297 18.9045 21.1297 18.9546H21.5121C21.5121 18.8054 21.4571 18.6724 21.3503 18.5669L21.08 18.8343ZM21.1297 18.9546V20.65H21.5121V18.9546H21.1297ZM21.1297 20.65C21.1297 20.7196 21.1119 20.7782 21.0773 20.8311L21.3983 21.0366C21.4745 20.9202 21.5121 20.7896 21.5121 20.65H21.1297ZM21.0757 20.8336C21.0447 20.8826 21.0048 20.9177 20.9525 20.942L21.1154 21.2842C21.2343 21.2288 21.3303 21.1444 21.4 21.0341L21.0757 20.8336ZM20.9485 20.944C20.4093 21.2107 19.8619 21.3423 19.3047 21.3423V21.7205C19.9254 21.7205 20.531 21.5733 21.1194 21.2823L20.9485 20.944Z" fill="white"/>
<g filter="url(#filter1_d_66_78068)">
<path d="M26 10.5841H18.3529C17.1915 10.5841 16.25 9.65282 16.25 8.50407V0.94043L26 10.5841Z" fill="url(#paint2_linear_66_78068)"/>
</g>
</g>
<defs>
<filter id="filter0_f_66_78068" x="-34.4116" y="-23.9727" width="95.0146" height="85.9414" filterUnits="userSpaceOnUse" color-interpolation-filters="sRGB">
<feFlood flood-opacity="0" result="BackgroundImageFix"/>
<feBlend mode="normal" in="SourceGraphic" in2="BackgroundImageFix" result="shape"/>
<feGaussianBlur stdDeviation="19.5" result="effect1_foregroundBlur_66_78068"/>
</filter>
<filter id="filter1_d_66_78068" x="-6.75" y="-23.0596" width="59.75" height="59.6436" filterUnits="userSpaceOnUse" color-interpolation-filters="sRGB">
<feFlood flood-opacity="0" result="BackgroundImageFix"/>
<feColorMatrix in="SourceAlpha" type="matrix" values="0 0 0 0 0 0 0 0 0 0 0 0 0 0 0 0 0 0 127 0" result="hardAlpha"/>
<feOffset dx="2" dy="1"/>
<feGaussianBlur stdDeviation="12.5"/>
<feColorMatrix type="matrix" values="0 0 0 0 0 0 0 0 0 0 0 0 0 0 0 0 0 0 0.33 0"/>
<feBlend mode="normal" in2="BackgroundImageFix" result="effect1_dropShadow_66_78068"/>
<feBlend mode="normal" in="SourceGraphic" in2="effect1_dropShadow_66_78068" result="shape"/>
</filter>
<linearGradient id="paint0_linear_66_78068" x1="13" y1="0.94043" x2="13" y2="30.0604" gradientUnits="userSpaceOnUse">
<stop stop-color="#FF7979"/>
<stop offset="1" stop-color="#E85555"/>
</linearGradient>
<linearGradient id="paint1_linear_66_78068" x1="13" y1="0.94043" x2="13" y2="30.0604" gradientUnits="userSpaceOnUse">
<stop stop-color="#FFA216"/>
<stop offset="1" stop-color="#EF8100"/>
</linearGradient>
<linearGradient id="paint2_linear_66_78068" x1="21.125" y1="0.94043" x2="21.125" y2="10.5841" gradientUnits="userSpaceOnUse">
<stop stop-color="#FF7A1B"/>
<stop offset="1" stop-color="#E86100"/>
</linearGradient>
</defs>
</svg>
