<svg width="20" height="20" viewBox="0 0 20 20" fill="none" xmlns="http://www.w3.org/2000/svg">
<rect width="20" height="20" rx="10" transform="matrix(-1 0 0 1 20 0)" fill="#8190B7"/>
<path d="M11.6778 15.2812C11.6067 15.2817 11.5362 15.268 11.4704 15.2411C11.4046 15.2143 11.3447 15.1746 11.2942 15.1246L6.9723 10.8026C6.92167 10.7524 6.88148 10.6927 6.85405 10.6268C6.82662 10.561 6.8125 10.4904 6.8125 10.4191C6.8125 10.3478 6.82662 10.2771 6.85405 10.2113C6.88148 10.1455 6.92167 10.0857 6.9723 10.0355L11.2942 5.71357C11.396 5.61184 11.5339 5.55469 11.6778 5.55469C11.8217 5.55469 11.9596 5.61184 12.0614 5.71357C12.1631 5.8153 12.2203 5.95327 12.2203 6.09714C12.2203 6.24101 12.1631 6.37898 12.0614 6.48071L8.11761 10.4191L12.0614 14.3574C12.112 14.4077 12.1522 14.4674 12.1796 14.5332C12.2071 14.5991 12.2212 14.6697 12.2212 14.741C12.2212 14.8123 12.2071 14.8829 12.1796 14.9488C12.1522 15.0146 12.112 15.0743 12.0614 15.1246C12.0109 15.1746 11.951 15.2143 11.8852 15.2411C11.8194 15.268 11.7489 15.2817 11.6778 15.2812Z" fill="white"/>
</svg>
