<svg width="12" height="14" viewBox="0 0 12 14" fill="none" xmlns="http://www.w3.org/2000/svg">
<path fill-rule="evenodd" clip-rule="evenodd" d="M3.92085 0.754104C4.03025 0.644712 4.17862 0.583252 4.33333 0.583252H9C9.96653 0.583252 10.75 1.36676 10.75 2.33325V4.66658C10.75 4.98875 10.4888 5.24992 10.1667 5.24992C9.84449 5.24992 9.58333 4.98875 9.58333 4.66658V2.33325C9.58333 2.01109 9.32218 1.74992 9 1.74992H4.91667V4.66658C4.91667 4.98875 4.65551 5.24992 4.33333 5.24992H1.41667V11.6666C1.41667 11.9888 1.67784 12.2499 2 12.2499H4.33333C4.65551 12.2499 4.91667 12.5111 4.91667 12.8333C4.91667 13.1554 4.65551 13.4166 4.33333 13.4166H2C1.0335 13.4166 0.25 12.6331 0.25 11.6666V4.66658C0.25 4.51187 0.31146 4.3635 0.420853 4.2541L3.92085 0.754104ZM2.24162 4.08325H3.75V2.57487L2.24162 4.08325ZM10.2668 10.9417C10.5721 10.4807 10.75 9.92773 10.75 9.33325C10.75 7.72243 9.44415 6.41658 7.83333 6.41658C6.22252 6.41658 4.91667 7.72243 4.91667 9.33325C4.91667 10.9441 6.22252 12.2499 7.83333 12.2499C8.42781 12.2499 8.98075 12.0721 9.44182 11.7667L10.9209 13.2457C11.1487 13.4735 11.518 13.4735 11.7458 13.2457C11.9736 13.0179 11.9736 12.6486 11.7458 12.4208L10.2668 10.9417ZM6.08333 9.33325C6.08333 8.36673 6.86681 7.58325 7.83333 7.58325C8.79986 7.58325 9.58333 8.36673 9.58333 9.33325C9.58333 10.2998 8.79986 11.0833 7.83333 11.0833C6.86681 11.0833 6.08333 10.2998 6.08333 9.33325Z" fill="#645DF6"/>
</svg>
