<svg width="18" height="17" viewBox="0 0 18 17" fill="none" xmlns="http://www.w3.org/2000/svg">
<path d="M15.2164 8.50079V14.233C15.2168 14.2966 15.2045 14.3596 15.1803 14.4184C15.1562 14.4772 15.1206 14.5306 15.0756 14.5756C15.0306 14.6206 14.9772 14.6562 14.9184 14.6803C14.8596 14.7045 14.7966 14.7168 14.733 14.7164H3.2686C3.20502 14.7168 3.14199 14.7045 3.08318 14.6803C3.02437 14.6562 2.97094 14.6206 2.92597 14.5756C2.88101 14.5306 2.84542 14.4772 2.82125 14.4184C2.79708 14.3596 2.78481 14.2966 2.78516 14.233V2.7686C2.78481 2.70502 2.79708 2.64199 2.82125 2.58318C2.84542 2.52437 2.88101 2.47094 2.92597 2.42597C2.97094 2.38101 3.02437 2.34542 3.08318 2.32125C3.14199 2.29708 3.20502 2.28481 3.2686 2.28516H9.00079" stroke="#645DF6"/>
<path d="M11.2109 2.28516H15.2166V6.42359" stroke="#645DF6"/>
<path d="M5.63281 12.1448L15.0067 2.36719" stroke="#645DF6"/>
</svg>
