<svg width="28" height="34" viewBox="0 0 28 34" fill="none" xmlns="http://www.w3.org/2000/svg">
<rect x="2.64453" y="7.5" width="9" height="19" rx="1.5" fill="#C8E0F7" stroke="#0057FF"/>
<path d="M22.8706 17.518L20.9302 19.4584C20.7266 19.6619 20.7266 19.9876 20.9302 20.1911C21.1337 20.3947 21.4594 20.3947 21.6629 20.1911L24.488 17.366C24.6916 17.1625 24.6916 16.8368 24.488 16.6333L21.6629 13.8082C21.4594 13.6046 21.1337 13.6046 20.9302 13.8082C20.7266 14.0117 20.7266 14.3374 20.9302 14.5409L22.8706 16.4813L15.8797 16.4813C15.592 16.4813 15.3614 16.712 15.3614 16.9996C15.3614 17.1408 15.4184 17.2737 15.5106 17.366C15.6029 17.4583 15.7332 17.518 15.877 17.5153L22.8706 17.518Z" fill="#0057FF"/>
</svg>
