<svg width="29" height="35" viewBox="0 0 29 35" fill="none" xmlns="http://www.w3.org/2000/svg">
<circle cx="21" cy="7" r="7" fill="#FFFEF0"/>
<g clip-path="url(#clip0_59_29075)">
<path d="M27.864 24.9868L27.1281 23.5944C27.163 23.4743 27.1875 23.3497 27.1875 23.2188C27.1875 22.8694 27.0511 22.5536 26.8341 22.3125C27.0516 22.0714 27.1875 21.7556 27.1875 21.4062C27.1875 21.0569 27.0511 20.7411 26.8341 20.5C27.0516 20.2589 27.1875 19.9431 27.1875 19.5938C27.1875 19.4148 27.1508 19.2448 27.0878 19.0881C27.6655 18.9313 28.0938 18.4079 28.0938 17.7812C28.0938 17.0318 27.4838 16.4219 26.7344 16.4219H26.6089L27.9148 14.1372C28.0317 13.9324 28.0938 13.699 28.0938 13.4625V13.25C28.0938 12.5005 27.4838 11.8906 26.7344 11.8906C26.052 11.8906 25.6831 12.2187 25.4135 12.4579C25.1838 12.6623 25.032 12.7969 24.694 12.7969C24.3564 12.7969 24.2046 12.6623 23.9748 12.4579C23.7052 12.2187 23.3364 11.8906 22.654 11.8906C21.972 11.8906 21.6032 12.2187 21.3336 12.4579C21.1038 12.6623 20.9525 12.7969 20.6149 12.7969C20.2782 12.7969 20.1269 12.6623 19.8981 12.4584C19.6285 12.2187 19.2601 11.8906 18.5781 11.8906C17.8287 11.8906 17.2188 12.5005 17.2188 13.25V13.4625C17.2188 13.699 17.2808 13.9324 17.3982 14.1368L17.927 15.0625H17.3257C16.8286 15.0625 16.3324 15.1486 15.8594 15.3022V8.71875C15.8594 7.46948 14.843 6.45312 13.5938 6.45312H2.71875C1.46948 6.45312 0.453125 7.46948 0.453125 8.71875V32.2812C0.453125 33.5305 1.46948 34.5469 2.71875 34.5469H13.5938C14.843 34.5469 15.8594 33.5305 15.8594 32.2812V23.5862C15.9369 23.6252 16.0162 23.6596 16.0909 23.7045L16.5209 23.9628C16.8979 24.1889 17.308 24.3484 17.7317 24.4503L17.4485 24.9864C17.0017 25.8319 16.7656 26.7835 16.7656 27.75C16.7656 30.998 19.4083 33.6406 22.6562 33.6406C25.9042 33.6406 28.5469 30.998 28.5469 27.7391C28.5469 26.7835 28.3108 25.8319 27.864 24.9868ZM18.125 13.25C18.125 13.0003 18.328 12.7969 18.5781 12.7969C18.9148 12.7969 19.0666 12.9315 19.2954 13.1354C19.565 13.3751 19.9334 13.7031 20.6149 13.7031C21.2969 13.7031 21.6657 13.3751 21.9353 13.1358C22.1651 12.9315 22.3164 12.7969 22.654 12.7969C22.9916 12.7969 23.1434 12.9315 23.3731 13.1358C23.6427 13.3751 24.0115 13.7031 24.694 13.7031C25.3764 13.7031 25.7457 13.3751 26.0153 13.1358C26.245 12.9315 26.3968 12.7969 26.7344 12.7969C26.9845 12.7969 27.1875 13.0003 27.1875 13.25V13.4625C27.1875 13.5414 27.1667 13.6188 27.1277 13.6873L25.5653 16.4219H19.7472L18.1848 13.6868C18.1458 13.6188 18.125 13.5414 18.125 13.4625V13.25ZM2.71875 7.35938H13.5938C14.3432 7.35938 14.9531 7.96928 14.9531 8.71875V10.0781H1.35938V8.71875C1.35938 7.96928 1.96928 7.35938 2.71875 7.35938ZM13.5938 33.6406H2.71875C1.96928 33.6406 1.35938 33.0307 1.35938 32.2812V30.9219H14.9531V32.2812C14.9531 33.0307 14.3432 33.6406 13.5938 33.6406ZM14.9531 30.0156H1.35938V10.9844H14.9531V15.671C14.6622 15.7911 14.3582 15.8763 14.0469 15.9225V11.8906H2.26562V29.1094H14.0469V23.2188H14.3364C14.5444 23.2188 14.7501 23.2446 14.9531 23.2822V30.0156ZM6.79688 15.0625V24.125H12.2344V23.2188H13.1406V28.2031H3.17188V12.7969H13.1406V15.9688H12.2344V15.0625H6.79688ZM9.51562 17.7812V23.2188H7.70312V15.9688H9.51562V16.875H10.4219V15.9688H11.3281V23.2188H10.4219V17.7812H9.51562ZM16.5572 22.9274C15.8866 22.525 15.1181 22.3125 14.3364 22.3125H12.2344V16.875H13.4868C14.2195 16.875 14.9536 16.7019 15.6093 16.3743C16.1394 16.1092 16.733 15.9688 17.3261 15.9688H18.4449L19.2216 17.3281H26.7344C26.9845 17.3281 27.1875 17.5316 27.1875 17.7812C27.1875 18.0309 26.9845 18.2344 26.7344 18.2344H25.8281H23.1094H20.3906V19.1406H23.1094H25.8281C26.0783 19.1406 26.2812 19.3441 26.2812 19.5938C26.2812 19.8434 26.0783 20.0469 25.8281 20.0469H23.1094H20.3906V20.9531H23.1094H25.8281C26.0783 20.9531 26.2812 21.1566 26.2812 21.4062C26.2812 21.6559 26.0783 21.8594 25.8281 21.8594H20.3906V22.7656H25.8281C26.0783 22.7656 26.2812 22.9691 26.2812 23.2188C26.2812 23.4684 26.0783 23.6719 25.8281 23.6719H18.7417C18.1241 23.6719 17.5169 23.5038 16.9872 23.1861L16.5572 22.9274ZM22.6562 32.7344C19.908 32.7344 17.6719 30.4982 17.6719 27.7391C17.6719 26.9307 17.8713 26.1251 18.2492 25.4105L18.6905 24.575C18.7077 24.575 18.7245 24.5786 18.7413 24.5786H25.8281C26.0819 24.5786 26.3166 24.5043 26.52 24.3828L27.0633 25.4105C27.4412 26.1251 27.6406 26.9303 27.6406 27.75C27.6406 30.4982 25.4045 32.7344 22.6562 32.7344Z" fill="url(#paint0_linear_59_29075)"/>
<path d="M22.6562 27.2969C22.9064 27.2969 23.1094 27.5003 23.1094 27.75H24.0156C24.0156 27.16 23.6355 26.6616 23.1094 26.474V25.4844H22.2031V26.474C21.677 26.6616 21.2969 27.16 21.2969 27.75C21.2969 28.4995 21.9068 29.1094 22.6562 29.1094C22.9064 29.1094 23.1094 29.3128 23.1094 29.5625C23.1094 29.8122 22.9064 30.0156 22.6562 30.0156C22.4061 30.0156 22.2031 29.8122 22.2031 29.5625H21.2969C21.2969 30.1525 21.677 30.6509 22.2031 30.8385V31.8281H23.1094V30.8385C23.6355 30.6509 24.0156 30.1525 24.0156 29.5625C24.0156 28.813 23.4057 28.2031 22.6562 28.2031C22.4061 28.2031 22.2031 27.9997 22.2031 27.75C22.2031 27.5003 22.4061 27.2969 22.6562 27.2969Z" fill="url(#paint1_linear_59_29075)"/>
<path d="M9.96875 8.26562H6.34375V9.17188H9.96875V8.26562Z" fill="url(#paint2_linear_59_29075)"/>
<path d="M11.7812 8.26562H10.875V9.17188H11.7812V8.26562Z" fill="url(#paint3_linear_59_29075)"/>
<path d="M5.4375 8.26562H4.53125V9.17188H5.4375V8.26562Z" fill="url(#paint4_linear_59_29075)"/>
<path d="M9.51562 31.8281H6.79688V32.7344H9.51562V31.8281Z" fill="url(#paint5_linear_59_29075)"/>
</g>
<defs>
<linearGradient id="paint0_linear_59_29075" x1="14.5" y1="6.45312" x2="14.5" y2="34.5469" gradientUnits="userSpaceOnUse">
<stop stop-color="#0033EA"/>
<stop offset="1" stop-color="#8A0074"/>
</linearGradient>
<linearGradient id="paint1_linear_59_29075" x1="22.6562" y1="25.4844" x2="22.6562" y2="31.8281" gradientUnits="userSpaceOnUse">
<stop stop-color="#0033EA"/>
<stop offset="1" stop-color="#8A0074"/>
</linearGradient>
<linearGradient id="paint2_linear_59_29075" x1="8.15625" y1="8.26562" x2="8.15625" y2="9.17188" gradientUnits="userSpaceOnUse">
<stop stop-color="#0033EA"/>
<stop offset="1" stop-color="#8A0074"/>
</linearGradient>
<linearGradient id="paint3_linear_59_29075" x1="11.3281" y1="8.26562" x2="11.3281" y2="9.17188" gradientUnits="userSpaceOnUse">
<stop stop-color="#0033EA"/>
<stop offset="1" stop-color="#8A0074"/>
</linearGradient>
<linearGradient id="paint4_linear_59_29075" x1="4.98438" y1="8.26562" x2="4.98438" y2="9.17188" gradientUnits="userSpaceOnUse">
<stop stop-color="#0033EA"/>
<stop offset="1" stop-color="#8A0074"/>
</linearGradient>
<linearGradient id="paint5_linear_59_29075" x1="8.15625" y1="31.8281" x2="8.15625" y2="32.7344" gradientUnits="userSpaceOnUse">
<stop stop-color="#0033EA"/>
<stop offset="1" stop-color="#8A0074"/>
</linearGradient>
<clipPath id="clip0_59_29075">
<rect width="29" height="29" fill="white" transform="translate(0 6)"/>
</clipPath>
</defs>
</svg>
