<svg width="25" height="22" viewBox="0 0 25 22" fill="none" xmlns="http://www.w3.org/2000/svg">
<g clip-path="url(#clip0_987_227736)">
<path fill-rule="evenodd" clip-rule="evenodd" d="M6.66631 14.16C6.25262 14.107 5.85132 14.0144 5.46631 13.8861V16.3413C5.46631 16.6886 5.60429 17.0217 5.8499 17.2674C6.09552 17.513 6.42864 17.651 6.77599 17.651L12.0533 17.651L12.0536 17.651C12.071 17.651 12.0881 17.6556 12.1033 17.6643C12.1185 17.673 12.1312 17.6856 12.14 17.7007L12.14 17.7007L12.1428 17.7053L13.4557 19.8964L13.4556 19.8965L13.4592 19.9023C13.5772 20.0942 13.7424 20.2527 13.939 20.3626C14.1357 20.4725 14.3572 20.5302 14.5824 20.5302C14.8077 20.5302 15.0292 20.4725 15.2258 20.3626C15.4225 20.2527 15.5877 20.0942 15.7056 19.9023L15.7057 19.9023L15.7092 19.8964L17.0221 17.7053L16.5074 17.3969L17.0248 17.7007C17.0337 17.6856 17.0464 17.673 17.0616 17.6643C17.0767 17.6556 17.0939 17.651 17.1113 17.651L17.1116 17.651L22.3889 17.651C22.7362 17.651 23.0694 17.513 23.315 17.2674C23.5606 17.0217 23.6986 16.6886 23.6986 16.3413V4.98644C23.6986 4.63909 23.5606 4.30597 23.315 4.06035C23.0694 3.81474 22.7362 3.67676 22.3889 3.67676H12.3433C12.6566 4.04321 12.9292 4.44555 13.154 4.87676H22.3889C22.418 4.87676 22.4459 4.88831 22.4664 4.90888C22.487 4.92945 22.4986 4.95735 22.4986 4.98644V16.3413C22.4986 16.3704 22.487 16.3983 22.4664 16.4188C22.4459 16.4394 22.418 16.451 22.3889 16.451L17.1107 16.451L17.1097 16.451C16.8833 16.4513 16.661 16.5107 16.4646 16.6234C16.2691 16.7355 16.1062 16.8964 15.9916 17.0904L14.6824 19.2755C14.6718 19.292 14.6574 19.3056 14.6403 19.3152C14.6226 19.325 14.6027 19.3302 14.5824 19.3302C14.5622 19.3302 14.5423 19.325 14.5246 19.3152C14.5075 19.3056 14.493 19.292 14.4825 19.2755L13.1733 17.0905C13.0588 16.8965 12.8958 16.7355 12.7003 16.6234C12.5039 16.5107 12.2815 16.4513 12.0552 16.451H12.0542H6.77599C6.7469 16.451 6.719 16.4394 6.69843 16.4188C6.67786 16.3983 6.66631 16.3704 6.66631 16.3413V14.16ZM14.5833 11.551C15.0732 11.551 15.4704 11.1538 15.4704 10.6639C15.4704 10.1739 15.0732 9.77676 14.5833 9.77676C14.0934 9.77676 13.6962 10.1739 13.6962 10.6639C13.6962 11.1538 14.0934 11.551 14.5833 11.551ZM19.7282 10.6639C19.7282 11.1538 19.331 11.551 18.8411 11.551C18.3512 11.551 17.954 11.1538 17.954 10.6639C17.954 10.1739 18.3512 9.77676 18.8411 9.77676C19.331 9.77676 19.7282 10.1739 19.7282 10.6639Z" fill="url(#paint0_linear_987_227736)"/>
<circle cx="7.48671" cy="7.82533" r="5.7871" fill="white" stroke="url(#paint1_linear_987_227736)" stroke-width="1.2"/>
<path d="M8.31836 6.42505L6.13086 8.61255L5.03711 7.5188" stroke="url(#paint2_linear_987_227736)" stroke-width="1.2" stroke-linecap="round" stroke-linejoin="round"/>
</g>
<defs>
<linearGradient id="paint0_linear_987_227736" x1="14.5824" y1="3.67676" x2="14.5824" y2="20.5302" gradientUnits="userSpaceOnUse">
<stop stop-color="#000AFF"/>
<stop offset="1" stop-color="#D274FF"/>
</linearGradient>
<linearGradient id="paint1_linear_987_227736" x1="7.48671" y1="1.43823" x2="7.48671" y2="14.2124" gradientUnits="userSpaceOnUse">
<stop stop-color="#000AFF"/>
<stop offset="1" stop-color="#D274FF"/>
</linearGradient>
<linearGradient id="paint2_linear_987_227736" x1="6.67773" y1="6.42505" x2="6.67773" y2="8.61255" gradientUnits="userSpaceOnUse">
<stop stop-color="#000AFF"/>
<stop offset="1" stop-color="#D274FF"/>
</linearGradient>
<clipPath id="clip0_987_227736">
<rect width="24.2" height="22" fill="white"/>
</clipPath>
</defs>
</svg>
