<svg width="46" height="46" viewBox="0 0 46 46" fill="none" xmlns="http://www.w3.org/2000/svg">
<path d="M33.2812 15.4219H28.3822L32.4632 10.7571C32.9904 10.1549 33.2812 9.38164 33.2812 8.58117V8.44531C33.2812 6.62333 31.7985 5.14062 29.9766 5.14062C28.1546 5.14062 26.6719 6.62333 26.6719 8.44531V9.54688H28.1406V8.44531C28.1406 7.43261 28.9639 6.60938 29.9766 6.60938C30.9893 6.60938 31.8125 7.43261 31.8125 8.44531V8.58117C31.8125 9.0262 31.6509 9.45508 31.3579 9.78995L26.6719 15.1458V16.8906H33.2812V15.4219Z" fill="url(#paint0_linear_584_123702)"/>
<path d="M39.1562 16.8906H40.625V14.6875H42.0938V13.2188H40.625V5.14062H38.7024L34.75 13.0454V14.6875H39.1562V16.8906ZM36.3054 13.2188L39.1562 7.51706V13.2188H36.3054Z" fill="url(#paint1_linear_584_123702)"/>
<path d="M36.5162 23.2261C41.7971 22.076 45.7656 17.3702 45.7656 11.75C45.7656 5.27134 40.4943 0 34.0156 0C28.3955 0 23.6896 3.96856 22.5395 9.24945C21.2434 8.96452 19.9208 8.8125 18.5938 8.8125C8.47039 8.8125 0.234375 17.0485 0.234375 27.1719C0.234375 37.2952 8.47039 45.5312 18.5938 45.5312C28.7171 45.5312 36.9531 37.2952 36.9531 27.1719C36.9531 25.8449 36.8011 24.5222 36.5162 23.2261ZM34.0156 1.46875C39.685 1.46875 44.2969 6.08063 44.2969 11.75C44.2969 17.4194 39.685 22.0312 34.0156 22.0312C28.3463 22.0312 23.7344 17.4194 23.7344 11.75C23.7344 6.08063 28.3463 1.46875 34.0156 1.46875ZM32.5182 26.4375H31.0781V27.9062H32.5094C32.3368 31.1992 31.023 34.1874 28.9499 36.4896L27.9401 35.4799L26.9017 36.5183L27.9115 37.528C25.6092 39.6019 22.6211 40.915 19.3281 41.0875V39.6562H17.8594V41.0875C14.5664 40.915 11.5783 39.6012 9.276 37.528L10.2858 36.5183L9.24736 35.4799L8.23759 36.4896C6.16372 34.1874 4.85066 31.1992 4.67808 27.9062H6.10938V26.4375H4.67808C4.85066 23.1446 6.16445 20.1564 8.23759 17.8541L9.24736 18.8639L10.2858 17.8255L9.276 16.8157C11.5783 14.7418 14.5664 13.4288 17.8594 13.2562V14.6875H19.3281V13.2474C20.3842 13.3032 21.4299 13.4809 22.4529 13.7761C23.3018 18.6311 27.1338 22.4631 31.9895 23.3127C32.284 24.3357 32.4617 25.3815 32.5182 26.4375ZM18.5938 44.0625C9.27967 44.0625 1.70312 36.486 1.70312 27.1719C1.70312 17.8578 9.27967 10.2812 18.5938 10.2812C19.8466 10.2812 21.0958 10.4289 22.3185 10.705C22.2877 11.0501 22.2656 11.3975 22.2656 11.75C22.2656 11.9035 22.2825 12.0533 22.2884 12.206C21.0767 11.9057 19.8385 11.75 18.5938 11.75C10.0904 11.75 3.17188 18.6685 3.17188 27.1719C3.17188 35.6752 10.0904 42.5938 18.5938 42.5938C27.0971 42.5938 34.0156 35.6752 34.0156 27.1719C34.0156 25.9271 33.8599 24.689 33.5596 23.4772C33.7123 23.4831 33.8621 23.5 34.0156 23.5C34.3681 23.5 34.7155 23.478 35.0606 23.4471C35.3368 24.6699 35.4844 25.919 35.4844 27.1719C35.4844 36.486 27.9078 44.0625 18.5938 44.0625Z" fill="url(#paint2_linear_584_123702)"/>
<path d="M20.7969 27.1719C20.7969 26.2157 20.1807 25.4079 19.3281 25.1039V16.1562H17.8594V25.1039C17.0068 25.4079 16.3906 26.2157 16.3906 27.1719C16.3906 28.3865 17.3791 29.375 18.5938 29.375C18.933 29.375 19.2503 29.292 19.5374 29.154L24.6839 34.3004L25.7223 33.262L20.5758 28.1155C20.7139 27.8284 20.7969 27.5112 20.7969 27.1719ZM17.8594 27.1719C17.8594 26.7665 18.1884 26.4375 18.5938 26.4375C18.9991 26.4375 19.3281 26.7665 19.3281 27.1719C19.3281 27.5772 18.9991 27.9062 18.5938 27.9062C18.1884 27.9062 17.8594 27.5772 17.8594 27.1719Z" fill="url(#paint3_linear_584_123702)"/>
<path d="M40.625 24.9688C39.4103 24.9688 38.4219 25.9572 38.4219 27.1719C38.4219 28.0906 38.9881 28.8786 39.7893 29.2083C39.3288 34.0434 37.2197 38.5943 33.8027 42.0797L34.8513 43.1078C38.5225 39.364 40.7807 34.4694 41.2588 29.2707C42.1635 28.9968 42.8281 28.1655 42.8281 27.1719C42.8281 25.9572 41.8397 24.9688 40.625 24.9688ZM40.625 27.9062C40.2196 27.9062 39.8906 27.5772 39.8906 27.1719C39.8906 26.7665 40.2196 26.4375 40.625 26.4375C41.0304 26.4375 41.3594 26.7665 41.3594 27.1719C41.3594 27.5772 41.0304 27.9062 40.625 27.9062Z" fill="url(#paint4_linear_584_123702)"/>
<path d="M4.11408 11.5539C7.5348 8.38069 11.9359 6.42945 16.561 5.98809C16.8944 6.78342 17.6794 7.34375 18.5937 7.34375C19.8084 7.34375 20.7969 6.35528 20.7969 5.14062C20.7969 3.92597 19.8084 2.9375 18.5937 2.9375C17.6009 2.9375 16.7688 3.60211 16.4949 4.50686C11.5225 4.96511 6.79087 7.06909 3.11606 10.4773L4.11408 11.5539ZM18.5937 4.40625C18.9991 4.40625 19.3281 4.73525 19.3281 5.14062C19.3281 5.546 18.9991 5.875 18.5937 5.875C18.1884 5.875 17.8594 5.546 17.8594 5.14062C17.8594 4.73525 18.1884 4.40625 18.5937 4.40625Z" fill="url(#paint5_linear_584_123702)"/>
<defs>
<linearGradient id="paint0_linear_584_123702" x1="27" y1="7.65581e-07" x2="15" y2="51.5" gradientUnits="userSpaceOnUse">
<stop stop-color="#BD00FF"/>
<stop offset="1" stop-color="#2D82E7"/>
</linearGradient>
<linearGradient id="paint1_linear_584_123702" x1="27" y1="7.65581e-07" x2="15" y2="51.5" gradientUnits="userSpaceOnUse">
<stop stop-color="#BD00FF"/>
<stop offset="1" stop-color="#2D82E7"/>
</linearGradient>
<linearGradient id="paint2_linear_584_123702" x1="27" y1="7.65581e-07" x2="15" y2="51.5" gradientUnits="userSpaceOnUse">
<stop stop-color="#BD00FF"/>
<stop offset="1" stop-color="#2D82E7"/>
</linearGradient>
<linearGradient id="paint3_linear_584_123702" x1="27" y1="7.65581e-07" x2="15" y2="51.5" gradientUnits="userSpaceOnUse">
<stop stop-color="#BD00FF"/>
<stop offset="1" stop-color="#2D82E7"/>
</linearGradient>
<linearGradient id="paint4_linear_584_123702" x1="27" y1="7.65581e-07" x2="15" y2="51.5" gradientUnits="userSpaceOnUse">
<stop stop-color="#BD00FF"/>
<stop offset="1" stop-color="#2D82E7"/>
</linearGradient>
<linearGradient id="paint5_linear_584_123702" x1="27" y1="7.65581e-07" x2="15" y2="51.5" gradientUnits="userSpaceOnUse">
<stop stop-color="#BD00FF"/>
<stop offset="1" stop-color="#2D82E7"/>
</linearGradient>
</defs>
</svg>
