<svg width="13" height="14" viewBox="0 0 13 14" fill="none" xmlns="http://www.w3.org/2000/svg">
<path d="M2.08691 4.61459C2.08691 7.01888 4.05406 8.98602 6.45834 8.98602C8.86263 8.98602 10.8298 7.01888 10.8298 4.61459C10.8298 2.21031 8.86263 0.243164 6.45834 0.243164C4.05406 0.243164 2.08691 2.21031 2.08691 4.61459ZM9.8012 4.61459C9.8012 6.45316 8.29691 7.95745 6.45834 7.95745C4.61977 7.95745 3.11549 6.45316 3.11549 4.61459C3.11549 2.77602 4.61977 1.27174 6.45834 1.27174C8.29691 1.27174 9.8012 2.77602 9.8012 4.61459Z" fill="white"/>
<path d="M1.36713 13.666C2.72999 12.3031 4.52999 11.5574 6.45856 11.5574C8.38713 11.5574 10.1871 12.3031 11.55 13.666L12.2828 12.9331C10.7271 11.3902 8.65713 10.5288 6.45856 10.5288C4.25999 10.5288 2.18999 11.3902 0.634277 12.9331L1.36713 13.666Z" fill="white"/>
</svg>
