<svg width="20" height="20" viewBox="0 0 20 20" fill="none" xmlns="http://www.w3.org/2000/svg">
<path fill-rule="evenodd" clip-rule="evenodd" d="M3.9374 2.13281C3.59594 2.13281 3.26846 2.26846 3.027 2.50991C2.78555 2.75137 2.6499 3.07885 2.6499 3.42031V17.9453H1.8749C1.54353 17.9453 1.2749 18.2139 1.2749 18.5453C1.2749 18.8767 1.54353 19.1453 1.8749 19.1453H3.24837L3.2499 19.1453L3.25143 19.1453H12.8734L12.8749 19.1453L12.8764 19.1453H19.7484L19.7499 19.1453L19.7514 19.1453H21.1249C21.4563 19.1453 21.7249 18.8767 21.7249 18.5453C21.7249 18.2139 21.4563 17.9453 21.1249 17.9453H20.3499V8.92031C20.3499 8.57885 20.2143 8.25136 19.9728 8.00991C19.7313 7.76846 19.4039 7.63281 19.0624 7.63281H13.4749V3.42031C13.4749 3.07885 13.3393 2.75137 13.0978 2.50991C12.8563 2.26846 12.5289 2.13281 12.1874 2.13281H3.9374ZM19.1499 8.92031V17.9453H13.4749V8.83281H19.0624C19.0856 8.83281 19.1079 8.84203 19.1243 8.85844C19.1407 8.87485 19.1499 8.8971 19.1499 8.92031ZM12.2749 3.42031V8.23281V17.9453H3.8499V3.42031C3.8499 3.39711 3.85912 3.37485 3.87553 3.35844C3.89194 3.34203 3.9142 3.33281 3.9374 3.33281H12.1874C12.2106 3.33281 12.2329 3.34203 12.2493 3.35844C12.2657 3.37485 12.2749 3.3971 12.2749 3.42031ZM5.9999 5.57031C5.66853 5.57031 5.3999 5.83894 5.3999 6.17031C5.3999 6.50168 5.66853 6.77031 5.9999 6.77031H8.7499C9.08127 6.77031 9.3499 6.50168 9.3499 6.17031C9.3499 5.83894 9.08127 5.57031 8.7499 5.57031H5.9999ZM6.7749 11.6703C6.7749 11.3389 7.04353 11.0703 7.3749 11.0703H10.1249C10.4563 11.0703 10.7249 11.3389 10.7249 11.6703C10.7249 12.0017 10.4563 12.2703 10.1249 12.2703H7.3749C7.04353 12.2703 6.7749 12.0017 6.7749 11.6703ZM5.9999 14.5078C5.66853 14.5078 5.3999 14.7764 5.3999 15.1078C5.3999 15.4392 5.66853 15.7078 5.9999 15.7078H8.7499C9.08127 15.7078 9.3499 15.4392 9.3499 15.1078C9.3499 14.7764 9.08127 14.5078 8.7499 14.5078H5.9999ZM15.0249 15.1078C15.0249 14.7764 15.2935 14.5078 15.6249 14.5078H16.9999C17.3313 14.5078 17.5999 14.7764 17.5999 15.1078C17.5999 15.4392 17.3313 15.7078 16.9999 15.7078H15.6249C15.2935 15.7078 15.0249 15.4392 15.0249 15.1078ZM15.6249 11.0703C15.2935 11.0703 15.0249 11.3389 15.0249 11.6703C15.0249 12.0017 15.2935 12.2703 15.6249 12.2703H16.9999C17.3313 12.2703 17.5999 12.0017 17.5999 11.6703C17.5999 11.3389 17.3313 11.0703 16.9999 11.0703H15.6249Z" fill="url(#paint0_linear_987_227525)"/>
<defs>
<linearGradient id="paint0_linear_987_227525" x1="11.4999" y1="2.13281" x2="11.4999" y2="19.1453" gradientUnits="userSpaceOnUse">
<stop stop-color="#0033EA"/>
<stop offset="1" stop-color="#8A0074"/>
</linearGradient>
</defs>
</svg>
