<svg width="29" height="29" viewBox="0 0 29 29" fill="none" xmlns="http://www.w3.org/2000/svg">
<path d="M11.5916 22.8522C9.69809 21.0832 8.61144 18.584 8.61144 15.9928C8.61144 10.8189 12.8216 6.61045 17.9938 6.61045H22.9613L18.4476 2.09668L19.6536 0.890625L26.2281 7.4651L19.6536 14.0396L18.4476 12.8335L22.9613 8.31974H17.9938C13.7615 8.31974 10.3173 11.7639 10.3173 15.9962C10.3173 18.1473 11.1839 20.1398 12.755 21.6086L11.5916 22.8522ZM27.3761 15.4043V26.4413C27.3761 26.9104 26.9923 27.2943 26.5232 27.2943H2.64085C2.17174 27.2943 1.78791 26.9104 1.78791 26.4413V15.3957H0.0820312V26.4413C0.0820312 27.8521 1.23009 29.0002 2.64085 29.0002H26.5232C27.934 29.0002 29.082 27.8521 29.082 26.4413V15.4043H27.3761Z" fill="url(#paint0_linear_483_580265)"/>
<defs>
<linearGradient id="paint0_linear_483_580265" x1="14.582" y1="0.890625" x2="14.582" y2="29.0002" gradientUnits="userSpaceOnUse">
<stop stop-color="#0033EA"/>
<stop offset="1" stop-color="#8A0074"/>
</linearGradient>
</defs>
</svg>
