<svg width="15" height="16" viewBox="0 0 15 16" fill="none" xmlns="http://www.w3.org/2000/svg">
<g clip-path="url(#clip0_1057_299059)">
<path d="M7.5 15.5C3.36457 15.5 0 12.1354 0 8C0 3.86457 3.36457 0.5 7.5 0.5C11.6354 0.5 15 3.86457 15 8C15 12.1354 11.6354 15.5 7.5 15.5ZM7.5 1.4375C3.88137 1.4375 0.9375 4.38137 0.9375 8C0.9375 11.6186 3.88137 14.5625 7.5 14.5625C11.1186 14.5625 14.0625 11.6186 14.0625 8C14.0625 4.38137 11.1186 1.4375 7.5 1.4375ZM10.1752 7.86266C10.3583 7.67949 10.3583 7.38289 10.1752 7.19984L7.83141 4.85609C7.73988 4.76457 7.61988 4.71875 7.5 4.71875C7.38012 4.71875 7.26012 4.76457 7.16859 4.85609L4.82484 7.19984C4.64168 7.38301 4.64168 7.67961 4.82484 7.86266C5.00801 8.0457 5.30461 8.04582 5.48766 7.86266L7.03125 6.31906V10.8125C7.03125 11.0716 7.24113 11.2812 7.5 11.2812C7.75887 11.2812 7.96875 11.0716 7.96875 10.8125V6.31906L9.51234 7.86266C9.69539 8.04582 9.99211 8.04582 10.1752 7.86266Z" fill="#645DF6"/>
</g>
<defs>
<clipPath id="clip0_1057_299059">
<rect width="15" height="15" fill="white" transform="matrix(1 0 0 -1 0 15.5)"/>
</clipPath>
</defs>
</svg>
