<svg width="30" height="30" viewBox="0 0 30 30" fill="none" xmlns="http://www.w3.org/2000/svg">
<g clip-path="url(#clip0_75_104332)">
<path d="M11.9914 23.6402C10.0326 21.8102 8.90849 19.2249 8.90849 16.5443C8.90849 11.192 13.2638 6.83845 18.6144 6.83845H23.7532L19.0838 2.16903L20.3314 0.921387L27.1326 7.72256L20.3314 14.5237L19.0838 13.2761L23.7532 8.60668H18.6144C14.2361 8.60668 10.6732 12.1696 10.6732 16.5479C10.6732 18.7732 11.5697 20.8343 13.195 22.3537L11.9914 23.6402ZM28.3203 15.9355V27.3532C28.3203 27.8384 27.9232 28.2355 27.4379 28.2355H2.73202C2.24673 28.2355 1.84967 27.8384 1.84967 27.3532V15.9267H0.0849609V27.3532C0.0849609 28.8126 1.27261 30.0002 2.73202 30.0002H27.4379C28.8973 30.0002 30.085 28.8126 30.085 27.3532V15.9355H28.3203Z" fill="url(#paint0_linear_75_104332)"/>
</g>
<defs>
<linearGradient id="paint0_linear_75_104332" x1="15.085" y1="0.921387" x2="15.085" y2="30.0002" gradientUnits="userSpaceOnUse">
<stop stop-color="#000AFF"/>
<stop offset="1" stop-color="#D274FF"/>
</linearGradient>
<clipPath id="clip0_75_104332">
<rect width="30" height="30" fill="white"/>
</clipPath>
</defs>
</svg>
