<svg width="30" height="30" viewBox="0 0 30 30" fill="none" xmlns="http://www.w3.org/2000/svg">
<g clip-path="url(#clip0_6_35852)">
<path d="M11.9905 23.64C10.0316 21.81 8.90751 19.2247 8.90751 16.5441C8.90751 11.1917 13.2628 6.8382 18.6134 6.8382H23.7522L19.0828 2.16879L20.3305 0.921143L27.1316 7.72232L20.3305 14.5235L19.0828 13.2758L23.7522 8.60644H18.6134C14.2352 8.60644 10.6722 12.1694 10.6722 16.5476C10.6722 18.7729 11.5687 20.8341 13.194 22.3535L11.9905 23.64ZM28.3193 15.9353V27.3529C28.3193 27.8382 27.9222 28.2353 27.4369 28.2353H2.73104C2.24575 28.2353 1.84869 27.8382 1.84869 27.3529V15.9264H0.0839844V27.3529C0.0839844 28.8123 1.27163 30 2.73104 30H27.4369C28.8963 30 30.084 28.8123 30.084 27.3529V15.9353H28.3193Z" fill="url(#paint0_linear_6_35852)"/>
</g>
<defs>
<linearGradient id="paint0_linear_6_35852" x1="15.084" y1="0.921143" x2="15.084" y2="30" gradientUnits="userSpaceOnUse">
<stop stop-color="#000AFF"/>
<stop offset="1" stop-color="#D274FF"/>
</linearGradient>
<clipPath id="clip0_6_35852">
<rect width="30" height="30" fill="white"/>
</clipPath>
</defs>
</svg>
