<svg width="22" height="22" viewBox="0 0 22 22" fill="none" xmlns="http://www.w3.org/2000/svg">
<path d="M11.6385 1.17577C11.6385 1.17577 11.6391 1.17622 11.6407 1.17778L11.6397 1.17678L11.6513 1.18718C11.6674 1.20144 11.6994 1.22876 11.749 1.26733C11.8481 1.34445 12.0181 1.4669 12.2737 1.62024C12.7847 1.92681 13.6397 2.35811 14.9565 2.79706C16.3037 3.2461 17.183 3.4643 17.711 3.56991C17.9746 3.62263 18.1488 3.64692 18.2484 3.65797C18.298 3.66349 18.3287 3.66568 18.3424 3.66648L18.3485 3.66682C18.8479 3.67496 19.25 4.08219 19.25 4.58335V11C19.25 14.1592 17.1584 16.6836 15.2703 18.3357C14.307 19.1786 13.348 19.8374 12.6317 20.2851C12.2725 20.5096 11.9719 20.6825 11.7591 20.8004C11.5778 20.9008 11.4049 20.9677 11.2175 21.0238C11.0756 21.0663 10.924 21.0678 10.782 21.0255C10.5945 20.9698 10.422 20.9007 10.2409 20.8004C10.0281 20.6825 9.72748 20.5096 9.36833 20.2851C8.652 19.8374 7.69302 19.1786 6.72971 18.3357C4.8416 16.6836 2.75 14.1592 2.75 11V4.58335C2.75 4.08219 3.15219 3.67497 3.6514 3.66682L3.6576 3.66648C3.67124 3.66568 3.70196 3.66349 3.75163 3.65797C3.85116 3.64692 4.02533 3.62263 4.28897 3.56991C4.81703 3.4643 5.69634 3.2461 7.04346 2.79706C8.36031 2.35811 9.21534 1.92681 9.72629 1.62024C9.98186 1.4669 10.1519 1.34445 10.251 1.26733C10.3006 1.22876 10.3326 1.20144 10.3488 1.18718L10.3604 1.17678C10.7161 0.829988 11.2839 0.829988 11.6397 1.17678L11.6385 1.17577Z" fill="#FFB82E"/>
</svg>
