<svg width="32" height="32" viewBox="0 0 32 32" fill="none" xmlns="http://www.w3.org/2000/svg">
<path d="M16.375 3.90625C9.86458 3.90625 4.65625 9.11458 4.65625 15.625C4.65625 17.9688 5.4375 20.3125 6.73958 22.2656L4.91667 25.3906C4.65625 25.7812 4.65625 26.3021 4.91667 26.6927C5.17708 27.0833 5.4375 27.3438 5.95833 27.3438H16.375C22.8854 27.3438 28.0938 22.1354 28.0938 15.625C28.0938 9.11458 22.8854 3.90625 16.375 3.90625ZM16.375 24.7396H8.30208L9.47396 22.7865C9.73438 22.2656 9.73438 21.7448 9.34375 21.3542C8.04167 19.7917 7.26042 17.7083 7.26042 15.625C7.26042 10.5469 11.2969 6.51042 16.375 6.51042C21.4531 6.51042 25.4896 10.5469 25.4896 15.625C25.4896 20.7031 21.4531 24.7396 16.375 24.7396Z" fill="white"/>
<path d="M16.5053 9.50537H16.3751C15.073 9.50537 13.9011 10.1564 13.2501 11.1981C12.7293 11.8491 12.8595 12.6304 13.5105 13.021C14.1615 13.4116 14.9428 13.2814 15.3334 12.6304C15.5938 12.2397 15.9845 12.1095 16.3751 12.1095H16.5053C17.1563 12.1095 17.6772 12.6304 17.6772 13.2814C17.6772 13.8022 17.2865 14.3231 16.8959 14.4533L15.9845 14.7137C15.4636 14.8439 15.073 15.3647 15.073 15.8856V16.9272C15.073 17.7085 15.5938 18.2293 16.3751 18.2293C17.0261 18.2293 17.6772 17.7085 17.6772 17.0575C19.2397 16.5366 20.2813 15.1043 20.2813 13.4116C20.2813 11.3283 18.5886 9.50537 16.5053 9.50537Z" fill="white"/>
<path d="M16.3748 22.1354C17.094 22.1354 17.6769 21.5525 17.6769 20.8333C17.6769 20.1142 17.094 19.5312 16.3748 19.5312C15.6557 19.5312 15.0728 20.1142 15.0728 20.8333C15.0728 21.5525 15.6557 22.1354 16.3748 22.1354Z" fill="white"/>
</svg>
