<svg width="25" height="25" viewBox="0 0 25 25" fill="none" xmlns="http://www.w3.org/2000/svg">
<path d="M12.5 3.125C7.29167 3.125 3.125 7.29167 3.125 12.5C3.125 14.375 3.75 16.25 4.79167 17.8125L3.33333 20.3125C3.125 20.625 3.125 21.0417 3.33333 21.3542C3.54167 21.6667 3.75 21.875 4.16667 21.875H12.5C17.7083 21.875 21.875 17.7083 21.875 12.5C21.875 7.29167 17.7083 3.125 12.5 3.125ZM12.5 19.7917H6.04167L6.97917 18.2292C7.1875 17.8125 7.1875 17.3958 6.875 17.0833C5.83333 15.8333 5.20833 14.1667 5.20833 12.5C5.20833 8.4375 8.4375 5.20833 12.5 5.20833C16.5625 5.20833 19.7917 8.4375 19.7917 12.5C19.7917 16.5625 16.5625 19.7917 12.5 19.7917Z" fill="white"/>
<path d="M12.6042 7.604H12.5C11.4584 7.604 10.5209 8.12484 10 8.95817C9.58336 9.479 9.68752 10.104 10.2084 10.4165C10.7292 10.729 11.3542 10.6248 11.6667 10.104C11.875 9.7915 12.1875 9.68734 12.5 9.68734H12.6042C13.125 9.68734 13.5417 10.104 13.5417 10.6248C13.5417 11.0415 13.2292 11.4582 12.9167 11.5623L12.1875 11.7707C11.7709 11.8748 11.4584 12.2915 11.4584 12.7082V13.5415C11.4584 14.1665 11.875 14.5832 12.5 14.5832C13.0209 14.5832 13.5417 14.1665 13.5417 13.6457C14.7917 13.229 15.625 12.0832 15.625 10.729C15.625 9.06234 14.2709 7.604 12.6042 7.604Z" fill="white"/>
<path d="M12.5 17.7083C13.0753 17.7083 13.5417 17.242 13.5417 16.6667C13.5417 16.0914 13.0753 15.625 12.5 15.625C11.9247 15.625 11.4584 16.0914 11.4584 16.6667C11.4584 17.242 11.9247 17.7083 12.5 17.7083Z" fill="white"/>
</svg>
