<svg width="22" height="22" viewBox="0 0 22 22" fill="none" xmlns="http://www.w3.org/2000/svg">
<rect x="1" y="1" width="20" height="20" rx="10" fill="white" stroke="#4A6ADA" strokeWidth="2"/>
<g clip-path="url(#clip0_444_1768)">
<path d="M11.4073 5.7041C10.6512 5.70497 9.9263 6.00571 9.39166 6.54034C8.85702 7.07498 8.55628 7.79986 8.55542 8.55595C8.55542 8.74504 8.63054 8.92639 8.76424 9.06009C8.89795 9.1938 9.07929 9.26892 9.26838 9.26892C9.45747 9.26892 9.63882 9.1938 9.77252 9.06009C9.90623 8.92639 9.98135 8.74504 9.98135 8.55595C9.98135 8.17777 10.1316 7.81508 10.399 7.54767C10.6664 7.28026 11.0291 7.13003 11.4073 7.13003C11.7855 7.13003 12.1481 7.28026 12.4156 7.54767C12.683 7.81508 12.8332 8.17777 12.8332 8.55595C12.8332 9.17422 12.4698 9.55369 11.8724 10.1051C11.3195 10.614 10.6943 11.1906 10.6943 12.1208C10.6943 12.3099 10.7694 12.4912 10.9031 12.6249C11.0368 12.7586 11.2182 12.8337 11.4073 12.8337C11.5964 12.8337 11.7777 12.7586 11.9114 12.6249C12.0451 12.4912 12.1202 12.3099 12.1202 12.1208C12.1202 11.8304 12.3932 11.5638 12.8388 11.153C13.4375 10.6001 14.2591 9.84333 14.2591 8.55595C14.2583 7.79986 13.9575 7.07498 13.4229 6.54034C12.8882 6.00571 12.1634 5.70497 11.4073 5.7041V5.7041Z" fill="#4A6ADA"/>
<path d="M11.4074 14.2598C11.1254 14.2598 10.8497 14.3434 10.6152 14.5001C10.3807 14.6568 10.1979 14.8795 10.09 15.14C9.98206 15.4006 9.95383 15.6873 10.0088 15.9639C10.0639 16.2405 10.1997 16.4946 10.3991 16.694C10.5985 16.8934 10.8526 17.0292 11.1292 17.0842C11.4058 17.1392 11.6925 17.111 11.9531 17.0031C12.2136 16.8952 12.4363 16.7124 12.593 16.4779C12.7497 16.2434 12.8333 15.9677 12.8333 15.6857C12.8329 15.3076 12.6826 14.9452 12.4152 14.6778C12.1479 14.4105 11.7854 14.2601 11.4074 14.2598Z" fill="#4A6ADA"/>
</g>
<defs>
<clipPath id="clip0_444_1768">
<rect width="11.4074" height="11.4074" fill="white" transform="translate(5.70361 5.7041)"/>
</clipPath>
</defs>
</svg>
