<svg width="22" height="22" viewBox="0 0 22 22" fill="none" xmlns="http://www.w3.org/2000/svg">
<path d="M11 19.25C15.5563 19.25 19.25 15.5563 19.25 11C19.25 6.44365 15.5563 2.75 11 2.75C6.44365 2.75 2.75 6.44365 2.75 11C2.75 15.5563 6.44365 19.25 11 19.25Z" stroke="#645DF6" stroke-width="1.5" stroke-linecap="round" stroke-linejoin="round"/>
<path d="M11.7969 15.4688C11.7969 15.9089 11.4401 16.2656 11 16.2656C10.5599 16.2656 10.2031 15.9089 10.2031 15.4688C10.2031 15.0286 10.5599 14.6719 11 14.6719C11.4401 14.6719 11.7969 15.0286 11.7969 15.4688Z" fill="#645DF6" stroke="#645DF6" stroke-width="0.125"/>
<path d="M11 12.375V11.6875C11.4759 11.6875 11.9411 11.5464 12.3368 11.282C12.7325 11.0176 13.041 10.6418 13.2231 10.2021C13.4052 9.7624 13.4529 9.27858 13.36 8.81181C13.2672 8.34505 13.038 7.9163 12.7015 7.57978C12.365 7.24326 11.9362 7.01408 11.4694 6.92124C11.0027 6.82839 10.5189 6.87604 10.0792 7.05817C9.63948 7.24029 9.26368 7.5487 8.99928 7.94441C8.73487 8.34012 8.59375 8.80534 8.59375 9.28125" stroke="#645DF6" stroke-width="1.5" stroke-linecap="round" stroke-linejoin="round"/>
</svg>
