<svg width="93" height="93" viewBox="0 0 93 93" fill="none" xmlns="http://www.w3.org/2000/svg">
<g id="qrcode 1" clip-path="url(#clip0_41_4108)">
<path id="Vector" d="M0.72439 0.321167H0.5V0.545557H0.72439V0.321167Z" fill="white"/>
<path id="Vector_2" d="M2.7439 90.0773H0.5V92.3212H2.7439V90.0773Z" fill="black"/>
<path id="Vector_3" d="M2.7439 87.8334H0.5V90.0773H2.7439V87.8334Z" fill="black"/>
<path id="Vector_4" d="M2.7439 85.5895H0.5V87.8334H2.7439V85.5895Z" fill="black"/>
<path id="Vector_5" d="M2.7439 83.3456H0.5V85.5895H2.7439V83.3456Z" fill="black"/>
<path id="Vector_6" d="M2.7439 81.1017H0.5V83.3456H2.7439V81.1017Z" fill="black"/>
<path id="Vector_7" d="M2.7439 78.8578H0.5V81.1017H2.7439V78.8578Z" fill="black"/>
<path id="Vector_8" d="M2.7439 76.6139H0.5V78.8578H2.7439V76.6139Z" fill="black"/>
<path id="Vector_9" d="M2.7439 69.8821H0.5V72.126H2.7439V69.8821Z" fill="black"/>
<path id="Vector_10" d="M2.7439 67.6382H0.5V69.8821H2.7439V67.6382Z" fill="black"/>
<path id="Vector_11" d="M2.7439 65.3943H0.5V67.6382H2.7439V65.3943Z" fill="black"/>
<path id="Vector_12" d="M2.7439 60.9065H0.5V63.1504H2.7439V60.9065Z" fill="black"/>
<path id="Vector_13" d="M2.7439 54.1748H0.5V56.4187H2.7439V54.1748Z" fill="black"/>
<path id="Vector_14" d="M2.7439 51.9309H0.5V54.1748H2.7439V51.9309Z" fill="black"/>
<path id="Vector_15" d="M2.7439 49.687H0.5V51.9309H2.7439V49.687Z" fill="black"/>
<path id="Vector_16" d="M2.7439 47.4431H0.5V49.687H2.7439V47.4431Z" fill="black"/>
<path id="Vector_17" d="M2.7439 42.9553H0.5V45.1992H2.7439V42.9553Z" fill="black"/>
<path id="Vector_18" d="M2.7439 40.7114H0.5V42.9553H2.7439V40.7114Z" fill="black"/>
<path id="Vector_19" d="M2.7439 38.4675H0.5V40.7114H2.7439V38.4675Z" fill="black"/>
<path id="Vector_20" d="M2.7439 36.2236H0.5V38.4675H2.7439V36.2236Z" fill="black"/>
<path id="Vector_21" d="M2.7439 33.9797H0.5V36.2236H2.7439V33.9797Z" fill="black"/>
<path id="Vector_22" d="M2.7439 31.7358H0.5V33.9797H2.7439V31.7358Z" fill="black"/>
<path id="Vector_23" d="M2.7439 29.4919H0.5V31.7358H2.7439V29.4919Z" fill="black"/>
<path id="Vector_24" d="M2.7439 27.248H0.5V29.4919H2.7439V27.248Z" fill="black"/>
<path id="Vector_25" d="M2.7439 22.7601H0.5V25.004H2.7439V22.7601Z" fill="black"/>
<path id="Vector_26" d="M2.7439 20.5162H0.5V22.7601H2.7439V20.5162Z" fill="black"/>
<path id="Vector_27" d="M2.7439 13.7845H0.5V16.0284H2.7439V13.7845Z" fill="black"/>
<path id="Vector_28" d="M2.7439 11.5406H0.5V13.7846H2.7439V11.5406Z" fill="black"/>
<path id="Vector_29" d="M2.7439 9.29675H0.5V11.5407H2.7439V9.29675Z" fill="black"/>
<path id="Vector_30" d="M2.7439 7.05286H0.5V9.29676H2.7439V7.05286Z" fill="black"/>
<path id="Vector_31" d="M2.7439 4.80896H0.5V7.05286H2.7439V4.80896Z" fill="black"/>
<path id="Vector_32" d="M2.7439 2.56506H0.5V4.80897H2.7439V2.56506Z" fill="black"/>
<path id="Vector_33" d="M2.7439 0.321167H0.5V2.56507H2.7439V0.321167Z" fill="black"/>
<path id="Vector_34" d="M4.98804 90.0773H2.74414V92.3212H4.98804V90.0773Z" fill="black"/>
<path id="Vector_35" d="M4.98804 76.6139H2.74414V78.8578H4.98804V76.6139Z" fill="black"/>
<path id="Vector_36" d="M4.98804 67.6382H2.74414V69.8821H4.98804V67.6382Z" fill="black"/>
<path id="Vector_37" d="M4.98804 63.1504H2.74414V65.3943H4.98804V63.1504Z" fill="black"/>
<path id="Vector_38" d="M4.98804 60.9065H2.74414V63.1504H4.98804V60.9065Z" fill="black"/>
<path id="Vector_39" d="M4.98804 51.9309H2.74414V54.1748H4.98804V51.9309Z" fill="black"/>
<path id="Vector_40" d="M4.98804 40.7114H2.74414V42.9553H4.98804V40.7114Z" fill="black"/>
<path id="Vector_41" d="M4.98804 36.2236H2.74414V38.4675H4.98804V36.2236Z" fill="black"/>
<path id="Vector_42" d="M4.98804 33.9797H2.74414V36.2236H4.98804V33.9797Z" fill="black"/>
<path id="Vector_43" d="M4.98804 31.7358H2.74414V33.9797H4.98804V31.7358Z" fill="black"/>
<path id="Vector_44" d="M4.98804 29.4919H2.74414V31.7358H4.98804V29.4919Z" fill="black"/>
<path id="Vector_45" d="M4.98804 27.248H2.74414V29.4919H4.98804V27.248Z" fill="black"/>
<path id="Vector_46" d="M4.98804 25.0042H2.74414V27.2481H4.98804V25.0042Z" fill="black"/>
<path id="Vector_47" d="M4.98804 18.2723H2.74414V20.5162H4.98804V18.2723Z" fill="black"/>
<path id="Vector_48" d="M4.98804 13.7845H2.74414V16.0284H4.98804V13.7845Z" fill="black"/>
<path id="Vector_49" d="M4.98804 0.321167H2.74414V2.56507H4.98804V0.321167Z" fill="black"/>
<path id="Vector_50" d="M7.2317 90.0773H4.98779V92.3212H7.2317V90.0773Z" fill="black"/>
<path id="Vector_51" d="M7.2317 85.5895H4.98779V87.8334H7.2317V85.5895Z" fill="black"/>
<path id="Vector_52" d="M7.2317 83.3456H4.98779V85.5895H7.2317V83.3456Z" fill="black"/>
<path id="Vector_53" d="M7.2317 81.1017H4.98779V83.3456H7.2317V81.1017Z" fill="black"/>
<path id="Vector_54" d="M7.2317 76.6139H4.98779V78.8578H7.2317V76.6139Z" fill="black"/>
<path id="Vector_55" d="M7.2317 72.126H4.98779V74.3699H7.2317V72.126Z" fill="black"/>
<path id="Vector_56" d="M7.2317 69.8821H4.98779V72.126H7.2317V69.8821Z" fill="black"/>
<path id="Vector_57" d="M7.2317 67.6382H4.98779V69.8821H7.2317V67.6382Z" fill="black"/>
<path id="Vector_58" d="M7.2317 65.3943H4.98779V67.6382H7.2317V65.3943Z" fill="black"/>
<path id="Vector_59" d="M7.2317 63.1504H4.98779V65.3943H7.2317V63.1504Z" fill="black"/>
<path id="Vector_60" d="M7.2317 60.9065H4.98779V63.1504H7.2317V60.9065Z" fill="black"/>
<path id="Vector_61" d="M7.2317 54.1748H4.98779V56.4187H7.2317V54.1748Z" fill="black"/>
<path id="Vector_62" d="M7.2317 40.7114H4.98779V42.9553H7.2317V40.7114Z" fill="black"/>
<path id="Vector_63" d="M7.2317 29.4919H4.98779V31.7358H7.2317V29.4919Z" fill="black"/>
<path id="Vector_64" d="M7.2317 25.0042H4.98779V27.2481H7.2317V25.0042Z" fill="black"/>
<path id="Vector_65" d="M7.2317 18.2723H4.98779V20.5162H7.2317V18.2723Z" fill="black"/>
<path id="Vector_66" d="M7.2317 13.7845H4.98779V16.0284H7.2317V13.7845Z" fill="black"/>
<path id="Vector_67" d="M7.2317 9.29675H4.98779V11.5407H7.2317V9.29675Z" fill="black"/>
<path id="Vector_68" d="M7.2317 7.05286H4.98779V9.29676H7.2317V7.05286Z" fill="black"/>
<path id="Vector_69" d="M7.2317 4.80896H4.98779V7.05286H7.2317V4.80896Z" fill="black"/>
<path id="Vector_70" d="M7.2317 0.321167H4.98779V2.56507H7.2317V0.321167Z" fill="black"/>
<path id="Vector_71" d="M9.47584 90.0773H7.23193V92.3212H9.47584V90.0773Z" fill="black"/>
<path id="Vector_72" d="M9.47584 85.5895H7.23193V87.8334H9.47584V85.5895Z" fill="black"/>
<path id="Vector_73" d="M9.47584 83.3456H7.23193V85.5895H9.47584V83.3456Z" fill="black"/>
<path id="Vector_74" d="M9.47584 81.1017H7.23193V83.3456H9.47584V81.1017Z" fill="black"/>
<path id="Vector_75" d="M9.47584 76.6139H7.23193V78.8578H9.47584V76.6139Z" fill="black"/>
<path id="Vector_76" d="M9.47584 58.6626H7.23193V60.9065H9.47584V58.6626Z" fill="black"/>
<path id="Vector_77" d="M9.47584 51.9309H7.23193V54.1748H9.47584V51.9309Z" fill="black"/>
<path id="Vector_78" d="M9.47584 49.687H7.23193V51.9309H9.47584V49.687Z" fill="black"/>
<path id="Vector_79" d="M9.47584 45.1992H7.23193V47.4431H9.47584V45.1992Z" fill="black"/>
<path id="Vector_80" d="M9.47584 42.9553H7.23193V45.1992H9.47584V42.9553Z" fill="black"/>
<path id="Vector_81" d="M9.47584 40.7114H7.23193V42.9553H9.47584V40.7114Z" fill="black"/>
<path id="Vector_82" d="M9.47584 38.4675H7.23193V40.7114H9.47584V38.4675Z" fill="black"/>
<path id="Vector_83" d="M9.47584 36.2236H7.23193V38.4675H9.47584V36.2236Z" fill="black"/>
<path id="Vector_84" d="M9.47584 33.9797H7.23193V36.2236H9.47584V33.9797Z" fill="black"/>
<path id="Vector_85" d="M9.47584 31.7358H7.23193V33.9797H9.47584V31.7358Z" fill="black"/>
<path id="Vector_86" d="M9.47584 29.4919H7.23193V31.7358H9.47584V29.4919Z" fill="black"/>
<path id="Vector_87" d="M9.47584 27.248H7.23193V29.4919H9.47584V27.248Z" fill="black"/>
<path id="Vector_88" d="M9.47584 25.0042H7.23193V27.2481H9.47584V25.0042Z" fill="black"/>
<path id="Vector_89" d="M9.47584 22.7601H7.23193V25.004H9.47584V22.7601Z" fill="black"/>
<path id="Vector_90" d="M9.47584 13.7845H7.23193V16.0284H9.47584V13.7845Z" fill="black"/>
<path id="Vector_91" d="M9.47584 9.29675H7.23193V11.5407H9.47584V9.29675Z" fill="black"/>
<path id="Vector_92" d="M9.47584 7.05286H7.23193V9.29676H9.47584V7.05286Z" fill="black"/>
<path id="Vector_93" d="M9.47584 4.80896H7.23193V7.05286H9.47584V4.80896Z" fill="black"/>
<path id="Vector_94" d="M9.47584 0.321167H7.23193V2.56507H9.47584V0.321167Z" fill="black"/>
<path id="Vector_95" d="M11.7195 90.0773H9.47559V92.3212H11.7195V90.0773Z" fill="black"/>
<path id="Vector_96" d="M11.7195 85.5895H9.47559V87.8334H11.7195V85.5895Z" fill="black"/>
<path id="Vector_97" d="M11.7195 83.3456H9.47559V85.5895H11.7195V83.3456Z" fill="black"/>
<path id="Vector_98" d="M11.7195 81.1017H9.47559V83.3456H11.7195V81.1017Z" fill="black"/>
<path id="Vector_99" d="M11.7195 76.6139H9.47559V78.8578H11.7195V76.6139Z" fill="black"/>
<path id="Vector_100" d="M11.7195 67.6382H9.47559V69.8821H11.7195V67.6382Z" fill="black"/>
<path id="Vector_101" d="M11.7195 60.9065H9.47559V63.1504H11.7195V60.9065Z" fill="black"/>
<path id="Vector_102" d="M11.7195 58.6626H9.47559V60.9065H11.7195V58.6626Z" fill="black"/>
<path id="Vector_103" d="M11.7195 56.4187H9.47559V58.6626H11.7195V56.4187Z" fill="black"/>
<path id="Vector_104" d="M11.7195 51.9309H9.47559V54.1748H11.7195V51.9309Z" fill="black"/>
<path id="Vector_105" d="M11.7195 45.1992H9.47559V47.4431H11.7195V45.1992Z" fill="black"/>
<path id="Vector_106" d="M11.7195 42.9553H9.47559V45.1992H11.7195V42.9553Z" fill="black"/>
<path id="Vector_107" d="M11.7195 40.7114H9.47559V42.9553H11.7195V40.7114Z" fill="black"/>
<path id="Vector_108" d="M11.7195 38.4675H9.47559V40.7114H11.7195V38.4675Z" fill="black"/>
<path id="Vector_109" d="M11.7195 31.7358H9.47559V33.9797H11.7195V31.7358Z" fill="black"/>
<path id="Vector_110" d="M11.7195 29.4919H9.47559V31.7358H11.7195V29.4919Z" fill="black"/>
<path id="Vector_111" d="M11.7195 27.248H9.47559V29.4919H11.7195V27.248Z" fill="black"/>
<path id="Vector_112" d="M11.7195 22.7601H9.47559V25.004H11.7195V22.7601Z" fill="black"/>
<path id="Vector_113" d="M11.7195 20.5162H9.47559V22.7601H11.7195V20.5162Z" fill="black"/>
<path id="Vector_114" d="M11.7195 18.2723H9.47559V20.5162H11.7195V18.2723Z" fill="black"/>
<path id="Vector_115" d="M11.7195 13.7845H9.47559V16.0284H11.7195V13.7845Z" fill="black"/>
<path id="Vector_116" d="M11.7195 9.29675H9.47559V11.5407H11.7195V9.29675Z" fill="black"/>
<path id="Vector_117" d="M11.7195 7.05286H9.47559V9.29676H11.7195V7.05286Z" fill="black"/>
<path id="Vector_118" d="M11.7195 4.80896H9.47559V7.05286H11.7195V4.80896Z" fill="black"/>
<path id="Vector_119" d="M11.7195 0.321167H9.47559V2.56507H11.7195V0.321167Z" fill="black"/>
<path id="Vector_120" d="M13.9636 90.0773H11.7197V92.3212H13.9636V90.0773Z" fill="black"/>
<path id="Vector_121" d="M13.9636 76.6139H11.7197V78.8578H13.9636V76.6139Z" fill="black"/>
<path id="Vector_122" d="M13.9636 69.8821H11.7197V72.126H13.9636V69.8821Z" fill="black"/>
<path id="Vector_123" d="M13.9636 67.6382H11.7197V69.8821H13.9636V67.6382Z" fill="black"/>
<path id="Vector_124" d="M13.9636 63.1504H11.7197V65.3943H13.9636V63.1504Z" fill="black"/>
<path id="Vector_125" d="M13.9636 60.9065H11.7197V63.1504H13.9636V60.9065Z" fill="black"/>
<path id="Vector_126" d="M13.9636 56.4187H11.7197V58.6626H13.9636V56.4187Z" fill="black"/>
<path id="Vector_127" d="M13.9636 47.4431H11.7197V49.687H13.9636V47.4431Z" fill="black"/>
<path id="Vector_128" d="M13.9636 42.9553H11.7197V45.1992H13.9636V42.9553Z" fill="black"/>
<path id="Vector_129" d="M13.9636 40.7114H11.7197V42.9553H13.9636V40.7114Z" fill="black"/>
<path id="Vector_130" d="M13.9636 38.4675H11.7197V40.7114H13.9636V38.4675Z" fill="black"/>
<path id="Vector_131" d="M13.9636 36.2236H11.7197V38.4675H13.9636V36.2236Z" fill="black"/>
<path id="Vector_132" d="M13.9636 33.9797H11.7197V36.2236H13.9636V33.9797Z" fill="black"/>
<path id="Vector_133" d="M13.9636 31.7358H11.7197V33.9797H13.9636V31.7358Z" fill="black"/>
<path id="Vector_134" d="M13.9636 29.4919H11.7197V31.7358H13.9636V29.4919Z" fill="black"/>
<path id="Vector_135" d="M13.9636 27.248H11.7197V29.4919H13.9636V27.248Z" fill="black"/>
<path id="Vector_136" d="M13.9636 25.0042H11.7197V27.2481H13.9636V25.0042Z" fill="black"/>
<path id="Vector_137" d="M13.9636 22.7601H11.7197V25.004H13.9636V22.7601Z" fill="black"/>
<path id="Vector_138" d="M13.9636 18.2723H11.7197V20.5162H13.9636V18.2723Z" fill="black"/>
<path id="Vector_139" d="M13.9636 13.7845H11.7197V16.0284H13.9636V13.7845Z" fill="black"/>
<path id="Vector_140" d="M13.9636 0.321167H11.7197V2.56507H13.9636V0.321167Z" fill="black"/>
<path id="Vector_141" d="M16.2073 90.0773H13.9634V92.3212H16.2073V90.0773Z" fill="black"/>
<path id="Vector_142" d="M16.2073 87.8334H13.9634V90.0773H16.2073V87.8334Z" fill="black"/>
<path id="Vector_143" d="M16.2073 85.5895H13.9634V87.8334H16.2073V85.5895Z" fill="black"/>
<path id="Vector_144" d="M16.2073 83.3456H13.9634V85.5895H16.2073V83.3456Z" fill="black"/>
<path id="Vector_145" d="M16.2073 81.1017H13.9634V83.3456H16.2073V81.1017Z" fill="black"/>
<path id="Vector_146" d="M16.2073 78.8578H13.9634V81.1017H16.2073V78.8578Z" fill="black"/>
<path id="Vector_147" d="M16.2073 76.6139H13.9634V78.8578H16.2073V76.6139Z" fill="black"/>
<path id="Vector_148" d="M16.2073 72.126H13.9634V74.3699H16.2073V72.126Z" fill="black"/>
<path id="Vector_149" d="M16.2073 67.6382H13.9634V69.8821H16.2073V67.6382Z" fill="black"/>
<path id="Vector_150" d="M16.2073 63.1504H13.9634V65.3943H16.2073V63.1504Z" fill="black"/>
<path id="Vector_151" d="M16.2073 58.6626H13.9634V60.9065H16.2073V58.6626Z" fill="black"/>
<path id="Vector_152" d="M16.2073 54.1748H13.9634V56.4187H16.2073V54.1748Z" fill="black"/>
<path id="Vector_153" d="M16.2073 49.687H13.9634V51.9309H16.2073V49.687Z" fill="black"/>
<path id="Vector_154" d="M16.2073 45.1992H13.9634V47.4431H16.2073V45.1992Z" fill="black"/>
<path id="Vector_155" d="M16.2073 40.7114H13.9634V42.9553H16.2073V40.7114Z" fill="black"/>
<path id="Vector_156" d="M16.2073 36.2236H13.9634V38.4675H16.2073V36.2236Z" fill="black"/>
<path id="Vector_157" d="M16.2073 31.7358H13.9634V33.9797H16.2073V31.7358Z" fill="black"/>
<path id="Vector_158" d="M16.2073 27.248H13.9634V29.4919H16.2073V27.248Z" fill="black"/>
<path id="Vector_159" d="M16.2073 22.7601H13.9634V25.004H16.2073V22.7601Z" fill="black"/>
<path id="Vector_160" d="M16.2073 13.7845H13.9634V16.0284H16.2073V13.7845Z" fill="black"/>
<path id="Vector_161" d="M16.2073 11.5406H13.9634V13.7846H16.2073V11.5406Z" fill="black"/>
<path id="Vector_162" d="M16.2073 9.29675H13.9634V11.5407H16.2073V9.29675Z" fill="black"/>
<path id="Vector_163" d="M16.2073 7.05286H13.9634V9.29676H16.2073V7.05286Z" fill="black"/>
<path id="Vector_164" d="M16.2073 4.80896H13.9634V7.05286H16.2073V4.80896Z" fill="black"/>
<path id="Vector_165" d="M16.2073 2.56506H13.9634V4.80897H16.2073V2.56506Z" fill="black"/>
<path id="Vector_166" d="M16.2073 0.321167H13.9634V2.56507H16.2073V0.321167Z" fill="black"/>
<path id="Vector_167" d="M18.4514 67.6382H16.2075V69.8821H18.4514V67.6382Z" fill="black"/>
<path id="Vector_168" d="M18.4514 65.3943H16.2075V67.6382H18.4514V65.3943Z" fill="black"/>
<path id="Vector_169" d="M18.4514 60.9065H16.2075V63.1504H18.4514V60.9065Z" fill="black"/>
<path id="Vector_170" d="M18.4514 58.6626H16.2075V60.9065H18.4514V58.6626Z" fill="black"/>
<path id="Vector_171" d="M18.4514 51.9309H16.2075V54.1748H18.4514V51.9309Z" fill="black"/>
<path id="Vector_172" d="M18.4514 49.687H16.2075V51.9309H18.4514V49.687Z" fill="black"/>
<path id="Vector_173" d="M18.4514 47.4431H16.2075V49.687H18.4514V47.4431Z" fill="black"/>
<path id="Vector_174" d="M18.4514 40.7114H16.2075V42.9553H18.4514V40.7114Z" fill="black"/>
<path id="Vector_175" d="M18.4514 38.4675H16.2075V40.7114H18.4514V38.4675Z" fill="black"/>
<path id="Vector_176" d="M18.4514 36.2236H16.2075V38.4675H18.4514V36.2236Z" fill="black"/>
<path id="Vector_177" d="M18.4514 33.9797H16.2075V36.2236H18.4514V33.9797Z" fill="black"/>
<path id="Vector_178" d="M18.4514 25.0042H16.2075V27.2481H18.4514V25.0042Z" fill="black"/>
<path id="Vector_179" d="M18.4514 22.7601H16.2075V25.004H18.4514V22.7601Z" fill="black"/>
<path id="Vector_180" d="M18.4514 18.2723H16.2075V20.5162H18.4514V18.2723Z" fill="black"/>
<path id="Vector_181" d="M20.6951 87.8334H18.4512V90.0773H20.6951V87.8334Z" fill="black"/>
<path id="Vector_182" d="M20.6951 85.5895H18.4512V87.8334H20.6951V85.5895Z" fill="black"/>
<path id="Vector_183" d="M20.6951 81.1017H18.4512V83.3456H20.6951V81.1017Z" fill="black"/>
<path id="Vector_184" d="M20.6951 78.8578H18.4512V81.1017H20.6951V78.8578Z" fill="black"/>
<path id="Vector_185" d="M20.6951 76.6139H18.4512V78.8578H20.6951V76.6139Z" fill="black"/>
<path id="Vector_186" d="M20.6951 69.8821H18.4512V72.126H20.6951V69.8821Z" fill="black"/>
<path id="Vector_187" d="M20.6951 67.6382H18.4512V69.8821H20.6951V67.6382Z" fill="black"/>
<path id="Vector_188" d="M20.6951 63.1504H18.4512V65.3943H20.6951V63.1504Z" fill="black"/>
<path id="Vector_189" d="M20.6951 58.6626H18.4512V60.9065H20.6951V58.6626Z" fill="black"/>
<path id="Vector_190" d="M20.6951 56.4187H18.4512V58.6626H20.6951V56.4187Z" fill="black"/>
<path id="Vector_191" d="M20.6951 54.1748H18.4512V56.4187H20.6951V54.1748Z" fill="black"/>
<path id="Vector_192" d="M20.6951 47.4431H18.4512V49.687H20.6951V47.4431Z" fill="black"/>
<path id="Vector_193" d="M20.6951 31.7358H18.4512V33.9797H20.6951V31.7358Z" fill="black"/>
<path id="Vector_194" d="M20.6951 29.4919H18.4512V31.7358H20.6951V29.4919Z" fill="black"/>
<path id="Vector_195" d="M20.6951 27.248H18.4512V29.4919H20.6951V27.248Z" fill="black"/>
<path id="Vector_196" d="M20.6951 22.7601H18.4512V25.004H20.6951V22.7601Z" fill="black"/>
<path id="Vector_197" d="M20.6951 20.5162H18.4512V22.7601H20.6951V20.5162Z" fill="black"/>
<path id="Vector_198" d="M20.6951 16.0284H18.4512V18.2723H20.6951V16.0284Z" fill="black"/>
<path id="Vector_199" d="M20.6951 7.05286H18.4512V9.29676H20.6951V7.05286Z" fill="black"/>
<path id="Vector_200" d="M20.6951 2.56506H18.4512V4.80897H20.6951V2.56506Z" fill="black"/>
<path id="Vector_201" d="M20.6951 0.321167H18.4512V2.56507H20.6951V0.321167Z" fill="black"/>
<path id="Vector_202" d="M22.9392 90.0773H20.6953V92.3212H22.9392V90.0773Z" fill="black"/>
<path id="Vector_203" d="M22.9392 87.8334H20.6953V90.0773H22.9392V87.8334Z" fill="black"/>
<path id="Vector_204" d="M22.9392 83.3456H20.6953V85.5895H22.9392V83.3456Z" fill="black"/>
<path id="Vector_205" d="M22.9392 76.6139H20.6953V78.8578H22.9392V76.6139Z" fill="black"/>
<path id="Vector_206" d="M22.9392 74.37H20.6953V76.6139H22.9392V74.37Z" fill="black"/>
<path id="Vector_207" d="M22.9392 72.126H20.6953V74.3699H22.9392V72.126Z" fill="black"/>
<path id="Vector_208" d="M22.9392 65.3943H20.6953V67.6382H22.9392V65.3943Z" fill="black"/>
<path id="Vector_209" d="M22.9392 63.1504H20.6953V65.3943H22.9392V63.1504Z" fill="black"/>
<path id="Vector_210" d="M22.9392 60.9065H20.6953V63.1504H22.9392V60.9065Z" fill="black"/>
<path id="Vector_211" d="M22.9392 58.6626H20.6953V60.9065H22.9392V58.6626Z" fill="black"/>
<path id="Vector_212" d="M22.9392 54.1748H20.6953V56.4187H22.9392V54.1748Z" fill="black"/>
<path id="Vector_213" d="M22.9392 38.4675H20.6953V40.7114H22.9392V38.4675Z" fill="black"/>
<path id="Vector_214" d="M22.9392 36.2236H20.6953V38.4675H22.9392V36.2236Z" fill="black"/>
<path id="Vector_215" d="M22.9392 29.4919H20.6953V31.7358H22.9392V29.4919Z" fill="black"/>
<path id="Vector_216" d="M22.9392 18.2723H20.6953V20.5162H22.9392V18.2723Z" fill="black"/>
<path id="Vector_217" d="M22.9392 16.0284H20.6953V18.2723H22.9392V16.0284Z" fill="black"/>
<path id="Vector_218" d="M22.9392 7.05286H20.6953V9.29676H22.9392V7.05286Z" fill="black"/>
<path id="Vector_219" d="M25.1829 87.8334H22.939V90.0773H25.1829V87.8334Z" fill="black"/>
<path id="Vector_220" d="M25.1829 85.5895H22.939V87.8334H25.1829V85.5895Z" fill="black"/>
<path id="Vector_221" d="M25.1829 78.8578H22.939V81.1017H25.1829V78.8578Z" fill="black"/>
<path id="Vector_222" d="M25.1829 69.8821H22.939V72.126H25.1829V69.8821Z" fill="black"/>
<path id="Vector_223" d="M25.1829 65.3943H22.939V67.6382H25.1829V65.3943Z" fill="black"/>
<path id="Vector_224" d="M25.1829 58.6626H22.939V60.9065H25.1829V58.6626Z" fill="black"/>
<path id="Vector_225" d="M25.1829 56.4187H22.939V58.6626H25.1829V56.4187Z" fill="black"/>
<path id="Vector_226" d="M25.1829 49.687H22.939V51.9309H25.1829V49.687Z" fill="black"/>
<path id="Vector_227" d="M25.1829 42.9553H22.939V45.1992H25.1829V42.9553Z" fill="black"/>
<path id="Vector_228" d="M25.1829 40.7114H22.939V42.9553H25.1829V40.7114Z" fill="black"/>
<path id="Vector_229" d="M25.1829 36.2236H22.939V38.4675H25.1829V36.2236Z" fill="black"/>
<path id="Vector_230" d="M25.1829 31.7358H22.939V33.9797H25.1829V31.7358Z" fill="black"/>
<path id="Vector_231" d="M25.1829 29.4919H22.939V31.7358H25.1829V29.4919Z" fill="black"/>
<path id="Vector_232" d="M25.1829 22.7601H22.939V25.004H25.1829V22.7601Z" fill="black"/>
<path id="Vector_233" d="M25.1829 20.5162H22.939V22.7601H25.1829V20.5162Z" fill="black"/>
<path id="Vector_234" d="M25.1829 16.0284H22.939V18.2723H25.1829V16.0284Z" fill="black"/>
<path id="Vector_235" d="M25.1829 13.7845H22.939V16.0284H25.1829V13.7845Z" fill="black"/>
<path id="Vector_236" d="M25.1829 11.5406H22.939V13.7846H25.1829V11.5406Z" fill="black"/>
<path id="Vector_237" d="M25.1829 9.29675H22.939V11.5407H25.1829V9.29675Z" fill="black"/>
<path id="Vector_238" d="M25.1829 7.05286H22.939V9.29676H25.1829V7.05286Z" fill="black"/>
<path id="Vector_239" d="M25.1829 4.80896H22.939V7.05286H25.1829V4.80896Z" fill="black"/>
<path id="Vector_240" d="M27.427 87.8334H25.1831V90.0773H27.427V87.8334Z" fill="black"/>
<path id="Vector_241" d="M27.427 85.5895H25.1831V87.8334H27.427V85.5895Z" fill="black"/>
<path id="Vector_242" d="M27.427 81.1017H25.1831V83.3456H27.427V81.1017Z" fill="black"/>
<path id="Vector_243" d="M27.427 78.8578H25.1831V81.1017H27.427V78.8578Z" fill="black"/>
<path id="Vector_244" d="M27.427 76.6139H25.1831V78.8578H27.427V76.6139Z" fill="black"/>
<path id="Vector_245" d="M27.427 74.37H25.1831V76.6139H27.427V74.37Z" fill="black"/>
<path id="Vector_246" d="M27.427 67.6382H25.1831V69.8821H27.427V67.6382Z" fill="black"/>
<path id="Vector_247" d="M27.427 58.6626H25.1831V60.9065H27.427V58.6626Z" fill="black"/>
<path id="Vector_248" d="M27.427 56.4187H25.1831V58.6626H27.427V56.4187Z" fill="black"/>
<path id="Vector_249" d="M27.427 54.1748H25.1831V56.4187H27.427V54.1748Z" fill="black"/>
<path id="Vector_250" d="M27.427 51.9309H25.1831V54.1748H27.427V51.9309Z" fill="black"/>
<path id="Vector_251" d="M27.427 49.687H25.1831V51.9309H27.427V49.687Z" fill="black"/>
<path id="Vector_252" d="M27.427 47.4431H25.1831V49.687H27.427V47.4431Z" fill="black"/>
<path id="Vector_253" d="M27.427 42.9553H25.1831V45.1992H27.427V42.9553Z" fill="black"/>
<path id="Vector_254" d="M27.427 40.7114H25.1831V42.9553H27.427V40.7114Z" fill="black"/>
<path id="Vector_255" d="M27.427 29.4919H25.1831V31.7358H27.427V29.4919Z" fill="black"/>
<path id="Vector_256" d="M27.427 25.0042H25.1831V27.2481H27.427V25.0042Z" fill="black"/>
<path id="Vector_257" d="M27.427 18.2723H25.1831V20.5162H27.427V18.2723Z" fill="black"/>
<path id="Vector_258" d="M27.427 16.0284H25.1831V18.2723H27.427V16.0284Z" fill="black"/>
<path id="Vector_259" d="M27.427 11.5406H25.1831V13.7846H27.427V11.5406Z" fill="black"/>
<path id="Vector_260" d="M27.427 9.29675H25.1831V11.5407H27.427V9.29675Z" fill="black"/>
<path id="Vector_261" d="M27.427 2.56506H25.1831V4.80897H27.427V2.56506Z" fill="black"/>
<path id="Vector_262" d="M27.427 0.321167H25.1831V2.56507H27.427V0.321167Z" fill="black"/>
<path id="Vector_263" d="M29.6707 90.0773H27.4268V92.3212H29.6707V90.0773Z" fill="black"/>
<path id="Vector_264" d="M29.6707 83.3456H27.4268V85.5895H29.6707V83.3456Z" fill="black"/>
<path id="Vector_265" d="M29.6707 76.6139H27.4268V78.8578H29.6707V76.6139Z" fill="black"/>
<path id="Vector_266" d="M29.6707 74.37H27.4268V76.6139H29.6707V74.37Z" fill="black"/>
<path id="Vector_267" d="M29.6707 72.126H27.4268V74.3699H29.6707V72.126Z" fill="black"/>
<path id="Vector_268" d="M29.6707 69.8821H27.4268V72.126H29.6707V69.8821Z" fill="black"/>
<path id="Vector_269" d="M29.6707 67.6382H27.4268V69.8821H29.6707V67.6382Z" fill="black"/>
<path id="Vector_270" d="M29.6707 65.3943H27.4268V67.6382H29.6707V65.3943Z" fill="black"/>
<path id="Vector_271" d="M29.6707 63.1504H27.4268V65.3943H29.6707V63.1504Z" fill="black"/>
<path id="Vector_272" d="M29.6707 60.9065H27.4268V63.1504H29.6707V60.9065Z" fill="black"/>
<path id="Vector_273" d="M29.6707 56.4187H27.4268V58.6626H29.6707V56.4187Z" fill="black"/>
<path id="Vector_274" d="M29.6707 54.1748H27.4268V56.4187H29.6707V54.1748Z" fill="black"/>
<path id="Vector_275" d="M29.6707 51.9309H27.4268V54.1748H29.6707V51.9309Z" fill="black"/>
<path id="Vector_276" d="M29.6707 47.4431H27.4268V49.687H29.6707V47.4431Z" fill="black"/>
<path id="Vector_277" d="M29.6707 45.1992H27.4268V47.4431H29.6707V45.1992Z" fill="black"/>
<path id="Vector_278" d="M29.6707 40.7114H27.4268V42.9553H29.6707V40.7114Z" fill="black"/>
<path id="Vector_279" d="M29.6707 36.2236H27.4268V38.4675H29.6707V36.2236Z" fill="black"/>
<path id="Vector_280" d="M29.6707 31.7358H27.4268V33.9797H29.6707V31.7358Z" fill="black"/>
<path id="Vector_281" d="M29.6707 27.248H27.4268V29.4919H29.6707V27.248Z" fill="black"/>
<path id="Vector_282" d="M29.6707 25.0042H27.4268V27.2481H29.6707V25.0042Z" fill="black"/>
<path id="Vector_283" d="M29.6707 20.5162H27.4268V22.7601H29.6707V20.5162Z" fill="black"/>
<path id="Vector_284" d="M29.6707 16.0284H27.4268V18.2723H29.6707V16.0284Z" fill="black"/>
<path id="Vector_285" d="M29.6707 13.7845H27.4268V16.0284H29.6707V13.7845Z" fill="black"/>
<path id="Vector_286" d="M29.6707 11.5406H27.4268V13.7846H29.6707V11.5406Z" fill="black"/>
<path id="Vector_287" d="M29.6707 9.29675H27.4268V11.5407H29.6707V9.29675Z" fill="black"/>
<path id="Vector_288" d="M29.6707 7.05286H27.4268V9.29676H29.6707V7.05286Z" fill="black"/>
<path id="Vector_289" d="M29.6707 4.80896H27.4268V7.05286H29.6707V4.80896Z" fill="black"/>
<path id="Vector_290" d="M31.9148 87.8334H29.6709V90.0773H31.9148V87.8334Z" fill="black"/>
<path id="Vector_291" d="M31.9148 85.5895H29.6709V87.8334H31.9148V85.5895Z" fill="black"/>
<path id="Vector_292" d="M31.9148 83.3456H29.6709V85.5895H31.9148V83.3456Z" fill="black"/>
<path id="Vector_293" d="M31.9148 72.126H29.6709V74.3699H31.9148V72.126Z" fill="black"/>
<path id="Vector_294" d="M31.9148 69.8821H29.6709V72.126H31.9148V69.8821Z" fill="black"/>
<path id="Vector_295" d="M31.9148 65.3943H29.6709V67.6382H31.9148V65.3943Z" fill="black"/>
<path id="Vector_296" d="M31.9148 54.1748H29.6709V56.4187H31.9148V54.1748Z" fill="black"/>
<path id="Vector_297" d="M31.9148 49.687H29.6709V51.9309H31.9148V49.687Z" fill="black"/>
<path id="Vector_298" d="M31.9148 45.1992H29.6709V47.4431H31.9148V45.1992Z" fill="black"/>
<path id="Vector_299" d="M31.9148 40.7114H29.6709V42.9553H31.9148V40.7114Z" fill="black"/>
<path id="Vector_300" d="M31.9148 38.4675H29.6709V40.7114H31.9148V38.4675Z" fill="black"/>
<path id="Vector_301" d="M31.9148 33.9797H29.6709V36.2236H31.9148V33.9797Z" fill="black"/>
<path id="Vector_302" d="M31.9148 31.7358H29.6709V33.9797H31.9148V31.7358Z" fill="black"/>
<path id="Vector_303" d="M31.9148 27.248H29.6709V29.4919H31.9148V27.248Z" fill="black"/>
<path id="Vector_304" d="M31.9148 25.0042H29.6709V27.2481H31.9148V25.0042Z" fill="black"/>
<path id="Vector_305" d="M31.9148 22.7601H29.6709V25.004H31.9148V22.7601Z" fill="black"/>
<path id="Vector_306" d="M31.9148 18.2723H29.6709V20.5162H31.9148V18.2723Z" fill="black"/>
<path id="Vector_307" d="M31.9148 16.0284H29.6709V18.2723H31.9148V16.0284Z" fill="black"/>
<path id="Vector_308" d="M31.9148 11.5406H29.6709V13.7846H31.9148V11.5406Z" fill="black"/>
<path id="Vector_309" d="M31.9148 9.29675H29.6709V11.5407H31.9148V9.29675Z" fill="black"/>
<path id="Vector_310" d="M31.9148 4.80896H29.6709V7.05286H31.9148V4.80896Z" fill="black"/>
<path id="Vector_311" d="M31.9148 2.56506H29.6709V4.80897H31.9148V2.56506Z" fill="black"/>
<path id="Vector_312" d="M34.1585 90.0773H31.9146V92.3212H34.1585V90.0773Z" fill="black"/>
<path id="Vector_313" d="M34.1585 87.8334H31.9146V90.0773H34.1585V87.8334Z" fill="black"/>
<path id="Vector_314" d="M34.1585 85.5895H31.9146V87.8334H34.1585V85.5895Z" fill="black"/>
<path id="Vector_315" d="M34.1585 83.3456H31.9146V85.5895H34.1585V83.3456Z" fill="black"/>
<path id="Vector_316" d="M34.1585 81.1017H31.9146V83.3456H34.1585V81.1017Z" fill="black"/>
<path id="Vector_317" d="M34.1585 78.8578H31.9146V81.1017H34.1585V78.8578Z" fill="black"/>
<path id="Vector_318" d="M34.1585 76.6139H31.9146V78.8578H34.1585V76.6139Z" fill="black"/>
<path id="Vector_319" d="M34.1585 74.37H31.9146V76.6139H34.1585V74.37Z" fill="black"/>
<path id="Vector_320" d="M34.1585 72.126H31.9146V74.3699H34.1585V72.126Z" fill="black"/>
<path id="Vector_321" d="M34.1585 67.6382H31.9146V69.8821H34.1585V67.6382Z" fill="black"/>
<path id="Vector_322" d="M34.1585 65.3943H31.9146V67.6382H34.1585V65.3943Z" fill="black"/>
<path id="Vector_323" d="M34.1585 56.4187H31.9146V58.6626H34.1585V56.4187Z" fill="black"/>
<path id="Vector_324" d="M34.1585 54.1748H31.9146V56.4187H34.1585V54.1748Z" fill="black"/>
<path id="Vector_325" d="M34.1585 51.9309H31.9146V54.1748H34.1585V51.9309Z" fill="black"/>
<path id="Vector_326" d="M34.1585 42.9553H31.9146V45.1992H34.1585V42.9553Z" fill="black"/>
<path id="Vector_327" d="M34.1585 36.2236H31.9146V38.4675H34.1585V36.2236Z" fill="black"/>
<path id="Vector_328" d="M34.1585 33.9797H31.9146V36.2236H34.1585V33.9797Z" fill="black"/>
<path id="Vector_329" d="M34.1585 27.248H31.9146V29.4919H34.1585V27.248Z" fill="black"/>
<path id="Vector_330" d="M34.1585 16.0284H31.9146V18.2723H34.1585V16.0284Z" fill="black"/>
<path id="Vector_331" d="M34.1585 13.7845H31.9146V16.0284H34.1585V13.7845Z" fill="black"/>
<path id="Vector_332" d="M34.1585 7.05286H31.9146V9.29676H34.1585V7.05286Z" fill="black"/>
<path id="Vector_333" d="M34.1585 4.80896H31.9146V7.05286H34.1585V4.80896Z" fill="black"/>
<path id="Vector_334" d="M34.1585 2.56506H31.9146V4.80897H34.1585V2.56506Z" fill="black"/>
<path id="Vector_335" d="M34.1585 0.321167H31.9146V2.56507H34.1585V0.321167Z" fill="black"/>
<path id="Vector_336" d="M36.4026 87.8334H34.1587V90.0773H36.4026V87.8334Z" fill="black"/>
<path id="Vector_337" d="M36.4026 78.8578H34.1587V81.1017H36.4026V78.8578Z" fill="black"/>
<path id="Vector_338" d="M36.4026 74.37H34.1587V76.6139H36.4026V74.37Z" fill="black"/>
<path id="Vector_339" d="M36.4026 69.8821H34.1587V72.126H36.4026V69.8821Z" fill="black"/>
<path id="Vector_340" d="M36.4026 65.3943H34.1587V67.6382H36.4026V65.3943Z" fill="black"/>
<path id="Vector_341" d="M36.4026 58.6626H34.1587V60.9065H36.4026V58.6626Z" fill="black"/>
<path id="Vector_342" d="M36.4026 56.4187H34.1587V58.6626H36.4026V56.4187Z" fill="black"/>
<path id="Vector_343" d="M36.4026 51.9309H34.1587V54.1748H36.4026V51.9309Z" fill="black"/>
<path id="Vector_344" d="M36.4026 47.4431H34.1587V49.687H36.4026V47.4431Z" fill="black"/>
<path id="Vector_345" d="M36.4026 45.1992H34.1587V47.4431H36.4026V45.1992Z" fill="black"/>
<path id="Vector_346" d="M36.4026 38.4675H34.1587V40.7114H36.4026V38.4675Z" fill="black"/>
<path id="Vector_347" d="M36.4026 36.2236H34.1587V38.4675H36.4026V36.2236Z" fill="black"/>
<path id="Vector_348" d="M36.4026 31.7358H34.1587V33.9797H36.4026V31.7358Z" fill="black"/>
<path id="Vector_349" d="M36.4026 29.4919H34.1587V31.7358H36.4026V29.4919Z" fill="black"/>
<path id="Vector_350" d="M36.4026 27.248H34.1587V29.4919H36.4026V27.248Z" fill="black"/>
<path id="Vector_351" d="M36.4026 11.5406H34.1587V13.7846H36.4026V11.5406Z" fill="black"/>
<path id="Vector_352" d="M36.4026 7.05286H34.1587V9.29676H36.4026V7.05286Z" fill="black"/>
<path id="Vector_353" d="M36.4026 2.56506H34.1587V4.80897H36.4026V2.56506Z" fill="black"/>
<path id="Vector_354" d="M36.4026 0.321167H34.1587V2.56507H36.4026V0.321167Z" fill="black"/>
<path id="Vector_355" d="M38.6462 90.0773H36.4023V92.3212H38.6462V90.0773Z" fill="black"/>
<path id="Vector_356" d="M38.6462 83.3456H36.4023V85.5895H38.6462V83.3456Z" fill="black"/>
<path id="Vector_357" d="M38.6462 72.126H36.4023V74.3699H38.6462V72.126Z" fill="black"/>
<path id="Vector_358" d="M38.6462 65.3943H36.4023V67.6382H38.6462V65.3943Z" fill="black"/>
<path id="Vector_359" d="M38.6462 60.9065H36.4023V63.1504H38.6462V60.9065Z" fill="black"/>
<path id="Vector_360" d="M38.6462 54.1748H36.4023V56.4187H38.6462V54.1748Z" fill="black"/>
<path id="Vector_361" d="M38.6462 49.687H36.4023V51.9309H38.6462V49.687Z" fill="black"/>
<path id="Vector_362" d="M38.6462 47.4431H36.4023V49.687H38.6462V47.4431Z" fill="black"/>
<path id="Vector_363" d="M38.6462 45.1992H36.4023V47.4431H38.6462V45.1992Z" fill="black"/>
<path id="Vector_364" d="M38.6462 40.7114H36.4023V42.9553H38.6462V40.7114Z" fill="black"/>
<path id="Vector_365" d="M38.6462 38.4675H36.4023V40.7114H38.6462V38.4675Z" fill="black"/>
<path id="Vector_366" d="M38.6462 36.2236H36.4023V38.4675H38.6462V36.2236Z" fill="black"/>
<path id="Vector_367" d="M38.6462 33.9797H36.4023V36.2236H38.6462V33.9797Z" fill="black"/>
<path id="Vector_368" d="M38.6462 31.7358H36.4023V33.9797H38.6462V31.7358Z" fill="black"/>
<path id="Vector_369" d="M38.6462 27.248H36.4023V29.4919H38.6462V27.248Z" fill="black"/>
<path id="Vector_370" d="M38.6462 25.0042H36.4023V27.2481H38.6462V25.0042Z" fill="black"/>
<path id="Vector_371" d="M38.6462 16.0284H36.4023V18.2723H38.6462V16.0284Z" fill="black"/>
<path id="Vector_372" d="M38.6462 13.7845H36.4023V16.0284H38.6462V13.7845Z" fill="black"/>
<path id="Vector_373" d="M38.6462 11.5406H36.4023V13.7846H38.6462V11.5406Z" fill="black"/>
<path id="Vector_374" d="M38.6462 7.05286H36.4023V9.29676H38.6462V7.05286Z" fill="black"/>
<path id="Vector_375" d="M38.6462 0.321167H36.4023V2.56507H38.6462V0.321167Z" fill="black"/>
<path id="Vector_376" d="M40.8904 90.0773H38.6465V92.3212H40.8904V90.0773Z" fill="black"/>
<path id="Vector_377" d="M40.8904 87.8334H38.6465V90.0773H40.8904V87.8334Z" fill="black"/>
<path id="Vector_378" d="M40.8904 85.5895H38.6465V87.8334H40.8904V85.5895Z" fill="black"/>
<path id="Vector_379" d="M40.8904 78.8578H38.6465V81.1017H40.8904V78.8578Z" fill="black"/>
<path id="Vector_380" d="M40.8904 76.6139H38.6465V78.8578H40.8904V76.6139Z" fill="black"/>
<path id="Vector_381" d="M40.8904 74.37H38.6465V76.6139H40.8904V74.37Z" fill="black"/>
<path id="Vector_382" d="M40.8904 60.9065H38.6465V63.1504H40.8904V60.9065Z" fill="black"/>
<path id="Vector_383" d="M40.8904 54.1748H38.6465V56.4187H40.8904V54.1748Z" fill="black"/>
<path id="Vector_384" d="M40.8904 51.9309H38.6465V54.1748H40.8904V51.9309Z" fill="black"/>
<path id="Vector_385" d="M40.8904 47.4431H38.6465V49.687H40.8904V47.4431Z" fill="black"/>
<path id="Vector_386" d="M40.8904 38.4675H38.6465V40.7114H40.8904V38.4675Z" fill="black"/>
<path id="Vector_387" d="M40.8904 36.2236H38.6465V38.4675H40.8904V36.2236Z" fill="black"/>
<path id="Vector_388" d="M40.8904 31.7358H38.6465V33.9797H40.8904V31.7358Z" fill="black"/>
<path id="Vector_389" d="M40.8904 27.248H38.6465V29.4919H40.8904V27.248Z" fill="black"/>
<path id="Vector_390" d="M40.8904 25.0042H38.6465V27.2481H40.8904V25.0042Z" fill="black"/>
<path id="Vector_391" d="M40.8904 22.7601H38.6465V25.004H40.8904V22.7601Z" fill="black"/>
<path id="Vector_392" d="M40.8904 18.2723H38.6465V20.5162H40.8904V18.2723Z" fill="black"/>
<path id="Vector_393" d="M40.8904 11.5406H38.6465V13.7846H40.8904V11.5406Z" fill="black"/>
<path id="Vector_394" d="M40.8904 4.80896H38.6465V7.05286H40.8904V4.80896Z" fill="black"/>
<path id="Vector_395" d="M40.8904 0.321167H38.6465V2.56507H40.8904V0.321167Z" fill="black"/>
<path id="Vector_396" d="M43.134 90.0773H40.8901V92.3212H43.134V90.0773Z" fill="black"/>
<path id="Vector_397" d="M43.134 85.5895H40.8901V87.8334H43.134V85.5895Z" fill="black"/>
<path id="Vector_398" d="M43.134 78.8578H40.8901V81.1017H43.134V78.8578Z" fill="black"/>
<path id="Vector_399" d="M43.134 76.6139H40.8901V78.8578H43.134V76.6139Z" fill="black"/>
<path id="Vector_400" d="M43.134 74.37H40.8901V76.6139H43.134V74.37Z" fill="black"/>
<path id="Vector_401" d="M43.134 72.126H40.8901V74.3699H43.134V72.126Z" fill="black"/>
<path id="Vector_402" d="M43.134 67.6382H40.8901V69.8821H43.134V67.6382Z" fill="black"/>
<path id="Vector_403" d="M43.134 58.6626H40.8901V60.9065H43.134V58.6626Z" fill="black"/>
<path id="Vector_404" d="M43.134 54.1748H40.8901V56.4187H43.134V54.1748Z" fill="black"/>
<path id="Vector_405" d="M43.134 45.1992H40.8901V47.4431H43.134V45.1992Z" fill="black"/>
<path id="Vector_406" d="M43.134 38.4675H40.8901V40.7114H43.134V38.4675Z" fill="black"/>
<path id="Vector_407" d="M43.134 29.4919H40.8901V31.7358H43.134V29.4919Z" fill="black"/>
<path id="Vector_408" d="M43.134 27.248H40.8901V29.4919H43.134V27.248Z" fill="black"/>
<path id="Vector_409" d="M43.134 20.5162H40.8901V22.7601H43.134V20.5162Z" fill="black"/>
<path id="Vector_410" d="M43.134 18.2723H40.8901V20.5162H43.134V18.2723Z" fill="black"/>
<path id="Vector_411" d="M43.134 16.0284H40.8901V18.2723H43.134V16.0284Z" fill="black"/>
<path id="Vector_412" d="M43.134 13.7845H40.8901V16.0284H43.134V13.7845Z" fill="black"/>
<path id="Vector_413" d="M43.134 9.29675H40.8901V11.5407H43.134V9.29675Z" fill="black"/>
<path id="Vector_414" d="M43.134 7.05286H40.8901V9.29676H43.134V7.05286Z" fill="black"/>
<path id="Vector_415" d="M43.134 4.80896H40.8901V7.05286H43.134V4.80896Z" fill="black"/>
<path id="Vector_416" d="M45.3782 87.8334H43.1343V90.0773H45.3782V87.8334Z" fill="black"/>
<path id="Vector_417" d="M45.3782 76.6139H43.1343V78.8578H45.3782V76.6139Z" fill="black"/>
<path id="Vector_418" d="M45.3782 65.3943H43.1343V67.6382H45.3782V65.3943Z" fill="black"/>
<path id="Vector_419" d="M45.3782 58.6626H43.1343V60.9065H45.3782V58.6626Z" fill="black"/>
<path id="Vector_420" d="M45.3782 54.1748H43.1343V56.4187H45.3782V54.1748Z" fill="black"/>
<path id="Vector_421" d="M45.3782 51.9309H43.1343V54.1748H45.3782V51.9309Z" fill="black"/>
<path id="Vector_422" d="M45.3782 47.4431H43.1343V49.687H45.3782V47.4431Z" fill="black"/>
<path id="Vector_423" d="M45.3782 45.1992H43.1343V47.4431H45.3782V45.1992Z" fill="black"/>
<path id="Vector_424" d="M45.3782 42.9553H43.1343V45.1992H45.3782V42.9553Z" fill="black"/>
<path id="Vector_425" d="M45.3782 33.9797H43.1343V36.2236H45.3782V33.9797Z" fill="black"/>
<path id="Vector_426" d="M45.3782 29.4919H43.1343V31.7358H45.3782V29.4919Z" fill="black"/>
<path id="Vector_427" d="M45.3782 27.248H43.1343V29.4919H45.3782V27.248Z" fill="black"/>
<path id="Vector_428" d="M45.3782 18.2723H43.1343V20.5162H45.3782V18.2723Z" fill="black"/>
<path id="Vector_429" d="M45.3782 16.0284H43.1343V18.2723H45.3782V16.0284Z" fill="black"/>
<path id="Vector_430" d="M45.3782 9.29675H43.1343V11.5407H45.3782V9.29675Z" fill="black"/>
<path id="Vector_431" d="M45.3782 7.05286H43.1343V9.29676H45.3782V7.05286Z" fill="black"/>
<path id="Vector_432" d="M45.3782 4.80896H43.1343V7.05286H45.3782V4.80896Z" fill="black"/>
<path id="Vector_433" d="M45.3782 0.321167H43.1343V2.56507H45.3782V0.321167Z" fill="black"/>
<path id="Vector_434" d="M47.6218 90.0773H45.3779V92.3212H47.6218V90.0773Z" fill="black"/>
<path id="Vector_435" d="M47.6218 85.5895H45.3779V87.8334H47.6218V85.5895Z" fill="black"/>
<path id="Vector_436" d="M47.6218 78.8578H45.3779V81.1017H47.6218V78.8578Z" fill="black"/>
<path id="Vector_437" d="M47.6218 76.6139H45.3779V78.8578H47.6218V76.6139Z" fill="black"/>
<path id="Vector_438" d="M47.6218 74.37H45.3779V76.6139H47.6218V74.37Z" fill="black"/>
<path id="Vector_439" d="M47.6218 72.126H45.3779V74.3699H47.6218V72.126Z" fill="black"/>
<path id="Vector_440" d="M47.6218 63.1504H45.3779V65.3943H47.6218V63.1504Z" fill="black"/>
<path id="Vector_441" d="M47.6218 60.9065H45.3779V63.1504H47.6218V60.9065Z" fill="black"/>
<path id="Vector_442" d="M47.6218 58.6626H45.3779V60.9065H47.6218V58.6626Z" fill="black"/>
<path id="Vector_443" d="M47.6218 56.4187H45.3779V58.6626H47.6218V56.4187Z" fill="black"/>
<path id="Vector_444" d="M47.6218 54.1748H45.3779V56.4187H47.6218V54.1748Z" fill="black"/>
<path id="Vector_445" d="M47.6218 49.687H45.3779V51.9309H47.6218V49.687Z" fill="black"/>
<path id="Vector_446" d="M47.6218 47.4431H45.3779V49.687H47.6218V47.4431Z" fill="black"/>
<path id="Vector_447" d="M47.6218 45.1992H45.3779V47.4431H47.6218V45.1992Z" fill="black"/>
<path id="Vector_448" d="M47.6218 42.9553H45.3779V45.1992H47.6218V42.9553Z" fill="black"/>
<path id="Vector_449" d="M47.6218 38.4675H45.3779V40.7114H47.6218V38.4675Z" fill="black"/>
<path id="Vector_450" d="M47.6218 31.7358H45.3779V33.9797H47.6218V31.7358Z" fill="black"/>
<path id="Vector_451" d="M47.6218 22.7601H45.3779V25.004H47.6218V22.7601Z" fill="black"/>
<path id="Vector_452" d="M47.6218 20.5162H45.3779V22.7601H47.6218V20.5162Z" fill="black"/>
<path id="Vector_453" d="M47.6218 13.7845H45.3779V16.0284H47.6218V13.7845Z" fill="black"/>
<path id="Vector_454" d="M47.6218 9.29675H45.3779V11.5407H47.6218V9.29675Z" fill="black"/>
<path id="Vector_455" d="M47.6218 0.321167H45.3779V2.56507H47.6218V0.321167Z" fill="black"/>
<path id="Vector_456" d="M49.866 90.0773H47.6221V92.3212H49.866V90.0773Z" fill="black"/>
<path id="Vector_457" d="M49.866 87.8334H47.6221V90.0773H49.866V87.8334Z" fill="black"/>
<path id="Vector_458" d="M49.866 85.5895H47.6221V87.8334H49.866V85.5895Z" fill="black"/>
<path id="Vector_459" d="M49.866 78.8578H47.6221V81.1017H49.866V78.8578Z" fill="black"/>
<path id="Vector_460" d="M49.866 76.6139H47.6221V78.8578H49.866V76.6139Z" fill="black"/>
<path id="Vector_461" d="M49.866 72.126H47.6221V74.3699H49.866V72.126Z" fill="black"/>
<path id="Vector_462" d="M49.866 67.6382H47.6221V69.8821H49.866V67.6382Z" fill="black"/>
<path id="Vector_463" d="M49.866 63.1504H47.6221V65.3943H49.866V63.1504Z" fill="black"/>
<path id="Vector_464" d="M49.866 58.6626H47.6221V60.9065H49.866V58.6626Z" fill="black"/>
<path id="Vector_465" d="M49.866 56.4187H47.6221V58.6626H49.866V56.4187Z" fill="black"/>
<path id="Vector_466" d="M49.866 49.687H47.6221V51.9309H49.866V49.687Z" fill="black"/>
<path id="Vector_467" d="M49.866 42.9553H47.6221V45.1992H49.866V42.9553Z" fill="black"/>
<path id="Vector_468" d="M49.866 38.4675H47.6221V40.7114H49.866V38.4675Z" fill="black"/>
<path id="Vector_469" d="M49.866 33.9797H47.6221V36.2236H49.866V33.9797Z" fill="black"/>
<path id="Vector_470" d="M49.866 29.4919H47.6221V31.7358H49.866V29.4919Z" fill="black"/>
<path id="Vector_471" d="M49.866 25.0042H47.6221V27.2481H49.866V25.0042Z" fill="black"/>
<path id="Vector_472" d="M49.866 22.7601H47.6221V25.004H49.866V22.7601Z" fill="black"/>
<path id="Vector_473" d="M49.866 9.29675H47.6221V11.5407H49.866V9.29675Z" fill="black"/>
<path id="Vector_474" d="M49.866 4.80896H47.6221V7.05286H49.866V4.80896Z" fill="black"/>
<path id="Vector_475" d="M49.866 2.56506H47.6221V4.80897H49.866V2.56506Z" fill="black"/>
<path id="Vector_476" d="M52.1096 87.8334H49.8657V90.0773H52.1096V87.8334Z" fill="black"/>
<path id="Vector_477" d="M52.1096 83.3456H49.8657V85.5895H52.1096V83.3456Z" fill="black"/>
<path id="Vector_478" d="M52.1096 81.1017H49.8657V83.3456H52.1096V81.1017Z" fill="black"/>
<path id="Vector_479" d="M52.1096 78.8578H49.8657V81.1017H52.1096V78.8578Z" fill="black"/>
<path id="Vector_480" d="M52.1096 72.126H49.8657V74.3699H52.1096V72.126Z" fill="black"/>
<path id="Vector_481" d="M52.1096 69.8821H49.8657V72.126H52.1096V69.8821Z" fill="black"/>
<path id="Vector_482" d="M52.1096 65.3943H49.8657V67.6382H52.1096V65.3943Z" fill="black"/>
<path id="Vector_483" d="M52.1096 63.1504H49.8657V65.3943H52.1096V63.1504Z" fill="black"/>
<path id="Vector_484" d="M52.1096 56.4187H49.8657V58.6626H52.1096V56.4187Z" fill="black"/>
<path id="Vector_485" d="M52.1096 42.9553H49.8657V45.1992H52.1096V42.9553Z" fill="black"/>
<path id="Vector_486" d="M52.1096 40.7114H49.8657V42.9553H52.1096V40.7114Z" fill="black"/>
<path id="Vector_487" d="M52.1096 36.2236H49.8657V38.4675H52.1096V36.2236Z" fill="black"/>
<path id="Vector_488" d="M52.1096 31.7358H49.8657V33.9797H52.1096V31.7358Z" fill="black"/>
<path id="Vector_489" d="M52.1096 29.4919H49.8657V31.7358H52.1096V29.4919Z" fill="black"/>
<path id="Vector_490" d="M52.1096 22.7601H49.8657V25.004H52.1096V22.7601Z" fill="black"/>
<path id="Vector_491" d="M52.1096 20.5162H49.8657V22.7601H52.1096V20.5162Z" fill="black"/>
<path id="Vector_492" d="M52.1096 16.0284H49.8657V18.2723H52.1096V16.0284Z" fill="black"/>
<path id="Vector_493" d="M52.1096 13.7845H49.8657V16.0284H52.1096V13.7845Z" fill="black"/>
<path id="Vector_494" d="M52.1096 11.5406H49.8657V13.7846H52.1096V11.5406Z" fill="black"/>
<path id="Vector_495" d="M52.1096 9.29675H49.8657V11.5407H52.1096V9.29675Z" fill="black"/>
<path id="Vector_496" d="M52.1096 7.05286H49.8657V9.29676H52.1096V7.05286Z" fill="black"/>
<path id="Vector_497" d="M52.1096 4.80896H49.8657V7.05286H52.1096V4.80896Z" fill="black"/>
<path id="Vector_498" d="M52.1096 2.56506H49.8657V4.80897H52.1096V2.56506Z" fill="black"/>
<path id="Vector_499" d="M54.3538 90.0773H52.1099V92.3212H54.3538V90.0773Z" fill="black"/>
<path id="Vector_500" d="M54.3538 85.5895H52.1099V87.8334H54.3538V85.5895Z" fill="black"/>
<path id="Vector_501" d="M54.3538 83.3456H52.1099V85.5895H54.3538V83.3456Z" fill="black"/>
<path id="Vector_502" d="M54.3538 78.8578H52.1099V81.1017H54.3538V78.8578Z" fill="black"/>
<path id="Vector_503" d="M54.3538 74.37H52.1099V76.6139H54.3538V74.37Z" fill="black"/>
<path id="Vector_504" d="M54.3538 72.126H52.1099V74.3699H54.3538V72.126Z" fill="black"/>
<path id="Vector_505" d="M54.3538 67.6382H52.1099V69.8821H54.3538V67.6382Z" fill="black"/>
<path id="Vector_506" d="M54.3538 60.9065H52.1099V63.1504H54.3538V60.9065Z" fill="black"/>
<path id="Vector_507" d="M54.3538 58.6626H52.1099V60.9065H54.3538V58.6626Z" fill="black"/>
<path id="Vector_508" d="M54.3538 56.4187H52.1099V58.6626H54.3538V56.4187Z" fill="black"/>
<path id="Vector_509" d="M54.3538 49.687H52.1099V51.9309H54.3538V49.687Z" fill="black"/>
<path id="Vector_510" d="M54.3538 47.4431H52.1099V49.687H54.3538V47.4431Z" fill="black"/>
<path id="Vector_511" d="M54.3538 45.1992H52.1099V47.4431H54.3538V45.1992Z" fill="black"/>
<path id="Vector_512" d="M54.3538 42.9553H52.1099V45.1992H54.3538V42.9553Z" fill="black"/>
<path id="Vector_513" d="M54.3538 33.9797H52.1099V36.2236H54.3538V33.9797Z" fill="black"/>
<path id="Vector_514" d="M54.3538 31.7358H52.1099V33.9797H54.3538V31.7358Z" fill="black"/>
<path id="Vector_515" d="M54.3538 29.4919H52.1099V31.7358H54.3538V29.4919Z" fill="black"/>
<path id="Vector_516" d="M54.3538 18.2723H52.1099V20.5162H54.3538V18.2723Z" fill="black"/>
<path id="Vector_517" d="M54.3538 16.0284H52.1099V18.2723H54.3538V16.0284Z" fill="black"/>
<path id="Vector_518" d="M54.3538 9.29675H52.1099V11.5407H54.3538V9.29675Z" fill="black"/>
<path id="Vector_519" d="M54.3538 7.05286H52.1099V9.29676H54.3538V7.05286Z" fill="black"/>
<path id="Vector_520" d="M54.3538 0.321167H52.1099V2.56507H54.3538V0.321167Z" fill="black"/>
<path id="Vector_521" d="M56.5974 90.0773H54.3535V92.3212H56.5974V90.0773Z" fill="black"/>
<path id="Vector_522" d="M56.5974 87.8334H54.3535V90.0773H56.5974V87.8334Z" fill="black"/>
<path id="Vector_523" d="M56.5974 81.1017H54.3535V83.3456H56.5974V81.1017Z" fill="black"/>
<path id="Vector_524" d="M56.5974 76.6139H54.3535V78.8578H56.5974V76.6139Z" fill="black"/>
<path id="Vector_525" d="M56.5974 74.37H54.3535V76.6139H56.5974V74.37Z" fill="black"/>
<path id="Vector_526" d="M56.5974 72.126H54.3535V74.3699H56.5974V72.126Z" fill="black"/>
<path id="Vector_527" d="M56.5974 65.3943H54.3535V67.6382H56.5974V65.3943Z" fill="black"/>
<path id="Vector_528" d="M56.5974 58.6626H54.3535V60.9065H56.5974V58.6626Z" fill="black"/>
<path id="Vector_529" d="M56.5974 56.4187H54.3535V58.6626H56.5974V56.4187Z" fill="black"/>
<path id="Vector_530" d="M56.5974 54.1748H54.3535V56.4187H56.5974V54.1748Z" fill="black"/>
<path id="Vector_531" d="M56.5974 51.9309H54.3535V54.1748H56.5974V51.9309Z" fill="black"/>
<path id="Vector_532" d="M56.5974 47.4431H54.3535V49.687H56.5974V47.4431Z" fill="black"/>
<path id="Vector_533" d="M56.5974 45.1992H54.3535V47.4431H56.5974V45.1992Z" fill="black"/>
<path id="Vector_534" d="M56.5974 38.4675H54.3535V40.7114H56.5974V38.4675Z" fill="black"/>
<path id="Vector_535" d="M56.5974 29.4919H54.3535V31.7358H56.5974V29.4919Z" fill="black"/>
<path id="Vector_536" d="M56.5974 27.248H54.3535V29.4919H56.5974V27.248Z" fill="black"/>
<path id="Vector_537" d="M56.5974 22.7601H54.3535V25.004H56.5974V22.7601Z" fill="black"/>
<path id="Vector_538" d="M56.5974 20.5162H54.3535V22.7601H56.5974V20.5162Z" fill="black"/>
<path id="Vector_539" d="M56.5974 16.0284H54.3535V18.2723H56.5974V16.0284Z" fill="black"/>
<path id="Vector_540" d="M56.5974 13.7845H54.3535V16.0284H56.5974V13.7845Z" fill="black"/>
<path id="Vector_541" d="M56.5974 7.05286H54.3535V9.29676H56.5974V7.05286Z" fill="black"/>
<path id="Vector_542" d="M56.5974 0.321167H54.3535V2.56507H56.5974V0.321167Z" fill="black"/>
<path id="Vector_543" d="M58.8416 69.8821H56.5977V72.126H58.8416V69.8821Z" fill="black"/>
<path id="Vector_544" d="M58.8416 65.3943H56.5977V67.6382H58.8416V65.3943Z" fill="black"/>
<path id="Vector_545" d="M58.8416 63.1504H56.5977V65.3943H58.8416V63.1504Z" fill="black"/>
<path id="Vector_546" d="M58.8416 54.1748H56.5977V56.4187H58.8416V54.1748Z" fill="black"/>
<path id="Vector_547" d="M58.8416 49.687H56.5977V51.9309H58.8416V49.687Z" fill="black"/>
<path id="Vector_548" d="M58.8416 45.1992H56.5977V47.4431H58.8416V45.1992Z" fill="black"/>
<path id="Vector_549" d="M58.8416 42.9553H56.5977V45.1992H58.8416V42.9553Z" fill="black"/>
<path id="Vector_550" d="M58.8416 40.7114H56.5977V42.9553H58.8416V40.7114Z" fill="black"/>
<path id="Vector_551" d="M58.8416 38.4675H56.5977V40.7114H58.8416V38.4675Z" fill="black"/>
<path id="Vector_552" d="M58.8416 31.7358H56.5977V33.9797H58.8416V31.7358Z" fill="black"/>
<path id="Vector_553" d="M58.8416 27.248H56.5977V29.4919H58.8416V27.248Z" fill="black"/>
<path id="Vector_554" d="M58.8416 22.7601H56.5977V25.004H58.8416V22.7601Z" fill="black"/>
<path id="Vector_555" d="M58.8416 16.0284H56.5977V18.2723H58.8416V16.0284Z" fill="black"/>
<path id="Vector_556" d="M58.8416 11.5406H56.5977V13.7846H58.8416V11.5406Z" fill="black"/>
<path id="Vector_557" d="M58.8416 9.29675H56.5977V11.5407H58.8416V9.29675Z" fill="black"/>
<path id="Vector_558" d="M58.8416 2.56506H56.5977V4.80897H58.8416V2.56506Z" fill="black"/>
<path id="Vector_559" d="M58.8416 0.321167H56.5977V2.56507H58.8416V0.321167Z" fill="black"/>
<path id="Vector_560" d="M61.0852 90.0773H58.8413V92.3212H61.0852V90.0773Z" fill="black"/>
<path id="Vector_561" d="M61.0852 87.8334H58.8413V90.0773H61.0852V87.8334Z" fill="black"/>
<path id="Vector_562" d="M61.0852 81.1017H58.8413V83.3456H61.0852V81.1017Z" fill="black"/>
<path id="Vector_563" d="M61.0852 78.8578H58.8413V81.1017H61.0852V78.8578Z" fill="black"/>
<path id="Vector_564" d="M61.0852 76.6139H58.8413V78.8578H61.0852V76.6139Z" fill="black"/>
<path id="Vector_565" d="M61.0852 72.126H58.8413V74.3699H61.0852V72.126Z" fill="black"/>
<path id="Vector_566" d="M61.0852 65.3943H58.8413V67.6382H61.0852V65.3943Z" fill="black"/>
<path id="Vector_567" d="M61.0852 56.4187H58.8413V58.6626H61.0852V56.4187Z" fill="black"/>
<path id="Vector_568" d="M61.0852 51.9309H58.8413V54.1748H61.0852V51.9309Z" fill="black"/>
<path id="Vector_569" d="M61.0852 47.4431H58.8413V49.687H61.0852V47.4431Z" fill="black"/>
<path id="Vector_570" d="M61.0852 45.1992H58.8413V47.4431H61.0852V45.1992Z" fill="black"/>
<path id="Vector_571" d="M61.0852 40.7114H58.8413V42.9553H61.0852V40.7114Z" fill="black"/>
<path id="Vector_572" d="M61.0852 38.4675H58.8413V40.7114H61.0852V38.4675Z" fill="black"/>
<path id="Vector_573" d="M61.0852 36.2236H58.8413V38.4675H61.0852V36.2236Z" fill="black"/>
<path id="Vector_574" d="M61.0852 25.0042H58.8413V27.2481H61.0852V25.0042Z" fill="black"/>
<path id="Vector_575" d="M61.0852 22.7601H58.8413V25.004H61.0852V22.7601Z" fill="black"/>
<path id="Vector_576" d="M61.0852 20.5162H58.8413V22.7601H61.0852V20.5162Z" fill="black"/>
<path id="Vector_577" d="M61.0852 18.2723H58.8413V20.5162H61.0852V18.2723Z" fill="black"/>
<path id="Vector_578" d="M61.0852 16.0284H58.8413V18.2723H61.0852V16.0284Z" fill="black"/>
<path id="Vector_579" d="M61.0852 13.7845H58.8413V16.0284H61.0852V13.7845Z" fill="black"/>
<path id="Vector_580" d="M61.0852 7.05286H58.8413V9.29676H61.0852V7.05286Z" fill="black"/>
<path id="Vector_581" d="M61.0852 4.80896H58.8413V7.05286H61.0852V4.80896Z" fill="black"/>
<path id="Vector_582" d="M61.0852 0.321167H58.8413V2.56507H61.0852V0.321167Z" fill="black"/>
<path id="Vector_583" d="M63.3294 78.8578H61.0854V81.1017H63.3294V78.8578Z" fill="black"/>
<path id="Vector_584" d="M63.3294 76.6139H61.0854V78.8578H63.3294V76.6139Z" fill="black"/>
<path id="Vector_585" d="M63.3294 65.3943H61.0854V67.6382H63.3294V65.3943Z" fill="black"/>
<path id="Vector_586" d="M63.3294 58.6626H61.0854V60.9065H63.3294V58.6626Z" fill="black"/>
<path id="Vector_587" d="M63.3294 56.4187H61.0854V58.6626H63.3294V56.4187Z" fill="black"/>
<path id="Vector_588" d="M63.3294 49.687H61.0854V51.9309H63.3294V49.687Z" fill="black"/>
<path id="Vector_589" d="M63.3294 47.4431H61.0854V49.687H63.3294V47.4431Z" fill="black"/>
<path id="Vector_590" d="M63.3294 45.1992H61.0854V47.4431H63.3294V45.1992Z" fill="black"/>
<path id="Vector_591" d="M63.3294 40.7114H61.0854V42.9553H63.3294V40.7114Z" fill="black"/>
<path id="Vector_592" d="M63.3294 38.4675H61.0854V40.7114H63.3294V38.4675Z" fill="black"/>
<path id="Vector_593" d="M63.3294 31.7358H61.0854V33.9797H63.3294V31.7358Z" fill="black"/>
<path id="Vector_594" d="M63.3294 29.4919H61.0854V31.7358H63.3294V29.4919Z" fill="black"/>
<path id="Vector_595" d="M63.3294 25.0042H61.0854V27.2481H63.3294V25.0042Z" fill="black"/>
<path id="Vector_596" d="M63.3294 20.5162H61.0854V22.7601H63.3294V20.5162Z" fill="black"/>
<path id="Vector_597" d="M63.3294 16.0284H61.0854V18.2723H63.3294V16.0284Z" fill="black"/>
<path id="Vector_598" d="M63.3294 7.05286H61.0854V9.29676H63.3294V7.05286Z" fill="black"/>
<path id="Vector_599" d="M63.3294 4.80896H61.0854V7.05286H63.3294V4.80896Z" fill="black"/>
<path id="Vector_600" d="M63.3294 2.56506H61.0854V4.80897H63.3294V2.56506Z" fill="black"/>
<path id="Vector_601" d="M63.3294 0.321167H61.0854V2.56507H63.3294V0.321167Z" fill="black"/>
<path id="Vector_602" d="M65.573 87.8334H63.3291V90.0773H65.573V87.8334Z" fill="black"/>
<path id="Vector_603" d="M65.573 83.3456H63.3291V85.5895H65.573V83.3456Z" fill="black"/>
<path id="Vector_604" d="M65.573 69.8821H63.3291V72.126H65.573V69.8821Z" fill="black"/>
<path id="Vector_605" d="M65.573 65.3943H63.3291V67.6382H65.573V65.3943Z" fill="black"/>
<path id="Vector_606" d="M65.573 58.6626H63.3291V60.9065H65.573V58.6626Z" fill="black"/>
<path id="Vector_607" d="M65.573 45.1992H63.3291V47.4431H65.573V45.1992Z" fill="black"/>
<path id="Vector_608" d="M65.573 40.7114H63.3291V42.9553H65.573V40.7114Z" fill="black"/>
<path id="Vector_609" d="M65.573 33.9797H63.3291V36.2236H65.573V33.9797Z" fill="black"/>
<path id="Vector_610" d="M65.573 31.7358H63.3291V33.9797H65.573V31.7358Z" fill="black"/>
<path id="Vector_611" d="M65.573 29.4919H63.3291V31.7358H65.573V29.4919Z" fill="black"/>
<path id="Vector_612" d="M65.573 27.248H63.3291V29.4919H65.573V27.248Z" fill="black"/>
<path id="Vector_613" d="M65.573 20.5162H63.3291V22.7601H65.573V20.5162Z" fill="black"/>
<path id="Vector_614" d="M65.573 16.0284H63.3291V18.2723H65.573V16.0284Z" fill="black"/>
<path id="Vector_615" d="M65.573 13.7845H63.3291V16.0284H65.573V13.7845Z" fill="black"/>
<path id="Vector_616" d="M65.573 9.29675H63.3291V11.5407H65.573V9.29675Z" fill="black"/>
<path id="Vector_617" d="M65.573 2.56506H63.3291V4.80897H65.573V2.56506Z" fill="black"/>
<path id="Vector_618" d="M67.8171 85.5895H65.5732V87.8334H67.8171V85.5895Z" fill="black"/>
<path id="Vector_619" d="M67.8171 83.3456H65.5732V85.5895H67.8171V83.3456Z" fill="black"/>
<path id="Vector_620" d="M67.8171 78.8578H65.5732V81.1017H67.8171V78.8578Z" fill="black"/>
<path id="Vector_621" d="M67.8171 74.37H65.5732V76.6139H67.8171V74.37Z" fill="black"/>
<path id="Vector_622" d="M67.8171 63.1504H65.5732V65.3943H67.8171V63.1504Z" fill="black"/>
<path id="Vector_623" d="M67.8171 58.6626H65.5732V60.9065H67.8171V58.6626Z" fill="black"/>
<path id="Vector_624" d="M67.8171 56.4187H65.5732V58.6626H67.8171V56.4187Z" fill="black"/>
<path id="Vector_625" d="M67.8171 54.1748H65.5732V56.4187H67.8171V54.1748Z" fill="black"/>
<path id="Vector_626" d="M67.8171 51.9309H65.5732V54.1748H67.8171V51.9309Z" fill="black"/>
<path id="Vector_627" d="M67.8171 42.9553H65.5732V45.1992H67.8171V42.9553Z" fill="black"/>
<path id="Vector_628" d="M67.8171 40.7114H65.5732V42.9553H67.8171V40.7114Z" fill="black"/>
<path id="Vector_629" d="M67.8171 36.2236H65.5732V38.4675H67.8171V36.2236Z" fill="black"/>
<path id="Vector_630" d="M67.8171 33.9797H65.5732V36.2236H67.8171V33.9797Z" fill="black"/>
<path id="Vector_631" d="M67.8171 29.4919H65.5732V31.7358H67.8171V29.4919Z" fill="black"/>
<path id="Vector_632" d="M67.8171 27.248H65.5732V29.4919H67.8171V27.248Z" fill="black"/>
<path id="Vector_633" d="M67.8171 20.5162H65.5732V22.7601H67.8171V20.5162Z" fill="black"/>
<path id="Vector_634" d="M67.8171 18.2723H65.5732V20.5162H67.8171V18.2723Z" fill="black"/>
<path id="Vector_635" d="M67.8171 16.0284H65.5732V18.2723H67.8171V16.0284Z" fill="black"/>
<path id="Vector_636" d="M67.8171 11.5406H65.5732V13.7846H67.8171V11.5406Z" fill="black"/>
<path id="Vector_637" d="M67.8171 9.29675H65.5732V11.5407H67.8171V9.29675Z" fill="black"/>
<path id="Vector_638" d="M67.8171 7.05286H65.5732V9.29676H67.8171V7.05286Z" fill="black"/>
<path id="Vector_639" d="M70.0608 90.0773H67.8169V92.3212H70.0608V90.0773Z" fill="black"/>
<path id="Vector_640" d="M70.0608 87.8334H67.8169V90.0773H70.0608V87.8334Z" fill="black"/>
<path id="Vector_641" d="M70.0608 85.5895H67.8169V87.8334H70.0608V85.5895Z" fill="black"/>
<path id="Vector_642" d="M70.0608 81.1017H67.8169V83.3456H70.0608V81.1017Z" fill="black"/>
<path id="Vector_643" d="M70.0608 76.6139H67.8169V78.8578H70.0608V76.6139Z" fill="black"/>
<path id="Vector_644" d="M70.0608 74.37H67.8169V76.6139H70.0608V74.37Z" fill="black"/>
<path id="Vector_645" d="M70.0608 72.126H67.8169V74.3699H70.0608V72.126Z" fill="black"/>
<path id="Vector_646" d="M70.0608 65.3943H67.8169V67.6382H70.0608V65.3943Z" fill="black"/>
<path id="Vector_647" d="M70.0608 58.6626H67.8169V60.9065H70.0608V58.6626Z" fill="black"/>
<path id="Vector_648" d="M70.0608 49.687H67.8169V51.9309H70.0608V49.687Z" fill="black"/>
<path id="Vector_649" d="M70.0608 47.4431H67.8169V49.687H70.0608V47.4431Z" fill="black"/>
<path id="Vector_650" d="M70.0608 45.1992H67.8169V47.4431H70.0608V45.1992Z" fill="black"/>
<path id="Vector_651" d="M70.0608 42.9553H67.8169V45.1992H70.0608V42.9553Z" fill="black"/>
<path id="Vector_652" d="M70.0608 36.2236H67.8169V38.4675H70.0608V36.2236Z" fill="black"/>
<path id="Vector_653" d="M70.0608 33.9797H67.8169V36.2236H70.0608V33.9797Z" fill="black"/>
<path id="Vector_654" d="M70.0608 31.7358H67.8169V33.9797H70.0608V31.7358Z" fill="black"/>
<path id="Vector_655" d="M70.0608 29.4919H67.8169V31.7358H70.0608V29.4919Z" fill="black"/>
<path id="Vector_656" d="M70.0608 27.248H67.8169V29.4919H70.0608V27.248Z" fill="black"/>
<path id="Vector_657" d="M70.0608 25.0042H67.8169V27.2481H70.0608V25.0042Z" fill="black"/>
<path id="Vector_658" d="M70.0608 22.7601H67.8169V25.004H70.0608V22.7601Z" fill="black"/>
<path id="Vector_659" d="M70.0608 16.0284H67.8169V18.2723H70.0608V16.0284Z" fill="black"/>
<path id="Vector_660" d="M70.0608 13.7845H67.8169V16.0284H70.0608V13.7845Z" fill="black"/>
<path id="Vector_661" d="M70.0608 11.5406H67.8169V13.7846H70.0608V11.5406Z" fill="black"/>
<path id="Vector_662" d="M70.0608 7.05286H67.8169V9.29676H70.0608V7.05286Z" fill="black"/>
<path id="Vector_663" d="M70.0608 4.80896H67.8169V7.05286H70.0608V4.80896Z" fill="black"/>
<path id="Vector_664" d="M70.0608 0.321167H67.8169V2.56507H70.0608V0.321167Z" fill="black"/>
<path id="Vector_665" d="M72.3049 90.0773H70.061V92.3212H72.3049V90.0773Z" fill="black"/>
<path id="Vector_666" d="M72.3049 83.3456H70.061V85.5895H72.3049V83.3456Z" fill="black"/>
<path id="Vector_667" d="M72.3049 81.1017H70.061V83.3456H72.3049V81.1017Z" fill="black"/>
<path id="Vector_668" d="M72.3049 78.8578H70.061V81.1017H72.3049V78.8578Z" fill="black"/>
<path id="Vector_669" d="M72.3049 72.126H70.061V74.3699H72.3049V72.126Z" fill="black"/>
<path id="Vector_670" d="M72.3049 65.3943H70.061V67.6382H72.3049V65.3943Z" fill="black"/>
<path id="Vector_671" d="M72.3049 60.9065H70.061V63.1504H72.3049V60.9065Z" fill="black"/>
<path id="Vector_672" d="M72.3049 51.9309H70.061V54.1748H72.3049V51.9309Z" fill="black"/>
<path id="Vector_673" d="M72.3049 47.4431H70.061V49.687H72.3049V47.4431Z" fill="black"/>
<path id="Vector_674" d="M72.3049 45.1992H70.061V47.4431H72.3049V45.1992Z" fill="black"/>
<path id="Vector_675" d="M72.3049 42.9553H70.061V45.1992H72.3049V42.9553Z" fill="black"/>
<path id="Vector_676" d="M72.3049 40.7114H70.061V42.9553H72.3049V40.7114Z" fill="black"/>
<path id="Vector_677" d="M72.3049 38.4675H70.061V40.7114H72.3049V38.4675Z" fill="black"/>
<path id="Vector_678" d="M72.3049 31.7358H70.061V33.9797H72.3049V31.7358Z" fill="black"/>
<path id="Vector_679" d="M72.3049 27.248H70.061V29.4919H72.3049V27.248Z" fill="black"/>
<path id="Vector_680" d="M72.3049 22.7601H70.061V25.004H72.3049V22.7601Z" fill="black"/>
<path id="Vector_681" d="M72.3049 20.5162H70.061V22.7601H72.3049V20.5162Z" fill="black"/>
<path id="Vector_682" d="M72.3049 18.2723H70.061V20.5162H72.3049V18.2723Z" fill="black"/>
<path id="Vector_683" d="M72.3049 16.0284H70.061V18.2723H72.3049V16.0284Z" fill="black"/>
<path id="Vector_684" d="M72.3049 11.5406H70.061V13.7846H72.3049V11.5406Z" fill="black"/>
<path id="Vector_685" d="M72.3049 9.29675H70.061V11.5407H72.3049V9.29675Z" fill="black"/>
<path id="Vector_686" d="M74.5486 87.8334H72.3047V90.0773H74.5486V87.8334Z" fill="black"/>
<path id="Vector_687" d="M74.5486 85.5895H72.3047V87.8334H74.5486V85.5895Z" fill="black"/>
<path id="Vector_688" d="M74.5486 83.3456H72.3047V85.5895H74.5486V83.3456Z" fill="black"/>
<path id="Vector_689" d="M74.5486 81.1017H72.3047V83.3456H74.5486V81.1017Z" fill="black"/>
<path id="Vector_690" d="M74.5486 78.8578H72.3047V81.1017H74.5486V78.8578Z" fill="black"/>
<path id="Vector_691" d="M74.5486 76.6139H72.3047V78.8578H74.5486V76.6139Z" fill="black"/>
<path id="Vector_692" d="M74.5486 74.37H72.3047V76.6139H74.5486V74.37Z" fill="black"/>
<path id="Vector_693" d="M74.5486 72.126H72.3047V74.3699H74.5486V72.126Z" fill="black"/>
<path id="Vector_694" d="M74.5486 67.6382H72.3047V69.8821H74.5486V67.6382Z" fill="black"/>
<path id="Vector_695" d="M74.5486 60.9065H72.3047V63.1504H74.5486V60.9065Z" fill="black"/>
<path id="Vector_696" d="M74.5486 58.6626H72.3047V60.9065H74.5486V58.6626Z" fill="black"/>
<path id="Vector_697" d="M74.5486 56.4187H72.3047V58.6626H74.5486V56.4187Z" fill="black"/>
<path id="Vector_698" d="M74.5486 51.9309H72.3047V54.1748H74.5486V51.9309Z" fill="black"/>
<path id="Vector_699" d="M74.5486 47.4431H72.3047V49.687H74.5486V47.4431Z" fill="black"/>
<path id="Vector_700" d="M74.5486 42.9553H72.3047V45.1992H74.5486V42.9553Z" fill="black"/>
<path id="Vector_701" d="M74.5486 36.2236H72.3047V38.4675H74.5486V36.2236Z" fill="black"/>
<path id="Vector_702" d="M74.5486 33.9797H72.3047V36.2236H74.5486V33.9797Z" fill="black"/>
<path id="Vector_703" d="M74.5486 31.7358H72.3047V33.9797H74.5486V31.7358Z" fill="black"/>
<path id="Vector_704" d="M74.5486 29.4919H72.3047V31.7358H74.5486V29.4919Z" fill="black"/>
<path id="Vector_705" d="M74.5486 27.248H72.3047V29.4919H74.5486V27.248Z" fill="black"/>
<path id="Vector_706" d="M74.5486 18.2723H72.3047V20.5162H74.5486V18.2723Z" fill="black"/>
<path id="Vector_707" d="M74.5486 13.7845H72.3047V16.0284H74.5486V13.7845Z" fill="black"/>
<path id="Vector_708" d="M74.5486 11.5406H72.3047V13.7846H74.5486V11.5406Z" fill="black"/>
<path id="Vector_709" d="M74.5486 4.80896H72.3047V7.05286H74.5486V4.80896Z" fill="black"/>
<path id="Vector_710" d="M74.5486 0.321167H72.3047V2.56507H74.5486V0.321167Z" fill="black"/>
<path id="Vector_711" d="M76.7927 90.0773H74.5488V92.3212H76.7927V90.0773Z" fill="black"/>
<path id="Vector_712" d="M76.7927 87.8334H74.5488V90.0773H76.7927V87.8334Z" fill="black"/>
<path id="Vector_713" d="M76.7927 85.5895H74.5488V87.8334H76.7927V85.5895Z" fill="black"/>
<path id="Vector_714" d="M76.7927 83.3456H74.5488V85.5895H76.7927V83.3456Z" fill="black"/>
<path id="Vector_715" d="M76.7927 81.1017H74.5488V83.3456H76.7927V81.1017Z" fill="black"/>
<path id="Vector_716" d="M76.7927 72.126H74.5488V74.3699H76.7927V72.126Z" fill="black"/>
<path id="Vector_717" d="M76.7927 63.1504H74.5488V65.3943H76.7927V63.1504Z" fill="black"/>
<path id="Vector_718" d="M76.7927 56.4187H74.5488V58.6626H76.7927V56.4187Z" fill="black"/>
<path id="Vector_719" d="M76.7927 54.1748H74.5488V56.4187H76.7927V54.1748Z" fill="black"/>
<path id="Vector_720" d="M76.7927 45.1992H74.5488V47.4431H76.7927V45.1992Z" fill="black"/>
<path id="Vector_721" d="M76.7927 40.7114H74.5488V42.9553H76.7927V40.7114Z" fill="black"/>
<path id="Vector_722" d="M76.7927 36.2236H74.5488V38.4675H76.7927V36.2236Z" fill="black"/>
<path id="Vector_723" d="M76.7927 33.9797H74.5488V36.2236H76.7927V33.9797Z" fill="black"/>
<path id="Vector_724" d="M76.7927 31.7358H74.5488V33.9797H76.7927V31.7358Z" fill="black"/>
<path id="Vector_725" d="M76.7927 27.248H74.5488V29.4919H76.7927V27.248Z" fill="black"/>
<path id="Vector_726" d="M76.7927 18.2723H74.5488V20.5162H76.7927V18.2723Z" fill="black"/>
<path id="Vector_727" d="M79.0364 87.8334H76.7925V90.0773H79.0364V87.8334Z" fill="black"/>
<path id="Vector_728" d="M79.0364 85.5895H76.7925V87.8334H79.0364V85.5895Z" fill="black"/>
<path id="Vector_729" d="M79.0364 81.1017H76.7925V83.3456H79.0364V81.1017Z" fill="black"/>
<path id="Vector_730" d="M79.0364 76.6139H76.7925V78.8578H79.0364V76.6139Z" fill="black"/>
<path id="Vector_731" d="M79.0364 72.126H76.7925V74.3699H79.0364V72.126Z" fill="black"/>
<path id="Vector_732" d="M79.0364 65.3943H76.7925V67.6382H79.0364V65.3943Z" fill="black"/>
<path id="Vector_733" d="M79.0364 63.1504H76.7925V65.3943H79.0364V63.1504Z" fill="black"/>
<path id="Vector_734" d="M79.0364 58.6626H76.7925V60.9065H79.0364V58.6626Z" fill="black"/>
<path id="Vector_735" d="M79.0364 56.4187H76.7925V58.6626H79.0364V56.4187Z" fill="black"/>
<path id="Vector_736" d="M79.0364 54.1748H76.7925V56.4187H79.0364V54.1748Z" fill="black"/>
<path id="Vector_737" d="M79.0364 49.687H76.7925V51.9309H79.0364V49.687Z" fill="black"/>
<path id="Vector_738" d="M79.0364 47.4431H76.7925V49.687H79.0364V47.4431Z" fill="black"/>
<path id="Vector_739" d="M79.0364 45.1992H76.7925V47.4431H79.0364V45.1992Z" fill="black"/>
<path id="Vector_740" d="M79.0364 42.9553H76.7925V45.1992H79.0364V42.9553Z" fill="black"/>
<path id="Vector_741" d="M79.0364 38.4675H76.7925V40.7114H79.0364V38.4675Z" fill="black"/>
<path id="Vector_742" d="M79.0364 27.248H76.7925V29.4919H79.0364V27.248Z" fill="black"/>
<path id="Vector_743" d="M79.0364 18.2723H76.7925V20.5162H79.0364V18.2723Z" fill="black"/>
<path id="Vector_744" d="M79.0364 13.7845H76.7925V16.0284H79.0364V13.7845Z" fill="black"/>
<path id="Vector_745" d="M79.0364 11.5406H76.7925V13.7846H79.0364V11.5406Z" fill="black"/>
<path id="Vector_746" d="M79.0364 9.29675H76.7925V11.5407H79.0364V9.29675Z" fill="black"/>
<path id="Vector_747" d="M79.0364 7.05286H76.7925V9.29676H79.0364V7.05286Z" fill="black"/>
<path id="Vector_748" d="M79.0364 4.80896H76.7925V7.05286H79.0364V4.80896Z" fill="black"/>
<path id="Vector_749" d="M79.0364 2.56506H76.7925V4.80897H79.0364V2.56506Z" fill="black"/>
<path id="Vector_750" d="M79.0364 0.321167H76.7925V2.56507H79.0364V0.321167Z" fill="black"/>
<path id="Vector_751" d="M81.2805 90.0773H79.0366V92.3212H81.2805V90.0773Z" fill="black"/>
<path id="Vector_752" d="M81.2805 85.5895H79.0366V87.8334H81.2805V85.5895Z" fill="black"/>
<path id="Vector_753" d="M81.2805 81.1017H79.0366V83.3456H81.2805V81.1017Z" fill="black"/>
<path id="Vector_754" d="M81.2805 72.126H79.0366V74.3699H81.2805V72.126Z" fill="black"/>
<path id="Vector_755" d="M81.2805 67.6382H79.0366V69.8821H81.2805V67.6382Z" fill="black"/>
<path id="Vector_756" d="M81.2805 63.1504H79.0366V65.3943H81.2805V63.1504Z" fill="black"/>
<path id="Vector_757" d="M81.2805 60.9065H79.0366V63.1504H81.2805V60.9065Z" fill="black"/>
<path id="Vector_758" d="M81.2805 58.6626H79.0366V60.9065H81.2805V58.6626Z" fill="black"/>
<path id="Vector_759" d="M81.2805 56.4187H79.0366V58.6626H81.2805V56.4187Z" fill="black"/>
<path id="Vector_760" d="M81.2805 45.1992H79.0366V47.4431H81.2805V45.1992Z" fill="black"/>
<path id="Vector_761" d="M81.2805 42.9553H79.0366V45.1992H81.2805V42.9553Z" fill="black"/>
<path id="Vector_762" d="M81.2805 38.4675H79.0366V40.7114H81.2805V38.4675Z" fill="black"/>
<path id="Vector_763" d="M81.2805 31.7358H79.0366V33.9797H81.2805V31.7358Z" fill="black"/>
<path id="Vector_764" d="M81.2805 25.0042H79.0366V27.2481H81.2805V25.0042Z" fill="black"/>
<path id="Vector_765" d="M81.2805 13.7845H79.0366V16.0284H81.2805V13.7845Z" fill="black"/>
<path id="Vector_766" d="M81.2805 0.321167H79.0366V2.56507H81.2805V0.321167Z" fill="black"/>
<path id="Vector_767" d="M83.5242 90.0773H81.2803V92.3212H83.5242V90.0773Z" fill="black"/>
<path id="Vector_768" d="M83.5242 87.8334H81.2803V90.0773H83.5242V87.8334Z" fill="black"/>
<path id="Vector_769" d="M83.5242 81.1017H81.2803V83.3456H83.5242V81.1017Z" fill="black"/>
<path id="Vector_770" d="M83.5242 78.8578H81.2803V81.1017H83.5242V78.8578Z" fill="black"/>
<path id="Vector_771" d="M83.5242 76.6139H81.2803V78.8578H83.5242V76.6139Z" fill="black"/>
<path id="Vector_772" d="M83.5242 74.37H81.2803V76.6139H83.5242V74.37Z" fill="black"/>
<path id="Vector_773" d="M83.5242 72.126H81.2803V74.3699H83.5242V72.126Z" fill="black"/>
<path id="Vector_774" d="M83.5242 67.6382H81.2803V69.8821H83.5242V67.6382Z" fill="black"/>
<path id="Vector_775" d="M83.5242 65.3943H81.2803V67.6382H83.5242V65.3943Z" fill="black"/>
<path id="Vector_776" d="M83.5242 63.1504H81.2803V65.3943H83.5242V63.1504Z" fill="black"/>
<path id="Vector_777" d="M83.5242 56.4187H81.2803V58.6626H83.5242V56.4187Z" fill="black"/>
<path id="Vector_778" d="M83.5242 54.1748H81.2803V56.4187H83.5242V54.1748Z" fill="black"/>
<path id="Vector_779" d="M83.5242 33.9797H81.2803V36.2236H83.5242V33.9797Z" fill="black"/>
<path id="Vector_780" d="M83.5242 13.7845H81.2803V16.0284H83.5242V13.7845Z" fill="black"/>
<path id="Vector_781" d="M83.5242 9.29675H81.2803V11.5407H83.5242V9.29675Z" fill="black"/>
<path id="Vector_782" d="M83.5242 7.05286H81.2803V9.29676H83.5242V7.05286Z" fill="black"/>
<path id="Vector_783" d="M83.5242 4.80896H81.2803V7.05286H83.5242V4.80896Z" fill="black"/>
<path id="Vector_784" d="M83.5242 0.321167H81.2803V2.56507H83.5242V0.321167Z" fill="black"/>
<path id="Vector_785" d="M85.7683 87.8334H83.5244V90.0773H85.7683V87.8334Z" fill="black"/>
<path id="Vector_786" d="M85.7683 83.3456H83.5244V85.5895H85.7683V83.3456Z" fill="black"/>
<path id="Vector_787" d="M85.7683 81.1017H83.5244V83.3456H85.7683V81.1017Z" fill="black"/>
<path id="Vector_788" d="M85.7683 78.8578H83.5244V81.1017H85.7683V78.8578Z" fill="black"/>
<path id="Vector_789" d="M85.7683 76.6139H83.5244V78.8578H85.7683V76.6139Z" fill="black"/>
<path id="Vector_790" d="M85.7683 69.8821H83.5244V72.126H85.7683V69.8821Z" fill="black"/>
<path id="Vector_791" d="M85.7683 65.3943H83.5244V67.6382H85.7683V65.3943Z" fill="black"/>
<path id="Vector_792" d="M85.7683 58.6626H83.5244V60.9065H85.7683V58.6626Z" fill="black"/>
<path id="Vector_793" d="M85.7683 54.1748H83.5244V56.4187H85.7683V54.1748Z" fill="black"/>
<path id="Vector_794" d="M85.7683 49.687H83.5244V51.9309H85.7683V49.687Z" fill="black"/>
<path id="Vector_795" d="M85.7683 47.4431H83.5244V49.687H85.7683V47.4431Z" fill="black"/>
<path id="Vector_796" d="M85.7683 38.4675H83.5244V40.7114H85.7683V38.4675Z" fill="black"/>
<path id="Vector_797" d="M85.7683 36.2236H83.5244V38.4675H85.7683V36.2236Z" fill="black"/>
<path id="Vector_798" d="M85.7683 33.9797H83.5244V36.2236H85.7683V33.9797Z" fill="black"/>
<path id="Vector_799" d="M85.7683 25.0042H83.5244V27.2481H85.7683V25.0042Z" fill="black"/>
<path id="Vector_800" d="M85.7683 22.7601H83.5244V25.004H85.7683V22.7601Z" fill="black"/>
<path id="Vector_801" d="M85.7683 18.2723H83.5244V20.5162H85.7683V18.2723Z" fill="black"/>
<path id="Vector_802" d="M85.7683 13.7845H83.5244V16.0284H85.7683V13.7845Z" fill="black"/>
<path id="Vector_803" d="M85.7683 9.29675H83.5244V11.5407H85.7683V9.29675Z" fill="black"/>
<path id="Vector_804" d="M85.7683 7.05286H83.5244V9.29676H85.7683V7.05286Z" fill="black"/>
<path id="Vector_805" d="M85.7683 4.80896H83.5244V7.05286H85.7683V4.80896Z" fill="black"/>
<path id="Vector_806" d="M85.7683 0.321167H83.5244V2.56507H85.7683V0.321167Z" fill="black"/>
<path id="Vector_807" d="M88.012 90.0773H85.7681V92.3212H88.012V90.0773Z" fill="black"/>
<path id="Vector_808" d="M88.012 87.8334H85.7681V90.0773H88.012V87.8334Z" fill="black"/>
<path id="Vector_809" d="M88.012 81.1017H85.7681V83.3456H88.012V81.1017Z" fill="black"/>
<path id="Vector_810" d="M88.012 78.8578H85.7681V81.1017H88.012V78.8578Z" fill="black"/>
<path id="Vector_811" d="M88.012 67.6382H85.7681V69.8821H88.012V67.6382Z" fill="black"/>
<path id="Vector_812" d="M88.012 65.3943H85.7681V67.6382H88.012V65.3943Z" fill="black"/>
<path id="Vector_813" d="M88.012 63.1504H85.7681V65.3943H88.012V63.1504Z" fill="black"/>
<path id="Vector_814" d="M88.012 51.9309H85.7681V54.1748H88.012V51.9309Z" fill="black"/>
<path id="Vector_815" d="M88.012 45.1992H85.7681V47.4431H88.012V45.1992Z" fill="black"/>
<path id="Vector_816" d="M88.012 40.7114H85.7681V42.9553H88.012V40.7114Z" fill="black"/>
<path id="Vector_817" d="M88.012 31.7358H85.7681V33.9797H88.012V31.7358Z" fill="black"/>
<path id="Vector_818" d="M88.012 25.0042H85.7681V27.2481H88.012V25.0042Z" fill="black"/>
<path id="Vector_819" d="M88.012 22.7601H85.7681V25.004H88.012V22.7601Z" fill="black"/>
<path id="Vector_820" d="M88.012 20.5162H85.7681V22.7601H88.012V20.5162Z" fill="black"/>
<path id="Vector_821" d="M88.012 13.7845H85.7681V16.0284H88.012V13.7845Z" fill="black"/>
<path id="Vector_822" d="M88.012 9.29675H85.7681V11.5407H88.012V9.29675Z" fill="black"/>
<path id="Vector_823" d="M88.012 7.05286H85.7681V9.29676H88.012V7.05286Z" fill="black"/>
<path id="Vector_824" d="M88.012 4.80896H85.7681V7.05286H88.012V4.80896Z" fill="black"/>
<path id="Vector_825" d="M88.012 0.321167H85.7681V2.56507H88.012V0.321167Z" fill="black"/>
<path id="Vector_826" d="M90.2561 87.8334H88.0122V90.0773H90.2561V87.8334Z" fill="black"/>
<path id="Vector_827" d="M90.2561 81.1017H88.0122V83.3456H90.2561V81.1017Z" fill="black"/>
<path id="Vector_828" d="M90.2561 78.8578H88.0122V81.1017H90.2561V78.8578Z" fill="black"/>
<path id="Vector_829" d="M90.2561 76.6139H88.0122V78.8578H90.2561V76.6139Z" fill="black"/>
<path id="Vector_830" d="M90.2561 74.37H88.0122V76.6139H90.2561V74.37Z" fill="black"/>
<path id="Vector_831" d="M90.2561 65.3943H88.0122V67.6382H90.2561V65.3943Z" fill="black"/>
<path id="Vector_832" d="M90.2561 60.9065H88.0122V63.1504H90.2561V60.9065Z" fill="black"/>
<path id="Vector_833" d="M90.2561 58.6626H88.0122V60.9065H90.2561V58.6626Z" fill="black"/>
<path id="Vector_834" d="M90.2561 56.4187H88.0122V58.6626H90.2561V56.4187Z" fill="black"/>
<path id="Vector_835" d="M90.2561 54.1748H88.0122V56.4187H90.2561V54.1748Z" fill="black"/>
<path id="Vector_836" d="M90.2561 49.687H88.0122V51.9309H90.2561V49.687Z" fill="black"/>
<path id="Vector_837" d="M90.2561 47.4431H88.0122V49.687H90.2561V47.4431Z" fill="black"/>
<path id="Vector_838" d="M90.2561 42.9553H88.0122V45.1992H90.2561V42.9553Z" fill="black"/>
<path id="Vector_839" d="M90.2561 40.7114H88.0122V42.9553H90.2561V40.7114Z" fill="black"/>
<path id="Vector_840" d="M90.2561 38.4675H88.0122V40.7114H90.2561V38.4675Z" fill="black"/>
<path id="Vector_841" d="M90.2561 33.9797H88.0122V36.2236H90.2561V33.9797Z" fill="black"/>
<path id="Vector_842" d="M90.2561 29.4919H88.0122V31.7358H90.2561V29.4919Z" fill="black"/>
<path id="Vector_843" d="M90.2561 25.0042H88.0122V27.2481H90.2561V25.0042Z" fill="black"/>
<path id="Vector_844" d="M90.2561 22.7601H88.0122V25.004H90.2561V22.7601Z" fill="black"/>
<path id="Vector_845" d="M90.2561 18.2723H88.0122V20.5162H90.2561V18.2723Z" fill="black"/>
<path id="Vector_846" d="M90.2561 13.7845H88.0122V16.0284H90.2561V13.7845Z" fill="black"/>
<path id="Vector_847" d="M90.2561 0.321167H88.0122V2.56507H90.2561V0.321167Z" fill="black"/>
<path id="Vector_848" d="M92.4998 87.8334H90.2559V90.0773H92.4998V87.8334Z" fill="black"/>
<path id="Vector_849" d="M92.4998 83.3456H90.2559V85.5895H92.4998V83.3456Z" fill="black"/>
<path id="Vector_850" d="M92.4998 81.1017H90.2559V83.3456H92.4998V81.1017Z" fill="black"/>
<path id="Vector_851" d="M92.4998 78.8578H90.2559V81.1017H92.4998V78.8578Z" fill="black"/>
<path id="Vector_852" d="M92.4998 76.6139H90.2559V78.8578H92.4998V76.6139Z" fill="black"/>
<path id="Vector_853" d="M92.4998 72.126H90.2559V74.3699H92.4998V72.126Z" fill="black"/>
<path id="Vector_854" d="M92.4998 65.3943H90.2559V67.6382H92.4998V65.3943Z" fill="black"/>
<path id="Vector_855" d="M92.4998 63.1504H90.2559V65.3943H92.4998V63.1504Z" fill="black"/>
<path id="Vector_856" d="M92.4998 58.6626H90.2559V60.9065H92.4998V58.6626Z" fill="black"/>
<path id="Vector_857" d="M92.4998 54.1748H90.2559V56.4187H92.4998V54.1748Z" fill="black"/>
<path id="Vector_858" d="M92.4998 47.4431H90.2559V49.687H92.4998V47.4431Z" fill="black"/>
<path id="Vector_859" d="M92.4998 45.1992H90.2559V47.4431H92.4998V45.1992Z" fill="black"/>
<path id="Vector_860" d="M92.4998 42.9553H90.2559V45.1992H92.4998V42.9553Z" fill="black"/>
<path id="Vector_861" d="M92.4998 40.7114H90.2559V42.9553H92.4998V40.7114Z" fill="black"/>
<path id="Vector_862" d="M92.4998 22.7601H90.2559V25.004H92.4998V22.7601Z" fill="black"/>
<path id="Vector_863" d="M92.4998 20.5162H90.2559V22.7601H92.4998V20.5162Z" fill="black"/>
<path id="Vector_864" d="M92.4998 18.2723H90.2559V20.5162H92.4998V18.2723Z" fill="black"/>
<path id="Vector_865" d="M92.4998 13.7845H90.2559V16.0284H92.4998V13.7845Z" fill="black"/>
<path id="Vector_866" d="M92.4998 11.5406H90.2559V13.7846H92.4998V11.5406Z" fill="black"/>
<path id="Vector_867" d="M92.4998 9.29675H90.2559V11.5407H92.4998V9.29675Z" fill="black"/>
<path id="Vector_868" d="M92.4998 7.05286H90.2559V9.29676H92.4998V7.05286Z" fill="black"/>
<path id="Vector_869" d="M92.4998 4.80896H90.2559V7.05286H92.4998V4.80896Z" fill="black"/>
<path id="Vector_870" d="M92.4998 2.56506H90.2559V4.80897H92.4998V2.56506Z" fill="black"/>
<path id="Vector_871" d="M92.4998 0.321167H90.2559V2.56507H92.4998V0.321167Z" fill="black"/>
</g>
<defs>
<clipPath id="clip0_41_4108">
<rect width="92" height="92" fill="white" transform="translate(0.5 0.321167)"/>
</clipPath>
</defs>
</svg>
