<svg width="30" height="30" viewBox="0 0 30 30" fill="none" xmlns="http://www.w3.org/2000/svg">
<path fill-rule="evenodd" clip-rule="evenodd" d="M12.4219 18.9846V27.1877C12.4219 27.5608 12.57 27.9185 12.8339 28.1819C13.0973 28.4458 13.455 28.5939 13.8281 28.5939C16.5239 28.5939 24.2766 28.5939 26.9723 28.5939C27.3455 28.5939 27.7031 28.4458 27.967 28.1819C28.2305 27.9185 28.3786 27.5608 28.3786 27.1877C28.3786 25.2733 28.3786 21.0939 28.3786 21.0939C28.3786 20.8352 28.1686 20.6252 27.9098 20.6252C27.6511 20.6252 27.4411 20.8352 27.4411 21.0939C27.4411 21.0939 27.4411 25.2733 27.4411 27.1877C27.4411 27.3119 27.3919 27.4314 27.3038 27.5191C27.2161 27.6072 27.0966 27.6564 26.9723 27.6564C24.2766 27.6564 16.5239 27.6564 13.8281 27.6564C13.7039 27.6564 13.5844 27.6072 13.4967 27.5191C13.4086 27.4314 13.3594 27.3119 13.3594 27.1877V18.9846C13.3594 18.7258 13.1494 18.5158 12.8906 18.5158C12.6319 18.5158 12.4219 18.7258 12.4219 18.9846ZM15.7223 16.4064H2.57813C2.31938 16.4064 2.10938 16.1964 2.10938 15.9377V10.3127C2.10938 10.0539 1.89938 9.84393 1.64063 9.84393C1.38188 9.84393 1.17188 10.0539 1.17188 10.3127V15.9377C1.17188 16.7144 1.80141 17.3439 2.57813 17.3439H14.2969V26.2502C14.2969 26.5089 14.5069 26.7189 14.7656 26.7189H26.0348C26.2941 26.7189 26.5036 26.5089 26.5036 26.2502V14.981C26.5036 14.7217 26.2941 14.5122 26.0348 14.5122H18.0661C17.8073 14.5122 17.5973 14.7222 17.5973 14.981C17.5973 15.2397 17.8073 15.4497 18.0661 15.4497H25.5661V25.7814H15.2344V17.3439H15.7223C16.4991 17.3439 17.1286 16.7144 17.1286 15.9377V13.5747H26.9723C27.0966 13.5747 27.2161 13.6239 27.3038 13.7121C27.3919 13.7997 27.4411 13.9192 27.4411 14.0435V18.7502C27.4411 19.0089 27.6511 19.2189 27.9098 19.2189C28.1686 19.2189 28.3786 19.0089 28.3786 18.7502V14.0435C28.3786 13.6703 28.2305 13.3127 27.967 13.0488C27.7031 12.7853 27.3455 12.6372 26.9723 12.6372H17.1286V2.79346C17.1286 2.01674 16.4991 1.38721 15.7223 1.38721H2.57813C1.80141 1.38721 1.17188 2.01674 1.17188 2.79346C1.17188 4.61127 1.17188 8.43768 1.17188 8.43768C1.17188 8.69643 1.38188 8.90643 1.64063 8.90643C1.89938 8.90643 2.10938 8.69643 2.10938 8.43768V2.79346C2.10938 2.53424 2.31938 2.32471 2.57813 2.32471H15.7223C15.9816 2.32471 16.1911 2.53424 16.1911 2.79346V15.9377C16.1911 16.1964 15.9816 16.4064 15.7223 16.4064ZM19.1503 22.2189H21.9825L23.0081 24.5631C23.1117 24.7999 23.3883 24.9081 23.6255 24.8046C23.8622 24.701 23.9705 24.4244 23.8669 24.1872L20.9958 17.6247C20.9213 17.4541 20.7525 17.3439 20.5664 17.3439C20.3803 17.3439 20.2116 17.4541 20.137 17.6247L17.2659 24.1872C17.1623 24.4244 17.2706 24.701 17.5073 24.8046C17.7445 24.9081 18.0211 24.7999 18.1247 24.5631L19.1503 22.2189ZM19.5605 21.2814H21.5723L20.5664 18.9822L19.5605 21.2814ZM15.2536 3.73096C15.2536 3.47174 15.0441 3.26221 14.7848 3.26221H3.51563C3.25688 3.26221 3.04688 3.47174 3.04688 3.73096V15.0002C3.04688 15.2589 3.25688 15.4689 3.51563 15.4689H14.7848C15.0441 15.4689 15.2536 15.2589 15.2536 15.0002V3.73096ZM14.3161 4.19971V14.5314H3.98438V4.19971H14.3161ZM11.5739 12.7056L12.3248 13.4566C12.5077 13.6394 12.8048 13.6394 12.9877 13.4566C13.1705 13.2738 13.1705 12.9766 12.9877 12.7938L12.2944 12.1005C12.9666 11.3852 13.3786 10.4233 13.3786 9.36533C13.3786 7.16127 11.5889 5.37158 9.38484 5.37158C7.18031 5.37158 5.39063 7.16127 5.39063 9.36533C5.39063 11.5699 7.18031 13.3596 9.38484 13.3596C10.193 13.3596 10.9453 13.1191 11.5739 12.7056ZM11.6311 11.4372C12.1341 10.8925 12.4411 10.1646 12.4411 9.36533C12.4411 7.67877 11.0714 6.30908 9.38484 6.30908C7.69781 6.30908 6.32813 7.67877 6.32813 9.36533C6.32813 11.0524 7.69781 12.4221 9.38484 12.4221C9.93281 12.4221 10.4475 12.2777 10.8923 12.0246L10.4498 11.5816C10.267 11.3988 10.267 11.1016 10.4498 10.9188C10.6327 10.736 10.9298 10.736 11.1127 10.9188L11.6311 11.4372Z" fill="url(#paint0_linear_2649_47339)"/>
<defs>
<linearGradient id="paint0_linear_2649_47339" x1="14.7752" y1="1.38721" x2="14.7752" y2="28.5939" gradientUnits="userSpaceOnUse">
<stop stop-color="#000AFF"/>
<stop offset="1" stop-color="#D274FF"/>
</linearGradient>
</defs>
</svg>
