<svg width="44" height="45" viewBox="0 0 44 45" fill="none" xmlns="http://www.w3.org/2000/svg">
<rect x="0.132812" y="0.735153" width="43.3333" height="43.3333" rx="21.6667" fill="#6174A4"/>
<path d="M22.2082 13.0006C16.8408 13.0006 12.5469 17.0994 12.5469 22.2228C12.5469 24.0673 13.191 25.9117 14.2645 27.4488L12.7616 29.908C12.5469 30.2154 12.5469 30.6253 12.7616 30.9327C12.9763 31.2401 13.191 31.445 13.6204 31.445H22.2082C27.5757 31.445 31.8696 27.3463 31.8696 22.2228C31.8696 17.0994 27.5757 13.0006 22.2082 13.0006ZM22.2082 29.3957H15.5526L16.5188 27.8586C16.7335 27.4488 16.7335 27.0389 16.4114 26.7315C15.3379 25.5018 14.6938 23.8623 14.6938 22.2228C14.6938 18.2265 18.0216 15.05 22.2082 15.05C26.3948 15.05 29.7226 18.2265 29.7226 22.2228C29.7226 26.2191 26.3948 29.3957 22.2082 29.3957Z" fill="white"/>
<path d="M22.3159 17.4068H22.2085C21.135 17.4068 20.1689 17.9191 19.6321 18.7389C19.2027 19.2512 19.3101 19.8661 19.8468 20.1735C20.3836 20.4809 21.0277 20.3784 21.3497 19.8661C21.5644 19.5586 21.8865 19.4562 22.2085 19.4562H22.3159C22.8526 19.4562 23.282 19.8661 23.282 20.3784C23.282 20.7883 22.9599 21.1981 22.6379 21.3006L21.8865 21.5056C21.4571 21.608 21.135 22.0179 21.135 22.4278V23.2475C21.135 23.8623 21.5644 24.2722 22.2085 24.2722C22.7452 24.2722 23.282 23.8623 23.282 23.35C24.5702 22.9401 25.429 21.813 25.429 20.4809C25.429 18.8414 24.0334 17.4068 22.3159 17.4068Z" fill="white"/>
<path d="M22.2083 27.3469C22.8011 27.3469 23.2817 26.8881 23.2817 26.3222C23.2817 25.7563 22.8011 25.2975 22.2083 25.2975C21.6154 25.2975 21.1348 25.7563 21.1348 26.3222C21.1348 26.8881 21.6154 27.3469 22.2083 27.3469Z" fill="white"/>
</svg>
