<svg width="18" height="20" viewBox="0 0 18 20" fill="none" xmlns="http://www.w3.org/2000/svg">
<g clip-path="url(#clip0_162_21633)">
<path d="M15.75 17.425H2.25C1.95173 17.4247 1.66576 17.2942 1.45485 17.0622C1.24394 16.8302 1.12531 16.5156 1.125 16.1875V13.0938H2.25V16.1875H15.75V13.0938H16.875V16.1875C16.8747 16.5156 16.7561 16.8302 16.5451 17.0622C16.3342 17.2942 16.0483 17.4247 15.75 17.425Z" fill="url(#paint0_linear_162_21633)"/>
<path d="M14.0625 13.0938H3.9375V14.3312H14.0625V13.0938Z" fill="url(#paint1_linear_162_21633)"/>
<path d="M14.0625 10H3.9375V11.2375H14.0625V10Z" fill="url(#paint2_linear_162_21633)"/>
<path d="M14.0625 6.90625H3.9375V8.14375H14.0625V6.90625Z" fill="url(#paint3_linear_162_21633)"/>
<path d="M14.0625 3.8125H3.9375V5.05H14.0625V3.8125Z" fill="url(#paint4_linear_162_21633)"/>
</g>
<defs>
<linearGradient id="paint0_linear_162_21633" x1="9" y1="13.0938" x2="9" y2="17.425" gradientUnits="userSpaceOnUse">
<stop stop-color="#0033EA"/>
<stop offset="1" stop-color="#8A0074"/>
</linearGradient>
<linearGradient id="paint1_linear_162_21633" x1="9" y1="13.0938" x2="9" y2="14.3312" gradientUnits="userSpaceOnUse">
<stop stop-color="#0033EA"/>
<stop offset="1" stop-color="#8A0074"/>
</linearGradient>
<linearGradient id="paint2_linear_162_21633" x1="9" y1="10" x2="9" y2="11.2375" gradientUnits="userSpaceOnUse">
<stop stop-color="#0033EA"/>
<stop offset="1" stop-color="#8A0074"/>
</linearGradient>
<linearGradient id="paint3_linear_162_21633" x1="9" y1="6.90625" x2="9" y2="8.14375" gradientUnits="userSpaceOnUse">
<stop stop-color="#0033EA"/>
<stop offset="1" stop-color="#8A0074"/>
</linearGradient>
<linearGradient id="paint4_linear_162_21633" x1="9" y1="3.8125" x2="9" y2="5.05" gradientUnits="userSpaceOnUse">
<stop stop-color="#0033EA"/>
<stop offset="1" stop-color="#8A0074"/>
</linearGradient>
<clipPath id="clip0_162_21633">
<rect width="18" height="19.8" fill="white" transform="translate(0 0.100098)"/>
</clipPath>
</defs>
</svg>
