<svg width="22" height="21" viewBox="0 0 22 21" fill="none" xmlns="http://www.w3.org/2000/svg">
<path d="M11.0001 0.416748C9.00579 0.416748 7.05628 1.00813 5.39809 2.1161C3.73989 3.22407 2.44748 4.79887 1.6843 6.64136C0.921117 8.48384 0.721433 10.5113 1.1105 12.4672C1.49957 14.4232 2.45991 16.2199 3.87009 17.6301C5.28027 19.0403 7.07695 20.0006 9.03293 20.3897C10.9889 20.7787 13.0163 20.579 14.8588 19.8159C16.7013 19.0527 18.2761 17.7603 19.3841 16.1021C20.492 14.4439 21.0834 12.4944 21.0834 10.5001C21.0834 7.82581 20.0211 5.26108 18.1301 3.37009C16.2391 1.4791 13.6744 0.416748 11.0001 0.416748ZM16.2315 8.39816L9.81484 14.8148C9.64294 14.9867 9.40982 15.0832 9.16675 15.0832C8.92369 15.0832 8.69057 14.9867 8.51867 14.8148L5.76867 12.0648C5.60169 11.8919 5.5093 11.6604 5.51138 11.42C5.51347 11.1797 5.60988 10.9498 5.77984 10.7798C5.94979 10.6099 6.1797 10.5135 6.42005 10.5114C6.6604 10.5093 6.89195 10.6017 7.06484 10.7687L9.16675 12.8706L14.9353 7.102C15.1082 6.93502 15.3398 6.84263 15.5801 6.84471C15.8205 6.8468 16.0504 6.94321 16.2203 7.11316C16.3903 7.28312 16.4867 7.51303 16.4888 7.75338C16.4909 7.99373 16.3985 8.22528 16.2315 8.39816Z" fill="white"/>
</svg>
