<svg width="20" height="20" viewBox="0 0 20 20" fill="none" xmlns="http://www.w3.org/2000/svg">
<path d="M10 1.875C14.4801 1.875 18.125 5.51992 18.125 10C18.125 14.4801 14.4801 18.125 10 18.125C5.51992 18.125 1.875 14.4801 1.875 10C1.875 5.51992 5.51992 1.875 10 1.875ZM5.3125 9.32695H8.78906L7.34844 7.88633L7.56719 7.63203C7.95847 7.22583 8.44431 6.92291 8.98128 6.75037C9.51824 6.57782 10.0896 6.54103 10.6443 6.64327C11.1989 6.74552 11.7196 6.98362 12.1598 7.33628C12.5999 7.68895 12.9458 8.14519 13.1665 8.66421C13.3872 9.18323 13.4759 9.74886 13.4246 10.3105C13.3733 10.8722 13.1836 11.4124 12.8725 11.8828C12.5614 12.3533 12.1385 12.7393 11.6418 13.0063C11.145 13.2734 10.5898 13.4132 10.0258 13.4133C9.31993 13.4126 8.63157 13.1936 8.05515 12.7862C7.47872 12.3788 7.04247 11.803 6.80625 11.1379L6.59648 10.5469L5.41797 10.9637L5.625 11.5547C5.90987 12.3609 6.41087 13.0732 7.07325 13.6139C7.73563 14.1546 8.5339 14.5028 9.3808 14.6205C10.2277 14.7381 11.0907 14.6207 11.8753 14.2811C12.66 13.9414 13.3362 13.3926 13.8301 12.6946C14.3239 11.9966 14.6164 11.1762 14.6755 10.3233C14.7346 9.47026 14.5581 8.61743 14.1653 7.85797C13.7725 7.09852 13.1784 6.46166 12.4481 6.017C11.7178 5.57235 10.8793 5.33702 10.0242 5.33672C9.39318 5.33431 8.76833 5.46112 8.18816 5.70936C7.60799 5.95759 7.08479 6.32198 6.65078 6.78008L6.62891 6.8043L6.46055 6.99961L5.3125 5.85195V9.32695Z" fill="#333333"/>
</svg>
