<svg width="74" height="62" viewBox="0 0 74 62" fill="none" xmlns="http://www.w3.org/2000/svg">
<path d="M13.0468 44.5273C12.9101 44.5046 12.762 44.4932 12.6025 44.4932C12.01 44.4932 11.608 44.7454 11.3964 45.25V49H10.4931V43.7168H11.372L11.3867 44.3271C11.6829 43.8551 12.1028 43.6191 12.6464 43.6191C12.8222 43.6191 12.9557 43.6419 13.0468 43.6875V44.5273Z" fill="#555555"/>
<path d="M15.9765 49.0977C15.2604 49.0977 14.6777 48.8633 14.2285 48.3945C13.7792 47.9225 13.5546 47.2926 13.5546 46.5049V46.3389C13.5546 45.8148 13.6539 45.3477 13.8525 44.9375C14.0543 44.5241 14.3342 44.2018 14.6923 43.9707C15.0536 43.7363 15.4443 43.6191 15.8642 43.6191C16.551 43.6191 17.0849 43.8454 17.4658 44.2979C17.8466 44.7503 18.037 45.3981 18.037 46.2412V46.6172H14.4579C14.471 47.138 14.6223 47.5596 14.912 47.8818C15.205 48.2008 15.5761 48.3604 16.0253 48.3604C16.3443 48.3604 16.6145 48.2952 16.8359 48.165C17.0572 48.0348 17.2509 47.8623 17.4169 47.6475L17.9687 48.0771C17.526 48.7575 16.8619 49.0977 15.9765 49.0977ZM15.8642 44.3613C15.4996 44.3613 15.1936 44.4948 14.9462 44.7617C14.6988 45.0254 14.5458 45.3965 14.4872 45.875H17.1337V45.8066C17.1077 45.3477 16.984 44.9928 16.7626 44.7422C16.5413 44.4883 16.2418 44.3613 15.8642 44.3613Z" fill="#555555"/>
<path d="M24.4579 46.7441C24.3701 47.4961 24.0917 48.0771 23.623 48.4873C23.1575 48.8942 22.5374 49.0977 21.7626 49.0977C20.9228 49.0977 20.249 48.7965 19.7411 48.1943C19.2366 47.5921 18.9843 46.7865 18.9843 45.7773V45.0938C18.9843 44.4329 19.1015 43.8519 19.3359 43.3506C19.5735 42.8493 19.9088 42.4652 20.3417 42.1982C20.7747 41.9281 21.276 41.793 21.8456 41.793C22.6009 41.793 23.2063 42.0046 23.662 42.4277C24.1178 42.8477 24.3831 43.4303 24.4579 44.1758H23.5156C23.4342 43.6094 23.2568 43.1992 22.9833 42.9453C22.7132 42.6914 22.3339 42.5645 21.8456 42.5645C21.2467 42.5645 20.7763 42.7858 20.4345 43.2285C20.096 43.6712 19.9267 44.3011 19.9267 45.1182V45.8066C19.9267 46.5781 20.0878 47.1917 20.4101 47.6475C20.7324 48.1032 21.1832 48.3311 21.7626 48.3311C22.2835 48.3311 22.6822 48.2139 22.9589 47.9795C23.2389 47.7419 23.4244 47.3301 23.5156 46.7441H24.4579Z" fill="#555555"/>
<path d="M29.6679 47.1445H26.6894L26.0204 49H25.0536L27.7685 41.8906H28.5888L31.3085 49H30.3466L29.6679 47.1445ZM26.9726 46.373H29.3896L28.1786 43.0479L26.9726 46.373Z" fill="#555555"/>
<path d="M33.2031 46.2168V49H32.2656V41.8906H34.8876C35.6656 41.8906 36.2744 42.0892 36.7138 42.4863C37.1565 42.8835 37.3779 43.4092 37.3779 44.0635C37.3779 44.7536 37.1614 45.2858 36.7285 45.6602C36.2988 46.0312 35.6819 46.2168 34.8779 46.2168H33.2031ZM33.2031 45.4502H34.8876C35.3889 45.4502 35.7731 45.333 36.04 45.0986C36.3069 44.861 36.4404 44.5192 36.4404 44.0732C36.4404 43.6501 36.3069 43.3115 36.04 43.0576C35.7731 42.8037 35.4068 42.6719 34.9413 42.6621H33.2031V45.4502Z" fill="#555555"/>
<path d="M43.4863 42.6621H41.2011V49H40.2685V42.6621H37.9882V41.8906H43.4863V42.6621Z" fill="#555555"/>
<path d="M49.6337 46.7441C49.5458 47.4961 49.2675 48.0771 48.7988 48.4873C48.3333 48.8942 47.7132 49.0977 46.9384 49.0977C46.0986 49.0977 45.4247 48.7965 44.9169 48.1943C44.4124 47.5921 44.1601 46.7865 44.1601 45.7773V45.0938C44.1601 44.4329 44.2773 43.8519 44.5117 43.3506C44.7493 42.8493 45.0846 42.4652 45.5175 42.1982C45.9505 41.9281 46.4518 41.793 47.0214 41.793C47.7766 41.793 48.3821 42.0046 48.8378 42.4277C49.2936 42.8477 49.5589 43.4303 49.6337 44.1758H48.6913C48.61 43.6094 48.4326 43.1992 48.1591 42.9453C47.8889 42.6914 47.5097 42.5645 47.0214 42.5645C46.4225 42.5645 45.9521 42.7858 45.6103 43.2285C45.2717 43.6712 45.1025 44.3011 45.1025 45.1182V45.8066C45.1025 46.5781 45.2636 47.1917 45.5859 47.6475C45.9081 48.1032 46.359 48.3311 46.9384 48.3311C47.4592 48.3311 47.858 48.2139 48.1347 47.9795C48.4147 47.7419 48.6002 47.3301 48.6913 46.7441H49.6337Z" fill="#555555"/>
<path d="M56.3818 49H55.4394V45.7139H51.8554V49H50.9179V41.8906H51.8554V44.9473H55.4394V41.8906H56.3818V49Z" fill="#555555"/>
<path d="M62.0605 47.1445H59.082L58.413 49H57.4462L60.1611 41.8906H60.9814L63.7011 49H62.7392L62.0605 47.1445ZM59.3652 46.373H61.7822L60.5712 43.0479L59.3652 46.373Z" fill="#555555"/>
<path d="M9.55951 57.5391V59.7656H8.80951V54.0781H10.9072C11.5296 54.0781 12.0165 54.237 12.3681 54.5547C12.7223 54.8724 12.8994 55.293 12.8994 55.8164C12.8994 56.3685 12.7262 56.7943 12.3798 57.0938C12.0361 57.3906 11.5426 57.5391 10.8994 57.5391H9.55951ZM9.55951 56.9258H10.9072C11.3082 56.9258 11.6155 56.832 11.829 56.6445C12.0426 56.4544 12.1494 56.181 12.1494 55.8242C12.1494 55.4857 12.0426 55.2148 11.829 55.0117C11.6155 54.8086 11.3225 54.7031 10.9501 54.6953H9.55951V56.9258Z" fill="#555555"/>
<path d="M15.7861 56.1875C15.6767 56.1693 15.5582 56.1602 15.4306 56.1602C14.9566 56.1602 14.635 56.362 14.4658 56.7656V59.7656H13.7431V55.5391H14.4462L14.4579 56.0273C14.6949 55.6497 15.0309 55.4609 15.4658 55.4609C15.6064 55.4609 15.7132 55.4792 15.7861 55.5156V56.1875Z" fill="#555555"/>
<path d="M17.2392 59.7656H16.5165V55.5391H17.2392V59.7656ZM16.4579 54.418C16.4579 54.3008 16.4931 54.2018 16.5634 54.1211C16.6363 54.0404 16.7431 54 16.8837 54C17.0244 54 17.1311 54.0404 17.204 54.1211C17.277 54.2018 17.3134 54.3008 17.3134 54.418C17.3134 54.5352 17.277 54.6328 17.204 54.7109C17.1311 54.7891 17.0244 54.8281 16.8837 54.8281C16.7431 54.8281 16.6363 54.7891 16.5634 54.7109C16.4931 54.6328 16.4579 54.5352 16.4579 54.418Z" fill="#555555"/>
<path d="M19.7939 58.7852L20.8408 55.5391H21.579L20.0634 59.7656H19.5126L17.9814 55.5391H18.7197L19.7939 58.7852Z" fill="#555555"/>
<path d="M24.8212 59.7656C24.7796 59.6823 24.7457 59.5339 24.7197 59.3203C24.3837 59.6693 23.9827 59.8438 23.5165 59.8438C23.0999 59.8438 22.7574 59.7266 22.4892 59.4922C22.2236 59.2552 22.0908 58.9557 22.0908 58.5938C22.0908 58.1536 22.2574 57.8125 22.5908 57.5703C22.9267 57.3255 23.3981 57.2031 24.0048 57.2031H24.7079V56.8711C24.7079 56.6185 24.6324 56.418 24.4814 56.2695C24.3303 56.1185 24.1077 56.043 23.8134 56.043C23.5556 56.043 23.3395 56.1081 23.165 56.2383C22.9905 56.3685 22.9033 56.526 22.9033 56.7109H22.1767C22.1767 56.5 22.2509 56.2969 22.3994 56.1016C22.5504 55.9036 22.7535 55.7474 23.0087 55.6328C23.2665 55.5182 23.5491 55.4609 23.8564 55.4609C24.3434 55.4609 24.7249 55.5833 25.0009 55.8281C25.277 56.0703 25.4202 56.4049 25.4306 56.832V58.7773C25.4306 59.1654 25.4801 59.474 25.579 59.7031V59.7656H24.8212ZM23.622 59.2148C23.8486 59.2148 24.0634 59.1562 24.2665 59.0391C24.4697 58.9219 24.6168 58.7695 24.7079 58.582V57.7148H24.1415C23.2561 57.7148 22.8134 57.974 22.8134 58.4922C22.8134 58.7188 22.8889 58.8958 23.04 59.0234C23.191 59.151 23.385 59.2148 23.622 59.2148Z" fill="#555555"/>
<path d="M28.2587 59.2539C28.5165 59.2539 28.7418 59.1758 28.9345 59.0195C29.1272 58.8633 29.234 58.668 29.2548 58.4336H29.9384C29.9254 58.6758 29.8421 58.9062 29.6884 59.125C29.5348 59.3438 29.329 59.5182 29.0712 59.6484C28.816 59.7786 28.5452 59.8438 28.2587 59.8438C27.6832 59.8438 27.2249 59.6523 26.8837 59.2695C26.5452 58.8841 26.3759 58.3581 26.3759 57.6914V57.5703C26.3759 57.1589 26.4514 56.793 26.6025 56.4727C26.7535 56.1523 26.9697 55.9036 27.2509 55.7266C27.5348 55.5495 27.8694 55.4609 28.2548 55.4609C28.7288 55.4609 29.122 55.6029 29.4345 55.8867C29.7496 56.1706 29.9176 56.5391 29.9384 56.9922H29.2548C29.234 56.7188 29.1298 56.4948 28.9423 56.3203C28.7574 56.1432 28.5283 56.0547 28.2548 56.0547C27.8876 56.0547 27.6025 56.1875 27.3994 56.4531C27.1988 56.7161 27.0986 57.0977 27.0986 57.5977V57.7344C27.0986 58.2214 27.1988 58.5964 27.3994 58.8594C27.5999 59.1224 27.8863 59.2539 28.2587 59.2539Z" fill="#555555"/>
<path d="M32.1337 58.707L33.1181 55.5391H33.8915L32.1923 60.418C31.9293 61.1211 31.5113 61.4727 30.9384 61.4727L30.8017 61.4609L30.5322 61.4102V60.8242L30.7275 60.8398C30.9723 60.8398 31.1624 60.7904 31.2978 60.6914C31.4358 60.5924 31.5491 60.4115 31.6376 60.1484L31.7978 59.7188L30.29 55.5391H31.079L32.1337 58.707Z" fill="#555555"/>
<path d="M46.7392 54.6953H44.9111V59.7656H44.165V54.6953H42.3408V54.0781H46.7392V54.6953Z" fill="#555555"/>
<path d="M48.8329 59.8438C48.26 59.8438 47.7939 59.6562 47.4345 59.2812C47.0751 58.9036 46.8954 58.3997 46.8954 57.7695V57.6367C46.8954 57.2174 46.9749 56.8438 47.1337 56.5156C47.2952 56.1849 47.5191 55.9271 47.8056 55.7422C48.0947 55.5547 48.4072 55.4609 48.7431 55.4609C49.2926 55.4609 49.7197 55.6419 50.0244 56.0039C50.329 56.3659 50.4814 56.8841 50.4814 57.5586V57.8594H47.6181C47.6285 58.276 47.7496 58.6133 47.9814 58.8711C48.2158 59.1263 48.5126 59.2539 48.872 59.2539C49.1272 59.2539 49.3434 59.2018 49.5204 59.0977C49.6975 58.9935 49.8525 58.8555 49.9853 58.6836L50.4267 59.0273C50.0725 59.5716 49.5413 59.8438 48.8329 59.8438ZM48.7431 56.0547C48.4514 56.0547 48.2066 56.1615 48.0087 56.375C47.8108 56.5859 47.6884 56.8828 47.6415 57.2656H49.7587V57.2109C49.7379 56.8438 49.6389 56.5599 49.4619 56.3594C49.2848 56.1562 49.0452 56.0547 48.7431 56.0547Z" fill="#555555"/>
<path d="M53.3642 56.1875C53.2548 56.1693 53.1363 56.1602 53.0087 56.1602C52.5348 56.1602 52.2132 56.362 52.0439 56.7656V59.7656H51.3212V55.5391H52.0244L52.0361 56.0273C52.2731 55.6497 52.609 55.4609 53.0439 55.4609C53.1845 55.4609 53.2913 55.4792 53.3642 55.5156V56.1875Z" fill="#555555"/>
<path d="M54.7119 55.5391L54.7314 56.0078C55.0413 55.6432 55.4592 55.4609 55.9853 55.4609C56.5764 55.4609 56.9788 55.6875 57.1923 56.1406C57.3329 55.9375 57.5152 55.7734 57.7392 55.6484C57.9658 55.5234 58.2327 55.4609 58.54 55.4609C59.4671 55.4609 59.9384 55.9518 59.954 56.9336V59.7656H59.2314V56.9766C59.2314 56.6745 59.1624 56.4492 59.0244 56.3008C58.8863 56.1497 58.6546 56.0742 58.329 56.0742C58.0608 56.0742 57.8382 56.1549 57.6611 56.3164C57.484 56.4753 57.3811 56.6901 57.3525 56.9609V59.7656H56.6259V56.9961C56.6259 56.3815 56.3251 56.0742 55.7236 56.0742C55.2496 56.0742 54.9254 56.276 54.7509 56.6797V59.7656H54.0283V55.5391H54.7119Z" fill="#555555"/>
<path d="M63.5087 58.6445C63.5087 58.4492 63.4345 58.2982 63.2861 58.1914C63.1402 58.082 62.8837 57.9883 62.5165 57.9102C62.152 57.832 61.8616 57.7383 61.6454 57.6289C61.4319 57.5195 61.2731 57.3893 61.1689 57.2383C61.0673 57.0872 61.0165 56.9076 61.0165 56.6992C61.0165 56.3529 61.1624 56.0599 61.454 55.8203C61.7483 55.5807 62.1233 55.4609 62.579 55.4609C63.0582 55.4609 63.4462 55.5846 63.7431 55.832C64.0426 56.0794 64.1923 56.3958 64.1923 56.7812H63.4658C63.4658 56.5833 63.3811 56.4128 63.2119 56.2695C63.0452 56.1263 62.8342 56.0547 62.579 56.0547C62.316 56.0547 62.1103 56.112 61.9619 56.2266C61.8134 56.3411 61.7392 56.4909 61.7392 56.6758C61.7392 56.8503 61.8082 56.9818 61.9462 57.0703C62.0842 57.1589 62.3329 57.2435 62.6923 57.3242C63.0543 57.4049 63.3473 57.5013 63.5712 57.6133C63.7952 57.7253 63.9606 57.8607 64.0673 58.0195C64.1767 58.1758 64.2314 58.3672 64.2314 58.5938C64.2314 58.9714 64.0803 59.2747 63.7783 59.5039C63.4762 59.7305 63.0842 59.8438 62.6025 59.8438C62.2639 59.8438 61.9645 59.7839 61.704 59.6641C61.4436 59.5443 61.2392 59.3776 61.0908 59.1641C60.9449 58.9479 60.872 58.7148 60.872 58.4648H61.5947C61.6077 58.707 61.704 58.8997 61.8837 59.043C62.066 59.1836 62.3056 59.2539 62.6025 59.2539C62.8759 59.2539 63.0947 59.1992 63.2587 59.0898C63.4254 58.9779 63.5087 58.8294 63.5087 58.6445Z" fill="#555555"/>
<path d="M39.1376 57.9648H37.0869V57.1992H39.1376V57.9648Z" fill="black"/>
<g filter="url(#filter0_d_350_187977)">
<path d="M48.2108 11.3378C48.0753 11.1691 47.9358 11.0031 47.7922 10.84C45.4974 8.234 42.3312 6.55399 38.8867 6.1147C35.4422 5.67541 31.9557 6.50698 29.0803 8.45365L33.1968 14.5341C34.5928 13.589 36.2855 13.1853 37.9578 13.3985C39.6301 13.6118 41.1673 14.4275 42.2814 15.6927C42.5311 15.9763 42.7557 16.2781 42.9539 16.5947L39.3101 20.2385H51.4195V8.12915L48.2108 11.3378Z" fill="#1C3AA9"/>
</g>
<g filter="url(#filter1_d_350_187977)">
<path d="M37.048 6.00049H24.9386L28.1105 9.1723C25.7403 11.0878 24.0365 13.7199 23.2664 16.6902C22.3948 20.0514 22.7787 23.6151 24.3459 26.7137L30.8983 23.3995C30.1374 21.8952 29.951 20.165 30.3741 18.5331C30.7973 16.9013 31.8008 15.4796 33.1968 14.5345C33.2519 14.4972 33.3074 14.4608 33.3634 14.4252L37.048 18.1098V6.00049Z" fill="#4285F4"/>
</g>
<g filter="url(#filter2_d_350_187977)">
<path d="M22.8095 20.3716H34.9189L31.2602 24.0302C32.036 25.2318 33.1687 26.1693 34.5077 26.705C36.0729 27.3312 37.8127 27.3652 39.4013 26.8007C40.9898 26.2363 42.318 25.112 43.1372 23.6385L48.4333 28.9213C46.7632 31.1132 44.4839 32.7873 41.8599 33.7197C38.5879 34.8824 35.0043 34.8123 31.7803 33.5225C29.5124 32.6153 27.5319 31.1482 26.0111 29.2793L22.8095 32.4809V20.3716Z" fill="#ABABAB"/>
</g>
<defs>
<filter id="filter0_d_350_187977" x="28.0803" y="5" width="24.3392" height="16.2385" filterUnits="userSpaceOnUse" color-interpolation-filters="sRGB">
<feFlood flood-opacity="0" result="BackgroundImageFix"/>
<feColorMatrix in="SourceAlpha" type="matrix" values="0 0 0 0 0 0 0 0 0 0 0 0 0 0 0 0 0 0 127 0" result="hardAlpha"/>
<feOffset/>
<feGaussianBlur stdDeviation="0.5"/>
<feColorMatrix type="matrix" values="0 0 0 0 0 0 0 0 0 0 0 0 0 0 0 0 0 0 0.38 0"/>
<feBlend mode="normal" in2="BackgroundImageFix" result="effect1_dropShadow_350_187977"/>
<feBlend mode="normal" in="SourceGraphic" in2="effect1_dropShadow_350_187977" result="shape"/>
</filter>
<filter id="filter1_d_350_187977" x="21.8095" y="5.00049" width="16.2385" height="22.7131" filterUnits="userSpaceOnUse" color-interpolation-filters="sRGB">
<feFlood flood-opacity="0" result="BackgroundImageFix"/>
<feColorMatrix in="SourceAlpha" type="matrix" values="0 0 0 0 0 0 0 0 0 0 0 0 0 0 0 0 0 0 127 0" result="hardAlpha"/>
<feOffset/>
<feGaussianBlur stdDeviation="0.5"/>
<feColorMatrix type="matrix" values="0 0 0 0 0 0 0 0 0 0 0 0 0 0 0 0 0 0 0.38 0"/>
<feBlend mode="normal" in2="BackgroundImageFix" result="effect1_dropShadow_350_187977"/>
<feBlend mode="normal" in="SourceGraphic" in2="effect1_dropShadow_350_187977" result="shape"/>
</filter>
<filter id="filter2_d_350_187977" x="21.8095" y="19.3716" width="27.6238" height="16.1719" filterUnits="userSpaceOnUse" color-interpolation-filters="sRGB">
<feFlood flood-opacity="0" result="BackgroundImageFix"/>
<feColorMatrix in="SourceAlpha" type="matrix" values="0 0 0 0 0 0 0 0 0 0 0 0 0 0 0 0 0 0 127 0" result="hardAlpha"/>
<feOffset/>
<feGaussianBlur stdDeviation="0.5"/>
<feColorMatrix type="matrix" values="0 0 0 0 0 0 0 0 0 0 0 0 0 0 0 0 0 0 0.38 0"/>
<feBlend mode="normal" in2="BackgroundImageFix" result="effect1_dropShadow_350_187977"/>
<feBlend mode="normal" in="SourceGraphic" in2="effect1_dropShadow_350_187977" result="shape"/>
</filter>
</defs>
</svg>
