<svg width="22" height="20" viewBox="0 0 22 20" fill="none" xmlns="http://www.w3.org/2000/svg">
<path d="M16.3386 5.33594C13.7683 5.33594 11.6773 7.42695 11.6773 9.99725C11.6773 11.602 12.4926 13.0197 13.7304 13.8586H8.26951C9.50744 13.0197 10.3226 11.602 10.3226 9.99725C10.3226 7.42695 8.23161 5.33594 5.66131 5.33594C3.09101 5.33594 1 7.42695 1 9.99725C1 12.5675 3.09101 14.6586 5.66131 14.6586H16.3386C18.9089 14.6586 21 12.5675 21 9.99725C21 7.42695 18.909 5.33594 16.3386 5.33594ZM1.79999 9.99725C1.79999 7.86797 3.53203 6.13592 5.66131 6.13592C7.79059 6.13592 9.52263 7.86797 9.52263 9.99725C9.52263 12.1265 7.79059 13.8586 5.66131 13.8586C3.53203 13.8586 1.79999 12.1265 1.79999 9.99725ZM16.3386 13.8586C14.2094 13.8586 12.4773 12.1265 12.4773 9.99725C12.4773 7.86797 14.2094 6.13592 16.3386 6.13592C18.468 6.13592 20.2 7.86797 20.2 9.99725C20.2 12.1265 18.468 13.8586 16.3386 13.8586Z" fill="#645DF6" stroke="#645DF6" stroke-width="0.5"/>
</svg>
