<svg width="58" height="60" viewBox="0 0 58 60" fill="none" xmlns="http://www.w3.org/2000/svg">
<g filter="url(#filter0_d_293_958073)">
<rect x="4" y="2" width="50" height="50" rx="25" fill="#44B0FF"/>
<g clip-path="url(#clip0_293_958073)">
<path fill-rule="evenodd" clip-rule="evenodd" d="M28.7354 16.179C26.4519 16.179 24.5944 18.0299 24.5944 20.3053V26.2C24.5944 28.4754 26.4519 30.3264 28.7354 30.3264C31.0189 30.3264 32.8764 28.4754 32.8764 26.2V20.3053C32.8764 18.0299 31.0189 16.179 28.7354 16.179ZM22.2281 23.6455V26.4879C22.2281 30.0625 25.1481 32.9722 28.7354 32.9722C32.3227 32.9722 35.2427 30.0625 35.2427 26.4879V23.6455H36.4258V26.4879C36.4258 30.515 33.2921 33.8266 29.327 34.1287L29.3269 37.2009H32.2848V38.3799H25.1859V37.2009H28.1438L28.1437 34.1287C24.1787 33.8266 21.0449 30.515 21.0449 26.4879V23.6455H22.2281ZM28.7354 15C31.6708 15 34.0595 17.3803 34.0595 20.3053V26.2C34.0595 29.125 31.6708 31.5053 28.7354 31.5053C25.8 31.5053 23.4112 29.125 23.4112 26.2V20.3053C23.4112 17.3803 25.8 15 28.7354 15Z" fill="white"/>
</g>
</g>
<defs>
<filter id="filter0_d_293_958073" x="0" y="2" width="58" height="58" filterUnits="userSpaceOnUse" color-interpolation-filters="sRGB">
<feFlood flood-opacity="0" result="BackgroundImageFix"/>
<feColorMatrix in="SourceAlpha" type="matrix" values="0 0 0 0 0 0 0 0 0 0 0 0 0 0 0 0 0 0 127 0" result="hardAlpha"/>
<feOffset dy="4"/>
<feGaussianBlur stdDeviation="2"/>
<feComposite in2="hardAlpha" operator="out"/>
<feColorMatrix type="matrix" values="0 0 0 0 0 0 0 0 0 0 0 0 0 0 0 0 0 0 0.25 0"/>
<feBlend mode="normal" in2="BackgroundImageFix" result="effect1_dropShadow_293_958073"/>
<feBlend mode="normal" in="SourceGraphic" in2="effect1_dropShadow_293_958073" result="shape"/>
</filter>
<clipPath id="clip0_293_958073">
<rect width="23.4631" height="23.3799" fill="white" transform="translate(17 15)"/>
</clipPath>
</defs>
</svg>
