<svg width="17" height="18" viewBox="0 0 17 18" fill="none" xmlns="http://www.w3.org/2000/svg">
<path d="M8.5 1.5332C4.3989 1.5332 1.0625 4.8696 1.0625 8.9707C1.0625 13.0718 4.3989 16.4082 8.5 16.4082C12.6011 16.4082 15.9375 13.0718 15.9375 8.9707C15.9375 4.8696 12.6011 1.5332 8.5 1.5332ZM8.5 15.3457C4.98462 15.3457 2.125 12.4858 2.125 8.9707C2.125 5.45558 4.98462 2.5957 8.5 2.5957C12.0154 2.5957 14.875 5.45558 14.875 8.9707C14.875 12.4858 12.0154 15.3457 8.5 15.3457Z" fill="#D21E1E"/>
<path d="M11.129 6.34119C10.9215 6.13367 10.5853 6.13367 10.3778 6.34119L8.49976 8.21947L6.6217 6.34119C6.41418 6.13367 6.078 6.13367 5.87048 6.34119C5.66296 6.54871 5.66296 6.88489 5.87048 7.09241L7.74857 8.97072L5.87048 10.849C5.66296 11.0565 5.66296 11.3927 5.87048 11.6003C5.97424 11.704 6.11017 11.7559 6.24609 11.7559C6.38202 11.7559 6.51794 11.704 6.6217 11.6003L8.49976 9.72197L10.3778 11.6003C10.4816 11.704 10.6175 11.7559 10.7534 11.7559C10.8893 11.7559 11.0253 11.704 11.129 11.6003C11.3365 11.3927 11.3365 11.0565 11.129 10.849L9.25094 8.97072L11.129 7.09241C11.3365 6.88489 11.3365 6.54871 11.129 6.34119Z" fill="#D21E1E"/>
</svg>
