<svg width="18" height="18" viewBox="0 0 18 18" fill="none" xmlns="http://www.w3.org/2000/svg">
<path d="M5.625 11.25H14.625C14.7742 11.25 14.9173 11.1907 15.0227 11.0852C15.1282 10.9798 15.1875 10.8367 15.1875 10.6875V3.375C15.1875 3.22582 15.1282 3.08274 15.0227 2.97725C14.9173 2.87176 14.7742 2.8125 14.625 2.8125H6.75C6.60082 2.8125 6.45774 2.87176 6.35225 2.97725C6.24676 3.08274 6.1875 3.22582 6.1875 3.375V3.9375" stroke="#555555" stroke-width="1.2" stroke-linecap="round" stroke-linejoin="round"/>
<path d="M7.3125 9.5625L5.625 11.25L7.3125 12.9375" stroke="#555555" stroke-width="1.2" stroke-linecap="round" stroke-linejoin="round"/>
<path d="M12.375 6.75H3.375C3.22582 6.75 3.08274 6.80926 2.97725 6.91475C2.87176 7.02024 2.8125 7.16332 2.8125 7.3125V14.625C2.8125 14.7742 2.87176 14.9173 2.97725 15.0227C3.08274 15.1282 3.22582 15.1875 3.375 15.1875H11.25C11.3992 15.1875 11.5423 15.1282 11.6477 15.0227C11.7532 14.9173 11.8125 14.7742 11.8125 14.625V14.0625" stroke="#555555" stroke-width="1.2" stroke-linecap="round" stroke-linejoin="round"/>
<path d="M10.6875 8.4375L12.375 6.75L10.6875 5.0625" stroke="#555555" stroke-width="1.5" stroke-linecap="round" stroke-linejoin="round"/>
</svg>
