<svg width="19" height="19" viewBox="0 0 19 19" fill="none" xmlns="http://www.w3.org/2000/svg">
<path fill-rule="evenodd" clip-rule="evenodd" d="M7.91671 3.16699H6.33337V4.75033H3.95837C2.6467 4.75033 1.58337 5.81365 1.58337 7.12533V11.8753C1.58337 13.187 2.6467 14.2503 3.95837 14.2503H6.33337V15.8337H7.91671V3.16699ZM6.33337 6.33366V12.667H3.95837C3.52115 12.667 3.16671 12.3126 3.16671 11.8753V7.12533C3.16671 6.6881 3.52115 6.33366 3.95837 6.33366H6.33337Z" fill="#333333"/>
<path d="M15.0417 12.6667H9.5V14.25H15.0417C16.3534 14.25 17.4167 13.1867 17.4167 11.875V7.125C17.4167 5.81333 16.3534 4.75 15.0417 4.75H9.5V6.33333H15.0417C15.4789 6.33333 15.8333 6.68777 15.8333 7.125V11.875C15.8333 12.3122 15.4789 12.6667 15.0417 12.6667Z" fill="#333333"/>
</svg>
