<svg width="19" height="19" viewBox="0 0 19 19" fill="none" xmlns="http://www.w3.org/2000/svg">
<g id="reset-svgrepo-com 1">
<path id="Vector" d="M9.5 12.6667C10.8229 12.6667 11.875 11.613 11.875 10.2917C11.875 8.97046 10.8229 7.91675 9.5 7.91675C8.17712 7.91675 7.125 8.97046 7.125 10.2917C7.125 11.613 8.17712 12.6667 9.5 12.6667Z" fill="#645DF6"/>
<path id="Vector_2" d="M16.4801 8.8555C16.2936 7.94378 15.9291 7.0778 15.4074 6.30713C14.8949 5.54893 14.2419 4.89592 13.4837 4.38338C12.7129 3.86193 11.847 3.49742 10.9353 3.31067C10.4564 3.21355 9.96883 3.1658 9.48021 3.16817V1.58325L6.33333 3.95825L9.48021 6.33325V4.7515C9.86338 4.74992 10.2465 4.78634 10.6163 4.86234C11.3248 5.00753 11.9979 5.29079 12.597 5.69596C13.1879 6.09436 13.6964 6.60291 14.0948 7.19379C14.7134 8.10835 15.0432 9.1875 15.0417 10.2916C15.0415 11.0325 14.8935 11.7659 14.6063 12.4489C14.4666 12.7779 14.2958 13.0928 14.0964 13.3894C13.8962 13.6842 13.6688 13.9596 13.4172 14.2119C12.6508 14.9768 11.678 15.5015 10.6178 15.7216C9.88058 15.8705 9.12101 15.8705 8.38375 15.7216C7.67486 15.5763 7.00153 15.2928 6.40221 14.8872C5.81201 14.4892 5.304 13.9812 4.90596 13.391C4.28811 12.4754 3.9581 11.3961 3.95833 10.2916H2.375C2.37584 11.7116 2.80003 13.0991 3.59338 14.2768C4.10625 15.0338 4.7586 15.6861 5.51554 16.199C6.69166 16.995 8.07984 17.4192 9.5 17.4166C9.98234 17.4165 10.4635 17.368 10.9361 17.2717C11.8471 17.0836 12.7125 16.7192 13.4837 16.199C13.8623 15.9439 14.2152 15.6525 14.5374 15.329C14.86 15.0055 15.1515 14.6524 15.4082 14.2745C16.2035 13.0987 16.6274 11.7111 16.625 10.2916C16.625 9.80925 16.5764 9.32813 16.4801 8.8555Z" fill="#645DF6"/>
</g>
</svg>
