<svg width="23" height="22" viewBox="0 0 23 22" fill="none" xmlns="http://www.w3.org/2000/svg">
<path fill-rule="evenodd" clip-rule="evenodd" d="M5.5667 14.1412C5.15301 14.0882 4.75171 13.9956 4.3667 13.8673V16.3225C4.3667 16.6698 4.50468 17.0029 4.75029 17.2486C4.99591 17.4942 5.32903 17.6322 5.67638 17.6322L10.9537 17.6322L10.954 17.6322C10.9714 17.6322 10.9885 17.6368 11.0036 17.6455C11.0189 17.6542 11.0315 17.6668 11.0404 17.6819L11.0404 17.6819L11.0431 17.6865L12.3561 19.8776L12.356 19.8777L12.3596 19.8835C12.4776 20.0754 12.6428 20.2339 12.8394 20.3438C13.0361 20.4537 13.2576 20.5114 13.4828 20.5114C13.7081 20.5114 13.9296 20.4537 14.1262 20.3438C14.3229 20.2339 14.488 20.0754 14.606 19.8835L14.6061 19.8835L14.6096 19.8776L15.9225 17.6865L15.4078 17.3781L15.9252 17.6819C15.9341 17.6668 15.9468 17.6542 15.962 17.6455C15.9771 17.6368 15.9943 17.6322 16.0117 17.6322L16.012 17.6322L21.2893 17.6322C21.6366 17.6322 21.9697 17.4942 22.2154 17.2486C22.461 17.0029 22.599 16.6698 22.599 16.3225V4.96764C22.599 4.62029 22.461 4.28717 22.2154 4.04155C21.9697 3.79594 21.6366 3.65796 21.2893 3.65796H11.2437C11.557 4.02442 11.8296 4.42675 12.0544 4.85796H21.2893C21.3184 4.85796 21.3463 4.86951 21.3668 4.89008C21.3874 4.91065 21.399 4.93855 21.399 4.96764V16.3225C21.399 16.3516 21.3874 16.3795 21.3668 16.4C21.3463 16.4206 21.3184 16.4322 21.2893 16.4322L16.0111 16.4322L16.0101 16.4322C15.7837 16.4325 15.5614 16.4919 15.365 16.6046C15.1695 16.7167 15.0065 16.8776 14.892 17.0716L13.5828 19.2567C13.5722 19.2732 13.5578 19.2868 13.5407 19.2964C13.523 19.3062 13.5031 19.3114 13.4828 19.3114C13.4626 19.3114 13.4427 19.3062 13.425 19.2964C13.4079 19.2868 13.3934 19.2732 13.3829 19.2567L12.0737 17.0717C11.9591 16.8777 11.7962 16.7167 11.6007 16.6046C11.4043 16.4919 11.1819 16.4325 10.9556 16.4322H10.9546H5.67638C5.64729 16.4322 5.61939 16.4206 5.59882 16.4C5.57825 16.3795 5.5667 16.3516 5.5667 16.3225V14.1412ZM13.4837 11.5322C13.9736 11.5322 14.3708 11.135 14.3708 10.6451C14.3708 10.1551 13.9736 9.75796 13.4837 9.75796C12.9937 9.75796 12.5966 10.1551 12.5966 10.6451C12.5966 11.135 12.9937 11.5322 13.4837 11.5322ZM18.6286 10.6451C18.6286 11.135 18.2314 11.5322 17.7415 11.5322C17.2516 11.5322 16.8544 11.135 16.8544 10.6451C16.8544 10.1551 17.2516 9.75796 17.7415 9.75796C18.2314 9.75796 18.6286 10.1551 18.6286 10.6451Z" fill="url(#paint0_linear_987_227610)"/>
<circle cx="6.3871" cy="7.80653" r="5.7871" fill="white" stroke="url(#paint1_linear_987_227610)" stroke-width="1.2"/>
<path d="M7.21875 6.40625L5.03125 8.59375L3.9375 7.5" stroke="url(#paint2_linear_987_227610)" stroke-width="1.2" stroke-linecap="round" stroke-linejoin="round"/>
<defs>
<linearGradient id="paint0_linear_987_227610" x1="13.4828" y1="3.65796" x2="13.4828" y2="20.5114" gradientUnits="userSpaceOnUse">
<stop stop-color="#000AFF"/>
<stop offset="1" stop-color="#D274FF"/>
</linearGradient>
<linearGradient id="paint1_linear_987_227610" x1="6.3871" y1="1.41943" x2="6.3871" y2="14.1936" gradientUnits="userSpaceOnUse">
<stop stop-color="#000AFF"/>
<stop offset="1" stop-color="#D274FF"/>
</linearGradient>
<linearGradient id="paint2_linear_987_227610" x1="5.57812" y1="6.40625" x2="5.57812" y2="8.59375" gradientUnits="userSpaceOnUse">
<stop stop-color="#000AFF"/>
<stop offset="1" stop-color="#D274FF"/>
</linearGradient>
</defs>
</svg>
