<svg width="13" height="11" viewBox="0 0 13 11" fill="none" xmlns="http://www.w3.org/2000/svg">
<path d="M5.58133 1.14372C5.62738 1.10081 5.66432 1.04906 5.68994 0.99156C5.71556 0.934061 5.72934 0.87199 5.73045 0.809051C5.73156 0.746111 5.71998 0.683593 5.6964 0.625225C5.67283 0.566858 5.63774 0.513837 5.59322 0.469325C5.54871 0.424813 5.49569 0.389723 5.43732 0.366147C5.37896 0.342572 5.31644 0.330994 5.2535 0.332104C5.19056 0.333215 5.12849 0.346991 5.07099 0.372611C5.01349 0.398231 4.96174 0.43517 4.91883 0.481224L1.01258 4.38747C0.924794 4.47536 0.875488 4.5945 0.875488 4.71872C0.875488 4.84294 0.924794 4.96208 1.01258 5.04997L4.91883 8.95622C4.96174 9.00228 5.01349 9.03922 5.07099 9.06484C5.12849 9.09046 5.19056 9.10423 5.2535 9.10534C5.31644 9.10645 5.37896 9.09488 5.43732 9.0713C5.49569 9.04772 5.54871 9.01263 5.59322 8.96812C5.63774 8.92361 5.67283 8.87059 5.6964 8.81222C5.71998 8.75385 5.73156 8.69134 5.73045 8.6284C5.72934 8.56546 5.71556 8.50339 5.68994 8.44589C5.66432 8.38839 5.62738 8.33664 5.58133 8.29372L2.47508 5.18747H9.62508C9.89176 5.18731 10.1559 5.2397 10.4023 5.34164C10.6487 5.44358 10.8727 5.59309 11.0613 5.78161C11.2499 5.97012 11.3996 6.19397 11.5017 6.44034C11.6038 6.68671 11.6563 6.95079 11.6563 7.21747V10.0312C11.6563 10.1555 11.7057 10.2748 11.7936 10.3627C11.8815 10.4506 12.0008 10.5 12.1251 10.5C12.2494 10.5 12.3686 10.4506 12.4565 10.3627C12.5444 10.2748 12.5938 10.1555 12.5938 10.0312V7.21747C12.5938 6.82767 12.517 6.44169 12.3678 6.08157C12.2186 5.72146 11.9999 5.39427 11.7242 5.11869C11.4485 4.84312 11.1213 4.62456 10.7611 4.4755C10.4009 4.32645 10.0149 4.24981 9.62508 4.24997H2.47508L5.58133 1.14372Z" fill="black"/>
</svg>
