<svg width="28" height="34" viewBox="0 0 28 34" fill="none" xmlns="http://www.w3.org/2000/svg">
<rect x="0.5" y="-0.5" width="9" height="19" rx="1.5" transform="matrix(-1 0 0 1 25.8555 8)" fill="#C8E0F7" stroke="#0057FF"/>
<path d="M5.12943 17.518L7.06983 19.4584C7.27337 19.6619 7.27337 19.9876 7.06983 20.1911C6.86629 20.3947 6.54063 20.3947 6.33709 20.1911L3.51198 17.366C3.30844 17.1625 3.30844 16.8368 3.51198 16.6333L6.33709 13.8082C6.54063 13.6046 6.86629 13.6046 7.06983 13.8082C7.27337 14.0117 7.27337 14.3374 7.06983 14.5409L5.12943 16.4813L12.1203 16.4813C12.408 16.4813 12.6386 16.712 12.6386 16.9996C12.6386 17.1408 12.5816 17.2737 12.4894 17.366C12.3971 17.4583 12.2668 17.518 12.123 17.5153L5.12943 17.518Z" fill="#0057FF"/>
</svg>
