<svg width="16" height="16" viewBox="0 0 16 16" fill="none" xmlns="http://www.w3.org/2000/svg">
<g clip-path="url(#clip0_469_712)">
<path d="M9.49997 13.0001C9.43417 13.0005 9.36893 12.9879 9.30802 12.963C9.2471 12.9381 9.19169 12.9014 9.14497 12.8551C9.09811 12.8086 9.06091 12.7533 9.03552 12.6924C9.01014 12.6315 8.99707 12.5661 8.99707 12.5001C8.99707 12.4341 9.01014 12.3687 9.03552 12.3078C9.06091 12.2469 9.09811 12.1916 9.14497 12.1451L13.295 8.00009L9.14497 3.85509C9.05082 3.76094 8.99792 3.63324 8.99792 3.50009C8.99792 3.36694 9.05082 3.23924 9.14497 3.14509C9.23912 3.05094 9.36682 2.99805 9.49997 2.99805C9.63312 2.99805 9.76082 3.05094 9.85497 3.14509L14.355 7.64509C14.4018 7.69157 14.439 7.74687 14.4644 7.8078C14.4898 7.86873 14.5029 7.93409 14.5029 8.00009C14.5029 8.0661 14.4898 8.13145 14.4644 8.19238C14.439 8.25331 14.4018 8.30861 14.355 8.35509L9.85497 12.8551C9.80825 12.9014 9.75284 12.9381 9.69192 12.963C9.631 12.9879 9.56577 13.0005 9.49997 13.0001Z" fill="#4A6ADA"/>
<path d="M14 8.5H2C1.86739 8.5 1.74021 8.44732 1.64645 8.35355C1.55268 8.25979 1.5 8.13261 1.5 8C1.5 7.86739 1.55268 7.74021 1.64645 7.64645C1.74021 7.55268 1.86739 7.5 2 7.5H14C14.1326 7.5 14.2598 7.55268 14.3536 7.64645C14.4473 7.74021 14.5 7.86739 14.5 8C14.5 8.13261 14.4473 8.25979 14.3536 8.35355C14.2598 8.44732 14.1326 8.5 14 8.5Z" fill="#4A6ADA"/>
</g>
<defs>
<clipPath id="clip0_469_712">
<rect width="16" height="16" fill="white"/>
</clipPath>
</defs>
</svg>
