<svg width="19" height="19" viewBox="0 0 19 19" fill="none" xmlns="http://www.w3.org/2000/svg">
<path d="M14.8438 4.15625H4.15625C3.17249 4.15625 2.375 4.95374 2.375 5.9375V14.25C2.375 15.2338 3.17249 16.0312 4.15625 16.0312H14.8438C15.8275 16.0312 16.625 15.2338 16.625 14.25V5.9375C16.625 4.95374 15.8275 4.15625 14.8438 4.15625Z" stroke="#4B4893" stroke-width="1.2" stroke-linecap="round" stroke-linejoin="round"/>
<path d="M12.1719 10.6875H6.82812C6.00833 10.6875 5.34375 11.3521 5.34375 12.1719C5.34375 12.9917 6.00833 13.6562 6.82812 13.6562H12.1719C12.9917 13.6562 13.6562 12.9917 13.6562 12.1719C13.6562 11.3521 12.9917 10.6875 12.1719 10.6875Z" stroke="#4B4893" stroke-width="1.2" stroke-linecap="round" stroke-linejoin="round"/>
<path d="M10.9844 10.6875V13.6562" stroke="#4B4893" stroke-width="1.2" stroke-linecap="round" stroke-linejoin="round"/>
<path d="M8.01562 10.6875V13.6562" stroke="#4B4893" stroke-width="1.2" stroke-linecap="round" stroke-linejoin="round"/>
<path d="M9.5 4.15625V1.1875" stroke="#4B4893" stroke-width="1.2" stroke-linecap="round" stroke-linejoin="round"/>
<path d="M6.23438 8.75781C6.64427 8.75781 6.97656 8.42552 6.97656 8.01562C6.97656 7.60573 6.64427 7.27344 6.23438 7.27344C5.82448 7.27344 5.49219 7.60573 5.49219 8.01562C5.49219 8.42552 5.82448 8.75781 6.23438 8.75781Z" fill="#4B4893"/>
<path d="M12.7656 8.75781C13.1755 8.75781 13.5078 8.42552 13.5078 8.01562C13.5078 7.60573 13.1755 7.27344 12.7656 7.27344C12.3557 7.27344 12.0234 7.60573 12.0234 8.01562C12.0234 8.42552 12.3557 8.75781 12.7656 8.75781Z" fill="#4B4893"/>
</svg>
