<svg width="32" height="32" viewBox="0 0 32 32" fill="none" xmlns="http://www.w3.org/2000/svg">
<mask id="mask0_942_450002" style="mask-type:luminance" maskUnits="userSpaceOnUse" x="3" y="3" width="27" height="27">
<path d="M29.5143 3H3V29.5143H29.5143V3Z" fill="white"/>
</mask>
<g mask="url(#mask0_942_450002)">
<path fill-rule="evenodd" clip-rule="evenodd" d="M26.5737 27.3047C26.5737 27.7113 26.2438 28.0413 25.8373 28.0413H21.4182C21.0117 28.0413 20.6817 27.7113 20.6817 27.3047V23.6222H26.5737V27.3047ZM5.95154 23.4941V21.4716C5.95154 20.2755 6.73075 19.2326 7.8915 18.8761C10.4162 18.1028 13.0441 17.7405 15.6573 17.7301C17.6856 17.7405 19.7007 17.9982 21.6819 18.4814C21.0735 19.0205 20.6817 19.7997 20.6817 20.6762V22.1492H19.2087V26.1308C18.0008 26.4107 16.7649 26.5683 15.5261 26.5683C13.5316 26.5683 9.67826 26.1632 5.95154 23.4941ZM22.1547 20.6762C22.1547 19.8645 22.8161 19.2032 23.6277 19.2032C24.4393 19.2032 25.1007 19.8645 25.1007 20.6762V22.1492H22.1547V20.6762ZM15.423 4.47302H15.6293C18.0332 4.47302 20.0807 6.16551 20.5683 8.48105C20.1514 8.7227 19.7198 8.89202 18.973 8.89202C18.0125 8.89202 17.5765 8.61664 17.0227 8.26747C16.3923 7.86976 15.6793 7.41902 14.3036 7.41902C12.9174 7.41902 12.2001 7.87122 11.5667 8.27049C11.1969 8.50464 10.8788 8.70496 10.4207 8.81102C10.7698 6.3629 12.8806 4.47302 15.423 4.47302ZM26.5737 22.1492V20.6762C26.5737 19.8248 26.2055 19.0633 25.6266 18.5256L25.6281 18.5241C25.1051 17.9201 23.9283 17.5607 23.5997 17.4709C22.2136 17.0452 20.798 16.7388 19.3678 16.537C21.0484 15.3557 22.1547 13.4098 22.1547 11.2047H20.6817C20.6817 13.9902 18.4147 16.2571 15.6293 16.2571H15.423C12.6376 16.2571 10.3706 13.9902 10.3706 11.2047V10.3165C11.2853 10.1898 11.8465 9.8363 12.3532 9.51666C12.9071 9.1675 13.3446 8.89202 14.3036 8.89202C15.2521 8.89202 15.6867 9.16603 16.2361 9.51365C16.8695 9.91282 17.5869 10.3651 18.973 10.3651C20.3591 10.3651 21.0794 9.90843 21.7688 9.47095L22.1591 9.22199L22.1061 8.76247C21.7187 5.4776 18.9332 3 15.6293 3H15.423C11.8245 3 8.89756 5.92688 8.89756 9.62857V11.2047C8.89756 13.4112 10.0038 15.3571 11.686 16.5385C10.2586 16.7388 8.84601 17.0437 7.45843 17.4679C5.67607 18.016 4.47852 19.6245 4.47852 21.4716V24.2365L4.77312 24.4559C8.93143 27.5758 13.2945 28.0413 15.5261 28.0413C16.7752 28.0413 18.0185 27.8822 19.2396 27.62C19.3958 28.688 20.3075 29.5143 21.4182 29.5143H25.8373C27.0554 29.5143 28.0467 28.5229 28.0467 27.3047V22.1492H26.5737Z" fill="url(#paint0_linear_942_450002)"/>
</g>
<defs>
<linearGradient id="paint0_linear_942_450002" x1="16.2626" y1="3" x2="16.2626" y2="29.5143" gradientUnits="userSpaceOnUse">
<stop stop-color="#000AFF"/>
<stop offset="1" stop-color="#D274FF"/>
</linearGradient>
</defs>
</svg>
