<svg width="17" height="18" viewBox="0 0 17 18" fill="none" xmlns="http://www.w3.org/2000/svg">
<g clip-path="url(#clip0_74_60216)">
<path d="M14.875 2.625H5.3125C5.03096 2.62583 4.76119 2.73803 4.56211 2.93711C4.36303 3.13619 4.25083 3.40596 4.25 3.6875V11.125C4.25083 11.4065 4.36303 11.6763 4.56211 11.8754C4.76119 12.0745 5.03096 12.1867 5.3125 12.1875H14.875C15.1565 12.1867 15.4263 12.0745 15.6254 11.8754C15.8245 11.6763 15.9367 11.4065 15.9375 11.125V3.6875C15.9367 3.40596 15.8245 3.13619 15.6254 2.93711C15.4263 2.73803 15.1565 2.62583 14.875 2.625ZM14.875 11.125H5.3125V3.6875H14.875V11.125Z" fill="#645DF6"/>
<path d="M9.5625 14.3125H2.125V9H3.1875V7.9375H2.125C1.84346 7.93833 1.57369 8.05053 1.37461 8.24961C1.17553 8.44869 1.06333 8.71846 1.0625 9V14.3125C1.06333 14.594 1.17553 14.8638 1.37461 15.0629C1.57369 15.262 1.84346 15.3742 2.125 15.375H9.5625C9.84404 15.3742 10.1138 15.262 10.3129 15.0629C10.512 14.8638 10.6242 14.594 10.625 14.3125V13.25H9.5625V14.3125Z" fill="#645DF6"/>
</g>
<defs>
<clipPath id="clip0_74_60216">
<rect width="17" height="17" fill="white" transform="translate(0 0.5)"/>
</clipPath>
</defs>
</svg>
