<svg width="13" height="14" viewBox="0 0 13 14" fill="none" xmlns="http://www.w3.org/2000/svg">
<path d="M1.70867 13.3772C2.01004 13.3772 2.26616 13.2567 2.5675 13.0834L11.3515 8.00584C11.9768 7.63672 12.1953 7.39564 12.1953 6.99637C12.1953 6.59709 11.9768 6.35602 11.3515 5.99441L2.5675 0.909311C2.26616 0.736061 2.01004 0.623047 1.70867 0.623047C1.15122 0.623047 0.804688 1.04492 0.804688 1.70035V12.2924C0.804688 12.9478 1.15122 13.3772 1.70867 13.3772ZM2.09291 11.9383C2.04768 11.9383 2.01757 11.9082 2.01757 11.8479V2.14479C2.01757 2.08452 2.04768 2.0544 2.09291 2.0544C2.12303 2.0544 2.15318 2.06948 2.18329 2.09207L10.5229 6.9135C10.5605 6.9361 10.5907 6.95869 10.5907 6.99637C10.5907 7.03404 10.5605 7.06415 10.5229 7.07923L2.18329 11.9082C2.15318 11.9233 2.12303 11.9383 2.09291 11.9383Z" fill="#645DF6"/>
</svg>
