<svg width="19" height="18" viewBox="0 0 19 18" fill="none" xmlns="http://www.w3.org/2000/svg">
<path d="M12.7321 2.25H5.79931C5.69916 2.25054 5.60093 2.27747 5.51452 2.32808C5.42811 2.3787 5.35657 2.4512 5.30712 2.53828L1.82665 8.72578C1.77852 8.80915 1.75317 8.90373 1.75317 9C1.75317 9.09627 1.77852 9.19085 1.82665 9.27422L5.30712 15.4617C5.35657 15.5488 5.42811 15.6213 5.51452 15.6719C5.60093 15.7225 5.69916 15.7495 5.79931 15.75H12.7321C12.8323 15.7495 12.9305 15.7225 13.0169 15.6719C13.1033 15.6213 13.1749 15.5488 13.2243 15.4617L16.7048 9.27422C16.7529 9.19085 16.7783 9.09627 16.7783 9C16.7783 8.90373 16.7529 8.80915 16.7048 8.72578L13.2243 2.53828C13.1749 2.4512 13.1033 2.3787 13.0169 2.32808C12.9305 2.27747 12.8323 2.25054 12.7321 2.25V2.25Z" stroke="white" stroke-width="1.2" stroke-linecap="round" stroke-linejoin="round"/>
<path d="M5.51099 2.32734L9.26567 8.93672L5.51099 15.6727" stroke="white" stroke-width="1.2" stroke-linecap="round" stroke-linejoin="round"/>
<path d="M9.26562 8.93672L16.775 9" stroke="white" stroke-width="1.2" stroke-linecap="round" stroke-linejoin="round"/>
<path d="M3.60547 5.55469L5.54609 9L3.60547 12.4453" stroke="white" stroke-width="1.2" stroke-linecap="round" stroke-linejoin="round"/>
<path d="M14.9609 5.625H11.0867L9.18823 2.25" stroke="white" stroke-width="1.2" stroke-linecap="round" stroke-linejoin="round"/>
<path d="M14.9609 12.375H11.0867L9.18823 15.75" stroke="white" stroke-width="1.2" stroke-linecap="round" stroke-linejoin="round"/>
</svg>
