<svg width="40" height="40" viewBox="0 0 40 40" fill="none" xmlns="http://www.w3.org/2000/svg">
<path d="M28.8214 18.3333L26.9107 16.4225C26.5852 16.0971 26.5852 15.5694 26.9107 15.244C27.2361 14.9186 27.7637 14.9186 28.0892 15.244L31.4225 18.5773C31.7479 18.9028 31.7479 19.4304 31.4225 19.7558L28.0892 23.0892C27.7637 23.4146 27.2361 23.4146 26.9107 23.0892C26.5852 22.7637 26.5852 22.2361 26.9107 21.9107L28.8214 19.9999H10.8333C10.373 19.9999 9.99992 19.6268 9.99992 19.1666C9.99992 18.7063 10.373 18.3333 10.8333 18.3333H28.8214ZM16.6855 29.1666C16.6855 28.7063 17.0586 28.3333 17.5188 28.3333C17.9791 28.3333 18.3522 28.7063 18.3522 29.1666C18.3522 31.4678 16.4867 33.3333 14.1855 33.3333H7.49992C5.19873 33.3333 3.33325 31.4678 3.33325 29.1666V12.4999C3.33325 10.1987 5.19873 8.33325 7.49992 8.33325H14.1855C16.4867 8.33325 18.3522 10.1987 18.3522 12.4999C18.3522 12.9602 17.9791 13.3333 17.5188 13.3333C17.0586 13.3333 16.6855 12.9602 16.6855 12.4999C16.6855 11.1192 15.5662 9.99992 14.1855 9.99992H7.49992C6.11921 9.99992 4.99992 11.1192 4.99992 12.4999V29.1666C4.99992 30.5473 6.11921 31.6666 7.49992 31.6666H14.1855C15.5662 31.6666 16.6855 30.5473 16.6855 29.1666ZM9.16658 29.9999C8.70635 29.9999 8.33325 29.6268 8.33325 29.1666C8.33325 28.7063 8.70635 28.3333 9.16658 28.3333H12.4999C12.9602 28.3333 13.3333 28.7063 13.3333 29.1666C13.3333 29.6268 12.9602 29.9999 12.4999 29.9999H9.16658ZM23.3333 12.4999C23.3333 12.9602 22.9602 13.3333 22.4999 13.3333C22.0397 13.3333 21.6666 12.9602 21.6666 12.4999C21.6666 10.1987 23.5321 8.33325 25.8333 8.33325H32.5188C34.82 8.33325 36.6855 10.1987 36.6855 12.4999V29.1666C36.6855 31.4678 34.82 33.3333 32.5188 33.3333H25.8333C23.5321 33.3333 21.6666 31.4678 21.6666 29.1666C21.6666 28.7063 22.0397 28.3333 22.4999 28.3333C22.9602 28.3333 23.3333 28.7063 23.3333 29.1666C23.3333 30.5473 24.4525 31.6666 25.8333 31.6666H32.5188C33.8996 31.6666 35.0188 30.5473 35.0188 29.1666V12.4999C35.0188 11.1192 33.8996 9.99992 32.5188 9.99992H25.8333C24.4525 9.99992 23.3333 11.1192 23.3333 12.4999ZM27.4999 29.9999C27.0397 29.9999 26.6666 29.6268 26.6666 29.1666C26.6666 28.7063 27.0397 28.3333 27.4999 28.3333H30.8333C31.2935 28.3333 31.6666 28.7063 31.6666 29.1666C31.6666 29.6268 31.2935 29.9999 30.8333 29.9999H27.4999Z" fill="url(#paint0_linear_180_830312)"/>
<defs>
<linearGradient id="paint0_linear_180_830312" x1="20.0094" y1="8.33325" x2="20.0094" y2="33.3333" gradientUnits="userSpaceOnUse">
<stop stop-color="#0033EA"/>
<stop offset="1" stop-color="#8A0074"/>
</linearGradient>
</defs>
</svg>
