<svg width="19" height="20" viewBox="0 0 19 20" fill="none" xmlns="http://www.w3.org/2000/svg">
<path d="M16 11.5H14V14.5H11V16.5H14V19.5H16V16.5H19V14.5H16V11.5ZM1 16.5H4V14.5H2V12.5H0V15.5C0 15.7652 0.105357 16.0196 0.292893 16.2071C0.48043 16.3946 0.734784 16.5 1 16.5ZM16 1.5C16 1.23478 15.8946 0.98043 15.7071 0.792893C15.5196 0.605357 15.2652 0.5 15 0.5H12V2.5H14V4.5H16V1.5ZM2 2.5H4V0.5H1C0.734784 0.5 0.48043 0.605357 0.292893 0.792893C0.105357 0.98043 0 1.23478 0 1.5V4.5H2V2.5ZM0 6.5H2V10.5H0V6.5ZM14 6.5H16V9.5H14V6.5ZM6 0.5H10V2.5H6V0.5ZM6 14.5H9V16.5H6V14.5Z" fill="black"/>
<path d="M11.125 11.625H4.875C4.70924 11.625 4.55027 11.5592 4.43306 11.4419C4.31585 11.3247 4.25 11.1658 4.25 11V6.625C4.25 6.45924 4.31585 6.30027 4.43306 6.18306C4.55027 6.06585 4.70924 6 4.875 6H6.125L6.75 5.0625H9.25L9.875 6H11.125C11.2908 6 11.4497 6.06585 11.5669 6.18306C11.6842 6.30027 11.75 6.45924 11.75 6.625V11C11.75 11.1658 11.6842 11.3247 11.5669 11.4419C11.4497 11.5592 11.2908 11.625 11.125 11.625Z" stroke="black" stroke-width="0.9" stroke-linecap="round" stroke-linejoin="round"/>
<path d="M8 10.0625C8.77665 10.0625 9.40625 9.4329 9.40625 8.65625C9.40625 7.8796 8.77665 7.25 8 7.25C7.22335 7.25 6.59375 7.8796 6.59375 8.65625C6.59375 9.4329 7.22335 10.0625 8 10.0625Z" stroke="black" stroke-width="0.9" stroke-linecap="round" stroke-linejoin="round"/>
</svg>
