<svg width="63" height="17" viewBox="0 0 63 17" fill="none" xmlns="http://www.w3.org/2000/svg">
<path d="M3.952 13.091C3.34533 13.091 2.79933 12.987 2.314 12.779C1.82867 12.5623 1.44733 12.259 1.17 11.869C0.892667 11.479 0.754 11.024 0.754 10.504H2.34C2.37467 10.894 2.52633 11.2147 2.795 11.466C3.07233 11.7173 3.458 11.843 3.952 11.843C4.46333 11.843 4.862 11.7217 5.148 11.479C5.434 11.2277 5.577 10.907 5.577 10.517C5.577 10.2137 5.486 9.96667 5.304 9.776C5.13067 9.58533 4.90967 9.438 4.641 9.334C4.381 9.23 4.017 9.11733 3.549 8.996C2.95967 8.84 2.47867 8.684 2.106 8.528C1.742 8.36333 1.43 8.112 1.17 7.774C0.91 7.436 0.78 6.98533 0.78 6.422C0.78 5.902 0.91 5.447 1.17 5.057C1.43 4.667 1.794 4.368 2.262 4.16C2.73 3.952 3.27167 3.848 3.887 3.848C4.76233 3.848 5.47733 4.069 6.032 4.511C6.59533 4.94433 6.90733 5.54233 6.968 6.305H5.33C5.304 5.97567 5.148 5.694 4.862 5.46C4.576 5.226 4.199 5.109 3.731 5.109C3.30633 5.109 2.95967 5.21733 2.691 5.434C2.42233 5.65067 2.288 5.96267 2.288 6.37C2.288 6.64733 2.37033 6.877 2.535 7.059C2.70833 7.23233 2.925 7.371 3.185 7.475C3.445 7.579 3.80033 7.69167 4.251 7.813C4.849 7.97767 5.33433 8.14233 5.707 8.307C6.08833 8.47167 6.409 8.72733 6.669 9.074C6.93767 9.412 7.072 9.867 7.072 10.439C7.072 10.8983 6.94633 11.3317 6.695 11.739C6.45233 12.1463 6.09267 12.4757 5.616 12.727C5.148 12.9697 4.59333 13.091 3.952 13.091ZM8.3267 9.412C8.3267 8.67533 8.47404 8.02967 8.7687 7.475C9.07204 6.91167 9.48804 6.47833 10.0167 6.175C10.5454 5.87167 11.152 5.72 11.8367 5.72C12.7034 5.72 13.4184 5.928 13.9817 6.344C14.5537 6.75133 14.9394 7.33633 15.1387 8.099H13.5397C13.4097 7.74367 13.2017 7.46633 12.9157 7.267C12.6297 7.06767 12.27 6.968 11.8367 6.968C11.23 6.968 10.7447 7.18467 10.3807 7.618C10.0254 8.04267 9.8477 8.64067 9.8477 9.412C9.8477 10.1833 10.0254 10.7857 10.3807 11.219C10.7447 11.6523 11.23 11.869 11.8367 11.869C12.6947 11.869 13.2624 11.492 13.5397 10.738H15.1387C14.9307 11.466 14.5407 12.0467 13.9687 12.48C13.3967 12.9047 12.686 13.117 11.8367 13.117C11.152 13.117 10.5454 12.9653 10.0167 12.662C9.48804 12.35 9.07204 11.9167 8.7687 11.362C8.47404 10.7987 8.3267 10.1487 8.3267 9.412ZM18.0976 6.877C18.3143 6.513 18.6003 6.23133 18.9556 6.032C19.3196 5.824 19.7486 5.72 20.2426 5.72V7.254H19.8656C19.285 7.254 18.843 7.40133 18.5396 7.696C18.245 7.99067 18.0976 8.502 18.0976 9.23V13H16.6156V5.837H18.0976V6.877ZM22.3589 4.888C22.0902 4.888 21.8649 4.797 21.6829 4.615C21.5009 4.433 21.4099 4.20767 21.4099 3.939C21.4099 3.67033 21.5009 3.445 21.6829 3.263C21.8649 3.081 22.0902 2.99 22.3589 2.99C22.6189 2.99 22.8399 3.081 23.0219 3.263C23.2039 3.445 23.2949 3.67033 23.2949 3.939C23.2949 4.20767 23.2039 4.433 23.0219 4.615C22.8399 4.797 22.6189 4.888 22.3589 4.888ZM23.0869 5.837V13H21.6049V5.837H23.0869ZM26.5146 6.89C26.766 6.56067 27.1083 6.28333 27.5416 6.058C27.975 5.83267 28.4646 5.72 29.0106 5.72C29.6346 5.72 30.2023 5.876 30.7136 6.188C31.2336 6.49133 31.641 6.92033 31.9356 7.475C32.2303 8.02967 32.3776 8.66667 32.3776 9.386C32.3776 10.1053 32.2303 10.751 31.9356 11.323C31.641 11.8863 31.2336 12.3283 30.7136 12.649C30.2023 12.961 29.6346 13.117 29.0106 13.117C28.4646 13.117 27.9793 13.0087 27.5546 12.792C27.13 12.5667 26.7833 12.2893 26.5146 11.96V16.406H25.0326V5.837H26.5146V6.89ZM30.8696 9.386C30.8696 8.892 30.7656 8.46733 30.5576 8.112C30.3583 7.748 30.0896 7.475 29.7516 7.293C29.4223 7.10233 29.067 7.007 28.6856 7.007C28.313 7.007 27.9576 7.10233 27.6196 7.293C27.2903 7.48367 27.0216 7.761 26.8136 8.125C26.6143 8.489 26.5146 8.918 26.5146 9.412C26.5146 9.906 26.6143 10.3393 26.8136 10.712C27.0216 11.076 27.2903 11.3533 27.6196 11.544C27.9576 11.7347 28.313 11.83 28.6856 11.83C29.067 11.83 29.4223 11.7347 29.7516 11.544C30.0896 11.3447 30.3583 11.0587 30.5576 10.686C30.7656 10.3133 30.8696 9.88 30.8696 9.386ZM35.5722 7.046V11.011C35.5722 11.2797 35.6328 11.4747 35.7542 11.596C35.8842 11.7087 36.1008 11.765 36.4042 11.765H37.3142V13H36.1442C35.4768 13 34.9655 12.844 34.6102 12.532C34.2548 12.22 34.0772 11.713 34.0772 11.011V7.046H33.2322V5.837H34.0772V4.056H35.5722V5.837H37.3142V7.046H35.5722ZM45.346 11.258L42.356 8.307L45.346 5.356H47.218L44.215 8.307L47.218 11.258H45.346ZM54.827 0.727999L51.291 15.275H49.835L53.358 0.727999H54.827ZM57.1757 5.356H59.0477L62.0377 8.307L59.0477 11.258H57.1757L60.1787 8.307L57.1757 5.356Z" fill="#333333"/>
</svg>
