<svg width="14" height="15" viewBox="0 0 14 15" fill="none" xmlns="http://www.w3.org/2000/svg">
<path d="M9.3868 10.9897C8.21794 11.8936 6.74696 12.32 5.27336 12.1821C3.79977 12.0442 2.43436 11.3524 1.45517 10.2476C0.475972 9.1428 -0.0433867 7.708 0.00284104 6.23538C0.0490687 4.76275 0.657407 3.36303 1.70399 2.32122C2.75057 1.27941 4.1567 0.673845 5.63607 0.627828C7.11544 0.581811 8.5568 1.0988 9.66669 2.07353C10.7766 3.04827 11.4715 4.40745 11.61 5.87433C11.7485 7.3412 11.3202 8.80548 10.4122 9.96901L13.7855 13.3144C14.0711 13.5976 14.0715 14.0576 13.7865 14.3414C13.5015 14.6251 13.0391 14.6249 12.7543 14.3409L9.39407 10.9897H9.3868ZM5.82341 10.7581C6.39641 10.7581 6.9638 10.6457 7.49318 10.4274C8.02257 10.2092 8.50358 9.88923 8.90875 9.4859C9.31392 9.08258 9.63532 8.60376 9.8546 8.07679C10.0739 7.54982 10.1867 6.98502 10.1867 6.41463C10.1867 5.84424 10.0739 5.27943 9.8546 4.75246C9.63532 4.22549 9.31392 3.74668 8.90875 3.34335C8.50358 2.94003 8.02257 2.62009 7.49318 2.40181C6.9638 2.18353 6.39641 2.07119 5.82341 2.07119C4.66618 2.07119 3.55635 2.5288 2.73807 3.34335C1.91979 4.1579 1.46008 5.26268 1.46008 6.41463C1.46008 7.56658 1.91979 8.67135 2.73807 9.4859C3.55635 10.3005 4.66618 10.7581 5.82341 10.7581Z" fill="#555555"/>
</svg>
