<svg width="27" height="27" viewBox="0 0 27 27" fill="none" xmlns="http://www.w3.org/2000/svg">
<rect width="27" height="27" rx="13.5" fill="#DDDFEE"/>
<g clip-path="url(#clip0_537_16486)">
<rect width="15" height="15" transform="translate(6 6)" fill="#DDDFEE"/>
<path d="M12.5467 7.24809C9.62504 7.24811 7.24157 9.63037 7.24172 12.5522C7.24171 15.4739 9.62519 17.855 12.5471 17.8548C13.786 17.8548 14.9253 17.4234 15.8295 16.7073L18.6919 19.5688C18.9363 19.8126 19.3319 19.8131 19.5757 19.5688C19.8192 19.3248 19.8192 18.929 19.5757 18.685L16.7121 15.8223C17.4224 14.92 17.8498 13.7854 17.8498 12.552C17.8498 9.63035 15.4687 7.24807 12.5469 7.2482L12.5467 7.24809ZM12.5467 8.4981C14.7929 8.49809 16.5995 10.3059 16.5996 12.5519C16.5996 14.7981 14.793 16.6047 12.5469 16.6047C10.3007 16.6047 8.49168 14.7981 8.49151 12.5521C8.49152 10.306 10.3005 8.49816 12.5465 8.498L12.5467 8.4981Z" fill="#333333"/>
</g>
<defs>
<clipPath id="clip0_537_16486">
<rect width="15" height="15" fill="white" transform="translate(6 6)"/>
</clipPath>
</defs>
</svg>
