<svg width="16" height="15" viewBox="0 0 16 15" fill="none" xmlns="http://www.w3.org/2000/svg">
<path d="M14.855 13.145L11.605 9.89505H11.57C12.5718 8.71392 13.078 7.19119 12.9828 5.6454C12.8876 4.09961 12.1984 2.65049 11.0593 1.60119C9.92024 0.551885 8.41955 -0.0163237 6.87115 0.0154222C5.32276 0.0471681 3.84661 0.67641 2.7515 1.77152C1.65639 2.86663 1.02715 4.34278 0.995403 5.89117C0.963657 7.43957 1.53187 8.94026 2.58117 10.0793C3.63047 11.2184 5.07959 11.9076 6.62538 12.0028C8.17117 12.098 9.6939 11.5918 10.875 10.59C10.875 10.59 10.875 10.615 10.875 10.625L14.125 13.875C14.1715 13.9219 14.2268 13.9591 14.2877 13.9845C14.3487 14.0099 14.414 14.0229 14.48 14.0229C14.546 14.0229 14.6114 14.0099 14.6723 13.9845C14.7332 13.9591 14.7885 13.9219 14.835 13.875C14.8863 13.8297 14.9277 13.7742 14.9566 13.7122C14.9856 13.6502 15.0015 13.5828 15.0034 13.5144C15.0053 13.4459 14.9931 13.3778 14.9675 13.3143C14.942 13.2508 14.9037 13.1932 14.855 13.145ZM7.00003 11C6.01112 11 5.04442 10.7068 4.22218 10.1574C3.39993 9.60799 2.75907 8.8271 2.38063 7.91346C2.00219 6.99983 1.90317 5.9945 2.0961 5.0246C2.28903 4.05469 2.76523 3.16378 3.46449 2.46451C4.16376 1.76525 5.05467 1.28905 6.02458 1.09612C6.99448 0.903195 7.99981 1.00221 8.91344 1.38065C9.82708 1.75909 10.608 2.39995 11.1574 3.2222C11.7068 4.04444 12 5.01114 12 6.00005C12 6.65666 11.8707 7.30684 11.6194 7.91346C11.3682 8.52009 10.9999 9.07129 10.5356 9.53558C10.0713 9.99987 9.52007 10.3682 8.91344 10.6194C8.30682 10.8707 7.65664 11 7.00003 11Z" fill="#333333"/>
</svg>
