<svg width="18" height="18" viewBox="0 0 18 18" fill="none" xmlns="http://www.w3.org/2000/svg">
<path d="M15.4329 8.50784L3.55716 1.85627C3.45713 1.80101 3.34263 1.77753 3.22892 1.78895C3.11521 1.80038 3.00768 1.84617 2.92064 1.92023C2.8336 1.99429 2.77118 2.0931 2.7417 2.20352C2.71221 2.31394 2.71706 2.43071 2.7556 2.5383L4.99154 8.81018C5.04079 8.93195 5.04079 9.0681 4.99154 9.18987L2.7556 15.4617C2.71706 15.5693 2.71221 15.6861 2.7417 15.7965C2.77118 15.9069 2.8336 16.0058 2.92064 16.0798C3.00768 16.1539 3.11521 16.1997 3.22892 16.2111C3.34263 16.2225 3.45713 16.199 3.55716 16.1438L15.4329 9.49221C15.5209 9.44357 15.5941 9.37226 15.6452 9.2857C15.6962 9.19915 15.7231 9.1005 15.7231 9.00002C15.7231 8.89954 15.6962 8.8009 15.6452 8.71434C15.5941 8.62779 15.5209 8.55648 15.4329 8.50784V8.50784Z" stroke="#333333" stroke-width="1.5" stroke-linecap="round" stroke-linejoin="round"/>
<path d="M5.0625 9H9.5625" stroke="#333333" stroke-width="1.5" stroke-linecap="round" stroke-linejoin="round"/>
</svg>
