<svg width="23" height="24" viewBox="0 0 23 24" fill="none" xmlns="http://www.w3.org/2000/svg">
<path d="M1.56564 21.75L17.3759 15L1.56564 8.25L1.55811 13.5L12.8565 15L1.55811 16.5L1.56564 21.75Z" fill="#5F3712"/>
<path d="M18.2602 3.90108V2.28492C18.2602 1.025 17.2307 0 15.9654 0C14.7001 0 13.6707 1.025 13.6707 2.28492V3.90108H12.1035V10.8116H19.8273V3.90108H18.2602ZM14.3423 2.28492C14.3423 1.39376 15.0704 0.668757 15.9654 0.668757C16.8604 0.668757 17.5885 1.39376 17.5885 2.28492V3.90108H14.3423V2.28492ZM19.1557 10.1428H12.7751V4.56984H19.1557V10.1428Z" fill="#5F3712"/>
<path d="M15.6294 7.53531V8.72945H16.301V7.53529C16.5655 7.40983 16.7488 7.14113 16.7488 6.83051C16.7488 6.4003 16.3973 6.05029 15.9652 6.05029C15.5332 6.05029 15.1816 6.4003 15.1816 6.83051C15.1816 7.14115 15.3649 7.40988 15.6294 7.53531Z" fill="#5F3712"/>
</svg>
