<svg width="21" height="22" viewBox="0 0 21 22" fill="none" xmlns="http://www.w3.org/2000/svg">
<path d="M14.7251 3.12336C14.1077 2.77143 13.4517 2.49674 12.7657 2.30789V1.60831C12.7657 0.745627 12.0626 0.041748 11.2008 0.041748H9.80738C8.9456 0.041748 8.24246 0.745627 8.24246 1.60831V2.30789C7.55647 2.49674 6.90048 2.76713 6.28309 3.12336L5.78574 2.62979C5.48991 2.33365 5.09546 2.17055 4.67958 2.17055C4.26369 2.17055 3.86925 2.33365 3.57341 2.62979L2.58729 3.61694C2.29146 3.91308 2.12854 4.30794 2.12854 4.72426C2.12854 5.14058 2.29146 5.53544 2.58729 5.83158L3.08035 6.32515C2.72878 6.94319 2.45438 7.59986 2.26573 8.28657H1.56688C0.705097 8.28657 0.00195312 8.99045 0.00195312 9.85313V11.248C0.00195312 12.1107 0.705097 12.8146 1.56688 12.8146H2.26573C2.45438 13.5013 2.72449 14.158 3.08035 14.776L2.58729 15.2739C1.97847 15.8833 1.97847 16.879 2.58729 17.4885L3.57341 18.4757C3.86925 18.7718 4.26369 18.9349 4.67958 18.9349C5.09546 18.9349 5.48991 18.7718 5.78574 18.4757L6.2788 17.9821C6.8962 18.334 7.55218 18.6087 8.23817 18.7975V19.4971C8.23817 20.3598 8.94132 21.0637 9.8031 21.0637H11.1965C12.0583 21.0637 12.7614 20.3598 12.7614 19.4971V18.7975C13.4474 18.6087 14.1034 18.3383 14.7208 17.9821L15.2139 18.4757C15.5097 18.7718 15.9042 18.9349 16.32 18.9349C16.7359 18.9349 17.1304 18.7718 17.4262 18.4757L18.4123 17.4885C19.0211 16.879 19.0211 15.8833 18.4123 15.2739L17.9193 14.7803C18.2708 14.1622 18.5452 13.5056 18.7339 12.8189H19.4327C20.2945 12.8189 20.9977 12.115 20.9977 11.2523V9.85742C20.9977 8.99474 20.2945 8.29086 19.4327 8.29086H18.7339C18.5452 7.60415 18.2751 6.94749 17.9193 6.32945L18.4123 5.83587C19.0211 5.22642 19.0211 4.23069 18.4123 3.62123L17.4262 2.63408C17.1304 2.33794 16.7359 2.17484 16.32 2.17484C15.9042 2.17484 15.5097 2.33794 15.2139 2.63408L14.7251 3.12336ZM16.26 3.66844C16.2986 3.62981 16.3543 3.62981 16.3929 3.66844L17.379 4.65559C17.4176 4.69422 17.4176 4.75001 17.379 4.78864L16.4744 5.69424C16.2257 5.94317 16.1871 6.33374 16.3844 6.62559C16.9031 7.39814 17.2547 8.25653 17.4348 9.16642C17.5034 9.50978 17.8035 9.75871 18.1551 9.75871H19.437C19.4885 9.75871 19.5314 9.80163 19.5314 9.85313V11.248C19.5314 11.2995 19.4885 11.3424 19.437 11.3424H18.1551C17.8035 11.3424 17.5034 11.5914 17.4348 11.9347C17.2547 12.8489 16.8989 13.703 16.3844 14.4756C16.1871 14.7674 16.2257 15.158 16.4744 15.4069L17.379 16.3125C17.4176 16.3511 17.4176 16.4069 17.379 16.4456L16.3929 17.4327C16.3586 17.4713 16.2986 17.467 16.26 17.4327L15.3554 16.5271C15.1067 16.2782 14.7165 16.2395 14.425 16.437C13.649 16.9563 12.7957 17.3082 11.8868 17.4885C11.5438 17.5572 11.2951 17.8576 11.2951 18.2095V19.4928C11.2951 19.5443 11.2523 19.5873 11.2008 19.5873H9.80738C9.75593 19.5873 9.71306 19.5443 9.71306 19.4928V18.2095C9.71306 17.8576 9.46439 17.5572 9.12139 17.4885C8.21245 17.3082 7.35495 16.952 6.58321 16.437C6.45887 16.3554 6.31739 16.3125 6.1759 16.3125C5.98725 16.3125 5.7986 16.3855 5.65712 16.5271L4.75246 17.4327C4.71388 17.4713 4.65814 17.4713 4.61955 17.4327L3.63344 16.4456C3.59485 16.4069 3.59485 16.3511 3.63344 16.3125L4.53809 15.4069C4.78676 15.158 4.82535 14.7674 4.62813 14.4756C4.10934 13.6987 3.75777 12.8446 3.5777 11.9347C3.5091 11.5914 3.20898 11.3424 2.8574 11.3424H1.56688C1.51543 11.3424 1.47255 11.2995 1.47255 11.248V9.85313C1.47255 9.80163 1.51543 9.75871 1.56688 9.75871H2.84883C3.2004 9.75871 3.50052 9.50978 3.56912 9.16642C3.7492 8.25653 4.10506 7.39814 4.61955 6.62559C4.81249 6.33374 4.77819 5.94317 4.52952 5.69424L3.62486 4.78864C3.60771 4.77147 3.59914 4.75001 3.59914 4.71997C3.59914 4.69422 3.60771 4.67276 3.62486 4.65559L4.61098 3.66844C4.64956 3.62981 4.7053 3.62981 4.74389 3.66844L5.64854 4.57404C5.89722 4.82297 6.28738 4.8616 6.57892 4.66417C7.35495 4.14485 8.20816 3.79291 9.1171 3.61265C9.4601 3.54397 9.70877 3.24354 9.70877 2.8916V1.60831C9.70877 1.5568 9.75165 1.51389 9.8031 1.51389H11.1965C11.248 1.51389 11.2908 1.5568 11.2908 1.60831V2.8916C11.2908 3.24354 11.5395 3.54397 11.8825 3.61265C12.7915 3.79291 13.649 4.14914 14.4207 4.66417C14.7122 4.85731 15.1024 4.82297 15.3511 4.57404L16.26 3.66844Z" fill="#686EA9"/>
<path d="M10.5027 6.27795C8.14892 6.27795 6.23242 8.19645 6.23242 10.5527C6.23242 12.909 8.14892 14.8275 10.5027 14.8275C12.8566 14.8275 14.7731 12.909 14.7731 10.5527C14.7731 8.19645 12.8566 6.27795 10.5027 6.27795ZM10.5027 13.3554C8.95925 13.3554 7.70302 12.0978 7.70302 10.5527C7.70302 9.00763 8.95925 7.75009 10.5027 7.75009C12.0462 7.75009 13.3025 9.00763 13.3025 10.5527C13.3025 12.0978 12.0462 13.3554 10.5027 13.3554Z" fill="#686EA9"/>
</svg>
