<svg width="21" height="21" viewBox="0 0 21 21" fill="none" xmlns="http://www.w3.org/2000/svg">
<path d="M14.7251 3.0784C14.1077 2.72683 13.4517 2.45243 12.7657 2.26378V1.56492C12.7657 0.703144 12.0626 0 11.2008 0H9.80738C8.9456 0 8.24246 0.703144 8.24246 1.56492V2.26378C7.55647 2.45243 6.90048 2.72254 6.28309 3.0784L5.78574 2.58534C5.48991 2.28951 5.09546 2.12658 4.67958 2.12658C4.26369 2.12658 3.86925 2.28951 3.57341 2.58534L2.58729 3.57146C2.29146 3.86729 2.12854 4.26174 2.12854 4.67762C2.12854 5.09351 2.29146 5.48795 2.58729 5.78379L3.08035 6.27685C2.72878 6.89424 2.45438 7.55023 2.26573 8.23622H1.56688C0.705097 8.23622 0.00195312 8.93936 0.00195312 9.80114V11.1946C0.00195312 12.0564 0.705097 12.7595 1.56688 12.7595H2.26573C2.45438 13.4455 2.72449 14.1015 3.08035 14.7189L2.58729 15.2162C1.97847 15.825 1.97847 16.8197 2.58729 17.4285L3.57341 18.4147C3.86925 18.7105 4.26369 18.8734 4.67958 18.8734C5.09546 18.8734 5.48991 18.7105 5.78574 18.4147L6.2788 17.9216C6.8962 18.2732 7.55218 18.5476 8.23817 18.7362V19.4351C8.23817 20.2969 8.94132 21 9.8031 21H11.1965C12.0583 21 12.7614 20.2969 12.7614 19.4351V18.7362C13.4474 18.5476 14.1034 18.2775 14.7208 17.9216L15.2139 18.4147C15.5097 18.7105 15.9042 18.8734 16.32 18.8734C16.7359 18.8734 17.1304 18.7105 17.4262 18.4147L18.4123 17.4285C19.0211 16.8197 19.0211 15.825 18.4123 15.2162L17.9193 14.7232C18.2708 14.1058 18.5452 13.4498 18.7339 12.7638H19.4327C20.2945 12.7638 20.9977 12.0606 20.9977 11.1989V9.80543C20.9977 8.94365 20.2945 8.24051 19.4327 8.24051H18.7339C18.5452 7.55451 18.2751 6.89853 17.9193 6.28114L18.4123 5.78808C19.0211 5.17926 19.0211 4.18457 18.4123 3.57575L17.4262 2.58963C17.1304 2.29379 16.7359 2.13087 16.32 2.13087C15.9042 2.13087 15.5097 2.29379 15.2139 2.58963L14.7251 3.0784ZM16.26 3.62291C16.2986 3.58432 16.3543 3.58432 16.3929 3.62291L17.379 4.60902C17.4176 4.64761 17.4176 4.70335 17.379 4.74194L16.4744 5.64659C16.2257 5.89526 16.1871 6.28542 16.3844 6.57697C16.9031 7.34871 17.2547 8.20621 17.4348 9.11515C17.5034 9.45815 17.8035 9.70682 18.1551 9.70682H19.437C19.4885 9.70682 19.5314 9.74969 19.5314 9.80114V11.1946C19.5314 11.246 19.4885 11.2889 19.437 11.2889H18.1551C17.8035 11.2889 17.5034 11.5376 17.4348 11.8806C17.2547 12.7938 16.8989 13.647 16.3844 14.4187C16.1871 14.7103 16.2257 15.1005 16.4744 15.3491L17.379 16.2538C17.4176 16.2924 17.4176 16.3481 17.379 16.3867L16.3929 17.3728C16.3586 17.4114 16.2986 17.4071 16.26 17.3728L15.3554 16.4682C15.1067 16.2195 14.7165 16.1809 14.425 16.3781C13.649 16.8969 12.7957 17.2485 11.8868 17.4285C11.5438 17.4971 11.2951 17.7973 11.2951 18.1488V19.4308C11.2951 19.4822 11.2523 19.5251 11.2008 19.5251H9.80738C9.75593 19.5251 9.71306 19.4822 9.71306 19.4308V18.1488C9.71306 17.7973 9.46439 17.4971 9.12139 17.4285C8.21245 17.2485 7.35495 16.8926 6.58321 16.3781C6.45887 16.2967 6.31739 16.2538 6.1759 16.2538C5.98725 16.2538 5.7986 16.3267 5.65712 16.4682L4.75246 17.3728C4.71388 17.4114 4.65814 17.4114 4.61955 17.3728L3.63344 16.3867C3.59485 16.3481 3.59485 16.2924 3.63344 16.2538L4.53809 15.3491C4.78676 15.1005 4.82535 14.7103 4.62813 14.4187C4.10934 13.6427 3.75777 12.7895 3.5777 11.8806C3.5091 11.5376 3.20898 11.2889 2.8574 11.2889H1.56688C1.51543 11.2889 1.47255 11.246 1.47255 11.1946V9.80114C1.47255 9.74969 1.51543 9.70682 1.56688 9.70682H2.84883C3.2004 9.70682 3.50052 9.45815 3.56912 9.11515C3.7492 8.20621 4.10506 7.34871 4.61955 6.57697C4.81249 6.28542 4.77819 5.89526 4.52952 5.64659L3.62486 4.74194C3.60771 4.72479 3.59914 4.70335 3.59914 4.67334C3.59914 4.64761 3.60771 4.62617 3.62486 4.60902L4.61098 3.62291C4.64956 3.58432 4.7053 3.58432 4.74389 3.62291L5.64854 4.52756C5.89722 4.77624 6.28738 4.81482 6.57892 4.6176C7.35495 4.09882 8.20816 3.74724 9.1171 3.56717C9.4601 3.49857 9.70877 3.19845 9.70877 2.84688V1.56492C9.70877 1.51347 9.75165 1.4706 9.8031 1.4706H11.1965C11.248 1.4706 11.2908 1.51347 11.2908 1.56492V2.84688C11.2908 3.19845 11.5395 3.49857 11.8825 3.56717C12.7915 3.74724 13.649 4.1031 14.4207 4.6176C14.7122 4.81054 15.1024 4.77624 15.3511 4.52756L16.26 3.62291Z" fill="white" fill-opacity="0.68"/>
<path d="M10.5018 6.22974C8.14794 6.22974 6.23145 8.14623 6.23145 10.5001C6.23145 12.8539 8.14794 14.7704 10.5018 14.7704C12.8556 14.7704 14.7721 12.8539 14.7721 10.5001C14.7721 8.14623 12.8556 6.22974 10.5018 6.22974ZM10.5018 13.2998C8.95827 13.2998 7.70205 12.0435 7.70205 10.5001C7.70205 8.95656 8.95827 7.70034 10.5018 7.70034C12.0452 7.70034 13.3015 8.95656 13.3015 10.5001C13.3015 12.0435 12.0452 13.2998 10.5018 13.2998Z" fill="white" fill-opacity="0.68"/>
</svg>
