<svg width="17" height="17" viewBox="0 0 17 17" fill="none" xmlns="http://www.w3.org/2000/svg">
<path d="M9.48044 16.5781H7.12224C6.9775 16.5782 6.83788 16.5246 6.73027 16.4278C6.62265 16.331 6.55467 16.1978 6.53943 16.0539L6.36482 14.4098C6.12107 14.3268 5.88294 14.2282 5.65193 14.1145L4.36716 15.1535C4.25472 15.2441 4.11279 15.2899 3.96862 15.2823C3.82444 15.2747 3.68816 15.2141 3.58591 15.1121L1.91834 13.4445C1.81639 13.3423 1.75579 13.206 1.74815 13.0618C1.7405 12.9177 1.78636 12.7757 1.87693 12.6633L2.91638 11.377C2.80247 11.146 2.7037 10.9079 2.62068 10.6641L0.973804 10.4883C0.829938 10.473 0.696796 10.4051 0.600013 10.2976C0.50323 10.1901 0.449648 10.0505 0.449585 9.90586V7.54727C0.449648 7.4026 0.50323 7.26306 0.600013 7.15554C0.696796 7.04801 0.829938 6.98008 0.973804 6.96485L2.61794 6.79024C2.70096 6.54645 2.79974 6.30832 2.91365 6.07735L1.87419 4.79102C1.78363 4.67857 1.73777 4.53665 1.74541 4.39247C1.75305 4.24829 1.81366 4.11201 1.9156 4.00977L3.58318 2.34219C3.68542 2.24025 3.8217 2.17964 3.96588 2.172C4.11006 2.16436 4.25198 2.21022 4.36443 2.30078L5.65076 3.33985C5.88177 3.22613 6.1199 3.12749 6.36365 3.04453L6.53826 1.40039C6.55325 1.25605 6.62128 1.1224 6.72917 1.02534C6.83705 0.92828 6.97712 0.874708 7.12224 0.875001H9.48044C9.62518 0.874968 9.76481 0.928506 9.87242 1.0253C9.98003 1.12209 10.048 1.25529 10.0633 1.39922L10.2375 3.04336C10.4814 3.12631 10.7196 3.22496 10.9508 3.33867L12.2367 2.29961C12.3491 2.20905 12.4911 2.16319 12.6352 2.17083C12.7794 2.17847 12.9157 2.23907 13.0179 2.34102L14.6855 4.0086C14.7875 4.11084 14.8481 4.24712 14.8557 4.3913C14.8634 4.53548 14.8175 4.6774 14.7269 4.78985L13.6875 6.07617C13.8012 6.30722 13.9 6.54534 13.9832 6.78906L15.6273 6.96367C15.7711 6.979 15.9042 7.04696 16.0009 7.15448C16.0976 7.262 16.1511 7.40149 16.1511 7.5461V9.90469C16.1514 10.0493 16.0982 10.1888 16.0018 10.2966C15.9054 10.4043 15.7726 10.4726 15.6289 10.4883L13.9847 10.6629C13.9016 10.9066 13.8028 11.1447 13.689 11.3758L14.7285 12.6621C14.8191 12.7746 14.8649 12.9165 14.8573 13.0607C14.8496 13.2048 14.789 13.3411 14.6871 13.4434L13.0195 15.1121C12.9173 15.2141 12.781 15.2747 12.6368 15.2823C12.4926 15.2899 12.3507 15.2441 12.2383 15.1535L10.9523 14.1145C10.7212 14.2282 10.4829 14.3268 10.239 14.4098L10.0648 16.0539C10.0495 16.1981 9.98135 16.3315 9.8734 16.4284C9.76546 16.5252 9.62545 16.5785 9.48044 16.5781ZM7.64841 15.4063H8.95271L9.11248 13.9C9.12501 13.7821 9.17302 13.6708 9.25016 13.5807C9.32729 13.4907 9.42993 13.4262 9.54451 13.3957C9.95723 13.2856 10.3534 13.121 10.7226 12.9063C10.8254 12.8464 10.944 12.8192 11.0626 12.8283C11.1813 12.8375 11.2943 12.8825 11.3867 12.9574L12.5648 13.9094L13.4871 12.9871L12.5336 11.8125C12.4586 11.7201 12.4136 11.6071 12.4045 11.4884C12.3953 11.3698 12.4225 11.2512 12.4824 11.1484C12.6967 10.7795 12.8608 10.3835 12.9703 9.9711C13.0008 9.85646 13.0654 9.75378 13.1555 9.67664C13.2456 9.5995 13.357 9.55152 13.475 9.53906L14.9808 9.37891V8.07461L13.475 7.91446C13.357 7.90199 13.2456 7.85402 13.1555 7.77688C13.0654 7.69974 13.0008 7.59706 12.9703 7.48242C12.8609 7.06986 12.6968 6.67378 12.4824 6.30469C12.4225 6.20189 12.3953 6.0833 12.4045 5.96468C12.4136 5.84606 12.4586 5.73303 12.5336 5.64063L13.4855 4.4625L12.5633 3.54024L11.3851 4.49219C11.2927 4.56713 11.1797 4.61216 11.0611 4.6213C10.9425 4.63044 10.8239 4.60326 10.7211 4.54336C10.352 4.32917 9.9561 4.1651 9.54373 4.05547C9.42915 4.02499 9.32651 3.96047 9.24937 3.87043C9.17224 3.78039 9.12423 3.66907 9.1117 3.55117L8.95349 2.04688H7.64841L7.48865 3.55313C7.47609 3.67107 7.42802 3.78243 7.35081 3.87248C7.2736 3.96252 7.17088 4.02701 7.05623 4.05742C6.64415 4.16755 6.2486 4.33215 5.88005 4.54688C5.77726 4.60677 5.65867 4.63396 5.54005 4.62482C5.42142 4.61568 5.3084 4.57064 5.21599 4.4957L4.03904 3.54219L3.11716 4.46445L4.06951 5.64258C4.14439 5.73503 4.18935 5.84807 4.19842 5.96669C4.20749 6.08531 4.18024 6.20389 4.12029 6.30664C3.90627 6.67577 3.74221 7.07168 3.6324 7.48399C3.60192 7.59856 3.5374 7.7012 3.44736 7.77834C3.35732 7.85548 3.246 7.90348 3.1281 7.91602L1.62185 8.07617V9.38008L3.1281 9.54024C3.246 9.55277 3.35732 9.60078 3.44736 9.67792C3.5374 9.75505 3.60192 9.85769 3.6324 9.97227C3.74218 10.3842 3.90611 10.7797 4.1199 11.1484C4.17985 11.2512 4.2071 11.3698 4.19803 11.4884C4.18896 11.607 4.14399 11.7201 4.06912 11.8125L3.11716 12.9887L4.03943 13.9109L5.21794 12.959C5.31035 12.884 5.42338 12.839 5.542 12.8299C5.66062 12.8207 5.77921 12.8479 5.88201 12.9078C6.25088 13.1221 6.64669 13.2861 7.05896 13.3957C7.17361 13.4261 7.27633 13.4906 7.35354 13.5807C7.43076 13.6707 7.47882 13.7821 7.49138 13.9L7.64841 15.4063Z" fill="#555555"/>
<path d="M8.30115 12.2953C7.59533 12.2953 6.90539 12.0859 6.31856 11.6937C5.73174 11.3015 5.27438 10.7441 5.00433 10.092C4.73428 9.43991 4.66366 8.72236 4.80141 8.03012C4.93915 7.33788 5.27908 6.70202 5.77819 6.20296C6.2773 5.7039 6.9132 5.36405 7.60545 5.22638C8.29771 5.08871 9.01525 5.15941 9.66733 5.42953C10.3194 5.69965 10.8768 6.15707 11.2689 6.74394C11.661 7.33081 11.8703 8.02077 11.8703 8.72659C11.8693 9.67283 11.4929 10.58 10.8237 11.2491C10.1546 11.9181 9.24739 12.2944 8.30115 12.2953ZM8.30115 6.32971C7.82711 6.32979 7.36374 6.47043 6.96962 6.73385C6.57551 6.99727 6.26836 7.37164 6.087 7.80961C5.90565 8.24759 5.85824 8.72951 5.95077 9.19443C6.0433 9.65936 6.27161 10.0864 6.60683 10.4216C6.94206 10.7567 7.36914 10.985 7.83408 11.0774C8.29901 11.1699 8.78093 11.1224 9.21887 10.941C9.65682 10.7595 10.0311 10.4523 10.2945 10.0582C10.5578 9.66402 10.6984 9.20063 10.6984 8.72659C10.6977 8.09105 10.4449 7.48176 9.99545 7.0324C9.54602 6.58305 8.93668 6.33033 8.30115 6.32971Z" fill="#555555"/>
</svg>
