<svg width="18" height="18" viewBox="0 0 18 18" fill="none" xmlns="http://www.w3.org/2000/svg">
<path d="M15.75 3.9375V14.0625C15.75 14.2117 15.6907 14.3548 15.5852 14.4602C15.4798 14.5657 15.3367 14.625 15.1875 14.625H2.8125C2.66332 14.625 2.52024 14.5657 2.41475 14.4602C2.30926 14.3548 2.25 14.2117 2.25 14.0625L2.25 7.3125L6.1875 3.375H15.1875C15.3367 3.375 15.4798 3.43426 15.5852 3.53975C15.6907 3.64524 15.75 3.78832 15.75 3.9375Z" stroke="#6174A4" strokeLinecap="round" strokeLinejoin="round"/>
<path d="M2.25 7.3125H6.1875V3.375" stroke="#6174A4" strokeLinecap="round" strokeLinejoin="round"/>
<path d="M10.4062 10.9688L8.4375 9L10.4062 7.03125" stroke="#6174A4" strokeLinecap="round" strokeLinejoin="round"/>
<path d="M12.9375 9H8.4375" stroke="#6174A4" strokeLinecap="round" strokeLinejoin="round"/>
</svg>
