<svg width="37" height="37" viewBox="0 0 37 37" fill="none" xmlns="http://www.w3.org/2000/svg">
<rect x="21" width="16" height="16" rx="8" fill="#F6DDEF"/>
<path d="M5.78125 16.5777V8.09375C5.78125 7.78709 5.90307 7.493 6.11991 7.27616C6.33675 7.05932 6.63084 6.9375 6.9375 6.9375H30.0625C30.3692 6.9375 30.6633 7.05932 30.8801 7.27616C31.0969 7.493 31.2188 7.78709 31.2188 8.09375V16.5777C31.2188 28.7184 20.9137 32.7363 18.8613 33.4156C18.6282 33.502 18.3718 33.502 18.1387 33.4156C16.0863 32.7363 5.78125 28.7184 5.78125 16.5777Z" stroke="url(#paint0_linear_698_22915)" stroke-width="1.5" stroke-linecap="round" stroke-linejoin="round"/>
<path fill-rule="evenodd" clip-rule="evenodd" d="M18.5 13.125C18.9142 13.125 19.25 13.4608 19.25 13.875V18.6228L23.7595 17.1513C24.1533 17.0228 24.5767 17.2378 24.7052 17.6316C24.8337 18.0254 24.6186 18.4488 24.2249 18.5773L19.712 20.0499L22.5036 23.8987C22.7468 24.234 22.6722 24.703 22.3369 24.9462C22.0015 25.1894 21.5326 25.1147 21.2894 24.7794L18.4691 20.8911L15.6702 24.7501C15.4432 25.063 15.0055 25.1327 14.6925 24.9057C14.3796 24.6787 14.3099 24.241 14.5369 23.9281L17.3379 20.0662L12.7752 18.5773C12.3814 18.4488 12.1663 18.0254 12.2948 17.6316C12.4233 17.2378 12.8467 17.0228 13.2405 17.1513L17.75 18.6228V13.875C17.75 13.4608 18.0858 13.125 18.5 13.125Z" fill="url(#paint1_linear_698_22915)"/>
<defs>
<linearGradient id="paint0_linear_698_22915" x1="18.5" y1="6.9375" x2="18.5" y2="33.4804" gradientUnits="userSpaceOnUse">
<stop stop-color="#000AFF"/>
<stop offset="1" stop-color="#D274FF"/>
</linearGradient>
<linearGradient id="paint1_linear_698_22915" x1="18.5" y1="13.125" x2="18.5" y2="25.0891" gradientUnits="userSpaceOnUse">
<stop stop-color="#000AFF"/>
<stop offset="1" stop-color="#D274FF"/>
</linearGradient>
</defs>
</svg>
