<svg width="21" height="21" viewBox="0 0 21 21" fill="none" xmlns="http://www.w3.org/2000/svg">
<path d="M3.67461 3.1499C2.80476 3.1499 2.09961 3.85505 2.09961 4.7249V8.9249C2.09961 9.79475 2.80476 10.4999 3.67461 10.4999H13.1246C13.9944 10.4999 14.6996 9.79475 14.6996 8.9249V4.7249C14.6996 3.85505 13.9944 3.1499 13.1246 3.1499H3.67461ZM3.14961 4.7249C3.14961 4.43496 3.38466 4.1999 3.67461 4.1999H13.1246C13.4145 4.1999 13.6496 4.43496 13.6496 4.7249V8.9249C13.6496 9.21485 13.4145 9.4499 13.1246 9.4499H3.67461C3.38466 9.4499 3.14961 9.21485 3.14961 8.9249V4.7249ZM3.67461 11.5499C2.80476 11.5499 2.09961 12.2551 2.09961 13.1249V17.3249C2.09961 18.1947 2.80476 18.8999 3.67461 18.8999H13.1246C13.9944 18.8999 14.6996 18.1947 14.6996 17.3249V13.1249C14.6996 12.2551 13.9944 11.5499 13.1246 11.5499H3.67461ZM3.14961 13.1249C3.14961 12.835 3.38466 12.5999 3.67461 12.5999H13.1246C13.4145 12.5999 13.6496 12.835 13.6496 13.1249V17.3249C13.6496 17.6148 13.4145 17.8499 13.1246 17.8499H3.67461C3.38466 17.8499 3.14961 17.6148 3.14961 17.3249V13.1249ZM17.8494 13.0588C17.6817 13.1019 17.5058 13.1249 17.3246 13.1249C17.1434 13.1249 16.9674 13.1019 16.7996 13.0588C15.8939 12.8257 15.2246 12.0034 15.2246 11.0249C15.2246 10.0464 15.8939 9.22418 16.7996 8.99106C16.7997 8.99104 16.7995 8.99107 16.7996 8.99106C16.9674 8.9479 17.1434 8.9249 17.3246 8.9249C17.5058 8.9249 17.6818 8.94788 17.8496 8.99106C18.7553 9.22418 19.4246 10.0464 19.4246 11.0249C19.4246 12.0034 18.7551 12.8257 17.8494 13.0588C17.8495 13.0588 17.8494 13.0588 17.8494 13.0588ZM17.3246 3.1499C17.6145 3.1499 17.8496 3.38496 17.8496 3.6749V7.91846C17.6789 7.88981 17.5035 7.8749 17.3246 7.8749C17.1457 7.8749 16.9703 7.88981 16.7996 7.91846V3.6749C16.7996 3.38496 17.0347 3.1499 17.3246 3.1499ZM17.3246 14.1749C17.1457 14.1749 16.9703 14.16 16.7996 14.1313V18.3749C16.7996 18.6648 17.0347 18.8999 17.3246 18.8999C17.6145 18.8999 17.8496 18.6648 17.8496 18.3749V14.1313C17.6789 14.16 17.5035 14.1749 17.3246 14.1749Z" fill="#FF7E36"/>
</svg>
