<svg width="22" height="22" viewBox="0 0 22 22" fill="none" xmlns="http://www.w3.org/2000/svg">
<path d="M15.5189 14.7857C15.3813 14.7859 15.2478 14.738 15.1418 14.6501L12.4782 12.4285H11.394C10.1437 12.4285 8.94456 11.9319 8.06047 11.0478C7.17637 10.1637 6.67969 8.96457 6.67969 7.71427C6.67969 6.46397 7.17637 5.26488 8.06047 4.38078C8.94456 3.49668 10.1437 3 11.394 3H14.9297C16.0747 3.00327 17.1795 3.42319 18.0376 4.18135C18.8957 4.93951 19.4485 5.98408 19.5929 7.12001C19.7372 8.25594 19.4632 9.40558 18.8219 10.3543C18.1807 11.3029 17.2161 11.9858 16.1082 12.2753V14.1964C16.1085 14.3091 16.0765 14.4195 16.0159 14.5146C15.9553 14.6096 15.8687 14.6853 15.7664 14.7326C15.6888 14.768 15.6043 14.7861 15.5189 14.7857V14.7857ZM11.394 4.17857C10.4562 4.17857 9.55691 4.55108 8.89384 5.21415C8.23077 5.87722 7.85826 6.77654 7.85826 7.71427C7.85826 8.652 8.23077 9.55132 8.89384 10.2144C9.55691 10.8775 10.4562 11.25 11.394 11.25H12.6904C12.8281 11.2497 12.9615 11.2977 13.0675 11.3855L14.9297 12.9353V11.7921C14.9283 11.6491 14.9789 11.5105 15.0721 11.4021C15.1654 11.2937 15.2949 11.2228 15.4364 11.2028C16.3073 11.0601 17.0933 10.5969 17.64 9.90421C18.1867 9.21152 18.4547 8.33941 18.3912 7.45924C18.3277 6.57907 17.9373 5.75446 17.2968 5.14742C16.6563 4.54038 15.812 4.1948 14.9297 4.17857H11.394Z" fill="#FF7E36"/>
<path d="M13.7508 7.125H12.5723V8.30357H13.7508V7.125Z" fill="#FF7E36"/>
<path d="M10.8036 7.125H9.625V8.30357H10.8036V7.125Z" fill="#FF7E36"/>
<path d="M16.6961 7.125H15.5176V8.30357H16.6961V7.125Z" fill="#FF7E36"/>
<path d="M6.08992 19.5006C6.00456 19.501 5.92011 19.4829 5.84242 19.4475C5.74014 19.4002 5.65357 19.3245 5.59299 19.2295C5.53241 19.1344 5.50036 19.024 5.50064 18.9113V16.9902C4.56301 16.7404 3.72531 16.2074 3.10186 15.4638C2.4784 14.7203 2.09958 13.8025 2.01707 12.8357C1.93457 11.8689 2.15242 10.9001 2.64088 10.0617C3.12933 9.22329 3.86461 8.55602 4.74636 8.15097C4.81753 8.11346 4.89562 8.09093 4.97583 8.08475C5.05603 8.07857 5.13666 8.08888 5.21273 8.11504C5.2888 8.14121 5.35871 8.18267 5.41815 8.23687C5.47759 8.29108 5.52531 8.35688 5.55835 8.43023C5.5914 8.50357 5.60908 8.5829 5.6103 8.66334C5.61152 8.74378 5.59626 8.82361 5.56546 8.89793C5.53466 8.97224 5.48896 9.03946 5.4312 9.09545C5.37343 9.15143 5.30481 9.195 5.22957 9.22346C4.53417 9.53876 3.95952 10.0707 3.59157 10.7397C3.22361 11.4088 3.08211 12.1789 3.18823 12.935C3.29436 13.6912 3.6424 14.3926 4.18031 14.9345C4.71822 15.4764 5.4171 15.8296 6.17242 15.9413C6.31401 15.9613 6.4435 16.0321 6.53674 16.1405C6.62998 16.249 6.68061 16.3876 6.67921 16.5306V17.6738L8.54134 16.124C8.64401 16.0276 8.7778 15.9711 8.91849 15.9649H10.2149C10.6868 15.9657 11.1541 15.8712 11.5885 15.6869C12.0229 15.5026 12.4156 15.2323 12.7429 14.8924C12.8523 14.7798 13.002 14.7154 13.1589 14.7132C13.2366 14.7121 13.3137 14.7263 13.386 14.755C13.4582 14.7838 13.524 14.8264 13.5797 14.8806C13.6354 14.9348 13.6799 14.9994 13.7107 15.0707C13.7414 15.1421 13.7578 15.2188 13.7589 15.2965C13.76 15.3742 13.7458 15.4514 13.7171 15.5236C13.6883 15.5958 13.6457 15.6617 13.5915 15.7174C13.1524 16.1685 12.6274 16.5271 12.0475 16.772C11.4676 17.0169 10.8444 17.1432 10.2149 17.1434H9.13063L6.46707 19.365C6.36105 19.4529 6.22761 19.5008 6.08992 19.5006V19.5006Z" fill="#FF7E36"/>
</svg>
