<svg width="39" height="39" viewBox="0 0 39 39" fill="none" xmlns="http://www.w3.org/2000/svg">
<path d="M0.00195312 9.55566C0.00195312 4.5851 4.03139 0.555664 9.00195 0.555664H29.002C33.9725 0.555664 38.002 4.5851 38.002 9.55566V38.5557H9.00195C4.03139 38.5557 0.00195312 34.5262 0.00195312 29.5557V9.55566Z" fill="url(#paint0_linear_3007_1783)"/>
<path d="M19.1092 26.988C17.42 26.988 15.8001 26.3012 14.6057 25.0786C13.4112 23.856 12.7402 22.1978 12.7402 20.4688C12.7402 20.2959 12.8073 20.1301 12.9268 20.0078C13.0462 19.8856 13.2082 19.8169 13.3771 19.8169C13.546 19.8169 13.708 19.8856 13.8275 20.0078C13.9469 20.1301 14.014 20.2959 14.014 20.4688C14.014 21.852 14.5508 23.1786 15.5064 24.1566C16.4619 25.1347 17.7579 25.6842 19.1092 25.6842C20.4605 25.6842 21.7565 25.1347 22.712 24.1566C23.6675 23.1786 24.2043 21.852 24.2043 20.4688C24.2043 20.2959 24.2714 20.1301 24.3909 20.0078C24.5103 19.8856 24.6723 19.8169 24.8412 19.8169C25.0102 19.8169 25.1721 19.8856 25.2916 20.0078C25.411 20.1301 25.4781 20.2959 25.4781 20.4688C25.4781 22.1978 24.8071 23.856 23.6127 25.0786C22.4183 26.3012 20.7983 26.988 19.1092 26.988Z" fill="white"/>
<path d="M19.1096 29.5946C18.9406 29.5946 18.7786 29.526 18.6592 29.4037C18.5398 29.2814 18.4727 29.1156 18.4727 28.9427V26.335C18.4727 26.1621 18.5398 25.9963 18.6592 25.874C18.7786 25.7518 18.9406 25.6831 19.1096 25.6831C19.2785 25.6831 19.4405 25.7518 19.5599 25.874C19.6793 25.9963 19.7464 26.1621 19.7464 26.335V28.9427C19.7464 29.1156 19.6793 29.2814 19.5599 29.4037C19.4405 29.526 19.2785 29.5946 19.1096 29.5946Z" fill="white"/>
<path d="M19.1095 24.3804C18.096 24.3804 17.124 23.9683 16.4073 23.2347C15.6907 22.5012 15.2881 21.5062 15.2881 20.4688V13.9496C15.2881 12.9122 15.6907 11.9173 16.4073 11.1837C17.124 10.4502 18.096 10.0381 19.1095 10.0381C20.1229 10.0381 21.0949 10.4502 21.8116 11.1837C22.5282 11.9173 22.9308 12.9122 22.9308 13.9496V20.4688C22.9308 21.5062 22.5282 22.5012 21.8116 23.2347C21.0949 23.9683 20.1229 24.3804 19.1095 24.3804ZM19.1095 11.3419C18.4338 11.3419 17.7858 11.6167 17.308 12.1057C16.8303 12.5947 16.5619 13.258 16.5619 13.9496V20.4688C16.5619 21.1604 16.8303 21.8237 17.308 22.3128C17.7858 22.8018 18.4338 23.0765 19.1095 23.0765C19.7851 23.0765 20.4331 22.8018 20.9109 22.3128C21.3886 21.8237 21.657 21.1604 21.657 20.4688V13.9496C21.657 13.258 21.3886 12.5947 20.9109 12.1057C20.4331 11.6167 19.7851 11.3419 19.1095 11.3419Z" fill="white"/>
<defs>
<linearGradient id="paint0_linear_3007_1783" x1="38.4501" y1="42.8195" x2="3.46565" y2="7.48293" gradientUnits="userSpaceOnUse">
<stop stop-color="#63C7FF"/>
<stop offset="1" stop-color="#0094FF"/>
</linearGradient>
</defs>
</svg>
