<svg width="39" height="38" viewBox="0 0 39 38" fill="none" xmlns="http://www.w3.org/2000/svg">
<path d="M1.47656 9C1.47656 4.30558 5.28214 0.5 9.97656 0.5H29.9766C34.671 0.5 38.4766 4.30558 38.4766 9V37.4957H9.97656C5.28214 37.4957 1.47656 33.6902 1.47656 28.9957V9Z" fill="url(#paint0_linear_71_8512)" stroke="url(#paint1_linear_71_8512)"/>
<path d="M19.5625 28.625H28.7828C28.8938 28.6265 29.004 28.6057 29.1068 28.5639C29.2097 28.5221 29.3031 28.4601 29.3816 28.3816C29.4601 28.3031 29.5221 28.2097 29.5639 28.1068C29.6057 28.004 29.6265 27.8938 29.625 27.7828V18.5625C29.625 15.8938 28.5648 13.3343 26.6778 11.4472C24.7907 9.56015 22.2312 8.5 19.5625 8.5V8.5C18.2411 8.5 16.9326 8.76027 15.7117 9.26596C14.4909 9.77165 13.3816 10.5128 12.4472 11.4472C11.5128 12.3816 10.7716 13.4909 10.266 14.7117C9.76026 15.9326 9.49999 17.2411 9.49999 18.5625V18.5625C9.49999 19.8839 9.76026 21.1924 10.266 22.4133C10.7716 23.6341 11.5128 24.7434 12.4472 25.6778C13.3816 26.6121 14.4909 27.3533 15.7117 27.859C16.9326 28.3647 18.2411 28.625 19.5625 28.625V28.625Z" stroke="white" strokeWidth="1.5" strokeLinecap="round" strokeLinejoin="round"/>
<path d="M19.5625 20.0938C18.9584 20.0938 18.4688 19.6041 18.4688 19C18.4688 18.3959 18.9584 17.9062 19.5625 17.9062C20.1666 17.9062 20.6562 18.3959 20.6562 19C20.6562 19.6041 20.1666 20.0938 19.5625 20.0938Z" fill="white"/>
<path d="M14.3125 20.0938C13.7084 20.0938 13.2188 19.6041 13.2188 19C13.2188 18.3959 13.7084 17.9062 14.3125 17.9062C14.9166 17.9062 15.4062 18.3959 15.4062 19C15.4062 19.6041 14.9166 20.0938 14.3125 20.0938Z" fill="white"/>
<path d="M24.8125 20.0938C24.2084 20.0938 23.7188 19.6041 23.7188 19C23.7188 18.3959 24.2084 17.9062 24.8125 17.9062C25.4166 17.9062 25.9062 18.3959 25.9062 19C25.9062 19.6041 25.4166 20.0938 24.8125 20.0938Z" fill="white"/>
<defs>
<linearGradient id="paint0_linear_71_8512" x1="19.9766" y1="0" x2="19.9766" y2="37.9957" gradientUnits="userSpaceOnUse">
<stop stop-color="#EC78FF"/>
<stop offset="1" stop-color="#B032FE"/>
</linearGradient>
<linearGradient id="paint1_linear_71_8512" x1="19.9766" y1="0" x2="19.9766" y2="37.9957" gradientUnits="userSpaceOnUse">
<stop stop-color="#EC78FF"/>
<stop offset="1" stop-color="#B032FE"/>
</linearGradient>
</defs>
</svg>
