<svg width="44" height="42" viewBox="0 0 44 42" fill="none" xmlns="http://www.w3.org/2000/svg">
<g filter="url(#filter0_d_401_242371)">
<rect x="4" y="2" width="36" height="34" rx="6" fill="white"/>
</g>
<rect x="21" y="6" width="14" height="14" rx="7" fill="#F6DDEF"/>
<g clip-path="url(#clip0_401_242371)">
<path fill-rule="evenodd" clip-rule="evenodd" d="M14.2644 13.2819C14.4987 13.5162 14.8787 13.5163 15.113 13.2819L17.1816 11.2133C17.4159 10.979 17.7958 10.979 18.0301 11.2133L18.2011 11.3843C18.4354 11.6186 18.4354 11.9985 18.2011 12.2329L15.1016 15.3324C14.8673 15.5667 14.4874 15.5667 14.2531 15.3324L12.6177 13.6973C12.3833 13.463 12.3833 13.0831 12.6177 12.8487L12.8003 12.6661C13.0346 12.4318 13.4146 12.4318 13.6489 12.6662L14.2644 13.2819ZM30.8824 13.4211C30.8824 13.7525 30.6138 14.0211 30.2824 14.0211H20.5477C20.2163 14.0211 19.9477 13.7525 19.9477 13.4211V13.0707C19.9477 12.7393 20.2163 12.4707 20.5477 12.4707H30.2824C30.6138 12.4707 30.8824 12.7393 30.8824 13.0707V13.4211Z" fill="url(#paint0_linear_401_242371)"/>
<path fill-rule="evenodd" clip-rule="evenodd" d="M14.2644 25.7819C14.4987 26.0162 14.8787 26.0163 15.113 25.7819L17.1816 23.7133C17.4159 23.479 17.7958 23.479 18.0301 23.7133L18.2011 23.8843C18.4354 24.1186 18.4354 24.4985 18.2011 24.7329L15.1016 27.8324C14.8673 28.0667 14.4874 28.0667 14.2531 27.8324L12.6177 26.1973C12.3833 25.963 12.3833 25.5831 12.6177 25.3487L12.8003 25.1661C13.0346 24.9318 13.4146 24.9318 13.6489 25.1662L14.2644 25.7819ZM30.8824 25.9211C30.8824 26.2525 30.6138 26.5211 30.2824 26.5211H20.5477C20.2163 26.5211 19.9477 26.2525 19.9477 25.9211V25.5707C19.9477 25.2393 20.2163 24.9707 20.5477 24.9707H30.2824C30.6138 24.9707 30.8824 25.2393 30.8824 25.5707V25.9211Z" fill="url(#paint1_linear_401_242371)"/>
<path fill-rule="evenodd" clip-rule="evenodd" d="M14.2644 19.5319C14.4987 19.7662 14.8787 19.7663 15.113 19.5319L17.1816 17.4633C17.4159 17.229 17.7958 17.229 18.0301 17.4633L18.2011 17.6343C18.4354 17.8686 18.4354 18.2485 18.2011 18.4829L15.1016 21.5824C14.8673 21.8167 14.4874 21.8167 14.2531 21.5824L12.6177 19.9473C12.3833 19.713 12.3833 19.3331 12.6177 19.0987L12.8003 18.9161C13.0346 18.6818 13.4146 18.6818 13.6489 18.9162L14.2644 19.5319ZM30.8824 19.6711C30.8824 20.0025 30.6138 20.2711 30.2824 20.2711H20.5477C20.2163 20.2711 19.9477 20.0025 19.9477 19.6711V19.3207C19.9477 18.9893 20.2163 18.7207 20.5477 18.7207H30.2824C30.6138 18.7207 30.8824 18.9893 30.8824 19.3207V19.6711Z" fill="url(#paint2_linear_401_242371)"/>
<path fill-rule="evenodd" clip-rule="evenodd" d="M14.2644 13.2814C14.4987 13.5158 14.8786 13.5158 15.113 13.2814L17.1816 11.2128C17.4159 10.9785 17.7958 10.9785 18.0301 11.2128L18.2011 11.3838C18.4354 11.6182 18.4354 11.9981 18.2011 12.2324L15.1015 15.3319C14.8672 15.5662 14.4874 15.5662 14.2531 15.332L12.6177 13.6968C12.3833 13.4625 12.3833 13.0826 12.6176 12.8483L12.8003 12.6656C13.0346 12.4313 13.4145 12.4313 13.6488 12.6657L14.2644 13.2814ZM30.8824 13.4206C30.8824 13.752 30.6138 14.0206 30.2824 14.0206H20.5476C20.2163 14.0206 19.9476 13.752 19.9476 13.4206V13.0702C19.9476 12.7389 20.2163 12.4702 20.5476 12.4702H30.2824C30.6138 12.4702 30.8824 12.7389 30.8824 13.0702V13.4206ZM14.2644 25.7814C14.4987 26.0158 14.8786 26.0158 15.113 25.7814L17.1816 23.7128C17.4159 23.4785 17.7958 23.4785 18.0301 23.7128L18.2011 23.8838C18.4354 24.1182 18.4354 24.4981 18.2011 24.7324L15.1015 27.8319C14.8672 28.0662 14.4874 28.0662 14.2531 27.832L12.6177 26.1968C12.3833 25.9625 12.3833 25.5826 12.6176 25.3483L12.8003 25.1656C13.0346 24.9313 13.4145 24.9313 13.6488 25.1657L14.2644 25.7814ZM30.8824 25.9206C30.8824 26.252 30.6138 26.5206 30.2824 26.5206H20.5476C20.2163 26.5206 19.9476 26.252 19.9476 25.9206V25.5702C19.9476 25.2389 20.2163 24.9702 20.5476 24.9702H30.2824C30.6138 24.9702 30.8824 25.2388 30.8824 25.5702V25.9206ZM18.0301 17.4628C17.7958 17.2285 17.4159 17.2285 17.1816 17.4628L15.113 19.5314C14.8786 19.7658 14.4987 19.7658 14.2644 19.5314L13.6488 18.9157C13.4145 18.6813 13.0346 18.6813 12.8003 18.9156L12.6176 19.0983C12.3833 19.3326 12.3833 19.7125 12.6177 19.9468L14.2531 21.582C14.4874 21.8162 14.8672 21.8162 15.1015 21.5819L18.2011 18.4824C18.4354 18.2481 18.4354 17.8682 18.2011 17.6338L18.0301 17.4628ZM19.9476 19.6706C19.9476 20.002 20.2163 20.2706 20.5476 20.2706H30.2824C30.6138 20.2706 30.8824 20.002 30.8824 19.6706V19.3202C30.8824 18.9889 30.6138 18.7202 30.2824 18.7202H20.5476C20.2163 18.7202 19.9476 18.9889 19.9476 19.3202V19.6706Z" fill="url(#paint3_linear_401_242371)"/>
</g>
<defs>
<filter id="filter0_d_401_242371" x="0" y="0" width="44" height="42" filterUnits="userSpaceOnUse" color-interpolation-filters="sRGB">
<feFlood flood-opacity="0" result="BackgroundImageFix"/>
<feColorMatrix in="SourceAlpha" type="matrix" values="0 0 0 0 0 0 0 0 0 0 0 0 0 0 0 0 0 0 127 0" result="hardAlpha"/>
<feOffset dy="2"/>
<feGaussianBlur stdDeviation="2"/>
<feComposite in2="hardAlpha" operator="out"/>
<feColorMatrix type="matrix" values="0 0 0 0 0 0 0 0 0 0 0 0 0 0 0 0 0 0 0.12 0"/>
<feBlend mode="normal" in2="BackgroundImageFix" result="effect1_dropShadow_401_242371"/>
<feBlend mode="normal" in="SourceGraphic" in2="effect1_dropShadow_401_242371" result="shape"/>
</filter>
<linearGradient id="paint0_linear_401_242371" x1="21.5379" y1="10.7891" x2="21.5379" y2="15.7566" gradientUnits="userSpaceOnUse">
<stop stop-color="#000AFF"/>
<stop offset="1" stop-color="#D274FF"/>
</linearGradient>
<linearGradient id="paint1_linear_401_242371" x1="21.5379" y1="23.2891" x2="21.5379" y2="28.2566" gradientUnits="userSpaceOnUse">
<stop stop-color="#000AFF"/>
<stop offset="1" stop-color="#D274FF"/>
</linearGradient>
<linearGradient id="paint2_linear_401_242371" x1="21.5379" y1="17.0391" x2="21.5379" y2="22.0066" gradientUnits="userSpaceOnUse">
<stop stop-color="#000AFF"/>
<stop offset="1" stop-color="#D274FF"/>
</linearGradient>
<linearGradient id="paint3_linear_401_242371" x1="21.6621" y1="11.0371" x2="21.6621" y2="28.0077" gradientUnits="userSpaceOnUse">
<stop stop-color="#000AFF"/>
<stop offset="1" stop-color="#D274FF"/>
</linearGradient>
<clipPath id="clip0_401_242371">
<rect width="25" height="25" fill="white" transform="translate(9 7)"/>
</clipPath>
</defs>
</svg>
