<svg width="22" height="18" viewBox="0 0 22 18" fill="none" xmlns="http://www.w3.org/2000/svg">
<path d="M18.3333 9.02508V3.81889L16.6774 1.33471C16.5521 1.15967 16.3883 1.01574 16.1986 0.914019C16.009 0.812301 15.7984 0.755518 15.5833 0.748047H2.75C2.53501 0.755359 2.32456 0.811929 2.13488 0.913404C1.9452 1.01488 1.78136 1.15855 1.65596 1.33334L0 3.81889V14.9564C0.000727768 15.5639 0.242403 16.1464 0.672016 16.576C1.10163 17.0056 1.6841 17.2473 2.29167 17.248H12.8333V16.3314H2.29167C1.92699 16.3314 1.57726 16.1865 1.31939 15.9286C1.06153 15.6708 0.916667 15.3211 0.916667 14.9564V4.41471H5.5V6.70638C5.5 7.07105 5.64487 7.42078 5.90273 7.67865C6.1606 7.93651 6.51033 8.08138 6.875 8.08138H11.4583C11.823 8.08138 12.1727 7.93651 12.4306 7.67865C12.6885 7.42078 12.8333 7.07105 12.8333 6.70638V4.41471H17.4167V9.02508C16.3689 9.14223 15.4058 9.65611 14.7251 10.4612C14.0443 11.2663 13.6977 12.3014 13.7564 13.3541C13.8151 14.4067 14.2745 15.397 15.0405 16.1214C15.8064 16.8459 16.8207 17.2495 17.875 17.2495C18.9293 17.2495 19.9436 16.8459 20.7095 16.1214C21.4755 15.397 21.9349 14.4067 21.9936 13.3541C22.0523 12.3014 21.7057 11.2663 21.0249 10.4612C20.3442 9.65611 19.3811 9.14223 18.3333 9.02508ZM15.9147 1.84209L17.0188 3.49805H12.6583L11.7416 1.66471H15.5833C15.7121 1.68034 15.8303 1.74362 15.9147 1.84209ZM11.6334 3.49805H6.69992L7.61659 1.66471H10.7167L11.6334 3.49805ZM2.42092 1.84209C2.50476 1.74412 2.62208 1.68089 2.75 1.66471H6.59174L5.67508 3.49805H1.3145L2.42092 1.84209ZM11.9167 6.70638C11.9167 6.82794 11.8684 6.94451 11.7824 7.03046C11.6965 7.11642 11.5799 7.16471 11.4583 7.16471H6.875C6.75344 7.16471 6.63687 7.11642 6.55092 7.03046C6.46496 6.94451 6.41667 6.82794 6.41667 6.70638V4.41471H11.9167V6.70638ZM17.875 16.3314C17.2405 16.3314 16.6202 16.1432 16.0926 15.7907C15.5649 15.4381 15.1537 14.9371 14.9109 14.3508C14.6681 13.7646 14.6045 13.1195 14.7283 12.4971C14.8521 11.8748 15.1577 11.3031 15.6064 10.8544C16.0551 10.4057 16.6267 10.1001 17.2491 9.97635C17.8714 9.85256 18.5165 9.9161 19.1028 10.1589C19.689 10.4018 20.1901 10.813 20.5426 11.3406C20.8952 11.8682 21.0833 12.4885 21.0833 13.123C21.0824 13.9736 20.744 14.7891 20.1426 15.3906C19.5411 15.9921 18.7256 16.3304 17.875 16.3314Z" fill="url(#paint0_linear_401_242347)"/>
<path d="M5.5 9.91602H2.75V10.8327H5.5V9.91602Z" fill="url(#paint1_linear_401_242347)"/>
<path d="M6.41667 11.748H2.75V12.6647H6.41667V11.748Z" fill="url(#paint2_linear_401_242347)"/>
<path d="M7.33333 13.5801H2.75V14.4967H7.33333V13.5801Z" fill="url(#paint3_linear_401_242347)"/>
<defs>
<linearGradient id="paint0_linear_401_242347" x1="11" y1="0.748047" x2="11" y2="17.2495" gradientUnits="userSpaceOnUse">
<stop stop-color="#0033EA"/>
<stop offset="1" stop-color="#8A0074"/>
</linearGradient>
<linearGradient id="paint1_linear_401_242347" x1="4.125" y1="9.91602" x2="4.125" y2="10.8327" gradientUnits="userSpaceOnUse">
<stop stop-color="#0033EA"/>
<stop offset="1" stop-color="#8A0074"/>
</linearGradient>
<linearGradient id="paint2_linear_401_242347" x1="4.58333" y1="11.748" x2="4.58333" y2="12.6647" gradientUnits="userSpaceOnUse">
<stop stop-color="#0033EA"/>
<stop offset="1" stop-color="#8A0074"/>
</linearGradient>
<linearGradient id="paint3_linear_401_242347" x1="5.04167" y1="13.5801" x2="5.04167" y2="14.4967" gradientUnits="userSpaceOnUse">
<stop stop-color="#0033EA"/>
<stop offset="1" stop-color="#8A0074"/>
</linearGradient>
</defs>
</svg>
