<svg width="26" height="26" viewBox="0 0 26 26" fill="none" xmlns="http://www.w3.org/2000/svg">
<rect x="12" width="14" height="14" rx="7" fill="#F6DDEF"/>
<g clip-path="url(#clip0_177_35729)">
<path fill-rule="evenodd" clip-rule="evenodd" d="M5.26441 7.28187C5.49871 7.51624 5.87866 7.51627 6.11299 7.28193L8.1816 5.21333C8.41591 4.97901 8.79581 4.97901 9.03012 5.21333L9.20113 5.38433C9.43544 5.61864 9.43544 5.99854 9.20113 6.23286L6.10157 9.33241C5.86727 9.56671 5.4874 9.56673 5.25308 9.33244L3.61769 7.69731C3.38334 7.463 3.38333 7.08308 3.61766 6.84875L3.80029 6.66612C4.03463 6.43178 4.41457 6.43181 4.64887 6.66617L5.26441 7.28187ZM21.8824 7.42109C21.8824 7.75247 21.6138 8.02109 21.2824 8.02109H11.5477C11.2163 8.02109 10.9477 7.75246 10.9477 7.42109V7.0707C10.9477 6.73933 11.2163 6.4707 11.5477 6.4707H21.2824C21.6138 6.4707 21.8824 6.73933 21.8824 7.0707V7.42109Z" fill="url(#paint0_linear_177_35729)"/>
<path fill-rule="evenodd" clip-rule="evenodd" d="M5.26441 19.7819C5.49871 20.0162 5.87866 20.0163 6.11299 19.7819L8.1816 17.7133C8.41591 17.479 8.79581 17.479 9.03012 17.7133L9.20113 17.8843C9.43544 18.1186 9.43544 18.4985 9.20113 18.7329L6.10157 21.8324C5.86727 22.0667 5.4874 22.0667 5.25308 21.8324L3.61769 20.1973C3.38334 19.963 3.38333 19.5831 3.61766 19.3487L3.80029 19.1661C4.03463 18.9318 4.41457 18.9318 4.64887 19.1662L5.26441 19.7819ZM21.8824 19.9211C21.8824 20.2525 21.6138 20.5211 21.2824 20.5211H11.5477C11.2163 20.5211 10.9477 20.2525 10.9477 19.9211V19.5707C10.9477 19.2393 11.2163 18.9707 11.5477 18.9707H21.2824C21.6138 18.9707 21.8824 19.2393 21.8824 19.5707V19.9211Z" fill="url(#paint1_linear_177_35729)"/>
<path fill-rule="evenodd" clip-rule="evenodd" d="M5.26441 13.5319C5.49871 13.7662 5.87866 13.7663 6.11299 13.5319L8.1816 11.4633C8.41591 11.229 8.79581 11.229 9.03012 11.4633L9.20113 11.6343C9.43544 11.8686 9.43544 12.2485 9.20113 12.4829L6.10157 15.5824C5.86727 15.8167 5.4874 15.8167 5.25308 15.5824L3.61769 13.9473C3.38334 13.713 3.38333 13.3331 3.61766 13.0987L3.80029 12.9161C4.03463 12.6818 4.41457 12.6818 4.64887 12.9162L5.26441 13.5319ZM21.8824 13.6711C21.8824 14.0025 21.6138 14.2711 21.2824 14.2711H11.5477C11.2163 14.2711 10.9477 14.0025 10.9477 13.6711V13.3207C10.9477 12.9893 11.2163 12.7207 11.5477 12.7207H21.2824C21.6138 12.7207 21.8824 12.9893 21.8824 13.3207V13.6711Z" fill="url(#paint2_linear_177_35729)"/>
<path fill-rule="evenodd" clip-rule="evenodd" d="M5.26441 7.28139C5.49872 7.51576 5.87866 7.51578 6.113 7.28145L8.1816 5.21285C8.41591 4.97853 8.79581 4.97853 9.03013 5.21285L9.20113 5.38385C9.43545 5.61816 9.43545 5.99806 9.20113 6.23238L6.10158 9.33193C5.86728 9.56623 5.4874 9.56625 5.25308 9.33196L3.61769 7.69683C3.38335 7.46252 3.38333 7.0826 3.61766 6.84827L3.80029 6.66564C4.03463 6.4313 4.41457 6.43132 4.64888 6.66569L5.26441 7.28139ZM21.8824 7.42061C21.8824 7.75198 21.6138 8.02061 21.2824 8.02061H11.5477C11.2163 8.02061 10.9477 7.75198 10.9477 7.42061V7.07022C10.9477 6.73885 11.2163 6.47022 11.5477 6.47022H21.2824C21.6138 6.47022 21.8824 6.73885 21.8824 7.07022V7.42061ZM5.26441 19.7814C5.49872 20.0158 5.87866 20.0158 6.113 19.7814L8.1816 17.7128C8.41591 17.4785 8.79581 17.4785 9.03013 17.7128L9.20113 17.8838C9.43545 18.1182 9.43545 18.4981 9.20113 18.7324L6.10158 21.8319C5.86728 22.0662 5.4874 22.0662 5.25308 21.832L3.61769 20.1968C3.38335 19.9625 3.38333 19.5826 3.61766 19.3483L3.80029 19.1656C4.03463 18.9313 4.41457 18.9313 4.64888 19.1657L5.26441 19.7814ZM21.8824 19.9206C21.8824 20.252 21.6138 20.5206 21.2824 20.5206H11.5477C11.2163 20.5206 10.9477 20.252 10.9477 19.9206V19.5702C10.9477 19.2389 11.2163 18.9702 11.5477 18.9702H21.2824C21.6138 18.9702 21.8824 19.2388 21.8824 19.5702V19.9206ZM9.03013 11.4628C8.79581 11.2285 8.41591 11.2285 8.1816 11.4628L6.113 13.5314C5.87866 13.7658 5.49872 13.7658 5.26441 13.5314L4.64888 12.9157C4.41457 12.6813 4.03463 12.6813 3.80029 12.9156L3.61766 13.0983C3.38333 13.3326 3.38335 13.7125 3.61769 13.9468L5.25308 15.582C5.4874 15.8162 5.86728 15.8162 6.10158 15.5819L9.20113 12.4824C9.43545 12.2481 9.43545 11.8682 9.20113 11.6338L9.03013 11.4628ZM10.9477 13.6706C10.9477 14.002 11.2163 14.2706 11.5477 14.2706H21.2824C21.6138 14.2706 21.8824 14.002 21.8824 13.6706V13.3202C21.8824 12.9889 21.6138 12.7202 21.2824 12.7202H11.5477C11.2163 12.7202 10.9477 12.9889 10.9477 13.3202V13.6706Z" fill="url(#paint3_linear_177_35729)"/>
</g>
<defs>
<linearGradient id="paint0_linear_177_35729" x1="12.5379" y1="4.78906" x2="12.5379" y2="9.75664" gradientUnits="userSpaceOnUse">
<stop stop-color="#000AFF"/>
<stop offset="1" stop-color="#D274FF"/>
</linearGradient>
<linearGradient id="paint1_linear_177_35729" x1="12.5379" y1="17.2891" x2="12.5379" y2="22.2566" gradientUnits="userSpaceOnUse">
<stop stop-color="#000AFF"/>
<stop offset="1" stop-color="#D274FF"/>
</linearGradient>
<linearGradient id="paint2_linear_177_35729" x1="12.5379" y1="11.0391" x2="12.5379" y2="16.0066" gradientUnits="userSpaceOnUse">
<stop stop-color="#000AFF"/>
<stop offset="1" stop-color="#D274FF"/>
</linearGradient>
<linearGradient id="paint3_linear_177_35729" x1="12.6622" y1="5.03711" x2="12.6622" y2="22.0077" gradientUnits="userSpaceOnUse">
<stop stop-color="#000AFF"/>
<stop offset="1" stop-color="#D274FF"/>
</linearGradient>
<clipPath id="clip0_177_35729">
<rect width="25" height="25" fill="white" transform="translate(0 1)"/>
</clipPath>
</defs>
</svg>
