<svg width="19" height="19" viewBox="0 0 19 19" fill="none" xmlns="http://www.w3.org/2000/svg">
<path d="M10.9844 12.7656H2.96875" stroke="#4B4893" stroke-width="1.5" stroke-linecap="round" stroke-linejoin="round"/>
<path d="M16.0312 12.7656H13.9531" stroke="#4B4893" stroke-width="1.5" stroke-linecap="round" stroke-linejoin="round"/>
<path d="M12.4688 14.25C13.2885 14.25 13.9531 13.5854 13.9531 12.7656C13.9531 11.9458 13.2885 11.2812 12.4688 11.2812C11.649 11.2812 10.9844 11.9458 10.9844 12.7656C10.9844 13.5854 11.649 14.25 12.4688 14.25Z" stroke="#4B4893" stroke-width="1.5" stroke-linecap="round" stroke-linejoin="round"/>
<path d="M6.23438 6.23438H2.96875" stroke="#4B4893" stroke-width="1.5" stroke-linecap="round" stroke-linejoin="round"/>
<path d="M16.0312 6.23438H9.20312" stroke="#4B4893" stroke-width="1.5" stroke-linecap="round" stroke-linejoin="round"/>
<path d="M7.71875 7.71875C8.53855 7.71875 9.20312 7.05417 9.20312 6.23438C9.20312 5.41458 8.53855 4.75 7.71875 4.75C6.89895 4.75 6.23438 5.41458 6.23438 6.23438C6.23438 7.05417 6.89895 7.71875 7.71875 7.71875Z" stroke="#4B4893" stroke-width="1.5" stroke-linecap="round" stroke-linejoin="round"/>
</svg>
