<svg width="15" height="16" viewBox="0 0 15 16" fill="none" xmlns="http://www.w3.org/2000/svg">
<g clip-path="url(#clip0_787_617948)">
<mask id="mask0_787_617948" style="mask-type:luminance" maskUnits="userSpaceOnUse" x="0" y="0" width="15" height="16">
<path d="M15 15.5H0V0.5H15V15.5Z" fill="white"/>
</mask>
<g mask="url(#mask0_787_617948)">
<path d="M7.5 15.5C3.3645 15.5 0 12.1356 0 8.00041C0 3.86506 3.3645 0.50075 7.5 0.50075C11.6355 0.50075 15 3.86506 15 8.00041C15 12.1356 11.6355 15.5 7.5 15.5ZM7.5 1.86434C4.11641 1.86434 1.36364 4.61694 1.36364 8.00037C1.36364 11.3838 4.11641 14.1364 7.5 14.1364C10.8836 14.1364 13.6364 11.3838 13.6364 8.00041C13.6364 4.61694 10.8836 1.86434 7.5 1.86434Z" fill="#6174A4"/>
<path d="M7.50018 9.59375C7.12363 9.59375 6.81836 9.28847 6.81836 8.91192V4.36722C6.81836 3.99072 7.12363 3.68547 7.50018 3.68547C7.87672 3.68547 8.18199 3.99072 8.18199 4.36722V8.91192C8.18199 9.28842 7.87672 9.59375 7.50018 9.59375Z" fill="#6174A4"/>
<path d="M7.50018 12.3203C7.32063 12.3203 7.14513 12.2476 7.0179 12.1208C6.89108 11.994 6.81836 11.818 6.81836 11.6385C6.81836 11.4589 6.89108 11.2835 7.0179 11.1562C7.14472 11.0294 7.32063 10.9567 7.50018 10.9567C7.67972 10.9567 7.85517 11.0294 7.9824 11.1562C8.10922 11.2835 8.18199 11.4589 8.18199 11.6385C8.18199 11.818 8.10922 11.994 7.9824 12.1208C7.85517 12.2476 7.67972 12.3203 7.50018 12.3203Z" fill="#6174A4"/>
</g>
</g>
<defs>
<clipPath id="clip0_787_617948">
<rect width="15" height="15.9375" fill="white" transform="matrix(1 0 0 -1 0 15.9688)"/>
</clipPath>
</defs>
</svg>
