<svg width="14" height="14" viewBox="0 0 14 14" fill="none" xmlns="http://www.w3.org/2000/svg">
<path d="M7 9.625C6.48082 9.625 5.97331 9.47105 5.54163 9.18261C5.10995 8.89417 4.7735 8.4842 4.57482 8.00454C4.37614 7.52489 4.32415 6.99709 4.42544 6.48789C4.52673 5.97869 4.77673 5.51096 5.14385 5.14385C5.51096 4.77673 5.97869 4.52673 6.48789 4.42544C6.99709 4.32415 7.52489 4.37614 8.00454 4.57482C8.4842 4.7735 8.89417 5.10995 9.18261 5.54163C9.47105 5.97331 9.625 6.48082 9.625 7C9.625 7.69619 9.34844 8.36387 8.85616 8.85616C8.36387 9.34844 7.69619 9.625 7 9.625ZM7 5.25C6.65388 5.25 6.31554 5.35264 6.02775 5.54493C5.73997 5.73722 5.51567 6.01053 5.38321 6.3303C5.25076 6.65008 5.2161 7.00194 5.28363 7.34141C5.35115 7.68088 5.51782 7.9927 5.76256 8.23744C6.00731 8.48218 6.31913 8.64885 6.65859 8.71638C6.99806 8.7839 7.34993 8.74924 7.6697 8.61679C7.98947 8.48434 8.26278 8.26003 8.45507 7.97225C8.64737 7.68446 8.75 7.34612 8.75 7C8.75 6.53587 8.56563 6.09075 8.23744 5.76256C7.90925 5.43438 7.46413 5.25 7 5.25Z" fill="#333333"/>
<path d="M9.1875 13.5626H4.8125C4.34837 13.5626 3.90325 13.3782 3.57506 13.05C3.24687 12.7218 3.0625 12.2767 3.0625 11.8126V10.697C3.06329 10.6101 3.08992 10.5254 3.13901 10.4537C3.18809 10.382 3.25741 10.3266 3.33813 10.2945L4.93063 9.65571C4.98461 9.63178 5.04287 9.61902 5.10192 9.61821C5.16096 9.61739 5.21955 9.62854 5.27417 9.65097C5.32879 9.67341 5.37831 9.70667 5.41973 9.74875C5.46115 9.79083 5.49363 9.84086 5.5152 9.89583C5.53678 9.95079 5.547 10.0096 5.54526 10.0686C5.54351 10.1276 5.52984 10.1857 5.50506 10.2393C5.48028 10.2929 5.44491 10.3409 5.40107 10.3804C5.35724 10.42 5.30585 10.4503 5.25 10.4695L3.9375 10.9945V11.8126C3.9375 12.0446 4.02969 12.2672 4.19378 12.4313C4.35788 12.5954 4.58044 12.6876 4.8125 12.6876H9.1875C9.41956 12.6876 9.64212 12.5954 9.80622 12.4313C9.97031 12.2672 10.0625 12.0446 10.0625 11.8126V10.9945L8.75 10.4695C8.64209 10.4265 8.55565 10.3425 8.50971 10.2358C8.46376 10.1292 8.46207 10.0086 8.505 9.90071C8.54793 9.7928 8.63197 9.70636 8.73863 9.66042C8.84529 9.61447 8.96584 9.61278 9.07375 9.65571L10.6662 10.2945C10.747 10.3266 10.8163 10.382 10.8654 10.4537C10.9145 10.5254 10.9411 10.6101 10.9419 10.697V11.8126C10.9419 12.0428 10.8965 12.2707 10.8082 12.4833C10.72 12.6959 10.5907 12.889 10.4278 13.0516C10.2648 13.2141 10.0714 13.3429 9.85854 13.4306C9.64571 13.5183 9.41768 13.5632 9.1875 13.5626Z" fill="#333333"/>
<path d="M3.9375 4.8125C3.50485 4.8125 3.08192 4.68421 2.72219 4.44384C2.36246 4.20347 2.08208 3.86183 1.91651 3.46212C1.75095 3.06241 1.70763 2.62257 1.79203 2.19824C1.87644 1.77391 2.08478 1.38413 2.3907 1.0782C2.69663 0.772278 3.08641 0.563938 3.51074 0.479533C3.93507 0.395128 4.37491 0.438448 4.77462 0.604015C5.17433 0.769581 5.51597 1.04996 5.75634 1.40969C5.99671 1.76942 6.125 2.19235 6.125 2.625C6.125 2.91227 6.06842 3.19672 5.95849 3.46212C5.84856 3.72752 5.68743 3.96867 5.4843 4.1718C5.28117 4.37493 5.04002 4.53606 4.77462 4.64599C4.50922 4.75592 4.22477 4.8125 3.9375 4.8125ZM3.9375 1.3125C3.67791 1.3125 3.42415 1.38948 3.20831 1.5337C2.99248 1.67792 2.82425 1.8829 2.72491 2.12273C2.62557 2.36256 2.59958 2.62646 2.65022 2.88106C2.70086 3.13566 2.82587 3.36952 3.00942 3.55308C3.19298 3.73664 3.42684 3.86164 3.68145 3.91228C3.93605 3.96292 4.19994 3.93693 4.43977 3.83759C4.6796 3.73825 4.88459 3.57003 5.0288 3.35419C5.17302 3.13835 5.25 2.88459 5.25 2.625C5.25 2.2769 5.11172 1.94306 4.86558 1.69692C4.61944 1.45078 4.2856 1.3125 3.9375 1.3125Z" fill="#333333"/>
<path d="M3.5 8.48315H2.1875C1.72337 8.48315 1.27825 8.29878 0.950063 7.97059C0.621875 7.6424 0.4375 7.19728 0.4375 6.73315V5.96753C0.437415 5.8799 0.463643 5.79428 0.512786 5.72173C0.561928 5.64919 0.631722 5.59307 0.713125 5.56065L2.10875 5.01378C2.21504 4.97159 2.33362 4.97269 2.4391 5.01684C2.54459 5.061 2.62859 5.1447 2.67313 5.25003C2.69444 5.30345 2.705 5.36056 2.70422 5.41807C2.70344 5.47558 2.69132 5.53238 2.66857 5.58521C2.64581 5.63803 2.61286 5.68585 2.5716 5.72593C2.53035 5.76601 2.48159 5.79756 2.42813 5.81878L1.3125 6.26503V6.73315C1.3125 6.96522 1.40469 7.18778 1.56878 7.35187C1.73288 7.51596 1.95544 7.60815 2.1875 7.60815H3.5C3.61603 7.60815 3.72731 7.65425 3.80936 7.73629C3.89141 7.81834 3.9375 7.92962 3.9375 8.04565C3.9375 8.16168 3.89141 8.27296 3.80936 8.35501C3.72731 8.43706 3.61603 8.48315 3.5 8.48315Z" fill="#333333"/>
<path d="M10.0625 4.8125C9.62985 4.8125 9.20692 4.68421 8.84719 4.44384C8.48746 4.20347 8.20708 3.86183 8.04151 3.46212C7.87595 3.06241 7.83263 2.62257 7.91703 2.19824C8.00144 1.77391 8.20978 1.38413 8.51571 1.0782C8.82163 0.772278 9.21141 0.563938 9.63574 0.479533C10.0601 0.395128 10.4999 0.438448 10.8996 0.604015C11.2993 0.769581 11.641 1.04996 11.8813 1.40969C12.1217 1.76942 12.25 2.19235 12.25 2.625C12.25 3.20516 12.0195 3.76156 11.6093 4.1718C11.1991 4.58203 10.6427 4.8125 10.0625 4.8125ZM10.0625 1.3125C9.80291 1.3125 9.54916 1.38948 9.33332 1.5337C9.11748 1.67792 8.94925 1.8829 8.84991 2.12273C8.75057 2.36256 8.72458 2.62646 8.77522 2.88106C8.82586 3.13566 8.95087 3.36952 9.13442 3.55308C9.31798 3.73664 9.55184 3.86164 9.80645 3.91228C10.061 3.96292 10.3249 3.93693 10.5648 3.83759C10.8046 3.73825 11.0096 3.57003 11.1538 3.35419C11.298 3.13835 11.375 2.88459 11.375 2.625C11.375 2.2769 11.2367 1.94306 10.9906 1.69692C10.7444 1.45078 10.4106 1.3125 10.0625 1.3125Z" fill="#333333"/>
<path d="M11.8125 8.48329H10.5C10.384 8.48329 10.2727 8.43719 10.1906 8.35515C10.1086 8.2731 10.0625 8.16182 10.0625 8.04579C10.0625 7.92975 10.1086 7.81848 10.1906 7.73643C10.2727 7.65438 10.384 7.60829 10.5 7.60829H11.8125C12.0446 7.60829 12.2671 7.5161 12.4312 7.35201C12.5953 7.18791 12.6875 6.96535 12.6875 6.73329V6.26516L11.5719 5.82766C11.5184 5.80645 11.4697 5.7749 11.4284 5.73482C11.3871 5.69474 11.3542 5.64692 11.3314 5.59409C11.3087 5.54127 11.2966 5.48447 11.2958 5.42696C11.295 5.36944 11.3056 5.31234 11.3269 5.25891C11.3689 5.15121 11.4519 5.06452 11.5576 5.01779C11.6634 4.97107 11.7833 4.9681 11.8913 5.00954L13.2869 5.55641C13.3683 5.58883 13.4381 5.64495 13.4872 5.71749C13.5364 5.79004 13.5626 5.87567 13.5625 5.96329V6.72891C13.5631 6.95909 13.5182 7.18713 13.4305 7.39995C13.3429 7.61278 13.214 7.80621 13.0515 7.96918C12.8889 8.13214 12.6958 8.26144 12.4832 8.34966C12.2706 8.43788 12.0427 8.48329 11.8125 8.48329Z" fill="#333333"/>
</svg>
