<svg width="18" height="19" viewBox="0 0 18 19" fill="none" xmlns="http://www.w3.org/2000/svg">
<g clip-path="url(#clip0_2833_50186)">
<path d="M9 1.625C13.3875 1.625 16.875 5.1125 16.875 9.5C16.875 13.8875 13.3875 17.375 9 17.375C4.6125 17.375 1.125 13.8875 1.125 9.5C1.125 5.1125 4.6125 1.625 9 1.625ZM9 0.5C4.05 0.5 0 4.55 0 9.5C0 14.45 4.05 18.5 9 18.5C13.95 18.5 18 14.45 18 9.5C18 4.55 13.95 0.5 9 0.5Z" fill="#444444"/>
<path d="M8.99922 15.3501C6.74922 15.3501 4.72422 14.0001 3.82422 11.8626L4.83672 11.4126C5.51172 13.1001 7.19922 14.1126 8.99922 14.1126C10.7992 14.1126 12.4867 12.9876 13.1617 11.4126L14.1742 11.8626C13.2742 14.1126 11.2492 15.3501 8.99922 15.3501Z" fill="#444444"/>
<path d="M7.875 7.25C7.875 7.871 7.371 8.375 6.75 8.375C6.129 8.375 5.625 7.871 5.625 7.25C5.625 6.629 6.129 6.125 6.75 6.125C7.371 6.125 7.875 6.629 7.875 7.25Z" fill="#444444"/>
<path d="M12.375 7.25C12.375 7.871 11.871 8.375 11.25 8.375C10.629 8.375 10.125 7.871 10.125 7.25C10.125 6.629 10.629 6.125 11.25 6.125C11.871 6.125 12.375 6.629 12.375 7.25Z" fill="#444444"/>
</g>
<defs>
<clipPath id="clip0_2833_50186">
<rect width="18" height="18" fill="white" transform="translate(0 0.5)"/>
</clipPath>
</defs>
</svg>
