<svg width="30" height="30" viewBox="0 0 30 30" fill="none" xmlns="http://www.w3.org/2000/svg">
<rect x="9" width="21" height="21" rx="10.5" fill="#C5FFFA"/>
<path d="M11.5 30C17.8513 30 23 24.8513 23 18.5C23 12.1487 17.8513 7 11.5 7C5.14873 7 0 12.1487 0 18.5C0 24.8513 5.14873 30 11.5 30Z" fill="#009688"/>
<path d="M6 24V20H11L6 24Z" fill="#F1FFFE"/>
<path d="M6.13905 21H15.861C17.5867 21 19 19.5731 19 17.8308V14.1692C19 12.4269 17.5867 11 15.861 11H6.13905C4.41334 11 3.00001 12.4269 3.00001 14.1692V17.8308C2.9962 19.5731 4.40953 21 6.13905 21Z" fill="#F1FFFE"/>
<path d="M19.4567 24.5384H12.05C11.6798 24.5384 11.3779 24.2366 11.3779 23.8664V19.1514C11.3779 18.7813 11.6798 18.4794 12.05 18.4794H19.4567C19.8268 18.4794 20.1287 18.7813 20.1287 19.1514V23.8628C20.1287 24.2366 19.8268 24.5384 19.4567 24.5384Z" fill="#DCFFFC"/>
<path d="M18.1095 26.5581V23.8664H14.7422L18.1095 26.5581Z" fill="#DCFFFC"/>
<path d="M16.0851 20.4991H15.4131V21.1711H16.0851V20.4991Z" fill="#009688"/>
<path d="M14.7414 20.4991H14.0693V21.1711H14.7414V20.4991Z" fill="#009688"/>
<path d="M13.3937 20.4991H12.7217V21.1711H13.3937V20.4991Z" fill="#009688"/>
<path d="M17.4328 20.4991H16.7607V21.1711H17.4328V20.4991Z" fill="#009688"/>
<path d="M18.7804 20.4991H18.1084V21.1711H18.7804V20.4991Z" fill="#009688"/>
<path d="M16.0851 21.8467H15.4131V22.5187H16.0851V21.8467Z" fill="#009688"/>
<path d="M17.4328 21.8467H16.7607V22.5187H17.4328V21.8467Z" fill="#009688"/>
<path d="M18.7804 21.8467H18.1084V22.5187H18.7804V21.8467Z" fill="#009688"/>
<path d="M9.77868 16.1732C9.91388 16.2635 10.1527 16.3537 10.3826 16.3537C10.7161 16.3537 10.8738 16.1868 10.8738 15.9793C10.8738 15.7627 10.7431 15.6409 10.4051 15.5146C9.95444 15.3522 9.73812 15.1041 9.73812 14.8018C9.73812 14.3958 10.0671 14.062 10.6079 14.062C10.8648 14.062 11.0856 14.1341 11.2253 14.2199L11.1126 14.5537C11.0135 14.4905 10.8332 14.4093 10.5989 14.4093C10.3285 14.4093 10.1753 14.5672 10.1753 14.7522C10.1753 14.9597 10.3285 15.0544 10.653 15.1808C11.0901 15.3477 11.3154 15.5687 11.3154 15.9432C11.3154 16.3853 10.9729 16.7011 10.3736 16.7011C10.0987 16.7011 9.84177 16.6334 9.66602 16.5296L9.77868 16.1732Z" fill="#009688"/>
<path d="M11.9035 14.8064C11.9035 14.5431 11.8989 14.3298 11.8809 14.121H12.283L12.3056 14.5295H12.3237C12.4593 14.2889 12.6943 14.062 13.1145 14.062C13.458 14.062 13.7201 14.2708 13.8285 14.5704H13.8376C13.9144 14.4297 14.0138 14.3207 14.1178 14.239C14.2669 14.1255 14.4341 14.062 14.6781 14.062C15.0125 14.062 15.5096 14.2799 15.5096 15.1605V16.6539H15.0622V15.2195C15.0622 14.7338 14.886 14.4387 14.5154 14.4387C14.2533 14.4387 14.05 14.6339 13.9731 14.8563C13.9506 14.9199 13.937 15.0016 13.937 15.0879V16.6539H13.4851V15.1332C13.4851 14.7292 13.3089 14.4342 12.9564 14.4342C12.6672 14.4342 12.4593 14.6657 12.387 14.8972C12.3599 14.9653 12.3508 15.0425 12.3508 15.1242V16.6539H11.9035V14.8064Z" fill="#009688"/>
<path d="M16.1879 16.1732C16.3231 16.2635 16.5619 16.3537 16.7918 16.3537C17.1252 16.3537 17.283 16.1868 17.283 15.9793C17.283 15.7627 17.1523 15.6409 16.8143 15.5146C16.3636 15.3522 16.1473 15.1041 16.1473 14.8018C16.1473 14.3958 16.4763 14.062 17.0171 14.062C17.274 14.062 17.4948 14.1341 17.6345 14.2199L17.5218 14.5537C17.4227 14.4905 17.2424 14.4093 17.0081 14.4093C16.7377 14.4093 16.5844 14.5672 16.5844 14.7522C16.5844 14.9597 16.7377 15.0544 17.0621 15.1808C17.4993 15.3477 17.7246 15.5687 17.7246 15.9432C17.7246 16.3853 17.3821 16.7011 16.7827 16.7011C16.5078 16.7011 16.251 16.6334 16.0752 16.5296L16.1879 16.1732Z" fill="#009688"/>
<path d="M7.17925 15.7548C7.76851 15.7548 8.24619 15.2771 8.24619 14.6878C8.24619 14.0986 7.76851 13.6209 7.17925 13.6209C6.58999 13.6209 6.1123 14.0986 6.1123 14.6878C6.1123 15.2771 6.58999 15.7548 7.17925 15.7548Z" fill="#009688"/>
<path d="M9.02228 18.1262C9.02228 18.1262 9.02228 18.1752 9.02228 17.1799C9.02228 16.1845 7.93648 16.1657 7.93648 16.1657H6.42466C6.42466 16.1657 5.33887 16.177 5.33887 17.1799C5.33887 18.1752 5.33887 18.1262 5.33887 18.1262H9.02228Z" fill="#009688"/>
</svg>
