<svg width="18" height="18" viewBox="0 0 18 18" fill="none" xmlns="http://www.w3.org/2000/svg">
<path d="M5.48438 14.1539L3.17109 16.0945C3.08914 16.1623 2.98965 16.2055 2.88415 16.2191C2.77864 16.2326 2.67146 16.216 2.57504 16.1711C2.47861 16.1262 2.39689 16.0549 2.33936 15.9654C2.28183 15.8759 2.25084 15.772 2.25 15.6656V4.5C2.25 4.35082 2.30926 4.20774 2.41475 4.10225C2.52024 3.99676 2.66332 3.9375 2.8125 3.9375H15.1875C15.3367 3.9375 15.4798 3.99676 15.5852 4.10225C15.6907 4.20774 15.75 4.35082 15.75 4.5V13.5C15.75 13.6492 15.6907 13.7923 15.5852 13.8977C15.4798 14.0032 15.3367 14.0625 15.1875 14.0625H5.74453L5.48438 14.1539Z" stroke="#555555" stroke-width="1.2" stroke-linecap="round" stroke-linejoin="round"/>
<path d="M6.75 7.875H11.25" stroke="#555555" stroke-width="1.2" stroke-linecap="round" stroke-linejoin="round"/>
<path d="M6.75 10.125H11.25" stroke="#555555" stroke-width="1.2" stroke-linecap="round" stroke-linejoin="round"/>
</svg>
