<svg width="19" height="19" viewBox="0 0 19 19" fill="none" xmlns="http://www.w3.org/2000/svg">
<path fill-rule="evenodd" clip-rule="evenodd" d="M15.65 10.722V14.9941L13.8427 13.5337C13.736 13.4474 13.6029 13.4004 13.4656 13.4004H6.725V10.6254C6.725 10.294 6.45637 10.0254 6.125 10.0254C5.79363 10.0254 5.525 10.294 5.525 10.6254V13.4379C5.525 13.7462 5.64748 14.0419 5.86549 14.2599C6.0835 14.4779 6.37919 14.6004 6.6875 14.6004H13.2535L15.8729 16.7171C16.0527 16.8624 16.3 16.8914 16.5086 16.7918C16.7172 16.6922 16.85 16.4816 16.85 16.2504V10.6759C16.4422 10.7222 16.0415 10.7359 15.65 10.722Z" fill="#333333"/>
<path fill-rule="evenodd" clip-rule="evenodd" d="M12.275 9.92093V10.0254H5.53438C5.39712 10.0254 5.26402 10.0724 5.15726 10.1587L3.35 11.6191V3.91289H8.23791C8.20081 3.52121 8.16889 3.11802 8.14159 2.71289H3.3125C3.00419 2.71289 2.7085 2.83537 2.49049 3.05338C2.27248 3.27139 2.15 3.56708 2.15 3.87539V12.8754C2.15 13.1066 2.28281 13.3172 2.49142 13.4168C2.70002 13.5164 2.94731 13.4874 3.12711 13.3421L5.7465 11.2254H12.3125C12.6208 11.2254 12.9165 11.1029 13.1345 10.8849C13.2831 10.7363 13.3873 10.5517 13.4386 10.3516C13.0307 10.2296 12.6417 10.0833 12.275 9.92093Z" fill="#333333"/>
<path d="M14 6.6875C14.932 6.6875 15.6875 5.93198 15.6875 5C15.6875 4.06802 14.932 3.3125 14 3.3125C13.068 3.3125 12.3125 4.06802 12.3125 5C12.3125 5.93198 13.068 6.6875 14 6.6875Z" stroke="#333333" strokeWidth="0.9" strokeLinecap="round" strokeLinejoin="round"/>
<path d="M15.9582 2.78906C16.0473 2.87109 16.1316 2.95547 16.2113 3.04219L17.1711 3.1793C17.3275 3.45088 17.448 3.74158 17.5297 4.04414L16.9461 4.82109C16.9461 4.82109 16.9566 5.06016 16.9461 5.17969L17.5297 5.95664C17.4484 6.25933 17.3278 6.55008 17.1711 6.82148L16.2113 6.95859C16.2113 6.95859 16.0461 7.13086 15.9582 7.21172L15.8211 8.17148C15.5495 8.32787 15.2588 8.4484 14.9563 8.53008L14.1793 7.94648C14.06 7.95703 13.94 7.95703 13.8207 7.94648L13.0438 8.53008C12.7411 8.44878 12.4503 8.32822 12.1789 8.17148L12.0418 7.21172C11.9551 7.12969 11.8707 7.04531 11.7887 6.95859L10.8289 6.82148C10.6725 6.5499 10.552 6.2592 10.4703 5.95664L11.0539 5.17969C11.0539 5.17969 11.0434 4.94063 11.0539 4.82109L10.4703 4.04414C10.5516 3.74145 10.6722 3.4507 10.8289 3.1793L11.7887 3.04219C11.8707 2.95547 11.9551 2.87109 12.0418 2.78906L12.1789 1.8293C12.4505 1.67292 12.7412 1.55238 13.0438 1.4707L13.8207 2.0543C13.94 2.04375 14.06 2.04375 14.1793 2.0543L14.9563 1.4707C15.2589 1.552 15.5497 1.67256 15.8211 1.8293L15.9582 2.78906Z" stroke="#333333" strokeWidth="0.9" strokeLinecap="round" strokeLinejoin="round"/>
</svg>
