<svg width="18" height="18" viewBox="0 0 18 18" fill="none" xmlns="http://www.w3.org/2000/svg">
<path d="M15.1876 3.375H2.81256C2.51419 3.375 2.22804 3.49353 2.01706 3.7045C1.80609 3.91548 1.68756 4.20163 1.68756 4.5V15.6656C1.68532 15.8808 1.74602 16.0919 1.8622 16.2731C1.97838 16.4542 2.14496 16.5974 2.34147 16.6852C2.53486 16.7754 2.74994 16.8088 2.96159 16.7814C3.17324 16.754 3.37273 16.667 3.53678 16.5305L5.76568 14.6531L15.1876 14.625C15.4859 14.625 15.7721 14.5065 15.9831 14.2955C16.194 14.0845 16.3126 13.7984 16.3126 13.5V4.5C16.3126 4.20163 16.194 3.91548 15.9831 3.7045C15.7721 3.49353 15.4859 3.375 15.1876 3.375ZM11.2501 10.6875H6.75006C6.60088 10.6875 6.4578 10.6282 6.35231 10.5227C6.24682 10.4173 6.18756 10.2742 6.18756 10.125C6.18756 9.97582 6.24682 9.83274 6.35231 9.72725C6.4578 9.62176 6.60088 9.5625 6.75006 9.5625H11.2501C11.3992 9.5625 11.5423 9.62176 11.6478 9.72725C11.7533 9.83274 11.8126 9.97582 11.8126 10.125C11.8126 10.2742 11.7533 10.4173 11.6478 10.5227C11.5423 10.6282 11.3992 10.6875 11.2501 10.6875ZM11.2501 8.4375H6.75006C6.60088 8.4375 6.4578 8.37824 6.35231 8.27275C6.24682 8.16726 6.18756 8.02418 6.18756 7.875C6.18756 7.72582 6.24682 7.58274 6.35231 7.47725C6.4578 7.37176 6.60088 7.3125 6.75006 7.3125H11.2501C11.3992 7.3125 11.5423 7.37176 11.6478 7.47725C11.7533 7.58274 11.8126 7.72582 11.8126 7.875C11.8126 8.02418 11.7533 8.16726 11.6478 8.27275C11.5423 8.37824 11.3992 8.4375 11.2501 8.4375Z" fill="#333333"/>
</svg>
