<svg width="19" height="19" viewBox="0 0 19 19" fill="none" xmlns="http://www.w3.org/2000/svg">
<path d="M17.4166 8.31249V12.2708C17.4166 15.0417 15.8333 16.2292 13.4583 16.2292H5.54159C3.16659 16.2292 1.58325 15.0417 1.58325 12.2708V6.72916C1.58325 3.95833 3.16659 2.77083 5.54159 2.77083H11.0833" stroke="white" stroke-miterlimit="10" stroke-linecap="round" stroke-linejoin="round"/>
<path d="M5.54175 7.125L8.01966 9.10417C8.83508 9.75333 10.173 9.75333 10.9884 9.10417L11.9226 8.36" stroke="white" stroke-miterlimit="10" stroke-linecap="round" stroke-linejoin="round"/>
<path d="M15.4374 6.33333C16.5305 6.33333 17.4166 5.44723 17.4166 4.35417C17.4166 3.2611 16.5305 2.375 15.4374 2.375C14.3444 2.375 13.4583 3.2611 13.4583 4.35417C13.4583 5.44723 14.3444 6.33333 15.4374 6.33333Z" stroke="white" stroke-miterlimit="10" stroke-linecap="round" stroke-linejoin="round"/>
</svg>
