<svg width="17" height="17" viewBox="0 0 17 17" fill="none" xmlns="http://www.w3.org/2000/svg">
<path d="M14.2953 5.34465C14.2953 5.33984 14.2969 5.30925 14.2969 5.30925C14.2961 2.80168 12.2561 0.761719 9.7477 0.761719C8.00705 0.761719 6.48852 1.78053 5.72646 3.30469C5.33615 3.00209 4.88952 2.78322 4.38416 2.78322C3.14648 2.78322 2.13898 3.78994 2.13898 5.02762C2.13898 5.02762 2.15427 5.13708 2.16632 5.22158C0.901291 5.65206 0 6.80927 0 8.17731C0 9.02227 0.32994 9.81895 0.92707 10.4161C1.52498 11.014 2.32088 11.3439 3.16584 11.3439H13.9661C15.6392 11.3439 17 9.98392 17 8.31169C17.0008 6.75533 15.8066 5.51526 14.2953 5.34465ZM13.967 10.4491H3.1658C2.55983 10.4491 1.9893 10.2117 1.55957 9.78273C1.13144 9.35381 0.894874 8.78324 0.894874 8.17649C0.894874 7.08769 1.66985 6.15018 2.73529 5.94577L3.15215 5.86612L3.08295 5.38651L3.03385 5.02758C3.03385 4.28238 3.639 3.67805 4.3842 3.67805C4.8252 3.67805 5.24043 3.89372 5.49392 4.25746L6.00092 4.98737L6.28337 4.14562C6.78552 2.65686 8.17691 1.65738 9.74613 1.65738C11.762 1.65738 13.4012 3.29581 13.4012 5.31007L13.3561 6.16711L13.8607 6.17596L13.9661 6.17275C15.1459 6.17275 16.1059 7.13198 16.1059 8.31172C16.1059 9.48901 15.1467 10.4491 13.967 10.4491ZM14.1021 14.6361V16.2399H10.958V14.6361C10.958 14.3094 11.2252 14.0438 11.5479 14.0438H13.5122C13.8358 14.0438 14.1013 14.3094 14.1021 14.6361ZM7.49207 12.8649C7.49207 12.2678 7.97653 11.7833 8.57362 11.7833C9.17072 11.7833 9.6544 12.2678 9.6544 12.8649C9.6544 13.462 9.16993 13.9464 8.57362 13.9464C7.97653 13.9464 7.49207 13.4628 7.49207 12.8649ZM11.449 12.8649C11.449 12.2678 11.9334 11.7833 12.5305 11.7833C13.1276 11.7833 13.6121 12.2678 13.6121 12.8649C13.6121 13.462 13.1276 13.9464 12.5305 13.9464C11.9334 13.9464 11.449 13.4628 11.449 12.8649ZM3.53682 12.8649C3.53682 12.2678 4.02128 11.7833 4.61837 11.7833C5.21547 11.7833 5.69993 12.2678 5.69993 12.8649C5.69993 13.462 5.21547 13.9464 4.61837 13.9464C4.02128 13.9464 3.53682 13.4628 3.53682 12.8649ZM10.1461 14.6361V16.2399H7.00357V14.6361C7.00357 14.3094 7.26834 14.0438 7.59425 14.0438H9.55539C9.88133 14.0438 10.1453 14.3094 10.1461 14.6361ZM6.19081 14.6361V16.2399H3.04672V14.6361C3.04672 14.3094 3.31391 14.0438 3.63658 14.0438H5.60092C5.92366 14.0438 6.19081 14.3094 6.19081 14.6361Z" fill="black"/>
</svg>
