<svg width="19" height="18" viewBox="0 0 19 18" fill="none" xmlns="http://www.w3.org/2000/svg">
<g id="newsfeed 1" clip-path="url(#clip0_1751_1177)">
<path id="Vector" d="M16.1606 0H2.03946C0.970076 0 0.100098 0.870115 0.100098 1.93949V16.0605C0.100098 17.13 0.970076 18 2.03946 18H16.1606C17.2301 18 18.1001 17.13 18.1001 16.0605V1.93949C18.1001 0.870115 17.2301 0 16.1606 0ZM2.03946 1.05469H16.1606C16.6485 1.05469 17.0454 1.45157 17.0454 1.93949V4.51881H1.15478V1.93949C1.15478 1.45157 1.55166 1.05469 2.03946 1.05469ZM16.1606 16.9453H2.03946C1.55166 16.9453 1.15478 16.5484 1.15478 16.0605V5.57349H17.0454V16.0605C17.0454 16.5484 16.6485 16.9453 16.1606 16.9453Z" fill="#5A5779"/>
<path id="Vector_2" d="M5.146 3.31402H13.0538C13.3451 3.31402 13.5811 3.07796 13.5811 2.78668C13.5811 2.49554 13.3451 2.25934 13.0538 2.25934H5.146C4.85486 2.25934 4.61865 2.49554 4.61865 2.78668C4.61865 3.07796 4.85486 3.31402 5.146 3.31402Z" fill="#5A5779"/>
<path id="Vector_3" d="M2.88672 10.657H5.14619C5.43733 10.657 5.67353 10.4209 5.67353 10.1297V7.87033C5.67353 7.57906 5.43733 7.34299 5.14619 7.34299H2.88672C2.59558 7.34299 2.35938 7.57906 2.35938 7.87033V10.1297C2.35938 10.4209 2.59544 10.657 2.88672 10.657ZM3.41406 8.39767H4.61885V9.60232H3.41406V8.39767Z" fill="#5A5779"/>
<path id="Vector_4" d="M15.3136 9.60233H7.40576C7.11449 9.60233 6.87842 9.83853 6.87842 10.1297C6.87842 10.4209 7.11449 10.657 7.40576 10.657H15.3136C15.6047 10.657 15.8409 10.4209 15.8409 10.1297C15.8409 9.83853 15.6047 9.60233 15.3136 9.60233Z" fill="#5A5779"/>
<path id="Vector_5" d="M15.3133 11.8618H2.88672C2.59558 11.8618 2.35938 12.0979 2.35938 12.3891C2.35938 12.6803 2.59558 12.9165 2.88672 12.9165H15.3133C15.6045 12.9165 15.8407 12.6803 15.8407 12.3891C15.8407 12.0979 15.6045 11.8618 15.3133 11.8618Z" fill="#5A5779"/>
<path id="Vector_6" d="M15.3133 14.1211H2.88672C2.59558 14.1211 2.35938 14.3572 2.35938 14.6485C2.35938 14.9397 2.59558 15.1758 2.88672 15.1758H15.3133C15.6045 15.1758 15.8407 14.9397 15.8407 14.6485C15.8407 14.3572 15.6045 14.1211 15.3133 14.1211Z" fill="#5A5779"/>
<path id="Vector_7" d="M15.3136 7.34299H7.40576C7.11449 7.34299 6.87842 7.57906 6.87842 7.87033C6.87842 8.1616 7.11449 8.39767 7.40576 8.39767H15.3136C15.6047 8.39767 15.8409 8.1616 15.8409 7.87033C15.8409 7.57906 15.6047 7.34299 15.3136 7.34299Z" fill="#5A5779"/>
</g>
<defs>
<clipPath id="clip0_1751_1177">
<rect width="18" height="18" fill="white" transform="translate(0.100098)"/>
</clipPath>
</defs>
</svg>
