<svg width="22" height="20" viewBox="0 0 22 20" fill="none" xmlns="http://www.w3.org/2000/svg">
<path d="M18.1589 6.21205C18.1589 6.20611 18.1608 6.16832 18.1608 6.16832C18.1598 3.07074 15.6398 0.550781 12.5413 0.550781C10.3911 0.550781 8.51523 1.80931 7.57386 3.6921C7.09172 3.3183 6.53999 3.04793 5.91573 3.04793C4.38683 3.04793 3.14226 4.29152 3.14226 5.82043C3.14226 5.82043 3.16116 5.95564 3.17604 6.06002C1.61336 6.59179 0.5 8.02129 0.5 9.71122C0.5 10.755 0.907573 11.7391 1.6452 12.4768C2.3838 13.2154 3.36697 13.6229 4.41074 13.6229H17.7523C19.819 13.6229 21.5 11.9429 21.5 9.87721C21.501 7.95465 20.0258 6.4228 18.1589 6.21205ZM17.7533 12.5175H4.4107C3.66215 12.5175 2.95737 12.2243 2.42652 11.6944C1.89766 11.1645 1.60543 10.4597 1.60543 9.7102C1.60543 8.36522 2.56275 7.20711 3.87888 6.95462L4.39383 6.85622L4.30834 6.26376L4.2477 5.82038C4.2477 4.89984 4.99524 4.15331 5.91578 4.15331C6.46055 4.15331 6.97347 4.41973 7.28661 4.86905L7.9129 5.7707L8.26181 4.73089C8.88211 2.89184 10.6009 1.65718 12.5393 1.65718C15.0295 1.65718 17.0544 3.68113 17.0544 6.16933L16.9988 7.22804L17.6221 7.23896L17.7523 7.23499C19.2096 7.23499 20.3956 8.41992 20.3956 9.87726C20.3956 11.3316 19.2106 12.5175 17.7533 12.5175ZM17.9203 17.6897V19.6709H14.0364V17.6897C14.0364 17.2861 14.3664 16.9581 14.765 16.9581H17.1916C17.5912 16.9581 17.9193 17.2861 17.9203 17.6897ZM9.75491 15.5018C9.75491 14.7642 10.3534 14.1657 11.0909 14.1657C11.8285 14.1657 12.426 14.7642 12.426 15.5018C12.426 16.2394 11.8276 16.8378 11.0909 16.8378C10.3534 16.8378 9.75491 16.2404 9.75491 15.5018ZM14.6428 15.5018C14.6428 14.7642 15.2413 14.1657 15.9789 14.1657C16.7165 14.1657 17.3149 14.7642 17.3149 15.5018C17.3149 16.2394 16.7165 16.8378 15.9789 16.8378C15.2413 16.8378 14.6428 16.2404 14.6428 15.5018ZM4.86901 15.5018C4.86901 14.7642 5.46747 14.1657 6.20505 14.1657C6.94264 14.1657 7.54109 14.7642 7.54109 15.5018C7.54109 16.2394 6.94264 16.8378 6.20505 16.8378C5.46747 16.8378 4.86901 16.2404 4.86901 15.5018ZM13.0334 17.6897V19.6709H9.15147V17.6897C9.15147 17.2861 9.47854 16.9581 9.88113 16.9581H12.3037C12.7064 16.9581 13.0324 17.2861 13.0334 17.6897ZM8.14747 17.6897V19.6709H4.2636V17.6897C4.2636 17.2861 4.59365 16.9581 4.99224 16.9581H7.41878C7.81746 16.9581 8.14747 17.2861 8.14747 17.6897Z" fill="url(#paint0_linear_987_197343)"/>
<defs>
<linearGradient id="paint0_linear_987_197343" x1="11" y1="0.550781" x2="11" y2="19.6709" gradientUnits="userSpaceOnUse">
<stop stop-color="#0033EA"/>
<stop offset="1" stop-color="#8A0074"/>
</linearGradient>
</defs>
</svg>
