<svg width="24" height="26" viewBox="0 0 24 26" fill="none" xmlns="http://www.w3.org/2000/svg">
<circle cx="17.0528" cy="6.94737" r="6.94737" fill="#F6DDEF"/>
<g clip-path="url(#clip0_99_3298)">
<path d="M6.79977 12.379H8.94714C9.14468 12.379 9.30502 12.2186 9.30502 12.0211C9.30502 11.8235 9.14468 11.6632 8.94714 11.6632H6.79977C6.60223 11.6632 6.44189 11.8235 6.44189 12.0211C6.44189 12.2186 6.60223 12.379 6.79977 12.379Z" fill="url(#paint0_linear_99_3298)"/>
<path d="M16.821 11.6631H10.3789C10.1813 11.6631 10.021 11.8235 10.021 12.021C10.021 12.2186 10.1813 12.3789 10.3789 12.3789H16.821C17.0185 12.3789 17.1789 12.2186 17.1789 12.021C17.1789 11.8235 17.0185 11.6631 16.821 11.6631Z" fill="url(#paint1_linear_99_3298)"/>
<path d="M15.7476 14.1684C15.7476 14.366 15.9079 14.5263 16.1054 14.5263H17.537C17.7345 14.5263 17.8949 14.366 17.8949 14.1684C17.8949 13.9709 17.7345 13.8105 17.537 13.8105H16.1054C15.9079 13.8105 15.7476 13.9708 15.7476 14.1684Z" fill="url(#paint2_linear_99_3298)"/>
<path d="M6.79977 14.5263H10.3787C10.5763 14.5263 10.7366 14.366 10.7366 14.1684C10.7366 13.9709 10.5763 13.8105 10.3787 13.8105H6.79977C6.60223 13.8105 6.44189 13.9709 6.44189 14.1684C6.44189 14.366 6.60223 14.5263 6.79977 14.5263Z" fill="url(#paint3_linear_99_3298)"/>
<path d="M1.78949 17.3895C1.19754 17.3895 0.715803 16.9078 0.715803 16.3158V5.57898C0.715803 4.98703 1.19754 4.50529 1.78949 4.50529H16.8211C17.413 4.50529 17.8948 4.98703 17.8948 5.57898V7.01054C17.8948 7.20808 18.0551 7.36842 18.2526 7.36842C18.4502 7.36842 18.6105 7.20808 18.6105 7.01054V5.57898C18.6105 4.59224 17.8078 3.78949 16.8211 3.78949H1.78949C0.802747 3.78949 0 4.59224 0 5.57898V16.3158C0 17.3025 0.802747 18.1053 1.78949 18.1053C1.98703 18.1053 2.14737 17.945 2.14737 17.7474C2.14737 17.5498 1.98703 17.3895 1.78949 17.3895Z" fill="url(#paint4_linear_99_3298)"/>
<path d="M13.2422 16.6737H16.8211C17.0186 16.6737 17.179 16.5134 17.179 16.3158C17.179 16.1183 17.0186 15.9579 16.8211 15.9579H13.2422C13.0446 15.9579 12.8843 16.1183 12.8843 16.3158C12.8843 16.5134 13.0446 16.6737 13.2422 16.6737Z" fill="url(#paint5_linear_99_3298)"/>
<path d="M19.6843 8.08423H4.65277C3.66607 8.08423 2.86328 8.88698 2.86328 9.87372V20.6106C2.86328 21.5973 3.66603 22.4 4.65277 22.4H13.6001C13.7977 22.4 13.958 22.2397 13.958 22.0422C13.958 21.8446 13.7977 21.6843 13.6001 21.6843H4.65277C4.06082 21.6843 3.57908 21.2026 3.57908 20.6106V9.87376C3.57908 9.28181 4.06082 8.80007 4.65277 8.80007H19.6843C20.2763 8.80007 20.758 9.28181 20.758 9.87376V20.6106C20.758 21.2026 20.2763 21.6843 19.6843 21.6843H18.2528C18.0552 21.6843 17.8949 21.8446 17.8949 22.0422V24.0414L14.9269 21.0733C14.7869 20.9333 14.5607 20.9333 14.4208 21.0733C14.2809 21.2132 14.2809 21.4394 14.4208 21.5793L17.9998 25.1583C18.0681 25.2266 18.1597 25.2631 18.2528 25.2631C18.299 25.2631 18.3455 25.2542 18.3898 25.236C18.5233 25.1805 18.6107 25.0499 18.6107 24.9053V22.4H19.6843C20.671 22.4 21.4738 21.5973 21.4738 20.6105V9.87367C21.4738 8.88698 20.6711 8.08423 19.6843 8.08423Z" fill="url(#paint6_linear_99_3298)"/>
<path d="M6.79977 16.6737H11.8103C12.0079 16.6737 12.1682 16.5134 12.1682 16.3158C12.1682 16.1183 12.0079 15.9579 11.8103 15.9579H6.79977C6.60223 15.9579 6.44189 16.1183 6.44189 16.3158C6.44189 16.5134 6.60223 16.6737 6.79977 16.6737Z" fill="url(#paint7_linear_99_3298)"/>
<path d="M13.958 18.821H17.5369C17.7345 18.821 17.8948 18.6607 17.8948 18.4632C17.8948 18.2656 17.7345 18.1053 17.5369 18.1053H13.958C13.7604 18.1053 13.6001 18.2656 13.6001 18.4632C13.6001 18.6607 13.7604 18.821 13.958 18.821Z" fill="url(#paint8_linear_99_3298)"/>
<path d="M15.0316 14.1684C15.0316 13.9709 14.8712 13.8105 14.6737 13.8105H11.8105C11.613 13.8105 11.4526 13.9709 11.4526 14.1684C11.4526 14.366 11.613 14.5263 11.8105 14.5263H14.6737C14.8712 14.5263 15.0316 14.366 15.0316 14.1684Z" fill="url(#paint9_linear_99_3298)"/>
<path d="M6.79977 18.821H12.5261C12.7236 18.821 12.884 18.6607 12.884 18.4632C12.884 18.2656 12.7236 18.1053 12.5261 18.1053H6.79977C6.60223 18.1053 6.44189 18.2656 6.44189 18.4632C6.44189 18.6607 6.60223 18.821 6.79977 18.821Z" fill="url(#paint10_linear_99_3298)"/>
</g>
<defs>
<linearGradient id="paint0_linear_99_3298" x1="7.87346" y1="11.6632" x2="7.87346" y2="12.379" gradientUnits="userSpaceOnUse">
<stop stop-color="#000AFF"/>
<stop offset="1" stop-color="#D274FF"/>
</linearGradient>
<linearGradient id="paint1_linear_99_3298" x1="13.5999" y1="11.6631" x2="13.5999" y2="12.3789" gradientUnits="userSpaceOnUse">
<stop stop-color="#000AFF"/>
<stop offset="1" stop-color="#D274FF"/>
</linearGradient>
<linearGradient id="paint2_linear_99_3298" x1="16.8212" y1="13.8105" x2="16.8212" y2="14.5263" gradientUnits="userSpaceOnUse">
<stop stop-color="#000AFF"/>
<stop offset="1" stop-color="#D274FF"/>
</linearGradient>
<linearGradient id="paint3_linear_99_3298" x1="8.58924" y1="13.8105" x2="8.58924" y2="14.5263" gradientUnits="userSpaceOnUse">
<stop stop-color="#000AFF"/>
<stop offset="1" stop-color="#D274FF"/>
</linearGradient>
<linearGradient id="paint4_linear_99_3298" x1="9.30526" y1="3.78949" x2="9.30526" y2="18.1053" gradientUnits="userSpaceOnUse">
<stop stop-color="#000AFF"/>
<stop offset="1" stop-color="#D274FF"/>
</linearGradient>
<linearGradient id="paint5_linear_99_3298" x1="15.0316" y1="15.9579" x2="15.0316" y2="16.6737" gradientUnits="userSpaceOnUse">
<stop stop-color="#000AFF"/>
<stop offset="1" stop-color="#D274FF"/>
</linearGradient>
<linearGradient id="paint6_linear_99_3298" x1="12.1686" y1="8.08423" x2="12.1686" y2="25.2631" gradientUnits="userSpaceOnUse">
<stop stop-color="#000AFF"/>
<stop offset="1" stop-color="#D274FF"/>
</linearGradient>
<linearGradient id="paint7_linear_99_3298" x1="9.30504" y1="15.9579" x2="9.30504" y2="16.6737" gradientUnits="userSpaceOnUse">
<stop stop-color="#000AFF"/>
<stop offset="1" stop-color="#D274FF"/>
</linearGradient>
<linearGradient id="paint8_linear_99_3298" x1="15.7474" y1="18.1053" x2="15.7474" y2="18.821" gradientUnits="userSpaceOnUse">
<stop stop-color="#000AFF"/>
<stop offset="1" stop-color="#D274FF"/>
</linearGradient>
<linearGradient id="paint9_linear_99_3298" x1="13.2421" y1="13.8105" x2="13.2421" y2="14.5263" gradientUnits="userSpaceOnUse">
<stop stop-color="#000AFF"/>
<stop offset="1" stop-color="#D274FF"/>
</linearGradient>
<linearGradient id="paint10_linear_99_3298" x1="9.66293" y1="18.1053" x2="9.66293" y2="18.821" gradientUnits="userSpaceOnUse">
<stop stop-color="#000AFF"/>
<stop offset="1" stop-color="#D274FF"/>
</linearGradient>
<clipPath id="clip0_99_3298">
<rect width="21.4737" height="21.4737" fill="white" transform="translate(0 3.78949)"/>
</clipPath>
</defs>
</svg>
