<svg width="15" height="15" viewBox="0 0 15 15" fill="none" xmlns="http://www.w3.org/2000/svg">
<path d="M12.8262 4.51758C13.2184 4.90891 13.5296 5.37377 13.7419 5.88554C13.9543 6.39731 14.0636 6.94593 14.0636 7.5C14.0636 8.05407 13.9543 8.60269 13.7419 9.11446C13.5296 9.62623 13.2184 10.0911 12.8262 10.4824" stroke="#6174A4" stroke-width="1.2" stroke-linecap="round" stroke-linejoin="round"/>
<path d="M4.6875 9.84375H1.875C1.75068 9.84375 1.63145 9.79436 1.54354 9.70646C1.45564 9.61855 1.40625 9.49932 1.40625 9.375V5.625C1.40625 5.50068 1.45564 5.38145 1.54354 5.29354C1.63145 5.20564 1.75068 5.15625 1.875 5.15625H4.6875L8.90625 1.875V13.125L4.6875 9.84375Z" stroke="#6174A4" stroke-width="1.2" stroke-linecap="round" stroke-linejoin="round"/>
<path d="M4.6875 5.15625V9.84375" stroke="#6174A4" stroke-width="1.2" stroke-linecap="round" stroke-linejoin="round"/>
<path d="M11.168 6.17578C11.3423 6.34944 11.4806 6.55581 11.575 6.78305C11.6694 7.01029 11.718 7.25394 11.718 7.5C11.718 7.74606 11.6694 7.9897 11.575 8.21695C11.4806 8.44419 11.3423 8.65056 11.168 8.82422" stroke="#6174A4" stroke-width="1.2" stroke-linecap="round" stroke-linejoin="round"/>
</svg>
