<svg width="30" height="30" viewBox="0 0 30 30" fill="none" xmlns="http://www.w3.org/2000/svg">
<rect width="30" height="30" rx="15" fill="#E7ECF9"/>
<circle cx="15" cy="15" r="12" fill="white"/>
<path d="M20.8262 12.5176C21.2184 12.9089 21.5296 13.3738 21.7419 13.8855C21.9543 14.3973 22.0636 14.9459 22.0636 15.5C22.0636 16.0541 21.9543 16.6027 21.7419 17.1145C21.5296 17.6262 21.2184 18.0911 20.8262 18.4824" stroke="#6174A4" stroke-width="1.2" stroke-linecap="round" stroke-linejoin="round"/>
<path d="M12.6875 17.8438H9.875C9.75068 17.8438 9.63145 17.7944 9.54354 17.7065C9.45564 17.6185 9.40625 17.4993 9.40625 17.375V13.625C9.40625 13.5007 9.45564 13.3815 9.54354 13.2935C9.63145 13.2056 9.75068 13.1562 9.875 13.1562H12.6875L16.9062 9.875V21.125L12.6875 17.8438Z" stroke="#6174A4" stroke-width="1.2" stroke-linecap="round" stroke-linejoin="round"/>
<path d="M12.6875 13.1562V17.8438" stroke="#6174A4" stroke-width="1.2" stroke-linecap="round" stroke-linejoin="round"/>
<path d="M19.168 14.1758C19.3423 14.3494 19.4806 14.5558 19.575 14.7831C19.6694 15.0103 19.718 15.2539 19.718 15.5C19.718 15.7461 19.6694 15.9897 19.575 16.2169C19.4806 16.4442 19.3423 16.6506 19.168 16.8242" stroke="#6174A4" stroke-width="1.2" stroke-linecap="round" stroke-linejoin="round"/>
</svg>
