<svg width="16" height="16" viewBox="0 0 16 16" fill="none" xmlns="http://www.w3.org/2000/svg">
<path fill-rule="evenodd" clip-rule="evenodd" d="M1.625 1.8125C1.625 1.70895 1.70895 1.625 1.8125 1.625H5.9375C6.04105 1.625 6.125 1.70895 6.125 1.8125V5.9375C6.125 6.04105 6.04105 6.125 5.9375 6.125H1.8125C1.70895 6.125 1.625 6.04105 1.625 5.9375V1.8125ZM1.8125 0.625C1.15666 0.625 0.625 1.15666 0.625 1.8125V5.9375C0.625 6.59334 1.15666 7.125 1.8125 7.125H5.9375C6.59334 7.125 7.125 6.59334 7.125 5.9375V1.8125C7.125 1.15666 6.59334 0.625 5.9375 0.625H1.8125ZM1.625 10.0625C1.625 9.95895 1.70895 9.875 1.8125 9.875H5.9375C6.04105 9.875 6.125 9.95895 6.125 10.0625V14.1875C6.125 14.2911 6.04105 14.375 5.9375 14.375H1.8125C1.70895 14.375 1.625 14.2911 1.625 14.1875V10.0625ZM1.8125 8.875C1.15666 8.875 0.625 9.40666 0.625 10.0625V14.1875C0.625 14.8433 1.15666 15.375 1.8125 15.375H5.9375C6.59334 15.375 7.125 14.8433 7.125 14.1875V10.0625C7.125 9.40666 6.59334 8.875 5.9375 8.875H1.8125ZM10.2589 9.875C10.1554 9.875 10.0714 9.95895 10.0714 10.0625V14.1875C10.0714 14.2911 10.1554 14.375 10.2589 14.375H14.3839C14.4875 14.375 14.5714 14.2911 14.5714 14.1875V10.0625C14.5714 9.95895 14.4875 9.875 14.3839 9.875H10.2589ZM9.07143 10.0625C9.07143 9.40666 9.60309 8.875 10.2589 8.875H14.3839C15.0398 8.875 15.5714 9.40666 15.5714 10.0625V14.1875C15.5714 14.8433 15.0398 15.375 14.3839 15.375H10.2589C9.60309 15.375 9.07143 14.8433 9.07143 14.1875V10.0625ZM10.0714 1.8125C10.0714 1.70895 10.1554 1.625 10.2589 1.625H14.3839C14.4875 1.625 14.5714 1.70895 14.5714 1.8125V5.9375C14.5714 6.04105 14.4875 6.125 14.3839 6.125H10.2589C10.1554 6.125 10.0714 6.04105 10.0714 5.9375V1.8125ZM10.2589 0.625C9.60309 0.625 9.07143 1.15666 9.07143 1.8125V5.9375C9.07143 6.59334 9.60309 7.125 10.2589 7.125H14.3839C15.0398 7.125 15.5714 6.59334 15.5714 5.9375V1.8125C15.5714 1.15666 15.0398 0.625 14.3839 0.625H10.2589Z" fill="url(#paint0_linear_415_478434)"/>
<defs>
<linearGradient id="paint0_linear_415_478434" x1="8.09822" y1="0.625" x2="8.09822" y2="15.375" gradientUnits="userSpaceOnUse">
<stop stop-color="#000AFF"/>
<stop offset="1" stop-color="#D274FF"/>
</linearGradient>
</defs>
</svg>
