<svg width="15" height="16" viewBox="0 0 15 16" fill="none" xmlns="http://www.w3.org/2000/svg">
<path d="M7.56236 8.62489C7.64783 8.62506 7.73243 8.60769 7.81092 8.57387C7.88941 8.54005 7.96013 8.49048 8.01871 8.42824C8.07729 8.366 8.12248 8.29241 8.15149 8.21202C8.1805 8.13162 8.19271 8.04613 8.18736 7.96083L8.18738 7.96083L8.18726 7.95941C8.17347 7.79819 8.09903 7.64821 7.97898 7.53972C7.85905 7.43135 7.70251 7.37246 7.5409 7.37489H2.46527C2.41955 7.37422 2.37511 7.35967 2.33783 7.33319C2.30049 7.30665 2.2721 7.26939 2.25644 7.22635C2.25642 7.2263 2.2564 7.22626 2.25639 7.22621L0.280706 1.70695L0.280622 1.70672C0.205056 1.49821 0.197094 1.27119 0.257865 1.05789C0.318612 0.84468 0.444954 0.656012 0.618964 0.518651C0.78966 0.386344 0.996 0.308061 1.2115 0.293852C1.4271 0.279637 1.64202 0.330197 1.82866 0.439038L1.82865 0.439046L7.56249 8.56239M7.56236 8.62489L7.56249 8.56239M7.56236 8.62489H7.56249V8.56239M7.56236 8.62489H2.46531M7.56249 8.56239H2.46483M2.46531 8.62489C2.46542 8.62489 2.46553 8.62489 2.46565 8.62489L2.46483 8.56239M2.46531 8.62489H2.46483V8.56239M2.46531 8.62489L2.46483 8.56239M13.6773 7.07006L13.7078 7.01552L13.6769 7.06986C13.677 7.06988 13.677 7.06989 13.677 7.06991L13.6773 7.07006ZM13.6773 8.92974L13.6771 8.9298C13.6771 8.92984 13.677 8.92988 13.6769 8.92992L13.7078 8.98427L13.6773 8.92974ZM1.80219 15.5809C1.80207 15.581 1.80194 15.581 1.80182 15.5811L1.80148 15.5813L1.83201 15.6358L1.80219 15.5809ZM1.28398 15.714C1.28386 15.714 1.28373 15.714 1.28361 15.714C1.28351 15.714 1.2834 15.714 1.2833 15.714L1.28358 15.7765L1.28398 15.714ZM0.280802 14.2926C0.280827 14.2925 0.280852 14.2924 0.280878 14.2923L0.221913 14.2718L0.280705 14.2928L0.280802 14.2926ZM2.25639 8.77357C2.25641 8.77351 2.25643 8.77346 2.25645 8.77341L2.25649 8.7733L2.19773 8.75227L2.25639 8.77357Z" fill="#4B7EFE" stroke="#4B7EFE" strokeWidth="0.125"/>
</svg>
