<svg width="36" height="34" viewBox="0 0 36 34" fill="none" xmlns="http://www.w3.org/2000/svg">
<rect x="19" y="2" width="16" height="16" rx="8" fill="#F6DDEF"/>
<path d="M27.625 5.3125H6.375C5.7882 5.3125 5.3125 5.7882 5.3125 6.375V27.625C5.3125 28.2118 5.7882 28.6875 6.375 28.6875H27.625C28.2118 28.6875 28.6875 28.2118 28.6875 27.625V6.375C28.6875 5.7882 28.2118 5.3125 27.625 5.3125Z" stroke="url(#paint0_linear_58_27154)" strokeWidth="1.5" strokeLinecap="round" strokeLinejoin="round"/>
<path d="M23.375 3.1875V7.4375" stroke="url(#paint1_linear_58_27154)" strokeWidth="1.5" strokeLinecap="round" strokeLinejoin="round"/>
<path d="M10.625 3.1875V7.4375" stroke="url(#paint2_linear_58_27154)" strokeWidth="1.5" strokeLinecap="round" strokeLinejoin="round"/>
<path d="M5.3125 11.6875H28.6875" stroke="url(#paint3_linear_58_27154)" strokeWidth="1.5" strokeLinecap="round" strokeLinejoin="round"/>
<path d="M18.6509 15.6526C18.6882 15.5962 18.7413 15.5521 18.8036 15.5258C18.8674 15.5011 18.9369 15.4948 19.0041 15.5078C19.0713 15.5208 19.1335 15.5525 19.1835 15.5991L21.62 18.0357C21.6201 18.0357 21.6201 18.0358 21.6201 18.0358C21.6848 18.1011 21.721 18.1893 21.721 18.2812C21.721 18.3731 21.6848 18.4612 21.6201 18.5265C21.6201 18.5266 21.6201 18.5266 21.62 18.5266L19.1833 20.9634C19.117 21.0265 19.0291 21.062 18.9375 21.0624C18.8917 21.0622 18.8463 21.0534 18.8037 21.0366C18.7414 21.0103 18.6882 20.9661 18.6509 20.9097C18.6134 20.8531 18.5935 20.7867 18.5938 20.7189V20.7187V18.6874V18.625L18.5313 18.6249C17.5266 18.6241 16.5501 18.9576 15.7558 19.5729C14.9616 20.1882 14.3946 21.0501 14.1442 22.0231C14.1243 22.0969 14.0807 22.1622 14.0201 22.2088C13.9606 22.2546 13.888 22.2799 13.813 22.2811L13.7199 22.2672C13.6338 22.2434 13.5603 22.187 13.515 22.11C13.4691 22.0319 13.4559 21.939 13.4781 21.8513C13.7666 20.7307 14.4197 19.7379 15.3345 19.0293C16.2494 18.3206 17.374 17.9365 18.5312 17.9374L18.5938 17.9375V17.8749L18.5938 15.8437L18.5937 15.8435C18.5935 15.7756 18.6134 15.7092 18.6509 15.6526ZM18.5312 20.7187V18.6874C18.5288 18.6874 18.5264 18.6874 18.5239 18.6874H18.4688V18.6878C17.4999 18.7006 16.5609 19.0283 15.7941 19.6223C15.0107 20.2291 14.4516 21.0793 14.2047 22.039C14.1813 22.1262 14.1298 22.2033 14.0582 22.2584C13.9866 22.3134 13.8989 22.3434 13.8086 22.3437L18.5312 20.7187ZM11.9688 23.5624V23.6249H12.0312H19.75C19.8412 23.6249 19.9286 23.6611 19.9931 23.7256C20.0575 23.7901 20.0938 23.8775 20.0938 23.9687C20.0938 24.0598 20.0575 24.1473 19.9931 24.2117C19.9286 24.2762 19.8412 24.3124 19.75 24.3124H12.0312C11.8323 24.3124 11.6416 24.2334 11.5009 24.0927C11.3603 23.9521 11.2812 23.7613 11.2812 23.5624V17.4687C11.2812 17.3775 11.3175 17.2901 11.3819 17.2256C11.4464 17.1611 11.5338 17.1249 11.625 17.1249C11.7162 17.1249 11.8036 17.1611 11.8681 17.2256C11.9325 17.2901 11.9688 17.3775 11.9688 17.4687V23.5624Z" fill="url(#paint4_linear_58_27154)" stroke="url(#paint5_linear_58_27154)" strokeWidth="0.125"/>
<defs>
<linearGradient id="paint0_linear_58_27154" x1="17" y1="5.3125" x2="17" y2="28.6875" gradientUnits="userSpaceOnUse">
<stop stop-color="#000AFF"/>
<stop offset="1" stop-color="#D274FF"/>
</linearGradient>
<linearGradient id="paint1_linear_58_27154" x1="23.875" y1="3.1875" x2="23.875" y2="7.4375" gradientUnits="userSpaceOnUse">
<stop stop-color="#000AFF"/>
<stop offset="1" stop-color="#D274FF"/>
</linearGradient>
<linearGradient id="paint2_linear_58_27154" x1="11.125" y1="3.1875" x2="11.125" y2="7.4375" gradientUnits="userSpaceOnUse">
<stop stop-color="#000AFF"/>
<stop offset="1" stop-color="#D274FF"/>
</linearGradient>
<linearGradient id="paint3_linear_58_27154" x1="17" y1="11.6875" x2="17" y2="12.6875" gradientUnits="userSpaceOnUse">
<stop stop-color="#000AFF"/>
<stop offset="1" stop-color="#D274FF"/>
</linearGradient>
<linearGradient id="paint4_linear_58_27154" x1="16.5011" y1="15.4387" x2="16.5011" y2="24.3749" gradientUnits="userSpaceOnUse">
<stop stop-color="#000AFF"/>
<stop offset="1" stop-color="#D274FF"/>
</linearGradient>
<linearGradient id="paint5_linear_58_27154" x1="16.5011" y1="15.4387" x2="16.5011" y2="24.3749" gradientUnits="userSpaceOnUse">
<stop stop-color="#000AFF"/>
<stop offset="1" stop-color="#D274FF"/>
</linearGradient>
</defs>
</svg>
