<svg width="31" height="30" viewBox="0 0 31 30" fill="none" xmlns="http://www.w3.org/2000/svg">
<rect x="16.3613" y="1.72217" width="13.7778" height="13.7778" rx="6.88889" fill="#F6DDEF"/>
<path d="M17.1211 22.4043L15.4285 25.2291C15.3456 25.3639 15.2295 25.4753 15.0914 25.5525C14.9532 25.6297 14.7976 25.6703 14.6393 25.6703C14.4811 25.6703 14.3254 25.6297 14.1873 25.5525C14.0491 25.4753 13.9331 25.3639 13.8502 25.2291L12.1576 22.4043C12.078 22.2687 11.9643 22.1562 11.828 22.078C11.6916 21.9998 11.5371 21.9585 11.3799 21.9583H4.57509C4.33243 21.9583 4.09972 21.8619 3.92813 21.6903C3.75655 21.5187 3.66016 21.286 3.66016 21.0433V6.40443C3.66016 6.16178 3.75655 5.92906 3.92813 5.75748C4.09972 5.5859 4.33243 5.4895 4.57509 5.4895H24.7036C24.9462 5.4895 25.1789 5.5859 25.3505 5.75748C25.5221 5.92906 25.6185 6.16178 25.6185 6.40443V21.0433C25.6185 21.286 25.5221 21.5187 25.3505 21.6903C25.1789 21.8619 24.9462 21.9583 24.7036 21.9583H17.8988C17.7415 21.9585 17.5871 21.9998 17.4507 22.078C17.3143 22.1562 17.2007 22.2687 17.1211 22.4043V22.4043Z" stroke="url(#paint0_linear_58_23469)" strokeWidth="1.5" strokeLinecap="round" strokeLinejoin="round"/>
<path d="M14.6388 14.8676C15.2704 14.8676 15.7824 14.3556 15.7824 13.724C15.7824 13.0924 15.2704 12.5803 14.6388 12.5803C14.0072 12.5803 13.4951 13.0924 13.4951 13.724C13.4951 14.3556 14.0072 14.8676 14.6388 14.8676Z" fill="url(#paint1_linear_58_23469)"/>
<path d="M20.128 14.8676C20.7597 14.8676 21.2717 14.3556 21.2717 13.724C21.2717 13.0924 20.7597 12.5803 20.128 12.5803C19.4964 12.5803 18.9844 13.0924 18.9844 13.724C18.9844 14.3556 19.4964 14.8676 20.128 14.8676Z" fill="url(#paint2_linear_58_23469)"/>
<path d="M9.14952 14.8676C9.78115 14.8676 10.2932 14.3556 10.2932 13.724C10.2932 13.0924 9.78115 12.5803 9.14952 12.5803C8.51789 12.5803 8.00586 13.0924 8.00586 13.724C8.00586 14.3556 8.51789 14.8676 9.14952 14.8676Z" fill="url(#paint3_linear_58_23469)"/>
<defs>
<linearGradient id="paint0_linear_58_23469" x1="14.6393" y1="5.4895" x2="14.6393" y2="25.6703" gradientUnits="userSpaceOnUse">
<stop stop-color="#000AFF"/>
<stop offset="1" stop-color="#D274FF"/>
</linearGradient>
<linearGradient id="paint1_linear_58_23469" x1="14.6388" y1="12.5803" x2="14.6388" y2="14.8676" gradientUnits="userSpaceOnUse">
<stop stop-color="#000AFF"/>
<stop offset="1" stop-color="#D274FF"/>
</linearGradient>
<linearGradient id="paint2_linear_58_23469" x1="20.128" y1="12.5803" x2="20.128" y2="14.8676" gradientUnits="userSpaceOnUse">
<stop stop-color="#000AFF"/>
<stop offset="1" stop-color="#D274FF"/>
</linearGradient>
<linearGradient id="paint3_linear_58_23469" x1="9.14952" y1="12.5803" x2="9.14952" y2="14.8676" gradientUnits="userSpaceOnUse">
<stop stop-color="#000AFF"/>
<stop offset="1" stop-color="#D274FF"/>
</linearGradient>
</defs>
</svg>
