<svg width="15" height="16" viewBox="0 0 15 16" fill="none" xmlns="http://www.w3.org/2000/svg">
<path d="M1.82865 0.439046L1.82866 0.439038C1.64202 0.330197 1.4271 0.279637 1.2115 0.293852C0.996001 0.308061 0.78966 0.386344 0.618964 0.518651C0.444954 0.656012 0.318612 0.84468 0.257865 1.05789C0.197094 1.27119 0.205056 1.49821 0.280622 1.70672L0.280706 1.70695L2.25639 7.22621C2.2564 7.22626 2.25642 7.2263 2.25644 7.22635C2.2721 7.26939 2.30049 7.30665 2.33783 7.33319C2.37511 7.35967 2.41955 7.37422 2.46527 7.37489H7.5409C7.70251 7.37246 7.85905 7.43135 7.97898 7.53972C8.09903 7.64821 8.17347 7.79819 8.18726 7.95941L8.18738 7.96083L8.18736 7.96083C8.19271 8.04613 8.1805 8.13162 8.15149 8.21202C8.12248 8.29241 8.07729 8.36601 8.01871 8.42824C7.96013 8.49048 7.88941 8.54005 7.81092 8.57387C7.73243 8.60769 7.64783 8.62506 7.56236 8.62489M1.82865 0.439046L7.56236 8.62489M1.82865 0.439046L1.82962 0.439587L13.6769 7.06986C13.677 7.06989 13.677 7.06992 13.6771 7.06994C13.8414 7.16329 13.978 7.2985 14.0731 7.46183C14.1682 7.6252 14.2183 7.81086 14.2183 7.99989C14.2183 8.18892 14.1682 8.37458 14.0731 8.53795C13.978 8.70129 13.8414 8.83652 13.677 8.92987C13.677 8.92989 13.677 8.9299 13.6769 8.92992L1.80219 15.5809C1.80209 15.581 1.80198 15.581 1.80188 15.5811C1.64275 15.6674 1.46474 15.7131 1.28369 15.714C1.11366 15.7128 0.946347 15.6712 0.795629 15.5925C0.644826 15.5137 0.514991 15.4001 0.416903 15.2611C0.318815 15.1221 0.255306 14.9616 0.231648 14.7932C0.208003 14.6248 0.22485 14.4532 0.28079 14.2926C0.280819 14.2925 0.280849 14.2924 0.280878 14.2923L2.25639 8.77357C2.25641 8.77351 2.25643 8.77346 2.25645 8.77341C2.27211 8.73037 2.3005 8.69312 2.33783 8.6666C2.3751 8.64011 2.41953 8.62557 2.46524 8.62489M1.82865 0.439046L2.46524 8.62489M7.56236 8.62489H2.46524M7.56236 8.62489H2.46524" fill="#4B7EFE" stroke="#4B7EFE" strokeWidth="0.125"/>
</svg>
