<svg width="14" height="14" viewBox="0 0 14 14" fill="none" xmlns="http://www.w3.org/2000/svg">
<path fill-rule="evenodd" clip-rule="evenodd" d="M6.28401 2.97798C6.69409 3.43255 6.56407 3.94752 6.20148 4.43614C6.11552 4.55199 6.01643 4.66614 5.89675 4.79192C5.83931 4.85229 5.79452 4.8977 5.70083 4.99148C5.48805 5.20446 5.30918 5.38343 5.16422 5.52838C5.09392 5.59868 5.57388 6.55778 6.50535 7.49016C7.43632 8.42204 8.39536 8.90233 8.46599 8.83166L9.00223 8.29513C9.29753 7.99953 9.45392 7.85692 9.66882 7.71593C10.1156 7.42284 10.6028 7.3432 11.0138 7.71068C12.3557 8.67052 13.115 9.25953 13.487 9.64606C14.2126 10.4 14.1175 11.5605 13.4911 12.2225C13.2739 12.4521 12.9985 12.7277 12.6732 13.0412C10.7056 15.0099 6.55307 13.8119 3.37058 10.6262C0.187365 7.43989 -1.01007 3.28693 0.953415 1.32239C1.30592 0.96435 1.42214 0.848186 1.76545 0.509914C2.40462 -0.119887 3.61867 -0.218501 4.35668 0.510537C4.74488 0.894013 5.36377 1.69031 6.28401 2.97798ZM9.9915 9.28473L9.45516 9.82137C8.54348 10.7336 6.99087 9.95601 5.51597 8.47966C4.04006 7.0023 3.26338 5.45027 4.17536 4.53836C4.32014 4.3936 4.49883 4.2148 4.71145 4.00198C4.79723 3.91611 4.83647 3.87633 4.88357 3.82683C4.94775 3.75939 5.00048 3.70015 5.0427 3.64774C4.22714 2.51167 3.67273 1.8018 3.37386 1.50656C3.21951 1.35408 2.87389 1.38216 2.747 1.50718C2.4086 1.84062 2.29737 1.9518 1.94629 2.30837C0.683571 3.57178 1.65022 6.92434 4.35996 9.63674C7.06885 12.3483 10.4209 13.3154 11.6932 12.0425C12.0134 11.7337 12.2744 11.4726 12.4752 11.2603C12.6204 11.1069 12.6463 10.7904 12.4794 10.6169C12.2013 10.328 11.5205 9.7972 10.345 8.95306C10.2594 9.02203 10.154 9.12205 9.9915 9.28473ZM12.6003 2.39001L8.8962 6.09414L7.90649 5.10443L11.6106 1.4003H9.10118V0.000632921H14V4.89945H12.6003V2.39001Z" fill="#555555"/>
</svg>
