<svg width="20" height="21" viewBox="0 0 20 21" fill="none" xmlns="http://www.w3.org/2000/svg">
<path d="M6.09375 16.2266L3.52344 18.3828C3.43238 18.4582 3.32183 18.5061 3.20461 18.5212C3.08738 18.5363 2.96829 18.5178 2.86115 18.4679C2.75401 18.418 2.66321 18.3387 2.59929 18.2393C2.53536 18.1399 2.50094 18.0244 2.5 17.9063V5.5C2.5 5.33424 2.56585 5.17527 2.68306 5.05806C2.80027 4.94085 2.95924 4.875 3.125 4.875H16.875C17.0408 4.875 17.1997 4.94085 17.3169 5.05806C17.4342 5.17527 17.5 5.33424 17.5 5.5V15.5C17.5 15.6658 17.4342 15.8247 17.3169 15.9419C17.1997 16.0592 17.0408 16.125 16.875 16.125H6.38281L6.09375 16.2266Z" stroke="#333333" stroke-width="1.2" stroke-linecap="round" stroke-linejoin="round"/>
<path d="M7.5 9.25H12.5" stroke="#333333" stroke-width="1.5" stroke-linecap="round" stroke-linejoin="round"/>
<path d="M7.5 11.75H12.5" stroke="#333333" stroke-width="1.5" stroke-linecap="round" stroke-linejoin="round"/>
</svg>
