<svg width="23" height="20" viewBox="0 0 23 20" fill="none" xmlns="http://www.w3.org/2000/svg">
<path fill-rule="evenodd" clip-rule="evenodd" d="M5.5999 13.0915C5.18662 13.0488 4.78529 12.9658 4.3999 12.8466V14.3749C4.3999 14.6998 4.52896 15.0114 4.7587 15.2411C4.98843 15.4708 5.30001 15.5999 5.6249 15.5999L10.2724 15.5999L10.2725 15.5999C10.2755 15.5999 10.2784 15.6007 10.2809 15.6022C10.2835 15.6037 10.2857 15.6058 10.2872 15.6084L10.2872 15.6084L10.2899 15.613L11.4462 17.5427L11.4461 17.5427L11.4497 17.5485C11.56 17.728 11.7145 17.8761 11.8983 17.9789C12.0822 18.0817 12.2893 18.1356 12.4999 18.1356C12.7105 18.1356 12.9176 18.0817 13.1015 17.9789C13.2853 17.8761 13.4398 17.728 13.5501 17.5485L13.5501 17.5486L13.5536 17.5427L14.7099 15.613L14.1952 15.3046L14.7126 15.6084C14.7141 15.6058 14.7163 15.6037 14.7189 15.6022C14.7214 15.6007 14.7243 15.5999 14.7273 15.5999L14.7274 15.5999L19.3749 15.5999C19.6998 15.5999 20.0114 15.4708 20.2411 15.2411C20.4708 15.0114 20.5999 14.6998 20.5999 14.3749V4.3749C20.5999 4.05001 20.4708 3.73843 20.2411 3.5087C20.0114 3.27896 19.6998 3.1499 19.3749 3.1499H11.269C11.5445 3.52048 11.7799 3.92262 11.9689 4.3499H19.3749C19.3815 4.3499 19.3879 4.35254 19.3926 4.35722C19.3973 4.36191 19.3999 4.36827 19.3999 4.3749V14.3749C19.3999 14.3815 19.3973 14.3879 19.3926 14.3926C19.3879 14.3973 19.3815 14.3999 19.3749 14.3999H14.7265L14.7255 14.3999C14.5137 14.4002 14.3056 14.4558 14.1219 14.5612C13.9391 14.6661 13.7866 14.8166 13.6794 14.998L12.5272 16.9211C12.5243 16.9254 12.5204 16.9289 12.5159 16.9315C12.511 16.9342 12.5055 16.9356 12.4999 16.9356C12.4943 16.9356 12.4888 16.9342 12.4839 16.9315C12.4794 16.9289 12.4755 16.9254 12.4726 16.9211L11.3204 14.9981C11.2132 14.8166 11.0608 14.6661 10.8779 14.5612C10.6942 14.4558 10.4861 14.4002 10.2743 14.3999H10.2733H5.6249C5.61827 14.3999 5.61191 14.3973 5.60722 14.3926C5.60254 14.3879 5.5999 14.3815 5.5999 14.3749V13.0915ZM11.8075 9.73708C11.9878 9.3876 12.1362 9.01893 12.2487 8.63493C12.3275 8.60817 12.412 8.59365 12.4999 8.59365C12.9314 8.59365 13.2812 8.94343 13.2812 9.3749C13.2812 9.80637 12.9314 10.1562 12.4999 10.1562C12.1991 10.1562 11.9381 9.98619 11.8075 9.73708ZM17.0312 9.3749C17.0312 9.80637 16.6814 10.1562 16.2499 10.1562C15.8184 10.1562 15.4687 9.80637 15.4687 9.3749C15.4687 8.94343 15.8184 8.59365 16.2499 8.59365C16.6814 8.59365 17.0312 8.94343 17.0312 9.3749Z" fill="url(#paint0_linear_987_227588)"/>
<path d="M6.25 11.5625C8.83883 11.5625 10.9375 9.46383 10.9375 6.875C10.9375 4.28617 8.83883 2.1875 6.25 2.1875C3.66117 2.1875 1.5625 4.28617 1.5625 6.875C1.5625 9.46383 3.66117 11.5625 6.25 11.5625Z" stroke="url(#paint1_linear_987_227588)" stroke-width="1.2" stroke-linecap="round" stroke-linejoin="round"/>
<path d="M2.93359 3.55957L9.56445 10.1904" stroke="url(#paint2_linear_987_227588)" stroke-width="1.2" stroke-linecap="round" stroke-linejoin="round"/>
<defs>
<linearGradient id="paint0_linear_987_227588" x1="12.4999" y1="3.1499" x2="12.4999" y2="18.1356" gradientUnits="userSpaceOnUse">
<stop stop-color="#000AFF"/>
<stop offset="1" stop-color="#D274FF"/>
</linearGradient>
<linearGradient id="paint1_linear_987_227588" x1="6.25" y1="2.1875" x2="6.25" y2="11.5625" gradientUnits="userSpaceOnUse">
<stop stop-color="#000AFF"/>
<stop offset="1" stop-color="#D274FF"/>
</linearGradient>
<linearGradient id="paint2_linear_987_227588" x1="6.24902" y1="3.55957" x2="6.24902" y2="10.1904" gradientUnits="userSpaceOnUse">
<stop stop-color="#000AFF"/>
<stop offset="1" stop-color="#D274FF"/>
</linearGradient>
</defs>
</svg>
