<svg width="197" height="150" viewBox="0 0 197 150" fill="none" xmlns="http://www.w3.org/2000/svg">
<g clip-path="url(#clip0_326_35146)">
<path d="M38.0298 41.3954L0.00390625 66.8057L37.4592 122.739L75.4851 97.3291L38.0298 41.3954Z" fill="#F5F5F5"/>
<path d="M55.8352 94.68L55.4014 97.3478L36.4971 94.6258L36.9309 91.958L55.8352 94.68Z" fill="#E0E0E0"/>
<path d="M46.3118 85.1631L49.0265 85.5524L46.0169 104.146L43.3057 103.753L46.3118 85.1631Z" fill="#E0E0E0"/>
<path d="M28.9026 61.5317C28.9298 61.5724 25.1204 64.1657 20.3926 67.3244C15.6648 70.4831 11.8114 73.0121 11.7843 72.9715C11.7572 72.9309 15.5666 70.3375 20.2943 67.1788C25.0221 64.0201 28.8755 61.4911 28.9026 61.5317Z" fill="#E0E0E0"/>
<path d="M42.8855 58.0252C42.9126 58.0658 36.575 62.3485 28.7327 67.5859C20.8869 72.8268 14.5086 77.0418 14.4815 77.0011C14.4544 76.9605 20.7886 72.6812 28.6344 67.437C36.4768 62.1962 42.8584 57.9811 42.8855 58.0218V58.0252Z" fill="#E0E0E0"/>
<path d="M45.6883 62.2088C45.7154 62.2494 39.3778 66.5321 31.5354 71.7695C23.6897 77.0104 17.3114 81.2254 17.2843 81.1847C17.2572 81.1441 23.5914 76.8648 31.4371 71.6206C39.2795 66.3797 45.6612 62.1647 45.6883 62.2054V62.2088Z" fill="#E0E0E0"/>
<path d="M48.491 66.3972C48.5181 66.4379 42.1805 70.7206 34.3381 75.958C26.4924 81.1988 20.1141 85.4138 20.087 85.3732C20.0599 85.3326 26.3941 81.0533 34.2399 75.809C42.0822 70.5682 48.4639 66.3532 48.491 66.3938V66.3972Z" fill="#E0E0E0"/>
<path d="M51.2976 70.5847C51.3248 70.6254 44.9871 74.9081 37.1448 80.1455C29.299 85.3863 22.9208 89.6013 22.8936 89.5607C22.8665 89.5201 29.2007 85.2408 37.0465 79.9965C44.8889 74.7557 51.2705 70.5407 51.2976 70.5813V70.5847Z" fill="#E0E0E0"/>
<path d="M165.184 78.8753L133.248 100.216L164.704 147.19L196.639 125.849L165.184 78.8753Z" fill="#F5F5F5"/>
<path d="M180.138 123.634L179.778 125.875L163.9 123.59L164.263 121.349L180.138 123.634Z" fill="#E0E0E0"/>
<path d="M172.143 115.641L174.424 115.969L171.896 131.583L169.618 131.255L172.143 115.641Z" fill="#E0E0E0"/>
<path d="M157.522 95.794C157.549 95.8346 154.353 98.0183 150.381 100.669C146.409 103.323 143.169 105.439 143.142 105.399C143.115 105.358 146.311 103.174 150.283 100.52C154.251 97.8693 157.495 95.75 157.522 95.7906V95.794Z" fill="#E0E0E0"/>
<path d="M169.265 92.849C169.292 92.8896 163.975 96.4918 157.386 100.893C150.798 105.294 145.436 108.829 145.409 108.788C145.382 108.747 150.7 105.149 157.288 100.744C163.873 96.3429 169.238 92.8084 169.265 92.849Z" fill="#E0E0E0"/>
<path d="M171.621 96.3627C171.648 96.4033 166.33 100.006 159.742 104.407C153.153 108.808 147.792 112.342 147.765 112.302C147.738 112.261 153.055 108.662 159.644 104.258C166.229 99.8565 171.593 96.322 171.621 96.3627Z" fill="#E0E0E0"/>
<path d="M173.972 99.8807C173.999 99.9213 168.682 103.524 162.093 107.921C155.505 112.323 150.143 115.857 150.116 115.816C150.089 115.776 155.407 112.177 161.995 107.772C168.58 103.371 173.945 99.8367 173.972 99.8773V99.8807Z" fill="#E0E0E0"/>
<path d="M176.328 103.398C176.355 103.438 171.037 107.041 164.449 111.442C157.86 115.843 152.499 119.378 152.472 119.337C152.445 119.296 157.762 115.697 164.351 111.293C170.936 106.892 176.301 103.357 176.328 103.398Z" fill="#E0E0E0"/>
<path d="M114.659 43.4498L79.8135 24.832L52.3707 76.0878L87.2166 94.7055L114.659 43.4498Z" fill="#F5F5F5"/>
<path d="M81.2537 78.6699L79.044 79.4249L73.4316 63.9293L75.6413 63.1709L81.2537 78.6699Z" fill="#E0E0E0"/>
<path d="M84.6432 67.5518L85.4498 69.7761L70.0429 75.0474L69.2363 72.8231L84.6432 67.5518Z" fill="#E0E0E0"/>
<path d="M95.5896 44.6854C95.5625 44.7362 92.0277 42.9012 87.6964 40.5855C83.3618 38.2698 79.8744 36.3536 79.9015 36.3028C79.9286 36.252 83.4635 38.087 87.7947 40.4027C92.126 42.7184 95.6168 44.6346 95.5896 44.6854Z" fill="#E0E0E0"/>
<path d="M103.951 53.908C103.924 53.9588 98.0745 50.8881 90.8896 47.0489C83.7014 43.2097 77.8958 40.0543 77.9229 40.0036C77.9501 39.9528 83.7996 43.0235 90.9879 46.866C98.1728 50.7053 103.978 53.8606 103.951 53.9114V53.908Z" fill="#E0E0E0"/>
<path d="M101.897 57.7439C101.869 57.7947 96.0198 54.724 88.8349 50.8848C81.6467 47.0456 75.8411 43.8903 75.8683 43.8395C75.8954 43.7887 81.745 46.8594 88.9332 50.702C96.1181 54.5412 101.924 57.6965 101.897 57.7473V57.7439Z" fill="#E0E0E0"/>
<path d="M99.8428 61.5799C99.8157 61.6306 93.9661 58.56 86.7812 54.7207C79.593 50.8815 73.7874 47.7262 73.8145 47.6754C73.8417 47.6246 79.6912 50.6953 86.8795 54.5379C94.0644 58.3771 99.8699 61.5325 99.8428 61.5832V61.5799Z" fill="#E0E0E0"/>
<path d="M97.7891 65.4158C97.762 65.4666 91.9124 62.3959 84.7275 58.5567C77.5392 54.7175 71.7337 51.5621 71.7608 51.5114C71.7879 51.4606 77.6375 54.5313 84.8258 58.3739C92.0107 62.2131 97.8162 65.3684 97.7891 65.4192V65.4158Z" fill="#E0E0E0"/>
<path opacity="0.2" d="M97.972 0H97.0977V14.8896H97.972V0Z" fill="black"/>
<path d="M77.1221 32.9041H117.947C117.947 32.9041 114.178 14.8828 97.2262 14.8828C82.1481 14.8828 77.1221 32.9041 77.1221 32.9041Z" fill="#645DF6"/>
<path d="M97.972 0H97.0977V14.8896H97.972V0Z" fill="#645DF6"/>
<path d="M3.59576 127.703C4.74128 127.744 5.81562 128.363 6.57139 129.227C7.32715 130.087 7.79146 131.17 8.08631 132.277C8.65907 134.417 8.3066 136.946 7.69657 139.075C5.37504 138.246 3.94484 135.774 3.29752 134.474C2.27401 132.419 1.67415 128.089 3.59237 127.703" fill="url(#paint0_linear_326_35146)"/>
<path d="M11.038 141.668C10.306 140.619 10.2891 139.159 10.8686 138.015C11.4481 136.874 12.5597 136.051 13.7832 135.676C14.3492 135.503 15.0067 135.428 15.4981 135.757C15.959 136.065 16.159 136.668 16.098 137.216C16.037 137.764 15.7591 138.269 15.4303 138.712C14.3017 140.239 12.9292 141.509 11.038 141.665" fill="url(#paint1_linear_326_35146)"/>
<path d="M11.2917 148.822C11.2917 148.822 11.2442 148.666 11.1866 148.379C11.1256 148.06 11.0443 147.651 10.9494 147.16C10.7664 146.134 10.4749 144.675 10.6952 143.063C10.9053 141.459 11.5459 140.084 12.2169 139.265C12.5456 138.852 12.8642 138.557 13.0981 138.378C13.2099 138.283 13.3116 138.225 13.3726 138.178C13.437 138.134 13.4742 138.114 13.4776 138.12C13.5014 138.148 12.9354 138.5 12.3084 139.336C11.6746 140.159 11.0646 141.506 10.8545 143.087C10.6376 144.668 10.9053 146.114 11.0612 147.143C11.1425 147.661 11.2103 148.081 11.251 148.372C11.2883 148.663 11.3052 148.826 11.2917 148.826V148.822Z" fill="#263238"/>
<path d="M4.34473 130.964C4.34473 130.964 4.38201 131.021 4.43962 131.14C4.50063 131.272 4.58196 131.445 4.68025 131.654C4.88359 132.105 5.17505 132.758 5.52413 133.567C6.22228 135.189 7.15768 137.444 8.13373 139.952C9.10979 142.465 9.94012 144.76 10.5163 146.426C10.8043 147.258 11.0348 147.936 11.1873 148.406C11.2585 148.63 11.3161 148.809 11.3602 148.948C11.3974 149.073 11.4144 149.137 11.411 149.141C11.4076 149.144 11.3771 149.08 11.3297 148.958C11.2788 148.819 11.211 148.643 11.1297 148.426C10.9535 147.946 10.7094 147.279 10.4112 146.463C9.80456 144.804 8.95728 142.519 7.98461 140.007C7.00855 137.498 6.0935 135.24 5.42246 133.608C5.09372 132.806 4.82259 132.149 4.62602 131.675C4.5379 131.458 4.47012 131.282 4.4159 131.147C4.36845 131.025 4.34812 130.96 4.3515 130.957L4.34473 130.964Z" fill="#263238"/>
<path d="M8.53672 144.089C7.16752 141.763 4.61553 140.179 1.9212 139.982C1.23661 139.932 0.409668 140.047 0.10465 140.663C-0.200369 141.279 0.206323 142.007 0.674018 142.515C2.61936 144.617 5.90678 145.352 8.56044 144.275" fill="url(#paint2_linear_326_35146)"/>
<path d="M2.96532 141.818C2.96532 141.818 3.11783 141.814 3.39573 141.835C3.53469 141.845 3.70414 141.855 3.89732 141.892C4.0905 141.929 4.31418 141.95 4.5548 142.014C4.79543 142.072 5.06317 142.132 5.33768 142.231C5.61898 142.312 5.90705 142.434 6.20868 142.562C6.80516 142.833 7.44231 143.189 8.04557 143.649C8.64544 144.116 9.15041 144.638 9.56388 145.149C9.76045 145.41 9.95024 145.66 10.0994 145.914C10.262 146.158 10.384 146.402 10.4959 146.622C10.6179 146.838 10.6891 147.052 10.7704 147.231C10.8517 147.411 10.8992 147.573 10.9399 147.705C11.0212 147.969 11.0619 148.115 11.0517 148.118C11.0178 148.132 10.8517 147.539 10.3942 146.672C10.2756 146.459 10.1502 146.222 9.98413 145.985C9.83501 145.738 9.64522 145.498 9.44527 145.244C9.03519 144.746 8.5336 144.238 7.9439 143.778C7.35081 143.324 6.7306 142.972 6.14429 142.698C5.84944 142.569 5.56475 142.444 5.29024 142.359C5.0225 142.258 4.76154 142.193 4.5243 142.126C3.57197 141.885 2.95854 141.851 2.96193 141.818H2.96532Z" fill="#263238"/>
<path d="M156.81 35.711C155.814 35.9412 155.329 37.0856 155.234 38.1012C155.139 39.1169 155.268 40.1935 154.841 41.1211C154.36 42.1673 153.211 42.9358 153.17 44.0835C153.147 44.7843 153.563 45.4445 153.543 46.1453C153.509 47.2964 152.337 48.1665 152.276 49.3142C152.232 50.1436 152.784 50.9358 152.652 51.7551C152.55 52.3916 152.052 52.8927 151.842 53.5055C151.425 54.7209 152.259 56.0615 153.35 56.7454C154.563 57.5072 156.119 57.7069 157.485 57.2702C158.85 56.8335 160.003 55.7738 160.548 54.4466C161.152 52.9841 161.019 51.3387 160.887 49.761C160.481 44.8486 160.176 39.9294 159.976 35.0068" fill="#263238"/>
<path d="M153.916 53.0378C153.896 53.0175 154.187 52.9328 154.37 52.4961C154.458 52.2828 154.506 51.9984 154.485 51.67C154.475 51.3382 154.36 50.9794 154.238 50.5731C154.126 50.1702 153.977 49.703 154.062 49.185C154.147 48.6569 154.526 48.2235 154.868 47.8004C155.041 47.5837 155.217 47.3602 155.326 47.1063C155.441 46.8558 155.465 46.5646 155.38 46.2938C155.204 45.7419 154.662 45.3323 154.414 44.6958C154.292 44.3742 154.289 44.0255 154.36 43.7072C154.428 43.389 154.557 43.0978 154.689 42.8202C154.953 42.2684 155.248 41.7639 155.363 41.2256C155.6 40.1524 155.489 39.1266 155.651 38.2836C155.797 37.4406 156.156 36.8041 156.509 36.4791C156.682 36.3098 156.848 36.2218 156.956 36.1608C157.071 36.1101 157.132 36.0897 157.136 36.0931C157.146 36.1134 156.885 36.1913 156.556 36.5265C156.231 36.8549 155.902 37.4778 155.773 38.3039C155.705 38.7135 155.695 39.1774 155.678 39.6717C155.661 40.1659 155.644 40.7042 155.519 41.2595C155.4 41.8215 155.102 42.3496 154.845 42.8879C154.59 43.4195 154.357 44.0424 154.58 44.6247C154.797 45.2003 155.343 45.6099 155.546 46.2328C155.648 46.5443 155.614 46.8863 155.482 47.1639C155.356 47.4449 155.173 47.6785 154.997 47.8951C154.641 48.3217 154.289 48.7314 154.208 49.2054C154.123 49.6759 154.255 50.133 154.36 50.5325C154.472 50.9354 154.584 51.3145 154.587 51.6599C154.597 52.0018 154.54 52.2997 154.435 52.5164C154.333 52.7365 154.191 52.8753 154.089 52.943C153.984 53.0141 153.919 53.031 153.919 53.031L153.916 53.0378Z" fill="#455A64"/>
<path d="M151.249 61.0654L148.189 69.8746L135.432 70.5585L133.304 75.2881L146.623 76.6356C149.28 77.7325 152.313 76.3884 153.282 73.6867L156.838 63.7739L151.249 61.0688V61.0654Z" fill="#B78876"/>
<path d="M177.636 144.123C177.636 144.123 168.285 114.459 168.089 113.497C167.909 112.627 171.481 91.2811 171.932 85.7559L159.301 86.2265C159.301 86.2265 159.301 86.2603 159.301 86.3179L153.933 86.6158L158.742 147.281H164.554L163.978 127.154C167.564 136.769 172.698 146.564 172.698 146.564L177.639 144.123H177.636Z" fill="#B78876"/>
<path d="M164.212 134.366C164.219 134.183 164.141 127.622 164.141 127.622C164.07 128.014 161.911 121.927 161.965 121.555C161.992 121.362 164.212 134.366 164.212 134.366Z" fill="#A36957"/>
<path d="M161.718 118.674C161.718 118.674 161.691 118.806 161.681 119.043C161.667 119.28 161.664 119.625 161.687 120.048C161.694 120.262 161.718 120.492 161.745 120.742C161.775 120.99 161.809 121.257 161.867 121.531C161.972 122.086 162.135 122.686 162.341 123.298C162.765 124.524 163.229 125.597 163.561 126.379C163.717 126.735 163.853 127.04 163.965 127.297C164.063 127.513 164.124 127.629 164.138 127.622C164.151 127.618 164.114 127.49 164.036 127.266C163.958 127.043 163.839 126.721 163.687 126.325C163.389 125.533 162.945 124.453 162.524 123.234C162.318 122.625 162.155 122.036 162.04 121.494C161.979 121.223 161.938 120.962 161.901 120.719C161.867 120.475 161.836 120.245 161.819 120.035C161.779 119.615 161.762 119.273 161.752 119.039C161.742 118.802 161.728 118.674 161.714 118.674H161.718Z" fill="#A36957"/>
<path d="M158.627 147.579V147.034L164.578 146.773L164.595 149.021L164.229 149.045C162.596 149.14 155.912 149.418 154.818 149.089C153.598 148.724 158.627 147.576 158.627 147.576V147.579Z" fill="#455A64"/>
<path d="M164.68 148.89C164.68 148.89 164.646 148.896 164.578 148.9C164.49 148.907 164.395 148.91 164.287 148.92C163.995 148.934 163.636 148.951 163.209 148.971C162.301 149.008 161.043 149.039 159.654 149.045C158.264 149.052 157.007 149.028 156.099 149.001C155.675 148.984 155.316 148.971 155.021 148.961C154.913 148.954 154.818 148.951 154.73 148.944C154.662 148.94 154.628 148.937 154.628 148.934C154.628 148.934 154.662 148.93 154.73 148.93C154.818 148.93 154.913 148.93 155.021 148.93C155.313 148.934 155.675 148.94 156.099 148.947C157.007 148.961 158.264 148.978 159.654 148.971C161.04 148.964 162.297 148.94 163.209 148.917C163.633 148.907 163.992 148.896 164.287 148.89C164.395 148.89 164.49 148.886 164.578 148.883C164.646 148.883 164.68 148.883 164.68 148.883V148.89Z" fill="#263238"/>
<path d="M156.699 149.079C156.679 149.079 156.658 148.825 156.496 148.568C156.336 148.307 156.116 148.175 156.126 148.158C156.13 148.141 156.384 148.249 156.557 148.53C156.73 148.808 156.716 149.086 156.699 149.082V149.079Z" fill="#263238"/>
<path d="M158.444 148.189C158.444 148.189 158.343 148.097 158.258 147.962C158.17 147.827 158.115 147.708 158.129 147.698C158.146 147.688 158.231 147.789 158.315 147.925C158.404 148.06 158.458 148.179 158.444 148.189Z" fill="#263238"/>
<path d="M158.922 147.931C158.922 147.931 158.814 147.884 158.712 147.793C158.61 147.701 158.536 147.616 158.549 147.6C158.563 147.586 158.658 147.647 158.76 147.738C158.861 147.83 158.936 147.914 158.922 147.931Z" fill="#263238"/>
<path d="M159.223 147.372C159.223 147.393 159.084 147.41 158.915 147.413C158.745 147.413 158.606 147.403 158.606 147.382C158.606 147.362 158.745 147.345 158.915 147.342C159.084 147.342 159.223 147.352 159.223 147.372Z" fill="#263238"/>
<path d="M159.329 146.98C159.335 146.996 159.186 147.064 158.983 147.081C158.783 147.098 158.624 147.054 158.627 147.034C158.627 147.013 158.786 147.024 158.976 147.01C159.166 146.996 159.318 146.959 159.325 146.98H159.329Z" fill="#263238"/>
<path d="M158.241 147.67C158.241 147.67 158.095 147.697 157.861 147.67C157.743 147.657 157.604 147.63 157.455 147.582C157.38 147.555 157.302 147.538 157.221 147.487C157.183 147.464 157.139 147.426 157.126 147.369C157.109 147.311 157.139 147.247 157.183 147.217C157.546 147.027 157.912 147.23 158.048 147.416C158.122 147.511 158.156 147.606 158.173 147.67C158.19 147.735 158.187 147.772 158.183 147.772C158.17 147.775 158.156 147.623 158.007 147.447C157.932 147.362 157.824 147.277 157.682 147.237C157.546 147.196 157.356 147.186 157.228 147.271C157.167 147.315 157.19 147.386 157.258 147.426C157.322 147.467 157.4 147.491 157.472 147.518C157.617 147.565 157.749 147.599 157.865 147.619C158.092 147.66 158.237 147.66 158.237 147.67H158.241Z" fill="#263238"/>
<path d="M158.143 147.691C158.143 147.691 158.082 147.6 158.099 147.427C158.109 147.343 158.139 147.244 158.2 147.15C158.268 147.065 158.353 146.95 158.516 146.953C158.604 146.963 158.648 147.065 158.634 147.129C158.627 147.197 158.597 147.255 158.57 147.299C158.512 147.393 158.451 147.471 158.39 147.529C158.272 147.647 158.177 147.691 158.173 147.684C158.166 147.674 158.248 147.617 158.353 147.495C158.404 147.434 158.461 147.359 158.512 147.265C158.563 147.183 158.6 147.041 158.505 147.024C158.41 147.014 158.312 147.109 158.255 147.187C158.194 147.268 158.163 147.359 158.146 147.434C158.119 147.59 158.153 147.688 158.139 147.691H158.143Z" fill="#263238"/>
<path d="M164.554 147.267C164.554 147.267 164.385 147.25 164.117 147.284C163.853 147.315 163.483 147.423 163.165 147.68C162.846 147.938 162.657 148.273 162.572 148.523C162.484 148.777 162.474 148.947 162.46 148.947C162.457 148.947 162.453 148.903 162.46 148.828C162.467 148.75 162.484 148.642 162.524 148.51C162.602 148.246 162.789 147.894 163.121 147.626C163.453 147.359 163.839 147.254 164.114 147.234C164.253 147.223 164.365 147.23 164.439 147.24C164.514 147.25 164.558 147.264 164.554 147.267Z" fill="#263238"/>
<path d="M161.701 148.416C161.701 148.433 161.318 148.497 160.836 148.497C160.355 148.497 159.969 148.443 159.969 148.422C159.969 148.402 160.358 148.426 160.833 148.422C161.311 148.422 161.697 148.392 161.697 148.412L161.701 148.416Z" fill="#263238"/>
<path d="M162.864 148.405C162.864 148.405 162.833 148.486 162.793 148.574C162.752 148.662 162.732 148.74 162.711 148.74C162.691 148.74 162.681 148.645 162.728 148.544C162.772 148.442 162.85 148.388 162.864 148.401V148.405Z" fill="#263238"/>
<path d="M163.297 147.86C163.297 147.86 163.274 147.935 163.213 147.999C163.152 148.06 163.091 148.1 163.077 148.087C163.063 148.073 163.101 148.012 163.162 147.948C163.223 147.887 163.284 147.846 163.297 147.86Z" fill="#263238"/>
<path d="M163.925 147.606C163.921 147.626 163.843 147.626 163.755 147.657C163.667 147.687 163.606 147.735 163.589 147.721C163.572 147.711 163.623 147.626 163.731 147.589C163.84 147.552 163.931 147.589 163.925 147.606Z" fill="#263238"/>
<path d="M164.368 147.488C164.375 147.505 164.341 147.535 164.294 147.556C164.246 147.576 164.199 147.576 164.192 147.556C164.185 147.539 164.219 147.508 164.267 147.488C164.314 147.468 164.362 147.468 164.368 147.488Z" fill="#263238"/>
<path d="M172.579 147.055L172.352 146.557L177.677 143.883L178.615 145.928L178.29 146.1C176.84 146.855 170.854 149.841 169.722 149.99C168.458 150.156 172.579 147.052 172.579 147.052V147.055Z" fill="#455A64"/>
<path d="M178.636 145.772C178.636 145.772 178.605 145.792 178.548 145.823C178.47 145.863 178.385 145.907 178.29 145.958C178.029 146.09 177.707 146.253 177.328 146.446C176.514 146.852 175.379 147.394 174.115 147.969C172.851 148.541 171.695 149.036 170.851 149.384C170.458 149.543 170.122 149.679 169.851 149.787C169.75 149.828 169.662 149.862 169.577 149.892C169.512 149.916 169.482 149.926 169.479 149.923C169.479 149.923 169.509 149.906 169.57 149.879C169.651 149.845 169.739 149.804 169.838 149.76C170.105 149.645 170.438 149.503 170.827 149.337C171.664 148.978 172.817 148.477 174.081 147.905C175.345 147.333 176.48 146.794 177.301 146.402C177.684 146.219 178.009 146.063 178.273 145.934C178.372 145.887 178.46 145.846 178.538 145.809C178.599 145.782 178.632 145.769 178.632 145.769L178.636 145.772Z" fill="#263238"/>
<path d="M171.434 149.215C171.413 149.226 171.295 148.999 171.037 148.829C170.786 148.657 170.529 148.626 170.532 148.606C170.529 148.589 170.807 148.586 171.078 148.772C171.352 148.955 171.451 149.212 171.434 149.215Z" fill="#263238"/>
<path d="M172.661 147.684C172.661 147.684 172.532 147.644 172.396 147.556C172.261 147.468 172.162 147.383 172.173 147.366C172.183 147.349 172.301 147.407 172.437 147.495C172.573 147.583 172.671 147.668 172.661 147.684Z" fill="#263238"/>
<path d="M172.993 147.258C172.986 147.279 172.878 147.258 172.746 147.218C172.614 147.177 172.515 147.126 172.519 147.11C172.525 147.089 172.634 147.11 172.766 147.15C172.898 147.191 172.996 147.242 172.993 147.258Z" fill="#263238"/>
<path d="M173.037 146.622C173.044 146.639 172.925 146.713 172.773 146.784C172.617 146.855 172.485 146.899 172.478 146.882C172.471 146.866 172.59 146.791 172.742 146.72C172.898 146.649 173.03 146.605 173.037 146.622Z" fill="#263238"/>
<path d="M172.969 146.223C172.969 146.223 172.874 146.361 172.698 146.456C172.522 146.554 172.359 146.578 172.356 146.561C172.349 146.541 172.498 146.487 172.664 146.395C172.834 146.304 172.959 146.209 172.973 146.226L172.969 146.223Z" fill="#263238"/>
<path d="M172.264 147.298C172.264 147.298 172.142 147.383 171.915 147.454C171.803 147.488 171.664 147.522 171.509 147.539C171.431 147.546 171.353 147.559 171.258 147.549C171.214 147.542 171.159 147.525 171.122 147.481C171.085 147.437 171.085 147.366 171.112 147.319C171.366 146.997 171.783 147.034 171.983 147.149C172.091 147.207 172.159 147.278 172.2 147.329C172.241 147.383 172.254 147.417 172.251 147.417C172.241 147.427 172.166 147.292 171.959 147.193C171.858 147.146 171.722 147.116 171.576 147.136C171.437 147.156 171.258 147.224 171.176 147.353C171.139 147.417 171.19 147.474 171.268 147.481C171.342 147.491 171.427 147.481 171.502 147.478C171.654 147.464 171.79 147.437 171.902 147.41C172.125 147.353 172.258 147.295 172.264 147.305V147.298Z" fill="#263238"/>
<path d="M172.183 147.356C172.183 147.356 172.088 147.295 172.034 147.133C172.007 147.052 171.993 146.95 172.014 146.838C172.041 146.733 172.071 146.591 172.224 146.53C172.309 146.503 172.509 146.676 172.522 146.74C172.542 146.804 172.42 146.771 172.417 146.825C172.403 146.933 172.38 147.031 172.349 147.109C172.288 147.265 172.22 147.343 172.214 147.339C172.203 147.333 172.254 147.245 172.302 147.092C172.325 147.014 172.346 146.923 172.353 146.818C172.366 146.723 172.339 146.578 172.244 146.601C172.153 146.632 172.105 146.757 172.081 146.852C172.061 146.95 172.068 147.045 172.085 147.123C172.122 147.275 172.197 147.35 172.187 147.36L172.183 147.356Z" fill="#263238"/>
<path d="M177.856 144.347C177.856 144.347 177.694 144.401 177.463 144.54C177.233 144.675 176.941 144.926 176.755 145.292C176.568 145.657 176.535 146.04 176.558 146.304C176.582 146.571 176.643 146.73 176.629 146.734C176.626 146.734 176.606 146.697 176.579 146.625C176.551 146.554 176.524 146.446 176.504 146.307C176.467 146.036 176.49 145.637 176.687 145.254C176.88 144.875 177.192 144.618 177.433 144.493C177.555 144.428 177.66 144.388 177.734 144.367C177.809 144.347 177.85 144.34 177.853 144.344L177.856 144.347Z" fill="#263238"/>
<path d="M175.724 146.561C175.724 146.561 175.406 146.791 174.969 146.991C174.532 147.19 174.155 147.295 174.149 147.278C174.142 147.258 174.504 147.123 174.938 146.926C175.372 146.73 175.714 146.544 175.724 146.564V146.561Z" fill="#263238"/>
<path d="M176.779 146.077C176.799 146.083 176.782 146.165 176.786 146.263C176.786 146.361 176.799 146.439 176.779 146.449C176.762 146.456 176.711 146.378 176.711 146.263C176.711 146.151 176.758 146.07 176.779 146.077Z" fill="#263238"/>
<path d="M176.954 145.4C176.971 145.407 176.965 145.478 176.934 145.559C176.904 145.64 176.863 145.701 176.846 145.694C176.829 145.688 176.836 145.617 176.866 145.535C176.897 145.454 176.938 145.393 176.954 145.4Z" fill="#263238"/>
<path d="M177.419 144.915C177.422 144.935 177.351 144.966 177.283 145.03C177.215 145.091 177.178 145.162 177.158 145.155C177.137 145.155 177.151 145.054 177.232 144.976C177.317 144.898 177.412 144.895 177.415 144.912L177.419 144.915Z" fill="#263238"/>
<path d="M177.778 144.624C177.778 144.624 177.775 144.678 177.738 144.719C177.7 144.756 177.66 144.777 177.646 144.763C177.633 144.75 177.65 144.709 177.687 144.668C177.724 144.631 177.765 144.611 177.778 144.624Z" fill="#263238"/>
<path d="M171.112 75.7143L170.119 63.6279L175.213 63.7193C175.213 63.7193 175.45 61.9385 174.697 58.0282C174.237 55.6313 172.64 54.1619 170.847 53.2885V53.258L170.692 53.2174C168.411 52.1509 166.025 52.002 166.025 52.002L159.772 52.073C159.772 52.073 154.997 51.4772 152.353 54.8797C151.336 56.1899 148.185 65.1582 148.185 65.1582L155.688 68.7672L154.973 63.7938C154.973 63.7938 155.115 67.3994 155.576 68.5403C155.834 69.1768 156.576 71.154 156.576 71.154L156.478 77.1159L171.105 75.7143H171.112Z" fill="url(#paint3_linear_326_35146)"/>
<path d="M167.662 61.8738L166.733 65.8213H175.491L174.915 59.1992L167.662 61.8738Z" fill="url(#paint4_linear_326_35146)"/>
<path d="M175.491 65.8218C175.491 65.7947 175.05 65.7507 174.332 65.7067C173.613 65.666 172.62 65.6288 171.525 65.6356C170.427 65.6423 169.434 65.6897 168.719 65.7439C168.001 65.8015 167.56 65.8624 167.563 65.8861C167.563 65.9132 168.011 65.903 168.726 65.8793C169.444 65.859 170.434 65.8319 171.525 65.8252C172.62 65.8218 173.61 65.8353 174.328 65.8421C175.047 65.8489 175.491 65.8489 175.491 65.8218Z" fill="#263238"/>
<path d="M167.285 59.1689C167.258 59.1689 167.248 59.5549 167.255 60.1745C167.262 60.794 167.285 61.6505 167.319 62.5951C167.357 63.5397 167.401 64.3962 167.441 65.0124C167.482 65.632 167.523 66.0111 167.55 66.0111C167.577 66.0111 167.587 65.6252 167.58 65.0056C167.574 64.3861 167.55 63.5295 167.516 62.585C167.479 61.6404 167.435 60.7872 167.394 60.1677C167.353 59.5481 167.313 59.1689 167.285 59.1689Z" fill="#263238"/>
<g opacity="0.3">
<path d="M159.317 62.5889C159.317 62.5889 161.263 77.0011 166.733 76.6186C166.733 76.6186 169.197 76.5881 169.986 74.9529V74.3096L159.317 62.5889Z" fill="black"/>
</g>
<g opacity="0.3">
<path d="M167.286 60.0186L166.238 67.0842L166.916 68.3233L168.031 65.8992L167.56 65.8857L167.286 60.0186Z" fill="black"/>
</g>
<path d="M156.579 71.1508C156.579 71.1508 156.515 71.0357 156.43 70.8123C156.346 70.5922 156.234 70.2672 156.102 69.8677C155.841 69.0619 155.519 67.9379 155.264 66.6683C155.014 65.3988 154.888 64.2341 154.851 63.3877C154.831 62.9646 154.824 62.6226 154.831 62.3856C154.834 62.1486 154.844 62.0166 154.854 62.0166C154.882 62.0166 154.902 62.538 154.973 63.3776C155.044 64.2172 155.187 65.3717 155.437 66.6311C155.688 67.8905 155.99 69.0145 156.22 69.8271C156.329 70.2029 156.42 70.5245 156.495 70.7886C156.559 71.0154 156.59 71.144 156.576 71.1474L156.579 71.1508Z" fill="#263238"/>
<path d="M158.792 75.2908C158.745 75.3044 158.609 74.9929 158.491 74.5968C158.369 74.2007 158.311 73.8655 158.358 73.852C158.406 73.8384 158.541 74.1499 158.66 74.546C158.782 74.9421 158.84 75.2773 158.792 75.2908Z" fill="#263238"/>
<path d="M159.548 75.2368C159.504 75.2469 159.355 74.7831 159.348 74.1839C159.338 73.5846 159.47 73.114 159.518 73.1242C159.569 73.1343 159.518 73.6015 159.524 74.1805C159.531 74.7594 159.599 75.2266 159.548 75.2368Z" fill="#263238"/>
<path d="M155.844 68.9301C155.824 68.9741 154.075 68.1446 151.943 67.0816C149.811 66.0185 148.1 65.118 148.12 65.0739C148.141 65.0299 149.889 65.8594 152.021 66.9224C154.153 67.9855 155.864 68.8861 155.844 68.9301Z" fill="#263238"/>
<path d="M158.922 53.237C158.962 51.5239 158.969 49.7194 158.969 49.7194C158.969 49.7194 156.77 49.2962 156.387 46.405C156.021 43.6491 157.044 37.1794 157.044 37.1794C160.257 35.9673 163.595 37.0643 165.795 39.6644L165.249 53.5688C165.185 55.1837 163.744 56.416 162.016 56.3348C160.271 56.2535 158.884 54.8655 158.922 53.2336V53.237Z" fill="#B78876"/>
<path d="M156.878 42.3523C156.864 42.5486 157.02 42.7179 157.223 42.7348C157.427 42.7518 157.6 42.6062 157.613 42.4132C157.627 42.2168 157.471 42.0476 157.268 42.0306C157.064 42.0137 156.888 42.1593 156.878 42.3523Z" fill="#263238"/>
<path d="M156.739 41.8681C156.783 41.9189 157.068 41.7192 157.468 41.7293C157.864 41.7361 158.152 41.946 158.196 41.8986C158.217 41.8783 158.173 41.7903 158.051 41.6955C157.929 41.6007 157.719 41.5059 157.468 41.4991C157.22 41.4957 157.01 41.5804 156.888 41.6684C156.763 41.7598 156.719 41.8444 156.742 41.8681H156.739Z" fill="#263238"/>
<path d="M160.914 42.6023C160.9 42.7986 161.056 42.9679 161.26 42.9848C161.463 43.0018 161.636 42.8562 161.649 42.6632C161.663 42.4702 161.507 42.2976 161.304 42.2806C161.1 42.2637 160.924 42.4093 160.914 42.6023Z" fill="#263238"/>
<path d="M160.887 42.1186C160.931 42.1694 161.216 41.9696 161.616 41.9798C162.012 41.9866 162.3 42.1965 162.344 42.1491C162.365 42.1288 162.321 42.0407 162.195 41.9426C162.073 41.8478 161.863 41.753 161.612 41.7462C161.365 41.7428 161.155 41.8274 161.033 41.9155C160.907 42.0069 160.863 42.0915 160.887 42.1152V42.1186Z" fill="#263238"/>
<path d="M159.366 45.0272C159.366 45.0035 159.122 44.9561 158.722 44.8952C158.62 44.8816 158.526 44.8579 158.509 44.7902C158.488 44.7157 158.532 44.6074 158.583 44.4923C158.685 44.2485 158.79 43.9946 158.902 43.7271C159.346 42.637 159.671 41.7432 159.627 41.7229C159.583 41.706 159.186 42.5727 158.739 43.6628C158.631 43.9303 158.529 44.1876 158.431 44.4313C158.39 44.5464 158.319 44.6751 158.366 44.8274C158.39 44.9053 158.465 44.9595 158.529 44.9798C158.593 45.0001 158.651 45.0035 158.702 45.0069C159.105 45.0374 159.356 45.0475 159.356 45.0238L159.366 45.0272Z" fill="#263238"/>
<path d="M158.973 49.7226C158.973 49.7226 160.908 49.8986 162.86 48.7949C162.86 48.7949 161.874 50.7484 158.996 50.4031L158.976 49.7226H158.973Z" fill="#A36957"/>
<path d="M162.158 40.9719C162.077 41.0971 161.775 41.0396 161.437 40.9786C161.098 40.9109 160.796 40.85 160.769 40.7044C160.735 40.5656 161.084 40.3726 161.538 40.4573C161.989 40.5419 162.243 40.85 162.162 40.9685L162.158 40.9719Z" fill="#263238"/>
<path d="M158.207 40.3891C158.176 40.5347 157.851 40.5855 157.478 40.6058C157.105 40.6193 156.777 40.599 156.733 40.4568C156.689 40.3214 157.004 40.098 157.455 40.0777C157.905 40.0573 158.237 40.2503 158.207 40.3891Z" fill="#263238"/>
<path d="M159.372 45.9785C159.287 45.9548 159.193 46.0022 159.152 46.0801C159.101 46.1715 159.125 46.2934 159.203 46.3611C159.281 46.4288 159.409 46.4288 159.491 46.3645C159.572 46.3001 159.599 46.1749 159.552 46.0835C159.504 45.9921 159.389 45.9413 159.287 45.9717" fill="#A36957"/>
<path d="M159.467 46.0198C159.484 46.0029 159.403 45.9047 159.23 45.9453C159.149 45.9622 159.044 46.0333 159.013 46.1586C158.982 46.2737 159.013 46.4227 159.132 46.5175C159.26 46.6055 159.413 46.5886 159.511 46.5175C159.62 46.4464 159.65 46.3177 159.633 46.2365C159.599 46.057 159.467 46.0299 159.464 46.0536C159.45 46.0773 159.511 46.1383 159.498 46.2432C159.491 46.294 159.467 46.3448 159.416 46.3685C159.369 46.3956 159.288 46.3956 159.243 46.3617C159.196 46.3279 159.172 46.2534 159.182 46.1992C159.189 46.1417 159.227 46.101 159.274 46.074C159.369 46.0198 159.45 46.0469 159.464 46.0232L159.467 46.0198Z" fill="#263238"/>
<path d="M164.466 43.0672C164.124 43.8594 163.287 44.4722 163.402 45.3287C163.477 45.8806 163.833 46.3986 163.765 46.9504C163.677 47.6444 162.955 48.1286 162.853 48.8226C162.728 49.6724 163.555 50.3326 163.887 51.1282C164.368 52.2826 163.751 53.5827 163.738 54.8353C163.714 56.7516 165.348 58.5425 167.259 58.7016C168.032 58.766 168.903 58.5324 169.306 57.8688C169.638 57.3203 169.57 56.6263 169.77 56.0169C170.065 55.1096 170.929 54.4494 171.112 53.5116C171.444 51.8053 169.381 50.3969 169.516 48.6635C169.574 47.9221 170.031 47.2788 170.224 46.5611C170.479 45.6233 170.245 44.567 169.618 43.8222C169.109 43.2161 168.371 42.82 167.937 42.1599C167.445 41.4116 167.428 40.4603 167.242 39.5835C166.791 37.4472 165.185 35.5919 163.134 34.8369C161.084 34.0819 158.654 34.451 156.922 35.7815C156.922 35.7815 156.431 38.0126 158.722 38.385C161.016 38.7574 162.077 38.3274 162.335 39.2449C162.335 39.2449 162.074 40.3181 163.023 41.3406C163.972 42.3664 164.863 42.1497 164.463 43.0706L164.466 43.0672Z" fill="#263238"/>
<path d="M168.123 58.5424C168.123 58.5424 168.052 58.5424 167.913 58.5221C167.777 58.5018 167.577 58.4544 167.33 58.3664C166.842 58.1869 166.147 57.7976 165.557 57.0528C165.262 56.6837 164.988 56.2369 164.802 55.7121C164.612 55.1907 164.503 54.5982 164.493 53.9753C164.48 53.3524 164.568 52.6956 164.737 52.0422C164.822 51.7138 164.934 51.3888 165.062 51.0637C165.188 50.7387 165.344 50.4239 165.435 50.0921C165.53 49.7603 165.52 49.4218 165.435 49.1001C165.347 48.7785 165.195 48.4738 165.049 48.1725C164.9 47.8712 164.751 47.5732 164.652 47.255C164.554 46.9401 164.517 46.5982 164.581 46.2834C164.717 45.6469 165.103 45.1729 165.334 44.6888C165.574 44.208 165.652 43.7036 165.642 43.2465C165.601 42.3256 165.208 41.6418 164.886 41.249C164.551 40.8563 164.297 40.704 164.31 40.6904C164.31 40.6904 164.578 40.8157 164.937 41.205C165.283 41.5944 165.706 42.285 165.764 43.2397C165.784 43.7103 165.713 44.2452 165.466 44.7497C165.232 45.2508 164.859 45.7281 164.74 46.3104C164.622 46.8995 164.9 47.5055 165.201 48.0946C165.351 48.3959 165.506 48.7074 165.601 49.0527C165.696 49.3947 165.71 49.784 165.605 50.1361C165.51 50.4916 165.351 50.8098 165.225 51.1281C165.1 51.4463 164.988 51.7679 164.903 52.0862C164.734 52.726 164.646 53.3659 164.656 53.9719C164.659 55.1907 165.079 56.2606 165.652 56.9749C166.215 57.7096 166.879 58.1057 167.353 58.2987C167.835 58.4916 168.126 58.5221 168.119 58.5424H168.123Z" fill="#455A64"/>
<path d="M167.787 41.4591C167.787 41.4591 167.611 41.5032 167.283 41.5336C166.957 41.5607 166.476 41.598 165.886 41.4964C165.313 41.3914 164.585 41.1104 164.124 40.4299C163.897 40.088 163.809 39.675 163.663 39.2924C163.524 38.9064 163.256 38.5713 162.89 38.3411C162.148 37.8705 161.277 37.8129 160.514 37.7215C159.749 37.6335 159.027 37.471 158.539 37.1053C158.047 36.7566 157.796 36.303 157.729 35.9746C157.691 35.8121 157.695 35.68 157.702 35.592C157.715 35.504 157.722 35.46 157.729 35.46C157.749 35.46 157.705 35.6462 157.793 35.9543C157.874 36.2589 158.129 36.6788 158.606 37.0004C159.078 37.3322 159.765 37.4777 160.528 37.5556C161.284 37.6403 162.189 37.6877 162.982 38.1887C163.375 38.4325 163.677 38.815 163.819 39.2247C163.971 39.6276 164.053 40.0237 164.256 40.3351C164.67 40.9649 165.354 41.2526 165.903 41.3677C166.469 41.4828 166.947 41.4659 167.272 41.4591C167.598 41.449 167.781 41.4388 167.781 41.4524L167.787 41.4591Z" fill="#455A64"/>
<path d="M166.944 38.7032C166.944 38.7032 166.808 38.754 166.548 38.7608C166.29 38.7675 165.904 38.7235 165.477 38.5204C165.263 38.4188 165.046 38.2766 164.846 38.0837C164.643 37.8907 164.477 37.6435 164.321 37.3829C164.016 36.8683 163.721 36.2318 163.087 35.9711C162.467 35.7036 161.782 35.7646 161.189 35.8052C160.589 35.8627 160.027 35.8831 159.569 35.7917C159.108 35.7104 158.763 35.5208 158.57 35.3448C158.471 35.2567 158.407 35.1789 158.37 35.1213C158.332 35.0638 158.315 35.0333 158.319 35.0299C158.332 35.0197 158.414 35.1382 158.614 35.2906C158.81 35.4429 159.146 35.6054 159.59 35.6698C160.037 35.7409 160.573 35.7138 161.176 35.6461C161.772 35.5987 162.477 35.5242 163.158 35.812C163.497 35.9542 163.772 36.2081 163.968 36.4823C164.168 36.7565 164.311 37.0443 164.463 37.3016C164.612 37.5623 164.765 37.7993 164.951 37.9821C165.134 38.1683 165.334 38.3105 165.534 38.4121C165.931 38.6186 166.3 38.6829 166.551 38.6965C166.802 38.71 166.944 38.6931 166.947 38.7066L166.944 38.7032Z" fill="#455A64"/>
<path d="M169.137 57.8108C169.12 57.8041 169.228 57.584 169.354 57.1676C169.479 56.7512 169.601 56.1282 169.581 55.3529C169.554 54.5844 169.371 53.6534 168.859 52.7664C168.611 52.3229 168.235 51.9268 167.927 51.4426C167.774 51.1989 167.642 50.928 167.585 50.6267C167.527 50.3254 167.561 50.0038 167.659 49.7126C167.849 49.1269 168.191 48.636 168.262 48.0977C168.354 47.5594 168.079 47.0685 167.822 46.6284C167.69 46.4049 167.561 46.1849 167.459 45.9547C167.357 45.7244 167.293 45.4807 167.266 45.2471C167.215 44.7765 167.269 44.3431 167.303 43.9572C167.402 43.1853 167.33 42.5488 167.144 42.1595C166.964 41.7634 166.727 41.6449 166.744 41.6279C166.744 41.6279 166.761 41.6313 166.785 41.6482C166.808 41.6652 166.849 41.6855 166.893 41.7261C166.985 41.8006 167.103 41.9292 167.205 42.129C167.418 42.5251 167.51 43.1887 167.429 43.9673C167.402 44.3567 167.354 44.7833 167.412 45.2302C167.456 45.6804 167.69 46.1036 167.961 46.5437C168.093 46.7672 168.232 47.0008 168.33 47.2649C168.432 47.5256 168.476 47.8269 168.432 48.118C168.35 48.7105 168.001 49.2116 167.825 49.76C167.734 50.0342 167.707 50.3186 167.754 50.5895C167.805 50.8603 167.923 51.1142 168.069 51.3478C168.361 51.815 168.74 52.2179 168.994 52.6817C169.513 53.5992 169.689 54.5573 169.703 55.3462C169.709 56.1384 169.564 56.7715 169.418 57.1845C169.343 57.391 169.279 57.5502 169.221 57.6517C169.171 57.7567 169.14 57.8075 169.137 57.8075V57.8108Z" fill="#455A64"/>
<path d="M155.33 120.895C155.33 120.895 153.049 99.2813 152.917 91.2948C152.784 83.3083 156.512 75.4267 156.512 75.4267L171.113 74.8105C171.113 74.8105 174 82.9155 174.051 86.318C174.153 92.9334 172.292 99.4641 172.505 104.712L172.994 120.895" fill="#263238"/>
<path d="M173.481 94.3214C173.481 94.3214 173.4 94.3892 173.244 94.5009C173.204 94.5314 173.159 94.5618 173.112 94.5957C173.068 94.6329 173.021 94.6837 172.97 94.7311C172.868 94.8293 172.746 94.941 172.644 95.0934C172.173 95.6689 171.828 96.7015 171.502 97.988C171.323 98.6279 171.14 99.3422 170.763 100.043C170.662 100.212 170.57 100.395 170.438 100.554C170.374 100.635 170.316 100.724 170.248 100.801L170.025 101.025C169.72 101.326 169.333 101.55 168.927 101.729C168.11 102.088 167.188 102.257 166.344 102.68C165.497 103.093 164.86 103.892 164.47 104.813C164.06 105.731 163.809 106.692 163.467 107.593C163.131 108.487 162.67 109.353 161.942 109.902C161.22 110.47 160.325 110.599 159.552 110.65C158.766 110.697 158.037 110.674 157.387 110.772C156.736 110.863 156.16 111.066 155.753 111.388C155.343 111.71 155.106 112.112 154.994 112.458C154.879 112.807 154.899 113.101 154.936 113.287C154.974 113.477 155.028 113.568 155.014 113.572C155.014 113.572 154.95 113.487 154.899 113.294C154.848 113.104 154.814 112.8 154.926 112.434C155.031 112.072 155.268 111.652 155.689 111.31C156.109 110.968 156.702 110.748 157.366 110.647C158.031 110.538 158.766 110.555 159.542 110.501C160.308 110.447 161.162 110.311 161.843 109.77C162.531 109.248 162.975 108.412 163.304 107.528C163.64 106.638 163.89 105.677 164.307 104.739C164.7 103.801 165.375 102.951 166.263 102.525C167.14 102.091 168.062 101.925 168.859 101.58C169.255 101.407 169.625 101.194 169.916 100.913L170.133 100.7C170.201 100.625 170.255 100.541 170.316 100.466C170.445 100.314 170.533 100.138 170.631 99.9753C171.004 99.2982 171.19 98.5906 171.38 97.9541C171.722 96.6744 172.089 95.6283 172.59 95.0527C172.699 94.9004 172.827 94.7887 172.932 94.6939C172.987 94.6465 173.034 94.5991 173.082 94.5618C173.132 94.5313 173.18 94.5009 173.22 94.4738C173.387 94.3688 173.475 94.3181 173.478 94.3214H173.481Z" fill="#FAFAFA"/>
<path d="M173.573 84.3203C173.573 84.3203 173.587 84.4185 173.593 84.6115C173.593 84.8011 173.573 85.0854 173.492 85.4375C173.322 86.1417 172.807 87.11 171.841 87.9869C171.363 88.427 170.791 88.8502 170.13 89.2361C169.476 89.6255 168.754 89.9945 168.015 90.4109C167.28 90.8307 166.517 91.3013 165.849 91.931C165.172 92.5506 164.667 93.3665 164.209 94.2332C163.748 95.0965 163.341 95.9734 162.789 96.7351C162.515 97.1143 162.206 97.463 161.864 97.7575C161.518 98.0521 161.142 98.2925 160.762 98.4922C159.996 98.8883 159.217 99.1355 158.495 99.3623C157.77 99.5857 157.095 99.7855 156.502 100.033C155.909 100.276 155.397 100.554 154.984 100.845C154.57 101.14 154.255 101.444 154.032 101.722C153.581 102.281 153.486 102.684 153.459 102.673C153.452 102.673 153.486 102.579 153.554 102.399C153.632 102.226 153.754 101.969 153.977 101.681C154.198 101.394 154.509 101.072 154.926 100.767C155.343 100.463 155.858 100.175 156.455 99.9209C157.051 99.6636 157.729 99.4571 158.451 99.2269C159.169 98.9967 159.942 98.7461 160.688 98.3534C161.061 98.157 161.423 97.9234 161.755 97.6357C162.084 97.3479 162.386 97.0093 162.65 96.6403C163.189 95.8955 163.592 95.0254 164.057 94.1553C164.514 93.2886 165.036 92.449 165.734 91.8125C166.419 91.1693 167.195 90.6953 167.937 90.2755C168.683 89.8591 169.405 89.4968 170.059 89.1176C170.713 88.7452 171.282 88.3322 171.76 87.9056C172.719 87.0558 173.241 86.118 173.427 85.4308C173.61 84.7367 173.549 84.3305 173.577 84.3305L173.573 84.3203Z" fill="#FAFAFA"/>
<path d="M152.991 92.4387C152.991 92.4387 152.977 92.4184 152.96 92.3744C152.947 92.3304 152.916 92.2626 152.896 92.1712C152.855 91.9918 152.828 91.704 152.93 91.3587C153.12 90.6681 153.869 89.8115 155.075 89.3816C155.675 89.175 156.359 89.0498 157.068 88.8636C157.769 88.674 158.535 88.4099 159.108 87.8242C159.393 87.533 159.633 87.1911 159.83 86.8119C160.023 86.4294 160.186 86.0197 160.335 85.5965C160.64 84.7535 160.894 83.836 161.409 82.9998C161.921 82.1602 162.755 81.5745 163.619 81.2833C164.48 80.9685 165.351 80.8263 166.154 80.6401C166.964 80.464 167.72 80.2372 168.36 79.8885C168.994 79.5296 169.496 79.0522 169.851 78.5444C170.584 77.5288 170.773 76.4894 170.8 75.8021C170.817 75.1047 170.706 74.7221 170.729 74.7188C170.729 74.7188 170.865 75.0912 170.872 75.8021C170.865 76.4995 170.692 77.566 169.957 78.6155C169.597 79.1403 169.086 79.6379 168.435 80.0137C167.777 80.376 167.005 80.613 166.195 80.7958C165.385 80.9854 164.52 81.131 163.683 81.4424C162.839 81.7336 162.057 82.2854 161.562 83.0912C161.064 83.8936 160.809 84.8009 160.501 85.6507C160.348 86.0773 160.182 86.4937 159.982 86.8864C159.776 87.2757 159.525 87.6346 159.223 87.9359C158.617 88.5521 157.817 88.8162 157.105 89.0024C156.383 89.1852 155.705 89.3003 155.116 89.4967C153.94 89.8962 153.194 90.7188 152.994 91.3756C152.886 91.704 152.899 91.9816 152.93 92.1611C152.967 92.3405 152.998 92.4319 152.991 92.4353V92.4387Z" fill="#FAFAFA"/>
<path d="M172.315 110.714C172.315 110.714 172.329 110.785 172.339 110.927C172.346 111.066 172.339 111.276 172.278 111.54C172.159 112.061 171.756 112.776 170.997 113.368C170.624 113.669 170.173 113.944 169.651 114.164C169.133 114.384 168.56 114.56 167.964 114.746C167.367 114.932 166.74 115.129 166.13 115.413C165.517 115.694 164.951 116.104 164.463 116.628C163.968 117.146 163.541 117.712 163.07 118.209C162.599 118.711 162.063 119.124 161.507 119.432C160.392 120.048 159.237 120.258 158.284 120.268C157.325 120.278 156.566 120.078 156.065 119.899C155.814 119.811 155.624 119.723 155.502 119.658C155.377 119.598 155.312 119.56 155.316 119.557C155.316 119.55 155.387 119.577 155.516 119.628C155.644 119.682 155.834 119.76 156.085 119.838C156.586 119.994 157.339 120.173 158.278 120.146C159.213 120.119 160.342 119.899 161.423 119.293C161.962 118.992 162.477 118.589 162.938 118.094C163.402 117.603 163.826 117.038 164.331 116.51C164.825 115.975 165.425 115.545 166.052 115.261C166.679 114.97 167.313 114.777 167.913 114.594C168.513 114.411 169.082 114.242 169.59 114.032C170.099 113.822 170.546 113.558 170.912 113.27C171.661 112.701 172.068 112.024 172.203 111.52C172.336 111.012 172.285 110.714 172.308 110.714H172.315Z" fill="#FAFAFA"/>
<path d="M170.652 65.8349L167.828 65.9026C167.642 66.8539 167.191 67.504 167.191 67.504C164.829 63.4108 162.999 57.9263 162.545 55.7223C162.613 55.5022 162.691 55.2584 162.789 54.9876C162.901 54.6727 162.806 54.0769 162.752 53.7485C162.674 53.2576 162.535 52.5974 162.494 52.2927C162.369 51.3617 162.219 51.2161 161.894 51.3211C161.45 51.4633 162.077 53.9381 161.715 53.9889C161.521 54.0193 161.281 53.1696 161.213 52.4755C161.145 51.7815 160.83 49.6418 160.599 49.4996C160.264 49.2897 159.969 49.6215 160.054 50.3122C160.139 51.013 160.247 53.1019 159.881 53.1289C159.518 53.156 159.213 49.6114 159.213 49.6114C159.213 49.6114 159.271 48.8395 158.844 48.8598C158.075 48.8936 158.674 52.6313 158.742 52.9834C158.79 53.2305 158.39 53.2745 158.356 53.0071C158.319 52.7328 158.136 49.4624 157.353 49.4895C156.753 49.5098 157.817 52.5703 157.482 53.2779C157.146 53.9855 156.912 50.8708 156.336 50.9114C156.123 50.9283 155.967 50.969 156.356 52.7328C156.566 53.6808 157.187 55.4243 157.726 56.8666C158.634 61.7587 162.619 77.4101 168.865 74.5425C172.36 72.9412 173.78 65.8349 173.78 65.8349H170.655H170.652Z" fill="#B78876"/>
<path d="M158.603 53.2208C158.603 53.2208 158.631 53.2241 158.685 53.2106C158.732 53.1971 158.827 53.1361 158.814 53.0142C158.807 52.8043 158.773 52.4996 158.725 52.1035C158.688 51.704 158.57 51.2267 158.57 50.6613C158.566 50.3769 158.57 50.0722 158.59 49.7506C158.6 49.5881 158.603 49.4222 158.641 49.263C158.668 49.1107 158.77 48.9347 158.888 48.955H158.902H158.909C159.031 48.9482 159.122 49.043 159.163 49.1852C159.207 49.324 159.217 49.4831 159.207 49.6388V49.6456V49.649C159.285 50.5157 159.373 51.4637 159.569 52.4759C159.596 52.6012 159.624 52.7298 159.664 52.8585C159.685 52.9228 159.705 52.9871 159.735 53.0515C159.752 53.0853 159.766 53.1158 159.793 53.153C159.817 53.1835 159.847 53.2343 159.935 53.2411C160.078 53.2309 160.118 53.1226 160.149 53.0616C160.179 52.9905 160.2 52.9228 160.213 52.8551C160.244 52.7163 160.257 52.5809 160.268 52.4421C160.305 51.8902 160.284 51.3248 160.244 50.7493C160.23 50.4581 160.159 50.167 160.21 49.9029C160.234 49.7743 160.288 49.6422 160.376 49.5881C160.42 49.561 160.467 49.5576 160.522 49.5711C160.549 49.5779 160.576 49.5914 160.603 49.605C160.627 49.6253 160.62 49.6151 160.64 49.6558C160.752 49.8995 160.813 50.2144 160.874 50.5055C160.935 50.8069 160.986 51.1116 161.033 51.4196C161.081 51.7277 161.125 52.0426 161.162 52.3541C161.193 52.6689 161.237 52.9973 161.318 53.3155C161.359 53.4747 161.403 53.6338 161.471 53.7929C161.505 53.8708 161.542 53.952 161.61 54.0333C161.633 54.0671 161.715 54.1315 161.813 54.1078C161.908 54.0773 161.935 53.9994 161.952 53.9554C162.006 53.7591 161.989 53.5999 161.989 53.4273C161.982 53.258 161.969 53.0921 161.955 52.9262C161.932 52.6418 161.904 52.3574 161.894 52.0798C161.891 51.941 161.891 51.8022 161.904 51.6736C161.911 51.6092 161.925 51.5449 161.945 51.4975C161.955 51.4738 161.969 51.4569 161.979 51.4467C161.986 51.44 161.989 51.4467 161.993 51.4366L162.037 51.423C162.26 51.3316 162.335 51.6431 162.396 51.8936C162.447 52.1577 162.481 52.4285 162.535 52.696C162.623 53.2309 162.738 53.7591 162.799 54.2669C162.823 54.5208 162.843 54.7815 162.769 54.9948C162.687 55.2385 162.609 55.4823 162.531 55.7227L162.525 55.743L162.531 55.7667C162.945 57.5881 163.518 59.2166 164.046 60.6622C164.582 62.1078 165.121 63.3537 165.592 64.3761C166.063 65.3986 166.487 66.184 166.781 66.7223C166.93 66.9762 167.046 67.1794 167.134 67.3283C167.215 67.4637 167.259 67.5348 167.266 67.5315C167.269 67.5315 167.236 67.4536 167.161 67.3114C167.08 67.159 166.971 66.9525 166.836 66.6918C166.561 66.1468 166.154 65.3545 165.697 64.3287C165.239 63.3029 164.717 62.0536 164.192 60.608C163.674 59.1624 163.111 57.5306 162.711 55.7294V55.7735C162.786 55.5365 162.867 55.2995 162.945 55.0557C163.036 54.7781 163.009 54.5106 162.986 54.2466C162.925 53.7184 162.813 53.2038 162.725 52.6655C162.674 52.4014 162.64 52.1272 162.586 51.853C162.555 51.7142 162.525 51.5754 162.447 51.4332C162.409 51.3655 162.352 51.2876 162.26 51.2436C162.165 51.203 162.071 51.2131 161.993 51.2334L161.935 51.2504C161.908 51.2605 161.877 51.2741 161.857 51.2944C161.813 51.3316 161.789 51.3756 161.772 51.4163C161.735 51.4975 161.725 51.572 161.715 51.6465C161.698 51.7954 161.698 51.941 161.705 52.0832C161.715 52.371 161.742 52.6554 161.766 52.9398C161.779 53.1056 161.793 53.2682 161.799 53.4307C161.806 53.5898 161.81 53.7624 161.776 53.8843C161.769 53.9182 161.752 53.9148 161.769 53.9317C161.769 53.9317 161.769 53.952 161.769 53.9453V53.9317C161.769 53.9317 161.779 53.9182 161.772 53.9148C161.772 53.9148 161.762 53.908 161.752 53.8945C161.715 53.8505 161.677 53.7828 161.647 53.7117C161.586 53.5695 161.542 53.4171 161.505 53.2614C161.427 52.9499 161.383 52.6418 161.352 52.3236C161.315 52.0053 161.271 51.6905 161.22 51.379C161.172 51.0675 161.118 50.7595 161.057 50.4581C160.986 50.1534 160.942 49.8589 160.8 49.5542C160.789 49.5237 160.732 49.456 160.695 49.4357C160.657 49.412 160.613 49.3951 160.569 49.3815C160.478 49.3578 160.366 49.368 160.281 49.4222C160.112 49.5339 160.061 49.7099 160.03 49.8623C160.003 50.0214 160.007 50.1771 160.024 50.3261C160.04 50.4717 160.054 50.6139 160.064 50.7561C160.108 51.3248 160.129 51.8868 160.095 52.4252C160.085 52.5572 160.071 52.6926 160.047 52.8179C160.034 52.8822 160.017 52.9398 159.996 52.9939C159.986 53.021 159.973 53.0447 159.959 53.0582C159.946 53.0853 159.935 53.0515 159.939 53.0989C159.956 53.065 159.939 53.0819 159.925 53.0549C159.912 53.0379 159.898 53.0075 159.885 52.9838C159.861 52.9296 159.841 52.8687 159.82 52.8111C159.783 52.6926 159.752 52.5673 159.725 52.4421C159.525 51.4467 159.43 50.4954 159.342 49.6388V49.649C159.349 49.4763 159.339 49.3104 159.288 49.1446C159.261 49.0633 159.224 48.9821 159.156 48.9177C159.088 48.8534 158.993 48.8229 158.905 48.8263H158.925C158.79 48.8026 158.688 48.8873 158.634 48.9685C158.576 49.0531 158.549 49.1446 158.529 49.2326C158.492 49.4086 158.492 49.5779 158.485 49.7404C158.471 50.0654 158.471 50.3735 158.478 50.6579C158.488 51.2368 158.62 51.7142 158.664 52.1069C158.722 52.4996 158.766 52.8043 158.786 53.0108C158.807 53.109 158.729 53.17 158.688 53.1869C158.641 53.2072 158.614 53.2106 158.614 53.214L158.603 53.2208Z" fill="#A36957"/>
<path d="M136.533 70.4975C136.533 70.4975 135.595 70.4535 134.571 70.721C132.822 71.1814 129.799 73.0096 129.674 75.2711H131.867C131.867 75.2711 130.636 77.8848 130.999 77.641C131.934 77.0147 133.802 75.1188 133.802 75.1188L136.533 70.4941V70.4975Z" fill="#B78876"/>
<path d="M166.465 31.1606C166.418 31.164 166.218 29.3527 166.021 27.1115C165.825 24.8703 165.703 23.0522 165.754 23.0488C165.801 23.0454 166.001 24.8567 166.198 27.0979C166.394 29.3392 166.516 31.1572 166.465 31.1606Z" fill="#263238"/>
<path d="M176.094 23.1604C176.135 23.1875 174.65 25.3373 172.783 27.9611C170.916 30.5849 169.367 32.6873 169.326 32.6603C169.285 32.6332 170.77 30.4833 172.637 27.8596C174.505 25.2358 176.053 23.1333 176.091 23.1604H176.094Z" fill="#263238"/>
<path d="M180.093 32.9041C180.103 32.9515 178.371 33.3476 176.229 33.7877C174.084 34.2278 172.338 34.5461 172.328 34.4987C172.318 34.4513 174.05 34.0552 176.192 33.6151C178.337 33.1749 180.082 32.8567 180.093 32.9041Z" fill="#263238"/>
<path d="M64.8264 79.405L52.8426 140.954L51.2734 149.012L131.276 148.619C134.865 148.602 138.048 145.416 139.203 140.687L153.39 82.5773C154.268 78.9852 152.343 75.251 149.618 75.251L68.6459 75.3356C66.8565 75.3356 65.2941 77.0047 64.8264 79.405Z" fill="#645DF6"/>
<g opacity="0.5">
<path d="M64.8264 79.405L52.8426 140.954L51.2734 149.012L131.276 148.619C134.865 148.602 138.048 145.416 139.203 140.687L153.39 82.5773C154.268 78.9852 152.343 75.251 149.618 75.251L68.6459 75.3356C66.8565 75.3356 65.2941 77.0047 64.8264 79.405Z" fill="black"/>
</g>
<path d="M123.603 136.786L115.134 68.5979C114.788 65.8049 112.558 63.7194 109.928 63.7295L91.3526 63.7905C89.9767 63.7939 88.6583 64.3796 87.6823 65.4155L78.8638 74.78L27.2039 75.0508C24.0486 75.0677 21.622 78.0504 22.0389 81.4055L29.905 144.427C30.2541 147.217 32.4773 149.299 35.1039 149.292L125.135 149.116C135.163 149.323 136.119 146.367 136.119 146.367C124.627 148.91 123.603 136.796 123.603 136.79V136.786Z" fill="#645DF6"/>
<g opacity="0.5">
<path d="M84.7847 123.139L81.748 126.395L58.3633 105.378L61.3999 102.121L84.7847 123.139Z" fill="white"/>
<path d="M80.4735 101.4L83.8321 104.417L62.6706 127.117L59.3154 124.104L80.4735 101.4Z" fill="white"/>
</g>
<path d="M136.462 35.1347C136.245 35.0433 136.089 34.83 136.079 34.5795L135.943 31.4377C135.933 31.2413 136.018 31.0483 136.171 30.9231C136.323 30.7978 136.526 30.7504 136.72 30.7944C137.225 30.9129 137.784 30.8046 138.248 30.4931C138.678 30.2053 138.967 29.7855 139.038 29.3352C139.112 28.8884 138.973 28.3907 138.658 27.9743C138.319 27.5274 137.821 27.2294 137.323 27.1719C136.303 27.0534 135.201 27.8354 134.917 28.8782C134.825 29.2134 134.479 29.4131 134.14 29.3217C133.798 29.2269 133.605 28.8816 133.696 28.5464C134.14 26.9078 135.835 25.7296 137.469 25.9158C138.316 26.014 139.119 26.4846 139.668 27.2125C140.19 27.9032 140.417 28.7495 140.288 29.5384C140.159 30.3306 139.671 31.0619 138.95 31.5426C138.428 31.8913 137.831 32.0809 137.235 32.1012L137.34 34.5253C137.353 34.874 137.086 35.1685 136.737 35.1821C136.638 35.1855 136.547 35.1685 136.462 35.1313V35.1347Z" fill="#645DF6"/>
<path d="M137.388 36.4215C137.408 36.7059 137.191 36.953 136.906 36.9734C136.622 36.9937 136.374 36.777 136.354 36.4926C136.334 36.2082 136.55 35.9611 136.835 35.9408C137.12 35.9205 137.367 36.1371 137.388 36.4215Z" fill="#645DF6"/>
<path d="M125.57 30.7035C125.57 30.7035 125.583 30.6324 125.6 30.497C125.617 30.3514 125.637 30.1483 125.668 29.891C125.682 29.6235 125.753 29.2985 125.831 28.9193C125.875 28.7297 125.898 28.5198 125.97 28.3065C126.037 28.0932 126.105 27.863 126.18 27.6226C126.508 26.6713 127.013 25.5304 127.864 24.3962C128.708 23.2654 129.898 22.1448 131.423 21.2984C132.175 20.8516 133.032 20.5401 133.934 20.2625C134.849 20.0458 135.818 19.8596 136.832 19.8833C137.337 19.8562 137.848 19.9307 138.37 19.9747C138.631 19.9984 138.885 20.0695 139.146 20.1135C139.407 20.1609 139.672 20.2117 139.926 20.3031C140.973 20.5706 141.99 21.0648 142.956 21.6742C144.901 22.8964 146.538 24.8837 147.436 27.2942C147.887 28.4995 148.1 29.8199 148.1 31.1572C148.127 32.4944 147.867 33.852 147.392 35.1318L147.24 35.5177L147.219 35.5685L147.24 35.6159C148.09 37.5728 148.924 39.489 149.731 41.3476L149.873 41.1851C148.124 40.5148 146.426 39.8614 144.796 39.2385L144.732 39.2148L144.681 39.2622C143.271 40.6265 141.59 41.5474 139.889 42.0248C138.181 42.5055 136.459 42.5292 134.896 42.2516C133.327 41.974 131.917 41.3747 130.738 40.6062C129.559 39.8377 128.61 38.8999 127.881 37.9486C127.156 36.9871 126.678 35.9985 126.319 35.1182C126 34.2177 125.807 33.4187 125.712 32.7551C125.671 32.4233 125.637 32.1322 125.607 31.8749C125.6 31.621 125.593 31.4077 125.59 31.2282C125.583 31.0624 125.58 30.9303 125.576 30.8321C125.573 30.7441 125.57 30.6967 125.566 30.6967C125.566 30.6967 125.56 30.7407 125.56 30.8321C125.56 30.9303 125.56 31.0624 125.553 31.2282C125.553 31.4077 125.553 31.6244 125.553 31.8783C125.58 32.1356 125.607 32.4335 125.641 32.7653C125.726 33.4322 125.909 34.2414 126.22 35.1555C126.573 36.0493 127.047 37.0514 127.773 38.0332C128.505 39.0015 129.457 39.9596 130.65 40.7484C131.84 41.5372 133.27 42.1534 134.863 42.4412C136.452 42.729 138.201 42.712 139.939 42.2279C141.675 41.7438 143.39 40.8127 144.83 39.4247L144.718 39.4484C146.345 40.0747 148.043 40.7281 149.792 41.4052L150.046 41.5034L149.934 41.2427C149.127 39.384 148.294 37.4644 147.446 35.5076V35.6058L147.602 35.2097C148.09 33.9028 148.355 32.5114 148.327 31.147C148.327 29.7826 148.107 28.4318 147.646 27.1995C146.728 24.7382 145.05 22.7136 143.068 21.4745C142.078 20.8549 141.044 20.3573 139.977 20.0864C139.716 19.9984 139.448 19.9476 139.184 19.8968C138.919 19.8528 138.658 19.7817 138.394 19.758C137.865 19.714 137.347 19.6429 136.832 19.6734C135.801 19.6531 134.819 19.846 133.89 20.0695C132.975 20.3539 132.107 20.6755 131.348 21.1326C129.806 22.0026 128.61 23.1436 127.762 24.298C126.912 25.4525 126.41 26.6138 126.095 27.5752C126.024 27.819 125.956 28.0492 125.892 28.2693C125.824 28.486 125.804 28.6992 125.763 28.8888C125.688 29.2748 125.627 29.5998 125.621 29.8706C125.6 30.1313 125.587 30.3311 125.576 30.48C125.566 30.6155 125.566 30.6866 125.57 30.6866V30.7035Z" fill="#263238"/>
</g>
<defs>
<linearGradient id="paint0_linear_326_35146" x1="5.35762" y1="127.703" x2="5.35762" y2="139.075" gradientUnits="userSpaceOnUse">
<stop stop-color="#000AFF"/>
<stop offset="1" stop-color="#D274FF"/>
</linearGradient>
<linearGradient id="paint1_linear_326_35146" x1="13.2838" y1="135.528" x2="13.2838" y2="141.668" gradientUnits="userSpaceOnUse">
<stop stop-color="#000AFF"/>
<stop offset="1" stop-color="#D274FF"/>
</linearGradient>
<linearGradient id="paint2_linear_326_35146" x1="4.27973" y1="139.972" x2="4.27973" y2="144.767" gradientUnits="userSpaceOnUse">
<stop stop-color="#000AFF"/>
<stop offset="1" stop-color="#D274FF"/>
</linearGradient>
<linearGradient id="paint3_linear_326_35146" x1="161.716" y1="52.002" x2="161.716" y2="77.1159" gradientUnits="userSpaceOnUse">
<stop stop-color="#000AFF"/>
<stop offset="1" stop-color="#D274FF"/>
</linearGradient>
<linearGradient id="paint4_linear_326_35146" x1="171.112" y1="59.1992" x2="171.112" y2="65.8213" gradientUnits="userSpaceOnUse">
<stop stop-color="#000AFF"/>
<stop offset="1" stop-color="#D274FF"/>
</linearGradient>
<clipPath id="clip0_326_35146">
<rect width="196.639" height="150" fill="white"/>
</clipPath>
</defs>
</svg>
