<svg width="41" height="44" viewBox="0 0 41 44" fill="none" xmlns="http://www.w3.org/2000/svg">
<circle cx="30" cy="11" r="11" fill="#F6DDEF"/>
<g clip-path="url(#clip0_134_3783)">
<path d="M9.91681 21.8333H16.9168C17.2388 21.8333 17.5001 21.572 17.5001 21.25C17.5001 20.928 17.2388 20.6667 16.9168 20.6667H9.91681C9.59483 20.6667 9.3335 20.928 9.3335 21.25C9.3335 21.572 9.59477 21.8333 9.91681 21.8333Z" fill="url(#paint0_linear_134_3783)"/>
<path d="M32.0833 13.6667C31.7607 13.6667 31.5 13.928 31.5 14.25C31.5 14.572 31.7607 14.8333 32.0833 14.8333C33.0481 14.8333 33.8333 15.6185 33.8333 16.5833V41.0833C33.8333 42.0481 33.0481 42.8333 32.0833 42.8333H2.91669C1.95187 42.8333 1.16669 42.0481 1.16669 41.0833V16.5833C1.16669 15.6185 1.95187 14.8333 2.91669 14.8333C3.23866 14.8333 3.5 14.572 3.5 14.25C3.5 13.928 3.23866 13.6667 2.91669 13.6667C1.3084 13.6667 0 14.9751 0 16.5833V41.0833C0 42.6916 1.3084 44 2.91669 44H32.0834C33.6916 44 35 42.6916 35 41.0833V16.5833C35 14.9751 33.6916 13.6667 32.0833 13.6667Z" fill="url(#paint1_linear_134_3783)"/>
<path d="M15.1668 29.4167C15.1668 29.0947 14.9055 28.8334 14.5835 28.8334H9.91681C9.59483 28.8334 9.3335 29.0947 9.3335 29.4167C9.3335 29.7387 9.59483 30 9.91681 30H14.5835C14.9055 30 15.1668 29.7387 15.1668 29.4167Z" fill="url(#paint2_linear_134_3783)"/>
<path d="M13.4168 33.5H15.7501C16.0721 33.5 16.3334 33.2387 16.3334 32.9167C16.3334 32.5947 16.0721 32.3334 15.7501 32.3334H13.4168C13.0948 32.3334 12.8335 32.5947 12.8335 32.9167C12.8335 33.2387 13.0948 33.5 13.4168 33.5Z" fill="url(#paint3_linear_134_3783)"/>
<path d="M5.25006 30C5.57203 30 5.83337 29.7387 5.83337 29.4167V14.8333H27.4167C27.7393 14.8333 28 14.572 28 14.25C28 13.928 27.7393 13.6667 27.4167 13.6667H5.83337V12.5H27.4167C27.7393 12.5 28 12.2387 28 11.9167C28 11.5947 27.7393 11.3334 27.4167 11.3334H5.83337V10.75C5.83337 10.4502 6.11686 10.1667 6.41668 10.1667H28.5834C28.8937 10.1667 29.1667 10.4391 29.1667 10.75V29.4167C29.1667 29.7387 29.4274 30 29.75 30C30.0726 30 30.3333 29.7387 30.3333 29.4167V10.75C30.3333 9.80151 29.5318 9 28.5833 9H6.41675C5.46826 9 4.66675 9.80151 4.66675 10.75V29.4167C4.66675 29.7387 4.92809 30 5.25006 30Z" fill="url(#paint4_linear_134_3783)"/>
<path d="M17.5001 25.9167C17.5001 25.5947 17.2388 25.3334 16.9168 25.3334H9.91681C9.59483 25.3334 9.3335 25.5947 9.3335 25.9167C9.3335 26.2387 9.59483 26.5 9.91681 26.5H16.9168C17.2388 26.5 17.5001 26.2387 17.5001 25.9167Z" fill="url(#paint5_linear_134_3783)"/>
<path d="M16.9168 30H20.4168C20.7394 30 21.0001 29.7387 21.0001 29.4167C21.0001 29.0947 20.7394 28.8334 20.4168 28.8334H16.9168C16.5948 28.8334 16.3335 29.0947 16.3335 29.4167C16.3335 29.7387 16.5948 30 16.9168 30Z" fill="url(#paint6_linear_134_3783)"/>
<path d="M22.7501 30H25.0834C25.406 30 25.6667 29.7387 25.6667 29.4167C25.6667 29.0947 25.406 28.8334 25.0834 28.8334H22.7501C22.4275 28.8334 22.1667 29.0947 22.1667 29.4167C22.1667 29.7387 22.4275 30 22.7501 30Z" fill="url(#paint7_linear_134_3783)"/>
<path d="M3.50012 17.75C3.50012 17.428 3.23878 17.1667 2.91681 17.1667C2.59483 17.1667 2.3335 17.428 2.3335 17.75V30.5833C2.3335 31.5481 3.11867 32.3333 4.0835 32.3333H10.5001V35.25C10.5001 36.2148 11.2853 37 12.2501 37H22.7501C23.6986 37 24.5001 36.1985 24.5001 35.25V32.3333H30.9168C31.8816 32.3333 32.6668 31.5481 32.6668 30.5833V17.75C32.6668 17.428 32.4061 17.1667 32.0835 17.1667C31.7609 17.1667 31.5001 17.428 31.5001 17.75V30.5833C31.5001 30.9047 31.2388 31.1666 30.9168 31.1666H23.9168C23.5942 31.1666 23.3335 31.428 23.3335 31.7499V35.25C23.3335 35.5609 23.0605 35.8333 22.7502 35.8333H12.2501C11.9287 35.8333 11.6668 35.5714 11.6668 35.25V31.75C11.6668 31.428 11.4055 31.1667 11.0835 31.1667H4.0835C3.76207 31.1667 3.50019 30.9048 3.50019 30.5834V17.75H3.50012Z" fill="url(#paint8_linear_134_3783)"/>
<path d="M18.0833 33.5H21.5833C21.9059 33.5 22.1666 33.2387 22.1666 32.9167C22.1666 32.5947 21.9059 32.3334 21.5833 32.3334H18.0833C17.7613 32.3334 17.5 32.5947 17.5 32.9167C17.5 33.2387 17.7613 33.5 18.0833 33.5Z" fill="url(#paint9_linear_134_3783)"/>
<path d="M24.5001 25.9167C24.5001 25.5947 24.2393 25.3334 23.9167 25.3334H19.2501C18.9275 25.3334 18.6667 25.5947 18.6667 25.9167C18.6667 26.2387 18.9275 26.5 19.2501 26.5H23.9167C24.2393 26.5 24.5001 26.2387 24.5001 25.9167Z" fill="url(#paint10_linear_134_3783)"/>
</g>
<defs>
<linearGradient id="paint0_linear_134_3783" x1="13.4168" y1="20.6667" x2="13.4168" y2="21.8333" gradientUnits="userSpaceOnUse">
<stop stop-color="#2400FF"/>
<stop offset="1" stop-color="#E26FFF"/>
</linearGradient>
<linearGradient id="paint1_linear_134_3783" x1="17.5" y1="13.6667" x2="17.5" y2="44" gradientUnits="userSpaceOnUse">
<stop stop-color="#2400FF"/>
<stop offset="1" stop-color="#E26FFF"/>
</linearGradient>
<linearGradient id="paint2_linear_134_3783" x1="12.2502" y1="28.8334" x2="12.2502" y2="30" gradientUnits="userSpaceOnUse">
<stop stop-color="#2400FF"/>
<stop offset="1" stop-color="#E26FFF"/>
</linearGradient>
<linearGradient id="paint3_linear_134_3783" x1="14.5835" y1="32.3334" x2="14.5835" y2="33.5" gradientUnits="userSpaceOnUse">
<stop stop-color="#2400FF"/>
<stop offset="1" stop-color="#E26FFF"/>
</linearGradient>
<linearGradient id="paint4_linear_134_3783" x1="17.5" y1="9" x2="17.5" y2="30" gradientUnits="userSpaceOnUse">
<stop stop-color="#2400FF"/>
<stop offset="1" stop-color="#E26FFF"/>
</linearGradient>
<linearGradient id="paint5_linear_134_3783" x1="13.4168" y1="25.3334" x2="13.4168" y2="26.5" gradientUnits="userSpaceOnUse">
<stop stop-color="#2400FF"/>
<stop offset="1" stop-color="#E26FFF"/>
</linearGradient>
<linearGradient id="paint6_linear_134_3783" x1="18.6668" y1="28.8334" x2="18.6668" y2="30" gradientUnits="userSpaceOnUse">
<stop stop-color="#2400FF"/>
<stop offset="1" stop-color="#E26FFF"/>
</linearGradient>
<linearGradient id="paint7_linear_134_3783" x1="23.9167" y1="28.8334" x2="23.9167" y2="30" gradientUnits="userSpaceOnUse">
<stop stop-color="#2400FF"/>
<stop offset="1" stop-color="#E26FFF"/>
</linearGradient>
<linearGradient id="paint8_linear_134_3783" x1="17.5002" y1="17.1667" x2="17.5002" y2="37" gradientUnits="userSpaceOnUse">
<stop stop-color="#2400FF"/>
<stop offset="1" stop-color="#E26FFF"/>
</linearGradient>
<linearGradient id="paint9_linear_134_3783" x1="19.8333" y1="32.3334" x2="19.8333" y2="33.5" gradientUnits="userSpaceOnUse">
<stop stop-color="#2400FF"/>
<stop offset="1" stop-color="#E26FFF"/>
</linearGradient>
<linearGradient id="paint10_linear_134_3783" x1="21.5834" y1="25.3334" x2="21.5834" y2="26.5" gradientUnits="userSpaceOnUse">
<stop stop-color="#2400FF"/>
<stop offset="1" stop-color="#E26FFF"/>
</linearGradient>
<clipPath id="clip0_134_3783">
<rect width="35" height="35" fill="white" transform="translate(0 9)"/>
</clipPath>
</defs>
</svg>
