<svg width="20" height="21" viewBox="0 0 20 21" fill="none" xmlns="http://www.w3.org/2000/svg">
<path d="M17.5 9.97304H11.2225C10.945 9.89842 10.6662 9.82861 10.3863 9.76366C8.63125 9.34866 7.63875 9.04491 7.63875 7.62429C7.6245 7.37905 7.66081 7.1335 7.74542 6.90288C7.83004 6.67226 7.96115 6.46149 8.13062 6.28366C8.6615 5.8471 9.32644 5.60655 10.0137 5.60241C11.7825 5.55866 12.5981 6.15866 13.265 7.07116L14.2744 6.33366C13.8019 5.65514 13.1578 5.11419 12.4078 4.76611C11.6578 4.41802 10.8288 4.27526 10.0056 4.35241C8.99439 4.35887 8.01887 4.72713 7.25563 5.39054C6.96634 5.68397 6.74024 6.03356 6.59125 6.41774C6.44227 6.80191 6.37356 7.21254 6.38937 7.62429C6.36197 8.07484 6.4466 8.52517 6.63572 8.93503C6.82483 9.34488 7.11254 9.70151 7.47312 9.97304H2.5V11.223H11.0325C12.2619 11.5793 12.9969 12.043 13.0156 13.3218C13.0359 13.5949 12.9985 13.8693 12.9056 14.127C12.8128 14.3847 12.6667 14.62 12.4769 14.8174C11.8155 15.3387 10.9938 15.6146 10.1519 15.598C9.52345 15.5798 8.90738 15.419 8.35029 15.1276C7.7932 14.8362 7.30966 14.422 6.93625 13.9162L5.97812 14.7187C6.46358 15.3656 7.08994 15.8936 7.80972 16.2625C8.52951 16.6314 9.32384 16.8317 10.1325 16.848H10.195C11.3492 16.8613 12.4695 16.4576 13.35 15.7112C13.6625 15.3961 13.9054 15.019 14.0632 14.6042C14.2209 14.1894 14.2898 13.7461 14.2656 13.303C14.289 12.5451 14.0332 11.8049 13.5469 11.223H17.5V9.97304Z" fill="#212529"/>
</svg>
