<svg xmlns="http://www.w3.org/2000/svg" width="32" height="38" viewBox="0 0 32 38" fill="none">
<g clip-path="url(#clip0_2_2507)">
<path d="M23.2208 5.14962C23.2334 5.15054 23.246 5.15146 23.2589 5.15146C23.2807 5.15146 23.3025 5.14962 23.3238 5.14664C23.8948 5.15834 24.3518 5.62406 24.3525 6.19507C24.3525 6.45454 24.5629 6.66492 24.8224 6.66492C25.0818 6.66492 25.2922 6.45454 25.2922 6.19507C25.2911 5.26112 24.6409 4.45312 23.7287 4.25215V3.80066C23.7287 3.54119 23.5184 3.33081 23.2589 3.33081C22.9994 3.33081 22.789 3.54119 22.789 3.80066V4.27348C21.8246 4.53135 21.2006 5.46438 21.3306 6.45432C21.4607 7.44425 22.3045 8.18434 23.3029 8.18434C23.8827 8.18434 24.3525 8.65442 24.3525 9.23415C24.3525 9.81366 23.8827 10.2837 23.3029 10.2837C22.7232 10.2837 22.2534 9.81366 22.2534 9.23415C22.2534 8.97468 22.043 8.76431 21.7835 8.76431C21.524 8.76431 21.3137 8.97468 21.3137 9.23415C21.3148 10.1344 21.9196 10.922 22.789 11.1557V11.6706C22.789 11.93 22.9994 12.1404 23.2589 12.1404C23.5184 12.1404 23.7287 11.93 23.7287 11.6706V11.1773C24.721 10.9601 25.3902 10.03 25.2807 9.02011C25.1715 8.01022 24.3188 7.24488 23.3029 7.24511C22.7393 7.24534 22.2761 6.80028 22.2538 6.23706C22.2318 5.67384 22.6587 5.19367 23.2208 5.14985V5.14962Z" fill="url(#paint0_linear_2_2507)" stroke="url(#paint1_linear_2_2507)" stroke-width="0.3"/>
<path d="M23.3298 1.03369C20.4394 1.03369 17.9727 2.91972 17.0486 5.44514H5.38713C5.12881 5.44514 4.91912 5.678 4.91729 5.93609L4.80625 22.4183H1.48223C1.22276 22.4183 1 22.6062 1 22.8661V24.9577C1.00596 26.9268 2.55682 28.5444 4.52384 28.6334V28.6437H19.0303V28.63C19.1478 28.6343 19.1962 28.6437 19.2705 28.6437H19.2806C21.3164 28.6405 22.9652 26.9892 22.9652 24.9533V14.3782C23.0827 14.3846 23.2071 14.388 23.3286 14.388C27.0069 14.388 30.0001 11.3891 30.0001 7.71063C30.0001 4.03239 27.0083 1.03369 23.3298 1.03369ZM4.70255 27.704H4.69957C3.17969 27.702 1.94657 26.473 1.93969 24.9529V23.358H15.5652V24.9462C15.5659 25.9268 15.9575 26.8667 16.6531 27.5579C16.7024 27.6072 16.7637 27.6453 16.8153 27.704H4.70255ZM22.0256 24.9529C22.0258 26.4702 20.7973 27.7011 19.2801 27.704H19.2712C17.7479 27.7013 16.5125 26.4698 16.5049 24.9467V22.8661C16.5088 22.7459 16.4629 22.6296 16.3778 22.5447C16.2927 22.4598 16.1764 22.4142 16.0564 22.4183H5.74594L5.85376 6.38483H16.7878C16.7045 6.81499 16.6613 7.2518 16.659 7.68975C16.6581 8.61591 16.8513 9.53174 17.2262 10.3785H12.7883C12.5286 10.3785 12.3185 10.5889 12.3185 10.8484C12.3185 11.1078 12.5286 11.3182 12.7883 11.3182H17.7359C18.7052 12.8424 20.2547 13.9051 22.0256 14.2607V24.9529ZM23.3298 13.4486C20.1648 13.4486 17.5987 10.8828 17.599 7.71751C17.599 4.55225 20.1648 1.98646 23.33 1.98646C26.495 1.98646 29.0608 4.55248 29.0608 7.71751C29.0574 10.8812 26.4937 13.4451 23.3298 13.4486Z" fill="url(#paint2_linear_2_2507)" stroke="url(#paint3_linear_2_2507)" stroke-width="0.3"/>
<path d="M9.77244 13.5054C8.9431 13.5054 8.26862 14.1586 8.26862 14.9615C8.26862 15.7645 8.9431 16.4176 9.77244 16.4176C10.6018 16.4176 11.2765 15.7645 11.2765 14.9615C11.2765 14.1586 10.6018 13.5054 9.77244 13.5054ZM9.77244 15.478C9.46112 15.478 9.20831 15.2462 9.20831 14.9615C9.20831 14.6766 9.46135 14.4451 9.77244 14.4451C10.0835 14.4451 10.3368 14.6768 10.3368 14.9615C10.3368 15.2462 10.0835 15.478 9.77244 15.478Z" fill="url(#paint4_linear_2_2507)" stroke="url(#paint5_linear_2_2507)" stroke-width="0.3"/>
<path d="M12.3185 14.9595C12.3185 15.2189 12.5286 15.4293 12.7883 15.4293H19.0523C19.3118 15.4293 19.5222 15.2189 19.5222 14.9595C19.5222 14.7 19.3118 14.4896 19.0523 14.4896H12.7883C12.5286 14.4896 12.3185 14.7 12.3185 14.9595Z" fill="url(#paint6_linear_2_2507)" stroke="url(#paint7_linear_2_2507)" stroke-width="0.3"/>
<path d="M9.77244 9.42114C8.9431 9.42114 8.26862 10.0745 8.26862 10.8775C8.26862 11.6804 8.9431 12.3336 9.77244 12.3336C10.6018 12.3336 11.2765 11.6804 11.2765 10.8775C11.2765 10.0745 10.6018 9.42114 9.77244 9.42114ZM9.77244 11.3939C9.46112 11.3939 9.20831 11.1622 9.20831 10.8775C9.20831 10.5928 9.46135 10.3608 9.77244 10.3608C10.0835 10.3608 10.3368 10.5925 10.3368 10.8775C10.3368 11.1622 10.0835 11.3941 9.77244 11.3941V11.3939Z" fill="url(#paint8_linear_2_2507)" stroke="url(#paint9_linear_2_2507)" stroke-width="0.3"/>
<path d="M9.77244 17.5893C8.9431 17.5893 8.26862 18.2424 8.26862 19.0454C8.26862 19.8484 8.9431 20.5015 9.77244 20.5015C10.6018 20.5015 11.2765 19.8484 11.2765 19.0454C11.2765 18.2424 10.6018 17.5893 9.77244 17.5893ZM9.77244 19.5618C9.46112 19.5618 9.20831 19.3303 9.20831 19.0454C9.20831 18.7607 9.46135 18.529 9.77244 18.529C10.0835 18.529 10.3368 18.7607 10.3368 19.0454C10.3368 19.3301 10.0835 19.5618 9.77244 19.5618Z" fill="url(#paint10_linear_2_2507)" stroke="url(#paint11_linear_2_2507)" stroke-width="0.3"/>
<path d="M19.0523 18.6008H12.7883C12.5286 18.6008 12.3185 18.8111 12.3185 19.0706C12.3185 19.3301 12.5286 19.5405 12.7883 19.5405H19.0523C19.3118 19.5405 19.5222 19.3301 19.5222 19.0706C19.5222 18.8111 19.3118 18.6008 19.0523 18.6008Z" fill="url(#paint12_linear_2_2507)" stroke="url(#paint13_linear_2_2507)" stroke-width="0.3"/>
</g>
<defs>
<linearGradient id="paint0_linear_2_2507" x1="23.303" y1="3.33081" x2="23.303" y2="12.1404" gradientUnits="userSpaceOnUse">
<stop stop-color="#000AFF"/>
<stop offset="1" stop-color="#D274FF"/>
</linearGradient>
<linearGradient id="paint1_linear_2_2507" x1="23.303" y1="3.33081" x2="23.303" y2="12.1404" gradientUnits="userSpaceOnUse">
<stop stop-color="#000AFF"/>
<stop offset="1" stop-color="#D274FF"/>
</linearGradient>
<linearGradient id="paint2_linear_2_2507" x1="15.5" y1="1.03369" x2="15.5" y2="28.6437" gradientUnits="userSpaceOnUse">
<stop stop-color="#000AFF"/>
<stop offset="1" stop-color="#D274FF"/>
</linearGradient>
<linearGradient id="paint3_linear_2_2507" x1="15.5" y1="1.03369" x2="15.5" y2="28.6437" gradientUnits="userSpaceOnUse">
<stop stop-color="#000AFF"/>
<stop offset="1" stop-color="#D274FF"/>
</linearGradient>
<linearGradient id="paint4_linear_2_2507" x1="9.77256" y1="13.5054" x2="9.77256" y2="16.4176" gradientUnits="userSpaceOnUse">
<stop stop-color="#000AFF"/>
<stop offset="1" stop-color="#D274FF"/>
</linearGradient>
<linearGradient id="paint5_linear_2_2507" x1="9.77256" y1="13.5054" x2="9.77256" y2="16.4176" gradientUnits="userSpaceOnUse">
<stop stop-color="#000AFF"/>
<stop offset="1" stop-color="#D274FF"/>
</linearGradient>
<linearGradient id="paint6_linear_2_2507" x1="15.9203" y1="14.4896" x2="15.9203" y2="15.4293" gradientUnits="userSpaceOnUse">
<stop stop-color="#000AFF"/>
<stop offset="1" stop-color="#D274FF"/>
</linearGradient>
<linearGradient id="paint7_linear_2_2507" x1="15.9203" y1="14.4896" x2="15.9203" y2="15.4293" gradientUnits="userSpaceOnUse">
<stop stop-color="#000AFF"/>
<stop offset="1" stop-color="#D274FF"/>
</linearGradient>
<linearGradient id="paint8_linear_2_2507" x1="9.77256" y1="9.42114" x2="9.77256" y2="12.3336" gradientUnits="userSpaceOnUse">
<stop stop-color="#000AFF"/>
<stop offset="1" stop-color="#D274FF"/>
</linearGradient>
<linearGradient id="paint9_linear_2_2507" x1="9.77256" y1="9.42114" x2="9.77256" y2="12.3336" gradientUnits="userSpaceOnUse">
<stop stop-color="#000AFF"/>
<stop offset="1" stop-color="#D274FF"/>
</linearGradient>
<linearGradient id="paint10_linear_2_2507" x1="9.77256" y1="17.5893" x2="9.77256" y2="20.5015" gradientUnits="userSpaceOnUse">
<stop stop-color="#000AFF"/>
<stop offset="1" stop-color="#D274FF"/>
</linearGradient>
<linearGradient id="paint11_linear_2_2507" x1="9.77256" y1="17.5893" x2="9.77256" y2="20.5015" gradientUnits="userSpaceOnUse">
<stop stop-color="#000AFF"/>
<stop offset="1" stop-color="#D274FF"/>
</linearGradient>
<linearGradient id="paint12_linear_2_2507" x1="15.9203" y1="18.6008" x2="15.9203" y2="19.5405" gradientUnits="userSpaceOnUse">
<stop stop-color="#000AFF"/>
<stop offset="1" stop-color="#D274FF"/>
</linearGradient>
<linearGradient id="paint13_linear_2_2507" x1="15.9203" y1="18.6008" x2="15.9203" y2="19.5405" gradientUnits="userSpaceOnUse">
<stop stop-color="#000AFF"/>
<stop offset="1" stop-color="#D274FF"/>
</linearGradient>
<clipPath id="clip0_2_2507">
<rect width="29" height="29" fill="white" transform="translate(1 0.341797)"/>
</clipPath>
</defs>
</svg>