<svg width="24" height="24" viewBox="0 0 24 24" fill="none" xmlns="http://www.w3.org/2000/svg">
<path d="M14 13C15.1046 13 16 12.1046 16 11C16 9.89543 15.1046 9 14 9C12.8954 9 12 9.89543 12 11C12 12.1046 12.8954 13 14 13Z" stroke="#6174A4" stroke-width="1.2"/>
<path d="M18 20.9999C19.1046 20.9999 20 20.1045 20 18.9999C20 17.8953 19.1046 16.9999 18 16.9999C16.8954 16.9999 16 17.8953 16 18.9999C16 20.1045 16.8954 20.9999 18 20.9999Z" stroke="#6174A4" stroke-width="1.2"/>
<path d="M5 4.00009V15.0001C5 16.8857 5 17.8285 5.58579 18.4143C6.17157 19.0001 7.11438 19.0001 9 19.0001H16" stroke="#6174A4" stroke-width="1.2"/>
<path d="M5 7C5 8.88562 5 9.82843 5.58579 10.4142C6.17157 11 7.11438 11 9 11H12" stroke="#6174A4" stroke-width="1.2"/>
</svg>
