<svg width="20" height="20" viewBox="0 0 20 20" fill="none" xmlns="http://www.w3.org/2000/svg">
<path d="M0 5C0 2.23858 2.23858 0 5 0H15C17.7614 0 20 2.23858 20 5V20H5C2.23858 20 0 17.7614 0 15V5Z" fill="url(#paint0_linear_388_23318)"/>
<path d="M13.8086 10.0001H12.5586C12.3928 10.0001 12.2339 10.066 12.1167 10.1832C11.9994 10.3004 11.9336 10.4594 11.9336 10.6251V12.1876C11.9336 12.3534 11.9994 12.5124 12.1167 12.6296C12.2339 12.7468 12.3928 12.8126 12.5586 12.8126H13.1836C13.3494 12.8126 13.5083 12.7468 13.6255 12.6296C13.7427 12.5124 13.8086 12.3534 13.8086 12.1876V10.0001ZM13.8086 10.0001C13.8086 9.50503 13.7106 9.01483 13.5202 8.55781C13.3298 8.10079 13.0508 7.686 12.6992 7.33737C12.3477 6.98874 11.9306 6.71317 11.472 6.52656C11.0134 6.33996 10.5224 6.246 10.0273 6.25013C9.53259 6.24652 9.04201 6.34086 8.58388 6.5277C8.12575 6.71453 7.70912 6.99019 7.358 7.33877C7.00688 7.68734 6.72821 8.10196 6.53804 8.55872C6.34788 9.01549 6.24999 9.50536 6.25 10.0001V12.1876C6.25 12.3534 6.31585 12.5124 6.43306 12.6296C6.55027 12.7468 6.70924 12.8126 6.875 12.8126H7.5C7.66576 12.8126 7.82473 12.7468 7.94194 12.6296C8.05915 12.5124 8.125 12.3534 8.125 12.1876V10.6251C8.125 10.4594 8.05915 10.3004 7.94194 10.1832C7.82473 10.066 7.66576 10.0001 7.5 10.0001H6.25" stroke="white" strokeWidth="0.8" strokeLinecap="round" strokeLinejoin="round"/>
<path d="M13.8086 12.1875V13.125C13.8086 13.4565 13.6769 13.7745 13.4425 14.0089C13.2081 14.2433 12.8901 14.375 12.5586 14.375H10.3125" stroke="white" strokeWidth="0.8" strokeLinecap="round" strokeLinejoin="round"/>
<defs>
<linearGradient id="paint0_linear_388_23318" x1="20.2359" y1="22.2441" x2="1.823" y2="3.64593" gradientUnits="userSpaceOnUse">
<stop stop-color="#14A2DF"/>
<stop offset="1" stop-color="#ADFF00"/>
</linearGradient>
</defs>
</svg>
