<svg width="22" height="21" viewBox="0 0 22 21" fill="none" xmlns="http://www.w3.org/2000/svg">
<path d="M18.875 10.5H17.125C16.1585 10.5 15.375 11.2835 15.375 12.25V14C15.375 14.9665 16.1585 15.75 17.125 15.75C18.0915 15.75 18.875 14.9665 18.875 14V10.5ZM18.875 10.5C18.875 6.15076 15.3492 2.625 11 2.625C6.65076 2.625 3.125 6.15076 3.125 10.5M3.125 10.5V14C3.125 14.9665 3.9085 15.75 4.875 15.75C5.8415 15.75 6.625 14.9665 6.625 14V12.25C6.625 11.2835 5.8415 10.5 4.875 10.5H3.125Z" stroke="#645DF6" stroke-width="1.5" stroke-linecap="round" stroke-linejoin="round"/>
<path d="M18.875 12.25V15.75C18.875 17.5 18.2917 18.375 17.125 18.375C15.9583 18.375 14.5 18.375 12.75 18.375" stroke="#645DF6" stroke-width="1.5" stroke-linecap="round" stroke-linejoin="round"/>
</svg>
