<svg width="18" height="18" viewBox="0 0 18 18" fill="none" xmlns="http://www.w3.org/2000/svg">
<path d="M6.94278 15.4677C6.94224 14.9427 7.11488 14.4322 7.43394 14.0153C7.75301 13.5984 8.20068 13.2983 8.70757 13.1617C9.21447 13.0251 9.75228 13.0594 10.2376 13.2595C10.723 13.4596 11.1288 13.8142 11.3922 14.2683C13.206 13.4681 13.8856 12.2124 13.8856 9.82578V7.22224C13.8856 3.75779 11.932 1.36427 8.89543 1.36427C5.85884 1.36427 3.90531 3.75866 3.90531 7.22224V10.2597C3.90508 10.4323 3.83643 10.5977 3.71442 10.7197C3.5924 10.8417 3.42698 10.9104 3.25443 10.9106H2.38658C1.75398 10.9099 1.14748 10.6584 0.70008 10.2111C0.252684 9.76389 0.000918766 9.15747 0 8.52488L0 7.65703C0.000688689 7.0242 0.252325 6.41748 0.699721 5.96992C1.14712 5.52236 1.75375 5.2705 2.38658 5.26958H2.80141C3.45837 2.1705 5.70696 0.0625 8.89543 0.0625C12.0839 0.0625 14.3316 2.1705 14.9886 5.26958H15.4034C16.0361 5.2705 16.6426 5.52224 17.09 5.96961C17.5373 6.41698 17.7891 7.02348 17.79 7.65616V8.52401C17.7893 9.15676 17.5376 9.76339 17.0902 10.2108C16.6428 10.6582 16.0362 10.9099 15.4034 10.9106H15.1353C15.1018 11.9385 14.7569 12.9319 14.1463 13.7595C13.5357 14.5871 12.6882 15.2097 11.7159 15.5449C11.7057 16.1779 11.4444 16.7808 10.9896 17.2211C10.5348 17.6615 9.9237 17.9031 9.29074 17.8929C8.65778 17.8826 8.05481 17.6213 7.61448 17.1665C7.17415 16.7117 6.93254 16.1006 6.94278 15.4677ZM8.24455 15.4677C8.24455 15.6822 8.30817 15.8919 8.42737 16.0703C8.54657 16.2487 8.716 16.3878 8.91422 16.4699C9.11244 16.552 9.33056 16.5735 9.54099 16.5316C9.75143 16.4898 9.94472 16.3864 10.0964 16.2347C10.2481 16.083 10.3515 15.8897 10.3933 15.6793C10.4352 15.4689 10.4137 15.2507 10.3316 15.0525C10.2495 14.8543 10.1104 14.6849 9.93204 14.5657C9.75365 14.4465 9.54391 14.3828 9.32936 14.3828C9.04172 14.3831 8.76593 14.4974 8.56254 14.7008C8.35914 14.9042 8.24478 15.18 8.24455 15.4677ZM15.1873 9.60969H15.4034C15.6912 9.60969 15.9672 9.49542 16.1708 9.292C16.3744 9.08859 16.4889 8.81267 16.4891 8.52488V7.65703C16.4891 7.36924 16.3748 7.09323 16.1714 6.88965C15.968 6.68607 15.6921 6.57158 15.4043 6.57135H15.1873V9.60969ZM1.30177 7.65703V8.52488C1.30223 8.81236 1.4167 9.08793 1.62006 9.29114C1.82343 9.49434 2.09909 9.60859 2.38658 9.60882H2.60354V6.57135H2.38658C2.09879 6.57158 1.82287 6.68607 1.61945 6.88965C1.41604 7.09323 1.30177 7.36924 1.30177 7.65703Z" fill="#5248BD"/>
</svg>
