<svg width="23" height="23" viewBox="0 0 23 23" fill="none" xmlns="http://www.w3.org/2000/svg">
<path fill-rule="evenodd" clip-rule="evenodd" d="M18.5843 13.8061C18.5843 13.2564 18.3659 12.7292 17.9772 12.3405C17.5885 11.9518 17.0613 11.7334 16.5116 11.7334H16.5093C15.9596 11.7334 15.4324 11.9518 15.0437 12.3405C14.655 12.7292 14.4366 13.2564 14.4366 13.8061C14.4366 14.7328 14.4366 15.9433 14.4366 16.87C14.4366 17.4196 14.655 17.9468 15.0437 18.3355C15.4324 18.7242 15.9596 18.9426 16.5093 18.9426H16.5116C17.0613 18.9426 17.5885 18.7242 17.9772 18.3355C18.3659 17.9468 18.5843 17.4196 18.5843 16.87V13.8061ZM8.57389 13.8061C8.57391 13.2564 8.35553 12.7292 7.96683 12.3405C7.57813 11.9518 7.05096 11.7334 6.50124 11.7334H6.49892C5.94922 11.7334 5.42203 11.9518 5.03333 12.3405C4.64463 12.7292 4.42627 13.2564 4.42627 13.8061C4.42627 14.7328 4.42627 15.9433 4.42627 16.87C4.42627 17.4196 4.64463 17.9468 5.03333 18.3355C5.42203 18.7242 5.94922 18.9426 6.49892 18.9426H6.50124C7.05096 18.9426 7.57813 18.7242 7.96683 18.3355C8.35553 17.9468 8.57391 17.4196 8.57389 16.87V13.8061ZM17.2395 13.8061V16.87C17.2395 17.063 17.1628 17.2482 17.0263 17.3847C16.8898 17.5212 16.7047 17.5979 16.5116 17.5979C16.5116 17.5979 16.5093 17.5979 16.5093 17.5979C16.3162 17.5979 16.1311 17.5212 15.9946 17.3847C15.858 17.2482 15.7814 17.063 15.7814 16.87V13.8061C15.7814 13.613 15.858 13.4278 15.9946 13.2913C16.1311 13.1548 16.3162 13.0781 16.5093 13.0781C16.5093 13.0781 16.5116 13.0781 16.5116 13.0781C16.7047 13.0781 16.8898 13.1548 17.0263 13.2913C17.1628 13.4278 17.2395 13.613 17.2395 13.8061ZM7.22917 13.8061V16.87C7.22917 17.063 7.15249 17.2482 7.01597 17.3847C6.87946 17.5212 6.69432 17.5979 6.50128 17.5979C6.5012 17.5979 6.49894 17.5979 6.49894 17.5979C6.30584 17.5979 6.1207 17.5212 5.9842 17.3847C5.84769 17.2482 5.77098 17.063 5.77098 16.87V13.8061C5.77098 13.613 5.84769 13.4278 5.9842 13.2913C6.1207 13.1548 6.30584 13.0781 6.49889 13.0781C6.49898 13.0781 6.50124 13.0781 6.50124 13.0781C6.69432 13.0781 6.87946 13.1548 7.01597 13.2913C7.15249 13.4278 7.22917 13.613 7.22917 13.8061Z" fill="black"/>
<path fill-rule="evenodd" clip-rule="evenodd" d="M20.3667 15.3778V10.6127C20.3666 6.2805 16.8547 2.76855 12.5225 2.76855C11.8475 2.76855 11.1632 2.76855 10.4882 2.76855C6.15599 2.76855 2.64404 6.2805 2.64404 10.6127C2.64404 13.1461 2.64404 15.3778 2.64404 15.3778C2.64404 15.7489 2.9453 16.0501 3.3164 16.0501C3.68748 16.0501 3.98876 15.7489 3.98876 15.3778V10.6127C3.98878 7.02315 6.89868 4.11327 10.4882 4.11327C11.1632 4.11327 11.8475 4.11327 12.5225 4.11327C16.112 4.11327 19.0219 7.02315 19.0219 10.6127C19.0219 10.6127 19.0219 15.3778 19.0219 15.3778C19.0219 15.7489 19.3232 16.0501 19.6943 16.0501C20.0654 16.0501 20.3667 15.7489 20.3667 15.3778ZM9.50327 6.11535H13.107C13.4781 6.11535 13.7794 5.81406 13.7794 5.44299C13.7794 5.07189 13.4781 4.77063 13.107 4.77063H9.50327C9.13217 4.77063 8.83091 5.07189 8.83091 5.44299C8.83091 5.81406 9.13217 6.11535 9.50327 6.11535Z" fill="black"/>
</svg>
