<svg width="33" height="34" viewBox="0 0 33 34" fill="none" xmlns="http://www.w3.org/2000/svg">
<circle cx="24.1463" cy="9.35366" r="8.85366" fill="#F6DDEF"/>
<g clip-path="url(#clip0_302_9582)">
<path d="M16.2654 19.0855H24.0123C25.2226 19.0855 26.2094 18.0988 26.2094 16.8885V9.13609C26.2094 7.92579 25.2226 6.93903 24.0123 6.93903H16.2654C15.0551 6.93903 14.0683 7.92579 14.0683 9.13609V16.883C14.0683 18.0988 15.0551 19.0855 16.2654 19.0855ZM15.404 9.13609C15.404 8.66178 15.7911 8.27471 16.2654 8.27471H24.0123C24.4866 8.27471 24.8737 8.66178 24.8737 9.13609V16.883C24.8737 17.3573 24.4866 17.7444 24.0123 17.7444H16.2654C15.7911 17.7444 15.404 17.3573 15.404 16.883V9.13609Z" fill="url(#paint0_linear_302_9582)"/>
<path d="M5.79252 8.22565C5.53083 7.96397 5.11105 7.96397 4.84936 8.22565L0.537023 12.538C0.275338 12.7997 0.275338 13.2195 0.537023 13.4811L4.84936 17.7935C4.98021 17.9243 5.14921 17.9898 5.32367 17.9898C5.49812 17.9898 5.66713 17.9243 5.79797 17.7935C6.05966 17.5318 6.05966 17.112 5.79797 16.8503L2.6196 13.6774H11.9312C12.3019 13.6774 12.6018 13.3776 12.6018 13.0123C12.6018 12.647 12.3019 12.3417 11.9312 12.3417H2.6196L5.79252 9.16881C6.0542 8.91257 6.0542 8.48734 5.79252 8.22565Z" fill="url(#paint1_linear_302_9582)"/>
<path d="M0.340759 31.3029C0.340759 32.5132 1.32753 33.5 2.53782 33.5H10.2848C11.4951 33.5 12.4818 32.5132 12.4818 31.3029V23.556C12.4818 22.3457 11.4951 21.3589 10.2848 21.3589H2.54327C1.33298 21.3589 0.346211 22.3457 0.346211 23.556V31.3029H0.340759ZM1.67644 23.556C1.67644 23.0817 2.06352 22.6946 2.53782 22.6946H10.2848C10.7591 22.6946 11.1461 23.0817 11.1461 23.556V31.3029C11.1461 31.7772 10.7591 32.1643 10.2848 32.1643H2.54327C2.06897 32.1643 1.68189 31.7772 1.68189 31.3029V23.556H1.67644Z" fill="url(#paint2_linear_302_9582)"/>
<path d="M14.6244 28.0973H23.936L20.763 31.2702C20.5014 31.5319 20.5014 31.9517 20.763 32.2134C20.8939 32.3442 21.0629 32.4096 21.2373 32.4096C21.4118 32.4096 21.5808 32.3442 21.7117 32.2134L26.024 27.901C26.1494 27.7756 26.2203 27.6066 26.2203 27.4267C26.2203 27.2523 26.1494 27.0778 26.024 26.9524L21.7117 22.6401C21.45 22.3784 21.0302 22.3784 20.7685 22.6401C20.5068 22.9018 20.5068 23.3215 20.7685 23.5832L23.9414 26.7562H14.6244C14.2536 26.7562 13.9538 27.056 13.9538 27.4267C13.9538 27.7974 14.2536 28.0973 14.6244 28.0973Z" fill="url(#paint3_linear_302_9582)"/>
</g>
<defs>
<linearGradient id="paint0_linear_302_9582" x1="20.1388" y1="6.93903" x2="20.1388" y2="19.0855" gradientUnits="userSpaceOnUse">
<stop stop-color="#000AFF"/>
<stop offset="1" stop-color="#D274FF"/>
</linearGradient>
<linearGradient id="paint1_linear_302_9582" x1="6.47126" y1="8.02939" x2="6.47126" y2="17.9898" gradientUnits="userSpaceOnUse">
<stop stop-color="#000AFF"/>
<stop offset="1" stop-color="#D274FF"/>
</linearGradient>
<linearGradient id="paint2_linear_302_9582" x1="6.41129" y1="21.3589" x2="6.41129" y2="33.5" gradientUnits="userSpaceOnUse">
<stop stop-color="#000AFF"/>
<stop offset="1" stop-color="#D274FF"/>
</linearGradient>
<linearGradient id="paint3_linear_302_9582" x1="20.087" y1="22.4438" x2="20.087" y2="32.4096" gradientUnits="userSpaceOnUse">
<stop stop-color="#000AFF"/>
<stop offset="1" stop-color="#D274FF"/>
</linearGradient>
<clipPath id="clip0_302_9582">
<rect width="26.561" height="26.561" fill="white" transform="translate(0 6.93903)"/>
</clipPath>
</defs>
</svg>
