<svg width="28" height="28" viewBox="0 0 28 28" fill="none" xmlns="http://www.w3.org/2000/svg">
<path d="M22.1666 14H23.3333C23.9521 14 24.5456 14.2458 24.9832 14.6834C25.4208 15.121 25.6666 15.7145 25.6666 16.3333V18.6667C25.6666 19.2855 25.4208 19.879 24.9832 20.3166C24.5456 20.7542 23.9521 21 23.3333 21H22.1666C21.8572 21 21.5604 20.8771 21.3416 20.6583C21.1228 20.4395 20.9999 20.1428 20.9999 19.8333V15.1667C20.9999 14.8572 21.1228 14.5605 21.3416 14.3417C21.5604 14.1229 21.8572 14 22.1666 14ZM5.83325 21H4.66659C4.04775 21 3.45425 20.7542 3.01667 20.3166C2.57908 19.879 2.33325 19.2855 2.33325 18.6667V16.3333C2.33325 15.7145 2.57908 15.121 3.01667 14.6834C3.45425 14.2458 4.04775 14 4.66659 14H5.83325C6.14267 14 6.43942 14.1229 6.65821 14.3417C6.877 14.5605 6.99992 14.8572 6.99992 15.1667V19.8333C6.99992 20.1428 6.877 20.4395 6.65821 20.6583C6.43942 20.8771 6.14267 21 5.83325 21Z" fill="#99E0FF"/>
<path d="M24.2083 13.2647V11.6663C24.2083 8.95892 23.1327 6.36239 21.2183 4.44796C19.3039 2.53353 16.7073 1.45801 13.9999 1.45801C11.2925 1.45801 8.69597 2.53353 6.78154 4.44796C4.8671 6.36239 3.79159 8.95892 3.79159 11.6663V13.2647C3.12273 13.4543 2.53356 13.856 2.11274 14.4094C1.69192 14.9627 1.46224 15.6378 1.45825 16.333V18.6663C1.45825 19.5172 1.79627 20.3333 2.39795 20.935C2.99963 21.5367 3.81568 21.8747 4.66659 21.8747H5.83325C6.37379 21.8716 6.89132 21.6555 7.27354 21.2733C7.65577 20.8911 7.87186 20.3735 7.87492 19.833V15.1663C7.87186 14.6258 7.65577 14.1083 7.27354 13.726C6.89132 13.3438 6.37379 13.1277 5.83325 13.1247H5.54159V11.6663C5.54159 9.42305 6.43273 7.27164 8.01897 5.6854C9.60522 4.09915 11.7566 3.20801 13.9999 3.20801C16.2432 3.20801 18.3946 4.09915 19.9809 5.6854C21.5671 7.27164 22.4583 9.42305 22.4583 11.6663V13.1247H22.1666C21.626 13.1277 21.1085 13.3438 20.7263 13.726C20.3441 14.1083 20.128 14.6258 20.1249 15.1663V19.833C20.128 20.3735 20.3441 20.8911 20.7263 21.2733C21.1085 21.6555 21.626 21.8716 22.1666 21.8747H22.4583V23.333C22.4583 23.7198 22.3046 24.0907 22.0311 24.3642C21.7576 24.6377 21.3867 24.7913 20.9999 24.7913H13.9999C13.7679 24.7913 13.5453 24.8835 13.3812 25.0476C13.2171 25.2117 13.1249 25.4343 13.1249 25.6663C13.1249 25.8984 13.2171 26.121 13.3812 26.2851C13.5453 26.4492 13.7679 26.5413 13.9999 26.5413H20.9999C21.8508 26.5413 22.6669 26.2033 23.2686 25.6016C23.8702 25 24.2083 24.1839 24.2083 23.333V21.7347C24.8771 21.5451 25.4663 21.1434 25.8871 20.59C26.3079 20.0366 26.5376 19.3615 26.5416 18.6663V16.333C26.5376 15.6378 26.3079 14.9627 25.8871 14.4094C25.4663 13.856 24.8771 13.4543 24.2083 13.2647ZM6.12492 15.1663V19.833C6.12492 19.9104 6.09419 19.9846 6.03949 20.0392C5.98479 20.0939 5.91061 20.1247 5.83325 20.1247H4.66659C4.27981 20.1247 3.90888 19.971 3.63539 19.6975C3.3619 19.424 3.20825 19.0531 3.20825 18.6663V16.333C3.20825 15.9462 3.3619 15.5753 3.63539 15.3018C3.90888 15.0283 4.27981 14.8747 4.66659 14.8747H5.83325C5.91061 14.8747 5.98479 14.9054 6.03949 14.9601C6.09419 15.0148 6.12492 15.089 6.12492 15.1663ZM24.7916 18.6663C24.7916 19.0531 24.6379 19.424 24.3645 19.6975C24.091 19.971 23.72 20.1247 23.3333 20.1247H22.1666C22.0892 20.1247 22.015 20.0939 21.9603 20.0392C21.9056 19.9846 21.8749 19.9104 21.8749 19.833V15.1663C21.8749 15.089 21.9056 15.0148 21.9603 14.9601C22.015 14.9054 22.0892 14.8747 22.1666 14.8747H23.3333C23.72 14.8747 24.091 15.0283 24.3645 15.3018C24.6379 15.5753 24.7916 15.9462 24.7916 16.333V18.6663Z" fill="#6D12E2"/>
</svg>
