<svg width="45" height="45" viewBox="0 0 45 45" fill="none" xmlns="http://www.w3.org/2000/svg">
<rect width="45" height="45" rx="22.5" fill="#B37DFF" fill-opacity="0.2"/>
<rect x="5" y="5" width="35" height="35" rx="17.5" fill="#B37DFF"/>
<path d="M29.6172 22.0003H27.1172C26.7857 22.0003 26.4677 22.132 26.2333 22.3664C25.9989 22.6008 25.8672 22.9187 25.8672 23.2503V26.3753C25.8672 26.7068 25.9989 27.0247 26.2333 27.2591C26.4677 27.4936 26.7857 27.6253 27.1172 27.6253H28.3672C28.6987 27.6253 29.0167 27.4936 29.2511 27.2591C29.4855 27.0247 29.6172 26.7068 29.6172 26.3753V22.0003ZM29.6172 22.0003C29.6172 21.0101 29.4212 20.0297 29.0404 19.1156C28.6596 18.2016 28.1015 17.372 27.3984 16.6747C26.6954 15.9775 25.8612 15.4263 24.944 15.0531C24.0268 14.6799 23.0448 14.492 22.0547 14.5003C21.0652 14.493 20.084 14.6817 19.1678 15.0554C18.2515 15.4291 17.4182 15.9804 16.716 16.6775C16.0138 17.3747 15.4564 18.2039 15.0761 19.1174C14.6958 20.031 14.5 21.0107 14.5 22.0003V26.3753C14.5 26.7068 14.6317 27.0247 14.8661 27.2591C15.1005 27.4936 15.4185 27.6253 15.75 27.6253H17C17.3315 27.6253 17.6495 27.4936 17.8839 27.2591C18.1183 27.0247 18.25 26.7068 18.25 26.3753V23.2503C18.25 22.9187 18.1183 22.6008 17.8839 22.3664C17.6495 22.132 17.3315 22.0003 17 22.0003H14.5" stroke="white" stroke-width="1.5" stroke-linecap="round" stroke-linejoin="round"/>
<path d="M29.6172 26.375V28.25C29.6172 28.913 29.3538 29.5489 28.885 30.0178C28.4161 30.4866 27.7802 30.75 27.1172 30.75H22.625" stroke="white" stroke-width="1.5" stroke-linecap="round" stroke-linejoin="round"/>
</svg>
