<svg width="18" height="18" viewBox="0 0 18 18" fill="none" xmlns="http://www.w3.org/2000/svg">
<path d="M4 2C4 3.10457 3.10457 4 2 4C0.89543 4 0 3.10457 0 2C0 0.89543 0.89543 0 2 0C3.10457 0 4 0.89543 4 2Z" fill="url(#paint0_linear_601_6012)" fill-opacity="0.76"/>
<path d="M4 8.57139C4 9.67599 3.10457 10.5714 2 10.5714C0.89543 10.5714 0 9.67599 0 8.57139C0 7.46679 0.89543 6.57139 2 6.57139C3.10457 6.57139 4 7.46679 4 8.57139Z" fill="url(#paint1_linear_601_6012)" fill-opacity="0.76"/>
<path d="M2 17.1428C3.10457 17.1428 4 16.2474 4 15.1428C4 14.0382 3.10457 13.1428 2 13.1428C0.89543 13.1428 0 14.0382 0 15.1428C0 16.2474 0.89543 17.1428 2 17.1428Z" fill="url(#paint2_linear_601_6012)" fill-opacity="0.76"/>
<path d="M10.5709 2C10.5709 3.10457 9.67547 4 8.57087 4C7.46627 4 6.57087 3.10457 6.57087 2C6.57087 0.89543 7.46627 0 8.57087 0C9.67547 0 10.5709 0.89543 10.5709 2Z" fill="url(#paint3_linear_601_6012)" fill-opacity="0.76"/>
<path d="M8.57087 10.5714C9.67547 10.5714 10.5709 9.67599 10.5709 8.57139C10.5709 7.46679 9.67547 6.57139 8.57087 6.57139C7.46627 6.57139 6.57087 7.46679 6.57087 8.57139C6.57087 9.67599 7.46627 10.5714 8.57087 10.5714Z" fill="url(#paint4_linear_601_6012)" fill-opacity="0.76"/>
<path d="M10.5709 15.1428C10.5709 16.2474 9.67547 17.1428 8.57087 17.1428C7.46627 17.1428 6.57087 16.2474 6.57087 15.1428C6.57087 14.0382 7.46627 13.1428 8.57087 13.1428C9.67547 13.1428 10.5709 14.0382 10.5709 15.1428Z" fill="url(#paint5_linear_601_6012)" fill-opacity="0.76"/>
<path d="M15.1417 4C16.2463 4 17.1417 3.10457 17.1417 2C17.1417 0.89543 16.2463 0 15.1417 0C14.0371 0 13.1417 0.89543 13.1417 2C13.1417 3.10457 14.0371 4 15.1417 4Z" fill="url(#paint6_linear_601_6012)" fill-opacity="0.76"/>
<path d="M17.1417 8.57139C17.1417 9.67599 16.2463 10.5714 15.1417 10.5714C14.0371 10.5714 13.1417 9.67599 13.1417 8.57139C13.1417 7.46679 14.0371 6.57139 15.1417 6.57139C16.2463 6.57139 17.1417 7.46679 17.1417 8.57139Z" fill="url(#paint7_linear_601_6012)" fill-opacity="0.76"/>
<path d="M15.1417 17.1428C16.2463 17.1428 17.1417 16.2474 17.1417 15.1428C17.1417 14.0382 16.2463 13.1428 15.1417 13.1428C14.0371 13.1428 13.1417 14.0382 13.1417 15.1428C13.1417 16.2474 14.0371 17.1428 15.1417 17.1428Z" fill="url(#paint8_linear_601_6012)" fill-opacity="0.76"/>
<defs>
<linearGradient id="paint0_linear_601_6012" x1="1.5" y1="-1.93578e-07" x2="15.1406" y2="17.1427" gradientUnits="userSpaceOnUse">
<stop stop-color="#00D1FF"/>
<stop offset="1" stop-color="#FAFF00"/>
</linearGradient>
<linearGradient id="paint1_linear_601_6012" x1="1.5" y1="-1.93578e-07" x2="15.1406" y2="17.1427" gradientUnits="userSpaceOnUse">
<stop stop-color="#00D1FF"/>
<stop offset="1" stop-color="#FAFF00"/>
</linearGradient>
<linearGradient id="paint2_linear_601_6012" x1="1.5" y1="-1.93578e-07" x2="15.1406" y2="17.1427" gradientUnits="userSpaceOnUse">
<stop stop-color="#00D1FF"/>
<stop offset="1" stop-color="#FAFF00"/>
</linearGradient>
<linearGradient id="paint3_linear_601_6012" x1="1.5" y1="-1.93578e-07" x2="15.1406" y2="17.1427" gradientUnits="userSpaceOnUse">
<stop stop-color="#00D1FF"/>
<stop offset="1" stop-color="#FAFF00"/>
</linearGradient>
<linearGradient id="paint4_linear_601_6012" x1="1.5" y1="-1.93578e-07" x2="15.1406" y2="17.1427" gradientUnits="userSpaceOnUse">
<stop stop-color="#00D1FF"/>
<stop offset="1" stop-color="#FAFF00"/>
</linearGradient>
<linearGradient id="paint5_linear_601_6012" x1="1.5" y1="-1.93578e-07" x2="15.1406" y2="17.1427" gradientUnits="userSpaceOnUse">
<stop stop-color="#00D1FF"/>
<stop offset="1" stop-color="#FAFF00"/>
</linearGradient>
<linearGradient id="paint6_linear_601_6012" x1="1.5" y1="-1.93578e-07" x2="15.1406" y2="17.1427" gradientUnits="userSpaceOnUse">
<stop stop-color="#00D1FF"/>
<stop offset="1" stop-color="#FAFF00"/>
</linearGradient>
<linearGradient id="paint7_linear_601_6012" x1="1.5" y1="-1.93578e-07" x2="15.1406" y2="17.1427" gradientUnits="userSpaceOnUse">
<stop stop-color="#00D1FF"/>
<stop offset="1" stop-color="#FAFF00"/>
</linearGradient>
<linearGradient id="paint8_linear_601_6012" x1="1.5" y1="-1.93578e-07" x2="15.1406" y2="17.1427" gradientUnits="userSpaceOnUse">
<stop stop-color="#00D1FF"/>
<stop offset="1" stop-color="#FAFF00"/>
</linearGradient>
</defs>
</svg>
