<svg width="19" height="18" viewBox="0 0 19 18" fill="none" xmlns="http://www.w3.org/2000/svg">
<path d="M10 11.25C11.5533 11.25 12.8125 9.9908 12.8125 8.4375C12.8125 6.8842 11.5533 5.625 10 5.625C8.4467 5.625 7.1875 6.8842 7.1875 8.4375C7.1875 9.9908 8.4467 11.25 10 11.25Z" stroke="#645DF6" strokeLinecap="round" strokeLinejoin="round"/>
<path d="M5.48596 14.0203C5.90918 13.1867 6.55496 12.4866 7.35173 11.9975C8.1485 11.5084 9.06513 11.2496 10 11.2496C10.9349 11.2496 11.8515 11.5084 12.6483 11.9975C13.4451 12.4866 14.0909 13.1867 14.5141 14.0203" stroke="#645DF6" strokeLinecap="round" strokeLinejoin="round"/>
<path d="M15.0625 9L16.75 10.6875L18.4375 9" stroke="#645DF6" strokeLinecap="round" strokeLinejoin="round"/>
<path d="M1.5625 9L3.25 7.3125L4.9375 9" stroke="#645DF6" strokeWidth="1.5" strokeLinecap="round" strokeLinejoin="round"/>
<path d="M16.75 10.6875V9.00001C16.7516 7.54164 16.2808 6.12197 15.4082 4.95352C14.5355 3.78506 13.3079 2.93066 11.909 2.51821C10.5102 2.10577 9.01538 2.15746 7.64838 2.66554C6.28137 3.17363 5.11569 4.11079 4.32581 5.33673" stroke="#645DF6" strokeLinecap="round" strokeLinejoin="round"/>
<path d="M3.25 7.3125V9C3.24841 10.4584 3.71919 11.878 4.59186 13.0465C5.46454 14.215 6.69218 15.0694 8.09101 15.4818C9.48985 15.8942 10.9846 15.8426 12.3517 15.3345C13.7187 14.8264 14.8843 13.8892 15.6742 12.6633" stroke="#645DF6" strokeLinecap="round" strokeLinejoin="round"/>
</svg>
