<svg width="20" height="21" viewBox="0 0 20 21" fill="none" xmlns="http://www.w3.org/2000/svg">
<g clip-path="url(#clip0_535_7057)">
<path d="M10 14.748C9.25832 14.748 8.5333 14.5281 7.91661 14.1161C7.29993 13.704 6.81928 13.1183 6.53545 12.4331C6.25162 11.7479 6.17736 10.9939 6.32206 10.2665C6.46675 9.53903 6.8239 8.87084 7.34835 8.3464C7.8728 7.82195 8.54098 7.4648 9.26841 7.3201C9.99584 7.17541 10.7498 7.24967 11.4351 7.5335C12.1203 7.81733 12.706 8.29798 13.118 8.91466C13.5301 9.53134 13.75 10.2564 13.75 10.998C13.75 11.9926 13.3549 12.9464 12.6517 13.6497C11.9484 14.353 10.9946 14.748 10 14.748ZM10 8.49805C9.50555 8.49805 9.0222 8.64467 8.61108 8.91937C8.19995 9.19408 7.87952 9.58452 7.6903 10.0413C7.50108 10.4982 7.45158 11.0008 7.54804 11.4858C7.6445 11.9707 7.8826 12.4162 8.23223 12.7658C8.58187 13.1154 9.02732 13.3535 9.51228 13.45C9.99723 13.5465 10.4999 13.497 10.9567 13.3077C11.4135 13.1185 11.804 12.7981 12.0787 12.387C12.3534 11.9759 12.5 11.4925 12.5 10.998C12.5 10.335 12.2366 9.69912 11.7678 9.23028C11.2989 8.76144 10.663 8.49805 10 8.49805Z" fill="#3B56B5"/>
<path d="M13.125 20.3732H6.875C6.21196 20.3732 5.57607 20.1098 5.10723 19.6409C4.63839 19.1721 4.375 18.5362 4.375 17.8732V16.2794C4.37612 16.1553 4.41417 16.0343 4.48429 15.9319C4.55442 15.8295 4.65344 15.7503 4.76875 15.7044L7.04375 14.7919C7.12087 14.7577 7.2041 14.7395 7.28845 14.7383C7.3728 14.7372 7.45651 14.7531 7.53454 14.7852C7.61256 14.8172 7.6833 14.8647 7.74247 14.9248C7.80165 14.9849 7.84805 15.0564 7.87886 15.1349C7.90968 15.2135 7.92429 15.2974 7.9218 15.3817C7.91931 15.4661 7.89977 15.549 7.86437 15.6256C7.82897 15.7021 7.77844 15.7707 7.71582 15.8273C7.6532 15.8838 7.57978 15.927 7.5 15.9544L5.625 16.7044V17.8732C5.625 18.2047 5.7567 18.5226 5.99112 18.7571C6.22554 18.9915 6.54348 19.1232 6.875 19.1232H13.125C13.4565 19.1232 13.7745 18.9915 14.0089 18.7571C14.2433 18.5226 14.375 18.2047 14.375 17.8732V16.7044L12.5 15.9544C12.3458 15.8931 12.2224 15.773 12.1567 15.6207C12.0911 15.4683 12.0887 15.2961 12.15 15.1419C12.2113 14.9878 12.3314 14.8643 12.4838 14.7986C12.6361 14.733 12.8083 14.7306 12.9625 14.7919L15.2375 15.7044C15.3528 15.7503 15.4518 15.8295 15.522 15.9319C15.5921 16.0343 15.6301 16.1553 15.6313 16.2794V17.8732C15.6313 18.202 15.5664 18.5276 15.4404 18.8313C15.3143 19.135 15.1296 19.4109 14.8968 19.6431C14.664 19.8754 14.3877 20.0594 14.0836 20.1847C13.7796 20.3099 13.4538 20.374 13.125 20.3732Z" fill="#3B56B5"/>
<path d="M5.625 7.87305C5.00693 7.87305 4.40275 7.68977 3.88884 7.34639C3.37494 7.00301 2.9744 6.51495 2.73788 5.94393C2.50135 5.37292 2.43947 4.74458 2.56005 4.13839C2.68063 3.5322 2.97825 2.97538 3.41529 2.53834C3.85233 2.1013 4.40915 1.80367 5.01534 1.68309C5.62154 1.56252 6.24987 1.6244 6.82089 1.86092C7.39191 2.09745 7.87996 2.49799 8.22334 3.01189C8.56672 3.52579 8.75 4.12998 8.75 4.74805C8.75 5.15843 8.66917 5.56479 8.51213 5.94393C8.35508 6.32308 8.12489 6.66757 7.83471 6.95776C7.54453 7.24794 7.20003 7.47813 6.82089 7.63517C6.44174 7.79222 6.03538 7.87305 5.625 7.87305ZM5.625 2.87305C5.25416 2.87305 4.89165 2.98302 4.58331 3.18904C4.27496 3.39507 4.03464 3.68791 3.89273 4.03052C3.75081 4.37313 3.71368 4.75013 3.78603 5.11384C3.85838 5.47756 4.03695 5.81165 4.29918 6.07387C4.5614 6.3361 4.89549 6.51467 5.25921 6.58702C5.62292 6.65937 5.99992 6.62224 6.34253 6.48032C6.68514 6.33841 6.97798 6.09808 7.18401 5.78974C7.39003 5.4814 7.5 5.11889 7.5 4.74805C7.5 4.25077 7.30246 3.77385 6.95083 3.42222C6.5992 3.07059 6.12228 2.87305 5.625 2.87305Z" fill="#3B56B5"/>
<path d="M5 13.1166H3.125C2.46196 13.1166 1.82607 12.8532 1.35723 12.3843C0.888392 11.9155 0.625 11.2796 0.625 10.6166V9.52281C0.624879 9.39763 0.662347 9.2753 0.732551 9.17167C0.802755 9.06804 0.902459 8.98787 1.01875 8.94156L3.0125 8.16031C3.16434 8.10003 3.33374 8.1016 3.48443 8.16469C3.63512 8.22777 3.75513 8.34734 3.81875 8.49781C3.8492 8.57413 3.86429 8.65571 3.86317 8.73787C3.86206 8.82003 3.84475 8.90117 3.81224 8.97664C3.77973 9.0521 3.73266 9.12042 3.67372 9.17767C3.61478 9.23493 3.54513 9.28 3.46875 9.31031L1.875 9.94781V10.6166C1.875 10.9481 2.0067 11.266 2.24112 11.5004C2.47554 11.7349 2.79348 11.8666 3.125 11.8666H5C5.16576 11.8666 5.32473 11.9324 5.44194 12.0496C5.55915 12.1668 5.625 12.3258 5.625 12.4916C5.625 12.6573 5.55915 12.8163 5.44194 12.9335C5.32473 13.0507 5.16576 13.1166 5 13.1166Z" fill="#3B56B5"/>
<path d="M14.375 7.87305C13.7569 7.87305 13.1527 7.68977 12.6388 7.34639C12.1249 7.00301 11.7244 6.51495 11.4879 5.94393C11.2514 5.37292 11.1895 4.74458 11.31 4.13839C11.4306 3.5322 11.7283 2.97538 12.1653 2.53834C12.6023 2.1013 13.1592 1.80367 13.7653 1.68309C14.3715 1.56252 14.9999 1.6244 15.5709 1.86092C16.1419 2.09745 16.63 2.49799 16.9733 3.01189C17.3167 3.52579 17.5 4.12998 17.5 4.74805C17.5 5.57685 17.1708 6.37171 16.5847 6.95776C15.9987 7.54381 15.2038 7.87305 14.375 7.87305ZM14.375 2.87305C14.0042 2.87305 13.6416 2.98302 13.3333 3.18904C13.025 3.39507 12.7846 3.68791 12.6427 4.03052C12.5008 4.37313 12.4637 4.75013 12.536 5.11384C12.6084 5.47756 12.787 5.81165 13.0492 6.07387C13.3114 6.3361 13.6455 6.51467 14.0092 6.58702C14.3729 6.65937 14.7499 6.62224 15.0925 6.48032C15.4351 6.33841 15.728 6.09808 15.934 5.78974C16.14 5.4814 16.25 5.11889 16.25 4.74805C16.25 4.25077 16.0525 3.77385 15.7008 3.42222C15.3492 3.07059 14.8723 2.87305 14.375 2.87305Z" fill="#3B56B5"/>
<path d="M16.875 13.1168H15C14.8342 13.1168 14.6753 13.051 14.5581 12.9338C14.4408 12.8166 14.375 12.6576 14.375 12.4918C14.375 12.3261 14.4408 12.1671 14.5581 12.0499C14.6753 11.9327 14.8342 11.8668 15 11.8668H16.875C17.2065 11.8668 17.5245 11.7351 17.7589 11.5007C17.9933 11.2663 18.125 10.9483 18.125 10.6168V9.94807L16.5313 9.32307C16.4549 9.29276 16.3852 9.24769 16.3263 9.19044C16.2673 9.13318 16.2203 9.06487 16.1878 8.9894C16.1553 8.91393 16.1379 8.8328 16.1368 8.75063C16.1357 8.66847 16.1508 8.58689 16.1812 8.51057C16.2413 8.35671 16.3598 8.23287 16.5109 8.16611C16.662 8.09936 16.8333 8.09512 16.9875 8.15432L18.9813 8.93557C19.0975 8.98188 19.1972 9.06205 19.2674 9.16568C19.3377 9.26932 19.3751 9.39165 19.375 9.51682V10.6106C19.3758 10.9394 19.3118 11.2652 19.1865 11.5692C19.0612 11.8732 18.8772 12.1496 18.645 12.3824C18.4128 12.6152 18.1369 12.7999 17.8332 12.9259C17.5294 13.0519 17.2038 13.1168 16.875 13.1168Z" fill="#3B56B5"/>
</g>
<defs>
<clipPath id="clip0_535_7057">
<rect width="20" height="20" fill="white" transform="translate(0 0.998047)"/>
</clipPath>
</defs>
</svg>
