<svg width="102" height="29" viewBox="0 0 102 29" fill="none" xmlns="http://www.w3.org/2000/svg">
<g clip-path="url(#clip0_59_28211)">
<path d="M27 22.4408C27 25.7895 24.2842 28.5 20.9408 28.5H6.05918C2.71582 28.5 0 25.7842 0 22.4408V7.55918C0 4.21582 2.71582 1.5 6.05918 1.5H20.9408C24.2842 1.5 27 4.21582 27 7.55918V22.4408Z" fill="#5EBEE1"/>
<path d="M20.2025 8.57153L6.13295 14.0506C5.67943 14.2299 5.7058 14.8838 6.17514 15.0209L9.75053 16.0756L11.0847 20.3102C11.2218 20.7532 11.7861 20.885 12.1078 20.5528L13.9587 18.6649L17.5869 21.328C18.0298 21.6549 18.6626 21.4124 18.7734 20.8745L21.1728 9.38892C21.2941 8.82993 20.7404 8.3606 20.2025 8.57153ZM18.4412 11.1186L11.9074 16.8983C11.8441 16.9563 11.8019 17.0354 11.7913 17.1198L11.5382 19.3557C11.5277 19.4295 11.4275 19.4401 11.4064 19.3663L10.3728 16.0282C10.3253 15.8752 10.3886 15.7118 10.5257 15.6274L18.2408 10.8391C18.4148 10.7389 18.5994 10.9815 18.4412 11.1186Z" fill="white"/>
</g>
<circle cx="38" cy="15" r="3" fill="#8C8EA1"/>
<line x1="41" y1="14.5" x2="58" y2="14.5" stroke="#9396B1" stroke-dasharray="2 2"/>
<circle cx="61" cy="15" r="3" fill="#8C8EA1"/>
<path d="M77.6063 15.8792L75.0714 14.4006L75.0714 17.3581L77.6063 15.8792Z" fill="#DB002A" stroke="#DC012B"/>
<path d="M93.3059 8.79219L96.3561 7.62745L96.3561 10.5386L93.3059 8.79219Z" fill="#FF9801" stroke="#FF9801"/>
<path d="M72 19.8913L86.6341 10.5L102 19.8913L86.6341 28.4999L72 19.8913Z" fill="#9E1D93"/>
<path d="M75.4286 13.513L87.1359 6L99.4286 13.513L87.1359 20.3999L75.4286 13.513Z" fill="#F7476E" stroke="#F7476E"/>
<path d="M78.4286 6.89998L87 1.5L96 6.89998L87 11.85L78.4286 6.89998Z" fill="#FFCD00" stroke="#FFCD00"/>
<defs>
<clipPath id="clip0_59_28211">
<rect width="27" height="27" fill="white" transform="translate(0 1.5)"/>
</clipPath>
</defs>
</svg>
