<svg width="120" height="120" viewBox="0 0 120 120" fill="none" xmlns="http://www.w3.org/2000/svg">
<g clip-path="url(#clip0_5_21290)">
<path d="M120 93.0703C120 107.953 107.93 120 93.0703 120H26.9297C12.0703 120 0 107.93 0 93.0703V26.9297C0 12.0703 12.0703 0 26.9297 0H93.0703C107.93 0 120 12.0703 120 26.9297V93.0703Z" fill="#E8F1FB"/>
<path d="M89.7892 31.4296L27.258 55.7812C25.2424 56.5781 25.3595 59.4843 27.4455 60.0937L43.3361 64.7812L49.2658 83.6015C49.8752 85.5703 52.383 86.1562 53.8127 84.6796L62.0392 76.289L78.1642 88.125C80.133 89.5781 82.9455 88.5 83.4377 86.1093L94.1017 35.0624C94.6408 32.5781 92.1799 30.4921 89.7892 31.4296ZM81.9611 42.7499L52.922 68.4375C52.6408 68.6953 52.4533 69.0468 52.4064 69.4218L51.2814 79.3593C51.2345 79.6875 50.7892 79.7343 50.6955 79.4062L46.1017 64.5703C45.8908 63.8906 46.172 63.164 46.7814 62.789L81.0705 41.5078C81.8439 41.0624 82.6642 42.1406 81.9611 42.7499Z" fill="white"/>
</g>
<defs>
<clipPath id="clip0_5_21290">
<rect width="120" height="120" fill="white"/>
</clipPath>
</defs>
</svg>
