<svg width="30" height="30" viewBox="0 0 30 30" fill="none" xmlns="http://www.w3.org/2000/svg">
<rect x="9" width="21" height="21" rx="10.5" fill="#D3F3FF"/>
<g clip-path="url(#clip0_416_479522)">
<path d="M11.5 7C5.14868 7 0 12.1487 0 18.5C0 24.8513 5.14868 30 11.5 30C17.8513 30 23 24.8513 23 18.5C23 12.1487 17.8513 7 11.5 7Z" fill="#40B3E0"/>
<path d="M17.0954 13.6153L15.0414 23.9713C15.0414 23.9713 14.7542 24.6895 13.9642 24.3448L9.22418 20.7108L7.50062 19.8777L4.59921 18.9009C4.59921 18.9009 4.15394 18.743 4.11082 18.3983C4.06778 18.0535 4.61358 17.8668 4.61358 17.8668L16.1474 13.3423C16.1474 13.3423 17.0954 12.9258 17.0954 13.6153Z" fill="white"/>
<path d="M8.86022 23.855C8.86022 23.855 8.72186 23.8421 8.54945 23.2962C8.37713 22.7504 7.50098 19.8777 7.50098 19.8777L14.4672 15.4538C14.4672 15.4538 14.8694 15.2096 14.855 15.4538C14.855 15.4538 14.9268 15.4968 14.7114 15.6979C14.4959 15.8991 9.23891 20.6246 9.23891 20.6246" fill="#D2E5F1"/>
<path d="M11.0421 22.1041L9.16726 23.8135C9.16726 23.8135 9.02072 23.9247 8.86035 23.855L9.21937 20.6798" fill="#B5CFE4"/>
</g>
<defs>
<clipPath id="clip0_416_479522">
<rect width="23" height="23" fill="white" transform="translate(0 7)"/>
</clipPath>
</defs>
</svg>
