<svg width="18" height="18" viewBox="0 0 18 18" fill="none" xmlns="http://www.w3.org/2000/svg">
<g clip-path="url(#clip0_301_3131)">
<path d="M14.625 3.375V5.625H3.375V3.375H14.625ZM14.625 2.25H3.375C3.07663 2.25 2.79048 2.36853 2.5795 2.5795C2.36853 2.79048 2.25 3.07663 2.25 3.375V5.625C2.25 5.92337 2.36853 6.20952 2.5795 6.4205C2.79048 6.63147 3.07663 6.75 3.375 6.75H14.625C14.9234 6.75 15.2095 6.63147 15.4205 6.4205C15.6315 6.20952 15.75 5.92337 15.75 5.625V3.375C15.75 3.07663 15.6315 2.79048 15.4205 2.5795C15.2095 2.36853 14.9234 2.25 14.625 2.25Z" fill="url(#paint0_linear_301_3131)"/>
<path d="M5.625 9V14.625H3.375V9H5.625ZM5.625 7.875H3.375C3.07663 7.875 2.79048 7.99353 2.5795 8.20451C2.36853 8.41548 2.25 8.70163 2.25 9V14.625C2.25 14.9234 2.36853 15.2095 2.5795 15.4205C2.79048 15.6315 3.07663 15.75 3.375 15.75H5.625C5.92337 15.75 6.20952 15.6315 6.4205 15.4205C6.63147 15.2095 6.75 14.9234 6.75 14.625V9C6.75 8.70163 6.63147 8.41548 6.4205 8.20451C6.20952 7.99353 5.92337 7.875 5.625 7.875Z" fill="url(#paint1_linear_301_3131)"/>
<path d="M14.625 9V14.625H9V9H14.625ZM14.625 7.875H9C8.70163 7.875 8.41548 7.99353 8.20451 8.20451C7.99353 8.41548 7.875 8.70163 7.875 9V14.625C7.875 14.9234 7.99353 15.2095 8.20451 15.4205C8.41548 15.6315 8.70163 15.75 9 15.75H14.625C14.9234 15.75 15.2095 15.6315 15.4205 15.4205C15.6315 15.2095 15.75 14.9234 15.75 14.625V9C15.75 8.70163 15.6315 8.41548 15.4205 8.20451C15.2095 7.99353 14.9234 7.875 14.625 7.875Z" fill="url(#paint2_linear_301_3131)"/>
</g>
<defs>
<linearGradient id="paint0_linear_301_3131" x1="9" y1="2.25" x2="9" y2="6.75" gradientUnits="userSpaceOnUse">
<stop stop-color="#000AFF"/>
<stop offset="1" stop-color="#D274FF"/>
</linearGradient>
<linearGradient id="paint1_linear_301_3131" x1="4.5" y1="7.875" x2="4.5" y2="15.75" gradientUnits="userSpaceOnUse">
<stop stop-color="#000AFF"/>
<stop offset="1" stop-color="#D274FF"/>
</linearGradient>
<linearGradient id="paint2_linear_301_3131" x1="11.8125" y1="7.875" x2="11.8125" y2="15.75" gradientUnits="userSpaceOnUse">
<stop stop-color="#000AFF"/>
<stop offset="1" stop-color="#D274FF"/>
</linearGradient>
<clipPath id="clip0_301_3131">
<rect width="18" height="18" fill="white"/>
</clipPath>
</defs>
</svg>
