<svg width="17" height="17" viewBox="0 0 17 17" fill="none" xmlns="http://www.w3.org/2000/svg">
<path d="M0.583374 3.1569C0.583374 1.73591 1.7353 0.583984 3.15629 0.583984H11.4688C12.8898 0.583984 14.0417 1.73591 14.0417 3.1569V6.92302C13.9762 6.91922 13.9102 6.91732 13.8438 6.91732H12.8542V3.1569C12.8542 2.39176 12.2339 1.77148 11.4688 1.77148H3.15629C2.39114 1.77148 1.77087 2.39176 1.77087 3.1569V12.2611C1.77087 13.0262 2.39114 13.6465 3.15629 13.6465H3.75004V13.8444C3.75004 14.1888 3.80178 14.5211 3.89792 14.834H3.15629C1.73531 14.834 0.583374 13.682 0.583374 12.2611V3.1569ZM4.34379 2.95898C4.01587 2.95898 3.75004 3.22482 3.75004 3.55273C3.75004 3.88065 4.01587 4.14648 4.34379 4.14648H10.2813C10.6092 4.14648 10.875 3.88065 10.875 3.55273C10.875 3.22482 10.6092 2.95898 10.2813 2.95898H4.34379ZM5.33337 5.5319C5.33337 5.20398 5.59921 4.93815 5.92712 4.93815H10.2813C10.6092 4.93815 10.875 5.20398 10.875 5.5319C10.875 5.85982 10.6092 6.12565 10.2813 6.12565H5.92712C5.59921 6.12565 5.33337 5.85982 5.33337 5.5319ZM4.54171 10.2819C4.54171 8.86094 5.69364 7.70898 7.11462 7.70898H13.8438C15.2648 7.70898 16.4167 8.86094 16.4167 10.2819V13.8444C16.4167 15.2654 15.2648 16.4173 13.8438 16.4173H7.11462C5.69364 16.4173 4.54171 15.2654 4.54171 13.8444V10.2819ZM7.11462 8.89648C6.71539 8.89648 6.35561 9.06535 6.10279 9.33554L10.4793 12.149L14.8556 9.33554C14.6028 9.06535 14.243 8.89648 13.8438 8.89648H7.11462ZM5.72921 13.8444C5.72921 14.6095 6.34948 15.2298 7.11462 15.2298H13.8438C14.6089 15.2298 15.2292 14.6095 15.2292 13.8444V10.5071L10.8003 13.3543C10.6048 13.48 10.3537 13.48 10.1582 13.3543L5.72921 10.5071V13.8444Z" fill="#4A6ADA"/>
</svg>
