<svg width="11" height="10" viewBox="0 0 11 10" fill="none" xmlns="http://www.w3.org/2000/svg">
<path d="M3.61035 1.00586C3.16113 1.00586 2.80469 1.02539 2.54102 1.06445C2.37012 1.08887 2.21387 1.15723 2.07227 1.26953C1.93555 1.38184 1.81592 1.50879 1.71338 1.65039C1.61572 1.79199 1.49609 1.98242 1.35449 2.22168C1.20801 2.48047 1.08105 2.67578 0.973633 2.80762H0.636719L0.819824 0.419922C1.62549 0.454102 2.66553 0.471191 3.93994 0.471191L6.79639 0.463867H7.75586C8.74219 0.463867 9.54053 0.444336 10.1509 0.405273L10.3853 2.81494H10.0337C9.96045 2.72705 9.88477 2.61719 9.80664 2.48535C9.72852 2.34863 9.67725 2.26074 9.65283 2.22168C9.45752 1.875 9.27441 1.604 9.10352 1.40869C8.9375 1.21338 8.73975 1.09863 8.51025 1.06445C8.34424 1.04004 8.17578 1.02539 8.00488 1.02051C7.83887 1.01074 7.62891 1.00586 7.375 1.00586H6.25439V8.23486C6.25439 8.61084 6.31787 8.8916 6.44482 9.07715C6.57666 9.25781 6.74756 9.37988 6.95752 9.44336C7.17236 9.50684 7.48975 9.56543 7.90967 9.61914C7.90967 9.79004 7.90479 9.91699 7.89502 10H3.04639L3.03174 9.61914C3.11475 9.58984 3.24414 9.55078 3.41992 9.50195C3.70801 9.41406 3.93506 9.33105 4.10107 9.25293C4.26709 9.1748 4.40381 9.05518 4.51123 8.89404C4.62354 8.73291 4.67969 8.51318 4.67969 8.23486V1.00586H3.61035Z" fill="#333333"/>
</svg>
