<svg width="27" height="28" viewBox="0 0 27 28" fill="none" xmlns="http://www.w3.org/2000/svg">
<g opacity="0.5" clip-path="url(#clip0_209_53)">
<path d="M19.9036 13.1141C19.7873 13.0583 19.6692 13.0047 19.5495 12.9533C19.3411 9.11328 17.2429 6.91486 13.7196 6.89236C13.7037 6.89226 13.6878 6.89226 13.6718 6.89226C11.5645 6.89226 9.81184 7.79179 8.73309 9.42863L10.6708 10.7578C11.4766 9.53517 12.7414 9.27452 13.6728 9.27452C13.6835 9.27452 13.6943 9.27452 13.705 9.27462C14.865 9.28202 15.7404 9.61931 16.307 10.2771C16.7193 10.7559 16.9951 11.4177 17.1316 12.2528C16.1031 12.078 14.9908 12.0243 13.8016 12.0924C10.4519 12.2854 8.29844 14.239 8.44307 16.9537C8.51646 18.3307 9.20246 19.5153 10.3746 20.2891C11.3657 20.9433 12.642 21.2633 13.9686 21.1908C15.7205 21.0948 17.0948 20.4264 18.0536 19.2042C18.7817 18.2761 19.2423 17.0733 19.4456 15.5578C20.2805 16.0617 20.8993 16.7247 21.241 17.5218C21.822 18.8767 21.8559 21.1032 20.0392 22.9184C18.4475 24.5086 16.5341 25.1965 13.6425 25.2178C10.435 25.194 8.00913 24.1653 6.43192 22.1603C4.95499 20.2828 4.19171 17.571 4.16323 14.1001C4.19171 10.6292 4.95499 7.91732 6.43192 6.03985C8.00913 4.03485 10.4349 3.00619 13.6425 2.98236C16.8733 3.00637 19.3414 4.03998 20.979 6.05466C21.782 7.04263 22.3874 8.28509 22.7865 9.73373L25.0571 9.12791C24.5734 7.34478 23.8122 5.80824 22.7763 4.53394C20.6769 1.95104 17.6065 0.62754 13.6504 0.600098H13.6346C9.68648 0.627445 6.65045 1.95598 4.61085 4.54875C2.79589 6.856 1.85968 10.0664 1.82822 14.0906L1.82812 14.1001L1.82822 14.1096C1.85968 18.1338 2.79589 21.3443 4.61085 23.6515C6.65045 26.2442 9.68648 27.5728 13.6346 27.6001H13.6504C17.1605 27.5758 19.6346 26.6568 21.6728 24.6204C24.3395 21.9563 24.2592 18.6168 23.3803 16.5668C22.7498 15.0967 21.5475 13.9027 19.9036 13.1141ZM13.8432 18.812C12.3751 18.8947 10.8498 18.2357 10.7746 16.8243C10.7189 15.7778 11.5194 14.61 13.9333 14.4709C14.2097 14.455 14.481 14.4472 14.7475 14.4472C15.6243 14.4472 16.4445 14.5323 17.1903 14.6954C16.9121 18.1691 15.2806 18.7331 13.8432 18.812Z" fill="black"/>
</g>
<defs>
<clipPath id="clip0_209_53">
<rect width="27" height="27" fill="white" transform="translate(0 0.600098)"/>
</clipPath>
</defs>
</svg>
