<svg width="18" height="18" viewBox="0 0 18 18" fill="none" xmlns="http://www.w3.org/2000/svg">
<path d="M2.84841 3.375H5.99357V10.6875H2.84841C2.70939 10.6875 2.57606 10.6282 2.47775 10.5227C2.37945 10.4173 2.32422 10.2742 2.32422 10.125V3.9375C2.32422 3.78832 2.37945 3.64524 2.47775 3.53975C2.57606 3.43426 2.70939 3.375 2.84841 3.375V3.375Z" stroke="url(#paint0_linear_1567_271924)" stroke-linecap="round" stroke-linejoin="round"/>
<path d="M5.99219 10.6875L8.61316 16.3125C9.16925 16.3125 9.70258 16.0754 10.0958 15.6535C10.489 15.2315 10.7099 14.6592 10.7099 14.0625V12.375H14.7659C14.9145 12.3754 15.0615 12.3416 15.197 12.276C15.3325 12.2104 15.4534 12.1144 15.5514 11.9945C15.6495 11.8747 15.7225 11.7336 15.7656 11.581C15.8087 11.4283 15.8208 11.2675 15.8012 11.1094L15.0149 4.35938C14.9831 4.0884 14.8605 3.8391 14.67 3.65798C14.4795 3.47685 14.2341 3.37627 13.9796 3.375H5.99219" stroke="url(#paint1_linear_1567_271924)" stroke-linecap="round" stroke-linejoin="round"/>
<defs>
<linearGradient id="paint0_linear_1567_271924" x1="4.1589" y1="3.375" x2="4.1589" y2="10.6875" gradientUnits="userSpaceOnUse">
<stop stop-color="#000AFF"/>
<stop offset="1" stop-color="#D274FF"/>
</linearGradient>
<linearGradient id="paint1_linear_1567_271924" x1="10.9012" y1="3.375" x2="10.9012" y2="16.3125" gradientUnits="userSpaceOnUse">
<stop stop-color="#000AFF"/>
<stop offset="1" stop-color="#D274FF"/>
</linearGradient>
</defs>
</svg>
