<svg width="14" height="14" viewBox="0 0 14 14" fill="none" xmlns="http://www.w3.org/2000/svg">
<path d="M1.75 2.625H4.375V8.3125H1.75C1.63397 8.3125 1.52269 8.26641 1.44064 8.18436C1.35859 8.10231 1.3125 7.99103 1.3125 7.875V3.0625C1.3125 2.94647 1.35859 2.83519 1.44064 2.75314C1.52269 2.67109 1.63397 2.625 1.75 2.625V2.625Z" stroke="#645DF6" stroke-linecap="round" stroke-linejoin="round"/>
<path d="M4.375 8.3125L6.5625 12.6875C7.02663 12.6875 7.47175 12.5031 7.79994 12.1749C8.12812 11.8467 8.3125 11.4016 8.3125 10.9375V9.625H11.6977C11.8217 9.62531 11.9444 9.59906 12.0575 9.54802C12.1706 9.49698 12.2714 9.42233 12.3533 9.32909C12.4351 9.23585 12.4961 9.12617 12.532 9.00742C12.568 8.88867 12.5781 8.76361 12.5617 8.64062L11.9055 3.39062C11.8789 3.17987 11.7766 2.98597 11.6176 2.84509C11.4586 2.70422 11.2538 2.62599 11.0414 2.625H4.375" stroke="#645DF6" stroke-linecap="round" stroke-linejoin="round"/>
</svg>
