<svg width="14" height="14" viewBox="0 0 14 14" fill="none" xmlns="http://www.w3.org/2000/svg">
<path d="M1.75 5.6875H4.375V11.375H1.75C1.63397 11.375 1.52269 11.3289 1.44064 11.2469C1.35859 11.1648 1.3125 11.0535 1.3125 10.9375V6.125C1.3125 6.00897 1.35859 5.89769 1.44064 5.81564C1.52269 5.73359 1.63397 5.6875 1.75 5.6875V5.6875Z" stroke="#645DF6" stroke-linecap="round" stroke-linejoin="round"/>
<path d="M4.375 5.6875L6.5625 1.3125C7.02663 1.3125 7.47175 1.49687 7.79994 1.82506C8.12812 2.15325 8.3125 2.59837 8.3125 3.0625V4.375H11.6977C11.8217 4.37469 11.9444 4.40094 12.0575 4.45198C12.1706 4.50302 12.2714 4.57767 12.3533 4.67091C12.4351 4.76415 12.4961 4.87383 12.532 4.99258C12.568 5.11133 12.5781 5.23639 12.5617 5.35938L11.9055 10.6094C11.8789 10.8201 11.7766 11.014 11.6176 11.1549C11.4586 11.2958 11.2538 11.374 11.0414 11.375H4.375" stroke="#645DF6" stroke-linecap="round" stroke-linejoin="round"/>
</svg>
