<svg width="33" height="33" viewBox="0 0 33 33" fill="none" xmlns="http://www.w3.org/2000/svg">
<path d="M16.5 30.25C24.0938 30.25 30.25 24.0938 30.25 16.5C30.25 8.90608 24.0938 2.75 16.5 2.75C8.90608 2.75 2.75 8.90608 2.75 16.5C2.75 24.0938 8.90608 30.25 16.5 30.25Z" fill="#0FA779"/>
<path d="M14.5461 21.4256C14.2711 21.4256 14.0098 21.3156 13.8173 21.1231L9.92602 17.2319C9.52727 16.8331 9.52727 16.1731 9.92602 15.7744C10.3248 15.3756 10.9848 15.3756 11.3835 15.7744L14.5461 18.9369L21.6136 11.8694C22.0123 11.4706 22.6723 11.4706 23.0711 11.8694C23.4698 12.2681 23.4698 12.9281 23.0711 13.3269L15.2748 21.1231C15.0823 21.3156 14.8211 21.4256 14.5461 21.4256Z" fill="white"/>
</svg>
