<svg width="20" height="20" viewBox="0 0 20 20" fill="none" xmlns="http://www.w3.org/2000/svg">
<path d="M15.4923 1.32991L18.671 4.50868C19.5497 5.38736 19.5497 6.81198 18.671 7.69066L16.0866 10.2746C17.1696 10.437 18 11.3713 18 12.4996V17.7496C18 18.9922 16.9926 19.9996 15.75 19.9996H2.25C1.00736 19.9996 0 18.9922 0 17.7496V4.24958C0 3.00694 1.00736 1.99958 2.25 1.99958H7.5C8.6289 1.99958 9.5637 2.83103 9.7253 3.91498L12.3103 1.32991C13.189 0.451228 14.6136 0.451228 15.4923 1.32991ZM1.5 17.7496C1.5 18.1638 1.83579 18.4996 2.25 18.4996L8.249 18.4989L8.25 11.7496L1.5 11.7489V17.7496ZM9.749 18.4989L15.75 18.4996C16.1642 18.4996 16.5 18.1638 16.5 17.7496V12.4996C16.5 12.0854 16.1642 11.7496 15.75 11.7496L9.749 11.7489V18.4989ZM7.5 3.49958H2.25C1.83579 3.49958 1.5 3.83536 1.5 4.24958V10.2489H8.25V4.24958C8.25 3.83536 7.9142 3.49958 7.5 3.49958ZM9.75 8.3089V10.2496L11.69 10.2489L9.75 8.3089ZM13.3709 2.39057L10.1922 5.56934C9.8993 5.86223 9.8993 6.33711 10.1922 6.63L13.3709 9.8088C13.6638 10.1017 14.1387 10.1017 14.4316 9.8088L17.6104 6.63C17.9033 6.33711 17.9033 5.86223 17.6104 5.56934L14.4316 2.39057C14.1387 2.09768 13.6638 2.09768 13.3709 2.39057Z" fill="#475987"/>
</svg>
