<svg width="21" height="21" viewBox="0 0 21 21" fill="none" xmlns="http://www.w3.org/2000/svg">
<path d="M3.67461 3.15002C2.80476 3.15002 2.09961 3.85517 2.09961 4.72502V8.92502C2.09961 9.79488 2.80476 10.5 3.67461 10.5H13.1246C13.9944 10.5 14.6996 9.79488 14.6996 8.92502V4.72502C14.6996 3.85517 13.9944 3.15002 13.1246 3.15002H3.67461ZM3.14961 4.72502C3.14961 4.43508 3.38466 4.20002 3.67461 4.20002H13.1246C13.4145 4.20002 13.6496 4.43508 13.6496 4.72502V8.92502C13.6496 9.21497 13.4145 9.45002 13.1246 9.45002H3.67461C3.38466 9.45002 3.14961 9.21497 3.14961 8.92502V4.72502ZM3.67461 11.55C2.80476 11.55 2.09961 12.2552 2.09961 13.125V17.325C2.09961 18.1948 2.80476 18.9 3.67461 18.9H13.1246C13.9944 18.9 14.6996 18.1948 14.6996 17.325V13.125C14.6996 12.2552 13.9944 11.55 13.1246 11.55H3.67461ZM3.14961 13.125C3.14961 12.8351 3.38466 12.6 3.67461 12.6H13.1246C13.4145 12.6 13.6496 12.8351 13.6496 13.125V17.325C13.6496 17.6149 13.4145 17.85 13.1246 17.85H3.67461C3.38466 17.85 3.14961 17.6149 3.14961 17.325V13.125ZM17.8494 13.0589C17.6817 13.102 17.5058 13.125 17.3246 13.125C17.1434 13.125 16.9674 13.102 16.7996 13.0589C15.8939 12.8258 15.2246 12.0035 15.2246 11.025C15.2246 10.0465 15.8939 9.22431 16.7996 8.99119C16.7997 8.99116 16.7995 8.9912 16.7996 8.99119C16.9674 8.94802 17.1434 8.92502 17.3246 8.92502C17.5058 8.92502 17.6818 8.948 17.8496 8.99119C18.7553 9.22431 19.4246 10.0465 19.4246 11.025C19.4246 12.0035 18.7551 12.8258 17.8494 13.0589C17.8495 13.0589 17.8494 13.0589 17.8494 13.0589ZM17.3246 3.15002C17.6145 3.15002 17.8496 3.38508 17.8496 3.67502V7.91858C17.6789 7.88994 17.5035 7.87502 17.3246 7.87502C17.1457 7.87502 16.9703 7.88994 16.7996 7.91858V3.67502C16.7996 3.38508 17.0347 3.15002 17.3246 3.15002ZM17.3246 14.175C17.1457 14.175 16.9703 14.1601 16.7996 14.1314V18.375C16.7996 18.6649 17.0347 18.9 17.3246 18.9C17.6145 18.9 17.8496 18.6649 17.8496 18.375V14.1314C17.6789 14.1601 17.5035 14.175 17.3246 14.175Z" fill="#FF8A00"/>
</svg>
