<svg width="18" height="16" viewBox="0 0 18 16" fill="none" xmlns="http://www.w3.org/2000/svg">
<path d="M1.67498 0.149902C0.805124 0.149902 0.0999756 0.855051 0.0999756 1.7249V5.9249C0.0999756 6.79475 0.805124 7.4999 1.67498 7.4999H11.125C11.9948 7.4999 12.7 6.79475 12.7 5.9249V1.7249C12.7 0.855051 11.9948 0.149902 11.125 0.149902H1.67498ZM1.14998 1.7249C1.14998 1.43496 1.38503 1.1999 1.67498 1.1999H11.125C11.4149 1.1999 11.65 1.43496 11.65 1.7249V5.9249C11.65 6.21485 11.4149 6.4499 11.125 6.4499H1.67498C1.38503 6.4499 1.14998 6.21485 1.14998 5.9249V1.7249ZM1.67498 8.5499C0.805124 8.5499 0.0999756 9.25508 0.0999756 10.1249V14.3249C0.0999756 15.1947 0.805124 15.8999 1.67498 15.8999H11.125C11.9948 15.8999 12.7 15.1947 12.7 14.3249V10.1249C12.7 9.25508 11.9948 8.5499 11.125 8.5499H1.67498ZM1.14998 10.1249C1.14998 9.835 1.38503 9.5999 1.67498 9.5999H11.125C11.4149 9.5999 11.65 9.835 11.65 10.1249V14.3249C11.65 14.6148 11.4149 14.8499 11.125 14.8499H1.67498C1.38503 14.8499 1.14998 14.6148 1.14998 14.3249V10.1249ZM15.8498 10.0588C15.6821 10.1019 15.5062 10.1249 15.325 10.1249C15.1437 10.1249 14.9678 10.1019 14.8 10.0588C13.8942 9.82565 13.225 9.0034 13.225 8.0249C13.225 7.04639 13.8942 6.22418 14.8 5.99106C14.8001 5.99104 14.7999 5.99107 14.8 5.99106C14.9678 5.9479 15.1437 5.9249 15.325 5.9249C15.5062 5.9249 15.6822 5.94788 15.85 5.99106C16.7557 6.22418 17.425 7.04639 17.425 8.0249C17.425 9.0034 16.7555 9.82565 15.8498 10.0588C15.8499 10.0588 15.8498 10.0588 15.8498 10.0588ZM15.325 0.149902C15.6149 0.149902 15.85 0.384955 15.85 0.674902V4.91846C15.6792 4.88981 15.5039 4.8749 15.325 4.8749C15.1461 4.8749 14.9707 4.88981 14.8 4.91846V0.674902C14.8 0.384955 15.0351 0.149902 15.325 0.149902ZM15.325 11.1749C15.1461 11.1749 14.9707 11.16 14.8 11.1313V15.3749C14.8 15.6648 15.0351 15.8999 15.325 15.8999C15.6149 15.8999 15.85 15.6648 15.85 15.3749V11.1313C15.6792 11.16 15.5039 11.1749 15.325 11.1749Z" fill="#5248BD"/>
</svg>
