<svg width="55" height="55" viewBox="0 0 55 55" fill="none" xmlns="http://www.w3.org/2000/svg">
<rect width="55" height="55" rx="6" fill="#DCDEE8"/>
<path d="M34.7659 16.1858H19.4646C18.595 16.1858 17.761 16.5312 17.1461 17.1461C16.5312 17.761 16.1858 18.595 16.1858 19.4646V34.7659C16.1858 35.6355 16.5312 36.4695 17.1461 37.0844C17.761 37.6993 18.595 38.0448 19.4646 38.0448H34.7659C35.6355 38.0448 36.4695 37.6993 37.0844 37.0844C37.6993 36.4695 38.0448 35.6355 38.0448 34.7659V19.4646C38.0448 18.595 37.6993 17.761 37.0844 17.1461C36.4695 16.5312 35.6355 16.1858 34.7659 16.1858ZM27.1153 33.673C25.8183 33.673 24.5504 33.2884 23.472 32.5678C22.3936 31.8472 21.5531 30.8231 21.0568 29.6248C20.5604 28.4265 20.4306 27.108 20.6836 25.8359C20.9366 24.5639 21.5612 23.3954 22.4783 22.4783C23.3954 21.5612 24.5639 20.9366 25.8359 20.6836C27.108 20.4306 28.4265 20.5604 29.6248 21.0568C30.8231 21.5531 31.8472 22.3936 32.5678 23.472C33.2884 24.5504 33.673 25.8183 33.673 27.1153C33.673 28.8545 32.9821 30.5225 31.7523 31.7523C30.5225 32.9821 28.8545 33.673 27.1153 33.673ZM34.7659 20.5576C34.5498 20.5576 34.3384 20.4935 34.1587 20.3734C33.979 20.2533 33.8389 20.0826 33.7562 19.8829C33.6734 19.6832 33.6518 19.4634 33.694 19.2514C33.7361 19.0394 33.8402 18.8446 33.9931 18.6918C34.1459 18.5389 34.3407 18.4349 34.5527 18.3927C34.7647 18.3505 34.9845 18.3722 35.1842 18.4549C35.3839 18.5376 35.5546 18.6777 35.6747 18.8574C35.7948 19.0372 35.8589 19.2485 35.8589 19.4646C35.8589 19.7545 35.7437 20.0325 35.5388 20.2375C35.3338 20.4424 35.0558 20.5576 34.7659 20.5576Z" fill="#333333"/>
<path d="M27.1152 22.7435C26.2505 22.7435 25.4053 22.9999 24.6864 23.4803C23.9674 23.9606 23.4071 24.6434 23.0762 25.4423C22.7453 26.2411 22.6587 27.1201 22.8274 27.9682C22.9961 28.8162 23.4125 29.5952 24.0239 30.2066C24.6353 30.818 25.4143 31.2344 26.2623 31.4031C27.1104 31.5718 27.9894 31.4852 28.7882 31.1543C29.5871 30.8234 30.2698 30.263 30.7502 29.5441C31.2306 28.8252 31.487 27.9799 31.487 27.1153C31.487 25.9558 31.0264 24.8438 30.2065 24.0239C29.3867 23.2041 28.2747 22.7435 27.1152 22.7435ZM27.1152 29.3012C26.6829 29.3012 26.2603 29.173 25.9008 28.9328C25.5413 28.6926 25.2611 28.3512 25.0957 27.9518C24.9303 27.5524 24.887 27.1128 24.9713 26.6888C25.0557 26.2648 25.2638 25.8753 25.5695 25.5696C25.8752 25.2639 26.2647 25.0557 26.6888 24.9714C27.1128 24.887 27.5523 24.9303 27.9517 25.0958C28.3511 25.2612 28.6925 25.5414 28.9327 25.9009C29.1729 26.2603 29.3011 26.6829 29.3011 27.1153C29.3011 27.695 29.0708 28.251 28.6609 28.6609C28.2509 29.0709 27.6949 29.3012 27.1152 29.3012Z" fill="#333333"/>
</svg>
