<svg width="41" height="44" viewBox="0 0 41 44" fill="none" xmlns="http://www.w3.org/2000/svg">
<circle cx="30" cy="11" r="11" fill="#F7DDEF"/>
<circle cx="30" cy="13" r="11" fill="#F6DDEF"/>
<g clip-path="url(#clip0_266_129582)">
<path d="M29.5625 11H3.4375C2.52582 11 1.65148 11.3622 1.00682 12.0068C0.362164 12.6515 0 13.5258 0 14.4375L0 40.5625C0 41.0139 0.0889136 41.4609 0.261664 41.878C0.434415 42.295 0.687619 42.674 1.00682 42.9932C1.32602 43.3124 1.70497 43.5656 2.12203 43.7383C2.53908 43.9111 2.98608 44 3.4375 44H11.6875V42.625H3.4375C2.89049 42.625 2.36589 42.4077 1.97909 42.0209C1.5923 41.6341 1.375 41.1095 1.375 40.5625V17.1875H31.625V23.375H33V14.4375C33 13.9861 32.9111 13.5391 32.7383 13.122C32.5656 12.705 32.3124 12.326 31.9932 12.0068C31.674 11.6876 31.295 11.4344 30.878 11.2617C30.4609 11.0889 30.0139 11 29.5625 11V11ZM31.625 15.8125H1.375V14.4375C1.375 13.8905 1.5923 13.3659 1.97909 12.9791C2.36589 12.5923 2.89049 12.375 3.4375 12.375H29.5625C30.1095 12.375 30.6341 12.5923 31.0209 12.9791C31.4077 13.3659 31.625 13.8905 31.625 14.4375V15.8125Z" fill="url(#paint0_linear_266_129582)"/>
<path d="M27.9881 22.1994C27.9239 22.1357 27.8477 22.0853 27.7639 22.051C27.6802 22.0168 27.5905 21.9995 27.5 22H15.8125C15.2655 22 14.7409 22.2173 14.3541 22.6041C13.9673 22.9909 13.75 23.5155 13.75 24.0625V41.9375C13.75 42.4845 13.9673 43.0091 14.3541 43.3959C14.7409 43.7827 15.2655 44 15.8125 44H30.9375C31.4845 44 32.0091 43.7827 32.3959 43.3959C32.7827 43.0091 33 42.4845 33 41.9375V27.5C33.0005 27.4095 32.9832 27.3198 32.949 27.2361C32.9148 27.1523 32.8643 27.0761 32.8006 27.0119L27.9881 22.1994ZM28.1875 24.3444L30.6556 26.8125H28.875C28.6927 26.8125 28.5178 26.7401 28.3889 26.6111C28.2599 26.4822 28.1875 26.3073 28.1875 26.125V24.3444ZM31.625 41.9375C31.625 42.1198 31.5526 42.2947 31.4236 42.4236C31.2947 42.5526 31.1198 42.625 30.9375 42.625H15.8125C15.6302 42.625 15.4553 42.5526 15.3264 42.4236C15.1974 42.2947 15.125 42.1198 15.125 41.9375V24.0625C15.125 23.8802 15.1974 23.7053 15.3264 23.5764C15.4553 23.4474 15.6302 23.375 15.8125 23.375H26.8125V26.125C26.8125 26.672 27.0298 27.1966 27.4166 27.5834C27.8034 27.9702 28.328 28.1875 28.875 28.1875H31.625V41.9375Z" fill="url(#paint1_linear_266_129582)"/>
<path d="M24.75 30.25H17.875V31.625H24.75V30.25Z" fill="url(#paint2_linear_266_129582)"/>
<path d="M28.875 34.375H17.875V35.75H28.875V34.375Z" fill="url(#paint3_linear_266_129582)"/>
<path d="M28.875 38.5H17.875V39.875H28.875V38.5Z" fill="url(#paint4_linear_266_129582)"/>
</g>
<defs>
<linearGradient id="paint0_linear_266_129582" x1="16.5" y1="11" x2="16.5" y2="44" gradientUnits="userSpaceOnUse">
<stop stop-color="#0047FF"/>
<stop offset="1" stop-color="#BF38FF"/>
</linearGradient>
<linearGradient id="paint1_linear_266_129582" x1="23.375" y1="22" x2="23.375" y2="44" gradientUnits="userSpaceOnUse">
<stop stop-color="#0047FF"/>
<stop offset="1" stop-color="#BF38FF"/>
</linearGradient>
<linearGradient id="paint2_linear_266_129582" x1="21.3125" y1="30.25" x2="21.3125" y2="31.625" gradientUnits="userSpaceOnUse">
<stop stop-color="#0047FF"/>
<stop offset="1" stop-color="#BF38FF"/>
</linearGradient>
<linearGradient id="paint3_linear_266_129582" x1="23.375" y1="34.375" x2="23.375" y2="35.75" gradientUnits="userSpaceOnUse">
<stop stop-color="#0047FF"/>
<stop offset="1" stop-color="#BF38FF"/>
</linearGradient>
<linearGradient id="paint4_linear_266_129582" x1="23.375" y1="38.5" x2="23.375" y2="39.875" gradientUnits="userSpaceOnUse">
<stop stop-color="#0047FF"/>
<stop offset="1" stop-color="#BF38FF"/>
</linearGradient>
<clipPath id="clip0_266_129582">
<rect width="33" height="33" fill="white" transform="translate(0 11)"/>
</clipPath>
</defs>
</svg>
