<svg width="41" height="42" viewBox="0 0 41 42" fill="none" xmlns="http://www.w3.org/2000/svg">
<circle cx="30" cy="11" r="11" fill="#F6DDEF"/>
<g clip-path="url(#clip0_106_1993)">
<path d="M29.5625 9H3.4375C2.52582 9 1.65148 9.36216 1.00682 10.0068C0.362164 10.6515 0 11.5258 0 12.4375L0 38.5625C0 39.0139 0.0889136 39.4609 0.261664 39.878C0.434415 40.295 0.687619 40.674 1.00682 40.9932C1.32602 41.3124 1.70497 41.5656 2.12203 41.7383C2.53908 41.9111 2.98608 42 3.4375 42H11.6875V40.625H3.4375C2.89049 40.625 2.36589 40.4077 1.97909 40.0209C1.5923 39.6341 1.375 39.1095 1.375 38.5625V15.1875H31.625V21.375H33V12.4375C33 11.9861 32.9111 11.5391 32.7383 11.122C32.5656 10.705 32.3124 10.326 31.9932 10.0068C31.674 9.68762 31.295 9.43441 30.878 9.26166C30.4609 9.08891 30.0139 9 29.5625 9V9ZM31.625 13.8125H1.375V12.4375C1.375 11.8905 1.5923 11.3659 1.97909 10.9791C2.36589 10.5923 2.89049 10.375 3.4375 10.375H29.5625C30.1095 10.375 30.6341 10.5923 31.0209 10.9791C31.4077 11.3659 31.625 11.8905 31.625 12.4375V13.8125Z" fill="url(#paint0_linear_106_1993)"/>
<path d="M27.9881 20.1994C27.9239 20.1357 27.8477 20.0853 27.7639 20.051C27.6802 20.0168 27.5905 19.9995 27.5 20H15.8125C15.2655 20 14.7409 20.2173 14.3541 20.6041C13.9673 20.9909 13.75 21.5155 13.75 22.0625V39.9375C13.75 40.4845 13.9673 41.0091 14.3541 41.3959C14.7409 41.7827 15.2655 42 15.8125 42H30.9375C31.4845 42 32.0091 41.7827 32.3959 41.3959C32.7827 41.0091 33 40.4845 33 39.9375V25.5C33.0005 25.4095 32.9832 25.3198 32.949 25.2361C32.9148 25.1523 32.8643 25.0761 32.8006 25.0119L27.9881 20.1994ZM28.1875 22.3444L30.6556 24.8125H28.875C28.6927 24.8125 28.5178 24.7401 28.3889 24.6111C28.2599 24.4822 28.1875 24.3073 28.1875 24.125V22.3444ZM31.625 39.9375C31.625 40.1198 31.5526 40.2947 31.4236 40.4236C31.2947 40.5526 31.1198 40.625 30.9375 40.625H15.8125C15.6302 40.625 15.4553 40.5526 15.3264 40.4236C15.1974 40.2947 15.125 40.1198 15.125 39.9375V22.0625C15.125 21.8802 15.1974 21.7053 15.3264 21.5764C15.4553 21.4474 15.6302 21.375 15.8125 21.375H26.8125V24.125C26.8125 24.672 27.0298 25.1966 27.4166 25.5834C27.8034 25.9702 28.328 26.1875 28.875 26.1875H31.625V39.9375Z" fill="url(#paint1_linear_106_1993)"/>
<path d="M24.75 28.25H17.875V29.625H24.75V28.25Z" fill="url(#paint2_linear_106_1993)"/>
<path d="M28.875 32.375H17.875V33.75H28.875V32.375Z" fill="url(#paint3_linear_106_1993)"/>
<path d="M28.875 36.5H17.875V37.875H28.875V36.5Z" fill="url(#paint4_linear_106_1993)"/>
</g>
<defs>
<linearGradient id="paint0_linear_106_1993" x1="16.5" y1="9" x2="16.5" y2="42" gradientUnits="userSpaceOnUse">
<stop stop-color="#0047FF"/>
<stop offset="1" stop-color="#BF38FF"/>
</linearGradient>
<linearGradient id="paint1_linear_106_1993" x1="23.375" y1="20" x2="23.375" y2="42" gradientUnits="userSpaceOnUse">
<stop stop-color="#0047FF"/>
<stop offset="1" stop-color="#BF38FF"/>
</linearGradient>
<linearGradient id="paint2_linear_106_1993" x1="21.3125" y1="28.25" x2="21.3125" y2="29.625" gradientUnits="userSpaceOnUse">
<stop stop-color="#0047FF"/>
<stop offset="1" stop-color="#BF38FF"/>
</linearGradient>
<linearGradient id="paint3_linear_106_1993" x1="23.375" y1="32.375" x2="23.375" y2="33.75" gradientUnits="userSpaceOnUse">
<stop stop-color="#0047FF"/>
<stop offset="1" stop-color="#BF38FF"/>
</linearGradient>
<linearGradient id="paint4_linear_106_1993" x1="23.375" y1="36.5" x2="23.375" y2="37.875" gradientUnits="userSpaceOnUse">
<stop stop-color="#0047FF"/>
<stop offset="1" stop-color="#BF38FF"/>
</linearGradient>
<clipPath id="clip0_106_1993">
<rect width="33" height="33" fill="white" transform="translate(0 9)"/>
</clipPath>
</defs>
</svg>
