<svg width="17" height="17" viewBox="0 0 17 17" fill="none" xmlns="http://www.w3.org/2000/svg">
<path d="M13.9141 4.07031H3.08594" stroke="#333333" stroke-width="1.2" stroke-linecap="round" stroke-linejoin="round"/>
<path d="M7.02344 7.02344V10.9609" stroke="#333333" stroke-width="1.2" stroke-linecap="round" stroke-linejoin="round"/>
<path d="M9.97656 7.02344V10.9609" stroke="#333333" stroke-width="1.2" stroke-linecap="round" stroke-linejoin="round"/>
<path d="M12.9297 4.07031V13.4219C12.9297 13.5524 12.8778 13.6776 12.7855 13.7699C12.6932 13.8622 12.568 13.9141 12.4375 13.9141H4.5625C4.43196 13.9141 4.30677 13.8622 4.21447 13.7699C4.12217 13.6776 4.07031 13.5524 4.07031 13.4219V4.07031" stroke="#333333" stroke-width="1.2" stroke-linecap="round" stroke-linejoin="round"/>
<path d="M10.9609 4.07031V3.08594C10.9609 2.82487 10.8572 2.57449 10.6726 2.38988C10.488 2.20527 10.2376 2.10156 9.97656 2.10156H7.02344C6.76237 2.10156 6.51199 2.20527 6.32738 2.38988C6.14277 2.57449 6.03906 2.82487 6.03906 3.08594V4.07031" stroke="#333333" stroke-width="1.2" stroke-linecap="round" stroke-linejoin="round"/>
</svg>
