<svg width="15" height="15" viewBox="0 0 15 15" fill="none" xmlns="http://www.w3.org/2000/svg">
<path d="M4.21875 5.85938H1.875C1.61612 5.85938 1.40625 6.06924 1.40625 6.32812V8.67188C1.40625 8.93076 1.61612 9.14062 1.875 9.14062H4.21875C4.47763 9.14062 4.6875 8.93076 4.6875 8.67188V6.32812C4.6875 6.06924 4.47763 5.85938 4.21875 5.85938Z" stroke="#6174A4" stroke-linecap="round" stroke-linejoin="round"/>
<path d="M12.6562 2.34375H9.84375C9.58487 2.34375 9.375 2.55362 9.375 2.8125V5.625C9.375 5.88388 9.58487 6.09375 9.84375 6.09375H12.6562C12.9151 6.09375 13.125 5.88388 13.125 5.625V2.8125C13.125 2.55362 12.9151 2.34375 12.6562 2.34375Z" stroke="#6174A4" stroke-linecap="round" stroke-linejoin="round"/>
<path d="M12.6562 8.90625H9.84375C9.58487 8.90625 9.375 9.11612 9.375 9.375V12.1875C9.375 12.4464 9.58487 12.6562 9.84375 12.6562H12.6562C12.9151 12.6562 13.125 12.4464 13.125 12.1875V9.375C13.125 9.11612 12.9151 8.90625 12.6562 8.90625Z" stroke="#6174A4" stroke-linecap="round" stroke-linejoin="round"/>
<path d="M4.6875 7.5H7.03125" stroke="#6174A4" stroke-linecap="round" stroke-linejoin="round"/>
<path d="M9.37501 10.7813H8.43751C8.25262 10.782 8.06941 10.7462 7.89845 10.6758C7.72748 10.6054 7.57215 10.5018 7.44142 10.3711C7.31068 10.2404 7.20712 10.085 7.13673 9.91408C7.06633 9.74311 7.03049 9.5599 7.03126 9.37501V5.62501C7.03049 5.44012 7.06633 5.25691 7.13673 5.08595C7.20712 4.91498 7.31068 4.75965 7.44142 4.62891C7.57215 4.49818 7.72748 4.39462 7.89845 4.32423C8.06941 4.25383 8.25262 4.21799 8.43751 4.21876H9.37501" stroke="#6174A4" stroke-linecap="round" stroke-linejoin="round"/>
</svg>
