<svg width="15" height="15" viewBox="0 0 15 15" fill="none" xmlns="http://www.w3.org/2000/svg">
<path d="M4.21875 5.85938H1.875C1.61612 5.85938 1.40625 6.06924 1.40625 6.32812V8.67188C1.40625 8.93076 1.61612 9.14062 1.875 9.14062H4.21875C4.47763 9.14062 4.6875 8.93076 4.6875 8.67188V6.32812C4.6875 6.06924 4.47763 5.85938 4.21875 5.85938Z" stroke="#6174A4" stroke-linecap="round" stroke-linejoin="round"/>
<path d="M12.6562 2.34375H9.84375C9.58487 2.34375 9.375 2.55362 9.375 2.8125V5.625C9.375 5.88388 9.58487 6.09375 9.84375 6.09375H12.6562C12.9151 6.09375 13.125 5.88388 13.125 5.625V2.8125C13.125 2.55362 12.9151 2.34375 12.6562 2.34375Z" stroke="#6174A4" stroke-linecap="round" stroke-linejoin="round"/>
<path d="M12.6562 8.90625H9.84375C9.58487 8.90625 9.375 9.11612 9.375 9.375V12.1875C9.375 12.4464 9.58487 12.6562 9.84375 12.6562H12.6562C12.9151 12.6562 13.125 12.4464 13.125 12.1875V9.375C13.125 9.11612 12.9151 8.90625 12.6562 8.90625Z" stroke="#6174A4" stroke-linecap="round" stroke-linejoin="round"/>
<path d="M4.6875 7.5H7.03125" stroke="#6174A4" stroke-linecap="round" stroke-linejoin="round"/>
<path d="M9.375 10.7813H8.4375C8.25261 10.782 8.0694 10.7462 7.89843 10.6758C7.72747 10.6054 7.57214 10.5018 7.4414 10.3711C7.31066 10.2404 7.20711 10.085 7.13671 9.91408C7.06632 9.74311 7.03047 9.5599 7.03125 9.37501V5.62501C7.03047 5.44012 7.06632 5.25691 7.13671 5.08595C7.20711 4.91498 7.31066 4.75965 7.4414 4.62891C7.57214 4.49818 7.72747 4.39462 7.89843 4.32423C8.0694 4.25383 8.25261 4.21799 8.4375 4.21876H9.375" stroke="#6174A4" stroke-linecap="round" stroke-linejoin="round"/>
</svg>
