<svg width="30" height="30" viewBox="0 0 30 30" fill="none" xmlns="http://www.w3.org/2000/svg">
<path d="M0 5C0 2.23858 2.23858 0 5 0H25C27.7614 0 30 2.23858 30 5V25C30 27.7614 27.7614 30 25 30H5C2.23858 30 0 27.7614 0 25V5Z" fill="#645DF6"/>
<g clip-path="url(#clip0_897_77275)">
<path d="M12.0703 6.65625C12.3421 6.65625 12.5625 6.87661 12.5625 7.14844V9.11719C12.5625 9.38901 12.3421 9.60938 12.0703 9.60938C11.7985 9.60938 11.5781 9.38901 11.5781 9.11719V7.14844C11.5781 6.87661 11.7985 6.65625 12.0703 6.65625ZM8.24199 8.24199C8.43421 8.04978 8.74584 8.04978 8.93805 8.24199L10.3302 9.63411C10.5224 9.82632 10.5224 10.138 10.3302 10.3302C10.138 10.5224 9.82632 10.5224 9.63411 10.3302L8.24199 8.93805C8.04978 8.74584 8.04978 8.4342 8.24199 8.24199ZM15.8986 8.24199C16.0908 8.4342 16.0908 8.74584 15.8986 8.93805L14.5065 10.3302C14.3143 10.5224 14.0027 10.5224 13.8105 10.3302C13.6182 10.138 13.6182 9.82632 13.8105 9.63411L15.2026 8.24199C15.3947 8.04978 15.7064 8.04978 15.8986 8.24199ZM6.65625 12.0703C6.65625 11.7985 6.87661 11.5781 7.14844 11.5781H9.11719C9.38901 11.5781 9.60937 11.7985 9.60937 12.0703C9.60937 12.3421 9.38901 12.5625 9.11719 12.5625H7.14844C6.87661 12.5625 6.65625 12.3421 6.65625 12.0703ZM13.1927 11.8727C12.5515 11.3385 11.5781 11.7944 11.5781 12.629V21.5885C11.5781 22.4974 12.7048 22.9208 13.3033 22.2367L15.2978 19.9573C15.5781 19.6369 15.9832 19.4531 16.4089 19.4531H19.5703C20.491 19.4531 20.9077 18.3019 20.2005 17.7126L13.1927 11.8727ZM12.5625 21.5885V12.629L19.5703 18.4688H16.4089C15.6993 18.4688 15.0242 18.7751 14.5569 19.3091L12.5625 21.5885Z" fill="white"/>
<path d="M24.375 10.3125H21.5625V13.125H20.625V10.3125H17.8125V9.375H20.625V6.5625H21.5625V9.375H24.375V10.3125Z" fill="white"/>
</g>
<defs>
<clipPath id="clip0_897_77275">
<rect width="19.6875" height="19.6875" fill="white" transform="translate(4.6875 4.6875)"/>
</clipPath>
</defs>
</svg>
