<svg width="21" height="21" viewBox="0 0 21 21" fill="none" xmlns="http://www.w3.org/2000/svg">
<g clip-path="url(#clip0_892_7081)">
<path d="M8.07031 2.65625C8.34214 2.65625 8.5625 2.87661 8.5625 3.14844V5.11719C8.5625 5.38901 8.34214 5.60938 8.07031 5.60938C7.79849 5.60938 7.57812 5.38901 7.57812 5.11719V3.14844C7.57812 2.87661 7.79849 2.65625 8.07031 2.65625ZM4.24199 4.24199C4.43421 4.04978 4.74584 4.04978 4.93805 4.24199L6.33016 5.63411C6.52238 5.82632 6.52238 6.13795 6.33016 6.33016C6.13795 6.52237 5.82632 6.52237 5.63411 6.33016L4.24199 4.93805C4.04978 4.74584 4.04978 4.4342 4.24199 4.24199ZM11.8986 4.24199C12.0908 4.4342 12.0908 4.74584 11.8986 4.93805L10.5065 6.33016C10.3143 6.52238 10.0027 6.52238 9.81046 6.33016C9.61824 6.13795 9.61824 5.82632 9.81046 5.63411L11.2026 4.24199C11.3947 4.04978 11.7064 4.04978 11.8986 4.24199ZM2.65625 8.07031C2.65625 7.79849 2.87661 7.57812 3.14844 7.57812H5.11719C5.38901 7.57812 5.60937 7.79849 5.60937 8.07031C5.60937 8.34214 5.38901 8.5625 5.11719 8.5625H3.14844C2.87661 8.5625 2.65625 8.34214 2.65625 8.07031ZM9.19269 7.87275C8.55153 7.33846 7.57812 7.79437 7.57812 8.62897V17.5885C7.57812 18.4974 8.70478 18.9208 9.30332 18.2367L11.2978 15.9573C11.5781 15.6369 11.9832 15.4531 12.4089 15.4531H15.5703C16.491 15.4531 16.9077 14.3019 16.2005 13.7126L9.19269 7.87275ZM8.5625 17.5885V8.62897L15.5703 14.4688H12.4089C11.6993 14.4688 11.0242 14.7751 10.5569 15.3091L8.5625 17.5885Z" fill="white"/>
<path d="M20.375 6.3125H17.5625V9.125H16.625V6.3125H13.8125V5.375H16.625V2.5625H17.5625V5.375H20.375V6.3125Z" fill="white"/>
</g>
<defs>
<clipPath id="clip0_892_7081">
<rect width="19.6875" height="19.6875" fill="white" transform="translate(0.6875 0.6875)"/>
</clipPath>
</defs>
</svg>
