<svg width="16" height="13" viewBox="0 0 16 13" fill="none" xmlns="http://www.w3.org/2000/svg">
<path d="M15.5 1.44345C14.9484 1.68788 14.3558 1.85303 13.7328 1.92769C14.3683 1.54717 14.8559 0.943365 15.0858 0.22461C14.4912 0.57738 13.8326 0.8337 13.1316 0.971107C12.5701 0.373912 11.7708 0 10.8855 0C9.1865 0 7.80845 1.37805 7.80845 3.07848C7.80845 3.31894 7.8362 3.5528 7.88772 3.77874C5.32912 3.64992 3.06254 2.42447 1.54443 0.562845C1.28019 1.01867 1.12824 1.54717 1.12824 2.11001C1.12824 3.17758 1.67194 4.12028 2.49705 4.6719C1.99234 4.6554 1.51801 4.51732 1.10314 4.28675V4.32639C1.10314 5.81738 2.16344 7.06133 3.57187 7.34408C3.31291 7.41412 3.0414 7.4511 2.76129 7.4511C2.56311 7.4511 2.36955 7.43265 2.18193 7.39695C2.57368 8.61907 3.70995 9.50963 5.05695 9.5334C4.00326 10.3592 2.67608 10.8513 1.23461 10.8513C0.986217 10.8513 0.741125 10.8368 0.5 10.8084C1.86219 11.6824 3.47939 12.191 5.21682 12.191C10.8783 12.191 13.9733 7.50195 13.9733 3.43522C13.9733 3.30309 13.97 3.16965 13.9641 3.03752C14.5652 2.60284 15.0871 2.06179 15.4986 1.44543L15.5 1.44345Z" fill="#8190B7"/>
</svg>
