<svg width="20" height="21" viewBox="0 0 20 21" fill="none" xmlns="http://www.w3.org/2000/svg">
<path d="M2.5 16.8477H17.5V18.0977H2.5V16.8477ZM10 14.9727C8.83968 14.9727 7.72688 14.5117 6.90641 13.6912C6.08594 12.8708 5.625 11.758 5.625 10.5977V3.72266H6.875V10.5977C6.875 11.4265 7.20424 12.2213 7.79029 12.8074C8.37634 13.3934 9.1712 13.7227 10 13.7227C10.8288 13.7227 11.6237 13.3934 12.2097 12.8074C12.7958 12.2213 13.125 11.4265 13.125 10.5977V3.72266H14.375V10.5977C14.375 11.758 13.9141 12.8708 13.0936 13.6912C12.2731 14.5117 11.1603 14.9727 10 14.9727Z" fill="#212529"/>
</svg>
