<svg width="18" height="18" viewBox="0 0 18 18" fill="none" xmlns="http://www.w3.org/2000/svg">
<path d="M9 11.25C10.5533 11.25 11.8125 9.9908 11.8125 8.4375C11.8125 6.8842 10.5533 5.625 9 5.625C7.4467 5.625 6.1875 6.8842 6.1875 8.4375C6.1875 9.9908 7.4467 11.25 9 11.25Z" stroke="#645DF6" stroke-linecap="round" stroke-linejoin="round"/>
<path d="M4.48596 14.0203C4.90918 13.1867 5.55496 12.4866 6.35173 11.9975C7.1485 11.5084 8.06513 11.2496 9.00002 11.2496C9.93491 11.2496 10.8515 11.5084 11.6483 11.9975C12.4451 12.4866 13.0909 13.1867 13.5141 14.0203" stroke="#645DF6" stroke-linecap="round" stroke-linejoin="round"/>
<path d="M12.375 3.9375H15.75" stroke="#645DF6" stroke-linecap="round" stroke-linejoin="round"/>
<path d="M15.3633 6.75C15.6212 7.47203 15.752 8.23329 15.75 9C15.75 10.335 15.3541 11.6401 14.6124 12.7501C13.8707 13.8601 12.8165 14.7253 11.5831 15.2362C10.3497 15.7471 8.99252 15.8807 7.68314 15.6203C6.37377 15.3598 5.17104 14.717 4.22703 13.773C3.28303 12.829 2.64015 11.6262 2.3797 10.3169C2.11925 9.00749 2.25292 7.65029 2.76382 6.41688C3.27471 5.18348 4.13987 4.12928 5.2499 3.38758C6.35994 2.64588 7.66498 2.25 9 2.25C9.35561 2.2493 9.71069 2.27752 10.0617 2.33437" stroke="#645DF6" stroke-linecap="round" stroke-linejoin="round"/>
</svg>
