<svg width="29" height="29" viewBox="0 0 29 29" fill="none" xmlns="http://www.w3.org/2000/svg">
<g clip-path="url(#clip0_483_607481)">
<path d="M17.5723 7.03847C19.4658 8.80747 20.5525 11.3066 20.5525 13.8978C20.5525 19.0718 16.3424 23.2802 11.1701 23.2802H6.20259L10.7164 27.7939L9.51029 29L2.93582 22.4255L9.51029 15.8511L10.7164 17.0571L6.20259 21.5709H11.1701C15.4024 21.5709 18.8466 18.1267 18.8466 13.8944C18.8466 11.7433 17.98 9.75082 16.4089 8.28206L17.5723 7.03847ZM1.78776 14.4864V3.44929C1.78776 2.98018 2.17159 2.59635 2.6407 2.59635H26.5231C26.9922 2.59635 27.376 2.98018 27.376 3.44929V14.4949H29.0819V3.44929C29.0819 2.03853 27.9338 0.890469 26.5231 0.890469H2.6407C1.22994 0.890469 0.0818787 2.03853 0.0818787 3.44929V14.4864H1.78776Z" fill="url(#paint0_linear_483_607481)"/>
</g>
<defs>
<linearGradient id="paint0_linear_483_607481" x1="14.5819" y1="29" x2="14.5819" y2="0.890469" gradientUnits="userSpaceOnUse">
<stop stop-color="#0033EA"/>
<stop offset="1" stop-color="#8A0074"/>
</linearGradient>
<clipPath id="clip0_483_607481">
<rect width="29" height="29" fill="white"/>
</clipPath>
</defs>
</svg>
