<svg width="24" height="24" viewBox="0 0 24 24" fill="none" xmlns="http://www.w3.org/2000/svg">
<path opacity="0.52" fill-rule="evenodd" clip-rule="evenodd" d="M12 2.25C9.41414 2.25 6.93419 3.27723 5.10571 5.10571C3.27723 6.93419 2.25 9.41414 2.25 12C2.25 14.5859 3.27723 17.0658 5.10571 18.8943C6.93419 20.7228 9.41414 21.75 12 21.75C14.5859 21.75 17.0658 20.7228 18.8943 18.8943C20.7228 17.0658 21.75 14.5859 21.75 12C21.75 9.41414 20.7228 6.93419 18.8943 5.10571C17.0658 3.27723 14.5859 2.25 12 2.25ZM0 12C0 8.8174 1.26428 5.76516 3.51472 3.51472C5.76516 1.26428 8.8174 0 12 0C15.1826 0 18.2348 1.26428 20.4853 3.51472C22.7357 5.76516 24 8.8174 24 12C24 15.1826 22.7357 18.2348 20.4853 20.4853C18.2348 22.7357 15.1826 24 12 24C8.8174 24 5.76516 22.7357 3.51472 20.4853C1.26428 18.2348 0 15.1826 0 12Z" fill="white"/>
<path fill-rule="evenodd" clip-rule="evenodd" d="M10.875 1.125C10.875 0.826631 10.9935 0.540483 11.2045 0.329505C11.4155 0.118526 11.7016 0 12 0C15.1826 0 18.2348 1.26428 20.4853 3.51472C22.7357 5.76516 24 8.8174 24 12C24 12.2984 23.8815 12.5845 23.6705 12.7955C23.4595 13.0065 23.1734 13.125 22.875 13.125C22.5766 13.125 22.2905 13.0065 22.0795 12.7955C21.8685 12.5845 21.75 12.2984 21.75 12C21.75 9.41414 20.7228 6.93419 18.8943 5.10571C17.0658 3.27723 14.5859 2.25 12 2.25C11.7016 2.25 11.4155 2.13147 11.2045 1.9205C10.9935 1.70952 10.875 1.42337 10.875 1.125Z" fill="#7F37D9"/>
</svg>
