<svg width="50" height="50" viewBox="0 0 50 50" fill="none" xmlns="http://www.w3.org/2000/svg">
<circle cx="25" cy="25" r="25" fill="#EBEFFF"/>
<path d="M31.6054 14.7143H17.6951C16.9046 14.7143 16.1464 15.0283 15.5874 15.5873C15.0284 16.1463 14.7144 16.9045 14.7144 17.6951V31.6053C14.7144 32.3959 15.0284 33.154 15.5874 33.713C16.1464 34.272 16.9046 34.5861 17.6951 34.5861H31.6054C32.3959 34.5861 33.1541 34.272 33.7131 33.713C34.2721 33.154 34.5861 32.3959 34.5861 31.6053V17.6951C34.5861 16.9045 34.2721 16.1463 33.7131 15.5873C33.1541 15.0283 32.3959 14.7143 31.6054 14.7143ZM24.6503 30.6117C23.4712 30.6117 22.3186 30.2621 21.3382 29.607C20.3578 28.952 19.5937 28.0209 19.1425 26.9316C18.6913 25.8422 18.5732 24.6436 18.8033 23.4872C19.0333 22.3307 19.6011 21.2685 20.4348 20.4347C21.2685 19.601 22.3308 19.0332 23.4872 18.8032C24.6436 18.5732 25.8423 18.6912 26.9316 19.1424C28.021 19.5937 28.952 20.3578 29.6071 21.3381C30.2622 22.3185 30.6118 23.4711 30.6118 24.6502C30.6118 26.2313 29.9837 27.7476 28.8657 28.8656C27.7477 29.9836 26.2314 30.6117 24.6503 30.6117ZM31.6054 18.6887C31.4089 18.6887 31.2168 18.6304 31.0534 18.5212C30.89 18.412 30.7626 18.2568 30.6874 18.0753C30.6122 17.8937 30.5925 17.694 30.6309 17.5012C30.6692 17.3085 30.7638 17.1314 30.9028 16.9925C31.0418 16.8535 31.2188 16.7589 31.4115 16.7206C31.6043 16.6822 31.8041 16.7019 31.9856 16.7771C32.1672 16.8523 32.3223 16.9797 32.4315 17.1431C32.5407 17.3064 32.599 17.4986 32.599 17.6951C32.599 17.9586 32.4943 18.2113 32.308 18.3976C32.1216 18.584 31.8689 18.6887 31.6054 18.6887Z" fill="#6862ED"/>
<path d="M24.6501 20.6758C23.8641 20.6758 23.0957 20.9089 22.4421 21.3456C21.7885 21.7824 21.2791 22.4031 20.9783 23.1293C20.6775 23.8555 20.5988 24.6546 20.7521 25.4256C20.9055 26.1965 21.284 26.9047 21.8398 27.4605C22.3957 28.0163 23.1038 28.3948 23.8748 28.5482C24.6457 28.7015 25.4448 28.6228 26.1711 28.322C26.8973 28.0212 27.518 27.5118 27.9547 26.8582C28.3914 26.2047 28.6245 25.4363 28.6245 24.6502C28.6245 23.5961 28.2058 22.5852 27.4604 21.8399C26.7151 21.0946 25.7042 20.6758 24.6501 20.6758ZM24.6501 26.6374C24.2571 26.6374 23.8729 26.5208 23.5461 26.3025C23.2193 26.0841 22.9646 25.7738 22.8142 25.4107C22.6638 25.0476 22.6245 24.648 22.7011 24.2625C22.7778 23.877 22.9671 23.523 23.245 23.2451C23.5229 22.9671 23.877 22.7779 24.2625 22.7012C24.6479 22.6245 25.0475 22.6639 25.4106 22.8143C25.7737 22.9647 26.0841 23.2194 26.3024 23.5462C26.5208 23.873 26.6373 24.2572 26.6373 24.6502C26.6373 25.1772 26.428 25.6827 26.0553 26.0553C25.6826 26.428 25.1772 26.6374 24.6501 26.6374Z" fill="#6862ED"/>
</svg>
