<svg width="50" height="50" viewBox="0 0 50 50" fill="none" xmlns="http://www.w3.org/2000/svg">
<path d="M32.0312 46.1406H5.85937C5.44497 46.1406 5.04755 45.976 4.75452 45.683C4.46149 45.39 4.29688 44.9925 4.29688 44.5781V36.5469C4.29688 36.1325 4.46149 35.735 4.75452 35.442C5.04755 35.149 5.44497 34.9844 5.85937 34.9844H41.8828C42.2972 34.9844 42.6946 35.149 42.9877 35.442C43.2807 35.735 43.4453 36.1325 43.4453 36.5469C43.4453 36.9613 43.2807 37.3587 42.9877 37.6517C42.6946 37.9448 42.2972 38.1094 41.8828 38.1094H7.42187V43.0156H32.0312C32.4456 43.0156 32.8431 43.1802 33.1361 43.4733C33.4291 43.7663 33.5937 44.1637 33.5937 44.5781C33.5937 44.9925 33.4291 45.39 33.1361 45.683C32.8431 45.976 32.4456 46.1406 32.0312 46.1406Z" fill="#0074FF"/>
<path d="M44.1406 46.1406H40.4141C39.9997 46.1406 39.6022 45.976 39.3092 45.683C39.0162 45.39 38.8516 44.9925 38.8516 44.5781C38.8516 44.1637 39.0162 43.7663 39.3092 43.4733C39.6022 43.1802 39.9997 43.0156 40.4141 43.0156H42.5781V38.1094H41.2969C40.8825 38.1094 40.485 37.9448 40.192 37.6517C39.899 37.3587 39.7344 36.9613 39.7344 36.5469C39.7344 36.1325 39.899 35.735 40.192 35.442C40.485 35.149 40.8825 34.9844 41.2969 34.9844H44.1406C44.555 34.9844 44.9525 35.149 45.2455 35.442C45.5385 35.735 45.7031 36.1325 45.7031 36.5469V44.5781C45.7031 44.9925 45.5385 45.39 45.2455 45.683C44.9525 45.976 44.555 46.1406 44.1406 46.1406Z" fill="#0074FF"/>
<path d="M33.6405 15.6262C33.2268 15.6245 32.8306 15.4587 32.539 15.1653L24.9999 7.63405L17.4608 15.1653C17.1676 15.4585 16.77 15.6232 16.3554 15.6232C15.9407 15.6232 15.5431 15.4585 15.2499 15.1653C14.9567 14.8721 14.792 14.4745 14.792 14.0598C14.792 13.6452 14.9567 13.2476 15.2499 12.9544L23.8983 4.31374C24.1911 4.02272 24.5871 3.85937 24.9999 3.85938C25.4127 3.85937 25.8087 4.02272 26.1015 4.31374L34.7499 12.9544C34.8952 13.0995 35.0104 13.2718 35.089 13.4615C35.1677 13.6512 35.2082 13.8545 35.2082 14.0598C35.2082 14.2652 35.1677 14.4685 35.089 14.6582C35.0104 14.8479 34.8952 15.0202 34.7499 15.1653C34.6045 15.3115 34.4317 15.4275 34.2413 15.5066C34.0509 15.5858 33.8467 15.6264 33.6405 15.6262Z" fill="#FFB300"/>
<path d="M25 31.25C24.5856 31.25 24.1882 31.0854 23.8951 30.7924C23.6021 30.4993 23.4375 30.1019 23.4375 29.6875V5.42187C23.4375 5.00747 23.6021 4.61005 23.8951 4.31702C24.1882 4.02399 24.5856 3.85938 25 3.85938C25.4144 3.85938 25.8118 4.02399 26.1049 4.31702C26.3979 4.61005 26.5625 5.00747 26.5625 5.42187V29.6875C26.5625 30.1019 26.3979 30.4993 26.1049 30.7924C25.8118 31.0854 25.4144 31.25 25 31.25Z" fill="#FFB300"/>
</svg>
