<svg width="21" height="16" viewBox="0 0 21 16" fill="none" xmlns="http://www.w3.org/2000/svg">
<g clip-path="url(#clip0_77_18694)">
<mask id="mask0_77_18694" style="mask-type:luminance" maskUnits="userSpaceOnUse" x="1" y="1" width="19" height="14">
<path d="M18.6429 1.21436H2.35714C1.60761 1.21436 1 1.82197 1 2.5715V13.4286C1 14.1782 1.60761 14.7858 2.35714 14.7858H18.6429C19.3924 14.7858 20 14.1782 20 13.4286V2.5715C20 1.82197 19.3924 1.21436 18.6429 1.21436Z" fill="white"/>
</mask>
<g mask="url(#mask0_77_18694)">
<path d="M18.6429 1.21436H2.35714C1.60761 1.21436 1 1.82197 1 2.5715V13.4286C1 14.1782 1.60761 14.7858 2.35714 14.7858H18.6429C19.3924 14.7858 20 14.1782 20 13.4286V2.5715C20 1.82197 19.3924 1.21436 18.6429 1.21436Z" fill="white"/>
<mask id="mask1_77_18694" style="mask-type:alpha" maskUnits="userSpaceOnUse" x="1" y="1" width="19" height="14">
<path d="M18.6429 1.21436H2.35714C1.60761 1.21436 1 1.82197 1 2.5715V13.4286C1 14.1782 1.60761 14.7858 2.35714 14.7858H18.6429C19.3924 14.7858 20 14.1782 20 13.4286V2.5715C20 1.82197 19.3924 1.21436 18.6429 1.21436Z" fill="white"/>
</mask>
<g mask="url(#mask1_77_18694)">
<path fill-rule="evenodd" clip-rule="evenodd" d="M20 1.21436H1V2.11912H20V1.21436ZM20 3.02388H1V3.92864H20V3.02388ZM1 4.8334H20V5.73817H1V4.8334ZM20 6.64293H1V7.54769H20V6.64293ZM1 8.45247H20V9.35721H1V8.45247ZM20 10.262H1V11.1668H20V10.262ZM1 12.0715H20V12.9762H1V12.0715ZM20 13.881H1V14.7858H20V13.881Z" fill="#D02F44"/>
<path d="M9.14286 1.21436H1V7.54769H9.14286V1.21436Z" fill="#46467F"/>
<g filter="url(#filter0_d_77_18694)">
<path fill-rule="evenodd" clip-rule="evenodd" d="M2.80906 2.57152C2.80906 2.82136 2.60652 3.0239 2.35668 3.0239C2.10684 3.0239 1.9043 2.82136 1.9043 2.57152C1.9043 2.32168 2.10684 2.11914 2.35668 2.11914C2.60652 2.11914 2.80906 2.32168 2.80906 2.57152ZM4.61858 2.57152C4.61858 2.82136 4.41605 3.0239 4.16621 3.0239C3.91636 3.0239 3.71382 2.82136 3.71382 2.57152C3.71382 2.32168 3.91636 2.11914 4.16621 2.11914C4.41605 2.11914 4.61858 2.32168 4.61858 2.57152ZM5.97573 3.0239C6.22557 3.0239 6.42811 2.82136 6.42811 2.57152C6.42811 2.32168 6.22557 2.11914 5.97573 2.11914C5.72588 2.11914 5.52335 2.32168 5.52335 2.57152C5.52335 2.82136 5.72588 3.0239 5.97573 3.0239ZM8.2376 2.57152C8.2376 2.82136 8.03511 3.0239 7.78525 3.0239C7.53541 3.0239 7.33287 2.82136 7.33287 2.57152C7.33287 2.32168 7.53541 2.11914 7.78525 2.11914C8.03511 2.11914 8.2376 2.32168 8.2376 2.57152ZM3.26144 3.92866C3.51128 3.92866 3.71382 3.72613 3.71382 3.47628C3.71382 3.22644 3.51128 3.0239 3.26144 3.0239C3.0116 3.0239 2.80906 3.22644 2.80906 3.47628C2.80906 3.72613 3.0116 3.92866 3.26144 3.92866ZM5.52335 3.47628C5.52335 3.72613 5.32081 3.92866 5.07097 3.92866C4.82112 3.92866 4.61858 3.72613 4.61858 3.47628C4.61858 3.22644 4.82112 3.0239 5.07097 3.0239C5.32081 3.0239 5.52335 3.22644 5.52335 3.47628ZM6.88049 3.92866C7.13033 3.92866 7.33287 3.72613 7.33287 3.47628C7.33287 3.22644 7.13033 3.0239 6.88049 3.0239C6.63065 3.0239 6.42811 3.22644 6.42811 3.47628C6.42811 3.72613 6.63065 3.92866 6.88049 3.92866ZM8.2376 4.38104C8.2376 4.63089 8.03511 4.83343 7.78525 4.83343C7.53541 4.83343 7.33287 4.63089 7.33287 4.38104C7.33287 4.1312 7.53541 3.92866 7.78525 3.92866C8.03511 3.92866 8.2376 4.1312 8.2376 4.38104ZM5.97573 4.83343C6.22557 4.83343 6.42811 4.63089 6.42811 4.38104C6.42811 4.1312 6.22557 3.92866 5.97573 3.92866C5.72588 3.92866 5.52335 4.1312 5.52335 4.38104C5.52335 4.63089 5.72588 4.83343 5.97573 4.83343ZM4.61858 4.38104C4.61858 4.63089 4.41605 4.83343 4.16621 4.83343C3.91636 4.83343 3.71382 4.63089 3.71382 4.38104C3.71382 4.1312 3.91636 3.92866 4.16621 3.92866C4.41605 3.92866 4.61858 4.1312 4.61858 4.38104ZM2.35668 4.83343C2.60652 4.83343 2.80906 4.63089 2.80906 4.38104C2.80906 4.1312 2.60652 3.92866 2.35668 3.92866C2.10684 3.92866 1.9043 4.1312 1.9043 4.38104C1.9043 4.63089 2.10684 4.83343 2.35668 4.83343ZM3.71382 5.2858C3.71382 5.53565 3.51128 5.73819 3.26144 5.73819C3.0116 5.73819 2.80906 5.53565 2.80906 5.2858C2.80906 5.03596 3.0116 4.83343 3.26144 4.83343C3.51128 4.83343 3.71382 5.03596 3.71382 5.2858ZM5.07097 5.73819C5.32081 5.73819 5.52335 5.53565 5.52335 5.2858C5.52335 5.03596 5.32081 4.83343 5.07097 4.83343C4.82112 4.83343 4.61858 5.03596 4.61858 5.2858C4.61858 5.53565 4.82112 5.73819 5.07097 5.73819ZM7.33287 5.2858C7.33287 5.53565 7.13033 5.73819 6.88049 5.73819C6.63065 5.73819 6.42811 5.53565 6.42811 5.2858C6.42811 5.03596 6.63065 4.83343 6.88049 4.83343C7.13033 4.83343 7.33287 5.03596 7.33287 5.2858ZM7.78525 6.64295C8.03511 6.64295 8.2376 6.44041 8.2376 6.19057C8.2376 5.94073 8.03511 5.73819 7.78525 5.73819C7.53541 5.73819 7.33287 5.94073 7.33287 6.19057C7.33287 6.44041 7.53541 6.64295 7.78525 6.64295ZM6.42811 6.19057C6.42811 6.44041 6.22557 6.64295 5.97573 6.64295C5.72588 6.64295 5.52335 6.44041 5.52335 6.19057C5.52335 5.94073 5.72588 5.73819 5.97573 5.73819C6.22557 5.73819 6.42811 5.94073 6.42811 6.19057ZM4.16621 6.64295C4.41605 6.64295 4.61858 6.44041 4.61858 6.19057C4.61858 5.94073 4.41605 5.73819 4.16621 5.73819C3.91636 5.73819 3.71382 5.94073 3.71382 6.19057C3.71382 6.44041 3.91636 6.64295 4.16621 6.64295ZM2.80906 6.19057C2.80906 6.44041 2.60652 6.64295 2.35668 6.64295C2.10684 6.64295 1.9043 6.44041 1.9043 6.19057C1.9043 5.94073 2.10684 5.73819 2.35668 5.73819C2.60652 5.73819 2.80906 5.94073 2.80906 6.19057Z" fill="url(#paint0_linear_77_18694)"/>
</g>
</g>
</g>
</g>
<rect x="1" y="1" width="19" height="14" rx="1" stroke="white" stroke-opacity="0.5"/>
<defs>
<filter id="filter0_d_77_18694" x="1.9043" y="2.11914" width="6.33325" height="33.0954" filterUnits="userSpaceOnUse" color-interpolation-filters="sRGB">
<feFlood flood-opacity="0" result="BackgroundImageFix"/>
<feColorMatrix in="SourceAlpha" type="matrix" values="0 0 0 0 0 0 0 0 0 0 0 0 0 0 0 0 0 0 127 0" result="hardAlpha"/>
<feOffset dy="28.5714"/>
<feColorMatrix type="matrix" values="0 0 0 0 0 0 0 0 0 0 0 0 0 0 0 0 0 0 0.06 0"/>
<feBlend mode="normal" in2="BackgroundImageFix" result="effect1_dropShadow_77_18694"/>
<feBlend mode="normal" in="SourceGraphic" in2="effect1_dropShadow_77_18694" result="shape"/>
</filter>
<linearGradient id="paint0_linear_77_18694" x1="1.9043" y1="2.11914" x2="1.9043" y2="6.64294" gradientUnits="userSpaceOnUse">
<stop stop-color="white"/>
<stop offset="1" stop-color="#F0F0F0"/>
</linearGradient>
<clipPath id="clip0_77_18694">
<rect x="1" y="1" width="19" height="14" rx="1" fill="white"/>
</clipPath>
</defs>
</svg>
