<svg width="18" height="19" viewBox="0 0 18 19" fill="none" xmlns="http://www.w3.org/2000/svg">
<path d="M9 11.75C10.5533 11.75 11.8125 10.4908 11.8125 8.9375C11.8125 7.3842 10.5533 6.125 9 6.125C7.4467 6.125 6.1875 7.3842 6.1875 8.9375C6.1875 10.4908 7.4467 11.75 9 11.75Z" stroke="#645DF6" stroke-width="1.2" stroke-linecap="round" stroke-linejoin="round"/>
<path d="M4.48596 14.5207C4.90918 13.6871 5.55496 12.987 6.35173 12.4979C7.1485 12.0089 8.06513 11.75 9.00002 11.75C9.93491 11.75 10.8515 12.0089 11.6483 12.4979C12.4451 12.987 13.0909 13.6871 13.5141 14.5207" stroke="#645DF6" stroke-width="1.2" stroke-linecap="round" stroke-linejoin="round"/>
<path d="M14.0625 5.5625C14.6838 5.5625 15.1875 5.05882 15.1875 4.4375C15.1875 3.81618 14.6838 3.3125 14.0625 3.3125C13.4412 3.3125 12.9375 3.81618 12.9375 4.4375C12.9375 5.05882 13.4412 5.5625 14.0625 5.5625Z" stroke="#645DF6" stroke-width="1.2" stroke-linecap="round" stroke-linejoin="round"/>
<path d="M14.0625 3.3125V2.46875" stroke="#645DF6" stroke-width="1.2" stroke-linecap="round" stroke-linejoin="round"/>
<path d="M13.0852 3.875L12.361 3.45312" stroke="#645DF6" stroke-width="1.2" stroke-linecap="round" stroke-linejoin="round"/>
<path d="M13.0852 5L12.361 5.42188" stroke="#645DF6" stroke-width="1.2" stroke-linecap="round" stroke-linejoin="round"/>
<path d="M14.0625 5.5625V6.40625" stroke="#645DF6" stroke-width="1.2" stroke-linecap="round" stroke-linejoin="round"/>
<path d="M15.0399 5L15.7641 5.42188" stroke="#645DF6" stroke-width="1.2" stroke-linecap="round" stroke-linejoin="round"/>
<path d="M15.0399 3.875L15.7641 3.45312" stroke="#645DF6" stroke-width="1.2" stroke-linecap="round" stroke-linejoin="round"/>
<path d="M15.7008 8.69153C15.7349 8.95969 15.7513 9.2298 15.75 9.50012C15.75 10.8351 15.3541 12.1402 14.6124 13.2502C13.8707 14.3603 12.8165 15.2254 11.5831 15.7363C10.3497 16.2472 8.99252 16.3809 7.68314 16.1204C6.37377 15.86 5.17104 15.2171 4.22703 14.2731C3.28303 13.3291 2.64015 12.1264 2.3797 10.817C2.11925 9.50761 2.25292 8.15041 2.76382 6.91701C3.27471 5.68361 4.13987 4.6294 5.2499 3.8877C6.35994 3.146 7.66498 2.75012 9 2.75012C9.20894 2.7488 9.41781 2.75819 9.62578 2.77825" stroke="#645DF6" stroke-width="1.2" stroke-linecap="round" stroke-linejoin="round"/>
</svg>
