<svg width="27" height="21" viewBox="0 0 27 21" fill="none" xmlns="http://www.w3.org/2000/svg">
<path d="M7.29037 14.6095H12.7491C12.2396 16.8189 10.6262 18.0898 8.30933 18.0898C5.32525 18.0898 3.39651 16.0943 3.39651 13.0178C3.39651 10.0126 5.31312 7.98144 8.17589 7.98144C9.84989 7.98144 11.16 8.68226 11.8635 9.96511L11.8757 9.98886H15.6482L15.624 9.91759C14.605 6.84113 11.815 5 8.16376 5C5.90751 5 3.84534 5.79584 2.34117 7.24499C0.824868 8.70601 0 10.7609 0 13.0059C0 17.6385 3.44503 21 8.18802 21C8.4185 21 8.63685 20.9881 8.85519 20.9762C12.8582 20.6793 16 17.3177 16 13.3267V12.1032H7.27824V14.6095H7.29037Z" fill="#475987"/>
<g clip-path="url(#clip0_569_179189)">
<path fill-rule="evenodd" clip-rule="evenodd" d="M19.4892 3.12743C19.7822 3.45216 19.6893 3.82005 19.4302 4.16912C19.3688 4.25188 19.298 4.33342 19.2126 4.42328C19.1715 4.46641 19.1395 4.49884 19.0726 4.56584C18.9206 4.71799 18.7928 4.84584 18.6892 4.9494C18.639 4.99961 18.9819 5.68478 19.6473 6.35086C20.3124 7.01658 20.9975 7.35969 21.048 7.30921L21.4311 6.92592C21.642 6.71475 21.7537 6.61287 21.9073 6.51215C22.2264 6.30277 22.5745 6.24587 22.8681 6.5084C23.8267 7.19409 24.3692 7.61487 24.6349 7.891C25.1533 8.42959 25.0853 9.25864 24.6379 9.73159C24.4827 9.8956 24.286 10.0925 24.0536 10.3165C22.6479 11.7229 19.6814 10.867 17.4079 8.59123C15.1339 6.31495 14.2784 3.34813 15.6811 1.9447C15.9329 1.68892 16.016 1.60593 16.2612 1.36427C16.7178 0.914354 17.5851 0.843906 18.1123 1.36472C18.3897 1.63867 18.8318 2.20753 19.4892 3.12743ZM22.1378 7.63288L21.7546 8.01625C21.1033 8.66789 19.9942 8.11243 18.9405 7.05774C17.8862 6.00234 17.3313 4.89359 17.9828 4.24214C18.0862 4.13872 18.2139 4.01099 18.3658 3.85896C18.4271 3.79761 18.4551 3.7692 18.4888 3.73383C18.5346 3.68565 18.5723 3.64333 18.6024 3.60589C18.0198 2.7943 17.6237 2.28718 17.4102 2.07626C17.3 1.96734 17.0531 1.98739 16.9624 2.07671C16.7207 2.31491 16.6412 2.39434 16.3904 2.64906C15.4883 3.55163 16.1789 5.94664 18.1147 7.88434C20.0499 9.82143 22.4445 10.5123 23.3535 9.60301C23.5822 9.38237 23.7686 9.19585 23.9121 9.0442C24.0158 8.93461 24.0343 8.70849 23.9151 8.58457C23.7164 8.37816 23.2301 7.99897 22.3903 7.39593C22.3291 7.4452 22.2539 7.51666 22.1378 7.63288ZM24.0015 2.70739L21.3553 5.35356L20.6483 4.64653L23.2945 2.00035H21.5017V1.00045H25.0014V4.5001H24.0015V2.70739Z" fill="#475987"/>
</g>
<defs>
<clipPath id="clip0_569_179189">
<rect width="13" height="13" fill="white" transform="translate(14)"/>
</clipPath>
</defs>
</svg>
