<svg width="32" height="32" viewBox="0 0 32 32" fill="none" xmlns="http://www.w3.org/2000/svg">
<rect x="16" width="16" height="16" rx="8" fill="#F6DDEF"/>
<path fill-rule="evenodd" clip-rule="evenodd" d="M11 7.75C7.82436 7.75 5.25 10.3244 5.25 13.5C5.25 16.655 7.79101 19.2165 10.9382 19.2497L11 19.2495L11.0618 19.2497C14.209 19.2165 16.75 16.655 16.75 13.5C16.75 10.3244 14.1756 7.75 11 7.75ZM3.75 13.5C3.75 16.2031 5.22933 18.5607 7.42256 19.8074C6.79097 20.0092 6.17555 20.2649 5.58326 20.5726C3.91 21.4418 2.4705 22.701 1.38637 24.2437C1.14821 24.5826 1.22988 25.0504 1.56878 25.2886C1.90768 25.5267 2.37548 25.4451 2.61364 25.1062C3.55937 23.7604 4.8151 22.6619 6.27476 21.9037C7.71525 21.1553 9.31259 20.76 10.9352 20.7497L11 20.75L11.0648 20.7497C12.6874 20.76 14.2848 21.1553 15.7252 21.9037C17.1849 22.6619 18.4406 23.7604 19.3864 25.1062C19.6245 25.4451 20.0923 25.5267 20.4312 25.2886C20.7701 25.0504 20.8518 24.5826 20.6136 24.2437C19.5295 22.701 18.09 21.4418 16.4167 20.5726C15.8245 20.2649 15.209 20.0092 14.5774 19.8074C16.7707 18.5607 18.25 16.2031 18.25 13.5C18.25 9.49594 15.0041 6.25 11 6.25C6.99594 6.25 3.75 9.49594 3.75 13.5ZM21.1852 6.25001L21.1875 6.25C23.1103 6.25 24.9544 7.01384 26.314 8.37348C27.6737 9.73312 28.4375 11.5772 28.4375 13.5C28.4375 15.4228 27.6737 17.2669 26.314 18.6265C25.8488 19.0917 25.3269 19.4872 24.7645 19.8062C25.3965 20.0079 26.0123 20.2636 26.6049 20.5714C28.2785 21.4408 29.7179 22.7005 30.8014 24.2441C31.0393 24.5831 30.9574 25.0509 30.6184 25.2889C30.2794 25.5268 29.8116 25.4449 29.5736 25.1059C28.6286 23.7596 27.3731 22.6608 25.9134 21.9026C24.4537 21.1443 22.8328 20.749 21.188 20.75L21.1875 20.75C20.9804 20.75 20.7929 20.6661 20.6572 20.5303C20.5214 20.3946 20.4375 20.2071 20.4375 20C20.4375 19.7423 20.5674 19.515 20.7654 19.38C20.8657 19.3115 20.9836 19.2668 21.1108 19.2539C21.1359 19.2513 21.1613 19.25 21.187 19.25L21.1875 19.25C22.7125 19.25 24.175 18.6442 25.2534 17.5659C26.3317 16.4875 26.9375 15.025 26.9375 13.5C26.9375 11.975 26.3317 10.5125 25.2534 9.43414C24.1753 8.35607 22.7132 7.75031 21.1886 7.75C20.6592 7.75171 20.1323 7.82277 19.6213 7.96135C19.2215 8.06978 18.8096 7.83359 18.7011 7.43382C18.5927 7.03405 18.8289 6.62208 19.2287 6.51365C19.8665 6.34066 20.5243 6.25202 21.1852 6.25001Z" fill="url(#paint0_linear_698_22876)"/>
<defs>
<linearGradient id="paint0_linear_698_22876" x1="16.0938" y1="6.25" x2="16.0938" y2="25.4251" gradientUnits="userSpaceOnUse">
<stop stop-color="#000AFF"/>
<stop offset="1" stop-color="#D274FF"/>
</linearGradient>
</defs>
</svg>
