<svg width="23" height="23" viewBox="0 0 23 23" fill="none" xmlns="http://www.w3.org/2000/svg">
<path d="M11.5 16.1719C13.4848 16.1719 15.0938 14.5629 15.0938 12.5781C15.0938 10.5934 13.4848 8.98438 11.5 8.98438C9.51523 8.98438 7.90625 10.5934 7.90625 12.5781C7.90625 14.5629 9.51523 16.1719 11.5 16.1719Z" stroke="white" stroke-width="1.5" stroke-linecap="round" stroke-linejoin="round"/>
<path d="M17.6094 10.4219C18.4465 10.4205 19.2723 10.6147 20.0211 10.9891C20.7698 11.3635 21.4207 11.9076 21.9219 12.5781" stroke="white" stroke-width="1.5" stroke-linecap="round" stroke-linejoin="round"/>
<path d="M1.07812 12.5781C1.57927 11.9076 2.23017 11.3635 2.97891 10.9891C3.72765 10.6147 4.55351 10.4205 5.39062 10.4219" stroke="white" stroke-width="1.5" stroke-linecap="round" stroke-linejoin="round"/>
<path d="M6.3252 19.4061C6.79851 18.4368 7.53457 17.6199 8.4495 17.0485C9.36444 16.477 10.4215 16.1741 11.5002 16.1741C12.5789 16.1741 13.636 16.477 14.5509 17.0485C15.4658 17.6199 16.2019 18.4368 16.6752 19.4061" stroke="white" stroke-width="1.5" stroke-linecap="round" stroke-linejoin="round"/>
<path d="M5.39061 10.4219C4.84494 10.4224 4.31038 10.2677 3.84939 9.97571C3.3884 9.68374 3.02002 9.2666 2.78729 8.77305C2.55456 8.27949 2.4671 7.7299 2.53512 7.18848C2.60315 6.64706 2.82384 6.13619 3.17143 5.71554C3.51902 5.29489 3.97914 4.98185 4.49803 4.81299C5.01691 4.64413 5.57314 4.62643 6.10172 4.76195C6.6303 4.89747 7.10939 5.18062 7.48302 5.57831C7.85665 5.97601 8.10939 6.47182 8.21171 7.00781" stroke="white" stroke-width="1.5" stroke-linecap="round" stroke-linejoin="round"/>
<path d="M14.7881 7.00781C14.8904 6.47182 15.1431 5.97601 15.5168 5.57831C15.8904 5.18062 16.3695 4.89747 16.8981 4.76195C17.4266 4.62643 17.9829 4.64413 18.5018 4.81299C19.0207 4.98185 19.4808 5.29489 19.8284 5.71554C20.1759 6.13619 20.3966 6.64706 20.4647 7.18848C20.5327 7.7299 20.4452 8.27949 20.2125 8.77305C19.9798 9.2666 19.6114 9.68374 19.1504 9.97571C18.6894 10.2677 18.1549 10.4224 17.6092 10.4219" stroke="white" stroke-width="1.5" stroke-linecap="round" stroke-linejoin="round"/>
</svg>
