<svg width="23" height="23" viewBox="0 0 23 23" fill="none" xmlns="http://www.w3.org/2000/svg">
<path d="M9.70312 14.375C12.6803 14.375 15.0938 11.9615 15.0938 8.98438C15.0938 6.00722 12.6803 3.59375 9.70312 3.59375C6.72597 3.59375 4.3125 6.00722 4.3125 8.98438C4.3125 11.9615 6.72597 14.375 9.70312 14.375Z" stroke="white" stroke-width="1.5" stroke-linecap="round" stroke-linejoin="round"/>
<path d="M1.99414 17.9688C2.93863 16.8431 4.1182 15.9379 5.44995 15.3169C6.78169 14.6959 8.2333 14.374 9.70273 14.374C11.1722 14.374 12.6238 14.6959 13.9555 15.3169C15.2873 15.9379 16.4668 16.8431 17.4113 17.9688" stroke="white" stroke-width="1.5" stroke-linecap="round" stroke-linejoin="round"/>
<path d="M19.7656 13.6562C20.5595 13.6562 21.2031 13.0127 21.2031 12.2188C21.2031 11.4248 20.5595 10.7812 19.7656 10.7812C18.9717 10.7812 18.3281 11.4248 18.3281 12.2188C18.3281 13.0127 18.9717 13.6562 19.7656 13.6562Z" stroke="white" stroke-width="1.5" stroke-linecap="round" stroke-linejoin="round"/>
<path d="M19.7656 10.7812V9.70312" stroke="white" stroke-width="1.5" stroke-linecap="round" stroke-linejoin="round"/>
<path d="M18.5172 11.5L17.5918 10.9609" stroke="white" stroke-width="1.5" stroke-linecap="round" stroke-linejoin="round"/>
<path d="M18.5172 12.9375L17.5918 13.4766" stroke="white" stroke-width="1.5" stroke-linecap="round" stroke-linejoin="round"/>
<path d="M19.7656 13.6562V14.7344" stroke="white" stroke-width="1.5" stroke-linecap="round" stroke-linejoin="round"/>
<path d="M21.0146 12.9375L21.94 13.4766" stroke="white" stroke-width="1.5" stroke-linecap="round" stroke-linejoin="round"/>
<path d="M21.0146 11.5L21.94 10.9609" stroke="white" stroke-width="1.5" stroke-linecap="round" stroke-linejoin="round"/>
</svg>
