<svg width="8" height="10" viewBox="0 0 8 10" fill="none" xmlns="http://www.w3.org/2000/svg">
<path d="M1.55347 3.50912C1.55347 5.0118 2.78293 6.24126 4.28561 6.24126C5.78829 6.24126 7.01775 5.0118 7.01775 3.50912C7.01775 2.00644 5.78829 0.776978 4.28561 0.776978C2.78293 0.776978 1.55347 2.00644 1.55347 3.50912ZM6.3749 3.50912C6.3749 4.65823 5.43472 5.59841 4.28561 5.59841C3.1365 5.59841 2.19632 4.65823 2.19632 3.50912C2.19632 2.36001 3.1365 1.41983 4.28561 1.41983C5.43472 1.41983 6.3749 2.36001 6.3749 3.50912Z" fill="white"/>
<path d="M1.10354 9.16628C1.95533 8.31449 3.08033 7.84842 4.28569 7.84842C5.49104 7.84842 6.61604 8.31449 7.46783 9.16628L7.92586 8.70824C6.95354 7.74396 5.65979 7.20557 4.28569 7.20557C2.91158 7.20557 1.61783 7.74396 0.645508 8.70824L1.10354 9.16628Z" fill="white"/>
</svg>
