<svg width="18" height="18" viewBox="0 0 18 18" fill="none" xmlns="http://www.w3.org/2000/svg">
<path d="M9 11.25C10.5533 11.25 11.8125 9.9908 11.8125 8.4375C11.8125 6.8842 10.5533 5.625 9 5.625C7.4467 5.625 6.1875 6.8842 6.1875 8.4375C6.1875 9.9908 7.4467 11.25 9 11.25Z" stroke="#555555" stroke-width="1.2" stroke-linecap="round" stroke-linejoin="round"/>
<path d="M15.1875 3.375H2.8125C2.50184 3.375 2.25 3.62684 2.25 3.9375V14.0625C2.25 14.3732 2.50184 14.625 2.8125 14.625H15.1875C15.4982 14.625 15.75 14.3732 15.75 14.0625V3.9375C15.75 3.62684 15.4982 3.375 15.1875 3.375Z" stroke="#555555" stroke-width="1.2" stroke-linecap="round" stroke-linejoin="round"/>
<path d="M4.22559 14.6251C4.57403 13.6372 5.22035 12.7818 6.07544 12.1767C6.93053 11.5715 7.95227 11.2466 8.9998 11.2466C10.0473 11.2466 11.0691 11.5715 11.9242 12.1767C12.7793 12.7818 13.4256 13.6372 13.774 14.6251" stroke="#555555" stroke-width="1.2" stroke-linecap="round" stroke-linejoin="round"/>
</svg>
