<svg width="39" height="39" viewBox="0 0 39 39" fill="none" xmlns="http://www.w3.org/2000/svg">
<rect width="39" height="39" rx="6" fill="#8190B7"/>
<path d="M14.6992 16.6783C14.6992 19.6085 17.0967 22.0059 20.0269 22.0059C22.9571 22.0059 25.3546 19.6085 25.3546 16.6783C25.3546 13.748 22.9571 11.3506 20.0269 11.3506C17.0967 11.3506 14.6992 13.748 14.6992 16.6783ZM24.101 16.6783C24.101 18.919 22.2677 20.7524 20.0269 20.7524C17.7861 20.7524 15.9528 18.919 15.9528 16.6783C15.9528 14.4375 17.7861 12.6042 20.0269 12.6042C22.2677 12.6042 24.101 14.4375 24.101 16.6783Z" fill="white"/>
<path d="M13.8229 27.7096C15.4838 26.0486 17.6776 25.1398 20.028 25.1398C22.3785 25.1398 24.5722 26.0486 26.2332 27.7096L27.1264 26.8165C25.2304 24.9361 22.7075 23.8862 20.028 23.8862C17.3485 23.8862 14.8257 24.9361 12.9297 26.8165L13.8229 27.7096Z" fill="white"/>
</svg>
