<svg width="15" height="17" viewBox="0 0 15 17" fill="none" xmlns="http://www.w3.org/2000/svg">
<path d="M2.58105 5.48123C2.58105 8.33632 4.91704 10.6723 7.77213 10.6723C10.6272 10.6723 12.9632 8.33632 12.9632 5.48123C12.9632 2.62614 10.6272 0.290161 7.77213 0.290161C4.91704 0.290161 2.58105 2.62614 2.58105 5.48123ZM11.7418 5.48123C11.7418 7.66454 9.95543 9.45088 7.77213 9.45088C5.58882 9.45088 3.80248 7.66454 3.80248 5.48123C3.80248 3.29793 5.58882 1.51159 7.77213 1.51159C9.95543 1.51159 11.7418 3.29793 11.7418 5.48123Z" fill="white"/>
<path d="M1.72574 16.2298C3.34413 14.6114 5.48163 13.7259 7.77181 13.7259C10.062 13.7259 12.1995 14.6114 13.8179 16.2298L14.6881 15.3595C12.8407 13.5274 10.3826 12.5045 7.77181 12.5045C5.161 12.5045 2.70288 13.5274 0.855469 15.3595L1.72574 16.2298Z" fill="white"/>
</svg>
