<svg width="32" height="32" viewBox="0 0 32 32" fill="none" xmlns="http://www.w3.org/2000/svg">
<rect x="16" width="16" height="16" rx="8" fill="#F6DDEF"/>
<path fill-rule="evenodd" clip-rule="evenodd" d="M8.75 12C8.75 7.99594 11.9959 4.75 16 4.75C20.0041 4.75 23.25 7.99594 23.25 12C23.25 15.9713 20.057 19.1968 16.0981 19.2493C16.0654 19.2491 16.0327 19.249 16 19.249C15.9673 19.249 15.9346 19.2491 15.9019 19.2493C11.943 19.1968 8.75 15.9713 8.75 12ZM12.022 19.7956C9.18926 18.3471 7.25 15.4 7.25 12C7.25 7.16751 11.1675 3.25 16 3.25C20.8325 3.25 24.75 7.16751 24.75 12C24.75 15.4 22.8107 18.3471 19.978 19.7956C21.1608 20.1268 22.3027 20.606 23.3756 21.2255C25.618 22.5203 27.4801 24.3826 28.7746 26.6252C28.9816 26.9839 28.8587 27.4426 28.4999 27.6497C28.1412 27.8568 27.6825 27.7338 27.4755 27.3751C26.3126 25.3605 24.6399 23.6876 22.6255 22.5245C20.6406 21.3784 18.3928 20.767 16.102 20.7494C16.0681 20.7498 16.034 20.75 16 20.75C15.966 20.75 15.932 20.7498 15.898 20.7494C13.6072 20.767 11.3594 21.3784 9.37448 22.5245C7.3601 23.6876 5.68741 25.3605 4.52456 27.3751C4.31748 27.7338 3.8588 27.8568 3.50006 27.6497C3.14132 27.4426 3.01838 26.9839 3.22545 26.6252C4.51994 24.3826 6.38199 22.5203 8.62442 21.2255C9.69731 20.606 10.8392 20.1268 12.022 19.7956Z" fill="url(#paint0_linear_698_22860)"/>
<defs>
<linearGradient id="paint0_linear_698_22860" x1="16" y1="3.25" x2="16" y2="27.7503" gradientUnits="userSpaceOnUse">
<stop stop-color="#000AFF"/>
<stop offset="1" stop-color="#D274FF"/>
</linearGradient>
</defs>
</svg>
