<svg width="25" height="25" viewBox="0 0 25 25" fill="none" xmlns="http://www.w3.org/2000/svg">
<path d="M13.5428 13.0029C13.2219 11.9068 13.0422 10.9883 13.046 10.5012C13.046 9.5418 13.046 8.95806 13.046 8.59556C13.8953 8.35137 14.5206 7.5603 14.5213 6.61255C14.5213 5.47026 13.6164 4.54492 12.4998 4.54492C11.3833 4.54492 10.4791 5.47026 10.4791 6.61255C10.4796 7.5603 11.1045 8.35039 11.9538 8.59556C11.9538 8.95806 11.9538 9.5418 11.9538 10.5012C11.9576 10.9882 11.7779 11.9067 11.457 13.0029C10.5003 16.3048 8.31424 21.3626 6.58191 24.0155L7.49035 24.6353C8.14305 23.6326 8.83688 22.3424 9.50694 20.9476H15.495C16.165 22.3424 16.8593 23.6336 17.5104 24.6353L18.4188 24.0155C17.2667 22.2485 15.9049 19.4087 14.8474 16.7363C14.3181 15.4004 13.8627 14.1029 13.5428 13.0029ZM11.5711 6.61255C11.5721 6.08813 11.9868 5.66343 12.4998 5.6624C13.0139 5.66338 13.4282 6.08809 13.4292 6.61255C13.4282 7.13755 13.0134 7.56323 12.4998 7.5647C11.9875 7.56323 11.572 7.13755 11.5711 6.61255ZM12.4998 13.3332C12.8012 14.3636 13.215 15.541 13.6851 16.7568H11.3182C11.7895 15.541 12.1998 14.3646 12.4998 13.3332ZM10.028 19.83C10.3201 19.1849 10.6027 18.5301 10.8725 17.8743H14.1277C14.3975 18.5316 14.6827 19.1839 14.9756 19.83H10.028Z" fill="url(#paint0_linear_2_6756)" stroke="url(#paint1_linear_2_6756)" stroke-width="0.4"/>
<path d="M1.92717 0.365788C1.9271 0.365747 1.92706 0.365674 1.92706 0.365595C1.92706 0.365365 1.92676 0.365285 1.92664 0.365485C0.886015 2.20531 0.285767 4.33888 0.285767 6.6125C0.285767 8.68568 0.785035 10.6443 1.6623 12.3679C1.80169 12.6417 2.14419 12.7323 2.40865 12.5758C2.66596 12.4236 2.75286 12.094 2.61796 11.8272C1.82691 10.2627 1.37775 8.49146 1.37775 6.6125C1.37775 4.78883 1.80067 3.06869 2.54858 1.53884C2.71792 1.19247 2.60634 0.767631 2.27452 0.571305L1.92717 0.365788Z" fill="url(#paint2_linear_2_6756)" stroke="url(#paint3_linear_2_6756)" stroke-width="0.3"/>
<path d="M5.19559 2.29651C4.93116 2.14006 4.58827 2.23054 4.45322 2.50652C3.84797 3.74346 3.50415 5.13859 3.50415 6.61248C3.50415 8.0873 3.84745 9.48222 4.45261 10.7189C4.58789 10.9954 4.93152 11.0858 5.19618 10.9286C5.45322 10.776 5.53922 10.4466 5.40928 10.1774C4.88988 9.10132 4.59609 7.89257 4.59609 6.61248C4.59609 5.33395 4.88945 4.12491 5.40929 3.04736C5.53918 2.77812 5.45287 2.44873 5.19559 2.29651Z" fill="url(#paint4_linear_2_6756)" stroke="url(#paint5_linear_2_6756)" stroke-width="0.3"/>
<path d="M23.3385 0.858981C23.199 0.58454 22.8556 0.493949 22.5909 0.65113C22.3339 0.803692 22.2473 1.13313 22.3822 1.39981C23.1731 2.96361 23.6224 4.73305 23.6224 6.61245C23.6224 8.49142 23.1732 10.2627 22.3823 11.8272C22.2474 12.094 22.3343 12.4235 22.5916 12.5757C22.8561 12.7322 23.1986 12.6416 23.338 12.3677C24.2151 10.6442 24.7143 8.6856 24.7143 6.6125C24.7143 4.53938 24.2153 2.5827 23.3385 0.858981Z" fill="url(#paint6_linear_2_6756)" stroke="url(#paint7_linear_2_6756)" stroke-width="0.3"/>
<path d="M19.8042 2.2971C19.5475 2.44962 19.4615 2.77849 19.5911 3.04746C20.1105 4.1253 20.4039 5.33355 20.4039 6.6124C20.4039 7.89247 20.1107 9.1012 19.5913 10.1773C19.4613 10.4465 19.5473 10.776 19.8044 10.9286C20.069 11.0857 20.4127 10.9953 20.5479 10.7189C21.153 9.48221 21.4959 8.08724 21.4959 6.6124C21.4959 5.13894 21.153 3.74415 20.548 2.5068C20.4127 2.2302 20.0689 2.13981 19.8042 2.2971Z" fill="url(#paint8_linear_2_6756)" stroke="url(#paint9_linear_2_6756)" stroke-width="0.3"/>
<path d="M19.3417 2.57058C19.3417 2.57059 19.3417 2.57059 19.3417 2.57059C19.3417 2.57059 19.3417 2.57058 19.3417 2.57058C19.3417 2.57057 19.3417 2.57057 19.3417 2.57058Z" fill="url(#paint10_linear_2_6756)" stroke="url(#paint11_linear_2_6756)" stroke-width="0.3"/>
<path d="M7.98436 9.28214C8.24187 9.12995 8.32694 8.80064 8.20891 8.52579C7.95657 7.93822 7.81579 7.29315 7.81579 6.6125C7.81579 5.93307 7.95657 5.28824 8.20891 4.70071C8.32695 4.42587 8.24187 4.09657 7.98436 3.94438C7.71964 3.78792 7.37559 3.87854 7.2497 4.15909C6.91435 4.90643 6.72375 5.73724 6.72375 6.6125C6.72375 7.48938 6.91434 8.32019 7.24969 9.06744C7.37558 9.34798 7.71964 9.43859 7.98436 9.28214Z" fill="url(#paint12_linear_2_6756)" stroke="url(#paint13_linear_2_6756)" stroke-width="0.3"/>
<path d="M17.0157 9.28205C17.2802 9.43857 17.6242 9.3482 17.7503 9.06784C18.0863 8.32049 18.2771 7.48954 18.2771 6.6125C18.2771 5.73748 18.0864 4.90622 17.7507 4.15882C17.6245 3.87794 17.2798 3.78765 17.0151 3.94484C16.7581 4.0974 16.6734 4.42639 16.7915 4.70094C17.0441 5.28839 17.1851 5.93282 17.1851 6.6125C17.1851 7.29345 17.0441 7.93825 16.7914 8.52627C16.6734 8.80088 16.7584 9.12987 17.0157 9.28205Z" fill="url(#paint14_linear_2_6756)" stroke="url(#paint15_linear_2_6756)" stroke-width="0.3"/>
<defs>
<linearGradient id="paint0_linear_2_6756" x1="12.5003" y1="4.54492" x2="12.5003" y2="24.6353" gradientUnits="userSpaceOnUse">
<stop stop-color="#000AFF"/>
<stop offset="1" stop-color="#D274FF"/>
</linearGradient>
<linearGradient id="paint1_linear_2_6756" x1="12.5003" y1="4.54492" x2="12.5003" y2="24.6353" gradientUnits="userSpaceOnUse">
<stop stop-color="#000AFF"/>
<stop offset="1" stop-color="#D274FF"/>
</linearGradient>
<linearGradient id="paint2_linear_2_6756" x1="1.57883" y1="0.364746" x2="1.57883" y2="12.8607" gradientUnits="userSpaceOnUse">
<stop stop-color="#000AFF"/>
<stop offset="1" stop-color="#D274FF"/>
</linearGradient>
<linearGradient id="paint3_linear_2_6756" x1="1.57883" y1="0.364746" x2="1.57883" y2="12.8607" gradientUnits="userSpaceOnUse">
<stop stop-color="#000AFF"/>
<stop offset="1" stop-color="#D274FF"/>
</linearGradient>
<linearGradient id="paint4_linear_2_6756" x1="4.58149" y1="2.0116" x2="4.58149" y2="11.2149" gradientUnits="userSpaceOnUse">
<stop stop-color="#000AFF"/>
<stop offset="1" stop-color="#D274FF"/>
</linearGradient>
<linearGradient id="paint5_linear_2_6756" x1="4.58149" y1="2.0116" x2="4.58149" y2="11.2149" gradientUnits="userSpaceOnUse">
<stop stop-color="#000AFF"/>
<stop offset="1" stop-color="#D274FF"/>
</linearGradient>
<linearGradient id="paint6_linear_2_6756" x1="23.4214" y1="0.364746" x2="23.4214" y2="12.8607" gradientUnits="userSpaceOnUse">
<stop stop-color="#000AFF"/>
<stop offset="1" stop-color="#D274FF"/>
</linearGradient>
<linearGradient id="paint7_linear_2_6756" x1="23.4214" y1="0.364746" x2="23.4214" y2="12.8607" gradientUnits="userSpaceOnUse">
<stop stop-color="#000AFF"/>
<stop offset="1" stop-color="#D274FF"/>
</linearGradient>
<linearGradient id="paint8_linear_2_6756" x1="20.4188" y1="2.0105" x2="20.4188" y2="11.2148" gradientUnits="userSpaceOnUse">
<stop stop-color="#000AFF"/>
<stop offset="1" stop-color="#D274FF"/>
</linearGradient>
<linearGradient id="paint9_linear_2_6756" x1="20.4188" y1="2.0105" x2="20.4188" y2="11.2148" gradientUnits="userSpaceOnUse">
<stop stop-color="#000AFF"/>
<stop offset="1" stop-color="#D274FF"/>
</linearGradient>
<linearGradient id="paint10_linear_2_6756" x1="19.3417" y1="2.57056" x2="19.3417" y2="2.57059" gradientUnits="userSpaceOnUse">
<stop stop-color="#000AFF"/>
<stop offset="1" stop-color="#D274FF"/>
</linearGradient>
<linearGradient id="paint11_linear_2_6756" x1="19.3417" y1="2.57056" x2="19.3417" y2="2.57059" gradientUnits="userSpaceOnUse">
<stop stop-color="#000AFF"/>
<stop offset="1" stop-color="#D274FF"/>
</linearGradient>
<linearGradient id="paint12_linear_2_6756" x1="7.58589" y1="3.65942" x2="7.58589" y2="9.56709" gradientUnits="userSpaceOnUse">
<stop stop-color="#000AFF"/>
<stop offset="1" stop-color="#D274FF"/>
</linearGradient>
<linearGradient id="paint13_linear_2_6756" x1="7.58589" y1="3.65942" x2="7.58589" y2="9.56709" gradientUnits="userSpaceOnUse">
<stop stop-color="#000AFF"/>
<stop offset="1" stop-color="#D274FF"/>
</linearGradient>
<linearGradient id="paint14_linear_2_6756" x1="17.4148" y1="3.65845" x2="17.4148" y2="9.56709" gradientUnits="userSpaceOnUse">
<stop stop-color="#000AFF"/>
<stop offset="1" stop-color="#D274FF"/>
</linearGradient>
<linearGradient id="paint15_linear_2_6756" x1="17.4148" y1="3.65845" x2="17.4148" y2="9.56709" gradientUnits="userSpaceOnUse">
<stop stop-color="#000AFF"/>
<stop offset="1" stop-color="#D274FF"/>
</linearGradient>
</defs>
</svg>
