<svg width="15" height="15" viewBox="0 0 15 15" fill="none" xmlns="http://www.w3.org/2000/svg">
<g clip-path="url(#clip0_74_61187)">
<path d="M9.43706 0.815808C9.18471 0.557565 8.88329 0.352365 8.55052 0.212267C8.21774 0.0721694 7.86031 0 7.49925 0C7.13818 0 6.78076 0.0721694 6.44798 0.212267C6.1152 0.352365 5.81378 0.557565 5.56143 0.815808L4.97831 1.41393L4.14393 1.40362C3.78276 1.39935 3.42438 1.46733 3.08987 1.60358C2.75535 1.73983 2.45146 1.94158 2.19605 2.19699C1.94065 2.45239 1.73889 2.75629 1.60264 3.0908C1.46639 3.42532 1.39841 3.7837 1.40268 4.14487L1.41206 4.97925L0.815808 5.56237C0.557565 5.81472 0.352365 6.11614 0.212267 6.44892C0.0721694 6.78169 0 7.13912 0 7.50018C0 7.86125 0.0721694 8.21867 0.212267 8.55145C0.352365 8.88423 0.557565 9.18565 0.815808 9.438L1.413 10.0211L1.40268 10.8555C1.39841 11.2167 1.46639 11.575 1.60264 11.9096C1.73889 12.2441 1.94065 12.548 2.19605 12.8034C2.45146 13.0588 2.75535 13.2605 3.08987 13.3968C3.42438 13.533 3.78276 13.601 4.14393 13.5967L4.97831 13.5874L5.56143 14.1836C5.81378 14.4419 6.1152 14.6471 6.44798 14.7872C6.78076 14.9273 7.13818 14.9994 7.49925 14.9994C7.86031 14.9994 8.21774 14.9273 8.55052 14.7872C8.88329 14.6471 9.18471 14.4419 9.43706 14.1836L10.0202 13.5864L10.8546 13.5967C11.2157 13.601 11.5741 13.533 11.9086 13.3968C12.2431 13.2605 12.547 13.0588 12.8024 12.8034C13.0578 12.548 13.2596 12.2441 13.3959 11.9096C13.5321 11.575 13.6001 11.2167 13.5958 10.8555L13.5864 10.0211L14.1827 9.438C14.4409 9.18565 14.6461 8.88423 14.7862 8.55145C14.9263 8.21867 14.9985 7.86125 14.9985 7.50018C14.9985 7.13912 14.9263 6.78169 14.7862 6.44892C14.6461 6.11614 14.4409 5.81472 14.1827 5.56237L13.5855 4.97925L13.5958 4.14487C13.6001 3.7837 13.5321 3.42532 13.3959 3.0908C13.2596 2.75629 13.0578 2.45239 12.8024 2.19699C12.547 1.94158 12.2431 1.73983 11.9086 1.60358C11.5741 1.46733 11.2157 1.39935 10.8546 1.40362L10.0202 1.413L9.43706 0.815808ZM9.70612 6.42581L6.89362 9.23831C6.85008 9.28196 6.79835 9.3166 6.7414 9.34023C6.68445 9.36386 6.6234 9.37602 6.56175 9.37602C6.50009 9.37602 6.43904 9.36386 6.38209 9.34023C6.32514 9.3166 6.27341 9.28196 6.22987 9.23831L4.82362 7.83206C4.78004 7.78848 4.74547 7.73674 4.72188 7.67979C4.69829 7.62285 4.68615 7.56182 4.68615 7.50018C4.68615 7.43855 4.69829 7.37752 4.72188 7.32057C4.74547 7.26363 4.78004 7.21189 4.82362 7.16831C4.8672 7.12473 4.91894 7.09015 4.97589 7.06657C5.03283 7.04298 5.09386 7.03084 5.1555 7.03084C5.21713 7.03084 5.27816 7.04298 5.33511 7.06657C5.39205 7.09015 5.44379 7.12473 5.48737 7.16831L6.56175 8.24362L9.04237 5.76206C9.13039 5.67404 9.24977 5.62459 9.37425 5.62459C9.49872 5.62459 9.6181 5.67404 9.70612 5.76206C9.79414 5.85008 9.84359 5.96946 9.84359 6.09393C9.84359 6.21841 9.79414 6.33779 9.70612 6.42581Z" fill="#1FAE50"/>
</g>
<defs>
<clipPath id="clip0_74_61187">
<rect width="15" height="15" fill="white"/>
</clipPath>
</defs>
</svg>
