<svg width="18" height="18" viewBox="0 0 18 18" fill="none" xmlns="http://www.w3.org/2000/svg">
<g id="3844442_dot_menu_more_vertical_icon 1" clip-path="url(#clip0_1440_171806)">
<path id="XMLID_294_" d="M9 10.8746C9.93038 10.8746 10.6875 10.1643 10.6875 9.29146C10.6876 8.4186 9.93044 7.70827 9.00007 7.70825C8.06969 7.70823 7.31255 8.41853 7.31253 9.29139C7.31252 10.1643 8.06962 10.8746 9 10.8746Z" fill="#333333"/>
<path id="XMLID_295_" d="M14.625 10.8746C15.5554 10.8746 16.3125 10.1643 16.3125 9.29146C16.3126 8.4186 15.5554 7.70827 14.6251 7.70825C13.6947 7.70823 12.9376 8.41853 12.9375 9.29139C12.9375 10.1643 13.6946 10.8746 14.625 10.8746Z" fill="#333333"/>
<path id="XMLID_297_" d="M3.375 10.8707C4.30538 10.8707 5.06252 10.1604 5.06253 9.28756C5.06255 8.4147 4.30544 7.70436 3.37507 7.70434C2.44469 7.70432 1.68755 8.41462 1.68753 9.28748C1.68752 10.1603 2.44462 10.8707 3.375 10.8707Z" fill="#333333"/>
</g>
<defs>
<clipPath id="clip0_1440_171806">
<rect width="16.8873" height="18" fill="white" transform="translate(0 17.7339) rotate(-89.9988)"/>
</clipPath>
</defs>
</svg>
