<svg width="17" height="18" viewBox="0 0 17 18" fill="none" xmlns="http://www.w3.org/2000/svg">
<path d="M6.86035 9C6.86035 9.93038 7.57067 10.6875 8.44353 10.6875C9.31639 10.6875 10.0267 9.93038 10.0267 9C10.0267 8.06962 9.31639 7.3125 8.44353 7.3125C7.57067 7.3125 6.86035 8.06962 6.86035 9Z" fill="#555555"/>
<path d="M6.86035 14.625C6.86035 15.5554 7.57067 16.3125 8.44353 16.3125C9.31639 16.3125 10.0267 15.5554 10.0267 14.625C10.0267 13.6946 9.31639 12.9375 8.44353 12.9375C7.57067 12.9375 6.86035 13.6946 6.86035 14.625Z" fill="#555555"/>
<path d="M6.86035 3.375C6.86035 4.30538 7.57067 5.0625 8.44353 5.0625C9.31639 5.0625 10.0267 4.30538 10.0267 3.375C10.0267 2.44462 9.31639 1.6875 8.44353 1.6875C7.57067 1.6875 6.86035 2.44462 6.86035 3.375Z" fill="#555555"/>
</svg>
