<svg width="19" height="16" viewBox="0 0 19 16" fill="none" xmlns="http://www.w3.org/2000/svg">
<path d="M15.6021 0.0603027H0V15.6624H18.7226V0.0603027H15.6021ZM2.49634 15.0384H0.624085V13.1661H2.49634V15.0384ZM2.49634 12.542H0.624085V10.6698H2.49634V12.542ZM2.49634 10.0457H0.624085V8.17341H2.49634V10.0457ZM2.49634 7.54933H0.624085V5.67707H2.49634V7.54933ZM2.49634 5.05299H0.624085V3.18073H2.49634V5.05299ZM2.49634 2.55664H0.624085V0.684388H2.49634V2.55664ZM15.6021 15.0384H3.12043V0.684388H15.6021V15.0384ZM18.0985 15.0384H16.2262V13.1661H18.0985V15.0384ZM18.0985 12.542H16.2262V10.6698H18.0985V12.542ZM18.0985 10.0457H16.2262V8.17341H18.0985V10.0457ZM18.0985 7.54933H16.2262V5.67707H18.0985V7.54933ZM18.0985 5.05299H16.2262V3.18073H18.0985V5.05299ZM18.0985 2.55664H16.2262V0.684388H18.0985V2.55664Z" fill="url(#paint0_linear_987_197102)"/>
<path d="M11.8178 7.70535C11.7902 7.65706 11.7501 7.61708 11.7019 7.58947L7.3333 5.09312C7.18407 5.00696 6.99321 5.0581 6.90705 5.20733C6.8794 5.25523 6.86497 5.3096 6.86524 5.36491V10.3576C6.86536 10.469 6.9248 10.5718 7.02126 10.6275C7.1178 10.6833 7.23676 10.6833 7.3333 10.6275L11.7019 8.13117C11.8515 8.04559 11.9034 7.85497 11.8178 7.70535ZM7.48932 9.81963V5.90288L10.9168 7.86125L7.48932 9.81963Z" fill="url(#paint1_linear_987_197102)"/>
<defs>
<linearGradient id="paint0_linear_987_197102" x1="9.36128" y1="0.0603027" x2="9.36128" y2="15.6624" gradientUnits="userSpaceOnUse">
<stop stop-color="#0033EA"/>
<stop offset="1" stop-color="#8A0074"/>
</linearGradient>
<linearGradient id="paint1_linear_987_197102" x1="9.36213" y1="5.05127" x2="9.36213" y2="10.6693" gradientUnits="userSpaceOnUse">
<stop stop-color="#0033EA"/>
<stop offset="1" stop-color="#8A0074"/>
</linearGradient>
</defs>
</svg>
