<svg width="17" height="12" viewBox="0 0 17 12" fill="none" xmlns="http://www.w3.org/2000/svg">
<path d="M3.8249 9.67891C5.11318 10.9672 6.81318 11.618 8.4999 11.618C10.1866 11.618 11.8866 10.9672 13.1749 9.67891L16.8538 6L13.1749 2.32109C10.5983 -0.255469 6.38818 -0.255469 3.81162 2.32109L0.145996 6L3.8249 9.67891ZM4.54209 3.03828C6.72022 0.860156 10.2796 0.860156 12.4577 3.03828L15.4194 6L12.4577 8.96172C10.2796 11.1398 6.72022 11.1398 4.54209 8.96172L1.58037 6L4.54209 3.03828Z" fill="#645DF6"/>
<path d="M8.5 8.78906C10.0406 8.78906 11.2891 7.54063 11.2891 6C11.2891 4.45937 10.0406 3.21094 8.5 3.21094V4.27344C9.45625 4.27344 10.2266 5.04375 10.2266 6C10.2266 6.95625 9.45625 7.72656 8.5 7.72656C7.54375 7.72656 6.77344 6.95625 6.77344 6H5.71094C5.71094 7.54063 6.95937 8.78906 8.5 8.78906Z" fill="#645DF6"/>
</svg>
