<svg width="24" height="24" viewBox="0 0 24 24" fill="none" xmlns="http://www.w3.org/2000/svg">
<g clip-path="url(#clip0_377_13080)">
<path d="M12 21.75C10.0716 21.75 8.18657 21.1782 6.58319 20.1068C4.97981 19.0355 3.73013 17.5127 2.99217 15.7312C2.25422 13.9496 2.06113 11.9892 2.43734 10.0979C2.81355 8.20656 3.74214 6.46928 5.10571 5.10571C6.46927 3.74215 8.20655 2.81355 10.0979 2.43735C11.9892 2.06114 13.9496 2.25422 15.7312 2.99218C17.5127 3.73013 19.0355 4.97982 20.1068 6.58319C21.1782 8.18657 21.75 10.0716 21.75 12C21.75 14.5859 20.7228 17.0658 18.8943 18.8943C17.0658 20.7228 14.5859 21.75 12 21.75ZM12 3.75C10.3683 3.75 8.77325 4.23386 7.41654 5.14038C6.05984 6.0469 5.00241 7.33538 4.37799 8.84287C3.75357 10.3504 3.59019 12.0092 3.90852 13.6095C4.22685 15.2098 5.01258 16.6799 6.16637 17.8336C7.32015 18.9874 8.79016 19.7732 10.3905 20.0915C11.9908 20.4098 13.6496 20.2464 15.1571 19.622C16.6646 18.9976 17.9531 17.9402 18.8596 16.5835C19.7661 15.2268 20.25 13.6317 20.25 12C20.25 9.81197 19.3808 7.71355 17.8336 6.16637C16.2865 4.6192 14.188 3.75 12 3.75Z" fill="#555555"/>
</g>
<path d="M12 16.9587C9.49235 16.9587 7.19292 15.1953 5.84936 12.2419C5.81487 12.166 5.79703 12.0837 5.79703 12.0003C5.79703 11.917 5.81487 11.8346 5.84936 11.7588C7.19292 8.80538 9.49235 7.04199 12 7.04199C14.5077 7.04199 16.8071 8.80538 18.1506 11.7588C18.1851 11.8346 18.203 11.9169 18.203 12.0002C18.2031 12.0834 18.1853 12.1657 18.1509 12.2416C17.9197 12.7524 17.6483 13.2441 17.3392 13.7119C17.297 13.7763 17.2426 13.8317 17.179 13.875C17.1153 13.9183 17.0438 13.9486 16.9684 13.9641C16.893 13.9796 16.8153 13.98 16.7397 13.9653C16.6642 13.9507 16.5923 13.9212 16.5282 13.8786C16.4641 13.8361 16.409 13.7812 16.3662 13.7173C16.3234 13.6533 16.2936 13.5815 16.2787 13.506C16.2637 13.4305 16.2639 13.3528 16.2791 13.2774C16.2943 13.2019 16.3243 13.1302 16.3673 13.0664C16.5933 12.7249 16.7963 12.3688 16.9751 12.0003C15.8168 9.62056 13.9716 8.20866 12 8.20866C10.0284 8.20866 8.18325 9.62056 7.02486 12.0003C8.18325 14.3801 10.0284 15.792 12 15.792C13.0796 15.7715 14.1184 15.3756 14.9377 14.6723C15.0576 14.5745 15.2115 14.5283 15.3654 14.5439C15.5194 14.5595 15.6608 14.6356 15.7586 14.7555C15.8565 14.8754 15.9026 15.0292 15.8871 15.1832C15.8715 15.3371 15.7953 15.4785 15.6755 15.5764C14.6484 16.4506 13.3486 16.9394 12 16.9587Z" fill="#555555"/>
<path d="M12 14.3337C11.6563 14.3333 11.3169 14.2572 11.006 14.1106C10.6952 13.964 10.4205 13.7506 10.2016 13.4856C9.98267 13.2206 9.82496 12.9106 9.73969 12.5776C9.65441 12.2447 9.64368 11.897 9.70825 11.5594C9.73726 11.4074 9.82546 11.2732 9.95344 11.1862C10.0814 11.0993 10.2387 11.0667 10.3907 11.0957C10.5427 11.1247 10.6769 11.2129 10.7639 11.3409C10.8509 11.4689 10.8834 11.6262 10.8544 11.7782C10.8235 11.9378 10.8262 12.1022 10.8625 12.2607C10.8988 12.4192 10.9679 12.5684 11.0652 12.6987C11.1626 12.8289 11.2861 12.9374 11.4278 13.0171C11.5696 13.0969 11.7264 13.1461 11.8883 13.1616C12.0502 13.1772 12.2135 13.1587 12.3678 13.1074C12.5222 13.0562 12.6641 12.9732 12.7844 12.8638C12.9048 12.7545 13.001 12.6212 13.0668 12.4725C13.1326 12.3238 13.1666 12.1629 13.1667 12.0003C13.1612 11.6874 13.0323 11.3892 12.808 11.1709C12.5837 10.9525 12.2822 10.8316 11.9692 10.8345C11.8169 10.8356 11.6697 10.7794 11.557 10.677C11.4443 10.5745 11.3742 10.4334 11.3608 10.2817C11.354 10.2067 11.3623 10.1311 11.3852 10.0595C11.4082 9.98779 11.4453 9.92145 11.4943 9.86438C11.5434 9.80731 11.6035 9.76069 11.6709 9.72727C11.7383 9.69385 11.8118 9.67432 11.8869 9.66984L12 9.66699C12.6188 9.66699 13.2123 9.91282 13.6499 10.3504C14.0875 10.788 14.3333 11.3815 14.3333 12.0003C14.3333 12.6192 14.0875 13.2127 13.6499 13.6502C13.2123 14.0878 12.6188 14.3337 12 14.3337Z" fill="#555555"/>
<defs>
<clipPath id="clip0_377_13080">
<rect width="24" height="24" fill="white"/>
</clipPath>
</defs>
</svg>
