<svg width="17" height="12" viewBox="0 0 17 12" fill="none" xmlns="http://www.w3.org/2000/svg">
<path d="M3.82502 9.67891C5.11331 10.9672 6.81331 11.618 8.50002 11.618C10.1867 11.618 11.8867 10.9672 13.175 9.67891L16.8539 6L13.175 2.32109C10.5985 -0.255469 6.38831 -0.255469 3.81174 2.32109L0.146118 6L3.82502 9.67891ZM4.54221 3.03828C6.72034 0.860156 10.2797 0.860156 12.4578 3.03828L15.4196 6L12.4578 8.96172C10.2797 11.1398 6.72034 11.1398 4.54221 8.96172L1.58049 6L4.54221 3.03828Z" fill="black"/>
<path d="M8.5 8.78906C10.0406 8.78906 11.2891 7.54063 11.2891 6C11.2891 4.45937 10.0406 3.21094 8.5 3.21094V4.27344C9.45625 4.27344 10.2266 5.04375 10.2266 6C10.2266 6.95625 9.45625 7.72656 8.5 7.72656C7.54375 7.72656 6.77344 6.95625 6.77344 6H5.71094C5.71094 7.54063 6.95937 8.78906 8.5 8.78906Z" fill="black"/>
</svg>
