<svg width="32" height="32" viewBox="0 0 32 32" fill="none" xmlns="http://www.w3.org/2000/svg">
<rect x="16" width="16" height="16" rx="8" fill="#F6DDEF"/>
<path fill-rule="evenodd" clip-rule="evenodd" d="M9.10526 10.2105C10.268 10.2105 11.2105 9.26797 11.2105 8.10526C11.2105 6.94256 10.268 6 9.10526 6C7.94256 6 7 6.94256 7 8.10526C7 9.26797 7.94256 10.2105 9.10526 10.2105ZM9.10526 16.1053C10.268 16.1053 11.2105 15.1627 11.2105 14C11.2105 12.8373 10.268 11.8947 9.10526 11.8947C7.94256 11.8947 7 12.8373 7 14C7 15.1627 7.94256 16.1053 9.10526 16.1053ZM11.2105 19.8947C11.2105 21.0574 10.268 22 9.10526 22C7.94256 22 7 21.0574 7 19.8947C7 18.732 7.94256 17.7895 9.10526 17.7895C10.268 17.7895 11.2105 18.732 11.2105 19.8947ZM14.9998 10.2105C16.1625 10.2105 17.1051 9.26797 17.1051 8.10526C17.1051 6.94256 16.1625 6 14.9998 6C13.8371 6 12.8945 6.94256 12.8945 8.10526C12.8945 9.26797 13.8371 10.2105 14.9998 10.2105ZM17.1051 14C17.1051 15.1627 16.1625 16.1053 14.9998 16.1053C13.8371 16.1053 12.8945 15.1627 12.8945 14C12.8945 12.8373 13.8371 11.8947 14.9998 11.8947C16.1625 11.8947 17.1051 12.8373 17.1051 14ZM14.9998 22C16.1625 22 17.1051 21.0574 17.1051 19.8947C17.1051 18.732 16.1625 17.7895 14.9998 17.7895C13.8371 17.7895 12.8945 18.732 12.8945 19.8947C12.8945 21.0574 13.8371 22 14.9998 22ZM17.1051 25.7895C17.1051 26.9522 16.1625 27.8947 14.9998 27.8947C13.8371 27.8947 12.8945 26.9522 12.8945 25.7895C12.8945 24.6268 13.8371 23.6842 14.9998 23.6842C16.1625 23.6842 17.1051 24.6268 17.1051 25.7895ZM20.8943 10.2105C22.057 10.2105 22.9996 9.26797 22.9996 8.10526C22.9996 6.94256 22.057 6 20.8943 6C19.7316 6 18.7891 6.94256 18.7891 8.10526C18.7891 9.26797 19.7316 10.2105 20.8943 10.2105ZM22.9996 14C22.9996 15.1627 22.057 16.1053 20.8943 16.1053C19.7316 16.1053 18.7891 15.1627 18.7891 14C18.7891 12.8373 19.7316 11.8947 20.8943 11.8947C22.057 11.8947 22.9996 12.8373 22.9996 14ZM20.8943 22C22.057 22 22.9996 21.0574 22.9996 19.8947C22.9996 18.732 22.057 17.7895 20.8943 17.7895C19.7316 17.7895 18.7891 18.732 18.7891 19.8947C18.7891 21.0574 19.7316 22 20.8943 22Z" fill="url(#paint0_linear_30_10975)"/>
<path d="M18.0625 23.625C21.6869 23.625 24.625 20.6869 24.625 17.0625C24.625 13.4381 21.6869 10.5 18.0625 10.5C14.4381 10.5 11.5 13.4381 11.5 17.0625C11.5 20.6869 14.4381 23.625 18.0625 23.625Z" fill="white" fill-opacity="0.74" stroke="#555555" stroke-width="1.5" stroke-linecap="round" stroke-linejoin="round"/>
<path d="M22.7031 21.7031L26.5 25.5" stroke="#555555" stroke-width="1.5" stroke-linecap="round" stroke-linejoin="round"/>
<defs>
<linearGradient id="paint0_linear_30_10975" x1="14.9998" y1="6" x2="14.9998" y2="27.8947" gradientUnits="userSpaceOnUse">
<stop stop-color="#000AFF"/>
<stop offset="1" stop-color="#D274FF"/>
</linearGradient>
</defs>
</svg>
