<svg width="34" height="34" viewBox="0 0 34 34" fill="none" xmlns="http://www.w3.org/2000/svg">
<path d="M11.963 9.04296H27.3262C27.6983 9.04296 28 8.74127 28 8.36913C28 7.997 27.6983 7.69531 27.3262 7.69531H11.963C11.5909 7.69531 11.2892 7.997 11.2892 8.36913C11.2892 8.74127 11.5909 9.04296 11.963 9.04296Z" fill="url(#paint0_linear_538_20665)"/>
<path d="M27.3262 15.8262H11.963C11.5909 15.8262 11.2892 16.1278 11.2892 16.5C11.2892 16.8721 11.5909 17.1738 11.963 17.1738H27.3262C27.6983 17.1738 28 16.8721 28 16.5C28 16.1278 27.6983 15.8262 27.3262 15.8262Z" fill="url(#paint1_linear_538_20665)"/>
<path d="M27.3262 23.957H11.963C11.5909 23.957 11.2892 24.2587 11.2892 24.6308C11.2892 25.003 11.5909 25.3047 11.963 25.3047H27.3262C27.6983 25.3047 28 25.003 28 24.6308C28 24.2587 27.6983 23.957 27.3262 23.957Z" fill="url(#paint2_linear_538_20665)"/>
<path d="M6.16811 6.34766H6.55049V10.6153C6.55049 10.9874 6.85218 11.2891 7.22431 11.2891C7.59645 11.2891 7.89814 10.9874 7.89814 10.6153V5.67383C7.89814 5.3017 7.59645 5 7.22431 5H6.16811C5.79598 5 5.49428 5.3017 5.49428 5.67383C5.49428 6.04597 5.79598 6.34766 6.16811 6.34766Z" fill="url(#paint3_linear_538_20665)"/>
<path d="M8.32795 18.2857C7.93053 18.2907 7.51208 18.2944 7.13851 18.296C7.39272 17.9524 7.72277 17.497 8.14377 16.8955C8.46272 16.4398 8.67116 16.0071 8.76343 15.6091C8.76855 15.5871 8.77254 15.5648 8.77542 15.5423L8.79936 15.3549C8.803 15.3266 8.8048 15.2981 8.8048 15.2695C8.8048 14.2141 7.94621 13.3555 6.89086 13.3555C5.97832 13.3555 5.18845 14.0048 5.01276 14.8992C4.94102 15.2644 5.17893 15.6186 5.5441 15.6903C5.90932 15.7619 6.26343 15.5241 6.33513 15.1589C6.38697 14.8948 6.6207 14.7032 6.89081 14.7032C7.19143 14.7032 7.4381 14.9386 7.45606 15.2348L7.44344 15.3338C7.40157 15.4945 7.297 15.755 7.03968 16.1227C6.27354 17.2174 5.81646 17.8159 5.57092 18.1375C5.26069 18.5436 5.08981 18.7674 5.20229 19.1332C5.26931 19.351 5.43377 19.518 5.65367 19.5912C5.74486 19.6216 5.81794 19.646 6.75874 19.646C7.13222 19.646 7.64249 19.6422 8.34493 19.6333C8.71702 19.6286 9.0149 19.3232 9.01027 18.951C9.00551 18.5789 8.6995 18.2816 8.32795 18.2857Z" fill="url(#paint4_linear_538_20665)"/>
<path d="M7.00518 21.7109C6.09489 21.7109 5.30705 22.3586 5.13185 23.2508C5.06011 23.616 5.29802 23.9702 5.66319 24.0419C6.0284 24.1135 6.38252 23.8757 6.45422 23.5105C6.50565 23.2486 6.73736 23.0586 7.00518 23.0586C7.31483 23.0586 7.56671 23.3105 7.56671 23.6201C7.56671 23.9297 7.31483 24.1816 7.00518 24.1816C6.63305 24.1816 6.33136 24.4833 6.33136 24.8555C6.33136 25.2276 6.63305 25.5293 7.00518 25.5293C7.31483 25.5293 7.56671 25.7812 7.56671 26.0908C7.56671 26.4005 7.31483 26.6523 7.00518 26.6523C6.72658 26.6523 6.4875 26.445 6.44914 26.1701C6.4455 26.144 6.44366 26.1174 6.44366 26.0908C6.44366 25.7187 6.14197 25.417 5.76983 25.417C5.3977 25.417 5.096 25.7187 5.096 26.0908C5.096 26.1794 5.1022 26.2687 5.11438 26.3563C5.24515 27.2933 6.05805 28 7.00518 28C8.05793 28 8.91436 27.1436 8.91436 26.0908C8.91436 25.62 8.74267 25.1887 8.45912 24.8555C8.74272 24.5222 8.91436 24.0909 8.91436 23.6201C8.91436 22.5674 8.05788 21.7109 7.00518 21.7109Z" fill="url(#paint5_linear_538_20665)"/>
<defs>
<linearGradient id="paint0_linear_538_20665" x1="16.5" y1="5" x2="16.5" y2="28" gradientUnits="userSpaceOnUse">
<stop stop-color="#000AFF"/>
<stop offset="1" stop-color="#D274FF"/>
</linearGradient>
<linearGradient id="paint1_linear_538_20665" x1="16.5" y1="5" x2="16.5" y2="28" gradientUnits="userSpaceOnUse">
<stop stop-color="#000AFF"/>
<stop offset="1" stop-color="#D274FF"/>
</linearGradient>
<linearGradient id="paint2_linear_538_20665" x1="16.5" y1="5" x2="16.5" y2="28" gradientUnits="userSpaceOnUse">
<stop stop-color="#000AFF"/>
<stop offset="1" stop-color="#D274FF"/>
</linearGradient>
<linearGradient id="paint3_linear_538_20665" x1="16.5" y1="5" x2="16.5" y2="28" gradientUnits="userSpaceOnUse">
<stop stop-color="#000AFF"/>
<stop offset="1" stop-color="#D274FF"/>
</linearGradient>
<linearGradient id="paint4_linear_538_20665" x1="16.5" y1="5" x2="16.5" y2="28" gradientUnits="userSpaceOnUse">
<stop stop-color="#000AFF"/>
<stop offset="1" stop-color="#D274FF"/>
</linearGradient>
<linearGradient id="paint5_linear_538_20665" x1="16.5" y1="5" x2="16.5" y2="28" gradientUnits="userSpaceOnUse">
<stop stop-color="#000AFF"/>
<stop offset="1" stop-color="#D274FF"/>
</linearGradient>
</defs>
</svg>
