<svg width="3" height="14" viewBox="0 0 3 14" fill="none" xmlns="http://www.w3.org/2000/svg">
<path d="M1.45842 11.0832C2.26388 11.0832 2.91683 11.7361 2.91683 12.5416C2.91683 13.347 2.26388 14 1.45842 14C0.652954 14 0 13.347 0 12.5416C0 11.7361 0.652954 11.0832 1.45842 11.0832Z" fill="#333333"/>
<path d="M1.45842 5.53629C2.26388 5.53629 2.91683 6.18923 2.91683 6.99471C2.91683 7.80019 2.26388 8.45312 1.45842 8.45312C0.652954 8.45312 0 7.80019 0 6.99471C0 6.18923 0.652954 5.53629 1.45842 5.53629Z" fill="#333333"/>
<path d="M2.91683 1.45565C2.91683 0.650165 2.26388 -0.0027678 1.45842 -0.0027678C0.652954 -0.0027678 0 0.650165 0 1.45565C0 2.26113 0.652954 2.91406 1.45842 2.91406C2.26388 2.91406 2.91683 2.26113 2.91683 1.45565Z" fill="#333333"/>
</svg>
