<svg width="18" height="18" viewBox="0 0 18 18" fill="none" xmlns="http://www.w3.org/2000/svg">
<path d="M13.8048 4.80469C11.4915 4.80469 9.6096 6.68659 9.6096 8.99987C9.6096 10.4441 10.3433 11.7201 11.4574 12.4751H6.54256C7.65669 11.7201 8.39036 10.4441 8.39036 8.99987C8.39036 6.68659 6.50845 4.80469 4.19518 4.80469C1.88191 4.80469 0 6.68659 0 8.99987C0 11.3131 1.88191 13.195 4.19518 13.195H13.8048C16.1181 13.195 18 11.3131 18 8.99987C18 6.68659 16.1181 4.80469 13.8048 4.80469ZM0.719988 8.99987C0.719988 7.08352 2.27883 5.52468 4.19518 5.52468C6.11153 5.52468 7.67037 7.08352 7.67037 8.99987C7.67037 10.9162 6.11153 12.4751 4.19518 12.4751C2.27883 12.4751 0.719988 10.9162 0.719988 8.99987ZM13.8048 12.4751C11.8884 12.4751 10.3296 10.9162 10.3296 8.99987C10.3296 7.08352 11.8884 5.52468 13.8048 5.52468C15.7212 5.52468 17.28 7.08352 17.28 8.99987C17.28 10.9162 15.7212 12.4751 13.8048 12.4751Z" fill="#333333"/>
</svg>
