<svg width="11" height="12" viewBox="0 0 11 12" fill="none" xmlns="http://www.w3.org/2000/svg">
<path d="M3.69727 5.83755C4.11531 6.70084 4.81338 7.39711 5.67773 7.81294C5.74149 7.84313 5.81201 7.85619 5.88236 7.85085C5.9527 7.84551 6.02044 7.82194 6.07891 7.78247L7.34844 6.93442C7.40453 6.89638 7.46934 6.87317 7.53683 6.86695C7.60432 6.86074 7.67228 6.87172 7.73438 6.89888L10.1109 7.91958C10.1922 7.95338 10.26 8.01295 10.3041 8.08911C10.3481 8.16527 10.3659 8.2538 10.3547 8.34106C10.2794 8.92898 9.9924 9.4693 9.54749 9.86093C9.10258 10.2526 8.53022 10.4687 7.9375 10.4688C6.10585 10.4688 4.34922 9.74118 3.05404 8.446C1.75887 7.15083 1.03125 5.3942 1.03125 3.56255C1.03138 2.96983 1.24748 2.39746 1.63911 1.95256C2.03075 1.50765 2.57107 1.22068 3.15898 1.14536C3.24625 1.13415 3.33477 1.15194 3.41093 1.19598C3.48709 1.24003 3.54666 1.30789 3.58047 1.38911L4.60117 3.77075C4.62772 3.83186 4.63882 3.89857 4.63351 3.96499C4.62819 4.0314 4.60662 4.09549 4.5707 4.15161L3.72266 5.44145C3.6849 5.49979 3.66274 5.56684 3.6583 5.63619C3.65385 5.70554 3.66727 5.77487 3.69727 5.83755V5.83755Z" stroke="#364887" stroke-width="1.2" stroke-linecap="round" stroke-linejoin="round"/>
</svg>
