<svg width="26" height="26" viewBox="0 0 26 26" fill="none" xmlns="http://www.w3.org/2000/svg">
<g filter="url(#filter0_d_388_23317)">
<path d="M3 5C3 2.23858 5.23858 0 8 0H18C20.7614 0 23 2.23858 23 5V20H8C5.23858 20 3 17.7614 3 15V5Z" fill="url(#paint0_linear_388_23317)"/>
<path d="M13.0562 13.912C12.1672 13.912 11.3145 13.5505 10.6859 12.907C10.0573 12.2635 9.7041 11.3908 9.7041 10.4808C9.7041 10.3898 9.73942 10.3025 9.80228 10.2382C9.86515 10.1738 9.95041 10.1377 10.0393 10.1377C10.1282 10.1377 10.2135 10.1738 10.2763 10.2382C10.3392 10.3025 10.3745 10.3898 10.3745 10.4808C10.3745 11.2088 10.657 11.907 11.16 12.4218C11.6629 12.9366 12.345 13.2257 13.0562 13.2257C13.7674 13.2257 14.4495 12.9366 14.9524 12.4218C15.4553 11.907 15.7378 11.2088 15.7378 10.4808C15.7378 10.3898 15.7732 10.3025 15.836 10.2382C15.8989 10.1738 15.9841 10.1377 16.073 10.1377C16.162 10.1377 16.2472 10.1738 16.3101 10.2382C16.3729 10.3025 16.4083 10.3898 16.4083 10.4808C16.4083 11.3908 16.0551 12.2635 15.4265 12.907C14.7978 13.5505 13.9452 13.912 13.0562 13.912Z" fill="white"/>
<path d="M13.0562 15.2838C12.9673 15.2838 12.882 15.2477 12.8191 15.1833C12.7563 15.119 12.7209 15.0317 12.7209 14.9407V13.5682C12.7209 13.4772 12.7563 13.3899 12.8191 13.3256C12.882 13.2612 12.9673 13.2251 13.0562 13.2251C13.1451 13.2251 13.2303 13.2612 13.2932 13.3256C13.356 13.3899 13.3914 13.4772 13.3914 13.5682V14.9407C13.3914 15.0317 13.356 15.119 13.2932 15.1833C13.2303 15.2477 13.1451 15.2838 13.0562 15.2838Z" fill="white"/>
<path d="M13.0562 12.5393C12.5228 12.5393 12.0112 12.3224 11.634 11.9363C11.2568 11.5502 11.0449 11.0266 11.0449 10.4806V7.04943C11.0449 6.50342 11.2568 5.97978 11.634 5.5937C12.0112 5.20762 12.5228 4.99072 13.0562 4.99072C13.5896 4.99072 14.1012 5.20762 14.4783 5.5937C14.8555 5.97978 15.0674 6.50342 15.0674 7.04943V10.4806C15.0674 11.0266 14.8555 11.5502 14.4783 11.9363C14.1012 12.3224 13.5896 12.5393 13.0562 12.5393ZM13.0562 5.67696C12.7006 5.67696 12.3595 5.82156 12.1081 6.07894C11.8566 6.33633 11.7153 6.68542 11.7153 7.04943V10.4806C11.7153 10.8446 11.8566 11.1937 12.1081 11.4511C12.3595 11.7085 12.7006 11.8531 13.0562 11.8531C13.4118 11.8531 13.7528 11.7085 14.0043 11.4511C14.2557 11.1937 14.397 10.8446 14.397 10.4806V7.04943C14.397 6.68542 14.2557 6.33633 14.0043 6.07894C13.7528 5.82156 13.4118 5.67696 13.0562 5.67696Z" fill="white"/>
</g>
<defs>
<filter id="filter0_d_388_23317" x="0" y="0" width="26" height="26" filterUnits="userSpaceOnUse" color-interpolation-filters="sRGB">
<feFlood flood-opacity="0" result="BackgroundImageFix"/>
<feColorMatrix in="SourceAlpha" type="matrix" values="0 0 0 0 0 0 0 0 0 0 0 0 0 0 0 0 0 0 127 0" result="hardAlpha"/>
<feOffset dy="3"/>
<feGaussianBlur stdDeviation="1.5"/>
<feComposite in2="hardAlpha" operator="out"/>
<feColorMatrix type="matrix" values="0 0 0 0 0.252083 0 0 0 0 0.304792 0 0 0 0 0.366667 0 0 0 0.1 0"/>
<feBlend mode="normal" in2="BackgroundImageFix" result="effect1_dropShadow_388_23317"/>
<feBlend mode="normal" in="SourceGraphic" in2="effect1_dropShadow_388_23317" result="shape"/>
</filter>
<linearGradient id="paint0_linear_388_23317" x1="23.2359" y1="22.2441" x2="4.823" y2="3.64593" gradientUnits="userSpaceOnUse">
<stop stop-color="#24E866"/>
<stop offset="1" stop-color="#0075FF"/>
</linearGradient>
</defs>
</svg>
