<svg width="18" height="18" viewBox="0 0 18 18" fill="none" xmlns="http://www.w3.org/2000/svg">
<path d="M15.3914 5.42188C15.862 5.89147 16.2355 6.4493 16.4903 7.06343C16.7451 7.67755 16.8762 8.3359 16.8762 9.00078C16.8762 9.66566 16.7451 10.324 16.4903 10.9381C16.2355 11.5523 15.862 12.1101 15.3914 12.5797" stroke="#333333" stroke-width="1.2" stroke-linecap="round" stroke-linejoin="round"/>
<path d="M5.625 11.8125H2.25C2.10082 11.8125 1.95774 11.7532 1.85225 11.6477C1.74676 11.5423 1.6875 11.3992 1.6875 11.25V6.75C1.6875 6.60082 1.74676 6.45774 1.85225 6.35225C1.95774 6.24676 2.10082 6.1875 2.25 6.1875H5.625L10.6875 2.25V15.75L5.625 11.8125Z" stroke="#333333" stroke-width="1.2" stroke-linecap="round" stroke-linejoin="round"/>
<path d="M5.625 6.1875V11.8125" stroke="#333333" stroke-width="1.2" stroke-linecap="round" stroke-linejoin="round"/>
<path d="M13.4016 7.41406C13.6108 7.62245 13.7768 7.8701 13.8901 8.14279C14.0033 8.41548 14.0616 8.70785 14.0616 9.00312C14.0616 9.2984 14.0033 9.59077 13.8901 9.86346C13.7768 10.1362 13.6108 10.3838 13.4016 10.5922" stroke="#333333" stroke-width="1.2" stroke-linecap="round" stroke-linejoin="round"/>
</svg>
