<svg width="23" height="23" viewBox="0 0 23 23" fill="none" xmlns="http://www.w3.org/2000/svg">
<path d="M16.7085 7.1875C15.8174 7.18917 14.9487 7.46684 14.2218 7.98235C13.495 8.49785 12.9456 9.22587 12.6494 10.0663C12.3531 10.9067 12.3245 11.8183 12.5674 12.6757C12.8104 13.533 13.3129 14.2941 14.006 14.8542H8.99394C9.78395 14.2151 10.3226 13.3173 10.5146 12.3195C10.7066 11.3217 10.5396 10.2881 10.0431 9.40156C9.54666 8.51498 8.75272 7.83249 7.80166 7.47475C6.85061 7.117 5.80369 7.10706 4.846 7.44666C3.88832 7.78627 3.08155 8.45355 2.56834 9.33054C2.05513 10.2075 1.86853 11.2377 2.04153 12.239C2.21453 13.2403 2.73599 14.1482 3.51371 14.8021C4.29143 15.456 5.27533 15.8139 6.29144 15.8125H16.7085C17.8523 15.8125 18.9492 15.3581 19.7579 14.5494C20.5667 13.7406 21.021 12.6437 21.021 11.5C21.021 10.3563 20.5667 9.25935 19.7579 8.4506C18.9492 7.64185 17.8523 7.1875 16.7085 7.1875ZM2.93728 11.5C2.93737 10.8391 3.13273 10.1929 3.49881 9.64264C3.86489 9.09236 4.38538 8.66251 4.99493 8.40703C5.60448 8.15156 6.27592 8.08187 6.92495 8.2067C7.57398 8.33152 8.17166 8.64531 8.64296 9.10867C9.11425 9.57202 9.43816 10.1643 9.574 10.8111C9.70984 11.4579 9.65157 12.1304 9.40649 12.7442C9.16142 13.358 8.74047 13.8858 8.19649 14.2611C7.65252 14.6365 7.00977 14.8428 6.34894 14.8542H6.29144C5.40186 14.8542 4.54872 14.5008 3.91969 13.8718C3.29066 13.2427 2.93728 12.3896 2.93728 11.5ZM16.7085 14.8542H16.651C15.7563 14.8466 14.9011 14.4848 14.2725 13.8482C13.6439 13.2115 13.2931 12.3517 13.2969 11.457C13.3007 10.5623 13.6588 9.70552 14.2928 9.07421C14.9268 8.4429 15.7851 8.08846 16.6798 8.08846C17.5745 8.08846 18.4328 8.4429 19.0668 9.07421C19.7008 9.70552 20.0589 10.5623 20.0627 11.457C20.0665 12.3517 19.7157 13.2115 19.0871 13.8482C18.4584 14.4848 17.6032 14.8466 16.7085 14.8542Z" fill="url(#paint0_linear_162_16383)"/>
<defs>
<linearGradient id="paint0_linear_162_16383" x1="11.4998" y1="7.1875" x2="11.4998" y2="15.8125" gradientUnits="userSpaceOnUse">
<stop stop-color="#0033EA"/>
<stop offset="1" stop-color="#8A0074"/>
</linearGradient>
</defs>
</svg>
