<svg width="27" height="27" viewBox="0 0 27 27" fill="none" xmlns="http://www.w3.org/2000/svg">
<g clip-path="url(#clip0_530_250521)">
<path d="M13.5 3.375C14.077 3.375 14.5524 3.8093 14.6174 4.3688L14.625 4.5V22.5C14.625 23.1213 14.1213 23.625 13.5 23.625C12.923 23.625 12.4476 23.1907 12.3826 22.6312L12.375 22.5V4.5C12.375 3.87868 12.8787 3.375 13.5 3.375ZM9 6.75C9.62132 6.75 10.125 7.25368 10.125 7.875V19.125C10.125 19.7463 9.62132 20.25 9 20.25C8.37868 20.25 7.875 19.7463 7.875 19.125V7.875C7.875 7.25368 8.37868 6.75 9 6.75ZM18 6.75C18.6213 6.75 19.125 7.25368 19.125 7.875V19.125C19.125 19.7463 18.6213 20.25 18 20.25C17.3787 20.25 16.875 19.7463 16.875 19.125V7.875C16.875 7.25368 17.3787 6.75 18 6.75ZM4.5 10.125C5.12132 10.125 5.625 10.6287 5.625 11.25V15.75C5.625 16.3713 5.12132 16.875 4.5 16.875C3.87868 16.875 3.375 16.3713 3.375 15.75V11.25C3.375 10.6287 3.87868 10.125 4.5 10.125ZM22.5 10.125C23.077 10.125 23.5524 10.5593 23.6174 11.1188L23.625 11.25V15.75C23.625 16.3713 23.1213 16.875 22.5 16.875C21.923 16.875 21.4476 16.4407 21.3826 15.8812L21.375 15.75V11.25C21.375 10.6287 21.8787 10.125 22.5 10.125Z" fill="url(#paint0_linear_530_250521)"/>
</g>
<defs>
<linearGradient id="paint0_linear_530_250521" x1="13.5" y1="3.375" x2="13.5" y2="23.625" gradientUnits="userSpaceOnUse">
<stop stop-color="#000AFF"/>
<stop offset="1" stop-color="#D274FF"/>
</linearGradient>
<clipPath id="clip0_530_250521">
<rect width="27" height="27" fill="white"/>
</clipPath>
</defs>
</svg>
