<svg width="19" height="19" viewBox="0 0 19 19" fill="none" xmlns="http://www.w3.org/2000/svg">
<g id="call-chat-svgrepo-com 1">
<path id="Vector" fill-rule="evenodd" clip-rule="evenodd" d="M13.25 2.86621C11.4896 2.86621 10.0625 4.2933 10.0625 6.05371C10.0625 6.56463 10.1823 7.04595 10.3948 7.47261C10.5141 7.71204 10.5635 8.00539 10.4848 8.29933L10.295 9.00871L11.0044 8.81889C11.2983 8.74029 11.5917 8.78964 11.8311 8.90889C12.2578 9.12144 12.7391 9.24121 13.25 9.24121C15.0104 9.24121 16.4375 7.81412 16.4375 6.05371C16.4375 4.2933 15.0104 2.86621 13.25 2.86621ZM8.9375 6.05371C8.9375 3.67198 10.8683 1.74121 13.25 1.74121C15.6318 1.74121 17.5625 3.67198 17.5625 6.05371C17.5625 8.43541 15.6318 10.3662 13.25 10.3662C12.5612 10.3662 11.9085 10.2043 11.3295 9.91591C11.3166 9.90946 11.3061 9.90691 11.2998 9.90616C11.2969 9.90579 11.2952 9.90586 11.2944 9.90586L10.4604 10.1291C9.67992 10.3379 8.96585 9.62379 9.17472 8.84334L9.39785 8.00929C9.39792 8.00858 9.39792 8.00682 9.39755 8.00386C9.3968 7.99756 9.39425 7.98714 9.3878 7.97417C9.09942 7.39521 8.9375 6.74256 8.9375 6.05371ZM3.28827 3.87281C4.20791 2.9046 5.72907 3.086 6.48926 4.16118L7.43501 5.4988C8.04305 6.3588 7.99169 7.55442 7.26601 8.31841L7.08237 8.51176C7.08186 8.51311 7.08132 8.51454 7.08077 8.51611C7.07106 8.54341 7.04652 8.63026 7.07067 8.79504C7.12073 9.13666 7.38447 9.83094 8.45525 10.9583C9.52932 12.0891 10.1808 12.3556 10.4827 12.4046C10.613 12.4258 10.6811 12.4074 10.7028 12.3998L11.0093 12.0771C11.6646 11.3872 12.6864 11.2512 13.5102 11.7254L14.9431 12.5502C16.1678 13.2551 16.4529 14.9795 15.4741 16.0099L14.4087 17.1316C14.0762 17.4817 13.6227 17.7805 13.0625 17.8358C11.6946 17.9708 8.52575 17.795 5.2037 14.2975C2.10383 11.0339 1.51494 8.19523 1.4405 6.80831C1.40372 6.12306 1.70918 5.53529 2.11106 5.11218L3.28827 3.87281ZM5.57067 4.81066C5.18641 4.26717 4.49609 4.23474 4.10396 4.64758L2.92676 5.88695C2.67821 6.14862 2.54781 6.44854 2.56388 6.74802C2.62466 7.88037 3.1123 10.4621 6.01939 13.5227C9.06755 16.7318 11.8757 16.8225 12.9519 16.7162C13.1648 16.6952 13.3837 16.5772 13.593 16.3568L14.6584 15.2351C15.118 14.7513 14.9976 13.8796 14.3819 13.5252L12.949 12.7004C12.5645 12.4791 12.114 12.5475 11.825 12.8519L11.4834 13.2115L11.0756 12.8241C11.4834 13.2115 11.4829 13.212 11.4824 13.2126L11.4813 13.2137L11.4791 13.216L11.4743 13.2209L11.4636 13.2314C11.4558 13.2389 11.4469 13.2472 11.4369 13.256C11.4167 13.2737 11.3917 13.2938 11.3618 13.3151C11.3016 13.3577 11.2216 13.4046 11.1204 13.4445C10.9134 13.5261 10.6401 13.5699 10.3024 13.5151C9.64422 13.4082 8.78165 12.9355 7.63952 11.733C6.49401 10.527 6.05559 9.62724 5.95756 8.95816C5.90766 8.61759 5.94759 8.34489 6.02087 8.13896C6.0569 8.03769 6.09945 7.95694 6.13869 7.89562C6.15826 7.86505 6.17691 7.83945 6.1934 7.81861C6.20164 7.80819 6.20934 7.79897 6.21636 7.7909L6.22635 7.77966L6.23093 7.77468L6.23311 7.77235L6.23417 7.77123C6.23469 7.77068 6.23521 7.77013 6.64305 8.15751L6.23521 7.77013L6.45032 7.54366C6.78447 7.19186 6.83302 6.59607 6.51641 6.14827L5.57067 4.81066Z" fill="#157EFB"/>
</g>
</svg>
