<svg width="19" height="19" viewBox="0 0 19 19" fill="none" xmlns="http://www.w3.org/2000/svg">
<g clip-path="url(#clip0_64_40035)">
<path d="M16.0549 16.3063C16.0549 16.7062 15.741 17.0316 15.3555 17.0316H2.71551C2.32996 17.0316 2.01611 16.7062 2.01611 16.3063V7.60228C2.01611 7.20244 2.32996 6.87695 2.71551 6.87695H15.3555C15.741 6.87695 16.0549 7.20244 16.0549 7.60228V8.02829C16.0549 8.58057 15.6071 9.02829 15.0549 9.02829H13.2066C12.0496 9.02829 11.1084 10.7544 11.1084 11.9543C11.1084 13.1542 12.0496 14.8803 13.2066 14.8803H15.0549C15.6072 14.8803 16.0549 15.328 16.0549 15.8803V16.3063Z" fill="#C4CFF2"/>
<path d="M17.6816 9.57549V7.04563C17.6816 6.18778 17.0162 5.49012 16.1755 5.42247L13.826 1.31884C13.6083 0.939316 13.2568 0.668054 12.8361 0.555416C12.4174 0.443544 11.9796 0.502299 11.6048 0.720404L3.55087 5.40928H2.13635C1.2339 5.40928 0.5 6.14313 0.5 7.04563V16.8636C0.5 17.7661 1.23386 18.5 2.13635 18.5H16.0452C16.9477 18.5 17.6816 17.7661 17.6816 16.8636V14.3338C18.1567 14.1643 18.4997 13.7145 18.4997 13.1819V10.7274C18.4997 10.1948 18.1567 9.74493 17.6816 9.57549ZM15.2248 5.40928H11.6592L14.3334 3.85235L15.2248 5.40928ZM13.9269 3.14235L10.0331 5.40928H8.41801L13.5231 2.43702L13.9269 3.14235ZM12.0167 1.42749C12.2017 1.31923 12.4178 1.29046 12.6243 1.34561C12.8333 1.40153 13.0075 1.53657 13.1157 1.72552L13.1166 1.72702L6.79201 5.40928H5.17698L12.0167 1.42749ZM16.8634 16.8636C16.8634 17.3147 16.4962 17.6818 16.0452 17.6818H2.13635C1.68533 17.6818 1.31819 17.3147 1.31819 16.8636V7.04563C1.31819 6.59461 1.68533 6.22747 2.13635 6.22747H16.0452C16.4962 6.22747 16.8634 6.59461 16.8634 7.04563V9.50013H14.4089C13.0554 9.50013 11.9544 10.6011 11.9544 11.9546C11.9544 13.3081 13.0554 14.4091 14.4089 14.4091H16.8634V16.8636ZM17.6816 13.1819C17.6816 13.4076 17.4982 13.591 17.2725 13.591H14.4089C13.5064 13.591 12.7725 12.8571 12.7725 11.9546C12.7725 11.0522 13.5064 10.3183 14.4089 10.3183H17.2725C17.4982 10.3183 17.6816 10.5016 17.6816 10.7274V13.1819Z" fill="#2D50C8"/>
<path d="M14.4095 11.1367C13.9584 11.1367 13.5913 11.5039 13.5913 11.9549C13.5913 12.4059 13.9584 12.773 14.4095 12.773C14.8605 12.773 15.2276 12.4059 15.2276 11.9549C15.2277 11.5039 14.8605 11.1367 14.4095 11.1367Z" fill="#2D50C8"/>
</g>
<defs>
<clipPath id="clip0_64_40035">
<rect width="18" height="18" fill="white" transform="translate(0.5 0.5)"/>
</clipPath>
</defs>
</svg>
