<svg xmlns="http://www.w3.org/2000/svg" width="26" height="26" viewBox="0 0 26 26" fill="none">
<g clip-path="url(#clip0_42_2788)">
<path d="M24.8178 13.109V9.45479C24.8178 8.21568 23.8567 7.20795 22.6423 7.11023L19.2487 1.18277C18.9342 0.634567 18.4264 0.242745 17.8188 0.0800448C17.214 -0.0815477 16.5816 0.00332021 16.0403 0.318362L4.40682 7.09118H2.36362C1.06007 7.09118 0 8.1512 0 9.45479V23.6364C0 24.9399 1.06002 26 2.36362 26H22.4542C23.7578 26 24.8178 24.94 24.8178 23.6364V19.9821C25.5041 19.7374 25.9996 19.0876 25.9996 18.3183V14.7729C25.9996 14.0035 25.5041 13.3538 24.8178 13.109ZM21.2691 7.09118H16.1188L19.9816 4.84229L21.2691 7.09118ZM19.3944 3.81673L13.77 7.09118H11.4371L18.8111 2.79792L19.3944 3.81673ZM16.6352 1.33971C16.9024 1.18333 17.2146 1.14178 17.5129 1.22144C17.8147 1.30221 18.0663 1.49726 18.2227 1.7702L18.2239 1.77236L9.08846 7.09118H6.75564L16.6352 1.33971ZM23.636 23.6364C23.636 24.2878 23.1057 24.8182 22.4542 24.8182H2.36362C1.71215 24.8182 1.18184 24.2878 1.18184 23.6364V9.45479C1.18184 8.80333 1.71215 8.27301 2.36362 8.27301H22.4542C23.1057 8.27301 23.636 8.80333 23.636 9.45479V13.0002H20.0906C18.1355 13.0002 16.5452 14.5905 16.5452 16.5456C16.5452 18.5007 18.1355 20.091 20.0906 20.091H23.636V23.6364ZM24.8178 18.3183C24.8178 18.6443 24.553 18.9092 24.2269 18.9092H20.0906C18.7871 18.9092 17.727 17.8492 17.727 16.5456C17.727 15.242 18.787 14.182 20.0906 14.182H24.2269C24.5529 14.182 24.8178 14.4468 24.8178 14.7729V18.3183Z" fill="url(#paint0_linear_42_2788)"/>
<path d="M20.0907 15.3638C19.4392 15.3638 18.9089 15.8941 18.9089 16.5456C18.9089 17.1971 19.4392 17.7274 20.0907 17.7274C20.7422 17.7274 21.2725 17.1971 21.2725 16.5456C21.2726 15.8941 20.7422 15.3638 20.0907 15.3638Z" fill="url(#paint1_linear_42_2788)"/>
</g>
<defs>
<linearGradient id="paint0_linear_42_2788" x1="12.9998" y1="0" x2="12.9998" y2="26" gradientUnits="userSpaceOnUse">
<stop stop-color="#000AFF"/>
<stop offset="1" stop-color="#D274FF"/>
</linearGradient>
<linearGradient id="paint1_linear_42_2788" x1="20.0907" y1="15.3638" x2="20.0907" y2="17.7274" gradientUnits="userSpaceOnUse">
<stop stop-color="#000AFF"/>
<stop offset="1" stop-color="#D274FF"/>
</linearGradient>
<clipPath id="clip0_42_2788">
<rect width="26" height="26" fill="white"/>
</clipPath>
</defs>
</svg>