<svg width="16" height="16" viewBox="0 0 16 16" fill="none" xmlns="http://www.w3.org/2000/svg">
<path d="M0.50301 15.5L1.51701 11.774C0.848863 10.6286 0.497832 9.32599 0.50001 8C0.50001 3.85775 3.85776 0.5 8.00001 0.5C12.1423 0.5 15.5 3.85775 15.5 8C15.5 12.1423 12.1423 15.5 8.00001 15.5C6.67459 15.5021 5.3725 15.1514 4.22751 14.4838L0.50301 15.5ZM5.29326 4.481C5.19641 4.48701 5.10177 4.51252 5.01501 4.556C4.93365 4.60207 4.85938 4.65967 4.79451 4.727C4.70451 4.81175 4.65351 4.88525 4.59876 4.9565C4.32157 5.31725 4.17247 5.76006 4.17501 6.215C4.17651 6.5825 4.27251 6.94025 4.42251 7.27475C4.72926 7.95125 5.23401 8.6675 5.90076 9.33125C6.06126 9.491 6.21801 9.6515 6.38676 9.80075C7.2143 10.5293 8.20045 11.0548 9.26676 11.3353L9.69351 11.4005C9.83226 11.408 9.97101 11.3975 10.1105 11.3907C10.3289 11.3795 10.5422 11.3203 10.7353 11.2175C10.8598 11.1515 10.9183 11.1185 11.0225 11.0525C11.0225 11.0525 11.0548 11.0315 11.1163 10.985C11.2175 10.91 11.2798 10.8568 11.3638 10.769C11.426 10.7045 11.48 10.6287 11.5213 10.5425C11.5798 10.4202 11.6383 10.187 11.6623 9.99275C11.6803 9.84425 11.675 9.76325 11.6728 9.713C11.6698 9.63275 11.603 9.5495 11.5303 9.51425L11.0938 9.3185C11.0938 9.3185 10.4413 9.03425 10.043 8.85275C10.001 8.83445 9.95602 8.82402 9.91026 8.822C9.85894 8.81673 9.8071 8.8225 9.7582 8.83893C9.7093 8.85536 9.66448 8.88206 9.62676 8.91725V8.91575C9.62301 8.91575 9.57276 8.9585 9.03051 9.6155C8.99939 9.65732 8.95652 9.68893 8.90736 9.70629C8.85821 9.72366 8.805 9.72599 8.75451 9.713C8.70564 9.69993 8.65777 9.68339 8.61126 9.6635C8.51826 9.6245 8.48601 9.6095 8.42226 9.58175L8.41851 9.58025C7.98944 9.39292 7.59218 9.13988 7.24101 8.83025C7.14651 8.74775 7.05876 8.65775 6.96876 8.57075C6.67369 8.28818 6.41655 7.96851 6.20376 7.61975L6.15951 7.5485C6.12773 7.50062 6.10203 7.44898 6.08301 7.39475C6.05451 7.2845 6.12876 7.196 6.12876 7.196C6.12876 7.196 6.31101 6.9965 6.39576 6.8885C6.46633 6.79874 6.53217 6.70536 6.59301 6.60875C6.68151 6.46625 6.70926 6.32 6.66276 6.20675C6.45276 5.69375 6.23526 5.183 6.01176 4.676C5.96751 4.5755 5.83626 4.5035 5.71701 4.48925C5.67651 4.48475 5.63601 4.48025 5.59551 4.47725C5.49479 4.47225 5.39386 4.474 5.29326 4.481Z" fill="#8190B7"/>
</svg>
