<svg width="13" height="13" viewBox="0 0 13 13" fill="none" xmlns="http://www.w3.org/2000/svg">
<path d="M13 6.33277C13 9.83001 10.1429 12.6651 6.61763 12.6651C5.49894 12.6651 4.44807 12.379 3.53328 11.8779L0 13L1.15176 9.60153C0.571005 8.64773 0.236541 7.52777 0.236541 6.33234C0.236965 2.8351 3.09326 0 6.61848 0C10.1433 0.000847817 13 2.83552 13 6.33277ZM6.61721 1.00975C3.65875 1.00975 1.25223 3.39805 1.25223 6.33404C1.25223 7.49894 1.63205 8.57736 2.27427 9.45485L1.60449 11.4315L3.66554 10.7766C4.51335 11.3328 5.52777 11.6566 6.61721 11.6566C9.57567 11.6566 11.983 9.26876 11.983 6.33277C11.9839 3.39805 9.57609 1.00975 6.61721 1.00975ZM9.84061 7.79144C9.80076 7.72743 9.69648 7.68843 9.54048 7.61043C9.38491 7.53243 8.61467 7.15727 8.47181 7.1064C8.32768 7.05426 8.2234 7.02798 8.11912 7.18355C8.01611 7.33913 7.71598 7.68843 7.62399 7.79271C7.53285 7.89657 7.44171 7.90971 7.28529 7.83298C7.12887 7.75413 6.62442 7.59135 6.02671 7.06274C5.56168 6.6507 5.24756 6.14328 5.15685 5.98771C5.06486 5.83256 5.14752 5.74862 5.2251 5.67147C5.29504 5.60153 5.38152 5.49004 5.45994 5.3989C5.53836 5.30861 5.56422 5.2446 5.61636 5.14074C5.66766 5.03688 5.6418 4.94659 5.60322 4.86816C5.56422 4.79017 5.2518 4.02713 5.12081 3.71641C4.99067 3.4061 4.86053 3.4574 4.76897 3.4574C4.67783 3.4574 4.57355 3.44468 4.46927 3.44468C4.36499 3.44468 4.19542 3.48241 4.05257 3.63798C3.90971 3.79356 3.5053 4.16872 3.5053 4.9326C3.5053 5.69733 4.06528 6.43451 4.1437 6.53794C4.22255 6.64095 5.22637 8.25986 6.81645 8.88131C8.40738 9.50233 8.40738 9.29504 8.69394 9.26876C8.98135 9.24248 9.61975 8.8936 9.74947 8.53158C9.88003 8.16787 9.88003 7.85629 9.84061 7.79144Z" fill="#555555"/>
</svg>
