<svg width="19" height="19" viewBox="0 0 19 19" fill="none" xmlns="http://www.w3.org/2000/svg">
<path d="M9.5 7.71875V10.6875" stroke="#D21E1E" stroke-width="1.5" stroke-linecap="round" stroke-linejoin="round"/>
<path d="M8.4755 2.96894L1.94426 14.2502C1.84021 14.4304 1.78534 14.6348 1.78516 14.8429C1.78497 15.051 1.83948 15.2555 1.94321 15.4359C2.04693 15.6163 2.19625 15.7663 2.37619 15.8708C2.55613 15.9753 2.76038 16.0307 2.96847 16.0314H16.031C16.2391 16.0307 16.4433 15.9753 16.6233 15.8708C16.8032 15.7663 16.9525 15.6163 17.0562 15.4359C17.16 15.2555 17.2145 15.051 17.2143 14.8429C17.2141 14.6348 17.1592 14.4304 17.0552 14.2502L10.5239 2.96894C10.4207 2.78849 10.2716 2.63852 10.0917 2.53423C9.91185 2.42993 9.70763 2.375 9.49972 2.375C9.29181 2.375 9.0876 2.42993 8.90774 2.53423C8.72788 2.63852 8.57877 2.78849 8.4755 2.96894V2.96894Z" stroke="#D21E1E" stroke-width="1.5" stroke-linecap="round" stroke-linejoin="round"/>
<path d="M9.5 14.1016C9.9099 14.1016 10.2422 13.7693 10.2422 13.3594C10.2422 12.9495 9.9099 12.6172 9.5 12.6172C9.0901 12.6172 8.75781 12.9495 8.75781 13.3594C8.75781 13.7693 9.0901 14.1016 9.5 14.1016Z" fill="#D21E1E"/>
</svg>
