<svg width="30" height="26" viewBox="0 0 30 26" fill="none" xmlns="http://www.w3.org/2000/svg">
<rect x="9" width="21" height="21" rx="10.5" fill="#C8EEDC"/>
<g clip-path="url(#clip0_416_479484)">
<path d="M10.5 5.5332C4.9957 5.5332 0.533203 9.9957 0.533203 15.5C0.533203 17.5139 1.13203 19.3924 2.16152 20.9592L0.877734 25.3068L5.39355 24.0559C6.88652 24.95 8.63379 25.4627 10.5 25.4627C16.0043 25.4627 20.4668 21.0002 20.4668 15.4959C20.4668 9.9957 16.0043 5.5332 10.5 5.5332Z" fill="#10B34C"/>
<path d="M15.976 18.2358C15.9637 18.1045 15.8858 17.9897 15.7669 17.9363C14.9629 17.5672 14.1549 17.1981 13.351 16.8289C13.2608 16.7879 13.1501 16.8084 13.0844 16.8863L11.9934 18.1168C11.9073 18.2152 11.7719 18.2481 11.653 18.1988C11.087 17.9651 10.3241 17.5713 9.55299 16.9068C8.63014 16.1152 8.08873 15.2662 7.78522 14.7125C7.93697 14.61 8.35123 14.3024 8.5358 13.7322C8.5358 13.7281 8.5399 13.724 8.5399 13.724C8.65475 13.3713 8.63014 12.9899 8.50299 12.6412C8.28561 12.0629 7.85084 10.9432 7.68268 10.7709C7.65397 10.7422 7.62115 10.7135 7.62115 10.7135C7.49811 10.6027 7.33814 10.5412 7.16998 10.533C7.11256 10.5289 7.05104 10.5289 6.98541 10.5289C6.79674 10.5248 6.62857 10.5248 6.50553 10.5412C6.1569 10.5904 5.9026 10.8242 5.74264 11.0211C5.54986 11.2549 5.32018 11.6035 5.16842 12.0629C5.15611 12.1039 5.14381 12.1408 5.1315 12.1819C4.96334 12.7643 4.99615 13.3877 5.19713 13.9619C5.3858 14.4992 5.66061 15.1391 6.07486 15.8158C6.77623 16.9684 7.53912 17.682 8.05592 18.1537C8.63834 18.691 9.36022 19.3514 10.5046 19.901C11.5628 20.4096 12.5225 20.5983 13.1665 20.6762C13.429 20.7008 13.913 20.7049 14.4667 20.4957C14.721 20.3973 14.9342 20.2783 15.1065 20.1512C15.5618 19.8272 15.8817 19.3391 15.9637 18.7895C15.9637 18.7854 15.9637 18.7813 15.9637 18.7772C15.9924 18.568 15.9883 18.3875 15.976 18.2358Z" fill="white"/>
</g>
<defs>
<clipPath id="clip0_416_479484">
<rect width="21" height="21" fill="white" transform="translate(0 5)"/>
</clipPath>
</defs>
</svg>
