<svg width="17" height="17" viewBox="0 0 17 17" fill="none" xmlns="http://www.w3.org/2000/svg">
<g clip-path="url(#clip0_163_15091)">
<path d="M1.41959 15.5833L2.37726 12.0643C1.74623 10.9826 1.4147 9.75229 1.41676 8.49996C1.41676 4.58783 4.58797 1.41663 8.50009 1.41663C12.4122 1.41663 15.5834 4.58783 15.5834 8.49996C15.5834 12.4121 12.4122 15.5833 8.50009 15.5833C7.24831 15.5853 6.01856 15.254 4.93717 14.6235L1.41959 15.5833ZM5.94372 5.17646C5.85224 5.18214 5.76286 5.20623 5.68092 5.24729C5.60409 5.29081 5.53394 5.3452 5.47267 5.40879C5.38767 5.48883 5.33951 5.55825 5.2878 5.62554C5.02601 5.96625 4.88519 6.38446 4.88759 6.81413C4.88901 7.16121 4.97967 7.49908 5.12134 7.815C5.41105 8.45392 5.88776 9.13038 6.51747 9.75725C6.66905 9.90813 6.81709 10.0597 6.97647 10.2007C7.75803 10.8888 8.6894 11.385 9.69647 11.6499L10.0995 11.7115C10.2305 11.7186 10.3616 11.7087 10.4933 11.7023C10.6996 11.6917 10.9011 11.6358 11.0834 11.5387C11.201 11.4764 11.2562 11.4452 11.3547 11.3829C11.3547 11.3829 11.3851 11.363 11.4432 11.3191C11.5388 11.2483 11.5976 11.198 11.677 11.1151C11.7358 11.0542 11.7868 10.9827 11.8257 10.9012C11.881 10.7858 11.9362 10.5655 11.9589 10.382C11.9759 10.2418 11.9709 10.1653 11.9688 10.1178C11.966 10.042 11.9029 9.96338 11.8342 9.93009L11.422 9.74521C11.422 9.74521 10.8057 9.47675 10.4296 9.30534C10.3899 9.28805 10.3474 9.2782 10.3042 9.27629C10.2558 9.27132 10.2068 9.27677 10.1606 9.29228C10.1144 9.3078 10.0721 9.33302 10.0365 9.36625V9.36483C10.0329 9.36483 9.98547 9.40521 9.47334 10.0257C9.44395 10.0652 9.40346 10.0951 9.35703 10.1115C9.31061 10.1279 9.26036 10.1301 9.21267 10.1178C9.16652 10.1055 9.12131 10.0898 9.07738 10.071C8.98955 10.0342 8.95909 10.02 8.89888 9.99383L8.89534 9.99242C8.49011 9.81549 8.11492 9.57652 7.78326 9.28408C7.69401 9.20617 7.61113 9.12117 7.52613 9.039C7.24746 8.77213 7.0046 8.47022 6.80363 8.14083L6.76184 8.07354C6.73182 8.02833 6.70755 7.97955 6.68959 7.92833C6.66267 7.82421 6.7328 7.74063 6.7328 7.74063C6.7328 7.74063 6.90492 7.55221 6.98497 7.45021C7.05161 7.36544 7.11379 7.27725 7.17126 7.186C7.25484 7.05142 7.28105 6.91329 7.23713 6.80633C7.0388 6.32183 6.83338 5.83946 6.6223 5.36063C6.58051 5.26571 6.45655 5.19771 6.34392 5.18425C6.30567 5.18 6.26742 5.17575 6.22917 5.17292C6.13405 5.16819 6.03873 5.16914 5.94372 5.17575V5.17646Z" fill="#24A803"/>
</g>
<defs>
<clipPath id="clip0_163_15091">
<rect width="17" height="17" fill="white"/>
</clipPath>
</defs>
</svg>
