<svg width="30" height="26" viewBox="0 0 30 26" fill="none" xmlns="http://www.w3.org/2000/svg">
<rect x="9" width="21" height="21" rx="10.5" fill="#C8EEDC"/>
<g clip-path="url(#clip0_1_20577)">
<path d="M10.5 5.5332C4.9957 5.5332 0.533203 9.9957 0.533203 15.5C0.533203 17.5139 1.13203 19.3924 2.16152 20.9592L0.877734 25.3068L5.39355 24.0559C6.88652 24.95 8.63379 25.4627 10.5 25.4627C16.0043 25.4627 20.4668 21.0002 20.4668 15.4959C20.4668 9.9957 16.0043 5.5332 10.5 5.5332Z" fill="#10B34C"/>
<path d="M15.976 18.236C15.9637 18.1047 15.8858 17.9899 15.7669 17.9366C14.9629 17.5674 14.1549 17.1983 13.351 16.8291C13.2608 16.7881 13.1501 16.8086 13.0844 16.8866L11.9934 18.117C11.9073 18.2155 11.7719 18.2483 11.653 18.1991C11.087 17.9653 10.3241 17.5715 9.55299 16.9071C8.63014 16.1155 8.08873 15.2664 7.78522 14.7127C7.93697 14.6102 8.35123 14.3026 8.5358 13.7325C8.5358 13.7284 8.5399 13.7243 8.5399 13.7243C8.65475 13.3715 8.63014 12.9901 8.50299 12.6414C8.28561 12.0631 7.85084 10.9434 7.68268 10.7711C7.65397 10.7424 7.62115 10.7137 7.62115 10.7137C7.49811 10.603 7.33814 10.5414 7.16998 10.5332C7.11256 10.5291 7.05104 10.5291 6.98541 10.5291C6.79674 10.525 6.62857 10.525 6.50553 10.5414C6.15689 10.5907 5.9026 10.8244 5.74264 11.0213C5.54986 11.2551 5.32018 11.6037 5.16842 12.0631C5.15611 12.1041 5.14381 12.141 5.1315 12.1821C4.96334 12.7645 4.99615 13.3879 5.19713 13.9621C5.3858 14.4994 5.66061 15.1393 6.07486 15.816C6.77623 16.9686 7.53912 17.6823 8.05592 18.1539C8.63834 18.6912 9.36022 19.3516 10.5046 19.9012C11.5628 20.4098 12.5225 20.5985 13.1665 20.6764C13.429 20.701 13.913 20.7051 14.4667 20.4959C14.721 20.3975 14.9342 20.2785 15.1065 20.1514C15.5618 19.8274 15.8817 19.3393 15.9637 18.7897C15.9637 18.7856 15.9637 18.7815 15.9637 18.7774C15.9924 18.5682 15.9883 18.3877 15.976 18.236Z" fill="white"/>
</g>
<defs>
<clipPath id="clip0_1_20577">
<rect width="21" height="21" fill="white" transform="translate(0 5)"/>
</clipPath>
</defs>
</svg>
