<svg width="12" height="12" viewBox="0 0 12 12" fill="none" xmlns="http://www.w3.org/2000/svg">
<path d="M12 5.84563C12 9.07386 9.36264 11.6909 6.10859 11.6909C5.07594 11.6909 4.10591 11.4267 3.26149 10.9642L0 12L1.06316 8.86295C0.527081 7.98252 0.218345 6.94871 0.218345 5.84524C0.218737 2.61701 2.85532 0 6.10937 0C9.36303 0.0007826 12 2.61741 12 5.84563ZM6.10819 0.932077C3.37731 0.932077 1.1559 3.13666 1.1559 5.84681C1.1559 6.9221 1.50651 7.91757 2.09932 8.72756L1.48107 10.5522L3.38357 9.94763C4.16617 10.461 5.10255 10.76 6.10819 10.76C8.83908 10.76 11.0613 8.55578 11.0613 5.84563C11.0621 3.13666 8.83947 0.932077 6.10819 0.932077ZM9.08364 7.1921C9.04686 7.13301 8.9506 7.09701 8.8066 7.02501C8.66299 6.95301 7.952 6.60671 7.82013 6.55975C7.68709 6.51162 7.59083 6.48736 7.49457 6.63097C7.39948 6.77458 7.12244 7.09701 7.03753 7.19327C6.9534 7.28914 6.86927 7.30127 6.72488 7.23044C6.58049 7.15766 6.11485 7.0074 5.56311 6.51945C5.13386 6.13911 4.8439 5.67072 4.76017 5.52711C4.67525 5.3839 4.75156 5.30642 4.82316 5.2352C4.88773 5.17064 4.96755 5.06773 5.03995 4.9836C5.11234 4.90025 5.1362 4.84116 5.18433 4.7453C5.23168 4.64943 5.20781 4.56608 5.1722 4.49369C5.13621 4.42169 4.84782 3.71735 4.7269 3.43053C4.60678 3.1441 4.48665 3.19144 4.40213 3.19144C4.318 3.19144 4.22174 3.1797 4.12548 3.1797C4.02922 3.1797 3.8727 3.21453 3.74083 3.35814C3.60896 3.50174 3.23566 3.84804 3.23566 4.55317C3.23566 5.25907 3.75257 5.93954 3.82496 6.03502C3.89774 6.13011 4.82434 7.62448 6.29211 8.19813C7.76065 8.77138 7.76065 8.58004 8.02517 8.55578C8.29047 8.53152 8.87977 8.20948 8.99951 7.87531C9.12003 7.53957 9.12003 7.25196 9.08364 7.1921Z" fill="#1FAE50"/>
</svg>
