<svg width="20" height="20" viewBox="0 0 20 20" fill="none" xmlns="http://www.w3.org/2000/svg">
<path d="M10 0.507812C4.75781 0.507812 0.507812 4.75781 0.507812 10C0.507812 11.918 1.07812 13.707 2.05859 15.1992L0.835938 19.3398L5.13672 18.1484C6.55859 19 8.22266 19.4883 10 19.4883C15.2422 19.4883 19.4922 15.2383 19.4922 9.99609C19.4922 4.75781 15.2422 0.507812 10 0.507812Z" fill="#10B34C"/>
<path d="M15.2152 12.6055C15.2035 12.4805 15.1293 12.3711 15.016 12.3203C14.2504 11.9688 13.4809 11.6172 12.7152 11.2656C12.6293 11.2266 12.5238 11.2461 12.4613 11.3203L11.4223 12.4922C11.3402 12.5859 11.2113 12.6172 11.098 12.5703C10.559 12.3477 9.83241 11.9727 9.09804 11.3398C8.21913 10.5859 7.70351 9.77735 7.41444 9.25C7.55898 9.15235 7.95351 8.85938 8.12929 8.31641C8.12929 8.3125 8.13319 8.3086 8.13319 8.3086C8.24257 7.97266 8.21913 7.60938 8.09804 7.27735C7.89101 6.72657 7.47694 5.66016 7.31679 5.4961C7.28944 5.46875 7.25819 5.44141 7.25819 5.44141C7.14101 5.33594 6.98866 5.27735 6.82851 5.26953C6.77382 5.26563 6.71523 5.26563 6.65273 5.26563C6.47304 5.26172 6.31288 5.26172 6.19569 5.27735C5.86366 5.32422 5.62148 5.54688 5.46913 5.73438C5.28554 5.95703 5.06679 6.28907 4.92226 6.72657C4.91054 6.76563 4.89882 6.80078 4.8871 6.83985C4.72694 7.39453 4.75819 7.98828 4.9496 8.53516C5.12929 9.04688 5.39101 9.65625 5.78554 10.3008C6.45351 11.3984 7.18007 12.0781 7.67226 12.5273C8.22694 13.0391 8.91444 13.668 10.0043 14.1914C11.0121 14.6758 11.9262 14.8555 12.5394 14.9297C12.7894 14.9531 13.2504 14.957 13.7777 14.7578C14.0199 14.6641 14.223 14.5508 14.3871 14.4297C14.8207 14.1211 15.1254 13.6563 15.2035 13.1328C15.2035 13.1289 15.2035 13.125 15.2035 13.1211C15.2309 12.9219 15.2269 12.75 15.2152 12.6055Z" fill="white"/>
</svg>
