<svg width="19" height="19" viewBox="0 0 19 19" fill="none" xmlns="http://www.w3.org/2000/svg">
<g id="whatsapp_2582600 2" clip-path="url(#clip0_1099_76260)">
<g id="Group">
<path id="Vector" d="M15.8639 3.43973C14.164 1.73985 11.9039 0.803711 9.49993 0.803711C9.49979 0.803711 9.5 0.803711 9.49986 0.803711C7.09609 0.803711 4.83582 1.73996 3.13602 3.43973C1.43618 5.1396 0.5 7.39969 0.5 9.80371C0.50007 11.334 0.889531 12.8381 1.62823 14.1684L0.519477 18.1343C0.468219 18.3177 0.519828 18.5146 0.654477 18.6492C0.789125 18.7838 0.985859 18.8354 1.16938 18.7842L5.13539 17.6754C6.46556 18.4142 7.96958 18.8037 9.49996 18.8037C11.904 18.8037 14.1641 17.8675 15.864 16.1677C17.5639 14.4678 18.5 12.2077 18.5 9.80368C18.4999 7.39966 17.5637 5.1396 15.8639 3.43973ZM9.49993 17.749C8.08152 17.749 6.68922 17.3703 5.47345 16.6539C5.39157 16.6056 5.29904 16.5809 5.20573 16.5809C5.15813 16.5809 5.11039 16.5873 5.06374 16.6003L1.78739 17.5163L2.70335 14.24C2.74198 14.1019 2.72265 13.954 2.64984 13.8304C1.93343 12.6144 1.55476 11.222 1.55469 9.80368C1.55469 7.6814 2.38114 5.68618 3.88182 4.1855C5.3825 2.68482 7.37772 1.8584 9.49993 1.8584C13.8809 1.8584 17.4452 5.42264 17.4453 9.80368C17.4453 14.1847 13.881 17.749 9.49993 17.749Z" fill="#1FAE50"/>
<path id="Vector_2" d="M13.3847 10.4778C13.0624 10.1554 12.6325 9.97789 12.1744 9.97789C11.7162 9.97789 11.2864 10.1554 10.9641 10.4778L10.7196 10.7222C10.6594 10.7825 10.5783 10.8157 10.4915 10.8157C10.4046 10.8157 10.3236 10.7825 10.2632 10.7221L8.58018 9.03907C8.51988 8.97882 8.4867 8.89775 8.48666 8.81087C8.48666 8.724 8.51981 8.643 8.58003 8.58278L8.82458 8.33827C9.49195 7.6709 9.49195 6.58499 8.82462 5.91762L8.33556 5.42842C8.01314 5.10614 7.58332 4.92871 7.1252 4.92871C6.66708 4.92871 6.23726 5.10618 5.91487 5.42856L5.55023 5.79327C4.77929 6.56421 4.49945 7.71228 4.76217 9.02607C5.00942 10.2623 5.71617 11.5138 6.75226 12.55C8.05793 13.8555 9.72082 14.635 11.2006 14.6351H11.2009C12.1332 14.6351 12.9315 14.3298 13.509 13.7522L13.8737 13.3875C14.5411 12.7202 14.5411 11.6342 13.8737 10.9668L13.3847 10.4778ZM13.128 12.6418L12.7633 13.0065C12.3878 13.382 11.8476 13.5804 11.2009 13.5804H11.2007C9.99444 13.5803 8.61027 12.9164 7.4981 11.8043C6.60759 10.9137 6.00326 9.85357 5.79643 8.81924C5.60508 7.86239 5.78251 7.05264 6.29607 6.53904L6.66068 6.17437C6.78383 6.05125 6.94878 5.98343 7.12523 5.98343C7.30175 5.98343 7.46678 6.05125 7.58986 6.1743L8.07885 6.66339C8.335 6.91957 8.335 7.33635 8.07888 7.5925L7.83434 7.83701C7.57485 8.09646 7.43197 8.4424 7.43201 8.81105C7.43204 9.17963 7.57499 9.52553 7.83444 9.78495L9.51748 11.4679C9.777 11.7275 10.1229 11.8705 10.4916 11.8705C10.8601 11.8705 11.206 11.7275 11.4654 11.4681L11.7099 11.2236C11.833 11.1005 11.998 11.0326 12.1744 11.0326C12.3509 11.0326 12.5158 11.1005 12.639 11.2236L13.128 11.7126C13.3841 11.9687 13.3842 12.3856 13.128 12.6418Z" fill="#1FAE50"/>
</g>
</g>
<defs>
<clipPath id="clip0_1099_76260">
<rect width="18" height="18" fill="white" transform="translate(0.5 0.803711)"/>
</clipPath>
</defs>
</svg>
