<svg width="86" height="44" viewBox="0 0 86 44" fill="none" xmlns="http://www.w3.org/2000/svg">
<rect width="86" height="44" rx="6" fill="#645DF6"/>
<rect x="30.5" y="13.5" width="16.3335" height="12.0002" rx="1.5" stroke="white"/>
<path d="M30 28.1653L41.9168 28.1653" stroke="white" stroke-linecap="round"/>
<circle cx="47.875" cy="22.3438" r="8.125" fill="#645DF6"/>
<path d="M46.3359 21.8499C46.7218 22.6468 47.3662 23.2895 48.1641 23.6733C48.2229 23.7012 48.288 23.7133 48.3529 23.7083C48.4179 23.7034 48.4804 23.6816 48.5344 23.6452L49.7062 22.8624C49.758 22.8273 49.8179 22.8058 49.8801 22.8001C49.9424 22.7944 50.0052 22.8045 50.0625 22.8296L52.2562 23.7718C52.3312 23.803 52.3939 23.858 52.4345 23.9283C52.4752 23.9986 52.4916 24.0803 52.4812 24.1608C52.4117 24.7035 52.1468 25.2023 51.7361 25.5638C51.3255 25.9253 50.7971 26.1248 50.25 26.1249C48.5592 26.1249 46.9377 25.4532 45.7422 24.2577C44.5466 23.0622 43.875 21.4406 43.875 19.7499C43.8751 19.2028 44.0746 18.6744 44.4361 18.2637C44.7976 17.8531 45.2964 17.5882 45.8391 17.5186C45.9196 17.5083 46.0013 17.5247 46.0716 17.5654C46.1419 17.606 46.1969 17.6687 46.2281 17.7436L47.1703 19.9421C47.1948 19.9985 47.2051 20.0601 47.2002 20.1214C47.1953 20.1827 47.1753 20.2418 47.1422 20.2936L46.3594 21.4843C46.3245 21.5381 46.3041 21.6 46.3 21.664C46.2959 21.728 46.3082 21.792 46.3359 21.8499V21.8499Z" stroke="white" stroke-linecap="round" stroke-linejoin="round"/>
</svg>
