<svg width="27" height="18" viewBox="0 0 27 18" fill="none" xmlns="http://www.w3.org/2000/svg">
<rect x="1.5" y="0.5" width="16.3335" height="12.0002" rx="1.5" stroke="white"/>
<path d="M1 15.1653L12.9168 15.1653" stroke="white" stroke-linecap="round"/>
<circle cx="18.875" cy="9.34375" r="8.125" fill="#646464"/>
<path d="M17.3359 8.84989C17.7218 9.64677 18.3662 10.2895 19.1641 10.6733C19.2229 10.7012 19.288 10.7133 19.3529 10.7083C19.4179 10.7034 19.4804 10.6816 19.5344 10.6452L20.7062 9.86239C20.758 9.82728 20.8179 9.80585 20.8801 9.80011C20.9424 9.79437 21.0052 9.80451 21.0625 9.82958L23.2562 10.7718C23.3312 10.803 23.3939 10.858 23.4345 10.9283C23.4752 10.9986 23.4916 11.0803 23.4812 11.1608C23.4117 11.7035 23.1468 12.2023 22.7361 12.5638C22.3255 12.9253 21.7971 13.1248 21.25 13.1249C19.5592 13.1249 17.9377 12.4532 16.7422 11.2577C15.5466 10.0622 14.875 8.44065 14.875 6.74989C14.8751 6.20277 15.0746 5.67443 15.4361 5.26375C15.7976 4.85306 16.2964 4.58817 16.8391 4.51864C16.9196 4.5083 17.0013 4.52472 17.0716 4.56537C17.1419 4.60603 17.1969 4.66867 17.2281 4.74364L18.1703 6.94208C18.1948 6.99849 18.2051 7.06007 18.2002 7.12137C18.1953 7.18268 18.1753 7.24184 18.1422 7.29364L17.3594 8.48427C17.3245 8.53812 17.3041 8.60001 17.3 8.66402C17.2959 8.72804 17.3082 8.79203 17.3359 8.84989V8.84989Z" stroke="white" stroke-linecap="round" stroke-linejoin="round"/>
</svg>
