<svg width="27" height="18" viewBox="0 0 27 18" fill="none" xmlns="http://www.w3.org/2000/svg">
<rect x="1" y="0.5" width="16.3335" height="12.0002" rx="1.5" stroke="white"/>
<path d="M0.5 15.1653L12.4168 15.1653" stroke="white" stroke-linecap="round"/>
<circle cx="18.375" cy="9.34375" r="8.125" fill="#645DF6"/>
<path d="M16.8359 8.84989C17.2218 9.64677 17.8662 10.2895 18.6641 10.6733C18.7229 10.7012 18.788 10.7133 18.8529 10.7083C18.9179 10.7034 18.9804 10.6816 19.0344 10.6452L20.2062 9.86239C20.258 9.82728 20.3179 9.80585 20.3801 9.80011C20.4424 9.79437 20.5052 9.80451 20.5625 9.82958L22.7562 10.7718C22.8312 10.803 22.8939 10.858 22.9345 10.9283C22.9752 10.9986 22.9916 11.0803 22.9812 11.1608C22.9117 11.7035 22.6468 12.2023 22.2361 12.5638C21.8255 12.9253 21.2971 13.1248 20.75 13.1249C19.0592 13.1249 17.4377 12.4532 16.2422 11.2577C15.0466 10.0622 14.375 8.44065 14.375 6.74989C14.3751 6.20277 14.5746 5.67443 14.9361 5.26375C15.2976 4.85306 15.7964 4.58817 16.3391 4.51864C16.4196 4.5083 16.5013 4.52472 16.5716 4.56537C16.6419 4.60603 16.6969 4.66867 16.7281 4.74364L17.6703 6.94208C17.6948 6.99849 17.7051 7.06007 17.7002 7.12137C17.6953 7.18268 17.6753 7.24184 17.6422 7.29364L16.8594 8.48427C16.8245 8.53812 16.8041 8.60001 16.8 8.66402C16.7959 8.72804 16.8082 8.79203 16.8359 8.84989V8.84989Z" stroke="white" stroke-linecap="round" stroke-linejoin="round"/>
</svg>
