<svg width="17" height="16" viewBox="0 0 17 16" fill="none" xmlns="http://www.w3.org/2000/svg">
<path fill-rule="evenodd" clip-rule="evenodd" d="M7.85449 9.39991C8.00803 9.53171 8.17696 9.65143 8.36241 9.7574C8.92222 10.0773 9.49482 10.3588 10.07 10.5999H6.87531C6.98508 11.0828 7.12366 11.5179 7.28368 11.8915C7.49086 12.3753 7.72214 12.7284 7.9484 12.9519C8.17209 13.1728 8.35778 13.2375 8.4999 13.2375C8.64203 13.2375 8.82771 13.1728 9.0514 12.9519C9.27766 12.7284 9.50895 12.3753 9.71612 11.8915C9.87384 11.5233 10.0107 11.0953 10.1198 10.6207C10.4978 10.7776 10.8768 10.917 11.2539 11.0383C11.1358 11.5204 10.9896 11.966 10.8192 12.364C10.7198 12.5961 10.6101 12.8167 10.4901 13.0213C11.3527 12.6792 12.1062 12.1211 12.684 11.4139C13.1435 11.5067 13.5942 11.5702 14.0304 11.6031C12.8525 13.4075 10.8155 14.5999 8.4999 14.5999C4.85482 14.5999 1.8999 11.645 1.8999 7.99991C1.8999 4.77612 4.21124 2.09218 7.26718 1.51483C6.75885 2.94259 6.25591 5.23553 6.62939 7.12065C6.61004 7.40606 6.5999 7.69975 6.5999 8.00001C6.5999 8.48629 6.62649 8.95534 6.67573 9.39991H7.85449ZM3.76589 5.39991C4.36802 4.30591 5.33833 3.44309 6.50989 2.97841C6.38979 3.18314 6.28007 3.40377 6.18059 3.63606C5.95962 4.15202 5.77952 4.74803 5.64821 5.39991H3.76589ZM3.28315 6.59991H5.46911C5.42366 7.05177 5.3999 7.52055 5.3999 8.00001C5.3999 8.47939 5.42365 8.94811 5.46909 9.39991H3.28315C3.16363 8.95341 3.0999 8.4841 3.0999 7.99991C3.0999 7.51571 3.16363 7.0464 3.28315 6.59991ZM3.76589 10.5999H5.64817C5.77948 11.2519 5.9596 11.8479 6.18059 12.364C6.28003 12.5961 6.3897 12.8167 6.50974 13.0213C5.33825 12.5567 4.36799 11.6939 3.76589 10.5999Z" fill="white"/>
<path d="M10.5443 4.41641L10.5442 4.41639L10.5407 4.42176L9.89228 5.41395L9.70506 5.70042L9.85632 6.00739C10.2089 6.72293 10.7899 7.30059 11.5074 7.64909L11.8161 7.79904L12.1019 7.60891L13.0824 6.95657L13.0824 6.95658L13.0854 6.95455C13.0867 6.95366 13.0882 6.95313 13.0898 6.95299C13.0914 6.95285 13.093 6.95312 13.0944 6.95377L13.0944 6.95386L13.1045 6.95817L14.9304 7.73679C14.9368 7.74001 14.9422 7.74508 14.9459 7.75138C14.9493 7.75739 14.951 7.76423 14.9507 7.77111C14.8987 8.15087 14.7117 8.49934 14.4237 8.75262C14.1336 9.0078 13.7607 9.149 13.3743 9.15C10.6047 9.14962 8.35038 6.89534 8.35 4.12571C8.351 3.73932 8.4922 3.36642 8.74739 3.07627C9.00066 2.7883 9.34913 2.60128 9.72889 2.54928C9.73577 2.54901 9.74262 2.55068 9.74862 2.55413L10.0114 2.09696L9.74862 2.55414C9.75498 2.55779 9.76009 2.56326 9.76331 2.56983L10.5461 4.39638C10.5475 4.39961 10.548 4.40313 10.5477 4.40663C10.5474 4.41013 10.5462 4.41349 10.5443 4.41641Z" fill="white" stroke="white" stroke-width="1.2"/>
</svg>
