<svg width="17" height="17" viewBox="0 0 17 17" fill="none" xmlns="http://www.w3.org/2000/svg">
<path fill-rule="evenodd" clip-rule="evenodd" d="M6.17318 6.51809C6.50279 6.88346 6.39828 7.29737 6.10685 7.69011C6.03775 7.78323 5.95811 7.87498 5.86192 7.97607C5.81575 8.0246 5.77975 8.06109 5.70444 8.13647C5.53342 8.30766 5.38965 8.45151 5.27313 8.56802C5.21663 8.62452 5.6024 9.39541 6.35109 10.1448C7.09936 10.8938 7.87021 11.2799 7.92698 11.2231L8.35799 10.7918C8.59535 10.5542 8.72105 10.4396 8.89377 10.3263C9.25285 10.0907 9.64451 10.0267 9.97484 10.3221C11.0534 11.0936 11.6637 11.567 11.9627 11.8777C12.5459 12.4836 12.4695 13.4164 11.966 13.9485C11.7914 14.1331 11.5701 14.3545 11.3086 14.6066C9.72713 16.1889 6.38944 15.226 3.83147 12.6655C1.27291 10.1044 0.310457 6.76641 1.88864 5.18739C2.17196 4.89961 2.26538 4.80624 2.54132 4.53435C3.05506 4.02814 4.03087 3.94887 4.62406 4.53485C4.93608 4.84307 5.43352 5.48311 6.17318 6.51809ZM9.15314 11.5872L8.72204 12.0186C7.98926 12.7518 6.74133 12.1268 5.55586 10.9401C4.36957 9.7527 3.7453 8.50523 4.47833 7.77227C4.59469 7.65592 4.73832 7.51221 4.90921 7.34115C4.97816 7.27213 5.0097 7.24016 5.04756 7.20037C5.09914 7.14616 5.14152 7.09855 5.17546 7.05642C4.51994 6.14329 4.07433 5.57272 3.8341 5.33541C3.71004 5.21286 3.43224 5.23542 3.33026 5.33591C3.05826 5.60392 2.96886 5.69328 2.68667 5.97988C1.67175 6.99537 2.44871 9.69004 4.6267 11.8702C6.804 14.0496 9.49827 14.8269 10.5209 13.8039C10.7783 13.5556 10.988 13.3458 11.1495 13.1751C11.2661 13.0518 11.287 12.7974 11.1528 12.658C10.9293 12.4258 10.3821 11.9991 9.43729 11.3207C9.36842 11.3761 9.28376 11.4565 9.15314 11.5872Z" fill="#6174A4"/>
<g clip-path="url(#clip0_176_28290)">
<path d="M12.5 8.85938C14.9047 8.85938 16.8594 6.90469 16.8594 4.5C16.8594 2.09531 14.9047 0.140625 12.5 0.140625C10.0953 0.140625 8.14062 2.09531 8.14062 4.5C8.14062 6.90469 10.0953 8.85938 12.5 8.85938ZM9.125 6.23672L10.8969 6.22266C11.0938 6.93281 11.4242 7.62187 11.8742 8.24062C10.6719 8.04375 9.66641 7.27734 9.125 6.23672ZM11.3469 3.30469H13.5547C13.7164 4.07812 13.7164 4.87266 13.5687 5.64609L11.3469 5.66016C11.1852 4.87969 11.1852 4.07812 11.3469 3.30469ZM12.4508 8.07891C12.0078 7.50938 11.6844 6.88359 11.4875 6.22266L13.4211 6.20859C13.2172 6.86953 12.8938 7.50234 12.4508 8.07891ZM13.0133 8.26172C13.4773 7.62891 13.8078 6.93281 14.0047 6.20156L15.8961 6.1875C15.3477 7.29141 14.2789 8.08594 13.0133 8.26172ZM16.2969 4.5C16.2969 4.89375 16.2336 5.27344 16.1281 5.625L14.1383 5.63906C14.2789 4.86562 14.2719 4.07812 14.1242 3.30469H16.1C16.2266 3.67734 16.2969 4.08516 16.2969 4.5ZM15.8609 2.74219H13.9906C13.7867 2.03906 13.4633 1.35703 13.0133 0.738281C14.2578 0.907031 15.3055 1.67344 15.8609 2.74219ZM13.407 2.74219H11.4945C11.6984 2.09531 12.0148 1.48359 12.4508 0.921094C12.8867 1.48359 13.2031 2.09531 13.407 2.74219ZM11.8742 0.759375C11.4312 1.37109 11.1078 2.03906 10.9109 2.74219H9.13906C9.68047 1.70859 10.6789 0.95625 11.8742 0.759375ZM10.7773 3.30469C10.6297 4.08516 10.6297 4.87969 10.7703 5.66016L8.89297 5.67422C8.76641 5.30156 8.70312 4.90781 8.70312 4.5C8.70312 4.08516 8.77344 3.67734 8.9 3.30469H10.7773Z" fill="#6174A4"/>
</g>
<defs>
<clipPath id="clip0_176_28290">
<rect width="9" height="9" fill="white" transform="translate(8)"/>
</clipPath>
</defs>
</svg>
