<svg width="20" height="19" viewBox="0 0 20 19" fill="none" xmlns="http://www.w3.org/2000/svg">
<path fill-rule="evenodd" clip-rule="evenodd" d="M7.10848 7.50626C7.48803 7.92698 7.36769 8.40361 7.0321 8.85586C6.95253 8.96309 6.86082 9.06873 6.75005 9.18515C6.69689 9.24103 6.65543 9.28305 6.56872 9.36985C6.37178 9.56698 6.20623 9.73262 6.07206 9.86678C6.00699 9.93184 6.45122 10.8195 7.31334 11.6825C8.17499 12.545 9.06263 12.9895 9.12801 12.9241L9.62432 12.4275C9.89764 12.1539 10.0424 12.0219 10.2413 11.8915C10.6548 11.6202 11.1058 11.5465 11.4861 11.8866C12.7281 12.775 13.4309 13.3201 13.7752 13.6779C14.4468 14.3757 14.3588 15.4498 13.779 16.0625C13.578 16.275 13.3231 16.5301 13.022 16.8203C11.2009 18.6424 7.35751 17.5335 4.41196 14.5851C1.46574 11.636 0.357462 7.79221 2.17476 5.97394C2.50102 5.64255 2.60859 5.53504 2.92633 5.22195C3.51792 4.63904 4.64158 4.54777 5.32464 5.22253C5.68394 5.57745 6.25675 6.31446 7.10848 7.50626ZM10.5399 13.3435L10.0435 13.8401C9.19973 14.6844 7.76271 13.9648 6.39762 12.5983C5.03159 11.231 4.31274 9.79448 5.15683 8.95047C5.29082 8.81649 5.45621 8.651 5.653 8.45402C5.7324 8.37455 5.76871 8.33773 5.81231 8.29191C5.8717 8.22949 5.92051 8.17467 5.95959 8.12615C5.20475 7.07467 4.69162 6.41765 4.41499 6.14439C4.27214 6.00327 3.95225 6.02925 3.83481 6.14497C3.5216 6.45358 3.41865 6.55648 3.09371 6.8865C1.92501 8.05585 2.81969 11.1588 5.32768 13.6693C7.83488 16.1789 10.9374 17.074 12.115 15.8959C12.4113 15.6101 12.6529 15.3684 12.8387 15.1719C12.9731 15.03 12.9971 14.737 12.8426 14.5765C12.5852 14.309 11.9551 13.8178 10.8672 13.0365C10.7878 13.1003 10.6904 13.1929 10.5399 13.3435Z" fill="#555555"/>
<g clip-path="url(#clip0_620_54367)">
<path d="M14.3939 10.2019C17.163 10.2019 19.4138 7.95103 19.4138 5.182C19.4138 2.41296 17.163 0.162109 14.3939 0.162109C11.6249 0.162109 9.37405 2.41296 9.37405 5.182C9.37405 7.95103 11.6249 10.2019 14.3939 10.2019ZM10.5076 7.18185L12.5479 7.16566C12.7746 7.98342 13.1552 8.77688 13.6733 9.48938C12.2888 9.26268 11.131 8.38015 10.5076 7.18185ZM13.0661 3.80558H15.6084C15.7947 4.6962 15.7947 5.61111 15.6246 6.50174L13.0661 6.51793C12.8799 5.61921 12.8799 4.6962 13.0661 3.80558ZM14.3373 9.30316C13.8272 8.64734 13.4547 7.92674 13.228 7.16566L15.4546 7.14947C15.2198 7.91055 14.8473 8.63924 14.3373 9.30316ZM14.985 9.51367C15.5194 8.78498 15.8999 7.98342 16.1266 7.14137L18.3046 7.12518C17.6731 8.39634 16.4424 9.31126 14.985 9.51367ZM18.7661 5.182C18.7661 5.6354 18.6932 6.07262 18.5718 6.47745L16.2804 6.49364C16.4424 5.60302 16.4343 4.6962 16.2643 3.80558H18.5394C18.6851 4.23469 18.7661 4.7043 18.7661 5.182ZM18.2641 3.15785H16.1104C15.8756 2.34819 15.5032 1.56282 14.985 0.85032C16.4181 1.04464 17.6245 1.92717 18.2641 3.15785ZM15.4384 3.15785H13.2361C13.4709 2.41296 13.8353 1.70856 14.3373 1.06083C14.8393 1.70856 15.2036 2.41296 15.4384 3.15785ZM13.6733 0.874609C13.1633 1.57901 12.7908 2.34819 12.5641 3.15785H10.5238C11.1472 1.96765 12.2969 1.10131 13.6733 0.874609ZM12.4103 3.80558C12.2402 4.7043 12.2402 5.61921 12.4022 6.51793L10.2404 6.53413C10.0947 6.10501 10.0218 5.6516 10.0218 5.182C10.0218 4.7043 10.1027 4.23469 10.2485 3.80558H12.4103Z" fill="#555555"/>
</g>
<defs>
<clipPath id="clip0_620_54367">
<rect width="10.3636" height="10.3636" fill="white" transform="translate(9.21213)"/>
</clipPath>
</defs>
</svg>
