<svg width="331" height="258" viewBox="0 0 331 258" fill="none" xmlns="http://www.w3.org/2000/svg">
<circle cx="231" cy="100" r="100" fill="#EBEDFF"/>
<g clip-path="url(#clip0_64_23282)">
<path d="M315 229.518H0V229.676H315V229.518Z" fill="#EBEBEB"/>
<path d="M283.438 239.666H262.572V239.824H283.438V239.666Z" fill="#EBEBEB"/>
<path d="M208.668 241.381H203.193V241.539H208.668V241.381Z" fill="#EBEBEB"/>
<path d="M261.941 233.813H249.852V233.971H261.941V233.813Z" fill="#EBEBEB"/>
<path d="M60.2585 234.873H33.0488V235.03H60.2585V234.873Z" fill="#EBEBEB"/>
<path d="M69.8609 234.873H65.873V235.03H69.8609V234.873Z" fill="#EBEBEB"/>
<path d="M141.845 237.534H82.8262V237.692H141.845V237.534Z" fill="#EBEBEB"/>
<path d="M149.31 201.39H27.6633C26.7103 201.388 25.7969 201.008 25.1237 200.333C24.4504 199.657 24.0723 198.742 24.0723 197.788V26.6012C24.0723 25.6472 24.4504 24.7322 25.1237 24.057C25.7969 23.3818 26.7103 23.0017 27.6633 23H149.31C150.264 23 151.179 23.3794 151.854 24.0548C152.528 24.7301 152.907 25.6461 152.907 26.6012V197.788C152.907 198.261 152.814 198.73 152.633 199.167C152.453 199.603 152.188 200 151.854 200.335C151.52 200.669 151.123 200.934 150.687 201.115C150.25 201.296 149.782 201.39 149.31 201.39ZM27.6633 23.1577C26.7521 23.1593 25.8788 23.5229 25.235 24.1685C24.5913 24.8141 24.2298 25.689 24.2298 26.6012V197.788C24.2298 198.701 24.5913 199.576 25.235 200.221C25.8788 200.867 26.7521 201.23 27.6633 201.232H149.31C150.222 201.23 151.096 200.867 151.74 200.221C152.385 199.576 152.748 198.701 152.75 197.788V26.6012C152.748 25.6884 152.385 24.8135 151.74 24.1681C151.096 23.5227 150.222 23.1593 149.31 23.1577H27.6633Z" fill="#EBEBEB"/>
<path d="M285.586 201.39H163.933C162.98 201.388 162.066 201.008 161.391 200.333C160.717 199.658 160.338 198.743 160.336 197.788V26.6012C160.338 25.6466 160.717 24.7316 161.391 24.0566C162.066 23.3816 162.98 23.0017 163.933 23H285.586C286.538 23.0033 287.45 23.3842 288.122 24.0592C288.794 24.7342 289.171 25.6483 289.171 26.6012V197.788C289.171 198.741 288.794 199.655 288.122 200.33C287.45 201.005 286.538 201.386 285.586 201.39ZM163.933 23.1577C163.021 23.1593 162.147 23.5227 161.503 24.1681C160.858 24.8135 160.495 25.6884 160.493 26.6012V197.788C160.495 198.701 160.858 199.576 161.503 200.221C162.147 200.867 163.021 201.23 163.933 201.232H285.586C286.498 201.23 287.372 200.867 288.017 200.221C288.661 199.576 289.024 198.701 289.026 197.788V26.6012C289.024 25.6884 288.661 24.8135 288.017 24.1681C287.372 23.5227 286.498 23.1593 285.586 23.1577H163.933Z" fill="#EBEBEB"/>
<path d="M206.595 73.316C208.668 69.8788 214.073 67.0975 218.716 67.0975C219.699 67.0818 220.677 67.2354 221.608 67.5516C224.945 64.9162 229.04 63.4238 233.288 63.2944C238.165 63.2944 240.735 65.8172 239.746 69.2292C244.194 69.4499 246.153 72.2754 244.105 75.7379C241.976 79.3391 236.319 82.2844 231.468 82.2844H203.527C200.094 82.2844 198.525 80.2094 200.037 77.6552C201.202 75.6622 203.861 73.9783 206.595 73.316Z" fill="white"/>
<path d="M150.23 56.9877C151.49 54.8875 154.797 53.2035 157.626 53.2035C158.225 53.1942 158.822 53.2881 159.39 53.481C161.431 51.8752 163.933 50.9667 166.528 50.8889C169.501 50.8889 171.07 52.4341 170.465 54.5091C173.18 54.6415 174.377 56.4011 173.13 58.4824C171.883 60.5636 168.374 62.462 165.413 62.462H148.358C146.261 62.462 145.303 61.2006 146.223 59.6428C147.181 58.289 148.61 57.3421 150.23 56.9877Z" fill="white"/>
<path d="M68.3363 69.4123C69.5963 67.3121 72.9038 65.6282 75.7325 65.6282C76.3289 65.6137 76.9233 65.7012 77.4902 65.8868C79.5265 64.2756 82.0274 63.3644 84.6218 63.2883C87.5954 63.2883 89.1641 64.8398 88.5593 66.9148C91.2746 67.0472 92.4716 68.8068 91.2242 70.8881C89.9768 72.9694 86.4677 74.8677 83.5067 74.8677H66.4652C64.3673 74.8677 63.4097 73.6064 64.3358 72.0423C65.2938 70.6956 66.7212 69.7572 68.3363 69.4123Z" fill="white"/>
<path d="M103.295 60.1221H83.8535V149.825H103.295V60.1221Z" fill="#E6E6E6"/>
<path d="M118.654 149.825H101.115V78.1282L118.654 95.6108V149.825Z" fill="#E6E6E6"/>
<path d="M77.8559 89.752H58.4141V149.825H77.8559V89.752Z" fill="#E6E6E6"/>
<path d="M134.166 82.2656H124.256V149.831H134.166V82.2656Z" fill="#E6E6E6"/>
<path d="M148.289 99.5212H138.379V149.825H148.289V99.5212Z" fill="#E6E6E6"/>
<path d="M155.787 116.045H145.877V149.825H155.787V116.045Z" fill="#E6E6E6"/>
<path d="M196.912 116.045H187.002V149.825H196.912V116.045Z" fill="#E6E6E6"/>
<path d="M187.431 126.71H177.521V149.831H187.431V126.71Z" fill="#E6E6E6"/>
<path d="M55.6912 116.045H45.7812V149.825H55.6912V116.045Z" fill="#E6E6E6"/>
<path d="M141.183 110.426H51.4707V149.825H141.183V110.426Z" fill="#E6E6E6"/>
<path d="M196.913 134.032H107.201V149.825H196.913V134.032Z" fill="#E6E6E6"/>
<path d="M184.974 161.385H215.088V71.6827H184.974V161.385Z" fill="#F0F0F0"/>
<path d="M161.174 161.385H188.352V89.6887L161.174 107.171V161.385Z" fill="#F0F0F0"/>
<path d="M224.388 161.385H254.502V101.312H224.388V161.385Z" fill="#F0F0F0"/>
<path d="M137.151 161.385H152.504V93.8198H137.151V161.385Z" fill="#F0F0F0"/>
<path d="M115.258 161.385H130.611V116.304H115.258V161.385Z" fill="#F0F0F0"/>
<path d="M103.661 161.385H119.014V127.606H103.661V161.385Z" fill="#F0F0F0"/>
<path d="M39.9418 161.385H55.2949L55.2949 127.606H39.9418V161.385Z" fill="#F0F0F0"/>
<path d="M54.6274 161.385H69.9805V138.264H54.6274V161.385Z" fill="#F0F0F0"/>
<path d="M258.721 161.385H274.074V127.606H258.721V161.385Z" fill="#F0F0F0"/>
<path d="M126.278 161.385L265.256 161.385V121.986L126.278 121.986V161.385Z" fill="#F0F0F0"/>
<path d="M39.9419 161.385L178.92 161.385V145.593L39.9419 145.593V161.385Z" fill="#F0F0F0"/>
<path d="M274.075 161.392H275.064V35.2165H274.075V161.392Z" fill="#EBEBEB"/>
<path d="M57.4243 213.064C57.1517 213.061 56.8855 212.981 56.6556 212.835C56.4258 212.688 56.2414 212.48 56.1235 212.234C56.0055 211.988 55.9587 211.714 55.9881 211.442C56.0176 211.171 56.1223 210.913 56.2903 210.699C57.1156 209.664 55.1122 207.255 52.9954 204.701C48.4783 199.264 41.6554 191.053 50.9731 181.637C56.851 175.689 56.6998 173.23 56.3974 172.473C55.8178 171.098 53.134 170.789 52.1953 170.789C51.8267 170.764 51.4811 170.601 51.2287 170.331C50.9762 170.061 50.8357 169.705 50.8357 169.335C50.8357 168.965 50.9762 168.609 51.2287 168.339C51.4811 168.069 51.8267 167.906 52.1953 167.881C52.7371 167.881 57.6763 167.919 59.1253 171.338C60.3853 174.295 58.4071 178.338 53.0962 183.705C45.637 191.274 50.7652 197.423 55.2886 202.866C58.1803 206.353 60.9145 209.645 58.6213 212.534C58.4776 212.71 58.2943 212.85 58.0863 212.943C57.8782 213.035 57.6514 213.076 57.4243 213.064Z" fill="#E0E0E0"/>
<path d="M36.3945 199.952H67.4031L60.5361 229.518H43.2615L36.3945 199.952Z" fill="#F5F5F5"/>
<path d="M36.073 201.27H67.7242C68.074 201.27 68.4095 201.131 68.6575 200.884C68.9054 200.637 69.0455 200.302 69.0472 199.952C69.0472 199.6 68.9078 199.264 68.6597 199.015C68.4116 198.767 68.0751 198.627 67.7242 198.627H36.073C35.7221 198.627 35.3856 198.767 35.1375 199.015C34.8894 199.264 34.75 199.6 34.75 199.952C34.7517 200.302 34.8918 200.637 35.1397 200.884C35.3876 201.131 35.7232 201.27 36.073 201.27Z" fill="#EBEBEB"/>
<path d="M62.7989 168.802L33.4976 178.496C33.4976 178.496 22.8821 171.312 30.5933 168.089C26.9267 161.827 26.4605 149.617 38.2604 146.072C50.0602 142.528 49.235 159.783 49.235 159.783C49.235 159.783 63.7817 144.382 63.095 162.678C65.8733 161.915 77.6479 164.709 62.7989 168.802Z" fill="#E0E0E0"/>
<path d="M38.3413 182.072H73.8733C73.8733 182.072 83.2477 175.443 73.4323 175.765C75.379 167.32 69.8854 158.068 57.487 157.708C45.0886 157.349 49.4482 171.129 49.4482 171.129C49.4482 171.129 28.6204 166.16 34.9582 176.427C24.601 176.938 29.9434 179.587 38.3413 182.072Z" fill="#E6E6E6"/>
<path d="M66.7106 183.983L38.8016 184.992C38.0719 185 37.3519 184.823 36.7094 184.477C36.0669 184.13 35.523 183.626 35.1287 183.011C34.0703 181.517 33.7994 179.656 38.2787 179.107C36.8486 174.693 40.0049 166.992 51.5465 166.399C63.0881 165.806 57.2984 176.49 57.2984 176.49C57.2984 176.49 74.7557 168.865 68.7959 180.211C71.4671 180.098 81.125 183.459 66.7106 183.983Z" fill="#E0E0E0"/>
<path d="M246.732 175.683H100.32V178.489H246.732V175.683Z" fill="#F0F0F0"/>
<path d="M246.734 178.496H262.572V175.689H246.734V178.496Z" fill="#E6E6E6"/>
<path d="M102.526 179.896L260.127 179.896V178.489L102.526 178.489V179.896Z" fill="#E0E0E0"/>
<path d="M102.52 179.202V229.518H104.069V179.202H102.52Z" fill="#E0E0E0"/>
<path d="M245.184 179.196V229.512H246.733V179.196H245.184Z" fill="#E0E0E0"/>
<path d="M258.57 179.202V229.518H260.12V179.202H258.57Z" fill="#E0E0E0"/>
<path d="M115.914 179.196V229.512H117.464V179.196H115.914Z" fill="#E0E0E0"/>
<path d="M157.5 258C224.962 258 279.651 254.804 279.651 250.861C279.651 246.918 224.962 243.721 157.5 243.721C90.0383 243.721 35.3496 246.918 35.3496 250.861C35.3496 254.804 90.0383 258 157.5 258Z" fill="#F5F5F5"/>
<path d="M248.604 148.904H153.291V151.603H248.604V148.904Z" fill="#407BFF"/>
<path opacity="0.2" d="M248.604 148.904H226.484V151.603H248.604V148.904Z" fill="black"/>
<path d="M229.219 252.437L224.242 151.597H225.49L230.467 252.437H229.219Z" fill="#407BFF"/>
<path opacity="0.7" d="M229.219 252.437L224.242 151.597H225.49L230.467 252.437H229.219Z" fill="white"/>
<path d="M251.337 252.437L246.354 151.597H247.607L252.584 252.437H251.337Z" fill="#407BFF"/>
<path d="M251.337 252.437L246.354 151.597H247.607L252.584 252.437H251.337Z" fill="#407BFF"/>
<path opacity="0.7" d="M251.337 252.437L246.354 151.597H247.607L252.584 252.437H251.337Z" fill="white"/>
<path d="M172.669 252.437L177.653 151.597H176.399L171.422 252.437H172.669Z" fill="#407BFF"/>
<path opacity="0.7" d="M172.669 252.437L177.653 151.597H176.399L171.422 252.437H172.669Z" fill="white"/>
<path d="M150.556 252.437L155.533 151.597H154.286L149.303 252.437H150.556Z" fill="#407BFF"/>
<path opacity="0.7" d="M150.556 252.437L155.533 151.597H154.286L149.303 252.437H150.556Z" fill="white"/>
<path d="M209.41 128.325H240.028C240.255 128.318 240.48 128.363 240.687 128.456C240.893 128.549 241.077 128.687 241.223 128.86C241.37 129.033 241.475 129.237 241.532 129.457C241.589 129.676 241.596 129.906 241.553 130.128L238.976 147.087C238.891 147.582 238.639 148.031 238.261 148.361C237.884 148.691 237.404 148.88 236.903 148.898H206.285C206.058 148.904 205.832 148.858 205.625 148.766C205.417 148.673 205.233 148.534 205.086 148.36C204.939 148.187 204.833 147.982 204.776 147.762C204.718 147.541 204.711 147.311 204.755 147.087L207.331 130.128C207.42 129.635 207.675 129.187 208.053 128.859C208.431 128.531 208.91 128.342 209.41 128.325Z" fill="#407BFF"/>
<path d="M208.938 128.325H239.581C239.807 128.318 240.032 128.363 240.239 128.456C240.446 128.549 240.629 128.687 240.776 128.86C240.922 129.033 241.028 129.237 241.085 129.457C241.142 129.676 241.149 129.906 241.105 130.128L238.529 147.087C238.444 147.582 238.191 148.031 237.814 148.361C237.436 148.691 236.957 148.88 236.456 148.898H205.813C205.585 148.904 205.36 148.858 205.152 148.766C204.944 148.673 204.76 148.534 204.613 148.36C204.467 148.187 204.36 147.982 204.303 147.762C204.246 147.541 204.238 147.311 204.282 147.087L206.859 130.128C206.946 129.635 207.201 129.186 207.579 128.858C207.958 128.53 208.437 128.341 208.938 128.325Z" fill="#407BFF"/>
<path opacity="0.2" d="M208.938 128.325H239.581C239.807 128.318 240.032 128.363 240.239 128.456C240.446 128.549 240.629 128.687 240.776 128.86C240.922 129.033 241.028 129.237 241.085 129.457C241.142 129.676 241.149 129.906 241.105 130.128L238.529 147.087C238.444 147.582 238.191 148.031 237.814 148.361C237.436 148.691 236.957 148.88 236.456 148.898H205.813C205.585 148.904 205.36 148.858 205.152 148.766C204.944 148.673 204.76 148.534 204.613 148.36C204.467 148.187 204.36 147.982 204.303 147.762C204.246 147.541 204.238 147.311 204.282 147.087L206.859 130.128C206.946 129.635 207.201 129.186 207.579 128.858C207.958 128.53 208.437 128.341 208.938 128.325Z" fill="white"/>
<path opacity="0.8" d="M205.813 148.361C205.668 148.365 205.523 148.338 205.389 148.28C205.255 148.222 205.136 148.136 205.039 148.027C204.942 147.91 204.872 147.773 204.834 147.626C204.796 147.479 204.791 147.325 204.818 147.176L207.395 130.217C207.463 129.851 207.652 129.519 207.933 129.275C208.213 129.031 208.567 128.89 208.938 128.873H239.581C239.727 128.869 239.872 128.897 240.006 128.955C240.14 129.012 240.259 129.099 240.356 129.207C240.451 129.324 240.52 129.46 240.557 129.606C240.594 129.752 240.598 129.905 240.571 130.053L238 147.018C237.931 147.383 237.741 147.714 237.461 147.958C237.181 148.202 236.827 148.344 236.457 148.361H205.813Z" fill="white"/>
<path d="M196.867 148.223H237.508C237.594 148.221 237.678 148.239 237.756 148.274C237.833 148.309 237.902 148.362 237.957 148.427C238.012 148.492 238.052 148.569 238.073 148.651C238.095 148.734 238.098 148.82 238.082 148.904H196.086C196.119 148.718 196.214 148.549 196.356 148.425C196.499 148.301 196.679 148.23 196.867 148.223Z" fill="#407BFF"/>
<path d="M163.335 244.264L159.322 246.528L154.357 236.904L158.371 234.639L163.335 244.264Z" fill="#FFB573"/>
<path d="M158.836 245.733L163.51 243.431C163.548 243.41 163.59 243.397 163.633 243.392C163.676 243.388 163.72 243.392 163.761 243.404C163.803 243.416 163.842 243.437 163.876 243.464C163.909 243.492 163.937 243.525 163.957 243.564L165.999 247.152C166.096 247.346 166.112 247.569 166.045 247.775C165.978 247.981 165.832 248.151 165.64 248.25C163.995 249.025 163.17 249.309 161.116 250.325C159.856 250.955 156.838 252.501 155.093 253.358C153.348 254.216 152.573 252.469 153.203 251.946C156.177 249.612 157.513 247.84 158.243 246.339C158.365 246.075 158.574 245.861 158.836 245.733Z" fill="#263238"/>
<path opacity="0.2" d="M158.371 234.639L154.357 236.904L156.915 241.867L161.054 239.836L158.371 234.639Z" fill="black"/>
<path d="M155.1 140.308C155.1 140.308 142.141 166.387 138.254 179.12C134.002 193.058 154.206 240.259 154.206 240.259L161.583 237.024C161.583 237.024 148.353 190.283 150.653 185.099C156.953 170.776 171.669 140.611 171.669 140.611L155.1 140.308Z" fill="#263238"/>
<path opacity="0.3" d="M159.977 155.93C156.443 161.865 154.937 172.561 154.717 179.518C156.714 175.216 158.856 170.738 160.859 166.576C162.207 162.609 163.518 158.787 164.74 155.514C164.469 153.25 162.655 151.414 159.977 155.93Z" fill="black"/>
<path d="M162.534 237.553L154.476 241.785L152.164 239.054L161.702 233.965L162.534 237.553Z" fill="#407BFF"/>
<path d="M157.714 247.184C158.082 246.99 158.428 246.757 158.747 246.49C158.764 246.477 158.776 246.459 158.783 246.439C158.79 246.419 158.79 246.397 158.785 246.376C158.78 246.356 158.769 246.337 158.753 246.322C158.738 246.307 158.718 246.298 158.697 246.294C158.52 246.294 156.945 246.042 156.536 246.496C156.489 246.548 156.456 246.61 156.44 246.677C156.423 246.744 156.424 246.814 156.441 246.881C156.461 246.985 156.507 247.082 156.574 247.164C156.641 247.245 156.727 247.308 156.825 247.348C157.132 247.405 157.448 247.346 157.714 247.184ZM158.413 246.477C157.739 246.995 157.185 247.241 156.895 247.14C156.83 247.115 156.774 247.074 156.731 247.019C156.689 246.965 156.663 246.899 156.655 246.831C156.645 246.798 156.643 246.764 156.649 246.731C156.656 246.698 156.671 246.667 156.693 246.641C156.914 246.395 157.777 246.408 158.413 246.477Z" fill="#407BFF"/>
<path d="M158.76 246.503C158.76 246.503 158.791 246.503 158.797 246.465C158.809 246.451 158.815 246.433 158.815 246.414C158.815 246.396 158.809 246.378 158.797 246.364C158.797 246.314 158.287 245.065 157.663 244.869C157.585 244.841 157.501 244.833 157.418 244.845C157.336 244.857 157.258 244.889 157.191 244.939C157.108 244.981 157.042 245.05 157.004 245.135C156.966 245.22 156.958 245.316 156.983 245.405C157.109 245.904 158.155 246.471 158.69 246.509C158.702 246.513 158.714 246.514 158.726 246.513C158.737 246.512 158.749 246.508 158.76 246.503ZM157.361 245.09C157.401 245.073 157.444 245.064 157.487 245.064C157.53 245.064 157.573 245.073 157.613 245.09C157.985 245.204 158.35 245.872 158.533 246.276C158.022 246.15 157.273 245.689 157.203 245.361C157.203 245.298 157.203 245.216 157.317 245.128L157.361 245.09Z" fill="#407BFF"/>
<path d="M163.863 105.33C163.056 106.963 162.244 108.395 161.343 109.877C160.442 111.359 159.528 112.772 158.52 114.172C158.029 114.872 157.506 115.566 156.996 116.26C156.485 116.953 155.925 117.622 155.345 118.291C154.206 119.653 152.988 120.948 151.697 122.169C151.382 122.485 151.011 122.8 150.671 123.084C150.33 123.368 149.996 123.714 149.6 123.973L148.459 124.812C148.333 124.9 148.365 124.894 147.98 125.146C147.679 125.335 147.358 125.492 147.023 125.613C146.174 125.922 145.254 125.98 144.373 125.781C143.492 125.582 142.686 125.134 142.052 124.49C141.924 124.361 141.804 124.224 141.693 124.08C141.598 123.968 141.514 123.848 141.441 123.721C141.152 123.229 140.9 122.717 140.685 122.188C140.316 121.282 140.021 120.348 139.803 119.394C139.422 117.668 139.167 115.916 139.041 114.153C138.909 112.441 138.876 110.723 138.94 109.007C138.958 108.518 139.151 108.053 139.484 107.695C139.818 107.338 140.268 107.113 140.754 107.062C141.24 107.01 141.727 107.136 142.128 107.416C142.528 107.695 142.815 108.11 142.934 108.584V108.654C143.647 111.693 144.558 114.683 145.662 117.603C145.904 118.221 146.197 118.818 146.538 119.388C146.664 119.609 146.807 119.82 146.966 120.019C147.01 120.082 146.966 119.962 146.897 119.911C146.852 119.846 146.801 119.785 146.746 119.728C146.635 119.608 146.507 119.504 146.368 119.419C146.11 119.25 145.817 119.14 145.511 119.098C145.214 119.061 144.912 119.091 144.629 119.186C144.364 119.243 143.93 119.577 144.219 119.331L144.975 118.612C145.473 118.12 145.977 117.59 146.462 117.054C148.433 114.729 150.237 112.267 151.861 109.688C152.693 108.376 153.518 107.039 154.312 105.689C155.106 104.34 155.912 102.94 156.618 101.666L156.668 101.577C157.169 100.622 158.029 99.9056 159.058 99.585C160.087 99.2645 161.201 99.3664 162.155 99.8682C163.109 100.37 163.825 101.231 164.146 102.261C164.466 103.291 164.364 104.406 163.863 105.361V105.33Z" fill="#263238"/>
<path opacity="0.3" d="M152.737 116.342C152.348 118.209 152.137 120.11 152.107 122.018C152.315 121.816 152.511 121.608 152.706 121.387C154.257 119.805 155.698 118.119 157.021 116.342C157.57 115.623 158.099 114.885 158.609 114.141C158.924 113.34 159.239 112.539 159.478 111.725C159.567 111.454 159.649 111.195 159.73 110.924C157.683 109.928 153.966 110.93 152.737 116.342Z" fill="black"/>
<path d="M142.419 106.957L141.908 103.697L137.857 105.589C138.164 106.666 138.573 107.712 139.08 108.71C139.197 108.943 139.368 109.145 139.578 109.3C139.788 109.454 140.032 109.556 140.289 109.599C140.546 109.641 140.81 109.622 141.058 109.544C141.307 109.465 141.533 109.329 141.719 109.146C142.006 108.866 142.22 108.52 142.342 108.139C142.463 107.757 142.49 107.351 142.419 106.957Z" fill="#FFB573"/>
<path d="M139.628 101.508L136.604 103.589L137.857 105.563L141.908 103.697L139.628 101.508Z" fill="#FFB573"/>
<path d="M150.47 250.381L145.953 249.347L147.768 238.733L152.285 239.767L150.47 250.381Z" fill="#FFB573"/>
<path d="M145.833 248.786L150.911 249.953C150.953 249.96 150.994 249.976 151.031 250C151.067 250.023 151.099 250.054 151.123 250.09C151.148 250.125 151.165 250.166 151.174 250.208C151.183 250.251 151.183 250.295 151.175 250.337L150.501 254.418C150.479 254.524 150.437 254.625 150.376 254.714C150.315 254.804 150.236 254.88 150.145 254.939C150.054 254.998 149.953 255.038 149.846 255.056C149.739 255.075 149.63 255.073 149.525 255.049C147.767 254.613 146.948 254.317 144.711 253.787C143.338 253.472 139.52 252.747 137.624 252.311C135.728 251.876 136.213 250.009 137.057 250.022C140.837 250.085 143.489 249.587 144.995 248.88C145.255 248.753 145.551 248.72 145.833 248.786Z" fill="#263238"/>
<path opacity="0.2" d="M152.284 239.773L147.761 238.733L146.828 244.207L151.352 245.241L152.284 239.773Z" fill="black"/>
<path d="M164.152 140.459C164.152 140.459 156.687 171.552 154.45 184.677C152.006 199.044 145.189 242.454 145.189 242.454L153.468 244.346C153.468 244.346 163.793 202.941 167.51 189.009C171.542 173.873 179.896 155.583 179.896 140.737C174.894 140.749 164.152 140.459 164.152 140.459Z" fill="#263238"/>
<path d="M153.802 244.434L143.709 242.12L143.936 238.859L154.841 241.88L153.802 244.434Z" fill="#407BFF"/>
<path d="M144.049 249.189C144.464 249.272 144.887 249.31 145.309 249.303C145.33 249.303 145.351 249.297 145.369 249.286C145.387 249.274 145.401 249.259 145.41 249.24C145.422 249.222 145.428 249.201 145.428 249.18C145.428 249.159 145.422 249.138 145.41 249.12C145.29 248.988 144.213 247.821 143.608 247.909C143.54 247.919 143.475 247.946 143.42 247.988C143.364 248.03 143.321 248.085 143.293 248.149C143.238 248.245 143.209 248.353 143.209 248.464C143.209 248.575 143.238 248.684 143.293 248.779C143.49 249.001 143.757 249.146 144.049 249.189ZM145.038 249.082C144.194 249.082 143.602 248.893 143.438 248.634C143.405 248.575 143.387 248.507 143.387 248.439C143.387 248.37 143.405 248.303 143.438 248.243C143.45 248.211 143.47 248.183 143.497 248.162C143.524 248.141 143.556 248.127 143.589 248.124C143.923 248.073 144.591 248.628 145.038 249.082Z" fill="#407BFF"/>
<path d="M145.273 249.297H145.323C145.34 249.291 145.356 249.282 145.369 249.27C145.382 249.258 145.392 249.244 145.399 249.227C145.399 249.171 145.815 247.897 145.456 247.335C145.411 247.265 145.351 247.207 145.28 247.164C145.209 247.121 145.129 247.096 145.046 247.089C144.956 247.069 144.862 247.081 144.779 247.122C144.697 247.164 144.631 247.232 144.592 247.316C144.372 247.789 144.832 248.887 145.222 249.259C145.228 249.268 145.235 249.277 145.244 249.283C145.252 249.29 145.262 249.294 145.273 249.297ZM145.071 247.323C145.114 247.332 145.154 247.349 145.19 247.374C145.225 247.399 145.256 247.431 145.279 247.468C145.436 247.958 145.436 248.485 145.279 248.975C144.931 248.537 144.766 247.981 144.819 247.424C144.819 247.36 144.895 247.297 145.052 247.316L145.071 247.323Z" fill="#407BFF"/>
<path d="M157.74 102.618C157.994 101.846 158.451 101.156 159.063 100.621C159.675 100.086 160.419 99.7261 161.218 99.5781C162.366 99.3253 163.53 99.1483 164.702 99.0483C168.216 98.9096 171.735 98.9728 175.242 99.2375C177.075 99.3573 178.946 99.6222 180.439 99.8682H180.489C180.88 99.9325 181.253 100.075 181.588 100.286C181.922 100.498 182.211 100.774 182.436 101.1C182.662 101.425 182.82 101.792 182.901 102.18C182.982 102.567 182.985 102.967 182.909 103.356C181.625 109.55 180.748 115.822 180.282 122.131C179.752 131.308 180.111 138.529 179.897 140.743L155.1 140.308C153.998 117.849 156.134 107.695 157.74 102.618Z" fill="white"/>
<path d="M174.543 98.7834C173.283 103.627 165.319 112.192 164.355 125.663C164.708 133.049 164.412 138.082 165.319 143.032L180.502 142.622C180.735 140.289 179.016 132.759 180.143 125.134C181.239 117.742 182.796 107.695 183.678 103.198C183.758 102.791 183.757 102.371 183.674 101.964C183.59 101.557 183.426 101.171 183.191 100.828C182.957 100.486 182.656 100.194 182.306 99.9692C181.957 99.7447 181.566 99.5924 181.158 99.5213H181.101C179.526 99.2565 177.554 98.9853 175.62 98.8528L174.543 98.7834Z" fill="#263238"/>
<path opacity="0.2" d="M178.083 135.357C178.058 135.356 178.034 135.35 178.013 135.339C177.991 135.329 177.972 135.313 177.957 135.294C176.377 133.207 175.14 130.882 174.29 128.407C174.278 128.367 174.282 128.325 174.301 128.288C174.32 128.252 174.352 128.224 174.391 128.211C174.432 128.199 174.476 128.204 174.513 128.224C174.551 128.244 174.579 128.278 174.592 128.318C175.43 130.759 176.65 133.049 178.209 135.104C178.234 135.138 178.244 135.18 178.239 135.221C178.233 135.263 178.211 135.3 178.177 135.325C178.149 135.344 178.116 135.355 178.083 135.357Z" fill="white"/>
<path opacity="0.3" d="M179.985 108.862C178.901 113.276 179.273 119.388 180.174 124.963C181.1 118.707 182.353 110.577 183.242 105.551C182.19 104.832 180.841 105.336 179.985 108.862Z" fill="black"/>
<path d="M156.467 102.706C156.749 101.845 157.249 101.072 157.918 100.462C158.587 99.8521 159.403 99.4258 160.285 99.2248C161.942 98.9946 163.61 98.8535 165.281 98.8022C163.87 103.381 164.695 116.789 165.319 127.366C163.429 132.695 163.574 136.612 163.542 143.032L153.154 142.124C152.02 118.593 154.911 106.976 156.467 102.706Z" fill="#263238"/>
<path d="M165.199 99.0167C168.279 98.3482 168.853 96.494 168.683 94.3686C168.644 93.8474 168.573 93.3291 168.468 92.8171L172.368 89.6637L175.228 87.3743C174.384 90.7611 173.389 96.9355 175.644 99.2438C175.644 99.2438 173.685 102.347 168.45 101.968C164.021 101.672 165.199 99.0167 165.199 99.0167Z" fill="#FFB573"/>
<path d="M169.797 101.211L168.928 102.019L171.612 103.034L171.29 102.006L169.797 101.211Z" fill="#E0E0E0"/>
<path d="M170.775 104.422C170.775 104.422 170.775 101.779 169.799 101.212C171.801 100.733 173.639 99.7268 175.122 98.2979L176.716 98.9285C176.716 98.9285 176.13 101.987 170.775 104.422Z" fill="#F5F5F5"/>
<path d="M168.317 101.003L168.928 102.019L166.074 102.265L166.666 101.363L168.317 101.003Z" fill="#E0E0E0"/>
<path d="M165.892 103.879C166.038 103.241 166.334 102.647 166.756 102.147C167.178 101.647 167.713 101.254 168.317 101.003C166.78 100.543 166.736 98.405 166.736 98.405L165.23 98.6888C165.23 98.6888 163.687 101.54 165.892 103.879Z" fill="#F5F5F5"/>
<path opacity="0.2" d="M168.469 92.8172C168.573 93.3292 168.645 93.8474 168.683 94.3687C170.119 94.1101 172.06 92.6154 172.287 91.1585C172.369 90.6733 172.397 90.1803 172.368 89.689L168.469 92.8172Z" fill="black"/>
<path d="M163.209 77.3589C162.76 78.1914 162.543 79.1296 162.58 80.075C162.618 81.0204 162.909 81.9383 163.423 82.7323L166.51 78.8851L163.209 77.3589Z" fill="#263238"/>
<path d="M175.664 81.6539C175.444 86.2642 175.551 88.9698 173.264 91.4484C172.53 92.2611 171.588 92.8572 170.54 93.1723C169.492 93.4873 168.377 93.5093 167.318 93.2358C166.258 92.9623 165.293 92.4038 164.528 91.6207C163.763 90.8376 163.226 89.8598 162.976 88.7932C161.936 84.7127 162.466 77.8508 166.932 75.8011C167.888 75.3325 168.95 75.1235 170.012 75.1952C171.074 75.2668 172.098 75.6165 172.982 76.2092C173.867 76.802 174.58 77.617 175.051 78.5725C175.521 79.5281 175.733 80.5907 175.664 81.6539Z" fill="#FFB573"/>
<path d="M178.499 76.8733C176.508 70.4908 156.657 67.1923 164.355 77.9896L172.797 76.8355L173.112 78.9987C173.542 80.6986 174.119 82.3573 174.839 83.9559L174.511 85.9174L174.876 89.1086C174.876 89.1086 178.386 85.2047 180.162 83.3631C182.796 80.6133 180.099 76.7157 178.499 76.8733Z" fill="#263238"/>
<path d="M163.373 78.1347C165.578 79.7619 171.361 80.0646 171.361 80.0646C170.966 79.2142 170.361 78.4784 169.604 77.9266C171.916 79.4213 173.969 81.1494 177.831 81.3008C177.314 79.8723 176.513 78.5638 175.475 77.4548C174.438 76.3457 173.186 75.4591 171.796 74.8489C167.128 72.7613 159.234 75.0822 163.373 78.1347Z" fill="#263238"/>
<path d="M177.573 71.2224C177.573 71.2224 176.716 71.8026 176.521 73.8145C176.326 75.8264 178.367 78.4438 178.367 78.4438L178.871 77.1824C176.962 74.7164 177.573 71.2224 177.573 71.2224Z" fill="#263238"/>
<path d="M176.954 85.1039C176.562 86.0262 175.863 86.784 174.976 87.2482C173.848 87.8032 173.25 86.7815 173.539 85.5328C173.798 84.4101 174.705 82.7641 175.851 82.7325C176.998 82.701 177.445 83.9497 176.954 85.1039Z" fill="#FFB573"/>
<path d="M168.62 83.3379C168.62 83.7163 168.431 84.0253 168.192 84.038C167.953 84.0506 167.745 83.7605 167.738 83.4073C167.732 83.0541 167.927 82.7198 168.173 82.7072C168.419 82.6946 168.614 82.9658 168.62 83.3379Z" fill="#263238"/>
<path d="M164.431 83.5459C164.431 83.918 164.242 84.2334 163.996 84.246C163.75 84.2586 163.549 83.9622 163.549 83.6153C163.549 83.2684 163.738 82.9278 163.977 82.9152C164.217 82.9026 164.393 83.1738 164.431 83.5459Z" fill="#263238"/>
<path d="M165.842 83.5776C165.411 84.7473 164.826 85.8544 164.104 86.8698C164.365 87.04 164.661 87.1502 164.971 87.1927C165.28 87.2353 165.595 87.209 165.893 87.1158L165.842 83.5776Z" fill="#ED893E"/>
<path d="M167.428 88.0554C167.857 87.9885 168.268 87.8355 168.636 87.6058C169.004 87.376 169.322 87.0742 169.57 86.7183C169.586 86.6941 169.592 86.6645 169.586 86.6361C169.58 86.6077 169.563 86.5828 169.539 86.567C169.515 86.5511 169.485 86.5455 169.457 86.5514C169.428 86.5573 169.403 86.5742 169.388 86.5985C169.109 86.9774 168.749 87.2879 168.333 87.5064C167.917 87.725 167.457 87.8458 166.987 87.8599C166.963 87.8658 166.94 87.88 166.925 87.9C166.909 87.92 166.9 87.9447 166.9 87.9702C166.9 87.9957 166.909 88.0205 166.925 88.0405C166.94 88.0605 166.963 88.0746 166.987 88.0806C167.151 88.0932 167.29 88.0743 167.428 88.0554Z" fill="#263238"/>
<path d="M170.522 81.7358C170.558 81.7265 170.592 81.7116 170.623 81.6917C170.668 81.6547 170.697 81.6015 170.702 81.5437C170.708 81.4858 170.691 81.4279 170.655 81.3827C170.444 81.106 170.168 80.8857 169.851 80.7416C169.535 80.5975 169.187 80.5339 168.84 80.5565C168.811 80.5587 168.782 80.567 168.756 80.5809C168.73 80.5947 168.707 80.6137 168.689 80.6368C168.671 80.6599 168.657 80.6865 168.65 80.715C168.642 80.7435 168.641 80.7733 168.645 80.8024C168.653 80.86 168.683 80.9121 168.729 80.9475C168.775 80.983 168.833 80.9988 168.891 80.9916C169.159 80.9756 169.428 81.0246 169.673 81.1344C169.919 81.2442 170.135 81.4115 170.302 81.6223C170.324 81.6606 170.356 81.6918 170.395 81.7119C170.434 81.7321 170.479 81.7404 170.522 81.7358Z" fill="#263238"/>
<path d="M162.541 82.2341C162.577 82.2281 162.61 82.2135 162.639 82.1915C162.667 82.1695 162.69 82.1408 162.705 82.108C162.818 81.8453 162.991 81.6127 163.21 81.4288C163.429 81.2448 163.687 81.1146 163.965 81.0485C163.994 81.0439 164.021 81.0337 164.045 81.0185C164.069 81.0032 164.09 80.9832 164.107 80.9597C164.123 80.9362 164.135 80.9096 164.141 80.8815C164.147 80.8534 164.147 80.8244 164.142 80.7962C164.132 80.7385 164.101 80.6869 164.053 80.6526C164.006 80.6183 163.947 80.6042 163.89 80.6133C163.547 80.696 163.229 80.8576 162.959 81.0854C162.69 81.3132 162.478 81.6007 162.34 81.9251C162.324 81.9612 162.317 82.001 162.322 82.0404C162.326 82.0797 162.341 82.1172 162.365 82.1488C162.389 82.1804 162.421 82.205 162.457 82.22C162.494 82.235 162.534 82.2399 162.573 82.2341H162.541Z" fill="#263238"/>
<path d="M184.382 102.258C184.804 103.204 185.163 104.056 185.509 104.964C185.856 105.872 186.202 106.755 186.53 107.657C187.16 109.467 187.79 111.296 188.294 113.163C189.424 116.955 190.155 120.855 190.474 124.799C190.685 128.614 190.685 132.438 190.474 136.252C190.291 140.036 189.995 143.732 189.497 147.479C189.431 147.969 189.189 148.419 188.815 148.743C188.441 149.067 187.962 149.243 187.468 149.239C186.973 149.234 186.498 149.049 186.13 148.718C185.763 148.386 185.528 147.932 185.472 147.441C185.062 143.757 184.741 140.062 184.407 136.397C184.243 134.564 184.067 132.742 183.878 130.929C183.708 129.119 183.481 127.322 183.248 125.613C182.644 122.184 181.768 118.81 180.627 115.522C180.06 113.838 179.474 112.148 178.85 110.476C178.227 108.805 177.559 107.089 176.96 105.506L176.923 105.418C176.559 104.433 176.589 103.346 177.006 102.383C177.424 101.42 178.196 100.655 179.163 100.249C180.13 99.8421 181.216 99.8247 182.196 100.2C183.175 100.576 183.972 101.315 184.42 102.265L184.382 102.258Z" fill="#263238"/>
<path d="M185.535 147.157L182.908 148.418L187.362 150.02C187.362 150.02 190.38 149.062 188.963 147.403L188.169 147.144C186.877 146.716 186.241 146.76 185.535 147.157Z" fill="#FFB573"/>
<path d="M181.402 151.25L186.108 152.146L187.362 149.989L182.908 148.393L181.402 151.25Z" fill="#FFB573"/>
<path d="M110.137 42.0215H89V42.7279H110.137V42.0215Z" fill="#407BFF"/>
<path d="M77.3135 45.7488L76.7969 45.2694C77.7662 44.2368 78.9379 43.4154 80.2387 42.8565C81.5395 42.2977 82.9414 42.0134 84.3569 42.0214V42.7215C83.038 42.714 81.7318 42.979 80.5199 43.4999C79.3079 44.0208 78.2164 44.7864 77.3135 45.7488Z" fill="#407BFF"/>
<path d="M84.3822 44.4811H124.79C127.066 44.5167 129.247 45.4016 130.905 46.9625C132.563 48.5234 133.58 50.6478 133.755 52.9196L135.286 77.1443L135.778 85.0027L127.436 77.1443H86.4486C84.1738 77.1071 81.9948 76.2215 80.3379 74.6608C78.681 73.1 77.6654 70.9765 77.49 68.7057L76.4946 52.9386C76.4098 51.8537 76.5513 50.7631 76.9102 49.7359C77.2691 48.7088 77.8375 47.7676 78.5793 46.9722C79.3211 46.1769 80.2201 45.5446 81.2191 45.1158C82.2181 44.6869 83.2953 44.4708 84.3822 44.4811Z" fill="#407BFF"/>
<path d="M86.5182 56.048H124.703C124.882 56.0467 125.059 56.0086 125.223 55.9361C125.387 55.8636 125.534 55.7581 125.656 55.6263C125.778 55.4945 125.871 55.3391 125.93 55.1697C125.989 55.0003 126.013 54.8205 126 54.6415C125.971 54.2622 125.8 53.9077 125.523 53.6475C125.245 53.3873 124.881 53.2402 124.501 53.2351H86.3229C86.1458 53.2398 85.9714 53.2803 85.8104 53.3543C85.6494 53.4284 85.505 53.5343 85.3861 53.6658C85.2671 53.7973 85.176 53.9515 85.1183 54.1192C85.0606 54.2869 85.0375 54.4646 85.0503 54.6415C85.0795 55.0156 85.2453 55.3658 85.5161 55.6252C85.7869 55.8847 86.1436 56.0352 86.5182 56.048Z" fill="white"/>
<path d="M86.9393 62.5312H125.124C125.304 62.5316 125.483 62.4948 125.649 62.4231C125.814 62.3515 125.964 62.2464 126.087 62.1145C126.211 61.9826 126.306 61.8266 126.367 61.6564C126.427 61.4861 126.452 61.3052 126.44 61.1248C126.41 60.7454 126.24 60.3909 125.963 60.1307C125.685 59.8706 125.321 59.7235 124.941 59.7184H86.7503C86.5692 59.7161 86.3895 59.7516 86.2229 59.8226C86.0562 59.8937 85.9061 59.9987 85.7823 60.131C85.6584 60.2633 85.5634 60.42 85.5034 60.5911C85.4433 60.7622 85.4196 60.944 85.4336 61.1248C85.4649 61.5047 85.6365 61.8593 85.9149 62.1193C86.1933 62.3794 86.5586 62.5262 86.9393 62.5312Z" fill="white"/>
<path d="M100.34 69.04H125.54C125.721 69.0423 125.901 69.0068 126.067 68.9357C126.234 68.8647 126.384 68.7596 126.508 68.6273C126.632 68.495 126.727 68.3383 126.787 68.1672C126.847 67.9961 126.871 67.8144 126.857 67.6336C126.836 67.2502 126.671 66.8889 126.395 66.6221C126.12 66.3554 125.753 66.203 125.37 66.1956H100.17C99.9889 66.1943 99.8097 66.2304 99.6435 66.3018C99.4772 66.3732 99.3276 66.4782 99.2039 66.6103C99.0802 66.7424 98.9852 66.8987 98.9248 67.0694C98.8644 67.2401 98.84 67.4214 98.853 67.602C98.8722 67.9859 99.0365 68.3481 99.3126 68.6151C99.5887 68.8822 99.9559 69.0341 100.34 69.04Z" fill="white"/>
<path d="M98.7141 85.0027H58.3059C57.2191 84.99 56.1415 85.2037 55.1417 85.6303C54.1418 86.0568 53.2415 86.6869 52.498 87.4805C51.7544 88.2741 51.1839 89.2138 50.8226 90.24C50.4613 91.2662 50.3172 92.3564 50.3994 93.4413L51.5208 111.195L52.0122 119.053L59.3643 111.195H100.352C101.438 111.206 102.515 110.991 103.513 110.564C104.512 110.136 105.411 109.506 106.154 108.713C106.896 107.92 107.466 106.981 107.828 105.955C108.189 104.93 108.333 103.841 108.252 102.757L107.666 93.4413C107.491 91.1716 106.476 89.049 104.821 87.4884C103.165 85.9278 100.988 85.0415 98.7141 85.0027Z" fill="#407BFF"/>
<path opacity="0.5" d="M98.7141 85.0027H58.3059C57.2191 84.99 56.1415 85.2037 55.1417 85.6303C54.1418 86.0568 53.2415 86.6869 52.498 87.4805C51.7544 88.2741 51.1839 89.2138 50.8226 90.24C50.4613 91.2662 50.3172 92.3564 50.3994 93.4413L51.5208 111.195L52.0122 119.053L59.3643 111.195H100.352C101.438 111.206 102.515 110.991 103.513 110.564C104.512 110.136 105.411 109.506 106.154 108.713C106.896 107.92 107.466 106.981 107.828 105.955C108.189 104.93 108.333 103.841 108.252 102.757L107.666 93.4413C107.491 91.1716 106.476 89.049 104.821 87.4884C103.165 85.9278 100.988 85.0415 98.7141 85.0027Z" fill="white"/>
<path d="M98.0406 96.5695H59.85C59.4715 96.5614 59.1093 96.4132 58.8336 96.1534C58.5578 95.8937 58.388 95.5408 58.3569 95.1631C58.3439 94.9825 58.3683 94.8011 58.4287 94.6304C58.4891 94.4598 58.5841 94.3035 58.7078 94.1713C58.8315 94.0392 58.9811 93.9342 59.1474 93.8628C59.3136 93.7914 59.4928 93.7553 59.6736 93.7566H97.8516C98.2317 93.7617 98.5962 93.9088 98.8735 94.169C99.1509 94.4292 99.3212 94.7837 99.351 95.1631C99.3631 95.3429 99.3382 95.5233 99.2778 95.6932C99.2175 95.863 99.123 96.0186 99.0002 96.1504C98.8773 96.2823 98.7288 96.3875 98.5638 96.4595C98.3987 96.5316 98.2207 96.569 98.0406 96.5695Z" fill="white"/>
<path d="M85.4465 103.059H60.2465C59.8664 103.054 59.502 102.907 59.2246 102.647C58.9472 102.387 58.7769 102.032 58.7471 101.653C58.735 101.472 58.7601 101.291 58.8208 101.121C58.8816 100.951 58.9766 100.795 59.1001 100.663C59.2236 100.531 59.3729 100.426 59.5387 100.354C59.7045 100.283 59.8832 100.246 60.0638 100.246H85.2638C85.6432 100.252 86.0069 100.399 86.2833 100.659C86.5596 100.919 86.7286 101.274 86.7569 101.653C86.7709 101.833 86.7473 102.014 86.6876 102.185C86.628 102.356 86.5335 102.512 86.4104 102.644C86.2872 102.776 86.1379 102.882 85.972 102.953C85.806 103.024 85.6271 103.061 85.4465 103.059Z" fill="white"/>
<path d="M89.0941 119.053H129.496C131.772 119.089 133.952 119.974 135.611 121.535C137.269 123.096 138.285 125.22 138.461 127.492L139.658 146.413L140.156 154.271L131.814 146.413H90.8203C88.5445 146.377 86.3639 145.492 84.7056 143.931C83.0474 142.37 82.0309 140.246 81.8554 137.974L81.1939 127.467C81.1164 126.385 81.2637 125.298 81.6266 124.276C81.9895 123.253 82.5601 122.317 83.3024 121.527C84.0447 120.736 84.9426 120.109 85.9394 119.683C86.9363 119.257 88.0104 119.043 89.0941 119.053Z" fill="#407BFF"/>
<path d="M107.13 131.737C107.188 132.536 107.545 133.284 108.128 133.833C108.711 134.382 109.479 134.692 110.28 134.701C110.662 134.706 111.042 134.632 111.394 134.483C111.746 134.333 112.063 134.112 112.325 133.833C112.587 133.554 112.788 133.224 112.915 132.863C113.043 132.502 113.094 132.118 113.065 131.737C113.005 130.937 112.649 130.189 112.066 129.639C111.483 129.089 110.715 128.778 109.915 128.766C109.531 128.759 109.151 128.833 108.798 128.983C108.445 129.132 108.127 129.354 107.865 129.634C107.603 129.914 107.402 130.245 107.275 130.607C107.149 130.969 107.099 131.354 107.13 131.737Z" fill="white"/>
<path d="M97.233 132.739C97.2913 133.539 97.6472 134.288 98.2304 134.838C98.8137 135.388 99.5818 135.699 100.383 135.71C100.765 135.714 101.145 135.639 101.496 135.489C101.848 135.339 102.165 135.117 102.426 134.838C102.688 134.558 102.888 134.227 103.015 133.866C103.141 133.505 103.191 133.121 103.161 132.739C103.1 131.94 102.743 131.193 102.161 130.644C101.578 130.094 100.812 129.782 100.011 129.769C99.6289 129.764 99.2497 129.839 98.8979 129.989C98.5461 130.14 98.2294 130.361 97.968 130.641C97.7066 130.92 97.5063 131.251 97.3797 131.613C97.2532 131.974 97.2032 132.358 97.233 132.739Z" fill="white"/>
<path d="M117.242 134.228C117.303 135.027 117.66 135.774 118.243 136.324C118.825 136.873 119.592 137.185 120.392 137.198C120.775 137.203 121.154 137.128 121.506 136.978C121.857 136.827 122.174 136.606 122.435 136.326C122.697 136.047 122.897 135.716 123.024 135.354C123.15 134.993 123.2 134.609 123.171 134.228C123.112 133.428 122.756 132.679 122.173 132.129C121.59 131.579 120.822 131.268 120.021 131.257C119.638 131.254 119.26 131.329 118.908 131.48C118.557 131.63 118.241 131.852 117.979 132.131C117.718 132.411 117.518 132.741 117.391 133.102C117.264 133.463 117.213 133.846 117.242 134.228Z" fill="white"/>
</g>
<defs>
<clipPath id="clip0_64_23282">
<rect width="315" height="235" fill="white" transform="translate(0 23)"/>
</clipPath>
</defs>
</svg>
