<svg width="424" height="405" viewBox="0 0 424 405" fill="none" xmlns="http://www.w3.org/2000/svg">
<g clip-path="url(#clip0_17_1724)">
<path d="M342.944 188.648L329.505 222.912L380.202 242.906L393.641 208.643L342.944 188.648Z" fill="white"/>
<path d="M393.625 209.087C393.625 209.087 393.405 209.193 392.974 209.356C392.495 209.529 391.864 209.759 391.079 210.037C389.376 210.632 386.993 211.457 384.065 212.465C378.075 214.489 369.883 217.253 360.802 220.324L360.611 220.391L360.505 220.218C360.429 220.084 360.343 219.94 360.257 219.796C355.443 211.361 351.089 203.723 347.903 198.139C346.362 195.394 345.108 193.149 344.209 191.546C343.797 190.798 343.472 190.194 343.223 189.743C343.003 189.33 342.898 189.109 342.907 189.1C342.927 189.1 343.061 189.301 343.309 189.695C343.577 190.136 343.931 190.721 344.372 191.451C345.3 193.034 346.601 195.25 348.199 197.966C351.415 203.531 355.816 211.141 360.678 219.546C360.764 219.69 360.84 219.834 360.926 219.969L360.63 219.853C369.73 216.84 377.941 214.125 383.94 212.139C386.888 211.189 389.29 210.411 391.003 209.855C391.806 209.605 392.448 209.413 392.926 209.26C393.366 209.126 393.605 209.068 393.605 209.087H393.625Z" fill="#E0E0E0"/>
<path d="M329.491 223.365C329.424 223.24 335.08 220.055 342.123 216.236C349.166 212.417 354.926 209.413 354.984 209.538C355.051 209.663 349.395 212.848 342.352 216.667C335.309 220.486 329.558 223.48 329.491 223.365Z" fill="#E0E0E0"/>
<path d="M372.008 215.746C372.142 215.708 374.075 221.859 376.333 229.478C378.591 237.106 380.323 243.314 380.189 243.353C380.055 243.391 378.122 237.24 375.854 229.621C373.596 222.003 371.864 215.785 371.998 215.746H372.008Z" fill="#E0E0E0"/>
<path d="M175.37 332.811L126.629 357.211L143.029 390.152L191.771 365.752L175.37 332.811Z" fill="white"/>
<path d="M175.723 333.138C175.723 333.138 175.656 333.378 175.483 333.8C175.292 334.27 175.034 334.894 174.718 335.671C174.01 337.341 173.034 339.663 171.828 342.522C169.321 348.337 165.885 356.302 162.086 365.11L162.01 365.293L161.809 365.254C161.656 365.226 161.493 365.187 161.33 365.149C151.857 363.086 143.283 361.224 137.015 359.862C133.953 359.171 131.446 358.605 129.656 358.202C128.824 358 128.163 357.847 127.666 357.722C127.206 357.607 126.977 357.54 126.977 357.52C126.977 357.501 127.225 357.54 127.685 357.626C128.192 357.722 128.862 357.847 129.694 358.01C131.493 358.374 134.001 358.883 137.082 359.516C143.359 360.84 151.943 362.654 161.426 364.669C161.589 364.707 161.751 364.736 161.905 364.775L161.627 364.918C165.483 356.129 168.967 348.184 171.502 342.388C172.766 339.557 173.799 337.245 174.536 335.594C174.89 334.836 175.168 334.222 175.388 333.762C175.589 333.349 175.694 333.128 175.713 333.138H175.723Z" fill="#E0E0E0"/>
<path d="M143.378 390.481C143.244 390.453 144.661 384.1 146.546 376.299C148.431 368.498 150.058 362.203 150.192 362.232C150.326 362.261 148.909 368.613 147.024 376.414C145.139 384.215 143.512 390.51 143.378 390.481Z" fill="#E0E0E0"/>
<path d="M166.182 353.711C166.239 353.586 172.096 356.254 179.254 359.67C186.421 363.086 192.172 365.955 192.115 366.079C192.057 366.204 186.201 363.537 179.043 360.121C171.885 356.705 166.125 353.835 166.182 353.711Z" fill="#E0E0E0"/>
<path d="M95.3025 209.164C113.829 196.766 118.345 173.315 117.953 152.157C117.886 148.625 118.336 144.912 116.69 141.793C115.044 138.675 111.12 136.497 107.905 137.936C105.235 139.126 104.039 142.158 102.518 144.662C100.499 147.982 97.513 150.717 94.0298 152.444C91.7427 153.577 88.9198 154.248 86.6997 152.991C83.6471 151.264 83.3505 147.052 83.427 143.549C83.5705 137.005 83.7141 130.471 83.8576 123.926C83.9342 120.414 84.0012 116.835 82.9485 113.486C81.8959 110.138 79.5132 107.009 76.1544 106.021C72.7956 105.033 68.5946 106.894 67.8291 110.32C67.5133 111.75 67.7813 113.237 67.6569 114.686C67.5325 116.144 66.8243 117.747 65.4176 118.131C64.0014 118.524 62.5947 117.507 61.5517 116.461C57.944 112.863 55.5326 108.257 53.2838 103.689C51.035 99.1122 48.8532 94.4392 45.5901 90.5146C42.327 86.5996 37.7816 83.4715 32.7099 83.1068C27.6382 82.7422 22.1741 85.7648 20.8153 90.6873C19.4469 95.6194 22.2889 100.676 25.399 104.735C30.0113 110.752 35.5041 116.087 41.638 120.53C42.748 121.336 43.9442 122.199 44.3461 123.504C45.0829 125.855 42.8055 128.148 40.461 128.878C37.8007 129.712 34.9395 129.396 32.174 129.674C29.3989 129.952 26.3846 131.113 25.3033 133.685C23.7913 137.255 26.7674 141.054 29.7147 143.568C35.6094 148.587 42.3748 152.588 49.6092 155.333C52.2025 156.321 54.9393 157.185 57.0063 159.037C59.0828 160.879 60.2981 164.055 58.9967 166.511C57.6857 168.968 54.413 169.707 51.6857 169.169C48.9585 168.632 46.5375 167.126 43.9442 166.108C39.1022 164.218 32.796 164.458 29.6094 168.575C27.5138 171.28 27.2745 175.099 28.2602 178.381C29.2458 181.663 31.3032 184.503 33.5041 187.132C41.1787 196.315 51.0637 203.771 62.3076 207.82C73.5515 211.87 84.0107 213.079 95.312 209.183" fill="#0FA779"/>
<path d="M89.9437 195.845C86.9677 185.137 82.7094 173.66 77.8482 161.81C76.6233 158.854 75.408 155.928 74.2119 153.049C73.0157 150.17 71.8291 147.33 70.4894 144.615C67.8387 139.174 64.8818 134.136 61.9154 129.444C58.9489 124.752 55.9633 120.405 53.1403 116.356C50.3078 112.316 47.5997 108.593 44.9873 105.311C39.7721 98.719 34.9491 93.902 31.4946 90.7355C29.7722 89.1426 28.3942 87.9527 27.4564 87.1467C26.9971 86.7629 26.643 86.4654 26.3751 86.2447C26.1263 86.0432 25.9923 85.9473 25.9923 85.9473C25.9923 85.9473 26.0976 86.0624 26.3368 86.2831C26.5856 86.5134 26.9397 86.8205 27.3799 87.2235C28.2985 88.0487 29.6478 89.2673 31.3511 90.8794C34.7578 94.0939 39.5328 98.9397 44.6907 105.541C47.2839 108.833 49.9729 112.556 52.7863 116.605C55.5901 120.664 58.5565 125.011 61.5039 129.703C64.4512 134.395 67.3985 139.414 70.0301 144.835C71.3602 147.541 72.5372 150.372 73.7334 153.251C74.9296 156.129 76.1353 159.056 77.3602 162.011C82.2213 173.862 86.4701 185.3 89.4748 195.98" fill="#E0E0E0"/>
<path d="M70.365 144.547C70.365 144.547 70.5181 144.02 70.7095 143.05C70.9009 142.081 71.1401 140.671 71.408 138.934C71.9535 135.441 72.5468 130.605 73.1879 125.26C73.8291 119.916 74.5085 115.099 75.1305 111.625C75.4367 109.888 75.6951 108.487 75.896 107.518C76.0874 106.549 76.1735 106.012 76.1353 106.002C76.097 106.002 75.9439 106.52 75.6951 107.47C75.4367 108.42 75.1209 109.821 74.7669 111.548C74.0492 115.012 73.3123 119.839 72.6712 125.183C72.0396 130.48 71.475 135.268 71.0444 138.867C70.8243 140.536 70.6425 141.937 70.5085 143.012C70.3841 143.991 70.3267 144.538 70.365 144.538V144.547Z" fill="#E0E0E0"/>
<path d="M24.9014 135.432C24.9014 135.432 25.0641 135.48 25.3703 135.518C25.7435 135.556 26.1837 135.604 26.7196 135.652C27.887 135.767 29.5808 135.921 31.6669 136.19C35.8391 136.689 41.5711 137.581 47.8581 138.848C54.1451 140.133 59.7814 141.534 63.8196 142.676C65.8483 143.233 67.4751 143.732 68.5947 144.068C69.1114 144.221 69.5421 144.346 69.8961 144.451C70.1928 144.538 70.3554 144.567 70.365 144.547C70.365 144.528 70.2215 144.461 69.9344 144.346C69.5899 144.212 69.1689 144.058 68.6617 143.866C67.5516 143.463 65.944 142.916 63.9249 142.312C59.8962 141.074 54.2599 139.615 47.9634 138.329C41.6668 137.053 35.8965 136.218 31.7052 135.815C29.6095 135.595 27.9062 135.489 26.7291 135.441C26.1933 135.422 25.7435 135.412 25.3703 135.403C25.0641 135.403 24.8918 135.403 24.8918 135.422L24.9014 135.432Z" fill="#E0E0E0"/>
<path d="M89.446 194.991C89.446 194.991 89.5704 194.809 89.7523 194.444C89.9628 194.022 90.2212 193.485 90.5465 192.823C91.2355 191.412 92.1733 189.339 93.312 186.768C95.5799 181.625 98.4986 174.438 101.618 166.454C104.738 158.471 107.599 151.264 109.771 146.092C110.852 143.559 111.733 141.486 112.374 139.98C112.661 139.299 112.891 138.752 113.082 138.31C113.235 137.926 113.312 137.725 113.293 137.715C113.274 137.715 113.168 137.898 112.986 138.262C112.776 138.684 112.518 139.222 112.192 139.884C111.503 141.294 110.565 143.367 109.436 145.939C107.168 151.082 104.25 158.269 101.13 166.262C98.0105 174.246 95.1493 181.452 92.9771 186.624C91.8958 189.157 91.0154 191.23 90.3743 192.736C90.0872 193.418 89.848 193.965 89.6661 194.406C89.513 194.79 89.4365 194.991 89.4556 195.001L89.446 194.991Z" fill="#E0E0E0"/>
<path d="M29.1597 174.754C29.1597 174.754 29.3606 174.85 29.7625 174.994C30.2123 175.148 30.796 175.349 31.5137 175.589C33.1022 176.117 35.2936 176.856 37.973 177.748C43.4275 179.581 50.9298 182.2 59.2072 185.117C67.4942 188.034 75.0156 190.596 80.5084 192.343C83.2548 193.216 85.4748 193.897 87.025 194.339C87.7523 194.55 88.3456 194.713 88.8049 194.847C89.2164 194.953 89.4365 195.001 89.4365 194.991C89.4365 194.972 89.2355 194.895 88.8336 194.751C88.3839 194.598 87.8002 194.396 87.0825 194.156C85.494 193.629 83.3026 192.89 80.6232 191.997C75.1687 190.165 67.6664 187.545 59.3794 184.628C51.102 181.711 43.571 179.149 38.0878 177.403C35.3414 176.529 33.1213 175.848 31.5711 175.407C30.8439 175.196 30.2506 175.032 29.7912 174.898C29.3798 174.793 29.1597 174.745 29.1597 174.754V174.754Z" fill="#E0E0E0"/>
<path d="M96.2116 -0.000488281H42.2218C38.5011 -0.000488281 35.485 3.02395 35.485 6.75479V33.4976C35.485 37.2285 38.5011 40.2529 42.2218 40.2529H96.2116C99.9322 40.2529 102.948 37.2285 102.948 33.4976V6.75479C102.948 3.02395 99.9322 -0.000488281 96.2116 -0.000488281Z" fill="black"/>
<path d="M76.5276 38.9673L92.47 53.1783L93.781 39.2264" fill="black"/>
<path d="M60.4417 20.6972C60.4417 22.8754 58.6809 24.641 56.5182 24.641C54.3556 24.641 52.5948 22.8754 52.5948 20.6972C52.5948 18.519 54.3556 16.7534 56.5182 16.7534C58.6809 16.7534 60.4417 18.519 60.4417 20.6972Z" fill="white"/>
<path d="M73.963 20.6972C73.963 22.8754 72.2023 24.641 70.0396 24.641C67.877 24.641 66.1162 22.8754 66.1162 20.6972C66.1162 18.519 67.877 16.7534 70.0396 16.7534C72.2023 16.7534 73.963 18.519 73.963 20.6972Z" fill="white"/>
<path d="M87.4748 20.6972C87.4748 22.8754 85.714 24.641 83.5418 24.641C81.3696 24.641 79.6184 22.8754 79.6184 20.6972C79.6184 18.519 81.3792 16.7534 83.5418 16.7534C85.7045 16.7534 87.4748 18.519 87.4748 20.6972Z" fill="white"/>
<path d="M291.623 43.1644L278.184 77.4277L328.882 97.4222L342.321 63.1588L291.623 43.1644Z" fill="white"/>
<path d="M342.305 63.6179C342.305 63.6179 342.084 63.7235 341.654 63.8866C341.175 64.0593 340.544 64.2896 339.759 64.5679C338.056 65.1628 335.673 65.988 332.745 66.9956C326.754 69.0202 318.563 71.7838 309.482 74.8543L309.291 74.9215L309.185 74.7488C309.109 74.6144 309.023 74.4705 308.936 74.3266C304.123 65.8921 299.769 58.254 296.583 52.6694C295.042 49.9251 293.788 47.6797 292.889 46.0772C292.477 45.3288 292.152 44.7243 291.903 44.2733C291.683 43.8607 291.578 43.64 291.587 43.6304C291.607 43.6304 291.741 43.8319 291.989 44.2253C292.257 44.6667 292.611 45.252 293.051 45.9813C293.98 47.5645 295.281 49.7811 296.879 52.4967C300.094 58.0621 304.496 65.6714 309.358 74.0771C309.444 74.221 309.52 74.365 309.606 74.4993L309.31 74.3842C318.41 71.3711 326.62 68.6556 332.62 66.6693C335.568 65.7194 337.97 64.9421 339.683 64.3856C340.486 64.1361 341.127 63.9442 341.606 63.7907C342.046 63.6563 342.285 63.5987 342.285 63.6179H342.305Z" fill="#E0E0E0"/>
<path d="M278.162 77.8964C278.095 77.7716 283.75 74.5859 290.793 70.7669C297.836 66.9479 303.597 63.9444 303.654 64.0692C303.721 64.1939 298.066 67.3796 291.023 71.1987C283.98 75.0177 278.229 78.0115 278.162 77.8964V77.8964Z" fill="#E0E0E0"/>
<path d="M320.678 70.2775C320.812 70.2391 322.745 76.3899 325.003 84.0088C327.262 91.6373 328.994 97.8456 328.86 97.884C328.726 97.9223 326.793 91.7716 324.525 84.1527C322.266 76.5338 320.534 70.3159 320.668 70.2775H320.678Z" fill="#E0E0E0"/>
<path d="M418.007 404.75C418.007 404.884 324.554 404.999 209.311 404.999C94.0681 404.999 0.595459 404.884 0.595459 404.75C0.595459 404.616 94.0202 404.5 209.311 404.5C324.601 404.5 418.007 404.616 418.007 404.75Z" fill="white"/>
<path d="M216.861 205.642C223.679 205.642 229.205 200.1 229.205 193.264C229.205 186.427 223.679 180.885 216.861 180.885C210.043 180.885 204.517 186.427 204.517 193.264C204.517 200.1 210.043 205.642 216.861 205.642Z" fill="#E8505B"/>
<path d="M259.349 205.642C266.166 205.642 271.693 200.1 271.693 193.264C271.693 186.427 266.166 180.885 259.349 180.885C252.531 180.885 247.004 186.427 247.004 193.264C247.004 200.1 252.531 205.642 259.349 205.642Z" fill="#E8505B"/>
<path d="M341.51 129.223C341.51 129.223 341.75 129.184 342.238 129.175C342.716 129.156 343.443 129.223 344.372 129.415C345.309 129.587 346.448 129.99 347.692 130.662C348.927 131.353 350.257 132.38 351.405 133.867C352.553 135.345 353.51 137.293 353.845 139.596C353.97 140.162 353.95 140.766 353.998 141.371C353.998 141.956 354.008 142.561 354.017 143.175C354.027 144.403 354.036 145.679 354.056 147.013C354.094 152.329 354.142 158.451 354.19 165.321C354.257 179.053 354.343 195.749 354.438 214.969C354.458 219.776 354.477 224.737 354.496 229.842C354.496 232.394 354.515 234.995 354.525 237.624C354.525 238.938 354.525 240.263 354.534 241.596C354.534 242.258 354.534 242.93 354.534 243.602C354.505 244.322 354.486 245.051 354.352 245.77C353.903 248.649 352.429 251.403 350.18 253.389C347.96 255.385 345.003 256.652 341.931 256.709C336.257 256.729 330.439 256.748 324.496 256.777L325.53 255.836C324.4 268.128 323.214 281.101 321.97 294.583L321.778 296.685L320.152 295.341C305.444 283.184 289.712 270.191 273.348 256.671L274.114 256.949C244.076 256.968 211.694 256.978 178.211 256.997C172.125 256.997 166.086 256.997 160.077 256.997C158.575 256.997 157.072 256.997 155.579 256.997C154.814 256.997 154.115 257.016 153.302 256.978C152.479 256.959 151.666 256.853 150.852 256.69C147.618 256.019 144.718 254.051 142.824 251.384C141.876 250.05 141.178 248.544 140.776 246.97C140.345 245.415 140.316 243.669 140.345 242.268C140.345 239.322 140.345 236.386 140.345 233.459C140.345 227.606 140.345 221.81 140.355 216.063C140.383 193.062 140.403 170.868 140.431 149.738C140.431 147.099 140.431 144.47 140.441 141.86C140.441 140.536 140.537 139.029 140.967 137.696C141.369 136.333 141.972 135.047 142.757 133.877C144.364 131.574 146.661 129.76 149.292 128.877C150.603 128.436 151.972 128.148 153.34 128.148C154.651 128.119 155.867 128.148 157.12 128.148C167.101 128.167 176.794 128.186 186.172 128.215C204.919 128.273 222.382 128.321 238.315 128.369C270.191 128.532 295.989 128.676 313.826 128.762C322.735 128.868 329.654 128.944 334.353 128.992C336.697 129.05 338.486 129.088 339.692 129.117C340.898 129.156 341.51 129.204 341.51 129.242C341.51 129.28 340.898 129.328 339.692 129.367C338.486 129.395 336.697 129.434 334.353 129.491C329.654 129.549 322.735 129.626 313.826 129.722C295.989 129.818 270.2 129.952 238.315 130.115C222.373 130.163 204.919 130.211 186.172 130.269C176.804 130.288 167.11 130.307 157.12 130.336C155.886 130.336 154.594 130.336 153.388 130.355C152.24 130.355 151.111 130.614 150.02 130.979C147.838 131.718 145.934 133.243 144.603 135.153C143.292 137.11 142.623 139.394 142.699 141.86C142.699 144.47 142.699 147.09 142.709 149.738C142.728 170.877 142.757 193.062 142.785 216.063C142.785 221.81 142.785 227.616 142.795 233.459C142.795 236.386 142.795 239.322 142.795 242.268C142.776 243.803 142.804 245.041 143.149 246.356C143.474 247.642 144.048 248.86 144.824 249.945C146.364 252.113 148.728 253.716 151.35 254.253C152.01 254.378 152.67 254.474 153.34 254.483C154.02 254.512 154.814 254.483 155.551 254.502C157.044 254.502 158.546 254.502 160.048 254.502C166.058 254.502 172.106 254.502 178.182 254.502C211.665 254.522 244.047 254.531 274.085 254.55H274.516L274.851 254.829C291.176 268.397 306.87 281.437 321.549 293.633L319.731 294.391C321.023 280.919 322.267 267.946 323.444 255.664L323.53 254.723H324.467C330.391 254.733 336.18 254.742 341.836 254.752C344.448 254.714 346.965 253.648 348.86 251.969C350.783 250.29 352.056 247.949 352.458 245.492C352.582 244.878 352.592 244.254 352.63 243.64C352.63 242.969 352.63 242.297 352.63 241.635C352.63 240.301 352.63 238.977 352.639 237.662C352.639 235.033 352.659 232.442 352.668 229.88C352.687 224.766 352.706 219.805 352.726 215.007C352.821 195.787 352.898 179.091 352.974 165.36C353.022 158.499 353.07 152.377 353.108 147.051C353.118 145.718 353.137 144.441 353.147 143.213C353.147 142.599 353.156 141.994 353.166 141.409C353.127 140.843 353.166 140.277 353.06 139.739C352.792 137.571 351.941 135.709 350.888 134.28C349.836 132.84 348.601 131.804 347.434 131.103C346.257 130.413 345.185 129.971 344.276 129.751C342.477 129.29 341.482 129.338 341.491 129.252L341.51 129.223Z" fill="url(#paint0_linear_17_1724)"/>
<path d="M262.344 190.826H75.9535C68.8769 190.826 63.1403 196.579 63.1403 203.675V304.495C63.1403 311.591 68.8769 317.344 75.9535 317.344H262.344C269.42 317.344 275.157 311.591 275.157 304.495V203.675C275.157 196.579 269.42 190.826 262.344 190.826Z" fill="#645DF6"/>
<path d="M192.124 313.304L242.248 357.933L246.363 314.091" fill="#645DF6"/>
<path d="M129.226 268.253C136.043 268.253 141.57 262.711 141.57 255.874C141.57 249.038 136.043 243.496 129.226 243.496C122.408 243.496 116.881 249.038 116.881 255.874C116.881 262.711 122.408 268.253 129.226 268.253Z" fill="white"/>
<path d="M171.723 268.253C178.54 268.253 184.067 262.711 184.067 255.874C184.067 249.038 178.54 243.496 171.723 243.496C164.905 243.496 159.378 249.038 159.378 255.874C159.378 262.711 164.905 268.253 171.723 268.253Z" fill="white"/>
<path d="M214.21 268.253C221.028 268.253 226.555 262.711 226.555 255.874C226.555 249.038 221.028 243.496 214.21 243.496C207.393 243.496 201.866 249.038 201.866 255.874C201.866 262.711 207.393 268.253 214.21 268.253Z" fill="white"/>
<g opacity="0.3">
<path d="M267.262 191.373L247.33 190.788L93.2452 190.826C106.049 203.589 124.355 210.43 142.345 212.004C160.335 213.578 178.402 210.833 196.191 207.743C213.981 204.654 231.847 201.199 249.904 201.334C253.712 201.362 257.655 201.526 261.195 200.115C264.736 198.695 267.779 195.173 267.262 191.383V191.373Z" fill="black"/>
</g>
<path d="M301.836 205.642C308.654 205.642 314.18 200.1 314.18 193.264C314.18 186.427 308.654 180.885 301.836 180.885C295.018 180.885 289.492 186.427 289.492 193.264C289.492 200.1 295.018 205.642 301.836 205.642Z" fill="url(#paint1_linear_17_1724)"/>
<path d="M195.464 11.2646C185.55 11.1975 176.029 18.3558 173.311 27.9129C171.914 32.8355 172.182 38.0746 171.292 43.1219C170.402 48.1596 167.857 53.4563 163.082 55.2699C159.972 56.4501 156.412 55.9608 153.321 57.1986C150.45 58.3501 148.24 61.0272 147.656 64.069C147.072 67.1108 148.125 70.4213 150.364 72.5611C146.622 75.8044 145.589 81.7728 148.02 86.0812C150.45 90.3993 156.086 92.587 160.785 91.0422C159.015 93.8632 159.598 97.7782 161.675 100.388C163.751 102.998 167.053 104.399 170.364 104.783C173.675 105.157 177.014 104.61 180.258 103.891C187.502 102.279 194.785 99.6878 200.239 94.6405C206.22 89.0943 209.387 81.1683 211.789 73.3575C216.373 58.4364 218.813 42.3639 215.062 27.2125" fill="#263238"/>
<path d="M162.106 94.4389L154.048 112.124L136.393 73.0792C135.56 69.9222 134.632 66.3623 134.441 65.6522C134.144 64.5679 134.058 63.4356 134.144 62.3129C134.249 60.9504 134.47 59.1464 134.891 58.1964C135.417 57.0162 134.24 55.8167 133.226 56.3925C132.211 56.9682 130.69 60.1731 130.738 64.328C130.785 68.4733 116.556 58.6378 114.24 60.9696L115.963 74.6912C117.522 76.121 121.924 80.0647 124.374 82.2429L141.024 123.792C142.584 128.062 146.087 131.324 150.441 132.591C156.766 134.414 163.512 131.66 166.756 125.912L177.483 106.942L162.115 94.4389H162.106Z" fill="#FFBE9D"/>
<path d="M124.699 48.3899C124.977 48.2844 125.283 48.4475 125.388 48.7642L134.546 76.0156C134.718 76.5241 134.527 77.0999 134.115 77.3398L123.235 83.4617C122.785 83.7112 122.25 83.4713 122.049 82.934L111.752 54.675C111.551 54.1185 111.79 53.4852 112.278 53.2837L124.699 48.3708V48.3899Z" fill="#263238"/>
<path d="M124.996 50.3569L133.417 74.6817L122.651 80.4294L113.398 54.982L124.996 50.3569Z" fill="#F5F5F5"/>
<path d="M115.455 56.6327C115.781 57.4579 116.317 58.8013 116.652 59.6361C116.814 60.0487 117.283 60.2406 117.685 60.0679L123.398 57.6594L125.379 57.9473L124.824 56.8917L125.474 56.6327C125.886 56.4695 126.077 55.9994 125.905 55.5868L124.738 52.852C124.565 52.4586 124.116 52.2667 123.714 52.4298L115.886 55.5963C115.484 55.7595 115.293 56.2201 115.446 56.6231L115.455 56.6327Z" fill="#E0E0E0"/>
<path d="M120.345 70.9969C120.671 71.8221 121.206 73.1655 121.541 74.0003C121.704 74.4129 122.173 74.6049 122.575 74.4321L128.288 72.0236L130.269 72.3115L129.714 71.256L130.364 70.9969C130.776 70.8338 130.967 70.3636 130.795 69.951L129.627 67.2163C129.455 66.8229 129.005 66.6309 128.604 66.7941L120.776 69.9606C120.374 70.1237 120.183 70.5843 120.336 70.9873L120.345 70.9969Z" fill="#E0E0E0"/>
<path d="M126.967 60.0293C127.331 60.8449 127.905 62.1691 128.269 62.9943C128.441 63.3973 128.259 63.8675 127.848 64.0402L122.125 66.4391L120.948 68.0608L120.584 66.9285L119.943 67.2068C119.541 67.3891 119.063 67.1972 118.9 66.7846L117.781 64.0306C117.618 63.6372 117.8 63.1766 118.192 63.0039L125.934 59.6263C126.336 59.4535 126.795 59.6263 126.967 60.0293V60.0293Z" fill="#E0E0E0"/>
<path d="M114.23 61.6509C116.087 61.9579 118.345 62.1403 120.202 62.4473C120.728 62.5337 121.273 62.6296 121.704 62.9463C122.125 63.2629 122.383 63.8866 122.125 64.3472C121.828 64.875 121.101 64.923 120.498 64.9038C119.14 64.8558 117.628 65.1437 116.269 65.1053C118.01 65.2588 119.618 65.4027 121.561 65.633C122.364 65.729 123.187 66.4103 123.197 67.2163C123.206 67.9168 122.537 68.4733 121.848 68.5789C121.159 68.6844 119.704 68.6077 119.704 68.6077C119.704 68.6077 116.9 68.646 116.785 69.0107C118.537 69.0011 120.843 69.3753 122.584 69.5288C123.063 69.5672 123.283 70.2293 123.398 70.6899C123.513 71.1601 123.331 71.7262 122.891 71.9181C122.68 72.0141 122.431 72.0045 122.202 71.9949C119.943 71.9277 118.757 72.0717 116.498 71.9949" fill="#FFBE9D"/>
<path d="M156.23 124.723C156.067 124.703 156.718 121.738 156.01 118.15C155.35 114.551 153.646 112.037 153.79 111.961C153.838 111.932 154.326 112.507 154.909 113.573C155.493 114.638 156.144 116.221 156.498 118.054C156.842 119.886 156.833 121.594 156.68 122.803C156.527 124.013 156.287 124.732 156.24 124.723H156.23Z" fill="#EB996E"/>
<path d="M122.986 69.7975C122.967 69.9319 121.197 69.8359 119.034 69.5864C117.953 69.4809 116.958 69.2602 116.297 69.2602C115.618 69.2602 115.321 69.6056 115.264 69.5577C115.245 69.5385 115.274 69.4233 115.436 69.2698C115.589 69.1163 115.896 68.9627 116.278 68.9148C117.053 68.8188 118.01 68.9915 119.101 69.0971C121.273 69.3466 123.015 69.6728 122.996 69.8071L122.986 69.7975Z" fill="#EB996E"/>
<path d="M122.364 65.8156C122.345 65.95 120.594 65.8636 118.45 65.6141C117.379 65.5182 116.393 65.2783 115.752 65.3071C115.092 65.3263 114.805 65.7005 114.738 65.6429C114.671 65.6429 114.91 65.0864 115.704 64.952C116.077 64.8753 116.537 64.9137 116.986 64.952C117.494 65 117.982 65.0576 118.498 65.1056C120.642 65.355 122.364 65.6717 122.345 65.806L122.364 65.8156Z" fill="#EB996E"/>
<path d="M176.967 148.011C176.967 148.011 118.728 143.607 101.877 156.83C85.0251 170.052 93.0824 191.354 93.0824 191.354H188.316L191.981 147.311L176.967 148.011V148.011Z" fill="#263238"/>
<path d="M187.923 178.353C187.923 178.353 187.627 178.353 187.072 178.285C186.517 178.228 185.694 178.141 184.651 177.997C182.546 177.729 179.512 177.297 175.771 176.664C168.297 175.407 158.02 173.238 146.91 169.966C141.359 168.316 136.106 166.656 131.254 165.446C126.393 164.266 121.943 163.508 118.163 163.355C114.393 163.192 111.331 163.47 109.255 163.873C108.202 164.007 107.417 164.266 106.872 164.362C106.326 164.477 106.039 164.535 106.03 164.516C106.03 164.497 106.307 164.41 106.843 164.257C107.388 164.132 108.164 163.834 109.216 163.671C111.293 163.201 114.374 162.875 118.173 162.99C121.982 163.096 126.47 163.825 131.36 164.986C136.24 166.166 141.513 167.826 147.053 169.467C158.144 172.73 168.383 174.946 175.837 176.289C179.56 176.971 182.593 177.46 184.689 177.777C185.703 177.94 186.507 178.065 187.101 178.151C187.656 178.237 187.943 178.295 187.933 178.314L187.923 178.353Z" fill="#455A64"/>
<path d="M132.958 165.197C132.843 165.312 130.871 163.153 127.723 161.522C124.594 159.862 121.704 159.459 121.733 159.296C121.733 159.238 122.47 159.257 123.627 159.497C124.785 159.737 126.355 160.236 127.953 161.071C129.551 161.915 130.852 162.923 131.704 163.739C132.556 164.554 132.996 165.149 132.948 165.187L132.958 165.197Z" fill="#455A64"/>
<path d="M219.129 142.513C219.129 142.513 165.857 143.962 149.005 157.185C132.154 170.407 140.211 191.71 140.211 191.71L240.114 193.264V180.348L227.157 178.938L227.062 178.353C232.095 172.835 228.267 153.606 219.894 143.454L219.119 142.513H219.129Z" fill="#263238"/>
<path d="M234.076 179.773C234.076 179.773 233.779 179.773 233.224 179.706C232.669 179.648 231.846 179.562 230.803 179.418C228.698 179.149 225.665 178.717 221.923 178.084C214.449 176.827 204.172 174.659 193.062 171.386C187.512 169.736 182.258 168.076 177.407 166.867C172.546 165.687 168.096 164.929 164.316 164.775C160.546 164.612 157.484 164.89 155.407 165.293C154.354 165.428 153.57 165.687 153.024 165.783C152.479 165.898 152.192 165.955 152.182 165.936C152.182 165.917 152.46 165.831 152.996 165.677C153.541 165.552 154.316 165.255 155.369 165.092C157.445 164.622 160.527 164.295 164.326 164.41C168.134 164.516 172.622 165.245 177.512 166.406C182.392 167.587 187.665 169.247 193.206 170.887C204.296 174.15 214.536 176.367 221.99 177.71C225.713 178.391 228.746 178.881 230.842 179.197C231.856 179.36 232.66 179.485 233.253 179.571C233.808 179.658 234.095 179.715 234.086 179.735L234.076 179.773Z" fill="#455A64"/>
<path d="M179.11 166.608C178.995 166.723 177.024 164.564 173.876 162.933C170.747 161.273 167.857 160.87 167.885 160.706C167.885 160.649 168.622 160.668 169.78 160.908C170.938 161.148 172.507 161.647 174.105 162.482C175.703 163.326 177.005 164.334 177.857 165.149C178.708 165.965 179.148 166.56 179.101 166.598L179.11 166.608Z" fill="#455A64"/>
<path d="M191.579 144.739C191.579 144.739 191.292 144.807 190.756 144.874C190.172 144.96 189.378 145.066 188.392 145.21C186.335 145.517 183.378 146.016 179.732 146.755C176.096 147.484 171.771 148.424 166.995 149.566C162.249 150.727 157.101 152.521 152.288 155.467C149.876 156.935 147.694 158.643 145.876 160.572C144.048 162.501 142.594 164.641 141.455 166.79C139.187 171.127 138.355 175.58 138.345 179.274C138.307 182.987 139.005 185.952 139.608 187.929C139.914 188.917 140.202 189.675 140.403 190.184C140.603 190.693 140.709 190.961 140.69 190.971C140.67 190.971 140.546 190.721 140.307 190.222C140.077 189.723 139.761 188.975 139.426 187.987C138.766 186.01 138.01 183.035 137.991 179.274C137.953 175.541 138.757 171.003 141.044 166.579C142.192 164.382 143.666 162.203 145.522 160.236C147.369 158.26 149.589 156.523 152.029 155.036C156.909 152.051 162.106 150.257 166.89 149.115C171.675 147.992 176.01 147.09 179.665 146.4C183.321 145.709 186.297 145.267 188.364 145.018C189.397 144.893 190.201 144.816 190.746 144.778C191.292 144.739 191.579 144.72 191.579 144.739V144.739Z" fill="#455A64"/>
<path d="M240.114 180.982L249.234 180.406L255.262 183.927L266.832 185.194C272.372 185.482 273.253 191.46 269.846 191.46C267.138 191.46 250.937 192.515 250.937 192.515L240.105 192.803V180.982H240.114Z" fill="white"/>
<path d="M254.918 183.946C254.947 183.994 254.458 184.359 253.521 184.599C252.592 184.848 251.195 184.916 249.789 184.369C248.392 183.822 247.396 182.824 246.88 182.018C246.353 181.202 246.229 180.607 246.277 180.588C246.353 180.559 246.593 181.097 247.157 181.807C247.722 182.517 248.679 183.4 249.961 183.898C251.253 184.397 252.545 184.397 253.444 184.244C254.344 184.1 254.88 183.86 254.918 183.937V183.946Z" fill="#455A64"/>
<path d="M269.387 191.345C269.396 191.402 268.927 191.527 268.267 191.182C267.607 190.865 266.975 189.982 266.736 188.946C266.449 187.919 266.592 186.854 266.975 186.24C267.339 185.616 267.779 185.424 267.808 185.482C267.856 185.539 267.53 185.818 267.291 186.403C267.033 186.979 266.966 187.871 267.224 188.821C267.454 189.781 267.932 190.529 268.449 190.884C268.956 191.249 269.387 191.268 269.377 191.354L269.387 191.345Z" fill="#455A64"/>
<path d="M179.675 69.8168C179.675 69.8168 168.316 94.8516 168.986 99.1025C169.656 103.353 172.938 120.309 172.938 120.309L175.34 147.906C175.34 147.906 218.239 142.686 219.129 142.686C220.019 142.686 217.789 119.858 217.789 119.858L224.325 75.9868C224.325 75.9868 221.33 70.0087 207.818 67.9457C199.703 66.6983 179.675 69.8264 179.675 69.8264V69.8168Z" fill="url(#paint2_linear_17_1724)"/>
<path d="M210.995 103.555C211.512 107.249 212.488 111.625 215.043 116.298C215.856 117.795 216.631 119.877 217.99 120.904C220.114 122.506 223.167 120.99 225.1 119.157C227.033 117.324 228.966 115.002 231.626 114.906C233.32 114.849 234.88 115.732 236.535 116.077C238.191 116.422 240.334 115.895 240.727 114.244C240.947 113.294 240.497 112.335 240.066 111.462C235.932 103.065 232.975 95.1299 230.803 86.0237C230.373 84.2005 228.363 80.4679 227.444 78.8462C226.526 77.2246 224.019 74.8737 221.578 72.897" fill="url(#paint3_linear_17_1724)"/>
<path d="M187.732 68.1567C175.933 68.5789 167.082 76.3993 164.555 82.0415C161.598 88.6625 159.302 96.6652 155.838 103.037C155.158 104.284 154.345 105.503 154.048 106.904C153.752 108.295 154.125 109.965 155.35 110.684C157.129 111.74 159.704 110.368 161.35 111.625C162.249 112.316 162.517 113.573 163.292 114.407C164.239 115.434 165.751 115.645 167.139 115.799C169.799 116.087 172.459 116.374 175.11 116.662" fill="url(#paint4_linear_17_1724)"/>
<path d="M208.382 92.5872C208.382 92.5872 208.172 92.2706 207.923 91.6372C207.674 91.0039 207.387 90.054 207.215 88.8449C206.851 86.4556 207.11 82.8765 209.043 79.6236C210.985 76.3707 214 74.4516 216.277 73.6456C217.425 73.2234 218.392 73.0218 219.062 72.9451C219.732 72.8683 220.114 72.8683 220.114 72.8971C220.134 73.0027 218.612 73.0602 216.401 73.9718C214.21 74.845 211.339 76.7545 209.464 79.8827C207.607 83.0204 207.292 86.4556 207.559 88.8066C207.818 91.1863 208.478 92.5584 208.382 92.5872Z" fill="#263238"/>
<path d="M175.914 82.7806C175.914 82.7806 175.723 83.2412 175.302 84.028C175.081 84.4214 174.833 84.9012 174.565 85.4769C174.297 86.0527 173.962 86.686 173.665 87.4248C173.024 88.8834 172.383 90.6681 171.799 92.6832C171.244 94.7079 170.766 96.9724 170.488 99.3809C170.23 101.789 170.192 104.112 170.278 106.213C170.402 108.314 170.622 110.195 170.928 111.759C171.043 112.546 171.235 113.246 171.369 113.861C171.493 114.484 171.637 115.002 171.761 115.434C172 116.298 172.115 116.778 172.077 116.787C172.038 116.797 171.866 116.336 171.57 115.492C171.416 115.07 171.244 114.551 171.091 113.928C170.928 113.314 170.718 112.613 170.574 111.826C170.22 110.262 169.962 108.362 169.809 106.232C169.694 104.112 169.723 101.761 169.981 99.3233C170.268 96.8861 170.766 94.5927 171.349 92.5489C171.962 90.5146 172.641 88.7202 173.34 87.2713C173.656 86.5324 174.019 85.8991 174.306 85.333C174.593 84.7669 174.881 84.2967 175.12 83.9128C175.598 83.1548 175.866 82.7422 175.895 82.7614L175.914 82.7806Z" fill="#263238"/>
<path d="M240.028 110.857C240.028 110.857 240.009 110.963 239.932 111.135C239.837 111.299 239.684 111.558 239.387 111.788C238.813 112.268 237.703 112.623 236.382 112.46C235.043 112.306 233.655 111.538 232.038 111.222C230.411 110.857 228.622 111.606 227.129 112.815C225.626 114.014 224.401 115.482 222.957 116.471C222.248 116.97 221.492 117.373 220.717 117.536C219.952 117.699 219.225 117.708 218.574 117.66C217.263 117.564 216.229 117.19 215.626 116.768C215.32 116.557 215.119 116.346 215.004 116.192C214.899 116.029 214.851 115.943 214.861 115.933C214.899 115.904 215.11 116.259 215.722 116.605C216.325 116.95 217.33 117.267 218.593 117.305C219.225 117.325 219.914 117.286 220.631 117.123C221.33 116.96 222.028 116.567 222.698 116.087C224.067 115.127 225.263 113.669 226.823 112.412C227.607 111.788 228.459 111.26 229.368 110.953C230.277 110.627 231.253 110.579 232.114 110.761C233.837 111.135 235.176 111.932 236.42 112.105C237.655 112.296 238.698 112.018 239.253 111.625C239.827 111.222 239.971 110.819 240.019 110.848L240.028 110.857Z" fill="#FAFAFA"/>
<path d="M237.282 105.244C237.282 105.244 237.282 105.34 237.224 105.512C237.157 105.676 237.014 105.925 236.746 106.155C236.229 106.626 235.176 106.99 233.952 106.741C232.736 106.53 231.464 105.733 229.952 105.656C228.43 105.58 226.784 106.232 225.311 107.23C223.818 108.228 222.535 109.427 221.205 110.32C219.894 111.241 218.497 111.817 217.282 111.951C216.057 112.105 215.052 111.884 214.44 111.586C213.818 111.289 213.559 111.001 213.579 110.992C213.607 110.953 213.904 111.183 214.516 111.414C215.129 111.644 216.086 111.807 217.234 111.615C218.392 111.443 219.684 110.867 220.947 109.955C222.229 109.063 223.492 107.863 225.033 106.827C226.564 105.8 228.315 105.1 229.98 105.215C230.813 105.253 231.559 105.532 232.21 105.781C232.87 106.04 233.464 106.28 234.028 106.414C235.148 106.683 236.124 106.405 236.631 106.021C237.148 105.637 237.243 105.234 237.291 105.263L237.282 105.244Z" fill="#FAFAFA"/>
<path d="M170.249 112.546C170.249 112.546 170.067 112.795 169.56 112.91C169.062 113.025 168.249 112.939 167.512 112.354C166.766 111.788 166.239 110.799 165.732 109.773C165.216 108.775 164.536 107.633 163.302 107.326C162.077 107.009 160.823 107.326 159.684 107.518C158.546 107.719 157.407 107.767 156.546 107.374C155.694 106.999 155.197 106.376 155.024 105.886C154.842 105.397 154.938 105.1 154.957 105.109C155.005 105.109 154.986 105.387 155.206 105.81C155.407 106.222 155.895 106.75 156.68 107.047C157.455 107.354 158.488 107.287 159.608 107.067C160.718 106.865 162.029 106.491 163.436 106.846C164.134 107.028 164.747 107.46 165.168 107.969C165.598 108.477 165.895 109.034 166.153 109.561C166.651 110.607 167.11 111.529 167.751 112.075C168.383 112.622 169.101 112.757 169.55 112.709C170.019 112.661 170.249 112.488 170.268 112.536L170.249 112.546Z" fill="#FAFAFA"/>
<path d="M168.794 106.904C168.794 106.904 168.593 107.009 168.22 106.904C167.857 106.798 167.397 106.443 167.034 105.887C166.67 105.359 166.383 104.61 165.742 104.217C165.11 103.804 164.182 103.891 163.244 104.044C162.297 104.217 161.292 104.255 160.45 104.035C159.598 103.833 158.89 103.478 158.354 103.094C157.283 102.327 156.919 101.569 156.957 101.549C157.024 101.492 157.483 102.154 158.546 102.797C159.589 103.459 161.282 103.967 163.168 103.545C164.105 103.401 165.168 103.277 165.991 103.824C166.785 104.38 167.014 105.186 167.33 105.704C167.627 106.232 167.991 106.577 168.297 106.721C168.593 106.875 168.794 106.865 168.804 106.904H168.794Z" fill="#FAFAFA"/>
<path d="M213.76 111.845C213.76 111.845 213.157 111.73 212.076 111.471C210.995 111.222 209.425 110.848 207.483 110.493C206.507 110.31 205.435 110.128 204.287 109.994C203.138 109.869 201.885 109.725 200.612 109.85C199.339 109.984 198.057 110.473 196.794 111.107C195.531 111.74 194.258 112.517 192.88 113.189C191.502 113.861 190.038 114.369 188.564 114.446C187.1 114.532 185.694 114.292 184.411 113.985C181.837 113.342 179.617 112.527 177.655 112.335C175.703 112.095 174.096 112.364 173.081 112.767C172.067 113.179 171.598 113.601 171.56 113.554C171.55 113.544 171.665 113.438 171.895 113.246C172.124 113.064 172.498 112.824 173.005 112.584C174.029 112.114 175.684 111.778 177.694 111.98C179.713 112.124 181.99 112.93 184.517 113.534C185.78 113.822 187.139 114.043 188.536 113.957C189.933 113.88 191.32 113.4 192.67 112.738C194.019 112.076 195.292 111.308 196.584 110.665C197.875 110.032 199.215 109.514 200.574 109.389C201.923 109.274 203.177 109.437 204.344 109.581C205.512 109.734 206.583 109.946 207.559 110.147C209.512 110.55 211.071 110.972 212.143 111.289C212.679 111.442 213.091 111.577 213.368 111.673C213.646 111.769 213.789 111.826 213.779 111.845H213.76Z" fill="#FAFAFA"/>
<path d="M214.746 116.662C214.746 116.662 214.172 116.432 213.158 116C212.134 115.578 210.66 114.964 208.775 114.388C207.837 114.1 206.784 113.822 205.655 113.688C204.526 113.573 203.311 113.726 202.096 114.148C199.655 114.983 197.34 116.787 194.478 117.91C193.043 118.476 191.521 118.697 190.076 118.677C188.632 118.658 187.254 118.457 185.962 118.226C183.378 117.737 181.091 117.229 179.129 117.171C177.168 117.075 175.589 117.382 174.565 117.756C173.531 118.131 173.024 118.486 172.995 118.438C172.995 118.418 173.11 118.332 173.349 118.169C173.589 118.006 173.971 117.785 174.488 117.574C175.512 117.133 177.129 116.768 179.139 116.816C181.139 116.835 183.483 117.315 186.048 117.776C188.593 118.207 191.531 118.553 194.316 117.44C197.081 116.355 199.426 114.561 201.962 113.707C203.225 113.285 204.526 113.122 205.713 113.266C206.89 113.429 207.942 113.736 208.89 114.043C210.775 114.667 212.249 115.329 213.244 115.808C213.741 116.048 214.124 116.25 214.382 116.394C214.631 116.538 214.765 116.624 214.756 116.643L214.746 116.662Z" fill="#FAFAFA"/>
<path d="M201.962 114.954C201.962 114.954 201.722 115.031 201.263 115.069C200.813 115.117 200.153 115.108 199.349 115.021C198.536 114.945 197.588 114.714 196.574 114.359C195.569 113.975 194.497 113.457 193.474 112.747C192.459 112.028 191.588 111.202 190.88 110.387C190.191 109.552 189.655 108.736 189.292 108.007C188.928 107.278 188.689 106.664 188.574 106.222C188.459 105.781 188.402 105.541 188.44 105.531C188.526 105.503 188.813 106.462 189.598 107.834C189.981 108.525 190.536 109.293 191.215 110.08C191.914 110.847 192.756 111.634 193.742 112.325C194.737 113.006 195.761 113.524 196.727 113.918C197.703 114.283 198.612 114.532 199.387 114.657C200.947 114.916 201.942 114.849 201.942 114.945L201.962 114.954Z" fill="#263238"/>
<g opacity="0.3">
<path d="M188.488 106.568C189.139 110.137 190.498 113.697 193.1 116.231C195.694 118.754 199.694 120.04 203.072 118.716C203.78 118.438 204.517 117.967 204.679 117.229C204.871 116.365 204.191 115.521 203.378 115.175C202.564 114.83 201.655 114.858 200.785 114.81C195.78 114.532 191.014 111.442 188.718 106.98" fill="black"/>
</g>
<path d="M216.545 120.808C216.545 120.808 216.363 120.491 216.134 119.886C215.894 119.282 215.579 118.399 215.196 117.305C214.43 115.117 213.435 112.066 212.449 108.669C211.464 105.272 210.66 102.163 210.124 99.9085C209.856 98.7763 209.655 97.8647 209.531 97.2218C209.406 96.5885 209.349 96.2334 209.387 96.2238C209.425 96.2142 209.54 96.5597 209.722 97.1738C209.933 97.903 210.172 98.7858 210.469 99.8126C211.091 102.048 211.942 105.129 212.928 108.525C213.913 111.922 214.851 114.974 215.531 117.19C215.837 118.217 216.105 119.09 216.325 119.819C216.507 120.443 216.593 120.788 216.555 120.808H216.545Z" fill="#263238"/>
<path d="M173.349 148.28C173.349 148.28 181.627 139.394 188.852 137.648C196.076 135.902 222.009 126.728 222.009 126.728L220.373 121.556C222.019 121.451 223.55 120.539 224.727 119.368L226.401 117.689C228.679 115.194 231.425 113.822 235.406 115.204L237.913 115.952L240.535 123.61C243.109 131.238 238.124 139.327 230.172 140.421L173.359 148.27L173.349 148.28Z" fill="#FFBE9D"/>
<path d="M232.755 127.832C232.688 127.976 230.487 126.853 227.521 126.556C224.554 126.229 222.172 126.872 222.133 126.709C222.076 126.604 224.487 125.711 227.569 126.057C230.65 126.364 232.832 127.736 232.755 127.832V127.832Z" fill="#EB996E"/>
<path d="M174.593 26.8289C173.847 14.8056 189.56 6.31356 200.239 9.33616C210.277 12.1764 214.555 17.1853 216.21 23.9214C217.866 30.6575 217.78 37.9501 215.148 44.3696C213.847 47.5361 211.512 50.7506 208.124 51.144" fill="#263238"/>
<path d="M206.641 19.421C208.402 19.6033 209.732 21.1194 209.693 22.8946L207.76 69.0973C207.684 74.5571 199.741 77.6373 193.914 77.5126C188.029 77.3878 187.837 74.4996 187.751 69.3084C187.608 60.634 187.608 57.3811 187.608 57.429C187.608 57.429 180.172 56.1912 178.632 46.4613C177.866 41.6252 178.105 33.6992 178.517 27.2126C178.88 21.3785 182.737 14.2202 188.536 14.8343L206.641 19.421V19.421Z" fill="#FFBE9D"/>
<path d="M181.034 33.5075C181.014 34.1696 181.55 34.7262 182.23 34.7646C182.909 34.8029 183.493 34.2944 183.512 33.6419C183.531 32.9798 182.995 32.4232 182.316 32.3849C181.627 32.3465 181.053 32.855 181.034 33.5075Z" fill="#263238"/>
<path d="M180.23 31.3388C180.383 31.502 181.33 30.8015 182.66 30.8015C184 30.7823 184.976 31.4732 185.129 31.31C185.196 31.2333 185.043 30.9454 184.612 30.6288C184.191 30.3217 183.474 30.0146 182.641 30.0146C181.809 30.0146 181.11 30.3313 180.699 30.6384C180.287 30.955 180.144 31.2525 180.22 31.3196L180.23 31.3388Z" fill="#263238"/>
<path d="M194.124 33.5075C194.105 34.1696 194.641 34.7262 195.32 34.7646C196 34.8029 196.584 34.2944 196.603 33.6419C196.622 32.9798 196.086 32.4232 195.407 32.3849C194.718 32.3465 194.143 32.855 194.124 33.5075Z" fill="#263238"/>
<path d="M193.387 31.5883C193.541 31.7515 194.488 31.051 195.828 31.051C197.167 31.0318 198.143 31.7227 198.296 31.5596C198.363 31.4828 198.21 31.1949 197.78 30.8783C197.359 30.5712 196.641 30.2642 195.808 30.2642C194.976 30.2642 194.277 30.5808 193.866 30.8879C193.454 31.2045 193.311 31.502 193.387 31.5692V31.5883Z" fill="#263238"/>
<path d="M188.536 41.539C188.536 41.4623 187.713 41.3183 186.364 41.1456C186.019 41.1072 185.694 41.0401 185.636 40.8098C185.56 40.5603 185.703 40.1957 185.866 39.7926C186.191 38.9674 186.526 38.0942 186.88 37.1826C188.287 33.4692 189.301 30.4082 189.148 30.3602C188.995 30.3026 187.742 33.2677 186.335 36.9907C186 37.9023 185.675 38.7755 185.368 39.6199C185.234 40.0133 185.014 40.4547 185.187 40.9633C185.282 41.2224 185.531 41.4047 185.751 41.4623C185.971 41.5294 186.163 41.5294 186.335 41.539C187.694 41.6158 188.536 41.6158 188.536 41.539V41.539Z" fill="#263238"/>
<path d="M187.608 57.4292C187.608 57.4292 194.134 57.8514 200.593 53.9556C200.593 53.9556 197.445 60.6341 187.732 59.7225L187.598 57.4292H187.608Z" fill="#EB996E"/>
<path d="M189.1 44.7725C189.579 44.1296 190.421 43.7842 191.263 43.8705C191.847 43.9377 192.431 44.216 192.785 44.6861C193.139 45.1563 193.215 45.8376 192.89 46.2886C192.526 46.7972 191.77 46.9123 191.139 46.73C190.498 46.5477 189.952 46.1255 189.426 45.7033C189.282 45.5881 189.139 45.4634 189.043 45.3098C188.957 45.1467 188.938 44.9452 189.043 44.8109" fill="#EB996E"/>
<path d="M192.469 42.4697C192.249 42.4601 192.249 43.9187 191.005 44.9454C189.761 45.9817 188.21 45.8186 188.201 46.0201C188.182 46.1161 188.545 46.2984 189.196 46.3176C189.837 46.3368 190.775 46.1352 191.531 45.5019C192.287 44.8686 192.612 44.0242 192.67 43.4197C192.727 42.8152 192.564 42.4506 192.459 42.4601L192.469 42.4697Z" fill="#263238"/>
<path d="M192.785 29.2373C192.919 29.602 194.249 29.4293 195.828 29.6212C197.407 29.7747 198.67 30.2449 198.88 29.909C198.976 29.7555 198.756 29.4101 198.239 29.055C197.732 28.7 196.918 28.3641 195.981 28.2586C195.033 28.153 194.172 28.3066 193.608 28.5369C193.033 28.7672 192.737 29.055 192.794 29.2277L192.785 29.2373Z" fill="#263238"/>
<path d="M180.727 27.4525C180.966 27.7596 181.885 27.4429 182.995 27.4237C184.105 27.3662 185.043 27.6253 185.263 27.3086C185.359 27.1551 185.206 26.848 184.804 26.5601C184.402 26.2723 183.722 26.042 182.957 26.0612C182.191 26.09 181.531 26.3586 181.148 26.6753C180.756 26.9919 180.632 27.299 180.727 27.4525V27.4525Z" fill="#263238"/>
<path d="M193.368 11.591C189.837 11.7061 187.148 12.7904 184.048 14.4888C180.947 16.1872 178.354 18.9987 177.397 22.4148C177.196 23.144 177.081 23.9692 177.474 24.6025C178 25.447 179.235 25.5909 180.134 25.1783C181.034 24.7657 181.684 23.9596 182.297 23.1824C182.756 24.9672 184.517 26.3202 186.354 26.301C188.191 26.2818 189.923 24.8808 190.344 23.0864C190.364 24.9576 192.22 26.4929 194.086 26.4257C195.942 26.3585 197.598 24.9192 198.21 23.1536C198.555 24.8136 198.928 26.5313 199.914 27.9034C200.909 29.2756 202.698 30.2255 204.306 29.6978C204.076 31.1467 203.856 32.6724 204.373 34.0446C204.89 35.4167 207.263 65.1918 208.65 64.712C209.99 64.2514 209.655 33.9966 209.971 32.6052C210.574 29.9281 211.1 27.2029 211.014 24.4586C210.928 21.7143 210.201 18.922 208.516 16.7534C206.775 14.508 204.143 13.0879 201.407 12.3586C198.67 11.6293 195.799 11.5526 192.966 11.591" fill="#263238"/>
<path d="M159.617 50.1174C159.617 50.1174 159.503 49.935 159.235 49.6664C158.967 49.3977 158.488 49.0523 157.771 48.9179C157.072 48.7932 156.106 48.8603 155.292 49.4745C154.479 50.079 154 51.288 154.173 52.5642C154.259 53.1975 154.498 53.8404 154.9 54.4066C155.321 54.9535 155.895 55.4237 156.584 55.7308C157.952 56.3641 159.694 56.3737 161.263 55.702C162.842 55.0399 164.249 53.8021 165.388 52.3051C166.527 50.7986 167.416 49.0235 168.038 47.1139C169.302 43.2757 169.646 39.3799 170.182 35.8967C170.689 32.3944 171.503 29.2662 172.632 26.8193C173.732 24.3533 175.196 22.6645 176.325 21.6857C176.909 21.2155 177.378 20.8701 177.723 20.6782C178.057 20.4767 178.239 20.3807 178.249 20.3903C178.287 20.4479 177.55 20.8317 176.45 21.8296C175.378 22.8372 173.991 24.526 172.947 26.9633C171.876 29.3909 171.12 32.4807 170.632 35.9639C170.125 39.4375 169.799 43.3525 168.507 47.2771C167.876 49.2346 166.957 51.0577 165.771 52.6122C164.594 54.1571 163.12 55.4429 161.436 56.1434C159.761 56.8534 157.876 56.8247 156.402 56.1242C155.665 55.7883 155.034 55.2702 154.584 54.6465C154.134 54.0228 153.895 53.3127 153.809 52.6218C153.646 51.24 154.192 49.9159 155.11 49.2729C156.029 48.6205 157.063 48.5917 157.79 48.7548C158.546 48.9275 159.034 49.3209 159.292 49.6184C159.551 49.9254 159.608 50.1366 159.608 50.1366L159.617 50.1174Z" fill="#263238"/>
<path d="M211.052 66.0555C211.024 66.0075 211.617 65.758 212.555 65.096C213.492 64.4435 214.727 63.3112 215.846 61.6032C216.957 59.8952 217.904 57.6018 218.306 54.9343C218.717 52.2667 218.516 49.2633 217.933 46.1927C217.339 43.1125 216.459 40.253 215.703 37.6334C214.937 35.0139 214.296 32.6246 213.913 30.5903C213.531 28.556 213.378 26.8768 213.358 25.7158C213.358 25.14 213.358 24.689 213.378 24.382C213.397 24.0749 213.416 23.9214 213.425 23.9214C213.473 23.9214 213.464 24.5643 213.55 25.7062C213.626 26.8576 213.827 28.5081 214.258 30.5231C214.679 32.5382 215.349 34.8987 216.134 37.4991C216.918 40.1091 217.808 42.9878 218.411 46.0967C219.004 49.2057 219.186 52.2667 218.746 55.0014C218.306 57.7362 217.301 60.0679 216.134 61.7951C214.957 63.5223 213.646 64.645 212.66 65.2591C212.162 65.5661 211.77 65.7772 211.483 65.8924C211.205 66.0171 211.052 66.0747 211.052 66.0555V66.0555Z" fill="#263238"/>
<path d="M212.784 59.8184C212.784 59.8184 212.67 59.8951 212.44 59.9911C212.21 60.087 211.856 60.183 211.378 60.2502C210.44 60.3749 208.995 60.2598 207.483 59.4345C205.962 58.6381 204.507 57.0165 203.732 54.8863C202.918 52.7656 202.746 50.2324 202.976 47.6704C203.206 45.0988 203.674 42.7095 203.885 40.5121C204.115 38.3147 204.22 36.3284 204.258 34.6588C204.296 32.9892 204.277 31.6362 204.258 30.6958C204.239 29.7555 204.229 29.2373 204.258 29.2373C204.287 29.2373 204.363 29.7459 204.44 30.6862C204.517 31.617 204.593 32.9796 204.603 34.6588C204.603 36.338 204.545 38.3435 204.335 40.5601C204.143 42.7766 203.694 45.1851 203.464 47.7088C203.234 50.2324 203.387 52.6793 204.153 54.7231C204.88 56.7766 206.22 58.3215 207.646 59.1275C209.072 59.9527 210.44 60.1158 211.349 60.0583C212.268 59.9815 212.756 59.7704 212.765 59.8184H212.784Z" fill="#263238"/>
<path d="M150.201 68.5794C150.201 68.5794 150.163 68.2531 150.345 67.6582C150.527 67.0729 150.996 66.2476 151.943 65.5376C152.862 64.8275 154.249 64.2613 155.895 64.1558C157.541 64.0023 159.407 64.2422 161.426 64.1078C163.445 63.9447 165.608 63.2634 167.637 61.9968C169.646 60.711 171.531 58.9166 173.014 56.6713C174.517 54.4451 175.579 51.7775 176.201 48.9084C176.833 46.0394 177.034 42.9784 176.967 39.8598C176.919 36.7317 176.536 33.6899 176.345 30.7249C176.153 27.7694 176.182 24.8428 176.88 22.1656C177.56 19.4884 179.005 17.1471 180.861 15.5351C182.699 13.8942 184.842 12.9251 186.88 12.5029C188.928 12.0903 190.852 12.2534 192.44 12.666C194.038 13.0882 195.32 13.7215 196.287 14.3644C197.253 14.9977 197.923 15.6118 198.335 16.0532C198.555 16.2643 198.689 16.4562 198.794 16.5714C198.89 16.6865 198.938 16.7537 198.938 16.7633C198.89 16.8209 198.115 15.7558 196.182 14.5371C195.215 13.9326 193.942 13.3377 192.373 12.9539C190.813 12.57 188.938 12.4453 186.957 12.8675C184.986 13.2897 182.909 14.2589 181.139 15.8613C179.349 17.435 177.981 19.6899 177.33 22.2903C176.66 24.8907 176.641 27.7694 176.833 30.7057C177.024 33.6515 177.416 36.7029 177.464 39.8598C177.531 43.0072 177.33 46.1065 176.68 49.0332C176.038 51.9406 174.947 54.6754 173.397 56.9495C171.876 59.2429 169.924 61.066 167.857 62.371C165.771 63.6568 163.531 64.3381 161.455 64.482C159.378 64.5972 157.531 64.3285 155.914 64.4533C154.297 64.53 152.967 65.0482 152.048 65.7103C151.12 66.3628 150.642 67.1496 150.431 67.7062C150.22 68.2723 150.22 68.5985 150.192 68.589L150.201 68.5794Z" fill="#455A64"/>
<path d="M198.172 9.54737C198.201 9.4994 198.641 9.72009 199.158 10.3054C199.665 10.8812 200.22 11.8695 200.316 13.0785C200.421 14.2876 200.048 15.3527 199.636 16.0052C199.225 16.6673 198.832 16.9551 198.794 16.9168C198.737 16.8688 199.024 16.5042 199.32 15.8421C199.627 15.1896 199.904 14.2108 199.808 13.1169C199.713 12.0326 199.273 11.1115 198.861 10.5165C198.45 9.9216 198.105 9.60495 198.153 9.54737H198.172Z" fill="#455A64"/>
<path d="M217.282 34.4382C217.282 34.4382 217.167 34.016 217.024 33.258C216.88 32.4999 216.67 31.3964 216.382 30.0434C216.095 28.6905 215.732 27.088 215.253 25.3224C215.014 24.4396 214.746 23.5281 214.411 22.5973C214.086 21.6569 213.665 20.7645 213.024 19.9393C211.799 18.2697 210.182 17.0319 208.526 16.3794C206.861 15.7173 205.196 15.6693 203.875 15.9284C202.536 16.1779 201.54 16.7056 200.909 17.1278C200.277 17.5596 199.971 17.8667 199.942 17.8283C199.933 17.8187 200 17.7323 200.134 17.5788C200.268 17.4253 200.488 17.2142 200.794 16.9743C201.407 16.4945 202.411 15.89 203.799 15.5925C205.167 15.2759 206.928 15.2855 208.689 15.9572C210.44 16.6192 212.153 17.9146 213.426 19.6514C214.076 20.5055 214.545 21.4938 214.87 22.4438C215.205 23.3937 215.464 24.3245 215.693 25.2169C216.143 27.0016 216.478 28.6233 216.727 29.9859C216.976 31.3484 217.129 32.4711 217.215 33.2388C217.301 34.0064 217.311 34.4382 217.282 34.4478V34.4382Z" fill="#455A64"/>
<path d="M199.167 17.291C199.158 17.3678 197.952 17.1471 196.105 16.5522C195.177 16.2739 194.076 15.9189 192.832 15.7462C191.588 15.5638 190.191 15.6694 188.842 16.1876C187.493 16.6961 186.364 17.5405 185.56 18.5001C184.756 19.4596 184.268 20.5056 184 21.4171C183.464 23.2595 183.694 24.4973 183.589 24.4973C183.56 24.4973 183.474 24.2094 183.435 23.6529C183.397 23.106 183.416 22.2903 183.656 21.3212C183.895 20.3616 184.364 19.2389 185.196 18.2026C186.029 17.1663 187.225 16.2547 188.651 15.7078C190.077 15.1608 191.588 15.0649 192.88 15.276C194.182 15.4775 195.282 15.8805 196.201 16.1972C198.019 16.8784 199.167 17.2143 199.158 17.2719L199.167 17.291Z" fill="#455A64"/>
<path d="M89.4551 363.316C87.5221 366.08 83.7805 365.168 82.0389 363.479C80.2973 361.791 79.5701 359.344 78.9002 357.022C77.3691 351.696 75.8285 346.112 76.9672 340.68C77.3117 339.059 77.9146 337.437 79.0437 336.238C80.1825 335.038 81.9241 334.319 83.5222 334.741C85.4169 335.24 86.5843 337.101 87.436 338.867C89.9336 344.058 91.2541 349.815 91.2733 355.582C91.2733 358.279 90.967 361.1 89.4551 363.316" fill="#E8505B"/>
<g opacity="0.2">
<path d="M89.4551 363.316C87.5221 366.08 83.7805 365.168 82.0389 363.479C80.2973 361.791 79.5701 359.344 78.9002 357.022C77.3691 351.696 75.8285 346.112 76.9672 340.68C77.3117 339.059 77.9146 337.437 79.0437 336.238C80.1825 335.038 81.9241 334.319 83.5222 334.741C85.4169 335.24 86.5843 337.101 87.436 338.867C89.9336 344.058 91.2541 349.815 91.2733 355.582C91.2733 358.279 90.967 361.1 89.4551 363.316" fill="black"/>
</g>
<path d="M82.2207 377.307C79.0629 375.676 75.35 375.465 71.8477 376.04C69.9625 376.357 68.0008 376.913 66.7281 378.334C65.4458 379.754 65.2066 382.249 66.6707 383.467C67.5415 384.197 68.7663 384.302 69.9051 384.292C72.6515 384.264 75.6945 383.774 77.8763 385.434C79.1299 386.375 79.9624 387.948 81.4552 388.409C82.9193 388.86 84.5652 387.996 85.3403 386.672C86.1154 385.348 86.1441 383.698 85.7805 382.201C85.7805 382.201 85.3977 378.948 82.2207 377.307Z" fill="#E8505B"/>
<path d="M94.7469 367.279C92.6512 364.785 92.2589 361.148 93.1871 358.029C94.1153 354.911 96.2206 352.253 98.6512 350.084C101.493 347.541 104.843 345.565 108.441 344.298C109.857 343.799 111.35 343.406 112.842 343.55C114.335 343.694 115.838 344.461 116.536 345.795C117.57 347.762 116.574 350.151 115.512 352.099C113.627 355.534 111.484 358.816 109.082 361.916C107.158 364.41 104.948 366.867 102.01 367.989C99.0722 369.112 96.0196 368.987 94.4694 366.944" fill="#E8505B"/>
<path d="M89.5796 404.999C89.5796 404.999 89.4839 404.558 89.4073 403.742C89.3212 402.831 89.2064 401.679 89.0724 400.317C88.9097 398.877 88.6992 397.16 88.3068 395.289C87.9049 393.427 87.2829 391.403 86.4887 389.359C85.6562 387.324 84.6514 385.472 83.4648 383.995C82.2878 382.507 80.9289 381.433 79.6467 380.809C78.3644 380.176 77.2256 379.917 76.4314 379.802C75.6371 379.715 75.1874 379.658 75.1874 379.619C75.1874 379.581 75.6371 379.581 76.4601 379.6C77.2735 379.658 78.4696 379.859 79.8093 380.473C81.1586 381.078 82.6036 382.172 83.838 383.688C85.082 385.194 86.1251 387.094 86.9672 389.167C87.7805 391.249 88.393 393.293 88.7757 395.193C89.1585 397.093 89.3308 398.83 89.4456 400.278C89.5509 401.737 89.5987 402.908 89.6178 403.723C89.637 404.539 89.6178 404.99 89.5891 404.99L89.5796 404.999Z" fill="#263238"/>
<path d="M89.3498 402.361C89.3498 402.361 89.3211 402.159 89.3115 401.776C89.3115 401.334 89.3115 400.787 89.3115 400.106C89.3115 398.657 89.3115 396.565 89.235 393.984C89.1106 388.812 88.6608 381.682 87.8092 373.843C86.9479 366.003 85.7996 358.941 84.7566 353.884C84.5078 352.617 84.259 351.476 84.0293 350.478C83.8092 349.48 83.6178 348.616 83.436 347.916C83.2829 347.254 83.1489 346.726 83.0437 346.294C82.9575 345.92 82.9288 345.728 82.9384 345.718C82.9575 345.718 83.0245 345.901 83.1394 346.265C83.2638 346.687 83.4264 347.215 83.6178 347.858C83.8283 348.549 84.0484 349.413 84.2972 350.41C84.5556 351.408 84.8331 352.541 85.1011 353.807C86.2398 358.864 87.4455 365.927 88.3068 373.785C89.168 381.644 89.5508 388.793 89.589 393.974C89.6178 396.565 89.5603 398.657 89.5029 400.106C89.4646 400.787 89.4264 401.334 89.3977 401.776C89.369 402.159 89.3402 402.351 89.3307 402.351L89.3498 402.361Z" fill="#263238"/>
<path d="M89.3116 388.562C89.3116 388.562 89.2829 387.939 89.3212 386.826C89.3882 385.703 89.5413 384.091 89.8571 382.114C90.192 380.138 90.6513 377.796 91.3881 375.244C92.0867 372.682 93.0341 369.928 94.2493 367.116C96.6225 361.465 99.8569 356.84 102.661 353.98C103.321 353.222 104.058 352.675 104.642 352.138C104.948 351.879 105.216 351.62 105.484 351.418C105.761 351.226 106.01 351.053 106.249 350.89C107.177 350.257 107.694 349.921 107.713 349.95C107.799 350.065 105.646 351.332 102.919 354.239C100.211 357.137 97.0723 361.724 94.7182 367.328C93.5125 370.11 92.5556 372.845 91.8379 375.378C91.0819 377.902 90.5843 380.224 90.2111 382.181C89.8571 384.139 89.6465 385.741 89.5221 386.854C89.4169 387.968 89.3403 388.582 89.3116 388.582V388.562Z" fill="#263238"/>
</g>
<defs>
<linearGradient id="paint0_linear_17_1724" x1="247.436" y1="128.135" x2="247.436" y2="296.685" gradientUnits="userSpaceOnUse">
<stop stop-color="#000AFF"/>
<stop offset="1" stop-color="#D274FF"/>
</linearGradient>
<linearGradient id="paint1_linear_17_1724" x1="301.836" y1="180.885" x2="301.836" y2="205.642" gradientUnits="userSpaceOnUse">
<stop stop-color="#000AFF"/>
<stop offset="1" stop-color="#D274FF"/>
</linearGradient>
<linearGradient id="paint2_linear_17_1724" x1="196.641" y1="67.6519" x2="196.641" y2="147.906" gradientUnits="userSpaceOnUse">
<stop stop-color="#000AFF"/>
<stop offset="1" stop-color="#D274FF"/>
</linearGradient>
<linearGradient id="paint3_linear_17_1724" x1="225.89" y1="72.897" x2="225.89" y2="121.58" gradientUnits="userSpaceOnUse">
<stop stop-color="#000AFF"/>
<stop offset="1" stop-color="#D274FF"/>
</linearGradient>
<linearGradient id="paint4_linear_17_1724" x1="170.842" y1="68.1567" x2="170.842" y2="116.662" gradientUnits="userSpaceOnUse">
<stop stop-color="#000AFF"/>
<stop offset="1" stop-color="#D274FF"/>
</linearGradient>
<clipPath id="clip0_17_1724">
<rect width="423" height="405" fill="white" transform="translate(0.595459 -0.000488281)"/>
</clipPath>
</defs>
</svg>
