<svg width="120" height="120" viewBox="0 0 120 120" fill="none" xmlns="http://www.w3.org/2000/svg">
<g opacity="0.1">
<path d="M63.75 0C32.625 0 7.5 25.125 7.5 56.25C7.5 69 11.625 81 19.5 90.75L11.625 114.75C11.25 116.25 11.625 117.75 12.75 118.875C13.125 119.625 14.25 120 15 120C15.375 120 16.125 120 16.5 119.625L42.375 108C49.125 111 56.25 112.5 63.75 112.5C94.875 112.5 120 87.375 120 56.25C120 25.125 94.875 0 63.75 0Z" fill="#25D366"/>
<path d="M96.375 76.875C94.875 81.375 89.25 85.125 84.375 85.875C83.25 86.25 82.125 86.25 80.625 86.25C77.625 86.25 73.125 85.5 65.25 82.125C56.25 78.375 47.25 70.5 40.125 60.375V60C37.875 56.625 33.75 50.25 33.75 43.5C33.75 35.25 37.875 31.125 39.375 29.25C41.25 27.375 43.875 26.25 46.875 26.25C47.625 26.25 48 26.25 48.75 26.25C51.375 26.25 53.25 27 55.125 30.75L56.625 33.75C57.75 36.75 59.25 40.125 59.625 40.5C60.75 42.75 60.75 44.625 59.625 46.5C59.25 47.625 58.5 48.375 57.75 49.125C57.375 49.875 57 50.25 56.625 50.25C56.25 50.625 56.25 50.625 55.875 51C57 52.875 59.25 56.25 62.25 58.875C66.75 63 70.125 64.125 72 64.875C72.75 64.125 73.5 62.625 74.625 61.5L75 60.75C76.875 58.125 79.875 57.375 82.875 58.5C84.375 59.25 92.625 63 92.625 63L93.375 63.375C94.5 64.125 96 64.5 96.75 66C98.25 69.375 97.125 74.25 96.375 76.875Z" fill="white"/>
</g>
</svg>
