<svg width="17" height="17" viewBox="0 0 17 17" fill="none" xmlns="http://www.w3.org/2000/svg">
<path d="M1.41886 15.5833L2.37653 12.0643C1.7455 10.9826 1.41397 9.75229 1.41603 8.49996C1.41603 4.58783 4.58723 1.41663 8.49936 1.41663C12.4115 1.41663 15.5827 4.58783 15.5827 8.49996C15.5827 12.4121 12.4115 15.5833 8.49936 15.5833C7.24758 15.5853 6.01782 15.254 4.93644 14.6235L1.41886 15.5833ZM5.94298 5.17646C5.85151 5.18214 5.76213 5.20623 5.68019 5.24729C5.60335 5.29081 5.53321 5.3452 5.47194 5.40879C5.38694 5.48883 5.33878 5.55825 5.28707 5.62554C5.02527 5.96625 4.88446 6.38446 4.88686 6.81413C4.88828 7.16121 4.97894 7.49908 5.12061 7.815C5.41032 8.45392 5.88703 9.13038 6.51673 9.75725C6.66832 9.90813 6.81636 10.0597 6.97573 10.2007C7.7573 10.8888 8.68866 11.385 9.69573 11.6499L10.0988 11.7115C10.2298 11.7186 10.3609 11.7087 10.4926 11.7023C10.6989 11.6917 10.9003 11.6358 11.0827 11.5387C11.2002 11.4764 11.2555 11.4452 11.3539 11.3829C11.3539 11.3829 11.3844 11.363 11.4425 11.3191C11.5381 11.2483 11.5969 11.198 11.6762 11.1151C11.735 11.0542 11.786 10.9827 11.825 10.9012C11.8802 10.7858 11.9355 10.5655 11.9581 10.382C11.9752 10.2418 11.9702 10.1653 11.9681 10.1178C11.9652 10.042 11.9022 9.96338 11.8335 9.93009L11.4212 9.74521C11.4212 9.74521 10.805 9.47675 10.4289 9.30534C10.3892 9.28805 10.3467 9.2782 10.3035 9.27629C10.255 9.27132 10.2061 9.27677 10.1599 9.29228C10.1137 9.3078 10.0714 9.33302 10.0357 9.36625V9.36483C10.0322 9.36483 9.98473 9.40521 9.47261 10.0257C9.44321 10.0652 9.40273 10.0951 9.3563 10.1115C9.30988 10.1279 9.25962 10.1301 9.21194 10.1178C9.16579 10.1055 9.12058 10.0898 9.07665 10.071C8.98882 10.0342 8.95836 10.02 8.89815 9.99383L8.89461 9.99242C8.48938 9.81549 8.11418 9.57652 7.78253 9.28408C7.69328 9.20617 7.6104 9.12117 7.5254 9.039C7.24673 8.77213 7.00386 8.47022 6.8029 8.14083L6.76111 8.07354C6.73109 8.02833 6.70682 7.97955 6.68886 7.92833C6.66194 7.82421 6.73207 7.74063 6.73207 7.74063C6.73207 7.74063 6.90419 7.55221 6.98423 7.45021C7.05088 7.36544 7.11306 7.27725 7.17053 7.186C7.25411 7.05142 7.28032 6.91329 7.2364 6.80633C7.03807 6.32183 6.83265 5.83946 6.62157 5.36063C6.57978 5.26571 6.45582 5.19771 6.34319 5.18425C6.30494 5.18 6.26669 5.17575 6.22844 5.17292C6.13332 5.16819 6.038 5.16914 5.94298 5.17575V5.17646Z" fill="#24A803"/>
</svg>
