<svg width="14" height="14" viewBox="0 0 14 14" fill="none" xmlns="http://www.w3.org/2000/svg">
<g clip-path="url(#clip0_537_16012)">
<path d="M7 13.7812C10.7406 13.7812 13.7812 10.7406 13.7812 7C13.7812 3.25937 10.7406 0.21875 7 0.21875C3.25937 0.21875 0.21875 3.25937 0.21875 7C0.21875 10.7406 3.25937 13.7812 7 13.7812ZM1.75 9.70156L4.50625 9.67969C4.8125 10.7844 5.32656 11.8562 6.02656 12.8187C4.15625 12.5125 2.59219 11.3203 1.75 9.70156ZM5.20625 5.14062H8.64062C8.89219 6.34375 8.89219 7.57969 8.6625 8.78281L5.20625 8.80469C4.95469 7.59062 4.95469 6.34375 5.20625 5.14062ZM6.92344 12.5672C6.23438 11.6813 5.73125 10.7078 5.425 9.67969L8.43281 9.65781C8.11562 10.6859 7.6125 11.6703 6.92344 12.5672ZM7.79844 12.8516C8.52031 11.8672 9.03438 10.7844 9.34062 9.64687L12.2828 9.625C11.4297 11.3422 9.76719 12.5781 7.79844 12.8516ZM12.9062 7C12.9062 7.6125 12.8078 8.20312 12.6438 8.75L9.54844 8.77187C9.76719 7.56875 9.75625 6.34375 9.52656 5.14062H12.6C12.7969 5.72031 12.9062 6.35469 12.9062 7ZM12.2281 4.26562H9.31875C9.00156 3.17188 8.49844 2.11094 7.79844 1.14844C9.73438 1.41094 11.3641 2.60313 12.2281 4.26562ZM8.41094 4.26562H5.43594C5.75313 3.25938 6.24531 2.30781 6.92344 1.43281C7.60156 2.30781 8.09375 3.25938 8.41094 4.26562ZM6.02656 1.18125C5.3375 2.13281 4.83438 3.17188 4.52813 4.26562H1.77188C2.61406 2.65781 4.16719 1.4875 6.02656 1.18125ZM4.32031 5.14062C4.09063 6.35469 4.09063 7.59062 4.30938 8.80469L1.38906 8.82656C1.19219 8.24687 1.09375 7.63438 1.09375 7C1.09375 6.35469 1.20312 5.72031 1.4 5.14062H4.32031Z" fill="white"/>
</g>
<defs>
<clipPath id="clip0_537_16012">
<rect width="14" height="14" fill="white"/>
</clipPath>
</defs>
</svg>
