<svg width="16" height="16" viewBox="0 0 16 16" fill="none" xmlns="http://www.w3.org/2000/svg">
<path fill-rule="evenodd" clip-rule="evenodd" d="M7.08772 4.03922C7.46616 4.45871 7.34617 4.93395 7.01156 5.38487C6.93223 5.49178 6.84079 5.59712 6.73034 5.7132C6.67733 5.76891 6.636 5.81081 6.54953 5.89736C6.35317 6.09391 6.18811 6.25907 6.05433 6.39284C5.98945 6.45771 6.43238 7.3428 7.29198 8.20325C8.15111 9.06322 9.03616 9.50645 9.10134 9.44124L9.59621 8.9461C9.86872 8.67331 10.013 8.5417 10.2114 8.4116C10.6236 8.14112 11.0733 8.06762 11.4526 8.40675C12.6909 9.29253 13.3916 9.83609 13.7349 10.1928C14.4045 10.8885 14.3168 11.9595 13.7387 12.5705C13.5383 12.7823 13.2841 13.0366 12.984 13.326C11.1682 15.1428 7.33602 14.0372 4.39908 11.0973C1.46148 8.15685 0.356442 4.32433 2.16842 2.51137C2.49373 2.18096 2.60098 2.07376 2.9178 1.76159C3.50766 1.18038 4.62803 1.08937 5.3091 1.76216C5.66734 2.11605 6.23848 2.8509 7.08772 4.03922ZM10.5091 9.85935L10.0142 10.3546C9.17285 11.1964 7.74004 10.4788 6.37894 9.1164C5.01691 7.75302 4.30016 6.32075 5.14177 5.4792C5.27537 5.34561 5.44028 5.18061 5.63649 4.98421C5.71566 4.90496 5.75187 4.86826 5.79534 4.82257C5.85456 4.76033 5.90322 4.70567 5.94219 4.6573C5.18955 3.60889 4.67792 2.95379 4.40211 2.68133C4.25967 2.54062 3.94072 2.56653 3.82362 2.6819C3.51133 2.98962 3.40868 3.09221 3.08469 3.42127C1.9194 4.5872 2.81147 7.68108 5.31212 10.1842C7.812 12.6865 10.9054 13.579 12.0796 12.4044C12.3751 12.1193 12.6159 11.8784 12.8012 11.6825C12.9352 11.5409 12.9591 11.2488 12.805 11.0887C12.5484 10.8221 11.9202 10.3323 10.8354 9.55327C10.7563 9.61691 10.6591 9.70922 10.5091 9.85935ZM12.9167 3.49661L9.49836 6.91494L8.58501 6.00159L12.0033 2.58327H9.68752V1.2916H14.2084V5.81243H12.9167V3.49661Z" fill="white"/>
</svg>
