<svg width="18" height="18" viewBox="0 0 18 18" fill="none" xmlns="http://www.w3.org/2000/svg">
<path d="M2.85232 7.3125H5.99748V14.625H2.85232C2.71329 14.625 2.57996 14.5657 2.48166 14.4602C2.38335 14.3548 2.32813 14.2117 2.32812 14.0625V7.875C2.32812 7.72582 2.38335 7.58274 2.48166 7.47725C2.57996 7.37176 2.71329 7.3125 2.85232 7.3125V7.3125Z" stroke="white" stroke-linecap="round" stroke-linejoin="round"/>
<path d="M5.99609 7.3125L8.61706 1.6875C9.17316 1.6875 9.70648 1.92455 10.0997 2.34651C10.4929 2.76847 10.7138 3.34076 10.7138 3.9375V5.625H14.7698C14.9184 5.62461 15.0654 5.65835 15.2009 5.72397C15.3364 5.7896 15.4573 5.88557 15.5553 6.00546C15.6534 6.12534 15.7264 6.26636 15.7695 6.41903C15.8126 6.57171 15.8247 6.7325 15.8051 6.89062L15.0188 13.6406C14.987 13.9116 14.8644 14.1609 14.6739 14.342C14.4834 14.5231 14.238 14.6237 13.9835 14.625H5.99609" stroke="white" stroke-linecap="round" stroke-linejoin="round"/>
</svg>
