<svg width="18" height="19" viewBox="0 0 18 19" fill="none" xmlns="http://www.w3.org/2000/svg">
<path d="M14.5147 9.84921V3.23891C14.5147 2.32347 13.7684 1.57715 12.8529 1.57715H1.66176C0.746324 1.57715 0 2.32347 0 3.23891V9.84921C0 10.7646 0.746324 11.511 1.66176 11.511H2.13603V13.5036C2.13603 13.8713 2.43382 14.1691 2.80515 14.1691C2.99632 14.1691 3.18015 14.0845 3.30882 13.9374L5.40809 11.5073H12.8566C13.7684 11.511 14.5147 10.7646 14.5147 9.84921ZM5.19853 10.6102C5.06618 10.6102 4.94485 10.6654 4.85662 10.7646L3.03309 12.8713V11.0588C3.03309 10.8088 2.83088 10.6066 2.58088 10.6066H1.66176C1.24265 10.6066 0.900735 10.2646 0.900735 9.84553V3.23891C0.900735 2.8198 1.24265 2.47788 1.66176 2.47788H12.8529C13.2721 2.47788 13.614 2.8198 13.614 3.23891V9.84921C13.614 10.2683 13.2721 10.6102 12.8529 10.6102H5.19853Z" fill="#D21E1E"/>
<path d="M14.694 16.6618C14.8227 16.8126 15.0065 16.8934 15.194 16.8934C15.2713 16.8934 15.3521 16.8787 15.4293 16.8493C15.694 16.7501 15.8632 16.5074 15.8632 16.2243V14.2317H16.3374C17.2529 14.2317 17.9992 13.4854 17.9992 12.5699V5.95962C17.9992 5.04418 17.2529 4.29785 16.3374 4.29785C16.0874 4.29785 15.8852 4.50006 15.8852 4.74638C15.8852 4.99638 16.0874 5.19859 16.3374 5.19859C16.7565 5.19859 17.0985 5.5405 17.0985 5.95962V12.5699C17.0985 12.989 16.7565 13.3309 16.3374 13.3309H15.4146C15.1646 13.3309 14.9624 13.5331 14.9624 13.7831V15.5956L13.1389 13.489C13.0543 13.3898 12.9293 13.3346 12.797 13.3346H6.03228C5.78228 13.3346 5.58008 13.5368 5.58008 13.7868C5.58008 14.0368 5.78228 14.239 6.03228 14.239H12.5911L14.694 16.6618Z" fill="#D21E1E"/>
<path d="M7.25747 7.23857C7.55391 7.23857 7.79423 6.99825 7.79423 6.7018C7.79423 6.40536 7.55391 6.16504 7.25747 6.16504C6.96102 6.16504 6.7207 6.40536 6.7207 6.7018C6.7207 6.99825 6.96102 7.23857 7.25747 7.23857Z" fill="#D21E1E"/>
<path d="M9.05434 7.23857C9.35079 7.23857 9.59111 6.99825 9.59111 6.7018C9.59111 6.40536 9.35079 6.16504 9.05434 6.16504C8.7579 6.16504 8.51758 6.40536 8.51758 6.7018C8.51758 6.99825 8.7579 7.23857 9.05434 7.23857Z" fill="#D21E1E"/>
<path d="M5.45864 7.23857C5.75509 7.23857 5.9954 6.99825 5.9954 6.7018C5.9954 6.40536 5.75509 6.16504 5.45864 6.16504C5.16219 6.16504 4.92188 6.40536 4.92188 6.7018C4.92188 6.99825 5.16219 7.23857 5.45864 7.23857Z" fill="#D21E1E"/>
</svg>
