<svg width="108" height="17" viewBox="0 0 108 17" fill="none" xmlns="http://www.w3.org/2000/svg">
<path d="M3.264 11.258L0.274 8.307L3.264 5.356H5.136L2.133 8.307L5.136 11.258H3.264ZM12.745 0.727999L9.20896 15.275H7.75296L11.276 0.727999H12.745ZM15.0937 5.356H16.9657L19.9557 8.307L16.9657 11.258H15.0937L18.0967 8.307L15.0937 5.356ZM37.4226 3.965L34.7446 13H33.0676L31.1696 6.162L29.1546 13L27.4906 13.013L24.9296 3.965H26.5026L28.3746 11.323L30.4026 3.965H32.0666L33.9516 11.284L35.8366 3.965H37.4226ZM39.3989 4.888C39.1303 4.888 38.9049 4.797 38.7229 4.615C38.5409 4.433 38.4499 4.20767 38.4499 3.939C38.4499 3.67033 38.5409 3.445 38.7229 3.263C38.9049 3.081 39.1303 2.99 39.3989 2.99C39.6589 2.99 39.8799 3.081 40.0619 3.263C40.2439 3.445 40.3349 3.67033 40.3349 3.939C40.3349 4.20767 40.2439 4.433 40.0619 4.615C39.8799 4.797 39.6589 4.888 39.3989 4.888ZM40.1269 5.837V13H38.6449V5.837H40.1269ZM41.5787 9.386C41.5787 8.66667 41.726 8.02967 42.0207 7.475C42.324 6.92033 42.7313 6.49133 43.2427 6.188C43.7627 5.876 44.339 5.72 44.9717 5.72C45.4397 5.72 45.899 5.824 46.3497 6.032C46.809 6.23133 47.173 6.5 47.4417 6.838V3.38H48.9367V13H47.4417V11.921C47.199 12.2677 46.861 12.5537 46.4277 12.779C46.003 13.0043 45.5133 13.117 44.9587 13.117C44.3347 13.117 43.7627 12.961 43.2427 12.649C42.7313 12.3283 42.324 11.8863 42.0207 11.323C41.726 10.751 41.5787 10.1053 41.5787 9.386ZM47.4417 9.412C47.4417 8.918 47.3377 8.489 47.1297 8.125C46.9303 7.761 46.666 7.48367 46.3367 7.293C46.0073 7.10233 45.652 7.007 45.2707 7.007C44.8893 7.007 44.534 7.10233 44.2047 7.293C43.8753 7.475 43.6067 7.748 43.3987 8.112C43.1993 8.46733 43.0997 8.892 43.0997 9.386C43.0997 9.88 43.1993 10.3133 43.3987 10.686C43.6067 11.0587 43.8753 11.3447 44.2047 11.544C44.5427 11.7347 44.898 11.83 45.2707 11.83C45.652 11.83 46.0073 11.7347 46.3367 11.544C46.666 11.3533 46.9303 11.076 47.1297 10.712C47.3377 10.3393 47.4417 9.906 47.4417 9.412ZM53.7692 5.72C54.3239 5.72 54.8135 5.83267 55.2382 6.058C55.6715 6.27467 56.0095 6.54767 56.2522 6.877V5.837H57.7472V13.117C57.7472 13.7757 57.6085 14.3607 57.3312 14.872C57.0539 15.392 56.6509 15.7993 56.1222 16.094C55.6022 16.3887 54.9782 16.536 54.2502 16.536C53.2795 16.536 52.4735 16.3063 51.8322 15.847C51.1909 15.3963 50.8269 14.781 50.7402 14.001H52.2092C52.3219 14.3737 52.5602 14.6727 52.9242 14.898C53.2969 15.132 53.7389 15.249 54.2502 15.249C54.8482 15.249 55.3292 15.067 55.6932 14.703C56.0659 14.339 56.2522 13.8103 56.2522 13.117V11.921C56.0009 12.259 55.6585 12.545 55.2252 12.779C54.8005 13.0043 54.3152 13.117 53.7692 13.117C53.1452 13.117 52.5732 12.961 52.0532 12.649C51.5419 12.3283 51.1345 11.8863 50.8312 11.323C50.5365 10.751 50.3892 10.1053 50.3892 9.386C50.3892 8.66667 50.5365 8.02967 50.8312 7.475C51.1345 6.92033 51.5419 6.49133 52.0532 6.188C52.5732 5.876 53.1452 5.72 53.7692 5.72ZM56.2522 9.412C56.2522 8.918 56.1482 8.489 55.9402 8.125C55.7409 7.761 55.4765 7.48367 55.1472 7.293C54.8179 7.10233 54.4625 7.007 54.0812 7.007C53.6999 7.007 53.3445 7.10233 53.0152 7.293C52.6859 7.475 52.4172 7.748 52.2092 8.112C52.0099 8.46733 51.9102 8.892 51.9102 9.386C51.9102 9.88 52.0099 10.3133 52.2092 10.686C52.4172 11.0587 52.6859 11.3447 53.0152 11.544C53.3532 11.7347 53.7085 11.83 54.0812 11.83C54.4625 11.83 54.8179 11.7347 55.1472 11.544C55.4765 11.3533 55.7409 11.076 55.9402 10.712C56.1482 10.3393 56.2522 9.906 56.2522 9.412ZM66.2588 9.243C66.2588 9.51167 66.2414 9.75433 66.2068 9.971H60.7338C60.7771 10.543 60.9894 11.0023 61.3708 11.349C61.7521 11.6957 62.2201 11.869 62.7748 11.869C63.5721 11.869 64.1354 11.5353 64.4648 10.868H66.0637C65.8471 11.5267 65.4528 12.0683 64.8808 12.493C64.3174 12.909 63.6154 13.117 62.7748 13.117C62.0901 13.117 61.4748 12.9653 60.9288 12.662C60.3914 12.35 59.9668 11.9167 59.6548 11.362C59.3514 10.7987 59.1998 10.1487 59.1998 9.412C59.1998 8.67533 59.3471 8.02967 59.6418 7.475C59.9451 6.91167 60.3654 6.47833 60.9028 6.175C61.4488 5.87167 62.0728 5.72 62.7748 5.72C63.4508 5.72 64.0531 5.86733 64.5818 6.162C65.1104 6.45667 65.5221 6.87267 65.8168 7.41C66.1114 7.93867 66.2588 8.54967 66.2588 9.243ZM64.7118 8.775C64.7031 8.229 64.5081 7.79133 64.1268 7.462C63.7454 7.13267 63.2731 6.968 62.7098 6.968C62.1984 6.968 61.7608 7.13267 61.3968 7.462C61.0328 7.78267 60.8161 8.22033 60.7468 8.775H64.7118ZM69.4462 7.046V11.011C69.4462 11.2797 69.5069 11.4747 69.6282 11.596C69.7582 11.7087 69.9749 11.765 70.2782 11.765H71.1882V13H70.0182C69.3509 13 68.8395 12.844 68.4842 12.532C68.1289 12.22 67.9512 11.713 67.9512 11.011V7.046H67.1062V5.837H67.9512V4.056H69.4462V5.837H71.1882V7.046H69.4462ZM75.4371 9.412C75.4371 8.67533 75.5844 8.02967 75.8791 7.475C76.1824 6.91167 76.5984 6.47833 77.1271 6.175C77.6557 5.87167 78.2624 5.72 78.9471 5.72C79.8137 5.72 80.5287 5.928 81.0921 6.344C81.6641 6.75133 82.0497 7.33633 82.2491 8.099H80.6501C80.5201 7.74367 80.3121 7.46633 80.0261 7.267C79.7401 7.06767 79.3804 6.968 78.9471 6.968C78.3404 6.968 77.8551 7.18467 77.4911 7.618C77.1357 8.04267 76.9581 8.64067 76.9581 9.412C76.9581 10.1833 77.1357 10.7857 77.4911 11.219C77.8551 11.6523 78.3404 11.869 78.9471 11.869C79.8051 11.869 80.3727 11.492 80.6501 10.738H82.2491C82.0411 11.466 81.6511 12.0467 81.0791 12.48C80.5071 12.9047 79.7964 13.117 78.9471 13.117C78.2624 13.117 77.6557 12.9653 77.1271 12.662C76.5984 12.35 76.1824 11.9167 75.8791 11.362C75.5844 10.7987 75.4371 10.1487 75.4371 9.412ZM86.833 13.117C86.157 13.117 85.546 12.9653 85 12.662C84.454 12.35 84.025 11.9167 83.713 11.362C83.401 10.7987 83.245 10.1487 83.245 9.412C83.245 8.684 83.4053 8.03833 83.726 7.475C84.0466 6.91167 84.4843 6.47833 85.039 6.175C85.5936 5.87167 86.2133 5.72 86.898 5.72C87.5826 5.72 88.2023 5.87167 88.757 6.175C89.3116 6.47833 89.7493 6.91167 90.07 7.475C90.3906 8.03833 90.551 8.684 90.551 9.412C90.551 10.14 90.3863 10.7857 90.057 11.349C89.7276 11.9123 89.277 12.35 88.705 12.662C88.1416 12.9653 87.5176 13.117 86.833 13.117ZM86.833 11.83C87.2143 11.83 87.5696 11.739 87.899 11.557C88.237 11.375 88.51 11.102 88.718 10.738C88.926 10.374 89.03 9.932 89.03 9.412C89.03 8.892 88.9303 8.45433 88.731 8.099C88.5316 7.735 88.2673 7.462 87.938 7.28C87.6086 7.098 87.2533 7.007 86.872 7.007C86.4906 7.007 86.1353 7.098 85.806 7.28C85.4853 7.462 85.2296 7.735 85.039 8.099C84.8483 8.45433 84.753 8.892 84.753 9.412C84.753 10.1833 84.948 10.7813 85.338 11.206C85.7366 11.622 86.235 11.83 86.833 11.83ZM91.522 9.386C91.522 8.66667 91.6693 8.02967 91.964 7.475C92.2673 6.92033 92.6747 6.49133 93.186 6.188C93.706 5.876 94.2823 5.72 94.915 5.72C95.383 5.72 95.8423 5.824 96.293 6.032C96.7523 6.23133 97.1163 6.5 97.385 6.838V3.38H98.88V13H97.385V11.921C97.1423 12.2677 96.8043 12.5537 96.371 12.779C95.9463 13.0043 95.4567 13.117 94.902 13.117C94.278 13.117 93.706 12.961 93.186 12.649C92.6747 12.3283 92.2673 11.8863 91.964 11.323C91.6693 10.751 91.522 10.1053 91.522 9.386ZM97.385 9.412C97.385 8.918 97.281 8.489 97.073 8.125C96.8737 7.761 96.6093 7.48367 96.28 7.293C95.9507 7.10233 95.5953 7.007 95.214 7.007C94.8327 7.007 94.4773 7.10233 94.148 7.293C93.8187 7.475 93.55 7.748 93.342 8.112C93.1427 8.46733 93.043 8.892 93.043 9.386C93.043 9.88 93.1427 10.3133 93.342 10.686C93.55 11.0587 93.8187 11.3447 94.148 11.544C94.486 11.7347 94.8413 11.83 95.214 11.83C95.5953 11.83 95.9507 11.7347 96.28 11.544C96.6093 11.3533 96.8737 11.076 97.073 10.712C97.281 10.3393 97.385 9.906 97.385 9.412ZM107.392 9.243C107.392 9.51167 107.374 9.75433 107.34 9.971H101.867C101.91 10.543 102.122 11.0023 102.504 11.349C102.885 11.6957 103.353 11.869 103.908 11.869C104.705 11.869 105.268 11.5353 105.598 10.868H107.197C106.98 11.5267 106.586 12.0683 106.014 12.493C105.45 12.909 104.748 13.117 103.908 13.117C103.223 13.117 102.608 12.9653 102.062 12.662C101.524 12.35 101.1 11.9167 100.788 11.362C100.484 10.7987 100.333 10.1487 100.333 9.412C100.333 8.67533 100.48 8.02967 100.775 7.475C101.078 6.91167 101.498 6.47833 102.036 6.175C102.582 5.87167 103.206 5.72 103.908 5.72C104.584 5.72 105.186 5.86733 105.715 6.162C106.243 6.45667 106.655 6.87267 106.95 7.41C107.244 7.93867 107.392 8.54967 107.392 9.243ZM105.845 8.775C105.836 8.229 105.641 7.79133 105.26 7.462C104.878 7.13267 104.406 6.968 103.843 6.968C103.331 6.968 102.894 7.13267 102.53 7.462C102.166 7.78267 101.949 8.22033 101.88 8.775H105.845Z" fill="white"/>
</svg>
