<svg width="16" height="15" viewBox="0 0 16 15" fill="none" xmlns="http://www.w3.org/2000/svg">
<path d="M7.81063 0.34082C3.72312 0.34082 0.453125 3.46218 0.453125 7.36389C0.453125 8.7685 0.943625 10.1731 1.76112 11.3436L0.616625 13.2164C0.453125 13.4505 0.453125 13.7627 0.616625 13.9968C0.780125 14.2309 0.943625 14.387 1.27062 14.387H7.81063C11.8981 14.387 15.1681 11.2656 15.1681 7.36389C15.1681 3.46218 11.8981 0.34082 7.81063 0.34082ZM7.81063 12.8263H2.74213L3.47787 11.6558C3.64137 11.3436 3.64137 11.0315 3.39612 10.7974C2.57862 9.86098 2.08812 8.61243 2.08812 7.36389C2.08812 4.32056 4.62238 1.9015 7.81063 1.9015C10.9989 1.9015 13.5331 4.32056 13.5331 7.36389C13.5331 10.4072 10.9989 12.8263 7.81063 12.8263Z" fill="white"/>
<path d="M7.89201 3.69629H7.81026C6.99276 3.69629 6.25701 4.08646 5.84826 4.71073C5.52126 5.1009 5.60301 5.56911 6.01176 5.80321C6.42051 6.03731 6.91101 5.95928 7.15626 5.56911C7.31976 5.335 7.56501 5.25697 7.81026 5.25697H7.89201C8.30076 5.25697 8.62776 5.56911 8.62776 5.95928C8.62776 6.27141 8.38251 6.58355 8.13726 6.66158L7.56501 6.81765C7.23801 6.89569 6.99276 7.20782 6.99276 7.51996V8.14423C6.99276 8.61244 7.31976 8.92457 7.81026 8.92457C8.21901 8.92457 8.62776 8.61244 8.62776 8.22227C9.60876 7.91013 10.2628 7.05175 10.2628 6.03731C10.2628 4.78877 9.20001 3.69629 7.89201 3.69629Z" fill="white"/>
<path d="M7.80969 11.2658C8.26118 11.2658 8.62719 10.9164 8.62719 10.4854C8.62719 10.0544 8.26118 9.70508 7.80969 9.70508C7.35819 9.70508 6.99219 10.0544 6.99219 10.4854C6.99219 10.9164 7.35819 11.2658 7.80969 11.2658Z" fill="white"/>
</svg>
