<svg width="19" height="19" viewBox="0 0 19 19" fill="none" xmlns="http://www.w3.org/2000/svg">
<g id="message-notif-svgrepo-com 2">
<path id="Vector" d="M17 8.30371V10.5537C17 13.5537 15.5 15.0537 12.5 15.0537H12.125C11.8925 15.0537 11.6675 15.1662 11.525 15.3537L10.4 16.8537C9.905 17.5137 9.095 17.5137 8.6 16.8537L7.475 15.3537C7.355 15.1887 7.0775 15.0537 6.875 15.0537H6.5C3.5 15.0537 2 14.3037 2 10.5537V6.80371C2 3.80371 3.5 2.30371 6.5 2.30371H11" stroke="#FF5C00" stroke-miterlimit="10" stroke-linecap="round" stroke-linejoin="round"/>
<path id="Vector_2" d="M15.125 6.05371C16.1605 6.05371 17 5.21424 17 4.17871C17 3.14318 16.1605 2.30371 15.125 2.30371C14.0895 2.30371 13.25 3.14318 13.25 4.17871C13.25 5.21424 14.0895 6.05371 15.125 6.05371Z" stroke="#FF5C00" stroke-linecap="round" stroke-linejoin="round"/>
<path id="Vector_3" d="M12.498 9.05371H12.5029" stroke="#FF5C00" stroke-linecap="round" stroke-linejoin="round"/>
<path id="Vector_4" d="M9.49609 9.05371H9.50097" stroke="#FF5C00" stroke-linecap="round" stroke-linejoin="round"/>
<path id="Vector_5" d="M6.49609 9.05371H6.50096" stroke="#FF5C00" stroke-linecap="round" stroke-linejoin="round"/>
</g>
</svg>
