<svg width="40" height="41" viewBox="0 0 40 41" fill="none" xmlns="http://www.w3.org/2000/svg">
<rect y="0.255371" width="40" height="40" rx="20" fill="#EDEDFB"/>
<path d="M27 20.2554H28C28.5304 20.2554 29.0391 20.4661 29.4142 20.8412C29.7893 21.2162 30 21.7249 30 22.2554V24.2554C30 24.7858 29.7893 25.2945 29.4142 25.6696C29.0391 26.0447 28.5304 26.2554 28 26.2554H27C26.7348 26.2554 26.4804 26.15 26.2929 25.9625C26.1054 25.7749 26 25.5206 26 25.2554V21.2554C26 20.9902 26.1054 20.7358 26.2929 20.5483C26.4804 20.3607 26.7348 20.2554 27 20.2554ZM13 26.2554H12C11.4696 26.2554 10.9609 26.0447 10.5858 25.6696C10.2107 25.2945 10 24.7858 10 24.2554V22.2554C10 21.7249 10.2107 21.2162 10.5858 20.8412C10.9609 20.4661 11.4696 20.2554 12 20.2554H13C13.2652 20.2554 13.5196 20.3607 13.7071 20.5483C13.8946 20.7358 14 20.9902 14 21.2554V25.2554C14 25.5206 13.8946 25.7749 13.7071 25.9625C13.5196 26.15 13.2652 26.2554 13 26.2554Z" fill="#A3D3FF"/>
<path d="M28.75 19.6254V18.2554C28.75 15.9347 27.8281 13.7091 26.1872 12.0682C24.5462 10.4272 22.3206 9.50537 20 9.50537C17.6794 9.50537 15.4538 10.4272 13.8128 12.0682C12.1719 13.7091 11.25 15.9347 11.25 18.2554V19.6254C10.6767 19.7879 10.1717 20.1322 9.81099 20.6065C9.45029 21.0808 9.25342 21.6595 9.25 22.2554V24.2554C9.25 24.9847 9.53973 25.6842 10.0555 26.1999C10.5712 26.7156 11.2707 27.0054 12 27.0054H13C13.4633 27.0027 13.9069 26.8175 14.2345 26.4899C14.5622 26.1623 14.7474 25.7187 14.75 25.2554V21.2554C14.7474 20.7921 14.5622 20.3485 14.2345 20.0208C13.9069 19.6932 13.4633 19.508 13 19.5054H12.75V18.2554C12.75 16.3326 13.5138 14.4885 14.8735 13.1288C16.2331 11.7692 18.0772 11.0054 20 11.0054C21.9228 11.0054 23.7669 11.7692 25.1265 13.1288C26.4862 14.4885 27.25 16.3326 27.25 18.2554V19.5054H27C26.5367 19.508 26.0931 19.6932 25.7655 20.0208C25.4378 20.3485 25.2526 20.7921 25.25 21.2554V25.2554C25.2526 25.7187 25.4378 26.1623 25.7655 26.4899C26.0931 26.8175 26.5367 27.0027 27 27.0054H27.25V28.2554C27.25 28.5869 27.1183 28.9048 26.8839 29.1393C26.6495 29.3737 26.3315 29.5054 26 29.5054H20C19.8011 29.5054 19.6103 29.5844 19.4697 29.725C19.329 29.8657 19.25 30.0565 19.25 30.2554C19.25 30.4543 19.329 30.6451 19.4697 30.7857C19.6103 30.9264 19.8011 31.0054 20 31.0054H26C26.7293 31.0054 27.4288 30.7156 27.9445 30.1999C28.4603 29.6842 28.75 28.9847 28.75 28.2554V26.8854C29.3233 26.7229 29.8283 26.3785 30.189 25.9042C30.5497 25.4299 30.7466 24.8513 30.75 24.2554V22.2554C30.7466 21.6595 30.5497 21.0808 30.189 20.6065C29.8283 20.1322 29.3233 19.7879 28.75 19.6254ZM13.25 21.2554V25.2554C13.25 25.3217 13.2237 25.3853 13.1768 25.4321C13.1299 25.479 13.0663 25.5054 13 25.5054H12C11.6685 25.5054 11.3505 25.3737 11.1161 25.1393C10.8817 24.9048 10.75 24.5869 10.75 24.2554V22.2554C10.75 21.9239 10.8817 21.6059 11.1161 21.3715C11.3505 21.1371 11.6685 21.0054 12 21.0054H13C13.0663 21.0054 13.1299 21.0317 13.1768 21.0786C13.2237 21.1255 13.25 21.1891 13.25 21.2554ZM29.25 24.2554C29.25 24.5869 29.1183 24.9048 28.8839 25.1393C28.6495 25.3737 28.3315 25.5054 28 25.5054H27C26.9337 25.5054 26.8701 25.479 26.8232 25.4321C26.7763 25.3853 26.75 25.3217 26.75 25.2554V21.2554C26.75 21.1891 26.7763 21.1255 26.8232 21.0786C26.8701 21.0317 26.9337 21.0054 27 21.0054H28C28.3315 21.0054 28.6495 21.1371 28.8839 21.3715C29.1183 21.6059 29.25 21.9239 29.25 22.2554V24.2554Z" fill="#000AFF"/>
</svg>
