<svg width="15" height="16" viewBox="0 0 15 16" fill="none" xmlns="http://www.w3.org/2000/svg">
<g clip-path="url(#clip0_375_7786)">
<path d="M5.3223 0.5L1.4375 4.60181V15.5H13.5621V0.5H5.3223ZM4.97917 2.22467V4.04215H3.25831L4.97917 2.22467ZM12.6246 14.5629H2.37503V4.97968H5.91718V1.43753H12.6246V14.5629Z" fill="#333333"/>
<path d="M6.42414 7.73867C6.48458 7.76056 6.53741 7.7915 6.58357 7.83242C6.63211 7.87763 6.67685 7.93379 6.71587 7.99947C6.76108 8.07561 6.80534 8.16365 6.84341 8.25265L7.13847 9.09214L6.33896 11.3898L5.33623 8.53295C5.27198 8.35592 5.22439 8.20981 5.19536 8.09512C5.15776 7.95235 5.15491 7.90095 5.15491 7.8881C5.15491 7.83956 5.17204 7.80339 5.21535 7.76627C5.26104 7.72582 5.34432 7.70488 5.45616 7.70488H5.73694V7.19138H3.18848V7.70488H3.36456C3.50733 7.70488 3.6206 7.72535 3.69198 7.76437C3.76051 7.80197 3.81429 7.8586 3.85664 7.93903C3.8752 7.97329 3.93184 8.11178 4.09555 8.56722L5.90113 13.6118H6.3066L7.52681 10.1682L8.75417 13.6118H9.1782L10.8743 8.70856C11.0276 8.24122 11.1023 8.0699 11.1356 8.00946C11.1718 7.94474 11.2094 7.89144 11.246 7.84956C11.2769 7.81434 11.3112 7.78531 11.3455 7.76437C11.3807 7.74343 11.4187 7.72868 11.4616 7.71916C11.5101 7.70916 11.5687 7.70393 11.6334 7.70393H11.8095V7.19043H9.68646V7.70393H9.86159C10.0291 7.70393 10.1633 7.72677 10.2614 7.77151C10.3204 7.79911 10.3418 7.83195 10.3418 7.90048C10.3418 7.96472 10.3175 8.13986 10.1595 8.59625L9.19438 11.3888L8.22591 8.6386C8.07029 8.2041 8.03841 8.00708 8.03841 7.91761C8.03841 7.82243 8.06887 7.78245 8.09314 7.76056C8.11503 7.73915 8.17594 7.70488 8.3349 7.70488H8.66803V7.19138H6.00535V7.70488H6.18096C6.27852 7.70583 6.36132 7.7163 6.42414 7.73867Z" fill="#333333"/>
</g>
<defs>
<clipPath id="clip0_375_7786">
<rect width="15" height="15" fill="white" transform="translate(0 0.5)"/>
</clipPath>
</defs>
</svg>
