<svg width="18" height="18" viewBox="0 0 18 18" fill="none" xmlns="http://www.w3.org/2000/svg">
<path d="M10.4265 1.30623V2.73779C12.339 2.74848 14.4315 2.7181 16.3446 2.74848C16.412 2.73674 16.4813 2.74091 16.5469 2.76064C16.6125 2.78037 16.6726 2.81512 16.7224 2.86214C16.7722 2.90916 16.8103 2.96714 16.8338 3.03148C16.8573 3.09582 16.8654 3.16475 16.8576 3.23279C16.8879 6.75741 16.8502 10.4834 16.8756 14.0086C16.8643 14.2336 16.8806 14.6375 16.8457 14.8619C16.8013 15.1482 16.6736 15.2034 16.3862 15.2422C16.2253 15.2641 15.9564 15.2613 15.7984 15.2686C14.2279 15.2607 12.6585 15.2624 11.088 15.263H10.4271V16.6957L1.125 15.2619C1.125 11.087 1.125 6.91323 1.125 2.7406L10.4265 1.30623Z" fill="#283C82"/>
<path d="M10.4265 3.27441H16.3328V14.7258H10.4265V13.2942H15.0784V12.5787H10.4265V11.6844H15.0784V10.9683H10.4265V10.0739H15.0784V9.35785H10.4265V8.46348H15.0784V7.74741H10.4265V6.85304H15.0784V6.13698H10.4265V5.2426H15.0784V4.52654H10.4265V3.27441Z" fill="white"/>
<path d="M4.82231 6.43709C5.15981 6.4174 5.50237 6.40334 5.84212 6.38534C6.08006 7.59302 6.32362 8.79902 6.58124 10.0016C6.78318 8.75965 7.00706 7.52159 7.22362 6.28184C7.58137 6.26946 7.93912 6.24977 8.29518 6.22559C7.89074 7.95921 7.53637 9.70746 7.09481 11.431C6.79612 11.5868 6.34893 11.4236 5.99456 11.449C5.75662 10.2643 5.47931 9.08646 5.26612 7.89734C5.05687 9.05665 4.78462 10.2002 4.54499 11.3488C4.20149 11.3308 3.85668 11.31 3.51056 11.2864C3.21356 9.7114 2.86481 8.14821 2.58749 6.56984C2.89349 6.55577 3.20118 6.54284 3.50718 6.53215C3.69168 7.67177 3.90093 8.80634 4.06181 9.94765C4.31381 8.77765 4.57199 7.60709 4.82231 6.43709Z" fill="white"/>
</svg>
