<svg width="18" height="19" viewBox="0 0 18 19" fill="none" xmlns="http://www.w3.org/2000/svg">
<g clip-path="url(#clip0_787_620378)">
<path d="M17.9998 8.7498C17.9998 4.20095 14.2366 0.5 9.611 0.5C7.26446 0.5 5.04502 1.45863 3.45823 3.14277C3.23345 2.91171 2.55948 2.48617 1.76149 3.06992L0.799959 3.83345C0.356866 4.18537 0.0948002 4.71637 0.0210002 5.41161C-0.189747 7.3972 1.19967 10.5351 3.56043 13.406C6.06628 16.4528 9.10252 18.5 11.1158 18.5H11.116C11.6627 18.5 12.1243 18.3537 12.4878 18.0652L13.4491 17.3018C13.7219 17.085 13.8988 16.768 13.9345 16.4321C13.9554 16.2355 13.9284 16.0423 13.8576 15.8659C16.4227 14.3852 17.9998 11.6942 17.9998 8.7498ZM12.9825 16.7144L12.0214 17.4777C11.7938 17.6584 11.4891 17.75 11.1159 17.75H11.1158C9.34258 17.75 6.47385 15.7677 4.13977 12.9296C1.93466 10.2482 0.57911 7.25882 0.766788 5.49074C0.818437 5.00294 0.986682 4.64298 1.26649 4.42088L2.2278 3.65735C2.55048 3.41317 2.86408 3.58061 2.94376 3.691L4.77847 5.92193C4.93496 6.10696 4.89243 6.41403 4.66364 6.59888C4.14311 7.01945 3.82025 7.6345 3.74006 8.39035C3.61226 9.59558 4.11435 11.0185 5.08333 12.1968C6.15118 13.4952 7.62703 14.3018 8.93511 14.3016C9.55384 14.3016 10.1112 14.1187 10.5466 13.7728C10.7671 13.5979 11.1051 13.6151 11.2626 13.8064L13.0975 16.0372C13.3065 16.3439 13.1269 16.5759 12.9825 16.7144ZM13.4219 15.251L11.8419 13.3302C11.6299 13.0265 10.9136 12.5909 10.0803 13.1854C9.7622 13.4123 9.38905 13.5516 8.93497 13.5516C7.84549 13.5518 6.59155 12.8499 5.66268 11.7203C4.81874 10.6942 4.37873 9.47895 4.48585 8.46948C4.54444 7.91817 4.76683 7.47419 5.13021 7.18626C5.45083 6.93224 5.94392 6.20067 5.35778 5.44548L3.94195 3.72384C5.39106 2.14858 7.44112 1.25001 9.611 1.25001C13.823 1.25001 17.2498 4.6144 17.2498 8.74984C17.2498 11.4474 15.7907 13.9118 13.4219 15.251Z" fill="#645DF6"/>
<path d="M10.9238 2.86719H10.1738V8.51158L12.9737 10.2451L13.3685 9.60745L10.9238 8.09376V2.86719Z" fill="#645DF6"/>
</g>
<defs>
<clipPath id="clip0_787_620378">
<rect width="18" height="18" fill="white" transform="translate(0 0.5)"/>
</clipPath>
</defs>
</svg>
