<svg width="22" height="22" viewBox="0 0 22 22" fill="none" xmlns="http://www.w3.org/2000/svg">
<g id="x">
<path id="bg" d="M0 11C0 17.0751 4.92487 22 11 22C17.0751 22 22 17.0751 22 11C22 4.92487 17.0751 0 11 0C4.92487 0 0 4.92487 0 11Z" fill="black"/>
<path id="Vector" d="M12.0465 10.1577L16.1415 5.5H15.1711L11.6154 9.54426L8.77551 5.5H5.5L9.79451 11.6156L5.5 16.5H6.47044L10.2253 12.2291L13.2245 16.5H16.5L12.0463 10.1577H12.0465ZM10.7173 11.6695L10.2822 11.0605L6.8201 6.21482H8.31064L11.1046 10.1255L11.5397 10.7344L15.1716 15.8177H13.681L10.7173 11.6697V11.6695Z" fill="white"/>
</g>
</svg>
