<svg width="22" height="22" viewBox="0 0 22 22" fill="none" xmlns="http://www.w3.org/2000/svg">
<g id="youtube">
<path id="bg" d="M0 11C0 17.0751 4.92487 22 11 22C17.0751 22 22 17.0751 22 11C22 4.92487 17.0751 0 11 0C4.92487 0 0 4.92487 0 11Z" fill="#FF0000"/>
<path id="youtube_2" d="M16.225 8.31865C16.0875 7.8374 15.7438 7.49365 15.2625 7.35615C14.4375 7.1499 10.9312 7.1499 10.9312 7.1499C10.9312 7.1499 7.49375 7.1499 6.6 7.35615C6.11875 7.49365 5.775 7.8374 5.6375 8.31865C5.5 9.2124 5.5 10.9999 5.5 10.9999C5.5 10.9999 5.5 12.7874 5.70625 13.6812C5.84375 14.1624 6.1875 14.5062 6.66875 14.6437C7.49375 14.8499 11 14.8499 11 14.8499C11 14.8499 14.4375 14.8499 15.3312 14.6437C15.8125 14.5062 16.1563 14.1624 16.2938 13.6812C16.5 12.7874 16.5 10.9999 16.5 10.9999C16.5 10.9999 16.5 9.2124 16.225 8.31865ZM9.9 12.6499V9.3499L12.7875 10.9999L9.9 12.6499Z" fill="white"/>
</g>
</svg>
