<svg width="16" height="12" viewBox="0 0 16 12" fill="none" xmlns="http://www.w3.org/2000/svg">
<path fill-rule="evenodd" clip-rule="evenodd" d="M8.03413 0.75C8.46023 0.750743 12.7489 0.76561 13.8597 1.06295C14.5055 1.23435 15.0132 1.74109 15.1865 2.38942C15.4874 3.5126 15.4995 5.80332 15.5 5.98478V6.00773C15.4995 6.18974 15.4874 8.48732 15.1865 9.6105C15.0132 10.2588 14.5055 10.7656 13.8597 10.937C12.7139 11.2437 8.18619 11.2498 8.00554 11.25H7.99442C7.81374 11.2498 3.28533 11.2437 2.13873 10.937C1.49373 10.7656 0.98523 10.2588 0.81273 9.6105C0.51249 8.48732 0.50048 6.18974 0.5 6.00773V5.98478C0.50048 5.80332 0.51249 3.5126 0.81273 2.38942C0.98523 1.74109 1.49373 1.23435 2.13873 1.06295C3.25023 0.76561 7.53966 0.750743 7.96582 0.75H8.03413ZM6.46548 3.78296V8.21696L10.3865 5.99623L6.46548 3.78296Z" fill="#8190B7"/>
</svg>
