<svg width="16" height="22" viewBox="0 0 16 22" fill="none" xmlns="http://www.w3.org/2000/svg">
<path fill-rule="evenodd" clip-rule="evenodd" d="M5.15625 12.1013V11.2812H4.375V10.5H5.15625V9.71875H4.375V8.9375H5.15625V8.15625H4.375V7.375H5.15625V6.59375H4.375V5.8125H5.15625V5.03125H4.375V4.25H5.15625V3.46875H4.375V2.6875H5.15625V1.90625H4.375V1.125H5.15625V0.34375H2.03791C1.17129 0.34375 0.46875 1.04558 0.46875 1.91198V19.8693C0.46875 20.7354 1.16479 21.4375 2.02924 21.4375H13.752C14.6138 21.4375 15.3125 20.7415 15.3125 19.877V6.59375H11.4109C10.5454 6.59375 9.84375 5.90101 9.84375 5.03273V0.34375H6.71875V1.125H5.9375V1.90625H6.71875V2.6875H5.9375V3.46875H6.71875V4.25H5.9375V5.03125H6.71875V5.8125H5.9375V6.59375H6.71875V7.375H5.9375V8.15625H6.71875V8.9375H5.9375V9.71875H6.71875V10.5H5.9375V11.2812V12.1011C6.83371 12.2813 7.5 13.07 7.5 14.0156C7.5 15.1018 6.62556 15.9688 5.54688 15.9688C4.46067 15.9688 3.59375 15.0943 3.59375 14.0156C3.59375 13.0641 4.26475 12.2809 5.15625 12.1013ZM10.625 0.34375V5.02896C10.625 5.4617 10.9773 5.8125 11.399 5.8125H15.3125L10.625 0.34375ZM5.54688 12.8438C4.89967 12.8438 4.375 13.3639 4.375 14.0156C4.375 14.6628 4.89515 15.1875 5.54688 15.1875C6.19408 15.1875 6.71875 14.6673 6.71875 14.0156C6.71875 13.3684 6.1986 12.8438 5.54688 12.8438Z" fill="#157EFB"/>
</svg>
