<svg width="31" height="31" viewBox="0 0 31 31" fill="none" xmlns="http://www.w3.org/2000/svg">
<rect x="0.395599" y="0.5" width="30" height="30" rx="15" fill="#CCE3FE"/>
<path d="M8.01607 11.0552H21.8622V20.4996C21.8622 20.647 21.8014 20.7883 21.6932 20.8925C21.5851 20.9966 21.4383 21.0552 21.2853 21.0552H8.59299C8.43998 21.0552 8.29324 20.9966 8.18504 20.8925C8.07685 20.7883 8.01607 20.647 8.01607 20.4996V11.0552Z" stroke="#333333" stroke-linecap="round" stroke-linejoin="round"/>
<path d="M21.8622 11.0552L14.9391 17.1663L8.01607 11.0552" stroke="#333333" stroke-linecap="round" stroke-linejoin="round"/>
<path d="M21.5695 16.9922L21.7759 17.3973C21.8792 17.5964 22.1373 17.7812 22.3659 17.8238L22.6461 17.8665C23.4867 18.0015 23.6858 18.5986 23.0811 19.1885L22.823 19.4373C22.6534 19.6079 22.5576 19.9348 22.6092 20.1623L22.6461 20.3116C22.8747 21.2924 22.3364 21.6691 21.4515 21.1574L21.2598 21.0508C21.0312 20.9228 20.6625 20.9228 20.4339 21.0508L20.2422 21.1574C19.3499 21.6763 18.8116 21.2924 19.0476 20.3116L19.0844 20.1623C19.136 19.9348 19.0402 19.6079 18.8706 19.4373L18.6125 19.1885C18.0079 18.5986 18.207 18.0015 19.0476 17.8665L19.3278 17.8238C19.549 17.7883 19.8145 17.5964 19.9177 17.3973L20.1242 16.9922C20.5224 16.2174 21.1713 16.2174 21.5695 16.9922Z" fill="#CCE3FE" stroke="#333333" stroke-linecap="round" stroke-linejoin="round"/>
</svg>
