<svg width="30" height="31" viewBox="0 0 30 31" fill="none" xmlns="http://www.w3.org/2000/svg">
<path fill-rule="evenodd" clip-rule="evenodd" d="M5.625 9.20312H6.875C7.22019 9.20312 7.5 9.48294 7.5 9.82812C7.5 10.1733 7.22019 10.4531 6.875 10.4531H5.625C5.27983 10.4531 5 10.1733 5 9.82812C5 9.48294 5.27983 9.20312 5.625 9.20312ZM10.625 9.20312H24.375C24.7202 9.20312 25 9.48294 25 9.82812C25 10.1733 24.7202 10.4531 24.375 10.4531H10.625C10.2798 10.4531 10 10.1733 10 9.82812C10 9.48294 10.2798 9.20312 10.625 9.20312ZM6.875 16.7031H5.625C5.27983 16.7031 5 16.9829 5 17.3281C5 17.6733 5.27983 17.9531 5.625 17.9531H6.875C7.22019 17.9531 7.5 17.6733 7.5 17.3281C7.5 16.9829 7.22019 16.7031 6.875 16.7031ZM10.625 16.7031H24.375C24.7202 16.7031 25 16.9829 25 17.3281C25 17.6733 24.7202 17.9531 24.375 17.9531H10.625C10.2798 17.9531 10 17.6733 10 17.3281C10 16.9829 10.2798 16.7031 10.625 16.7031ZM6.875 12.9531H5.625C5.27983 12.9531 5 13.2329 5 13.5781C5 13.9233 5.27983 14.2031 5.625 14.2031H6.875C7.22019 14.2031 7.5 13.9233 7.5 13.5781C7.5 13.2329 7.22019 12.9531 6.875 12.9531ZM10.625 12.9531H19.375C19.7202 12.9531 20 13.2329 20 13.5781C20 13.9233 19.7202 14.2031 19.375 14.2031H10.625C10.2798 14.2031 10 13.9233 10 13.5781C10 13.2329 10.2798 12.9531 10.625 12.9531ZM6.875 20.4531H5.625C5.27983 20.4531 5 20.7329 5 21.0781C5 21.4233 5.27983 21.7031 5.625 21.7031H6.875C7.22019 21.7031 7.5 21.4233 7.5 21.0781C7.5 20.7329 7.22019 20.4531 6.875 20.4531ZM10.625 20.4531H19.375C19.7202 20.4531 20 20.7329 20 21.0781C20 21.4233 19.7202 21.7031 19.375 21.7031H10.625C10.2798 21.7031 10 21.4233 10 21.0781C10 20.7329 10.2798 20.4531 10.625 20.4531Z" fill="url(#paint0_linear_2282_258271)"/>
<defs>
<linearGradient id="paint0_linear_2282_258271" x1="15" y1="9.20312" x2="15" y2="21.7031" gradientUnits="userSpaceOnUse">
<stop stop-color="#0033EA"/>
<stop offset="1" stop-color="#8A0074"/>
</linearGradient>
</defs>
</svg>
