<svg width="30" height="31" viewBox="0 0 30 31" fill="none" xmlns="http://www.w3.org/2000/svg">
<path fill-rule="evenodd" clip-rule="evenodd" d="M5.625 9.2041H6.875C7.22019 9.2041 7.5 9.48391 7.5 9.8291C7.5 10.1743 7.22019 10.4541 6.875 10.4541H5.625C5.27983 10.4541 5 10.1743 5 9.8291C5 9.48391 5.27983 9.2041 5.625 9.2041ZM10.625 9.2041H24.375C24.7202 9.2041 25 9.48391 25 9.8291C25 10.1743 24.7202 10.4541 24.375 10.4541H10.625C10.2798 10.4541 10 10.1743 10 9.8291C10 9.48391 10.2798 9.2041 10.625 9.2041ZM6.875 16.7041H5.625C5.27983 16.7041 5 16.9839 5 17.3291C5 17.6743 5.27983 17.9541 5.625 17.9541H6.875C7.22019 17.9541 7.5 17.6743 7.5 17.3291C7.5 16.9839 7.22019 16.7041 6.875 16.7041ZM10.625 16.7041H24.375C24.7202 16.7041 25 16.9839 25 17.3291C25 17.6743 24.7202 17.9541 24.375 17.9541H10.625C10.2798 17.9541 10 17.6743 10 17.3291C10 16.9839 10.2798 16.7041 10.625 16.7041ZM6.875 12.9541H5.625C5.27983 12.9541 5 13.2339 5 13.5791C5 13.9243 5.27983 14.2041 5.625 14.2041H6.875C7.22019 14.2041 7.5 13.9243 7.5 13.5791C7.5 13.2339 7.22019 12.9541 6.875 12.9541ZM10.625 12.9541H19.375C19.7202 12.9541 20 13.2339 20 13.5791C20 13.9243 19.7202 14.2041 19.375 14.2041H10.625C10.2798 14.2041 10 13.9243 10 13.5791C10 13.2339 10.2798 12.9541 10.625 12.9541ZM6.875 20.4541H5.625C5.27983 20.4541 5 20.7339 5 21.0791C5 21.4243 5.27983 21.7041 5.625 21.7041H6.875C7.22019 21.7041 7.5 21.4243 7.5 21.0791C7.5 20.7339 7.22019 20.4541 6.875 20.4541ZM10.625 20.4541H19.375C19.7202 20.4541 20 20.7339 20 21.0791C20 21.4243 19.7202 21.7041 19.375 21.7041H10.625C10.2798 21.7041 10 21.4243 10 21.0791C10 20.7339 10.2798 20.4541 10.625 20.4541Z" fill="url(#paint0_linear_516_601185)"/>
<defs>
<linearGradient id="paint0_linear_516_601185" x1="15" y1="9.2041" x2="15" y2="21.7041" gradientUnits="userSpaceOnUse">
<stop stop-color="#0033EA"/>
<stop offset="1" stop-color="#8A0074"/>
</linearGradient>
</defs>
</svg>
