<svg width="31" height="31" viewBox="0 0 31 31" fill="none" xmlns="http://www.w3.org/2000/svg">
<rect x="0.395599" y="0.5" width="30" height="30" rx="15" fill="#CCE3FE"/>
<path d="M12.379 15.8332C12.9727 17.0138 13.9641 17.966 15.1915 18.5346C15.2821 18.5759 15.3822 18.5938 15.4821 18.5865C15.582 18.5792 15.6782 18.547 15.7613 18.493L17.5641 17.3332C17.6438 17.2812 17.7358 17.2495 17.8317 17.241C17.9275 17.2325 18.024 17.2475 18.1122 17.2846L21.4872 18.6805C21.6026 18.7267 21.6989 18.8082 21.7615 18.9123C21.824 19.0165 21.8493 19.1375 21.8334 19.2569C21.7264 20.0608 21.3189 20.7998 20.6871 21.3353C20.0552 21.8709 19.2424 22.1664 18.4007 22.1666C15.7995 22.1666 13.3049 21.1715 11.4656 19.4004C9.62629 17.6292 8.59299 15.227 8.59299 12.7221C8.59318 11.9116 8.90006 11.1289 9.45623 10.5204C10.0124 9.91202 10.7797 9.51959 11.6146 9.41658C11.7385 9.40125 11.8643 9.42558 11.9724 9.48581C12.0806 9.54604 12.1652 9.63884 12.2132 9.74991L13.6627 13.0069C13.7004 13.0904 13.7162 13.1817 13.7086 13.2725C13.7011 13.3633 13.6704 13.451 13.6194 13.5277L12.4151 15.2916C12.3615 15.3714 12.33 15.4631 12.3237 15.5579C12.3174 15.6527 12.3364 15.7475 12.379 15.8332V15.8332Z" stroke="#333333" stroke-linecap="round" stroke-linejoin="round"/>
<path d="M19.3699 12.4997H16.4161V9.65527" stroke="#333333" stroke-linecap="round" stroke-linejoin="round"/>
</svg>
