<svg width="25" height="25" viewBox="0 0 25 25" fill="none" xmlns="http://www.w3.org/2000/svg">
<path d="M9.0332 12.1879C9.83713 13.8481 11.1796 15.1871 12.8418 15.9868C12.9644 16.0448 13.1 16.0699 13.2353 16.0597C13.3706 16.0494 13.5008 16.0041 13.6133 15.9282L16.0547 14.2973C16.1626 14.2241 16.2872 14.1795 16.417 14.1676C16.5468 14.1556 16.6775 14.1767 16.7969 14.2289L21.3672 16.1918C21.5234 16.2568 21.6539 16.3714 21.7386 16.5179C21.8233 16.6643 21.8575 16.8346 21.8359 17.0024C21.6911 18.133 21.1392 19.1721 20.2836 19.9252C19.428 20.6783 18.3273 21.0939 17.1875 21.0942C13.6651 21.0942 10.287 19.6949 7.79624 17.2042C5.30552 14.7135 3.90625 11.3353 3.90625 7.81293C3.90651 6.67308 4.32208 5.57238 5.07522 4.71679C5.82836 3.8612 6.86744 3.30935 7.99805 3.16449C8.16586 3.14294 8.3361 3.17714 8.48256 3.26184C8.62902 3.34654 8.74358 3.47704 8.80859 3.63324L10.7715 8.21332C10.8225 8.33085 10.8439 8.45912 10.8337 8.58685C10.8234 8.71457 10.782 8.83782 10.7129 8.94574L9.08203 11.4262C9.00942 11.5384 8.96681 11.6673 8.95826 11.8007C8.94971 11.9341 8.97552 12.0674 9.0332 12.1879V12.1879Z" stroke="url(#paint0_linear_516_601291)" stroke-linecap="round" stroke-linejoin="round"/>
<path d="M18.5 7.5H14.5V3.5" stroke="url(#paint1_linear_516_601291)" stroke-linecap="round" stroke-linejoin="round"/>
<defs>
<linearGradient id="paint0_linear_516_601291" x1="12.8742" y1="3.1582" x2="12.8742" y2="21.0942" gradientUnits="userSpaceOnUse">
<stop stop-color="#0033EA"/>
<stop offset="1" stop-color="#8A0074"/>
</linearGradient>
<linearGradient id="paint1_linear_516_601291" x1="16.5" y1="3.5" x2="16.5" y2="7.5" gradientUnits="userSpaceOnUse">
<stop stop-color="#0033EA"/>
<stop offset="1" stop-color="#8A0074"/>
</linearGradient>
</defs>
</svg>
