<svg width="32" height="32" viewBox="0 0 32 32" fill="none" xmlns="http://www.w3.org/2000/svg">
<rect width="32" height="32" rx="5" fill="#E7EAF9"/>
<path fill-rule="evenodd" clip-rule="evenodd" d="M8.5 11.4531H9.5C9.77615 11.4531 10 11.677 10 11.9531C10 12.2293 9.77615 12.4531 9.5 12.4531H8.5C8.22386 12.4531 8 12.2293 8 11.9531C8 11.677 8.22386 11.4531 8.5 11.4531ZM12.5 11.4531H23.5C23.7762 11.4531 24 11.677 24 11.9531C24 12.2293 23.7762 12.4531 23.5 12.4531H12.5C12.2239 12.4531 12 12.2293 12 11.9531C12 11.677 12.2239 11.4531 12.5 11.4531ZM9.5 17.4531H8.5C8.22386 17.4531 8 17.677 8 17.9531C8 18.2293 8.22386 18.4531 8.5 18.4531H9.5C9.77615 18.4531 10 18.2293 10 17.9531C10 17.677 9.77615 17.4531 9.5 17.4531ZM12.5 17.4531H23.5C23.7762 17.4531 24 17.677 24 17.9531C24 18.2293 23.7762 18.4531 23.5 18.4531H12.5C12.2239 18.4531 12 18.2293 12 17.9531C12 17.677 12.2239 17.4531 12.5 17.4531ZM9.5 14.4531H8.5C8.22386 14.4531 8 14.677 8 14.9531C8 15.2293 8.22386 15.4531 8.5 15.4531H9.5C9.77615 15.4531 10 15.2293 10 14.9531C10 14.677 9.77615 14.4531 9.5 14.4531ZM12.5 14.4531H19.5C19.7762 14.4531 20 14.677 20 14.9531C20 15.2293 19.7762 15.4531 19.5 15.4531H12.5C12.2239 15.4531 12 15.2293 12 14.9531C12 14.677 12.2239 14.4531 12.5 14.4531ZM9.5 20.4531H8.5C8.22386 20.4531 8 20.677 8 20.9531C8 21.2293 8.22386 21.4531 8.5 21.4531H9.5C9.77615 21.4531 10 21.2293 10 20.9531C10 20.677 9.77615 20.4531 9.5 20.4531ZM12.5 20.4531H19.5C19.7762 20.4531 20 20.677 20 20.9531C20 21.2293 19.7762 21.4531 19.5 21.4531H12.5C12.2239 21.4531 12 21.2293 12 20.9531C12 20.677 12.2239 20.4531 12.5 20.4531Z" fill="url(#paint0_linear_991_99420)"/>
<defs>
<linearGradient id="paint0_linear_991_99420" x1="16" y1="11.4531" x2="16" y2="21.4531" gradientUnits="userSpaceOnUse">
<stop stop-color="#0033EA"/>
<stop offset="1" stop-color="#8A0074"/>
</linearGradient>
</defs>
</svg>
