<svg width="31" height="31" viewBox="0 0 31 31" fill="none" xmlns="http://www.w3.org/2000/svg">
<rect x="0.395599" y="0.5" width="30" height="30" rx="15" fill="#CCE3FE"/>
<path fill-rule="evenodd" clip-rule="evenodd" d="M8.8326 9.5H9.70659C9.94795 9.5 10.1436 9.73477 10.1436 10.0244C10.1436 10.314 9.94795 10.5488 9.70659 10.5488H8.8326C8.59125 10.5488 8.3956 10.314 8.3956 10.0244C8.3956 9.73477 8.59125 9.5 8.8326 9.5ZM12.3286 9.5H21.9425C22.1839 9.5 22.3795 9.73477 22.3795 10.0244C22.3795 10.314 22.1839 10.5488 21.9425 10.5488H12.3286C12.0872 10.5488 11.8916 10.314 11.8916 10.0244C11.8916 9.73477 12.0872 9.5 12.3286 9.5ZM9.70659 15.7928H8.8326C8.59125 15.7928 8.3956 16.0275 8.3956 16.3172C8.3956 16.6068 8.59125 16.8416 8.8326 16.8416H9.70659C9.94795 16.8416 10.1436 16.6068 10.1436 16.3172C10.1436 16.0275 9.94795 15.7928 9.70659 15.7928ZM12.3286 15.7928H21.9425C22.1839 15.7928 22.3795 16.0275 22.3795 16.3172C22.3795 16.6068 22.1839 16.8416 21.9425 16.8416H12.3286C12.0872 16.8416 11.8916 16.6068 11.8916 16.3172C11.8916 16.0275 12.0872 15.7928 12.3286 15.7928ZM9.70659 12.6464H8.8326C8.59125 12.6464 8.3956 12.8812 8.3956 13.1708C8.3956 13.4604 8.59125 13.6952 8.8326 13.6952H9.70659C9.94795 13.6952 10.1436 13.4604 10.1436 13.1708C10.1436 12.8812 9.94795 12.6464 9.70659 12.6464ZM12.3286 12.6464H18.4466C18.6879 12.6464 18.8836 12.8812 18.8836 13.1708C18.8836 13.4604 18.6879 13.6952 18.4466 13.6952H12.3286C12.0872 13.6952 11.8916 13.4604 11.8916 13.1708C11.8916 12.8812 12.0872 12.6464 12.3286 12.6464ZM9.70659 18.9392H8.8326C8.59125 18.9392 8.3956 19.1739 8.3956 19.4636C8.3956 19.7532 8.59125 19.988 8.8326 19.988H9.70659C9.94795 19.988 10.1436 19.7532 10.1436 19.4636C10.1436 19.1739 9.94795 18.9392 9.70659 18.9392ZM12.3286 18.9392H18.4466C18.6879 18.9392 18.8836 19.1739 18.8836 19.4636C18.8836 19.7532 18.6879 19.988 18.4466 19.988H12.3286C12.0872 19.988 11.8916 19.7532 11.8916 19.4636C11.8916 19.1739 12.0872 18.9392 12.3286 18.9392Z" fill="#333333"/>
</svg>
