<svg width="31" height="31" viewBox="0 0 31 31" fill="none" xmlns="http://www.w3.org/2000/svg">
<rect x="0.395599" y="0.5" width="30" height="30" rx="15" fill="#CCE3FE"/>
<path d="M12.4186 15.2654C12.9752 16.3722 13.9045 17.2649 15.0553 17.798C15.1402 17.8367 15.2341 17.8534 15.3277 17.8466C15.4214 17.8397 15.5116 17.8095 15.5894 17.7589L17.2796 16.6717C17.3543 16.6229 17.4406 16.5931 17.5304 16.5852C17.6203 16.5772 17.7108 16.5913 17.7935 16.6261L20.9575 17.9347C21.0657 17.978 21.156 18.0544 21.2146 18.152C21.2733 18.2497 21.297 18.3632 21.282 18.4751C21.1817 19.2288 20.7997 19.9215 20.2074 20.4236C19.615 20.9257 18.853 21.2028 18.0639 21.2029C15.6253 21.2029 13.2866 20.2701 11.5622 18.6096C9.8379 16.9491 8.86917 14.697 8.86917 12.3488C8.86935 11.5889 9.15706 10.8551 9.67846 10.2847C10.1999 9.71427 10.9192 9.34637 11.702 9.2498C11.8181 9.23543 11.936 9.25823 12.0374 9.3147C12.1388 9.37117 12.2181 9.45816 12.2631 9.5623L13.622 12.6157C13.6574 12.694 13.6721 12.7796 13.6651 12.8647C13.658 12.9499 13.6293 13.032 13.5815 13.104L12.4524 14.7576C12.4021 14.8324 12.3726 14.9184 12.3667 15.0073C12.3608 15.0962 12.3787 15.1851 12.4186 15.2654V15.2654Z" stroke="#333333" stroke-linecap="round" stroke-linejoin="round"/>
<path d="M16.0309 12.1401H19.8386" stroke="#333333" stroke-linecap="round" stroke-linejoin="round"/>
<path d="M17.9348 10.3071V13.9738" stroke="#333333" stroke-linecap="round" stroke-linejoin="round"/>
</svg>
