<svg width="20" height="20" viewBox="0 0 20 20" fill="none" xmlns="http://www.w3.org/2000/svg">
<path d="M6.0332 10.1879C6.83713 11.8481 8.17957 13.1871 9.8418 13.9868C9.96441 14.0448 10.1 14.0699 10.2353 14.0597C10.3706 14.0494 10.5008 14.0041 10.6133 13.9282L13.0547 12.2973C13.1626 12.2241 13.2872 12.1795 13.417 12.1676C13.5468 12.1556 13.6775 12.1767 13.7969 12.2289L18.3672 14.1918C18.5234 14.2568 18.6539 14.3714 18.7386 14.5179C18.8233 14.6643 18.8575 14.8346 18.8359 15.0024C18.6911 16.133 18.1392 17.1721 17.2836 17.9252C16.428 18.6783 15.3273 19.0939 14.1875 19.0942C10.6651 19.0942 7.28696 17.6949 4.79624 15.2042C2.30552 12.7135 0.90625 9.33534 0.90625 5.81293C0.906507 4.67308 1.32208 3.57238 2.07522 2.71679C2.82836 1.8612 3.86744 1.30935 4.99805 1.16449C5.16586 1.14294 5.3361 1.17714 5.48256 1.26184C5.62902 1.34654 5.74358 1.47704 5.80859 1.63324L7.77148 6.21332C7.82253 6.33085 7.84388 6.45912 7.83366 6.58685C7.82345 6.71457 7.78197 6.83782 7.71289 6.94574L6.08203 9.42621C6.00942 9.5384 5.96681 9.66734 5.95826 9.8007C5.94971 9.93406 5.97552 10.0674 6.0332 10.1879V10.1879Z" stroke="url(#paint0_linear_442_597713)" stroke-linecap="round" stroke-linejoin="round"/>
<defs>
<linearGradient id="paint0_linear_442_597713" x1="9.87424" y1="1.1582" x2="9.87424" y2="19.0942" gradientUnits="userSpaceOnUse">
<stop stop-color="#0033EA"/>
<stop offset="1" stop-color="#8A0074"/>
</linearGradient>
</defs>
</svg>
