<svg width="32" height="32" viewBox="0 0 32 32" fill="none" xmlns="http://www.w3.org/2000/svg">
<rect width="32" height="32" rx="5" fill="#E7EAF9"/>
<g clip-path="url(#clip0_991_579713)">
<path d="M21.1471 14.4653V10.7236C21.1471 9.90227 20.4792 9.23438 19.6579 9.23438H8.48914C7.66786 9.23438 7 9.90223 7 10.7236V18.1694C7 18.9907 7.66786 19.6586 8.48918 19.6586H16.8383C17.3261 21.3748 18.9042 22.6369 20.7748 22.6369C21.4947 22.6369 22.2025 22.4475 22.8228 22.0886C23.0006 21.9857 23.0616 21.7581 22.9584 21.58C22.8555 21.4019 22.6275 21.3404 22.4497 21.4444C21.9429 21.7374 21.3637 21.8923 20.7748 21.8923C18.9271 21.8923 17.4241 20.3893 17.4241 18.5417C17.4241 16.6941 18.9271 15.1911 20.7748 15.1911C22.6224 15.1911 24.1254 16.6941 24.1254 18.5417V18.914C24.1254 19.3244 23.7913 19.6586 23.3808 19.6586C22.9704 19.6586 22.6363 19.3244 22.6363 18.914V17.4248C22.6363 17.219 22.4697 17.0525 22.2639 17.0525C22.1638 17.0525 22.0738 17.093 22.007 17.1572C21.6779 16.864 21.2491 16.6802 20.7748 16.6802C19.7484 16.6802 18.9133 17.5153 18.9133 18.5416C18.9133 19.568 19.7484 20.4031 20.7748 20.4031C21.3296 20.4031 21.8229 20.1542 22.1643 19.7678C22.434 20.151 22.8777 20.4031 23.3809 20.4031C24.2021 20.4031 24.87 19.7353 24.87 18.9139V18.5416C24.87 16.4092 23.2311 14.6543 21.1471 14.4653ZM8.48918 9.97895H19.6579C19.6734 9.97895 19.6864 9.98687 19.7017 9.98781L14.3797 14.3563C14.1903 14.4756 13.9158 14.4508 13.7925 14.3752L8.44586 9.98774C8.46098 9.98683 8.47382 9.97895 8.48918 9.97895ZM20.4025 14.4653C18.3184 14.6543 16.6796 16.4092 16.6796 18.5417C16.6796 18.6673 16.6873 18.7912 16.6984 18.914H8.48918C8.07873 18.914 7.74461 18.5799 7.74461 18.1694V10.7236C7.74461 10.6181 7.76789 10.5185 7.80761 10.4276L13.353 14.9751C13.5697 15.1165 13.8187 15.1911 14.0736 15.1911C14.3186 15.1911 14.5582 15.122 14.7691 14.9911C14.7902 14.9799 14.8102 14.9664 14.8291 14.9508L20.3395 10.4275C20.3792 10.5185 20.4025 10.6181 20.4025 10.7236V14.4653H20.4025ZM20.7748 19.6586C20.1589 19.6586 19.6579 19.1576 19.6579 18.5417C19.6579 17.9258 20.1589 17.4248 20.7748 17.4248C21.3907 17.4248 21.8917 17.9258 21.8917 18.5417C21.8917 19.1576 21.3907 19.6586 20.7748 19.6586Z" fill="url(#paint0_linear_991_579713)"/>
</g>
<defs>
<linearGradient id="paint0_linear_991_579713" x1="15.935" y1="9.23438" x2="15.935" y2="22.6369" gradientUnits="userSpaceOnUse">
<stop stop-color="#0033EA"/>
<stop offset="1" stop-color="#8A0074"/>
</linearGradient>
<clipPath id="clip0_991_579713">
<rect width="18" height="14" fill="white" transform="translate(7 9)"/>
</clipPath>
</defs>
</svg>
