<svg width="23" height="24" viewBox="0 0 23 24" fill="none" xmlns="http://www.w3.org/2000/svg">
<g clip-path="url(#clip0_516_601164)">
<path d="M18.1021 10.0518V5.2639C18.1021 4.21301 17.2476 3.3584 16.1966 3.3584H1.90546C0.854567 3.3584 0 4.21297 0 5.2639V14.7913C0 15.8422 0.854567 16.6968 1.9055 16.6968H12.5888C13.213 18.8929 15.2323 20.5078 17.6258 20.5078C18.5469 20.5078 19.4526 20.2654 20.2463 19.8063C20.4738 19.6746 20.5519 19.3834 20.4198 19.1554C20.2881 18.9275 19.9965 18.8489 19.769 18.9819C19.1205 19.3569 18.3794 19.5551 17.6257 19.5551C15.2615 19.5551 13.3384 17.6319 13.3384 15.2677C13.3384 12.9036 15.2616 10.9804 17.6257 10.9804C19.9899 10.9804 21.9131 12.9036 21.9131 15.2677V15.7441C21.9131 16.2693 21.4856 16.6968 20.9604 16.6968C20.4352 16.6968 20.0076 16.2693 20.0076 15.7441V13.8386C20.0076 13.5753 19.7945 13.3622 19.5312 13.3622C19.4031 13.3622 19.288 13.4141 19.2024 13.4962C18.7814 13.121 18.2327 12.8858 17.6257 12.8858C16.3125 12.8858 15.2439 13.9544 15.2439 15.2677C15.2439 16.5809 16.3125 17.6496 17.6258 17.6496C18.3357 17.6496 18.9669 17.3311 19.4037 16.8367C19.7488 17.3269 20.3165 17.6496 20.9604 17.6496C22.0113 17.6496 22.8659 16.795 22.8659 15.7441V15.2677C22.8659 12.5391 20.7688 10.2935 18.1021 10.0518ZM1.9055 4.31113H16.1967C16.2165 4.31113 16.2331 4.32127 16.2527 4.32247L9.44279 9.91223C9.20043 10.0648 8.84918 10.0332 8.69148 9.93644L1.85008 4.32238C1.86942 4.32122 1.88585 4.31113 1.9055 4.31113ZM17.1494 10.0518C14.4827 10.2935 12.3857 12.5391 12.3857 15.2677C12.3857 15.4285 12.3955 15.5869 12.4098 15.7441H1.9055C1.3803 15.7441 0.952774 15.3166 0.952774 14.7914V5.2639C0.952774 5.12898 0.982562 5.00157 1.03338 4.88519L8.12908 10.7041C8.40633 10.885 8.72502 10.9804 9.05113 10.9804C9.36468 10.9804 9.67123 10.892 9.94106 10.7246C9.96804 10.7101 9.99363 10.6929 10.0178 10.6729L17.0687 4.8851C17.1196 5.00157 17.1494 5.12898 17.1494 5.26395V10.0518H17.1494ZM17.6258 16.6968C16.8377 16.6968 16.1967 16.0558 16.1967 15.2677C16.1967 14.4796 16.8377 13.8386 17.6258 13.8386C18.4138 13.8386 19.0549 14.4796 19.0549 15.2677C19.0549 16.0558 18.4138 16.6968 17.6258 16.6968Z" fill="url(#paint0_linear_516_601164)"/>
</g>
<defs>
<linearGradient id="paint0_linear_516_601164" x1="11.4329" y1="3.3584" x2="11.4329" y2="20.5078" gradientUnits="userSpaceOnUse">
<stop stop-color="#0033EA"/>
<stop offset="1" stop-color="#8A0074"/>
</linearGradient>
<clipPath id="clip0_516_601164">
<rect width="22.8659" height="22.8659" fill="white" transform="translate(0 0.5)"/>
</clipPath>
</defs>
</svg>
