<svg width="31" height="31" viewBox="0 0 31 31" fill="none" xmlns="http://www.w3.org/2000/svg">
<rect x="0.395599" y="0.5" width="30" height="30" rx="15" fill="#CCE3FE"/>
<g clip-path="url(#clip0_4588_1090006)">
<path d="M21.6047 15.1013V11.5417C21.6047 10.7604 20.9694 10.125 20.188 10.125H9.56304C8.78174 10.125 8.1464 10.7603 8.1464 11.5417V18.625C8.1464 19.4063 8.78174 20.0417 9.56308 20.0417H17.5058C17.9698 21.6744 19.4711 22.875 21.2506 22.875C21.9354 22.875 22.6088 22.6948 23.1988 22.3534C23.368 22.2556 23.4261 22.039 23.3278 21.8696C23.2299 21.7001 23.0131 21.6416 22.844 21.7406C22.3618 22.0194 21.8108 22.1667 21.2505 22.1667C19.4928 22.1667 18.063 20.7369 18.063 18.9792C18.063 17.2215 19.4929 15.7917 21.2505 15.7917C23.0082 15.7917 24.438 17.2215 24.438 18.9792V19.3334C24.438 19.7238 24.1202 20.0417 23.7297 20.0417C23.3393 20.0417 23.0214 19.7238 23.0214 19.3334V17.9167C23.0214 17.7209 22.863 17.5625 22.6672 17.5625C22.572 17.5625 22.4864 17.601 22.4228 17.6621C22.1097 17.3832 21.7018 17.2083 21.2505 17.2083C20.2742 17.2083 19.4797 18.0028 19.4797 18.9791C19.4797 19.9555 20.2742 20.75 21.2506 20.75C21.7784 20.75 22.2477 20.5132 22.5724 20.1456C22.829 20.5101 23.2511 20.75 23.7298 20.75C24.5111 20.75 25.1464 20.1147 25.1464 19.3333V18.9791C25.1464 16.9505 23.5873 15.281 21.6047 15.1013ZM9.56308 10.8333H20.1881C20.2028 10.8333 20.2152 10.8409 20.2297 10.8418L15.1668 14.9976C14.9866 15.111 14.7255 15.0875 14.6082 15.0156L9.52187 10.8417C9.53625 10.8408 9.54847 10.8333 9.56308 10.8333ZM20.8964 15.1013C18.9138 15.281 17.3547 16.9505 17.3547 18.9792C17.3547 19.0987 17.3621 19.2165 17.3727 19.3334H9.56308C9.17261 19.3334 8.85476 19.0155 8.85476 18.625V11.5417C8.85476 11.4414 8.8769 11.3466 8.91469 11.2601L14.1901 15.5862C14.3962 15.7208 14.6332 15.7917 14.8756 15.7917C15.1087 15.7917 15.3366 15.726 15.5373 15.6015C15.5573 15.5908 15.5763 15.578 15.5943 15.5631L20.8364 11.26C20.8743 11.3466 20.8964 11.4414 20.8964 11.5417V15.1013H20.8964ZM21.2506 20.0417C20.6647 20.0417 20.1881 19.5651 20.1881 18.9792C20.1881 18.3933 20.6647 17.9167 21.2506 17.9167C21.8365 17.9167 22.3131 18.3933 22.3131 18.9792C22.3131 19.5651 21.8365 20.0417 21.2506 20.0417Z" fill="#333333"/>
</g>
<defs>
<clipPath id="clip0_4588_1090006">
<rect width="17" height="17" fill="white" transform="translate(8 8)"/>
</clipPath>
</defs>
</svg>
