<svg width="19" height="20" viewBox="0 0 19 20" fill="none" xmlns="http://www.w3.org/2000/svg">
<path d="M1.58301 4.31315C1.58301 2.89216 2.73494 1.74023 4.15592 1.74023H12.4684C13.8894 1.74023 15.0413 2.89216 15.0413 4.31315V8.07927C14.9759 8.07547 14.9098 8.07357 14.8434 8.07357H13.8538V4.31315C13.8538 3.54801 13.2336 2.92773 12.4684 2.92773H4.15592C3.39078 2.92773 2.77051 3.54801 2.77051 4.31315V13.4173C2.77051 14.1825 3.39078 14.8027 4.15592 14.8027H4.74967V15.0007C4.74967 15.345 4.80142 15.6774 4.89756 15.9902H4.15592C2.73495 15.9902 1.58301 14.8383 1.58301 13.4173V4.31315ZM5.34342 4.11523C5.01551 4.11523 4.74967 4.38107 4.74967 4.70898C4.74967 5.0369 5.01551 5.30273 5.34342 5.30273H11.2809C11.6088 5.30273 11.8747 5.0369 11.8747 4.70898C11.8747 4.38107 11.6088 4.11523 11.2809 4.11523H5.34342ZM6.33301 6.68815C6.33301 6.36023 6.59884 6.0944 6.92676 6.0944H11.2809C11.6088 6.0944 11.8747 6.36023 11.8747 6.68815C11.8747 7.01607 11.6088 7.2819 11.2809 7.2819H6.92676C6.59884 7.2819 6.33301 7.01607 6.33301 6.68815ZM5.54134 11.4382C5.54134 10.0172 6.69327 8.86523 8.11426 8.86523H14.8434C16.2644 8.86523 17.4163 10.0172 17.4163 11.4382V15.0007C17.4163 16.4216 16.2644 17.5736 14.8434 17.5736H8.11426C6.69327 17.5736 5.54134 16.4216 5.54134 15.0007V11.4382ZM8.11426 10.0527C7.71503 10.0527 7.35524 10.2216 7.10243 10.4918L11.4789 13.3052L15.8553 10.4918C15.6025 10.2216 15.2427 10.0527 14.8434 10.0527H8.11426ZM6.72884 15.0007C6.72884 15.7658 7.34911 16.3861 8.11426 16.3861H14.8434C15.6086 16.3861 16.2288 15.7658 16.2288 15.0007V11.6634L11.7999 14.5105C11.6044 14.6362 11.3534 14.6362 11.1578 14.5105L6.72884 11.6634V15.0007Z" fill="#645DF6"/>
</svg>
