<svg width="18" height="18" viewBox="0 0 18 18" fill="none" xmlns="http://www.w3.org/2000/svg">
<g clip-path="url(#clip0_442_611961)">
<path d="M11.2504 13.5H6.67304C6.61881 13.2988 6.53776 13.1058 6.43207 12.9263L12.3641 6.9943C12.7701 7.23385 13.2411 7.33966 13.7105 7.29677C14.1799 7.25387 14.6239 7.06444 14.9797 6.75529C15.3355 6.44613 15.585 6.03291 15.693 5.57411C15.801 5.1153 15.762 4.63415 15.5815 4.19874C15.4009 3.76334 15.088 3.39574 14.6871 3.14797C14.2861 2.9002 13.8174 2.78481 13.3472 2.81812C12.877 2.85144 12.4292 3.03177 12.0672 3.33361C11.7052 3.63545 11.4473 4.0435 11.3299 4.50001H7.87539V5.62501H11.3299C11.3823 5.82647 11.4626 6.0196 11.5686 6.19876L5.63664 12.1307C5.2307 11.8911 4.7597 11.7853 4.29032 11.8282C3.82093 11.8711 3.37693 12.0606 3.02114 12.3697C2.66535 12.6789 2.41581 13.0921 2.30781 13.5509C2.19982 14.0097 2.23886 14.4909 2.41939 14.9263C2.59993 15.3617 2.91282 15.7293 3.31379 15.977C3.71475 16.2248 4.18349 16.3402 4.65365 16.3069C5.12382 16.2736 5.5716 16.0932 5.93362 15.7914C6.29564 15.4896 6.55357 15.0815 6.67091 14.625H11.2504V16.3125H15.7504V11.8125H11.2504V13.5ZM13.5004 3.93751C13.7229 3.93751 13.9404 4.00349 14.1254 4.1271C14.3104 4.25072 14.4546 4.42642 14.5398 4.63199C14.6249 4.83756 14.6472 5.06375 14.6038 5.28198C14.5604 5.50021 14.4532 5.70067 14.2959 5.858C14.1385 6.01534 13.9381 6.12248 13.7199 6.16589C13.5016 6.2093 13.2754 6.18702 13.0699 6.10187C12.8643 6.01672 12.6886 5.87253 12.565 5.68752C12.4414 5.50252 12.3754 5.28501 12.3754 5.06251C12.3757 4.76424 12.4944 4.47829 12.7053 4.26739C12.9162 4.05649 13.2021 3.93785 13.5004 3.93751ZM4.50039 15.1875C4.27788 15.1875 4.06038 15.1215 3.87537 14.9979C3.69037 14.8743 3.54617 14.6986 3.46102 14.493C3.37587 14.2875 3.3536 14.0613 3.397 13.843C3.44041 13.6248 3.54756 13.4243 3.70489 13.267C3.86223 13.1097 4.06268 13.0025 4.28091 12.9591C4.49914 12.9157 4.72534 12.938 4.93091 13.0231C5.13647 13.1083 5.31217 13.2525 5.43579 13.4375C5.55941 13.6225 5.62539 13.84 5.62539 14.0625C5.62505 14.3608 5.50641 14.6467 5.2955 14.8576C5.0846 15.0685 4.79865 15.1872 4.50039 15.1875ZM12.3754 12.9375H14.6254V15.1875H12.3754V12.9375Z" fill="#645DF6"/>
<path d="M5.45235 7.17236C5.15306 6.90845 4.91336 6.58388 4.74916 6.2202C4.58496 5.85653 4.50003 5.46208 4.5 5.06305C4.49997 4.66403 4.58485 4.26956 4.749 3.90587C4.91315 3.54217 5.15281 3.21756 5.45207 2.95361L6.19693 3.79708C6.01726 3.95542 5.87334 4.15019 5.77476 4.36845C5.67617 4.5867 5.62517 4.82344 5.62514 5.06292C5.62512 5.30241 5.67607 5.53916 5.7746 5.75744C5.87314 5.97571 6.01701 6.17051 6.19665 6.32889L5.45235 7.17236Z" fill="#645DF6"/>
<path d="M3.96405 8.85994C3.42527 8.38486 2.99376 7.80057 2.69819 7.14588C2.40262 6.49119 2.24976 5.7811 2.24976 5.06278C2.24976 4.34446 2.40262 3.63437 2.69819 2.97968C2.99376 2.32499 3.42527 1.7407 3.96405 1.26562L4.70835 2.10937C4.28928 2.47888 3.95364 2.93334 3.72374 3.44255C3.49384 3.95176 3.37494 4.50407 3.37494 5.06278C3.37494 5.62149 3.49384 6.1738 3.72374 6.68301C3.95364 7.19222 4.28928 7.64668 4.70835 8.01619L3.96405 8.85994Z" fill="#645DF6"/>
</g>
<defs>
<clipPath id="clip0_442_611961">
<rect width="18" height="18" fill="white"/>
</clipPath>
</defs>
</svg>
