<svg width="31" height="31" viewBox="0 0 31 31" fill="none" xmlns="http://www.w3.org/2000/svg">
<rect x="0.395599" y="0.5" width="30" height="30" rx="15" fill="#CCE3FE"/>
<path d="M14.5686 18.1502C14.0975 18.3325 13.7189 18.6971 13.5296 19.1507C12.8041 20.8892 14.4928 22.5153 16.2982 21.8166C16.7692 21.6343 17.1478 21.2698 17.3371 20.8161C18.0626 19.0775 16.3741 17.4515 14.5686 18.1502ZM14.3105 17.5316C16.6817 16.6139 18.9324 18.7812 17.9795 21.0646C17.7198 21.6869 17.2025 22.1851 16.5564 22.4352C14.1852 23.3528 11.9343 21.1855 12.8872 18.9021C13.1469 18.2799 13.6643 17.7817 14.3104 17.5316H14.3105ZM14.7417 9.16682C14.2706 9.34915 13.892 9.71373 13.7027 10.1673C12.9772 11.9059 14.6658 13.5319 16.4713 12.8332C16.9423 12.651 17.3208 12.2864 17.5102 11.8327C18.2357 10.0942 16.5472 8.46814 14.7417 9.16682ZM14.4835 8.54824C16.8548 7.63059 19.1055 9.79791 18.1525 12.0813C17.8929 12.7036 17.3756 13.2017 16.7295 13.4518C14.3582 14.3695 12.1074 12.2021 13.0603 9.91874C13.3199 9.29653 13.8374 8.79832 14.4835 8.54824H14.4835ZM9.34564 10.2524H10.9142C11.1054 10.2524 11.2604 10.1031 11.2604 9.91902C11.2604 9.73492 11.1054 9.58569 10.9142 9.58569H9.34564C9.15446 9.58569 8.99948 9.73492 8.99948 9.91902C8.99948 10.1031 9.15446 10.2524 9.34564 10.2524Z" fill="#333333"/>
<path d="M11.2604 11.4293V9.91878C11.2604 9.73468 11.1054 9.58545 10.9142 9.58545C10.723 9.58545 10.5681 9.73468 10.5681 9.91878V11.4293C10.5681 11.6134 10.723 11.7626 10.9142 11.7626C11.1054 11.7626 11.2604 11.6134 11.2604 11.4293Z" fill="#333333"/>
<path d="M11.0881 20.9948C9.61088 19.5723 8.76625 17.6494 8.76625 15.597C8.76625 13.6517 9.52443 11.8215 10.867 10.4208C10.9967 10.2855 10.9879 10.0746 10.8474 9.94972C10.7069 9.82485 10.4879 9.8333 10.3583 9.96859C8.8988 11.4912 8.07394 13.4825 8.07394 15.597C8.07394 17.828 8.99281 19.9199 10.5986 21.4662C10.7338 21.5964 10.9529 21.5964 11.0881 21.4662C11.2233 21.336 11.2233 21.125 11.0881 20.9948ZM21.6762 20.8972H20.1076C19.9164 20.8972 19.7614 21.0464 19.7614 21.2305C19.7614 21.4146 19.9164 21.5638 20.1076 21.5638H21.6762C21.8673 21.5638 22.0223 21.4146 22.0223 21.2305C22.0223 21.0464 21.8673 20.8972 21.6762 20.8972Z" fill="#333333"/>
<path d="M19.7612 19.7201V21.2306C19.7612 21.4146 19.9162 21.5639 20.1074 21.5639C20.2986 21.5639 20.4535 21.4146 20.4535 21.2306V19.7201C20.4535 19.536 20.2986 19.3867 20.1074 19.3867C19.9162 19.3867 19.7612 19.536 19.7612 19.7201Z" fill="#333333"/>
<path d="M19.9337 10.1545C21.4109 11.577 22.2555 13.4999 22.2555 15.5523C22.2555 17.4976 21.4974 19.3278 20.1548 20.7285C20.0251 20.8638 20.0339 21.0747 20.1744 21.1996C20.3149 21.3244 20.5339 21.316 20.6635 21.1807C22.123 19.658 22.9479 17.6668 22.9479 15.5523C22.9479 13.3213 22.029 11.2294 20.4232 9.68308C20.288 9.55291 20.0689 9.55291 19.9337 9.68308C19.7985 9.81326 19.7985 10.0243 19.9337 10.1545Z" fill="#333333"/>
</svg>
