<svg width="21" height="21" viewBox="0 0 21 21" fill="none" xmlns="http://www.w3.org/2000/svg">
<path d="M9.35048 13.839C8.77891 14.0687 8.31949 14.5281 8.08985 15.0996C7.20951 17.2902 9.25844 19.339 11.4491 18.4587C12.0206 18.229 12.4799 17.7697 12.7095 17.198C13.5899 15.0074 11.5411 12.9586 9.35048 13.839ZM9.03725 13.0596C11.9143 11.9033 14.6452 14.6341 13.489 17.5112C13.1739 18.2953 12.5463 18.923 11.7623 19.2381C8.88522 20.3943 6.1542 17.6635 7.31041 14.7864C7.62541 14.0024 8.25323 13.3747 9.03723 13.0596H9.03725ZM9.56048 2.51997C8.98891 2.7497 8.52949 3.20908 8.29985 3.78061C7.41951 5.97121 9.46844 8.02002 11.6591 7.13967C12.2306 6.90998 12.6899 6.45066 12.9195 5.87903C13.7999 3.68841 11.7511 1.63963 9.56048 2.51997ZM9.24725 1.74055C12.1243 0.584322 14.8552 3.31514 13.699 6.1922C13.3839 6.97626 12.7563 7.60396 11.9723 7.91906C9.09522 9.07529 6.3642 6.34445 7.52041 3.46739C7.83541 2.6834 8.46323 2.05566 9.24723 1.74055H9.24725ZM3.01326 3.88774H4.91649C5.14845 3.88774 5.33649 3.6997 5.33649 3.46774C5.33649 3.23578 5.14845 3.04774 4.91649 3.04774H3.01326C2.7813 3.04774 2.59326 3.23578 2.59326 3.46774C2.59326 3.6997 2.7813 3.88774 3.01326 3.88774Z" fill="url(#paint0_linear_516_601277)"/>
<path d="M5.33634 5.37108V3.46785C5.33634 3.23589 5.1483 3.04785 4.91634 3.04785C4.68437 3.04785 4.49634 3.23589 4.49634 3.46785V5.37108C4.49634 5.60304 4.68437 5.79108 4.91634 5.79108C5.1483 5.79108 5.33634 5.60304 5.33634 5.37108Z" fill="url(#paint1_linear_516_601277)"/>
<path d="M5.12741 17.4237C3.33503 15.6313 2.31021 13.2085 2.31021 10.6225C2.31021 8.17139 3.23013 5.86526 4.85913 4.10038C5.01647 3.92992 5.00582 3.66422 4.83536 3.50689C4.6649 3.34955 4.3992 3.36019 4.24187 3.53065C2.47104 5.4492 1.47021 7.95815 1.47021 10.6225C1.47021 13.4335 2.5851 16.0693 4.53345 18.0177C4.69747 18.1817 4.96339 18.1817 5.12741 18.0177C5.29144 17.8536 5.29144 17.5877 5.12741 17.4237ZM17.9742 17.3007H16.071C15.8391 17.3007 15.651 17.4887 15.651 17.7207C15.651 17.9526 15.8391 18.1407 16.071 18.1407H17.9742C18.2062 18.1407 18.3942 17.9526 18.3942 17.7207C18.3942 17.4887 18.2062 17.3007 17.9742 17.3007Z" fill="url(#paint2_linear_516_601277)"/>
<path d="M15.6509 15.8175V17.7207C15.6509 17.9527 15.8389 18.1407 16.0709 18.1407C16.3028 18.1407 16.4909 17.9527 16.4909 17.7207V15.8175C16.4909 15.5855 16.3028 15.3975 16.0709 15.3975C15.8389 15.3975 15.6509 15.5855 15.6509 15.8175Z" fill="url(#paint3_linear_516_601277)"/>
<path d="M15.8601 3.76484C17.6525 5.55722 18.6773 7.98007 18.6773 10.5661C18.6773 13.0171 17.7574 15.3233 16.1284 17.0881C15.971 17.2586 15.9817 17.5243 16.1521 17.6816C16.3226 17.839 16.5883 17.8283 16.7456 17.6579C18.5165 15.7393 19.5173 13.2304 19.5173 10.5661C19.5173 7.75502 18.4024 5.11921 16.454 3.17087C16.29 3.00685 16.0241 3.00685 15.8601 3.17087C15.6961 3.33489 15.6961 3.60081 15.8601 3.76484Z" fill="url(#paint4_linear_516_601277)"/>
<defs>
<linearGradient id="paint0_linear_516_601277" x1="8.28201" y1="1.46875" x2="8.28201" y2="19.5099" gradientUnits="userSpaceOnUse">
<stop stop-color="#0033EA"/>
<stop offset="1" stop-color="#8A0074"/>
</linearGradient>
<linearGradient id="paint1_linear_516_601277" x1="4.91634" y1="3.04785" x2="4.91634" y2="5.79108" gradientUnits="userSpaceOnUse">
<stop stop-color="#0033EA"/>
<stop offset="1" stop-color="#8A0074"/>
</linearGradient>
<linearGradient id="paint2_linear_516_601277" x1="9.93223" y1="3.39551" x2="9.93223" y2="18.1407" gradientUnits="userSpaceOnUse">
<stop stop-color="#0033EA"/>
<stop offset="1" stop-color="#8A0074"/>
</linearGradient>
<linearGradient id="paint3_linear_516_601277" x1="16.0709" y1="15.3975" x2="16.0709" y2="18.1407" gradientUnits="userSpaceOnUse">
<stop stop-color="#0033EA"/>
<stop offset="1" stop-color="#8A0074"/>
</linearGradient>
<linearGradient id="paint4_linear_516_601277" x1="17.6272" y1="3.04785" x2="17.6272" y2="17.793" gradientUnits="userSpaceOnUse">
<stop stop-color="#0033EA"/>
<stop offset="1" stop-color="#8A0074"/>
</linearGradient>
</defs>
</svg>
