<svg width="28" height="29" viewBox="0 0 28 29" fill="none" xmlns="http://www.w3.org/2000/svg">
<rect y="0.31543" width="28" height="28" rx="5" fill="#E9F1FE"/>
<path d="M20 17.798C20 18.014 19.9519 18.236 19.8498 18.452C19.7476 18.668 19.6154 18.872 19.4412 19.064C19.1467 19.388 18.8222 19.622 18.4557 19.772C18.0951 19.922 17.7046 20 17.2839 20C16.671 20 16.016 19.856 15.325 19.562C14.634 19.268 13.9429 18.872 13.2579 18.374C12.5669 17.87 11.9119 17.312 11.2869 16.694C10.668 16.07 10.1092 15.416 9.61042 14.732C9.11768 14.048 8.72108 13.364 8.43265 12.686C8.14422 12.002 8 11.348 8 10.724C8 10.316 8.07211 9.926 8.21632 9.566C8.36054 9.2 8.58888 8.864 8.90736 8.564C9.29194 8.186 9.71257 8 10.1572 8C10.3255 8 10.4937 8.036 10.644 8.108C10.8002 8.18 10.9384 8.288 11.0466 8.444L12.4407 10.406C12.5488 10.556 12.6269 10.694 12.681 10.826C12.7351 10.952 12.7651 11.078 12.7651 11.192C12.7651 11.336 12.7231 11.48 12.639 11.618C12.5608 11.756 12.4467 11.9 12.3025 12.044L11.8458 12.518C11.7797 12.584 11.7496 12.662 11.7496 12.758C11.7496 12.806 11.7556 12.848 11.7677 12.896C11.7857 12.944 11.8037 12.98 11.8157 13.016C11.9239 13.214 12.1102 13.472 12.3746 13.784C12.645 14.096 12.9334 14.414 13.2459 14.732C13.5704 15.05 13.8828 15.344 14.2013 15.614C14.5138 15.878 14.7722 16.058 14.9765 16.166C15.0065 16.178 15.0426 16.196 15.0846 16.214C15.1327 16.232 15.1808 16.238 15.2349 16.238C15.337 16.238 15.4151 16.202 15.4812 16.136L15.9379 15.686C16.0881 15.536 16.2323 15.422 16.3706 15.35C16.5088 15.266 16.647 15.224 16.7972 15.224C16.9114 15.224 17.0315 15.248 17.1637 15.302C17.2959 15.356 17.4342 15.434 17.5844 15.536L19.5734 16.946C19.7296 17.054 19.8378 17.18 19.9039 17.33C19.9639 17.48 20 17.63 20 17.798Z" fill="#E9F1FE" stroke="url(#paint0_linear_442_597579)" stroke-miterlimit="10"/>
<defs>
<linearGradient id="paint0_linear_442_597579" x1="14" y1="8" x2="14" y2="20" gradientUnits="userSpaceOnUse">
<stop stop-color="#0033EA"/>
<stop offset="1" stop-color="#8A0074"/>
</linearGradient>
</defs>
</svg>
