<svg width="31" height="31" viewBox="0 0 31 31" fill="none" xmlns="http://www.w3.org/2000/svg">
<rect x="0.395599" y="0.5" width="30" height="30" rx="15" fill="#CCE3FE"/>
<path d="M16.9151 13.0905C15.6275 12.662 14.2275 12.6644 12.9415 13.0974C12.8477 13.1288 12.7638 13.1831 12.6982 13.2548C12.6325 13.3266 12.5871 13.4135 12.5665 13.5071L12.1483 15.5558C12.1285 15.6466 12.086 15.7314 12.0244 15.8029C11.9628 15.8743 11.884 15.9301 11.7949 15.9655L8.38385 17.278C8.26782 17.3243 8.13916 17.3324 8.01787 17.301C7.89658 17.2696 7.78946 17.2004 7.71318 17.1044C7.19789 16.4632 6.94293 15.6632 6.99602 14.854C7.04912 14.0449 7.40663 13.2821 8.00164 12.7085C9.84207 10.9376 12.3374 9.94287 14.9391 9.94287C17.5409 9.94287 20.0362 10.9376 21.8766 12.7085C22.4716 13.2821 22.8292 14.0449 22.8823 14.854C22.9354 15.6632 22.6804 16.4632 22.1651 17.1044C22.0888 17.2004 21.9817 17.2696 21.8604 17.301C21.7391 17.3324 21.6105 17.3243 21.4944 17.278L18.0834 15.9655C17.9951 15.9307 17.9169 15.876 17.8554 15.8058C17.7938 15.7357 17.7508 15.6523 17.73 15.5627L17.2829 13.5002C17.2636 13.4071 17.2196 13.3204 17.1552 13.2486C17.0907 13.1768 17.008 13.1223 16.9151 13.0905V13.0905Z" stroke="#333333" stroke-linecap="round" stroke-linejoin="round"/>
<path d="M8.59299 19.9443H21.2853" stroke="#333333" stroke-linecap="round" stroke-linejoin="round"/>
</svg>
