<svg width="32" height="32" viewBox="0 0 32 32" fill="none" xmlns="http://www.w3.org/2000/svg">
<rect width="32" height="32" rx="5" fill="#E7EAF9"/>
<path d="M19.1408 14.9141C17.746 14.432 16.2292 14.4348 14.8361 14.9219C14.7345 14.9573 14.6436 15.0183 14.5725 15.099C14.5013 15.1798 14.4522 15.2775 14.4299 15.3829L13.9768 17.6875C13.9554 17.7898 13.9093 17.8852 13.8426 17.9655C13.7759 18.0459 13.6905 18.1087 13.594 18.1485L9.89865 19.625C9.77295 19.6771 9.63356 19.6862 9.50216 19.6509C9.37077 19.6156 9.25472 19.5378 9.17208 19.4297C8.61385 18.7084 8.33764 17.8084 8.39516 16.8981C8.45269 15.9878 8.83999 15.1297 9.48458 14.4844C11.4784 12.4922 14.1816 11.373 17.0002 11.373C19.8188 11.373 22.522 12.4922 24.5158 14.4844C25.1604 15.1297 25.5477 15.9878 25.6053 16.8981C25.6628 17.8084 25.3866 18.7084 24.8283 19.4297C24.7457 19.5378 24.6296 19.6156 24.4983 19.6509C24.3669 19.6862 24.2275 19.6771 24.1018 19.625L20.4065 18.1485C20.3108 18.1094 20.2261 18.0478 20.1594 17.9689C20.0928 17.89 20.0462 17.7961 20.0236 17.6954L19.5393 15.375C19.5184 15.2703 19.4707 15.1728 19.4009 15.092C19.3311 15.0112 19.2414 14.9499 19.1408 14.9141V14.9141Z" stroke="url(#paint0_linear_619_899801)" stroke-linecap="round" stroke-linejoin="round"/>
<path d="M10.125 22.625H23.875" stroke="url(#paint1_linear_619_899801)" stroke-linecap="round" stroke-linejoin="round"/>
<defs>
<linearGradient id="paint0_linear_619_899801" x1="17.0002" y1="11.373" x2="17.0002" y2="19.6721" gradientUnits="userSpaceOnUse">
<stop stop-color="#000AFF"/>
<stop offset="1" stop-color="#D274FF"/>
</linearGradient>
<linearGradient id="paint1_linear_619_899801" x1="17" y1="22.625" x2="17" y2="23.625" gradientUnits="userSpaceOnUse">
<stop stop-color="#000AFF"/>
<stop offset="1" stop-color="#D274FF"/>
</linearGradient>
</defs>
</svg>
