<svg width="32" height="32" viewBox="0 0 32 32" fill="none" xmlns="http://www.w3.org/2000/svg">
<rect width="32" height="32" rx="5" fill="#E7EAF9"/>
<path d="M18.1406 13.9141C16.7458 13.432 15.2291 13.4348 13.836 13.9219C13.7343 13.9573 13.6435 14.0183 13.5723 14.099C13.5011 14.1798 13.452 14.2775 13.4297 14.3829L12.9766 16.6875C12.9552 16.7898 12.9091 16.8852 12.8424 16.9655C12.7757 17.0459 12.6903 17.1087 12.5938 17.1485L8.89846 18.625C8.77276 18.6771 8.63338 18.6862 8.50198 18.6509C8.37058 18.6156 8.25454 18.5378 8.1719 18.4297C7.61367 17.7084 7.33746 16.8084 7.39498 15.8981C7.4525 14.9878 7.83981 14.1297 8.4844 13.4844C10.4782 11.4922 13.1815 10.373 16 10.373C18.8186 10.373 21.5218 11.4922 23.5156 13.4844C24.1602 14.1297 24.5475 14.9878 24.6051 15.8981C24.6626 16.8084 24.3864 17.7084 23.8281 18.4297C23.7455 18.5378 23.6295 18.6156 23.4981 18.6509C23.3667 18.6862 23.2273 18.6771 23.1016 18.625L19.4063 17.1485C19.3107 17.1094 19.2259 17.0478 19.1593 16.9689C19.0926 16.89 19.046 16.7961 19.0235 16.6954L18.5391 14.375C18.5182 14.2703 18.4705 14.1728 18.4007 14.092C18.3309 14.0112 18.2413 13.9499 18.1406 13.9141V13.9141Z" stroke="url(#paint0_linear_619_882255)" stroke-linecap="round" stroke-linejoin="round"/>
<path d="M9.125 21.625H22.875" stroke="url(#paint1_linear_619_882255)" stroke-linecap="round" stroke-linejoin="round"/>
<defs>
<linearGradient id="paint0_linear_619_882255" x1="16" y1="10.373" x2="16" y2="18.6721" gradientUnits="userSpaceOnUse">
<stop stop-color="#000AFF"/>
<stop offset="1" stop-color="#D274FF"/>
</linearGradient>
<linearGradient id="paint1_linear_619_882255" x1="16" y1="21.625" x2="16" y2="22.625" gradientUnits="userSpaceOnUse">
<stop stop-color="#000AFF"/>
<stop offset="1" stop-color="#D274FF"/>
</linearGradient>
</defs>
</svg>
