<svg width="25" height="25" viewBox="0 0 25 25" fill="none" xmlns="http://www.w3.org/2000/svg">
<path d="M15.1758 9.89263C13.4322 9.29003 11.5363 9.29347 9.79494 9.9024C9.66784 9.94658 9.55431 10.0228 9.46534 10.1238C9.37638 10.2247 9.31499 10.3469 9.28713 10.4786L8.72072 13.3594C8.69396 13.4872 8.63637 13.6065 8.55297 13.7069C8.46957 13.8073 8.36289 13.8858 8.2422 13.9356L3.62306 15.7813C3.46594 15.8464 3.29171 15.8578 3.12746 15.8136C2.96321 15.7695 2.81816 15.6723 2.71486 15.5372C2.01707 14.6355 1.67181 13.5105 1.74371 12.3726C1.81561 11.2348 2.29975 10.1622 3.10548 9.35552C5.59774 6.8652 8.9768 5.46631 12.5 5.46631C16.0232 5.46631 19.4023 6.8652 21.8945 9.35552C22.7003 10.1622 23.1844 11.2348 23.2563 12.3726C23.3282 13.5105 22.983 14.6355 22.2852 15.5372C22.1819 15.6723 22.0368 15.7695 21.8726 15.8136C21.7083 15.8578 21.5341 15.8464 21.377 15.7813L16.7578 13.9356C16.6383 13.8868 16.5324 13.8097 16.4491 13.7111C16.3657 13.6125 16.3075 13.4952 16.2793 13.3692L15.6738 10.4688C15.6478 10.3379 15.5882 10.216 15.5009 10.115C15.4136 10.014 15.3016 9.93737 15.1758 9.89263V9.89263Z" stroke="url(#paint0_linear_516_601267)" stroke-linecap="round" stroke-linejoin="round"/>
<path d="M3.90625 19.5312H21.0938" stroke="url(#paint1_linear_516_601267)" stroke-linecap="round" stroke-linejoin="round"/>
<defs>
<linearGradient id="paint0_linear_516_601267" x1="12.5" y1="5.46631" x2="12.5" y2="15.8401" gradientUnits="userSpaceOnUse">
<stop stop-color="#0033EA"/>
<stop offset="1" stop-color="#8A0074"/>
</linearGradient>
<linearGradient id="paint1_linear_516_601267" x1="12.5" y1="19.5312" x2="12.5" y2="20.5312" gradientUnits="userSpaceOnUse">
<stop stop-color="#0033EA"/>
<stop offset="1" stop-color="#8A0074"/>
</linearGradient>
</defs>
</svg>
