<svg width="22" height="23" viewBox="0 0 22 23" fill="none" xmlns="http://www.w3.org/2000/svg">
<g clip-path="url(#clip0_516_601143)">
<path d="M14.3642 21.5054L16.5551 19.2871C16.7255 19.1168 16.8607 18.9146 16.953 18.6921C17.0453 18.4695 17.0928 18.2309 17.0928 17.99C17.0928 17.7491 17.0453 17.5105 16.953 17.288C16.8607 17.0654 16.7255 16.8632 16.5551 16.6929L15.3084 15.4738C15.1381 15.3033 14.9359 15.1681 14.7134 15.0758C14.4908 14.9836 14.2522 14.9361 14.0113 14.9361C13.7704 14.9361 13.5318 14.9836 13.3093 15.0758C13.0867 15.1681 12.8845 15.3033 12.7142 15.4738L11.8892 16.2988C9.76544 15.0257 7.98694 13.2503 6.71006 11.1288L7.53506 10.3038C7.70552 10.1335 7.84074 9.93131 7.933 9.70874C8.02526 9.48618 8.07275 9.24762 8.07275 9.00669C8.07275 8.76576 8.02526 8.52719 7.933 8.30463C7.84074 8.08207 7.70552 7.87987 7.53506 7.7096L6.29756 6.45377C6.12668 6.27775 5.9222 6.13781 5.69625 6.04226C5.4703 5.9467 5.22747 5.89746 4.98214 5.89746C4.73682 5.89746 4.49399 5.9467 4.26804 6.04226C4.04208 6.13781 3.83761 6.27775 3.66673 6.45377L1.51256 8.65377C1.36241 8.80294 1.26851 8.99947 1.24679 9.21C1.22506 9.42053 1.27686 9.63209 1.39339 9.80877C4.50931 14.4921 8.52589 18.5087 13.2092 21.6246C13.3859 21.7411 13.5975 21.7929 13.808 21.7712C14.0185 21.7495 14.2151 21.6556 14.3642 21.5054Z" stroke="url(#paint0_linear_516_601143)" stroke-linecap="round" stroke-linejoin="round"/>
<path d="M7.38843 3.79557C9.02479 2.91856 10.8986 2.58748 12.7364 2.85063C14.5742 3.11378 16.2798 3.95739 17.6044 5.25835C18.9289 6.55931 19.8029 8.24953 20.099 10.0823C20.395 11.9151 20.0976 13.7946 19.2501 15.4464" stroke="url(#paint1_linear_516_601143)" stroke-linecap="round" stroke-linejoin="round"/>
<path d="M11.9167 6.16016V11.2935H15.5834" stroke="url(#paint2_linear_516_601143)" stroke-linecap="round" stroke-linejoin="round"/>
</g>
<defs>
<linearGradient id="paint0_linear_516_601143" x1="9.16735" y1="5.89746" x2="9.16735" y2="21.7761" gradientUnits="userSpaceOnUse">
<stop stop-color="#0033EA"/>
<stop offset="1" stop-color="#8A0074"/>
</linearGradient>
<linearGradient id="paint1_linear_516_601143" x1="13.7994" y1="2.7627" x2="13.7994" y2="15.4464" gradientUnits="userSpaceOnUse">
<stop stop-color="#0033EA"/>
<stop offset="1" stop-color="#8A0074"/>
</linearGradient>
<linearGradient id="paint2_linear_516_601143" x1="13.7501" y1="6.16016" x2="13.7501" y2="11.2935" gradientUnits="userSpaceOnUse">
<stop stop-color="#0033EA"/>
<stop offset="1" stop-color="#8A0074"/>
</linearGradient>
<clipPath id="clip0_516_601143">
<rect width="22" height="22" fill="white" transform="translate(0 0.954102)"/>
</clipPath>
</defs>
</svg>
