<svg width="32" height="32" viewBox="0 0 32 32" fill="none" xmlns="http://www.w3.org/2000/svg">
<rect width="32" height="32" rx="5" fill="#E7EAF9"/>
<path d="M18.4051 24.7491L20.2972 22.8333C20.4444 22.6863 20.5612 22.5116 20.6409 22.3194C20.7206 22.1272 20.7616 21.9212 20.7616 21.7131C20.7616 21.505 20.7206 21.299 20.6409 21.1068C20.5612 20.9146 20.4444 20.7399 20.2972 20.5929L19.2206 19.54C19.0735 19.3928 18.8989 19.276 18.7067 19.1963C18.5145 19.1166 18.3084 19.0756 18.1004 19.0756C17.8923 19.0756 17.6862 19.1166 17.494 19.1963C17.3018 19.276 17.1272 19.3928 16.9801 19.54L16.2676 20.2525C14.4335 19.153 12.8975 17.6197 11.7947 15.7875L12.5072 15.075C12.6544 14.9279 12.7712 14.7533 12.8509 14.5611C12.9306 14.3689 12.9716 14.1628 12.9716 13.9548C12.9716 13.7467 12.9306 13.5407 12.8509 13.3484C12.7712 13.1562 12.6544 12.9816 12.5072 12.8346L11.4385 11.75C11.2909 11.598 11.1143 11.4771 10.9192 11.3946C10.724 11.3121 10.5143 11.2695 10.3024 11.2695C10.0906 11.2695 9.88085 11.3121 9.68571 11.3946C9.49057 11.4771 9.31398 11.598 9.1664 11.75L7.30598 13.65C7.17631 13.7788 7.09521 13.9485 7.07645 14.1304C7.05769 14.3122 7.10242 14.4949 7.20306 14.6475C9.89408 18.6922 13.363 22.161 17.4076 24.8521C17.5602 24.9527 17.7429 24.9974 17.9248 24.9787C18.1066 24.9599 18.2763 24.8788 18.4051 24.7491Z" stroke="url(#paint0_linear_516_610928)" stroke-linecap="round" stroke-linejoin="round"/>
<path d="M12.3809 9.45453C13.7941 8.69711 15.4124 8.41117 16.9996 8.63844C18.5868 8.86571 20.0598 9.59428 21.2037 10.7178C22.3476 11.8414 23.1025 13.3011 23.3582 14.884C23.6138 16.4669 23.357 18.09 22.625 19.5166" stroke="url(#paint1_linear_516_610928)" stroke-linecap="round" stroke-linejoin="round"/>
<path d="M16.291 11.4971V15.9304H19.4577" stroke="url(#paint2_linear_516_610928)" stroke-linecap="round" stroke-linejoin="round"/>
<defs>
<linearGradient id="paint0_linear_516_610928" x1="13.9169" y1="11.2695" x2="13.9169" y2="24.9829" gradientUnits="userSpaceOnUse">
<stop stop-color="#000AFF"/>
<stop offset="1" stop-color="#D274FF"/>
</linearGradient>
<linearGradient id="paint1_linear_516_610928" x1="17.9176" y1="8.5625" x2="17.9176" y2="19.5166" gradientUnits="userSpaceOnUse">
<stop stop-color="#000AFF"/>
<stop offset="1" stop-color="#D274FF"/>
</linearGradient>
<linearGradient id="paint2_linear_516_610928" x1="17.8743" y1="11.4971" x2="17.8743" y2="15.9304" gradientUnits="userSpaceOnUse">
<stop stop-color="#000AFF"/>
<stop offset="1" stop-color="#D274FF"/>
</linearGradient>
</defs>
</svg>
