<svg width="31" height="31" viewBox="0 0 31 31" fill="none" xmlns="http://www.w3.org/2000/svg">
<rect x="0.395599" y="0.5" width="30" height="30" rx="15" fill="#CCE3FE"/>
<g clip-path="url(#clip0_4588_1089982)">
<path d="M17.944 22.7358L19.6037 21.0553C19.7328 20.9263 19.8353 20.7731 19.9052 20.6045C19.9751 20.4359 20.011 20.2552 20.011 20.0727C20.011 19.8901 19.9751 19.7094 19.9052 19.5408C19.8353 19.3722 19.7328 19.219 19.6037 19.09L18.6592 18.1664C18.5302 18.0373 18.3771 17.9348 18.2085 17.8649C18.0399 17.795 17.8591 17.7591 17.6766 17.7591C17.4941 17.7591 17.3133 17.795 17.1447 17.8649C16.9761 17.9348 16.823 18.0373 16.694 18.1664L16.069 18.7914C14.46 17.8269 13.1127 16.4819 12.1454 14.8747L12.7704 14.2497C12.8995 14.1207 13.0019 13.9676 13.0718 13.799C13.1417 13.6303 13.1777 13.4496 13.1777 13.2671C13.1777 13.0846 13.1417 12.9038 13.0718 12.7352C13.0019 12.5666 12.8995 12.4134 12.7704 12.2845L11.8329 11.3331C11.7034 11.1997 11.5485 11.0937 11.3773 11.0213C11.2061 10.9489 11.0222 10.9116 10.8363 10.9116C10.6505 10.9116 10.4665 10.9489 10.2953 11.0213C10.1242 11.0937 9.96925 11.1997 9.83979 11.3331L8.20785 12.9997C8.0941 13.1127 8.02296 13.2616 8.00651 13.4211C7.99005 13.5806 8.02929 13.7409 8.11757 13.8747C10.4781 17.4227 13.521 20.4656 17.069 22.8261C17.2028 22.9144 17.3631 22.9536 17.5226 22.9372C17.6821 22.9207 17.831 22.8496 17.944 22.7358Z" stroke="#333333" stroke-linecap="round" stroke-linejoin="round"/>
<path d="M12.6595 9.31959C13.8992 8.65519 15.3187 8.40437 16.711 8.60372C18.1033 8.80308 19.3954 9.44218 20.3988 10.4278C21.4022 11.4133 22.0644 12.6938 22.2887 14.0823C22.513 15.4708 22.2877 16.8946 21.6456 18.146" stroke="#333333" stroke-linecap="round" stroke-linejoin="round"/>
<path d="M16.0895 11.1113V15.0002H18.8672" stroke="#333333" stroke-linecap="round" stroke-linejoin="round"/>
</g>
<defs>
<clipPath id="clip0_4588_1089982">
<rect width="16.6667" height="16.6667" fill="white" transform="translate(7.06226 7.1665)"/>
</clipPath>
</defs>
</svg>
