<svg width="16" height="17" viewBox="0 0 16 17" fill="none" xmlns="http://www.w3.org/2000/svg">
<g clip-path="url(#clip0_94_187063)">
<path d="M9 12.166H8.5V7.69702C8.5 7.69152 8.4985 7.68652 8.4985 7.68152C8.4985 7.67652 8.5 7.67152 8.5 7.66602C8.5 7.39002 8.276 7.16602 8 7.16602H7C6.724 7.16602 6.5 7.39002 6.5 7.66602C6.5 7.94202 6.724 8.16602 7 8.16602H7.5V12.166H7C6.724 12.166 6.5 12.39 6.5 12.666C6.5 12.942 6.724 13.166 7 13.166H9C9.276 13.166 9.5 12.942 9.5 12.666C9.5 12.39 9.276 12.166 9 12.166ZM8 6.16602C8.5525 6.16602 9 5.71802 9 5.16602C9 4.61402 8.5525 4.16602 8 4.16602C7.4475 4.16602 7 4.61402 7 5.16602C7 5.71802 7.448 6.16602 8 6.16602ZM8 0.666016C3.582 0.666016 0 4.24752 0 8.66602C0 13.0845 3.5815 16.666 8 16.666C12.4185 16.666 16 13.0845 16 8.66602C16 4.24752 12.4185 0.666016 8 0.666016ZM8 15.6815C4.14 15.6815 1 12.5255 1 8.66552C1 4.80552 4.14 1.66552 8 1.66552C11.86 1.66552 15 4.80552 15 8.66552C15 12.5255 11.86 15.6815 8 15.6815Z" fill="#645DF6"/>
</g>
<defs>
<clipPath id="clip0_94_187063">
<rect width="16" height="16" fill="white" transform="translate(0 0.666016)"/>
</clipPath>
</defs>
</svg>
