<svg width="23" height="23" viewBox="0 0 23 23" fill="none" xmlns="http://www.w3.org/2000/svg">
<path d="M5.54831 9.70795C6.18849 9.70795 6.81429 9.51812 7.34658 9.16246C7.87886 8.80679 8.29373 8.30128 8.53872 7.70983C8.7837 7.11838 8.8478 6.46757 8.72291 5.8397C8.59801 5.21182 8.28974 4.63508 7.83707 4.18241C7.38439 3.72974 6.80765 3.42146 6.17978 3.29657C5.5519 3.17168 4.90109 3.23578 4.30965 3.48076C3.7182 3.72575 3.21268 4.14061 2.85702 4.6729C2.50136 5.20519 2.31152 5.83099 2.31152 6.47117C2.31256 7.3293 2.65391 8.15198 3.2607 8.75877C3.86749 9.36557 4.69018 9.70692 5.54831 9.70795ZM5.54831 4.15917C6.00558 4.15917 6.45258 4.29477 6.83279 4.54881C7.21299 4.80286 7.50933 5.16394 7.68431 5.5864C7.8593 6.00887 7.90509 6.47373 7.81588 6.92221C7.72667 7.3707 7.50647 7.78265 7.18314 8.10599C6.8598 8.42933 6.44784 8.64952 5.99936 8.73873C5.55088 8.82794 5.08601 8.78216 4.66355 8.60717C4.24109 8.43218 3.88001 8.13584 3.62596 7.75564C3.37192 7.37543 3.23632 6.92843 3.23632 6.47117C3.23696 5.85818 3.48076 5.27049 3.9142 4.83705C4.34764 4.40361 4.93533 4.15982 5.54831 4.15917ZM4.62352 6.47117C4.62352 6.28826 4.67775 6.10946 4.77937 5.95738C4.88099 5.80529 5.02542 5.68676 5.19441 5.61676C5.36339 5.54677 5.54934 5.52845 5.72873 5.56414C5.90812 5.59982 6.07291 5.6879 6.20224 5.81724C6.33158 5.94657 6.41966 6.11135 6.45534 6.29075C6.49102 6.47014 6.47271 6.65609 6.40271 6.82507C6.33272 6.99405 6.21418 7.13849 6.0621 7.24011C5.91002 7.34172 5.73122 7.39596 5.54831 7.39596C5.30304 7.39596 5.06782 7.29853 4.89438 7.1251C4.72095 6.95166 4.62352 6.71644 4.62352 6.47117ZM11.5595 6.47117C11.5595 6.41043 11.5714 6.35029 11.5946 6.29417C11.6178 6.23805 11.6519 6.18707 11.6948 6.14412C11.7378 6.10118 11.7888 6.06712 11.8449 6.04389C11.901 6.02067 11.9612 6.00873 12.0219 6.00877H19.4203C19.5429 6.00877 19.6605 6.05748 19.7472 6.1442C19.8339 6.23092 19.8827 6.34853 19.8827 6.47117C19.8827 6.5938 19.8339 6.71141 19.7472 6.79813C19.6605 6.88485 19.5429 6.93356 19.4203 6.93356H12.0219C11.9612 6.9336 11.901 6.92166 11.8449 6.89844C11.7888 6.87521 11.7378 6.84115 11.6948 6.79821C11.6519 6.75526 11.6178 6.70428 11.5946 6.64816C11.5714 6.59204 11.5595 6.5319 11.5595 6.47117ZM5.54831 18.9559C6.18849 18.9559 6.81429 18.7661 7.34658 18.4104C7.87886 18.0548 8.29373 17.5492 8.53872 16.9578C8.7837 16.3664 8.8478 15.7155 8.72291 15.0877C8.59801 14.4598 8.28974 13.8831 7.83707 13.4304C7.38439 12.9777 6.80765 12.6694 6.17978 12.5445C5.5519 12.4196 4.90109 12.4837 4.30965 12.7287C3.7182 12.9737 3.21268 13.3886 2.85702 13.9209C2.50136 14.4532 2.31152 15.079 2.31152 15.7191C2.31256 16.5773 2.65391 17.4 3.2607 18.0067C3.86749 18.6135 4.69018 18.9549 5.54831 18.9559ZM5.54831 13.4071C6.00558 13.4071 6.45258 13.5427 6.83279 13.7968C7.21299 14.0508 7.50933 14.4119 7.68431 14.8344C7.8593 15.2568 7.90509 15.7217 7.81588 16.1702C7.72667 16.6187 7.50647 17.0306 7.18314 17.354C6.8598 17.6773 6.44784 17.8975 5.99936 17.9867C5.55088 18.0759 5.08601 18.0301 4.66355 17.8551C4.24109 17.6801 3.88001 17.3838 3.62596 17.0036C3.37192 16.6234 3.23632 16.1764 3.23632 15.7191C3.23696 15.1062 3.48076 14.5185 3.9142 14.085C4.34764 13.6516 4.93533 13.4078 5.54831 13.4071ZM11.5595 15.7191C11.5595 15.6584 11.5714 15.5983 11.5946 15.5421C11.6178 15.486 11.6519 15.435 11.6948 15.3921C11.7378 15.3491 11.7888 15.3151 11.8449 15.2919C11.901 15.2686 11.9612 15.2567 12.0219 15.2567H19.4203C19.5429 15.2567 19.6605 15.3055 19.7472 15.3922C19.8339 15.4789 19.8827 15.5965 19.8827 15.7191C19.8827 15.8418 19.8339 15.9594 19.7472 16.0461C19.6605 16.1328 19.5429 16.1815 19.4203 16.1815H12.0219C11.9612 16.1816 11.901 16.1696 11.8449 16.1464C11.7888 16.1232 11.7378 16.0891 11.6948 16.0462C11.6519 16.0032 11.6178 15.9522 11.5946 15.8961C11.5714 15.84 11.5595 15.7799 11.5595 15.7191Z" fill="url(#paint0_linear_2282_258204)"/>
<defs>
<linearGradient id="paint0_linear_2282_258204" x1="11.0971" y1="3.23437" x2="11.0971" y2="18.9559" gradientUnits="userSpaceOnUse">
<stop stop-color="#0033EA"/>
<stop offset="1" stop-color="#8A0074"/>
</linearGradient>
</defs>
</svg>