<svg width="31" height="31" viewBox="0 0 31 31" fill="none" xmlns="http://www.w3.org/2000/svg">
<rect x="0.395599" y="0.5" width="30" height="30" rx="15" fill="#CCE3FE"/>
<path d="M10.4921 14.4578C10.9914 14.4578 11.4794 14.3152 11.8944 14.0482C12.3095 13.7811 12.633 13.4015 12.8241 12.9574C13.0151 12.5132 13.0651 12.0245 12.9677 11.5531C12.8703 11.0816 12.6299 10.6485 12.2769 10.3086C11.9239 9.96865 11.4742 9.73717 10.9846 9.64338C10.4949 9.5496 9.98745 9.59773 9.52624 9.7817C9.06503 9.96566 8.67083 10.2772 8.39349 10.6769C8.11614 11.0766 7.96811 11.5465 7.96811 12.0272C7.96892 12.6716 8.2351 13.2894 8.70828 13.745C9.18145 14.2007 9.82298 14.457 10.4921 14.4578V14.4578ZM10.4921 10.2911C10.8487 10.2911 11.1973 10.3929 11.4938 10.5837C11.7903 10.7745 12.0213 11.0456 12.1578 11.3629C12.2943 11.6801 12.33 12.0292 12.2604 12.3659C12.1908 12.7027 12.0191 13.0121 11.767 13.2549C11.5148 13.4977 11.1936 13.663 10.8439 13.73C10.4941 13.797 10.1316 13.7626 9.80221 13.6312C9.47278 13.4998 9.19121 13.2773 8.9931 12.9918C8.795 12.7063 8.68926 12.3706 8.68926 12.0272C8.68977 11.5669 8.87987 11.1256 9.21787 10.8002C9.55587 10.4747 10.0141 10.2916 10.4921 10.2911V10.2911ZM9.77099 12.0272C9.77099 11.8899 9.81329 11.7556 9.89253 11.6414C9.97177 11.5272 10.0844 11.4382 10.2162 11.3857C10.3479 11.3331 10.4929 11.3193 10.6328 11.3461C10.7727 11.3729 10.9012 11.4391 11.0021 11.5362C11.1029 11.6333 11.1716 11.757 11.1994 11.8918C11.2273 12.0265 11.213 12.1661 11.1584 12.293C11.1038 12.4199 11.0114 12.5283 10.8928 12.6046C10.7742 12.681 10.6348 12.7217 10.4921 12.7217C10.3009 12.7217 10.1175 12.6485 9.98222 12.5183C9.84697 12.388 9.77099 12.2114 9.77099 12.0272ZM15.1796 12.0272C15.1796 11.9816 15.1889 11.9365 15.207 11.8943C15.2252 11.8522 15.2517 11.8139 15.2852 11.7817C15.3187 11.7494 15.3584 11.7238 15.4022 11.7064C15.446 11.689 15.4929 11.68 15.5402 11.68H21.3095C21.4051 11.68 21.4968 11.7166 21.5644 11.7817C21.632 11.8468 21.67 11.9351 21.67 12.0272C21.67 12.1193 21.632 12.2076 21.5644 12.2728C21.4968 12.3379 21.4051 12.3745 21.3095 12.3745H15.5402C15.4929 12.3745 15.446 12.3655 15.4022 12.3481C15.3584 12.3306 15.3187 12.3051 15.2852 12.2728C15.2517 12.2406 15.2252 12.2023 15.207 12.1601C15.1889 12.118 15.1796 12.0728 15.1796 12.0272V12.0272ZM10.4921 21.4022C10.9914 21.4022 11.4794 21.2597 11.8944 20.9926C12.3095 20.7255 12.633 20.3459 12.8241 19.9018C13.0151 19.4577 13.0651 18.969 12.9677 18.4975C12.8703 18.026 12.6299 17.5929 12.2769 17.253C11.9239 16.9131 11.4742 16.6816 10.9846 16.5878C10.4949 16.494 9.98745 16.5422 9.52624 16.7261C9.06503 16.9101 8.67083 17.2216 8.39349 17.6213C8.11614 18.021 7.96811 18.491 7.96811 18.9717C7.96892 19.6161 8.2351 20.2338 8.70828 20.6895C9.18145 21.1451 9.82298 21.4015 10.4921 21.4022V21.4022ZM10.4921 17.2356C10.8487 17.2356 11.1973 17.3374 11.4938 17.5282C11.7903 17.7189 12.0213 17.9901 12.1578 18.3073C12.2943 18.6245 12.33 18.9736 12.2604 19.3104C12.1908 19.6472 12.0191 19.9565 11.767 20.1993C11.5148 20.4421 11.1936 20.6074 10.8439 20.6744C10.4941 20.7414 10.1316 20.707 9.80221 20.5756C9.47278 20.4442 9.19121 20.2217 8.9931 19.9362C8.795 19.6507 8.68926 19.3151 8.68926 18.9717C8.68977 18.5114 8.87987 18.0701 9.21787 17.7446C9.55587 17.4191 10.0141 17.2361 10.4921 17.2356V17.2356ZM15.1796 18.9717C15.1796 18.9261 15.1889 18.8809 15.207 18.8388C15.2252 18.7966 15.2517 18.7583 15.2852 18.7261C15.3187 18.6939 15.3584 18.6683 15.4022 18.6508C15.446 18.6334 15.4929 18.6244 15.5402 18.6245H21.3095C21.4051 18.6245 21.4968 18.661 21.5644 18.7262C21.632 18.7913 21.67 18.8796 21.67 18.9717C21.67 19.0638 21.632 19.1521 21.5644 19.2172C21.4968 19.2823 21.4051 19.3189 21.3095 19.3189H15.5402C15.4929 19.3189 15.446 19.31 15.4022 19.2925C15.3584 19.2751 15.3187 19.2495 15.2852 19.2173C15.2517 19.185 15.2252 19.1467 15.207 19.1046C15.1889 19.0625 15.1796 19.0173 15.1796 18.9717V18.9717Z" fill="#333333"/>
</svg>
