<svg width="23" height="23" viewBox="0 0 23 23" fill="none" xmlns="http://www.w3.org/2000/svg">
<path d="M5.54831 9.70991C6.18849 9.70991 6.81429 9.52007 7.34658 9.16441C7.87886 8.80875 8.29373 8.30323 8.53872 7.71178C8.7837 7.12034 8.8478 6.46953 8.72291 5.84165C8.59801 5.21378 8.28974 4.63704 7.83707 4.18436C7.38439 3.73169 6.80765 3.42342 6.17978 3.29852C5.5519 3.17363 4.90109 3.23773 4.30965 3.48272C3.7182 3.7277 3.21268 4.14257 2.85702 4.67486C2.50136 5.20714 2.31152 5.83294 2.31152 6.47312C2.31256 7.33125 2.65391 8.15394 3.2607 8.76073C3.86749 9.36752 4.69018 9.70887 5.54831 9.70991ZM5.54831 4.16113C6.00558 4.16113 6.45258 4.29672 6.83279 4.55077C7.21299 4.80481 7.50933 5.1659 7.68431 5.58836C7.8593 6.01082 7.90509 6.47568 7.81588 6.92417C7.72667 7.37265 7.50647 7.78461 7.18314 8.10794C6.8598 8.43128 6.44784 8.65148 5.99936 8.74069C5.55088 8.8299 5.08601 8.78411 4.66355 8.60912C4.24109 8.43413 3.88001 8.1378 3.62596 7.75759C3.37192 7.37739 3.23632 6.93039 3.23632 6.47312C3.23696 5.86014 3.48076 5.27245 3.9142 4.839C4.34764 4.40556 4.93533 4.16177 5.54831 4.16113ZM4.62352 6.47312C4.62352 6.29021 4.67775 6.11141 4.77937 5.95933C4.88099 5.80725 5.02542 5.68871 5.19441 5.61872C5.36339 5.54872 5.54934 5.53041 5.72873 5.56609C5.90812 5.60177 6.07291 5.68985 6.20224 5.81919C6.33158 5.94852 6.41966 6.11331 6.45534 6.2927C6.49102 6.47209 6.47271 6.65804 6.40271 6.82702C6.33272 6.99601 6.21418 7.14044 6.0621 7.24206C5.91002 7.34368 5.73122 7.39792 5.54831 7.39792C5.30304 7.39792 5.06782 7.30048 4.89438 7.12705C4.72095 6.95362 4.62352 6.71839 4.62352 6.47312ZM11.5595 6.47312C11.5595 6.41239 11.5714 6.35224 11.5946 6.29612C11.6178 6.24001 11.6519 6.18902 11.6948 6.14607C11.7378 6.10313 11.7888 6.06907 11.8449 6.04585C11.901 6.02262 11.9612 6.01068 12.0219 6.01072H19.4203C19.5429 6.01072 19.6605 6.05944 19.7472 6.14615C19.8339 6.23287 19.8827 6.35048 19.8827 6.47312C19.8827 6.59575 19.8339 6.71337 19.7472 6.80008C19.6605 6.8868 19.5429 6.93552 19.4203 6.93552H12.0219C11.9612 6.93555 11.901 6.92362 11.8449 6.90039C11.7888 6.87717 11.7378 6.84311 11.6948 6.80016C11.6519 6.75722 11.6178 6.70623 11.5946 6.65011C11.5714 6.594 11.5595 6.53385 11.5595 6.47312ZM5.54831 18.9579C6.18849 18.9579 6.81429 18.768 7.34658 18.4124C7.87886 18.0567 8.29373 17.5512 8.53872 16.9598C8.7837 16.3683 8.8478 15.7175 8.72291 15.0896C8.59801 14.4617 8.28974 13.885 7.83707 13.4323C7.38439 12.9797 6.80765 12.6714 6.17978 12.5465C5.5519 12.4216 4.90109 12.4857 4.30965 12.7307C3.7182 12.9757 3.21268 13.3905 2.85702 13.9228C2.50136 14.4551 2.31152 15.0809 2.31152 15.7211C2.31256 16.5792 2.65391 17.4019 3.2607 18.0087C3.86749 18.6155 4.69018 18.9568 5.54831 18.9579ZM5.54831 13.4091C6.00558 13.4091 6.45258 13.5447 6.83279 13.7987C7.21299 14.0528 7.50933 14.4139 7.68431 14.8363C7.8593 15.2588 7.90509 15.7237 7.81588 16.1721C7.72667 16.6206 7.50647 17.0326 7.18314 17.3559C6.8598 17.6792 6.44784 17.8994 5.99936 17.9887C5.55088 18.0779 5.08601 18.0321 4.66355 17.8571C4.24109 17.6821 3.88001 17.3858 3.62596 17.0056C3.37192 16.6254 3.23632 16.1784 3.23632 15.7211C3.23696 15.1081 3.48076 14.5204 3.9142 14.087C4.34764 13.6535 4.93533 13.4097 5.54831 13.4091ZM11.5595 15.7211C11.5595 15.6604 11.5714 15.6002 11.5946 15.5441C11.6178 15.488 11.6519 15.437 11.6948 15.394C11.7378 15.3511 11.7888 15.317 11.8449 15.2938C11.901 15.2706 11.9612 15.2587 12.0219 15.2587H19.4203C19.5429 15.2587 19.6605 15.3074 19.7472 15.3941C19.8339 15.4808 19.8827 15.5985 19.8827 15.7211C19.8827 15.8437 19.8339 15.9613 19.7472 16.0481C19.6605 16.1348 19.5429 16.1835 19.4203 16.1835H12.0219C11.9612 16.1835 11.901 16.1716 11.8449 16.1484C11.7888 16.1251 11.7378 16.0911 11.6948 16.0481C11.6519 16.0052 11.6178 15.9542 11.5946 15.8981C11.5714 15.842 11.5595 15.7818 11.5595 15.7211Z" fill="url(#paint0_linear_442_597701)"/>
<defs>
<linearGradient id="paint0_linear_442_597701" x1="11.0971" y1="3.23633" x2="11.0971" y2="18.9579" gradientUnits="userSpaceOnUse">
<stop stop-color="#0033EA"/>
<stop offset="1" stop-color="#8A0074"/>
</linearGradient>
</defs>
</svg>
