<svg width="20" height="20" viewBox="0 0 20 20" fill="none" xmlns="http://www.w3.org/2000/svg">
<path d="M9.99935 18.3337C14.6017 18.3337 18.3327 14.6027 18.3327 10.0003C18.3327 5.39795 14.6017 1.66699 9.99935 1.66699C5.39697 1.66699 1.66602 5.39795 1.66602 10.0003C1.66602 14.6027 5.39697 18.3337 9.99935 18.3337Z" stroke="#2D50C8" stroke-linecap="round" stroke-linejoin="round"/>
<path d="M7.91602 7.47083C7.91602 7.0731 7.91602 6.87423 7.99913 6.7632C8.07157 6.66645 8.18244 6.60592 8.303 6.5973C8.44135 6.58743 8.6086 6.69496 8.94318 6.91004L12.877 9.43897C13.1673 9.62555 13.3125 9.71889 13.3626 9.83755C13.4064 9.94122 13.4064 10.0582 13.3626 10.1619C13.3125 10.2806 13.1673 10.3739 12.877 10.5605L8.94318 13.0894C8.6086 13.3045 8.44135 13.4121 8.303 13.4021C8.18244 13.3936 8.07157 13.333 7.99913 13.2362C7.91602 13.1252 7.91602 12.9264 7.91602 12.5286V7.47083Z" stroke="#2D50C8" stroke-linecap="round" stroke-linejoin="round"/>
</svg>
