<svg width="31" height="31" viewBox="0 0 31 31" fill="none" xmlns="http://www.w3.org/2000/svg">
<rect x="0.395599" y="0.5" width="30" height="30" rx="15" fill="#CCE3FE"/>
<g clip-path="url(#clip0_4588_1090097)">
<path d="M20.9968 21.0277H8.88144C8.61376 21.0274 8.35712 20.9147 8.16785 20.7142C7.97857 20.5137 7.87211 20.2418 7.87183 19.9583V17.2847H8.88144V19.9583H20.9968V17.2847H22.0064V19.9583C22.0062 20.2418 21.8997 20.5137 21.7104 20.7142C21.5211 20.9147 21.2645 21.0274 20.9968 21.0277Z" fill="#333333"/>
<path d="M19.4824 17.2847H10.3959V18.3541H19.4824V17.2847Z" fill="#333333"/>
<path d="M19.4824 14.6113H10.3959V15.6808H19.4824V14.6113Z" fill="#333333"/>
<path d="M19.4824 11.9375H10.3959V13.0069H19.4824V11.9375Z" fill="#333333"/>
<path d="M19.4824 9.26416H10.3959V10.3336H19.4824V9.26416Z" fill="#333333"/>
</g>
<defs>
<clipPath id="clip0_4588_1090097">
<rect width="16.1538" height="17.1111" fill="white" transform="translate(6.86221 6.05566)"/>
</clipPath>
</defs>
</svg>
