<svg width="16" height="16" viewBox="0 0 16 16" fill="none" xmlns="http://www.w3.org/2000/svg">
<g clip-path="url(#clip0_291_881662)">
<path fill-rule="evenodd" clip-rule="evenodd" d="M14.4947 10.7784L13.6128 12.2852L11.6109 11.617L11.4067 11.8024C10.8241 12.3322 10.1549 12.7163 9.41796 12.9421L9.15066 13.025L8.73843 15.0588H6.96337L6.55114 13.024L6.28384 12.9412C5.54691 12.7153 4.87772 12.3313 4.29514 11.8014L4.09091 11.616L2.08902 12.2843L1.20714 10.7774L2.78831 9.40707L2.7262 9.13225C2.63962 8.75107 2.59632 8.36989 2.59632 8.00001C2.59632 7.63013 2.63961 7.24895 2.7262 6.86778L2.78832 6.59295L1.20714 5.2226L2.08902 3.71578L4.09091 4.38307L4.29514 4.19765C4.87772 3.66778 5.54691 3.28378 6.28384 3.05695L6.55114 2.97507L6.96337 0.941183H8.73843L9.15066 2.97602L9.41796 3.05789C10.1549 3.28472 10.8241 3.66778 11.4067 4.1986L11.6109 4.38402L13.6128 3.71578L14.4947 5.2226L12.9135 6.59295L12.9756 6.86778C13.0622 7.24895 13.1055 7.63013 13.1055 8.00001C13.1055 8.36989 13.0622 8.75107 12.9756 9.13225L12.9135 9.40707L14.4947 10.7784ZM14.0467 8.00001C14.0467 7.65178 14.0147 7.29601 13.9497 6.93931L15.7013 5.42212L14.0391 2.58166L11.8293 3.3186C11.2711 2.85554 10.6349 2.49037 9.96384 2.24848L9.50832 0H6.19349L5.73797 2.24753C5.05937 2.49036 4.43443 2.84988 3.87161 3.31765L1.66267 2.58166L0.000549316 5.42212L1.75113 6.93931C1.68713 7.29601 1.65513 7.65178 1.65513 8.00001C1.65513 8.34825 1.68713 8.70401 1.75113 9.05978L0.00055765 10.5779L1.66267 13.4184L3.87256 12.6805C4.43067 13.1445 5.06692 13.5087 5.73797 13.7515L6.1935 16H9.50832L9.96385 13.7525C10.6415 13.5087 11.2674 13.1501 11.8293 12.6814L14.0391 13.4193L15.7013 10.5788L13.9497 9.06072C14.0147 8.70401 14.0467 8.34825 14.0467 8.00001ZM7.8508 4.7058C6.03434 4.7058 4.55669 6.18345 4.55669 7.99992C4.55669 9.81638 6.03434 11.294 7.85081 11.294C9.66728 11.294 11.1449 9.81638 11.1449 7.99992C11.1449 6.18345 9.66727 4.7058 7.8508 4.7058ZM7.85081 10.3529C6.55387 10.3529 5.49787 9.29686 5.49787 7.99992C5.49787 6.70298 6.55387 5.64698 7.85081 5.64698C9.14775 5.64698 10.2038 6.70298 10.2038 7.99992C10.2038 9.29686 9.14776 10.3529 7.85082 10.3529" fill="#333333"/>
</g>
<defs>
<clipPath id="clip0_291_881662">
<rect width="16" height="16" fill="white"/>
</clipPath>
</defs>
</svg>
