<svg width="31" height="31" viewBox="0 0 31 31" fill="none" xmlns="http://www.w3.org/2000/svg">
<rect x="0.395599" y="0.5" width="30" height="30" rx="15" fill="#CCE3FE"/>
<path d="M13.116 15.2913C13.6725 16.3981 14.6019 17.2907 15.7527 17.8239C15.8376 17.8626 15.9315 17.8793 16.0251 17.8725C16.1188 17.8656 16.209 17.8354 16.2868 17.7848L17.977 16.6976C18.0517 16.6488 18.138 16.619 18.2278 16.611C18.3177 16.6031 18.4082 16.6172 18.4908 16.652L21.6549 17.9606C21.763 18.0039 21.8534 18.0803 21.912 18.1779C21.9707 18.2756 21.9943 18.3891 21.9794 18.5009C21.8791 19.2547 21.4971 19.9474 20.9047 20.4495C20.3124 20.9516 19.5504 21.2286 18.7613 21.2288C16.3227 21.2288 13.984 20.296 12.2596 18.6355C10.5353 16.975 9.56655 14.7229 9.56655 12.3746C9.56673 11.6147 9.85444 10.8809 10.3758 10.3105C10.8972 9.74015 11.6166 9.37225 12.3993 9.27568C12.5155 9.26131 12.6334 9.28411 12.7348 9.34058C12.8362 9.39704 12.9155 9.48404 12.9605 9.58818L14.3194 12.6416C14.3547 12.7199 14.3695 12.8054 14.3625 12.8906C14.3554 12.9757 14.3267 13.0579 14.2788 13.1298L13.1498 14.7835C13.0995 14.8583 13.07 14.9442 13.0641 15.0331C13.0582 15.1221 13.076 15.2109 13.116 15.2913V15.2913Z" stroke="#333333" stroke-linecap="round" stroke-linejoin="round"/>
<path d="M18.2204 10.2915H20.9247V12.8957" stroke="#333333" stroke-linecap="round" stroke-linejoin="round"/>
<path d="M17.6795 13.4165L20.9247 10.2915" stroke="#333333" stroke-linecap="round" stroke-linejoin="round"/>
</svg>
