<svg width="3" height="14" viewBox="0 0 3 14" fill="none" xmlns="http://www.w3.org/2000/svg">
<path d="M1.54045 11.0827C2.34591 11.0827 2.99886 11.7356 2.99886 12.5411C2.99886 13.3466 2.34591 13.9995 1.54045 13.9995C0.734986 13.9995 0.0820313 13.3466 0.0820313 12.5411C0.0820313 11.7356 0.734986 11.0827 1.54045 11.0827Z" fill="#333333"/>
<path d="M1.54045 5.53825C2.34591 5.53825 2.99886 6.19118 2.99886 6.99666C2.99886 7.80215 2.34591 8.45508 1.54045 8.45508C0.734986 8.45508 0.0820313 7.80215 0.0820313 6.99666C0.0820313 6.19118 0.734986 5.53825 1.54045 5.53825Z" fill="#333333"/>
<path d="M2.99886 1.45858C2.99886 0.653094 2.34591 0.000161886 1.54045 0.000161886C0.734986 0.000161886 0.0820313 0.653094 0.0820313 1.45858C0.0820313 2.26406 0.734986 2.91699 1.54045 2.91699C2.34591 2.91699 2.99886 2.26406 2.99886 1.45858Z" fill="#333333"/>
</svg>
