<svg width="32" height="32" viewBox="0 0 32 32" fill="none" xmlns="http://www.w3.org/2000/svg">
<rect width="32" height="32" rx="5" fill="#E7EAF9"/>
<path d="M21.2556 13.5625C20.442 13.564 19.6488 13.8176 18.9852 14.2882C18.3215 14.7589 17.8199 15.4236 17.5495 16.191C17.279 16.9583 17.2528 17.7906 17.4746 18.5734C17.6964 19.3562 18.1553 20.0511 18.7881 20.5625H14.2119C14.9332 19.979 15.425 19.1593 15.6003 18.2483C15.7756 17.3372 15.6231 16.3935 15.1698 15.584C14.7165 14.7745 13.9916 14.1514 13.1233 13.8248C12.2549 13.4981 11.299 13.4891 10.4246 13.7991C9.55022 14.1092 8.8136 14.7185 8.34502 15.5192C7.87643 16.3199 7.70606 17.2605 7.86402 18.1747C8.02197 19.089 8.49809 19.9179 9.20818 20.515C9.91828 21.112 10.8166 21.4388 11.7444 21.4375H21.2556C22.2999 21.4375 23.3014 21.0227 24.0399 20.2842C24.7783 19.5458 25.1931 18.5443 25.1931 17.5C25.1931 16.4557 24.7783 15.4542 24.0399 14.7158C23.3014 13.9773 22.2999 13.5625 21.2556 13.5625ZM8.68188 17.5C8.68196 16.8965 8.86033 16.3066 9.19458 15.8041C9.52883 15.3017 10.0041 14.9092 10.5606 14.676C11.1171 14.4427 11.7302 14.3791 12.3228 14.4931C12.9154 14.607 13.4611 14.8935 13.8914 15.3166C14.3217 15.7397 14.6175 16.2804 14.7415 16.871C14.8655 17.4616 14.8123 18.0756 14.5885 18.636C14.3648 19.1965 13.9804 19.6783 13.4838 20.021C12.9871 20.3638 12.4002 20.5522 11.7969 20.5625H11.7444C10.9322 20.5625 10.1532 20.2398 9.57886 19.6655C9.00453 19.0912 8.68188 18.3122 8.68188 17.5ZM21.2556 20.5625H21.2031C20.3862 20.5556 19.6054 20.2253 19.0314 19.644C18.4575 19.0627 18.1372 18.2776 18.1407 17.4607C18.1441 16.6438 18.4711 15.8616 19.0499 15.2851C19.6288 14.7087 20.4125 14.3851 21.2294 14.3851C22.0463 14.3851 22.8299 14.7087 23.4088 15.2851C23.9877 15.8616 24.3146 16.6438 24.3181 17.4607C24.3216 18.2776 24.0013 19.0627 23.4273 19.644C22.8534 20.2253 22.0725 20.5556 21.2556 20.5625Z" fill="url(#paint0_linear_991_50802)"/>
<defs>
<linearGradient id="paint0_linear_991_50802" x1="16.4999" y1="13.5625" x2="16.4999" y2="21.4375" gradientUnits="userSpaceOnUse">
<stop stop-color="#000AFF"/>
<stop offset="1" stop-color="#D274FF"/>
</linearGradient>
</defs>
</svg>
