<svg width="28" height="29" viewBox="0 0 28 29" fill="none" xmlns="http://www.w3.org/2000/svg">
<path d="M20.3407 9.7041C19.2559 9.70613 18.1983 10.0442 17.3135 10.6717C16.4286 11.2993 15.7598 12.1856 15.3992 13.2087C15.0385 14.2319 15.0037 15.3416 15.2994 16.3853C15.5952 17.4291 16.207 18.3556 17.0507 19.0374H10.9491C11.9108 18.2595 12.5665 17.1665 12.8003 15.9518C13.034 14.737 12.8307 13.4788 12.2263 12.3995C11.6219 11.3202 10.6554 10.4893 9.49759 10.0538C8.33978 9.61828 7.06527 9.60617 5.8994 10.0196C4.73352 10.433 3.75137 11.2454 3.12659 12.313C2.50181 13.3806 2.27464 14.6348 2.48525 15.8538C2.69586 17.0727 3.33068 18.1779 4.27747 18.974C5.22427 19.7701 6.42206 20.2058 7.65907 20.2041H20.3407C21.7331 20.2041 23.0685 19.651 24.053 18.6664C25.0376 17.6818 25.5907 16.3465 25.5907 14.9541C25.5907 13.5617 25.0376 12.2264 24.053 11.2418C23.0685 10.2572 21.7331 9.7041 20.3407 9.7041ZM3.57573 14.9541C3.57585 14.1495 3.81367 13.3629 4.25933 12.693C4.705 12.0231 5.33864 11.4998 6.0807 11.1888C6.82276 10.8777 7.64017 10.7929 8.43029 10.9449C9.22041 11.0968 9.94802 11.4788 10.5218 12.0429C11.0955 12.607 11.4898 13.328 11.6552 14.1154C11.8206 14.9029 11.7496 15.7216 11.4513 16.4688C11.1529 17.2161 10.6405 17.8585 9.97825 18.3155C9.31603 18.7725 8.53355 19.0236 7.72906 19.0374H7.65907C6.5761 19.0374 5.53749 18.6072 4.77171 17.8415C4.00594 17.0757 3.57573 16.0371 3.57573 14.9541ZM20.3407 19.0374H20.2707C19.1816 19.0282 18.1404 18.5878 17.3751 17.8127C16.6099 17.0376 16.1828 15.991 16.1874 14.9018C16.1921 13.8125 16.628 12.7695 17.3998 12.001C18.1717 11.2324 19.2165 10.8009 20.3057 10.8009C21.395 10.8009 22.4398 11.2324 23.2116 12.001C23.9835 12.7695 24.4194 13.8125 24.424 14.9018C24.4287 15.991 24.0016 17.0376 23.2363 17.8127C22.4711 18.5878 21.4299 19.0282 20.3407 19.0374Z" fill="url(#paint0_linear_516_601155)"/>
<defs>
<linearGradient id="paint0_linear_516_601155" x1="13.9997" y1="9.7041" x2="13.9997" y2="20.2041" gradientUnits="userSpaceOnUse">
<stop stop-color="#0033EA"/>
<stop offset="1" stop-color="#8A0074"/>
</linearGradient>
</defs>
</svg>
