<svg width="31" height="31" viewBox="0 0 31 31" fill="none" xmlns="http://www.w3.org/2000/svg">
<rect x="0.395599" y="0.5" width="30" height="30" rx="15" fill="#CCE3FE"/>
<path d="M19.7096 11.6113C19.0012 11.6127 18.3106 11.8427 17.7328 12.2696C17.1549 12.6965 16.7182 13.2994 16.4827 13.9954C16.2472 14.6914 16.2245 15.4464 16.4176 16.1564C16.6107 16.8664 17.0102 17.4967 17.5612 17.9605H13.5768C14.2049 17.4313 14.633 16.6878 14.7857 15.8614C14.9383 15.0351 14.8055 14.1791 14.4109 13.4449C14.0162 12.7107 13.3851 12.1455 12.629 11.8492C11.873 11.5529 11.0407 11.5447 10.2794 11.826C9.5181 12.1072 8.87676 12.6598 8.46878 13.3861C8.06081 14.1124 7.91247 14.9656 8.04999 15.7948C8.18752 16.624 8.60206 17.3758 9.22031 17.9174C9.83856 18.459 10.6207 18.7554 11.4285 18.7542H19.7096C20.6188 18.7542 21.4908 18.3779 22.1337 17.7081C22.7766 17.0384 23.1378 16.13 23.1378 15.1828C23.1378 14.2356 22.7766 13.3271 22.1337 12.6574C21.4908 11.9876 20.6188 11.6113 19.7096 11.6113ZM8.76207 15.1828C8.76215 14.6354 8.91745 14.1003 9.20846 13.6446C9.49948 13.1889 9.91324 12.8329 10.3978 12.6213C10.8824 12.4097 11.4161 12.352 11.9321 12.4554C12.448 12.5588 12.9232 12.8186 13.2978 13.2024C13.6725 13.5861 13.93 14.0766 14.0379 14.6122C14.1459 15.1479 14.0996 15.7049 13.9048 16.2132C13.71 16.7215 13.3753 17.1585 12.9429 17.4694C12.5105 17.7803 11.9995 17.9511 11.4742 17.9605H11.4285C10.7213 17.9605 10.0431 17.6679 9.54304 17.1469C9.043 16.626 8.76207 15.9195 8.76207 15.1828ZM19.7096 17.9605H19.6638C18.9526 17.9542 18.2727 17.6547 17.773 17.1274C17.2733 16.6001 16.9944 15.8881 16.9975 15.1471C17.0005 14.4062 17.2852 13.6966 17.7892 13.1738C18.2932 12.651 18.9754 12.3575 19.6867 12.3575C20.398 12.3575 21.0802 12.651 21.5842 13.1738C22.0882 13.6966 22.3729 14.4062 22.3759 15.1471C22.379 15.8881 22.1001 16.6001 21.6004 17.1274C21.1007 17.6547 20.4208 17.9542 19.7096 17.9605Z" fill="#333333"/>
</svg>
