<svg width="18" height="18" viewBox="0 0 18 18" fill="none" xmlns="http://www.w3.org/2000/svg">
<path fill-rule="evenodd" clip-rule="evenodd" d="M6 1.5C6.41421 1.5 6.75 1.83579 6.75 2.25V15.75C6.75 16.1642 6.41421 16.5 6 16.5C5.58579 16.5 5.25 16.1642 5.25 15.75V2.25C5.25 1.83579 5.58579 1.5 6 1.5ZM15 3C15.4142 3 15.75 3.33579 15.75 3.75V14.25C15.75 14.6642 15.4142 15 15 15C14.5858 15 14.25 14.6642 14.25 14.25V3.75C14.25 3.33579 14.5858 3 15 3ZM9 4.5C9.41421 4.5 9.75 4.83579 9.75 5.25V12.75C9.75 13.1642 9.41421 13.5 9 13.5C8.58579 13.5 8.25 13.1642 8.25 12.75V5.25C8.25 4.83579 8.58579 4.5 9 4.5ZM3 6.75C3.41421 6.75 3.75 7.08579 3.75 7.5V10.5C3.75 10.9142 3.41421 11.25 3 11.25C2.58579 11.25 2.25 10.9142 2.25 10.5V7.5C2.25 7.08579 2.58579 6.75 3 6.75ZM12 7.5C12.4142 7.5 12.75 7.83579 12.75 8.25V9.75C12.75 10.1642 12.4142 10.5 12 10.5C11.5858 10.5 11.25 10.1642 11.25 9.75V8.25C11.25 7.83579 11.5858 7.5 12 7.5Z" fill="#645DF6"/>
</svg>
