<svg width="40" height="39" viewBox="0 0 40 39" fill="none" xmlns="http://www.w3.org/2000/svg">
<path d="M0.978516 9.55542C0.978516 4.58486 5.00795 0.55542 9.97852 0.55542H29.9785C34.9491 0.55542 38.9785 4.58486 38.9785 9.55542V38.5512H9.97852C5.00795 38.5512 0.978516 34.5217 0.978516 29.5512V9.55542Z" fill="url(#paint0_linear_461_32913)"/>
<path d="M19.5644 29.1804H28.7847C28.8957 29.1819 29.0059 29.1611 29.1087 29.1193C29.2116 29.0775 29.305 29.0155 29.3835 28.937C29.462 28.8585 29.524 28.7651 29.5658 28.6623C29.6076 28.5594 29.6284 28.4492 29.6269 28.3382V19.1179C29.6269 16.4492 28.5667 13.8897 26.6796 12.0027C24.7926 10.1156 22.2331 9.05542 19.5644 9.05542V9.05542C18.243 9.05542 16.9345 9.31569 15.7136 9.82138C14.4928 10.3271 13.3835 11.0683 12.4491 12.0027C11.5147 12.937 10.7735 14.0463 10.2678 15.2672C9.76216 16.488 9.50188 17.7965 9.50188 19.1179V19.1179C9.50188 20.4393 9.76216 21.7478 10.2678 22.9687C10.7735 24.1895 11.5147 25.2988 12.4491 26.2332C13.3835 27.1676 14.4928 27.9088 15.7136 28.4145C16.9345 28.9201 18.243 29.1804 19.5644 29.1804V29.1804Z" stroke="white" stroke-width="1.5" stroke-linecap="round" stroke-linejoin="round"/>
<path d="M19.5645 20.6492C18.9604 20.6492 18.4707 20.1595 18.4707 19.5554C18.4707 18.9514 18.9604 18.4617 19.5645 18.4617C20.1685 18.4617 20.6582 18.9514 20.6582 19.5554C20.6582 20.1595 20.1685 20.6492 19.5645 20.6492Z" fill="white"/>
<path d="M14.3145 20.6492C13.7104 20.6492 13.2207 20.1595 13.2207 19.5554C13.2207 18.9514 13.7104 18.4617 14.3145 18.4617C14.9185 18.4617 15.4082 18.9514 15.4082 19.5554C15.4082 20.1595 14.9185 20.6492 14.3145 20.6492Z" fill="white"/>
<path d="M24.8145 20.6492C24.2104 20.6492 23.7207 20.1595 23.7207 19.5554C23.7207 18.9514 24.2104 18.4617 24.8145 18.4617C25.4185 18.4617 25.9082 18.9514 25.9082 19.5554C25.9082 20.1595 25.4185 20.6492 24.8145 20.6492Z" fill="white"/>
<defs>
<linearGradient id="paint0_linear_461_32913" x1="-1.68438" y1="-0.797046" x2="36.2008" y2="37.8315" gradientUnits="userSpaceOnUse">
<stop stop-color="#E125FF"/>
<stop offset="1" stop-color="#C972FF"/>
</linearGradient>
</defs>
</svg>
