<svg width="33" height="33" viewBox="0 0 33 33" fill="none" xmlns="http://www.w3.org/2000/svg">
<path d="M0 9C0 4.02944 4.02944 0 9 0H23.8155C28.786 0 32.8155 4.02944 32.8155 9V32.059H8.99999C4.02943 32.059 0 28.0296 0 23.059V9Z" fill="url(#paint0_linear_271_23233)"/>
<path d="M16.5 22.3C15.0413 22.3 13.6424 21.7205 12.6109 20.6891C11.5795 19.6576 11 18.2587 11 16.8C11 16.6541 11.0579 16.5142 11.1611 16.4111C11.2642 16.3079 11.4041 16.25 11.55 16.25C11.6959 16.25 11.8358 16.3079 11.9389 16.4111C12.0421 16.5142 12.1 16.6541 12.1 16.8C12.1 17.967 12.5636 19.0861 13.3887 19.9113C14.2139 20.7364 15.333 21.2 16.5 21.2C17.667 21.2 18.7861 20.7364 19.6113 19.9113C20.4364 19.0861 20.9 17.967 20.9 16.8C20.9 16.6541 20.9579 16.5142 21.0611 16.4111C21.1642 16.3079 21.3041 16.25 21.45 16.25C21.5959 16.25 21.7358 16.3079 21.8389 16.4111C21.9421 16.5142 22 16.6541 22 16.8C22 18.2587 21.4205 19.6576 20.3891 20.6891C19.3576 21.7205 17.9587 22.3 16.5 22.3Z" fill="white"/>
<path d="M16.5002 24.4992C16.3543 24.4992 16.2144 24.4413 16.1113 24.3381C16.0081 24.235 15.9502 24.0951 15.9502 23.9492V21.7492C15.9502 21.6033 16.0081 21.4635 16.1113 21.3603C16.2144 21.2572 16.3543 21.1992 16.5002 21.1992C16.6461 21.1992 16.786 21.2572 16.8891 21.3603C16.9922 21.4635 17.0502 21.6033 17.0502 21.7492V23.9492C17.0502 24.0951 16.9922 24.235 16.8891 24.3381C16.786 24.4413 16.6461 24.4992 16.5002 24.4992Z" fill="white"/>
<path d="M16.5002 20.1C15.625 20.1 14.7856 19.7523 14.1667 19.1335C13.5479 18.5146 13.2002 17.6752 13.2002 16.8V11.3C13.2002 10.4248 13.5479 9.58542 14.1667 8.96655C14.7856 8.34768 15.625 8 16.5002 8C17.3754 8 18.2148 8.34768 18.8336 8.96655C19.4525 9.58542 19.8002 10.4248 19.8002 11.3V16.8C19.8002 17.6752 19.4525 18.5146 18.8336 19.1335C18.2148 19.7523 17.3754 20.1 16.5002 20.1ZM16.5002 9.1C15.9167 9.1 15.3571 9.33178 14.9446 9.74436C14.532 10.1569 14.3002 10.7165 14.3002 11.3V16.8C14.3002 17.3835 14.532 17.9431 14.9446 18.3556C15.3571 18.7682 15.9167 19 16.5002 19C17.0837 19 17.6432 18.7682 18.0558 18.3556C18.4684 17.9431 18.7002 17.3835 18.7002 16.8V11.3C18.7002 10.7165 18.4684 10.1569 18.0558 9.74436C17.6432 9.33178 17.0837 9.1 16.5002 9.1Z" fill="white"/>
<defs>
<linearGradient id="paint0_linear_271_23233" x1="33.2025" y1="35.6562" x2="3.70245" y2="5.15625" gradientUnits="userSpaceOnUse">
<stop stop-color="#63C7FF"/>
<stop offset="1" stop-color="#0094FF"/>
</linearGradient>
</defs>
</svg>
