<svg width="32" height="34" viewBox="0 0 32 34" fill="none" xmlns="http://www.w3.org/2000/svg">
<path d="M0 7.00001C0 3.13401 3.13401 0 7 0H25C28.866 0 32 3.13401 32 7V33.0323H7C3.13401 33.0323 0 29.8983 0 26.0323V7.00001Z" fill="url(#paint0_linear_1062_2623)"/>
<path d="M21.9746 15.5002H19.8496C19.5678 15.5002 19.2976 15.6122 19.0983 15.8114C18.8991 16.0107 18.7871 16.2809 18.7871 16.5627V19.219C18.7871 19.5008 18.8991 19.771 19.0983 19.9703C19.2976 20.1695 19.5678 20.2815 19.8496 20.2815H20.9121C21.1939 20.2815 21.4642 20.1695 21.6634 19.9703C21.8627 19.771 21.9746 19.5008 21.9746 19.219V15.5002ZM21.9746 15.5002C21.9746 14.6586 21.808 13.8252 21.4843 13.0483C21.1606 12.2713 20.6863 11.5662 20.0887 10.9735C19.4911 10.3809 18.782 9.91239 18.0024 9.59516C17.2228 9.27792 16.3881 9.11821 15.5465 9.12522C14.7054 9.11909 13.8714 9.27946 13.0926 9.59708C12.3138 9.91471 11.6055 10.3833 11.0086 10.9759C10.4117 11.5685 9.93795 12.2733 9.61468 13.0498C9.2914 13.8263 9.12498 14.6591 9.125 15.5002V19.219C9.125 19.5008 9.23694 19.771 9.4362 19.9703C9.63546 20.1695 9.90571 20.2815 10.1875 20.2815H11.25C11.5318 20.2815 11.802 20.1695 12.0013 19.9703C12.2006 19.771 12.3125 19.5008 12.3125 19.219V16.5627C12.3125 16.2809 12.2006 16.0107 12.0013 15.8114C11.802 15.6122 11.5318 15.5002 11.25 15.5002H9.125" stroke="white" stroke-width="1.2" stroke-linecap="round" stroke-linejoin="round"/>
<path d="M21.9746 19.2188V20.8125C21.9746 21.3761 21.7507 21.9166 21.3522 22.3151C20.9537 22.7136 20.4132 22.9375 19.8496 22.9375H16.0312" stroke="white" stroke-width="1.2" stroke-linecap="round" stroke-linejoin="round"/>
<defs>
<linearGradient id="paint0_linear_1062_2623" x1="32.3774" y1="36.7387" x2="1.97212" y2="6.98711" gradientUnits="userSpaceOnUse">
<stop stop-color="#FFC531"/>
<stop offset="1" stop-color="#F99500"/>
</linearGradient>
</defs>
</svg>
