<svg width="14" height="14" viewBox="0 0 14 14" fill="none" xmlns="http://www.w3.org/2000/svg">
<g clip-path="url(#clip0_949_19472)">
<path fill-rule="evenodd" clip-rule="evenodd" d="M3.01614 7.00041C3.01614 6.54574 3.09161 6.10977 3.22647 5.70093L0.86725 3.89941C0.407438 4.83293 0.148438 5.8849 0.148438 7.00041C0.148438 8.11505 0.407219 9.16626 0.866266 10.0992L3.22417 8.29421C3.09063 7.88723 3.01614 7.4529 3.01614 7.00041Z" fill="#FBBC05"/>
<path fill-rule="evenodd" clip-rule="evenodd" d="M7.16028 2.86366C8.14805 2.86366 9.04022 3.21366 9.7412 3.78634L11.7804 1.75C10.5378 0.668172 8.94462 0 7.16028 0C4.39003 0 2.00916 1.58419 0.869141 3.899L3.22825 5.70052C3.77184 4.05048 5.32136 2.86366 7.16028 2.86366Z" fill="#EA4335"/>
<path fill-rule="evenodd" clip-rule="evenodd" d="M7.16028 11.1367C5.32147 11.1367 3.77195 9.94984 3.22836 8.2998L0.869141 10.101C2.00916 12.4161 4.39003 14.0003 7.16028 14.0003C8.87003 14.0003 10.5025 13.3932 11.7276 12.2557L9.48822 10.5245C8.85636 10.9225 8.06066 11.1367 7.16028 11.1367Z" fill="#34A853"/>
<path fill-rule="evenodd" clip-rule="evenodd" d="M13.8514 7.00023C13.8514 6.58657 13.7876 6.14109 13.692 5.72754H7.16016V8.43206H10.92C10.732 9.3542 10.2204 10.0631 9.48809 10.5244L11.7274 12.2556C13.0143 11.0612 13.8514 9.2819 13.8514 7.00023Z" fill="#4285F4"/>
</g>
<defs>
<clipPath id="clip0_949_19472">
<rect width="14" height="14" fill="white"/>
</clipPath>
</defs>
</svg>
