<svg width="24" height="25" viewBox="0 0 24 25" fill="none" xmlns="http://www.w3.org/2000/svg">
<path d="M10.3491 9.89111H9.47953C9.45647 9.89111 9.43435 9.89936 9.41805 9.91404C9.40174 9.92871 9.39258 9.94862 9.39258 9.96937V12.9433C9.39258 12.964 9.40174 12.9839 9.41805 12.9986C9.43435 13.0133 9.45647 13.0215 9.47953 13.0215H10.3491C10.3722 13.0215 10.3943 13.0133 10.4106 12.9986C10.4269 12.9839 10.4361 12.964 10.4361 12.9433V9.96937C10.4361 9.94862 10.4269 9.92871 10.4106 9.91404C10.3943 9.89936 10.3722 9.89111 10.3491 9.89111ZM10.2621 12.865H9.56649V10.0476H10.2621V12.865Z" fill="#333333" stroke="#333333" stroke-width="0.5"/>
<path d="M14.8692 9.54311H12.7858L12.9872 8.53262C13.013 8.405 12.9971 8.27245 12.9417 8.15464C12.8864 8.03684 12.7946 7.94005 12.6799 7.87867L12.5619 7.81431C12.5415 7.80365 12.5179 7.80131 12.4958 7.8078C12.4738 7.81429 12.4552 7.8291 12.4438 7.8491L11.4889 9.58833C11.482 9.60115 11.4784 9.6155 11.4785 9.63007V12.5868C11.4785 12.6443 11.4899 12.7013 11.512 12.7544C11.5342 12.8075 11.5666 12.8556 11.6075 12.8961C11.6483 12.9365 11.6968 12.9684 11.7501 12.99C11.8033 13.0115 11.8603 13.0223 11.9178 13.0216H14.0515C14.2621 13.0221 14.4687 12.9633 14.6476 12.852C14.8265 12.7407 14.9707 12.5813 15.0637 12.392L15.6505 11.0562C15.6531 11.0448 15.6531 11.0329 15.6505 11.0214V10.3258C15.65 10.1183 15.5676 9.91952 15.4211 9.77285C15.2747 9.62617 15.0763 9.54357 14.8692 9.54311ZM15.4769 11.0041L14.9057 12.3259C14.8257 12.4837 14.7034 12.6162 14.5526 12.7083C14.4017 12.8005 14.2282 12.8487 14.0515 12.8476H11.9178C11.8487 12.8476 11.7825 12.8202 11.7336 12.7712C11.6848 12.7223 11.6573 12.6559 11.6573 12.5868V9.65268L12.5601 8.00911L12.6018 8.03172C12.6837 8.07576 12.7494 8.14499 12.7891 8.22922C12.8288 8.31344 12.8404 8.40821 12.8223 8.49957L12.6001 9.61268C12.5977 9.62539 12.598 9.63846 12.601 9.65105C12.604 9.66364 12.6096 9.67545 12.6174 9.68572C12.6259 9.69539 12.6363 9.70316 12.648 9.70855C12.6596 9.71395 12.6723 9.71683 12.6851 9.71703H14.8692C15.0304 9.71703 15.1849 9.78116 15.2989 9.89532C15.4128 10.0095 15.4769 10.1643 15.4769 10.3258V11.0041Z" fill="#333333" stroke="#333333" stroke-width="0.5"/>
<path d="M17.385 5.5H6.615C5.92166 5.50066 5.25691 5.77638 4.76665 6.26665C4.27638 6.75691 4.00066 7.42166 4 8.115V14.135C4.00066 14.8283 4.27638 15.4931 4.76665 15.9834C5.25691 16.4736 5.92166 16.7493 6.615 16.75H9.565L11.9025 19.7025C11.9142 19.7171 11.9291 19.7289 11.9459 19.737C11.9628 19.7451 11.9813 19.7493 12 19.7493C12.0187 19.7493 12.0372 19.7451 12.0541 19.737C12.0709 19.7289 12.0858 19.7171 12.0975 19.7025L14.435 16.75H17.385C18.0783 16.7493 18.7431 16.4736 19.2334 15.9834C19.7236 15.4931 19.9993 14.8283 20 14.135V8.115C19.9993 7.42166 19.7236 6.75691 19.2334 6.26665C18.7431 5.77638 18.0783 5.50066 17.385 5.5ZM19.75 14.135C19.7487 14.7618 19.4991 15.3626 19.0559 15.8058C18.6126 16.2491 18.0118 16.4987 17.385 16.5H14.385C14.3662 16.4999 14.3476 16.5041 14.3307 16.5124C14.3138 16.5206 14.299 16.5326 14.2875 16.5475L12 19.4225L9.7225 16.5475C9.71099 16.5326 9.6962 16.5206 9.67929 16.5124C9.66239 16.5041 9.64381 16.4999 9.625 16.5H6.625C6.31377 16.5007 6.00545 16.44 5.71766 16.3215C5.42987 16.203 5.16823 16.029 4.94769 15.8094C4.72715 15.5898 4.55203 15.3289 4.43232 15.0416C4.31261 14.7543 4.25066 14.4462 4.25 14.135V8.115C4.25132 7.48817 4.50091 6.88739 4.94415 6.44415C5.38739 6.00091 5.98817 5.75132 6.615 5.75H17.385C18.0118 5.75132 18.6126 6.00091 19.0559 6.44415C19.4991 6.88739 19.7487 7.48817 19.75 8.115V14.135Z" fill="#333333" stroke="#333333" stroke-width="0.8"/>
</svg>
