<svg width="15" height="15" viewBox="0 0 15 15" fill="none" xmlns="http://www.w3.org/2000/svg">
<g clip-path="url(#clip0_135_102693)">
<path fill-rule="evenodd" clip-rule="evenodd" d="M5.62504 5.54437L7.55629 3.61313V2.94937L5.54535 0.9375L4.88254 1.60031L4.92285 1.64062L5.15723 1.875L6.09473 2.8125H3.28223C2.66063 2.8125 2.06448 3.05943 1.62495 3.49897C1.18541 3.93851 0.938477 4.53465 0.938477 5.15625C0.938477 5.77785 1.18541 6.37399 1.62495 6.81353C2.06448 7.25307 2.66063 7.5 3.28223 7.5H3.75004V6.5625H3.28129C3.09662 6.5625 2.91375 6.52613 2.74314 6.45546C2.57253 6.38479 2.4175 6.2812 2.28692 6.15062C2.15634 6.02004 2.05275 5.86501 1.98208 5.6944C1.91141 5.52378 1.87504 5.34092 1.87504 5.15625C1.87504 4.97158 1.91141 4.78872 1.98208 4.6181C2.05275 4.44749 2.15634 4.29246 2.28692 4.16188C2.4175 4.0313 2.57253 3.92772 2.74314 3.85704C2.91375 3.78637 3.09662 3.75 3.28129 3.75H6.09379L4.8816 4.96219L5.54441 5.625L5.62504 5.54437ZM10.3125 1.875H7.80754L6.87004 0.9375H11.25L11.9157 1.20937L14.7282 4.02187L15 4.6875V13.125L14.0625 14.0625H5.62504L4.68754 13.125V6.09375L5.62504 6.88781V13.125H14.0625V5.625H10.3125V1.875ZM11.25 1.875V4.6875H14.0625L11.25 1.875Z" fill="#645DF6"/>
</g>
<defs>
<clipPath id="clip0_135_102693">
<rect width="15" height="15" fill="white"/>
</clipPath>
</defs>
</svg>
