<svg width="20" height="20" viewBox="0 0 20 20" fill="none" xmlns="http://www.w3.org/2000/svg">
<path d="M10.3434 14.8985L14.2809 17.3985C14.7887 17.7188 15.4137 17.2422 15.2653 16.6563L14.1246 12.1719C14.0938 12.0476 14.0987 11.9171 14.1388 11.7955C14.1789 11.6738 14.2525 11.566 14.3512 11.4844L17.8824 8.53908C18.3434 8.15627 18.109 7.38283 17.5074 7.34377L12.8981 7.04689C12.7723 7.03958 12.6514 6.99578 12.5501 6.92086C12.4488 6.84594 12.3716 6.74314 12.3278 6.62502L10.609 2.29689C10.5635 2.17182 10.4806 2.06377 10.3716 1.98742C10.2626 1.91107 10.1327 1.87012 9.99963 1.87012C9.86654 1.87012 9.73667 1.91107 9.62765 1.98742C9.51863 2.06377 9.43575 2.17182 9.39025 2.29689L7.6715 6.62502C7.6277 6.74314 7.55044 6.84594 7.44915 6.92086C7.34787 6.99578 7.22696 7.03958 7.10119 7.04689L2.49182 7.34377C1.89026 7.38283 1.65588 8.15627 2.11682 8.53908L5.64807 11.4844C5.74677 11.566 5.8204 11.6738 5.86048 11.7955C5.90057 11.9171 5.90547 12.0476 5.87463 12.1719L4.81994 16.3281C4.64026 17.0313 5.39026 17.6016 5.99182 17.2188L9.65588 14.8985C9.75863 14.8331 9.87787 14.7984 9.99963 14.7984C10.1214 14.7984 10.2406 14.8331 10.3434 14.8985Z" fill="#645DF6"/>
</svg>
