<svg width="22" height="22" viewBox="0 0 22 22" fill="none" xmlns="http://www.w3.org/2000/svg">
<path fill-rule="evenodd" clip-rule="evenodd" d="M20.1668 11.0002C20.1668 16.0628 16.0628 20.1668 11.0002 20.1668H2.74439C1.93449 20.1668 1.5289 19.1794 2.10158 18.602L3.89554 16.793C2.60656 15.2141 1.8335 13.1974 1.8335 11.0002C1.8335 5.93755 5.93755 1.8335 11.0002 1.8335C16.0628 1.8335 20.1668 5.93755 20.1668 11.0002ZM14.3983 9.81501C14.7563 9.45703 14.7563 8.87663 14.3983 8.51865C14.0404 8.16067 13.46 8.16067 13.102 8.51865L10.0835 11.5371L8.89834 10.352C8.54036 9.994 7.95996 9.994 7.60198 10.352C7.244 10.71 7.244 11.2904 7.60198 11.6483L9.43531 13.4817C9.60722 13.6536 9.84038 13.7502 10.0835 13.7502C10.3266 13.7502 10.5598 13.6536 10.7317 13.4817L14.3983 9.81501Z" fill="#00A206"/>
</svg>
