<svg width="20" height="25" viewBox="0 0 20 25" fill="none" xmlns="http://www.w3.org/2000/svg">
<path fill-rule="evenodd" clip-rule="evenodd" d="M3.125 2.375C2.69944 2.375 2.3357 2.58743 2.09741 2.8853C1.86258 3.17883 1.75 3.54763 1.75 3.90625V20.3438H1.25C0.835786 20.3438 0.5 20.6795 0.5 21.0938C0.5 21.508 0.835786 21.8438 1.25 21.8438H2.5H11.25H17.5H18.75C19.1642 21.8438 19.5 21.508 19.5 21.0938C19.5 20.6795 19.1642 20.3438 18.75 20.3438H18.25V10.1562C18.25 9.79763 18.1374 9.42883 17.9026 9.1353C17.6643 8.83743 17.3006 8.625 16.875 8.625H12V3.90625C12 3.54763 11.8874 3.17883 11.6526 2.8853C11.4143 2.58743 11.0506 2.375 10.625 2.375H3.125ZM16.75 10.1562V20.3438H12V10.125H16.7478C16.7492 10.1347 16.75 10.1451 16.75 10.1562ZM10.5 3.90625V9.375V20.3438H3.25V3.90625C3.25 3.89514 3.25081 3.88466 3.25219 3.875H10.4978C10.4992 3.88466 10.5 3.89514 10.5 3.90625ZM5 6.28125C4.58579 6.28125 4.25 6.61704 4.25 7.03125C4.25 7.44546 4.58579 7.78125 5 7.78125H7.5C7.91421 7.78125 8.25 7.44546 8.25 7.03125C8.25 6.61704 7.91421 6.28125 7.5 6.28125H5ZM5.5 13.2812C5.5 12.867 5.83579 12.5312 6.25 12.5312H8.75C9.16421 12.5312 9.5 12.867 9.5 13.2812C9.5 13.6955 9.16421 14.0312 8.75 14.0312H6.25C5.83579 14.0312 5.5 13.6955 5.5 13.2812ZM5 16.4375C4.58579 16.4375 4.25 16.7733 4.25 17.1875C4.25 17.6017 4.58579 17.9375 5 17.9375H7.5C7.91421 17.9375 8.25 17.6017 8.25 17.1875C8.25 16.7733 7.91421 16.4375 7.5 16.4375H5ZM13 17.1875C13 16.7733 13.3358 16.4375 13.75 16.4375H15C15.4142 16.4375 15.75 16.7733 15.75 17.1875C15.75 17.6017 15.4142 17.9375 15 17.9375H13.75C13.3358 17.9375 13 17.6017 13 17.1875ZM13.75 12.5312C13.3358 12.5312 13 12.867 13 13.2812C13 13.6955 13.3358 14.0312 13.75 14.0312H15C15.4142 14.0312 15.75 13.6955 15.75 13.2812C15.75 12.867 15.4142 12.5312 15 12.5312H13.75Z" fill="url(#paint0_linear_956_25885)"/>
<defs>
<linearGradient id="paint0_linear_956_25885" x1="10" y1="2.375" x2="10" y2="21.8438" gradientUnits="userSpaceOnUse">
<stop stop-color="#000AFF"/>
<stop offset="1" stop-color="#D274FF"/>
</linearGradient>
</defs>
</svg>
