<svg width="23" height="24" viewBox="0 0 23 24" fill="none" xmlns="http://www.w3.org/2000/svg">
<g id="Group 1707481000">
<g id="Group 1707481001">
<rect id="Rectangle 2554" y="0.823242" width="23" height="23" fill="white"/>
<g id="Group 1707480999">
<path id="Vector" d="M13.0547 14.8333H6.22858C4.44517 14.8333 3 13.3438 3 11.5056V1.6873C3 1.6873 3.03075 1.64927 3.0492 1.66829L5.36147 4.80583C5.74275 5.32559 6.33927 5.62349 6.96653 5.62349H13.0547C14.8381 5.62349 16.2833 7.11303 16.2833 8.95119V11.4993C16.2833 13.3374 14.8381 14.827 13.0547 14.827V14.8333Z" stroke="#FF33FF" stroke-miterlimit="10"/>
<path id="Vector_2" d="M17.1192 9.8132H10.293C8.50962 9.8132 7.06445 11.3027 7.06445 13.1409V22.9592C7.06445 22.9592 7.0952 22.9972 7.11365 22.9782L9.42593 19.8407C9.8072 19.3209 10.4037 19.023 11.031 19.023H17.1192C18.9026 19.023 20.3477 17.5335 20.3477 15.6953V13.1472C20.3477 11.3091 18.9026 9.81954 17.1192 9.81954V9.8132Z" stroke="#C000C0" stroke-miterlimit="10"/>
<path id="Vector_3" d="M10.1635 12.6529C10.3401 12.6529 10.4833 12.5053 10.4833 12.3233C10.4833 12.1412 10.3401 11.9937 10.1635 11.9937C9.98692 11.9937 9.84375 12.1412 9.84375 12.3233C9.84375 12.5053 9.98692 12.6529 10.1635 12.6529Z" stroke="#FF33FF" stroke-width="1.5" stroke-miterlimit="10"/>
<path id="Vector_4" d="M13.184 12.6529C13.3607 12.6529 13.5038 12.5053 13.5038 12.3233C13.5038 12.1412 13.3607 11.9937 13.184 11.9937C13.0074 11.9937 12.8643 12.1412 12.8643 12.3233C12.8643 12.5053 13.0074 12.6529 13.184 12.6529Z" stroke="#FF33FF" stroke-width="1.5" stroke-miterlimit="10"/>
</g>
</g>
</g>
</svg>
