<svg width="23" height="24" viewBox="0 0 23 24" fill="none" xmlns="http://www.w3.org/2000/svg">
<g id="Group 1707481000">
<g id="Group 1707481001">
<rect id="Rectangle 2554" y="0.823242" width="23" height="23" fill="white"/>
</g>
<g id="Group 1707481002">
<g id="Group">
<path id="Vector" d="M12.7038 4.92694H12.6981C12.4614 4.92694 12.2695 5.11884 12.2695 5.35555V14.1421C12.2695 14.3788 12.4614 14.5707 12.6981 14.5707H12.7038C12.9405 14.5707 13.1324 14.3788 13.1324 14.1421V5.35555C13.1324 5.11884 12.9405 4.92694 12.7038 4.92694Z" fill="#6EE8DC"/>
<path id="Vector_2" d="M15.4557 6.8219H15.4501C15.2134 6.8219 15.0215 7.0138 15.0215 7.25051V13.127C15.0215 13.3637 15.2134 13.5556 15.4501 13.5556H15.4557C15.6925 13.5556 15.8844 13.3637 15.8844 13.127V7.25051C15.8844 7.0138 15.6925 6.8219 15.4557 6.8219Z" fill="#93F7E6"/>
<path id="Vector_3" d="M7.19304 6.85574H7.1874C6.95069 6.85574 6.75879 7.04764 6.75879 7.28436V14.1365C6.75879 14.3732 6.95069 14.5651 7.1874 14.5651H7.19304C7.42976 14.5651 7.62165 14.3732 7.62165 14.1365V7.28436C7.62165 7.04764 7.42976 6.85574 7.19304 6.85574Z" fill="#00C7B1"/>
<path id="Vector_4" d="M4.44109 9.57404H4.43545C4.19873 9.57404 4.00684 9.76593 4.00684 10.0026V10.1775C4.00684 10.4142 4.19873 10.6061 4.43545 10.6061H4.44109C4.6778 10.6061 4.8697 10.4142 4.8697 10.1775V10.0026C4.8697 9.76593 4.6778 9.57404 4.44109 9.57404Z" fill="#009F8F"/>
<path id="Vector_5" d="M18.2135 9.57404H18.2079C17.9712 9.57404 17.7793 9.76593 17.7793 10.0026V10.1775C17.7793 10.4142 17.9712 10.6061 18.2079 10.6061H18.2135C18.4503 10.6061 18.6422 10.4142 18.6422 10.1775V10.0026C18.6422 9.76593 18.4503 9.57404 18.2135 9.57404Z" fill="#009F8F"/>
<path id="Vector_6" d="M9.945 2H9.93936C9.70264 2 9.51074 2.1919 9.51074 2.42861V17.0635C9.51074 17.3002 9.70264 17.4921 9.93936 17.4921H9.945C10.1817 17.4921 10.3736 17.3002 10.3736 17.0635V2.42861C10.3736 2.1919 10.1817 2 9.945 2Z" fill="#00C7B1"/>
</g>
<path id="Vector_7" d="M14.0611 23.0359C13.9765 23.0359 13.8863 23.0077 13.813 22.9569L11.0101 21.0338C10.9593 21 10.8973 20.983 10.8353 20.983H5.79341C4.80647 20.983 4 20.1822 4 19.1896V16.0258C4 15.7889 4.19175 15.5972 4.42861 15.5972C4.66548 15.5972 4.85723 15.7889 4.85723 16.0258V19.1896C4.85723 19.7028 5.27456 20.1202 5.78777 20.1202H10.8296C11.0665 20.1202 11.2921 20.1935 11.4894 20.3232L13.6269 21.7895L13.6043 20.2386L13.8581 19.9792H14.0442H16.8922C17.4054 19.9792 17.8228 19.5619 17.8228 19.0486V16.8943C17.8228 16.6574 18.0145 16.4657 18.2514 16.4657C18.4883 16.4657 18.68 16.6574 18.68 16.8943V19.0486C18.68 20.0356 17.8792 20.8421 16.8866 20.8421H14.4672L14.4954 22.8498L14.2585 22.9851C14.1908 23.019 14.1175 23.0359 14.0498 23.0359H14.0611Z" fill="#007E70"/>
</g>
</g>
</svg>
