<svg width="23" height="24" viewBox="0 0 23 24" fill="none" xmlns="http://www.w3.org/2000/svg">
<g id="Group 1707481000">
<g id="Group 1707481001">
<rect id="Rectangle 2554" y="0.823242" width="23" height="23" fill="white"/>
</g>
<g id="Group 1707481003">
<g id="Group">
<path id="Vector" d="M12.4141 22.2353C12.2598 22.2353 12.1125 22.1924 11.9793 22.1137C11.7759 21.9921 11.6357 21.799 11.5796 21.5701C11.5235 21.3412 11.5515 21.1051 11.6707 20.8977C11.7899 20.6903 11.9793 20.5472 12.2037 20.49C12.4281 20.4328 12.6595 20.4614 12.8629 20.583C13.0663 20.7046 13.2065 20.8977 13.2626 21.1266C13.3187 21.3555 13.2907 21.5915 13.1715 21.799C13.0522 22.0064 12.8629 22.1495 12.6385 22.2067C12.5684 22.2281 12.4912 22.2353 12.4211 22.2353H12.4141ZM12.4141 21.005C12.4141 21.005 12.358 21.005 12.3299 21.0193C12.2458 21.0408 12.1686 21.098 12.1266 21.1767C12.0845 21.2554 12.0704 21.3483 12.0915 21.4342C12.1125 21.52 12.1686 21.5987 12.2458 21.6416C12.3229 21.6845 12.4141 21.6988 12.4982 21.6774C12.5824 21.6559 12.6595 21.5987 12.7016 21.52C12.7437 21.4413 12.7577 21.3483 12.7367 21.2625C12.7156 21.1767 12.6595 21.098 12.5824 21.0551C12.5333 21.0265 12.4702 21.005 12.4141 21.005Z" fill="#950019"/>
<path id="Vector_2" d="M21.0331 10.2043C21.3206 10.2043 21.538 9.93246 21.4749 9.64635C20.4931 5.27598 16.6431 2 12.0637 2C7.48439 2 3.63436 5.26883 2.65257 9.64635C2.58946 9.93246 2.80685 10.2043 3.09438 10.2043C3.30476 10.2043 3.48709 10.0541 3.53618 9.84663C4.42681 5.88397 7.91217 2.92271 12.0708 2.92271C16.2293 2.92271 19.7077 5.88397 20.6053 9.84663C20.6544 10.0541 20.8367 10.2043 21.0471 10.2043H21.0331Z" fill="#FF8B00"/>
<path id="Vector_3" d="M19.9327 15.762C18.8597 18.0008 16.8961 19.7103 14.5118 20.4185C14.3294 20.4757 14.1611 20.676 14.1611 20.8762C14.1611 21.1767 14.4487 21.3984 14.7292 21.3126C17.373 20.5329 19.554 18.6303 20.7461 16.1482C20.8864 15.8478 20.676 15.5045 20.3534 15.5045H20.3324C20.1641 15.5045 20.0098 15.6046 19.9327 15.762Z" fill="#FF0033"/>
<g id="Group_2">
<path id="Vector_4" d="M3.87856 11.0197C3.87856 10.7945 3.69959 10.612 3.47883 10.612C3.25807 10.612 3.0791 10.7945 3.0791 11.0197V14.4173C3.0791 14.6424 3.25807 14.825 3.47883 14.825C3.69959 14.825 3.87856 14.6424 3.87856 14.4173V11.0197Z" fill="#FFC251"/>
<path id="Vector_5" d="M2.79946 12.1069C2.79946 11.8818 2.62049 11.6992 2.39973 11.6992C2.17896 11.6992 2 11.8818 2 12.1069V13.466C2 13.6911 2.17896 13.8737 2.39973 13.8737C2.62049 13.8737 2.79946 13.6911 2.79946 13.466V12.1069Z" fill="#FFC251"/>
</g>
<g id="Group_3">
<path id="Vector_6" d="M20.9206 11.0197C20.9206 10.7945 20.7416 10.612 20.5208 10.612C20.3001 10.612 20.1211 10.7945 20.1211 11.0197V14.4173C20.1211 14.6424 20.3001 14.825 20.5208 14.825C20.7416 14.825 20.9206 14.6424 20.9206 14.4173V11.0197Z" fill="#FF4C2A"/>
<path id="Vector_7" d="M22.0006 12.1069C22.0006 11.8818 21.8217 11.6992 21.6009 11.6992C21.3801 11.6992 21.2012 11.8818 21.2012 12.1069V13.466C21.2012 13.6911 21.3801 13.8737 21.6009 13.8737C21.8217 13.8737 22.0006 13.6911 22.0006 13.466V12.1069Z" fill="#FF4C2A"/>
</g>
</g>
<path id="Vector_8" d="M12.0496 7.47191C9.83354 7.47191 8.03125 9.31018 8.03125 11.5705C8.03125 13.8308 9.83354 15.669 12.0496 15.669C12.814 15.669 13.5293 15.4473 14.1394 15.0682L16.0539 15.9122H16.0679V11.5776C16.0679 9.31733 14.2656 7.47906 12.0496 7.47906V7.47191ZM14.0552 14.031L14.0272 14.0954L13.9711 14.0668C13.4381 14.496 12.7719 14.7463 12.0496 14.7463C10.3314 14.7463 8.9359 13.3229 8.9359 11.5705C8.9359 9.81803 10.3314 8.39462 12.0496 8.39462C13.6765 8.39462 15.016 9.67497 15.1562 11.3058V11.8351C15.1562 11.878 15.1492 11.921 15.1422 11.9639L15.1562 11.9496V14.5103L14.0552 14.031Z" fill="#CC0033"/>
</g>
</g>
</svg>
