<svg width="28" height="28" viewBox="0 0 28 28" fill="none" xmlns="http://www.w3.org/2000/svg">
<path d="M0.533203 9.01465C0.533203 4.04409 4.56264 0.0146484 9.5332 0.0146484H18.2168C23.1874 0.0146484 27.2168 4.04409 27.2168 9.01465V27.167H9.5332C4.56264 27.167 0.533203 23.1376 0.533203 18.167V9.01465Z" fill="url(#paint0_linear_956_26107)"/>
<mask id="path-2-inside-1_956_26107" fill="white">
<path d="M19.0747 15.4785C18.7108 15.4804 18.3565 15.5951 18.0606 15.8068L16.6244 14.9568C16.6921 14.7465 16.7277 14.5271 16.7299 14.3061C16.7282 13.7876 16.5547 13.2842 16.2365 12.8748C15.9183 12.4654 15.4733 12.173 14.9713 12.0433V10.6833C15.3624 10.545 15.692 10.2729 15.9019 9.91509C16.1118 9.55725 16.1885 9.13674 16.1183 8.72785C16.0482 8.31897 15.8357 7.94805 15.5186 7.68066C15.2014 7.41326 14.7999 7.2666 14.385 7.2666C13.9702 7.2666 13.5687 7.41326 13.2515 7.68066C12.9343 7.94805 12.7219 8.31897 12.6517 8.72785C12.5816 9.13674 12.6582 9.55725 12.8682 9.91509C13.0781 10.2729 13.4077 10.545 13.7988 10.6833V12.0433C13.2968 12.173 12.8518 12.4654 12.5336 12.8748C12.2154 13.2842 12.0419 13.7876 12.0402 14.3061C12.0424 14.5271 12.078 14.7465 12.1457 14.9568L10.7095 15.8068C10.4136 15.5951 10.0593 15.4804 9.69539 15.4785C9.34757 15.4785 9.00756 15.5817 8.71835 15.7749C8.42915 15.9682 8.20374 16.2428 8.07064 16.5642C7.93753 16.8855 7.9027 17.2391 7.97056 17.5803C8.03842 17.9214 8.20591 18.2348 8.45186 18.4807C8.6978 18.7267 9.01116 18.8942 9.3523 18.962C9.69344 19.0299 10.047 18.9951 10.3684 18.862C10.6897 18.7288 10.9644 18.5034 11.1576 18.2142C11.3509 17.925 11.454 17.585 11.454 17.2372C11.4518 17.0784 11.4282 16.9206 11.3837 16.7682L12.7319 15.9651C13.1713 16.4018 13.7656 16.647 14.385 16.647C15.0045 16.647 15.5988 16.4018 16.0381 15.9651L17.3864 16.7682C17.2882 17.1232 17.3039 17.5001 17.4314 17.8457C17.5588 18.1913 17.7916 18.4882 18.0968 18.6944C18.402 18.9006 18.7643 19.0058 19.1325 18.9951C19.5007 18.9844 19.8562 18.8583 20.1489 18.6347C20.4416 18.4111 20.6567 18.1012 20.7639 17.7488C20.8711 17.3964 20.8649 17.0192 20.7462 16.6705C20.6275 16.3218 20.4023 16.0192 20.1024 15.8053C19.8025 15.5914 19.443 15.4771 19.0747 15.4785ZM9.69539 17.8234C9.57945 17.8234 9.46611 17.789 9.36971 17.7246C9.27331 17.6602 9.19817 17.5686 9.1538 17.4615C9.10944 17.3544 9.09783 17.2365 9.12045 17.1228C9.14306 17.0091 9.1989 16.9046 9.28088 16.8227C9.36286 16.7407 9.46731 16.6849 9.58103 16.6622C9.69474 16.6396 9.81261 16.6512 9.91972 16.6956C10.0268 16.74 10.1184 16.8151 10.1828 16.9115C10.2472 17.0079 10.2816 17.1212 10.2816 17.2372C10.2816 17.3927 10.2198 17.5418 10.1099 17.6517C9.99996 17.7616 9.85086 17.8234 9.69539 17.8234ZM14.385 8.44397C14.501 8.44397 14.6143 8.47835 14.7107 8.54277C14.8071 8.60718 14.8823 8.69873 14.9266 8.80585C14.971 8.91297 14.9826 9.03083 14.96 9.14455C14.9374 9.25826 14.8815 9.36272 14.7996 9.4447C14.7176 9.52668 14.6131 9.58252 14.4994 9.60513C14.3857 9.62775 14.2678 9.61614 14.1607 9.57178C14.0536 9.52741 13.962 9.45227 13.8976 9.35587C13.8332 9.25946 13.7988 9.14613 13.7988 9.03018C13.7988 8.87471 13.8606 8.7256 13.9705 8.61567C14.0805 8.50573 14.2296 8.44397 14.385 8.44397ZM14.385 15.4785C14.1532 15.4785 13.9265 15.4098 13.7337 15.281C13.5409 15.1521 13.3906 14.969 13.3019 14.7548C13.2131 14.5405 13.1899 14.3048 13.2352 14.0774C13.2804 13.85 13.3921 13.641 13.556 13.4771C13.72 13.3131 13.9289 13.2014 14.1563 13.1562C14.3837 13.111 14.6195 13.1342 14.8337 13.2229C15.0479 13.3117 15.231 13.4619 15.3599 13.6547C15.4887 13.8476 15.5575 14.0742 15.5575 14.3061C15.5575 14.6171 15.4339 14.9153 15.2141 15.1351C14.9942 15.355 14.696 15.4785 14.385 15.4785ZM19.0747 17.8234C18.9588 17.8234 18.8454 17.789 18.749 17.7246C18.6526 17.6602 18.5775 17.5686 18.5331 17.4615C18.4887 17.3544 18.4771 17.2365 18.4998 17.1228C18.5224 17.0091 18.5782 16.9046 18.6602 16.8227C18.7422 16.7407 18.8466 16.6849 18.9603 16.6622C19.074 16.6396 19.1919 16.6512 19.299 16.6956C19.4061 16.74 19.4977 16.8151 19.5621 16.9115C19.6265 17.0079 19.6609 17.1212 19.6609 17.2372C19.6609 17.3927 19.5991 17.5418 19.4892 17.6517C19.3793 17.7616 19.2302 17.8234 19.0747 17.8234Z"/>
</mask>
<path d="M19.0747 15.4785L19.0701 14.2785L19.0685 14.2786L19.0747 15.4785ZM18.0606 15.8068L17.4494 16.8395L18.1225 17.2379L18.7587 16.7828L18.0606 15.8068ZM16.6244 14.9568L15.4822 14.5888L15.1882 15.5013L16.0132 15.9895L16.6244 14.9568ZM16.7299 14.3061L17.9298 14.3179L17.9299 14.3101L17.9299 14.3022L16.7299 14.3061ZM14.9713 12.0433H13.7713V12.9728L14.6713 13.2052L14.9713 12.0433ZM14.9713 10.6833L14.5712 9.55194L13.7713 9.83478V10.6833H14.9713ZM14.385 7.2666V8.4666V7.2666ZM13.7988 10.6833H14.9988V9.83478L14.1988 9.55194L13.7988 10.6833ZM13.7988 12.0433L14.0988 13.2052L14.9988 12.9728V12.0433H13.7988ZM12.0402 14.3061L10.8402 14.3022L10.8402 14.3101L10.8403 14.3179L12.0402 14.3061ZM12.1457 14.9568L12.7569 15.9895L13.5819 15.5013L13.2879 14.5888L12.1457 14.9568ZM10.7095 15.8068L10.0113 16.7828L10.6475 17.2379L11.3207 16.8395L10.7095 15.8068ZM9.69539 15.4785L9.70157 14.2785H9.69539V15.4785ZM11.454 17.2372H12.654V17.229L12.6539 17.2208L11.454 17.2372ZM11.3837 16.7682L10.7696 15.7373L9.97133 16.2127L10.2318 17.1046L11.3837 16.7682ZM12.7319 15.9651L13.5779 15.1141L12.9177 14.4577L12.1178 14.9341L12.7319 15.9651ZM14.385 16.647V17.847V16.647ZM16.0381 15.9651L16.6522 14.9341L15.8524 14.4577L15.1921 15.1141L16.0381 15.9651ZM17.3864 16.7682L18.543 17.0882L18.7871 16.2058L18.0005 15.7373L17.3864 16.7682ZM14.385 8.44397V9.64397V8.44397ZM19.0685 14.2786C18.4564 14.2817 17.8603 14.4747 17.3624 14.8308L18.7587 16.7828C18.8528 16.7156 18.9653 16.6791 19.0809 16.6785L19.0685 14.2786ZM18.6718 14.7741L17.2355 13.9241L16.0132 15.9895L17.4494 16.8395L18.6718 14.7741ZM17.7665 15.3248C17.8714 14.9993 17.9264 14.6599 17.9298 14.3179L15.5299 14.2943C15.5289 14.3943 15.5128 14.4936 15.4822 14.5888L17.7665 15.3248ZM17.9299 14.3022C17.9273 13.5183 17.665 12.7574 17.184 12.1384L15.289 13.6112C15.4443 13.8111 15.5291 14.0568 15.5299 14.31L17.9299 14.3022ZM17.184 12.1384C16.7029 11.5194 16.0303 11.0774 15.2712 10.8814L14.6713 13.2052C14.9164 13.2685 15.1336 13.4113 15.289 13.6112L17.184 12.1384ZM16.1713 12.0433V10.6833H13.7713V12.0433H16.1713ZM15.3713 11.8147C16.0293 11.582 16.5839 11.1243 16.937 10.5223L14.8669 9.30791C14.8002 9.42158 14.6955 9.50801 14.5712 9.55194L15.3713 11.8147ZM16.937 10.5223C17.2901 9.92026 17.4191 9.21281 17.3011 8.52493L14.9356 8.93077C14.9579 9.06066 14.9336 9.19424 14.8669 9.30791L16.937 10.5223ZM17.3011 8.52493C17.183 7.83706 16.8256 7.21305 16.292 6.76319L14.7451 8.59812C14.8458 8.68306 14.9133 8.80089 14.9356 8.93077L17.3011 8.52493ZM16.292 6.76319C15.7584 6.31334 15.083 6.0666 14.385 6.0666V8.4666C14.5168 8.4666 14.6443 8.51319 14.7451 8.59812L16.292 6.76319ZM14.385 6.0666C13.6871 6.0666 13.0117 6.31334 12.478 6.76319L14.025 8.59812C14.1257 8.51319 14.2533 8.4666 14.385 8.4666V6.0666ZM12.478 6.76319C11.9444 7.21305 11.5871 7.83706 11.469 8.52493L13.8345 8.93077C13.8568 8.80089 13.9242 8.68306 14.025 8.59812L12.478 6.76319ZM11.469 8.52493C11.351 9.21281 11.48 9.92026 11.8331 10.5223L13.9032 9.30791C13.8365 9.19424 13.8122 9.06066 13.8345 8.93077L11.469 8.52493ZM11.8331 10.5223C12.1862 11.1243 12.7408 11.582 13.3988 11.8147L14.1988 9.55194C14.0746 9.50801 13.9699 9.42158 13.9032 9.30791L11.8331 10.5223ZM12.5988 10.6833V12.0433H14.9988V10.6833H12.5988ZM13.4988 10.8814C12.7398 11.0774 12.0672 11.5194 11.5861 12.1384L13.4811 13.6112C13.6365 13.4113 13.8537 13.2685 14.0988 13.2052L13.4988 10.8814ZM11.5861 12.1384C11.1051 12.7574 10.8428 13.5183 10.8402 14.3022L13.2402 14.31C13.241 14.0568 13.3258 13.8111 13.4811 13.6112L11.5861 12.1384ZM10.8403 14.3179C10.8436 14.6599 10.8987 14.9993 11.0035 15.3248L13.2879 14.5888C13.2572 14.4936 13.2411 14.3943 13.2402 14.2943L10.8403 14.3179ZM11.5345 13.9241L10.0983 14.7741L11.3207 16.8395L12.7569 15.9895L11.5345 13.9241ZM11.4077 14.8308C10.9098 14.4747 10.3137 14.2817 9.70157 14.2786L9.68921 16.6785C9.80479 16.6791 9.91734 16.7156 10.0113 16.7828L11.4077 14.8308ZM9.69539 14.2785C9.11023 14.2785 8.53821 14.4521 8.05166 14.7772L9.38504 16.7727C9.4769 16.7113 9.58491 16.6785 9.69539 16.6785V14.2785ZM8.05166 14.7772C7.56512 15.1023 7.18591 15.5643 6.96198 16.105L9.17929 17.0234C9.22158 16.9213 9.29318 16.8341 9.38504 16.7727L8.05166 14.7772ZM6.96198 16.105C6.73805 16.6456 6.67946 17.2405 6.79362 17.8144L9.1475 17.3462C9.12595 17.2378 9.13701 17.1255 9.17929 17.0234L6.96198 16.105ZM6.79362 17.8144C6.90777 18.3883 7.18955 18.9155 7.60332 19.3293L9.30039 17.6322C9.22226 17.5541 9.16906 17.4545 9.1475 17.3462L6.79362 17.8144ZM7.60332 19.3293C8.01709 19.743 8.54427 20.0248 9.11819 20.139L9.58641 17.7851C9.47805 17.7635 9.37852 17.7103 9.30039 17.6322L7.60332 19.3293ZM9.11819 20.139C9.69211 20.2531 10.287 20.1945 10.8276 19.9706L9.90916 17.7533C9.80709 17.7956 9.69477 17.8066 9.58641 17.7851L9.11819 20.139ZM10.8276 19.9706C11.3682 19.7467 11.8303 19.3675 12.1554 18.8809L10.1599 17.5476C10.0985 17.6394 10.0112 17.711 9.90916 17.7533L10.8276 19.9706ZM12.1554 18.8809C12.4805 18.3944 12.654 17.8223 12.654 17.2372H10.254C10.254 17.3477 10.2212 17.4557 10.1599 17.5476L12.1554 18.8809ZM12.6539 17.2208C12.6503 16.9537 12.6104 16.6883 12.5356 16.4318L10.2318 17.1046C10.2459 17.153 10.2534 17.2031 10.2541 17.2536L12.6539 17.2208ZM11.9978 17.7992L13.346 16.9961L12.1178 14.9341L10.7696 15.7373L11.9978 17.7992ZM11.8859 16.8161C12.5501 17.4764 13.4485 17.847 14.385 17.847V15.447C14.0826 15.447 13.7924 15.3273 13.5779 15.1141L11.8859 16.8161ZM14.385 17.847C15.3215 17.847 16.22 17.4764 16.8842 16.8161L15.1921 15.1141C14.9776 15.3273 14.6875 15.447 14.385 15.447V17.847ZM15.424 16.9961L16.7723 17.7992L18.0005 15.7373L16.6522 14.9341L15.424 16.9961ZM16.2299 16.4482C16.0646 17.0455 16.0911 17.6795 16.3055 18.2609L18.5573 17.4305C18.5168 17.3207 18.5118 17.201 18.543 17.0882L16.2299 16.4482ZM16.3055 18.2609C16.5199 18.8424 16.9115 19.3418 17.425 19.6887L18.7686 17.7001C18.6717 17.6346 18.5977 17.5403 18.5573 17.4305L16.3055 18.2609ZM17.425 19.6887C17.9385 20.0356 18.5479 20.2126 19.1674 20.1946L19.0976 17.7956C18.9806 17.799 18.8656 17.7656 18.7686 17.7001L17.425 19.6887ZM19.1674 20.1946C19.7868 20.1766 20.3849 19.9645 20.8774 19.5883L19.4205 17.6811C19.3275 17.7521 19.2146 17.7922 19.0976 17.7956L19.1674 20.1946ZM20.8774 19.5883C21.3698 19.2121 21.7317 18.6908 21.912 18.0979L19.6158 17.3997C19.5818 17.5116 19.5134 17.6101 19.4205 17.6811L20.8774 19.5883ZM21.912 18.0979C22.0923 17.505 22.0819 16.8705 21.8822 16.2839L19.6102 17.0572C19.6479 17.1679 19.6499 17.2878 19.6158 17.3997L21.912 18.0979ZM21.8822 16.2839C21.6825 15.6972 21.3037 15.1881 20.7992 14.8283L19.4057 16.7823C19.501 16.8503 19.5725 16.9464 19.6102 17.0572L21.8822 16.2839ZM20.7992 14.8283C20.2946 14.4685 19.6898 14.2762 19.0701 14.2785L19.0792 16.6785C19.1962 16.6781 19.3104 16.7144 19.4057 16.7823L20.7992 14.8283ZM9.69539 16.6234C9.81679 16.6234 9.93546 16.6594 10.0364 16.7268L8.70302 18.7224C8.99676 18.9186 9.34211 19.0234 9.69539 19.0234V16.6234ZM10.0364 16.7268C10.1373 16.7943 10.216 16.8902 10.2625 17.0023L8.04515 17.9207C8.18034 18.2471 8.40928 18.5261 8.70302 18.7224L10.0364 16.7268ZM10.2625 17.0023C10.3089 17.1145 10.3211 17.2379 10.2974 17.3569L7.9435 16.8887C7.87458 17.2352 7.90996 17.5943 8.04515 17.9207L10.2625 17.0023ZM10.2974 17.3569C10.2737 17.476 10.2153 17.5853 10.1294 17.6712L8.43234 15.9741C8.18254 16.224 8.01242 16.5422 7.9435 16.8887L10.2974 17.3569ZM10.1294 17.6712C10.0436 17.757 9.9342 17.8155 9.81514 17.8392L9.34691 15.4853C9.00043 15.5542 8.68215 15.7243 8.43234 15.9741L10.1294 17.6712ZM9.81514 17.8392C9.69607 17.8629 9.57265 17.8507 9.4605 17.8042L10.3789 15.5869C10.0526 15.4517 9.69341 15.4164 9.34691 15.4853L9.81514 17.8392ZM9.4605 17.8042C9.34834 17.7578 9.25248 17.6791 9.18503 17.5782L11.1806 16.2448C10.9843 15.9511 10.7053 15.7221 10.3789 15.5869L9.4605 17.8042ZM9.18503 17.5782C9.11759 17.4772 9.0816 17.3586 9.0816 17.2372H11.4816C11.4816 16.8839 11.3768 16.5386 11.1806 16.2448L9.18503 17.5782ZM9.0816 17.2372C9.0816 17.0744 9.14626 16.9183 9.26137 16.8032L10.9584 18.5002C11.2934 18.1652 11.4816 17.7109 11.4816 17.2372H9.0816ZM9.26137 16.8032C9.37647 16.6881 9.53259 16.6234 9.69539 16.6234V19.0234C10.1691 19.0234 10.6235 18.8352 10.9584 18.5002L9.26137 16.8032ZM14.385 9.64397C14.2636 9.64397 14.145 9.60797 14.044 9.54052L15.3774 7.54501C15.0837 7.34873 14.7383 7.24397 14.385 7.24397V9.64397ZM14.044 9.54052C13.9431 9.47308 13.8644 9.37722 13.818 9.26507L16.0353 8.34663C15.9001 8.02025 15.6712 7.74128 15.3774 7.54501L14.044 9.54052ZM13.818 9.26507C13.7715 9.15291 13.7594 9.0295 13.783 8.91044L16.1369 9.37865C16.2058 9.03217 16.1705 8.67302 16.0353 8.34663L13.818 9.26507ZM13.783 8.91044C13.8067 8.79138 13.8652 8.68202 13.951 8.59618L15.6481 10.2932C15.8979 10.0434 16.068 9.72514 16.1369 9.37865L13.783 8.91044ZM13.951 8.59618C14.0369 8.51034 14.1462 8.45188 14.2653 8.42819L14.7335 10.7821C15.08 10.7132 15.3983 10.543 15.6481 10.2932L13.951 8.59618ZM14.2653 8.42819C14.3844 8.40451 14.5078 8.41666 14.6199 8.46312L13.7015 10.6804C14.0279 10.8156 14.387 10.851 14.7335 10.7821L14.2653 8.42819ZM14.6199 8.46312C14.7321 8.50958 14.828 8.58825 14.8954 8.68919L12.8999 10.0225C13.0961 10.3163 13.3751 10.5452 13.7015 10.6804L14.6199 8.46312ZM14.8954 8.68919C14.9628 8.79013 14.9988 8.90879 14.9988 9.03018H12.5988C12.5988 9.38346 12.7036 9.7288 12.8999 10.0225L14.8954 8.68919ZM14.9988 9.03018C14.9988 9.19297 14.9342 9.34908 14.8191 9.46419L13.122 7.76715C12.787 8.10213 12.5988 8.55645 12.5988 9.03018H14.9988ZM14.8191 9.46419C14.704 9.5793 14.5478 9.64397 14.385 9.64397V7.24397C13.9113 7.24397 13.457 7.43216 13.122 7.76715L14.8191 9.46419ZM14.385 14.2785C14.3905 14.2785 14.3958 14.2802 14.4004 14.2832L13.067 16.2787C13.4571 16.5394 13.9158 16.6785 14.385 16.6785V14.2785ZM14.4004 14.2832C14.4049 14.2862 14.4084 14.2905 14.4105 14.2956L12.1932 15.214C12.3728 15.6475 12.6769 16.018 13.067 16.2787L14.4004 14.2832ZM14.4105 14.2956C14.4126 14.3006 14.4132 14.3061 14.4121 14.3115L12.0582 13.8433C11.9667 14.3035 12.0137 14.7805 12.1932 15.214L14.4105 14.2956ZM14.4121 14.3115C14.411 14.3168 14.4084 14.3217 14.4046 14.3256L12.7075 12.6286C12.3757 12.9603 12.1498 13.3831 12.0582 13.8433L14.4121 14.3115ZM14.4046 14.3256C14.4007 14.3295 14.3958 14.3321 14.3904 14.3332L13.9222 11.9793C13.462 12.0708 13.0393 12.2968 12.7075 12.6286L14.4046 14.3256ZM14.3904 14.3332C14.3851 14.3342 14.3795 14.3337 14.3745 14.3316L15.2929 12.1143C14.8594 11.9347 14.3824 11.8877 13.9222 11.9793L14.3904 14.3332ZM14.3745 14.3316C14.3694 14.3295 14.3651 14.326 14.3621 14.3214L16.3576 12.9881C16.097 12.5979 15.7264 12.2938 15.2929 12.1143L14.3745 14.3316ZM14.3621 14.3214C14.3591 14.3169 14.3575 14.3116 14.3575 14.3061H16.7575C16.7575 13.8369 16.6183 13.3782 16.3576 12.9881L14.3621 14.3214ZM14.3575 14.3061C14.3575 14.2988 14.3604 14.2918 14.3655 14.2866L16.0626 15.9837C16.5075 15.5387 16.7575 14.9353 16.7575 14.3061H14.3575ZM14.3655 14.2866C14.3707 14.2814 14.3777 14.2785 14.385 14.2785V16.6785C15.0143 16.6785 15.6177 16.4286 16.0626 15.9837L14.3655 14.2866ZM19.0747 16.6234C19.1961 16.6234 19.3148 16.6594 19.4157 16.7268L18.0823 18.7224C18.3761 18.9186 18.7214 19.0234 19.0747 19.0234V16.6234ZM19.4157 16.7268C19.5167 16.7943 19.5953 16.8902 19.6418 17.0023L17.4245 17.9207C17.5596 18.2471 17.7886 18.5261 18.0823 18.7224L19.4157 16.7268ZM19.6418 17.0023C19.6882 17.1144 19.7004 17.2379 19.6767 17.3569L17.3228 16.8887C17.2539 17.2352 17.2893 17.5944 17.4245 17.9207L19.6418 17.0023ZM19.6767 17.3569C19.653 17.476 19.5946 17.5853 19.5087 17.6712L17.8117 15.9741C17.5618 16.224 17.3917 16.5422 17.3228 16.8887L19.6767 17.3569ZM19.5087 17.6712C19.4229 17.757 19.3135 17.8155 19.1944 17.8392L18.7262 15.4853C18.3797 15.5542 18.0615 15.7243 17.8117 15.9741L19.5087 17.6712ZM19.1944 17.8392C19.0754 17.8629 18.952 17.8507 18.8398 17.8042L19.7583 15.5869C19.4319 15.4517 19.0727 15.4164 18.7262 15.4853L19.1944 17.8392ZM18.8398 17.8042C18.7277 17.7578 18.6318 17.6791 18.5643 17.5782L20.5599 16.2448C20.3636 15.9511 20.0846 15.7221 19.7583 15.5869L18.8398 17.8042ZM18.5643 17.5782C18.4969 17.4772 18.4609 17.3586 18.4609 17.2372H20.8609C20.8609 16.8839 20.7562 16.5386 20.5599 16.2448L18.5643 17.5782ZM18.4609 17.2372C18.4609 17.0744 18.5256 16.9183 18.6407 16.8032L20.3377 18.5002C20.6727 18.1652 20.8609 17.7109 20.8609 17.2372H18.4609ZM18.6407 16.8032C18.7558 16.6881 18.9119 16.6234 19.0747 16.6234V19.0234C19.5484 19.0234 20.0028 18.8352 20.3377 18.5002L18.6407 16.8032Z" fill="white" mask="url(#path-2-inside-1_956_26107)"/>
<defs>
<linearGradient id="paint0_linear_956_26107" x1="27.5315" y1="30.2137" x2="2.53329" y2="5.39976" gradientUnits="userSpaceOnUse">
<stop stop-color="#707DF1"/>
<stop offset="1" stop-color="#4356FD"/>
</linearGradient>
</defs>
</svg>
