<svg width="18" height="19" viewBox="0 0 18 19" fill="none" xmlns="http://www.w3.org/2000/svg">
<path d="M3.83203 14.668C3.18516 14.0211 3.61406 12.6641 3.28359 11.8695C2.95313 11.075 1.6875 10.3789 1.6875 9.5C1.6875 8.62109 2.93906 7.95313 3.28359 7.13047C3.62813 6.30781 3.18516 4.97891 3.83203 4.33203C4.47891 3.68516 5.83594 4.11406 6.63047 3.78359C7.425 3.45313 8.12109 2.1875 9 2.1875C9.87891 2.1875 10.5469 3.43906 11.3695 3.78359C12.1922 4.12813 13.5211 3.68516 14.168 4.33203C14.8148 4.97891 14.3859 6.33594 14.7164 7.13047C15.0469 7.925 16.3125 8.62109 16.3125 9.5C16.3125 10.3789 15.0609 11.0469 14.7164 11.8695C14.3719 12.6922 14.8148 14.0211 14.168 14.668C13.5211 15.3148 12.1641 14.8859 11.3695 15.2164C10.575 15.5469 9.87891 16.8125 9 16.8125C8.12109 16.8125 7.45313 15.5609 6.63047 15.2164C5.80781 14.8719 4.47891 15.3148 3.83203 14.668Z" stroke="#555555" stroke-width="1.2" stroke-linecap="round" stroke-linejoin="round"/>
<path d="M12.0938 7.8125L7.96641 11.75L5.90625 9.78125" stroke="#555555" stroke-width="1.2" stroke-linecap="round" stroke-linejoin="round"/>
</svg>
