<svg width="14" height="14" viewBox="0 0 14 14" fill="none" xmlns="http://www.w3.org/2000/svg">
<path d="M5.14648 8.85391L8.8543 5.14062" stroke="#333333" stroke-linecap="round" stroke-linejoin="round"/>
<path d="M7.9294 9.78359L6.38174 11.3312C6.13792 11.5751 5.84847 11.7685 5.52991 11.9004C5.21134 12.0324 4.86991 12.1003 4.5251 12.1003C3.82873 12.1003 3.16087 11.8237 2.66846 11.3312C2.17605 10.8388 1.89941 10.171 1.89941 9.47461C1.89941 8.77823 2.17605 8.11038 2.66846 7.61797L4.21612 6.07031" stroke="#333333" stroke-linecap="round" stroke-linejoin="round"/>
<path d="M9.78359 7.9294L11.3312 6.38174C11.8237 5.88933 12.1003 5.22148 12.1003 4.5251C12.1003 3.82873 11.8237 3.16087 11.3312 2.66846C10.8388 2.17605 10.171 1.89941 9.47461 1.89941C8.77823 1.89941 8.11038 2.17605 7.61797 2.66846L6.07031 4.21612" stroke="#333333" stroke-linecap="round" stroke-linejoin="round"/>
</svg>
