<svg width="35" height="34" viewBox="0 0 35 34" fill="none" xmlns="http://www.w3.org/2000/svg">
<rect x="10.2549" width="24" height="24" rx="12" fill="#F6DDEF"/>
<path fill-rule="evenodd" clip-rule="evenodd" d="M25.25 7C25.25 6.86193 25.1381 6.75 25 6.75H7C6.86193 6.75 6.75 6.86193 6.75 7V29C6.75 29.1381 6.86193 29.25 7 29.25H25C25.1381 29.25 25.25 29.1381 25.25 29V7ZM25 5.25C25.9665 5.25 26.75 6.0335 26.75 7V29C26.75 29.9665 25.9665 30.75 25 30.75H7C6.0335 30.75 5.25 29.9665 5.25 29V7C5.25 6.0335 6.0335 5.25 7 5.25H25ZM12.75 19C12.75 17.2051 14.2051 15.75 16 15.75C17.7949 15.75 19.25 17.2051 19.25 19C19.25 20.7949 17.7949 22.25 16 22.25C14.2051 22.25 12.75 20.7949 12.75 19ZM16 14.25C13.3766 14.25 11.25 16.3766 11.25 19C11.25 20.5371 11.9801 21.9037 13.1124 22.7718C12.8398 22.8737 12.572 22.9902 12.3105 23.121C11.1649 23.6938 10.1684 24.5254 9.39998 25.55C9.15145 25.8814 9.21861 26.3515 9.54998 26.6C9.88135 26.8485 10.3515 26.7814 10.6 26.45C11.2287 25.6117 12.044 24.9313 12.9813 24.4626C13.9186 23.994 14.9521 23.75 16 23.75C17.0479 23.75 18.0814 23.994 19.0187 24.4626C19.9559 24.9313 20.7712 25.6117 21.4 26.45C21.6485 26.7814 22.1186 26.8485 22.45 26.6C22.7814 26.3515 22.8485 25.8814 22.6 25.55C21.8315 24.5254 20.8351 23.6938 19.6895 23.121C19.4279 22.9902 19.1602 22.8737 18.8875 22.7718C20.0199 21.9037 20.75 20.5371 20.75 19C20.75 16.3766 18.6233 14.25 16 14.25ZM12 9.25C11.5858 9.25 11.25 9.58579 11.25 10C11.25 10.4142 11.5858 10.75 12 10.75H20C20.4142 10.75 20.75 10.4142 20.75 10C20.75 9.58579 20.4142 9.25 20 9.25H12Z" fill="url(#paint0_linear_1_128808)"/>
<defs>
<linearGradient id="paint0_linear_1_128808" x1="16" y1="5.25" x2="16" y2="30.75" gradientUnits="userSpaceOnUse">
<stop stop-color="#000AFF"/>
<stop offset="1" stop-color="#D274FF"/>
</linearGradient>
</defs>
</svg>
