<svg width="17" height="17" viewBox="0 0 17 17" fill="none" xmlns="http://www.w3.org/2000/svg">
<g clip-path="url(#clip0_949_19684)">
<path d="M8.5 15C7.21442 15 5.95772 14.6188 4.8888 13.9046C3.81988 13.1903 2.98676 12.1752 2.49479 10.9874C2.00282 9.79973 1.87409 8.49279 2.1249 7.23192C2.3757 5.97104 2.99477 4.81285 3.90381 3.90381C4.81285 2.99477 5.97104 2.3757 7.23192 2.1249C8.49279 1.87409 9.79973 2.00282 10.9874 2.49479C12.1752 2.98676 13.1903 3.81988 13.9046 4.8888C14.6188 5.95772 15 7.21442 15 8.5C15 10.2239 14.3152 11.8772 13.0962 13.0962C11.8772 14.3152 10.2239 15 8.5 15ZM8.5 3C7.41221 3 6.34884 3.32257 5.44437 3.92692C4.5399 4.53127 3.83495 5.39025 3.41867 6.39524C3.00238 7.40024 2.89347 8.5061 3.10568 9.573C3.3179 10.6399 3.84173 11.6199 4.61092 12.3891C5.3801 13.1583 6.36011 13.6821 7.42701 13.8943C8.4939 14.1065 9.59977 13.9976 10.6048 13.5813C11.6098 13.1651 12.4687 12.4601 13.0731 11.5556C13.6774 10.6512 14 9.5878 14 8.5C14 7.04131 13.4205 5.64237 12.3891 4.61092C11.3576 3.57947 9.95869 3 8.5 3Z" fill="#645DF6"/>
<path d="M8.5 12C8.36739 12 8.24021 11.9473 8.14645 11.8536C8.05268 11.7598 8 11.6326 8 11.5V5.5C8 5.36739 8.05268 5.24021 8.14645 5.14645C8.24021 5.05268 8.36739 5 8.5 5C8.63261 5 8.75979 5.05268 8.85355 5.14645C8.94732 5.24021 9 5.36739 9 5.5V11.5C9 11.6326 8.94732 11.7598 8.85355 11.8536C8.75979 11.9473 8.63261 12 8.5 12Z" fill="#645DF6"/>
<path d="M11.5 9H5.5C5.36739 9 5.24021 8.94732 5.14645 8.85355C5.05268 8.75979 5 8.63261 5 8.5C5 8.36739 5.05268 8.24021 5.14645 8.14645C5.24021 8.05268 5.36739 8 5.5 8H11.5C11.6326 8 11.7598 8.05268 11.8536 8.14645C11.9473 8.24021 12 8.36739 12 8.5C12 8.63261 11.9473 8.75979 11.8536 8.85355C11.7598 8.94732 11.6326 9 11.5 9Z" fill="#645DF6"/>
</g>
<defs>
<clipPath id="clip0_949_19684">
<rect width="16" height="16" fill="white" transform="translate(0.5 0.5)"/>
</clipPath>
</defs>
</svg>
