<svg width="18" height="22" viewBox="0 0 18 22" fill="none" xmlns="http://www.w3.org/2000/svg">
<path d="M14.1177 14.3529C13.8497 14.4321 13.4561 14.441 13.0341 14.3798C12.5812 14.3141 12.1193 14.1756 11.6653 13.9717C12.4749 13.8538 13.103 13.8901 13.6403 14.0805C13.7675 14.1256 13.9766 14.2462 14.1177 14.3529ZM9.60036 13.6102C9.56741 13.6192 9.53496 13.6277 9.50268 13.6366C9.28482 13.6959 9.07285 13.7538 8.86858 13.8053L8.59314 13.8751C8.03907 14.0153 7.47257 14.1585 6.91306 14.3291C7.12569 13.8163 7.32325 13.2979 7.51668 12.791C7.6599 12.4158 7.80615 12.0325 7.9574 11.6542C8.03412 11.7809 8.1142 11.9077 8.19753 12.0348C8.57714 12.6129 9.05432 13.1475 9.60036 13.6102ZM8.19098 7.82793C8.2269 8.46065 8.09039 9.06933 7.89013 9.65327C7.64346 8.93123 7.52851 8.13389 7.83689 7.49018C7.91598 7.32517 7.98077 7.23696 8.02279 7.19092C8.08769 7.29113 8.17305 7.51531 8.19098 7.82793ZM5.29841 15.843C5.15981 16.0909 5.01834 16.323 4.87335 16.5422C4.52343 17.0695 3.95116 17.6342 3.65717 17.6342C3.62824 17.6342 3.59324 17.6295 3.54208 17.5755C3.50915 17.5409 3.50388 17.5162 3.50547 17.4824C3.51538 17.2885 3.77227 16.9432 4.1444 16.6231C4.48216 16.3326 4.86393 16.0744 5.29841 15.843ZM15.0538 14.3804C15.0089 13.7345 13.9218 13.3202 13.911 13.3164C13.4908 13.1674 13.0342 13.095 12.5154 13.095C11.9599 13.095 11.3611 13.1754 10.592 13.355C9.9077 12.8699 9.31656 12.2626 8.87491 11.5903C8.67988 11.2933 8.50454 10.9968 8.35169 10.7071C8.72481 9.81497 9.06081 8.85571 8.99976 7.78134C8.95053 6.91988 8.56207 6.34123 8.03379 6.34123C7.6714 6.34123 7.35938 6.60963 7.10567 7.13972C6.65307 8.08429 6.77204 9.29291 7.4591 10.7351C7.21165 11.3163 6.98175 11.9188 6.75922 12.5021C6.48235 13.2274 6.19707 13.9757 5.87554 14.6875C4.97384 15.0443 4.23306 15.4769 3.61571 16.0081C3.21128 16.3555 2.72373 16.8865 2.6959 17.4409C2.68231 17.702 2.77183 17.9414 2.95374 18.1332C3.14701 18.3369 3.38981 18.4441 3.65678 18.4445C4.53854 18.4445 5.38719 17.233 5.54818 16.99C5.87218 16.5016 6.17545 15.9568 6.47262 15.3284C7.22106 15.058 8.01867 14.8561 8.79175 14.6609L9.06862 14.5906C9.27674 14.5377 9.49305 14.4791 9.71492 14.4184C9.94972 14.3549 10.1913 14.2891 10.4368 14.2266C11.2306 14.7314 12.0843 15.0607 12.9168 15.1815C13.6181 15.2836 14.2408 15.2244 14.6624 15.0046C15.0417 14.807 15.0626 14.5022 15.0538 14.3804ZM16.7615 19.9335C16.7615 21.1163 15.7191 21.1892 15.5088 21.1916H2.05967C0.881232 21.1916 0.810271 20.142 0.808021 19.9335L0.807862 2.06603C0.807862 0.882145 1.8522 0.81037 2.05951 0.807994H11.1446L11.1495 0.81279V4.35818C11.1495 5.0697 11.5796 6.41679 13.2087 6.41679H16.7312L16.7614 6.44699L16.7615 19.9335ZM15.9265 5.60868H13.2093C12.0312 5.60868 11.9599 4.56483 11.9583 4.35829V1.62419L15.9265 5.60868ZM17.5696 19.9335V6.11364L11.9583 0.479062V0.452846H11.9315L11.4808 0H2.0597C1.34725 0 0 0.431935 0 2.06641V19.9339C0 20.6485 0.430626 22 2.0597 22H15.5101C16.2224 21.9998 17.5696 21.5679 17.5696 19.9335Z" fill="#EB5757"/>
</svg>
