<svg width="40" height="44" viewBox="0 0 40 44" fill="none" xmlns="http://www.w3.org/2000/svg">
<circle cx="29" cy="11" r="11" fill="#F7DDEF"/>
<path fill-rule="evenodd" clip-rule="evenodd" d="M18.4996 9.33325C10.6082 9.33325 4.19824 15.7432 4.19824 23.6345C4.19824 27.7674 5.95649 31.4949 8.77109 34.098C9.07518 34.3793 9.5497 34.3608 9.83094 34.0567C10.1122 33.7526 10.0937 33.278 9.78956 32.9968C7.26999 30.6666 5.69824 27.3333 5.69824 23.6345C5.69824 16.5716 11.4366 10.8333 18.4996 10.8333C25.563 10.8333 31.3006 16.5567 31.3006 23.6345C31.3006 27.3181 29.744 30.6222 27.2524 32.9535C26.9499 33.2365 26.9342 33.7111 27.2172 34.0136C27.5002 34.3161 27.9748 34.3318 28.2772 34.0488C31.0581 31.4468 32.8006 27.7518 32.8006 23.6345C32.8006 15.7272 26.3903 9.33325 18.4996 9.33325ZM22.5133 24.6549C23.2426 21.5836 20.5495 18.8909 17.4781 19.6213L17.4781 19.6213L17.472 19.6228C16.0143 19.9825 14.8319 21.165 14.4722 22.6226L14.4722 22.6226L14.4707 22.6288C13.7402 25.7006 16.4338 28.3939 19.5056 27.6635L19.5096 27.6625C20.9809 27.3041 22.1697 26.122 22.5133 24.6549ZM21.0536 24.3092C21.5254 22.3253 19.8118 20.6104 17.8283 21.0799C16.9141 21.3067 16.1561 22.0647 15.9293 22.9789C15.46 24.9618 17.1735 26.6748 19.1565 26.2047C20.0887 25.9768 20.8412 25.2178 21.053 24.312L21.0536 24.3092ZM18.4995 15.921C14.2425 15.921 10.7858 19.3777 10.7858 23.6347C10.7858 25.6859 11.5857 27.5396 12.8797 28.918C13.1632 29.22 13.1482 29.6946 12.8462 29.9781C12.5442 30.2616 12.0696 30.2466 11.7861 29.9446C10.2434 28.3014 9.2858 26.0851 9.2858 23.6347C9.2858 18.5492 13.4141 14.421 18.4995 14.421C23.585 14.421 27.7133 18.5492 27.7133 23.6347C27.7133 26.0871 26.7543 28.2861 25.2156 29.9419C24.9336 30.2453 24.4591 30.2627 24.1556 29.9807C23.8522 29.6987 23.8348 29.2242 24.1168 28.9208C25.4148 27.524 26.2133 25.6838 26.2133 23.6347C26.2133 19.3777 22.7566 15.921 18.4995 15.921ZM23.9078 34.9718L21.6915 32.2166C20.0633 30.1567 16.9328 30.1627 15.2935 32.215L13.0743 34.9737L13.0722 34.9763C10.9254 37.6692 12.8262 41.6511 16.2795 41.6511H20.7041C24.149 41.6511 26.0816 37.6577 23.9087 34.9729L23.9078 34.9718ZM16.4649 33.1519C17.5076 31.8455 19.4923 31.851 20.5162 33.1486L20.5161 33.1486L20.5206 33.1542L22.7406 35.9139L22.7421 35.9158C24.1136 37.6093 22.9013 40.1511 20.7041 40.1511H16.2795C14.0908 40.1511 12.8775 37.6287 14.2442 35.9125L14.2451 35.9113L16.4631 33.1542L16.4649 33.1519Z" fill="url(#paint0_linear_1_106166)"/>
<defs>
<linearGradient id="paint0_linear_1_106166" x1="18.4994" y1="9.33325" x2="18.4994" y2="41.6511" gradientUnits="userSpaceOnUse">
<stop stop-color="#000AFF"/>
<stop offset="1" stop-color="#D274FF"/>
</linearGradient>
</defs>
</svg>
