<svg width="27" height="27" viewBox="0 0 27 27" fill="none" xmlns="http://www.w3.org/2000/svg">
<path d="M4.21875 5.90625V21.0938" stroke="url(#paint0_linear_921_40789)" stroke-width="1.5" stroke-linecap="round" stroke-linejoin="round"/>
<rect x="13.5" width="13.5" height="13.5" rx="6.75" fill="#F6DDEF"/>
<path fill-rule="evenodd" clip-rule="evenodd" d="M10.969 9.375C11.3832 9.375 11.719 9.71079 11.719 10.125V12.4672L13.943 11.7429C14.3368 11.6146 14.7601 11.8299 14.8884 12.2238C15.0166 12.6176 14.8013 13.0409 14.4075 13.1692L12.1817 13.894L13.5588 15.7911C13.8021 16.1263 13.7276 16.5953 13.3924 16.8386C13.0572 17.0819 12.5882 17.0074 12.3448 16.6722L10.9689 14.7767L9.59305 16.6722C9.34972 17.0074 8.88073 17.0819 8.54552 16.8386C8.2103 16.5953 8.13581 16.1263 8.37913 15.7911L9.75621 13.8939L7.53066 13.1692C7.1368 13.0409 6.9215 12.6176 7.04976 12.2238C7.17802 11.8299 7.60128 11.6146 7.99514 11.7429L10.219 12.4671V10.125C10.219 9.71079 10.5548 9.375 10.969 9.375Z" fill="url(#paint1_linear_921_40789)"/>
<path fill-rule="evenodd" clip-rule="evenodd" d="M21.094 9.375C21.5082 9.375 21.844 9.71079 21.844 10.125V12.4672L24.068 11.7429C24.4618 11.6146 24.8851 11.8299 25.0134 12.2238C25.1416 12.6176 24.9263 13.0409 24.5325 13.1692L22.3067 13.894L23.6838 15.7911C23.9271 16.1263 23.8526 16.5953 23.5174 16.8386C23.1822 17.0819 22.7132 17.0074 22.4698 16.6722L21.0939 14.7767L19.718 16.6722C19.4747 17.0074 19.0057 17.0819 18.6705 16.8386C18.3353 16.5953 18.2608 16.1263 18.5041 15.7911L19.8812 13.8939L17.6557 13.1692C17.2618 13.0409 17.0465 12.6176 17.1748 12.2238C17.303 11.8299 17.7263 11.6146 18.1201 11.7429L20.344 12.4671V10.125C20.344 9.71079 20.6798 9.375 21.094 9.375Z" fill="url(#paint2_linear_921_40789)"/>
<defs>
<linearGradient id="paint0_linear_921_40789" x1="4.71875" y1="5.90625" x2="4.71875" y2="21.0938" gradientUnits="userSpaceOnUse">
<stop stop-color="#000AFF"/>
<stop offset="1" stop-color="#D274FF"/>
</linearGradient>
<linearGradient id="paint1_linear_921_40789" x1="10.9691" y1="9.375" x2="10.9691" y2="16.9817" gradientUnits="userSpaceOnUse">
<stop stop-color="#000AFF"/>
<stop offset="1" stop-color="#D274FF"/>
</linearGradient>
<linearGradient id="paint2_linear_921_40789" x1="21.0941" y1="9.375" x2="21.0941" y2="16.9817" gradientUnits="userSpaceOnUse">
<stop stop-color="#000AFF"/>
<stop offset="1" stop-color="#D274FF"/>
</linearGradient>
</defs>
</svg>
