<svg width="32" height="32" viewBox="0 0 32 32" fill="none" xmlns="http://www.w3.org/2000/svg">
<rect x="15" width="17" height="17" rx="8.5" fill="#F6DDEF"/>
<path fill-rule="evenodd" clip-rule="evenodd" d="M9.47522 3.63431C9.82548 3.4132 9.93019 2.95002 9.70908 2.59975C9.48798 2.24949 9.02479 2.14478 8.67453 2.36589C6.52212 3.72459 4.78493 5.64921 3.6531 7.9291C3.46891 8.30011 3.62037 8.75019 3.99138 8.93437C4.36239 9.11856 4.81246 8.9671 4.99665 8.59609C6.00612 6.56268 7.5555 4.84613 9.47522 3.63431ZM22.2906 2.59975C22.5117 2.24949 22.9749 2.14478 23.3252 2.36589C25.4776 3.72459 27.2148 5.64921 28.3466 7.9291C28.5308 8.30011 28.3794 8.75019 28.0083 8.93437C27.6373 9.11856 27.1873 8.9671 27.0031 8.59609C25.9936 6.56268 24.4442 4.84613 22.5245 3.63431C22.1742 3.4132 22.0695 2.95002 22.2906 2.59975ZM12.8523 6.40109C13.8502 5.98775 14.9198 5.775 15.9999 5.775C17.08 5.775 18.1495 5.98775 19.1475 6.40109C20.1454 6.81444 21.0521 7.42028 21.8158 8.18405C22.5796 8.94781 23.1854 9.85453 23.5988 10.8524C24.0121 11.8503 24.2249 12.9199 24.2249 14C24.2249 18.5805 25.1851 21.3153 26.0879 22.875C26.1098 22.9129 26.1213 22.956 26.1214 22.9998C26.1214 23.0436 26.1099 23.0866 26.0881 23.1246C26.0662 23.1626 26.0348 23.1942 25.9969 23.2162C25.9593 23.2381 25.9165 23.2497 25.873 23.25H6.12676C6.08321 23.2497 6.04049 23.2381 6.00283 23.2162C5.96495 23.1942 5.93351 23.1626 5.91167 23.1246C5.88984 23.0866 5.87836 23.0436 5.8784 22.9998C5.87844 22.956 5.88995 22.9131 5.91179 22.8752C6.8146 21.3155 7.77488 18.5807 7.77488 14C7.77488 12.9199 7.98763 11.8503 8.40097 10.8524C8.81431 9.85453 9.42016 8.94781 10.1839 8.18405C10.9477 7.42028 11.8544 6.81444 12.8523 6.40109ZM5.91179 22.8752L5.91145 22.8758L5.26238 22.5L5.9119 22.875L5.91179 22.8752ZM15.9999 4.275C14.7228 4.275 13.4582 4.52654 12.2783 5.01527C11.0984 5.504 10.0263 6.22034 9.12327 7.12339C8.22022 8.02644 7.50388 9.09851 7.01515 10.2784C6.52642 11.4583 6.27488 12.7229 6.27488 14C6.27488 18.3688 5.3604 20.8338 4.61331 22.1242L4.61286 22.125C4.45953 22.3906 4.37867 22.6918 4.3784 22.9985C4.37813 23.3051 4.45845 23.6065 4.61131 23.8723C4.76418 24.1382 4.98422 24.3592 5.2494 24.5132C5.51458 24.6673 5.81557 24.7489 6.12224 24.75L6.12488 24.75H11.2499V25.0001C11.2499 26.2599 11.7503 27.4681 12.6411 28.3589C13.5319 29.2497 14.7401 29.7501 15.9999 29.7501C17.2596 29.7501 18.4678 29.2497 19.3586 28.3589C20.2494 27.4681 20.7499 26.2599 20.7499 25.0001V24.75H25.8749L25.8775 24.75C26.1842 24.7489 26.4852 24.6673 26.7504 24.5132C27.0155 24.3592 27.2356 24.1382 27.3884 23.8723C27.5413 23.6065 27.6216 23.3051 27.6214 22.9985C27.6211 22.6918 27.5402 22.3906 27.3869 22.125L27.3864 22.1242C26.6394 20.8338 25.7249 18.3688 25.7249 14C25.7249 12.7229 25.4733 11.4583 24.9846 10.2784C24.4959 9.09851 23.7795 8.02644 22.8765 7.12339C21.9734 6.22034 20.9014 5.504 19.7215 5.01527C18.5416 4.52654 17.277 4.275 15.9999 4.275ZM19.2499 24.75H12.7499V25.0001C12.7499 25.8621 13.0923 26.6887 13.7018 27.2982C14.3113 27.9077 15.1379 28.2501 15.9999 28.2501C16.8618 28.2501 17.6885 27.9077 18.298 27.2982C18.9075 26.6887 19.2499 25.8621 19.2499 25.0001V24.75Z" fill="url(#paint0_linear_823_33824)"/>
<defs>
<linearGradient id="paint0_linear_823_33824" x1="15.9999" y1="2.25" x2="15.9999" y2="29.7501" gradientUnits="userSpaceOnUse">
<stop stop-color="#000AFF"/>
<stop offset="1" stop-color="#D274FF"/>
</linearGradient>
</defs>
</svg>
