<svg width="33" height="37" viewBox="0 0 33 37" fill="none" xmlns="http://www.w3.org/2000/svg">
<rect x="16.2841" y="3.69141" width="16.284" height="16.5994" rx="8.14202" fill="#F6DDEF"/>
<path fill-rule="evenodd" clip-rule="evenodd" d="M4.32549 4.09668C3.82649 4.09668 3.40048 4.35354 3.12098 4.71417C2.84487 5.07043 2.7104 5.52118 2.7104 5.96289V29.7695H1.73022C1.31601 29.7695 0.980225 30.1052 0.980225 30.5195C0.980225 30.9337 1.31601 31.2695 1.73022 31.2695L3.4604 31.2695H15.5717H24.2226L25.9527 31.2695C26.3669 31.2695 26.7027 30.9337 26.7027 30.5195C26.7027 30.1052 26.3669 29.7695 25.9527 29.7695H24.9726V14.8925C24.9726 14.4508 24.8381 14.0001 24.562 13.6438C24.2825 13.2832 23.8565 13.0263 23.3575 13.0263H16.3217V5.96289C16.3217 5.52118 16.1872 5.07043 15.9111 4.71417C15.6316 4.35354 15.2056 4.09668 14.7066 4.09668H4.32549ZM23.4726 14.8925V29.7695H16.3217V14.5263H23.3406C23.3476 14.5314 23.3605 14.5422 23.3764 14.5627C23.4247 14.6251 23.4726 14.7422 23.4726 14.8925ZM14.8217 5.96289L14.8217 13.7763L14.8217 29.7695H4.2104V5.96289C4.2104 5.81252 4.25823 5.69545 4.30659 5.63305C4.3225 5.61251 4.33533 5.60172 4.34238 5.59668H14.6897C14.6967 5.60172 14.7096 5.61251 14.7255 5.63305C14.7738 5.69545 14.8217 5.81252 14.8217 5.96289ZM6.92076 9.67772C6.50655 9.67772 6.17076 10.0135 6.17076 10.4277C6.17076 10.8419 6.50655 11.1777 6.92076 11.1777H10.3811C10.7953 11.1777 11.1311 10.8419 11.1311 10.4277C11.1311 10.0135 10.7953 9.67772 10.3811 9.67772H6.92076ZM7.90094 19.3574C7.90094 18.9432 8.23673 18.6074 8.65094 18.6074H12.1113C12.5255 18.6074 12.8613 18.9432 12.8613 19.3574C12.8613 19.7716 12.5255 20.1074 12.1113 20.1074H8.65094C8.23673 20.1074 7.90094 19.7716 7.90094 19.3574ZM6.92076 24.1884C6.50655 24.1884 6.17076 24.5242 6.17076 24.9384C6.17076 25.3526 6.50655 25.6884 6.92076 25.6884H10.3811C10.7953 25.6884 11.1311 25.3526 11.1311 24.9384C11.1311 24.5242 10.7953 24.1884 10.3811 24.1884H6.92076ZM18.282 24.9384C18.282 24.5242 18.6178 24.1884 19.032 24.1884H20.7622C21.1764 24.1884 21.5122 24.5242 21.5122 24.9384C21.5122 25.3526 21.1764 25.6884 20.7622 25.6884H19.032C18.6178 25.6884 18.282 25.3526 18.282 24.9384ZM19.032 18.6074C18.6178 18.6074 18.282 18.9432 18.282 19.3574C18.282 19.7716 18.6178 20.1074 19.032 20.1074H20.7622C21.1764 20.1074 21.5122 19.7716 21.5122 19.3574C21.5122 18.9432 21.1764 18.6074 20.7622 18.6074H19.032Z" fill="url(#paint0_linear_698_15936)"/>
<defs>
<linearGradient id="paint0_linear_698_15936" x1="13.8415" y1="4.09668" x2="13.8415" y2="31.2695" gradientUnits="userSpaceOnUse">
<stop stop-color="#000AFF"/>
<stop offset="1" stop-color="#D274FF"/>
</linearGradient>
</defs>
</svg>
