<svg width="41" height="46" viewBox="0 0 41 46" fill="none" xmlns="http://www.w3.org/2000/svg">
<circle cx="30" cy="11" r="11" fill="#F7DDEF"/>
<path d="M36.0674 44.7119H35.4233V43.1919C35.4233 40.9158 34.235 38.8457 32.3144 37.6272C34.235 36.4086 35.4233 34.3392 35.4233 32.0624V30.5424H36.0674C36.4235 30.5424 36.7114 30.2545 36.7114 29.8983C36.7114 29.5422 36.4235 29.2543 36.0674 29.2543H35.4233H34.7792H25.7623H25.1182H24.4741C24.118 29.2543 23.8301 29.5422 23.8301 29.8983C23.8301 30.2545 24.118 30.5424 24.4741 30.5424H25.1182V32.0624C25.1182 34.3385 26.3065 36.4086 28.2271 37.6272C26.3065 38.8457 25.1182 40.9151 25.1182 43.1919V44.7119H24.4741C24.118 44.7119 23.8301 44.9998 23.8301 45.356C23.8301 45.7121 24.118 46 24.4741 46H25.1182H25.7623H34.7792H35.4233H36.0674C36.4235 46 36.7114 45.7121 36.7114 45.356C36.7114 44.9998 36.4235 44.7119 36.0674 44.7119ZM26.4063 32.0624V30.5424H34.1352V32.0624C34.1352 34.2001 32.8258 36.1187 30.7879 36.9831H29.7542C27.7157 36.1187 26.4063 34.2007 26.4063 32.0624ZM26.4063 43.1919C26.4063 41.0542 27.7157 39.1356 29.7536 38.2712H30.7873C32.8258 39.1356 34.1352 41.0536 34.1352 43.1919V44.7119H26.4063V43.1919Z" fill="url(#paint0_linear_1_128793)"/>
<path d="M30.2715 28.6101V21.5254H24.4748H23.1867H18.6782H17.3901H12.8816H11.5935H5.79688V27.322V28.6101V33.1186V34.4067V40.2034H11.5935H12.8816H18.6782V34.4067V33.1186V28.6101H23.1867H24.4748H30.2715ZM12.8816 22.8135H17.3901V27.322H12.8816V22.8135ZM7.08501 22.8135H11.5935V27.322H7.08501V22.8135ZM7.08501 28.6101H11.5935V33.1186H7.08501V28.6101ZM11.5935 38.9152H7.08501V34.4067H11.5935V38.9152ZM17.3901 38.9152H12.8816V34.4067H17.3901V38.9152ZM17.3901 33.1186H12.8816V28.6101H17.3901V33.1186ZM23.1867 27.322H18.6782V22.8135H23.1867V27.322ZM24.4748 22.8135H28.9833V27.322H24.4748V22.8135Z" fill="url(#paint1_linear_1_128793)"/>
<path d="M21.2542 43.4237H2.57622V18.3051H33.4915V26.0339C33.4915 26.3901 33.7794 26.678 34.1355 26.678C34.4917 26.678 34.7796 26.3901 34.7796 26.0339V17.661V11.2203C34.7796 10.8642 34.4917 10.5763 34.1355 10.5763H30.9152V8.64407C30.9152 8.2879 30.6273 8 30.2711 8H25.7627C25.4065 8 25.1186 8.2879 25.1186 8.64407V10.5763H10.9491V8.64407C10.9491 8.2879 10.6612 8 10.305 8H5.79656C5.44039 8 5.15249 8.2879 5.15249 8.64407V10.5763H1.93215C1.57598 10.5763 1.28809 10.8642 1.28809 11.2203V17.661V44.0678C1.28809 44.424 1.57598 44.7119 1.93215 44.7119H21.2542C21.6104 44.7119 21.8983 44.424 21.8983 44.0678C21.8983 43.7116 21.6104 43.4237 21.2542 43.4237ZM26.4067 9.28814H29.6271V11.2203V13.1525H26.4067V11.2203V9.28814ZM6.44063 9.28814H9.66097V11.2203V13.1525H6.44063V11.2203V9.28814ZM2.57622 11.8644H5.15249V13.7966C5.15249 14.1528 5.44039 14.4407 5.79656 14.4407H10.305C10.6612 14.4407 10.9491 14.1528 10.9491 13.7966V11.8644H25.1186V13.7966C25.1186 14.1528 25.4065 14.4407 25.7627 14.4407H30.2711C30.6273 14.4407 30.9152 14.1528 30.9152 13.7966V11.8644H33.4915V17.0169H2.57622V11.8644Z" fill="url(#paint2_linear_1_128793)"/>
<defs>
<linearGradient id="paint0_linear_1_128793" x1="30.2708" y1="29.2543" x2="30.2708" y2="46" gradientUnits="userSpaceOnUse">
<stop stop-color="#346DFF"/>
<stop offset="1" stop-color="#FD89FF"/>
</linearGradient>
<linearGradient id="paint1_linear_1_128793" x1="18.0342" y1="21.5254" x2="18.0342" y2="40.2034" gradientUnits="userSpaceOnUse">
<stop stop-color="#346DFF"/>
<stop offset="1" stop-color="#FD89FF"/>
</linearGradient>
<linearGradient id="paint2_linear_1_128793" x1="18.0338" y1="8" x2="18.0338" y2="44.7119" gradientUnits="userSpaceOnUse">
<stop stop-color="#346DFF"/>
<stop offset="1" stop-color="#FD89FF"/>
</linearGradient>
</defs>
</svg>
