<svg width="66" height="66" viewBox="0 0 66 66" fill="none" xmlns="http://www.w3.org/2000/svg">
<rect width="66" height="66" rx="6" fill="#EBEFFF"/>
<path d="M41.719 19.4226H23.3575C22.3139 19.4226 21.3132 19.8372 20.5753 20.5751C19.8374 21.3129 19.4229 22.3137 19.4229 23.3573V41.7188C19.4229 42.7623 19.8374 43.7631 20.5753 44.501C21.3132 45.2389 22.3139 45.6534 23.3575 45.6534H41.719C42.7625 45.6534 43.7633 45.2389 44.5012 44.501C45.2391 43.7631 45.6536 42.7623 45.6536 41.7188V23.3573C45.6536 22.3137 45.2391 21.3129 44.5012 20.5751C43.7633 19.8372 42.7625 19.4226 41.719 19.4226ZM32.5382 40.4073C30.9818 40.4073 29.4604 39.9457 28.1663 39.081C26.8722 38.2164 25.8636 36.9874 25.268 35.5494C24.6724 34.1115 24.5166 32.5293 24.8202 31.0028C25.1238 29.4763 25.8733 28.0742 26.9738 26.9736C28.0744 25.8731 29.4765 25.1236 31.003 24.82C32.5295 24.5164 34.1117 24.6722 35.5497 25.2678C36.9876 25.8634 38.2166 26.872 39.0813 28.1661C39.9459 29.4602 40.4075 30.9816 40.4075 32.538C40.4075 34.6251 39.5784 36.6266 38.1026 38.1024C36.6269 39.5782 34.6253 40.4073 32.5382 40.4073ZM41.719 24.6688C41.4596 24.6688 41.206 24.5919 40.9904 24.4478C40.7747 24.3036 40.6066 24.0988 40.5073 23.8592C40.408 23.6195 40.3821 23.3558 40.4327 23.1014C40.4833 22.847 40.6082 22.6133 40.7916 22.4299C40.975 22.2464 41.2087 22.1215 41.4631 22.0709C41.7175 22.0203 41.9813 22.0463 42.2209 22.1455C42.4606 22.2448 42.6654 22.4129 42.8095 22.6286C42.9536 22.8443 43.0305 23.0979 43.0305 23.3573C43.0305 23.7051 42.8924 24.0387 42.6464 24.2847C42.4004 24.5306 42.0668 24.6688 41.719 24.6688Z" fill="#645DF6"/>
<path d="M32.5381 27.293C31.5006 27.293 30.4863 27.6007 29.6235 28.1771C28.7608 28.7536 28.0884 29.5729 27.6913 30.5315C27.2943 31.4901 27.1904 32.5449 27.3928 33.5626C27.5952 34.5803 28.0949 35.515 28.8286 36.2487C29.5622 36.9824 30.497 37.482 31.5147 37.6845C32.5323 37.8869 33.5872 37.783 34.5458 37.3859C35.5044 36.9889 36.3237 36.3165 36.9002 35.4537C37.4766 34.591 37.7843 33.5767 37.7843 32.5391C37.7843 31.1478 37.2316 29.8134 36.2477 28.8295C35.2639 27.8457 33.9295 27.293 32.5381 27.293ZM32.5381 35.1622C32.0194 35.1622 31.5122 35.0084 31.0808 34.7201C30.6495 34.4319 30.3133 34.0222 30.1147 33.5429C29.9162 33.0636 29.8643 32.5362 29.9655 32.0274C30.0667 31.5186 30.3165 31.0512 30.6834 30.6843C31.0502 30.3175 31.5176 30.0677 32.0264 29.9664C32.5352 29.8652 33.0627 29.9172 33.542 30.1157C34.0213 30.3142 34.4309 30.6505 34.7192 31.0818C35.0074 31.5132 35.1612 32.0203 35.1612 32.5391C35.1612 33.2348 34.8849 33.902 34.3929 34.3939C33.901 34.8858 33.2338 35.1622 32.5381 35.1622Z" fill="#645DF6"/>
</svg>
