<svg width="50" height="50" viewBox="0 0 50 50" fill="none" xmlns="http://www.w3.org/2000/svg">
<circle cx="25" cy="25" r="25" fill="#EBEFFF"/>
<path d="M31.6046 14.7148H17.6944C16.9038 14.7148 16.1457 15.0289 15.5867 15.5879C15.0277 16.1469 14.7136 16.9051 14.7136 17.6956V31.6059C14.7136 32.3964 15.0277 33.1546 15.5867 33.7136C16.1457 34.2726 16.9038 34.5866 17.6944 34.5866H31.6046C32.3952 34.5866 33.1534 34.2726 33.7124 33.7136C34.2714 33.1546 34.5854 32.3964 34.5854 31.6059V17.6956C34.5854 16.9051 34.2714 16.1469 33.7124 15.5879C33.1534 15.0289 32.3952 14.7148 31.6046 14.7148ZM24.6495 30.6123C23.4704 30.6123 22.3178 30.2626 21.3375 29.6076C20.3571 28.9525 19.593 28.0215 19.1418 26.9321C18.6906 25.8428 18.5725 24.6441 18.8025 23.4877C19.0326 22.3313 19.6003 21.269 20.4341 20.4353C21.2678 19.6016 22.3301 19.0338 23.4865 18.8038C24.6429 18.5737 25.8416 18.6918 26.9309 19.143C28.0202 19.5942 28.9513 20.3583 29.6064 21.3387C30.2614 22.3191 30.6111 23.4717 30.6111 24.6507C30.6111 26.2318 29.983 27.7482 28.865 28.8662C27.747 29.9842 26.2306 30.6123 24.6495 30.6123ZM31.6046 18.6892C31.4081 18.6892 31.216 18.6309 31.0526 18.5218C30.8892 18.4126 30.7619 18.2574 30.6867 18.0758C30.6115 17.8943 30.5918 17.6945 30.6301 17.5018C30.6685 17.309 30.7631 17.132 30.9021 16.993C31.041 16.8541 31.2181 16.7595 31.4108 16.7211C31.6035 16.6828 31.8033 16.7025 31.9849 16.7777C32.1664 16.8529 32.3216 16.9802 32.4308 17.1436C32.54 17.307 32.5982 17.4991 32.5982 17.6956C32.5982 17.9591 32.4936 18.2119 32.3072 18.3982C32.1209 18.5845 31.8682 18.6892 31.6046 18.6892Z" fill="#6862ED"/>
<path d="M24.6497 20.6758C23.8636 20.6758 23.0952 20.9089 22.4416 21.3456C21.788 21.7823 21.2786 22.403 20.9778 23.1292C20.677 23.8554 20.5983 24.6545 20.7517 25.4255C20.905 26.1964 21.2835 26.9046 21.8394 27.4604C22.3952 28.0163 23.1033 28.3948 23.8743 28.5481C24.6452 28.7015 25.4444 28.6228 26.1706 28.322C26.8968 28.0212 27.5175 27.5118 27.9542 26.8582C28.3909 26.2046 28.624 25.4362 28.624 24.6501C28.624 23.5961 28.2053 22.5852 27.46 21.8398C26.7146 21.0945 25.7037 20.6758 24.6497 20.6758ZM24.6497 26.6373C24.2566 26.6373 23.8724 26.5208 23.5456 26.3024C23.2188 26.0841 22.9641 25.7737 22.8137 25.4106C22.6633 25.0475 22.624 24.6479 22.7007 24.2625C22.7773 23.877 22.9666 23.5229 23.2445 23.245C23.5224 22.9671 23.8765 22.7778 24.262 22.7011C24.6474 22.6245 25.047 22.6638 25.4101 22.8142C25.7732 22.9646 26.0836 23.2193 26.3019 23.5461C26.5203 23.8729 26.6368 24.2571 26.6368 24.6501C26.6368 25.1772 26.4275 25.6826 26.0548 26.0553C25.6821 26.428 25.1767 26.6373 24.6497 26.6373Z" fill="#6862ED"/>
</svg>
