<svg width="18" height="18" viewBox="0 0 18 18" fill="none" xmlns="http://www.w3.org/2000/svg">
<g clip-path="url(#clip0_948_13391)">
<path d="M16.4344 5.86958H14.8782L12.6787 2.91157C12.946 2.60269 13.1083 2.2005 13.1083 1.76091C13.1083 0.789926 12.3184 0 11.3475 0C10.3765 0 9.5866 0.789926 9.5866 1.76087C9.5866 2.73182 10.3765 3.52174 11.3475 3.52174C11.4506 3.52174 11.5516 3.51232 11.6498 3.4952L13.4153 5.86955H4.58394L6.34945 3.4952C6.44775 3.51229 6.54868 3.52174 6.65183 3.52174C7.62277 3.52174 8.4127 2.73182 8.4127 1.76087C8.41266 0.789926 7.62274 0 6.65179 0C5.68085 0 4.89092 0.789926 4.89092 1.76087C4.89092 2.20046 5.05324 2.60265 5.32057 2.91154L3.12102 5.86955H1.56486C0.809668 5.86955 0.195312 6.48394 0.195312 7.23909V8.02171C0.195312 8.7358 0.744734 9.32368 1.44308 9.38556L2.45625 16.8154C2.54829 17.4908 3.13167 18 3.81321 18H14.1861C14.8676 18 15.451 17.4908 15.5431 16.8155L16.5562 9.38559C17.2545 9.32372 17.804 8.73584 17.804 8.02174V7.23913C17.804 6.48394 17.1896 5.86958 16.4344 5.86958ZM11.3475 2.34784C11.0238 2.34784 10.7605 2.08452 10.7605 1.76087C10.7605 1.43722 11.0238 1.1739 11.3475 1.1739C11.6711 1.1739 11.9344 1.43722 11.9344 1.76087C11.9344 2.08452 11.6711 2.34784 11.3475 2.34784ZM6.65179 1.1739C6.97544 1.1739 7.23876 1.43722 7.23876 1.76087C7.23876 2.08452 6.97544 2.34784 6.65179 2.34784C6.32814 2.34784 6.06482 2.08452 6.06482 1.76087C6.06482 1.43722 6.32814 1.1739 6.65179 1.1739ZM14.3799 16.6569C14.3668 16.7534 14.2834 16.8261 14.1861 16.8261H3.81321C3.71586 16.8261 3.6325 16.7534 3.61932 16.6569L2.62858 9.39129H15.3707L14.3799 16.6569ZM16.6301 8.02174C16.6301 8.12964 16.5423 8.21739 16.4344 8.21739H16.0431H1.95615H1.56486C1.45696 8.21739 1.36921 8.1296 1.36921 8.02174V7.23913C1.36921 7.13123 1.457 7.04348 1.56486 7.04348H3.41461C3.41492 7.04348 3.41527 7.04348 3.41559 7.04348C3.41584 7.04348 3.41601 7.04348 3.41626 7.04348H14.5831C14.5833 7.04348 14.5835 7.04348 14.5837 7.04348C14.5841 7.04348 14.5844 7.04348 14.5847 7.04348H16.4345C16.5424 7.04348 16.6301 7.13127 16.6301 7.23913V8.02174H16.6301Z" fill="#645DF6"/>
<path d="M9.00005 10.5654C8.67591 10.5654 8.41309 10.8282 8.41309 11.1524V15.0654C8.41309 15.3896 8.67588 15.6524 9.00005 15.6524C9.3242 15.6524 9.58702 15.3896 9.58702 15.0654V11.1524C9.58702 10.8282 9.3242 10.5654 9.00005 10.5654Z" fill="#645DF6"/>
<path d="M12.5215 10.5654C12.1974 10.5654 11.9346 10.8282 11.9346 11.1524V15.0654C11.9346 15.3896 12.1974 15.6524 12.5215 15.6524C12.8457 15.6524 13.1085 15.3896 13.1085 15.0654V11.1524C13.1085 10.8282 12.8457 10.5654 12.5215 10.5654Z" fill="#645DF6"/>
<path d="M5.47857 10.5654C5.15443 10.5654 4.8916 10.8282 4.8916 11.1524V15.0654C4.8916 15.3896 5.15439 15.6524 5.47857 15.6524C5.80275 15.6524 6.06554 15.3896 6.06554 15.0654V11.1524C6.06554 10.8282 5.80275 10.5654 5.47857 10.5654Z" fill="#645DF6"/>
</g>
<defs>
<clipPath id="clip0_948_13391">
<rect width="18" height="18" fill="white"/>
</clipPath>
</defs>
</svg>
