<svg width="39" height="38" viewBox="0 0 39 38" fill="none" xmlns="http://www.w3.org/2000/svg">
<path d="M0.976562 9C0.976562 4.02944 5.006 0 9.97656 0H29.9766C34.9471 0 38.9766 4.02944 38.9766 9V37.9957H9.97656C5.006 37.9957 0.976562 33.9663 0.976562 28.9957V9Z" fill="url(#paint0_linear_698_33342)"/>
<path d="M19.5626 28.625H28.7829C28.8939 28.6265 29.004 28.6057 29.1069 28.5639C29.2097 28.5221 29.3032 28.4601 29.3817 28.3816C29.4602 28.3031 29.5221 28.2097 29.5639 28.1068C29.6057 28.004 29.6265 27.8938 29.625 27.7828V18.5625C29.625 15.8938 28.5649 13.3343 26.6778 11.4472C24.7907 9.56015 22.2313 8.5 19.5626 8.5V8.5C18.2411 8.5 16.9326 8.76027 15.7118 9.26596C14.491 9.77165 13.3817 10.5128 12.4473 11.4472C11.5129 12.3816 10.7717 13.4909 10.266 14.7117C9.76032 15.9326 9.50005 17.2411 9.50005 18.5625V18.5625C9.50005 19.8839 9.76032 21.1924 10.266 22.4133C10.7717 23.6341 11.5129 24.7434 12.4473 25.6778C13.3817 26.6121 14.491 27.3533 15.7118 27.859C16.9326 28.3647 18.2411 28.625 19.5626 28.625V28.625Z" stroke="white" stroke-width="1.5" stroke-linecap="round" stroke-linejoin="round"/>
<path d="M19.5625 20.0938C18.9584 20.0938 18.4688 19.6041 18.4688 19C18.4688 18.3959 18.9584 17.9062 19.5625 17.9062C20.1666 17.9062 20.6562 18.3959 20.6562 19C20.6562 19.6041 20.1666 20.0938 19.5625 20.0938Z" fill="white"/>
<path d="M14.3125 20.0938C13.7084 20.0938 13.2188 19.6041 13.2188 19C13.2188 18.3959 13.7084 17.9062 14.3125 17.9062C14.9166 17.9062 15.4062 18.3959 15.4062 19C15.4062 19.6041 14.9166 20.0938 14.3125 20.0938Z" fill="white"/>
<path d="M24.8125 20.0938C24.2084 20.0938 23.7188 19.6041 23.7188 19C23.7188 18.3959 24.2084 17.9062 24.8125 17.9062C25.4166 17.9062 25.9062 18.3959 25.9062 19C25.9062 19.6041 25.4166 20.0938 24.8125 20.0938Z" fill="white"/>
<defs>
<linearGradient id="paint0_linear_698_33342" x1="-1.68634" y1="-1.35247" x2="36.1989" y2="37.2761" gradientUnits="userSpaceOnUse">
<stop stop-color="#E125FF"/>
<stop offset="1" stop-color="#C972FF"/>
</linearGradient>
</defs>
</svg>
