<svg width="29" height="29" viewBox="0 0 29 29" fill="none" xmlns="http://www.w3.org/2000/svg">
<path d="M0.90625 9.90625C0.90625 4.93569 4.93569 0.90625 9.90625 0.90625H19.5403C24.5109 0.90625 28.5403 4.93569 28.5403 9.90625V28.1078H9.90624C4.93568 28.1078 0.90625 24.0784 0.90625 19.1078V9.90625Z" fill="url(#paint0_linear_949_37970)"/>
<path d="M14.2031 21.0312H20.4597C20.535 21.0322 20.6098 21.0181 20.6796 20.9898C20.7494 20.9614 20.8128 20.9194 20.866 20.8661C20.9193 20.8128 20.9614 20.7494 20.9897 20.6796C21.0181 20.6099 21.0322 20.5351 21.0312 20.4598V14.2031C21.0312 12.3922 20.3118 10.6554 19.0313 9.37491C17.7508 8.09439 16.014 7.375 14.2031 7.375V7.375C13.3064 7.375 12.4185 7.55161 11.5901 7.89476C10.7616 8.23791 10.0089 8.74086 9.37486 9.37491C8.74081 10.009 8.23786 10.7617 7.89471 11.5901C7.55156 12.4185 7.37495 13.3064 7.37495 14.2031V14.2031C7.37495 15.0998 7.55156 15.9877 7.89471 16.8161C8.23786 17.6446 8.74081 18.3973 9.37486 19.0313C10.0089 19.6654 10.7616 20.1683 11.5901 20.5115C12.4185 20.8546 13.3064 21.0312 14.2031 21.0312V21.0312Z" stroke="white" stroke-width="1.3" stroke-linecap="round" stroke-linejoin="round"/>
<path d="M14.2031 15.2422C13.7932 15.2422 13.4609 14.9099 13.4609 14.5C13.4609 14.0901 13.7932 13.7578 14.2031 13.7578C14.613 13.7578 14.9453 14.0901 14.9453 14.5C14.9453 14.9099 14.613 15.2422 14.2031 15.2422Z" fill="white"/>
<path d="M10.6406 15.2422C10.2307 15.2422 9.89844 14.9099 9.89844 14.5C9.89844 14.0901 10.2307 13.7578 10.6406 13.7578C11.0505 13.7578 11.3828 14.0901 11.3828 14.5C11.3828 14.9099 11.0505 15.2422 10.6406 15.2422Z" fill="white"/>
<path d="M17.7656 15.2422C17.3557 15.2422 17.0234 14.9099 17.0234 14.5C17.0234 14.0901 17.3557 13.7578 17.7656 13.7578C18.1755 13.7578 18.5078 14.0901 18.5078 14.5C18.5078 14.9099 18.1755 15.2422 17.7656 15.2422Z" fill="white"/>
<defs>
<linearGradient id="paint0_linear_949_37970" x1="-1.03024" y1="-0.0619965" x2="26.0807" y2="28.0172" gradientUnits="userSpaceOnUse">
<stop stop-color="#E125FF"/>
<stop offset="1" stop-color="#C972FF"/>
</linearGradient>
</defs>
</svg>
