<svg width="35" height="37" viewBox="0 0 35 37" fill="none" xmlns="http://www.w3.org/2000/svg">
<rect x="7.25488" width="24" height="24" rx="12" fill="#F6DDEF"/>
<path d="M25.8911 14.3563L13.6741 7.10264C13.4457 6.96683 13.1617 6.96683 12.9333 7.09647L0.549618 14.0476C0.321206 14.1773 0.173046 14.418 0.173046 14.6835L0.000193534 28.8883C-0.00597978 29.1537 0.136006 29.3945 0.358245 29.5303L12.637 36.895C12.7543 36.9629 12.8839 37 13.0197 37C13.1432 37 13.2666 36.9691 13.3839 36.9074L25.7738 29.9562C26.0083 29.8266 26.1503 29.5797 26.1503 29.3142L26.2553 14.9983C26.2553 14.7329 26.1195 14.4859 25.8911 14.3563ZM12.3839 35.0184L1.48179 28.4808L1.63612 16.0231L12.3839 22.3692V35.0184ZM13.137 21.0914L2.3584 14.7329L13.2852 8.59659L24.0514 14.986L13.137 21.0914ZM24.6687 28.8697L13.8654 34.9319V22.3754L24.7613 16.2824L24.6687 28.8697Z" fill="url(#paint0_linear_194_4557)"/>
<path d="M8.16753 25.462C8.29099 25.462 8.41446 25.4312 8.53175 25.3694C8.88981 25.1657 9.01327 24.7151 8.81573 24.3632C8.61818 24.0051 8.16753 23.8817 7.80948 24.0792C7.45142 24.2768 7.32796 24.7274 7.5255 25.0855C7.66132 25.3262 7.90825 25.462 8.16753 25.462Z" fill="url(#paint1_linear_194_4557)"/>
<path d="M5.69194 26.8572C5.81541 26.8572 5.93887 26.8263 6.05617 26.7646C6.41422 26.567 6.53769 26.1102 6.34014 25.7583C6.14259 25.4003 5.68577 25.2768 5.33389 25.4744C4.97584 25.6719 4.85237 26.1287 5.04992 26.4806C5.17956 26.7214 5.43266 26.8572 5.69194 26.8572Z" fill="url(#paint2_linear_194_4557)"/>
<path d="M10.649 24.0731C10.7724 24.0731 10.8959 24.0423 11.0132 23.9805C11.3713 23.783 11.4947 23.3262 11.2972 22.9743C11.0996 22.6162 10.6428 22.4928 10.2909 22.6903C9.93287 22.8878 9.8094 23.3447 10.0069 23.6965C10.1366 23.9373 10.3897 24.0731 10.649 24.0731Z" fill="url(#paint3_linear_194_4557)"/>
<path d="M3.21636 28.2462C3.33982 28.2462 3.46329 28.2153 3.58058 28.1536C3.93863 27.9499 4.0621 27.4992 3.86455 27.1474C3.66083 26.7893 3.21018 26.6658 2.8583 26.8634C2.50025 27.0609 2.37679 27.5178 2.57433 27.8696C2.70397 28.1104 2.95708 28.2462 3.21636 28.2462Z" fill="url(#paint4_linear_194_4557)"/>
<path d="M20.0753 26.9313C20.1926 26.9992 20.3223 27.0362 20.4519 27.0362C20.705 27.0362 20.9519 26.9066 21.0878 26.672C21.2976 26.3201 21.1804 25.8633 20.8285 25.6596C20.4766 25.4497 20.0198 25.567 19.8099 25.9188C19.6062 26.2707 19.7235 26.7214 20.0753 26.9313Z" fill="url(#paint5_linear_194_4557)"/>
<path d="M17.6313 25.4806C17.7486 25.5485 17.8782 25.5855 18.0079 25.5855C18.261 25.5855 18.5079 25.4559 18.6437 25.2213C18.8536 24.8694 18.7363 24.4126 18.3845 24.2089C18.0326 23.999 17.5758 24.1163 17.372 24.4682C17.1683 24.82 17.2794 25.2707 17.6313 25.4806Z" fill="url(#paint6_linear_194_4557)"/>
<path d="M15.1927 24.0299C15.3099 24.0978 15.4396 24.1348 15.5692 24.1348C15.8223 24.1348 16.0693 24.0052 16.2051 23.7706C16.415 23.4187 16.2977 22.9619 15.9458 22.7582C15.5939 22.5483 15.1371 22.6656 14.9334 23.0175C14.7235 23.3694 14.8408 23.82 15.1927 24.0299Z" fill="url(#paint7_linear_194_4557)"/>
<path d="M22.5208 28.382C22.6381 28.4499 22.7677 28.487 22.8973 28.487C23.1505 28.487 23.3974 28.3573 23.5332 28.1227C23.7431 27.7709 23.6258 27.314 23.2739 27.1041C22.922 26.8943 22.4652 27.0115 22.2615 27.3634C22.0516 27.7153 22.1689 28.1721 22.5208 28.382Z" fill="url(#paint8_linear_194_4557)"/>
<path d="M13.2051 15.523C12.7976 15.5169 12.4581 15.844 12.4581 16.2577C12.4519 16.6651 12.7791 17.0046 13.1865 17.0046C13.1865 17.0046 13.1927 17.0046 13.1989 17.0046C13.6063 17.0046 13.9335 16.6774 13.9397 16.27C13.9397 15.8626 13.6125 15.523 13.2051 15.523Z" fill="url(#paint9_linear_194_4557)"/>
<path d="M13.2353 12.6771C12.8279 12.6709 12.4884 12.9981 12.4884 13.4055C12.4822 13.813 12.8094 14.1525 13.223 14.1587H13.2292C13.6366 14.1587 13.9638 13.8315 13.97 13.4241C13.9761 13.0228 13.6489 12.6833 13.2353 12.6771Z" fill="url(#paint10_linear_194_4557)"/>
<path d="M13.2539 11.319C13.2539 11.319 13.2601 11.319 13.2663 11.319C13.6737 11.319 14.0009 10.9918 14.0071 10.5843C14.0132 10.1769 13.6861 9.83737 13.2724 9.83737C12.865 9.83119 12.5255 10.1584 12.5255 10.5658C12.5193 10.9794 12.8465 11.3128 13.2539 11.319Z" fill="url(#paint11_linear_194_4557)"/>
<path d="M13.168 18.3628C12.7605 18.3566 12.421 18.6838 12.421 19.0912C12.4148 19.4986 12.742 19.8382 13.1556 19.8444H13.1618C13.5692 19.8444 13.8964 19.5172 13.9026 19.1097C13.9026 18.7023 13.5754 18.3689 13.168 18.3628Z" fill="url(#paint12_linear_194_4557)"/>
<defs>
<linearGradient id="paint0_linear_194_4557" x1="13.1276" y1="7" x2="13.1276" y2="37" gradientUnits="userSpaceOnUse">
<stop stop-color="#000AFF"/>
<stop offset="1" stop-color="#D274FF"/>
</linearGradient>
<linearGradient id="paint1_linear_194_4557" x1="8.17061" y1="23.9854" x2="8.17061" y2="25.462" gradientUnits="userSpaceOnUse">
<stop stop-color="#000AFF"/>
<stop offset="1" stop-color="#D274FF"/>
</linearGradient>
<linearGradient id="paint2_linear_194_4557" x1="5.69503" y1="25.3805" x2="5.69503" y2="26.8572" gradientUnits="userSpaceOnUse">
<stop stop-color="#000AFF"/>
<stop offset="1" stop-color="#D274FF"/>
</linearGradient>
<linearGradient id="paint3_linear_194_4557" x1="10.6521" y1="22.5964" x2="10.6521" y2="24.0731" gradientUnits="userSpaceOnUse">
<stop stop-color="#000AFF"/>
<stop offset="1" stop-color="#D274FF"/>
</linearGradient>
<linearGradient id="paint4_linear_194_4557" x1="3.21944" y1="26.7695" x2="3.21944" y2="28.2462" gradientUnits="userSpaceOnUse">
<stop stop-color="#000AFF"/>
<stop offset="1" stop-color="#D274FF"/>
</linearGradient>
<linearGradient id="paint5_linear_194_4557" x1="20.451" y1="25.5553" x2="20.451" y2="27.0362" gradientUnits="userSpaceOnUse">
<stop stop-color="#000AFF"/>
<stop offset="1" stop-color="#D274FF"/>
</linearGradient>
<linearGradient id="paint6_linear_194_4557" x1="18.0093" y1="24.1046" x2="18.0093" y2="25.5855" gradientUnits="userSpaceOnUse">
<stop stop-color="#000AFF"/>
<stop offset="1" stop-color="#D274FF"/>
</linearGradient>
<linearGradient id="paint7_linear_194_4557" x1="15.5692" y1="22.6539" x2="15.5692" y2="24.1348" gradientUnits="userSpaceOnUse">
<stop stop-color="#000AFF"/>
<stop offset="1" stop-color="#D274FF"/>
</linearGradient>
<linearGradient id="paint8_linear_194_4557" x1="22.8973" y1="26.9999" x2="22.8973" y2="28.487" gradientUnits="userSpaceOnUse">
<stop stop-color="#000AFF"/>
<stop offset="1" stop-color="#D274FF"/>
</linearGradient>
<linearGradient id="paint9_linear_194_4557" x1="13.1988" y1="15.5229" x2="13.1988" y2="17.0046" gradientUnits="userSpaceOnUse">
<stop stop-color="#000AFF"/>
<stop offset="1" stop-color="#D274FF"/>
</linearGradient>
<linearGradient id="paint10_linear_194_4557" x1="13.2292" y1="12.677" x2="13.2292" y2="14.1587" gradientUnits="userSpaceOnUse">
<stop stop-color="#000AFF"/>
<stop offset="1" stop-color="#D274FF"/>
</linearGradient>
<linearGradient id="paint11_linear_194_4557" x1="13.2663" y1="9.83728" x2="13.2663" y2="11.319" gradientUnits="userSpaceOnUse">
<stop stop-color="#000AFF"/>
<stop offset="1" stop-color="#D274FF"/>
</linearGradient>
<linearGradient id="paint12_linear_194_4557" x1="13.1617" y1="18.3627" x2="13.1617" y2="19.8444" gradientUnits="userSpaceOnUse">
<stop stop-color="#000AFF"/>
<stop offset="1" stop-color="#D274FF"/>
</linearGradient>
</defs>
</svg>
