<svg width="35" height="36" viewBox="0 0 35 36" fill="none" xmlns="http://www.w3.org/2000/svg">
<ellipse cx="24" cy="11.7927" rx="11" ry="10.9009" fill="#F6DDEF"/>
<path d="M15.0755 19.3567C13.7508 19.3567 12.6731 20.4247 12.6731 21.7374C12.6731 23.0502 13.7508 24.1181 15.0755 24.1181C16.4002 24.1181 17.4779 23.0502 17.4779 21.7374C17.4779 20.4247 16.4002 19.3567 15.0755 19.3567ZM15.0755 22.8666C14.4471 22.8666 13.9359 22.36 13.9359 21.7374C13.9359 21.1147 14.4471 20.6081 15.0755 20.6081C15.7039 20.6081 16.2151 21.1147 16.2151 21.7374C16.2151 22.3601 15.7039 22.8666 15.0755 22.8666ZM21.2709 22.9877L20.455 22.4019C20.4824 22.182 20.4962 21.9598 20.4962 21.7379C20.4962 21.5192 20.4829 21.3005 20.4563 21.0842L21.2724 20.4982C21.481 20.3636 21.7655 20.0463 21.6292 19.3466C21.5639 19.0117 21.4077 18.6206 21.1892 18.2457C20.5837 17.2062 19.8501 16.7514 19.2643 17.0467L18.3458 17.4534C17.9881 17.1845 17.6012 16.9624 17.1892 16.7898L17.086 15.8045C17.0548 15.1514 16.2905 14.7478 15.0756 14.7478C13.8642 14.7478 13.0997 15.1503 13.0653 15.8012L12.9618 16.7898C12.5497 16.9625 12.1627 17.1847 11.8052 17.4536L10.8888 17.0478C10.6668 16.9363 10.2472 16.8508 9.70404 17.3175C9.44397 17.541 9.18039 17.8707 8.962 18.2457C8.35655 19.2847 8.32561 20.1417 8.87634 20.497L9.69478 21.0845C9.66819 21.3012 9.65486 21.5198 9.65486 21.738C9.65486 21.9598 9.66861 22.1819 9.69604 22.4018L8.87725 22.9897C8.32568 23.3446 8.3562 24.202 8.96193 25.2415C9.18039 25.6166 9.44397 25.9462 9.70404 26.1697C10.2473 26.6364 10.6669 26.5509 10.8888 26.4393L11.8145 26.0294C12.1693 26.295 12.5527 26.5146 12.9607 26.6857L13.0653 27.6858C13.0994 28.3369 13.8641 28.7395 15.0755 28.7395C16.2904 28.7395 17.0547 28.3358 17.0859 27.6827L17.1903 26.6857C17.5983 26.5146 17.9817 26.295 18.3364 26.0295L19.2642 26.4404C19.8501 26.7359 20.5837 26.2808 21.1891 25.2416C21.7966 24.1989 21.8261 23.3411 21.2709 22.9877ZM19.1526 20.9258C19.2062 21.191 19.2333 21.4642 19.2333 21.7379C19.2333 22.014 19.2055 22.2903 19.1509 22.559C19.102 22.7993 19.1992 23.0457 19.3994 23.1894L20.39 23.9007C20.3611 24.0472 20.2769 24.3043 20.0954 24.6158C19.9138 24.9273 19.7314 25.1282 19.6177 25.2262L18.4966 24.7297C18.271 24.6297 18.0071 24.6695 17.8217 24.8314C17.4037 25.1962 16.9257 25.4699 16.4012 25.6446C16.1667 25.7228 15.9999 25.9293 15.9744 26.1731L15.8476 27.3833C15.7051 27.4317 15.4384 27.488 15.0755 27.488C14.7123 27.488 14.4455 27.4317 14.3031 27.3833L14.1765 26.1732C14.1509 25.9294 13.9841 25.7228 13.7496 25.6446C13.2252 25.4699 12.7473 25.1962 12.329 24.8313C12.1436 24.6695 11.8801 24.6297 11.6542 24.7296L10.5329 25.226C10.4194 25.128 10.2369 24.9271 10.0554 24.6157C9.87389 24.304 9.78963 24.0469 9.76079 23.9005L10.7514 23.1892C10.9516 23.0454 11.0487 22.7991 10.9999 22.5589C10.9453 22.2901 10.9175 22.0139 10.9175 21.7379C10.9175 21.465 10.9447 21.1917 10.9983 20.9255C11.0465 20.6857 10.9494 20.4399 10.7495 20.2964L9.76073 19.5866C9.78956 19.4402 9.87382 19.183 10.0554 18.8713C10.2368 18.5599 10.4193 18.3591 10.5329 18.261L11.6457 18.7537C11.872 18.8539 12.1362 18.8137 12.3216 18.6511C12.7416 18.2827 13.2224 18.0068 13.7506 17.831C13.9851 17.7529 14.152 17.5463 14.1775 17.3024L14.303 16.1039C14.4455 16.0555 14.7123 15.9992 15.0754 15.9992C15.4383 15.9992 15.705 16.0554 15.8475 16.1038L15.973 17.3024C15.9986 17.5463 16.1655 17.7529 16.4001 17.831C16.9281 18.0066 17.4088 18.2825 17.8291 18.651C18.0146 18.8136 18.2788 18.8538 18.5051 18.7536L19.6177 18.2609C19.7312 18.3589 19.9138 18.5598 20.0953 18.8714C20.2768 19.1828 20.3611 19.4398 20.39 19.5864L19.4012 20.2963C19.2014 20.44 19.1042 20.6859 19.1526 20.9258ZM22.5163 12.0179H7.63479C5.23398 12.0179 3.2974 13.9475 3.2974 16.3267V28.522L1.26288 30.3158V16.1762C1.26281 12.7962 4.0722 10.0713 7.48297 10.0713H19.2698C19.9324 10.0713 20.5654 10.2662 21.1002 10.6585C21.3804 10.864 21.7758 10.7993 21.9834 10.5216C22.1908 10.2438 22.1317 9.86129 21.8515 9.65571C21.0976 9.10279 20.2048 8.81982 19.2697 8.81982H7.48297C3.37597 8.81982 0 12.1062 0 16.1762V31.734C0 31.9818 0.164937 32.2064 0.393855 32.3065C0.622704 32.4064 0.906555 32.3633 1.09135 32.1961L3.2974 30.2162V34.9509C3.2974 35.1987 3.43673 35.4233 3.66565 35.5233C3.74752 35.5591 3.83009 35.5766 3.91624 35.5766C4.0708 35.5766 4.22128 35.5203 4.33999 35.4131L8.00893 32.0939C8.12307 31.9906 8.22003 31.9004 8.30513 31.8218C8.48073 31.6594 8.64637 31.506 8.7013 31.4847C8.75286 31.4646 8.97056 31.4728 9.20095 31.4758C9.32562 31.4775 9.47021 31.4846 9.64055 31.4846H22.5163C24.9171 31.4846 26.8699 29.5384 26.8699 27.1592V16.3267C26.8697 13.9475 24.917 12.0179 22.5163 12.0179ZM25.6069 27.1592C25.6069 28.8484 24.2207 30.2332 22.5162 30.2332H9.64048C9.47673 30.2332 9.33761 30.226 9.21772 30.2245C8.28703 30.2121 8.1376 30.2674 7.44305 30.9094C7.3609 30.9854 7.27496 31.0712 7.16474 31.1709L4.56021 33.5326V28.7987V28.7971V16.3267C4.56014 14.6375 5.93028 13.2694 7.63479 13.2694H22.5163C24.2208 13.2694 25.607 14.6375 25.607 16.3267L25.6069 27.1592Z" fill="url(#paint0_linear_194_4443)"/>
<defs>
<linearGradient id="paint0_linear_194_4443" x1="13.4349" y1="8.81982" x2="13.4349" y2="35.5766" gradientUnits="userSpaceOnUse">
<stop stop-color="#0038FF"/>
<stop offset="1" stop-color="#F270D6"/>
</linearGradient>
</defs>
</svg>
