<svg width="16" height="16" viewBox="0 0 16 16" fill="none" xmlns="http://www.w3.org/2000/svg">
<g clip-path="url(#clip0_921_40869)">
<path d="M7.99984 0.666992C6.54944 0.666992 5.13162 1.09708 3.92566 1.90288C2.7197 2.70868 1.77977 3.85399 1.22472 5.19398C0.669681 6.53397 0.524457 8.00846 0.807415 9.43099C1.09037 10.8535 1.78881 12.1602 2.81439 13.1858C3.83998 14.2114 5.14665 14.9098 6.56918 15.1928C7.99171 15.4757 9.4662 15.3305 10.8062 14.7754C12.1462 14.2204 13.2915 13.2805 14.0973 12.0745C14.9031 10.8685 15.3332 9.45072 15.3332 8.00033C15.3332 6.05541 14.5606 4.19014 13.1853 2.81488C11.81 1.43961 9.94476 0.666992 7.99984 0.666992ZM11.8045 6.47166L7.13784 11.1383C7.01282 11.2633 6.84328 11.3335 6.66651 11.3335C6.48973 11.3335 6.32019 11.2633 6.19517 11.1383L4.19517 9.13833C4.07374 9.01259 4.00654 8.84419 4.00806 8.66939C4.00958 8.4946 4.07969 8.32739 4.2033 8.20378C4.3269 8.08018 4.49411 8.01006 4.66891 8.00854C4.8437 8.00703 5.01211 8.07422 5.13784 8.19566L6.66651 9.72433L10.8618 5.52899C10.9876 5.40755 11.156 5.34036 11.3308 5.34188C11.5056 5.3434 11.6728 5.41351 11.7964 5.53711C11.92 5.66072 11.9901 5.82793 11.9916 6.00273C11.9931 6.17752 11.9259 6.34593 11.8045 6.47166Z" fill="#6174A4"/>
</g>
<defs>
<clipPath id="clip0_921_40869">
<rect width="16" height="16" fill="white"/>
</clipPath>
</defs>
</svg>
