<svg width="22" height="22" viewBox="0 0 22 22" fill="none" xmlns="http://www.w3.org/2000/svg">
<g clip-path="url(#clip0_949_19551)">
<path d="M10.9994 0.916992C9.00506 0.916992 7.05555 1.50837 5.39735 2.61634C3.73916 3.72431 2.44675 5.29911 1.68357 7.1416C0.920385 8.98409 0.720701 11.0115 1.10977 12.9675C1.49884 14.9235 2.45918 16.7201 3.86936 18.1303C5.27954 19.5405 7.07622 20.5008 9.03219 20.8899C10.9882 21.279 13.0156 21.0793 14.8581 20.3161C16.7006 19.5529 18.2754 18.2605 19.3833 16.6023C20.4913 14.9441 21.0827 12.9946 21.0827 11.0003C21.0827 8.32606 20.0203 5.76132 18.1293 3.87033C16.2384 1.97934 13.6736 0.916992 10.9994 0.916992ZM16.2308 8.89841L9.8141 15.3151C9.6422 15.4869 9.40909 15.5835 9.16602 15.5835C8.92295 15.5835 8.68984 15.4869 8.51794 15.3151L5.76794 12.5651C5.60096 12.3922 5.50856 12.1606 5.51065 11.9203C5.51274 11.6799 5.60915 11.45 5.7791 11.2801C5.94906 11.1101 6.17897 11.0137 6.41932 11.0116C6.65967 11.0095 6.89122 11.1019 7.0641 11.2689L9.16602 13.3708L14.9346 7.60224C15.1075 7.43526 15.339 7.34287 15.5794 7.34496C15.8197 7.34705 16.0496 7.44345 16.2196 7.61341C16.3896 7.78337 16.486 8.01328 16.4881 8.25362C16.4901 8.49397 16.3977 8.72552 16.2308 8.89841Z" fill="#144A26"/>
</g>
<defs>
<clipPath id="clip0_949_19551">
<rect width="22" height="22" fill="white"/>
</clipPath>
</defs>
</svg>
