<svg width="23" height="23" viewBox="0 0 23 23" fill="none" xmlns="http://www.w3.org/2000/svg">
<path d="M6.82812 10.0625C8.61442 10.0625 10.0625 8.61442 10.0625 6.82812C10.0625 5.04183 8.61442 3.59375 6.82812 3.59375C5.04183 3.59375 3.59375 5.04183 3.59375 6.82812C3.59375 8.61442 5.04183 10.0625 6.82812 10.0625Z" stroke="white" stroke-width="1.5" stroke-linecap="round" stroke-linejoin="round"/>
<path d="M16.1719 10.0625C17.9582 10.0625 19.4062 8.61442 19.4062 6.82812C19.4062 5.04183 17.9582 3.59375 16.1719 3.59375C14.3856 3.59375 12.9375 5.04183 12.9375 6.82812C12.9375 8.61442 14.3856 10.0625 16.1719 10.0625Z" stroke="white" stroke-width="1.5" stroke-linecap="round" stroke-linejoin="round"/>
<path d="M6.82812 19.4062C8.61442 19.4062 10.0625 17.9582 10.0625 16.1719C10.0625 14.3856 8.61442 12.9375 6.82812 12.9375C5.04183 12.9375 3.59375 14.3856 3.59375 16.1719C3.59375 17.9582 5.04183 19.4062 6.82812 19.4062Z" stroke="white" stroke-width="1.5" stroke-linecap="round" stroke-linejoin="round"/>
<path d="M16.1719 19.4062C17.9582 19.4062 19.4062 17.9582 19.4062 16.1719C19.4062 14.3856 17.9582 12.9375 16.1719 12.9375C14.3856 12.9375 12.9375 14.3856 12.9375 16.1719C12.9375 17.9582 14.3856 19.4062 16.1719 19.4062Z" stroke="white" stroke-width="1.5" stroke-linecap="round" stroke-linejoin="round"/>
</svg>
