<svg width="21" height="21" viewBox="0 0 21 21" fill="none" xmlns="http://www.w3.org/2000/svg">
<path d="M-9.42527e-08 10.9375C-4.08428e-08 12.1594 0.934375 13.0937 2.15625 13.0937C3.37812 13.0937 4.3125 12.1594 4.3125 10.9375C4.3125 9.71562 3.37812 8.78125 2.15625 8.78125C0.934375 8.78125 -1.47663e-07 9.71563 -9.42527e-08 10.9375Z" fill="white"/>
<path d="M2.94697 15.0343C2.15635 15.825 2.15635 17.2625 2.94697 18.0531C3.80947 18.9156 5.1751 18.9156 5.96572 18.0531C6.39697 17.6218 6.6126 17.1187 6.6126 16.5437C6.6126 15.9687 6.39697 15.3937 5.96572 15.0343C5.1751 14.1718 3.80947 14.1718 2.94697 15.0343Z" fill="white"/>
<path d="M10.0625 16.6875C8.84062 16.6875 7.90625 17.6219 7.90625 18.8438C7.90625 20.0656 8.84062 21 10.0625 21C11.2844 21 12.2187 20.0656 12.2187 18.8437C12.2187 17.6219 11.2844 16.6875 10.0625 16.6875Z" fill="white"/>
<path d="M14.1593 18.0531C15.0218 18.9156 16.3875 18.9156 17.1781 18.0531C17.6093 17.6218 17.825 17.1187 17.825 16.5437C17.825 15.9687 17.6093 15.3937 17.1781 15.0343C16.3156 14.1718 14.95 14.1718 14.1593 15.0343C13.2968 15.825 13.2968 17.2625 14.1593 18.0531Z" fill="white"/>
<path d="M15.8125 10.9375C15.8125 12.1594 16.7469 13.0937 17.9688 13.0937C19.1906 13.0937 20.125 12.1594 20.125 10.9375C20.125 9.71562 19.1906 8.78125 17.9687 8.78125C16.7469 8.78125 15.8125 9.71563 15.8125 10.9375Z" fill="white"/>
<path d="M14.1593 6.84067C15.0218 7.70317 16.3875 7.70317 17.1781 6.84067C17.6093 6.40942 17.825 5.9063 17.825 5.3313C17.825 4.7563 17.6093 4.1813 17.1781 3.82192C16.3156 2.95942 14.95 2.95942 14.1593 3.82192C13.2968 4.61255 13.2968 6.05005 14.1593 6.84067Z" fill="white"/>
<path d="M7.90625 3.03125C7.90625 4.25313 8.84062 5.1875 10.0625 5.1875C11.2844 5.1875 12.2187 4.25312 12.2187 3.03125C12.2187 1.80937 11.2844 0.875 10.0625 0.875C8.84062 0.875 7.90625 1.80938 7.90625 3.03125Z" fill="white"/>
<path d="M6.6126 5.3313C6.6126 4.7563 6.39697 4.1813 5.96572 3.82192C5.10322 2.95942 3.7376 2.95942 2.94697 3.82192C2.15635 4.61255 2.15635 6.05005 2.94697 6.84067C3.80947 7.70317 5.1751 7.70317 5.96572 6.84067C6.39697 6.4813 6.6126 5.9063 6.6126 5.3313Z" fill="white"/>
</svg>
