<svg width="22" height="22" viewBox="0 0 22 22" fill="none" xmlns="http://www.w3.org/2000/svg">
<path d="M11 4C9.61553 4 8.26215 4.41054 7.11101 5.17971C5.95987 5.94888 5.06266 7.04213 4.53285 8.32122C4.00303 9.6003 3.86441 11.0078 4.13451 12.3656C4.4046 13.7235 5.07129 14.9708 6.05026 15.9497C7.02922 16.9287 8.2765 17.5954 9.63437 17.8655C10.9922 18.1356 12.3997 17.997 13.6788 17.4672C14.9579 16.9373 16.0511 16.0401 16.8203 14.889C17.5895 13.7378 18 12.3845 18 11C18 9.14348 17.2625 7.36301 15.9497 6.05025C14.637 4.7375 12.8565 4 11 4ZM13.9954 13.0955C14.0561 13.1542 14.1046 13.2245 14.138 13.3021C14.1713 13.3797 14.1889 13.4632 14.1896 13.5477C14.1903 13.6322 14.1742 13.716 14.1423 13.7942C14.1103 13.8724 14.063 13.9435 14.0033 14.0032C13.9435 14.063 13.8724 14.1103 13.7942 14.1422C13.716 14.1742 13.6322 14.1903 13.5477 14.1896C13.4632 14.1889 13.3797 14.1713 13.3021 14.138C13.2245 14.1046 13.1542 14.0561 13.0955 13.9954L11 11.8998L8.90446 13.9954C8.84575 14.0561 8.77553 14.1046 8.6979 14.138C8.62026 14.1713 8.53675 14.1889 8.45226 14.1896C8.36776 14.1903 8.28397 14.1742 8.20576 14.1422C8.12755 14.1103 8.0565 14.063 7.99675 14.0032C7.937 13.9435 7.88975 13.8724 7.85775 13.7942C7.82575 13.716 7.80965 13.6322 7.81039 13.5477C7.81112 13.4632 7.82868 13.3797 7.86203 13.3021C7.89538 13.2245 7.94386 13.1542 8.00464 13.0955L10.1002 11L8.00464 8.90445C7.94386 8.84575 7.89538 8.77553 7.86203 8.69789C7.82868 8.62025 7.81112 8.53675 7.81039 8.45225C7.80965 8.36776 7.82575 8.28396 7.85775 8.20576C7.88975 8.12755 7.937 8.0565 7.99675 7.99675C8.0565 7.937 8.12755 7.88975 8.20576 7.85775C8.28397 7.82575 8.36776 7.80965 8.45226 7.81039C8.53675 7.81112 8.62026 7.82867 8.6979 7.86203C8.77553 7.89538 8.84575 7.94386 8.90446 8.00464L11 10.1002L13.0955 8.00464C13.1542 7.94386 13.2245 7.89538 13.3021 7.86203C13.3797 7.82867 13.4632 7.81112 13.5477 7.81039C13.6322 7.80965 13.716 7.82575 13.7942 7.85775C13.8724 7.88975 13.9435 7.937 14.0033 7.99675C14.063 8.0565 14.1103 8.12755 14.1423 8.20576C14.1742 8.28396 14.1903 8.36776 14.1896 8.45225C14.1889 8.53675 14.1713 8.62025 14.138 8.69789C14.1046 8.77553 14.0561 8.84575 13.9954 8.90445L11.8998 11L13.9954 13.0955Z" fill="#645DF6"/>
</svg>
