<svg width="16" height="16" viewBox="0 0 16 16" fill="none" xmlns="http://www.w3.org/2000/svg">
<g clip-path="url(#clip0_107_33404)">
<path d="M7.99935 0.666992C6.54896 0.666992 5.13113 1.09708 3.92517 1.90288C2.71921 2.70868 1.77928 3.85399 1.22424 5.19398C0.669193 6.53397 0.523969 8.00846 0.806927 9.43099C1.08989 10.8535 1.78832 12.1602 2.8139 13.1858C3.83949 14.2114 5.14616 14.9098 6.56869 15.1927C7.99122 15.4757 9.46571 15.3305 10.8057 14.7754C12.1457 14.2204 13.291 13.2805 14.0968 12.0745C14.9026 10.8685 15.3327 9.45072 15.3327 8.00033C15.3327 6.0554 14.5601 4.19014 13.1848 2.81488C11.8095 1.43961 9.94427 0.666992 7.99935 0.666992ZM11.1374 10.1957C11.201 10.2572 11.2518 10.3307 11.2868 10.4121C11.3217 10.4934 11.3401 10.5809 11.3409 10.6694C11.3416 10.7579 11.3248 10.8457 11.2912 10.9276C11.2577 11.0096 11.2082 11.084 11.1456 11.1466C11.083 11.2092 11.0086 11.2587 10.9267 11.2922C10.8447 11.3257 10.7569 11.3426 10.6684 11.3418C10.5799 11.3411 10.4924 11.3227 10.4111 11.2877C10.3297 11.2528 10.2562 11.202 10.1947 11.1383L7.99935 8.94299L5.80402 11.1383C5.74252 11.202 5.66896 11.2528 5.58762 11.2877C5.50629 11.3227 5.41881 11.3411 5.33029 11.3418C5.24177 11.3426 5.15398 11.3257 5.07205 11.2922C4.99012 11.2587 4.91568 11.2092 4.85309 11.1466C4.79049 11.084 4.74099 11.0096 4.70747 10.9276C4.67395 10.8457 4.65708 10.7579 4.65785 10.6694C4.65862 10.5809 4.67701 10.4934 4.71195 10.4121C4.74689 10.3307 4.79768 10.2572 4.86135 10.1957L7.05669 8.00033L4.86135 5.80499C4.79768 5.74349 4.74689 5.66993 4.71195 5.58859C4.67701 5.50726 4.65862 5.41978 4.65785 5.33126C4.65708 5.24274 4.67395 5.15495 4.70747 5.07302C4.74099 4.99109 4.79049 4.91666 4.85309 4.85406C4.91568 4.79147 4.99012 4.74196 5.07205 4.70844C5.15398 4.67492 5.24177 4.65806 5.33029 4.65882C5.41881 4.65959 5.50629 4.67799 5.58762 4.71292C5.66896 4.74786 5.74252 4.79865 5.80402 4.86233L7.99935 7.05766L10.1947 4.86233C10.2562 4.79865 10.3297 4.74786 10.4111 4.71292C10.4924 4.67799 10.5799 4.65959 10.6684 4.65882C10.7569 4.65806 10.8447 4.67492 10.9267 4.70844C11.0086 4.74196 11.083 4.79147 11.1456 4.85406C11.2082 4.91666 11.2577 4.99109 11.2912 5.07302C11.3248 5.15495 11.3416 5.24274 11.3409 5.33126C11.3401 5.41978 11.3217 5.50726 11.2868 5.58859C11.2518 5.66993 11.201 5.74349 11.1374 5.80499L8.94202 8.00033L11.1374 10.1957Z" fill="#9CA3AF"/>
</g>
<defs>
<clipPath id="clip0_107_33404">
<rect width="16" height="16" fill="white"/>
</clipPath>
</defs>
</svg>
