<svg width="37" height="36" viewBox="0 0 37 36" fill="none" xmlns="http://www.w3.org/2000/svg">
<rect x="12.2549" width="24" height="24" rx="12" fill="#F6DDEF"/>
<path fill-rule="evenodd" clip-rule="evenodd" d="M5.25006 17.5C5.25006 14.3244 7.82443 11.75 11.0001 11.75C14.1757 11.75 16.7501 14.3244 16.7501 17.5C16.7501 20.6756 14.1757 23.25 11.0001 23.25C7.82443 23.25 5.25006 20.6756 5.25006 17.5ZM14.577 23.8077C16.7705 22.5611 18.2501 20.2033 18.2501 17.5C18.2501 13.4959 15.0041 10.25 11.0001 10.25C6.996 10.25 3.75006 13.4959 3.75006 17.5C3.75006 20.2033 5.22964 22.5611 7.42317 23.8077C6.79139 24.0096 6.17578 24.2653 5.58332 24.573C3.91006 25.4423 2.47056 26.7015 1.38643 28.2442C1.14827 28.5831 1.22994 29.0509 1.56884 29.2891C1.90775 29.5272 2.37554 29.4456 2.6137 29.1067C3.55943 27.7609 4.81516 26.6624 6.27482 25.9041C7.73448 25.1459 9.35519 24.75 11.0001 24.75C12.6449 24.75 14.2656 25.1459 15.7253 25.9041C17.185 26.6624 18.4407 27.7609 19.3864 29.1067C19.6246 29.4456 20.0924 29.5272 20.4313 29.2891C20.7702 29.0509 20.8519 28.5831 20.6137 28.2442C19.5296 26.7015 18.0901 25.4423 16.4168 24.573C15.8243 24.2653 15.2087 24.0096 14.577 23.8077Z" fill="url(#paint0_linear_1_128810)"/>
<path fill-rule="evenodd" clip-rule="evenodd" d="M21.1875 10.25L21.1852 10.25C20.5243 10.252 19.8665 10.3407 19.2287 10.5137C18.8289 10.6221 18.5927 11.0341 18.7011 11.4338C18.8096 11.8336 19.2215 12.0698 19.6213 11.9614C20.1323 11.8228 20.6592 11.7517 21.1886 11.75C22.7132 11.7503 24.1753 12.3561 25.2534 13.4341C26.3317 14.5125 26.9375 15.975 26.9375 17.5C26.9375 19.025 26.3317 20.4875 25.2534 21.5659C24.175 22.6442 22.7125 23.25 21.1875 23.25C21.1873 23.25 21.1872 23.25 21.187 23.25C21.1613 23.25 21.1359 23.2513 21.1108 23.2539C20.9836 23.2668 20.8657 23.3115 20.7654 23.38C20.5674 23.515 20.4375 23.7423 20.4375 24C20.4375 24.2071 20.5214 24.3946 20.6572 24.5303C20.7929 24.6661 20.9804 24.75 21.1875 24.75C21.1877 24.75 21.1878 24.75 21.188 24.75C22.8328 24.749 24.4537 25.1443 25.9134 25.9026C27.3731 26.6608 28.6286 27.7596 29.5736 29.1059C29.8116 29.4449 30.2794 29.5268 30.6184 29.2889C30.9574 29.0509 31.0393 28.5831 30.8014 28.2441C29.7179 26.7005 28.2784 25.4408 26.6049 24.5714C26.0123 24.2636 25.3965 24.0079 24.7645 23.8062C25.3269 23.4872 25.8488 23.0917 26.314 22.6265C27.6737 21.2669 28.4375 19.4228 28.4375 17.5C28.4375 15.5772 27.6737 13.7331 26.314 12.3735C24.9544 11.0138 23.1103 10.25 21.1875 10.25Z" fill="url(#paint1_linear_1_128810)"/>
<defs>
<linearGradient id="paint0_linear_1_128810" x1="11.0001" y1="10.25" x2="11.0001" y2="29.4255" gradientUnits="userSpaceOnUse">
<stop stop-color="#000AFF"/>
<stop offset="1" stop-color="#D274FF"/>
</linearGradient>
<linearGradient id="paint1_linear_1_128810" x1="24.8062" y1="10.25" x2="24.8062" y2="29.4251" gradientUnits="userSpaceOnUse">
<stop stop-color="#000AFF"/>
<stop offset="1" stop-color="#D274FF"/>
</linearGradient>
</defs>
</svg>
