<svg width="28" height="34" viewBox="0 0 28 34" fill="none" xmlns="http://www.w3.org/2000/svg">
<rect x="2.64526" y="7.5" width="9" height="19" rx="1.5" fill="#C8D5F7" stroke="#2D50C8"/>
<path d="M22.8709 17.518L20.9305 19.4584C20.727 19.6619 20.727 19.9876 20.9305 20.1911C21.1341 20.3947 21.4597 20.3947 21.6633 20.1911L24.4884 17.366C24.6919 17.1625 24.6919 16.8368 24.4884 16.6333L21.6633 13.8082C21.4597 13.6046 21.1341 13.6046 20.9305 13.8082C20.727 14.0117 20.727 14.3374 20.9305 14.5409L22.8709 16.4813L15.8801 16.4813C15.5924 16.4813 15.3617 16.712 15.3617 16.9996C15.3617 17.1408 15.4187 17.2737 15.511 17.366C15.6033 17.4583 15.7335 17.518 15.8774 17.5153L22.8709 17.518Z" fill="#2D50C8"/>
</svg>
