<svg width="38" height="39" viewBox="0 0 38 39" fill="none" xmlns="http://www.w3.org/2000/svg">
<path d="M0 7.00001C0 3.13401 3.13401 0 7 0H30.5547C34.4207 0 37.5547 3.13401 37.5547 7V38.2144H7C3.13401 38.2144 0 35.0804 0 31.2144V7.00001Z" fill="url(#paint0_linear_806_37136)"/>
<path d="M24.2003 24.066L24.5369 24.2652L24.855 24.0377C25.1194 23.8485 25.436 23.7459 25.7612 23.7442C26.0904 23.743 26.4117 23.8452 26.6798 24.0363C26.948 24.2275 27.1493 24.4981 27.2554 24.8099C27.3615 25.1217 27.3671 25.459 27.2713 25.7741C27.1754 26.0892 26.9831 26.3662 26.7214 26.5662C26.4596 26.7661 26.1418 26.8788 25.8126 26.8884C25.4834 26.8979 25.1595 26.8039 24.8866 26.6195C24.6137 26.4351 24.4055 26.1697 24.2916 25.8607L23.7286 26.0683L24.2916 25.8607C24.1776 25.5517 24.1636 25.2147 24.2514 24.8973L24.3734 24.4561L23.9802 24.2218L22.3146 23.2297L21.9147 22.9915L21.5846 23.3197C21.1543 23.7474 20.5722 23.9875 19.9655 23.9875C19.3588 23.9875 18.7767 23.7474 18.3465 23.3197L18.0163 22.9915L17.6164 23.2297L15.9509 24.2218L15.5518 24.4595L15.682 24.9055C15.7214 25.0405 15.7425 25.1801 15.7448 25.3207C15.744 25.6303 15.6518 25.9328 15.4798 26.1902C15.307 26.4488 15.0615 26.6503 14.7741 26.7693C14.4868 26.8884 14.1707 26.9195 13.8657 26.8588C13.5606 26.7982 13.2805 26.6484 13.0606 26.4285C12.8406 26.2086 12.6909 25.9284 12.6302 25.6234C12.5695 25.3183 12.6007 25.0022 12.7197 24.7149C12.8387 24.4275 13.0403 24.1819 13.2988 24.0092L12.9655 23.5103L13.2988 24.0092C13.557 23.8367 13.8605 23.7444 14.171 23.7442C14.4957 23.7462 14.8119 23.8487 15.0761 24.0377L15.3942 24.2652L15.7308 24.066L17.5049 23.016L17.9174 22.7719L17.7704 22.3157C17.7056 22.1147 17.6715 21.9051 17.669 21.6939C17.6715 21.1874 17.8414 20.6959 18.1522 20.296C18.4639 19.895 18.8996 19.6086 19.3914 19.4816L19.8414 19.3654V18.9007V17.2206V16.7964L19.4414 16.655C19.0917 16.5313 18.7969 16.288 18.6092 15.9681C18.4216 15.6481 18.353 15.2721 18.4157 14.9065C18.4785 14.5409 18.6684 14.2093 18.952 13.9702C19.2356 13.7311 19.5946 13.6 19.9655 13.6C20.3364 13.6 20.6954 13.7311 20.979 13.9702C21.2626 14.2093 21.4526 14.5409 21.5153 14.9065C21.578 15.2721 21.5095 15.6481 21.3218 15.9681C21.1341 16.288 20.8394 16.5313 20.4897 16.655L20.0897 16.7964V17.2206V18.9007V19.3654L20.5397 19.4816C21.0314 19.6086 21.4672 19.895 21.7788 20.296C22.0897 20.6959 22.2595 21.1874 22.2621 21.6939C22.2596 21.905 22.2254 22.1146 22.1606 22.3157L22.0137 22.7719L22.4261 23.016L24.2003 24.066ZM12.9491 25.8233L13.4968 25.5964L12.9491 25.8233C13.0493 26.0653 13.219 26.2721 13.4368 26.4176L13.7652 25.926L13.4368 26.4176C13.6545 26.5631 13.9105 26.6407 14.1724 26.6407C14.5236 26.6407 14.8604 26.5012 15.1087 26.2529C15.357 26.0046 15.4966 25.6678 15.4966 25.3166C15.4966 25.0547 15.4189 24.7987 15.2734 24.5809C15.1279 24.3632 14.9211 24.1935 14.6791 24.0932C14.4372 23.993 14.1709 23.9668 13.9141 24.0179L14.0295 24.598L13.9141 24.0179C13.6572 24.069 13.4213 24.1951 13.2361 24.3803L13.6604 24.8046L13.2361 24.3803C13.0509 24.5655 12.9248 24.8014 12.8737 25.0583L13.4622 25.1753L12.8737 25.0583C12.8226 25.3151 12.8488 25.5814 12.9491 25.8233ZM21.2642 15.4369L20.6757 15.3198L21.2642 15.4369C21.3153 15.18 21.2891 14.9138 21.1889 14.6718L20.6345 14.9014L21.1889 14.6718C21.0886 14.4299 20.9189 14.2231 20.7012 14.0776C20.4834 13.9321 20.2274 13.8544 19.9655 13.8544C19.6143 13.8544 19.2775 13.9939 19.0292 14.2422L19.4535 14.6665L19.0292 14.2422C18.7809 14.4906 18.6414 14.8274 18.6414 15.1785C18.6414 15.4404 18.719 15.6964 18.8645 15.9142C19.01 16.132 19.2168 16.3017 19.4588 16.4019C19.7007 16.5021 19.967 16.5283 20.2238 16.4772C20.4807 16.4262 20.7166 16.3 20.9018 16.1149C21.087 15.9297 21.2131 15.6937 21.2642 15.4369ZM24.8223 24.3803L25.2466 24.8046L24.8223 24.3803C24.6371 24.5655 24.511 24.8014 24.4599 25.0583C24.4088 25.3151 24.4351 25.5814 24.5353 25.8233C24.6355 26.0653 24.8052 26.2721 25.023 26.4176C25.2407 26.5631 25.4967 26.6407 25.7586 26.6407C26.1098 26.6407 26.4466 26.5012 26.6949 26.2529C26.9433 26.0046 27.0828 25.6678 27.0828 25.3166C27.0828 25.0547 27.0051 24.7987 26.8596 24.5809L26.3607 24.9143L26.8596 24.5809C26.7141 24.3632 26.5073 24.1935 26.2653 24.0932C26.0234 23.993 25.7572 23.9668 25.5003 24.0179L25.6173 24.6064L25.5003 24.0179C25.2434 24.069 25.0075 24.1951 24.8223 24.3803ZM18.8276 23.399C19.1644 23.624 19.5604 23.7442 19.9655 23.7442C20.5088 23.7442 21.0297 23.5284 21.4139 23.1442C21.798 22.7601 22.0138 22.2391 22.0138 21.6959C22.0138 21.2908 21.8937 20.8947 21.6686 20.5579C21.4435 20.2211 21.1236 19.9585 20.7494 19.8035C20.3751 19.6485 19.9632 19.6079 19.5659 19.6869C19.1686 19.766 18.8036 19.961 18.5172 20.2475C18.2307 20.534 18.0356 20.8989 17.9566 21.2963C17.8776 21.6936 17.9181 22.1054 18.0732 22.4797C18.2282 22.854 18.4907 23.1739 18.8276 23.399Z" stroke="white" stroke-width="1.2"/>
<defs>
<linearGradient id="paint0_linear_806_37136" x1="37.9976" y1="42.5023" x2="2.81494" y2="7.57904" gradientUnits="userSpaceOnUse">
<stop stop-color="#707DF1"/>
<stop offset="1" stop-color="#4356FD"/>
</linearGradient>
</defs>
</svg>
