<svg width="30" height="30" viewBox="0 0 30 30" fill="none" xmlns="http://www.w3.org/2000/svg">
<path d="M0.996094 9.75293C0.996094 4.78237 5.02553 0.75293 9.99609 0.75293H20.6562C25.6268 0.75293 29.6562 4.78237 29.6562 9.75293V29.9166H9.99609C5.02553 29.9166 0.996094 25.8871 0.996094 20.9166V9.75293Z" fill="url(#paint0_linear_949_37987)"/>
<path d="M19.6048 18.7648L19.9413 18.964L20.2594 18.7365C20.5065 18.5597 20.8023 18.4639 21.106 18.4623C21.4136 18.4612 21.7138 18.5566 21.9642 18.7352C22.2147 18.9139 22.4028 19.1667 22.5019 19.4579L23.0699 19.2646L22.5019 19.4579C22.6011 19.7492 22.6062 20.0643 22.5167 20.3586C22.4272 20.653 22.2475 20.9118 22.003 21.0986C21.7585 21.2854 21.4615 21.3907 21.154 21.3996C20.8464 21.4086 20.5438 21.3207 20.2889 21.1485C20.034 20.9762 19.8395 20.7282 19.7331 20.4396C19.6266 20.1509 19.6135 19.8361 19.6955 19.5395L19.8176 19.0983L19.4243 18.8641L17.8381 17.9192L17.4382 17.681L17.108 18.0092C16.7036 18.4112 16.1565 18.6369 15.5862 18.6369C15.0159 18.6369 14.4688 18.4112 14.0644 18.0092L13.7343 17.681L13.3343 17.9192L11.7481 18.8641L11.349 19.1018L11.4792 19.5477C11.516 19.6737 11.5358 19.8041 11.5379 19.9354C11.5371 20.2245 11.451 20.507 11.2904 20.7474C11.129 20.989 10.8995 21.1773 10.6311 21.2884C10.3627 21.3996 10.0673 21.4287 9.78239 21.372L9.66533 21.9605L9.78239 21.372C9.49744 21.3154 9.23569 21.1754 9.03025 20.97C8.82481 20.7646 8.68491 20.5028 8.62823 20.2179C8.57155 19.9329 8.60064 19.6375 8.71182 19.3691C8.823 19.1007 9.01129 18.8713 9.25286 18.7098C9.49402 18.5487 9.77748 18.4626 10.0675 18.4623C10.3709 18.4642 10.6662 18.56 10.913 18.7365L11.2311 18.964L11.5677 18.7648L13.2573 17.7648L13.6698 17.5207L13.5228 17.0645C13.462 16.8758 13.4299 16.6791 13.4276 16.481C13.43 16.005 13.5897 15.5431 13.8818 15.1672C14.1747 14.7903 14.5844 14.5211 15.0466 14.4018L15.4966 14.2856V13.8208V12.2208V11.7966L15.0966 11.6551C14.7699 11.5396 14.4945 11.3123 14.3192 11.0134C14.1438 10.7146 14.0798 10.3633 14.1384 10.0218C14.197 9.68021 14.3744 9.37039 14.6394 9.14703C14.9043 8.92367 15.2397 8.80117 15.5862 8.80117C15.9327 8.80117 16.2681 8.92367 16.533 9.14703C16.798 9.37039 16.9754 9.68021 17.034 10.0218C17.0926 10.3633 17.0286 10.7146 16.8533 11.0134L17.3708 11.317L16.8533 11.0135C16.6779 11.3123 16.4026 11.5396 16.0759 11.6551L15.6759 11.7966V12.2208V13.8208V14.2856L16.1259 14.4018C16.5881 14.5211 16.9977 14.7903 17.2906 15.1672C17.5827 15.5431 17.7424 16.005 17.7448 16.4809C17.7425 16.6791 17.7104 16.8758 17.6496 17.0645L17.5026 17.5207L17.9151 17.7648L19.6048 18.7648ZM14.5139 10.9925L15.0128 10.6591L14.5139 10.9925C14.6556 11.2046 14.857 11.3699 15.0927 11.4675L15.3223 10.9131L15.0927 11.4675C15.3283 11.5651 15.5876 11.5906 15.8378 11.5409C16.088 11.4911 16.3178 11.3683 16.4981 11.1879C16.6785 11.0075 16.8013 10.7777 16.8511 10.5276C16.9008 10.2774 16.8753 10.0181 16.7777 9.78244C16.6801 9.54679 16.5148 9.34537 16.3027 9.20366L15.9789 9.68826L16.3027 9.20366C16.0906 9.06195 15.8413 8.98631 15.5862 8.98631C15.2442 8.98631 14.9161 9.12219 14.6743 9.36405C14.4324 9.60591 14.2966 9.93394 14.2966 10.276C14.2966 10.531 14.3722 10.7804 14.5139 10.9925ZM8.80409 19.6797L9.38906 19.796L8.80409 19.6797C8.75433 19.9298 8.77987 20.1891 8.87748 20.4248C8.97509 20.6604 9.14038 20.8619 9.35247 21.0036C9.56455 21.1453 9.81389 21.2209 10.069 21.2209C10.411 21.2209 10.739 21.0851 10.9809 20.8432C11.2227 20.6013 11.3586 20.2733 11.3586 19.9313C11.3586 19.6762 11.283 19.4269 11.1413 19.2148C10.9996 19.0027 10.7982 18.8374 10.5625 18.7398C10.3268 18.6422 10.0675 18.6166 9.81737 18.6664C9.5672 18.7161 9.3374 18.839 9.15704 19.0193C8.97668 19.1997 8.85385 19.4295 8.80409 19.6797ZM14.4866 18.1287C14.8121 18.3462 15.1947 18.4623 15.5862 18.4623C16.1112 18.4623 16.6146 18.2537 16.9858 17.8825C17.357 17.5113 17.5655 17.0079 17.5655 16.4829C17.5655 16.0915 17.4494 15.7088 17.2319 15.3833C17.0145 15.0578 16.7053 14.8041 16.3437 14.6543C15.982 14.5045 15.584 14.4653 15.2001 14.5417C14.8161 14.618 14.4634 14.8065 14.1866 15.0834C13.9098 15.3602 13.7213 15.7129 13.6449 16.0968C13.5686 16.4808 13.6078 16.8787 13.7576 17.2404C13.9074 17.6021 14.1611 17.9112 14.4866 18.1287ZM20.387 21.0036C20.599 21.1453 20.8484 21.2209 21.1034 21.2209C21.4455 21.2209 21.7735 21.0851 22.0154 20.8432C22.2572 20.6013 22.3931 20.2733 22.3931 19.9313C22.3931 19.6762 22.3175 19.4269 22.1758 19.2148C22.0341 19.0027 21.8326 18.8374 21.597 18.7398C21.3613 18.6422 21.102 18.6166 20.8519 18.6664C20.6017 18.7161 20.3719 18.839 20.1915 19.0193C20.0112 19.1997 19.8883 19.4295 19.8386 19.6797C19.7888 19.9298 19.8144 20.1891 19.912 20.4248C20.0096 20.6604 20.1749 20.8619 20.387 21.0036Z" stroke="white" stroke-width="1.2"/>
<defs>
<linearGradient id="paint0_linear_949_37987" x1="29.9942" y1="33.1889" x2="3.14434" y2="6.53694" gradientUnits="userSpaceOnUse">
<stop stop-color="#707DF1"/>
<stop offset="1" stop-color="#4356FD"/>
</linearGradient>
</defs>
</svg>
