<svg width="18" height="19" viewBox="0 0 18 19" fill="none" xmlns="http://www.w3.org/2000/svg">
<path fill-rule="evenodd" clip-rule="evenodd" d="M5.26794 3.3125C5.26794 2.588 5.85594 2 6.58044 2H15.1874C15.9119 2 16.4999 2.588 16.4999 3.3125V11.936C16.4999 12.2841 16.3617 12.6179 16.1155 12.8641C15.8694 13.1102 15.5355 13.2485 15.1874 13.2485H6.58044C6.23235 13.2485 5.89851 13.1102 5.65237 12.8641C5.40622 12.6179 5.26794 12.2841 5.26794 11.936V3.3125ZM6.58044 3.125C6.53072 3.125 6.48302 3.14475 6.44786 3.17992C6.4127 3.21508 6.39294 3.26277 6.39294 3.3125V11.936C6.39294 12.0403 6.47694 12.1235 6.58044 12.1235H15.1874C15.2372 12.1235 15.2849 12.1037 15.32 12.0686C15.3552 12.0334 15.3749 11.9857 15.3749 11.936V3.3125C15.3749 3.26277 15.3552 3.21508 15.32 3.17992C15.2849 3.14475 15.2372 3.125 15.1874 3.125H6.58044Z" fill="#6174A4"/>
<path d="M1.49622 8.5613C1.49612 8.38887 1.52999 8.21812 1.59591 8.05879C1.66182 7.89947 1.75849 7.75469 1.88037 7.63273C2.00226 7.51078 2.14698 7.41403 2.30627 7.34803C2.46556 7.28202 2.63629 7.24805 2.80872 7.24805H3.93747C4.08665 7.24805 4.22972 7.30731 4.33521 7.4128C4.4407 7.51829 4.49997 7.66136 4.49997 7.81055C4.49997 7.95973 4.4407 8.1028 4.33521 8.20829C4.22972 8.31378 4.08665 8.37305 3.93747 8.37305H2.80872C2.75899 8.37305 2.7113 8.3928 2.67613 8.42796C2.64097 8.46313 2.62122 8.51082 2.62122 8.56055L2.62497 15.687C2.62497 15.7905 2.70822 15.8745 2.81247 15.8745H9.93747C9.98719 15.8745 10.0349 15.8548 10.07 15.8196C10.1052 15.7845 10.125 15.7368 10.125 15.687V14.5545C10.125 14.4054 10.1842 14.2623 10.2897 14.1568C10.3952 14.0513 10.5383 13.992 10.6875 13.992C10.8366 13.992 10.9797 14.0513 11.0852 14.1568C11.1907 14.2623 11.25 14.4054 11.25 14.5545V15.687C11.25 16.0351 11.1117 16.369 10.8655 16.6151C10.6194 16.8613 10.2856 16.9995 9.93747 16.9995H2.81247C2.46437 16.9995 2.13053 16.8613 1.88439 16.6151C1.63825 16.369 1.49997 16.0351 1.49997 15.687L1.49622 8.5613Z" fill="#6174A4"/>
</svg>
