<svg width="35" height="35" viewBox="0 0 35 35" fill="none" xmlns="http://www.w3.org/2000/svg">
<rect x="19" width="16" height="16" rx="8" fill="#F6DDEF"/>
<path fill-rule="evenodd" clip-rule="evenodd" d="M6.5625 6.21875C6.47133 6.21875 6.3839 6.25497 6.31943 6.31943C6.25497 6.3839 6.21875 6.47133 6.21875 6.5625V28.4375C6.21875 28.5287 6.25497 28.6161 6.31943 28.6806C6.3839 28.745 6.47133 28.7812 6.5625 28.7812H16.1877C16.1879 29.2823 16.2046 29.7834 16.236 30.2812H6.5625C6.07351 30.2812 5.60454 30.087 5.25877 29.7412C4.913 29.3955 4.71875 28.9265 4.71875 28.4375V6.5625C4.71875 6.07351 4.913 5.60454 5.25877 5.25877C5.60454 4.913 6.07351 4.71875 6.5625 4.71875H28.4375C28.9265 4.71875 29.3955 4.913 29.7412 5.25877C30.087 5.60454 30.2812 6.07351 30.2812 6.5625V16.5751C30.0308 16.5464 29.7705 16.5213 29.5 16.4999C29.2563 16.4807 29.0167 16.4655 28.7812 16.4541V6.5625C28.7812 6.47133 28.745 6.3839 28.6806 6.31943C28.6161 6.25497 28.5287 6.21875 28.4375 6.21875H6.5625ZM22.5976 17.2983C22.5095 16.9821 22.2194 16.75 21.875 16.75H13.125C12.7108 16.75 12.375 17.0858 12.375 17.5C12.375 17.9142 12.7108 18.25 13.125 18.25H20.7549C21.3077 17.8828 21.9203 17.5631 22.5976 17.2983ZM17.932 21.2618C17.8099 21.1756 17.6608 21.125 17.5 21.125H13.125C12.7108 21.125 12.375 21.4608 12.375 21.875C12.375 22.2892 12.7108 22.625 13.125 22.625H17.2609C17.4542 22.1532 17.6771 21.6974 17.932 21.2618ZM12.375 13.125C12.375 12.7108 12.7108 12.375 13.125 12.375H21.875C22.2892 12.375 22.625 12.7108 22.625 13.125C22.625 13.5392 22.2892 13.875 21.875 13.875H13.125C12.7108 13.875 12.375 13.5392 12.375 13.125Z" fill="url(#paint0_linear_823_6525)"/>
<path d="M25.5 18.4062V19.8125" stroke="url(#paint1_linear_823_6525)" stroke-width="1.5" stroke-linecap="round" stroke-linejoin="round"/>
<path d="M25.5 29.1875V30.5938" stroke="url(#paint2_linear_823_6525)" stroke-width="1.5" stroke-linecap="round" stroke-linejoin="round"/>
<path d="M28.7812 22.1562C28.7812 21.8485 28.7206 21.5437 28.6028 21.2593C28.4851 20.975 28.3124 20.7166 28.0948 20.499C27.8771 20.2813 27.6188 20.1087 27.3344 19.9909C27.0501 19.8731 26.7453 19.8125 26.4375 19.8125H24.3281C23.7065 19.8125 23.1104 20.0594 22.6708 20.499C22.2313 20.9385 21.9844 21.5346 21.9844 22.1562C21.9844 22.7779 22.2313 23.374 22.6708 23.8135C23.1104 24.2531 23.7065 24.5 24.3281 24.5H26.9062C27.5279 24.5 28.124 24.7469 28.5635 25.1865C29.0031 25.626 29.25 26.2221 29.25 26.8438C29.25 27.4654 29.0031 28.0615 28.5635 28.501C28.124 28.9406 27.5279 29.1875 26.9062 29.1875H24.0938C23.4721 29.1875 22.876 28.9406 22.4365 28.501C21.9969 28.0615 21.75 27.4654 21.75 26.8438" stroke="url(#paint3_linear_823_6525)" stroke-width="1.5" stroke-linecap="round" stroke-linejoin="round"/>
<defs>
<linearGradient id="paint0_linear_823_6525" x1="17.5" y1="4.71875" x2="17.5" y2="30.2812" gradientUnits="userSpaceOnUse">
<stop stop-color="#000AFF"/>
<stop offset="1" stop-color="#D274FF"/>
</linearGradient>
<linearGradient id="paint1_linear_823_6525" x1="26" y1="18.4062" x2="26" y2="19.8125" gradientUnits="userSpaceOnUse">
<stop stop-color="#000AFF"/>
<stop offset="1" stop-color="#D274FF"/>
</linearGradient>
<linearGradient id="paint2_linear_823_6525" x1="26" y1="29.1875" x2="26" y2="30.5938" gradientUnits="userSpaceOnUse">
<stop stop-color="#000AFF"/>
<stop offset="1" stop-color="#D274FF"/>
</linearGradient>
<linearGradient id="paint3_linear_823_6525" x1="25.5" y1="19.8125" x2="25.5" y2="29.1875" gradientUnits="userSpaceOnUse">
<stop stop-color="#000AFF"/>
<stop offset="1" stop-color="#D274FF"/>
</linearGradient>
</defs>
</svg>
