<svg width="19" height="18" viewBox="0 0 19 18" fill="none" xmlns="http://www.w3.org/2000/svg">
<path d="M18.5 1.72383C18.5 0.771788 17.7282 0 16.7762 0H2.22383C1.27179 0 0.5 0.771788 0.5 1.72383V16.2762C0.5 17.2282 1.27179 18 2.22383 18H16.7762C17.7282 18 18.5 17.2282 18.5 16.2762L18.5 1.72383ZM2.24425 1.39683H16.8C16.9795 1.39683 17.1032 1.51854 17.1032 1.69804V9.89418H12.8839C12.4977 9.89418 12.1848 10.1938 12.1848 10.5799C12.1848 12.1027 10.9459 13.3349 9.42309 13.3349C7.93857 13.3349 6.72388 12.1543 6.66372 10.6843C6.66987 10.647 6.67305 10.6205 6.67305 10.5816C6.67305 10.1955 6.36002 9.89419 5.97388 9.89419H1.89683V1.69804C1.89683 1.51854 2.06476 1.39683 2.24425 1.39683ZM16.8 16.6032H2.24425C2.06476 16.6032 1.89683 16.4333 1.89683 16.2538V11.291H5.32183C5.6552 13.2487 7.36739 14.7519 9.42308 14.7519C11.4787 14.7519 13.1909 13.2487 13.5243 11.291H17.1032V16.2538C17.1032 16.4333 16.9795 16.6032 16.8 16.6032Z" fill="white"/>
<path d="M5.55463 4.6456H13.4552C13.8413 4.6456 14.1543 4.33334 14.1543 3.94719C14.1543 3.56104 13.8413 3.24878 13.4552 3.24878H5.55463C5.16848 3.24878 4.85547 3.56104 4.85547 3.94719C4.85547 4.33334 5.16848 4.6456 5.55463 4.6456Z" fill="white"/>
<path d="M5.55463 7.8624H13.4552C13.8413 7.8624 14.1543 7.55013 14.1543 7.16399C14.1543 6.77785 13.8413 6.46558 13.4552 6.46558H5.55463C5.16848 6.46558 4.85547 6.77785 4.85547 7.16399C4.85547 7.55013 5.16848 7.8624 5.55463 7.8624Z" fill="white"/>
</svg>
