<svg width="23" height="23" viewBox="0 0 23 23" fill="none" xmlns="http://www.w3.org/2000/svg">
<path fill-rule="evenodd" clip-rule="evenodd" d="M20.6863 3.1661H13.4054V1.45044L1.4375 3.29763V19.4889L13.4054 21.5503V19.0073H20.6863C20.9069 19.0185 21.1228 18.9419 21.287 18.7943C21.4512 18.6467 21.5502 18.44 21.5625 18.2196V3.95313C21.5501 3.7328 21.4509 3.52636 21.2868 3.37889C21.1226 3.23142 20.9067 3.15492 20.6863 3.1661ZM20.8013 18.3504H13.381L13.3688 16.9927H15.1563V15.4114H13.3551L13.3465 14.4771H15.1563V12.8958H13.3328L13.3242 11.9614H15.1563V10.3802H13.3184V9.44582H15.1563V7.86456H13.3184V6.93019H15.1563V5.34894H13.3184V3.91144H20.8013V18.3504Z" fill="#20744A"/>
<path d="M19.2693 5.34668H16.1621V6.92793H19.2693V5.34668Z" fill="#20744A"/>
<path d="M19.2693 7.86304H16.1621V9.44429H19.2693V7.86304Z" fill="#20744A"/>
<path d="M19.2693 10.3794H16.1621V11.9606H19.2693V10.3794Z" fill="#20744A"/>
<path d="M19.2693 12.8958H16.1621V14.477H19.2693V12.8958Z" fill="#20744A"/>
<path d="M19.2693 15.4121H16.1621V16.9934H19.2693V15.4121Z" fill="#20744A"/>
<path fill-rule="evenodd" clip-rule="evenodd" d="M4.56194 7.6713L6.10437 7.5829L7.07397 10.2487L8.21966 7.47293L9.76209 7.38452L7.88903 11.1695L9.76209 14.9637L8.13125 14.8538L7.03013 11.9615L5.92828 14.7438L4.42969 14.6116L6.1705 11.26L4.56194 7.6713Z" fill="white"/>
</svg>
