<svg width="36" height="37" viewBox="0 0 36 37" fill="none" xmlns="http://www.w3.org/2000/svg">
<rect x="13" width="22.7687" height="22.796" rx="11.3844" fill="#F6DDEF"/>
<g clip-path="url(#clip0_10_109734)">
<path d="M12.4266 15.0625C12.0205 15.2677 11.6798 15.5823 11.4429 15.9708C11.206 16.3592 11.0822 16.8061 11.0856 17.2611C11.0795 17.3735 11.0305 17.4792 10.9488 17.5566C10.8671 17.634 10.7588 17.6771 10.6463 17.6771C10.5338 17.6771 10.4255 17.634 10.3438 17.5566C10.2621 17.4792 10.2131 17.3735 10.207 17.2611C10.2027 16.6671 10.3591 16.083 10.6597 15.5707C10.9603 15.0583 11.3938 14.6367 11.9144 14.3506C12.6118 13.8423 13.1621 13.4418 13.1621 12.4002C13.1621 11.7328 12.897 11.0927 12.4251 10.6208C11.9531 10.1489 11.3131 9.88374 10.6457 9.88374C9.97824 9.88374 9.33817 10.1489 8.86623 10.6208C8.3943 11.0927 8.12917 11.7328 8.12917 12.4002C8.12302 12.5126 8.07406 12.6183 7.99234 12.6957C7.91062 12.7731 7.80237 12.8162 7.68984 12.8162C7.5773 12.8162 7.46905 12.7731 7.38733 12.6957C7.30561 12.6183 7.25665 12.5126 7.2505 12.4002C7.25154 11.5001 7.60958 10.6371 8.24607 10.0006C8.88256 9.36415 9.74553 9.00612 10.6457 9.00507C14.025 9.0077 15.3161 13.5101 12.4266 15.0625ZM10.3383 19.201C9.92985 19.5951 10.5603 20.2294 10.9582 19.821C11.3562 19.4125 10.731 18.8031 10.3383 19.201ZM30 20.3949V29.9132C29.9993 30.5114 29.7614 31.0849 29.3383 31.5079C28.9153 31.931 28.3418 32.1689 27.7436 32.1696H18.7073C17.7379 32.1701 16.7851 32.4212 15.9413 32.8986L12.3268 34.9422C12.2599 34.9797 12.1843 34.999 12.1076 34.9983C12.0309 34.9977 11.9557 34.977 11.8894 34.9385C11.8231 34.8999 11.768 34.8447 11.7296 34.7783C11.6911 34.712 11.6706 34.6367 11.6701 34.56V22.9534H3.25775C2.66077 22.9483 2.08969 22.709 1.66742 22.2869C1.24516 21.8649 1.00549 21.294 1 20.697V8.25774C0.99944 7.9515 1.06188 7.64842 1.18344 7.36734C1.305 7.08626 1.48308 6.83319 1.70662 6.62387C2.12455 6.22474 2.67984 6.0014 3.25775 6H18.0349C18.6318 6.00549 19.2028 6.24516 19.6248 6.66742C20.0468 7.08968 20.2862 7.66077 20.2913 8.25774V18.1385H27.7436C28.3418 18.1392 28.9153 18.3771 29.3383 18.8002C29.7614 19.2232 29.9993 19.7967 30 20.3949ZM19.4126 25.3176V8.25774C19.4085 7.89361 19.2621 7.54555 19.0046 7.28805C18.7471 7.03055 18.399 6.88408 18.0349 6.87998H3.25775C2.89349 6.88407 2.54529 7.0305 2.28758 7.28796C2.02987 7.54543 1.88311 7.89349 1.87867 8.25774V20.697C1.88311 21.0613 2.02987 21.4093 2.28758 21.6668C2.54529 21.9243 2.89349 22.0707 3.25775 22.0748H11.9709C14.2444 21.8922 17.4846 24.3457 19.4126 25.3176ZM29.1213 20.3949C29.1206 20.0297 28.9753 19.6797 28.717 19.4215C28.4588 19.1632 28.1088 19.0179 27.7436 19.0172H20.2913V26.0702C20.2908 26.1469 20.2703 26.2221 20.2318 26.2885C20.1934 26.3548 20.1383 26.41 20.072 26.4486C20.0057 26.4872 19.9305 26.5078 19.8538 26.5085C19.7771 26.5091 19.7016 26.4898 19.6346 26.4524C18.1636 25.7418 14.2129 22.9968 12.5488 22.9915V33.8074C14.272 32.888 16.6479 31.1452 18.706 31.2923H27.7423C28.1077 31.2916 28.4579 31.146 28.7162 30.8875C28.9745 30.629 29.1197 30.2786 29.12 29.9132L29.1213 20.3949ZM24.6282 21.2C24.5115 21.2 24.3996 21.2464 24.3171 21.3289C24.2345 21.4114 24.1882 21.5233 24.1882 21.64V26.3263C24.1943 26.4386 24.2433 26.5444 24.325 26.6217C24.4067 26.6991 24.515 26.7422 24.6275 26.7422C24.7401 26.7422 24.8483 26.6991 24.93 26.6217C25.0117 26.5444 25.0607 26.4386 25.0669 26.3263V21.64C25.067 21.5823 25.0558 21.5251 25.0338 21.4718C25.0119 21.4184 24.9796 21.3699 24.9388 21.329C24.8981 21.2881 24.8497 21.2557 24.7964 21.2336C24.743 21.2114 24.6859 21.2 24.6282 21.2ZM24.3156 28.3568C23.9071 28.7508 24.5415 29.3865 24.9368 28.978C25.3322 28.5696 24.7149 27.9588 24.3156 28.3568Z" fill="url(#paint0_linear_10_109734)" stroke="url(#paint1_linear_10_109734)" stroke-width="0.5"/>
</g>
<defs>
<linearGradient id="paint0_linear_10_109734" x1="15.5" y1="6" x2="15.5" y2="34.9984" gradientUnits="userSpaceOnUse">
<stop stop-color="#000AFF"/>
<stop offset="1" stop-color="#D274FF"/>
</linearGradient>
<linearGradient id="paint1_linear_10_109734" x1="15.5" y1="6" x2="15.5" y2="34.9984" gradientUnits="userSpaceOnUse">
<stop stop-color="#000AFF"/>
<stop offset="1" stop-color="#D274FF"/>
</linearGradient>
<clipPath id="clip0_10_109734">
<rect width="31" height="31" fill="white" transform="translate(0 5)"/>
</clipPath>
</defs>
</svg>
