<svg width="41" height="41" viewBox="0 0 41 41" fill="none" xmlns="http://www.w3.org/2000/svg">
<circle cx="30" cy="11" r="11" fill="#F6DDEF"/>
<path d="M26.9062 35.875H8.96875C8.62894 35.875 8.30305 35.74 8.06277 35.4997C7.82249 35.2595 7.6875 34.9336 7.6875 34.5938V11.5312C7.6875 11.1914 7.82249 10.8656 8.06277 10.6253C8.30305 10.385 8.62894 10.25 8.96875 10.25H21.7812L28.1875 16.6562V34.5938C28.1875 34.9336 28.0525 35.2595 27.8122 35.4997C27.572 35.74 27.2461 35.875 26.9062 35.875Z" stroke="url(#paint0_linear_1_106165)" stroke-width="1.5" stroke-linecap="round" stroke-linejoin="round"/>
<path d="M12.8125 10.25V6.40625C12.8125 6.06644 12.9475 5.74055 13.1878 5.50027C13.4281 5.25999 13.7539 5.125 14.0938 5.125H26.9062L33.3125 11.5312V29.4688C33.3125 29.8086 33.1775 30.1345 32.9372 30.3747C32.697 30.615 32.3711 30.75 32.0312 30.75H28.1875" stroke="url(#paint1_linear_1_106165)" stroke-width="1.5" stroke-linecap="round" stroke-linejoin="round"/>
<path d="M14.0938 24.3438H21.7812" stroke="url(#paint2_linear_1_106165)" stroke-width="1.5" stroke-linecap="round" stroke-linejoin="round"/>
<path d="M14.0938 29.4688H21.7812" stroke="url(#paint3_linear_1_106165)" stroke-width="1.5" stroke-linecap="round" stroke-linejoin="round"/>
<defs>
<linearGradient id="paint0_linear_1_106165" x1="17.9375" y1="10.25" x2="17.9375" y2="35.875" gradientUnits="userSpaceOnUse">
<stop stop-color="#000AFF"/>
<stop offset="1" stop-color="#D274FF"/>
</linearGradient>
<linearGradient id="paint1_linear_1_106165" x1="23.0625" y1="5.125" x2="23.0625" y2="30.75" gradientUnits="userSpaceOnUse">
<stop stop-color="#000AFF"/>
<stop offset="1" stop-color="#D274FF"/>
</linearGradient>
<linearGradient id="paint2_linear_1_106165" x1="17.9375" y1="24.3438" x2="17.9375" y2="25.3438" gradientUnits="userSpaceOnUse">
<stop stop-color="#000AFF"/>
<stop offset="1" stop-color="#D274FF"/>
</linearGradient>
<linearGradient id="paint3_linear_1_106165" x1="17.9375" y1="29.4688" x2="17.9375" y2="30.4688" gradientUnits="userSpaceOnUse">
<stop stop-color="#000AFF"/>
<stop offset="1" stop-color="#D274FF"/>
</linearGradient>
</defs>
</svg>
