<svg width="18" height="13" viewBox="0 0 18 13" fill="none" xmlns="http://www.w3.org/2000/svg">
<g clip-path="url(#clip0_17_2111)">
<path d="M18 11.7558C18 12.2185 17.624 12.5932 17.1613 12.5932H0.837307C0.374621 12.5932 0 12.2185 0 11.7558V0.837307C0 0.374621 0.374621 0 0.837307 0H17.1627C17.6254 0 18.0014 0.374621 18.0014 0.837307V11.7558H18Z" fill="#E6E7E8"/>
<path d="M0 11.7559C0 12.2186 0.374621 12.5932 0.837307 12.5932H17.1627C17.6254 12.5932 18.0014 12.2186 18.0014 11.7559V11.6189H0V11.7559Z" fill="#DA2128"/>
<path d="M18 9.67871H0V10.653H18V9.67871Z" fill="#DA2128"/>
<path d="M18 7.73975H0V8.71264H18V7.73975Z" fill="#DA2128"/>
<path d="M18 5.79956H0V6.77386H18V5.79956Z" fill="#DA2128"/>
<path d="M18 3.86084H0V4.83513H18V3.86084Z" fill="#DA2128"/>
<path d="M18 1.92065H0V2.89495H18V1.92065Z" fill="#DA2128"/>
<path d="M18 0.837307C18 0.374621 17.624 0 17.1613 0H0.837307C0.374621 0 0 0.374621 0 0.837307V0.974295H18V0.837307Z" fill="#DA2128"/>
<path d="M9.40467 0H0.835909C0.374621 0 0 0.376019 0 0.837307V6.77813H9.40467V0Z" fill="#006BB5"/>
<path d="M0.633123 0.152344L0.725381 0.429116H1.00635L0.778499 0.599653L0.863767 0.879221L0.633123 0.708685L0.405275 0.879221L0.493339 0.599653L0.262695 0.429116H0.545059L0.633123 0.152344Z" fill="#EDEDEE"/>
<path d="M2.18044 0.152344L2.26991 0.429116H2.55506L2.32722 0.599653L2.41528 0.879221L2.18044 0.708685L1.95679 0.879221L2.04485 0.599653L1.81421 0.429116H2.09657L2.18044 0.152344Z" fill="#EDEDEE"/>
<path d="M3.8048 0.152344L3.89007 0.429116H4.17103L3.94318 0.599653L4.03125 0.879221L3.8048 0.708685L3.57276 0.879221L3.65802 0.599653L3.43018 0.429116H3.71534L3.8048 0.152344Z" fill="#EDEDEE"/>
<path d="M5.42065 0.152344L5.50872 0.429116H5.79108L5.56044 0.599653L5.6485 0.879221L5.42065 0.708685L5.18861 0.879221L5.27388 0.599653L5.04883 0.429116H5.33259L5.42065 0.152344Z" fill="#EDEDEE"/>
<path d="M7.03673 0.152344L7.122 0.429116H7.41135L7.17931 0.599653L7.26458 0.879221L7.03673 0.708685L6.80469 0.879221L6.89415 0.599653L6.66211 0.429116H6.94867L7.03673 0.152344Z" fill="#EDEDEE"/>
<path d="M1.37815 0.912842L1.46342 1.19101H1.74858L1.51793 1.36295L1.606 1.64251L1.37815 1.47058L1.14611 1.64251L1.23557 1.36295L1.00073 1.19101H1.29009L1.37815 0.912842Z" fill="#EDEDEE"/>
<path d="M2.92547 0.912842L3.01493 1.19101H3.2973L3.06945 1.36295L3.15751 1.64251L2.92547 1.47058L2.69483 1.64251L2.78289 1.36295L2.55225 1.19101H2.83741L2.92547 0.912842Z" fill="#EDEDEE"/>
<path d="M4.54283 0.912842L4.6309 1.19101H4.91606L4.68541 1.36295L4.77348 1.64251L4.54283 1.47058L4.31079 1.64251L4.40305 1.36295L4.16821 1.19101H4.45337L4.54283 0.912842Z" fill="#EDEDEE"/>
<path d="M6.15876 0.912842L6.24682 1.19101H6.53338L6.30134 1.36295L6.3894 1.64251L6.15876 1.47058L5.93091 1.64251L6.01897 1.36295L5.78833 1.19101H6.07069L6.15876 0.912842Z" fill="#EDEDEE"/>
<path d="M7.77881 0.912842L7.86268 1.19101H8.14924L7.92139 1.36295L8.00666 1.64251L7.77881 1.47058L7.54677 1.64251L7.63483 1.36295L7.40698 1.19101H7.68935L7.77881 0.912842Z" fill="#EDEDEE"/>
<path d="M1.37815 2.30078L1.46342 2.57616H1.74858L1.51793 2.74949L1.606 3.02766L1.37815 2.85712L1.14611 3.02766L1.23557 2.74949L1.00073 2.57616H1.29009L1.37815 2.30078Z" fill="#EDEDEE"/>
<path d="M2.92547 2.30078L3.01493 2.57616H3.2973L3.06945 2.74949L3.15751 3.02766L2.92547 2.85712L2.69483 3.02766L2.78289 2.74949L2.55225 2.57616H2.83741L2.92547 2.30078Z" fill="#EDEDEE"/>
<path d="M4.54283 2.30078L4.6309 2.57616H4.91606L4.68541 2.74949L4.77348 3.02766L4.54283 2.85712L4.31079 3.02766L4.40305 2.74949L4.16821 2.57616H4.45337L4.54283 2.30078Z" fill="#EDEDEE"/>
<path d="M6.15876 2.30078L6.24682 2.57616H6.53338L6.30134 2.74949L6.3894 3.02766L6.15876 2.85712L5.93091 3.02766L6.01897 2.74949L5.78833 2.57616H6.07069L6.15876 2.30078Z" fill="#EDEDEE"/>
<path d="M7.77881 2.30078L7.86268 2.57616H8.14924L7.92139 2.74949L8.00666 3.02766L7.77881 2.85712L7.54677 3.02766L7.63483 2.74949L7.40698 2.57616H7.68935L7.77881 2.30078Z" fill="#EDEDEE"/>
<path d="M1.37815 3.68457L1.46342 3.96274H1.74858L1.51793 4.13607L1.606 4.41145L1.37815 4.23812L1.14611 4.41145L1.23557 4.13607L1.00073 3.96274H1.29009L1.37815 3.68457Z" fill="#EDEDEE"/>
<path d="M2.92547 3.68457L3.01493 3.96274H3.2973L3.06945 4.13607L3.15751 4.41145L2.92547 4.23812L2.69483 4.41145L2.78289 4.13607L2.55225 3.96274H2.83741L2.92547 3.68457Z" fill="#EDEDEE"/>
<path d="M4.54283 3.68457L4.6309 3.96274H4.91606L4.68541 4.13607L4.77348 4.41145L4.54283 4.23812L4.31079 4.41145L4.40305 4.13607L4.16821 3.96274H4.45337L4.54283 3.68457Z" fill="#EDEDEE"/>
<path d="M6.15876 3.68457L6.24682 3.96274H6.53338L6.30134 4.13607L6.3894 4.41145L6.15876 4.23812L5.93091 4.41145L6.01897 4.13607L5.78833 3.96274H6.07069L6.15876 3.68457Z" fill="#EDEDEE"/>
<path d="M7.77881 3.68457L7.86268 3.96274H8.14924L7.92139 4.13607L8.00666 4.41145L7.77881 4.23812L7.54677 4.41145L7.63483 4.13607L7.40698 3.96274H7.68935L7.77881 3.68457Z" fill="#EDEDEE"/>
<path d="M1.37815 5.07007L1.46342 5.34684H1.74858L1.51793 5.52017L1.606 5.79834L1.37815 5.62641L1.14611 5.79834L1.23557 5.52017L1.00073 5.34684H1.29009L1.37815 5.07007Z" fill="#EDEDEE"/>
<path d="M2.92547 5.07007L3.01493 5.34684H3.2973L3.06945 5.52017L3.15751 5.79834L2.92547 5.62641L2.69483 5.79834L2.78289 5.52017L2.55225 5.34684H2.83741L2.92547 5.07007Z" fill="#EDEDEE"/>
<path d="M4.54283 5.07007L4.6309 5.34684H4.91606L4.68541 5.52017L4.77348 5.79834L4.54283 5.62641L4.31079 5.79834L4.40305 5.52017L4.16821 5.34684H4.45337L4.54283 5.07007Z" fill="#EDEDEE"/>
<path d="M6.15876 5.07007L6.24682 5.34684H6.53338L6.30134 5.52017L6.3894 5.79834L6.15876 5.62641L5.93091 5.79834L6.01897 5.52017L5.78833 5.34684H6.07069L6.15876 5.07007Z" fill="#EDEDEE"/>
<path d="M7.77881 5.07007L7.86268 5.34684H8.14924L7.92139 5.52017L8.00666 5.79834L7.77881 5.62641L7.54677 5.79834L7.63483 5.52017L7.40698 5.34684H7.68935L7.77881 5.07007Z" fill="#EDEDEE"/>
<path d="M8.65265 0.152344L8.74072 0.429116H9.02308L8.79523 0.599653L8.8847 0.879221L8.65265 0.708685L8.42201 0.879221L8.51007 0.599653L8.28223 0.429116H8.56459L8.65265 0.152344Z" fill="#EDEDEE"/>
<path d="M0.633123 1.5376L0.725381 1.81717H1.00635L0.778499 1.9863L0.863767 2.26587L0.633123 2.09394L0.405275 2.26587L0.493339 1.9863L0.262695 1.81717H0.545059L0.633123 1.5376Z" fill="#EDEDEE"/>
<path d="M2.18044 1.5376L2.26991 1.81717H2.55506L2.32722 1.9863L2.41528 2.26587L2.18044 2.09394L1.95679 2.26587L2.04485 1.9863L1.81421 1.81717H2.09657L2.18044 1.5376Z" fill="#EDEDEE"/>
<path d="M3.8048 1.5376L3.89007 1.81717H4.17103L3.94318 1.9863L4.03125 2.26587L3.8048 2.09394L3.57276 2.26587L3.65802 1.9863L3.43018 1.81717H3.71534L3.8048 1.5376Z" fill="#EDEDEE"/>
<path d="M5.42065 1.5376L5.50872 1.81717H5.79108L5.56044 1.9863L5.6485 2.26587L5.42065 2.09394L5.18861 2.26587L5.27388 1.9863L5.04883 1.81717H5.33259L5.42065 1.5376Z" fill="#EDEDEE"/>
<path d="M7.03673 1.5376L7.122 1.81717H7.41135L7.17931 1.9863L7.26458 2.26587L7.03673 2.09394L6.80469 2.26587L6.89415 1.9863L6.66211 1.81717H6.94867L7.03673 1.5376Z" fill="#EDEDEE"/>
<path d="M8.65265 1.5376L8.74072 1.81717H9.02308L8.79523 1.9863L8.8847 2.26587L8.65265 2.09394L8.42201 2.26587L8.51007 1.9863L8.28223 1.81717H8.56459L8.65265 1.5376Z" fill="#EDEDEE"/>
<path d="M0.633123 2.92285L0.725381 3.19962H1.00635L0.778499 3.37296L0.863767 3.64973L0.633123 3.47779L0.405275 3.64973L0.493339 3.37296L0.262695 3.19962H0.545059L0.633123 2.92285Z" fill="#EDEDEE"/>
<path d="M2.18044 2.92285L2.26991 3.19962H2.55506L2.32722 3.37296L2.41528 3.64973L2.18044 3.47779L1.95679 3.64973L2.04485 3.37296L1.81421 3.19962H2.09657L2.18044 2.92285Z" fill="#EDEDEE"/>
<path d="M3.8048 2.92285L3.89007 3.19962H4.17103L3.94318 3.37296L4.03125 3.64973L3.8048 3.47779L3.57276 3.64973L3.65802 3.37296L3.43018 3.19962H3.71534L3.8048 2.92285Z" fill="#EDEDEE"/>
<path d="M5.42065 2.92285L5.50872 3.19962H5.79108L5.56044 3.37296L5.6485 3.64973L5.42065 3.47779L5.18861 3.64973L5.27388 3.37296L5.04883 3.19962H5.33259L5.42065 2.92285Z" fill="#EDEDEE"/>
<path d="M7.03673 2.92285L7.122 3.19962H7.41135L7.17931 3.37296L7.26458 3.64973L7.03673 3.47779L6.80469 3.64973L6.89415 3.37296L6.66211 3.19962H6.94867L7.03673 2.92285Z" fill="#EDEDEE"/>
<path d="M8.65265 2.92285L8.74072 3.19962H9.02308L8.79523 3.37296L8.8847 3.64973L8.65265 3.47779L8.42201 3.64973L8.51007 3.37296L8.28223 3.19962H8.56459L8.65265 2.92285Z" fill="#EDEDEE"/>
<path d="M0.633123 4.30957L0.725381 4.58774H1.00635L0.778499 4.75688L0.863767 5.03505L0.633123 4.86451L0.405275 5.03505L0.493339 4.75688L0.262695 4.58774H0.545059L0.633123 4.30957Z" fill="#EDEDEE"/>
<path d="M2.18044 4.30957L2.26991 4.58774H2.55506L2.32722 4.75688L2.41528 5.03505L2.18044 4.86451L1.95679 5.03505L2.04485 4.75688L1.81421 4.58774H2.09657L2.18044 4.30957Z" fill="#EDEDEE"/>
<path d="M3.8048 4.30957L3.89007 4.58774H4.17103L3.94318 4.75688L4.03125 5.03505L3.8048 4.86451L3.57276 5.03505L3.65802 4.75688L3.43018 4.58774H3.71534L3.8048 4.30957Z" fill="#EDEDEE"/>
<path d="M5.42065 4.30957L5.50872 4.58774H5.79108L5.56044 4.75688L5.6485 5.03505L5.42065 4.86451L5.18861 5.03505L5.27388 4.75688L5.04883 4.58774H5.33259L5.42065 4.30957Z" fill="#EDEDEE"/>
<path d="M7.03673 4.30957L7.122 4.58774H7.41135L7.17931 4.75688L7.26458 5.03505L7.03673 4.86451L6.80469 5.03505L6.89415 4.75688L6.66211 4.58774H6.94867L7.03673 4.30957Z" fill="#EDEDEE"/>
<path d="M8.65265 4.30957L8.74072 4.58774H9.02308L8.79523 4.75688L8.8847 5.03505L8.65265 4.86451L8.42201 5.03505L8.51007 4.75688L8.28223 4.58774H8.56459L8.65265 4.30957Z" fill="#EDEDEE"/>
<path d="M0.633123 5.69189L0.725381 5.97286H1.00635L0.778499 6.1434L0.863767 6.42017L0.633123 6.24963L0.405275 6.42017L0.493339 6.1434L0.262695 5.97286H0.545059L0.633123 5.69189Z" fill="#EDEDEE"/>
<path d="M2.18044 5.69189L2.26991 5.97286H2.55506L2.32722 6.1434L2.41528 6.42017L2.18044 6.24963L1.95679 6.42017L2.04485 6.1434L1.81421 5.97286H2.09657L2.18044 5.69189Z" fill="#EDEDEE"/>
<path d="M3.8048 5.69189L3.89007 5.97286H4.17103L3.94318 6.1434L4.03125 6.42017L3.8048 6.24963L3.57276 6.42017L3.65802 6.1434L3.43018 5.97286H3.71534L3.8048 5.69189Z" fill="#EDEDEE"/>
<path d="M5.42065 5.69189L5.50872 5.97286H5.79108L5.56044 6.1434L5.6485 6.42017L5.42065 6.24963L5.18861 6.42017L5.27388 6.1434L5.04883 5.97286H5.33259L5.42065 5.69189Z" fill="#EDEDEE"/>
<path d="M7.03673 5.69189L7.122 5.97286H7.41135L7.17931 6.1434L7.26458 6.42017L7.03673 6.24963L6.80469 6.42017L6.89415 6.1434L6.66211 5.97286H6.94867L7.03673 5.69189Z" fill="#EDEDEE"/>
<path d="M8.65265 5.69189L8.74072 5.97286H9.02308L8.79523 6.1434L8.8847 6.42017L8.65265 6.24963L8.42201 6.42017L8.51007 6.1434L8.28223 5.97286H8.56459L8.65265 5.69189Z" fill="#EDEDEE"/>
</g>
<defs>
<clipPath id="clip0_17_2111">
<rect width="18" height="12.5932" fill="white"/>
</clipPath>
</defs>
</svg>
