<svg width="28" height="28" viewBox="0 0 28 28" fill="none" xmlns="http://www.w3.org/2000/svg">
<rect x="10.7693" width="17.2308" height="17.2308" rx="8.61539" fill="#F6DDEF"/>
<path fill-rule="evenodd" clip-rule="evenodd" d="M11.6704 4.37601C8.68841 5.09519 6.23269 7.16428 4.98614 9.90039H9.38137C9.6099 8.64483 9.94125 7.50629 10.3548 6.54075C10.7213 5.68487 11.1616 4.94328 11.6704 4.37601ZM9.19906 11.1004H4.53143C4.25086 12.0176 4.0999 12.9913 4.0999 14.0004C4.0999 15.0094 4.25086 15.9832 4.53143 16.9004H9.19904C9.0853 15.9761 9.0249 15.0031 9.0249 14.0005C9.0249 12.9979 9.08531 12.0248 9.19906 11.1004ZM10.4086 16.9004C10.2896 15.9867 10.2249 15.0131 10.2249 14.0005C10.2249 12.9878 10.2896 12.0142 10.4086 11.1004H17.5912C17.7102 12.0142 17.7749 12.9878 17.7749 14.0005C17.7749 15.0131 17.7102 15.9867 17.5912 16.9004H10.4086ZM9.38133 18.1004H4.98614C6.23266 20.8364 8.68828 22.9055 11.6702 23.6247C11.1615 23.0575 10.7212 22.316 10.3548 21.4602C9.94123 20.4946 9.60986 19.356 9.38133 18.1004ZM16.3296 23.6247C19.3115 22.9055 21.7671 20.8364 23.0137 18.1004H18.6185C18.3899 19.356 18.0586 20.4946 17.645 21.4602C17.2786 22.316 16.8383 23.0575 16.3296 23.6247ZM17.3975 18.1004C17.1859 19.1897 16.8937 20.1665 16.5419 20.9878C16.1651 21.8677 15.7318 22.5414 15.2812 22.9864C14.8332 23.4289 14.4009 23.6161 13.9999 23.6161C13.5989 23.6161 13.1666 23.4289 12.7186 22.9864C12.268 22.5414 11.8347 21.8677 11.4579 20.9878C11.1061 20.1665 10.8139 19.1897 10.6023 18.1004H17.3975ZM18.8008 16.9004H23.4684C23.7489 15.9832 23.8999 15.0094 23.8999 14.0004C23.8999 12.9913 23.7489 12.0176 23.4684 11.1004H18.8007C18.9145 12.0248 18.9749 12.9979 18.9749 14.0005C18.9749 15.0031 18.9145 15.9761 18.8008 16.9004ZM18.6184 9.90039H23.0137C21.7671 7.16428 19.3114 5.09519 16.3294 4.37601C16.8382 4.94328 17.2785 5.68487 17.645 6.54075C18.0586 7.50629 18.3899 8.64483 18.6184 9.90039ZM17.3974 9.90039H10.6024C10.8139 8.8112 11.1061 7.83443 11.4579 7.01317C11.8347 6.13327 12.268 5.45957 12.7186 5.01456C13.1666 4.5721 13.5989 4.38487 13.9999 4.38487C14.4009 4.38487 14.8332 4.5721 15.2812 5.01456C15.7318 5.45957 16.1651 6.13327 16.5419 7.01317C16.8937 7.83443 17.1859 8.8112 17.3974 9.90039ZM13.9999 2.90039C7.86954 2.90039 2.8999 7.87003 2.8999 14.0004C2.8999 20.1308 7.86954 25.1004 13.9999 25.1004C20.1303 25.1004 25.0999 20.1308 25.0999 14.0004C25.0999 7.87003 20.1303 2.90039 13.9999 2.90039Z" fill="url(#paint0_linear_921_40296)"/>
<defs>
<linearGradient id="paint0_linear_921_40296" x1="13.9999" y1="2.90039" x2="13.9999" y2="25.1004" gradientUnits="userSpaceOnUse">
<stop stop-color="#000AFF"/>
<stop offset="1" stop-color="#D274FF"/>
</linearGradient>
</defs>
</svg>
