<svg width="15" height="16" viewBox="0 0 15 16" fill="none" xmlns="http://www.w3.org/2000/svg">
<path d="M9.84375 9.875C8.16101 9.875 6.79688 8.51087 6.79688 6.82812C6.79688 5.14538 8.16101 3.78125 9.84375 3.78125C11.5265 3.78125 12.8906 5.14538 12.8906 6.82812C12.8906 8.51087 11.5265 9.875 9.84375 9.875Z" stroke="#645DF6" stroke-width="1.2" stroke-linecap="round" stroke-linejoin="round"/>
<path d="M5.89453 3.89258C5.62519 3.81953 5.34743 3.7821 5.06836 3.78125C4.26028 3.78125 3.48529 4.10226 2.91389 4.67366C2.34249 5.24506 2.02148 6.02004 2.02148 6.82812C2.02148 7.63621 2.34249 8.41119 2.91389 8.98259C3.48529 9.55399 4.26028 9.875 5.06836 9.875" stroke="#645DF6" stroke-width="1.2" stroke-linecap="round" stroke-linejoin="round"/>
<path d="M14.0625 12.0666C13.5867 11.3896 12.9551 10.837 12.2208 10.4556C11.4865 10.0741 10.6712 9.875 9.84375 9.875C9.0163 9.875 8.201 10.0741 7.46672 10.4556C6.73244 10.837 6.10075 11.3896 5.625 12.0666" stroke="#645DF6" stroke-width="1.2" stroke-linecap="round" stroke-linejoin="round"/>
<path d="M5.06836 9.875C4.24084 9.87449 3.42538 10.0734 2.69102 10.4548C1.95666 10.8363 1.32503 11.3891 0.849609 12.0664" stroke="#645DF6" stroke-width="1.2" stroke-linecap="round" stroke-linejoin="round"/>
</svg>
