<svg width="39" height="39" viewBox="0 0 39 39" fill="none" xmlns="http://www.w3.org/2000/svg">
<path d="M0 7.00001C0 3.13401 3.13401 0 7 0H31.3086C35.1746 0 38.3086 3.13401 38.3086 7V38.14H7C3.13401 38.14 0 35.006 0 31.14V7.00001Z" fill="url(#paint0_linear_698_33355)"/>
<path d="M27.9759 18.4731H25.0866C24.7034 18.4731 24.336 18.6275 24.0651 18.9024C23.7941 19.1772 23.6419 19.55 23.6419 19.9386V23.6024C23.6419 23.9911 23.7941 24.3639 24.0651 24.6387C24.336 24.9136 24.7034 25.068 25.0866 25.068H26.5313C26.9144 25.068 27.2819 24.9136 27.5528 24.6387C27.8237 24.3639 27.9759 23.9911 27.9759 23.6024V18.4731ZM27.9759 18.4731C27.976 17.3122 27.7494 16.1628 27.3093 15.0911C26.8692 14.0195 26.2242 13.0469 25.4116 12.2294C24.5991 11.4119 23.635 10.7657 22.575 10.3282C21.515 9.89062 20.3801 9.67032 19.2357 9.67999C18.0921 9.67153 16.9582 9.89273 15.8992 10.3308C14.8402 10.7689 13.8772 11.4153 13.0656 12.2327C12.254 13.05 11.6099 14.0222 11.1703 15.0933C10.7308 16.1643 10.5045 17.313 10.5045 18.4731V23.6024C10.5045 23.9911 10.6567 24.3639 10.9276 24.6387C11.1986 24.9136 11.566 25.068 11.9492 25.068H13.3938C13.777 25.068 14.1444 24.9136 14.4154 24.6387C14.6863 24.3639 14.8385 23.9911 14.8385 23.6024V19.9386C14.8385 19.55 14.6863 19.1772 14.4154 18.9024C14.1444 18.6275 13.777 18.4731 13.3938 18.4731H10.5045" stroke="white" stroke-width="1.2" stroke-linecap="round" stroke-linejoin="round"/>
<path d="M27.976 23.6025V25.8008C27.976 26.5782 27.6716 27.3237 27.1297 27.8734C26.5879 28.4231 25.853 28.7319 25.0867 28.7319H19.8949" stroke="white" stroke-width="1.2" stroke-linecap="round" stroke-linejoin="round"/>
<defs>
<linearGradient id="paint0_linear_698_33355" x1="38.7604" y1="42.4196" x2="3.6489" y2="6.79798" gradientUnits="userSpaceOnUse">
<stop stop-color="#FFC531"/>
<stop offset="1" stop-color="#F99500"/>
</linearGradient>
</defs>
</svg>
