<svg width="29" height="29" viewBox="0 0 29 29" fill="none" xmlns="http://www.w3.org/2000/svg">
<path d="M0 9C0 4.02944 4.02944 0 9 0H20C24.9706 0 29 4.02944 29 9V29H9C4.02944 29 0 24.9706 0 20V9Z" fill="url(#paint0_linear_949_37943)"/>
<path d="M20.2129 14.5002H18.3379C18.0893 14.5002 17.8508 14.599 17.675 14.7748C17.4992 14.9506 17.4004 15.1891 17.4004 15.4377V17.7814C17.4004 18.0301 17.4992 18.2685 17.675 18.4444C17.8508 18.6202 18.0893 18.7189 18.3379 18.7189H19.2754C19.524 18.7189 19.7625 18.6202 19.9383 18.4444C20.1141 18.2685 20.2129 18.0301 20.2129 17.7814V14.5002ZM20.2129 14.5002C20.2129 13.7575 20.0659 13.0222 19.7803 12.3367C19.4947 11.6512 19.0761 11.029 18.5488 10.5061C18.0215 9.98311 17.3959 9.56975 16.708 9.28984C16.0201 9.00993 15.2836 8.86901 14.541 8.8752C13.7989 8.86978 13.063 9.01128 12.3758 9.29154C11.6886 9.5718 11.0637 9.98528 10.537 10.5081C10.0103 11.031 9.59231 11.6529 9.30707 12.3381C9.02182 13.0232 8.87498 13.758 8.875 14.5002V17.7814C8.875 18.0301 8.97377 18.2685 9.14959 18.4444C9.3254 18.6202 9.56386 18.7189 9.8125 18.7189H10.75C10.9986 18.7189 11.2371 18.6202 11.4129 18.4444C11.5887 18.2685 11.6875 18.0301 11.6875 17.7814V15.4377C11.6875 15.1891 11.5887 14.9506 11.4129 14.7748C11.2371 14.599 10.9986 14.5002 10.75 14.5002H8.875" stroke="white" stroke-width="1.2" stroke-linecap="round" stroke-linejoin="round"/>
<path d="M20.2129 17.7812V19.1875C20.2129 19.6848 20.0153 20.1617 19.6637 20.5133C19.3121 20.865 18.8352 21.0625 18.3379 21.0625H14.9688" stroke="white" stroke-width="1.2" stroke-linecap="round" stroke-linejoin="round"/>
<defs>
<linearGradient id="paint0_linear_949_37943" x1="29.342" y1="32.254" x2="2.64335" y2="5.2866" gradientUnits="userSpaceOnUse">
<stop stop-color="#FFC531"/>
<stop offset="1" stop-color="#F99500"/>
</linearGradient>
</defs>
</svg>
