<svg width="37" height="36" viewBox="0 0 37 36" fill="none" xmlns="http://www.w3.org/2000/svg">
<path d="M0 5C0 2.23858 2.23858 0 5 0H15C17.7614 0 20 2.23858 20 5V20H5C2.23858 20 0 17.7614 0 15V5Z" fill="url(#paint0_linear_34_48672)"/>
<path d="M13.8086 10.0001H12.5586C12.3928 10.0001 12.2339 10.066 12.1167 10.1832C11.9994 10.3004 11.9336 10.4594 11.9336 10.6251V12.1876C11.9336 12.3534 11.9994 12.5124 12.1167 12.6296C12.2339 12.7468 12.3928 12.8126 12.5586 12.8126H13.1836C13.3494 12.8126 13.5083 12.7468 13.6255 12.6296C13.7427 12.5124 13.8086 12.3534 13.8086 12.1876V10.0001ZM13.8086 10.0001C13.8086 9.50503 13.7106 9.01483 13.5202 8.55781C13.3298 8.10079 13.0508 7.686 12.6992 7.33737C12.3477 6.98874 11.9306 6.71317 11.472 6.52656C11.0134 6.33996 10.5224 6.246 10.0273 6.25013C9.53259 6.24652 9.04201 6.34086 8.58388 6.5277C8.12575 6.71453 7.70912 6.99019 7.358 7.33877C7.00688 7.68734 6.72821 8.10196 6.53804 8.55872C6.34788 9.01549 6.24999 9.50536 6.25 10.0001V12.1876C6.25 12.3534 6.31585 12.5124 6.43306 12.6296C6.55027 12.7468 6.70924 12.8126 6.875 12.8126H7.5C7.66576 12.8126 7.82473 12.7468 7.94194 12.6296C8.05915 12.5124 8.125 12.3534 8.125 12.1876V10.6251C8.125 10.4594 8.05915 10.3004 7.94194 10.1832C7.82473 10.066 7.66576 10.0001 7.5 10.0001H6.25" stroke="white" stroke-width="0.8" stroke-linecap="round" stroke-linejoin="round"/>
<path d="M13.8086 12.1875V13.125C13.8086 13.4565 13.6769 13.7745 13.4425 14.0089C13.2081 14.2433 12.8901 14.375 12.5586 14.375H10.3125" stroke="white" stroke-width="0.8" stroke-linecap="round" stroke-linejoin="round"/>
<g filter="url(#filter0_d_34_48672)">
<path d="M14 15C14 12.2386 16.2386 10 19 10H29C31.7614 10 34 12.2386 34 15V30H19C16.2386 30 14 27.7614 14 25V15Z" fill="url(#paint1_linear_34_48672)"/>
<path d="M24.0552 23.912C23.1662 23.912 22.3136 23.5505 21.6849 22.907C21.0563 22.2635 20.7031 21.3908 20.7031 20.4808C20.7031 20.3898 20.7384 20.3025 20.8013 20.2382C20.8642 20.1738 20.9494 20.1377 21.0383 20.1377C21.1272 20.1377 21.2125 20.1738 21.2754 20.2382C21.3382 20.3025 21.3735 20.3898 21.3735 20.4808C21.3735 21.2088 21.6561 21.907 22.159 22.4218C22.6619 22.9366 23.344 23.2257 24.0552 23.2257C24.7664 23.2257 25.4485 22.9366 25.9514 22.4218C26.4543 21.907 26.7369 21.2088 26.7369 20.4808C26.7369 20.3898 26.7722 20.3025 26.835 20.2382C26.8979 20.1738 26.9832 20.1377 27.0721 20.1377C27.161 20.1377 27.2462 20.1738 27.3091 20.2382C27.372 20.3025 27.4073 20.3898 27.4073 20.4808C27.4073 21.3908 27.0541 22.2635 26.4255 22.907C25.7968 23.5505 24.9442 23.912 24.0552 23.912Z" fill="white"/>
<path d="M24.054 25.2843C23.9651 25.2843 23.8798 25.2481 23.8169 25.1838C23.7541 25.1194 23.7188 25.0322 23.7188 24.9412V23.5687C23.7188 23.4777 23.7541 23.3904 23.8169 23.3261C23.8798 23.2617 23.9651 23.2256 24.054 23.2256C24.1429 23.2256 24.2281 23.2617 24.291 23.3261C24.3538 23.3904 24.3892 23.4777 24.3892 23.5687V24.9412C24.3892 25.0322 24.3538 25.1194 24.291 25.1838C24.2281 25.2481 24.1429 25.2843 24.054 25.2843Z" fill="white"/>
<path d="M24.0542 22.5398C23.5208 22.5398 23.0092 22.3229 22.632 21.9368C22.2549 21.5507 22.043 21.0271 22.043 20.4811V17.0499C22.043 16.5039 22.2549 15.9803 22.632 15.5942C23.0092 15.2081 23.5208 14.9912 24.0542 14.9912C24.5876 14.9912 25.0992 15.2081 25.4764 15.5942C25.8536 15.9803 26.0655 16.5039 26.0655 17.0499V20.4811C26.0655 21.0271 25.8536 21.5507 25.4764 21.9368C25.0992 22.3229 24.5876 22.5398 24.0542 22.5398ZM24.0542 15.6774C23.6986 15.6774 23.3576 15.822 23.1061 16.0794C22.8547 16.3368 22.7134 16.6859 22.7134 17.0499V20.4811C22.7134 20.8451 22.8547 21.1942 23.1061 21.4516C23.3576 21.709 23.6986 21.8536 24.0542 21.8536C24.4098 21.8536 24.7509 21.709 25.0023 21.4516C25.2538 21.1942 25.395 20.8451 25.395 20.4811V17.0499C25.395 16.6859 25.2538 16.3368 25.0023 16.0794C24.7509 15.822 24.4098 15.6774 24.0542 15.6774Z" fill="white"/>
</g>
<defs>
<filter id="filter0_d_34_48672" x="11" y="10" width="26" height="26" filterUnits="userSpaceOnUse" color-interpolation-filters="sRGB">
<feFlood flood-opacity="0" result="BackgroundImageFix"/>
<feColorMatrix in="SourceAlpha" type="matrix" values="0 0 0 0 0 0 0 0 0 0 0 0 0 0 0 0 0 0 127 0" result="hardAlpha"/>
<feOffset dy="3"/>
<feGaussianBlur stdDeviation="1.5"/>
<feComposite in2="hardAlpha" operator="out"/>
<feColorMatrix type="matrix" values="0 0 0 0 0.252083 0 0 0 0 0.304792 0 0 0 0 0.366667 0 0 0 0.1 0"/>
<feBlend mode="normal" in2="BackgroundImageFix" result="effect1_dropShadow_34_48672"/>
<feBlend mode="normal" in="SourceGraphic" in2="effect1_dropShadow_34_48672" result="shape"/>
</filter>
<linearGradient id="paint0_linear_34_48672" x1="20.2359" y1="22.2441" x2="1.823" y2="3.64593" gradientUnits="userSpaceOnUse">
<stop stop-color="#FFC531"/>
<stop offset="1" stop-color="#F99500"/>
</linearGradient>
<linearGradient id="paint1_linear_34_48672" x1="34.2359" y1="32.2441" x2="15.823" y2="13.6459" gradientUnits="userSpaceOnUse">
<stop stop-color="#63C7FF"/>
<stop offset="1" stop-color="#0094FF"/>
</linearGradient>
</defs>
</svg>
