<svg width="71" height="70" viewBox="0 0 71 70" fill="none" xmlns="http://www.w3.org/2000/svg">
<g clip-path="url(#clip0_2058_96075)">
<path d="M57.5459 40.3928C55.439 40.3928 53.4532 40.9094 51.6913 41.8059L42.9384 27.239C46.2667 24.8926 48.4514 21.0256 48.4514 16.653C48.4514 9.51107 42.6419 3.70068 35.4991 3.70068C28.3572 3.70068 22.5468 9.51107 22.5468 16.653C22.5468 23.7949 28.3572 29.6053 35.4991 29.6053C37.6078 29.6053 39.5919 29.0895 41.3537 28.1912L50.1085 42.7599C47.0187 44.9393 44.9263 48.43 44.6405 52.4219H26.3586C25.8805 45.7126 20.2817 40.3948 13.4523 40.3948C6.31039 40.3945 0.5 46.2037 0.5 53.3468C0.5 60.4899 6.31039 66.2991 13.4523 66.2991C20.2817 66.2991 25.8787 60.9813 26.3586 54.2721H44.6402C45.1192 60.9813 50.7189 66.2991 57.5474 66.2991C64.6902 66.2991 70.4997 60.4899 70.4997 53.3468C70.5 46.2037 64.687 40.3928 57.5459 40.3928ZM24.3971 16.653C24.3971 10.5301 29.3763 5.55093 35.4991 5.55093C41.6232 5.55093 46.6012 10.5298 46.6012 16.653C46.6012 22.7761 41.6232 27.755 35.4991 27.755C29.3763 27.7547 24.3971 22.7758 24.3971 16.653ZM13.4523 64.4471C7.32943 64.4471 2.35024 59.4673 2.35024 53.345C2.35024 47.2231 7.32943 42.2433 13.4523 42.2433C19.5752 42.2433 24.5543 47.2231 24.5543 53.345C24.5543 59.4673 19.5752 64.4471 13.4523 64.4471ZM57.5459 64.4471C51.424 64.4471 46.4439 59.4673 46.4439 53.345C46.4439 47.2231 51.424 42.2433 57.5459 42.2433C63.6679 42.2433 68.648 47.2231 68.648 53.345C68.648 59.4673 63.6679 64.4471 57.5459 64.4471Z" fill="url(#paint0_linear_2058_96075)"/>
<path d="M35.4993 11.6069C36.4281 11.6069 37.1834 10.5282 37.1834 9.59942C37.1834 8.66881 36.4281 7.91357 35.4993 7.91357C34.5687 7.91357 33.8135 8.66881 33.8135 9.59942C33.8135 10.5282 34.5687 11.6069 35.4993 11.6069Z" fill="url(#paint1_linear_2058_96075)"/>
<path d="M38.7967 12.7803C38.7857 12.7298 38.7712 12.6817 38.7495 12.6378C38.7332 12.6025 38.7062 12.5764 38.6845 12.5473C38.6555 12.5075 38.6267 12.4696 38.5908 12.436C38.5581 12.4099 38.5237 12.3954 38.4914 12.3746C38.4569 12.3547 38.4281 12.3286 38.3919 12.3141C38.3305 12.2915 36.9904 11.8117 35.7583 11.7476L35.5874 12.0864H35.5838L36.034 15.5795L35.4989 16.5134L34.966 15.5828L35.4158 12.0897H35.4105L35.2399 11.7508C34.0075 11.8131 32.6685 12.293 32.6089 12.3173C32.57 12.3319 32.5403 12.358 32.5068 12.3779C32.4741 12.3986 32.4388 12.4132 32.4091 12.4375C32.3703 12.4707 32.3406 12.5114 32.3106 12.5521C32.289 12.5791 32.2664 12.6055 32.2483 12.6372C32.2258 12.6814 32.213 12.731 32.2014 12.7817C32.1943 12.8105 32.1762 12.8369 32.1723 12.8684L31.6394 17.6639C31.5987 18.0307 31.8634 18.3577 32.2275 18.3986C32.2519 18.4013 32.2756 18.4031 32.3017 18.4031C32.6368 18.4031 32.9234 18.1511 32.9623 17.8102L33.4475 13.442C33.5045 13.4248 33.5659 13.4067 33.6327 13.3877V17.9339L33.1015 24.5265C33.0644 24.9654 33.3932 25.3524 33.8341 25.3874C33.8558 25.3892 33.8784 25.3892 33.9012 25.3892C34.3131 25.3892 34.6627 25.0723 34.6962 24.6547L35.1761 18.6963C35.2737 18.7405 35.3829 18.7648 35.4977 18.7648C35.6126 18.7648 35.7218 18.7402 35.8194 18.6963L36.299 24.6547C36.3325 25.0749 36.6838 25.3892 37.0943 25.3892C37.1168 25.3892 37.1394 25.3892 37.1613 25.3874C37.5996 25.3521 37.9302 24.9654 37.894 24.5265L37.3628 17.9339V13.3877C37.4296 13.4067 37.491 13.4248 37.5471 13.442L38.0332 17.8102C38.0712 18.1509 38.3584 18.4031 38.6928 18.4031C38.7199 18.4031 38.7433 18.4013 38.7688 18.3986C39.1335 18.358 39.3976 18.0292 39.3561 17.6639L38.8231 12.8684C38.8202 12.8354 38.8038 12.8093 38.7967 12.7803Z" fill="url(#paint2_linear_2058_96075)"/>
<path d="M64.2406 53.5834C64.2729 52.6979 64.1266 51.7964 63.7922 50.9379L65.1727 50.0815L63.8227 47.9273L62.4497 48.7858C61.8209 48.1101 61.0799 47.5858 60.2703 47.2226L60.6318 45.6468L58.1542 45.0776L57.7895 46.6534C56.9058 46.621 56.004 46.7673 55.1458 47.0997L54.2858 45.7228L52.1376 47.0709L52.9958 48.4478C52.3183 49.0695 51.7889 49.8156 51.4313 50.629L49.8556 50.264L49.2808 52.7398L50.8565 53.1045C50.8274 53.9914 50.9722 54.89 51.3046 55.75L49.9295 56.6064L51.2794 58.7641L52.6563 57.9056C53.278 58.5831 54.0261 59.1054 54.8339 59.4671L54.4724 61.0408L56.9461 61.6156L57.3108 60.0383C58.1963 60.0743 59.0964 59.9262 59.9564 59.5938L60.8128 60.9707L62.9705 59.6229L62.1087 58.2495C62.7844 57.6246 63.3141 56.8779 63.6681 56.0648L65.2457 56.4316L65.8184 53.9526L64.2406 53.5834ZM59.9671 57.2154C57.8313 58.5525 55.0161 57.9005 53.6771 55.7625C52.3417 53.6267 52.994 50.8097 55.1282 49.4743C57.2714 48.1371 60.0849 48.7879 61.4182 50.9272C62.7536 53.0629 62.1028 55.8818 59.9671 57.2154Z" fill="url(#paint3_linear_2058_96075)"/>
<path d="M9.72377 53.3452H6.00488V59.1057H9.72377V53.3452Z" fill="url(#paint4_linear_2058_96075)"/>
<path d="M15.3134 50.7612H11.5928V59.1056H15.3134V50.7612Z" fill="url(#paint5_linear_2058_96075)"/>
<path d="M20.8997 47.5825H17.1812V59.1054H20.8997V47.5825Z" fill="url(#paint6_linear_2058_96075)"/>
</g>
<defs>
<linearGradient id="paint0_linear_2058_96075" x1="71.3252" y1="73.3231" x2="14.1162" y2="8.706" gradientUnits="userSpaceOnUse">
<stop stop-color="#FFC531"/>
<stop offset="1" stop-color="#F99500"/>
</linearGradient>
<linearGradient id="paint1_linear_2058_96075" x1="37.2231" y1="12.0214" x2="33.834" y2="8.89791" gradientUnits="userSpaceOnUse">
<stop stop-color="#FFC531"/>
<stop offset="1" stop-color="#F99500"/>
</linearGradient>
<linearGradient id="paint2_linear_2058_96075" x1="39.4515" y1="26.9199" x2="28.6254" y2="20.7275" gradientUnits="userSpaceOnUse">
<stop stop-color="#FFC531"/>
<stop offset="1" stop-color="#F99500"/>
</linearGradient>
<linearGradient id="paint3_linear_2058_96075" x1="66.0134" y1="63.4712" x2="50.7879" y2="48.0927" gradientUnits="userSpaceOnUse">
<stop stop-color="#FFC531"/>
<stop offset="1" stop-color="#F99500"/>
</linearGradient>
<linearGradient id="paint4_linear_2058_96075" x1="9.76762" y1="59.7521" x2="4.91443" y2="56.5874" gradientUnits="userSpaceOnUse">
<stop stop-color="#FFC531"/>
<stop offset="1" stop-color="#F99500"/>
</linearGradient>
<linearGradient id="paint5_linear_2058_96075" x1="15.3573" y1="60.0419" x2="9.60418" y2="57.4508" gradientUnits="userSpaceOnUse">
<stop stop-color="#FFC531"/>
<stop offset="1" stop-color="#F99500"/>
</linearGradient>
<linearGradient id="paint6_linear_2058_96075" x1="20.9436" y1="60.3983" x2="14.6916" y2="58.3604" gradientUnits="userSpaceOnUse">
<stop stop-color="#FFC531"/>
<stop offset="1" stop-color="#F99500"/>
</linearGradient>
<clipPath id="clip0_2058_96075">
<rect width="70" height="70" fill="white" transform="translate(0.5)"/>
</clipPath>
</defs>
</svg>
