<svg width="25" height="25" viewBox="0 0 25 25" fill="none" xmlns="http://www.w3.org/2000/svg">
<path d="M20.8327 23.4375H4.16602V1.5625H15.6243L20.8327 6.77083V23.4375Z" fill="#90CAF9"/>
<path d="M20.0514 7.29167H15.1035V2.34375L20.0514 7.29167Z" fill="#E1F5FE"/>
<path d="M10.9368 11.9792L7.29102 17.1876H14.5827L10.9368 11.9792Z" fill="#1565C0"/>
<path d="M14.5827 13.75L11.9785 17.1875H17.1869L14.5827 13.75Z" fill="#1976D2"/>
<path d="M15.625 12.7605C15.625 12.9677 15.7073 13.1664 15.8538 13.3129C16.0003 13.4594 16.199 13.5417 16.4062 13.5417C16.6135 13.5417 16.8122 13.4594 16.9587 13.3129C17.1052 13.1664 17.1875 12.9677 17.1875 12.7605C17.1875 12.5533 17.1052 12.3546 16.9587 12.2081C16.8122 12.0616 16.6135 11.9792 16.4062 11.9792C16.199 11.9792 16.0003 12.0616 15.8538 12.2081C15.7073 12.3546 15.625 12.5533 15.625 12.7605Z" fill="#1976D2"/>
</svg>
