<svg width="16" height="16" viewBox="0 0 16 16" fill="none" xmlns="http://www.w3.org/2000/svg">
<g clip-path="url(#clip0_2357_87421)">
<path d="M8 0.000488281C3.5888 0.000488281 0 3.58914 0 8.00005C0 12.4111 3.5888 15.9997 8 15.9997C12.4112 15.9997 16 12.4111 16 8.00005C16 3.58914 12.4112 0.000488281 8 0.000488281ZM8 14.5452C4.39084 14.5452 1.45455 11.6091 1.45455 8.0001C1.45455 4.39113 4.39084 1.45503 8 1.45503C11.6092 1.45503 14.5455 4.39113 14.5455 8.00005C14.5455 11.6091 11.6092 14.5452 8 14.5452Z" fill="#2D50C8"/>
<path d="M8.00022 6.30371C7.59857 6.30371 7.27295 6.62934 7.27295 7.03098V11.8786C7.27295 12.2803 7.59857 12.6059 8.00022 12.6059C8.40187 12.6059 8.72749 12.2803 8.72749 11.8786V7.03098C8.72749 6.62938 8.40187 6.30371 8.00022 6.30371Z" fill="#2D50C8"/>
<path d="M8.00022 3.39453C7.80871 3.39453 7.62151 3.47211 7.4858 3.60738C7.35052 3.74265 7.27295 3.93029 7.27295 4.1218C7.27295 4.31332 7.35052 4.50047 7.4858 4.63623C7.62107 4.7715 7.80871 4.84908 8.00022 4.84908C8.19174 4.84908 8.37889 4.7715 8.5146 4.63623C8.64987 4.50047 8.72749 4.31332 8.72749 4.1218C8.72749 3.93029 8.64987 3.74265 8.5146 3.60738C8.37889 3.47206 8.19174 3.39453 8.00022 3.39453Z" fill="#2D50C8"/>
</g>
<defs>
<clipPath id="clip0_2357_87421">
<rect width="16" height="16" fill="white"/>
</clipPath>
</defs>
</svg>
