<svg width="16" height="17" viewBox="0 0 16 17" fill="none" xmlns="http://www.w3.org/2000/svg">
<g clip-path="url(#clip0_698_33488)">
<path d="M8 0.5C3.5888 0.5 0 4.08865 0 8.49956C0 12.9106 3.5888 16.4992 8 16.4992C12.4112 16.4992 16 12.9106 16 8.49956C16 4.08865 12.4112 0.5 8 0.5ZM8 15.0447C4.39084 15.0447 1.45455 12.1086 1.45455 8.49961C1.45455 4.89064 4.39084 1.95455 8 1.95455C11.6092 1.95455 14.5455 4.89064 14.5455 8.49956C14.5455 12.1086 11.6092 15.0447 8 15.0447Z" fill="#6174A4"/>
<path d="M7.99998 6.80273C7.59833 6.80273 7.27271 7.12836 7.27271 7.53001V12.3777C7.27271 12.7793 7.59833 13.1049 7.99998 13.1049C8.40163 13.1049 8.72725 12.7793 8.72725 12.3777V7.53001C8.72725 7.12841 8.40163 6.80273 7.99998 6.80273Z" fill="#6174A4"/>
<path d="M7.99998 3.89453C7.80846 3.89453 7.62126 3.97211 7.48555 4.10738C7.35028 4.24265 7.27271 4.43029 7.27271 4.6218C7.27271 4.81332 7.35028 5.00047 7.48555 5.13623C7.62083 5.2715 7.80846 5.34908 7.99998 5.34908C8.19149 5.34908 8.37864 5.2715 8.51435 5.13623C8.64963 5.00047 8.72725 4.81332 8.72725 4.6218C8.72725 4.43029 8.64963 4.24265 8.51435 4.10738C8.37864 3.97206 8.19149 3.89453 7.99998 3.89453Z" fill="#6174A4"/>
</g>
<defs>
<clipPath id="clip0_698_33488">
<rect width="16" height="16" fill="white" transform="translate(0 0.5)"/>
</clipPath>
</defs>
</svg>
