<svg id="svg" xmlns="http://www.w3.org/2000/svg" xmlns:xlink="http://www.w3.org/1999/xlink" width="400" height="400" viewBox="0, 0, 400,400"><g id="svgg"><path id="path0" d="M182.422 38.022 C 46.522 54.717,-11.313 217.401,84.188 314.343 C 178.337 409.913,342.113 355.860,361.243 222.905 C 376.240 118.671,285.936 25.306,182.422 38.022 M211.925 63.621 C 280.482 67.230,336.280 128.423,336.280 200.000 C 336.280 329.817,174.366 386.100,92.423 284.766 C 53.095 236.130,53.685 162.302,93.792 113.672 C 120.293 81.539,166.472 59.911,201.953 63.014 C 203.242 63.127,207.730 63.400,211.925 63.621 M188.672 113.984 C 174.249 120.676,174.604 142.687,189.233 148.789 C 202.003 154.115,215.591 145.074,215.591 131.250 C 215.591 117.168,201.412 108.073,188.672 113.984 M180.657 176.558 C 171.010 182.440,174.524 199.982,185.352 199.997 L 187.500 200.000 187.503 239.648 C 187.506 283.992,187.309 282.376,193.157 285.942 C 196.946 288.252,215.554 288.252,219.343 285.942 C 228.990 280.060,225.476 262.518,214.648 262.503 L 212.500 262.500 212.497 222.852 C 212.494 178.508,212.691 180.124,206.843 176.558 C 203.054 174.248,184.446 174.248,180.657 176.558 " stroke="none" fill="#6174A4" fill-rule="evenodd"></path></g></svg>
