<svg width="35" height="35" viewBox="0 0 35 35" fill="none" xmlns="http://www.w3.org/2000/svg">
<rect x="18" y="4" width="16.1778" height="16.1778" rx="8.08889" fill="#F6DDEF"/>
<path fill-rule="evenodd" clip-rule="evenodd" d="M3.66602 17.4993C3.66602 14.6919 5.9419 12.416 8.74935 12.416C11.5568 12.416 13.8327 14.6919 13.8327 17.4993C13.8327 20.3067 11.5568 22.5827 8.74935 22.5827C5.9419 22.5827 3.66602 20.3067 3.66602 17.4993ZM8.74935 10.916C12.1316 10.916 14.9182 13.4666 15.2904 16.7493H32.0827C32.4969 16.7493 32.8327 17.0851 32.8327 17.4993V21.8743C32.8327 22.2886 32.4969 22.6243 32.0827 22.6243C31.6685 22.6243 31.3327 22.2886 31.3327 21.8743V18.2493H26.9995V21.8745C26.9995 22.2887 26.6637 22.6245 26.2495 22.6245C25.8353 22.6245 25.4995 22.2887 25.4995 21.8745V18.2493H15.2904C14.9182 21.532 12.1316 24.0827 8.74935 24.0827C5.11347 24.0827 2.16602 21.1352 2.16602 17.4993C2.16602 13.8635 5.11347 10.916 8.74935 10.916Z" fill="url(#paint0_linear_949_19450)"/>
<defs>
<linearGradient id="paint0_linear_949_19450" x1="17.4993" y1="10.916" x2="17.4993" y2="24.0827" gradientUnits="userSpaceOnUse">
<stop stop-color="#000AFF"/>
<stop offset="1" stop-color="#D274FF"/>
</linearGradient>
</defs>
</svg>
