<svg width="20" height="15" viewBox="0 0 20 15" fill="none" xmlns="http://www.w3.org/2000/svg">
<path d="M2.20833 0.718425L2.20879 0.718424L13.6667 0.708008C13.6667 0.708008 13.6668 0.708008 13.6669 0.708008C14.1994 0.708077 14.671 0.971509 14.9626 1.37838C14.9628 1.37866 14.963 1.37894 14.9632 1.37921L19.3037 7.49967L14.9632 13.6201C14.963 13.6204 14.9628 13.6207 14.9626 13.621C14.6711 14.0278 14.1996 14.2912 13.6671 14.2913C13.667 14.2913 13.6668 14.2913 13.6667 14.2913L2.20879 14.2809H2.20833C1.33016 14.2809 0.625 13.5796 0.625 12.708V2.29134C0.625 1.4197 1.33016 0.718425 2.20833 0.718425Z" fill="#F6F7FF" stroke="url(#paint0_linear_259_11829)"/>
<defs>
<linearGradient id="paint0_linear_259_11829" x1="10.0208" y1="0.208008" x2="10.0208" y2="14.7913" gradientUnits="userSpaceOnUse">
<stop stop-color="#0033EA"/>
<stop offset="1" stop-color="#8A0074"/>
</linearGradient>
</defs>
</svg>
