<svg width="41" height="41" viewBox="0 0 41 41" fill="none" xmlns="http://www.w3.org/2000/svg">
<circle cx="27.0232" cy="13.9773" r="13.9773" fill="#F7DDEF"/>
<g clip-path="url(#clip0_1_128741)">
<path d="M22.1601 8.01608C22.056 7.9117 21.9324 7.82888 21.7962 7.77237C21.6601 7.71586 21.5141 7.68677 21.3667 7.68677C21.2193 7.68677 21.0733 7.71586 20.9372 7.77237C20.801 7.82888 20.6773 7.9117 20.5732 8.01608L4.87094 23.7184C4.76669 23.8225 4.684 23.9462 4.62762 24.0824C4.57124 24.2185 4.54226 24.3645 4.54236 24.5118V32.363C4.54235 32.5103 4.57136 32.6562 4.62774 32.7924C4.68411 32.9285 4.76676 33.0522 4.87094 33.1564L8.33241 36.6179C7.95841 37.5264 7.55563 37.9519 7.23916 37.9519C6.58956 37.9519 5.95814 37.0737 5.75221 36.6497L5.62199 36.3771L4.05176 37.1236L4.18046 37.3962C4.22438 37.4916 5.28281 39.6948 7.23916 39.6948C7.77926 39.6558 8.29653 39.4613 8.72857 39.1348C9.16061 38.8084 9.48896 38.3639 9.674 37.855C9.82227 37.929 9.98526 37.9689 10.151 37.9716H18.0021C18.1495 37.9716 18.2954 37.9426 18.4315 37.8862C18.5677 37.8298 18.6914 37.7472 18.7956 37.643L34.4979 21.9407C34.6023 21.8366 34.6851 21.713 34.7416 21.5768C34.7981 21.4406 34.8272 21.2947 34.8272 21.1473C34.8272 20.9998 34.7981 20.8539 34.7416 20.7177C34.6851 20.5816 34.6023 20.4579 34.4979 20.3538L22.1601 8.01608ZM17.8401 36.4574H10.3115L10.2464 36.3923C10.4026 35.8921 10.533 35.3841 10.637 34.8705C11.5585 35.0584 12.517 34.9013 13.3302 34.4288C14.1433 33.9564 14.7546 33.2017 15.0478 32.3081C15.341 31.4145 15.2957 30.4444 14.9204 29.582C14.5452 28.7196 13.8662 28.0252 13.0125 27.6307C12.1588 27.2362 11.1898 27.1691 10.2899 27.4421C9.38994 27.7152 8.62168 28.3094 8.13113 29.1118C7.64058 29.9141 7.46192 30.8688 7.62912 31.7943C7.79633 32.7198 8.29773 33.5516 9.03803 34.1316C9.00472 34.2512 8.96232 34.3617 8.9381 34.4874C8.90327 34.6615 8.86541 34.8145 8.82907 34.975L6.05656 32.201V24.6754L21.3652 9.36221L33.1502 21.1457L17.8401 36.4574ZM9.08497 31.1577C9.08497 30.7084 9.21818 30.2693 9.46776 29.8958C9.71733 29.5223 10.0721 29.2312 10.4871 29.0593C10.9021 28.8873 11.3588 28.8424 11.7994 28.93C12.24 29.0176 12.6447 29.234 12.9623 29.5516C13.28 29.8693 13.4963 30.274 13.5839 30.7146C13.6716 31.1551 13.6266 31.6118 13.4547 32.0269C13.2828 32.4419 12.9917 32.7966 12.6182 33.0462C12.2446 33.2958 11.8055 33.429 11.3563 33.429C11.3245 33.429 11.2957 33.4214 11.2624 33.4199C11.5176 33.0474 11.8292 32.7169 12.1861 32.4402L12.4283 32.2676L11.4456 30.8351L11.1958 31.0093C10.5899 31.464 10.0743 32.0279 9.67551 32.6719C9.29726 32.2581 9.08673 31.7183 9.08497 31.1577Z" fill="url(#paint0_linear_1_128741)"/>
</g>
<defs>
<linearGradient id="paint0_linear_1_128741" x1="19.4395" y1="7.68677" x2="19.4395" y2="39.6948" gradientUnits="userSpaceOnUse">
<stop stop-color="#000AFF"/>
<stop offset="1" stop-color="#D274FF"/>
</linearGradient>
<clipPath id="clip0_1_128741">
<rect width="36.3409" height="36.3409" fill="white" transform="translate(0 4.65906)"/>
</clipPath>
</defs>
</svg>
