<svg width="39" height="39" viewBox="0 0 39 39" fill="none" xmlns="http://www.w3.org/2000/svg">
<g clip-path="url(#clip0_921_25810)">
<path d="M17.0625 29.25H9.75V31.6875H17.0625V29.25Z" fill="url(#paint0_linear_921_25810)"/>
<path fill-rule="evenodd" clip-rule="evenodd" d="M7.3125 36.5625H17.0625V34.125H7.3125V4.875H26.8125V17.0625H29.25V4.875C29.2493 4.22874 28.9923 3.60915 28.5353 3.15218C28.0784 2.6952 27.4588 2.43818 26.8125 2.4375H7.3125C6.66624 2.43818 6.04665 2.6952 5.58968 3.15218C5.1327 3.60915 4.87568 4.22874 4.875 4.875V34.125C4.87568 34.7713 5.1327 35.3909 5.58968 35.8478C6.04665 36.3048 6.66624 36.5618 7.3125 36.5625ZM9.75 7.3125H24.375V9.75H9.75V7.3125ZM9.75 17.0625H17.0625V19.5H9.75V17.0625ZM24.375 12.1875H9.75V14.625H24.375V12.1875ZM32.9062 30.4688C33.8759 30.4688 34.8059 30.854 35.4916 31.5396C36.1773 32.2253 36.5625 33.1553 36.5625 34.125V36.5625H34.125V34.125C34.125 33.8018 33.9966 33.4918 33.768 33.2632C33.5395 33.0347 33.2295 32.9062 32.9062 32.9062H25.5938C25.2705 32.9062 24.9605 33.0347 24.732 33.2632C24.5034 33.4918 24.375 33.8018 24.375 34.125V36.5625H21.9375V34.125C21.9375 33.1553 22.3227 32.2253 23.0084 31.5396C23.6941 30.854 24.6241 30.4688 25.5938 30.4688H32.9062ZM29.25 29.25C30.2142 29.25 31.1567 28.9641 31.9584 28.4284C32.7601 27.8927 33.3849 27.1314 33.7539 26.2406C34.1229 25.3498 34.2194 24.3696 34.0313 23.4239C33.8432 22.4783 33.3789 21.6096 32.6971 20.9279C32.0154 20.2461 31.1467 19.7818 30.2011 19.5937C29.2554 19.4056 28.2752 19.5021 27.3844 19.8711C26.4936 20.2401 25.7323 20.8649 25.1966 21.6666C24.6609 22.4683 24.375 23.4108 24.375 24.375C24.375 25.6679 24.8886 26.9079 25.8029 27.8221C26.7171 28.7364 27.9571 29.25 29.25 29.25ZM29.25 21.9375C29.7321 21.9375 30.2034 22.0805 30.6042 22.3483C31.005 22.6161 31.3175 22.9968 31.502 23.4422C31.6864 23.8876 31.7347 24.3777 31.6407 24.8505C31.5466 25.3234 31.3145 25.7577 30.9736 26.0986C30.6327 26.4395 30.1984 26.6716 29.7255 26.7657C29.2527 26.8597 28.7626 26.8114 28.3172 26.627C27.8718 26.4425 27.4911 26.1301 27.2233 25.7292C26.9555 25.3284 26.8125 24.8571 26.8125 24.375C26.8125 23.7285 27.0693 23.1086 27.5264 22.6514C27.9835 22.1943 28.6035 21.9375 29.25 21.9375Z" fill="url(#paint1_linear_921_25810)"/>
</g>
<defs>
<linearGradient id="paint0_linear_921_25810" x1="13.4062" y1="29.25" x2="13.4062" y2="31.6875" gradientUnits="userSpaceOnUse">
<stop stop-color="#000AFF"/>
<stop offset="1" stop-color="#D274FF"/>
</linearGradient>
<linearGradient id="paint1_linear_921_25810" x1="20.7188" y1="2.4375" x2="20.7188" y2="36.5625" gradientUnits="userSpaceOnUse">
<stop stop-color="#000AFF"/>
<stop offset="1" stop-color="#D274FF"/>
</linearGradient>
<clipPath id="clip0_921_25810">
<rect width="39" height="39" fill="white"/>
</clipPath>
</defs>
</svg>
