<svg width="16" height="16" viewBox="0 0 16 16" fill="none" xmlns="http://www.w3.org/2000/svg">
<path d="M15 0H1C0.734783 0 0.48043 0.119511 0.292893 0.332241C0.105357 0.544972 0 0.833496 0 1.13434V12.4778C0 12.7786 0.105357 13.0671 0.292893 13.2799C0.48043 13.4926 0.734783 13.6121 1 13.6121H8.5L8.785 13.2151L9.25 12.5685L9.205 12.4778H1V1.13434H15V5.98933C15.3799 6.26826 15.7175 6.61491 16 7.01591V1.13434C16 0.833496 15.8946 0.544972 15.7071 0.332241C15.5196 0.119511 15.2652 0 15 0Z" fill="#645DF6"/>
<mask id="path-2-inside-1_921_25177" fill="white">
<path d="M11 3.40332H2.5V4.31079H11V3.40332Z"/>
</mask>
<path d="M11 3.40332H2.5V4.31079H11V3.40332Z" fill="#645DF6"/>
<path d="M2.5 3.40332V2.40332H1.5V3.40332H2.5ZM11 3.40332H12V2.40332H11V3.40332ZM11 4.31079V5.31079H12V4.31079H11ZM2.5 4.31079H1.5V5.31079H2.5V4.31079ZM2.5 4.40332H11V2.40332H2.5V4.40332ZM10 3.40332V4.31079H12V3.40332H10ZM11 3.31079H2.5V5.31079H11V3.31079ZM3.5 4.31079V3.40332H1.5V4.31079H3.5Z" fill="#2D50C8" mask="url(#path-2-inside-1_921_25177)"/>
<mask id="path-4-inside-2_921_25177" fill="white">
<path d="M8 5.67188H2.5V6.57935H8V5.67188Z"/>
</mask>
<path d="M8 5.67188H2.5V6.57935H8V5.67188Z" fill="#645DF6"/>
<path d="M2.5 5.67188V4.67188H1.5V5.67188H2.5ZM8 5.67188H9V4.67188H8V5.67188ZM8 6.57935V7.57935H9V6.57935H8ZM2.5 6.57935H1.5V7.57935H2.5V6.57935ZM2.5 6.67188H8V4.67188H2.5V6.67188ZM7 5.67188V6.57935H9V5.67188H7ZM8 5.57935H2.5V7.57935H8V5.57935ZM3.5 6.57935V5.67188H1.5V6.57935H3.5Z" fill="#2D50C8" mask="url(#path-4-inside-2_921_25177)"/>
<path d="M7.5 9.6416H2.5V10.5491H7.5V9.6416Z" fill="#645DF6"/>
<path d="M12.7302 6.36925C12.0903 6.36349 11.4638 6.57681 10.9326 6.98133C10.4013 7.38586 9.98998 7.96276 9.75235 8.63667C9.51471 9.31057 9.46182 10.0501 9.60059 10.7587C9.73935 11.4672 10.0633 12.1118 10.5302 12.6081L9.56015 13.9523L10.0102 15.9998L11.8402 13.4702C12.4194 13.6645 13.0359 13.6645 13.6152 13.4702L15.4452 15.9998L15.8952 13.9523L14.9252 12.6081C15.392 12.1118 15.716 11.4672 15.8547 10.7587C15.9935 10.0501 15.9406 9.31057 15.703 8.63667C15.4653 7.96276 15.054 7.38586 14.5227 6.98133C13.9915 6.57681 13.365 6.36349 12.7252 6.36925H12.7302ZM12.7302 12.4266C12.3053 12.4199 11.8916 12.2709 11.5412 11.9982C11.1908 11.7256 10.9192 11.3415 10.7607 10.8943C10.6022 10.447 10.5638 9.95664 10.6503 9.48472C10.7368 9.01279 10.9444 8.58041 11.2469 8.24194C11.5495 7.90346 11.9335 7.674 12.3506 7.58241C12.7678 7.49081 13.1996 7.54116 13.5916 7.72714C13.9836 7.91312 14.3185 8.22642 14.554 8.62764C14.7894 9.02887 14.9151 9.50012 14.9152 9.98214C14.9099 10.6345 14.677 11.2579 14.2675 11.7161C13.8581 12.1742 13.3053 12.4297 12.7302 12.4266Z" fill="#645DF6"/>
</svg>
