<svg width="27" height="26" viewBox="0 0 27 26" fill="none" xmlns="http://www.w3.org/2000/svg">
<g clip-path="url(#clip0_921_40756)">
<rect x="8.08887" width="16.1778" height="16.1778" rx="8.08889" fill="#F6DDEF"/>
<path fill-rule="evenodd" clip-rule="evenodd" d="M12.7832 12.35H14.2999C14.7021 12.35 15.0879 12.5098 15.3723 12.7942C15.6568 13.0787 15.8166 13.4644 15.8166 13.8667V22.9667C15.8166 23.3689 15.6568 23.7547 15.3723 24.0391C15.0879 24.3235 14.7021 24.4833 14.2999 24.4833H2.16657C1.76432 24.4833 1.37855 24.3235 1.09412 24.0391C0.809694 23.7547 0.649902 23.3689 0.649902 22.9667V13.8667C0.649902 13.4644 0.809694 13.0787 1.09412 12.7942C1.37855 12.5098 1.76432 12.35 2.16657 12.35H3.68324V7.8C3.68324 6.59326 4.16261 5.43595 5.0159 4.58266C5.86919 3.72937 7.0265 3.25 8.23324 3.25C9.43997 3.25 10.5973 3.72937 11.4506 4.58266C12.3039 5.43595 12.7832 6.59326 12.7832 7.8V12.35ZM6.08835 5.65511C5.51948 6.22397 5.1999 6.99551 5.1999 7.8V12.35H11.2666V7.8C11.2666 6.99551 10.947 6.22397 10.3781 5.65511C9.80927 5.08625 9.03773 4.76667 8.23324 4.76667C7.42875 4.76667 6.65721 5.08625 6.08835 5.65511ZM2.16657 22.9667H14.2999V13.8667H2.16657V22.9667ZM17.3332 24.4833V22.9667H20.3666V13.8667H17.3332V7.8C17.3323 6.99579 17.0125 6.22477 16.4438 5.65611C15.8751 5.08744 15.1041 4.76757 14.2999 4.76667V3.25C15.5062 3.25134 16.6628 3.73115 17.5158 4.58415C18.3688 5.43715 18.8486 6.59368 18.8499 7.8V12.35H20.3666C20.7687 12.3504 21.1542 12.5103 21.4385 12.7947C21.7229 13.079 21.8828 13.4646 21.8832 13.8667V22.9667C21.8828 23.3688 21.7229 23.7543 21.4385 24.0386C21.1542 24.323 20.7687 24.4829 20.3666 24.4833H17.3332ZM7.47505 19.3114L5.95838 17.794L4.88837 18.8632L7.47505 21.4499L12.0251 16.8999L10.9558 15.8306L7.47505 19.3114Z" fill="url(#paint0_linear_921_40756)"/>
</g>
<defs>
<linearGradient id="paint0_linear_921_40756" x1="11.2666" y1="3.25" x2="11.2666" y2="24.4833" gradientUnits="userSpaceOnUse">
<stop stop-color="#000AFF"/>
<stop offset="1" stop-color="#D274FF"/>
</linearGradient>
<clipPath id="clip0_921_40756">
<rect width="26.8667" height="26" fill="white"/>
</clipPath>
</defs>
</svg>
