<svg width="26" height="26" viewBox="0 0 26 26" fill="none" xmlns="http://www.w3.org/2000/svg">
<path d="M21.125 8.9375H4.875C4.42627 8.9375 4.0625 9.30127 4.0625 9.75V21.125C4.0625 21.5737 4.42627 21.9375 4.875 21.9375H21.125C21.5737 21.9375 21.9375 21.5737 21.9375 21.125V9.75C21.9375 9.30127 21.5737 8.9375 21.125 8.9375Z" stroke="url(#paint0_linear_949_21375)" stroke-width="1.5" stroke-linecap="round" stroke-linejoin="round"/>
<path d="M9.34375 8.9375V5.28125C9.34375 4.31155 9.72896 3.38157 10.4146 2.69589C11.1003 2.01021 12.0303 1.625 13 1.625C13.9697 1.625 14.8997 2.01021 15.5854 2.69589C16.271 3.38157 16.6562 4.31155 16.6562 5.28125" stroke="url(#paint1_linear_949_21375)" stroke-width="1.5" stroke-linecap="round" stroke-linejoin="round"/>
<path d="M13 16.4531C13.5609 16.4531 14.0156 15.9984 14.0156 15.4375C14.0156 14.8766 13.5609 14.4219 13 14.4219C12.4391 14.4219 11.9844 14.8766 11.9844 15.4375C11.9844 15.9984 12.4391 16.4531 13 16.4531Z" fill="url(#paint2_linear_949_21375)"/>
<defs>
<linearGradient id="paint0_linear_949_21375" x1="13" y1="8.9375" x2="13" y2="21.9375" gradientUnits="userSpaceOnUse">
<stop stop-color="#000AFF"/>
<stop offset="1" stop-color="#D274FF"/>
</linearGradient>
<linearGradient id="paint1_linear_949_21375" x1="13" y1="1.625" x2="13" y2="8.9375" gradientUnits="userSpaceOnUse">
<stop stop-color="#000AFF"/>
<stop offset="1" stop-color="#D274FF"/>
</linearGradient>
<linearGradient id="paint2_linear_949_21375" x1="13" y1="14.4219" x2="13" y2="16.4531" gradientUnits="userSpaceOnUse">
<stop stop-color="#000AFF"/>
<stop offset="1" stop-color="#D274FF"/>
</linearGradient>
</defs>
</svg>
