<svg width="29" height="29" viewBox="0 0 29 29" fill="none" xmlns="http://www.w3.org/2000/svg">
<path d="M0 9C0 4.02944 4.02944 0 9 0H20C24.9706 0 29 4.02944 29 9V29H9C4.02944 29 0 24.9706 0 20V9Z" fill="url(#paint0_linear_949_37957)"/>
<path d="M14.5832 20.1719C13.2941 20.1719 12.0578 19.6478 11.1463 18.7147C10.2347 17.7817 9.72266 16.5162 9.72266 15.1967C9.72266 15.0648 9.77387 14.9382 9.86502 14.8449C9.95617 14.7516 10.0798 14.6992 10.2087 14.6992C10.3376 14.6992 10.4612 14.7516 10.5524 14.8449C10.6435 14.9382 10.6948 15.0648 10.6948 15.1967C10.6948 16.2523 11.1044 17.2647 11.8336 18.0111C12.5629 18.7576 13.5519 19.1769 14.5832 19.1769C15.6144 19.1769 16.6035 18.7576 17.3327 18.0111C18.0619 17.2647 18.4716 16.2523 18.4716 15.1967C18.4716 15.0648 18.5228 14.9382 18.6139 14.8449C18.7051 14.7516 18.8287 14.6992 18.9576 14.6992C19.0865 14.6992 19.2102 14.7516 19.3013 14.8449C19.3925 14.9382 19.4437 15.0648 19.4437 15.1967C19.4437 16.5162 18.9316 17.7817 18.0201 18.7147C17.1085 19.6478 15.8723 20.1719 14.5832 20.1719Z" fill="white"/>
<path d="M14.5837 22.1609C14.4548 22.1609 14.3312 22.1085 14.24 22.0152C14.1489 21.9219 14.0977 21.7953 14.0977 21.6634V19.6733C14.0977 19.5414 14.1489 19.4148 14.24 19.3215C14.3312 19.2282 14.4548 19.1758 14.5837 19.1758C14.7126 19.1758 14.8362 19.2282 14.9274 19.3215C15.0186 19.4148 15.0698 19.5414 15.0698 19.6733V21.6634C15.0698 21.7953 15.0186 21.9219 14.9274 22.0152C14.8362 22.1085 14.7126 22.1609 14.5837 22.1609Z" fill="white"/>
<path d="M14.5843 18.1818C13.8108 18.1818 13.069 17.8673 12.5221 17.3074C11.9752 16.7476 11.668 15.9883 11.668 15.1966V10.2214C11.668 9.42974 11.9752 8.67047 12.5221 8.11065C13.069 7.55083 13.8108 7.23633 14.5843 7.23633C15.3577 7.23633 16.0995 7.55083 16.6464 8.11065C17.1933 8.67047 17.5006 9.42974 17.5006 10.2214V15.1966C17.5006 15.9883 17.1933 16.7476 16.6464 17.3074C16.0995 17.8673 15.3577 18.1818 14.5843 18.1818ZM14.5843 8.23137C14.0686 8.23137 13.5741 8.44104 13.2095 8.81425C12.8449 9.18746 12.6401 9.69365 12.6401 10.2214V15.1966C12.6401 15.7244 12.8449 16.2306 13.2095 16.6038C13.5741 16.9771 14.0686 17.1867 14.5843 17.1867C15.0999 17.1867 15.5944 16.9771 15.959 16.6038C16.3236 16.2306 16.5285 15.7244 16.5285 15.1966V10.2214C16.5285 9.69365 16.3236 9.18746 15.959 8.81425C15.5944 8.44104 15.0999 8.23137 14.5843 8.23137Z" fill="white"/>
<defs>
<linearGradient id="paint0_linear_949_37957" x1="29.342" y1="32.254" x2="2.64335" y2="5.2866" gradientUnits="userSpaceOnUse">
<stop stop-color="#63C7FF"/>
<stop offset="1" stop-color="#0094FF"/>
</linearGradient>
</defs>
</svg>
