<svg width="38" height="38" viewBox="0 0 38 38" fill="none" xmlns="http://www.w3.org/2000/svg">
<path d="M0 9C0 4.02944 4.02944 0 9 0H29C33.9706 0 38 4.02944 38 9V38H9C4.02944 38 0 33.9706 0 29V9Z" fill="url(#paint0_linear_698_33297)"/>
<path d="M19.1069 26.4329C17.4177 26.4329 15.7977 25.746 14.6033 24.5234C13.4089 23.3008 12.7379 21.6426 12.7379 19.9136C12.7379 19.7407 12.805 19.5749 12.9245 19.4527C13.0439 19.3304 13.2059 19.2617 13.3748 19.2617C13.5437 19.2617 13.7057 19.3304 13.8252 19.4527C13.9446 19.5749 14.0117 19.7407 14.0117 19.9136C14.0117 21.2968 14.5485 22.6234 15.504 23.6015C16.4596 24.5795 17.7555 25.129 19.1069 25.129C20.4582 25.129 21.7542 24.5795 22.7097 23.6015C23.6652 22.6234 24.202 21.2968 24.202 19.9136C24.202 19.7407 24.2691 19.5749 24.3886 19.4527C24.508 19.3304 24.67 19.2617 24.8389 19.2617C25.0078 19.2617 25.1698 19.3304 25.2893 19.4527C25.4087 19.5749 25.4758 19.7407 25.4758 19.9136C25.4758 21.6426 24.8048 23.3008 23.6104 24.5234C22.416 25.746 20.796 26.4329 19.1069 26.4329Z" fill="white"/>
<path d="M19.1069 29.0385C18.938 29.0385 18.776 28.9698 18.6565 28.8475C18.5371 28.7253 18.47 28.5595 18.47 28.3866V25.7789C18.47 25.606 18.5371 25.4402 18.6565 25.3179C18.776 25.1956 18.938 25.127 19.1069 25.127C19.2758 25.127 19.4378 25.1956 19.5572 25.3179C19.6767 25.4402 19.7438 25.606 19.7438 25.7789V28.3866C19.7438 28.5595 19.6767 28.7253 19.5572 28.8475C19.4378 28.9698 19.2758 29.0385 19.1069 29.0385Z" fill="white"/>
<path d="M19.1068 23.8247C18.0933 23.8247 17.1213 23.4126 16.4047 22.6791C15.688 21.9455 15.2854 20.9506 15.2854 19.9132V13.394C15.2854 12.3566 15.688 11.3616 16.4047 10.6281C17.1213 9.89453 18.0933 9.48242 19.1068 9.48242C20.1203 9.48242 21.0922 9.89453 21.8089 10.6281C22.5255 11.3616 22.9281 12.3566 22.9281 13.394V19.9132C22.9281 20.9506 22.5255 21.9455 21.8089 22.6791C21.0922 23.4126 20.1203 23.8247 19.1068 23.8247ZM19.1068 10.7863C18.4311 10.7863 17.7831 11.061 17.3054 11.55C16.8276 12.0391 16.5592 12.7024 16.5592 13.394V19.9132C16.5592 20.6048 16.8276 21.2681 17.3054 21.7571C17.7831 22.2461 18.4311 22.5209 19.1068 22.5209C19.7824 22.5209 20.4304 22.2461 20.9082 21.7571C21.3859 21.2681 21.6543 20.6048 21.6543 19.9132V13.394C21.6543 12.7024 21.3859 12.0391 20.9082 11.55C20.4304 11.061 19.7824 10.7863 19.1068 10.7863Z" fill="white"/>
<defs>
<linearGradient id="paint0_linear_698_33297" x1="38.4481" y1="42.2638" x2="3.4637" y2="6.92727" gradientUnits="userSpaceOnUse">
<stop stop-color="#63C7FF"/>
<stop offset="1" stop-color="#0094FF"/>
</linearGradient>
</defs>
</svg>
