<svg width="45" height="63" viewBox="0 0 45 63" fill="none" xmlns="http://www.w3.org/2000/svg">
<path fill-rule="evenodd" clip-rule="evenodd" d="M36.1875 28.5625C36.1875 28.2518 35.9357 28 35.625 28L31.6875 28L27.75 28C27.4393 28 27.1875 28.2518 27.1875 28.5625L27.1875 36.4375C27.1875 36.7482 27.4393 37 27.75 37L35.625 37C35.9357 37 36.1875 36.7482 36.1875 36.4375L36.1875 28.5625ZM30.9375 26.5L27.75 26.5C26.6109 26.5 25.6875 27.4234 25.6875 28.5625L25.6875 36.4375C25.6875 37.5766 26.6109 38.5 27.75 38.5L35.625 38.5C36.7641 38.5 37.6875 37.5766 37.6875 36.4375L37.6875 28.5625C37.6875 27.4234 36.7641 26.5 35.625 26.5L32.4375 26.5L32.4375 24.6265C32.4398 24.0103 32.3203 23.3998 32.0857 22.8301C31.8509 22.2598 31.5054 21.7417 31.0694 21.3056C30.6333 20.8695 30.1152 20.5241 29.5449 20.2893C28.9752 20.0547 28.3646 19.9351 27.7485 19.9375L23.25 19.9375L23.25 14.875L25.7812 14.875C26.9203 14.875 27.8437 13.9516 27.8437 12.8125L27.8437 6.25C27.8437 5.11091 26.9203 4.1875 25.7812 4.1875L19.2188 4.1875C18.0797 4.1875 17.1562 5.11091 17.1562 6.25L17.1562 12.8125C17.1562 13.9516 18.0797 14.875 19.2187 14.875L21.75 14.875L21.75 19.9375L17.2515 19.9375C16.6353 19.9351 16.0248 20.0547 15.455 20.2893C14.8848 20.5241 14.3666 20.8695 13.9306 21.3056C13.4945 21.7417 13.1491 22.2598 12.9143 22.8301C12.6796 23.3999 12.5601 24.0105 12.5625 24.6267L12.5625 26.5L9.375 26.5C8.23591 26.5 7.3125 27.4234 7.3125 28.5625L7.3125 36.4375C7.3125 37.5766 8.23591 38.5 9.375 38.5L17.25 38.5C18.3891 38.5 19.3125 37.5766 19.3125 36.4375L19.3125 28.5625C19.3125 27.4234 18.3891 26.5 17.25 26.5L14.0625 26.5L14.0625 24.625L14.0625 24.6219C14.0607 24.2032 14.1419 23.7883 14.3013 23.4012C14.4607 23.014 14.6952 22.6623 14.9912 22.3663C15.2873 22.0702 15.639 21.8357 16.0261 21.6763C16.4133 21.5169 16.8282 21.4357 17.2468 21.4375L17.25 21.4375L22.5 21.4375L27.75 21.4375L27.7531 21.4375C28.1718 21.4357 28.5866 21.5169 28.9738 21.6763C29.3609 21.8357 29.7127 22.0702 30.0087 22.3663C30.3048 22.6623 30.5392 23.014 30.6987 23.4012M13.3125 28L9.375 28C9.06434 28 8.8125 28.2518 8.8125 28.5625L8.8125 36.4375C8.8125 36.7482 9.06434 37 9.375 37L17.25 37C17.5607 37 17.8125 36.7482 17.8125 36.4375L17.8125 28.5625C17.8125 28.2518 17.5607 28 17.25 28L13.3125 28ZM30.9375 26.5L30.9375 24.625L30.9375 26.5ZM26.3437 6.25C26.3437 5.93934 26.0919 5.6875 25.7812 5.6875L19.2187 5.6875C18.9081 5.6875 18.6562 5.93934 18.6562 6.25L18.6562 12.8125C18.6562 13.1232 18.9081 13.375 19.2187 13.375L22.5 13.375L25.7812 13.375C26.0919 13.375 26.3437 13.1232 26.3437 12.8125L26.3437 6.25Z" fill="#6174A4"/>
<line x1="2.5" y1="42.1716" x2="42.6716" y2="2" stroke="white" stroke-width="4" stroke-linecap="round"/>
<line x1="1.5" y1="43.5945" x2="43.4393" y2="1.65515" stroke="#6174A4" stroke-width="1.5" stroke-linecap="round"/>
</svg>
