<svg width="18" height="18" viewBox="0 0 18 18" fill="none" xmlns="http://www.w3.org/2000/svg">
<path d="M6.75 15.1879H3.375C3.22582 15.1879 3.08275 15.1287 2.97726 15.0232C2.87177 14.9177 2.8125 14.7746 2.8125 14.6254V11.4825C2.81225 11.4094 2.8264 11.337 2.85415 11.2695C2.8819 11.2019 2.9227 11.1405 2.97422 11.0887L11.4117 2.65121C11.4641 2.59806 11.5265 2.55585 11.5953 2.52704C11.6641 2.49823 11.7379 2.4834 11.8125 2.4834C11.8871 2.4834 11.9609 2.49823 12.0298 2.52704C12.0986 2.55585 12.1609 2.59806 12.2133 2.65121L15.3492 5.78715C15.4024 5.83949 15.4446 5.90187 15.4734 5.97068C15.5022 6.03948 15.517 6.11333 15.517 6.18793C15.517 6.26252 15.5022 6.33637 15.4734 6.40517C15.4446 6.47398 15.4024 6.53637 15.3492 6.58871L6.75 15.1879Z" stroke="#645DF6" stroke-width="1.5" stroke-linecap="round" stroke-linejoin="round"/>
<path d="M9.5625 4.5L13.5 8.4375" stroke="#645DF6" stroke-width="1.5" stroke-linecap="round" stroke-linejoin="round"/>
<path d="M15.1875 15.1875H6.75L2.84766 11.2852" stroke="#645DF6" stroke-width="1.5" stroke-linecap="round" stroke-linejoin="round"/>
<path d="M11.5312 6.46875L4.78125 13.2188" stroke="#645DF6" stroke-width="1.5" stroke-linecap="round" stroke-linejoin="round"/>
</svg>
