<svg width="116" height="116" viewBox="0 0 116 116" fill="none" xmlns="http://www.w3.org/2000/svg">
<g clip-path="url(#clip0_921_40887)">
<path d="M0.282927 0H0V0.282927H0.282927V0Z" fill="white"/>
<path d="M2.82927 113.171H0V116H2.82927V113.171Z" fill="black"/>
<path d="M2.82927 110.342H0V113.171H2.82927V110.342Z" fill="black"/>
<path d="M2.82927 107.512H0V110.341H2.82927V107.512Z" fill="black"/>
<path d="M2.82927 104.683H0V107.512H2.82927V104.683Z" fill="black"/>
<path d="M2.82927 101.854H0V104.683H2.82927V101.854Z" fill="black"/>
<path d="M2.82927 99.0244H0V101.854H2.82927V99.0244Z" fill="black"/>
<path d="M2.82927 96.1953H0V99.0246H2.82927V96.1953Z" fill="black"/>
<path d="M2.82927 87.707H0V90.5363H2.82927V87.707Z" fill="black"/>
<path d="M2.82927 84.8779H0V87.7072H2.82927V84.8779Z" fill="black"/>
<path d="M2.82927 82.0488H0V84.8781H2.82927V82.0488Z" fill="black"/>
<path d="M2.82927 76.3906H0V79.2199H2.82927V76.3906Z" fill="black"/>
<path d="M2.82927 67.9023H0V70.7316H2.82927V67.9023Z" fill="black"/>
<path d="M2.82927 65.0732H0V67.9025H2.82927V65.0732Z" fill="black"/>
<path d="M2.82927 62.2441H0V65.0734H2.82927V62.2441Z" fill="black"/>
<path d="M2.82927 59.415H0V62.2443H2.82927V59.415Z" fill="black"/>
<path d="M2.82927 53.7559H0V56.5851H2.82927V53.7559Z" fill="black"/>
<path d="M2.82927 50.9268H0V53.756H2.82927V50.9268Z" fill="black"/>
<path d="M2.82927 48.0977H0V50.9269H2.82927V48.0977Z" fill="black"/>
<path d="M2.82927 45.2686H0V48.0978H2.82927V45.2686Z" fill="black"/>
<path d="M2.82927 42.4395H0V45.2687H2.82927V42.4395Z" fill="black"/>
<path d="M2.82927 39.6094H0V42.4386H2.82927V39.6094Z" fill="black"/>
<path d="M2.82927 36.7803H0V39.6095H2.82927V36.7803Z" fill="black"/>
<path d="M2.82927 33.9512H0V36.7804H2.82927V33.9512Z" fill="black"/>
<path d="M2.82927 28.293H0V31.1222H2.82927V28.293Z" fill="black"/>
<path d="M2.82927 25.4639H0V28.2931H2.82927V25.4639Z" fill="black"/>
<path d="M2.82927 16.9756H0V19.8049H2.82927V16.9756Z" fill="black"/>
<path d="M2.82927 14.1465H0V16.9758H2.82927V14.1465Z" fill="black"/>
<path d="M2.82927 11.3174H0V14.1467H2.82927V11.3174Z" fill="black"/>
<path d="M2.82927 8.48828H0V11.3175H2.82927V8.48828Z" fill="black"/>
<path d="M2.82927 5.6582H0V8.48747H2.82927V5.6582Z" fill="black"/>
<path d="M2.82927 2.8291H0V5.65837H2.82927V2.8291Z" fill="black"/>
<path d="M2.82927 0H0V2.82927H2.82927V0Z" fill="black"/>
<path d="M5.65837 113.171H2.8291V116H5.65837V113.171Z" fill="black"/>
<path d="M5.65837 96.1953H2.8291V99.0246H5.65837V96.1953Z" fill="black"/>
<path d="M5.65837 84.8779H2.8291V87.7072H5.65837V84.8779Z" fill="black"/>
<path d="M5.65837 79.2197H2.8291V82.049H5.65837V79.2197Z" fill="black"/>
<path d="M5.65837 76.3906H2.8291V79.2199H5.65837V76.3906Z" fill="black"/>
<path d="M5.65837 65.0732H2.8291V67.9025H5.65837V65.0732Z" fill="black"/>
<path d="M5.65837 50.9268H2.8291V53.756H5.65837V50.9268Z" fill="black"/>
<path d="M5.65837 45.2686H2.8291V48.0978H5.65837V45.2686Z" fill="black"/>
<path d="M5.65837 42.4395H2.8291V45.2687H5.65837V42.4395Z" fill="black"/>
<path d="M5.65837 39.6094H2.8291V42.4386H5.65837V39.6094Z" fill="black"/>
<path d="M5.65837 36.7803H2.8291V39.6095H5.65837V36.7803Z" fill="black"/>
<path d="M5.65837 33.9512H2.8291V36.7804H5.65837V33.9512Z" fill="black"/>
<path d="M5.65837 31.1221H2.8291V33.9513H5.65837V31.1221Z" fill="black"/>
<path d="M5.65837 22.6338H2.8291V25.4631H5.65837V22.6338Z" fill="black"/>
<path d="M5.65837 16.9756H2.8291V19.8049H5.65837V16.9756Z" fill="black"/>
<path d="M5.65837 0H2.8291V2.82927H5.65837V0Z" fill="black"/>
<path d="M8.48796 113.171H5.65869V116H8.48796V113.171Z" fill="black"/>
<path d="M8.48796 107.512H5.65869V110.341H8.48796V107.512Z" fill="black"/>
<path d="M8.48796 104.683H5.65869V107.512H8.48796V104.683Z" fill="black"/>
<path d="M8.48796 101.854H5.65869V104.683H8.48796V101.854Z" fill="black"/>
<path d="M8.48796 96.1953H5.65869V99.0246H8.48796V96.1953Z" fill="black"/>
<path d="M8.48796 90.5361H5.65869V93.3654H8.48796V90.5361Z" fill="black"/>
<path d="M8.48796 87.707H5.65869V90.5363H8.48796V87.707Z" fill="black"/>
<path d="M8.48796 84.8779H5.65869V87.7072H8.48796V84.8779Z" fill="black"/>
<path d="M8.48796 82.0488H5.65869V84.8781H8.48796V82.0488Z" fill="black"/>
<path d="M8.48796 79.2197H5.65869V82.049H8.48796V79.2197Z" fill="black"/>
<path d="M8.48796 76.3906H5.65869V79.2199H8.48796V76.3906Z" fill="black"/>
<path d="M8.48796 67.9023H5.65869V70.7316H8.48796V67.9023Z" fill="black"/>
<path d="M8.48796 50.9268H5.65869V53.756H8.48796V50.9268Z" fill="black"/>
<path d="M8.48796 36.7803H5.65869V39.6095H8.48796V36.7803Z" fill="black"/>
<path d="M8.48796 31.1221H5.65869V33.9513H8.48796V31.1221Z" fill="black"/>
<path d="M8.48796 22.6338H5.65869V25.4631H8.48796V22.6338Z" fill="black"/>
<path d="M8.48796 16.9756H5.65869V19.8049H8.48796V16.9756Z" fill="black"/>
<path d="M8.48796 11.3174H5.65869V14.1467H8.48796V11.3174Z" fill="black"/>
<path d="M8.48796 8.48828H5.65869V11.3175H8.48796V8.48828Z" fill="black"/>
<path d="M8.48796 5.6582H5.65869V8.48747H8.48796V5.6582Z" fill="black"/>
<path d="M8.48796 0H5.65869V2.82927H8.48796V0Z" fill="black"/>
<path d="M11.3171 113.171H8.48779V116H11.3171V113.171Z" fill="black"/>
<path d="M11.3171 107.512H8.48779V110.341H11.3171V107.512Z" fill="black"/>
<path d="M11.3171 104.683H8.48779V107.512H11.3171V104.683Z" fill="black"/>
<path d="M11.3171 101.854H8.48779V104.683H11.3171V101.854Z" fill="black"/>
<path d="M11.3171 96.1953H8.48779V99.0246H11.3171V96.1953Z" fill="black"/>
<path d="M11.3171 73.5605H8.48779V76.3898H11.3171V73.5605Z" fill="black"/>
<path d="M11.3171 65.0732H8.48779V67.9025H11.3171V65.0732Z" fill="black"/>
<path d="M11.3171 62.2441H8.48779V65.0734H11.3171V62.2441Z" fill="black"/>
<path d="M11.3171 56.585H8.48779V59.4142H11.3171V56.585Z" fill="black"/>
<path d="M11.3171 53.7559H8.48779V56.5851H11.3171V53.7559Z" fill="black"/>
<path d="M11.3171 50.9268H8.48779V53.756H11.3171V50.9268Z" fill="black"/>
<path d="M11.3171 48.0977H8.48779V50.9269H11.3171V48.0977Z" fill="black"/>
<path d="M11.3171 45.2686H8.48779V48.0978H11.3171V45.2686Z" fill="black"/>
<path d="M11.3171 42.4395H8.48779V45.2687H11.3171V42.4395Z" fill="black"/>
<path d="M11.3171 39.6094H8.48779V42.4386H11.3171V39.6094Z" fill="black"/>
<path d="M11.3171 36.7803H8.48779V39.6095H11.3171V36.7803Z" fill="black"/>
<path d="M11.3171 33.9512H8.48779V36.7804H11.3171V33.9512Z" fill="black"/>
<path d="M11.3171 31.1221H8.48779V33.9513H11.3171V31.1221Z" fill="black"/>
<path d="M11.3171 28.293H8.48779V31.1222H11.3171V28.293Z" fill="black"/>
<path d="M11.3171 16.9756H8.48779V19.8049H11.3171V16.9756Z" fill="black"/>
<path d="M11.3171 11.3174H8.48779V14.1467H11.3171V11.3174Z" fill="black"/>
<path d="M11.3171 8.48828H8.48779V11.3175H11.3171V8.48828Z" fill="black"/>
<path d="M11.3171 5.6582H8.48779V8.48747H11.3171V5.6582Z" fill="black"/>
<path d="M11.3171 0H8.48779V2.82927H11.3171V0Z" fill="black"/>
<path d="M14.1462 113.171H11.3169V116H14.1462V113.171Z" fill="black"/>
<path d="M14.1462 107.512H11.3169V110.341H14.1462V107.512Z" fill="black"/>
<path d="M14.1462 104.683H11.3169V107.512H14.1462V104.683Z" fill="black"/>
<path d="M14.1462 101.854H11.3169V104.683H14.1462V101.854Z" fill="black"/>
<path d="M14.1462 96.1953H11.3169V99.0246H14.1462V96.1953Z" fill="black"/>
<path d="M14.1462 84.8779H11.3169V87.7072H14.1462V84.8779Z" fill="black"/>
<path d="M14.1462 76.3906H11.3169V79.2199H14.1462V76.3906Z" fill="black"/>
<path d="M14.1462 73.5605H11.3169V76.3898H14.1462V73.5605Z" fill="black"/>
<path d="M14.1462 70.7314H11.3169V73.5607H14.1462V70.7314Z" fill="black"/>
<path d="M14.1462 65.0732H11.3169V67.9025H14.1462V65.0732Z" fill="black"/>
<path d="M14.1462 56.585H11.3169V59.4142H14.1462V56.585Z" fill="black"/>
<path d="M14.1462 53.7559H11.3169V56.5851H14.1462V53.7559Z" fill="black"/>
<path d="M14.1462 50.9268H11.3169V53.756H14.1462V50.9268Z" fill="black"/>
<path d="M14.1462 48.0977H11.3169V50.9269H14.1462V48.0977Z" fill="black"/>
<path d="M14.1462 39.6094H11.3169V42.4386H14.1462V39.6094Z" fill="black"/>
<path d="M14.1462 36.7803H11.3169V39.6095H14.1462V36.7803Z" fill="black"/>
<path d="M14.1462 33.9512H11.3169V36.7804H14.1462V33.9512Z" fill="black"/>
<path d="M14.1462 28.293H11.3169V31.1222H14.1462V28.293Z" fill="black"/>
<path d="M14.1462 25.4639H11.3169V28.2931H14.1462V25.4639Z" fill="black"/>
<path d="M14.1462 22.6338H11.3169V25.4631H14.1462V22.6338Z" fill="black"/>
<path d="M14.1462 16.9756H11.3169V19.8049H14.1462V16.9756Z" fill="black"/>
<path d="M14.1462 11.3174H11.3169V14.1467H14.1462V11.3174Z" fill="black"/>
<path d="M14.1462 8.48828H11.3169V11.3175H14.1462V8.48828Z" fill="black"/>
<path d="M14.1462 5.6582H11.3169V8.48747H14.1462V5.6582Z" fill="black"/>
<path d="M14.1462 0H11.3169V2.82927H14.1462V0Z" fill="black"/>
<path d="M16.9758 113.171H14.1465V116H16.9758V113.171Z" fill="black"/>
<path d="M16.9758 96.1953H14.1465V99.0246H16.9758V96.1953Z" fill="black"/>
<path d="M16.9758 87.707H14.1465V90.5363H16.9758V87.707Z" fill="black"/>
<path d="M16.9758 84.8779H14.1465V87.7072H16.9758V84.8779Z" fill="black"/>
<path d="M16.9758 79.2197H14.1465V82.049H16.9758V79.2197Z" fill="black"/>
<path d="M16.9758 76.3906H14.1465V79.2199H16.9758V76.3906Z" fill="black"/>
<path d="M16.9758 70.7314H14.1465V73.5607H16.9758V70.7314Z" fill="black"/>
<path d="M16.9758 59.415H14.1465V62.2443H16.9758V59.415Z" fill="black"/>
<path d="M16.9758 53.7559H14.1465V56.5851H16.9758V53.7559Z" fill="black"/>
<path d="M16.9758 50.9268H14.1465V53.756H16.9758V50.9268Z" fill="black"/>
<path d="M16.9758 48.0977H14.1465V50.9269H16.9758V48.0977Z" fill="black"/>
<path d="M16.9758 45.2686H14.1465V48.0978H16.9758V45.2686Z" fill="black"/>
<path d="M16.9758 42.4395H14.1465V45.2687H16.9758V42.4395Z" fill="black"/>
<path d="M16.9758 39.6094H14.1465V42.4386H16.9758V39.6094Z" fill="black"/>
<path d="M16.9758 36.7803H14.1465V39.6095H16.9758V36.7803Z" fill="black"/>
<path d="M16.9758 33.9512H14.1465V36.7804H16.9758V33.9512Z" fill="black"/>
<path d="M16.9758 31.1221H14.1465V33.9513H16.9758V31.1221Z" fill="black"/>
<path d="M16.9758 28.293H14.1465V31.1222H16.9758V28.293Z" fill="black"/>
<path d="M16.9758 22.6338H14.1465V25.4631H16.9758V22.6338Z" fill="black"/>
<path d="M16.9758 16.9756H14.1465V19.8049H16.9758V16.9756Z" fill="black"/>
<path d="M16.9758 0H14.1465V2.82927H16.9758V0Z" fill="black"/>
<path d="M19.8049 113.171H16.9756V116H19.8049V113.171Z" fill="black"/>
<path d="M19.8049 110.342H16.9756V113.171H19.8049V110.342Z" fill="black"/>
<path d="M19.8049 107.512H16.9756V110.341H19.8049V107.512Z" fill="black"/>
<path d="M19.8049 104.683H16.9756V107.512H19.8049V104.683Z" fill="black"/>
<path d="M19.8049 101.854H16.9756V104.683H19.8049V101.854Z" fill="black"/>
<path d="M19.8049 99.0244H16.9756V101.854H19.8049V99.0244Z" fill="black"/>
<path d="M19.8049 96.1953H16.9756V99.0246H19.8049V96.1953Z" fill="black"/>
<path d="M19.8049 90.5361H16.9756V93.3654H19.8049V90.5361Z" fill="black"/>
<path d="M19.8049 84.8779H16.9756V87.7072H19.8049V84.8779Z" fill="black"/>
<path d="M19.8049 79.2197H16.9756V82.049H19.8049V79.2197Z" fill="black"/>
<path d="M19.8049 73.5605H16.9756V76.3898H19.8049V73.5605Z" fill="black"/>
<path d="M19.8049 67.9023H16.9756V70.7316H19.8049V67.9023Z" fill="black"/>
<path d="M19.8049 62.2441H16.9756V65.0734H19.8049V62.2441Z" fill="black"/>
<path d="M19.8049 56.585H16.9756V59.4142H19.8049V56.585Z" fill="black"/>
<path d="M19.8049 50.9268H16.9756V53.756H19.8049V50.9268Z" fill="black"/>
<path d="M19.8049 45.2686H16.9756V48.0978H19.8049V45.2686Z" fill="black"/>
<path d="M19.8049 39.6094H16.9756V42.4386H19.8049V39.6094Z" fill="black"/>
<path d="M19.8049 33.9512H16.9756V36.7804H19.8049V33.9512Z" fill="black"/>
<path d="M19.8049 28.293H16.9756V31.1222H19.8049V28.293Z" fill="black"/>
<path d="M19.8049 16.9756H16.9756V19.8049H19.8049V16.9756Z" fill="black"/>
<path d="M19.8049 14.1465H16.9756V16.9758H19.8049V14.1465Z" fill="black"/>
<path d="M19.8049 11.3174H16.9756V14.1467H19.8049V11.3174Z" fill="black"/>
<path d="M19.8049 8.48828H16.9756V11.3175H19.8049V8.48828Z" fill="black"/>
<path d="M19.8049 5.6582H16.9756V8.48747H19.8049V5.6582Z" fill="black"/>
<path d="M19.8049 2.8291H16.9756V5.65837H19.8049V2.8291Z" fill="black"/>
<path d="M19.8049 0H16.9756V2.82927H19.8049V0Z" fill="black"/>
<path d="M22.634 84.8779H19.8047V87.7072H22.634V84.8779Z" fill="black"/>
<path d="M22.634 82.0488H19.8047V84.8781H22.634V82.0488Z" fill="black"/>
<path d="M22.634 76.3906H19.8047V79.2199H22.634V76.3906Z" fill="black"/>
<path d="M22.634 73.5605H19.8047V76.3898H22.634V73.5605Z" fill="black"/>
<path d="M22.634 65.0732H19.8047V67.9025H22.634V65.0732Z" fill="black"/>
<path d="M22.634 62.2441H19.8047V65.0734H22.634V62.2441Z" fill="black"/>
<path d="M22.634 59.415H19.8047V62.2443H22.634V59.415Z" fill="black"/>
<path d="M22.634 50.9268H19.8047V53.756H22.634V50.9268Z" fill="black"/>
<path d="M22.634 48.0977H19.8047V50.9269H22.634V48.0977Z" fill="black"/>
<path d="M22.634 45.2686H19.8047V48.0978H22.634V45.2686Z" fill="black"/>
<path d="M22.634 42.4395H19.8047V45.2687H22.634V42.4395Z" fill="black"/>
<path d="M22.634 31.1221H19.8047V33.9513H22.634V31.1221Z" fill="black"/>
<path d="M22.634 28.293H19.8047V31.1222H22.634V28.293Z" fill="black"/>
<path d="M22.634 22.6338H19.8047V25.4631H22.634V22.6338Z" fill="black"/>
<path d="M25.4635 110.342H22.6343V113.171H25.4635V110.342Z" fill="black"/>
<path d="M25.4635 107.512H22.6343V110.341H25.4635V107.512Z" fill="black"/>
<path d="M25.4635 101.854H22.6343V104.683H25.4635V101.854Z" fill="black"/>
<path d="M25.4635 99.0244H22.6343V101.854H25.4635V99.0244Z" fill="black"/>
<path d="M25.4635 96.1953H22.6343V99.0246H25.4635V96.1953Z" fill="black"/>
<path d="M25.4635 87.707H22.6343V90.5363H25.4635V87.707Z" fill="black"/>
<path d="M25.4635 84.8779H22.6343V87.7072H25.4635V84.8779Z" fill="black"/>
<path d="M25.4635 79.2197H22.6343V82.049H25.4635V79.2197Z" fill="black"/>
<path d="M25.4635 73.5605H22.6343V76.3898H25.4635V73.5605Z" fill="black"/>
<path d="M25.4635 70.7314H22.6343V73.5607H25.4635V70.7314Z" fill="black"/>
<path d="M25.4635 67.9023H22.6343V70.7316H25.4635V67.9023Z" fill="black"/>
<path d="M25.4635 59.415H22.6343V62.2443H25.4635V59.415Z" fill="black"/>
<path d="M25.4635 39.6094H22.6343V42.4386H25.4635V39.6094Z" fill="black"/>
<path d="M25.4635 36.7803H22.6343V39.6095H25.4635V36.7803Z" fill="black"/>
<path d="M25.4635 33.9512H22.6343V36.7804H25.4635V33.9512Z" fill="black"/>
<path d="M25.4635 28.293H22.6343V31.1222H25.4635V28.293Z" fill="black"/>
<path d="M25.4635 25.4639H22.6343V28.2931H25.4635V25.4639Z" fill="black"/>
<path d="M25.4635 19.8047H22.6343V22.634H25.4635V19.8047Z" fill="black"/>
<path d="M25.4635 8.48828H22.6343V11.3175H25.4635V8.48828Z" fill="black"/>
<path d="M25.4635 2.8291H22.6343V5.65837H25.4635V2.8291Z" fill="black"/>
<path d="M25.4635 0H22.6343V2.82927H25.4635V0Z" fill="black"/>
<path d="M28.2926 113.171H25.4634V116H28.2926V113.171Z" fill="black"/>
<path d="M28.2926 110.342H25.4634V113.171H28.2926V110.342Z" fill="black"/>
<path d="M28.2926 104.683H25.4634V107.512H28.2926V104.683Z" fill="black"/>
<path d="M28.2926 96.1953H25.4634V99.0246H28.2926V96.1953Z" fill="black"/>
<path d="M28.2926 93.3662H25.4634V96.1955H28.2926V93.3662Z" fill="black"/>
<path d="M28.2926 90.5361H25.4634V93.3654H28.2926V90.5361Z" fill="black"/>
<path d="M28.2926 82.0488H25.4634V84.8781H28.2926V82.0488Z" fill="black"/>
<path d="M28.2926 79.2197H25.4634V82.049H28.2926V79.2197Z" fill="black"/>
<path d="M28.2926 76.3906H25.4634V79.2199H28.2926V76.3906Z" fill="black"/>
<path d="M28.2926 73.5605H25.4634V76.3898H28.2926V73.5605Z" fill="black"/>
<path d="M28.2926 67.9023H25.4634V70.7316H28.2926V67.9023Z" fill="black"/>
<path d="M28.2926 48.0977H25.4634V50.9269H28.2926V48.0977Z" fill="black"/>
<path d="M28.2926 45.2686H25.4634V48.0978H28.2926V45.2686Z" fill="black"/>
<path d="M28.2926 36.7803H25.4634V39.6095H28.2926V36.7803Z" fill="black"/>
<path d="M28.2926 22.6338H25.4634V25.4631H28.2926V22.6338Z" fill="black"/>
<path d="M28.2926 19.8047H25.4634V22.634H28.2926V19.8047Z" fill="black"/>
<path d="M28.2926 8.48828H25.4634V11.3175H28.2926V8.48828Z" fill="black"/>
<path d="M31.1217 110.342H28.2925V113.171H31.1217V110.342Z" fill="black"/>
<path d="M31.1217 107.512H28.2925V110.341H31.1217V107.512Z" fill="black"/>
<path d="M31.1217 99.0244H28.2925V101.854H31.1217V99.0244Z" fill="black"/>
<path d="M31.1217 87.707H28.2925V90.5363H31.1217V87.707Z" fill="black"/>
<path d="M31.1217 82.0488H28.2925V84.8781H31.1217V82.0488Z" fill="black"/>
<path d="M31.1217 73.5605H28.2925V76.3898H31.1217V73.5605Z" fill="black"/>
<path d="M31.1217 70.7314H28.2925V73.5607H31.1217V70.7314Z" fill="black"/>
<path d="M31.1217 62.2441H28.2925V65.0734H31.1217V62.2441Z" fill="black"/>
<path d="M31.1217 53.7559H28.2925V56.5851H31.1217V53.7559Z" fill="black"/>
<path d="M31.1217 50.9268H28.2925V53.756H31.1217V50.9268Z" fill="black"/>
<path d="M31.1217 45.2686H28.2925V48.0978H31.1217V45.2686Z" fill="black"/>
<path d="M31.1217 39.6094H28.2925V42.4386H31.1217V39.6094Z" fill="black"/>
<path d="M31.1217 36.7803H28.2925V39.6095H31.1217V36.7803Z" fill="black"/>
<path d="M31.1217 28.293H28.2925V31.1222H31.1217V28.293Z" fill="black"/>
<path d="M31.1217 25.4639H28.2925V28.2931H31.1217V25.4639Z" fill="black"/>
<path d="M31.1217 19.8047H28.2925V22.634H31.1217V19.8047Z" fill="black"/>
<path d="M31.1217 16.9756H28.2925V19.8049H31.1217V16.9756Z" fill="black"/>
<path d="M31.1217 14.1465H28.2925V16.9758H31.1217V14.1465Z" fill="black"/>
<path d="M31.1217 11.3174H28.2925V14.1467H31.1217V11.3174Z" fill="black"/>
<path d="M31.1217 8.48828H28.2925V11.3175H31.1217V8.48828Z" fill="black"/>
<path d="M31.1217 5.6582H28.2925V8.48747H31.1217V5.6582Z" fill="black"/>
<path d="M33.9513 110.342H31.1221V113.171H33.9513V110.342Z" fill="black"/>
<path d="M33.9513 107.512H31.1221V110.341H33.9513V107.512Z" fill="black"/>
<path d="M33.9513 101.854H31.1221V104.683H33.9513V101.854Z" fill="black"/>
<path d="M33.9513 99.0244H31.1221V101.854H33.9513V99.0244Z" fill="black"/>
<path d="M33.9513 96.1953H31.1221V99.0246H33.9513V96.1953Z" fill="black"/>
<path d="M33.9513 93.3662H31.1221V96.1955H33.9513V93.3662Z" fill="black"/>
<path d="M33.9513 84.8779H31.1221V87.7072H33.9513V84.8779Z" fill="black"/>
<path d="M33.9513 73.5605H31.1221V76.3898H33.9513V73.5605Z" fill="black"/>
<path d="M33.9513 70.7314H31.1221V73.5607H33.9513V70.7314Z" fill="black"/>
<path d="M33.9513 67.9023H31.1221V70.7316H33.9513V67.9023Z" fill="black"/>
<path d="M33.9513 65.0732H31.1221V67.9025H33.9513V65.0732Z" fill="black"/>
<path d="M33.9513 62.2441H31.1221V65.0734H33.9513V62.2441Z" fill="black"/>
<path d="M33.9513 59.415H31.1221V62.2443H33.9513V59.415Z" fill="black"/>
<path d="M33.9513 53.7559H31.1221V56.5851H33.9513V53.7559Z" fill="black"/>
<path d="M33.9513 50.9268H31.1221V53.756H33.9513V50.9268Z" fill="black"/>
<path d="M33.9513 36.7803H31.1221V39.6095H33.9513V36.7803Z" fill="black"/>
<path d="M33.9513 31.1221H31.1221V33.9513H33.9513V31.1221Z" fill="black"/>
<path d="M33.9513 22.6338H31.1221V25.4631H33.9513V22.6338Z" fill="black"/>
<path d="M33.9513 19.8047H31.1221V22.634H33.9513V19.8047Z" fill="black"/>
<path d="M33.9513 14.1465H31.1221V16.9758H33.9513V14.1465Z" fill="black"/>
<path d="M33.9513 11.3174H31.1221V14.1467H33.9513V11.3174Z" fill="black"/>
<path d="M33.9513 2.8291H31.1221V5.65837H33.9513V2.8291Z" fill="black"/>
<path d="M33.9513 0H31.1221V2.82927H33.9513V0Z" fill="black"/>
<path d="M36.7804 113.171H33.9512V116H36.7804V113.171Z" fill="black"/>
<path d="M36.7804 104.683H33.9512V107.512H36.7804V104.683Z" fill="black"/>
<path d="M36.7804 96.1953H33.9512V99.0246H36.7804V96.1953Z" fill="black"/>
<path d="M36.7804 93.3662H33.9512V96.1955H36.7804V93.3662Z" fill="black"/>
<path d="M36.7804 90.5361H33.9512V93.3654H36.7804V90.5361Z" fill="black"/>
<path d="M36.7804 87.707H33.9512V90.5363H36.7804V87.707Z" fill="black"/>
<path d="M36.7804 84.8779H33.9512V87.7072H36.7804V84.8779Z" fill="black"/>
<path d="M36.7804 82.0488H33.9512V84.8781H36.7804V82.0488Z" fill="black"/>
<path d="M36.7804 79.2197H33.9512V82.049H36.7804V79.2197Z" fill="black"/>
<path d="M36.7804 76.3906H33.9512V79.2199H36.7804V76.3906Z" fill="black"/>
<path d="M36.7804 70.7314H33.9512V73.5607H36.7804V70.7314Z" fill="black"/>
<path d="M36.7804 67.9023H33.9512V70.7316H36.7804V67.9023Z" fill="black"/>
<path d="M36.7804 65.0732H33.9512V67.9025H36.7804V65.0732Z" fill="black"/>
<path d="M36.7804 59.415H33.9512V62.2443H36.7804V59.415Z" fill="black"/>
<path d="M36.7804 56.585H33.9512V59.4142H36.7804V56.585Z" fill="black"/>
<path d="M36.7804 50.9268H33.9512V53.756H36.7804V50.9268Z" fill="black"/>
<path d="M36.7804 45.2686H33.9512V48.0978H36.7804V45.2686Z" fill="black"/>
<path d="M36.7804 39.6094H33.9512V42.4386H36.7804V39.6094Z" fill="black"/>
<path d="M36.7804 33.9512H33.9512V36.7804H36.7804V33.9512Z" fill="black"/>
<path d="M36.7804 31.1221H33.9512V33.9513H36.7804V31.1221Z" fill="black"/>
<path d="M36.7804 25.4639H33.9512V28.2931H36.7804V25.4639Z" fill="black"/>
<path d="M36.7804 19.8047H33.9512V22.634H36.7804V19.8047Z" fill="black"/>
<path d="M36.7804 16.9756H33.9512V19.8049H36.7804V16.9756Z" fill="black"/>
<path d="M36.7804 14.1465H33.9512V16.9758H36.7804V14.1465Z" fill="black"/>
<path d="M36.7804 11.3174H33.9512V14.1467H36.7804V11.3174Z" fill="black"/>
<path d="M36.7804 8.48828H33.9512V11.3175H36.7804V8.48828Z" fill="black"/>
<path d="M36.7804 5.6582H33.9512V8.48747H36.7804V5.6582Z" fill="black"/>
<path d="M39.6095 110.342H36.7803V113.171H39.6095V110.342Z" fill="black"/>
<path d="M39.6095 107.512H36.7803V110.341H39.6095V107.512Z" fill="black"/>
<path d="M39.6095 104.683H36.7803V107.512H39.6095V104.683Z" fill="black"/>
<path d="M39.6095 90.5361H36.7803V93.3654H39.6095V90.5361Z" fill="black"/>
<path d="M39.6095 87.707H36.7803V90.5363H39.6095V87.707Z" fill="black"/>
<path d="M39.6095 82.0488H36.7803V84.8781H39.6095V82.0488Z" fill="black"/>
<path d="M39.6095 67.9023H36.7803V70.7316H39.6095V67.9023Z" fill="black"/>
<path d="M39.6095 62.2441H36.7803V65.0734H39.6095V62.2441Z" fill="black"/>
<path d="M39.6095 56.585H36.7803V59.4142H39.6095V56.585Z" fill="black"/>
<path d="M39.6095 50.9268H36.7803V53.756H39.6095V50.9268Z" fill="black"/>
<path d="M39.6095 48.0977H36.7803V50.9269H39.6095V48.0977Z" fill="black"/>
<path d="M39.6095 42.4395H36.7803V45.2687H39.6095V42.4395Z" fill="black"/>
<path d="M39.6095 39.6094H36.7803V42.4386H39.6095V39.6094Z" fill="black"/>
<path d="M39.6095 33.9512H36.7803V36.7804H39.6095V33.9512Z" fill="black"/>
<path d="M39.6095 31.1221H36.7803V33.9513H39.6095V31.1221Z" fill="black"/>
<path d="M39.6095 28.293H36.7803V31.1222H39.6095V28.293Z" fill="black"/>
<path d="M39.6095 22.6338H36.7803V25.4631H39.6095V22.6338Z" fill="black"/>
<path d="M39.6095 19.8047H36.7803V22.634H39.6095V19.8047Z" fill="black"/>
<path d="M39.6095 14.1465H36.7803V16.9758H39.6095V14.1465Z" fill="black"/>
<path d="M39.6095 11.3174H36.7803V14.1467H39.6095V11.3174Z" fill="black"/>
<path d="M39.6095 5.6582H36.7803V8.48747H39.6095V5.6582Z" fill="black"/>
<path d="M39.6095 2.8291H36.7803V5.65837H39.6095V2.8291Z" fill="black"/>
<path d="M42.4391 113.171H39.6099V116H42.4391V113.171Z" fill="black"/>
<path d="M42.4391 110.342H39.6099V113.171H42.4391V110.342Z" fill="black"/>
<path d="M42.4391 107.512H39.6099V110.341H42.4391V107.512Z" fill="black"/>
<path d="M42.4391 104.683H39.6099V107.512H42.4391V104.683Z" fill="black"/>
<path d="M42.4391 101.854H39.6099V104.683H42.4391V101.854Z" fill="black"/>
<path d="M42.4391 99.0244H39.6099V101.854H42.4391V99.0244Z" fill="black"/>
<path d="M42.4391 96.1953H39.6099V99.0246H42.4391V96.1953Z" fill="black"/>
<path d="M42.4391 93.3662H39.6099V96.1955H42.4391V93.3662Z" fill="black"/>
<path d="M42.4391 90.5361H39.6099V93.3654H42.4391V90.5361Z" fill="black"/>
<path d="M42.4391 84.8779H39.6099V87.7072H42.4391V84.8779Z" fill="black"/>
<path d="M42.4391 82.0488H39.6099V84.8781H42.4391V82.0488Z" fill="black"/>
<path d="M42.4391 70.7314H39.6099V73.5607H42.4391V70.7314Z" fill="black"/>
<path d="M42.4391 67.9023H39.6099V70.7316H42.4391V67.9023Z" fill="black"/>
<path d="M42.4391 65.0732H39.6099V67.9025H42.4391V65.0732Z" fill="black"/>
<path d="M42.4391 53.7559H39.6099V56.5851H42.4391V53.7559Z" fill="black"/>
<path d="M42.4391 45.2686H39.6099V48.0978H42.4391V45.2686Z" fill="black"/>
<path d="M42.4391 42.4395H39.6099V45.2687H42.4391V42.4395Z" fill="black"/>
<path d="M42.4391 33.9512H39.6099V36.7804H42.4391V33.9512Z" fill="black"/>
<path d="M42.4391 19.8047H39.6099V22.634H42.4391V19.8047Z" fill="black"/>
<path d="M42.4391 16.9756H39.6099V19.8049H42.4391V16.9756Z" fill="black"/>
<path d="M42.4391 8.48828H39.6099V11.3175H42.4391V8.48828Z" fill="black"/>
<path d="M42.4391 5.6582H39.6099V8.48747H42.4391V5.6582Z" fill="black"/>
<path d="M42.4391 2.8291H39.6099V5.65837H42.4391V2.8291Z" fill="black"/>
<path d="M42.4391 0H39.6099V2.82927H42.4391V0Z" fill="black"/>
<path d="M45.2682 110.342H42.439V113.171H45.2682V110.342Z" fill="black"/>
<path d="M45.2682 99.0244H42.439V101.854H45.2682V99.0244Z" fill="black"/>
<path d="M45.2682 93.3662H42.439V96.1955H45.2682V93.3662Z" fill="black"/>
<path d="M45.2682 87.707H42.439V90.5363H45.2682V87.707Z" fill="black"/>
<path d="M45.2682 82.0488H42.439V84.8781H45.2682V82.0488Z" fill="black"/>
<path d="M45.2682 73.5605H42.439V76.3898H45.2682V73.5605Z" fill="black"/>
<path d="M45.2682 70.7314H42.439V73.5607H45.2682V70.7314Z" fill="black"/>
<path d="M45.2682 65.0732H42.439V67.9025H45.2682V65.0732Z" fill="black"/>
<path d="M45.2682 59.415H42.439V62.2443H45.2682V59.415Z" fill="black"/>
<path d="M45.2682 56.585H42.439V59.4142H45.2682V56.585Z" fill="black"/>
<path d="M45.2682 48.0977H42.439V50.9269H45.2682V48.0977Z" fill="black"/>
<path d="M45.2682 45.2686H42.439V48.0978H45.2682V45.2686Z" fill="black"/>
<path d="M45.2682 39.6094H42.439V42.4386H45.2682V39.6094Z" fill="black"/>
<path d="M45.2682 36.7803H42.439V39.6095H45.2682V36.7803Z" fill="black"/>
<path d="M45.2682 33.9512H42.439V36.7804H45.2682V33.9512Z" fill="black"/>
<path d="M45.2682 14.1465H42.439V16.9758H45.2682V14.1465Z" fill="black"/>
<path d="M45.2682 8.48828H42.439V11.3175H45.2682V8.48828Z" fill="black"/>
<path d="M45.2682 2.8291H42.439V5.65837H45.2682V2.8291Z" fill="black"/>
<path d="M45.2682 0H42.439V2.82927H45.2682V0Z" fill="black"/>
<path d="M48.0973 113.171H45.2681V116H48.0973V113.171Z" fill="black"/>
<path d="M48.0973 104.683H45.2681V107.512H48.0973V104.683Z" fill="black"/>
<path d="M48.0973 90.5361H45.2681V93.3654H48.0973V90.5361Z" fill="black"/>
<path d="M48.0973 82.0488H45.2681V84.8781H48.0973V82.0488Z" fill="black"/>
<path d="M48.0973 76.3906H45.2681V79.2199H48.0973V76.3906Z" fill="black"/>
<path d="M48.0973 67.9023H45.2681V70.7316H48.0973V67.9023Z" fill="black"/>
<path d="M48.0973 62.2441H45.2681V65.0734H48.0973V62.2441Z" fill="black"/>
<path d="M48.0973 59.415H45.2681V62.2443H48.0973V59.415Z" fill="black"/>
<path d="M48.0973 56.585H45.2681V59.4142H48.0973V56.585Z" fill="black"/>
<path d="M48.0973 50.9268H45.2681V53.756H48.0973V50.9268Z" fill="black"/>
<path d="M48.0973 48.0977H45.2681V50.9269H48.0973V48.0977Z" fill="black"/>
<path d="M48.0973 45.2686H45.2681V48.0978H48.0973V45.2686Z" fill="black"/>
<path d="M48.0973 42.4395H45.2681V45.2687H48.0973V42.4395Z" fill="black"/>
<path d="M48.0973 39.6094H45.2681V42.4386H48.0973V39.6094Z" fill="black"/>
<path d="M48.0973 33.9512H45.2681V36.7804H48.0973V33.9512Z" fill="black"/>
<path d="M48.0973 31.1221H45.2681V33.9513H48.0973V31.1221Z" fill="black"/>
<path d="M48.0973 19.8047H45.2681V22.634H48.0973V19.8047Z" fill="black"/>
<path d="M48.0973 16.9756H45.2681V19.8049H48.0973V16.9756Z" fill="black"/>
<path d="M48.0973 14.1465H45.2681V16.9758H48.0973V14.1465Z" fill="black"/>
<path d="M48.0973 8.48828H45.2681V11.3175H48.0973V8.48828Z" fill="black"/>
<path d="M48.0973 0H45.2681V2.82927H48.0973V0Z" fill="black"/>
<path d="M50.9269 113.171H48.0977V116H50.9269V113.171Z" fill="black"/>
<path d="M50.9269 110.342H48.0977V113.171H50.9269V110.342Z" fill="black"/>
<path d="M50.9269 107.512H48.0977V110.341H50.9269V107.512Z" fill="black"/>
<path d="M50.9269 99.0244H48.0977V101.854H50.9269V99.0244Z" fill="black"/>
<path d="M50.9269 96.1953H48.0977V99.0246H50.9269V96.1953Z" fill="black"/>
<path d="M50.9269 93.3662H48.0977V96.1955H50.9269V93.3662Z" fill="black"/>
<path d="M50.9269 76.3906H48.0977V79.2199H50.9269V76.3906Z" fill="black"/>
<path d="M50.9269 67.9023H48.0977V70.7316H50.9269V67.9023Z" fill="black"/>
<path d="M50.9269 65.0732H48.0977V67.9025H50.9269V65.0732Z" fill="black"/>
<path d="M50.9269 59.415H48.0977V62.2443H50.9269V59.415Z" fill="black"/>
<path d="M50.9269 48.0977H48.0977V50.9269H50.9269V48.0977Z" fill="black"/>
<path d="M50.9269 45.2686H48.0977V48.0978H50.9269V45.2686Z" fill="black"/>
<path d="M50.9269 39.6094H48.0977V42.4386H50.9269V39.6094Z" fill="black"/>
<path d="M50.9269 33.9512H48.0977V36.7804H50.9269V33.9512Z" fill="black"/>
<path d="M50.9269 31.1221H48.0977V33.9513H50.9269V31.1221Z" fill="black"/>
<path d="M50.9269 28.293H48.0977V31.1222H50.9269V28.293Z" fill="black"/>
<path d="M50.9269 22.6338H48.0977V25.4631H50.9269V22.6338Z" fill="black"/>
<path d="M50.9269 14.1465H48.0977V16.9758H50.9269V14.1465Z" fill="black"/>
<path d="M50.9269 5.6582H48.0977V8.48747H50.9269V5.6582Z" fill="black"/>
<path d="M50.9269 0H48.0977V2.82927H50.9269V0Z" fill="black"/>
<path d="M53.756 113.171H50.9268V116H53.756V113.171Z" fill="black"/>
<path d="M53.756 107.512H50.9268V110.341H53.756V107.512Z" fill="black"/>
<path d="M53.756 99.0244H50.9268V101.854H53.756V99.0244Z" fill="black"/>
<path d="M53.756 96.1953H50.9268V99.0246H53.756V96.1953Z" fill="black"/>
<path d="M53.756 93.3662H50.9268V96.1955H53.756V93.3662Z" fill="black"/>
<path d="M53.756 90.5361H50.9268V93.3654H53.756V90.5361Z" fill="black"/>
<path d="M53.756 84.8779H50.9268V87.7072H53.756V84.8779Z" fill="black"/>
<path d="M53.756 73.5605H50.9268V76.3898H53.756V73.5605Z" fill="black"/>
<path d="M53.756 67.9023H50.9268V70.7316H53.756V67.9023Z" fill="black"/>
<path d="M53.756 56.585H50.9268V59.4142H53.756V56.585Z" fill="black"/>
<path d="M53.756 48.0977H50.9268V50.9269H53.756V48.0977Z" fill="black"/>
<path d="M53.756 36.7803H50.9268V39.6095H53.756V36.7803Z" fill="black"/>
<path d="M53.756 33.9512H50.9268V36.7804H53.756V33.9512Z" fill="black"/>
<path d="M53.756 25.4639H50.9268V28.2931H53.756V25.4639Z" fill="black"/>
<path d="M53.756 22.6338H50.9268V25.4631H53.756V22.6338Z" fill="black"/>
<path d="M53.756 19.8047H50.9268V22.634H53.756V19.8047Z" fill="black"/>
<path d="M53.756 16.9756H50.9268V19.8049H53.756V16.9756Z" fill="black"/>
<path d="M53.756 11.3174H50.9268V14.1467H53.756V11.3174Z" fill="black"/>
<path d="M53.756 8.48828H50.9268V11.3175H53.756V8.48828Z" fill="black"/>
<path d="M53.756 5.6582H50.9268V8.48747H53.756V5.6582Z" fill="black"/>
<path d="M56.5851 110.342H53.7559V113.171H56.5851V110.342Z" fill="black"/>
<path d="M56.5851 96.1953H53.7559V99.0246H56.5851V96.1953Z" fill="black"/>
<path d="M56.5851 82.0488H53.7559V84.8781H56.5851V82.0488Z" fill="black"/>
<path d="M56.5851 73.5605H53.7559V76.3898H56.5851V73.5605Z" fill="black"/>
<path d="M56.5851 67.9023H53.7559V70.7316H56.5851V67.9023Z" fill="black"/>
<path d="M56.5851 65.0732H53.7559V67.9025H56.5851V65.0732Z" fill="black"/>
<path d="M56.5851 59.415H53.7559V62.2443H56.5851V59.415Z" fill="black"/>
<path d="M56.5851 56.585H53.7559V59.4142H56.5851V56.585Z" fill="black"/>
<path d="M56.5851 53.7559H53.7559V56.5851H56.5851V53.7559Z" fill="black"/>
<path d="M56.5851 42.4395H53.7559V45.2687H56.5851V42.4395Z" fill="black"/>
<path d="M56.5851 36.7803H53.7559V39.6095H56.5851V36.7803Z" fill="black"/>
<path d="M56.5851 33.9512H53.7559V36.7804H56.5851V33.9512Z" fill="black"/>
<path d="M56.5851 22.6338H53.7559V25.4631H56.5851V22.6338Z" fill="black"/>
<path d="M56.5851 19.8047H53.7559V22.634H56.5851V19.8047Z" fill="black"/>
<path d="M56.5851 11.3174H53.7559V14.1467H56.5851V11.3174Z" fill="black"/>
<path d="M56.5851 8.48828H53.7559V11.3175H56.5851V8.48828Z" fill="black"/>
<path d="M56.5851 5.6582H53.7559V8.48747H56.5851V5.6582Z" fill="black"/>
<path d="M56.5851 0H53.7559V2.82927H56.5851V0Z" fill="black"/>
<path d="M59.4147 113.171H56.5854V116H59.4147V113.171Z" fill="black"/>
<path d="M59.4147 107.512H56.5854V110.341H59.4147V107.512Z" fill="black"/>
<path d="M59.4147 99.0244H56.5854V101.854H59.4147V99.0244Z" fill="black"/>
<path d="M59.4147 96.1953H56.5854V99.0246H59.4147V96.1953Z" fill="black"/>
<path d="M59.4147 93.3662H56.5854V96.1955H59.4147V93.3662Z" fill="black"/>
<path d="M59.4147 90.5361H56.5854V93.3654H59.4147V90.5361Z" fill="black"/>
<path d="M59.4147 79.2197H56.5854V82.049H59.4147V79.2197Z" fill="black"/>
<path d="M59.4147 76.3906H56.5854V79.2199H59.4147V76.3906Z" fill="black"/>
<path d="M59.4147 73.5605H56.5854V76.3898H59.4147V73.5605Z" fill="black"/>
<path d="M59.4147 70.7314H56.5854V73.5607H59.4147V70.7314Z" fill="black"/>
<path d="M59.4147 67.9023H56.5854V70.7316H59.4147V67.9023Z" fill="black"/>
<path d="M59.4147 62.2441H56.5854V65.0734H59.4147V62.2441Z" fill="black"/>
<path d="M59.4147 59.415H56.5854V62.2443H59.4147V59.415Z" fill="black"/>
<path d="M59.4147 56.585H56.5854V59.4142H59.4147V56.585Z" fill="black"/>
<path d="M59.4147 53.7559H56.5854V56.5851H59.4147V53.7559Z" fill="black"/>
<path d="M59.4147 48.0977H56.5854V50.9269H59.4147V48.0977Z" fill="black"/>
<path d="M59.4147 39.6094H56.5854V42.4386H59.4147V39.6094Z" fill="black"/>
<path d="M59.4147 28.293H56.5854V31.1222H59.4147V28.293Z" fill="black"/>
<path d="M59.4147 25.4639H56.5854V28.2931H59.4147V25.4639Z" fill="black"/>
<path d="M59.4147 16.9756H56.5854V19.8049H59.4147V16.9756Z" fill="black"/>
<path d="M59.4147 11.3174H56.5854V14.1467H59.4147V11.3174Z" fill="black"/>
<path d="M59.4147 0H56.5854V2.82927H59.4147V0Z" fill="black"/>
<path d="M62.2438 113.171H59.4146V116H62.2438V113.171Z" fill="black"/>
<path d="M62.2438 110.342H59.4146V113.171H62.2438V110.342Z" fill="black"/>
<path d="M62.2438 107.512H59.4146V110.341H62.2438V107.512Z" fill="black"/>
<path d="M62.2438 99.0244H59.4146V101.854H62.2438V99.0244Z" fill="black"/>
<path d="M62.2438 96.1953H59.4146V99.0246H62.2438V96.1953Z" fill="black"/>
<path d="M62.2438 90.5361H59.4146V93.3654H62.2438V90.5361Z" fill="black"/>
<path d="M62.2438 84.8779H59.4146V87.7072H62.2438V84.8779Z" fill="black"/>
<path d="M62.2438 79.2197H59.4146V82.049H62.2438V79.2197Z" fill="black"/>
<path d="M62.2438 73.5605H59.4146V76.3898H62.2438V73.5605Z" fill="black"/>
<path d="M62.2438 70.7314H59.4146V73.5607H62.2438V70.7314Z" fill="black"/>
<path d="M62.2438 62.2441H59.4146V65.0734H62.2438V62.2441Z" fill="black"/>
<path d="M62.2438 53.7559H59.4146V56.5851H62.2438V53.7559Z" fill="black"/>
<path d="M62.2438 48.0977H59.4146V50.9269H62.2438V48.0977Z" fill="black"/>
<path d="M62.2438 42.4395H59.4146V45.2687H62.2438V42.4395Z" fill="black"/>
<path d="M62.2438 36.7803H59.4146V39.6095H62.2438V36.7803Z" fill="black"/>
<path d="M62.2438 31.1221H59.4146V33.9513H62.2438V31.1221Z" fill="black"/>
<path d="M62.2438 28.293H59.4146V31.1222H62.2438V28.293Z" fill="black"/>
<path d="M62.2438 11.3174H59.4146V14.1467H62.2438V11.3174Z" fill="black"/>
<path d="M62.2438 5.6582H59.4146V8.48747H62.2438V5.6582Z" fill="black"/>
<path d="M62.2438 2.8291H59.4146V5.65837H62.2438V2.8291Z" fill="black"/>
<path d="M65.0734 110.342H62.2441V113.171H65.0734V110.342Z" fill="black"/>
<path d="M65.0734 104.683H62.2441V107.512H65.0734V104.683Z" fill="black"/>
<path d="M65.0734 101.854H62.2441V104.683H65.0734V101.854Z" fill="black"/>
<path d="M65.0734 99.0244H62.2441V101.854H65.0734V99.0244Z" fill="black"/>
<path d="M65.0734 90.5361H62.2441V93.3654H65.0734V90.5361Z" fill="black"/>
<path d="M65.0734 87.707H62.2441V90.5363H65.0734V87.707Z" fill="black"/>
<path d="M65.0734 82.0488H62.2441V84.8781H65.0734V82.0488Z" fill="black"/>
<path d="M65.0734 79.2197H62.2441V82.049H65.0734V79.2197Z" fill="black"/>
<path d="M65.0734 70.7314H62.2441V73.5607H65.0734V70.7314Z" fill="black"/>
<path d="M65.0734 53.7559H62.2441V56.5851H65.0734V53.7559Z" fill="black"/>
<path d="M65.0734 50.9268H62.2441V53.756H65.0734V50.9268Z" fill="black"/>
<path d="M65.0734 45.2686H62.2441V48.0978H65.0734V45.2686Z" fill="black"/>
<path d="M65.0734 39.6094H62.2441V42.4386H65.0734V39.6094Z" fill="black"/>
<path d="M65.0734 36.7803H62.2441V39.6095H65.0734V36.7803Z" fill="black"/>
<path d="M65.0734 28.293H62.2441V31.1222H65.0734V28.293Z" fill="black"/>
<path d="M65.0734 25.4639H62.2441V28.2931H65.0734V25.4639Z" fill="black"/>
<path d="M65.0734 19.8047H62.2441V22.634H65.0734V19.8047Z" fill="black"/>
<path d="M65.0734 16.9756H62.2441V19.8049H65.0734V16.9756Z" fill="black"/>
<path d="M65.0734 14.1465H62.2441V16.9758H65.0734V14.1465Z" fill="black"/>
<path d="M65.0734 11.3174H62.2441V14.1467H65.0734V11.3174Z" fill="black"/>
<path d="M65.0734 8.48828H62.2441V11.3175H65.0734V8.48828Z" fill="black"/>
<path d="M65.0734 5.6582H62.2441V8.48747H65.0734V5.6582Z" fill="black"/>
<path d="M65.0734 2.8291H62.2441V5.65837H65.0734V2.8291Z" fill="black"/>
<path d="M67.9025 113.171H65.0732V116H67.9025V113.171Z" fill="black"/>
<path d="M67.9025 107.512H65.0732V110.341H67.9025V107.512Z" fill="black"/>
<path d="M67.9025 104.683H65.0732V107.512H67.9025V104.683Z" fill="black"/>
<path d="M67.9025 99.0244H65.0732V101.854H67.9025V99.0244Z" fill="black"/>
<path d="M67.9025 93.3662H65.0732V96.1955H67.9025V93.3662Z" fill="black"/>
<path d="M67.9025 90.5361H65.0732V93.3654H67.9025V90.5361Z" fill="black"/>
<path d="M67.9025 84.8779H65.0732V87.7072H67.9025V84.8779Z" fill="black"/>
<path d="M67.9025 76.3906H65.0732V79.2199H67.9025V76.3906Z" fill="black"/>
<path d="M67.9025 73.5605H65.0732V76.3898H67.9025V73.5605Z" fill="black"/>
<path d="M67.9025 70.7314H65.0732V73.5607H67.9025V70.7314Z" fill="black"/>
<path d="M67.9025 62.2441H65.0732V65.0734H67.9025V62.2441Z" fill="black"/>
<path d="M67.9025 59.415H65.0732V62.2443H67.9025V59.415Z" fill="black"/>
<path d="M67.9025 56.585H65.0732V59.4142H67.9025V56.585Z" fill="black"/>
<path d="M67.9025 53.7559H65.0732V56.5851H67.9025V53.7559Z" fill="black"/>
<path d="M67.9025 42.4395H65.0732V45.2687H67.9025V42.4395Z" fill="black"/>
<path d="M67.9025 39.6094H65.0732V42.4386H67.9025V39.6094Z" fill="black"/>
<path d="M67.9025 36.7803H65.0732V39.6095H67.9025V36.7803Z" fill="black"/>
<path d="M67.9025 22.6338H65.0732V25.4631H67.9025V22.6338Z" fill="black"/>
<path d="M67.9025 19.8047H65.0732V22.634H67.9025V19.8047Z" fill="black"/>
<path d="M67.9025 11.3174H65.0732V14.1467H67.9025V11.3174Z" fill="black"/>
<path d="M67.9025 8.48828H65.0732V11.3175H67.9025V8.48828Z" fill="black"/>
<path d="M67.9025 0H65.0732V2.82927H67.9025V0Z" fill="black"/>
<path d="M70.7316 113.171H67.9023V116H70.7316V113.171Z" fill="black"/>
<path d="M70.7316 110.342H67.9023V113.171H70.7316V110.342Z" fill="black"/>
<path d="M70.7316 101.854H67.9023V104.683H70.7316V101.854Z" fill="black"/>
<path d="M70.7316 96.1953H67.9023V99.0246H70.7316V96.1953Z" fill="black"/>
<path d="M70.7316 93.3662H67.9023V96.1955H70.7316V93.3662Z" fill="black"/>
<path d="M70.7316 90.5361H67.9023V93.3654H70.7316V90.5361Z" fill="black"/>
<path d="M70.7316 82.0488H67.9023V84.8781H70.7316V82.0488Z" fill="black"/>
<path d="M70.7316 73.5605H67.9023V76.3898H70.7316V73.5605Z" fill="black"/>
<path d="M70.7316 70.7314H67.9023V73.5607H70.7316V70.7314Z" fill="black"/>
<path d="M70.7316 67.9023H67.9023V70.7316H70.7316V67.9023Z" fill="black"/>
<path d="M70.7316 65.0732H67.9023V67.9025H70.7316V65.0732Z" fill="black"/>
<path d="M70.7316 59.415H67.9023V62.2443H70.7316V59.415Z" fill="black"/>
<path d="M70.7316 56.585H67.9023V59.4142H70.7316V56.585Z" fill="black"/>
<path d="M70.7316 48.0977H67.9023V50.9269H70.7316V48.0977Z" fill="black"/>
<path d="M70.7316 36.7803H67.9023V39.6095H70.7316V36.7803Z" fill="black"/>
<path d="M70.7316 33.9512H67.9023V36.7804H70.7316V33.9512Z" fill="black"/>
<path d="M70.7316 28.293H67.9023V31.1222H70.7316V28.293Z" fill="black"/>
<path d="M70.7316 25.4639H67.9023V28.2931H70.7316V25.4639Z" fill="black"/>
<path d="M70.7316 19.8047H67.9023V22.634H70.7316V19.8047Z" fill="black"/>
<path d="M70.7316 16.9756H67.9023V19.8049H70.7316V16.9756Z" fill="black"/>
<path d="M70.7316 8.48828H67.9023V11.3175H70.7316V8.48828Z" fill="black"/>
<path d="M70.7316 0H67.9023V2.82927H70.7316V0Z" fill="black"/>
<path d="M73.5612 87.707H70.7319V90.5363H73.5612V87.707Z" fill="black"/>
<path d="M73.5612 82.0488H70.7319V84.8781H73.5612V82.0488Z" fill="black"/>
<path d="M73.5612 79.2197H70.7319V82.049H73.5612V79.2197Z" fill="black"/>
<path d="M73.5612 67.9023H70.7319V70.7316H73.5612V67.9023Z" fill="black"/>
<path d="M73.5612 62.2441H70.7319V65.0734H73.5612V62.2441Z" fill="black"/>
<path d="M73.5612 56.585H70.7319V59.4142H73.5612V56.585Z" fill="black"/>
<path d="M73.5612 53.7559H70.7319V56.5851H73.5612V53.7559Z" fill="black"/>
<path d="M73.5612 50.9268H70.7319V53.756H73.5612V50.9268Z" fill="black"/>
<path d="M73.5612 48.0977H70.7319V50.9269H73.5612V48.0977Z" fill="black"/>
<path d="M73.5612 39.6094H70.7319V42.4386H73.5612V39.6094Z" fill="black"/>
<path d="M73.5612 33.9512H70.7319V36.7804H73.5612V33.9512Z" fill="black"/>
<path d="M73.5612 28.293H70.7319V31.1222H73.5612V28.293Z" fill="black"/>
<path d="M73.5612 19.8047H70.7319V22.634H73.5612V19.8047Z" fill="black"/>
<path d="M73.5612 14.1465H70.7319V16.9758H73.5612V14.1465Z" fill="black"/>
<path d="M73.5612 11.3174H70.7319V14.1467H73.5612V11.3174Z" fill="black"/>
<path d="M73.5612 2.8291H70.7319V5.65837H73.5612V2.8291Z" fill="black"/>
<path d="M73.5612 0H70.7319V2.82927H73.5612V0Z" fill="black"/>
<path d="M76.3903 113.171H73.561V116H76.3903V113.171Z" fill="black"/>
<path d="M76.3903 110.342H73.561V113.171H76.3903V110.342Z" fill="black"/>
<path d="M76.3903 101.854H73.561V104.683H76.3903V101.854Z" fill="black"/>
<path d="M76.3903 99.0244H73.561V101.854H76.3903V99.0244Z" fill="black"/>
<path d="M76.3903 96.1953H73.561V99.0246H76.3903V96.1953Z" fill="black"/>
<path d="M76.3903 90.5361H73.561V93.3654H76.3903V90.5361Z" fill="black"/>
<path d="M76.3903 82.0488H73.561V84.8781H76.3903V82.0488Z" fill="black"/>
<path d="M76.3903 70.7314H73.561V73.5607H76.3903V70.7314Z" fill="black"/>
<path d="M76.3903 65.0732H73.561V67.9025H76.3903V65.0732Z" fill="black"/>
<path d="M76.3903 59.415H73.561V62.2443H76.3903V59.415Z" fill="black"/>
<path d="M76.3903 56.585H73.561V59.4142H76.3903V56.585Z" fill="black"/>
<path d="M76.3903 50.9268H73.561V53.756H76.3903V50.9268Z" fill="black"/>
<path d="M76.3903 48.0977H73.561V50.9269H76.3903V48.0977Z" fill="black"/>
<path d="M76.3903 45.2686H73.561V48.0978H76.3903V45.2686Z" fill="black"/>
<path d="M76.3903 31.1221H73.561V33.9513H76.3903V31.1221Z" fill="black"/>
<path d="M76.3903 28.293H73.561V31.1222H76.3903V28.293Z" fill="black"/>
<path d="M76.3903 25.4639H73.561V28.2931H76.3903V25.4639Z" fill="black"/>
<path d="M76.3903 22.6338H73.561V25.4631H76.3903V22.6338Z" fill="black"/>
<path d="M76.3903 19.8047H73.561V22.634H76.3903V19.8047Z" fill="black"/>
<path d="M76.3903 16.9756H73.561V19.8049H76.3903V16.9756Z" fill="black"/>
<path d="M76.3903 8.48828H73.561V11.3175H76.3903V8.48828Z" fill="black"/>
<path d="M76.3903 5.6582H73.561V8.48747H76.3903V5.6582Z" fill="black"/>
<path d="M76.3903 0H73.561V2.82927H76.3903V0Z" fill="black"/>
<path d="M79.2194 99.0244H76.3901V101.854H79.2194V99.0244Z" fill="black"/>
<path d="M79.2194 96.1953H76.3901V99.0246H79.2194V96.1953Z" fill="black"/>
<path d="M79.2194 82.0488H76.3901V84.8781H79.2194V82.0488Z" fill="black"/>
<path d="M79.2194 73.5605H76.3901V76.3898H79.2194V73.5605Z" fill="black"/>
<path d="M79.2194 70.7314H76.3901V73.5607H79.2194V70.7314Z" fill="black"/>
<path d="M79.2194 62.2441H76.3901V65.0734H79.2194V62.2441Z" fill="black"/>
<path d="M79.2194 59.415H76.3901V62.2443H79.2194V59.415Z" fill="black"/>
<path d="M79.2194 56.585H76.3901V59.4142H79.2194V56.585Z" fill="black"/>
<path d="M79.2194 50.9268H76.3901V53.756H79.2194V50.9268Z" fill="black"/>
<path d="M79.2194 48.0977H76.3901V50.9269H79.2194V48.0977Z" fill="black"/>
<path d="M79.2194 39.6094H76.3901V42.4386H79.2194V39.6094Z" fill="black"/>
<path d="M79.2194 36.7803H76.3901V39.6095H79.2194V36.7803Z" fill="black"/>
<path d="M79.2194 31.1221H76.3901V33.9513H79.2194V31.1221Z" fill="black"/>
<path d="M79.2194 25.4639H76.3901V28.2931H79.2194V25.4639Z" fill="black"/>
<path d="M79.2194 19.8047H76.3901V22.634H79.2194V19.8047Z" fill="black"/>
<path d="M79.2194 8.48828H76.3901V11.3175H79.2194V8.48828Z" fill="black"/>
<path d="M79.2194 5.6582H76.3901V8.48747H79.2194V5.6582Z" fill="black"/>
<path d="M79.2194 2.8291H76.3901V5.65837H79.2194V2.8291Z" fill="black"/>
<path d="M79.2194 0H76.3901V2.82927H79.2194V0Z" fill="black"/>
<path d="M82.049 110.342H79.2197V113.171H82.049V110.342Z" fill="black"/>
<path d="M82.049 104.683H79.2197V107.512H82.049V104.683Z" fill="black"/>
<path d="M82.049 87.707H79.2197V90.5363H82.049V87.707Z" fill="black"/>
<path d="M82.049 82.0488H79.2197V84.8781H82.049V82.0488Z" fill="black"/>
<path d="M82.049 73.5605H79.2197V76.3898H82.049V73.5605Z" fill="black"/>
<path d="M82.049 56.585H79.2197V59.4142H82.049V56.585Z" fill="black"/>
<path d="M82.049 50.9268H79.2197V53.756H82.049V50.9268Z" fill="black"/>
<path d="M82.049 42.4395H79.2197V45.2687H82.049V42.4395Z" fill="black"/>
<path d="M82.049 39.6094H79.2197V42.4386H82.049V39.6094Z" fill="black"/>
<path d="M82.049 36.7803H79.2197V39.6095H82.049V36.7803Z" fill="black"/>
<path d="M82.049 33.9512H79.2197V36.7804H82.049V33.9512Z" fill="black"/>
<path d="M82.049 25.4639H79.2197V28.2931H82.049V25.4639Z" fill="black"/>
<path d="M82.049 19.8047H79.2197V22.634H82.049V19.8047Z" fill="black"/>
<path d="M82.049 16.9756H79.2197V19.8049H82.049V16.9756Z" fill="black"/>
<path d="M82.049 11.3174H79.2197V14.1467H82.049V11.3174Z" fill="black"/>
<path d="M82.049 2.8291H79.2197V5.65837H82.049V2.8291Z" fill="black"/>
<path d="M84.8781 107.512H82.0488V110.341H84.8781V107.512Z" fill="black"/>
<path d="M84.8781 104.683H82.0488V107.512H84.8781V104.683Z" fill="black"/>
<path d="M84.8781 99.0244H82.0488V101.854H84.8781V99.0244Z" fill="black"/>
<path d="M84.8781 93.3662H82.0488V96.1955H84.8781V93.3662Z" fill="black"/>
<path d="M84.8781 79.2197H82.0488V82.049H84.8781V79.2197Z" fill="black"/>
<path d="M84.8781 73.5605H82.0488V76.3898H84.8781V73.5605Z" fill="black"/>
<path d="M84.8781 70.7314H82.0488V73.5607H84.8781V70.7314Z" fill="black"/>
<path d="M84.8781 67.9023H82.0488V70.7316H84.8781V67.9023Z" fill="black"/>
<path d="M84.8781 65.0732H82.0488V67.9025H84.8781V65.0732Z" fill="black"/>
<path d="M84.8781 53.7559H82.0488V56.5851H84.8781V53.7559Z" fill="black"/>
<path d="M84.8781 50.9268H82.0488V53.756H84.8781V50.9268Z" fill="black"/>
<path d="M84.8781 45.2686H82.0488V48.0978H84.8781V45.2686Z" fill="black"/>
<path d="M84.8781 42.4395H82.0488V45.2687H84.8781V42.4395Z" fill="black"/>
<path d="M84.8781 36.7803H82.0488V39.6095H84.8781V36.7803Z" fill="black"/>
<path d="M84.8781 33.9512H82.0488V36.7804H84.8781V33.9512Z" fill="black"/>
<path d="M84.8781 25.4639H82.0488V28.2931H84.8781V25.4639Z" fill="black"/>
<path d="M84.8781 22.6338H82.0488V25.4631H84.8781V22.6338Z" fill="black"/>
<path d="M84.8781 19.8047H82.0488V22.634H84.8781V19.8047Z" fill="black"/>
<path d="M84.8781 14.1465H82.0488V16.9758H84.8781V14.1465Z" fill="black"/>
<path d="M84.8781 11.3174H82.0488V14.1467H84.8781V11.3174Z" fill="black"/>
<path d="M84.8781 8.48828H82.0488V11.3175H84.8781V8.48828Z" fill="black"/>
<path d="M87.7072 113.171H84.8779V116H87.7072V113.171Z" fill="black"/>
<path d="M87.7072 110.342H84.8779V113.171H87.7072V110.342Z" fill="black"/>
<path d="M87.7072 107.512H84.8779V110.341H87.7072V107.512Z" fill="black"/>
<path d="M87.7072 101.854H84.8779V104.683H87.7072V101.854Z" fill="black"/>
<path d="M87.7072 96.1953H84.8779V99.0246H87.7072V96.1953Z" fill="black"/>
<path d="M87.7072 93.3662H84.8779V96.1955H87.7072V93.3662Z" fill="black"/>
<path d="M87.7072 90.5361H84.8779V93.3654H87.7072V90.5361Z" fill="black"/>
<path d="M87.7072 82.0488H84.8779V84.8781H87.7072V82.0488Z" fill="black"/>
<path d="M87.7072 73.5605H84.8779V76.3898H87.7072V73.5605Z" fill="black"/>
<path d="M87.7072 62.2441H84.8779V65.0734H87.7072V62.2441Z" fill="black"/>
<path d="M87.7072 59.415H84.8779V62.2443H87.7072V59.415Z" fill="black"/>
<path d="M87.7072 56.585H84.8779V59.4142H87.7072V56.585Z" fill="black"/>
<path d="M87.7072 53.7559H84.8779V56.5851H87.7072V53.7559Z" fill="black"/>
<path d="M87.7072 45.2686H84.8779V48.0978H87.7072V45.2686Z" fill="black"/>
<path d="M87.7072 42.4395H84.8779V45.2687H87.7072V42.4395Z" fill="black"/>
<path d="M87.7072 39.6094H84.8779V42.4386H87.7072V39.6094Z" fill="black"/>
<path d="M87.7072 36.7803H84.8779V39.6095H87.7072V36.7803Z" fill="black"/>
<path d="M87.7072 33.9512H84.8779V36.7804H87.7072V33.9512Z" fill="black"/>
<path d="M87.7072 31.1221H84.8779V33.9513H87.7072V31.1221Z" fill="black"/>
<path d="M87.7072 28.293H84.8779V31.1222H87.7072V28.293Z" fill="black"/>
<path d="M87.7072 19.8047H84.8779V22.634H87.7072V19.8047Z" fill="black"/>
<path d="M87.7072 16.9756H84.8779V19.8049H87.7072V16.9756Z" fill="black"/>
<path d="M87.7072 14.1465H84.8779V16.9758H87.7072V14.1465Z" fill="black"/>
<path d="M87.7072 8.48828H84.8779V11.3175H87.7072V8.48828Z" fill="black"/>
<path d="M87.7072 5.6582H84.8779V8.48747H87.7072V5.6582Z" fill="black"/>
<path d="M87.7072 0H84.8779V2.82927H87.7072V0Z" fill="black"/>
<path d="M90.5368 113.171H87.7075V116H90.5368V113.171Z" fill="black"/>
<path d="M90.5368 104.683H87.7075V107.512H90.5368V104.683Z" fill="black"/>
<path d="M90.5368 101.854H87.7075V104.683H90.5368V101.854Z" fill="black"/>
<path d="M90.5368 99.0244H87.7075V101.854H90.5368V99.0244Z" fill="black"/>
<path d="M90.5368 90.5361H87.7075V93.3654H90.5368V90.5361Z" fill="black"/>
<path d="M90.5368 82.0488H87.7075V84.8781H90.5368V82.0488Z" fill="black"/>
<path d="M90.5368 76.3906H87.7075V79.2199H90.5368V76.3906Z" fill="black"/>
<path d="M90.5368 65.0732H87.7075V67.9025H90.5368V65.0732Z" fill="black"/>
<path d="M90.5368 59.415H87.7075V62.2443H90.5368V59.415Z" fill="black"/>
<path d="M90.5368 56.585H87.7075V59.4142H90.5368V56.585Z" fill="black"/>
<path d="M90.5368 53.7559H87.7075V56.5851H90.5368V53.7559Z" fill="black"/>
<path d="M90.5368 50.9268H87.7075V53.756H90.5368V50.9268Z" fill="black"/>
<path d="M90.5368 48.0977H87.7075V50.9269H90.5368V48.0977Z" fill="black"/>
<path d="M90.5368 39.6094H87.7075V42.4386H90.5368V39.6094Z" fill="black"/>
<path d="M90.5368 33.9512H87.7075V36.7804H90.5368V33.9512Z" fill="black"/>
<path d="M90.5368 28.293H87.7075V31.1222H90.5368V28.293Z" fill="black"/>
<path d="M90.5368 25.4639H87.7075V28.2931H90.5368V25.4639Z" fill="black"/>
<path d="M90.5368 22.6338H87.7075V25.4631H90.5368V22.6338Z" fill="black"/>
<path d="M90.5368 19.8047H87.7075V22.634H90.5368V19.8047Z" fill="black"/>
<path d="M90.5368 14.1465H87.7075V16.9758H90.5368V14.1465Z" fill="black"/>
<path d="M90.5368 11.3174H87.7075V14.1467H90.5368V11.3174Z" fill="black"/>
<path d="M93.3659 110.342H90.5366V113.171H93.3659V110.342Z" fill="black"/>
<path d="M93.3659 107.512H90.5366V110.341H93.3659V107.512Z" fill="black"/>
<path d="M93.3659 104.683H90.5366V107.512H93.3659V104.683Z" fill="black"/>
<path d="M93.3659 101.854H90.5366V104.683H93.3659V101.854Z" fill="black"/>
<path d="M93.3659 99.0244H90.5366V101.854H93.3659V99.0244Z" fill="black"/>
<path d="M93.3659 96.1953H90.5366V99.0246H93.3659V96.1953Z" fill="black"/>
<path d="M93.3659 93.3662H90.5366V96.1955H93.3659V93.3662Z" fill="black"/>
<path d="M93.3659 90.5361H90.5366V93.3654H93.3659V90.5361Z" fill="black"/>
<path d="M93.3659 84.8779H90.5366V87.7072H93.3659V84.8779Z" fill="black"/>
<path d="M93.3659 76.3906H90.5366V79.2199H93.3659V76.3906Z" fill="black"/>
<path d="M93.3659 73.5605H90.5366V76.3898H93.3659V73.5605Z" fill="black"/>
<path d="M93.3659 70.7314H90.5366V73.5607H93.3659V70.7314Z" fill="black"/>
<path d="M93.3659 65.0732H90.5366V67.9025H93.3659V65.0732Z" fill="black"/>
<path d="M93.3659 59.415H90.5366V62.2443H93.3659V59.415Z" fill="black"/>
<path d="M93.3659 53.7559H90.5366V56.5851H93.3659V53.7559Z" fill="black"/>
<path d="M93.3659 45.2686H90.5366V48.0978H93.3659V45.2686Z" fill="black"/>
<path d="M93.3659 42.4395H90.5366V45.2687H93.3659V42.4395Z" fill="black"/>
<path d="M93.3659 39.6094H90.5366V42.4386H93.3659V39.6094Z" fill="black"/>
<path d="M93.3659 36.7803H90.5366V39.6095H93.3659V36.7803Z" fill="black"/>
<path d="M93.3659 33.9512H90.5366V36.7804H93.3659V33.9512Z" fill="black"/>
<path d="M93.3659 22.6338H90.5366V25.4631H93.3659V22.6338Z" fill="black"/>
<path d="M93.3659 16.9756H90.5366V19.8049H93.3659V16.9756Z" fill="black"/>
<path d="M93.3659 14.1465H90.5366V16.9758H93.3659V14.1465Z" fill="black"/>
<path d="M93.3659 5.6582H90.5366V8.48747H93.3659V5.6582Z" fill="black"/>
<path d="M93.3659 0H90.5366V2.82927H93.3659V0Z" fill="black"/>
<path d="M96.195 113.171H93.3657V116H96.195V113.171Z" fill="black"/>
<path d="M96.195 110.342H93.3657V113.171H96.195V110.342Z" fill="black"/>
<path d="M96.195 107.512H93.3657V110.341H96.195V107.512Z" fill="black"/>
<path d="M96.195 104.683H93.3657V107.512H96.195V104.683Z" fill="black"/>
<path d="M96.195 101.854H93.3657V104.683H96.195V101.854Z" fill="black"/>
<path d="M96.195 90.5361H93.3657V93.3654H96.195V90.5361Z" fill="black"/>
<path d="M96.195 79.2197H93.3657V82.049H96.195V79.2197Z" fill="black"/>
<path d="M96.195 70.7314H93.3657V73.5607H96.195V70.7314Z" fill="black"/>
<path d="M96.195 67.9023H93.3657V70.7316H96.195V67.9023Z" fill="black"/>
<path d="M96.195 56.585H93.3657V59.4142H96.195V56.585Z" fill="black"/>
<path d="M96.195 50.9268H93.3657V53.756H96.195V50.9268Z" fill="black"/>
<path d="M96.195 45.2686H93.3657V48.0978H96.195V45.2686Z" fill="black"/>
<path d="M96.195 42.4395H93.3657V45.2687H96.195V42.4395Z" fill="black"/>
<path d="M96.195 39.6094H93.3657V42.4386H96.195V39.6094Z" fill="black"/>
<path d="M96.195 33.9512H93.3657V36.7804H96.195V33.9512Z" fill="black"/>
<path d="M96.195 22.6338H93.3657V25.4631H96.195V22.6338Z" fill="black"/>
<path d="M99.0246 110.342H96.1953V113.171H99.0246V110.342Z" fill="black"/>
<path d="M99.0246 107.512H96.1953V110.341H99.0246V107.512Z" fill="black"/>
<path d="M99.0246 101.854H96.1953V104.683H99.0246V101.854Z" fill="black"/>
<path d="M99.0246 96.1953H96.1953V99.0246H99.0246V96.1953Z" fill="black"/>
<path d="M99.0246 90.5361H96.1953V93.3654H99.0246V90.5361Z" fill="black"/>
<path d="M99.0246 82.0488H96.1953V84.8781H99.0246V82.0488Z" fill="black"/>
<path d="M99.0246 79.2197H96.1953V82.049H99.0246V79.2197Z" fill="black"/>
<path d="M99.0246 73.5605H96.1953V76.3898H99.0246V73.5605Z" fill="black"/>
<path d="M99.0246 70.7314H96.1953V73.5607H99.0246V70.7314Z" fill="black"/>
<path d="M99.0246 67.9023H96.1953V70.7316H99.0246V67.9023Z" fill="black"/>
<path d="M99.0246 62.2441H96.1953V65.0734H99.0246V62.2441Z" fill="black"/>
<path d="M99.0246 59.415H96.1953V62.2443H99.0246V59.415Z" fill="black"/>
<path d="M99.0246 56.585H96.1953V59.4142H99.0246V56.585Z" fill="black"/>
<path d="M99.0246 53.7559H96.1953V56.5851H99.0246V53.7559Z" fill="black"/>
<path d="M99.0246 48.0977H96.1953V50.9269H99.0246V48.0977Z" fill="black"/>
<path d="M99.0246 33.9512H96.1953V36.7804H99.0246V33.9512Z" fill="black"/>
<path d="M99.0246 22.6338H96.1953V25.4631H99.0246V22.6338Z" fill="black"/>
<path d="M99.0246 16.9756H96.1953V19.8049H99.0246V16.9756Z" fill="black"/>
<path d="M99.0246 14.1465H96.1953V16.9758H99.0246V14.1465Z" fill="black"/>
<path d="M99.0246 11.3174H96.1953V14.1467H99.0246V11.3174Z" fill="black"/>
<path d="M99.0246 8.48828H96.1953V11.3175H99.0246V8.48828Z" fill="black"/>
<path d="M99.0246 5.6582H96.1953V8.48747H99.0246V5.6582Z" fill="black"/>
<path d="M99.0246 2.8291H96.1953V5.65837H99.0246V2.8291Z" fill="black"/>
<path d="M99.0246 0H96.1953V2.82927H99.0246V0Z" fill="black"/>
<path d="M101.854 113.171H99.0244V116H101.854V113.171Z" fill="black"/>
<path d="M101.854 107.512H99.0244V110.341H101.854V107.512Z" fill="black"/>
<path d="M101.854 101.854H99.0244V104.683H101.854V101.854Z" fill="black"/>
<path d="M101.854 90.5361H99.0244V93.3654H101.854V90.5361Z" fill="black"/>
<path d="M101.854 84.8779H99.0244V87.7072H101.854V84.8779Z" fill="black"/>
<path d="M101.854 79.2197H99.0244V82.049H101.854V79.2197Z" fill="black"/>
<path d="M101.854 76.3906H99.0244V79.2199H101.854V76.3906Z" fill="black"/>
<path d="M101.854 73.5605H99.0244V76.3898H101.854V73.5605Z" fill="black"/>
<path d="M101.854 70.7314H99.0244V73.5607H101.854V70.7314Z" fill="black"/>
<path d="M101.854 56.585H99.0244V59.4142H101.854V56.585Z" fill="black"/>
<path d="M101.854 53.7559H99.0244V56.5851H101.854V53.7559Z" fill="black"/>
<path d="M101.854 48.0977H99.0244V50.9269H101.854V48.0977Z" fill="black"/>
<path d="M101.854 39.6094H99.0244V42.4386H101.854V39.6094Z" fill="black"/>
<path d="M101.854 31.1221H99.0244V33.9513H101.854V31.1221Z" fill="black"/>
<path d="M101.854 16.9756H99.0244V19.8049H101.854V16.9756Z" fill="black"/>
<path d="M101.854 0H99.0244V2.82927H101.854V0Z" fill="black"/>
<path d="M104.683 113.171H101.854V116H104.683V113.171Z" fill="black"/>
<path d="M104.683 110.342H101.854V113.171H104.683V110.342Z" fill="black"/>
<path d="M104.683 101.854H101.854V104.683H104.683V101.854Z" fill="black"/>
<path d="M104.683 99.0244H101.854V101.854H104.683V99.0244Z" fill="black"/>
<path d="M104.683 96.1953H101.854V99.0246H104.683V96.1953Z" fill="black"/>
<path d="M104.683 93.3662H101.854V96.1955H104.683V93.3662Z" fill="black"/>
<path d="M104.683 90.5361H101.854V93.3654H104.683V90.5361Z" fill="black"/>
<path d="M104.683 84.8779H101.854V87.7072H104.683V84.8779Z" fill="black"/>
<path d="M104.683 82.0488H101.854V84.8781H104.683V82.0488Z" fill="black"/>
<path d="M104.683 79.2197H101.854V82.049H104.683V79.2197Z" fill="black"/>
<path d="M104.683 70.7314H101.854V73.5607H104.683V70.7314Z" fill="black"/>
<path d="M104.683 67.9023H101.854V70.7316H104.683V67.9023Z" fill="black"/>
<path d="M104.683 42.4395H101.854V45.2687H104.683V42.4395Z" fill="black"/>
<path d="M104.683 16.9756H101.854V19.8049H104.683V16.9756Z" fill="black"/>
<path d="M104.683 11.3174H101.854V14.1467H104.683V11.3174Z" fill="black"/>
<path d="M104.683 8.48828H101.854V11.3175H104.683V8.48828Z" fill="black"/>
<path d="M104.683 5.6582H101.854V8.48747H104.683V5.6582Z" fill="black"/>
<path d="M104.683 0H101.854V2.82927H104.683V0Z" fill="black"/>
<path d="M107.512 110.342H104.683V113.171H107.512V110.342Z" fill="black"/>
<path d="M107.512 104.683H104.683V107.512H107.512V104.683Z" fill="black"/>
<path d="M107.512 101.854H104.683V104.683H107.512V101.854Z" fill="black"/>
<path d="M107.512 99.0244H104.683V101.854H107.512V99.0244Z" fill="black"/>
<path d="M107.512 96.1953H104.683V99.0246H107.512V96.1953Z" fill="black"/>
<path d="M107.512 87.707H104.683V90.5363H107.512V87.707Z" fill="black"/>
<path d="M107.512 82.0488H104.683V84.8781H107.512V82.0488Z" fill="black"/>
<path d="M107.512 73.5605H104.683V76.3898H107.512V73.5605Z" fill="black"/>
<path d="M107.512 67.9023H104.683V70.7316H107.512V67.9023Z" fill="black"/>
<path d="M107.512 62.2441H104.683V65.0734H107.512V62.2441Z" fill="black"/>
<path d="M107.512 59.415H104.683V62.2443H107.512V59.415Z" fill="black"/>
<path d="M107.512 48.0977H104.683V50.9269H107.512V48.0977Z" fill="black"/>
<path d="M107.512 45.2686H104.683V48.0978H107.512V45.2686Z" fill="black"/>
<path d="M107.512 42.4395H104.683V45.2687H107.512V42.4395Z" fill="black"/>
<path d="M107.512 31.1221H104.683V33.9513H107.512V31.1221Z" fill="black"/>
<path d="M107.512 28.293H104.683V31.1222H107.512V28.293Z" fill="black"/>
<path d="M107.512 22.6338H104.683V25.4631H107.512V22.6338Z" fill="black"/>
<path d="M107.512 16.9756H104.683V19.8049H107.512V16.9756Z" fill="black"/>
<path d="M107.512 11.3174H104.683V14.1467H107.512V11.3174Z" fill="black"/>
<path d="M107.512 8.48828H104.683V11.3175H107.512V8.48828Z" fill="black"/>
<path d="M107.512 5.6582H104.683V8.48747H107.512V5.6582Z" fill="black"/>
<path d="M107.512 0H104.683V2.82927H107.512V0Z" fill="black"/>
<path d="M110.341 113.171H107.512V116H110.341V113.171Z" fill="black"/>
<path d="M110.341 110.342H107.512V113.171H110.341V110.342Z" fill="black"/>
<path d="M110.341 101.854H107.512V104.683H110.341V101.854Z" fill="black"/>
<path d="M110.341 99.0244H107.512V101.854H110.341V99.0244Z" fill="black"/>
<path d="M110.341 84.8779H107.512V87.7072H110.341V84.8779Z" fill="black"/>
<path d="M110.341 82.0488H107.512V84.8781H110.341V82.0488Z" fill="black"/>
<path d="M110.341 79.2197H107.512V82.049H110.341V79.2197Z" fill="black"/>
<path d="M110.341 65.0732H107.512V67.9025H110.341V65.0732Z" fill="black"/>
<path d="M110.341 56.585H107.512V59.4142H110.341V56.585Z" fill="black"/>
<path d="M110.341 50.9268H107.512V53.756H110.341V50.9268Z" fill="black"/>
<path d="M110.341 39.6094H107.512V42.4386H110.341V39.6094Z" fill="black"/>
<path d="M110.341 31.1221H107.512V33.9513H110.341V31.1221Z" fill="black"/>
<path d="M110.341 28.293H107.512V31.1222H110.341V28.293Z" fill="black"/>
<path d="M110.341 25.4639H107.512V28.2931H110.341V25.4639Z" fill="black"/>
<path d="M110.341 16.9756H107.512V19.8049H110.341V16.9756Z" fill="black"/>
<path d="M110.341 11.3174H107.512V14.1467H110.341V11.3174Z" fill="black"/>
<path d="M110.341 8.48828H107.512V11.3175H110.341V8.48828Z" fill="black"/>
<path d="M110.341 5.6582H107.512V8.48747H110.341V5.6582Z" fill="black"/>
<path d="M110.341 0H107.512V2.82927H110.341V0Z" fill="black"/>
<path d="M113.171 110.342H110.341V113.171H113.171V110.342Z" fill="black"/>
<path d="M113.171 101.854H110.341V104.683H113.171V101.854Z" fill="black"/>
<path d="M113.171 99.0244H110.341V101.854H113.171V99.0244Z" fill="black"/>
<path d="M113.171 96.1953H110.341V99.0246H113.171V96.1953Z" fill="black"/>
<path d="M113.171 93.3662H110.341V96.1955H113.171V93.3662Z" fill="black"/>
<path d="M113.171 82.0488H110.341V84.8781H113.171V82.0488Z" fill="black"/>
<path d="M113.171 76.3906H110.341V79.2199H113.171V76.3906Z" fill="black"/>
<path d="M113.171 73.5605H110.341V76.3898H113.171V73.5605Z" fill="black"/>
<path d="M113.171 70.7314H110.341V73.5607H113.171V70.7314Z" fill="black"/>
<path d="M113.171 67.9023H110.341V70.7316H113.171V67.9023Z" fill="black"/>
<path d="M113.171 62.2441H110.341V65.0734H113.171V62.2441Z" fill="black"/>
<path d="M113.171 59.415H110.341V62.2443H113.171V59.415Z" fill="black"/>
<path d="M113.171 53.7559H110.341V56.5851H113.171V53.7559Z" fill="black"/>
<path d="M113.171 50.9268H110.341V53.756H113.171V50.9268Z" fill="black"/>
<path d="M113.171 48.0977H110.341V50.9269H113.171V48.0977Z" fill="black"/>
<path d="M113.171 42.4395H110.341V45.2687H113.171V42.4395Z" fill="black"/>
<path d="M113.171 36.7803H110.341V39.6095H113.171V36.7803Z" fill="black"/>
<path d="M113.171 31.1221H110.341V33.9513H113.171V31.1221Z" fill="black"/>
<path d="M113.171 28.293H110.341V31.1222H113.171V28.293Z" fill="black"/>
<path d="M113.171 22.6338H110.341V25.4631H113.171V22.6338Z" fill="black"/>
<path d="M113.171 16.9756H110.341V19.8049H113.171V16.9756Z" fill="black"/>
<path d="M113.171 0H110.341V2.82927H113.171V0Z" fill="black"/>
<path d="M116 110.342H113.171V113.171H116V110.342Z" fill="black"/>
<path d="M116 104.683H113.171V107.512H116V104.683Z" fill="black"/>
<path d="M116 101.854H113.171V104.683H116V101.854Z" fill="black"/>
<path d="M116 99.0244H113.171V101.854H116V99.0244Z" fill="black"/>
<path d="M116 96.1953H113.171V99.0246H116V96.1953Z" fill="black"/>
<path d="M116 90.5361H113.171V93.3654H116V90.5361Z" fill="black"/>
<path d="M116 82.0488H113.171V84.8781H116V82.0488Z" fill="black"/>
<path d="M116 79.2197H113.171V82.049H116V79.2197Z" fill="black"/>
<path d="M116 73.5605H113.171V76.3898H116V73.5605Z" fill="black"/>
<path d="M116 67.9023H113.171V70.7316H116V67.9023Z" fill="black"/>
<path d="M116 59.415H113.171V62.2443H116V59.415Z" fill="black"/>
<path d="M116 56.585H113.171V59.4142H116V56.585Z" fill="black"/>
<path d="M116 53.7559H113.171V56.5851H116V53.7559Z" fill="black"/>
<path d="M116 50.9268H113.171V53.756H116V50.9268Z" fill="black"/>
<path d="M116 28.293H113.171V31.1222H116V28.293Z" fill="black"/>
<path d="M116 25.4639H113.171V28.2931H116V25.4639Z" fill="black"/>
<path d="M116 22.6338H113.171V25.4631H116V22.6338Z" fill="black"/>
<path d="M116 16.9756H113.171V19.8049H116V16.9756Z" fill="black"/>
<path d="M116 14.1465H113.171V16.9758H116V14.1465Z" fill="black"/>
<path d="M116 11.3174H113.171V14.1467H116V11.3174Z" fill="black"/>
<path d="M116 8.48828H113.171V11.3175H116V8.48828Z" fill="black"/>
<path d="M116 5.6582H113.171V8.48747H116V5.6582Z" fill="black"/>
<path d="M116 2.8291H113.171V5.65837H116V2.8291Z" fill="black"/>
<path d="M116 0H113.171V2.82927H116V0Z" fill="black"/>
</g>
<defs>
<clipPath id="clip0_921_40887">
<rect width="116" height="116" fill="white"/>
</clipPath>
</defs>
</svg>
