<svg width="15" height="16" viewBox="0 0 15 16" fill="none" xmlns="http://www.w3.org/2000/svg">
<path d="M10.3242 6.3418H13.1367V3.5293" stroke="#645DF6" stroke-width="1.2" stroke-linecap="round" stroke-linejoin="round"/>
<path d="M3.85547 4.35541C4.33382 3.87636 4.90193 3.49631 5.5273 3.23701C6.15266 2.97771 6.82301 2.84424 7.5 2.84424C8.17699 2.84424 8.84734 2.97771 9.4727 3.23701C10.0981 3.49631 10.6662 3.87636 11.1445 4.35541L13.1367 6.34174" stroke="#645DF6" stroke-width="1.2" stroke-linecap="round" stroke-linejoin="round"/>
<path d="M4.67578 9.6582H1.86328V12.4707" stroke="#645DF6" stroke-width="1.2" stroke-linecap="round" stroke-linejoin="round"/>
<path d="M11.1445 11.6445C10.6662 12.1236 10.0981 12.5036 9.4727 12.7629C8.84734 13.0222 8.17699 13.1557 7.5 13.1557C6.82301 13.1557 6.15266 13.0222 5.5273 12.7629C4.90193 12.5036 4.33382 12.1236 3.85547 11.6445L1.86328 9.6582" stroke="#645DF6" stroke-width="1.2" stroke-linecap="round" stroke-linejoin="round"/>
</svg>
