<svg width="16" height="18" viewBox="0 0 16 18" fill="none" xmlns="http://www.w3.org/2000/svg">
<path d="M10.1427 6.92863L5.78925 9.1054M5.78925 9.1054C5.46089 8.44995 4.78299 8 4 8C2.89543 8 2 8.8954 2 10C2 11.1046 2.89543 12 4 12C4.78299 12 5.46089 11.5501 5.78925 10.8946M5.78925 9.1054C5.92411 9.3746 6 9.6784 6 10C6 10.3216 5.92411 10.6254 5.78925 10.8946M5.78925 10.8946L10.1427 13.0714M14 6C14 7.10457 13.1046 8 12 8C10.8954 8 10 7.10457 10 6C10 4.89543 10.8954 4 12 4C13.1046 4 14 4.89543 14 6ZM14 14C14 15.1046 13.1046 16 12 16C10.8954 16 10 15.1046 10 14C10 12.8954 10.8954 12 12 12C13.1046 12 14 12.8954 14 14Z" stroke="white" stroke-linecap="round"/>
<path d="M3 1L7 5M7 1L3 5" stroke="white"/>
</svg>
