<svg width="14" height="14" viewBox="0 0 14 14" fill="none" xmlns="http://www.w3.org/2000/svg">
<path d="M9.14273 3.92863L4.78925 6.1054M4.78925 6.1054C4.46089 5.44995 3.78299 5 3 5C1.89543 5 1 5.8954 1 7C1 8.1046 1.89543 9 3 9C3.78299 9 4.46089 8.55007 4.78925 7.8946M4.78925 6.1054C4.92411 6.3746 5 6.6784 5 7C5 7.3216 4.92411 7.6254 4.78925 7.8946M4.78925 7.8946L9.14273 10.0714M13 3C13 4.10457 12.1046 5 11 5C9.8954 5 9 4.10457 9 3C9 1.89543 9.8954 1 11 1C12.1046 1 13 1.89543 13 3ZM13 11C13 12.1046 12.1046 13 11 13C9.8954 13 9 12.1046 9 11C9 9.8954 9.8954 9 11 9C12.1046 9 13 9.8954 13 11Z" stroke="#645DF6" stroke-linecap="round"/>
</svg>
