<svg width="39" height="39" viewBox="0 0 39 39" fill="none" xmlns="http://www.w3.org/2000/svg">
<path d="M0.00195312 7.55567C0.00195312 3.68968 3.13596 0.555664 7.00195 0.555664H31.3106C35.1765 0.555664 38.3106 3.68967 38.3106 7.55566V38.6957H7.00195C3.13596 38.6957 0.00195312 35.5617 0.00195312 31.6957V7.55567Z" fill="url(#paint0_linear_3007_535)"/>
<path d="M27.9778 19.0293H25.0884C24.7053 19.0293 24.3378 19.1837 24.0669 19.4585C23.796 19.7334 23.6438 20.1061 23.6438 20.4948V24.1586C23.6438 24.5473 23.796 24.92 24.0669 25.1949C24.3378 25.4697 24.7053 25.6241 25.0884 25.6241H26.5331C26.9162 25.6241 27.2837 25.4697 27.5546 25.1949C27.8255 24.92 27.9778 24.5473 27.9778 24.1586V19.0293ZM27.9778 19.0293C27.9778 17.8684 27.7512 16.7189 27.3111 15.6473C26.871 14.5756 26.226 13.603 25.4135 12.7855C24.6009 11.9681 23.6368 11.3219 22.5768 10.8843C21.5168 10.4468 20.3819 10.2265 19.2375 10.2361C18.0939 10.2277 16.96 10.4489 15.901 10.887C14.8421 11.3251 13.8791 11.9715 13.0674 12.7888C12.2558 13.6062 11.6117 14.5784 11.1722 15.6494C10.7326 16.7204 10.5063 17.8691 10.5063 19.0293V24.1586C10.5063 24.5473 10.6586 24.92 10.9295 25.1949C11.2004 25.4697 11.5679 25.6241 11.951 25.6241H13.3957C13.7788 25.6241 14.1463 25.4697 14.4172 25.1949C14.6881 24.92 14.8403 24.5473 14.8403 24.1586V20.4948C14.8403 20.1061 14.6881 19.7334 14.4172 19.4585C14.1463 19.1837 13.7788 19.0293 13.3957 19.0293H10.5063" stroke="white" stroke-width="1.2" stroke-linecap="round" stroke-linejoin="round"/>
<path d="M27.9781 24.1582V26.3565C27.9781 27.1338 27.6737 27.8794 27.1318 28.429C26.5899 28.9787 25.855 29.2875 25.0887 29.2875H19.897" stroke="white" stroke-width="1.2" stroke-linecap="round" stroke-linejoin="round"/>
<defs>
<linearGradient id="paint0_linear_3007_535" x1="38.7623" y1="42.9753" x2="3.65085" y2="7.35364" gradientUnits="userSpaceOnUse">
<stop stop-color="#FFC531"/>
<stop offset="1" stop-color="#F99500"/>
</linearGradient>
</defs>
</svg>
