<svg width="41" height="41" viewBox="0 0 41 41" fill="none" xmlns="http://www.w3.org/2000/svg">
<circle cx="20.5" cy="20.5" r="20.5" fill="black"/>
<path d="M10 19.9375C10 21.1594 10.9344 22.0937 12.1562 22.0937C13.3781 22.0937 14.3125 21.1594 14.3125 19.9375C14.3125 18.7156 13.3781 17.7812 12.1562 17.7812C10.9344 17.7812 10 18.7156 10 19.9375Z" fill="white"/>
<path d="M12.947 24.0343C12.1563 24.825 12.1563 26.2625 12.947 27.0531C13.8095 27.9156 15.1751 27.9156 15.9657 27.0531C16.397 26.6218 16.6126 26.1187 16.6126 25.5437C16.6126 24.9687 16.397 24.3937 15.9657 24.0343C15.1751 23.1718 13.8095 23.1718 12.947 24.0343Z" fill="white"/>
<path d="M20.0625 25.6875C18.8406 25.6875 17.9062 26.6219 17.9062 27.8438C17.9062 29.0656 18.8406 30 20.0625 30C21.2844 30 22.2187 29.0656 22.2187 27.8437C22.2187 26.6219 21.2844 25.6875 20.0625 25.6875Z" fill="white"/>
<path d="M24.1591 27.0531C25.0216 27.9156 26.3872 27.9156 27.1778 27.0531C27.6091 26.6218 27.8247 26.1187 27.8247 25.5437C27.8247 24.9687 27.6091 24.3937 27.1778 24.0343C26.3153 23.1718 24.9497 23.1718 24.1591 24.0343C23.2966 24.825 23.2966 26.2625 24.1591 27.0531Z" fill="white"/>
<path d="M25.8125 19.9375C25.8125 21.1594 26.7469 22.0937 27.9688 22.0937C29.1906 22.0937 30.125 21.1594 30.125 19.9375C30.125 18.7156 29.1906 17.7812 27.9687 17.7812C26.7469 17.7812 25.8125 18.7156 25.8125 19.9375Z" fill="white"/>
<path d="M24.1591 15.8407C25.0216 16.7032 26.3872 16.7032 27.1778 15.8407C27.6091 15.4094 27.8247 14.9063 27.8247 14.3313C27.8247 13.7563 27.6091 13.1813 27.1778 12.8219C26.3153 11.9594 24.9497 11.9594 24.1591 12.8219C23.2966 13.6125 23.2966 15.05 24.1591 15.8407Z" fill="white"/>
<path d="M17.9062 12.0312C17.9062 13.2531 18.8406 14.1875 20.0625 14.1875C21.2844 14.1875 22.2187 13.2531 22.2187 12.0312C22.2187 10.8094 21.2844 9.875 20.0625 9.875C18.8406 9.875 17.9062 10.8094 17.9062 12.0312Z" fill="white"/>
<path d="M16.6126 14.3313C16.6126 13.7563 16.397 13.1813 15.9657 12.8219C15.1032 11.9594 13.7376 11.9594 12.947 12.8219C12.1563 13.6125 12.1563 15.05 12.947 15.8407C13.8095 16.7032 15.1751 16.7032 15.9657 15.8407C16.397 15.4813 16.6126 14.9063 16.6126 14.3313Z" fill="white"/>
</svg>
