<svg width="15" height="15" viewBox="0 0 15 15" fill="none" xmlns="http://www.w3.org/2000/svg">
<g clip-path="url(#clip0_949_19600)">
<path d="M7.5 0H6.8236V3.56646H8.17597V1.38979C11.2748 1.72719 13.6467 4.33718 13.6467 7.50004C13.6467 10.8899 10.8891 13.6475 7.5 13.6475C4.11082 13.6475 1.35329 10.8899 1.35329 7.50004C1.35329 6.11264 1.80411 4.8035 2.65652 3.71451L2.89487 3.41089L1.82937 2.57705L1.59154 2.88072C0.550352 4.21013 0 5.80762 0 7.5C0 11.6353 3.36431 15 7.5 15C11.6353 15 15 11.6358 15 7.5C15 3.36431 11.6353 0 7.5 0Z" fill="#2D50C8"/>
<path d="M6.42181 8.64862C6.66684 8.94239 7.01114 9.12279 7.39039 9.15665C7.43418 9.16081 7.47794 9.1629 7.52095 9.1629C8.2527 9.1629 8.87802 8.59106 8.94369 7.862C8.97807 7.48224 8.86235 7.1112 8.61762 6.81708C8.37259 6.52295 8.02855 6.3423 7.64826 6.30766C7.52325 6.29672 7.39646 6.30336 7.26173 6.32984L3.13086 2.8291L6.16532 7.28852C6.12717 7.39955 6.10395 7.50316 6.09479 7.60404C6.06045 7.98372 6.17657 8.35489 6.42181 8.64862Z" fill="#2D50C8"/>
</g>
<defs>
<clipPath id="clip0_949_19600">
<rect width="15" height="15" fill="white"/>
</clipPath>
</defs>
</svg>
