<svg width="24" height="25" viewBox="0 0 24 25" fill="none" xmlns="http://www.w3.org/2000/svg">
<rect x="7" width="16.1778" height="16.1778" rx="8.08889" fill="#F6DDEF"/>
<path fill-rule="evenodd" clip-rule="evenodd" d="M9.09813 5H10C15.5137 5 20 9.48575 20 15C20 20.5144 15.5137 25 10 25C4.48575 25 0 20.5137 0 15C0 12.7435 0.733802 10.6135 2.12206 8.84096L2.43916 8.43606L3.85983 9.54785L3.54203 9.95269C2.40547 11.4047 1.80438 13.1502 1.80438 15.0001C1.80438 19.5199 5.48109 23.1967 10 23.1967C14.5187 23.1967 18.1956 19.5199 18.1956 15.0001C18.1956 10.7829 15.0331 7.30292 10.9013 6.85305V9.75527H9.09813V5ZM9.85417 17.2092C9.34852 17.164 8.88945 16.9235 8.56274 16.5318C8.23575 16.1402 8.08093 15.6453 8.12671 15.139C8.13892 15.0045 8.16988 14.8664 8.22076 14.7183L4.1748 8.77246L9.68263 13.4401C9.86228 13.4048 10.0313 13.396 10.198 13.4105C10.7051 13.4567 11.1638 13.6976 11.4905 14.0898C11.8168 14.4819 11.9711 14.9766 11.9252 15.483C11.8377 16.4551 11.0039 17.2175 10.0283 17.2175C9.97091 17.2175 9.91257 17.2147 9.85417 17.2092Z" fill="url(#paint0_linear_949_20607)"/>
<defs>
<linearGradient id="paint0_linear_949_20607" x1="10" y1="5" x2="10" y2="25" gradientUnits="userSpaceOnUse">
<stop stop-color="#000AFF"/>
<stop offset="1" stop-color="#D274FF"/>
</linearGradient>
</defs>
</svg>
