<svg width="41" height="44" viewBox="0 0 41 44" fill="none" xmlns="http://www.w3.org/2000/svg">
<circle cx="30" cy="11" r="11" fill="#F6DDEF"/>
<g clip-path="url(#clip0_1_128776)">
<path d="M9.91632 21.8334H16.9163C17.2383 21.8334 17.4996 21.572 17.4996 21.2501C17.4996 20.9281 17.2383 20.6667 16.9163 20.6667H9.91632C9.59435 20.6667 9.33301 20.9281 9.33301 21.2501C9.33301 21.572 9.59428 21.8334 9.91632 21.8334Z" fill="url(#paint0_linear_1_128776)"/>
<path d="M32.0833 13.6667C31.7607 13.6667 31.5 13.9281 31.5 14.2501C31.5 14.572 31.7607 14.8334 32.0833 14.8334C33.0481 14.8334 33.8333 15.6185 33.8333 16.5834V41.0834C33.8333 42.0482 33.0481 42.8334 32.0833 42.8334H2.91669C1.95187 42.8334 1.16669 42.0482 1.16669 41.0834V16.5834C1.16669 15.6185 1.95187 14.8334 2.91669 14.8334C3.23866 14.8334 3.5 14.572 3.5 14.2501C3.5 13.9281 3.23866 13.6667 2.91669 13.6667C1.3084 13.6667 0 14.9751 0 16.5834V41.0834C0 42.6917 1.3084 44.0001 2.91669 44.0001H32.0834C33.6916 44.0001 35 42.6917 35 41.0834V16.5834C35 14.9751 33.6916 13.6667 32.0833 13.6667Z" fill="url(#paint1_linear_1_128776)"/>
<path d="M15.1663 29.4167C15.1663 29.0947 14.905 28.8334 14.583 28.8334H9.91632C9.59435 28.8334 9.33301 29.0947 9.33301 29.4167C9.33301 29.7387 9.59435 30 9.91632 30H14.583C14.905 30 15.1663 29.7387 15.1663 29.4167Z" fill="url(#paint2_linear_1_128776)"/>
<path d="M13.4163 33.5H15.7496C16.0716 33.5 16.3329 33.2387 16.3329 32.9167C16.3329 32.5947 16.0716 32.3334 15.7496 32.3334H13.4163C13.0943 32.3334 12.833 32.5947 12.833 32.9167C12.833 33.2387 13.0943 33.5 13.4163 33.5Z" fill="url(#paint3_linear_1_128776)"/>
<path d="M5.2503 30C5.57228 30 5.83361 29.7387 5.83361 29.4167V14.8333H27.4169C27.7395 14.8333 28.0002 14.572 28.0002 14.25C28.0002 13.928 27.7395 13.6667 27.4169 13.6667H5.83361V12.5H27.4169C27.7395 12.5 28.0002 12.2387 28.0002 11.9167C28.0002 11.5947 27.7395 11.3334 27.4169 11.3334H5.83361V10.75C5.83361 10.4502 6.1171 10.1667 6.41692 10.1667H28.5836C28.894 10.1667 29.1669 10.4391 29.1669 10.75V29.4167C29.1669 29.7387 29.4276 30 29.7502 30C30.0728 30 30.3335 29.7387 30.3335 29.4167V10.75C30.3335 9.80151 29.532 9 28.5835 9H6.41699C5.46851 9 4.66699 9.80151 4.66699 10.75V29.4167C4.66699 29.7387 4.92833 30 5.2503 30Z" fill="url(#paint4_linear_1_128776)"/>
<path d="M17.4996 25.9167C17.4996 25.5947 17.2383 25.3334 16.9163 25.3334H9.91632C9.59435 25.3334 9.33301 25.5947 9.33301 25.9167C9.33301 26.2387 9.59435 26.5 9.91632 26.5H16.9163C17.2383 26.5 17.4996 26.2387 17.4996 25.9167Z" fill="url(#paint5_linear_1_128776)"/>
<path d="M16.9163 30H20.4163C20.7389 30 20.9996 29.7387 20.9996 29.4167C20.9996 29.0947 20.7389 28.8334 20.4163 28.8334H16.9163C16.5943 28.8334 16.333 29.0947 16.333 29.4167C16.333 29.7387 16.5943 30 16.9163 30Z" fill="url(#paint6_linear_1_128776)"/>
<path d="M22.7503 30H25.0836C25.4062 30 25.6669 29.7387 25.6669 29.4167C25.6669 29.0947 25.4062 28.8334 25.0836 28.8334H22.7503C22.4277 28.8334 22.167 29.0947 22.167 29.4167C22.167 29.7387 22.4277 30 22.7503 30Z" fill="url(#paint7_linear_1_128776)"/>
<path d="M3.49963 17.7501C3.49963 17.4281 3.23829 17.1667 2.91632 17.1667C2.59435 17.1667 2.33301 17.4281 2.33301 17.7501V30.5834C2.33301 31.5482 3.11818 32.3334 4.08301 32.3334H10.4996V35.2501C10.4996 36.2149 11.2848 37.0001 12.2496 37.0001H22.7496C23.6981 37.0001 24.4996 36.1985 24.4996 35.2501V32.3334H30.9163C31.8811 32.3334 32.6663 31.5482 32.6663 30.5834V17.7501C32.6663 17.4281 32.4056 17.1667 32.083 17.1667C31.7604 17.1667 31.4996 17.4281 31.4996 17.7501V30.5834C31.4996 30.9048 31.2383 31.1667 30.9163 31.1667H23.9163C23.5937 31.1667 23.333 31.428 23.333 31.75V35.2501C23.333 35.561 23.06 35.8334 22.7497 35.8334H12.2496C11.9282 35.8334 11.6663 35.5715 11.6663 35.2501V31.7501C11.6663 31.4281 11.405 31.1667 11.083 31.1667H4.08301C3.76158 31.1667 3.4997 30.9049 3.4997 30.5834V17.7501H3.49963Z" fill="url(#paint8_linear_1_128776)"/>
<path d="M18.0833 33.5H21.5833C21.9059 33.5 22.1666 33.2387 22.1666 32.9167C22.1666 32.5947 21.9059 32.3334 21.5833 32.3334H18.0833C17.7613 32.3334 17.5 32.5947 17.5 32.9167C17.5 33.2387 17.7613 33.5 18.0833 33.5Z" fill="url(#paint9_linear_1_128776)"/>
<path d="M24.5003 25.9167C24.5003 25.5947 24.2396 25.3334 23.917 25.3334H19.2503C18.9277 25.3334 18.667 25.5947 18.667 25.9167C18.667 26.2387 18.9277 26.5 19.2503 26.5H23.917C24.2396 26.5 24.5003 26.2387 24.5003 25.9167Z" fill="url(#paint10_linear_1_128776)"/>
</g>
<defs>
<linearGradient id="paint0_linear_1_128776" x1="13.4163" y1="20.6667" x2="13.4163" y2="21.8334" gradientUnits="userSpaceOnUse">
<stop stop-color="#2400FF"/>
<stop offset="1" stop-color="#E26FFF"/>
</linearGradient>
<linearGradient id="paint1_linear_1_128776" x1="17.5" y1="13.6667" x2="17.5" y2="44.0001" gradientUnits="userSpaceOnUse">
<stop stop-color="#2400FF"/>
<stop offset="1" stop-color="#E26FFF"/>
</linearGradient>
<linearGradient id="paint2_linear_1_128776" x1="12.2497" y1="28.8334" x2="12.2497" y2="30" gradientUnits="userSpaceOnUse">
<stop stop-color="#2400FF"/>
<stop offset="1" stop-color="#E26FFF"/>
</linearGradient>
<linearGradient id="paint3_linear_1_128776" x1="14.583" y1="32.3334" x2="14.583" y2="33.5" gradientUnits="userSpaceOnUse">
<stop stop-color="#2400FF"/>
<stop offset="1" stop-color="#E26FFF"/>
</linearGradient>
<linearGradient id="paint4_linear_1_128776" x1="17.5003" y1="9" x2="17.5003" y2="30" gradientUnits="userSpaceOnUse">
<stop stop-color="#2400FF"/>
<stop offset="1" stop-color="#E26FFF"/>
</linearGradient>
<linearGradient id="paint5_linear_1_128776" x1="13.4163" y1="25.3334" x2="13.4163" y2="26.5" gradientUnits="userSpaceOnUse">
<stop stop-color="#2400FF"/>
<stop offset="1" stop-color="#E26FFF"/>
</linearGradient>
<linearGradient id="paint6_linear_1_128776" x1="18.6663" y1="28.8334" x2="18.6663" y2="30" gradientUnits="userSpaceOnUse">
<stop stop-color="#2400FF"/>
<stop offset="1" stop-color="#E26FFF"/>
</linearGradient>
<linearGradient id="paint7_linear_1_128776" x1="23.917" y1="28.8334" x2="23.917" y2="30" gradientUnits="userSpaceOnUse">
<stop stop-color="#2400FF"/>
<stop offset="1" stop-color="#E26FFF"/>
</linearGradient>
<linearGradient id="paint8_linear_1_128776" x1="17.4997" y1="17.1667" x2="17.4997" y2="37.0001" gradientUnits="userSpaceOnUse">
<stop stop-color="#2400FF"/>
<stop offset="1" stop-color="#E26FFF"/>
</linearGradient>
<linearGradient id="paint9_linear_1_128776" x1="19.8333" y1="32.3334" x2="19.8333" y2="33.5" gradientUnits="userSpaceOnUse">
<stop stop-color="#2400FF"/>
<stop offset="1" stop-color="#E26FFF"/>
</linearGradient>
<linearGradient id="paint10_linear_1_128776" x1="21.5836" y1="25.3334" x2="21.5836" y2="26.5" gradientUnits="userSpaceOnUse">
<stop stop-color="#2400FF"/>
<stop offset="1" stop-color="#E26FFF"/>
</linearGradient>
<clipPath id="clip0_1_128776">
<rect width="35" height="35" fill="white" transform="translate(0 9)"/>
</clipPath>
</defs>
</svg>
