<svg width="29" height="29" viewBox="0 0 29 29" fill="none" xmlns="http://www.w3.org/2000/svg">
<rect x="13" width="16" height="16" rx="8" fill="#F6DDEF"/>
<path fill-rule="evenodd" clip-rule="evenodd" d="M10.8749 3.93115C10.4754 3.93115 10.0923 4.08985 9.80982 4.37232C9.52735 4.6548 9.36865 5.03792 9.36865 5.4374V6.34365C9.36865 6.67502 9.63728 6.94365 9.96865 6.94365C10.3 6.94365 10.5687 6.67502 10.5687 6.34365V5.4374C10.5687 5.35618 10.6009 5.27828 10.6584 5.22085C10.7158 5.16342 10.7937 5.13115 10.8749 5.13115H23.5624C23.6436 5.13115 23.7215 5.16342 23.779 5.22085C23.8364 5.27828 23.8687 5.35618 23.8687 5.4374V17.2187C23.8687 17.2999 23.8364 17.3778 23.779 17.4352C23.7215 17.4926 23.6436 17.5249 23.5624 17.5249H10.5109L12.2054 15.8304C12.4397 15.5961 12.4397 15.2162 12.2054 14.9819C11.9711 14.7476 11.5912 14.7476 11.3569 14.9819L8.63866 17.7001L8.63814 17.7006C8.58061 17.7582 8.53721 17.8245 8.50793 17.8952C8.47859 17.966 8.4624 18.0435 8.4624 18.1249C8.4624 18.2063 8.47859 18.2838 8.50793 18.3546C8.53654 18.4237 8.57865 18.4886 8.63424 18.5452M8.63866 18.5497L11.3569 21.2679C11.5912 21.5022 11.9711 21.5022 12.2054 21.2679C12.4397 21.0336 12.4397 20.6537 12.2054 20.4194L10.5109 18.7249H23.5624C23.9619 18.7249 24.345 18.5662 24.6275 18.2837C24.91 18.0013 25.0687 17.6181 25.0687 17.2187V5.4374C25.0687 5.03792 24.91 4.6548 24.6275 4.37232C24.345 4.08985 23.9619 3.93115 23.5624 3.93115H10.8749" fill="url(#paint0_linear_823_35702)"/>
<path fill-rule="evenodd" clip-rule="evenodd" d="M17.6429 7.73189C17.4086 7.49757 17.0287 7.49757 16.7944 7.73189C16.5601 7.9662 16.5601 8.3461 16.7944 8.58042L18.4889 10.2749H5.4374C5.03792 10.2749 4.6548 10.4336 4.37232 10.7161C4.08985 10.9985 3.93115 11.3817 3.93115 11.7812V23.5624C3.93115 23.9619 4.08985 24.345 4.37232 24.6275C4.6548 24.91 5.03792 25.0687 5.4374 25.0687H18.1249C18.5244 25.0687 18.9075 24.91 19.19 24.6275C19.4725 24.345 19.6312 23.9619 19.6312 23.5624V22.6562C19.6312 22.3248 19.3625 22.0562 19.0312 22.0562C18.6998 22.0562 18.4312 22.3248 18.4312 22.6562V23.5624C18.4312 23.6436 18.3989 23.7215 18.3415 23.779C18.284 23.8364 18.2061 23.8687 18.1249 23.8687H5.4374C5.35618 23.8687 5.27828 23.8364 5.22085 23.779C5.16342 23.7215 5.13115 23.6436 5.13115 23.5624V11.7812C5.13115 11.6999 5.16342 11.622 5.22085 11.5646C5.27828 11.5072 5.35618 11.4749 5.4374 11.4749H18.4889L16.7944 13.1694C16.5601 13.4037 16.5601 13.7836 16.7944 14.0179C17.0287 14.2522 17.4086 14.2522 17.6429 14.0179L20.3617 11.2992C20.4788 11.182 20.5374 11.0285 20.5374 10.8749C20.5374 10.7935 20.5212 10.716 20.4919 10.6452C20.4626 10.5745 20.4192 10.5082 20.3617 10.4506L17.6429 7.73189Z" fill="url(#paint1_linear_823_35702)"/>
<defs>
<linearGradient id="paint0_linear_823_35702" x1="16.7655" y1="3.93115" x2="16.7655" y2="21.4437" gradientUnits="userSpaceOnUse">
<stop stop-color="#000AFF"/>
<stop offset="1" stop-color="#D274FF"/>
</linearGradient>
<linearGradient id="paint1_linear_823_35702" x1="12.2343" y1="7.55615" x2="12.2343" y2="25.0687" gradientUnits="userSpaceOnUse">
<stop stop-color="#000AFF"/>
<stop offset="1" stop-color="#D274FF"/>
</linearGradient>
</defs>
</svg>
