<svg width="32" height="27" viewBox="0 0 32 27" fill="none" xmlns="http://www.w3.org/2000/svg">
<rect x="15" width="16.1778" height="16.1778" rx="8.08889" fill="#F6DDEF"/>
<path d="M27.4038 11.5289H22.1568V5.80521C22.1568 5.47591 21.8898 5.20898 21.5606 5.20898H0.596222C0.266988 5.20898 0 5.47591 0 5.80521V19.876C0 20.2053 0.266988 20.4723 0.596222 20.4723H5.84297V26.196C5.84297 26.5253 6.10996 26.7922 6.43919 26.7922H27.4038C27.733 26.7922 28 26.5253 28 26.196V12.1252C28 11.7959 27.733 11.5289 27.4038 11.5289ZM26.8076 13.6065H7.03542V12.7214H26.8076V13.6065ZM20.9643 6.40143V7.28658H1.19244V6.40143H20.9643ZM1.19244 19.2798V8.47902H20.9643V11.5289H6.43919C6.10996 11.5289 5.84297 11.7959 5.84297 12.1252V19.2798H1.19244ZM7.03542 25.5998V14.799H26.8076V25.5998H7.03542Z" fill="url(#paint0_linear_949_19563)"/>
<defs>
<linearGradient id="paint0_linear_949_19563" x1="14" y1="5.20898" x2="14" y2="26.7922" gradientUnits="userSpaceOnUse">
<stop stop-color="#000AFF"/>
<stop offset="1" stop-color="#D274FF"/>
</linearGradient>
</defs>
</svg>
