<svg width="16" height="16" viewBox="0 0 16 16" fill="none" xmlns="http://www.w3.org/2000/svg">
<g clip-path="url(#clip0_949_19596)">
<path d="M8.47019 4.67774V2.15319C8.47019 1.89331 8.2595 1.68262 7.99962 1.68262C7.73974 1.68262 7.52905 1.89331 7.52905 2.15319V4.48283L6.82532 5.18651C6.64156 5.37027 6.64156 5.66829 6.82532 5.85205C6.91722 5.9439 7.03763 5.98985 7.15809 5.98985C7.27854 5.98985 7.39895 5.9439 7.49085 5.85205L8.33239 5.01051C8.42063 4.92221 8.47019 4.80251 8.47019 4.67774Z" fill="#2D50C8"/>
<path d="M14.3738 12.3711V11.3764C14.3738 11.1166 14.1631 10.9059 13.9032 10.9059H8.46981V9.33274C10.8292 9.09597 12.6774 7.09894 12.6774 4.67819C12.6774 2.09864 10.5788 0 7.99924 0C5.41963 0 3.32104 2.09864 3.32104 4.67819C3.32104 7.09894 5.16923 9.09597 7.52866 9.33274V10.9059H2.09529C1.83541 10.9059 1.62472 11.1166 1.62472 11.3764V12.3711C0.819922 12.5678 0.220703 13.2947 0.220703 14.1591C0.220703 15.1741 1.04651 15.9999 2.06151 15.9999C3.07651 15.9999 3.90232 15.1741 3.90232 14.1591C3.90232 13.319 3.33639 12.609 2.56586 12.3891V11.847H7.52861V12.3795C6.74084 12.588 6.15837 13.3067 6.15837 14.1591C6.15837 15.1741 6.98418 15.9999 7.99918 15.9999C9.01418 15.9999 9.83999 15.1741 9.83999 14.1591C9.83999 13.3067 9.25752 12.588 8.46975 12.3795V11.847H13.4325V12.3891C12.662 12.609 12.096 13.319 12.096 14.1591C12.096 15.1741 12.9218 15.9999 13.9369 15.9999C14.9519 15.9999 15.7777 15.1741 15.7777 14.1591C15.7778 13.2947 15.1785 12.5678 14.3738 12.3711ZM4.26218 4.67819C4.26218 2.61759 5.93858 0.941145 7.99924 0.941145C10.0599 0.941145 11.7363 2.61753 11.7363 4.67819C11.7363 6.73885 10.0599 8.41525 7.99924 8.41525C5.93858 8.41525 4.26218 6.7388 4.26218 4.67819ZM2.96117 14.1592C2.96117 14.6552 2.55757 15.0589 2.06151 15.0589C1.56546 15.0589 1.16185 14.6552 1.16185 14.1592C1.16185 13.6631 1.56546 13.2595 2.06151 13.2595C2.55757 13.2595 2.96117 13.6631 2.96117 14.1592ZM8.8989 14.1592C8.8989 14.6552 8.49529 15.0589 7.99924 15.0589C7.50318 15.0589 7.09957 14.6552 7.09957 14.1592C7.09957 13.6631 7.50318 13.2595 7.99924 13.2595C8.49529 13.2595 8.8989 13.6631 8.8989 14.1592ZM13.937 15.0588C13.4409 15.0588 13.0373 14.6552 13.0373 14.1591C13.0373 13.6631 13.4409 13.2595 13.937 13.2595C14.433 13.2595 14.8366 13.6631 14.8366 14.1591C14.8366 14.6552 14.433 15.0588 13.937 15.0588Z" fill="#2D50C8"/>
</g>
<defs>
<clipPath id="clip0_949_19596">
<rect width="16" height="16" fill="white"/>
</clipPath>
</defs>
</svg>
