<svg width="23" height="25" viewBox="0 0 23 25" fill="none" xmlns="http://www.w3.org/2000/svg">
<rect x="6.7793" width="16.1778" height="16.1778" rx="8.08889" fill="#F6DDEF"/>
<path fill-rule="evenodd" clip-rule="evenodd" d="M17.6914 19.2206V20.464C18.6974 20.7098 19.4464 21.6184 19.4463 22.699C19.4463 23.9677 18.414 25 17.1453 25C15.8765 25 14.8442 23.9677 14.8442 22.699C14.8442 21.6488 15.5517 20.7613 16.5148 20.4865V19.8088H10.3114V20.4744C11.2961 20.735 12.0242 21.6334 12.0242 22.6989C12.0242 23.9677 10.9919 24.9999 9.72314 24.9999C8.45438 24.9999 7.42212 23.9677 7.42212 22.6989C7.42212 21.6335 8.1502 20.735 9.13492 20.4744V19.8088H2.93146V20.4865C3.89463 20.7613 4.60204 21.6488 4.60204 22.699C4.60204 23.9677 3.56978 25 2.30102 25C1.03226 25 0 23.9677 0 22.699C0 21.6184 0.749026 20.7098 1.75502 20.464V19.2206C1.75502 18.8957 2.01839 18.6324 2.34324 18.6324H9.13498V16.666C6.18568 16.37 3.87544 13.8737 3.87544 10.8478C3.87544 7.62331 6.49868 5 9.7232 5C12.9477 5 15.571 7.62331 15.571 10.8478C15.571 13.8737 13.2607 16.37 10.3114 16.666V18.6324H17.1032C17.428 18.6324 17.6914 18.8957 17.6914 19.2206ZM9.7232 6.17644C7.14737 6.17644 5.05187 8.272 5.05187 10.8478C5.05187 13.4235 7.14737 15.5191 9.7232 15.5191C12.299 15.5191 14.3945 13.4236 14.3945 10.8478C14.3945 8.27193 12.299 6.17644 9.7232 6.17644ZM2.30102 23.8236C2.92109 23.8236 3.4256 23.3191 3.4256 22.6991C3.4256 22.079 2.92109 21.5745 2.30102 21.5745C1.68095 21.5745 1.17644 22.079 1.17644 22.6991C1.17644 23.3191 1.68095 23.8236 2.30102 23.8236ZM9.7232 23.8236C10.3433 23.8236 10.8478 23.3191 10.8478 22.6991C10.8478 22.079 10.3433 21.5745 9.7232 21.5745C9.10313 21.5745 8.59862 22.079 8.59862 22.6991C8.59862 23.3191 9.10313 23.8236 9.7232 23.8236ZM16.0208 22.699C16.0208 23.3191 16.5253 23.8236 17.1454 23.8236C17.7655 23.8236 18.27 23.3191 18.27 22.699C18.27 22.0789 17.7655 21.5744 17.1454 21.5744C16.5253 21.5744 16.0208 22.0789 16.0208 22.699ZM10.3114 7.69206V10.8478C10.3114 11.0037 10.2495 11.1534 10.1392 11.2637L9.08724 12.3157C8.97236 12.4305 8.82185 12.4879 8.67128 12.4879C8.5207 12.4879 8.3702 12.4305 8.25532 12.3157C8.02562 12.086 8.02562 11.7134 8.25532 11.4837L9.13498 10.6041V7.69206C9.13498 7.36721 9.39835 7.10385 9.7232 7.10385C10.0481 7.10385 10.3114 7.36721 10.3114 7.69206Z" fill="url(#paint0_linear_949_20588)"/>
<defs>
<linearGradient id="paint0_linear_949_20588" x1="9.72313" y1="5" x2="9.72313" y2="25" gradientUnits="userSpaceOnUse">
<stop stop-color="#000AFF"/>
<stop offset="1" stop-color="#D274FF"/>
</linearGradient>
</defs>
</svg>
