<svg width="26" height="24" viewBox="0 0 26 24" fill="none" xmlns="http://www.w3.org/2000/svg">
<rect x="9" width="16.1778" height="16.1778" rx="8.08889" fill="#F6DDEF"/>
<path fill-rule="evenodd" clip-rule="evenodd" d="M12.5094 15.8991C13.0159 16.1897 13.602 16.3569 14.2268 16.3569C16.136 16.3569 17.6893 14.8037 17.6893 12.8944C17.6893 10.9852 16.136 9.43192 14.2268 9.43192C14.1883 9.43192 14.1501 9.43332 14.1119 9.43472L14.1118 9.43472L14.1007 9.43513C13.7463 8.00247 12.9506 6.70355 11.8205 5.7306C10.5242 4.6146 8.86722 4 7.15464 4C3.20957 4 0 7.20957 0 11.1546C0 15.0997 3.20957 18.3093 7.15464 18.3093C8.30144 18.3093 9.39715 18.0459 10.4114 17.5266C11.2018 17.1219 11.9179 16.5651 12.5094 15.8991ZM16.4522 12.8944C16.4522 14.1215 15.4539 15.1198 14.2268 15.1198C12.9997 15.1198 12.0014 14.1215 12.0014 12.8944C12.0014 11.6673 12.9997 10.669 14.2268 10.669C15.4539 10.669 16.4522 11.6673 16.4522 12.8944ZM1.23711 11.1546C1.23711 7.89171 3.89171 5.23711 7.15464 5.23711C9.90342 5.23711 12.2385 7.08458 12.8926 9.69959C11.6438 10.2231 10.7643 11.4578 10.7643 12.8944C10.7643 13.7334 11.0645 14.5036 11.5628 15.1035C10.4407 16.3609 8.8614 17.0722 7.15464 17.0722C3.89171 17.0722 1.23711 14.4176 1.23711 11.1546ZM6.53608 10.5297L2.67938 10.5361L2.68144 11.7732L7.7732 11.7648V6.68041H6.53608V10.5297ZM8.45361 23.3814C8.45361 20.1981 11.0435 17.6082 14.2268 17.6082C17.4101 17.6082 20 20.1981 20 23.3814V24H8.45361V23.3814ZM13.6082 18.8875C11.6009 19.1624 10.0076 20.7555 9.73274 22.7629H18.7209C18.446 20.7555 16.8527 19.1624 14.8454 18.8875V21.732H13.6082V18.8875Z" fill="url(#paint0_linear_949_20568)"/>
<defs>
<linearGradient id="paint0_linear_949_20568" x1="10" y1="4" x2="10" y2="24" gradientUnits="userSpaceOnUse">
<stop stop-color="#000AFF"/>
<stop offset="1" stop-color="#D274FF"/>
</linearGradient>
</defs>
</svg>
