<svg width="18" height="18" viewBox="0 0 18 18" fill="none" xmlns="http://www.w3.org/2000/svg">
<g clip-path="url(#clip0_949_19579)">
<path d="M11.2584 10.7091C11.7143 10.9708 12.2418 11.1213 12.8041 11.1213C14.5224 11.1213 15.9204 9.7233 15.9204 8.00499C15.9204 6.28668 14.5224 4.88873 12.8041 4.88873C12.766 4.88873 12.7283 4.89025 12.6906 4.89162C12.3716 3.60223 11.6555 2.43319 10.6384 1.55754C9.47179 0.553138 7.98049 0 6.43918 0C2.88861 0 0 2.88861 0 6.43918C0 9.98974 2.88861 12.8784 6.43918 12.8784C7.4713 12.8784 8.45744 12.6413 9.37028 12.174C10.0816 11.8097 10.7261 11.3086 11.2584 10.7091ZM14.807 8.00495C14.807 9.10934 13.9085 10.0078 12.8041 10.0078C11.6997 10.0078 10.8013 9.10934 10.8013 8.00495C10.8013 6.90057 11.6997 6.00213 12.8041 6.00213C13.9085 6.00213 14.807 6.90061 14.807 8.00495ZM1.1134 6.43918C1.1134 3.50254 3.50254 1.1134 6.43918 1.1134C8.91308 1.1134 11.0146 2.77612 11.6034 5.12963C10.4795 5.60075 9.68786 6.71203 9.68786 8.00495C9.68786 8.7601 9.95801 9.45323 10.4065 9.99315C9.39667 11.1248 7.97526 11.7649 6.43918 11.7649C3.50254 11.7649 1.1134 9.37581 1.1134 6.43918Z" fill="#2D50C8"/>
<path d="M5.88314 5.8765L2.41211 5.88221L2.41397 6.99561L6.99654 6.98804V2.41211H5.88314V5.8765Z" fill="#2D50C8"/>
<path d="M12.8033 12.2471C9.93829 12.2471 7.60742 14.5779 7.60742 17.4429V17.9996H17.9992V17.4429C17.9992 14.5779 15.6683 12.2471 12.8033 12.2471ZM8.75864 16.8862C9.00604 15.0796 10.44 13.6458 12.2466 13.3984V15.9584H13.36V13.3984C15.1666 13.6458 16.6006 15.0796 16.848 16.8862H8.75864Z" fill="#2D50C8"/>
</g>
<defs>
<clipPath id="clip0_949_19579">
<rect width="18" height="18" fill="white"/>
</clipPath>
</defs>
</svg>
