<svg width="18" height="18" viewBox="0 0 18 18" fill="none" xmlns="http://www.w3.org/2000/svg">
<path d="M9 12.6562C10.5533 12.6562 11.8125 11.3971 11.8125 9.84375C11.8125 8.29045 10.5533 7.03125 9 7.03125C7.4467 7.03125 6.1875 8.29045 6.1875 9.84375C6.1875 11.3971 7.4467 12.6562 9 12.6562Z" stroke="#6174A4" stroke-width="1.2" stroke-linecap="round" stroke-linejoin="round"/>
<path d="M13.7812 8.15626C14.4364 8.15516 15.0827 8.30717 15.6687 8.60015C16.2546 8.89314 16.764 9.31899 17.1562 9.84376" stroke="#6174A4" stroke-width="1.2" stroke-linecap="round" stroke-linejoin="round"/>
<path d="M0.84375 9.84376C1.23595 9.31899 1.74535 8.89314 2.33132 8.60015C2.91729 8.30717 3.56362 8.15516 4.21875 8.15626" fill="#6174A4"/>
<path d="M0.84375 9.84376C1.23595 9.31899 1.74535 8.89314 2.33132 8.60015C2.91729 8.30717 3.56362 8.15516 4.21875 8.15626" stroke="#6174A4" stroke-width="1.2" stroke-linecap="round" stroke-linejoin="round"/>
<path d="M4.9502 15.1877C5.32062 14.429 5.89666 13.7897 6.6127 13.3425C7.32873 12.8953 8.15598 12.6582 9.0002 12.6582C9.84441 12.6582 10.6717 12.8953 11.3877 13.3425C12.1037 13.7897 12.6798 14.429 13.0502 15.1877" stroke="#6174A4" stroke-width="1.2" stroke-linecap="round" stroke-linejoin="round"/>
<path d="M4.21859 8.15625C3.79154 8.15668 3.37319 8.03557 3.01242 7.80708C2.65164 7.57858 2.36334 7.25213 2.18121 6.86586C1.99907 6.4796 1.93063 6.04948 1.98386 5.62577C2.0371 5.20205 2.20982 4.80223 2.48184 4.47303C2.75386 4.14383 3.11396 3.89884 3.52005 3.76669C3.92613 3.63454 4.36144 3.62069 4.77511 3.72675C5.18878 3.83281 5.56372 4.0544 5.85613 4.36564C6.14854 4.67687 6.34633 5.0649 6.42641 5.48437" stroke="#6174A4" stroke-width="1.2" stroke-linecap="round" stroke-linejoin="round"/>
<path d="M11.5732 5.48437C11.6533 5.0649 11.8511 4.67687 12.1435 4.36564C12.4359 4.0544 12.8109 3.83281 13.2245 3.72675C13.6382 3.62069 14.0735 3.63454 14.4796 3.76669C14.8857 3.89884 15.2458 4.14383 15.5178 4.47303C15.7898 4.80223 15.9626 5.20205 16.0158 5.62577C16.069 6.04948 16.0006 6.4796 15.8184 6.86586C15.6363 7.25213 15.348 7.57858 14.9872 7.80708C14.6265 8.03557 14.2081 8.15668 13.7811 8.15625" stroke="#6174A4" stroke-width="1.2" stroke-linecap="round" stroke-linejoin="round"/>
</svg>
