<svg width="25" height="26" viewBox="0 0 25 26" fill="none" xmlns="http://www.w3.org/2000/svg">
<path d="M15.0945 9.48982L17.7085 11.4375C18.2914 11.8747 18.6611 12.5332 18.736 13.2499C19.4084 13.0866 20.1109 13 20.8335 13H21.1386L18.9027 10.7641C18.6993 10.5607 18.6993 10.2309 18.9027 10.0275C19.1061 9.82415 19.4359 9.82415 19.6393 10.0275L22.7643 13.1525C22.9677 13.3559 22.9677 13.6857 22.7643 13.8891L19.6393 17.0141C19.4359 17.2175 19.1061 17.2175 18.9027 17.0141C18.6993 16.8107 18.6993 16.4809 18.9027 16.2775L21.1386 14.0417H20.8335C16.5188 14.0417 13.021 17.5394 13.021 21.8542C13.021 22.1418 12.7878 22.375 12.5002 22.375C12.2125 22.375 11.9793 22.1418 11.9793 21.8542C11.9793 17.5394 8.48155 14.0417 4.16683 14.0417H3.86173L6.09761 16.2775C6.30101 16.4809 6.30101 16.8107 6.09761 17.0141C5.89422 17.2175 5.56444 17.2175 5.36104 17.0141L2.23604 13.8891C2.03265 13.6857 2.03265 13.3559 2.23604 13.1525L5.36104 10.0275C5.56444 9.82415 5.89422 9.82415 6.09761 10.0275C6.30101 10.2309 6.30101 10.5607 6.09761 10.7641L3.86173 13H4.16683C4.88947 13 5.59188 13.0866 6.26428 13.2499C6.33919 12.5332 6.70894 11.8747 7.2923 11.4371L9.90055 9.48561C8.94537 8.7221 8.3335 7.54709 8.3335 6.22917C8.3335 3.92798 10.199 2.0625 12.5002 2.0625C14.8013 2.0625 16.6668 3.92798 16.6668 6.22917C16.6668 7.54951 16.0527 8.72642 15.0945 9.48982ZM14.1256 10.0669C13.6261 10.2787 13.0768 10.3958 12.5002 10.3958C11.9205 10.3958 11.3684 10.2775 10.8669 10.0635L7.91683 12.2708C7.52338 12.5659 7.29183 13.029 7.29183 13.5208C7.29183 13.5362 7.29116 13.5515 7.28986 13.5665C9.7088 14.4785 11.6233 16.4191 12.5002 18.8551C13.377 16.4191 15.2915 14.4785 17.7105 13.5665C17.7092 13.5515 17.7085 13.5362 17.7085 13.5208C17.7085 13.029 17.4769 12.5659 17.0848 12.2718L14.1256 10.0669ZM12.5002 9.35417C14.2261 9.35417 15.6252 7.95506 15.6252 6.22917C15.6252 4.50328 14.2261 3.10417 12.5002 3.10417C10.7743 3.10417 9.37516 4.50328 9.37516 6.22917C9.37516 7.95506 10.7743 9.35417 12.5002 9.35417Z" fill="#645DF6"/>
</svg>
