<svg width="17" height="13" viewBox="0 0 17 13" fill="none" xmlns="http://www.w3.org/2000/svg">
<path d="M2.47 5.6875C3.37824 5.6875 4.11667 4.95879 4.11667 4.0625C4.11667 3.16621 3.37824 2.4375 2.47 2.4375C1.56176 2.4375 0.823333 3.16621 0.823333 4.0625C0.823333 4.95879 1.56176 5.6875 2.47 5.6875ZM13.9967 5.6875C14.9049 5.6875 15.6433 4.95879 15.6433 4.0625C15.6433 3.16621 14.9049 2.4375 13.9967 2.4375C13.0884 2.4375 12.35 3.16621 12.35 4.0625C12.35 4.95879 13.0884 5.6875 13.9967 5.6875ZM14.82 6.5H13.1733C12.7205 6.5 12.3114 6.68027 12.0129 6.97227C13.0498 7.5334 13.7857 8.54648 13.9452 9.75H15.6433C16.0987 9.75 16.4667 9.38691 16.4667 8.9375V8.125C16.4667 7.22871 15.7282 6.5 14.82 6.5ZM8.23333 6.5C9.82597 6.5 11.115 5.22793 11.115 3.65625C11.115 2.08457 9.82597 0.8125 8.23333 0.8125C6.6407 0.8125 5.35167 2.08457 5.35167 3.65625C5.35167 5.22793 6.6407 6.5 8.23333 6.5ZM10.2093 7.3125H9.99578C9.46062 7.56641 8.86627 7.71875 8.23333 7.71875C7.6004 7.71875 7.00863 7.56641 6.47089 7.3125H6.25733C4.62096 7.3125 3.29333 8.62266 3.29333 10.2375V10.9688C3.29333 11.6416 3.84651 12.1875 4.52833 12.1875H11.9383C12.6202 12.1875 13.1733 11.6416 13.1733 10.9688V10.2375C13.1733 8.62266 11.8457 7.3125 10.2093 7.3125ZM4.45372 6.97227C4.15526 6.68027 3.74617 6.5 3.29333 6.5H1.64667C0.738427 6.5 0 7.22871 0 8.125V8.9375C0 9.38691 0.367927 9.75 0.823333 9.75H2.51889C2.68098 8.54648 3.41683 7.5334 4.45372 6.97227Z" fill="#645DF6"/>
</svg>
