<svg width="32" height="36" viewBox="0 0 32 36" fill="none" xmlns="http://www.w3.org/2000/svg">
<rect x="15.1562" width="16.1778" height="16.1778" rx="8.08889" fill="#F6DDEF"/>
<path fill-rule="evenodd" clip-rule="evenodd" d="M11.6116 4H22.2538C24.4925 4 26.3141 5.82184 26.3141 8.06126V13.2241C26.3141 15.4636 24.4924 17.2853 22.2537 17.2853H15.2248L12.2578 21.3145C12.0959 21.534 11.8417 21.6573 11.5795 21.6573C11.4915 21.6573 11.4035 21.6434 11.3172 21.6154C10.9712 21.5022 10.7376 21.1789 10.7376 20.8157V17.1893C8.91923 16.7863 7.55029 15.1553 7.55029 13.2242V8.06132C7.55029 5.82184 9.37214 4 11.6116 4ZM22.2537 15.6018C23.5642 15.6018 24.6305 14.5355 24.6305 13.2242H24.6306V8.06132C24.6306 6.75002 23.5643 5.68374 22.2538 5.68374H11.6116C10.3002 5.68374 9.23397 6.75002 9.23397 8.06132V13.2242C9.23397 14.5215 10.2904 15.5878 11.5878 15.6002C12.0498 15.6051 12.4213 15.9807 12.4213 16.442V18.2531L14.1215 15.9446C14.2801 15.7291 14.5317 15.6018 14.7989 15.6018H22.2537ZM9.50342 20.3405C9.50342 22.5011 7.74572 24.2586 5.58515 24.2586C3.42378 24.2586 1.66602 22.5011 1.66602 20.3405C1.66602 18.1791 3.42378 16.4214 5.58515 16.4214C7.74572 16.4214 9.50342 18.1792 9.50342 20.3405ZM7.81974 20.3405C7.81974 19.1082 6.81761 18.1053 5.58515 18.1053C4.3527 18.1053 3.3499 19.1082 3.34983 20.3405C3.34983 21.5728 4.3527 22.5752 5.58515 22.5752C6.81761 22.5752 7.81974 21.5728 7.81974 20.3405ZM5.58536 24.4248C2.50493 24.4248 0 26.9305 0 30.0104V35.1584C0 35.6228 0.376472 36.0001 0.841739 36.0001H10.329C10.7934 36.0001 11.1709 35.6228 11.1709 35.1584V30.0104C11.171 26.9305 8.66504 24.4248 5.58536 24.4248ZM9.48717 34.3165H1.68361V30.0104C1.68361 27.8589 3.43392 26.1084 5.58542 26.1084C7.73692 26.1084 9.48723 27.8589 9.48723 30.0104V34.3165H9.48717ZM10.9692 10.8994C10.9692 10.2023 11.5348 9.63672 12.232 9.63672C12.9292 9.63672 13.4947 10.2023 13.4947 10.8994C13.4947 11.5975 12.9292 12.1623 12.232 12.1623C11.5348 12.1623 10.9692 11.5975 10.9692 10.8994ZM16.9322 9.63672C16.2351 9.63672 15.6694 10.2023 15.6694 10.8994C15.6694 11.5975 16.2351 12.1623 16.9322 12.1623C17.6302 12.1623 18.1949 11.5975 18.1949 10.8994C18.1949 10.2023 17.6302 9.63672 16.9322 9.63672ZM20.3701 10.8994C20.3701 10.2023 20.9349 9.63672 21.633 9.63672C22.3301 9.63672 22.8958 10.2023 22.8958 10.8994C22.8958 11.5975 22.3301 12.1623 21.633 12.1623C20.9349 12.1623 20.3701 11.5975 20.3701 10.8994Z" fill="url(#paint0_linear_949_19530)"/>
<defs>
<linearGradient id="paint0_linear_949_19530" x1="13.157" y1="4" x2="13.157" y2="36.0001" gradientUnits="userSpaceOnUse">
<stop stop-color="#000AFF"/>
<stop offset="1" stop-color="#D274FF"/>
</linearGradient>
</defs>
</svg>
