<svg width="19" height="19" viewBox="0 0 19 19" fill="none" xmlns="http://www.w3.org/2000/svg">
<path d="M18.8328 15.8112L10.4969 1.98685C10.2862 1.63747 9.90798 1.42383 9.49996 1.42383C9.09194 1.42383 8.71369 1.63743 8.50302 1.98685L0.167213 15.8112C-0.04958 16.1707 -0.0559999 16.6192 0.150477 16.9848C0.356953 17.3504 0.744264 17.5764 1.16412 17.5764H17.8358C18.2557 17.5764 18.643 17.3503 18.8495 16.9848C19.056 16.6192 19.0496 16.1707 18.8328 15.8112ZM9.5062 6.20582C9.98494 6.20582 10.39 6.4759 10.39 6.95461C10.39 8.41535 10.2182 10.5145 10.2182 11.9752C10.2182 12.3558 9.80081 12.5153 9.5062 12.5153C9.11343 12.5153 8.78197 12.3557 8.78197 11.9752C8.78197 10.5145 8.61015 8.41535 8.61015 6.95461C8.61015 6.4759 9.00292 6.20582 9.5062 6.20582ZM9.51848 15.2528C8.97839 15.2528 8.57327 14.8109 8.57327 14.3076C8.57327 13.792 8.97835 13.3624 9.51848 13.3624C10.0218 13.3624 10.4514 13.792 10.4514 14.3076C10.4514 14.8109 10.0218 15.2528 9.51848 15.2528Z" fill="#FF7E36"/>
</svg>
