<svg width="39" height="39" viewBox="0 0 39 39" fill="none" xmlns="http://www.w3.org/2000/svg">
<circle cx="26.7425" cy="12.2571" r="12.2571" fill="#F7DDEF"/>
<path d="M30.9675 21.4966C30.8791 21.4966 30.7915 21.514 30.7099 21.5479C30.4648 21.6494 30.2943 21.9046 30.2943 22.1698V24.8627C30.2943 25.2163 30.2246 25.5665 30.0893 25.8932C29.954 26.2199 29.7556 26.5168 29.5056 26.7668C29.2555 27.0169 28.9586 27.2152 28.6319 27.3506C28.3052 27.4859 27.9551 27.5556 27.6014 27.5556H4.71214C3.99795 27.5556 3.31301 27.2718 2.808 26.7668C2.30299 26.2618 2.01928 25.5769 2.01928 24.8627V11.3984C2.01928 10.6842 2.30299 9.99929 2.808 9.49428C3.31301 8.98927 3.99795 8.70556 4.71214 8.70556H27.6014C28.3156 8.70556 29.0006 8.98927 29.5056 9.49428C30.0106 9.99929 30.2943 10.6842 30.2943 11.3984C30.2943 11.577 30.3652 11.7482 30.4915 11.8745C30.6177 12.0007 30.7889 12.0716 30.9675 12.0716C31.146 12.0716 31.3173 12.0007 31.4435 11.8745C31.5698 11.7482 31.6407 11.577 31.6407 11.3984C31.6407 10.3271 31.2151 9.29972 30.4576 8.54221C29.7001 7.7847 28.6727 7.35913 27.6014 7.35913H4.71214C3.64085 7.35913 2.61344 7.7847 1.85593 8.54221C1.09842 9.29972 0.672852 10.3271 0.672852 11.3984V24.8627C0.672852 25.934 1.09842 26.9614 1.85593 27.7189C2.61344 28.4764 3.64085 28.902 4.71214 28.902H27.6014C28.6727 28.902 29.7001 28.4764 30.4576 27.7189C31.2151 26.9614 31.6407 25.934 31.6407 24.8627V22.1698C31.6407 21.9046 31.4702 21.6494 31.2251 21.5479C31.1434 21.514 31.0559 21.4966 30.9675 21.4966Z" fill="url(#paint0_linear_1_106132)"/>
<path d="M30.643 13.929C30.2859 13.929 30.2948 16.4272 30.2948 16.7843V22.1416C30.2948 22.3201 30.5168 24.9456 30.643 25.0718C30.7693 25.1981 30.4645 23.4004 30.643 23.4004C31.6886 23.4004 31.6412 24.4527 31.6412 19.4771L31.6437 13.3718C31.6437 13.1066 31.4452 14.0305 31.2002 13.929C31.1185 13.8951 30.7314 13.929 30.643 13.929ZM30.2909 11.0112C30.2567 11.0932 30.2948 18.915 30.2948 19.0039C30.2948 19.2705 30.463 14.6142 30.7091 14.7168C30.7911 14.7509 30.8791 14.7685 30.968 14.7685C31.0569 14.7685 31.1449 14.7509 31.2269 14.7168C31.3089 14.6826 31.3834 14.6325 31.446 14.5694C31.5268 14.4617 31.606 18.5191 31.6412 18.3861C31.6448 18.3413 31.6448 11.2887 31.6412 11.2439C31.6452 10.5529 30.5703 10.3406 30.2909 11.0112ZM28.2751 36.9807H4.03943C3.86088 36.9807 3.68964 37.0516 3.56339 37.1779C3.43714 37.3041 3.36621 37.4754 3.36621 37.6539C3.36621 37.8325 3.43714 38.0037 3.56339 38.13C3.68964 38.2562 3.86088 38.3271 4.03943 38.3271H28.2751C28.4537 38.3271 28.6249 38.2562 28.7512 38.13C28.8774 38.0037 28.9484 37.8325 28.9484 37.6539C28.9484 37.4754 28.8774 37.3041 28.7512 37.1779C28.6249 37.0516 28.4537 36.9807 28.2751 36.9807ZM21.543 33.6146C21.7215 33.6146 21.8928 33.5437 22.019 33.4175C22.1453 33.2912 22.2162 33.12 22.2162 32.9414C22.2162 32.7629 22.1453 32.5916 22.019 32.4654C21.8928 32.3391 21.7215 32.2682 21.543 32.2682H10.7716C10.593 32.2682 10.4218 32.3391 10.2955 32.4654C10.1693 32.5916 10.0984 32.7629 10.0984 32.9414C10.0984 33.12 10.1693 33.2912 10.2955 33.4175C10.4218 33.5437 10.593 33.6146 10.7716 33.6146H21.543ZM22.2162 18.8039C22.3948 18.8039 22.566 18.733 22.6922 18.6067C22.8185 18.4805 22.8894 18.3093 22.8894 18.1307C22.8894 17.9522 22.8185 17.7809 22.6922 17.6547C22.566 17.5284 22.3948 17.4575 22.2162 17.4575H20.8159C20.7026 16.681 20.3971 15.9452 19.9273 15.3167L20.9169 14.327C20.9874 14.2667 21.0446 14.1924 21.085 14.1089C21.1254 14.0254 21.1481 13.9344 21.1517 13.8417C21.1553 13.749 21.1397 13.6565 21.1058 13.5701C21.072 13.4837 21.0207 13.4053 20.955 13.3397C20.8894 13.2741 20.811 13.2227 20.7246 13.1889C20.6382 13.155 20.5457 13.1394 20.453 13.143C20.3603 13.1466 20.2693 13.1693 20.1858 13.2097C20.1023 13.2501 20.028 13.3073 19.9677 13.3778L18.9713 14.3607C18.3428 13.8909 17.607 13.5854 16.8305 13.4721V12.0718C16.8305 11.8932 16.7596 11.722 16.6333 11.5957C16.5071 11.4695 16.3358 11.3986 16.1573 11.3986C15.9787 11.3986 15.8075 11.4695 15.6812 11.5957C15.555 11.722 15.4841 11.8932 15.4841 12.0718V13.4721C14.7076 13.5854 13.9717 13.8909 13.3432 14.3607L12.3469 13.3711C12.2181 13.2608 12.0524 13.2032 11.883 13.2097C11.7136 13.2162 11.5529 13.2865 11.433 13.4064C11.3131 13.5263 11.2428 13.687 11.2363 13.8564C11.2297 14.0259 11.2874 14.1915 11.3977 14.3203L12.3873 15.3099C11.9164 15.9404 11.6109 16.6787 11.4986 17.4575H10.0984C9.91981 17.4575 9.74857 17.5284 9.62232 17.6547C9.49607 17.7809 9.42514 17.9522 9.42514 18.1307C9.42514 18.3093 9.49607 18.4805 9.62232 18.6067C9.74857 18.733 9.91981 18.8039 10.0984 18.8039H11.4986C11.612 19.5804 11.9175 20.3162 12.3873 20.9447L11.3977 21.9344C11.3272 21.9947 11.2699 22.069 11.2295 22.1525C11.1891 22.236 11.1664 22.327 11.1628 22.4197C11.1593 22.5124 11.1749 22.6049 11.2087 22.6913C11.2426 22.7777 11.2939 22.8561 11.3595 22.9217C11.4251 22.9873 11.5036 23.0387 11.59 23.0725C11.6764 23.1064 11.7688 23.122 11.8615 23.1184C11.9543 23.1148 12.0452 23.0921 12.1287 23.0517C12.2123 23.0113 12.2865 22.9541 12.3469 22.8836L13.3365 21.894C13.9663 22.3672 14.7046 22.6751 15.4841 22.7894V24.1896C15.4841 24.3682 15.555 24.5394 15.6812 24.6657C15.8075 24.7919 15.9787 24.8629 16.1573 24.8629C16.3358 24.8629 16.5071 24.7919 16.6333 24.6657C16.7596 24.5394 16.8305 24.3682 16.8305 24.1896V22.7894C17.607 22.676 18.3428 22.3705 18.9713 21.9007L19.9609 22.8903C20.0897 23.0006 20.2554 23.0583 20.4248 23.0517C20.5943 23.0452 20.755 22.9749 20.8749 22.855C20.9948 22.7351 21.065 22.5744 21.0716 22.405C21.0781 22.2355 21.0205 22.0699 20.9102 21.9411L19.9273 20.9447C20.3971 20.3162 20.7026 19.5804 20.8159 18.8039H22.2162ZM16.1573 21.4968C15.4915 21.4968 14.8407 21.2994 14.2872 20.9295C13.7336 20.5596 13.3022 20.0339 13.0474 19.4188C12.7927 18.8038 12.726 18.127 12.8559 17.474C12.9858 16.8211 13.3064 16.2213 13.7771 15.7505C14.2479 15.2798 14.8476 14.9592 15.5006 14.8293C16.1535 14.6994 16.8304 14.7661 17.4454 15.0209C18.0605 15.2756 18.5862 15.7071 18.9561 16.2606C19.3259 16.8142 19.5234 17.465 19.5234 18.1307C19.5234 19.0234 19.1687 19.8796 18.5375 20.5109C17.9062 21.1421 17.05 21.4968 16.1573 21.4968Z" fill="url(#paint1_linear_1_106132)"/>
<defs>
<linearGradient id="paint0_linear_1_106132" x1="16.1568" y1="7.35913" x2="16.1568" y2="28.902" gradientUnits="userSpaceOnUse">
<stop stop-color="#000AFF"/>
<stop offset="1" stop-color="#D274FF"/>
</linearGradient>
<linearGradient id="paint1_linear_1_106132" x1="17.5051" y1="10.6035" x2="17.5051" y2="38.3271" gradientUnits="userSpaceOnUse">
<stop stop-color="#000AFF"/>
<stop offset="1" stop-color="#D274FF"/>
</linearGradient>
</defs>
</svg>
