<svg width="23" height="23" viewBox="0 0 23 23" fill="none" xmlns="http://www.w3.org/2000/svg">
<path d="M13.3227 1.66966V3.49888C15.7665 3.51254 18.4402 3.47373 20.8847 3.51254C20.9709 3.49755 21.0595 3.50287 21.1433 3.52808C21.2271 3.55329 21.3038 3.5977 21.3675 3.65778C21.4311 3.71785 21.4799 3.79194 21.5098 3.87416C21.5398 3.95637 21.5502 4.04444 21.5402 4.13138C21.579 8.63507 21.5309 13.3961 21.5632 17.9005C21.5488 18.188 21.5697 18.704 21.5251 18.9908C21.4683 19.3567 21.3052 19.4271 20.9379 19.4767C20.7323 19.5047 20.3888 19.5011 20.1868 19.5105C18.1801 19.5004 16.1747 19.5026 14.168 19.5033H13.3235V21.3339L1.4375 19.5019C1.4375 14.1673 1.4375 8.83416 1.4375 3.50248L13.3227 1.66966Z" fill="#283C82"/>
<path d="M13.3223 4.18457H20.8691V18.8169H13.3223V16.9877H19.2663V16.0734H13.3223V14.9306H19.2663V14.0156H13.3223V12.8728H19.2663V11.9579H13.3223V10.815H19.2663V9.90007H13.3223V8.75726H19.2663V7.84229H13.3223V6.69948H19.2663V5.78451H13.3223V4.18457Z" fill="white"/>
<path d="M6.16223 8.2246C6.59348 8.19944 7.0312 8.18147 7.46533 8.15847C7.76936 9.70163 8.08058 11.2426 8.40977 12.7793C8.6678 11.1923 8.95386 9.61035 9.23058 8.02622C9.6877 8.01041 10.1448 7.98525 10.5998 7.95435C10.083 10.1695 9.6302 12.4034 9.06599 14.6057C8.68433 14.8048 8.11292 14.5963 7.66011 14.6287C7.35608 13.115 7.00173 11.6099 6.72933 10.0905C6.46195 11.5718 6.11408 13.033 5.80789 14.5007C5.36897 14.4777 4.92838 14.4511 4.48611 14.4209C4.10661 12.4084 3.66098 10.411 3.30664 8.39422C3.69764 8.37625 4.0908 8.35972 4.4818 8.34606C4.71755 9.80225 4.98492 11.252 5.19048 12.7103C5.51248 11.2153 5.84239 9.7196 6.16223 8.2246Z" fill="white"/>
</svg>
